<?xml version="1.0" encoding="UTF-8" standalone="no"?><svg xmlns="http://www.w3.org/2000/svg" xmlns:xlink="http://www.w3.org/1999/xlink" contentStyleType="text/css" height="794px" preserveAspectRatio="none" style="width:830px;height:794px;background:#FFFFFF;" version="1.1" viewBox="0 0 830 794" width="830px" zoomAndPan="magnify"><defs/><g><rect fill="#F1F1F1" height="81.9531" rx="5" ry="5" style="stroke:#F1F1F1;stroke-width:1.5;" width="265" x="10" y="264.5"/><text fill="#000000" font-family="sans-serif" font-size="14" font-weight="bold" lengthAdjust="spacing" textLength="42" x="15" y="280.0352">field1</text><text fill="#000000" font-family="sans-serif" font-size="14" lengthAdjust="spacing" textLength="121" x="149" y="280.0352">orderLineNumber</text><line style="stroke:#000000;stroke-width:1.0;" x1="144" x2="144" y1="264.5" y2="284.9883"/><line style="stroke:#000000;stroke-width:1.0;" x1="10" x2="275" y1="284.9883" y2="284.9883"/><text fill="#000000" font-family="sans-serif" font-size="14" font-weight="bold" lengthAdjust="spacing" textLength="90" x="15" y="300.5234">combination</text><text fill="#000000" font-family="sans-serif" font-size="14" lengthAdjust="spacing" textLength="121" x="149" y="300.5234">orderLineNumber</text><line style="stroke:#000000;stroke-width:1.0;" x1="144" x2="144" y1="284.9883" y2="305.4766"/><line style="stroke:#000000;stroke-width:1.0;" x1="10" x2="275" y1="305.4766" y2="305.4766"/><text fill="#000000" font-family="sans-serif" font-size="14" font-weight="bold" lengthAdjust="spacing" textLength="121" x="15" y="321.0117">null_distribution</text><text fill="#000000" font-family="sans-serif" font-size="14" lengthAdjust="spacing" textLength="12" x="149" y="321.0117">   </text><line style="stroke:#000000;stroke-width:1.0;" x1="144" x2="144" y1="305.4766" y2="325.9648"/><line style="stroke:#000000;stroke-width:1.0;" x1="10" x2="275" y1="325.9648" y2="325.9648"/><text fill="#000000" font-family="sans-serif" font-size="14" font-weight="bold" lengthAdjust="spacing" textLength="124" x="15" y="341.5">data_distribution</text><text fill="#000000" font-family="sans-serif" font-size="14" lengthAdjust="spacing" textLength="12" x="149" y="341.5">   </text><line style="stroke:#000000;stroke-width:1.0;" x1="144" x2="144" y1="325.9648" y2="346.4531"/><rect fill="none" height="81.9531" rx="5" ry="5" style="stroke:#000000;stroke-width:1.5;" width="265" x="10" y="264.5"/><rect fill="#F1F1F1" height="40.9766" rx="5" ry="5" style="stroke:#F1F1F1;stroke-width:1.5;" width="198" x="312" y="235"/><text fill="#000000" font-family="sans-serif" font-size="14" font-weight="bold" lengthAdjust="spacing" textLength="111" x="317" y="250.5352">total_null_rows</text><text fill="#000000" font-family="sans-serif" font-size="14" lengthAdjust="spacing" textLength="9" x="469" y="250.5352">0</text><line style="stroke:#000000;stroke-width:1.0;" x1="464" x2="464" y1="235" y2="255.4883"/><line style="stroke:#000000;stroke-width:1.0;" x1="312" x2="510" y1="255.4883" y2="255.4883"/><text fill="#000000" font-family="sans-serif" font-size="14" font-weight="bold" lengthAdjust="spacing" textLength="142" x="317" y="271.0234">total_not_null_rows</text><text fill="#000000" font-family="sans-serif" font-size="14" lengthAdjust="spacing" textLength="36" x="469" y="271.0234">2996</text><line style="stroke:#000000;stroke-width:1.0;" x1="464" x2="464" y1="255.4883" y2="275.9766"/><rect fill="none" height="40.9766" rx="5" ry="5" style="stroke:#000000;stroke-width:1.5;" width="198" x="312" y="235"/><rect fill="#F1F1F1" height="204.8828" rx="5" ry="5" style="stroke:#F1F1F1;stroke-width:1.5;" width="22" x="399" y="294"/><text fill="#000000" font-family="sans-serif" font-size="14" lengthAdjust="spacing" textLength="12" x="404" y="309.5352">   </text><line style="stroke:#000000;stroke-width:1.0;" x1="399" x2="421" y1="314.4883" y2="314.4883"/><text fill="#000000" font-family="sans-serif" font-size="14" lengthAdjust="spacing" textLength="12" x="404" y="330.0234">   </text><line style="stroke:#000000;stroke-width:1.0;" x1="399" x2="421" y1="334.9766" y2="334.9766"/><text fill="#000000" font-family="sans-serif" font-size="14" lengthAdjust="spacing" textLength="12" x="404" y="350.5117">   </text><line style="stroke:#000000;stroke-width:1.0;" x1="399" x2="421" y1="355.4648" y2="355.4648"/><text fill="#000000" font-family="sans-serif" font-size="14" lengthAdjust="spacing" textLength="12" x="404" y="371">   </text><line style="stroke:#000000;stroke-width:1.0;" x1="399" x2="421" y1="375.9531" y2="375.9531"/><text fill="#000000" font-family="sans-serif" font-size="14" lengthAdjust="spacing" textLength="12" x="404" y="391.4883">   </text><line style="stroke:#000000;stroke-width:1.0;" x1="399" x2="421" y1="396.4414" y2="396.4414"/><text fill="#000000" font-family="sans-serif" font-size="14" lengthAdjust="spacing" textLength="12" x="404" y="411.9766">   </text><line style="stroke:#000000;stroke-width:1.0;" x1="399" x2="421" y1="416.9297" y2="416.9297"/><text fill="#000000" font-family="sans-serif" font-size="14" lengthAdjust="spacing" textLength="12" x="404" y="432.4648">   </text><line style="stroke:#000000;stroke-width:1.0;" x1="399" x2="421" y1="437.418" y2="437.418"/><text fill="#000000" font-family="sans-serif" font-size="14" lengthAdjust="spacing" textLength="12" x="404" y="452.9531">   </text><line style="stroke:#000000;stroke-width:1.0;" x1="399" x2="421" y1="457.9063" y2="457.9063"/><text fill="#000000" font-family="sans-serif" font-size="14" lengthAdjust="spacing" textLength="12" x="404" y="473.4414">   </text><line style="stroke:#000000;stroke-width:1.0;" x1="399" x2="421" y1="478.3945" y2="478.3945"/><text fill="#000000" font-family="sans-serif" font-size="14" lengthAdjust="spacing" textLength="12" x="404" y="493.9297">   </text><rect fill="none" height="204.8828" rx="5" ry="5" style="stroke:#000000;stroke-width:1.5;" width="22" x="399" y="294"/><rect fill="#F1F1F1" height="61.4648" rx="5" ry="5" style="stroke:#F1F1F1;stroke-width:1.5;" width="271" x="547" y="10"/><text fill="#000000" font-family="sans-serif" font-size="14" font-weight="bold" lengthAdjust="spacing" textLength="78" x="552" y="25.5352">field_value</text><text fill="#000000" font-family="sans-serif" font-size="14" lengthAdjust="spacing" textLength="9" x="656" y="25.5352">1</text><line style="stroke:#000000;stroke-width:1.0;" x1="651" x2="651" y1="10" y2="30.4883"/><line style="stroke:#000000;stroke-width:1.0;" x1="547" x2="818" y1="30.4883" y2="30.4883"/><text fill="#000000" font-family="sans-serif" font-size="14" font-weight="bold" lengthAdjust="spacing" textLength="74" x="552" y="46.0234">row_count</text><text fill="#000000" font-family="sans-serif" font-size="14" lengthAdjust="spacing" textLength="27" x="656" y="46.0234">326</text><line style="stroke:#000000;stroke-width:1.0;" x1="651" x2="651" y1="30.4883" y2="50.9766"/><line style="stroke:#000000;stroke-width:1.0;" x1="547" x2="818" y1="50.9766" y2="50.9766"/><text fill="#000000" font-family="sans-serif" font-size="14" font-weight="bold" lengthAdjust="spacing" textLength="94" x="552" y="66.5117">ratio_percent</text><text fill="#000000" font-family="sans-serif" font-size="14" lengthAdjust="spacing" textLength="157" x="656" y="66.5117">10.881174899866489</text><line style="stroke:#000000;stroke-width:1.0;" x1="651" x2="651" y1="50.9766" y2="71.4648"/><rect fill="none" height="61.4648" rx="5" ry="5" style="stroke:#000000;stroke-width:1.5;" width="271" x="547" y="10"/><rect fill="#F1F1F1" height="61.4648" rx="5" ry="5" style="stroke:#F1F1F1;stroke-width:1.5;" width="271" x="547" y="89"/><text fill="#000000" font-family="sans-serif" font-size="14" font-weight="bold" lengthAdjust="spacing" textLength="78" x="552" y="104.5352">field_value</text><text fill="#000000" font-family="sans-serif" font-size="14" lengthAdjust="spacing" textLength="9" x="656" y="104.5352">2</text><line style="stroke:#000000;stroke-width:1.0;" x1="651" x2="651" y1="89" y2="109.4883"/><line style="stroke:#000000;stroke-width:1.0;" x1="547" x2="818" y1="109.4883" y2="109.4883"/><text fill="#000000" font-family="sans-serif" font-size="14" font-weight="bold" lengthAdjust="spacing" textLength="74" x="552" y="125.0234">row_count</text><text fill="#000000" font-family="sans-serif" font-size="14" lengthAdjust="spacing" textLength="27" x="656" y="125.0234">309</text><line style="stroke:#000000;stroke-width:1.0;" x1="651" x2="651" y1="109.4883" y2="129.9766"/><line style="stroke:#000000;stroke-width:1.0;" x1="547" x2="818" y1="129.9766" y2="129.9766"/><text fill="#000000" font-family="sans-serif" font-size="14" font-weight="bold" lengthAdjust="spacing" textLength="94" x="552" y="145.5117">ratio_percent</text><text fill="#000000" font-family="sans-serif" font-size="14" lengthAdjust="spacing" textLength="157" x="656" y="145.5117">10.313751668891856</text><line style="stroke:#000000;stroke-width:1.0;" x1="651" x2="651" y1="129.9766" y2="150.4648"/><rect fill="none" height="61.4648" rx="5" ry="5" style="stroke:#000000;stroke-width:1.5;" width="271" x="547" y="89"/><rect fill="#F1F1F1" height="61.4648" rx="5" ry="5" style="stroke:#F1F1F1;stroke-width:1.5;" width="253" x="556" y="168"/><text fill="#000000" font-family="sans-serif" font-size="14" font-weight="bold" lengthAdjust="spacing" textLength="78" x="561" y="183.5352">field_value</text><text fill="#000000" font-family="sans-serif" font-size="14" lengthAdjust="spacing" textLength="9" x="665" y="183.5352">3</text><line style="stroke:#000000;stroke-width:1.0;" x1="660" x2="660" y1="168" y2="188.4883"/><line style="stroke:#000000;stroke-width:1.0;" x1="556" x2="809" y1="188.4883" y2="188.4883"/><text fill="#000000" font-family="sans-serif" font-size="14" font-weight="bold" lengthAdjust="spacing" textLength="74" x="561" y="204.0234">row_count</text><text fill="#000000" font-family="sans-serif" font-size="14" lengthAdjust="spacing" textLength="27" x="665" y="204.0234">287</text><line style="stroke:#000000;stroke-width:1.0;" x1="660" x2="660" y1="188.4883" y2="208.9766"/><line style="stroke:#000000;stroke-width:1.0;" x1="556" x2="809" y1="208.9766" y2="208.9766"/><text fill="#000000" font-family="sans-serif" font-size="14" font-weight="bold" lengthAdjust="spacing" textLength="94" x="561" y="224.5117">ratio_percent</text><text fill="#000000" font-family="sans-serif" font-size="14" lengthAdjust="spacing" textLength="139" x="665" y="224.5117">9.57943925233645</text><line style="stroke:#000000;stroke-width:1.0;" x1="660" x2="660" y1="208.9766" y2="229.4648"/><rect fill="none" height="61.4648" rx="5" ry="5" style="stroke:#000000;stroke-width:1.5;" width="253" x="556" y="168"/><rect fill="#F1F1F1" height="61.4648" rx="5" ry="5" style="stroke:#F1F1F1;stroke-width:1.5;" width="253" x="556" y="247"/><text fill="#000000" font-family="sans-serif" font-size="14" font-weight="bold" lengthAdjust="spacing" textLength="78" x="561" y="262.5352">field_value</text><text fill="#000000" font-family="sans-serif" font-size="14" lengthAdjust="spacing" textLength="9" x="665" y="262.5352">4</text><line style="stroke:#000000;stroke-width:1.0;" x1="660" x2="660" y1="247" y2="267.4883"/><line style="stroke:#000000;stroke-width:1.0;" x1="556" x2="809" y1="267.4883" y2="267.4883"/><text fill="#000000" font-family="sans-serif" font-size="14" font-weight="bold" lengthAdjust="spacing" textLength="74" x="561" y="283.0234">row_count</text><text fill="#000000" font-family="sans-serif" font-size="14" lengthAdjust="spacing" textLength="27" x="665" y="283.0234">273</text><line style="stroke:#000000;stroke-width:1.0;" x1="660" x2="660" y1="267.4883" y2="287.9766"/><line style="stroke:#000000;stroke-width:1.0;" x1="556" x2="809" y1="287.9766" y2="287.9766"/><text fill="#000000" font-family="sans-serif" font-size="14" font-weight="bold" lengthAdjust="spacing" textLength="94" x="561" y="303.5117">ratio_percent</text><text fill="#000000" font-family="sans-serif" font-size="14" lengthAdjust="spacing" textLength="139" x="665" y="303.5117">9.11214953271028</text><line style="stroke:#000000;stroke-width:1.0;" x1="660" x2="660" y1="287.9766" y2="308.4648"/><rect fill="none" height="61.4648" rx="5" ry="5" style="stroke:#000000;stroke-width:1.5;" width="253" x="556" y="247"/><rect fill="#F1F1F1" height="61.4648" rx="5" ry="5" style="stroke:#F1F1F1;stroke-width:1.5;" width="262" x="551.5" y="326"/><text fill="#000000" font-family="sans-serif" font-size="14" font-weight="bold" lengthAdjust="spacing" textLength="78" x="556.5" y="341.5352">field_value</text><text fill="#000000" font-family="sans-serif" font-size="14" lengthAdjust="spacing" textLength="9" x="660.5" y="341.5352">5</text><line style="stroke:#000000;stroke-width:1.0;" x1="655.5" x2="655.5" y1="326" y2="346.4883"/><line style="stroke:#000000;stroke-width:1.0;" x1="551.5" x2="813.5" y1="346.4883" y2="346.4883"/><text fill="#000000" font-family="sans-serif" font-size="14" font-weight="bold" lengthAdjust="spacing" textLength="74" x="556.5" y="362.0234">row_count</text><text fill="#000000" font-family="sans-serif" font-size="14" lengthAdjust="spacing" textLength="27" x="660.5" y="362.0234">256</text><line style="stroke:#000000;stroke-width:1.0;" x1="655.5" x2="655.5" y1="346.4883" y2="366.9766"/><line style="stroke:#000000;stroke-width:1.0;" x1="551.5" x2="813.5" y1="366.9766" y2="366.9766"/><text fill="#000000" font-family="sans-serif" font-size="14" font-weight="bold" lengthAdjust="spacing" textLength="94" x="556.5" y="382.5117">ratio_percent</text><text fill="#000000" font-family="sans-serif" font-size="14" lengthAdjust="spacing" textLength="148" x="660.5" y="382.5117">8.544726301735647</text><line style="stroke:#000000;stroke-width:1.0;" x1="655.5" x2="655.5" y1="366.9766" y2="387.4648"/><rect fill="none" height="61.4648" rx="5" ry="5" style="stroke:#000000;stroke-width:1.5;" width="262" x="551.5" y="326"/><rect fill="#F1F1F1" height="61.4648" rx="5" ry="5" style="stroke:#F1F1F1;stroke-width:1.5;" width="253" x="556" y="405"/><text fill="#000000" font-family="sans-serif" font-size="14" font-weight="bold" lengthAdjust="spacing" textLength="78" x="561" y="420.5352">field_value</text><text fill="#000000" font-family="sans-serif" font-size="14" lengthAdjust="spacing" textLength="9" x="665" y="420.5352">6</text><line style="stroke:#000000;stroke-width:1.0;" x1="660" x2="660" y1="405" y2="425.4883"/><line style="stroke:#000000;stroke-width:1.0;" x1="556" x2="809" y1="425.4883" y2="425.4883"/><text fill="#000000" font-family="sans-serif" font-size="14" font-weight="bold" lengthAdjust="spacing" textLength="74" x="561" y="441.0234">row_count</text><text fill="#000000" font-family="sans-serif" font-size="14" lengthAdjust="spacing" textLength="27" x="665" y="441.0234">238</text><line style="stroke:#000000;stroke-width:1.0;" x1="660" x2="660" y1="425.4883" y2="445.9766"/><line style="stroke:#000000;stroke-width:1.0;" x1="556" x2="809" y1="445.9766" y2="445.9766"/><text fill="#000000" font-family="sans-serif" font-size="14" font-weight="bold" lengthAdjust="spacing" textLength="94" x="561" y="461.5117">ratio_percent</text><text fill="#000000" font-family="sans-serif" font-size="14" lengthAdjust="spacing" textLength="139" x="665" y="461.5117">7.94392523364486</text><line style="stroke:#000000;stroke-width:1.0;" x1="660" x2="660" y1="445.9766" y2="466.4648"/><rect fill="none" height="61.4648" rx="5" ry="5" style="stroke:#000000;stroke-width:1.5;" width="253" x="556" y="405"/><rect fill="#F1F1F1" height="61.4648" rx="5" ry="5" style="stroke:#F1F1F1;stroke-width:1.5;" width="262" x="551.5" y="484"/><text fill="#000000" font-family="sans-serif" font-size="14" font-weight="bold" lengthAdjust="spacing" textLength="78" x="556.5" y="499.5352">field_value</text><text fill="#000000" font-family="sans-serif" font-size="14" lengthAdjust="spacing" textLength="9" x="660.5" y="499.5352">7</text><line style="stroke:#000000;stroke-width:1.0;" x1="655.5" x2="655.5" y1="484" y2="504.4883"/><line style="stroke:#000000;stroke-width:1.0;" x1="551.5" x2="813.5" y1="504.4883" y2="504.4883"/><text fill="#000000" font-family="sans-serif" font-size="14" font-weight="bold" lengthAdjust="spacing" textLength="74" x="556.5" y="520.0234">row_count</text><text fill="#000000" font-family="sans-serif" font-size="14" lengthAdjust="spacing" textLength="27" x="660.5" y="520.0234">212</text><line style="stroke:#000000;stroke-width:1.0;" x1="655.5" x2="655.5" y1="504.4883" y2="524.9766"/><line style="stroke:#000000;stroke-width:1.0;" x1="551.5" x2="813.5" y1="524.9766" y2="524.9766"/><text fill="#000000" font-family="sans-serif" font-size="14" font-weight="bold" lengthAdjust="spacing" textLength="94" x="556.5" y="540.5117">ratio_percent</text><text fill="#000000" font-family="sans-serif" font-size="14" lengthAdjust="spacing" textLength="148" x="660.5" y="540.5117">7.076101468624833</text><line style="stroke:#000000;stroke-width:1.0;" x1="655.5" x2="655.5" y1="524.9766" y2="545.4648"/><rect fill="none" height="61.4648" rx="5" ry="5" style="stroke:#000000;stroke-width:1.5;" width="262" x="551.5" y="484"/><rect fill="#F1F1F1" height="61.4648" rx="5" ry="5" style="stroke:#F1F1F1;stroke-width:1.5;" width="253" x="556" y="563"/><text fill="#000000" font-family="sans-serif" font-size="14" font-weight="bold" lengthAdjust="spacing" textLength="78" x="561" y="578.5352">field_value</text><text fill="#000000" font-family="sans-serif" font-size="14" lengthAdjust="spacing" textLength="9" x="665" y="578.5352">8</text><line style="stroke:#000000;stroke-width:1.0;" x1="660" x2="660" y1="563" y2="583.4883"/><line style="stroke:#000000;stroke-width:1.0;" x1="556" x2="809" y1="583.4883" y2="583.4883"/><text fill="#000000" font-family="sans-serif" font-size="14" font-weight="bold" lengthAdjust="spacing" textLength="74" x="561" y="599.0234">row_count</text><text fill="#000000" font-family="sans-serif" font-size="14" lengthAdjust="spacing" textLength="27" x="665" y="599.0234">201</text><line style="stroke:#000000;stroke-width:1.0;" x1="660" x2="660" y1="583.4883" y2="603.9766"/><line style="stroke:#000000;stroke-width:1.0;" x1="556" x2="809" y1="603.9766" y2="603.9766"/><text fill="#000000" font-family="sans-serif" font-size="14" font-weight="bold" lengthAdjust="spacing" textLength="94" x="561" y="619.5117">ratio_percent</text><text fill="#000000" font-family="sans-serif" font-size="14" lengthAdjust="spacing" textLength="139" x="665" y="619.5117">6.70894526034713</text><line style="stroke:#000000;stroke-width:1.0;" x1="660" x2="660" y1="603.9766" y2="624.4648"/><rect fill="none" height="61.4648" rx="5" ry="5" style="stroke:#000000;stroke-width:1.5;" width="253" x="556" y="563"/><rect fill="#F1F1F1" height="61.4648" rx="5" ry="5" style="stroke:#F1F1F1;stroke-width:1.5;" width="262" x="551.5" y="642"/><text fill="#000000" font-family="sans-serif" font-size="14" font-weight="bold" lengthAdjust="spacing" textLength="78" x="556.5" y="657.5352">field_value</text><text fill="#000000" font-family="sans-serif" font-size="14" lengthAdjust="spacing" textLength="9" x="660.5" y="657.5352">9</text><line style="stroke:#000000;stroke-width:1.0;" x1="655.5" x2="655.5" y1="642" y2="662.4883"/><line style="stroke:#000000;stroke-width:1.0;" x1="551.5" x2="813.5" y1="662.4883" y2="662.4883"/><text fill="#000000" font-family="sans-serif" font-size="14" font-weight="bold" lengthAdjust="spacing" textLength="74" x="556.5" y="678.0234">row_count</text><text fill="#000000" font-family="sans-serif" font-size="14" lengthAdjust="spacing" textLength="27" x="660.5" y="678.0234">177</text><line style="stroke:#000000;stroke-width:1.0;" x1="655.5" x2="655.5" y1="662.4883" y2="682.9766"/><line style="stroke:#000000;stroke-width:1.0;" x1="551.5" x2="813.5" y1="682.9766" y2="682.9766"/><text fill="#000000" font-family="sans-serif" font-size="14" font-weight="bold" lengthAdjust="spacing" textLength="94" x="556.5" y="698.5117">ratio_percent</text><text fill="#000000" font-family="sans-serif" font-size="14" lengthAdjust="spacing" textLength="148" x="660.5" y="698.5117">5.907877169559413</text><line style="stroke:#000000;stroke-width:1.0;" x1="655.5" x2="655.5" y1="682.9766" y2="703.4648"/><rect fill="none" height="61.4648" rx="5" ry="5" style="stroke:#000000;stroke-width:1.5;" width="262" x="551.5" y="642"/><rect fill="#F1F1F1" height="61.4648" rx="5" ry="5" style="stroke:#F1F1F1;stroke-width:1.5;" width="262" x="551.5" y="721"/><text fill="#000000" font-family="sans-serif" font-size="14" font-weight="bold" lengthAdjust="spacing" textLength="78" x="556.5" y="736.5352">field_value</text><text fill="#000000" font-family="sans-serif" font-size="14" lengthAdjust="spacing" textLength="18" x="660.5" y="736.5352">10</text><line style="stroke:#000000;stroke-width:1.0;" x1="655.5" x2="655.5" y1="721" y2="741.4883"/><line style="stroke:#000000;stroke-width:1.0;" x1="551.5" x2="813.5" y1="741.4883" y2="741.4883"/><text fill="#000000" font-family="sans-serif" font-size="14" font-weight="bold" lengthAdjust="spacing" textLength="74" x="556.5" y="757.0234">row_count</text><text fill="#000000" font-family="sans-serif" font-size="14" lengthAdjust="spacing" textLength="27" x="660.5" y="757.0234">149</text><line style="stroke:#000000;stroke-width:1.0;" x1="655.5" x2="655.5" y1="741.4883" y2="761.9766"/><line style="stroke:#000000;stroke-width:1.0;" x1="551.5" x2="813.5" y1="761.9766" y2="761.9766"/><text fill="#000000" font-family="sans-serif" font-size="14" font-weight="bold" lengthAdjust="spacing" textLength="94" x="556.5" y="777.5117">ratio_percent</text><text fill="#000000" font-family="sans-serif" font-size="14" lengthAdjust="spacing" textLength="148" x="660.5" y="777.5117">4.973297730307076</text><line style="stroke:#000000;stroke-width:1.0;" x1="655.5" x2="655.5" y1="761.9766" y2="782.4648"/><rect fill="none" height="61.4648" rx="5" ry="5" style="stroke:#000000;stroke-width:1.5;" width="262" x="551.5" y="721"/><path d="M263,315.5 L276,315.5 C296.8273,315.5 293.6745,295.3971 312,285.5 C316.2321,283.2144 320.6626,281.0778 325.2032,279.0842 " fill="none" style="stroke:#000000;stroke-width:1.0;stroke-dasharray:3.0,3.0;"/><path d="M326.4096,281.9694 L327.3671,278.1794 L323.9968,276.199 L332.4162,276.0682 L326.4096,281.9694 " fill="#000000" style="stroke:#000000;stroke-width:1.0;"/><ellipse cx="263" cy="315.5" fill="#000000" rx="3" ry="3" style="stroke:#000000;stroke-width:1.0;"/><path d="M411.5,303.5 L424.5,303.5 C463.768,303.5 483.6833,313.7095 511,285.5 C575.6556,218.7312 484.93,148.679 547,79.5 C548.0081,78.3765 549.0463,77.2844 550.1126,76.2231 " fill="none" style="stroke:#000000;stroke-width:1.0;stroke-dasharray:3.0,3.0;"/><path d="M552.1347,78.4455 L551.7795,74.7065 L548.0905,74.0006 L555.6688,71.1678 L552.1347,78.4455 " fill="#000000" style="stroke:#000000;stroke-width:1.0;"/><ellipse cx="411.5" cy="303.5" fill="#000000" rx="3" ry="3" style="stroke:#000000;stroke-width:1.0;"/><path d="M411.5,324.5 L424.5,324.5 C466.6713,324.5 483.4563,317.4338 511,285.5 C549.3185,241.074 505.6193,200.0887 547,158.5 C548.2233,157.2705 549.4828,156.0793 550.7755,154.925 " fill="none" style="stroke:#000000;stroke-width:1.0;stroke-dasharray:3.0,3.0;"/><path d="M552.7064,157.2737 L552.537,153.4769 L548.8447,152.5764 L556.6472,150.0978 L552.7064,157.2737 " fill="#000000" style="stroke:#000000;stroke-width:1.0;"/><ellipse cx="411.5" cy="324.5" fill="#000000" rx="3" ry="3" style="stroke:#000000;stroke-width:1.0;"/><path d="M411.5,344.5 L424.5,344.5 C471.0358,344.5 477.3638,317.6588 511,285.5 C530.2747,267.0719 525.0554,252.6508 547,237.5 C549.3464,235.88 551.7599,234.3267 554.2295,232.8373 " fill="none" style="stroke:#000000;stroke-width:1.0;stroke-dasharray:3.0,3.0;"/><path d="M555.7476,235.5016 L556.2277,231.6987 L552.7115,230.173 L560.8903,229.0421 L555.7476,235.5016 " fill="#000000" style="stroke:#000000;stroke-width:1.0;"/><ellipse cx="411.5" cy="344.5" fill="#000000" rx="3" ry="3" style="stroke:#000000;stroke-width:1.0;"/><path d="M411.5,365.5 L424.5,365.5 C482.9749,365.5 491.6946,336.49 547,317.5 C553.9359,315.1184 561.1002,312.7457 568.344,310.4125 " fill="none" style="stroke:#000000;stroke-width:1.0;stroke-dasharray:3.0,3.0;"/><path d="M569.2716,313.3185 L570.5234,309.7169 L567.4164,307.5066 L575.6088,308.0936 L569.2716,313.3185 " fill="#000000" style="stroke:#000000;stroke-width:1.0;"/><ellipse cx="411.5" cy="365.5" fill="#000000" rx="3" ry="3" style="stroke:#000000;stroke-width:1.0;"/><path d="M411.5,385.5 L424.5,385.5 C463.5126,385.5 505.6422,382.1723 544.3005,377.7714 " fill="none" style="stroke:#000000;stroke-width:1.0;stroke-dasharray:3.0,3.0;"/><path d="M544.658,380.8448 L546.6055,377.5032 L543.9429,374.698 L551.9839,376.8776 L544.658,380.8448 " fill="#000000" style="stroke:#000000;stroke-width:1.0;"/><ellipse cx="411.5" cy="385.5" fill="#000000" rx="3" ry="3" style="stroke:#000000;stroke-width:1.0;"/><path d="M411.5,406.5 L424.5,406.5 C464.8833,406.5 508.6065,410.0656 548.3621,414.6964 " fill="none" style="stroke:#000000;stroke-width:1.0;stroke-dasharray:3.0,3.0;"/><path d="M547.9863,417.8548 L550.7309,414.9783 L548.7379,411.5379 L556.2582,415.636 L547.9863,417.8548 " fill="#000000" style="stroke:#000000;stroke-width:1.0;"/><ellipse cx="411.5" cy="406.5" fill="#000000" rx="3" ry="3" style="stroke:#000000;stroke-width:1.0;"/><path d="M411.5,427.5 L424.5,427.5 C482.9749,427.5 491.6301,456.6988 547,475.5 C553.0603,477.5578 559.2962,479.6034 565.6081,481.6177 " fill="none" style="stroke:#000000;stroke-width:1.0;stroke-dasharray:3.0,3.0;"/><path d="M564.6685,484.5932 L567.8397,482.3225 L566.5478,478.6423 L573.0467,483.9668 L564.6685,484.5932 " fill="#000000" style="stroke:#000000;stroke-width:1.0;"/><ellipse cx="411.5" cy="427.5" fill="#000000" rx="3" ry="3" style="stroke:#000000;stroke-width:1.0;"/><path d="M411.5,447.5 L424.5,447.5 C496.7892,447.5 483.5463,519.8683 547,554.5 C550.3928,556.3517 553.8827,558.1236 557.4448,559.8185 " fill="none" style="stroke:#000000;stroke-width:1.0;stroke-dasharray:3.0,3.0;"/><path d="M556.1787,562.5915 L559.5245,560.768 L558.7108,557.0455 L564.3772,562.9836 L556.1787,562.5915 " fill="#000000" style="stroke:#000000;stroke-width:1.0;"/><ellipse cx="411.5" cy="447.5" fill="#000000" rx="3" ry="3" style="stroke:#000000;stroke-width:1.0;"/><path d="M411.5,468.5 L424.5,468.5 C515.8344,468.5 471.9655,581.4251 547,633.5 C549.3424,635.1257 551.7523,636.6842 554.2187,638.1783 " fill="none" style="stroke:#000000;stroke-width:1.0;stroke-dasharray:3.0,3.0;"/><path d="M552.6961,640.8395 L556.2146,639.3203 L555.7413,635.5171 L560.8716,641.9848 L552.6961,640.8395 " fill="#000000" style="stroke:#000000;stroke-width:1.0;"/><ellipse cx="411.5" cy="468.5" fill="#000000" rx="3" ry="3" style="stroke:#000000;stroke-width:1.0;"/><path d="M411.5,488.5 L424.5,488.5 C537.9703,488.5 458.4693,641.5224 547,712.5 C548.7844,713.9306 550.6192,715.3088 552.4983,716.6364 " fill="none" style="stroke:#000000;stroke-width:1.0;stroke-dasharray:3.0,3.0;"/><path d="M550.7695,719.2566 L554.4634,717.9329 L554.227,714.0162 L559.0488,720.9582 L550.7695,719.2566 " fill="#000000" style="stroke:#000000;stroke-width:1.0;"/><ellipse cx="411.5" cy="488.5" fill="#000000" rx="3" ry="3" style="stroke:#000000;stroke-width:1.0;"/><path d="M263,336.5 L276,336.5 C321.3406,336.5 368.4028,365.289 393.0463,382.9834 " fill="none" style="stroke:#000000;stroke-width:1.0;stroke-dasharray:3.0,3.0;"/><path d="M391.181,385.5179 L394.9472,384.3824 L394.9117,380.4489 L399.3825,387.6468 L391.181,385.5179 " fill="#000000" style="stroke:#000000;stroke-width:1.0;"/><ellipse cx="263" cy="336.5" fill="#000000" rx="3" ry="3" style="stroke:#000000;stroke-width:1.0;"/><!--MD5=[6bbb005e44c457c8cab0fbc8847f72ff]
@startjson
{
    "field1": "orderLineNumber",
    "combination": "orderLineNumber",
    "null_distribution": {
        "total_null_rows": 0,
        "total_not_null_rows": 2996
    },
    "data_distribution": [
        {
            "field_value": "1",
            "row_count": 326,
            "ratio_percent": 10.881174899866489
        },
        {
            "field_value": "2",
            "row_count": 309,
            "ratio_percent": 10.313751668891856
        },
        {
            "field_value": "3",
            "row_count": 287,
            "ratio_percent": 9.57943925233645
        },
        {
            "field_value": "4",
            "row_count": 273,
            "ratio_percent": 9.11214953271028
        },
        {
            "field_value": "5",
            "row_count": 256,
            "ratio_percent": 8.544726301735647
        },
        {
            "field_value": "6",
            "row_count": 238,
            "ratio_percent": 7.94392523364486
        },
        {
            "field_value": "7",
            "row_count": 212,
            "ratio_percent": 7.076101468624833
        },
        {
            "field_value": "8",
            "row_count": 201,
            "ratio_percent": 6.70894526034713
        },
        {
            "field_value": "9",
            "row_count": 177,
            "ratio_percent": 5.907877169559413
        },
        {
            "field_value": "10",
            "row_count": 149,
            "ratio_percent": 4.973297730307076
        }
    ]
}
@endjson

PlantUML version 1.2022.5(Sat Apr 30 06:55:52 EDT 2022)
(GPL source distribution)
Java Runtime: OpenJDK Runtime Environment
JVM: OpenJDK 64-Bit Server VM
Default Encoding: UTF-8
Language: en
Country: CA
--></g></svg>