<?xml version="1.0" encoding="UTF-8" standalone="no"?><svg xmlns="http://www.w3.org/2000/svg" xmlns:xlink="http://www.w3.org/1999/xlink" contentStyleType="text/css" height="796px" preserveAspectRatio="none" style="width:2379px;height:796px;background:#FFFFFF;" version="1.1" viewBox="0 0 2379 796" width="2379px" zoomAndPan="magnify"><defs/><g><rect fill="#F1F1F1" height="81.9531" rx="5" ry="5" style="stroke:#F1F1F1;stroke-width:1.5;" width="276" x="10" y="266.895"/><text fill="#000000" font-family="sans-serif" font-size="14" font-weight="bold" lengthAdjust="spacing" textLength="42" x="15" y="282.4302">field1</text><text fill="#000000" font-family="sans-serif" font-size="14" lengthAdjust="spacing" textLength="132" x="149" y="282.4302">productDescription</text><line style="stroke:#000000;stroke-width:1.0;" x1="144" x2="144" y1="266.895" y2="287.3833"/><line style="stroke:#000000;stroke-width:1.0;" x1="10" x2="286" y1="287.3833" y2="287.3833"/><text fill="#000000" font-family="sans-serif" font-size="14" font-weight="bold" lengthAdjust="spacing" textLength="90" x="15" y="302.9184">combination</text><text fill="#000000" font-family="sans-serif" font-size="14" lengthAdjust="spacing" textLength="132" x="149" y="302.9184">productDescription</text><line style="stroke:#000000;stroke-width:1.0;" x1="144" x2="144" y1="287.3833" y2="307.8716"/><line style="stroke:#000000;stroke-width:1.0;" x1="10" x2="286" y1="307.8716" y2="307.8716"/><text fill="#000000" font-family="sans-serif" font-size="14" font-weight="bold" lengthAdjust="spacing" textLength="121" x="15" y="323.4067">null_distribution</text><text fill="#000000" font-family="sans-serif" font-size="14" lengthAdjust="spacing" textLength="12" x="149" y="323.4067">   </text><line style="stroke:#000000;stroke-width:1.0;" x1="144" x2="144" y1="307.8716" y2="328.3598"/><line style="stroke:#000000;stroke-width:1.0;" x1="10" x2="286" y1="328.3598" y2="328.3598"/><text fill="#000000" font-family="sans-serif" font-size="14" font-weight="bold" lengthAdjust="spacing" textLength="124" x="15" y="343.895">data_distribution</text><text fill="#000000" font-family="sans-serif" font-size="14" lengthAdjust="spacing" textLength="12" x="149" y="343.895">   </text><line style="stroke:#000000;stroke-width:1.0;" x1="144" x2="144" y1="328.3598" y2="348.8481"/><rect fill="none" height="81.9531" rx="5" ry="5" style="stroke:#000000;stroke-width:1.5;" width="276" x="10" y="266.895"/><rect fill="#F1F1F1" height="40.9766" rx="5" ry="5" style="stroke:#F1F1F1;stroke-width:1.5;" width="189" x="323" y="237.395"/><text fill="#000000" font-family="sans-serif" font-size="14" font-weight="bold" lengthAdjust="spacing" textLength="111" x="328" y="252.9302">total_null_rows</text><text fill="#000000" font-family="sans-serif" font-size="14" lengthAdjust="spacing" textLength="9" x="480" y="252.9302">0</text><line style="stroke:#000000;stroke-width:1.0;" x1="475" x2="475" y1="237.395" y2="257.8833"/><line style="stroke:#000000;stroke-width:1.0;" x1="323" x2="512" y1="257.8833" y2="257.8833"/><text fill="#000000" font-family="sans-serif" font-size="14" font-weight="bold" lengthAdjust="spacing" textLength="142" x="328" y="273.4184">total_not_null_rows</text><text fill="#000000" font-family="sans-serif" font-size="14" lengthAdjust="spacing" textLength="27" x="480" y="273.4184">110</text><line style="stroke:#000000;stroke-width:1.0;" x1="475" x2="475" y1="257.8833" y2="278.3716"/><rect fill="none" height="40.9766" rx="5" ry="5" style="stroke:#000000;stroke-width:1.5;" width="189" x="323" y="237.395"/><rect fill="#F1F1F1" height="204.8828" rx="5" ry="5" style="stroke:#F1F1F1;stroke-width:1.5;" width="22" x="405.5" y="296.395"/><text fill="#000000" font-family="sans-serif" font-size="14" lengthAdjust="spacing" textLength="12" x="410.5" y="311.9302">   </text><line style="stroke:#000000;stroke-width:1.0;" x1="405.5" x2="427.5" y1="316.8833" y2="316.8833"/><text fill="#000000" font-family="sans-serif" font-size="14" lengthAdjust="spacing" textLength="12" x="410.5" y="332.4184">   </text><line style="stroke:#000000;stroke-width:1.0;" x1="405.5" x2="427.5" y1="337.3716" y2="337.3716"/><text fill="#000000" font-family="sans-serif" font-size="14" lengthAdjust="spacing" textLength="12" x="410.5" y="352.9067">   </text><line style="stroke:#000000;stroke-width:1.0;" x1="405.5" x2="427.5" y1="357.8598" y2="357.8598"/><text fill="#000000" font-family="sans-serif" font-size="14" lengthAdjust="spacing" textLength="12" x="410.5" y="373.395">   </text><line style="stroke:#000000;stroke-width:1.0;" x1="405.5" x2="427.5" y1="378.3481" y2="378.3481"/><text fill="#000000" font-family="sans-serif" font-size="14" lengthAdjust="spacing" textLength="12" x="410.5" y="393.8833">   </text><line style="stroke:#000000;stroke-width:1.0;" x1="405.5" x2="427.5" y1="398.8364" y2="398.8364"/><text fill="#000000" font-family="sans-serif" font-size="14" lengthAdjust="spacing" textLength="12" x="410.5" y="414.3716">   </text><line style="stroke:#000000;stroke-width:1.0;" x1="405.5" x2="427.5" y1="419.3247" y2="419.3247"/><text fill="#000000" font-family="sans-serif" font-size="14" lengthAdjust="spacing" textLength="12" x="410.5" y="434.8598">   </text><line style="stroke:#000000;stroke-width:1.0;" x1="405.5" x2="427.5" y1="439.813" y2="439.813"/><text fill="#000000" font-family="sans-serif" font-size="14" lengthAdjust="spacing" textLength="12" x="410.5" y="455.3481">   </text><line style="stroke:#000000;stroke-width:1.0;" x1="405.5" x2="427.5" y1="460.3012" y2="460.3012"/><text fill="#000000" font-family="sans-serif" font-size="14" lengthAdjust="spacing" textLength="12" x="410.5" y="475.8364">   </text><line style="stroke:#000000;stroke-width:1.0;" x1="405.5" x2="427.5" y1="480.7895" y2="480.7895"/><text fill="#000000" font-family="sans-serif" font-size="14" lengthAdjust="spacing" textLength="12" x="410.5" y="496.3247">   </text><rect fill="none" height="204.8828" rx="5" ry="5" style="stroke:#000000;stroke-width:1.5;" width="22" x="405.5" y="296.395"/><rect fill="#F1F1F1" height="61.4648" rx="5" ry="5" style="stroke:#F1F1F1;stroke-width:1.5;" width="1092" x="912" y="12.395"/><text fill="#000000" font-family="sans-serif" font-size="14" font-weight="bold" lengthAdjust="spacing" textLength="78" x="917" y="27.9302">field_value</text><text fill="#000000" font-family="sans-serif" font-size="14" lengthAdjust="spacing" textLength="978" x="1021" y="27.9302">Turnable front wheels; steering function; detailed interior; detailed engine; opening hood; opening trunk; opening doors; and detailed chassis.</text><line style="stroke:#000000;stroke-width:1.0;" x1="1016" x2="1016" y1="12.395" y2="32.8833"/><line style="stroke:#000000;stroke-width:1.0;" x1="912" x2="2004" y1="32.8833" y2="32.8833"/><text fill="#000000" font-family="sans-serif" font-size="14" font-weight="bold" lengthAdjust="spacing" textLength="74" x="917" y="48.4184">row_count</text><text fill="#000000" font-family="sans-serif" font-size="14" lengthAdjust="spacing" textLength="9" x="1021" y="48.4184">4</text><line style="stroke:#000000;stroke-width:1.0;" x1="1016" x2="1016" y1="32.8833" y2="53.3716"/><line style="stroke:#000000;stroke-width:1.0;" x1="912" x2="2004" y1="53.3716" y2="53.3716"/><text fill="#000000" font-family="sans-serif" font-size="14" font-weight="bold" lengthAdjust="spacing" textLength="94" x="917" y="68.9067">ratio_percent</text><text fill="#000000" font-family="sans-serif" font-size="14" lengthAdjust="spacing" textLength="157" x="1021" y="68.9067">3.6363636363636362</text><line style="stroke:#000000;stroke-width:1.0;" x1="1016" x2="1016" y1="53.3716" y2="73.8598"/><rect fill="none" height="61.4648" rx="5" ry="5" style="stroke:#000000;stroke-width:1.5;" width="1092" x="912" y="12.395"/><rect fill="#F1F1F1" height="61.4648" rx="5" ry="5" style="stroke:#F1F1F1;stroke-width:1.5;" width="1213" x="851.5" y="91.395"/><text fill="#000000" font-family="sans-serif" font-size="14" font-weight="bold" lengthAdjust="spacing" textLength="78" x="856.5" y="106.9302">field_value</text><text fill="#000000" font-family="sans-serif" font-size="14" lengthAdjust="spacing" textLength="1099" x="960.5" y="106.9302">Features include: Turnable front wheels; steering function; detailed interior; detailed engine; opening hood; opening trunk; opening doors; and detailed chassis.</text><line style="stroke:#000000;stroke-width:1.0;" x1="955.5" x2="955.5" y1="91.395" y2="111.8833"/><line style="stroke:#000000;stroke-width:1.0;" x1="851.5" x2="2064.5" y1="111.8833" y2="111.8833"/><text fill="#000000" font-family="sans-serif" font-size="14" font-weight="bold" lengthAdjust="spacing" textLength="74" x="856.5" y="127.4184">row_count</text><text fill="#000000" font-family="sans-serif" font-size="14" lengthAdjust="spacing" textLength="9" x="960.5" y="127.4184">3</text><line style="stroke:#000000;stroke-width:1.0;" x1="955.5" x2="955.5" y1="111.8833" y2="132.3716"/><line style="stroke:#000000;stroke-width:1.0;" x1="851.5" x2="2064.5" y1="132.3716" y2="132.3716"/><text fill="#000000" font-family="sans-serif" font-size="14" font-weight="bold" lengthAdjust="spacing" textLength="94" x="856.5" y="147.9067">ratio_percent</text><text fill="#000000" font-family="sans-serif" font-size="14" lengthAdjust="spacing" textLength="148" x="960.5" y="147.9067">2.727272727272727</text><line style="stroke:#000000;stroke-width:1.0;" x1="955.5" x2="955.5" y1="132.3716" y2="152.8598"/><rect fill="none" height="61.4648" rx="5" ry="5" style="stroke:#000000;stroke-width:1.5;" width="1213" x="851.5" y="91.395"/><rect fill="#F1F1F1" height="61.4648" rx="5" ry="5" style="stroke:#F1F1F1;stroke-width:1.5;" width="454" x="1231" y="170.395"/><text fill="#000000" font-family="sans-serif" font-size="14" font-weight="bold" lengthAdjust="spacing" textLength="78" x="1236" y="185.9302">field_value</text><text fill="#000000" font-family="sans-serif" font-size="14" lengthAdjust="spacing" textLength="340" x="1340" y="185.9302">Features opening trunk,  working steering system</text><line style="stroke:#000000;stroke-width:1.0;" x1="1335" x2="1335" y1="170.395" y2="190.8833"/><line style="stroke:#000000;stroke-width:1.0;" x1="1231" x2="1685" y1="190.8833" y2="190.8833"/><text fill="#000000" font-family="sans-serif" font-size="14" font-weight="bold" lengthAdjust="spacing" textLength="74" x="1236" y="206.4184">row_count</text><text fill="#000000" font-family="sans-serif" font-size="14" lengthAdjust="spacing" textLength="9" x="1340" y="206.4184">3</text><line style="stroke:#000000;stroke-width:1.0;" x1="1335" x2="1335" y1="190.8833" y2="211.3716"/><line style="stroke:#000000;stroke-width:1.0;" x1="1231" x2="1685" y1="211.3716" y2="211.3716"/><text fill="#000000" font-family="sans-serif" font-size="14" font-weight="bold" lengthAdjust="spacing" textLength="94" x="1236" y="226.9067">ratio_percent</text><text fill="#000000" font-family="sans-serif" font-size="14" lengthAdjust="spacing" textLength="148" x="1340" y="226.9067">2.727272727272727</text><line style="stroke:#000000;stroke-width:1.0;" x1="1335" x2="1335" y1="211.3716" y2="231.8598"/><rect fill="none" height="61.4648" rx="5" ry="5" style="stroke:#000000;stroke-width:1.5;" width="454" x="1231" y="170.395"/><rect fill="#F1F1F1" height="61.4648" rx="5" ry="5" style="stroke:#F1F1F1;stroke-width:1.5;" width="1818" x="549" y="249.395"/><text fill="#000000" font-family="sans-serif" font-size="14" font-weight="bold" lengthAdjust="spacing" textLength="78" x="554" y="264.9302">field_value</text><text fill="#000000" font-family="sans-serif" font-size="14" lengthAdjust="spacing" textLength="1704" x="658" y="264.9302">This replica features opening doors, superb detail and craftsmanship, working steering system, opening forward compartment, opening rear trunk with removable spare, 4 wheel independent spring suspension as well as factory baked enamel finish.</text><line style="stroke:#000000;stroke-width:1.0;" x1="653" x2="653" y1="249.395" y2="269.8833"/><line style="stroke:#000000;stroke-width:1.0;" x1="549" x2="2367" y1="269.8833" y2="269.8833"/><text fill="#000000" font-family="sans-serif" font-size="14" font-weight="bold" lengthAdjust="spacing" textLength="74" x="554" y="285.4184">row_count</text><text fill="#000000" font-family="sans-serif" font-size="14" lengthAdjust="spacing" textLength="9" x="658" y="285.4184">3</text><line style="stroke:#000000;stroke-width:1.0;" x1="653" x2="653" y1="269.8833" y2="290.3716"/><line style="stroke:#000000;stroke-width:1.0;" x1="549" x2="2367" y1="290.3716" y2="290.3716"/><text fill="#000000" font-family="sans-serif" font-size="14" font-weight="bold" lengthAdjust="spacing" textLength="94" x="554" y="305.9067">ratio_percent</text><text fill="#000000" font-family="sans-serif" font-size="14" lengthAdjust="spacing" textLength="148" x="658" y="305.9067">2.727272727272727</text><line style="stroke:#000000;stroke-width:1.0;" x1="653" x2="653" y1="290.3716" y2="310.8598"/><rect fill="none" height="61.4648" rx="5" ry="5" style="stroke:#000000;stroke-width:1.5;" width="1818" x="549" y="249.395"/><rect fill="#F1F1F1" height="61.4648" rx="5" ry="5" style="stroke:#F1F1F1;stroke-width:1.5;" width="558" x="1179" y="328.395"/><text fill="#000000" font-family="sans-serif" font-size="14" font-weight="bold" lengthAdjust="spacing" textLength="78" x="1184" y="343.9302">field_value</text><text fill="#000000" font-family="sans-serif" font-size="14" lengthAdjust="spacing" textLength="444" x="1288" y="343.9302">Features rotating wheels , working kick stand. Comes with stand.</text><line style="stroke:#000000;stroke-width:1.0;" x1="1283" x2="1283" y1="328.395" y2="348.8833"/><line style="stroke:#000000;stroke-width:1.0;" x1="1179" x2="1737" y1="348.8833" y2="348.8833"/><text fill="#000000" font-family="sans-serif" font-size="14" font-weight="bold" lengthAdjust="spacing" textLength="74" x="1184" y="364.4184">row_count</text><text fill="#000000" font-family="sans-serif" font-size="14" lengthAdjust="spacing" textLength="9" x="1288" y="364.4184">3</text><line style="stroke:#000000;stroke-width:1.0;" x1="1283" x2="1283" y1="348.8833" y2="369.3716"/><line style="stroke:#000000;stroke-width:1.0;" x1="1179" x2="1737" y1="369.3716" y2="369.3716"/><text fill="#000000" font-family="sans-serif" font-size="14" font-weight="bold" lengthAdjust="spacing" textLength="94" x="1184" y="384.9067">ratio_percent</text><text fill="#000000" font-family="sans-serif" font-size="14" lengthAdjust="spacing" textLength="148" x="1288" y="384.9067">2.727272727272727</text><line style="stroke:#000000;stroke-width:1.0;" x1="1283" x2="1283" y1="369.3716" y2="389.8598"/><rect fill="none" height="61.4648" rx="5" ry="5" style="stroke:#000000;stroke-width:1.5;" width="558" x="1179" y="328.395"/><rect fill="#F1F1F1" height="61.4648" rx="5" ry="5" style="stroke:#F1F1F1;stroke-width:1.5;" width="1093" x="911.5" y="407.395"/><text fill="#000000" font-family="sans-serif" font-size="14" font-weight="bold" lengthAdjust="spacing" textLength="78" x="916.5" y="422.9302">field_value</text><text fill="#000000" font-family="sans-serif" font-size="14" lengthAdjust="spacing" textLength="979" x="1020.5" y="422.9302">Exact replica. Wood and Metal. Many extras including rigging, long boats, pilot house, anchors, etc. Comes with three masts, all square-rigged.</text><line style="stroke:#000000;stroke-width:1.0;" x1="1015.5" x2="1015.5" y1="407.395" y2="427.8833"/><line style="stroke:#000000;stroke-width:1.0;" x1="911.5" x2="2004.5" y1="427.8833" y2="427.8833"/><text fill="#000000" font-family="sans-serif" font-size="14" font-weight="bold" lengthAdjust="spacing" textLength="74" x="916.5" y="443.4184">row_count</text><text fill="#000000" font-family="sans-serif" font-size="14" lengthAdjust="spacing" textLength="9" x="1020.5" y="443.4184">2</text><line style="stroke:#000000;stroke-width:1.0;" x1="1015.5" x2="1015.5" y1="427.8833" y2="448.3716"/><line style="stroke:#000000;stroke-width:1.0;" x1="911.5" x2="2004.5" y1="448.3716" y2="448.3716"/><text fill="#000000" font-family="sans-serif" font-size="14" font-weight="bold" lengthAdjust="spacing" textLength="94" x="916.5" y="463.9067">ratio_percent</text><text fill="#000000" font-family="sans-serif" font-size="14" lengthAdjust="spacing" textLength="157" x="1020.5" y="463.9067">1.8181818181818181</text><line style="stroke:#000000;stroke-width:1.0;" x1="1015.5" x2="1015.5" y1="448.3716" y2="468.8598"/><rect fill="none" height="61.4648" rx="5" ry="5" style="stroke:#000000;stroke-width:1.5;" width="1093" x="911.5" y="407.395"/><rect fill="#F1F1F1" height="61.4648" rx="5" ry="5" style="stroke:#F1F1F1;stroke-width:1.5;" width="680" x="1118" y="486.395"/><text fill="#000000" font-family="sans-serif" font-size="14" font-weight="bold" lengthAdjust="spacing" textLength="78" x="1123" y="501.9302">field_value</text><text fill="#000000" font-family="sans-serif" font-size="14" lengthAdjust="spacing" textLength="566" x="1227" y="501.9302">Detailed scale replica with working suspension and constructed from over 70 parts</text><line style="stroke:#000000;stroke-width:1.0;" x1="1222" x2="1222" y1="486.395" y2="506.8833"/><line style="stroke:#000000;stroke-width:1.0;" x1="1118" x2="1798" y1="506.8833" y2="506.8833"/><text fill="#000000" font-family="sans-serif" font-size="14" font-weight="bold" lengthAdjust="spacing" textLength="74" x="1123" y="522.4184">row_count</text><text fill="#000000" font-family="sans-serif" font-size="14" lengthAdjust="spacing" textLength="9" x="1227" y="522.4184">2</text><line style="stroke:#000000;stroke-width:1.0;" x1="1222" x2="1222" y1="506.8833" y2="527.3716"/><line style="stroke:#000000;stroke-width:1.0;" x1="1118" x2="1798" y1="527.3716" y2="527.3716"/><text fill="#000000" font-family="sans-serif" font-size="14" font-weight="bold" lengthAdjust="spacing" textLength="94" x="1123" y="542.9067">ratio_percent</text><text fill="#000000" font-family="sans-serif" font-size="14" lengthAdjust="spacing" textLength="157" x="1227" y="542.9067">1.8181818181818181</text><line style="stroke:#000000;stroke-width:1.0;" x1="1222" x2="1222" y1="527.3716" y2="547.8598"/><rect fill="none" height="61.4648" rx="5" ry="5" style="stroke:#000000;stroke-width:1.5;" width="680" x="1118" y="486.395"/><rect fill="#F1F1F1" height="61.4648" rx="5" ry="5" style="stroke:#F1F1F1;stroke-width:1.5;" width="573" x="1171.5" y="565.395"/><text fill="#000000" font-family="sans-serif" font-size="14" font-weight="bold" lengthAdjust="spacing" textLength="78" x="1176.5" y="580.9302">field_value</text><text fill="#000000" font-family="sans-serif" font-size="14" lengthAdjust="spacing" textLength="459" x="1280.5" y="580.9302">Exact replia with official logos and insignias and retractable wheels</text><line style="stroke:#000000;stroke-width:1.0;" x1="1275.5" x2="1275.5" y1="565.395" y2="585.8833"/><line style="stroke:#000000;stroke-width:1.0;" x1="1171.5" x2="1744.5" y1="585.8833" y2="585.8833"/><text fill="#000000" font-family="sans-serif" font-size="14" font-weight="bold" lengthAdjust="spacing" textLength="74" x="1176.5" y="601.4184">row_count</text><text fill="#000000" font-family="sans-serif" font-size="14" lengthAdjust="spacing" textLength="9" x="1280.5" y="601.4184">2</text><line style="stroke:#000000;stroke-width:1.0;" x1="1275.5" x2="1275.5" y1="585.8833" y2="606.3716"/><line style="stroke:#000000;stroke-width:1.0;" x1="1171.5" x2="1744.5" y1="606.3716" y2="606.3716"/><text fill="#000000" font-family="sans-serif" font-size="14" font-weight="bold" lengthAdjust="spacing" textLength="94" x="1176.5" y="621.9067">ratio_percent</text><text fill="#000000" font-family="sans-serif" font-size="14" lengthAdjust="spacing" textLength="157" x="1280.5" y="621.9067">1.8181818181818181</text><line style="stroke:#000000;stroke-width:1.0;" x1="1275.5" x2="1275.5" y1="606.3716" y2="626.8598"/><rect fill="none" height="61.4648" rx="5" ry="5" style="stroke:#000000;stroke-width:1.5;" width="573" x="1171.5" y="565.395"/><rect fill="#F1F1F1" height="61.4648" rx="5" ry="5" style="stroke:#F1F1F1;stroke-width:1.5;" width="536" x="1190" y="644.395"/><text fill="#000000" font-family="sans-serif" font-size="14" font-weight="bold" lengthAdjust="spacing" textLength="78" x="1195" y="659.9302">field_value</text><text fill="#000000" font-family="sans-serif" font-size="14" lengthAdjust="spacing" textLength="422" x="1299" y="659.9302">10" Wingspan with retractable landing gears.Comes with pilot</text><line style="stroke:#000000;stroke-width:1.0;" x1="1294" x2="1294" y1="644.395" y2="664.8833"/><line style="stroke:#000000;stroke-width:1.0;" x1="1190" x2="1726" y1="664.8833" y2="664.8833"/><text fill="#000000" font-family="sans-serif" font-size="14" font-weight="bold" lengthAdjust="spacing" textLength="74" x="1195" y="680.4184">row_count</text><text fill="#000000" font-family="sans-serif" font-size="14" lengthAdjust="spacing" textLength="9" x="1299" y="680.4184">2</text><line style="stroke:#000000;stroke-width:1.0;" x1="1294" x2="1294" y1="664.8833" y2="685.3716"/><line style="stroke:#000000;stroke-width:1.0;" x1="1190" x2="1726" y1="685.3716" y2="685.3716"/><text fill="#000000" font-family="sans-serif" font-size="14" font-weight="bold" lengthAdjust="spacing" textLength="94" x="1195" y="700.9067">ratio_percent</text><text fill="#000000" font-family="sans-serif" font-size="14" lengthAdjust="spacing" textLength="157" x="1299" y="700.9067">1.8181818181818181</text><line style="stroke:#000000;stroke-width:1.0;" x1="1294" x2="1294" y1="685.3716" y2="705.8598"/><rect fill="none" height="61.4648" rx="5" ry="5" style="stroke:#000000;stroke-width:1.5;" width="536" x="1190" y="644.395"/><rect fill="#F1F1F1" height="61.4648" rx="5" ry="5" style="stroke:#F1F1F1;stroke-width:1.5;" width="1632" x="642" y="723.395"/><text fill="#000000" font-family="sans-serif" font-size="14" font-weight="bold" lengthAdjust="spacing" textLength="78" x="647" y="738.9302">field_value</text><text fill="#000000" font-family="sans-serif" font-size="14" lengthAdjust="spacing" textLength="1518" x="751" y="738.9302">This replica features working kickstand, front suspension, gear-shift lever, footbrake lever, drive chain, wheels and steering. All parts are particularly delicate due to their precise scale and require special care and attention.</text><line style="stroke:#000000;stroke-width:1.0;" x1="746" x2="746" y1="723.395" y2="743.8833"/><line style="stroke:#000000;stroke-width:1.0;" x1="642" x2="2274" y1="743.8833" y2="743.8833"/><text fill="#000000" font-family="sans-serif" font-size="14" font-weight="bold" lengthAdjust="spacing" textLength="74" x="647" y="759.4184">row_count</text><text fill="#000000" font-family="sans-serif" font-size="14" lengthAdjust="spacing" textLength="9" x="751" y="759.4184">1</text><line style="stroke:#000000;stroke-width:1.0;" x1="746" x2="746" y1="743.8833" y2="764.3716"/><line style="stroke:#000000;stroke-width:1.0;" x1="642" x2="2274" y1="764.3716" y2="764.3716"/><text fill="#000000" font-family="sans-serif" font-size="14" font-weight="bold" lengthAdjust="spacing" textLength="94" x="647" y="779.9067">ratio_percent</text><text fill="#000000" font-family="sans-serif" font-size="14" lengthAdjust="spacing" textLength="157" x="751" y="779.9067">0.9090909090909091</text><line style="stroke:#000000;stroke-width:1.0;" x1="746" x2="746" y1="764.3716" y2="784.8598"/><rect fill="none" height="61.4648" rx="5" ry="5" style="stroke:#000000;stroke-width:1.5;" width="1632" x="642" y="723.395"/><path d="M274,317.895 L287,317.895 C307.8273,317.895 304.7406,297.9137 323,287.895 C327.1394,285.6238 331.4771,283.4938 335.9224,281.5011 " fill="none" style="stroke:#000000;stroke-width:1.0;stroke-dasharray:3.0,3.0;"/><path d="M337.1301,284.3255 L338.0407,280.5954 L334.7148,278.6767 L342.9835,278.4821 L337.1301,284.3255 " fill="#000000" style="stroke:#000000;stroke-width:1.0;"/><ellipse cx="274" cy="317.895" fill="#000000" rx="3" ry="3" style="stroke:#000000;stroke-width:1.0;"/><path d="M418,305.895 L431,305.895 C468.3122,305.895 487.1906,314.8408 513,287.895 C577.2901,220.7742 479.1459,143.2043 549,81.895 C623.9374,16.1242 846.1056,5.7631 1051.969,12.1441 " fill="none" style="stroke:#000000;stroke-width:1.0;stroke-dasharray:3.0,3.0;"/><path d="M1051.8714,15.1939 L1054.2563,12.2174 L1052.0667,9.0944 L1059.5934,12.3883 L1051.8714,15.1939 " fill="#000000" style="stroke:#000000;stroke-width:1.0;"/><ellipse cx="418" cy="305.895" fill="#000000" rx="3" ry="3" style="stroke:#000000;stroke-width:1.0;"/><path d="M418,326.895 L431,326.895 C471.3564,326.895 486.9543,318.7214 513,287.895 C550.864,243.081 502.9686,197.2692 549,160.895 C600.4252,120.2586 714.0674,101.8801 844.1565,95.5958 " fill="none" style="stroke:#000000;stroke-width:1.0;stroke-dasharray:3.0,3.0;"/><path d="M844.301,98.7132 L846.4945,95.4875 L844.012,92.4784 L851.9499,95.2346 L844.301,98.7132 " fill="#000000" style="stroke:#000000;stroke-width:1.0;"/><ellipse cx="418" cy="326.895" fill="#000000" rx="3" ry="3" style="stroke:#000000;stroke-width:1.0;"/><path d="M418,346.895 L431,346.895 C475.8977,346.895 480.9398,319.3266 513,287.895 C532.0419,269.2264 525.4099,252.3295 549,239.895 C661.7582,180.4592 993.7377,180.4875 1223.5159,188.611 " fill="none" style="stroke:#000000;stroke-width:1.0;stroke-dasharray:3.0,3.0;"/><path d="M1223.404,191.7268 L1225.8528,188.695 L1223.6279,185.4952 L1231.3054,188.8909 L1223.404,191.7268 " fill="#000000" style="stroke:#000000;stroke-width:1.0;"/><ellipse cx="418" cy="346.895" fill="#000000" rx="3" ry="3" style="stroke:#000000;stroke-width:1.0;"/><path d="M418,367.895 L431,367.895 C487.6174,367.895 493.6882,331.9835 549,319.895 C561.8127,317.0947 574.7506,314.4341 587.7919,311.907 " fill="none" style="stroke:#000000;stroke-width:1.0;stroke-dasharray:3.0,3.0;"/><path d="M588.3809,314.9831 L590.099,311.4652 L587.2029,308.8308 L595.4822,310.4344 L588.3809,314.9831 " fill="#000000" style="stroke:#000000;stroke-width:1.0;"/><ellipse cx="418" cy="367.895" fill="#000000" rx="3" ry="3" style="stroke:#000000;stroke-width:1.0;"/><path d="M418,387.895 L431,387.895 C681.2915,387.895 965.7747,379.1735 1171.6753,371.2962 " fill="none" style="stroke:#000000;stroke-width:1.0;stroke-dasharray:3.0,3.0;"/><path d="M1171.792,374.3351 L1173.9545,371.2087 L1171.5587,368.2573 L1179.2726,371.0046 L1171.792,374.3351 " fill="#000000" style="stroke:#000000;stroke-width:1.0;"/><ellipse cx="418" cy="387.895" fill="#000000" rx="3" ry="3" style="stroke:#000000;stroke-width:1.0;"/><path d="M418,408.895 L431,408.895 C584.5173,408.895 750.8977,412.176 904.1189,416.5309 " fill="none" style="stroke:#000000;stroke-width:1.0;stroke-dasharray:3.0,3.0;"/><path d="M904.0303,419.6303 L906.4434,416.5973 L904.2074,413.4315 L911.8674,416.7524 L904.0303,419.6303 " fill="#000000" style="stroke:#000000;stroke-width:1.0;"/><ellipse cx="418" cy="408.895" fill="#000000" rx="3" ry="3" style="stroke:#000000;stroke-width:1.0;"/><path d="M418,429.895 L431,429.895 C487.6174,429.895 493.6815,465.8369 549,477.895 C731.6724,517.7133 939.7566,529.0374 1110.6489,529.7092 " fill="none" style="stroke:#000000;stroke-width:1.0;stroke-dasharray:3.0,3.0;"/><path d="M1110.6397,532.7479 L1112.9279,529.7161 L1110.6581,526.6705 L1118.2456,529.7322 L1110.6397,532.7479 " fill="#000000" style="stroke:#000000;stroke-width:1.0;"/><ellipse cx="418" cy="429.895" fill="#000000" rx="3" ry="3" style="stroke:#000000;stroke-width:1.0;"/><path d="M418,449.895 L431,449.895 C501.7951,449.895 483.5135,529.9975 549,556.895 C656.708,601.1343 941.9369,607.3396 1164.3428,604.6541 " fill="none" style="stroke:#000000;stroke-width:1.0;stroke-dasharray:3.0,3.0;"/><path d="M1164.3808,607.6755 L1166.6089,604.6256 L1164.3048,601.6327 L1171.8964,604.5592 L1164.3808,607.6755 " fill="#000000" style="stroke:#000000;stroke-width:1.0;"/><ellipse cx="418" cy="449.895" fill="#000000" rx="3" ry="3" style="stroke:#000000;stroke-width:1.0;"/><path d="M418,470.895 L431,470.895 C521.1565,470.895 469.7267,592.9538 549,635.895 C654.6432,693.1204 955.8247,696.0841 1182.6783,689.0808 " fill="none" style="stroke:#000000;stroke-width:1.0;stroke-dasharray:3.0,3.0;"/><path d="M1182.7752,692.161 L1184.9885,689.0081 L1182.5813,686.0005 L1190.3789,688.8384 L1182.7752,692.161 " fill="#000000" style="stroke:#000000;stroke-width:1.0;"/><ellipse cx="418" cy="470.895" fill="#000000" rx="3" ry="3" style="stroke:#000000;stroke-width:1.0;"/><path d="M418,490.895 L431,490.895 C543.5243,490.895 453.9287,654.7022 549,714.895 C569.8583,728.101 599.1798,738.6624 634.5853,747.0282 " fill="none" style="stroke:#000000;stroke-width:1.0;stroke-dasharray:3.0,3.0;"/><path d="M633.8844,750.0869 L636.8792,747.5538 L635.2861,743.9696 L642.2319,748.7802 L633.8844,750.0869 " fill="#000000" style="stroke:#000000;stroke-width:1.0;"/><ellipse cx="418" cy="490.895" fill="#000000" rx="3" ry="3" style="stroke:#000000;stroke-width:1.0;"/><path d="M274,338.895 L287,338.895 C330.8518,338.895 376.0003,367.388 399.8339,385.1039 " fill="none" style="stroke:#000000;stroke-width:1.0;stroke-dasharray:3.0,3.0;"/><path d="M397.9625,387.5592 L401.6753,386.5074 L401.7052,382.6486 L405.9721,389.7823 L397.9625,387.5592 " fill="#000000" style="stroke:#000000;stroke-width:1.0;"/><ellipse cx="274" cy="338.895" fill="#000000" rx="3" ry="3" style="stroke:#000000;stroke-width:1.0;"/><!--MD5=[8e37cf027367577234f736ba25a50e33]
@startjson
{
    "field1": "productDescription",
    "combination": "productDescription",
    "null_distribution": {
        "total_null_rows": 0,
        "total_not_null_rows": 110
    },
    "data_distribution": [
        {
            "field_value": "Turnable front wheels; steering function; detailed interior; detailed engine; opening hood; opening trunk; opening doors; and detailed chassis.",
            "row_count": 4,
            "ratio_percent": 3.6363636363636362
        },
        {
            "field_value": "Features include: Turnable front wheels; steering function; detailed interior; detailed engine; opening hood; opening trunk; opening doors; and detailed chassis.",
            "row_count": 3,
            "ratio_percent": 2.727272727272727
        },
        {
            "field_value": "Features opening trunk,  working steering system",
            "row_count": 3,
            "ratio_percent": 2.727272727272727
        },
        {
            "field_value": "This replica features opening doors, superb detail and craftsmanship, working steering system, opening forward compartment, opening rear trunk with removable spare, 4 wheel independent spring suspension as well as factory baked enamel finish.",
            "row_count": 3,
            "ratio_percent": 2.727272727272727
        },
        {
            "field_value": "Features rotating wheels , working kick stand. Comes with stand.",
            "row_count": 3,
            "ratio_percent": 2.727272727272727
        },
        {
            "field_value": "Exact replica. Wood and Metal. Many extras including rigging, long boats, pilot house, anchors, etc. Comes with three masts, all square-rigged.",
            "row_count": 2,
            "ratio_percent": 1.8181818181818181
        },
        {
            "field_value": "Detailed scale replica with working suspension and constructed from over 70 parts",
            "row_count": 2,
            "ratio_percent": 1.8181818181818181
        },
        {
            "field_value": "Exact replia with official logos and insignias and retractable wheels",
            "row_count": 2,
            "ratio_percent": 1.8181818181818181
        },
        {
            "field_value": "10\" Wingspan with retractable landing gears.Comes with pilot",
            "row_count": 2,
            "ratio_percent": 1.8181818181818181
        },
        {
            "field_value": "This replica features working kickstand, front suspension, gear-shift lever, footbrake lever, drive chain, wheels and steering. All parts are particularly delicate due to their precise scale and require special care and attention.",
            "row_count": 1,
            "ratio_percent": 0.9090909090909091
        }
    ]
}
@endjson

PlantUML version 1.2022.5(Sat Apr 30 06:55:52 EDT 2022)
(GPL source distribution)
Java Runtime: OpenJDK Runtime Environment
JVM: OpenJDK 64-Bit Server VM
Default Encoding: UTF-8
Language: en
Country: CA
--></g></svg>