<?xml version="1.0" encoding="UTF-8" standalone="no"?><svg xmlns="http://www.w3.org/2000/svg" xmlns:xlink="http://www.w3.org/1999/xlink" contentStyleType="text/css" height="794px" preserveAspectRatio="none" style="width:753px;height:794px;background:#FFFFFF;" version="1.1" viewBox="0 0 753 794" width="753px" zoomAndPan="magnify"><defs/><g><rect fill="#F1F1F1" height="81.9531" rx="5" ry="5" style="stroke:#F1F1F1;stroke-width:1.5;" width="197" x="10" y="264.5"/><text fill="#000000" font-family="sans-serif" font-size="14" font-weight="bold" lengthAdjust="spacing" textLength="42" x="15" y="280.0352">field1</text><text fill="#000000" font-family="sans-serif" font-size="14" lengthAdjust="spacing" textLength="53" x="149" y="280.0352">amount</text><line style="stroke:#000000;stroke-width:1.0;" x1="144" x2="144" y1="264.5" y2="284.9883"/><line style="stroke:#000000;stroke-width:1.0;" x1="10" x2="207" y1="284.9883" y2="284.9883"/><text fill="#000000" font-family="sans-serif" font-size="14" font-weight="bold" lengthAdjust="spacing" textLength="90" x="15" y="300.5234">combination</text><text fill="#000000" font-family="sans-serif" font-size="14" lengthAdjust="spacing" textLength="53" x="149" y="300.5234">amount</text><line style="stroke:#000000;stroke-width:1.0;" x1="144" x2="144" y1="284.9883" y2="305.4766"/><line style="stroke:#000000;stroke-width:1.0;" x1="10" x2="207" y1="305.4766" y2="305.4766"/><text fill="#000000" font-family="sans-serif" font-size="14" font-weight="bold" lengthAdjust="spacing" textLength="121" x="15" y="321.0117">null_distribution</text><text fill="#000000" font-family="sans-serif" font-size="14" lengthAdjust="spacing" textLength="12" x="149" y="321.0117">   </text><line style="stroke:#000000;stroke-width:1.0;" x1="144" x2="144" y1="305.4766" y2="325.9648"/><line style="stroke:#000000;stroke-width:1.0;" x1="10" x2="207" y1="325.9648" y2="325.9648"/><text fill="#000000" font-family="sans-serif" font-size="14" font-weight="bold" lengthAdjust="spacing" textLength="124" x="15" y="341.5">data_distribution</text><text fill="#000000" font-family="sans-serif" font-size="14" lengthAdjust="spacing" textLength="12" x="149" y="341.5">   </text><line style="stroke:#000000;stroke-width:1.0;" x1="144" x2="144" y1="325.9648" y2="346.4531"/><rect fill="none" height="81.9531" rx="5" ry="5" style="stroke:#000000;stroke-width:1.5;" width="197" x="10" y="264.5"/><rect fill="#F1F1F1" height="40.9766" rx="5" ry="5" style="stroke:#F1F1F1;stroke-width:1.5;" width="189" x="244" y="235"/><text fill="#000000" font-family="sans-serif" font-size="14" font-weight="bold" lengthAdjust="spacing" textLength="111" x="249" y="250.5352">total_null_rows</text><text fill="#000000" font-family="sans-serif" font-size="14" lengthAdjust="spacing" textLength="9" x="401" y="250.5352">0</text><line style="stroke:#000000;stroke-width:1.0;" x1="396" x2="396" y1="235" y2="255.4883"/><line style="stroke:#000000;stroke-width:1.0;" x1="244" x2="433" y1="255.4883" y2="255.4883"/><text fill="#000000" font-family="sans-serif" font-size="14" font-weight="bold" lengthAdjust="spacing" textLength="142" x="249" y="271.0234">total_not_null_rows</text><text fill="#000000" font-family="sans-serif" font-size="14" lengthAdjust="spacing" textLength="27" x="401" y="271.0234">273</text><line style="stroke:#000000;stroke-width:1.0;" x1="396" x2="396" y1="255.4883" y2="275.9766"/><rect fill="none" height="40.9766" rx="5" ry="5" style="stroke:#000000;stroke-width:1.5;" width="189" x="244" y="235"/><rect fill="#F1F1F1" height="204.8828" rx="5" ry="5" style="stroke:#F1F1F1;stroke-width:1.5;" width="22" x="326.5" y="294"/><text fill="#000000" font-family="sans-serif" font-size="14" lengthAdjust="spacing" textLength="12" x="331.5" y="309.5352">   </text><line style="stroke:#000000;stroke-width:1.0;" x1="326.5" x2="348.5" y1="314.4883" y2="314.4883"/><text fill="#000000" font-family="sans-serif" font-size="14" lengthAdjust="spacing" textLength="12" x="331.5" y="330.0234">   </text><line style="stroke:#000000;stroke-width:1.0;" x1="326.5" x2="348.5" y1="334.9766" y2="334.9766"/><text fill="#000000" font-family="sans-serif" font-size="14" lengthAdjust="spacing" textLength="12" x="331.5" y="350.5117">   </text><line style="stroke:#000000;stroke-width:1.0;" x1="326.5" x2="348.5" y1="355.4648" y2="355.4648"/><text fill="#000000" font-family="sans-serif" font-size="14" lengthAdjust="spacing" textLength="12" x="331.5" y="371">   </text><line style="stroke:#000000;stroke-width:1.0;" x1="326.5" x2="348.5" y1="375.9531" y2="375.9531"/><text fill="#000000" font-family="sans-serif" font-size="14" lengthAdjust="spacing" textLength="12" x="331.5" y="391.4883">   </text><line style="stroke:#000000;stroke-width:1.0;" x1="326.5" x2="348.5" y1="396.4414" y2="396.4414"/><text fill="#000000" font-family="sans-serif" font-size="14" lengthAdjust="spacing" textLength="12" x="331.5" y="411.9766">   </text><line style="stroke:#000000;stroke-width:1.0;" x1="326.5" x2="348.5" y1="416.9297" y2="416.9297"/><text fill="#000000" font-family="sans-serif" font-size="14" lengthAdjust="spacing" textLength="12" x="331.5" y="432.4648">   </text><line style="stroke:#000000;stroke-width:1.0;" x1="326.5" x2="348.5" y1="437.418" y2="437.418"/><text fill="#000000" font-family="sans-serif" font-size="14" lengthAdjust="spacing" textLength="12" x="331.5" y="452.9531">   </text><line style="stroke:#000000;stroke-width:1.0;" x1="326.5" x2="348.5" y1="457.9063" y2="457.9063"/><text fill="#000000" font-family="sans-serif" font-size="14" lengthAdjust="spacing" textLength="12" x="331.5" y="473.4414">   </text><line style="stroke:#000000;stroke-width:1.0;" x1="326.5" x2="348.5" y1="478.3945" y2="478.3945"/><text fill="#000000" font-family="sans-serif" font-size="14" lengthAdjust="spacing" textLength="12" x="331.5" y="493.9297">   </text><rect fill="none" height="204.8828" rx="5" ry="5" style="stroke:#000000;stroke-width:1.5;" width="22" x="326.5" y="294"/><rect fill="#F1F1F1" height="61.4648" rx="5" ry="5" style="stroke:#F1F1F1;stroke-width:1.5;" width="271" x="470" y="10"/><text fill="#000000" font-family="sans-serif" font-size="14" font-weight="bold" lengthAdjust="spacing" textLength="78" x="475" y="25.5352">field_value</text><text fill="#000000" font-family="sans-serif" font-size="14" lengthAdjust="spacing" textLength="58" x="579" y="25.5352">1676.14</text><line style="stroke:#000000;stroke-width:1.0;" x1="574" x2="574" y1="10" y2="30.4883"/><line style="stroke:#000000;stroke-width:1.0;" x1="470" x2="741" y1="30.4883" y2="30.4883"/><text fill="#000000" font-family="sans-serif" font-size="14" font-weight="bold" lengthAdjust="spacing" textLength="74" x="475" y="46.0234">row_count</text><text fill="#000000" font-family="sans-serif" font-size="14" lengthAdjust="spacing" textLength="9" x="579" y="46.0234">1</text><line style="stroke:#000000;stroke-width:1.0;" x1="574" x2="574" y1="30.4883" y2="50.9766"/><line style="stroke:#000000;stroke-width:1.0;" x1="470" x2="741" y1="50.9766" y2="50.9766"/><text fill="#000000" font-family="sans-serif" font-size="14" font-weight="bold" lengthAdjust="spacing" textLength="94" x="475" y="66.5117">ratio_percent</text><text fill="#000000" font-family="sans-serif" font-size="14" lengthAdjust="spacing" textLength="157" x="579" y="66.5117">0.3663003663003663</text><line style="stroke:#000000;stroke-width:1.0;" x1="574" x2="574" y1="50.9766" y2="71.4648"/><rect fill="none" height="61.4648" rx="5" ry="5" style="stroke:#000000;stroke-width:1.5;" width="271" x="470" y="10"/><rect fill="#F1F1F1" height="61.4648" rx="5" ry="5" style="stroke:#F1F1F1;stroke-width:1.5;" width="271" x="470" y="89"/><text fill="#000000" font-family="sans-serif" font-size="14" font-weight="bold" lengthAdjust="spacing" textLength="78" x="475" y="104.5352">field_value</text><text fill="#000000" font-family="sans-serif" font-size="14" lengthAdjust="spacing" textLength="67" x="579" y="104.5352">50025.35</text><line style="stroke:#000000;stroke-width:1.0;" x1="574" x2="574" y1="89" y2="109.4883"/><line style="stroke:#000000;stroke-width:1.0;" x1="470" x2="741" y1="109.4883" y2="109.4883"/><text fill="#000000" font-family="sans-serif" font-size="14" font-weight="bold" lengthAdjust="spacing" textLength="74" x="475" y="125.0234">row_count</text><text fill="#000000" font-family="sans-serif" font-size="14" lengthAdjust="spacing" textLength="9" x="579" y="125.0234">1</text><line style="stroke:#000000;stroke-width:1.0;" x1="574" x2="574" y1="109.4883" y2="129.9766"/><line style="stroke:#000000;stroke-width:1.0;" x1="470" x2="741" y1="129.9766" y2="129.9766"/><text fill="#000000" font-family="sans-serif" font-size="14" font-weight="bold" lengthAdjust="spacing" textLength="94" x="475" y="145.5117">ratio_percent</text><text fill="#000000" font-family="sans-serif" font-size="14" lengthAdjust="spacing" textLength="157" x="579" y="145.5117">0.3663003663003663</text><line style="stroke:#000000;stroke-width:1.0;" x1="574" x2="574" y1="129.9766" y2="150.4648"/><rect fill="none" height="61.4648" rx="5" ry="5" style="stroke:#000000;stroke-width:1.5;" width="271" x="470" y="89"/><rect fill="#F1F1F1" height="61.4648" rx="5" ry="5" style="stroke:#F1F1F1;stroke-width:1.5;" width="271" x="470" y="168"/><text fill="#000000" font-family="sans-serif" font-size="14" font-weight="bold" lengthAdjust="spacing" textLength="78" x="475" y="183.5352">field_value</text><text fill="#000000" font-family="sans-serif" font-size="14" lengthAdjust="spacing" textLength="67" x="579" y="183.5352">35152.12</text><line style="stroke:#000000;stroke-width:1.0;" x1="574" x2="574" y1="168" y2="188.4883"/><line style="stroke:#000000;stroke-width:1.0;" x1="470" x2="741" y1="188.4883" y2="188.4883"/><text fill="#000000" font-family="sans-serif" font-size="14" font-weight="bold" lengthAdjust="spacing" textLength="74" x="475" y="204.0234">row_count</text><text fill="#000000" font-family="sans-serif" font-size="14" lengthAdjust="spacing" textLength="9" x="579" y="204.0234">1</text><line style="stroke:#000000;stroke-width:1.0;" x1="574" x2="574" y1="188.4883" y2="208.9766"/><line style="stroke:#000000;stroke-width:1.0;" x1="470" x2="741" y1="208.9766" y2="208.9766"/><text fill="#000000" font-family="sans-serif" font-size="14" font-weight="bold" lengthAdjust="spacing" textLength="94" x="475" y="224.5117">ratio_percent</text><text fill="#000000" font-family="sans-serif" font-size="14" lengthAdjust="spacing" textLength="157" x="579" y="224.5117">0.3663003663003663</text><line style="stroke:#000000;stroke-width:1.0;" x1="574" x2="574" y1="208.9766" y2="229.4648"/><rect fill="none" height="61.4648" rx="5" ry="5" style="stroke:#000000;stroke-width:1.5;" width="271" x="470" y="168"/><rect fill="#F1F1F1" height="61.4648" rx="5" ry="5" style="stroke:#F1F1F1;stroke-width:1.5;" width="271" x="470" y="247"/><text fill="#000000" font-family="sans-serif" font-size="14" font-weight="bold" lengthAdjust="spacing" textLength="78" x="475" y="262.5352">field_value</text><text fill="#000000" font-family="sans-serif" font-size="14" lengthAdjust="spacing" textLength="67" x="579" y="262.5352">17359.53</text><line style="stroke:#000000;stroke-width:1.0;" x1="574" x2="574" y1="247" y2="267.4883"/><line style="stroke:#000000;stroke-width:1.0;" x1="470" x2="741" y1="267.4883" y2="267.4883"/><text fill="#000000" font-family="sans-serif" font-size="14" font-weight="bold" lengthAdjust="spacing" textLength="74" x="475" y="283.0234">row_count</text><text fill="#000000" font-family="sans-serif" font-size="14" lengthAdjust="spacing" textLength="9" x="579" y="283.0234">1</text><line style="stroke:#000000;stroke-width:1.0;" x1="574" x2="574" y1="267.4883" y2="287.9766"/><line style="stroke:#000000;stroke-width:1.0;" x1="470" x2="741" y1="287.9766" y2="287.9766"/><text fill="#000000" font-family="sans-serif" font-size="14" font-weight="bold" lengthAdjust="spacing" textLength="94" x="475" y="303.5117">ratio_percent</text><text fill="#000000" font-family="sans-serif" font-size="14" lengthAdjust="spacing" textLength="157" x="579" y="303.5117">0.3663003663003663</text><line style="stroke:#000000;stroke-width:1.0;" x1="574" x2="574" y1="287.9766" y2="308.4648"/><rect fill="none" height="61.4648" rx="5" ry="5" style="stroke:#000000;stroke-width:1.5;" width="271" x="470" y="247"/><rect fill="#F1F1F1" height="61.4648" rx="5" ry="5" style="stroke:#F1F1F1;stroke-width:1.5;" width="271" x="470" y="326"/><text fill="#000000" font-family="sans-serif" font-size="14" font-weight="bold" lengthAdjust="spacing" textLength="78" x="475" y="341.5352">field_value</text><text fill="#000000" font-family="sans-serif" font-size="14" lengthAdjust="spacing" textLength="67" x="579" y="341.5352">12432.32</text><line style="stroke:#000000;stroke-width:1.0;" x1="574" x2="574" y1="326" y2="346.4883"/><line style="stroke:#000000;stroke-width:1.0;" x1="470" x2="741" y1="346.4883" y2="346.4883"/><text fill="#000000" font-family="sans-serif" font-size="14" font-weight="bold" lengthAdjust="spacing" textLength="74" x="475" y="362.0234">row_count</text><text fill="#000000" font-family="sans-serif" font-size="14" lengthAdjust="spacing" textLength="9" x="579" y="362.0234">1</text><line style="stroke:#000000;stroke-width:1.0;" x1="574" x2="574" y1="346.4883" y2="366.9766"/><line style="stroke:#000000;stroke-width:1.0;" x1="470" x2="741" y1="366.9766" y2="366.9766"/><text fill="#000000" font-family="sans-serif" font-size="14" font-weight="bold" lengthAdjust="spacing" textLength="94" x="475" y="382.5117">ratio_percent</text><text fill="#000000" font-family="sans-serif" font-size="14" lengthAdjust="spacing" textLength="157" x="579" y="382.5117">0.3663003663003663</text><line style="stroke:#000000;stroke-width:1.0;" x1="574" x2="574" y1="366.9766" y2="387.4648"/><rect fill="none" height="61.4648" rx="5" ry="5" style="stroke:#000000;stroke-width:1.5;" width="271" x="470" y="326"/><rect fill="#F1F1F1" height="61.4648" rx="5" ry="5" style="stroke:#F1F1F1;stroke-width:1.5;" width="271" x="470" y="405"/><text fill="#000000" font-family="sans-serif" font-size="14" font-weight="bold" lengthAdjust="spacing" textLength="78" x="475" y="420.5352">field_value</text><text fill="#000000" font-family="sans-serif" font-size="14" lengthAdjust="spacing" textLength="67" x="579" y="420.5352">45352.47</text><line style="stroke:#000000;stroke-width:1.0;" x1="574" x2="574" y1="405" y2="425.4883"/><line style="stroke:#000000;stroke-width:1.0;" x1="470" x2="741" y1="425.4883" y2="425.4883"/><text fill="#000000" font-family="sans-serif" font-size="14" font-weight="bold" lengthAdjust="spacing" textLength="74" x="475" y="441.0234">row_count</text><text fill="#000000" font-family="sans-serif" font-size="14" lengthAdjust="spacing" textLength="9" x="579" y="441.0234">1</text><line style="stroke:#000000;stroke-width:1.0;" x1="574" x2="574" y1="425.4883" y2="445.9766"/><line style="stroke:#000000;stroke-width:1.0;" x1="470" x2="741" y1="445.9766" y2="445.9766"/><text fill="#000000" font-family="sans-serif" font-size="14" font-weight="bold" lengthAdjust="spacing" textLength="94" x="475" y="461.5117">ratio_percent</text><text fill="#000000" font-family="sans-serif" font-size="14" lengthAdjust="spacing" textLength="157" x="579" y="461.5117">0.3663003663003663</text><line style="stroke:#000000;stroke-width:1.0;" x1="574" x2="574" y1="445.9766" y2="466.4648"/><rect fill="none" height="61.4648" rx="5" ry="5" style="stroke:#000000;stroke-width:1.5;" width="271" x="470" y="405"/><rect fill="#F1F1F1" height="61.4648" rx="5" ry="5" style="stroke:#F1F1F1;stroke-width:1.5;" width="271" x="470" y="484"/><text fill="#000000" font-family="sans-serif" font-size="14" font-weight="bold" lengthAdjust="spacing" textLength="78" x="475" y="499.5352">field_value</text><text fill="#000000" font-family="sans-serif" font-size="14" lengthAdjust="spacing" textLength="58" x="579" y="499.5352">1834.56</text><line style="stroke:#000000;stroke-width:1.0;" x1="574" x2="574" y1="484" y2="504.4883"/><line style="stroke:#000000;stroke-width:1.0;" x1="470" x2="741" y1="504.4883" y2="504.4883"/><text fill="#000000" font-family="sans-serif" font-size="14" font-weight="bold" lengthAdjust="spacing" textLength="74" x="475" y="520.0234">row_count</text><text fill="#000000" font-family="sans-serif" font-size="14" lengthAdjust="spacing" textLength="9" x="579" y="520.0234">1</text><line style="stroke:#000000;stroke-width:1.0;" x1="574" x2="574" y1="504.4883" y2="524.9766"/><line style="stroke:#000000;stroke-width:1.0;" x1="470" x2="741" y1="524.9766" y2="524.9766"/><text fill="#000000" font-family="sans-serif" font-size="14" font-weight="bold" lengthAdjust="spacing" textLength="94" x="475" y="540.5117">ratio_percent</text><text fill="#000000" font-family="sans-serif" font-size="14" lengthAdjust="spacing" textLength="157" x="579" y="540.5117">0.3663003663003663</text><line style="stroke:#000000;stroke-width:1.0;" x1="574" x2="574" y1="524.9766" y2="545.4648"/><rect fill="none" height="61.4648" rx="5" ry="5" style="stroke:#000000;stroke-width:1.5;" width="271" x="470" y="484"/><rect fill="#F1F1F1" height="61.4648" rx="5" ry="5" style="stroke:#F1F1F1;stroke-width:1.5;" width="271" x="470" y="563"/><text fill="#000000" font-family="sans-serif" font-size="14" font-weight="bold" lengthAdjust="spacing" textLength="78" x="475" y="578.5352">field_value</text><text fill="#000000" font-family="sans-serif" font-size="14" lengthAdjust="spacing" textLength="67" x="579" y="578.5352">49165.16</text><line style="stroke:#000000;stroke-width:1.0;" x1="574" x2="574" y1="563" y2="583.4883"/><line style="stroke:#000000;stroke-width:1.0;" x1="470" x2="741" y1="583.4883" y2="583.4883"/><text fill="#000000" font-family="sans-serif" font-size="14" font-weight="bold" lengthAdjust="spacing" textLength="74" x="475" y="599.0234">row_count</text><text fill="#000000" font-family="sans-serif" font-size="14" lengthAdjust="spacing" textLength="9" x="579" y="599.0234">1</text><line style="stroke:#000000;stroke-width:1.0;" x1="574" x2="574" y1="583.4883" y2="603.9766"/><line style="stroke:#000000;stroke-width:1.0;" x1="470" x2="741" y1="603.9766" y2="603.9766"/><text fill="#000000" font-family="sans-serif" font-size="14" font-weight="bold" lengthAdjust="spacing" textLength="94" x="475" y="619.5117">ratio_percent</text><text fill="#000000" font-family="sans-serif" font-size="14" lengthAdjust="spacing" textLength="157" x="579" y="619.5117">0.3663003663003663</text><line style="stroke:#000000;stroke-width:1.0;" x1="574" x2="574" y1="603.9766" y2="624.4648"/><rect fill="none" height="61.4648" rx="5" ry="5" style="stroke:#000000;stroke-width:1.5;" width="271" x="470" y="563"/><rect fill="#F1F1F1" height="61.4648" rx="5" ry="5" style="stroke:#F1F1F1;stroke-width:1.5;" width="271" x="470" y="642"/><text fill="#000000" font-family="sans-serif" font-size="14" font-weight="bold" lengthAdjust="spacing" textLength="78" x="475" y="657.5352">field_value</text><text fill="#000000" font-family="sans-serif" font-size="14" lengthAdjust="spacing" textLength="67" x="579" y="657.5352">36070.47</text><line style="stroke:#000000;stroke-width:1.0;" x1="574" x2="574" y1="642" y2="662.4883"/><line style="stroke:#000000;stroke-width:1.0;" x1="470" x2="741" y1="662.4883" y2="662.4883"/><text fill="#000000" font-family="sans-serif" font-size="14" font-weight="bold" lengthAdjust="spacing" textLength="74" x="475" y="678.0234">row_count</text><text fill="#000000" font-family="sans-serif" font-size="14" lengthAdjust="spacing" textLength="9" x="579" y="678.0234">1</text><line style="stroke:#000000;stroke-width:1.0;" x1="574" x2="574" y1="662.4883" y2="682.9766"/><line style="stroke:#000000;stroke-width:1.0;" x1="470" x2="741" y1="682.9766" y2="682.9766"/><text fill="#000000" font-family="sans-serif" font-size="14" font-weight="bold" lengthAdjust="spacing" textLength="94" x="475" y="698.5117">ratio_percent</text><text fill="#000000" font-family="sans-serif" font-size="14" lengthAdjust="spacing" textLength="157" x="579" y="698.5117">0.3663003663003663</text><line style="stroke:#000000;stroke-width:1.0;" x1="574" x2="574" y1="682.9766" y2="703.4648"/><rect fill="none" height="61.4648" rx="5" ry="5" style="stroke:#000000;stroke-width:1.5;" width="271" x="470" y="642"/><rect fill="#F1F1F1" height="61.4648" rx="5" ry="5" style="stroke:#F1F1F1;stroke-width:1.5;" width="271" x="470" y="721"/><text fill="#000000" font-family="sans-serif" font-size="14" font-weight="bold" lengthAdjust="spacing" textLength="78" x="475" y="736.5352">field_value</text><text fill="#000000" font-family="sans-serif" font-size="14" lengthAdjust="spacing" textLength="67" x="579" y="736.5352">45084.38</text><line style="stroke:#000000;stroke-width:1.0;" x1="574" x2="574" y1="721" y2="741.4883"/><line style="stroke:#000000;stroke-width:1.0;" x1="470" x2="741" y1="741.4883" y2="741.4883"/><text fill="#000000" font-family="sans-serif" font-size="14" font-weight="bold" lengthAdjust="spacing" textLength="74" x="475" y="757.0234">row_count</text><text fill="#000000" font-family="sans-serif" font-size="14" lengthAdjust="spacing" textLength="9" x="579" y="757.0234">1</text><line style="stroke:#000000;stroke-width:1.0;" x1="574" x2="574" y1="741.4883" y2="761.9766"/><line style="stroke:#000000;stroke-width:1.0;" x1="470" x2="741" y1="761.9766" y2="761.9766"/><text fill="#000000" font-family="sans-serif" font-size="14" font-weight="bold" lengthAdjust="spacing" textLength="94" x="475" y="777.5117">ratio_percent</text><text fill="#000000" font-family="sans-serif" font-size="14" lengthAdjust="spacing" textLength="157" x="579" y="777.5117">0.3663003663003663</text><line style="stroke:#000000;stroke-width:1.0;" x1="574" x2="574" y1="761.9766" y2="782.4648"/><rect fill="none" height="61.4648" rx="5" ry="5" style="stroke:#000000;stroke-width:1.5;" width="271" x="470" y="721"/><path d="M195,315.5 L208,315.5 C228.8273,315.5 225.7406,295.5187 244,285.5 C248.1394,283.2288 252.4771,281.0988 256.9224,279.1061 " fill="none" style="stroke:#000000;stroke-width:1.0;stroke-dasharray:3.0,3.0;"/><path d="M258.1301,281.9305 L259.0407,278.2004 L255.7148,276.2817 L263.9835,276.0871 L258.1301,281.9305 " fill="#000000" style="stroke:#000000;stroke-width:1.0;"/><ellipse cx="195" cy="315.5" fill="#000000" rx="3" ry="3" style="stroke:#000000;stroke-width:1.0;"/><path d="M339,303.5 L352,303.5 C389.3122,303.5 408.1906,312.4458 434,285.5 C498.2901,218.3792 407.93,148.679 470,79.5 C471.0081,78.3765 472.0463,77.2844 473.1126,76.2231 " fill="none" style="stroke:#000000;stroke-width:1.0;stroke-dasharray:3.0,3.0;"/><path d="M475.1347,78.4455 L474.7795,74.7065 L471.0905,74.0006 L478.6688,71.1678 L475.1347,78.4455 " fill="#000000" style="stroke:#000000;stroke-width:1.0;"/><ellipse cx="339" cy="303.5" fill="#000000" rx="3" ry="3" style="stroke:#000000;stroke-width:1.0;"/><path d="M339,324.5 L352,324.5 C392.3564,324.5 407.9543,316.3264 434,285.5 C471.864,240.686 428.6193,200.0887 470,158.5 C471.2233,157.2705 472.4828,156.0793 473.7755,154.925 " fill="none" style="stroke:#000000;stroke-width:1.0;stroke-dasharray:3.0,3.0;"/><path d="M475.7064,157.2737 L475.537,153.4769 L471.8447,152.5764 L479.6472,150.0978 L475.7064,157.2737 " fill="#000000" style="stroke:#000000;stroke-width:1.0;"/><ellipse cx="339" cy="324.5" fill="#000000" rx="3" ry="3" style="stroke:#000000;stroke-width:1.0;"/><path d="M339,344.5 L352,344.5 C396.8977,344.5 401.9398,316.9316 434,285.5 C453.0419,266.8314 448.0554,252.6508 470,237.5 C472.3464,235.88 474.7599,234.3267 477.2295,232.8373 " fill="none" style="stroke:#000000;stroke-width:1.0;stroke-dasharray:3.0,3.0;"/><path d="M478.7476,235.5016 L479.2277,231.6987 L475.7115,230.173 L483.8903,229.0421 L478.7476,235.5016 " fill="#000000" style="stroke:#000000;stroke-width:1.0;"/><ellipse cx="339" cy="344.5" fill="#000000" rx="3" ry="3" style="stroke:#000000;stroke-width:1.0;"/><path d="M339,365.5 L352,365.5 C408.6174,365.5 416.5709,336.2315 470,317.5 C476.8339,315.1041 483.894,312.7271 491.0365,310.3966 " fill="none" style="stroke:#000000;stroke-width:1.0;stroke-dasharray:3.0,3.0;"/><path d="M491.9621,313.2625 L493.1859,309.7025 L490.1109,307.5308 L498.2011,308.0827 L491.9621,313.2625 " fill="#000000" style="stroke:#000000;stroke-width:1.0;"/><ellipse cx="339" cy="365.5" fill="#000000" rx="3" ry="3" style="stroke:#000000;stroke-width:1.0;"/><path d="M339,385.5 L352,385.5 C388.0127,385.5 426.7224,382.5639 462.7667,378.5603 " fill="none" style="stroke:#000000;stroke-width:1.0;stroke-dasharray:3.0,3.0;"/><path d="M463.1147,381.6199 L465.0615,378.2993 L462.4188,375.5006 L470.4158,377.6904 L463.1147,381.6199 " fill="#000000" style="stroke:#000000;stroke-width:1.0;"/><ellipse cx="339" cy="385.5" fill="#000000" rx="3" ry="3" style="stroke:#000000;stroke-width:1.0;"/><path d="M339,406.5 L352,406.5 C388.0127,406.5 426.7224,409.4361 462.7667,413.4397 " fill="none" style="stroke:#000000;stroke-width:1.0;stroke-dasharray:3.0,3.0;"/><path d="M462.4188,416.4994 L465.0615,413.7007 L463.1147,410.3801 L470.4158,414.3096 L462.4188,416.4994 " fill="#000000" style="stroke:#000000;stroke-width:1.0;"/><ellipse cx="339" cy="406.5" fill="#000000" rx="3" ry="3" style="stroke:#000000;stroke-width:1.0;"/><path d="M339,427.5 L352,427.5 C408.6174,427.5 416.5074,456.9509 470,475.5 C475.9641,477.5681 482.1016,479.6165 488.3168,481.6282 " fill="none" style="stroke:#000000;stroke-width:1.0;stroke-dasharray:3.0,3.0;"/><path d="M487.3793,484.5585 L490.5145,482.3313 L489.2542,478.6979 L495.6426,483.9718 L487.3793,484.5585 " fill="#000000" style="stroke:#000000;stroke-width:1.0;"/><ellipse cx="339" cy="427.5" fill="#000000" rx="3" ry="3" style="stroke:#000000;stroke-width:1.0;"/><path d="M339,447.5 L352,447.5 C422.7951,447.5 408.1756,520.008 470,554.5 C473.2257,556.2996 476.542,558.0227 479.9269,559.6722 " fill="none" style="stroke:#000000;stroke-width:1.0;stroke-dasharray:3.0,3.0;"/><path d="M478.6137,562.4872 L482.0382,560.6571 L481.2402,556.8572 L486.9644,562.9553 L478.6137,562.4872 " fill="#000000" style="stroke:#000000;stroke-width:1.0;"/><ellipse cx="339" cy="447.5" fill="#000000" rx="3" ry="3" style="stroke:#000000;stroke-width:1.0;"/><path d="M339,468.5 L352,468.5 C442.1565,468.5 396.3939,581.439 470,633.5 C472.1411,635.0144 474.3405,636.4704 476.5894,637.8702 " fill="none" style="stroke:#000000;stroke-width:1.0;stroke-dasharray:3.0,3.0;"/><path d="M474.9762,640.6249 L478.6554,639.0801 L478.2026,635.1155 L483.4762,641.9033 L474.9762,640.6249 " fill="#000000" style="stroke:#000000;stroke-width:1.0;"/><ellipse cx="339" cy="468.5" fill="#000000" rx="3" ry="3" style="stroke:#000000;stroke-width:1.0;"/><path d="M339,488.5 L352,488.5 C464.5243,488.5 382.7588,641.4317 470,712.5 C471.7289,713.9084 473.5064,715.2659 475.3269,716.5744 " fill="none" style="stroke:#000000;stroke-width:1.0;stroke-dasharray:3.0,3.0;"/><path d="M473.6218,719.1133 L477.2311,717.8533 L477.032,714.0356 L481.674,720.8372 L473.6218,719.1133 " fill="#000000" style="stroke:#000000;stroke-width:1.0;"/><ellipse cx="339" cy="488.5" fill="#000000" rx="3" ry="3" style="stroke:#000000;stroke-width:1.0;"/><path d="M195,336.5 L208,336.5 C251.8518,336.5 297.0003,364.993 320.8339,382.7089 " fill="none" style="stroke:#000000;stroke-width:1.0;stroke-dasharray:3.0,3.0;"/><path d="M318.9625,385.1642 L322.6753,384.1124 L322.7052,380.2536 L326.9721,387.3873 L318.9625,385.1642 " fill="#000000" style="stroke:#000000;stroke-width:1.0;"/><ellipse cx="195" cy="336.5" fill="#000000" rx="3" ry="3" style="stroke:#000000;stroke-width:1.0;"/><!--MD5=[5f7660fdc8254dd759fb17cdf2b9a28f]
@startjson
{
    "field1": "amount",
    "combination": "amount",
    "null_distribution": {
        "total_null_rows": 0,
        "total_not_null_rows": 273
    },
    "data_distribution": [
        {
            "field_value": "1676.14",
            "row_count": 1,
            "ratio_percent": 0.3663003663003663
        },
        {
            "field_value": "50025.35",
            "row_count": 1,
            "ratio_percent": 0.3663003663003663
        },
        {
            "field_value": "35152.12",
            "row_count": 1,
            "ratio_percent": 0.3663003663003663
        },
        {
            "field_value": "17359.53",
            "row_count": 1,
            "ratio_percent": 0.3663003663003663
        },
        {
            "field_value": "12432.32",
            "row_count": 1,
            "ratio_percent": 0.3663003663003663
        },
        {
            "field_value": "45352.47",
            "row_count": 1,
            "ratio_percent": 0.3663003663003663
        },
        {
            "field_value": "1834.56",
            "row_count": 1,
            "ratio_percent": 0.3663003663003663
        },
        {
            "field_value": "49165.16",
            "row_count": 1,
            "ratio_percent": 0.3663003663003663
        },
        {
            "field_value": "36070.47",
            "row_count": 1,
            "ratio_percent": 0.3663003663003663
        },
        {
            "field_value": "45084.38",
            "row_count": 1,
            "ratio_percent": 0.3663003663003663
        }
    ]
}
@endjson

PlantUML version 1.2022.5(Sat Apr 30 06:55:52 EDT 2022)
(GPL source distribution)
Java Runtime: OpenJDK Runtime Environment
JVM: OpenJDK 64-Bit Server VM
Default Encoding: UTF-8
Language: en
Country: CA
--></g></svg>