<?xml version="1.0" encoding="UTF-8" standalone="no"?><svg xmlns="http://www.w3.org/2000/svg" xmlns:xlink="http://www.w3.org/1999/xlink" contentStyleType="text/css" height="557px" preserveAspectRatio="none" style="width:759px;height:557px;background:#FFFFFF;" version="1.1" viewBox="0 0 759 557" width="759px" zoomAndPan="magnify"><defs/><g><rect fill="#F1F1F1" height="81.9531" rx="5" ry="5" style="stroke:#F1F1F1;stroke-width:1.5;" width="212" x="10" y="161.5"/><text fill="#000000" font-family="sans-serif" font-size="14" font-weight="bold" lengthAdjust="spacing" textLength="42" x="15" y="177.0352">field1</text><text fill="#000000" font-family="sans-serif" font-size="14" lengthAdjust="spacing" textLength="68" x="149" y="177.0352">reportsTo</text><line style="stroke:#000000;stroke-width:1.0;" x1="144" x2="144" y1="161.5" y2="181.9883"/><line style="stroke:#000000;stroke-width:1.0;" x1="10" x2="222" y1="181.9883" y2="181.9883"/><text fill="#000000" font-family="sans-serif" font-size="14" font-weight="bold" lengthAdjust="spacing" textLength="90" x="15" y="197.5234">combination</text><text fill="#000000" font-family="sans-serif" font-size="14" lengthAdjust="spacing" textLength="68" x="149" y="197.5234">reportsTo</text><line style="stroke:#000000;stroke-width:1.0;" x1="144" x2="144" y1="181.9883" y2="202.4766"/><line style="stroke:#000000;stroke-width:1.0;" x1="10" x2="222" y1="202.4766" y2="202.4766"/><text fill="#000000" font-family="sans-serif" font-size="14" font-weight="bold" lengthAdjust="spacing" textLength="121" x="15" y="218.0117">null_distribution</text><text fill="#000000" font-family="sans-serif" font-size="14" lengthAdjust="spacing" textLength="12" x="149" y="218.0117">   </text><line style="stroke:#000000;stroke-width:1.0;" x1="144" x2="144" y1="202.4766" y2="222.9648"/><line style="stroke:#000000;stroke-width:1.0;" x1="10" x2="222" y1="222.9648" y2="222.9648"/><text fill="#000000" font-family="sans-serif" font-size="14" font-weight="bold" lengthAdjust="spacing" textLength="124" x="15" y="238.5">data_distribution</text><text fill="#000000" font-family="sans-serif" font-size="14" lengthAdjust="spacing" textLength="12" x="149" y="238.5">   </text><line style="stroke:#000000;stroke-width:1.0;" x1="144" x2="144" y1="222.9648" y2="243.4531"/><rect fill="none" height="81.9531" rx="5" ry="5" style="stroke:#000000;stroke-width:1.5;" width="212" x="10" y="161.5"/><rect fill="#F1F1F1" height="40.9766" rx="5" ry="5" style="stroke:#F1F1F1;stroke-width:1.5;" width="180" x="259" y="148"/><text fill="#000000" font-family="sans-serif" font-size="14" font-weight="bold" lengthAdjust="spacing" textLength="111" x="264" y="163.5352">total_null_rows</text><text fill="#000000" font-family="sans-serif" font-size="14" lengthAdjust="spacing" textLength="9" x="416" y="163.5352">1</text><line style="stroke:#000000;stroke-width:1.0;" x1="411" x2="411" y1="148" y2="168.4883"/><line style="stroke:#000000;stroke-width:1.0;" x1="259" x2="439" y1="168.4883" y2="168.4883"/><text fill="#000000" font-family="sans-serif" font-size="14" font-weight="bold" lengthAdjust="spacing" textLength="142" x="264" y="184.0234">total_not_null_rows</text><text fill="#000000" font-family="sans-serif" font-size="14" lengthAdjust="spacing" textLength="18" x="416" y="184.0234">22</text><line style="stroke:#000000;stroke-width:1.0;" x1="411" x2="411" y1="168.4883" y2="188.9766"/><rect fill="none" height="40.9766" rx="5" ry="5" style="stroke:#000000;stroke-width:1.5;" width="180" x="259" y="148"/><rect fill="#F1F1F1" height="143.418" rx="5" ry="5" style="stroke:#F1F1F1;stroke-width:1.5;" width="22" x="337" y="207"/><text fill="#000000" font-family="sans-serif" font-size="14" lengthAdjust="spacing" textLength="12" x="342" y="222.5352">   </text><line style="stroke:#000000;stroke-width:1.0;" x1="337" x2="359" y1="227.4883" y2="227.4883"/><text fill="#000000" font-family="sans-serif" font-size="14" lengthAdjust="spacing" textLength="12" x="342" y="243.0234">   </text><line style="stroke:#000000;stroke-width:1.0;" x1="337" x2="359" y1="247.9766" y2="247.9766"/><text fill="#000000" font-family="sans-serif" font-size="14" lengthAdjust="spacing" textLength="12" x="342" y="263.5117">   </text><line style="stroke:#000000;stroke-width:1.0;" x1="337" x2="359" y1="268.4648" y2="268.4648"/><text fill="#000000" font-family="sans-serif" font-size="14" lengthAdjust="spacing" textLength="12" x="342" y="284">   </text><line style="stroke:#000000;stroke-width:1.0;" x1="337" x2="359" y1="288.9531" y2="288.9531"/><text fill="#000000" font-family="sans-serif" font-size="14" lengthAdjust="spacing" textLength="12" x="342" y="304.4883">   </text><line style="stroke:#000000;stroke-width:1.0;" x1="337" x2="359" y1="309.4414" y2="309.4414"/><text fill="#000000" font-family="sans-serif" font-size="14" lengthAdjust="spacing" textLength="12" x="342" y="324.9766">   </text><line style="stroke:#000000;stroke-width:1.0;" x1="337" x2="359" y1="329.9297" y2="329.9297"/><text fill="#000000" font-family="sans-serif" font-size="14" lengthAdjust="spacing" textLength="12" x="342" y="345.4648">   </text><rect fill="none" height="143.418" rx="5" ry="5" style="stroke:#000000;stroke-width:1.5;" width="22" x="337" y="207"/><rect fill="#F1F1F1" height="61.4648" rx="5" ry="5" style="stroke:#F1F1F1;stroke-width:1.5;" width="262" x="480.5" y="10"/><text fill="#000000" font-family="sans-serif" font-size="14" font-weight="bold" lengthAdjust="spacing" textLength="78" x="485.5" y="25.5352">field_value</text><text fill="#000000" font-family="sans-serif" font-size="14" lengthAdjust="spacing" textLength="36" x="589.5" y="25.5352">1102</text><line style="stroke:#000000;stroke-width:1.0;" x1="584.5" x2="584.5" y1="10" y2="30.4883"/><line style="stroke:#000000;stroke-width:1.0;" x1="480.5" x2="742.5" y1="30.4883" y2="30.4883"/><text fill="#000000" font-family="sans-serif" font-size="14" font-weight="bold" lengthAdjust="spacing" textLength="74" x="485.5" y="46.0234">row_count</text><text fill="#000000" font-family="sans-serif" font-size="14" lengthAdjust="spacing" textLength="9" x="589.5" y="46.0234">6</text><line style="stroke:#000000;stroke-width:1.0;" x1="584.5" x2="584.5" y1="30.4883" y2="50.9766"/><line style="stroke:#000000;stroke-width:1.0;" x1="480.5" x2="742.5" y1="50.9766" y2="50.9766"/><text fill="#000000" font-family="sans-serif" font-size="14" font-weight="bold" lengthAdjust="spacing" textLength="94" x="485.5" y="66.5117">ratio_percent</text><text fill="#000000" font-family="sans-serif" font-size="14" lengthAdjust="spacing" textLength="148" x="589.5" y="66.5117">26.08695652173913</text><line style="stroke:#000000;stroke-width:1.0;" x1="584.5" x2="584.5" y1="50.9766" y2="71.4648"/><rect fill="none" height="61.4648" rx="5" ry="5" style="stroke:#000000;stroke-width:1.5;" width="262" x="480.5" y="10"/><rect fill="#F1F1F1" height="61.4648" rx="5" ry="5" style="stroke:#F1F1F1;stroke-width:1.5;" width="262" x="480.5" y="89"/><text fill="#000000" font-family="sans-serif" font-size="14" font-weight="bold" lengthAdjust="spacing" textLength="78" x="485.5" y="104.5352">field_value</text><text fill="#000000" font-family="sans-serif" font-size="14" lengthAdjust="spacing" textLength="36" x="589.5" y="104.5352">1143</text><line style="stroke:#000000;stroke-width:1.0;" x1="584.5" x2="584.5" y1="89" y2="109.4883"/><line style="stroke:#000000;stroke-width:1.0;" x1="480.5" x2="742.5" y1="109.4883" y2="109.4883"/><text fill="#000000" font-family="sans-serif" font-size="14" font-weight="bold" lengthAdjust="spacing" textLength="74" x="485.5" y="125.0234">row_count</text><text fill="#000000" font-family="sans-serif" font-size="14" lengthAdjust="spacing" textLength="9" x="589.5" y="125.0234">6</text><line style="stroke:#000000;stroke-width:1.0;" x1="584.5" x2="584.5" y1="109.4883" y2="129.9766"/><line style="stroke:#000000;stroke-width:1.0;" x1="480.5" x2="742.5" y1="129.9766" y2="129.9766"/><text fill="#000000" font-family="sans-serif" font-size="14" font-weight="bold" lengthAdjust="spacing" textLength="94" x="485.5" y="145.5117">ratio_percent</text><text fill="#000000" font-family="sans-serif" font-size="14" lengthAdjust="spacing" textLength="148" x="589.5" y="145.5117">26.08695652173913</text><line style="stroke:#000000;stroke-width:1.0;" x1="584.5" x2="584.5" y1="129.9766" y2="150.4648"/><rect fill="none" height="61.4648" rx="5" ry="5" style="stroke:#000000;stroke-width:1.5;" width="262" x="480.5" y="89"/><rect fill="#F1F1F1" height="61.4648" rx="5" ry="5" style="stroke:#F1F1F1;stroke-width:1.5;" width="271" x="476" y="168"/><text fill="#000000" font-family="sans-serif" font-size="14" font-weight="bold" lengthAdjust="spacing" textLength="78" x="481" y="183.5352">field_value</text><text fill="#000000" font-family="sans-serif" font-size="14" lengthAdjust="spacing" textLength="36" x="585" y="183.5352">1056</text><line style="stroke:#000000;stroke-width:1.0;" x1="580" x2="580" y1="168" y2="188.4883"/><line style="stroke:#000000;stroke-width:1.0;" x1="476" x2="747" y1="188.4883" y2="188.4883"/><text fill="#000000" font-family="sans-serif" font-size="14" font-weight="bold" lengthAdjust="spacing" textLength="74" x="481" y="204.0234">row_count</text><text fill="#000000" font-family="sans-serif" font-size="14" lengthAdjust="spacing" textLength="9" x="585" y="204.0234">4</text><line style="stroke:#000000;stroke-width:1.0;" x1="580" x2="580" y1="188.4883" y2="208.9766"/><line style="stroke:#000000;stroke-width:1.0;" x1="476" x2="747" y1="208.9766" y2="208.9766"/><text fill="#000000" font-family="sans-serif" font-size="14" font-weight="bold" lengthAdjust="spacing" textLength="94" x="481" y="224.5117">ratio_percent</text><text fill="#000000" font-family="sans-serif" font-size="14" lengthAdjust="spacing" textLength="157" x="585" y="224.5117">17.391304347826086</text><line style="stroke:#000000;stroke-width:1.0;" x1="580" x2="580" y1="208.9766" y2="229.4648"/><rect fill="none" height="61.4648" rx="5" ry="5" style="stroke:#000000;stroke-width:1.5;" width="271" x="476" y="168"/><rect fill="#F1F1F1" height="61.4648" rx="5" ry="5" style="stroke:#F1F1F1;stroke-width:1.5;" width="271" x="476" y="247"/><text fill="#000000" font-family="sans-serif" font-size="14" font-weight="bold" lengthAdjust="spacing" textLength="78" x="481" y="262.5352">field_value</text><text fill="#000000" font-family="sans-serif" font-size="14" lengthAdjust="spacing" textLength="36" x="585" y="262.5352">1088</text><line style="stroke:#000000;stroke-width:1.0;" x1="580" x2="580" y1="247" y2="267.4883"/><line style="stroke:#000000;stroke-width:1.0;" x1="476" x2="747" y1="267.4883" y2="267.4883"/><text fill="#000000" font-family="sans-serif" font-size="14" font-weight="bold" lengthAdjust="spacing" textLength="74" x="481" y="283.0234">row_count</text><text fill="#000000" font-family="sans-serif" font-size="14" lengthAdjust="spacing" textLength="9" x="585" y="283.0234">3</text><line style="stroke:#000000;stroke-width:1.0;" x1="580" x2="580" y1="267.4883" y2="287.9766"/><line style="stroke:#000000;stroke-width:1.0;" x1="476" x2="747" y1="287.9766" y2="287.9766"/><text fill="#000000" font-family="sans-serif" font-size="14" font-weight="bold" lengthAdjust="spacing" textLength="94" x="481" y="303.5117">ratio_percent</text><text fill="#000000" font-family="sans-serif" font-size="14" lengthAdjust="spacing" textLength="157" x="585" y="303.5117">13.043478260869565</text><line style="stroke:#000000;stroke-width:1.0;" x1="580" x2="580" y1="287.9766" y2="308.4648"/><rect fill="none" height="61.4648" rx="5" ry="5" style="stroke:#000000;stroke-width:1.5;" width="271" x="476" y="247"/><rect fill="#F1F1F1" height="61.4648" rx="5" ry="5" style="stroke:#F1F1F1;stroke-width:1.5;" width="262" x="480.5" y="326"/><text fill="#000000" font-family="sans-serif" font-size="14" font-weight="bold" lengthAdjust="spacing" textLength="78" x="485.5" y="341.5352">field_value</text><text fill="#000000" font-family="sans-serif" font-size="14" lengthAdjust="spacing" textLength="36" x="589.5" y="341.5352">1002</text><line style="stroke:#000000;stroke-width:1.0;" x1="584.5" x2="584.5" y1="326" y2="346.4883"/><line style="stroke:#000000;stroke-width:1.0;" x1="480.5" x2="742.5" y1="346.4883" y2="346.4883"/><text fill="#000000" font-family="sans-serif" font-size="14" font-weight="bold" lengthAdjust="spacing" textLength="74" x="485.5" y="362.0234">row_count</text><text fill="#000000" font-family="sans-serif" font-size="14" lengthAdjust="spacing" textLength="9" x="589.5" y="362.0234">2</text><line style="stroke:#000000;stroke-width:1.0;" x1="584.5" x2="584.5" y1="346.4883" y2="366.9766"/><line style="stroke:#000000;stroke-width:1.0;" x1="480.5" x2="742.5" y1="366.9766" y2="366.9766"/><text fill="#000000" font-family="sans-serif" font-size="14" font-weight="bold" lengthAdjust="spacing" textLength="94" x="485.5" y="382.5117">ratio_percent</text><text fill="#000000" font-family="sans-serif" font-size="14" lengthAdjust="spacing" textLength="148" x="589.5" y="382.5117">8.695652173913043</text><line style="stroke:#000000;stroke-width:1.0;" x1="584.5" x2="584.5" y1="366.9766" y2="387.4648"/><rect fill="none" height="61.4648" rx="5" ry="5" style="stroke:#000000;stroke-width:1.5;" width="262" x="480.5" y="326"/><rect fill="#F1F1F1" height="61.4648" rx="5" ry="5" style="stroke:#F1F1F1;stroke-width:1.5;" width="271" x="476" y="405"/><text fill="#000000" font-family="sans-serif" font-size="14" font-weight="bold" lengthAdjust="spacing" textLength="78" x="481" y="420.5352">field_value</text><text fill="#000000" font-family="sans-serif" font-size="14" font-weight="bold" lengthAdjust="spacing" textLength="37" x="585" y="420.5352">NULL</text><line style="stroke:#000000;stroke-width:1.0;" x1="580" x2="580" y1="405" y2="425.4883"/><line style="stroke:#000000;stroke-width:1.0;" x1="476" x2="747" y1="425.4883" y2="425.4883"/><text fill="#000000" font-family="sans-serif" font-size="14" font-weight="bold" lengthAdjust="spacing" textLength="74" x="481" y="441.0234">row_count</text><text fill="#000000" font-family="sans-serif" font-size="14" lengthAdjust="spacing" textLength="9" x="585" y="441.0234">1</text><line style="stroke:#000000;stroke-width:1.0;" x1="580" x2="580" y1="425.4883" y2="445.9766"/><line style="stroke:#000000;stroke-width:1.0;" x1="476" x2="747" y1="445.9766" y2="445.9766"/><text fill="#000000" font-family="sans-serif" font-size="14" font-weight="bold" lengthAdjust="spacing" textLength="94" x="481" y="461.5117">ratio_percent</text><text fill="#000000" font-family="sans-serif" font-size="14" lengthAdjust="spacing" textLength="157" x="585" y="461.5117">4.3478260869565215</text><line style="stroke:#000000;stroke-width:1.0;" x1="580" x2="580" y1="445.9766" y2="466.4648"/><rect fill="none" height="61.4648" rx="5" ry="5" style="stroke:#000000;stroke-width:1.5;" width="271" x="476" y="405"/><rect fill="#F1F1F1" height="61.4648" rx="5" ry="5" style="stroke:#F1F1F1;stroke-width:1.5;" width="271" x="476" y="484"/><text fill="#000000" font-family="sans-serif" font-size="14" font-weight="bold" lengthAdjust="spacing" textLength="78" x="481" y="499.5352">field_value</text><text fill="#000000" font-family="sans-serif" font-size="14" lengthAdjust="spacing" textLength="36" x="585" y="499.5352">1621</text><line style="stroke:#000000;stroke-width:1.0;" x1="580" x2="580" y1="484" y2="504.4883"/><line style="stroke:#000000;stroke-width:1.0;" x1="476" x2="747" y1="504.4883" y2="504.4883"/><text fill="#000000" font-family="sans-serif" font-size="14" font-weight="bold" lengthAdjust="spacing" textLength="74" x="481" y="520.0234">row_count</text><text fill="#000000" font-family="sans-serif" font-size="14" lengthAdjust="spacing" textLength="9" x="585" y="520.0234">1</text><line style="stroke:#000000;stroke-width:1.0;" x1="580" x2="580" y1="504.4883" y2="524.9766"/><line style="stroke:#000000;stroke-width:1.0;" x1="476" x2="747" y1="524.9766" y2="524.9766"/><text fill="#000000" font-family="sans-serif" font-size="14" font-weight="bold" lengthAdjust="spacing" textLength="94" x="481" y="540.5117">ratio_percent</text><text fill="#000000" font-family="sans-serif" font-size="14" lengthAdjust="spacing" textLength="157" x="585" y="540.5117">4.3478260869565215</text><line style="stroke:#000000;stroke-width:1.0;" x1="580" x2="580" y1="524.9766" y2="545.4648"/><rect fill="none" height="61.4648" rx="5" ry="5" style="stroke:#000000;stroke-width:1.5;" width="271" x="476" y="484"/><path d="M210,212.5 L223,212.5 C240.1673,212.5 242.8568,204.3408 259,198.5 C265.3375,196.207 271.9484,193.8766 278.5816,191.5798 " fill="none" style="stroke:#000000;stroke-width:1.0;stroke-dasharray:3.0,3.0;"/><path d="M279.5718,194.4576 L280.7399,190.8372 L277.5913,188.7021 L285.776,189.1042 L279.5718,194.4576 " fill="#000000" style="stroke:#000000;stroke-width:1.0;"/><ellipse cx="210" cy="212.5" fill="#000000" rx="3" ry="3" style="stroke:#000000;stroke-width:1.0;"/><path d="M349.5,216.5 L362.5,216.5 C397.8613,216.5 414.1898,222.6713 440,198.5 C480.3314,160.7295 436.6839,118.3263 476,79.5 C477.2341,78.2813 478.5037,77.1002 479.806,75.9556 " fill="none" style="stroke:#000000;stroke-width:1.0;stroke-dasharray:3.0,3.0;"/><path d="M481.7215,78.3196 L481.579,74.519 L477.8905,73.5916 L485.7161,71.167 L481.7215,78.3196 " fill="#000000" style="stroke:#000000;stroke-width:1.0;"/><ellipse cx="349.5" cy="216.5" fill="#000000" rx="3" ry="3" style="stroke:#000000;stroke-width:1.0;"/><path d="M349.5,236.5 L362.5,236.5 C400.8621,236.5 409.2442,221.429 440,198.5 C458.9119,184.4009 455.973,171.9645 476,159.5 C479.3513,157.4142 482.8171,155.4323 486.3694,153.5497 " fill="none" style="stroke:#000000;stroke-width:1.0;stroke-dasharray:3.0,3.0;"/><path d="M487.7692,156.322 L488.4486,152.4998 L484.9696,150.7773 L493.3002,150.0501 L487.7692,156.322 " fill="#000000" style="stroke:#000000;stroke-width:1.0;"/><ellipse cx="349.5" cy="236.5" fill="#000000" rx="3" ry="3" style="stroke:#000000;stroke-width:1.0;"/><path d="M349.5,257.5 L362.5,257.5 C388.9686,257.5 444.7937,244.6687 496.8383,230.9738 " fill="none" style="stroke:#000000;stroke-width:1.0;stroke-dasharray:3.0,3.0;"/><path d="M497.6131,233.8999 L499.0329,230.3927 L496.0636,228.0477 L504.1535,229.0369 L497.6131,233.8999 " fill="#000000" style="stroke:#000000;stroke-width:1.0;"/><ellipse cx="349.5" cy="257.5" fill="#000000" rx="3" ry="3" style="stroke:#000000;stroke-width:1.0;"/><path d="M349.5,277.5 L362.5,277.5 C396.7931,277.5 433.7483,277.5 468.4061,277.5 " fill="none" style="stroke:#000000;stroke-width:1.0;stroke-dasharray:3.0,3.0;"/><path d="M468.4061,280.6288 L470.7526,277.5 L468.4061,274.3712 L476.228,277.5 L468.4061,280.6288 " fill="#000000" style="stroke:#000000;stroke-width:1.0;"/><ellipse cx="349.5" cy="277.5" fill="#000000" rx="3" ry="3" style="stroke:#000000;stroke-width:1.0;"/><path d="M349.5,298.5 L362.5,298.5 C388.5741,298.5 443.2088,310.7626 494.6266,324.0109 " fill="none" style="stroke:#000000;stroke-width:1.0;stroke-dasharray:3.0,3.0;"/><path d="M493.8424,327.0345 L496.8944,324.599 L495.4108,320.9872 L502.1857,325.9713 L493.8424,327.0345 " fill="#000000" style="stroke:#000000;stroke-width:1.0;"/><ellipse cx="349.5" cy="298.5" fill="#000000" rx="3" ry="3" style="stroke:#000000;stroke-width:1.0;"/><path d="M349.5,319.5 L362.5,319.5 C423.4574,319.5 420.814,370.6097 476,396.5 C480.2033,398.4719 484.5277,400.3662 488.932,402.1835 " fill="none" style="stroke:#000000;stroke-width:1.0;stroke-dasharray:3.0,3.0;"/><path d="M487.815,404.9759 L491.0262,403.0213 L490.0489,399.3912 L495.9128,404.976 L487.815,404.9759 " fill="#000000" style="stroke:#000000;stroke-width:1.0;"/><ellipse cx="349.5" cy="319.5" fill="#000000" rx="3" ry="3" style="stroke:#000000;stroke-width:1.0;"/><path d="M349.5,339.5 L362.5,339.5 C441.2285,339.5 410.0726,432.468 476,475.5 C478.4419,477.0939 480.9501,478.624 483.5131,480.0927 " fill="none" style="stroke:#000000;stroke-width:1.0;stroke-dasharray:3.0,3.0;"/><path d="M482.0146,482.8544 L485.5844,481.2166 L485.0116,477.331 L490.4175,483.839 L482.0146,482.8544 " fill="#000000" style="stroke:#000000;stroke-width:1.0;"/><ellipse cx="349.5" cy="339.5" fill="#000000" rx="3" ry="3" style="stroke:#000000;stroke-width:1.0;"/><path d="M210,233.5 L223,233.5 C263.2749,233.5 306.779,254.2889 330.5166,267.6068 " fill="none" style="stroke:#000000;stroke-width:1.0;stroke-dasharray:3.0,3.0;"/><path d="M328.9718,270.2895 L332.5286,268.7654 L332.0614,264.924 L337.2234,271.4688 L328.9718,270.2895 " fill="#000000" style="stroke:#000000;stroke-width:1.0;"/><ellipse cx="210" cy="233.5" fill="#000000" rx="3" ry="3" style="stroke:#000000;stroke-width:1.0;"/><!--MD5=[f1d757ffa20fb1ddccbb1d1693bc7d5a]
@startjson
{
    "field1": "reportsTo",
    "combination": "reportsTo",
    "null_distribution": {
        "total_null_rows": 1,
        "total_not_null_rows": 22
    },
    "data_distribution": [
        {
            "field_value": "1102",
            "row_count": 6,
            "ratio_percent": 26.08695652173913
        },
        {
            "field_value": "1143",
            "row_count": 6,
            "ratio_percent": 26.08695652173913
        },
        {
            "field_value": "1056",
            "row_count": 4,
            "ratio_percent": 17.391304347826086
        },
        {
            "field_value": "1088",
            "row_count": 3,
            "ratio_percent": 13.043478260869565
        },
        {
            "field_value": "1002",
            "row_count": 2,
            "ratio_percent": 8.695652173913043
        },
        {
            "field_value": "**NULL**",
            "row_count": 1,
            "ratio_percent": 4.3478260869565215
        },
        {
            "field_value": "1621",
            "row_count": 1,
            "ratio_percent": 4.3478260869565215
        }
    ]
}
@endjson

PlantUML version 1.2022.5(Sat Apr 30 06:55:52 EDT 2022)
(GPL source distribution)
Java Runtime: OpenJDK Runtime Environment
JVM: OpenJDK 64-Bit Server VM
Default Encoding: UTF-8
Language: en
Country: CA
--></g></svg>