<?xml version="1.0" encoding="UTF-8" standalone="no"?><svg xmlns="http://www.w3.org/2000/svg" xmlns:xlink="http://www.w3.org/1999/xlink" contentStyleType="text/css" height="794px" preserveAspectRatio="none" style="width:812px;height:794px;background:#FFFFFF;" version="1.1" viewBox="0 0 812 794" width="812px" zoomAndPan="magnify"><defs/><g><rect fill="#F1F1F1" height="81.9531" rx="5" ry="5" style="stroke:#F1F1F1;stroke-width:1.5;" width="265" x="10" y="264.5"/><text fill="#000000" font-family="sans-serif" font-size="14" font-weight="bold" lengthAdjust="spacing" textLength="42" x="15" y="280.0352">field1</text><text fill="#000000" font-family="sans-serif" font-size="14" lengthAdjust="spacing" textLength="121" x="149" y="280.0352">employeeNumber</text><line style="stroke:#000000;stroke-width:1.0;" x1="144" x2="144" y1="264.5" y2="284.9883"/><line style="stroke:#000000;stroke-width:1.0;" x1="10" x2="275" y1="284.9883" y2="284.9883"/><text fill="#000000" font-family="sans-serif" font-size="14" font-weight="bold" lengthAdjust="spacing" textLength="90" x="15" y="300.5234">combination</text><text fill="#000000" font-family="sans-serif" font-size="14" lengthAdjust="spacing" textLength="121" x="149" y="300.5234">employeeNumber</text><line style="stroke:#000000;stroke-width:1.0;" x1="144" x2="144" y1="284.9883" y2="305.4766"/><line style="stroke:#000000;stroke-width:1.0;" x1="10" x2="275" y1="305.4766" y2="305.4766"/><text fill="#000000" font-family="sans-serif" font-size="14" font-weight="bold" lengthAdjust="spacing" textLength="121" x="15" y="321.0117">null_distribution</text><text fill="#000000" font-family="sans-serif" font-size="14" lengthAdjust="spacing" textLength="12" x="149" y="321.0117">   </text><line style="stroke:#000000;stroke-width:1.0;" x1="144" x2="144" y1="305.4766" y2="325.9648"/><line style="stroke:#000000;stroke-width:1.0;" x1="10" x2="275" y1="325.9648" y2="325.9648"/><text fill="#000000" font-family="sans-serif" font-size="14" font-weight="bold" lengthAdjust="spacing" textLength="124" x="15" y="341.5">data_distribution</text><text fill="#000000" font-family="sans-serif" font-size="14" lengthAdjust="spacing" textLength="12" x="149" y="341.5">   </text><line style="stroke:#000000;stroke-width:1.0;" x1="144" x2="144" y1="325.9648" y2="346.4531"/><rect fill="none" height="81.9531" rx="5" ry="5" style="stroke:#000000;stroke-width:1.5;" width="265" x="10" y="264.5"/><rect fill="#F1F1F1" height="40.9766" rx="5" ry="5" style="stroke:#F1F1F1;stroke-width:1.5;" width="180" x="312" y="235"/><text fill="#000000" font-family="sans-serif" font-size="14" font-weight="bold" lengthAdjust="spacing" textLength="111" x="317" y="250.5352">total_null_rows</text><text fill="#000000" font-family="sans-serif" font-size="14" lengthAdjust="spacing" textLength="9" x="469" y="250.5352">0</text><line style="stroke:#000000;stroke-width:1.0;" x1="464" x2="464" y1="235" y2="255.4883"/><line style="stroke:#000000;stroke-width:1.0;" x1="312" x2="492" y1="255.4883" y2="255.4883"/><text fill="#000000" font-family="sans-serif" font-size="14" font-weight="bold" lengthAdjust="spacing" textLength="142" x="317" y="271.0234">total_not_null_rows</text><text fill="#000000" font-family="sans-serif" font-size="14" lengthAdjust="spacing" textLength="18" x="469" y="271.0234">23</text><line style="stroke:#000000;stroke-width:1.0;" x1="464" x2="464" y1="255.4883" y2="275.9766"/><rect fill="none" height="40.9766" rx="5" ry="5" style="stroke:#000000;stroke-width:1.5;" width="180" x="312" y="235"/><rect fill="#F1F1F1" height="204.8828" rx="5" ry="5" style="stroke:#F1F1F1;stroke-width:1.5;" width="22" x="390" y="294"/><text fill="#000000" font-family="sans-serif" font-size="14" lengthAdjust="spacing" textLength="12" x="395" y="309.5352">   </text><line style="stroke:#000000;stroke-width:1.0;" x1="390" x2="412" y1="314.4883" y2="314.4883"/><text fill="#000000" font-family="sans-serif" font-size="14" lengthAdjust="spacing" textLength="12" x="395" y="330.0234">   </text><line style="stroke:#000000;stroke-width:1.0;" x1="390" x2="412" y1="334.9766" y2="334.9766"/><text fill="#000000" font-family="sans-serif" font-size="14" lengthAdjust="spacing" textLength="12" x="395" y="350.5117">   </text><line style="stroke:#000000;stroke-width:1.0;" x1="390" x2="412" y1="355.4648" y2="355.4648"/><text fill="#000000" font-family="sans-serif" font-size="14" lengthAdjust="spacing" textLength="12" x="395" y="371">   </text><line style="stroke:#000000;stroke-width:1.0;" x1="390" x2="412" y1="375.9531" y2="375.9531"/><text fill="#000000" font-family="sans-serif" font-size="14" lengthAdjust="spacing" textLength="12" x="395" y="391.4883">   </text><line style="stroke:#000000;stroke-width:1.0;" x1="390" x2="412" y1="396.4414" y2="396.4414"/><text fill="#000000" font-family="sans-serif" font-size="14" lengthAdjust="spacing" textLength="12" x="395" y="411.9766">   </text><line style="stroke:#000000;stroke-width:1.0;" x1="390" x2="412" y1="416.9297" y2="416.9297"/><text fill="#000000" font-family="sans-serif" font-size="14" lengthAdjust="spacing" textLength="12" x="395" y="432.4648">   </text><line style="stroke:#000000;stroke-width:1.0;" x1="390" x2="412" y1="437.418" y2="437.418"/><text fill="#000000" font-family="sans-serif" font-size="14" lengthAdjust="spacing" textLength="12" x="395" y="452.9531">   </text><line style="stroke:#000000;stroke-width:1.0;" x1="390" x2="412" y1="457.9063" y2="457.9063"/><text fill="#000000" font-family="sans-serif" font-size="14" lengthAdjust="spacing" textLength="12" x="395" y="473.4414">   </text><line style="stroke:#000000;stroke-width:1.0;" x1="390" x2="412" y1="478.3945" y2="478.3945"/><text fill="#000000" font-family="sans-serif" font-size="14" lengthAdjust="spacing" textLength="12" x="395" y="493.9297">   </text><rect fill="none" height="204.8828" rx="5" ry="5" style="stroke:#000000;stroke-width:1.5;" width="22" x="390" y="294"/><rect fill="#F1F1F1" height="61.4648" rx="5" ry="5" style="stroke:#F1F1F1;stroke-width:1.5;" width="271" x="529" y="10"/><text fill="#000000" font-family="sans-serif" font-size="14" font-weight="bold" lengthAdjust="spacing" textLength="78" x="534" y="25.5352">field_value</text><text fill="#000000" font-family="sans-serif" font-size="14" lengthAdjust="spacing" textLength="36" x="638" y="25.5352">1401</text><line style="stroke:#000000;stroke-width:1.0;" x1="633" x2="633" y1="10" y2="30.4883"/><line style="stroke:#000000;stroke-width:1.0;" x1="529" x2="800" y1="30.4883" y2="30.4883"/><text fill="#000000" font-family="sans-serif" font-size="14" font-weight="bold" lengthAdjust="spacing" textLength="74" x="534" y="46.0234">row_count</text><text fill="#000000" font-family="sans-serif" font-size="14" lengthAdjust="spacing" textLength="9" x="638" y="46.0234">1</text><line style="stroke:#000000;stroke-width:1.0;" x1="633" x2="633" y1="30.4883" y2="50.9766"/><line style="stroke:#000000;stroke-width:1.0;" x1="529" x2="800" y1="50.9766" y2="50.9766"/><text fill="#000000" font-family="sans-serif" font-size="14" font-weight="bold" lengthAdjust="spacing" textLength="94" x="534" y="66.5117">ratio_percent</text><text fill="#000000" font-family="sans-serif" font-size="14" lengthAdjust="spacing" textLength="157" x="638" y="66.5117">4.3478260869565215</text><line style="stroke:#000000;stroke-width:1.0;" x1="633" x2="633" y1="50.9766" y2="71.4648"/><rect fill="none" height="61.4648" rx="5" ry="5" style="stroke:#000000;stroke-width:1.5;" width="271" x="529" y="10"/><rect fill="#F1F1F1" height="61.4648" rx="5" ry="5" style="stroke:#F1F1F1;stroke-width:1.5;" width="271" x="529" y="89"/><text fill="#000000" font-family="sans-serif" font-size="14" font-weight="bold" lengthAdjust="spacing" textLength="78" x="534" y="104.5352">field_value</text><text fill="#000000" font-family="sans-serif" font-size="14" lengthAdjust="spacing" textLength="36" x="638" y="104.5352">1216</text><line style="stroke:#000000;stroke-width:1.0;" x1="633" x2="633" y1="89" y2="109.4883"/><line style="stroke:#000000;stroke-width:1.0;" x1="529" x2="800" y1="109.4883" y2="109.4883"/><text fill="#000000" font-family="sans-serif" font-size="14" font-weight="bold" lengthAdjust="spacing" textLength="74" x="534" y="125.0234">row_count</text><text fill="#000000" font-family="sans-serif" font-size="14" lengthAdjust="spacing" textLength="9" x="638" y="125.0234">1</text><line style="stroke:#000000;stroke-width:1.0;" x1="633" x2="633" y1="109.4883" y2="129.9766"/><line style="stroke:#000000;stroke-width:1.0;" x1="529" x2="800" y1="129.9766" y2="129.9766"/><text fill="#000000" font-family="sans-serif" font-size="14" font-weight="bold" lengthAdjust="spacing" textLength="94" x="534" y="145.5117">ratio_percent</text><text fill="#000000" font-family="sans-serif" font-size="14" lengthAdjust="spacing" textLength="157" x="638" y="145.5117">4.3478260869565215</text><line style="stroke:#000000;stroke-width:1.0;" x1="633" x2="633" y1="129.9766" y2="150.4648"/><rect fill="none" height="61.4648" rx="5" ry="5" style="stroke:#000000;stroke-width:1.5;" width="271" x="529" y="89"/><rect fill="#F1F1F1" height="61.4648" rx="5" ry="5" style="stroke:#F1F1F1;stroke-width:1.5;" width="271" x="529" y="168"/><text fill="#000000" font-family="sans-serif" font-size="14" font-weight="bold" lengthAdjust="spacing" textLength="78" x="534" y="183.5352">field_value</text><text fill="#000000" font-family="sans-serif" font-size="14" lengthAdjust="spacing" textLength="36" x="638" y="183.5352">1102</text><line style="stroke:#000000;stroke-width:1.0;" x1="633" x2="633" y1="168" y2="188.4883"/><line style="stroke:#000000;stroke-width:1.0;" x1="529" x2="800" y1="188.4883" y2="188.4883"/><text fill="#000000" font-family="sans-serif" font-size="14" font-weight="bold" lengthAdjust="spacing" textLength="74" x="534" y="204.0234">row_count</text><text fill="#000000" font-family="sans-serif" font-size="14" lengthAdjust="spacing" textLength="9" x="638" y="204.0234">1</text><line style="stroke:#000000;stroke-width:1.0;" x1="633" x2="633" y1="188.4883" y2="208.9766"/><line style="stroke:#000000;stroke-width:1.0;" x1="529" x2="800" y1="208.9766" y2="208.9766"/><text fill="#000000" font-family="sans-serif" font-size="14" font-weight="bold" lengthAdjust="spacing" textLength="94" x="534" y="224.5117">ratio_percent</text><text fill="#000000" font-family="sans-serif" font-size="14" lengthAdjust="spacing" textLength="157" x="638" y="224.5117">4.3478260869565215</text><line style="stroke:#000000;stroke-width:1.0;" x1="633" x2="633" y1="208.9766" y2="229.4648"/><rect fill="none" height="61.4648" rx="5" ry="5" style="stroke:#000000;stroke-width:1.5;" width="271" x="529" y="168"/><rect fill="#F1F1F1" height="61.4648" rx="5" ry="5" style="stroke:#F1F1F1;stroke-width:1.5;" width="271" x="529" y="247"/><text fill="#000000" font-family="sans-serif" font-size="14" font-weight="bold" lengthAdjust="spacing" textLength="78" x="534" y="262.5352">field_value</text><text fill="#000000" font-family="sans-serif" font-size="14" lengthAdjust="spacing" textLength="36" x="638" y="262.5352">1621</text><line style="stroke:#000000;stroke-width:1.0;" x1="633" x2="633" y1="247" y2="267.4883"/><line style="stroke:#000000;stroke-width:1.0;" x1="529" x2="800" y1="267.4883" y2="267.4883"/><text fill="#000000" font-family="sans-serif" font-size="14" font-weight="bold" lengthAdjust="spacing" textLength="74" x="534" y="283.0234">row_count</text><text fill="#000000" font-family="sans-serif" font-size="14" lengthAdjust="spacing" textLength="9" x="638" y="283.0234">1</text><line style="stroke:#000000;stroke-width:1.0;" x1="633" x2="633" y1="267.4883" y2="287.9766"/><line style="stroke:#000000;stroke-width:1.0;" x1="529" x2="800" y1="287.9766" y2="287.9766"/><text fill="#000000" font-family="sans-serif" font-size="14" font-weight="bold" lengthAdjust="spacing" textLength="94" x="534" y="303.5117">ratio_percent</text><text fill="#000000" font-family="sans-serif" font-size="14" lengthAdjust="spacing" textLength="157" x="638" y="303.5117">4.3478260869565215</text><line style="stroke:#000000;stroke-width:1.0;" x1="633" x2="633" y1="287.9766" y2="308.4648"/><rect fill="none" height="61.4648" rx="5" ry="5" style="stroke:#000000;stroke-width:1.5;" width="271" x="529" y="247"/><rect fill="#F1F1F1" height="61.4648" rx="5" ry="5" style="stroke:#F1F1F1;stroke-width:1.5;" width="271" x="529" y="326"/><text fill="#000000" font-family="sans-serif" font-size="14" font-weight="bold" lengthAdjust="spacing" textLength="78" x="534" y="341.5352">field_value</text><text fill="#000000" font-family="sans-serif" font-size="14" lengthAdjust="spacing" textLength="36" x="638" y="341.5352">1501</text><line style="stroke:#000000;stroke-width:1.0;" x1="633" x2="633" y1="326" y2="346.4883"/><line style="stroke:#000000;stroke-width:1.0;" x1="529" x2="800" y1="346.4883" y2="346.4883"/><text fill="#000000" font-family="sans-serif" font-size="14" font-weight="bold" lengthAdjust="spacing" textLength="74" x="534" y="362.0234">row_count</text><text fill="#000000" font-family="sans-serif" font-size="14" lengthAdjust="spacing" textLength="9" x="638" y="362.0234">1</text><line style="stroke:#000000;stroke-width:1.0;" x1="633" x2="633" y1="346.4883" y2="366.9766"/><line style="stroke:#000000;stroke-width:1.0;" x1="529" x2="800" y1="366.9766" y2="366.9766"/><text fill="#000000" font-family="sans-serif" font-size="14" font-weight="bold" lengthAdjust="spacing" textLength="94" x="534" y="382.5117">ratio_percent</text><text fill="#000000" font-family="sans-serif" font-size="14" lengthAdjust="spacing" textLength="157" x="638" y="382.5117">4.3478260869565215</text><line style="stroke:#000000;stroke-width:1.0;" x1="633" x2="633" y1="366.9766" y2="387.4648"/><rect fill="none" height="61.4648" rx="5" ry="5" style="stroke:#000000;stroke-width:1.5;" width="271" x="529" y="326"/><rect fill="#F1F1F1" height="61.4648" rx="5" ry="5" style="stroke:#F1F1F1;stroke-width:1.5;" width="271" x="529" y="405"/><text fill="#000000" font-family="sans-serif" font-size="14" font-weight="bold" lengthAdjust="spacing" textLength="78" x="534" y="420.5352">field_value</text><text fill="#000000" font-family="sans-serif" font-size="14" lengthAdjust="spacing" textLength="36" x="638" y="420.5352">1286</text><line style="stroke:#000000;stroke-width:1.0;" x1="633" x2="633" y1="405" y2="425.4883"/><line style="stroke:#000000;stroke-width:1.0;" x1="529" x2="800" y1="425.4883" y2="425.4883"/><text fill="#000000" font-family="sans-serif" font-size="14" font-weight="bold" lengthAdjust="spacing" textLength="74" x="534" y="441.0234">row_count</text><text fill="#000000" font-family="sans-serif" font-size="14" lengthAdjust="spacing" textLength="9" x="638" y="441.0234">1</text><line style="stroke:#000000;stroke-width:1.0;" x1="633" x2="633" y1="425.4883" y2="445.9766"/><line style="stroke:#000000;stroke-width:1.0;" x1="529" x2="800" y1="445.9766" y2="445.9766"/><text fill="#000000" font-family="sans-serif" font-size="14" font-weight="bold" lengthAdjust="spacing" textLength="94" x="534" y="461.5117">ratio_percent</text><text fill="#000000" font-family="sans-serif" font-size="14" lengthAdjust="spacing" textLength="157" x="638" y="461.5117">4.3478260869565215</text><line style="stroke:#000000;stroke-width:1.0;" x1="633" x2="633" y1="445.9766" y2="466.4648"/><rect fill="none" height="61.4648" rx="5" ry="5" style="stroke:#000000;stroke-width:1.5;" width="271" x="529" y="405"/><rect fill="#F1F1F1" height="61.4648" rx="5" ry="5" style="stroke:#F1F1F1;stroke-width:1.5;" width="271" x="529" y="484"/><text fill="#000000" font-family="sans-serif" font-size="14" font-weight="bold" lengthAdjust="spacing" textLength="78" x="534" y="499.5352">field_value</text><text fill="#000000" font-family="sans-serif" font-size="14" lengthAdjust="spacing" textLength="36" x="638" y="499.5352">1143</text><line style="stroke:#000000;stroke-width:1.0;" x1="633" x2="633" y1="484" y2="504.4883"/><line style="stroke:#000000;stroke-width:1.0;" x1="529" x2="800" y1="504.4883" y2="504.4883"/><text fill="#000000" font-family="sans-serif" font-size="14" font-weight="bold" lengthAdjust="spacing" textLength="74" x="534" y="520.0234">row_count</text><text fill="#000000" font-family="sans-serif" font-size="14" lengthAdjust="spacing" textLength="9" x="638" y="520.0234">1</text><line style="stroke:#000000;stroke-width:1.0;" x1="633" x2="633" y1="504.4883" y2="524.9766"/><line style="stroke:#000000;stroke-width:1.0;" x1="529" x2="800" y1="524.9766" y2="524.9766"/><text fill="#000000" font-family="sans-serif" font-size="14" font-weight="bold" lengthAdjust="spacing" textLength="94" x="534" y="540.5117">ratio_percent</text><text fill="#000000" font-family="sans-serif" font-size="14" lengthAdjust="spacing" textLength="157" x="638" y="540.5117">4.3478260869565215</text><line style="stroke:#000000;stroke-width:1.0;" x1="633" x2="633" y1="524.9766" y2="545.4648"/><rect fill="none" height="61.4648" rx="5" ry="5" style="stroke:#000000;stroke-width:1.5;" width="271" x="529" y="484"/><rect fill="#F1F1F1" height="61.4648" rx="5" ry="5" style="stroke:#F1F1F1;stroke-width:1.5;" width="271" x="529" y="563"/><text fill="#000000" font-family="sans-serif" font-size="14" font-weight="bold" lengthAdjust="spacing" textLength="78" x="534" y="578.5352">field_value</text><text fill="#000000" font-family="sans-serif" font-size="14" lengthAdjust="spacing" textLength="36" x="638" y="578.5352">1625</text><line style="stroke:#000000;stroke-width:1.0;" x1="633" x2="633" y1="563" y2="583.4883"/><line style="stroke:#000000;stroke-width:1.0;" x1="529" x2="800" y1="583.4883" y2="583.4883"/><text fill="#000000" font-family="sans-serif" font-size="14" font-weight="bold" lengthAdjust="spacing" textLength="74" x="534" y="599.0234">row_count</text><text fill="#000000" font-family="sans-serif" font-size="14" lengthAdjust="spacing" textLength="9" x="638" y="599.0234">1</text><line style="stroke:#000000;stroke-width:1.0;" x1="633" x2="633" y1="583.4883" y2="603.9766"/><line style="stroke:#000000;stroke-width:1.0;" x1="529" x2="800" y1="603.9766" y2="603.9766"/><text fill="#000000" font-family="sans-serif" font-size="14" font-weight="bold" lengthAdjust="spacing" textLength="94" x="534" y="619.5117">ratio_percent</text><text fill="#000000" font-family="sans-serif" font-size="14" lengthAdjust="spacing" textLength="157" x="638" y="619.5117">4.3478260869565215</text><line style="stroke:#000000;stroke-width:1.0;" x1="633" x2="633" y1="603.9766" y2="624.4648"/><rect fill="none" height="61.4648" rx="5" ry="5" style="stroke:#000000;stroke-width:1.5;" width="271" x="529" y="563"/><rect fill="#F1F1F1" height="61.4648" rx="5" ry="5" style="stroke:#F1F1F1;stroke-width:1.5;" width="271" x="529" y="642"/><text fill="#000000" font-family="sans-serif" font-size="14" font-weight="bold" lengthAdjust="spacing" textLength="78" x="534" y="657.5352">field_value</text><text fill="#000000" font-family="sans-serif" font-size="14" lengthAdjust="spacing" textLength="36" x="638" y="657.5352">1002</text><line style="stroke:#000000;stroke-width:1.0;" x1="633" x2="633" y1="642" y2="662.4883"/><line style="stroke:#000000;stroke-width:1.0;" x1="529" x2="800" y1="662.4883" y2="662.4883"/><text fill="#000000" font-family="sans-serif" font-size="14" font-weight="bold" lengthAdjust="spacing" textLength="74" x="534" y="678.0234">row_count</text><text fill="#000000" font-family="sans-serif" font-size="14" lengthAdjust="spacing" textLength="9" x="638" y="678.0234">1</text><line style="stroke:#000000;stroke-width:1.0;" x1="633" x2="633" y1="662.4883" y2="682.9766"/><line style="stroke:#000000;stroke-width:1.0;" x1="529" x2="800" y1="682.9766" y2="682.9766"/><text fill="#000000" font-family="sans-serif" font-size="14" font-weight="bold" lengthAdjust="spacing" textLength="94" x="534" y="698.5117">ratio_percent</text><text fill="#000000" font-family="sans-serif" font-size="14" lengthAdjust="spacing" textLength="157" x="638" y="698.5117">4.3478260869565215</text><line style="stroke:#000000;stroke-width:1.0;" x1="633" x2="633" y1="682.9766" y2="703.4648"/><rect fill="none" height="61.4648" rx="5" ry="5" style="stroke:#000000;stroke-width:1.5;" width="271" x="529" y="642"/><rect fill="#F1F1F1" height="61.4648" rx="5" ry="5" style="stroke:#F1F1F1;stroke-width:1.5;" width="271" x="529" y="721"/><text fill="#000000" font-family="sans-serif" font-size="14" font-weight="bold" lengthAdjust="spacing" textLength="78" x="534" y="736.5352">field_value</text><text fill="#000000" font-family="sans-serif" font-size="14" lengthAdjust="spacing" textLength="36" x="638" y="736.5352">1504</text><line style="stroke:#000000;stroke-width:1.0;" x1="633" x2="633" y1="721" y2="741.4883"/><line style="stroke:#000000;stroke-width:1.0;" x1="529" x2="800" y1="741.4883" y2="741.4883"/><text fill="#000000" font-family="sans-serif" font-size="14" font-weight="bold" lengthAdjust="spacing" textLength="74" x="534" y="757.0234">row_count</text><text fill="#000000" font-family="sans-serif" font-size="14" lengthAdjust="spacing" textLength="9" x="638" y="757.0234">1</text><line style="stroke:#000000;stroke-width:1.0;" x1="633" x2="633" y1="741.4883" y2="761.9766"/><line style="stroke:#000000;stroke-width:1.0;" x1="529" x2="800" y1="761.9766" y2="761.9766"/><text fill="#000000" font-family="sans-serif" font-size="14" font-weight="bold" lengthAdjust="spacing" textLength="94" x="534" y="777.5117">ratio_percent</text><text fill="#000000" font-family="sans-serif" font-size="14" lengthAdjust="spacing" textLength="157" x="638" y="777.5117">4.3478260869565215</text><line style="stroke:#000000;stroke-width:1.0;" x1="633" x2="633" y1="761.9766" y2="782.4648"/><rect fill="none" height="61.4648" rx="5" ry="5" style="stroke:#000000;stroke-width:1.5;" width="271" x="529" y="721"/><path d="M263,315.5 L276,315.5 C296.8273,315.5 293.8137,295.6507 312,285.5 C316.038,283.2462 320.2733,281.1247 324.6133,279.1338 " fill="none" style="stroke:#000000;stroke-width:1.0;stroke-dasharray:3.0,3.0;"/><path d="M325.8219,281.8909 L326.6812,278.2274 L323.4048,276.3766 L331.5062,276.1124 L325.8219,281.8909 " fill="#000000" style="stroke:#000000;stroke-width:1.0;"/><ellipse cx="263" cy="315.5" fill="#000000" rx="3" ry="3" style="stroke:#000000;stroke-width:1.0;"/><path d="M402.5,303.5 L415.5,303.5 C450.8613,303.5 468.6954,311.1847 493,285.5 C556.8819,217.9906 466.93,148.679 529,79.5 C530.0081,78.3765 531.0463,77.2844 532.1126,76.2231 " fill="none" style="stroke:#000000;stroke-width:1.0;stroke-dasharray:3.0,3.0;"/><path d="M534.1347,78.4455 L533.7795,74.7065 L530.0905,74.0006 L537.6688,71.1678 L534.1347,78.4455 " fill="#000000" style="stroke:#000000;stroke-width:1.0;"/><ellipse cx="402.5" cy="303.5" fill="#000000" rx="3" ry="3" style="stroke:#000000;stroke-width:1.0;"/><path d="M402.5,324.5 L415.5,324.5 C454.0599,324.5 468.4435,315.2295 493,285.5 C530.3625,240.267 487.6193,200.0887 529,158.5 C530.2233,157.2705 531.4828,156.0793 532.7755,154.925 " fill="none" style="stroke:#000000;stroke-width:1.0;stroke-dasharray:3.0,3.0;"/><path d="M534.7064,157.2737 L534.537,153.4769 L530.8447,152.5764 L538.6472,150.0978 L534.7064,157.2737 " fill="#000000" style="stroke:#000000;stroke-width:1.0;"/><ellipse cx="402.5" cy="324.5" fill="#000000" rx="3" ry="3" style="stroke:#000000;stroke-width:1.0;"/><path d="M402.5,344.5 L415.5,344.5 C458.79,344.5 462.4995,316.2205 493,285.5 C511.7883,266.5762 507.0554,252.6508 529,237.5 C531.3464,235.88 533.7599,234.3267 536.2295,232.8373 " fill="none" style="stroke:#000000;stroke-width:1.0;stroke-dasharray:3.0,3.0;"/><path d="M537.7476,235.5016 L538.2277,231.6987 L534.7115,230.173 L542.8903,229.0421 L537.7476,235.5016 " fill="#000000" style="stroke:#000000;stroke-width:1.0;"/><ellipse cx="402.5" cy="344.5" fill="#000000" rx="3" ry="3" style="stroke:#000000;stroke-width:1.0;"/><path d="M402.5,365.5 L415.5,365.5 C470.27,365.5 477.4402,335.9754 529,317.5 C535.5908,315.1383 542.3965,312.8044 549.2867,310.5217 " fill="none" style="stroke:#000000;stroke-width:1.0;stroke-dasharray:3.0,3.0;"/><path d="M550.2691,313.5231 L551.5378,309.7849 L548.3044,307.5203 L556.7903,308.0658 L550.2691,313.5231 " fill="#000000" style="stroke:#000000;stroke-width:1.0;"/><ellipse cx="402.5" cy="365.5" fill="#000000" rx="3" ry="3" style="stroke:#000000;stroke-width:1.0;"/><path d="M402.5,385.5 L415.5,385.5 C449.9249,385.5 486.8526,382.7204 521.4338,378.8823 " fill="none" style="stroke:#000000;stroke-width:1.0;stroke-dasharray:3.0,3.0;"/><path d="M521.7891,382.0038 L523.7749,378.6158 L521.0785,375.7608 L529.2376,377.9941 L521.7891,382.0038 " fill="#000000" style="stroke:#000000;stroke-width:1.0;"/><ellipse cx="402.5" cy="385.5" fill="#000000" rx="3" ry="3" style="stroke:#000000;stroke-width:1.0;"/><path d="M402.5,406.5 L415.5,406.5 C449.9249,406.5 486.8526,409.2796 521.4338,413.1177 " fill="none" style="stroke:#000000;stroke-width:1.0;stroke-dasharray:3.0,3.0;"/><path d="M521.0785,416.2392 L523.7749,413.3842 L521.7891,409.9962 L529.2376,414.0059 L521.0785,416.2392 " fill="#000000" style="stroke:#000000;stroke-width:1.0;"/><ellipse cx="402.5" cy="406.5" fill="#000000" rx="3" ry="3" style="stroke:#000000;stroke-width:1.0;"/><path d="M402.5,427.5 L415.5,427.5 C470.27,427.5 477.3775,457.2006 529,475.5 C534.867,477.5798 540.9057,479.6324 547.0234,481.6426 " fill="none" style="stroke:#000000;stroke-width:1.0;stroke-dasharray:3.0,3.0;"/><path d="M546.0876,484.5276 L549.1871,482.3445 L547.9592,478.7577 L554.2358,483.9821 L546.0876,484.5276 " fill="#000000" style="stroke:#000000;stroke-width:1.0;"/><ellipse cx="402.5" cy="427.5" fill="#000000" rx="3" ry="3" style="stroke:#000000;stroke-width:1.0;"/><path d="M402.5,447.5 L415.5,447.5 C484.8266,447.5 468.7882,520.1385 529,554.5 C532.1452,556.2949 535.3795,558.0127 538.682,559.6564 " fill="none" style="stroke:#000000;stroke-width:1.0;stroke-dasharray:3.0,3.0;"/><path d="M537.3737,562.4037 L540.7424,560.6377 L539.9903,556.9092 L545.55,562.9272 L537.3737,562.4037 " fill="#000000" style="stroke:#000000;stroke-width:1.0;"/><ellipse cx="402.5" cy="447.5" fill="#000000" rx="3" ry="3" style="stroke:#000000;stroke-width:1.0;"/><path d="M402.5,468.5 L415.5,468.5 C504.508,468.5 456.8044,581.4403 529,633.5 C531.0777,634.9982 533.2121,636.4392 535.395,637.825 " fill="none" style="stroke:#000000;stroke-width:1.0;stroke-dasharray:3.0,3.0;"/><path d="M533.7973,640.4995 L537.4009,639.0233 L536.9928,635.1505 L542.0812,641.8193 L533.7973,640.4995 " fill="#000000" style="stroke:#000000;stroke-width:1.0;"/><ellipse cx="402.5" cy="468.5" fill="#000000" rx="3" ry="3" style="stroke:#000000;stroke-width:1.0;"/><path d="M402.5,488.5 L415.5,488.5 C527.1062,488.5 443.0322,641.3278 529,712.5 C530.7177,713.922 532.4848,715.2923 534.2956,716.6125 " fill="none" style="stroke:#000000;stroke-width:1.0;stroke-dasharray:3.0,3.0;"/><path d="M532.5759,719.1394 L536.1908,717.9023 L536.0153,714.0857 L540.6127,720.9118 L532.5759,719.1394 " fill="#000000" style="stroke:#000000;stroke-width:1.0;"/><ellipse cx="402.5" cy="488.5" fill="#000000" rx="3" ry="3" style="stroke:#000000;stroke-width:1.0;"/><path d="M263,336.5 L276,336.5 C318.1629,336.5 361.1866,364.4055 384.2874,382.1547 " fill="none" style="stroke:#000000;stroke-width:1.0;stroke-dasharray:3.0,3.0;"/><path d="M382.4053,384.5427 L386.0784,383.5663 L386.1695,379.7667 L390.2574,386.86 L382.4053,384.5427 " fill="#000000" style="stroke:#000000;stroke-width:1.0;"/><ellipse cx="263" cy="336.5" fill="#000000" rx="3" ry="3" style="stroke:#000000;stroke-width:1.0;"/><!--MD5=[3bd530d38d40db2c8b9e5e3f8adc5079]
@startjson
{
    "field1": "employeeNumber",
    "combination": "employeeNumber",
    "null_distribution": {
        "total_null_rows": 0,
        "total_not_null_rows": 23
    },
    "data_distribution": [
        {
            "field_value": "1401",
            "row_count": 1,
            "ratio_percent": 4.3478260869565215
        },
        {
            "field_value": "1216",
            "row_count": 1,
            "ratio_percent": 4.3478260869565215
        },
        {
            "field_value": "1102",
            "row_count": 1,
            "ratio_percent": 4.3478260869565215
        },
        {
            "field_value": "1621",
            "row_count": 1,
            "ratio_percent": 4.3478260869565215
        },
        {
            "field_value": "1501",
            "row_count": 1,
            "ratio_percent": 4.3478260869565215
        },
        {
            "field_value": "1286",
            "row_count": 1,
            "ratio_percent": 4.3478260869565215
        },
        {
            "field_value": "1143",
            "row_count": 1,
            "ratio_percent": 4.3478260869565215
        },
        {
            "field_value": "1625",
            "row_count": 1,
            "ratio_percent": 4.3478260869565215
        },
        {
            "field_value": "1002",
            "row_count": 1,
            "ratio_percent": 4.3478260869565215
        },
        {
            "field_value": "1504",
            "row_count": 1,
            "ratio_percent": 4.3478260869565215
        }
    ]
}
@endjson

PlantUML version 1.2022.5(Sat Apr 30 06:55:52 EDT 2022)
(GPL source distribution)
Java Runtime: OpenJDK Runtime Environment
JVM: OpenJDK 64-Bit Server VM
Default Encoding: UTF-8
Language: en
Country: CA
--></g></svg>