<?xml version="1.0" encoding="UTF-8" standalone="no"?><svg xmlns="http://www.w3.org/2000/svg" xmlns:xlink="http://www.w3.org/1999/xlink" contentStyleType="text/css" height="794px" preserveAspectRatio="none" style="width:901px;height:794px;background:#FFFFFF;" version="1.1" viewBox="0 0 901 794" width="901px" zoomAndPan="magnify"><defs/><g><rect fill="#F1F1F1" height="81.9531" rx="5" ry="5" style="stroke:#F1F1F1;stroke-width:1.5;" width="237" x="10" y="264.5"/><text fill="#000000" font-family="sans-serif" font-size="14" font-weight="bold" lengthAdjust="spacing" textLength="42" x="15" y="280.0352">field1</text><text fill="#000000" font-family="sans-serif" font-size="14" lengthAdjust="spacing" textLength="93" x="149" y="280.0352">productName</text><line style="stroke:#000000;stroke-width:1.0;" x1="144" x2="144" y1="264.5" y2="284.9883"/><line style="stroke:#000000;stroke-width:1.0;" x1="10" x2="247" y1="284.9883" y2="284.9883"/><text fill="#000000" font-family="sans-serif" font-size="14" font-weight="bold" lengthAdjust="spacing" textLength="90" x="15" y="300.5234">combination</text><text fill="#000000" font-family="sans-serif" font-size="14" lengthAdjust="spacing" textLength="93" x="149" y="300.5234">productName</text><line style="stroke:#000000;stroke-width:1.0;" x1="144" x2="144" y1="284.9883" y2="305.4766"/><line style="stroke:#000000;stroke-width:1.0;" x1="10" x2="247" y1="305.4766" y2="305.4766"/><text fill="#000000" font-family="sans-serif" font-size="14" font-weight="bold" lengthAdjust="spacing" textLength="121" x="15" y="321.0117">null_distribution</text><text fill="#000000" font-family="sans-serif" font-size="14" lengthAdjust="spacing" textLength="12" x="149" y="321.0117">   </text><line style="stroke:#000000;stroke-width:1.0;" x1="144" x2="144" y1="305.4766" y2="325.9648"/><line style="stroke:#000000;stroke-width:1.0;" x1="10" x2="247" y1="325.9648" y2="325.9648"/><text fill="#000000" font-family="sans-serif" font-size="14" font-weight="bold" lengthAdjust="spacing" textLength="124" x="15" y="341.5">data_distribution</text><text fill="#000000" font-family="sans-serif" font-size="14" lengthAdjust="spacing" textLength="12" x="149" y="341.5">   </text><line style="stroke:#000000;stroke-width:1.0;" x1="144" x2="144" y1="325.9648" y2="346.4531"/><rect fill="none" height="81.9531" rx="5" ry="5" style="stroke:#000000;stroke-width:1.5;" width="237" x="10" y="264.5"/><rect fill="#F1F1F1" height="40.9766" rx="5" ry="5" style="stroke:#F1F1F1;stroke-width:1.5;" width="189" x="284" y="235"/><text fill="#000000" font-family="sans-serif" font-size="14" font-weight="bold" lengthAdjust="spacing" textLength="111" x="289" y="250.5352">total_null_rows</text><text fill="#000000" font-family="sans-serif" font-size="14" lengthAdjust="spacing" textLength="9" x="441" y="250.5352">0</text><line style="stroke:#000000;stroke-width:1.0;" x1="436" x2="436" y1="235" y2="255.4883"/><line style="stroke:#000000;stroke-width:1.0;" x1="284" x2="473" y1="255.4883" y2="255.4883"/><text fill="#000000" font-family="sans-serif" font-size="14" font-weight="bold" lengthAdjust="spacing" textLength="142" x="289" y="271.0234">total_not_null_rows</text><text fill="#000000" font-family="sans-serif" font-size="14" lengthAdjust="spacing" textLength="27" x="441" y="271.0234">110</text><line style="stroke:#000000;stroke-width:1.0;" x1="436" x2="436" y1="255.4883" y2="275.9766"/><rect fill="none" height="40.9766" rx="5" ry="5" style="stroke:#000000;stroke-width:1.5;" width="189" x="284" y="235"/><rect fill="#F1F1F1" height="204.8828" rx="5" ry="5" style="stroke:#F1F1F1;stroke-width:1.5;" width="22" x="366.5" y="294"/><text fill="#000000" font-family="sans-serif" font-size="14" lengthAdjust="spacing" textLength="12" x="371.5" y="309.5352">   </text><line style="stroke:#000000;stroke-width:1.0;" x1="366.5" x2="388.5" y1="314.4883" y2="314.4883"/><text fill="#000000" font-family="sans-serif" font-size="14" lengthAdjust="spacing" textLength="12" x="371.5" y="330.0234">   </text><line style="stroke:#000000;stroke-width:1.0;" x1="366.5" x2="388.5" y1="334.9766" y2="334.9766"/><text fill="#000000" font-family="sans-serif" font-size="14" lengthAdjust="spacing" textLength="12" x="371.5" y="350.5117">   </text><line style="stroke:#000000;stroke-width:1.0;" x1="366.5" x2="388.5" y1="355.4648" y2="355.4648"/><text fill="#000000" font-family="sans-serif" font-size="14" lengthAdjust="spacing" textLength="12" x="371.5" y="371">   </text><line style="stroke:#000000;stroke-width:1.0;" x1="366.5" x2="388.5" y1="375.9531" y2="375.9531"/><text fill="#000000" font-family="sans-serif" font-size="14" lengthAdjust="spacing" textLength="12" x="371.5" y="391.4883">   </text><line style="stroke:#000000;stroke-width:1.0;" x1="366.5" x2="388.5" y1="396.4414" y2="396.4414"/><text fill="#000000" font-family="sans-serif" font-size="14" lengthAdjust="spacing" textLength="12" x="371.5" y="411.9766">   </text><line style="stroke:#000000;stroke-width:1.0;" x1="366.5" x2="388.5" y1="416.9297" y2="416.9297"/><text fill="#000000" font-family="sans-serif" font-size="14" lengthAdjust="spacing" textLength="12" x="371.5" y="432.4648">   </text><line style="stroke:#000000;stroke-width:1.0;" x1="366.5" x2="388.5" y1="437.418" y2="437.418"/><text fill="#000000" font-family="sans-serif" font-size="14" lengthAdjust="spacing" textLength="12" x="371.5" y="452.9531">   </text><line style="stroke:#000000;stroke-width:1.0;" x1="366.5" x2="388.5" y1="457.9063" y2="457.9063"/><text fill="#000000" font-family="sans-serif" font-size="14" lengthAdjust="spacing" textLength="12" x="371.5" y="473.4414">   </text><line style="stroke:#000000;stroke-width:1.0;" x1="366.5" x2="388.5" y1="478.3945" y2="478.3945"/><text fill="#000000" font-family="sans-serif" font-size="14" lengthAdjust="spacing" textLength="12" x="371.5" y="493.9297">   </text><rect fill="none" height="204.8828" rx="5" ry="5" style="stroke:#000000;stroke-width:1.5;" width="22" x="366.5" y="294"/><rect fill="#F1F1F1" height="61.4648" rx="5" ry="5" style="stroke:#F1F1F1;stroke-width:1.5;" width="271" x="564" y="10"/><text fill="#000000" font-family="sans-serif" font-size="14" font-weight="bold" lengthAdjust="spacing" textLength="78" x="569" y="25.5352">field_value</text><text fill="#000000" font-family="sans-serif" font-size="14" lengthAdjust="spacing" textLength="121" x="673" y="25.5352">1995 Honda Civic</text><line style="stroke:#000000;stroke-width:1.0;" x1="668" x2="668" y1="10" y2="30.4883"/><line style="stroke:#000000;stroke-width:1.0;" x1="564" x2="835" y1="30.4883" y2="30.4883"/><text fill="#000000" font-family="sans-serif" font-size="14" font-weight="bold" lengthAdjust="spacing" textLength="74" x="569" y="46.0234">row_count</text><text fill="#000000" font-family="sans-serif" font-size="14" lengthAdjust="spacing" textLength="9" x="673" y="46.0234">1</text><line style="stroke:#000000;stroke-width:1.0;" x1="668" x2="668" y1="30.4883" y2="50.9766"/><line style="stroke:#000000;stroke-width:1.0;" x1="564" x2="835" y1="50.9766" y2="50.9766"/><text fill="#000000" font-family="sans-serif" font-size="14" font-weight="bold" lengthAdjust="spacing" textLength="94" x="569" y="66.5117">ratio_percent</text><text fill="#000000" font-family="sans-serif" font-size="14" lengthAdjust="spacing" textLength="157" x="673" y="66.5117">0.9090909090909091</text><line style="stroke:#000000;stroke-width:1.0;" x1="668" x2="668" y1="50.9766" y2="71.4648"/><rect fill="none" height="61.4648" rx="5" ry="5" style="stroke:#000000;stroke-width:1.5;" width="271" x="564" y="10"/><rect fill="#F1F1F1" height="61.4648" rx="5" ry="5" style="stroke:#F1F1F1;stroke-width:1.5;" width="271" x="564" y="89"/><text fill="#000000" font-family="sans-serif" font-size="14" font-weight="bold" lengthAdjust="spacing" textLength="78" x="569" y="104.5352">field_value</text><text fill="#000000" font-family="sans-serif" font-size="14" lengthAdjust="spacing" textLength="145" x="673" y="104.5352">1970 Dodge Coronet</text><line style="stroke:#000000;stroke-width:1.0;" x1="668" x2="668" y1="89" y2="109.4883"/><line style="stroke:#000000;stroke-width:1.0;" x1="564" x2="835" y1="109.4883" y2="109.4883"/><text fill="#000000" font-family="sans-serif" font-size="14" font-weight="bold" lengthAdjust="spacing" textLength="74" x="569" y="125.0234">row_count</text><text fill="#000000" font-family="sans-serif" font-size="14" lengthAdjust="spacing" textLength="9" x="673" y="125.0234">1</text><line style="stroke:#000000;stroke-width:1.0;" x1="668" x2="668" y1="109.4883" y2="129.9766"/><line style="stroke:#000000;stroke-width:1.0;" x1="564" x2="835" y1="129.9766" y2="129.9766"/><text fill="#000000" font-family="sans-serif" font-size="14" font-weight="bold" lengthAdjust="spacing" textLength="94" x="569" y="145.5117">ratio_percent</text><text fill="#000000" font-family="sans-serif" font-size="14" lengthAdjust="spacing" textLength="157" x="673" y="145.5117">0.9090909090909091</text><line style="stroke:#000000;stroke-width:1.0;" x1="668" x2="668" y1="129.9766" y2="150.4648"/><rect fill="none" height="61.4648" rx="5" ry="5" style="stroke:#000000;stroke-width:1.5;" width="271" x="564" y="89"/><rect fill="#F1F1F1" height="61.4648" rx="5" ry="5" style="stroke:#F1F1F1;stroke-width:1.5;" width="379" x="510" y="168"/><text fill="#000000" font-family="sans-serif" font-size="14" font-weight="bold" lengthAdjust="spacing" textLength="78" x="515" y="183.5352">field_value</text><text fill="#000000" font-family="sans-serif" font-size="14" lengthAdjust="spacing" textLength="265" x="619" y="183.5352">1950's Chicago Surface Lines Streetcar</text><line style="stroke:#000000;stroke-width:1.0;" x1="614" x2="614" y1="168" y2="188.4883"/><line style="stroke:#000000;stroke-width:1.0;" x1="510" x2="889" y1="188.4883" y2="188.4883"/><text fill="#000000" font-family="sans-serif" font-size="14" font-weight="bold" lengthAdjust="spacing" textLength="74" x="515" y="204.0234">row_count</text><text fill="#000000" font-family="sans-serif" font-size="14" lengthAdjust="spacing" textLength="9" x="619" y="204.0234">1</text><line style="stroke:#000000;stroke-width:1.0;" x1="614" x2="614" y1="188.4883" y2="208.9766"/><line style="stroke:#000000;stroke-width:1.0;" x1="510" x2="889" y1="208.9766" y2="208.9766"/><text fill="#000000" font-family="sans-serif" font-size="14" font-weight="bold" lengthAdjust="spacing" textLength="94" x="515" y="224.5117">ratio_percent</text><text fill="#000000" font-family="sans-serif" font-size="14" lengthAdjust="spacing" textLength="157" x="619" y="224.5117">0.9090909090909091</text><line style="stroke:#000000;stroke-width:1.0;" x1="614" x2="614" y1="208.9766" y2="229.4648"/><rect fill="none" height="61.4648" rx="5" ry="5" style="stroke:#000000;stroke-width:1.5;" width="379" x="510" y="168"/><rect fill="#F1F1F1" height="61.4648" rx="5" ry="5" style="stroke:#F1F1F1;stroke-width:1.5;" width="277" x="561" y="247"/><text fill="#000000" font-family="sans-serif" font-size="14" font-weight="bold" lengthAdjust="spacing" textLength="78" x="566" y="262.5352">field_value</text><text fill="#000000" font-family="sans-serif" font-size="14" lengthAdjust="spacing" textLength="163" x="670" y="262.5352">1962 LanciaA Delta 16V</text><line style="stroke:#000000;stroke-width:1.0;" x1="665" x2="665" y1="247" y2="267.4883"/><line style="stroke:#000000;stroke-width:1.0;" x1="561" x2="838" y1="267.4883" y2="267.4883"/><text fill="#000000" font-family="sans-serif" font-size="14" font-weight="bold" lengthAdjust="spacing" textLength="74" x="566" y="283.0234">row_count</text><text fill="#000000" font-family="sans-serif" font-size="14" lengthAdjust="spacing" textLength="9" x="670" y="283.0234">1</text><line style="stroke:#000000;stroke-width:1.0;" x1="665" x2="665" y1="267.4883" y2="287.9766"/><line style="stroke:#000000;stroke-width:1.0;" x1="561" x2="838" y1="287.9766" y2="287.9766"/><text fill="#000000" font-family="sans-serif" font-size="14" font-weight="bold" lengthAdjust="spacing" textLength="94" x="566" y="303.5117">ratio_percent</text><text fill="#000000" font-family="sans-serif" font-size="14" lengthAdjust="spacing" textLength="157" x="670" y="303.5117">0.9090909090909091</text><line style="stroke:#000000;stroke-width:1.0;" x1="665" x2="665" y1="287.9766" y2="308.4648"/><rect fill="none" height="61.4648" rx="5" ry="5" style="stroke:#000000;stroke-width:1.5;" width="277" x="561" y="247"/><rect fill="#F1F1F1" height="61.4648" rx="5" ry="5" style="stroke:#F1F1F1;stroke-width:1.5;" width="367" x="516" y="326"/><text fill="#000000" font-family="sans-serif" font-size="14" font-weight="bold" lengthAdjust="spacing" textLength="78" x="521" y="341.5352">field_value</text><text fill="#000000" font-family="sans-serif" font-size="14" lengthAdjust="spacing" textLength="253" x="625" y="341.5352">18th Century Vintage Horse Carriage</text><line style="stroke:#000000;stroke-width:1.0;" x1="620" x2="620" y1="326" y2="346.4883"/><line style="stroke:#000000;stroke-width:1.0;" x1="516" x2="883" y1="346.4883" y2="346.4883"/><text fill="#000000" font-family="sans-serif" font-size="14" font-weight="bold" lengthAdjust="spacing" textLength="74" x="521" y="362.0234">row_count</text><text fill="#000000" font-family="sans-serif" font-size="14" lengthAdjust="spacing" textLength="9" x="625" y="362.0234">1</text><line style="stroke:#000000;stroke-width:1.0;" x1="620" x2="620" y1="346.4883" y2="366.9766"/><line style="stroke:#000000;stroke-width:1.0;" x1="516" x2="883" y1="366.9766" y2="366.9766"/><text fill="#000000" font-family="sans-serif" font-size="14" font-weight="bold" lengthAdjust="spacing" textLength="94" x="521" y="382.5117">ratio_percent</text><text fill="#000000" font-family="sans-serif" font-size="14" lengthAdjust="spacing" textLength="157" x="625" y="382.5117">0.9090909090909091</text><line style="stroke:#000000;stroke-width:1.0;" x1="620" x2="620" y1="366.9766" y2="387.4648"/><rect fill="none" height="61.4648" rx="5" ry="5" style="stroke:#000000;stroke-width:1.5;" width="367" x="516" y="326"/><rect fill="#F1F1F1" height="61.4648" rx="5" ry="5" style="stroke:#F1F1F1;stroke-width:1.5;" width="271" x="564" y="405"/><text fill="#000000" font-family="sans-serif" font-size="14" font-weight="bold" lengthAdjust="spacing" textLength="78" x="569" y="420.5352">field_value</text><text fill="#000000" font-family="sans-serif" font-size="14" lengthAdjust="spacing" textLength="136" x="673" y="420.5352">1952 Citroen-15CV</text><line style="stroke:#000000;stroke-width:1.0;" x1="668" x2="668" y1="405" y2="425.4883"/><line style="stroke:#000000;stroke-width:1.0;" x1="564" x2="835" y1="425.4883" y2="425.4883"/><text fill="#000000" font-family="sans-serif" font-size="14" font-weight="bold" lengthAdjust="spacing" textLength="74" x="569" y="441.0234">row_count</text><text fill="#000000" font-family="sans-serif" font-size="14" lengthAdjust="spacing" textLength="9" x="673" y="441.0234">1</text><line style="stroke:#000000;stroke-width:1.0;" x1="668" x2="668" y1="425.4883" y2="445.9766"/><line style="stroke:#000000;stroke-width:1.0;" x1="564" x2="835" y1="445.9766" y2="445.9766"/><text fill="#000000" font-family="sans-serif" font-size="14" font-weight="bold" lengthAdjust="spacing" textLength="94" x="569" y="461.5117">ratio_percent</text><text fill="#000000" font-family="sans-serif" font-size="14" lengthAdjust="spacing" textLength="157" x="673" y="461.5117">0.9090909090909091</text><line style="stroke:#000000;stroke-width:1.0;" x1="668" x2="668" y1="445.9766" y2="466.4648"/><rect fill="none" height="61.4648" rx="5" ry="5" style="stroke:#000000;stroke-width:1.5;" width="271" x="564" y="405"/><rect fill="#F1F1F1" height="61.4648" rx="5" ry="5" style="stroke:#F1F1F1;stroke-width:1.5;" width="293" x="553" y="484"/><text fill="#000000" font-family="sans-serif" font-size="14" font-weight="bold" lengthAdjust="spacing" textLength="78" x="558" y="499.5352">field_value</text><text fill="#000000" font-family="sans-serif" font-size="14" lengthAdjust="spacing" textLength="179" x="662" y="499.5352">The USS Constitution Ship</text><line style="stroke:#000000;stroke-width:1.0;" x1="657" x2="657" y1="484" y2="504.4883"/><line style="stroke:#000000;stroke-width:1.0;" x1="553" x2="846" y1="504.4883" y2="504.4883"/><text fill="#000000" font-family="sans-serif" font-size="14" font-weight="bold" lengthAdjust="spacing" textLength="74" x="558" y="520.0234">row_count</text><text fill="#000000" font-family="sans-serif" font-size="14" lengthAdjust="spacing" textLength="9" x="662" y="520.0234">1</text><line style="stroke:#000000;stroke-width:1.0;" x1="657" x2="657" y1="504.4883" y2="524.9766"/><line style="stroke:#000000;stroke-width:1.0;" x1="553" x2="846" y1="524.9766" y2="524.9766"/><text fill="#000000" font-family="sans-serif" font-size="14" font-weight="bold" lengthAdjust="spacing" textLength="94" x="558" y="540.5117">ratio_percent</text><text fill="#000000" font-family="sans-serif" font-size="14" lengthAdjust="spacing" textLength="157" x="662" y="540.5117">0.9090909090909091</text><line style="stroke:#000000;stroke-width:1.0;" x1="657" x2="657" y1="524.9766" y2="545.4648"/><rect fill="none" height="61.4648" rx="5" ry="5" style="stroke:#000000;stroke-width:1.5;" width="293" x="553" y="484"/><rect fill="#F1F1F1" height="61.4648" rx="5" ry="5" style="stroke:#F1F1F1;stroke-width:1.5;" width="271" x="564" y="563"/><text fill="#000000" font-family="sans-serif" font-size="14" font-weight="bold" lengthAdjust="spacing" textLength="78" x="569" y="578.5352">field_value</text><text fill="#000000" font-family="sans-serif" font-size="14" lengthAdjust="spacing" textLength="140" x="673" y="578.5352">1937 Lincoln Berline</text><line style="stroke:#000000;stroke-width:1.0;" x1="668" x2="668" y1="563" y2="583.4883"/><line style="stroke:#000000;stroke-width:1.0;" x1="564" x2="835" y1="583.4883" y2="583.4883"/><text fill="#000000" font-family="sans-serif" font-size="14" font-weight="bold" lengthAdjust="spacing" textLength="74" x="569" y="599.0234">row_count</text><text fill="#000000" font-family="sans-serif" font-size="14" lengthAdjust="spacing" textLength="9" x="673" y="599.0234">1</text><line style="stroke:#000000;stroke-width:1.0;" x1="668" x2="668" y1="583.4883" y2="603.9766"/><line style="stroke:#000000;stroke-width:1.0;" x1="564" x2="835" y1="603.9766" y2="603.9766"/><text fill="#000000" font-family="sans-serif" font-size="14" font-weight="bold" lengthAdjust="spacing" textLength="94" x="569" y="619.5117">ratio_percent</text><text fill="#000000" font-family="sans-serif" font-size="14" lengthAdjust="spacing" textLength="157" x="673" y="619.5117">0.9090909090909091</text><line style="stroke:#000000;stroke-width:1.0;" x1="668" x2="668" y1="603.9766" y2="624.4648"/><rect fill="none" height="61.4648" rx="5" ry="5" style="stroke:#000000;stroke-width:1.5;" width="271" x="564" y="563"/><rect fill="#F1F1F1" height="61.4648" rx="5" ry="5" style="stroke:#F1F1F1;stroke-width:1.5;" width="271" x="564" y="642"/><text fill="#000000" font-family="sans-serif" font-size="14" font-weight="bold" lengthAdjust="spacing" textLength="78" x="569" y="657.5352">field_value</text><text fill="#000000" font-family="sans-serif" font-size="14" lengthAdjust="spacing" textLength="147" x="673" y="657.5352">1904 Buick Runabout</text><line style="stroke:#000000;stroke-width:1.0;" x1="668" x2="668" y1="642" y2="662.4883"/><line style="stroke:#000000;stroke-width:1.0;" x1="564" x2="835" y1="662.4883" y2="662.4883"/><text fill="#000000" font-family="sans-serif" font-size="14" font-weight="bold" lengthAdjust="spacing" textLength="74" x="569" y="678.0234">row_count</text><text fill="#000000" font-family="sans-serif" font-size="14" lengthAdjust="spacing" textLength="9" x="673" y="678.0234">1</text><line style="stroke:#000000;stroke-width:1.0;" x1="668" x2="668" y1="662.4883" y2="682.9766"/><line style="stroke:#000000;stroke-width:1.0;" x1="564" x2="835" y1="682.9766" y2="682.9766"/><text fill="#000000" font-family="sans-serif" font-size="14" font-weight="bold" lengthAdjust="spacing" textLength="94" x="569" y="698.5117">ratio_percent</text><text fill="#000000" font-family="sans-serif" font-size="14" lengthAdjust="spacing" textLength="157" x="673" y="698.5117">0.9090909090909091</text><line style="stroke:#000000;stroke-width:1.0;" x1="668" x2="668" y1="682.9766" y2="703.4648"/><rect fill="none" height="61.4648" rx="5" ry="5" style="stroke:#000000;stroke-width:1.5;" width="271" x="564" y="642"/><rect fill="#F1F1F1" height="61.4648" rx="5" ry="5" style="stroke:#F1F1F1;stroke-width:1.5;" width="281" x="559" y="721"/><text fill="#000000" font-family="sans-serif" font-size="14" font-weight="bold" lengthAdjust="spacing" textLength="78" x="564" y="736.5352">field_value</text><text fill="#000000" font-family="sans-serif" font-size="14" lengthAdjust="spacing" textLength="167" x="668" y="736.5352">1900s Vintage Tri-Plane</text><line style="stroke:#000000;stroke-width:1.0;" x1="663" x2="663" y1="721" y2="741.4883"/><line style="stroke:#000000;stroke-width:1.0;" x1="559" x2="840" y1="741.4883" y2="741.4883"/><text fill="#000000" font-family="sans-serif" font-size="14" font-weight="bold" lengthAdjust="spacing" textLength="74" x="564" y="757.0234">row_count</text><text fill="#000000" font-family="sans-serif" font-size="14" lengthAdjust="spacing" textLength="9" x="668" y="757.0234">1</text><line style="stroke:#000000;stroke-width:1.0;" x1="663" x2="663" y1="741.4883" y2="761.9766"/><line style="stroke:#000000;stroke-width:1.0;" x1="559" x2="840" y1="761.9766" y2="761.9766"/><text fill="#000000" font-family="sans-serif" font-size="14" font-weight="bold" lengthAdjust="spacing" textLength="94" x="564" y="777.5117">ratio_percent</text><text fill="#000000" font-family="sans-serif" font-size="14" lengthAdjust="spacing" textLength="157" x="668" y="777.5117">0.9090909090909091</text><line style="stroke:#000000;stroke-width:1.0;" x1="663" x2="663" y1="761.9766" y2="782.4648"/><rect fill="none" height="61.4648" rx="5" ry="5" style="stroke:#000000;stroke-width:1.5;" width="281" x="559" y="721"/><path d="M235,315.5 L248,315.5 C268.8273,315.5 265.7406,295.5187 284,285.5 C288.1394,283.2288 292.4771,281.0988 296.9224,279.1061 " fill="none" style="stroke:#000000;stroke-width:1.0;stroke-dasharray:3.0,3.0;"/><path d="M298.1301,281.9305 L299.0407,278.2004 L295.7148,276.2817 L303.9835,276.0871 L298.1301,281.9305 " fill="#000000" style="stroke:#000000;stroke-width:1.0;"/><ellipse cx="235" cy="315.5" fill="#000000" rx="3" ry="3" style="stroke:#000000;stroke-width:1.0;"/><path d="M379,303.5 L392,303.5 C429.3122,303.5 448.1906,312.4458 474,285.5 C538.2901,218.3792 445.2886,146.2147 510,79.5 C523.0768,66.0184 539.4893,56.5711 557.1497,50.0376 " fill="none" style="stroke:#000000;stroke-width:1.0;stroke-dasharray:3.0,3.0;"/><path d="M558.1299,52.8752 L559.2779,49.3025 L556.1695,47.2 L564.2437,47.5872 L558.1299,52.8752 " fill="#000000" style="stroke:#000000;stroke-width:1.0;"/><ellipse cx="379" cy="303.5" fill="#000000" rx="3" ry="3" style="stroke:#000000;stroke-width:1.0;"/><path d="M379,324.5 L392,324.5 C432.3564,324.5 447.9543,316.3264 474,285.5 C511.864,240.686 467.0345,198.4492 510,158.5 C523.311,146.1235 539.4679,137.2411 556.6669,130.9277 " fill="none" style="stroke:#000000;stroke-width:1.0;stroke-dasharray:3.0,3.0;"/><path d="M557.6873,133.8995 L558.8957,130.1624 L555.6464,127.9559 L564.0964,128.3766 L557.6873,133.8995 " fill="#000000" style="stroke:#000000;stroke-width:1.0;"/><ellipse cx="379" cy="324.5" fill="#000000" rx="3" ry="3" style="stroke:#000000;stroke-width:1.0;"/><path d="M379,344.5 L392,344.5 C436.8977,344.5 441.9398,316.9316 474,285.5 C493.0419,266.8314 487.4833,251.7866 510,237.5 C512.7052,235.7836 515.472,234.1409 518.2921,232.569 " fill="none" style="stroke:#000000;stroke-width:1.0;stroke-dasharray:3.0,3.0;"/><path d="M519.7085,235.2381 L520.2939,231.5067 L516.8757,229.8999 L524.9649,229.028 L519.7085,235.2381 " fill="#000000" style="stroke:#000000;stroke-width:1.0;"/><ellipse cx="379" cy="344.5" fill="#000000" rx="3" ry="3" style="stroke:#000000;stroke-width:1.0;"/><path d="M379,365.5 L392,365.5 C448.6174,365.5 455.8688,334.0936 510,317.5 C524.1919,313.1495 539.1257,309.1078 554.1206,305.398 " fill="none" style="stroke:#000000;stroke-width:1.0;stroke-dasharray:3.0,3.0;"/><path d="M554.8383,308.3433 L556.3295,304.8597 L553.4028,302.4528 L561.4836,303.6036 L554.8383,308.3433 " fill="#000000" style="stroke:#000000;stroke-width:1.0;"/><ellipse cx="379" cy="365.5" fill="#000000" rx="3" ry="3" style="stroke:#000000;stroke-width:1.0;"/><path d="M379,385.5 L392,385.5 C429.7679,385.5 470.034,383.2977 508.5532,380.1069 " fill="none" style="stroke:#000000;stroke-width:1.0;stroke-dasharray:3.0,3.0;"/><path d="M508.8136,383.1786 L510.857,379.9116 L508.2928,377.0352 L516.2325,379.4559 L508.8136,383.1786 " fill="#000000" style="stroke:#000000;stroke-width:1.0;"/><ellipse cx="379" cy="385.5" fill="#000000" rx="3" ry="3" style="stroke:#000000;stroke-width:1.0;"/><path d="M379,406.5 L392,406.5 C445.9604,406.5 505.0203,410.9955 556.7993,416.4466 " fill="none" style="stroke:#000000;stroke-width:1.0;stroke-dasharray:3.0,3.0;"/><path d="M556.475,419.4806 L559.0749,416.6898 L557.1236,413.4125 L564.3846,417.2573 L556.475,419.4806 " fill="#000000" style="stroke:#000000;stroke-width:1.0;"/><ellipse cx="379" cy="406.5" fill="#000000" rx="3" ry="3" style="stroke:#000000;stroke-width:1.0;"/><path d="M379,427.5 L392,427.5 C448.6174,427.5 455.8269,459.0437 510,475.5 C521.5482,479.008 533.5887,482.301 545.7544,485.37 " fill="none" style="stroke:#000000;stroke-width:1.0;stroke-dasharray:3.0,3.0;"/><path d="M545.0016,488.4051 L548.0307,485.9346 L546.5071,482.3349 L553.3421,487.2519 L545.0016,488.4051 " fill="#000000" style="stroke:#000000;stroke-width:1.0;"/><ellipse cx="379" cy="427.5" fill="#000000" rx="3" ry="3" style="stroke:#000000;stroke-width:1.0;"/><path d="M379,447.5 L392,447.5 C462.7951,447.5 446.882,522.4366 510,554.5 C524.6354,561.9347 540.5919,567.9521 556.8275,572.8224 " fill="none" style="stroke:#000000;stroke-width:1.0;stroke-dasharray:3.0,3.0;"/><path d="M555.9643,575.8126 L559.0702,573.4698 L557.6907,569.8322 L564.303,574.9804 L555.9643,575.8126 " fill="#000000" style="stroke:#000000;stroke-width:1.0;"/><ellipse cx="379" cy="447.5" fill="#000000" rx="3" ry="3" style="stroke:#000000;stroke-width:1.0;"/><path d="M379,468.5 L392,468.5 C482.1565,468.5 434.4264,584.3387 510,633.5 C524.3758,642.8516 540.5589,650.0227 557.252,655.5114 " fill="none" style="stroke:#000000;stroke-width:1.0;stroke-dasharray:3.0,3.0;"/><path d="M556.3517,658.384 L559.4064,656.1866 L558.1523,652.6387 L564.4336,657.7621 L556.3517,658.384 " fill="#000000" style="stroke:#000000;stroke-width:1.0;"/><ellipse cx="379" cy="468.5" fill="#000000" rx="3" ry="3" style="stroke:#000000;stroke-width:1.0;"/><path d="M379,488.5 L392,488.5 C504.5243,488.5 420.063,644.8756 510,712.5 C522.542,721.9304 536.8209,729.2156 551.7814,734.8248 " fill="none" style="stroke:#000000;stroke-width:1.0;stroke-dasharray:3.0,3.0;"/><path d="M550.733,737.7826 L553.9998,735.6111 L552.8299,731.867 L559.1759,737.4458 L550.733,737.7826 " fill="#000000" style="stroke:#000000;stroke-width:1.0;"/><ellipse cx="379" cy="488.5" fill="#000000" rx="3" ry="3" style="stroke:#000000;stroke-width:1.0;"/><path d="M235,336.5 L248,336.5 C291.8518,336.5 337.0003,364.993 360.8339,382.7089 " fill="none" style="stroke:#000000;stroke-width:1.0;stroke-dasharray:3.0,3.0;"/><path d="M358.9625,385.1642 L362.6753,384.1124 L362.7052,380.2536 L366.9721,387.3873 L358.9625,385.1642 " fill="#000000" style="stroke:#000000;stroke-width:1.0;"/><ellipse cx="235" cy="336.5" fill="#000000" rx="3" ry="3" style="stroke:#000000;stroke-width:1.0;"/><!--MD5=[a7d7f34c1dd9a791a5249de3d8db21af]
@startjson
{
    "field1": "productName",
    "combination": "productName",
    "null_distribution": {
        "total_null_rows": 0,
        "total_not_null_rows": 110
    },
    "data_distribution": [
        {
            "field_value": "1995 Honda Civic",
            "row_count": 1,
            "ratio_percent": 0.9090909090909091
        },
        {
            "field_value": "1970 Dodge Coronet",
            "row_count": 1,
            "ratio_percent": 0.9090909090909091
        },
        {
            "field_value": "1950's Chicago Surface Lines Streetcar",
            "row_count": 1,
            "ratio_percent": 0.9090909090909091
        },
        {
            "field_value": "1962 LanciaA Delta 16V",
            "row_count": 1,
            "ratio_percent": 0.9090909090909091
        },
        {
            "field_value": "18th Century Vintage Horse Carriage",
            "row_count": 1,
            "ratio_percent": 0.9090909090909091
        },
        {
            "field_value": "1952 Citroen-15CV",
            "row_count": 1,
            "ratio_percent": 0.9090909090909091
        },
        {
            "field_value": "The USS Constitution Ship",
            "row_count": 1,
            "ratio_percent": 0.9090909090909091
        },
        {
            "field_value": "1937 Lincoln Berline",
            "row_count": 1,
            "ratio_percent": 0.9090909090909091
        },
        {
            "field_value": "1904 Buick Runabout",
            "row_count": 1,
            "ratio_percent": 0.9090909090909091
        },
        {
            "field_value": "1900s Vintage Tri-Plane",
            "row_count": 1,
            "ratio_percent": 0.9090909090909091
        }
    ]
}
@endjson

PlantUML version 1.2022.5(Sat Apr 30 06:55:52 EDT 2022)
(GPL source distribution)
Java Runtime: OpenJDK Runtime Environment
JVM: OpenJDK 64-Bit Server VM
Default Encoding: UTF-8
Language: en
Country: CA
--></g></svg>