<?xml version="1.0" encoding="UTF-8" standalone="no"?><svg xmlns="http://www.w3.org/2000/svg" xmlns:xlink="http://www.w3.org/1999/xlink" contentStyleType="text/css" height="794px" preserveAspectRatio="none" style="width:735px;height:794px;background:#FFFFFF;" version="1.1" viewBox="0 0 735 794" width="735px" zoomAndPan="magnify"><defs/><g><rect fill="#F1F1F1" height="81.9531" rx="5" ry="5" style="stroke:#F1F1F1;stroke-width:1.5;" width="188" x="10" y="264.5"/><text fill="#000000" font-family="sans-serif" font-size="14" font-weight="bold" lengthAdjust="spacing" textLength="42" x="15" y="280.0352">field1</text><text fill="#000000" font-family="sans-serif" font-size="14" lengthAdjust="spacing" textLength="44" x="149" y="280.0352">phone</text><line style="stroke:#000000;stroke-width:1.0;" x1="144" x2="144" y1="264.5" y2="284.9883"/><line style="stroke:#000000;stroke-width:1.0;" x1="10" x2="198" y1="284.9883" y2="284.9883"/><text fill="#000000" font-family="sans-serif" font-size="14" font-weight="bold" lengthAdjust="spacing" textLength="90" x="15" y="300.5234">combination</text><text fill="#000000" font-family="sans-serif" font-size="14" lengthAdjust="spacing" textLength="44" x="149" y="300.5234">phone</text><line style="stroke:#000000;stroke-width:1.0;" x1="144" x2="144" y1="284.9883" y2="305.4766"/><line style="stroke:#000000;stroke-width:1.0;" x1="10" x2="198" y1="305.4766" y2="305.4766"/><text fill="#000000" font-family="sans-serif" font-size="14" font-weight="bold" lengthAdjust="spacing" textLength="121" x="15" y="321.0117">null_distribution</text><text fill="#000000" font-family="sans-serif" font-size="14" lengthAdjust="spacing" textLength="12" x="149" y="321.0117">   </text><line style="stroke:#000000;stroke-width:1.0;" x1="144" x2="144" y1="305.4766" y2="325.9648"/><line style="stroke:#000000;stroke-width:1.0;" x1="10" x2="198" y1="325.9648" y2="325.9648"/><text fill="#000000" font-family="sans-serif" font-size="14" font-weight="bold" lengthAdjust="spacing" textLength="124" x="15" y="341.5">data_distribution</text><text fill="#000000" font-family="sans-serif" font-size="14" lengthAdjust="spacing" textLength="12" x="149" y="341.5">   </text><line style="stroke:#000000;stroke-width:1.0;" x1="144" x2="144" y1="325.9648" y2="346.4531"/><rect fill="none" height="81.9531" rx="5" ry="5" style="stroke:#000000;stroke-width:1.5;" width="188" x="10" y="264.5"/><rect fill="#F1F1F1" height="40.9766" rx="5" ry="5" style="stroke:#F1F1F1;stroke-width:1.5;" width="189" x="235" y="235"/><text fill="#000000" font-family="sans-serif" font-size="14" font-weight="bold" lengthAdjust="spacing" textLength="111" x="240" y="250.5352">total_null_rows</text><text fill="#000000" font-family="sans-serif" font-size="14" lengthAdjust="spacing" textLength="9" x="392" y="250.5352">0</text><line style="stroke:#000000;stroke-width:1.0;" x1="387" x2="387" y1="235" y2="255.4883"/><line style="stroke:#000000;stroke-width:1.0;" x1="235" x2="424" y1="255.4883" y2="255.4883"/><text fill="#000000" font-family="sans-serif" font-size="14" font-weight="bold" lengthAdjust="spacing" textLength="142" x="240" y="271.0234">total_not_null_rows</text><text fill="#000000" font-family="sans-serif" font-size="14" lengthAdjust="spacing" textLength="27" x="392" y="271.0234">122</text><line style="stroke:#000000;stroke-width:1.0;" x1="387" x2="387" y1="255.4883" y2="275.9766"/><rect fill="none" height="40.9766" rx="5" ry="5" style="stroke:#000000;stroke-width:1.5;" width="189" x="235" y="235"/><rect fill="#F1F1F1" height="204.8828" rx="5" ry="5" style="stroke:#F1F1F1;stroke-width:1.5;" width="22" x="317.5" y="294"/><text fill="#000000" font-family="sans-serif" font-size="14" lengthAdjust="spacing" textLength="12" x="322.5" y="309.5352">   </text><line style="stroke:#000000;stroke-width:1.0;" x1="317.5" x2="339.5" y1="314.4883" y2="314.4883"/><text fill="#000000" font-family="sans-serif" font-size="14" lengthAdjust="spacing" textLength="12" x="322.5" y="330.0234">   </text><line style="stroke:#000000;stroke-width:1.0;" x1="317.5" x2="339.5" y1="334.9766" y2="334.9766"/><text fill="#000000" font-family="sans-serif" font-size="14" lengthAdjust="spacing" textLength="12" x="322.5" y="350.5117">   </text><line style="stroke:#000000;stroke-width:1.0;" x1="317.5" x2="339.5" y1="355.4648" y2="355.4648"/><text fill="#000000" font-family="sans-serif" font-size="14" lengthAdjust="spacing" textLength="12" x="322.5" y="371">   </text><line style="stroke:#000000;stroke-width:1.0;" x1="317.5" x2="339.5" y1="375.9531" y2="375.9531"/><text fill="#000000" font-family="sans-serif" font-size="14" lengthAdjust="spacing" textLength="12" x="322.5" y="391.4883">   </text><line style="stroke:#000000;stroke-width:1.0;" x1="317.5" x2="339.5" y1="396.4414" y2="396.4414"/><text fill="#000000" font-family="sans-serif" font-size="14" lengthAdjust="spacing" textLength="12" x="322.5" y="411.9766">   </text><line style="stroke:#000000;stroke-width:1.0;" x1="317.5" x2="339.5" y1="416.9297" y2="416.9297"/><text fill="#000000" font-family="sans-serif" font-size="14" lengthAdjust="spacing" textLength="12" x="322.5" y="432.4648">   </text><line style="stroke:#000000;stroke-width:1.0;" x1="317.5" x2="339.5" y1="437.418" y2="437.418"/><text fill="#000000" font-family="sans-serif" font-size="14" lengthAdjust="spacing" textLength="12" x="322.5" y="452.9531">   </text><line style="stroke:#000000;stroke-width:1.0;" x1="317.5" x2="339.5" y1="457.9063" y2="457.9063"/><text fill="#000000" font-family="sans-serif" font-size="14" lengthAdjust="spacing" textLength="12" x="322.5" y="473.4414">   </text><line style="stroke:#000000;stroke-width:1.0;" x1="317.5" x2="339.5" y1="478.3945" y2="478.3945"/><text fill="#000000" font-family="sans-serif" font-size="14" lengthAdjust="spacing" textLength="12" x="322.5" y="493.9297">   </text><rect fill="none" height="204.8828" rx="5" ry="5" style="stroke:#000000;stroke-width:1.5;" width="22" x="317.5" y="294"/><rect fill="#F1F1F1" height="61.4648" rx="5" ry="5" style="stroke:#F1F1F1;stroke-width:1.5;" width="262" x="461" y="10"/><text fill="#000000" font-family="sans-serif" font-size="14" font-weight="bold" lengthAdjust="spacing" textLength="78" x="466" y="25.5352">field_value</text><text fill="#000000" font-family="sans-serif" font-size="14" lengthAdjust="spacing" textLength="90" x="570" y="25.5352">6175558555</text><line style="stroke:#000000;stroke-width:1.0;" x1="565" x2="565" y1="10" y2="30.4883"/><line style="stroke:#000000;stroke-width:1.0;" x1="461" x2="723" y1="30.4883" y2="30.4883"/><text fill="#000000" font-family="sans-serif" font-size="14" font-weight="bold" lengthAdjust="spacing" textLength="74" x="466" y="46.0234">row_count</text><text fill="#000000" font-family="sans-serif" font-size="14" lengthAdjust="spacing" textLength="9" x="570" y="46.0234">2</text><line style="stroke:#000000;stroke-width:1.0;" x1="565" x2="565" y1="30.4883" y2="50.9766"/><line style="stroke:#000000;stroke-width:1.0;" x1="461" x2="723" y1="50.9766" y2="50.9766"/><text fill="#000000" font-family="sans-serif" font-size="14" font-weight="bold" lengthAdjust="spacing" textLength="94" x="466" y="66.5117">ratio_percent</text><text fill="#000000" font-family="sans-serif" font-size="14" lengthAdjust="spacing" textLength="148" x="570" y="66.5117">1.639344262295082</text><line style="stroke:#000000;stroke-width:1.0;" x1="565" x2="565" y1="50.9766" y2="71.4648"/><rect fill="none" height="61.4648" rx="5" ry="5" style="stroke:#000000;stroke-width:1.5;" width="262" x="461" y="10"/><rect fill="#F1F1F1" height="61.4648" rx="5" ry="5" style="stroke:#F1F1F1;stroke-width:1.5;" width="262" x="461" y="89"/><text fill="#000000" font-family="sans-serif" font-size="14" font-weight="bold" lengthAdjust="spacing" textLength="78" x="466" y="104.5352">field_value</text><text fill="#000000" font-family="sans-serif" font-size="14" lengthAdjust="spacing" textLength="103" x="570" y="104.5352">(91) 555 94 44</text><line style="stroke:#000000;stroke-width:1.0;" x1="565" x2="565" y1="89" y2="109.4883"/><line style="stroke:#000000;stroke-width:1.0;" x1="461" x2="723" y1="109.4883" y2="109.4883"/><text fill="#000000" font-family="sans-serif" font-size="14" font-weight="bold" lengthAdjust="spacing" textLength="74" x="466" y="125.0234">row_count</text><text fill="#000000" font-family="sans-serif" font-size="14" lengthAdjust="spacing" textLength="9" x="570" y="125.0234">1</text><line style="stroke:#000000;stroke-width:1.0;" x1="565" x2="565" y1="109.4883" y2="129.9766"/><line style="stroke:#000000;stroke-width:1.0;" x1="461" x2="723" y1="129.9766" y2="129.9766"/><text fill="#000000" font-family="sans-serif" font-size="14" font-weight="bold" lengthAdjust="spacing" textLength="94" x="466" y="145.5117">ratio_percent</text><text fill="#000000" font-family="sans-serif" font-size="14" lengthAdjust="spacing" textLength="148" x="570" y="145.5117">0.819672131147541</text><line style="stroke:#000000;stroke-width:1.0;" x1="565" x2="565" y1="129.9766" y2="150.4648"/><rect fill="none" height="61.4648" rx="5" ry="5" style="stroke:#000000;stroke-width:1.5;" width="262" x="461" y="89"/><rect fill="#F1F1F1" height="61.4648" rx="5" ry="5" style="stroke:#F1F1F1;stroke-width:1.5;" width="262" x="461" y="168"/><text fill="#000000" font-family="sans-serif" font-size="14" font-weight="bold" lengthAdjust="spacing" textLength="78" x="466" y="183.5352">field_value</text><text fill="#000000" font-family="sans-serif" font-size="14" lengthAdjust="spacing" textLength="80" x="570" y="183.5352">86 21 3555</text><line style="stroke:#000000;stroke-width:1.0;" x1="565" x2="565" y1="168" y2="188.4883"/><line style="stroke:#000000;stroke-width:1.0;" x1="461" x2="723" y1="188.4883" y2="188.4883"/><text fill="#000000" font-family="sans-serif" font-size="14" font-weight="bold" lengthAdjust="spacing" textLength="74" x="466" y="204.0234">row_count</text><text fill="#000000" font-family="sans-serif" font-size="14" lengthAdjust="spacing" textLength="9" x="570" y="204.0234">1</text><line style="stroke:#000000;stroke-width:1.0;" x1="565" x2="565" y1="188.4883" y2="208.9766"/><line style="stroke:#000000;stroke-width:1.0;" x1="461" x2="723" y1="208.9766" y2="208.9766"/><text fill="#000000" font-family="sans-serif" font-size="14" font-weight="bold" lengthAdjust="spacing" textLength="94" x="466" y="224.5117">ratio_percent</text><text fill="#000000" font-family="sans-serif" font-size="14" lengthAdjust="spacing" textLength="148" x="570" y="224.5117">0.819672131147541</text><line style="stroke:#000000;stroke-width:1.0;" x1="565" x2="565" y1="208.9766" y2="229.4648"/><rect fill="none" height="61.4648" rx="5" ry="5" style="stroke:#000000;stroke-width:1.5;" width="262" x="461" y="168"/><rect fill="#F1F1F1" height="61.4648" rx="5" ry="5" style="stroke:#F1F1F1;stroke-width:1.5;" width="262" x="461" y="247"/><text fill="#000000" font-family="sans-serif" font-size="14" font-weight="bold" lengthAdjust="spacing" textLength="78" x="466" y="262.5352">field_value</text><text fill="#000000" font-family="sans-serif" font-size="14" lengthAdjust="spacing" textLength="89" x="570" y="262.5352">0555-09555</text><line style="stroke:#000000;stroke-width:1.0;" x1="565" x2="565" y1="247" y2="267.4883"/><line style="stroke:#000000;stroke-width:1.0;" x1="461" x2="723" y1="267.4883" y2="267.4883"/><text fill="#000000" font-family="sans-serif" font-size="14" font-weight="bold" lengthAdjust="spacing" textLength="74" x="466" y="283.0234">row_count</text><text fill="#000000" font-family="sans-serif" font-size="14" lengthAdjust="spacing" textLength="9" x="570" y="283.0234">1</text><line style="stroke:#000000;stroke-width:1.0;" x1="565" x2="565" y1="267.4883" y2="287.9766"/><line style="stroke:#000000;stroke-width:1.0;" x1="461" x2="723" y1="287.9766" y2="287.9766"/><text fill="#000000" font-family="sans-serif" font-size="14" font-weight="bold" lengthAdjust="spacing" textLength="94" x="466" y="303.5117">ratio_percent</text><text fill="#000000" font-family="sans-serif" font-size="14" lengthAdjust="spacing" textLength="148" x="570" y="303.5117">0.819672131147541</text><line style="stroke:#000000;stroke-width:1.0;" x1="565" x2="565" y1="287.9766" y2="308.4648"/><rect fill="none" height="61.4648" rx="5" ry="5" style="stroke:#000000;stroke-width:1.5;" width="262" x="461" y="247"/><rect fill="#F1F1F1" height="61.4648" rx="5" ry="5" style="stroke:#F1F1F1;stroke-width:1.5;" width="262" x="461" y="326"/><text fill="#000000" font-family="sans-serif" font-size="14" font-weight="bold" lengthAdjust="spacing" textLength="78" x="466" y="341.5352">field_value</text><text fill="#000000" font-family="sans-serif" font-size="14" lengthAdjust="spacing" textLength="98" x="570" y="341.5352">0241-039123</text><line style="stroke:#000000;stroke-width:1.0;" x1="565" x2="565" y1="326" y2="346.4883"/><line style="stroke:#000000;stroke-width:1.0;" x1="461" x2="723" y1="346.4883" y2="346.4883"/><text fill="#000000" font-family="sans-serif" font-size="14" font-weight="bold" lengthAdjust="spacing" textLength="74" x="466" y="362.0234">row_count</text><text fill="#000000" font-family="sans-serif" font-size="14" lengthAdjust="spacing" textLength="9" x="570" y="362.0234">1</text><line style="stroke:#000000;stroke-width:1.0;" x1="565" x2="565" y1="346.4883" y2="366.9766"/><line style="stroke:#000000;stroke-width:1.0;" x1="461" x2="723" y1="366.9766" y2="366.9766"/><text fill="#000000" font-family="sans-serif" font-size="14" font-weight="bold" lengthAdjust="spacing" textLength="94" x="466" y="382.5117">ratio_percent</text><text fill="#000000" font-family="sans-serif" font-size="14" lengthAdjust="spacing" textLength="148" x="570" y="382.5117">0.819672131147541</text><line style="stroke:#000000;stroke-width:1.0;" x1="565" x2="565" y1="366.9766" y2="387.4648"/><rect fill="none" height="61.4648" rx="5" ry="5" style="stroke:#000000;stroke-width:1.5;" width="262" x="461" y="326"/><rect fill="#F1F1F1" height="61.4648" rx="5" ry="5" style="stroke:#F1F1F1;stroke-width:1.5;" width="262" x="461" y="405"/><text fill="#000000" font-family="sans-serif" font-size="14" font-weight="bold" lengthAdjust="spacing" textLength="78" x="466" y="420.5352">field_value</text><text fill="#000000" font-family="sans-serif" font-size="14" lengthAdjust="spacing" textLength="112" x="570" y="420.5352">(171) 555-1555</text><line style="stroke:#000000;stroke-width:1.0;" x1="565" x2="565" y1="405" y2="425.4883"/><line style="stroke:#000000;stroke-width:1.0;" x1="461" x2="723" y1="425.4883" y2="425.4883"/><text fill="#000000" font-family="sans-serif" font-size="14" font-weight="bold" lengthAdjust="spacing" textLength="74" x="466" y="441.0234">row_count</text><text fill="#000000" font-family="sans-serif" font-size="14" lengthAdjust="spacing" textLength="9" x="570" y="441.0234">1</text><line style="stroke:#000000;stroke-width:1.0;" x1="565" x2="565" y1="425.4883" y2="445.9766"/><line style="stroke:#000000;stroke-width:1.0;" x1="461" x2="723" y1="445.9766" y2="445.9766"/><text fill="#000000" font-family="sans-serif" font-size="14" font-weight="bold" lengthAdjust="spacing" textLength="94" x="466" y="461.5117">ratio_percent</text><text fill="#000000" font-family="sans-serif" font-size="14" lengthAdjust="spacing" textLength="148" x="570" y="461.5117">0.819672131147541</text><line style="stroke:#000000;stroke-width:1.0;" x1="565" x2="565" y1="445.9766" y2="466.4648"/><rect fill="none" height="61.4648" rx="5" ry="5" style="stroke:#000000;stroke-width:1.5;" width="262" x="461" y="405"/><rect fill="#F1F1F1" height="61.4648" rx="5" ry="5" style="stroke:#F1F1F1;stroke-width:1.5;" width="262" x="461" y="484"/><text fill="#000000" font-family="sans-serif" font-size="14" font-weight="bold" lengthAdjust="spacing" textLength="78" x="466" y="499.5352">field_value</text><text fill="#000000" font-family="sans-serif" font-size="14" lengthAdjust="spacing" textLength="109" x="570" y="499.5352">+47 2212 1555</text><line style="stroke:#000000;stroke-width:1.0;" x1="565" x2="565" y1="484" y2="504.4883"/><line style="stroke:#000000;stroke-width:1.0;" x1="461" x2="723" y1="504.4883" y2="504.4883"/><text fill="#000000" font-family="sans-serif" font-size="14" font-weight="bold" lengthAdjust="spacing" textLength="74" x="466" y="520.0234">row_count</text><text fill="#000000" font-family="sans-serif" font-size="14" lengthAdjust="spacing" textLength="9" x="570" y="520.0234">1</text><line style="stroke:#000000;stroke-width:1.0;" x1="565" x2="565" y1="504.4883" y2="524.9766"/><line style="stroke:#000000;stroke-width:1.0;" x1="461" x2="723" y1="524.9766" y2="524.9766"/><text fill="#000000" font-family="sans-serif" font-size="14" font-weight="bold" lengthAdjust="spacing" textLength="94" x="466" y="540.5117">ratio_percent</text><text fill="#000000" font-family="sans-serif" font-size="14" lengthAdjust="spacing" textLength="148" x="570" y="540.5117">0.819672131147541</text><line style="stroke:#000000;stroke-width:1.0;" x1="565" x2="565" y1="524.9766" y2="545.4648"/><rect fill="none" height="61.4648" rx="5" ry="5" style="stroke:#000000;stroke-width:1.5;" width="262" x="461" y="484"/><rect fill="#F1F1F1" height="61.4648" rx="5" ry="5" style="stroke:#F1F1F1;stroke-width:1.5;" width="262" x="461" y="563"/><text fill="#000000" font-family="sans-serif" font-size="14" font-weight="bold" lengthAdjust="spacing" textLength="78" x="466" y="578.5352">field_value</text><text fill="#000000" font-family="sans-serif" font-size="14" lengthAdjust="spacing" textLength="103" x="570" y="578.5352">(1) 47.55.6555</text><line style="stroke:#000000;stroke-width:1.0;" x1="565" x2="565" y1="563" y2="583.4883"/><line style="stroke:#000000;stroke-width:1.0;" x1="461" x2="723" y1="583.4883" y2="583.4883"/><text fill="#000000" font-family="sans-serif" font-size="14" font-weight="bold" lengthAdjust="spacing" textLength="74" x="466" y="599.0234">row_count</text><text fill="#000000" font-family="sans-serif" font-size="14" lengthAdjust="spacing" textLength="9" x="570" y="599.0234">1</text><line style="stroke:#000000;stroke-width:1.0;" x1="565" x2="565" y1="583.4883" y2="603.9766"/><line style="stroke:#000000;stroke-width:1.0;" x1="461" x2="723" y1="603.9766" y2="603.9766"/><text fill="#000000" font-family="sans-serif" font-size="14" font-weight="bold" lengthAdjust="spacing" textLength="94" x="466" y="619.5117">ratio_percent</text><text fill="#000000" font-family="sans-serif" font-size="14" lengthAdjust="spacing" textLength="148" x="570" y="619.5117">0.819672131147541</text><line style="stroke:#000000;stroke-width:1.0;" x1="565" x2="565" y1="603.9766" y2="624.4648"/><rect fill="none" height="61.4648" rx="5" ry="5" style="stroke:#000000;stroke-width:1.5;" width="262" x="461" y="563"/><rect fill="#F1F1F1" height="61.4648" rx="5" ry="5" style="stroke:#F1F1F1;stroke-width:1.5;" width="262" x="461" y="642"/><text fill="#000000" font-family="sans-serif" font-size="14" font-weight="bold" lengthAdjust="spacing" textLength="78" x="466" y="657.5352">field_value</text><text fill="#000000" font-family="sans-serif" font-size="14" lengthAdjust="spacing" textLength="90" x="570" y="657.5352">2155551555</text><line style="stroke:#000000;stroke-width:1.0;" x1="565" x2="565" y1="642" y2="662.4883"/><line style="stroke:#000000;stroke-width:1.0;" x1="461" x2="723" y1="662.4883" y2="662.4883"/><text fill="#000000" font-family="sans-serif" font-size="14" font-weight="bold" lengthAdjust="spacing" textLength="74" x="466" y="678.0234">row_count</text><text fill="#000000" font-family="sans-serif" font-size="14" lengthAdjust="spacing" textLength="9" x="570" y="678.0234">1</text><line style="stroke:#000000;stroke-width:1.0;" x1="565" x2="565" y1="662.4883" y2="682.9766"/><line style="stroke:#000000;stroke-width:1.0;" x1="461" x2="723" y1="682.9766" y2="682.9766"/><text fill="#000000" font-family="sans-serif" font-size="14" font-weight="bold" lengthAdjust="spacing" textLength="94" x="466" y="698.5117">ratio_percent</text><text fill="#000000" font-family="sans-serif" font-size="14" lengthAdjust="spacing" textLength="148" x="570" y="698.5117">0.819672131147541</text><line style="stroke:#000000;stroke-width:1.0;" x1="565" x2="565" y1="682.9766" y2="703.4648"/><rect fill="none" height="61.4648" rx="5" ry="5" style="stroke:#000000;stroke-width:1.5;" width="262" x="461" y="642"/><rect fill="#F1F1F1" height="61.4648" rx="5" ry="5" style="stroke:#F1F1F1;stroke-width:1.5;" width="262" x="461" y="721"/><text fill="#000000" font-family="sans-serif" font-size="14" font-weight="bold" lengthAdjust="spacing" textLength="78" x="466" y="736.5352">field_value</text><text fill="#000000" font-family="sans-serif" font-size="14" lengthAdjust="spacing" textLength="98" x="570" y="736.5352">069-0555984</text><line style="stroke:#000000;stroke-width:1.0;" x1="565" x2="565" y1="721" y2="741.4883"/><line style="stroke:#000000;stroke-width:1.0;" x1="461" x2="723" y1="741.4883" y2="741.4883"/><text fill="#000000" font-family="sans-serif" font-size="14" font-weight="bold" lengthAdjust="spacing" textLength="74" x="466" y="757.0234">row_count</text><text fill="#000000" font-family="sans-serif" font-size="14" lengthAdjust="spacing" textLength="9" x="570" y="757.0234">1</text><line style="stroke:#000000;stroke-width:1.0;" x1="565" x2="565" y1="741.4883" y2="761.9766"/><line style="stroke:#000000;stroke-width:1.0;" x1="461" x2="723" y1="761.9766" y2="761.9766"/><text fill="#000000" font-family="sans-serif" font-size="14" font-weight="bold" lengthAdjust="spacing" textLength="94" x="466" y="777.5117">ratio_percent</text><text fill="#000000" font-family="sans-serif" font-size="14" lengthAdjust="spacing" textLength="148" x="570" y="777.5117">0.819672131147541</text><line style="stroke:#000000;stroke-width:1.0;" x1="565" x2="565" y1="761.9766" y2="782.4648"/><rect fill="none" height="61.4648" rx="5" ry="5" style="stroke:#000000;stroke-width:1.5;" width="262" x="461" y="721"/><path d="M186,315.5 L199,315.5 C219.8273,315.5 216.7406,295.5187 235,285.5 C239.1394,283.2288 243.4771,281.0988 247.9224,279.1061 " fill="none" style="stroke:#000000;stroke-width:1.0;stroke-dasharray:3.0,3.0;"/><path d="M249.1301,281.9305 L250.0407,278.2004 L246.7148,276.2817 L254.9835,276.0871 L249.1301,281.9305 " fill="#000000" style="stroke:#000000;stroke-width:1.0;"/><ellipse cx="186" cy="315.5" fill="#000000" rx="3" ry="3" style="stroke:#000000;stroke-width:1.0;"/><path d="M330,303.5 L343,303.5 C380.3122,303.5 399.1906,312.4458 425,285.5 C489.2901,218.3792 399.2478,148.9628 461,79.5 C462.0016,78.3734 463.0342,77.2787 464.0957,76.215 " fill="none" style="stroke:#000000;stroke-width:1.0;stroke-dasharray:3.0,3.0;"/><path d="M466.1212,78.4302 L465.7571,74.6959 L462.0701,73.9998 L469.6337,71.1512 L466.1212,78.4302 " fill="#000000" style="stroke:#000000;stroke-width:1.0;"/><ellipse cx="330" cy="303.5" fill="#000000" rx="3" ry="3" style="stroke:#000000;stroke-width:1.0;"/><path d="M330,324.5 L343,324.5 C383.3564,324.5 398.9543,316.3264 425,285.5 C462.864,240.686 419.8105,200.2779 461,158.5 C462.214,157.2687 463.4651,156.0759 464.7502,154.9204 " fill="none" style="stroke:#000000;stroke-width:1.0;stroke-dasharray:3.0,3.0;"/><path d="M466.6826,157.2576 L466.5031,153.4711 L462.8179,152.5832 L470.5932,150.0895 L466.6826,157.2576 " fill="#000000" style="stroke:#000000;stroke-width:1.0;"/><ellipse cx="330" cy="324.5" fill="#000000" rx="3" ry="3" style="stroke:#000000;stroke-width:1.0;"/><path d="M330,344.5 L343,344.5 C387.8977,344.5 392.9398,316.9316 425,285.5 C444.0419,266.8314 439.1251,252.7513 461,237.5 C463.3186,235.8835 465.7051,234.3329 468.1483,232.8456 " fill="none" style="stroke:#000000;stroke-width:1.0;stroke-dasharray:3.0,3.0;"/><path d="M469.6647,235.4822 L470.1258,231.7083 L466.6319,230.209 L474.7398,229.0547 L469.6647,235.4822 " fill="#000000" style="stroke:#000000;stroke-width:1.0;"/><ellipse cx="330" cy="344.5" fill="#000000" rx="3" ry="3" style="stroke:#000000;stroke-width:1.0;"/><path d="M330,365.5 L343,365.5 C399.6174,365.5 407.6593,336.4815 461,317.5 C467.558,315.1663 474.3293,312.8415 481.1785,310.5543 " fill="none" style="stroke:#000000;stroke-width:1.0;stroke-dasharray:3.0,3.0;"/><path d="M482.1648,313.5368 L483.4154,309.8146 L480.1922,307.5718 L488.6348,308.0885 L482.1648,313.5368 " fill="#000000" style="stroke:#000000;stroke-width:1.0;"/><ellipse cx="330" cy="365.5" fill="#000000" rx="3" ry="3" style="stroke:#000000;stroke-width:1.0;"/><path d="M330,385.5 L343,385.5 C378.9888,385.5 417.713,382.4621 453.6319,378.3528 " fill="none" style="stroke:#000000;stroke-width:1.0;stroke-dasharray:3.0,3.0;"/><path d="M453.9889,381.4009 L455.9179,378.0851 L453.2749,375.3048 L461.252,377.4604 L453.9889,381.4009 " fill="#000000" style="stroke:#000000;stroke-width:1.0;"/><ellipse cx="330" cy="385.5" fill="#000000" rx="3" ry="3" style="stroke:#000000;stroke-width:1.0;"/><path d="M330,406.5 L343,406.5 C378.9888,406.5 417.713,409.5379 453.6319,413.6472 " fill="none" style="stroke:#000000;stroke-width:1.0;stroke-dasharray:3.0,3.0;"/><path d="M453.2749,416.6952 L455.9179,413.9149 L453.9889,410.5991 L461.252,414.5396 L453.2749,416.6952 " fill="#000000" style="stroke:#000000;stroke-width:1.0;"/><ellipse cx="330" cy="406.5" fill="#000000" rx="3" ry="3" style="stroke:#000000;stroke-width:1.0;"/><path d="M330,427.5 L343,427.5 C399.6174,427.5 407.593,456.7059 461,475.5 C466.8517,477.5592 472.8746,479.606 478.972,481.6212 " fill="none" style="stroke:#000000;stroke-width:1.0;stroke-dasharray:3.0,3.0;"/><path d="M478.032,484.4957 L481.1279,482.3262 L479.912,478.7466 L486.1584,483.9712 L478.032,484.4957 " fill="#000000" style="stroke:#000000;stroke-width:1.0;"/><ellipse cx="330" cy="427.5" fill="#000000" rx="3" ry="3" style="stroke:#000000;stroke-width:1.0;"/><path d="M330,447.5 L343,447.5 C413.7951,447.5 399.3344,519.7249 461,554.5 C464.1797,556.2931 467.4504,558.0118 470.7896,559.6585 " fill="none" style="stroke:#000000;stroke-width:1.0;stroke-dasharray:3.0,3.0;"/><path d="M469.4777,562.4358 L472.8726,560.6424 L472.1015,556.8812 L477.7329,562.9382 L469.4777,562.4358 " fill="#000000" style="stroke:#000000;stroke-width:1.0;"/><ellipse cx="330" cy="447.5" fill="#000000" rx="3" ry="3" style="stroke:#000000;stroke-width:1.0;"/><path d="M330,468.5 L343,468.5 C433.1565,468.5 387.6334,581.1021 461,633.5 C463.1167,635.0117 465.2924,636.4655 467.5182,637.8636 " fill="none" style="stroke:#000000;stroke-width:1.0;stroke-dasharray:3.0,3.0;"/><path d="M465.9065,640.5911 L469.5638,639.0724 L469.1299,635.1362 L474.3368,641.893 L465.9065,640.5911 " fill="#000000" style="stroke:#000000;stroke-width:1.0;"/><ellipse cx="330" cy="468.5" fill="#000000" rx="3" ry="3" style="stroke:#000000;stroke-width:1.0;"/><path d="M330,488.5 L343,488.5 C455.5243,488.5 374.0856,641.0325 461,712.5 C462.7123,713.908 464.4742,715.2651 466.2798,716.5733 " fill="none" style="stroke:#000000;stroke-width:1.0;stroke-dasharray:3.0,3.0;"/><path d="M464.5751,719.0928 L468.1694,717.8518 L467.9845,714.0539 L472.5784,720.835 L464.5751,719.0928 " fill="#000000" style="stroke:#000000;stroke-width:1.0;"/><ellipse cx="330" cy="488.5" fill="#000000" rx="3" ry="3" style="stroke:#000000;stroke-width:1.0;"/><path d="M186,336.5 L199,336.5 C242.8518,336.5 288.0003,364.993 311.8339,382.7089 " fill="none" style="stroke:#000000;stroke-width:1.0;stroke-dasharray:3.0,3.0;"/><path d="M309.9625,385.1642 L313.6753,384.1124 L313.7052,380.2536 L317.9721,387.3873 L309.9625,385.1642 " fill="#000000" style="stroke:#000000;stroke-width:1.0;"/><ellipse cx="186" cy="336.5" fill="#000000" rx="3" ry="3" style="stroke:#000000;stroke-width:1.0;"/><!--MD5=[c802cfa68785c8193934ce8aebb87cc8]
@startjson
{
    "field1": "phone",
    "combination": "phone",
    "null_distribution": {
        "total_null_rows": 0,
        "total_not_null_rows": 122
    },
    "data_distribution": [
        {
            "field_value": "6175558555",
            "row_count": 2,
            "ratio_percent": 1.639344262295082
        },
        {
            "field_value": "(91) 555 94 44",
            "row_count": 1,
            "ratio_percent": 0.819672131147541
        },
        {
            "field_value": "86 21 3555",
            "row_count": 1,
            "ratio_percent": 0.819672131147541
        },
        {
            "field_value": "0555-09555",
            "row_count": 1,
            "ratio_percent": 0.819672131147541
        },
        {
            "field_value": "0241-039123",
            "row_count": 1,
            "ratio_percent": 0.819672131147541
        },
        {
            "field_value": "(171) 555-1555",
            "row_count": 1,
            "ratio_percent": 0.819672131147541
        },
        {
            "field_value": "+47 2212 1555",
            "row_count": 1,
            "ratio_percent": 0.819672131147541
        },
        {
            "field_value": "(1) 47.55.6555",
            "row_count": 1,
            "ratio_percent": 0.819672131147541
        },
        {
            "field_value": "2155551555",
            "row_count": 1,
            "ratio_percent": 0.819672131147541
        },
        {
            "field_value": "069-0555984",
            "row_count": 1,
            "ratio_percent": 0.819672131147541
        }
    ]
}
@endjson

PlantUML version 1.2022.5(Sat Apr 30 06:55:52 EDT 2022)
(GPL source distribution)
Java Runtime: OpenJDK Runtime Environment
JVM: OpenJDK 64-Bit Server VM
Default Encoding: UTF-8
Language: en
Country: CA
--></g></svg>