<?xml version="1.0" encoding="UTF-8" standalone="no"?><svg xmlns="http://www.w3.org/2000/svg" xmlns:xlink="http://www.w3.org/1999/xlink" contentStyleType="text/css" height="794px" preserveAspectRatio="none" style="width:757px;height:794px;background:#FFFFFF;" version="1.1" viewBox="0 0 757 794" width="757px" zoomAndPan="magnify"><defs/><g><rect fill="#F1F1F1" height="81.9531" rx="5" ry="5" style="stroke:#F1F1F1;stroke-width:1.5;" width="210" x="10" y="264.5"/><text fill="#000000" font-family="sans-serif" font-size="14" font-weight="bold" lengthAdjust="spacing" textLength="42" x="15" y="280.0352">field1</text><text fill="#000000" font-family="sans-serif" font-size="14" lengthAdjust="spacing" textLength="66" x="149" y="280.0352">firstName</text><line style="stroke:#000000;stroke-width:1.0;" x1="144" x2="144" y1="264.5" y2="284.9883"/><line style="stroke:#000000;stroke-width:1.0;" x1="10" x2="220" y1="284.9883" y2="284.9883"/><text fill="#000000" font-family="sans-serif" font-size="14" font-weight="bold" lengthAdjust="spacing" textLength="90" x="15" y="300.5234">combination</text><text fill="#000000" font-family="sans-serif" font-size="14" lengthAdjust="spacing" textLength="66" x="149" y="300.5234">firstName</text><line style="stroke:#000000;stroke-width:1.0;" x1="144" x2="144" y1="284.9883" y2="305.4766"/><line style="stroke:#000000;stroke-width:1.0;" x1="10" x2="220" y1="305.4766" y2="305.4766"/><text fill="#000000" font-family="sans-serif" font-size="14" font-weight="bold" lengthAdjust="spacing" textLength="121" x="15" y="321.0117">null_distribution</text><text fill="#000000" font-family="sans-serif" font-size="14" lengthAdjust="spacing" textLength="12" x="149" y="321.0117">   </text><line style="stroke:#000000;stroke-width:1.0;" x1="144" x2="144" y1="305.4766" y2="325.9648"/><line style="stroke:#000000;stroke-width:1.0;" x1="10" x2="220" y1="325.9648" y2="325.9648"/><text fill="#000000" font-family="sans-serif" font-size="14" font-weight="bold" lengthAdjust="spacing" textLength="124" x="15" y="341.5">data_distribution</text><text fill="#000000" font-family="sans-serif" font-size="14" lengthAdjust="spacing" textLength="12" x="149" y="341.5">   </text><line style="stroke:#000000;stroke-width:1.0;" x1="144" x2="144" y1="325.9648" y2="346.4531"/><rect fill="none" height="81.9531" rx="5" ry="5" style="stroke:#000000;stroke-width:1.5;" width="210" x="10" y="264.5"/><rect fill="#F1F1F1" height="40.9766" rx="5" ry="5" style="stroke:#F1F1F1;stroke-width:1.5;" width="180" x="257" y="235"/><text fill="#000000" font-family="sans-serif" font-size="14" font-weight="bold" lengthAdjust="spacing" textLength="111" x="262" y="250.5352">total_null_rows</text><text fill="#000000" font-family="sans-serif" font-size="14" lengthAdjust="spacing" textLength="9" x="414" y="250.5352">0</text><line style="stroke:#000000;stroke-width:1.0;" x1="409" x2="409" y1="235" y2="255.4883"/><line style="stroke:#000000;stroke-width:1.0;" x1="257" x2="437" y1="255.4883" y2="255.4883"/><text fill="#000000" font-family="sans-serif" font-size="14" font-weight="bold" lengthAdjust="spacing" textLength="142" x="262" y="271.0234">total_not_null_rows</text><text fill="#000000" font-family="sans-serif" font-size="14" lengthAdjust="spacing" textLength="18" x="414" y="271.0234">23</text><line style="stroke:#000000;stroke-width:1.0;" x1="409" x2="409" y1="255.4883" y2="275.9766"/><rect fill="none" height="40.9766" rx="5" ry="5" style="stroke:#000000;stroke-width:1.5;" width="180" x="257" y="235"/><rect fill="#F1F1F1" height="204.8828" rx="5" ry="5" style="stroke:#F1F1F1;stroke-width:1.5;" width="22" x="335" y="294"/><text fill="#000000" font-family="sans-serif" font-size="14" lengthAdjust="spacing" textLength="12" x="340" y="309.5352">   </text><line style="stroke:#000000;stroke-width:1.0;" x1="335" x2="357" y1="314.4883" y2="314.4883"/><text fill="#000000" font-family="sans-serif" font-size="14" lengthAdjust="spacing" textLength="12" x="340" y="330.0234">   </text><line style="stroke:#000000;stroke-width:1.0;" x1="335" x2="357" y1="334.9766" y2="334.9766"/><text fill="#000000" font-family="sans-serif" font-size="14" lengthAdjust="spacing" textLength="12" x="340" y="350.5117">   </text><line style="stroke:#000000;stroke-width:1.0;" x1="335" x2="357" y1="355.4648" y2="355.4648"/><text fill="#000000" font-family="sans-serif" font-size="14" lengthAdjust="spacing" textLength="12" x="340" y="371">   </text><line style="stroke:#000000;stroke-width:1.0;" x1="335" x2="357" y1="375.9531" y2="375.9531"/><text fill="#000000" font-family="sans-serif" font-size="14" lengthAdjust="spacing" textLength="12" x="340" y="391.4883">   </text><line style="stroke:#000000;stroke-width:1.0;" x1="335" x2="357" y1="396.4414" y2="396.4414"/><text fill="#000000" font-family="sans-serif" font-size="14" lengthAdjust="spacing" textLength="12" x="340" y="411.9766">   </text><line style="stroke:#000000;stroke-width:1.0;" x1="335" x2="357" y1="416.9297" y2="416.9297"/><text fill="#000000" font-family="sans-serif" font-size="14" lengthAdjust="spacing" textLength="12" x="340" y="432.4648">   </text><line style="stroke:#000000;stroke-width:1.0;" x1="335" x2="357" y1="437.418" y2="437.418"/><text fill="#000000" font-family="sans-serif" font-size="14" lengthAdjust="spacing" textLength="12" x="340" y="452.9531">   </text><line style="stroke:#000000;stroke-width:1.0;" x1="335" x2="357" y1="457.9063" y2="457.9063"/><text fill="#000000" font-family="sans-serif" font-size="14" lengthAdjust="spacing" textLength="12" x="340" y="473.4414">   </text><line style="stroke:#000000;stroke-width:1.0;" x1="335" x2="357" y1="478.3945" y2="478.3945"/><text fill="#000000" font-family="sans-serif" font-size="14" lengthAdjust="spacing" textLength="12" x="340" y="493.9297">   </text><rect fill="none" height="204.8828" rx="5" ry="5" style="stroke:#000000;stroke-width:1.5;" width="22" x="335" y="294"/><rect fill="#F1F1F1" height="61.4648" rx="5" ry="5" style="stroke:#F1F1F1;stroke-width:1.5;" width="262" x="478.5" y="10"/><text fill="#000000" font-family="sans-serif" font-size="14" font-weight="bold" lengthAdjust="spacing" textLength="78" x="483.5" y="25.5352">field_value</text><text fill="#000000" font-family="sans-serif" font-size="14" lengthAdjust="spacing" textLength="38" x="587.5" y="25.5352">Leslie</text><line style="stroke:#000000;stroke-width:1.0;" x1="582.5" x2="582.5" y1="10" y2="30.4883"/><line style="stroke:#000000;stroke-width:1.0;" x1="478.5" x2="740.5" y1="30.4883" y2="30.4883"/><text fill="#000000" font-family="sans-serif" font-size="14" font-weight="bold" lengthAdjust="spacing" textLength="74" x="483.5" y="46.0234">row_count</text><text fill="#000000" font-family="sans-serif" font-size="14" lengthAdjust="spacing" textLength="9" x="587.5" y="46.0234">2</text><line style="stroke:#000000;stroke-width:1.0;" x1="582.5" x2="582.5" y1="30.4883" y2="50.9766"/><line style="stroke:#000000;stroke-width:1.0;" x1="478.5" x2="740.5" y1="50.9766" y2="50.9766"/><text fill="#000000" font-family="sans-serif" font-size="14" font-weight="bold" lengthAdjust="spacing" textLength="94" x="483.5" y="66.5117">ratio_percent</text><text fill="#000000" font-family="sans-serif" font-size="14" lengthAdjust="spacing" textLength="148" x="587.5" y="66.5117">8.695652173913043</text><line style="stroke:#000000;stroke-width:1.0;" x1="582.5" x2="582.5" y1="50.9766" y2="71.4648"/><rect fill="none" height="61.4648" rx="5" ry="5" style="stroke:#000000;stroke-width:1.5;" width="262" x="478.5" y="10"/><rect fill="#F1F1F1" height="61.4648" rx="5" ry="5" style="stroke:#F1F1F1;stroke-width:1.5;" width="262" x="478.5" y="89"/><text fill="#000000" font-family="sans-serif" font-size="14" font-weight="bold" lengthAdjust="spacing" textLength="78" x="483.5" y="104.5352">field_value</text><text fill="#000000" font-family="sans-serif" font-size="14" lengthAdjust="spacing" textLength="47" x="587.5" y="104.5352">Gerard</text><line style="stroke:#000000;stroke-width:1.0;" x1="582.5" x2="582.5" y1="89" y2="109.4883"/><line style="stroke:#000000;stroke-width:1.0;" x1="478.5" x2="740.5" y1="109.4883" y2="109.4883"/><text fill="#000000" font-family="sans-serif" font-size="14" font-weight="bold" lengthAdjust="spacing" textLength="74" x="483.5" y="125.0234">row_count</text><text fill="#000000" font-family="sans-serif" font-size="14" lengthAdjust="spacing" textLength="9" x="587.5" y="125.0234">2</text><line style="stroke:#000000;stroke-width:1.0;" x1="582.5" x2="582.5" y1="109.4883" y2="129.9766"/><line style="stroke:#000000;stroke-width:1.0;" x1="478.5" x2="740.5" y1="129.9766" y2="129.9766"/><text fill="#000000" font-family="sans-serif" font-size="14" font-weight="bold" lengthAdjust="spacing" textLength="94" x="483.5" y="145.5117">ratio_percent</text><text fill="#000000" font-family="sans-serif" font-size="14" lengthAdjust="spacing" textLength="148" x="587.5" y="145.5117">8.695652173913043</text><line style="stroke:#000000;stroke-width:1.0;" x1="582.5" x2="582.5" y1="129.9766" y2="150.4648"/><rect fill="none" height="61.4648" rx="5" ry="5" style="stroke:#000000;stroke-width:1.5;" width="262" x="478.5" y="89"/><rect fill="#F1F1F1" height="61.4648" rx="5" ry="5" style="stroke:#F1F1F1;stroke-width:1.5;" width="271" x="474" y="168"/><text fill="#000000" font-family="sans-serif" font-size="14" font-weight="bold" lengthAdjust="spacing" textLength="78" x="479" y="183.5352">field_value</text><text fill="#000000" font-family="sans-serif" font-size="14" lengthAdjust="spacing" textLength="50" x="583" y="183.5352">George</text><line style="stroke:#000000;stroke-width:1.0;" x1="578" x2="578" y1="168" y2="188.4883"/><line style="stroke:#000000;stroke-width:1.0;" x1="474" x2="745" y1="188.4883" y2="188.4883"/><text fill="#000000" font-family="sans-serif" font-size="14" font-weight="bold" lengthAdjust="spacing" textLength="74" x="479" y="204.0234">row_count</text><text fill="#000000" font-family="sans-serif" font-size="14" lengthAdjust="spacing" textLength="9" x="583" y="204.0234">1</text><line style="stroke:#000000;stroke-width:1.0;" x1="578" x2="578" y1="188.4883" y2="208.9766"/><line style="stroke:#000000;stroke-width:1.0;" x1="474" x2="745" y1="208.9766" y2="208.9766"/><text fill="#000000" font-family="sans-serif" font-size="14" font-weight="bold" lengthAdjust="spacing" textLength="94" x="479" y="224.5117">ratio_percent</text><text fill="#000000" font-family="sans-serif" font-size="14" lengthAdjust="spacing" textLength="157" x="583" y="224.5117">4.3478260869565215</text><line style="stroke:#000000;stroke-width:1.0;" x1="578" x2="578" y1="208.9766" y2="229.4648"/><rect fill="none" height="61.4648" rx="5" ry="5" style="stroke:#000000;stroke-width:1.5;" width="271" x="474" y="168"/><rect fill="#F1F1F1" height="61.4648" rx="5" ry="5" style="stroke:#F1F1F1;stroke-width:1.5;" width="271" x="474" y="247"/><text fill="#000000" font-family="sans-serif" font-size="14" font-weight="bold" lengthAdjust="spacing" textLength="78" x="479" y="262.5352">field_value</text><text fill="#000000" font-family="sans-serif" font-size="14" lengthAdjust="spacing" textLength="35" x="583" y="262.5352">Peter</text><line style="stroke:#000000;stroke-width:1.0;" x1="578" x2="578" y1="247" y2="267.4883"/><line style="stroke:#000000;stroke-width:1.0;" x1="474" x2="745" y1="267.4883" y2="267.4883"/><text fill="#000000" font-family="sans-serif" font-size="14" font-weight="bold" lengthAdjust="spacing" textLength="74" x="479" y="283.0234">row_count</text><text fill="#000000" font-family="sans-serif" font-size="14" lengthAdjust="spacing" textLength="9" x="583" y="283.0234">1</text><line style="stroke:#000000;stroke-width:1.0;" x1="578" x2="578" y1="267.4883" y2="287.9766"/><line style="stroke:#000000;stroke-width:1.0;" x1="474" x2="745" y1="287.9766" y2="287.9766"/><text fill="#000000" font-family="sans-serif" font-size="14" font-weight="bold" lengthAdjust="spacing" textLength="94" x="479" y="303.5117">ratio_percent</text><text fill="#000000" font-family="sans-serif" font-size="14" lengthAdjust="spacing" textLength="157" x="583" y="303.5117">4.3478260869565215</text><line style="stroke:#000000;stroke-width:1.0;" x1="578" x2="578" y1="287.9766" y2="308.4648"/><rect fill="none" height="61.4648" rx="5" ry="5" style="stroke:#000000;stroke-width:1.5;" width="271" x="474" y="247"/><rect fill="#F1F1F1" height="61.4648" rx="5" ry="5" style="stroke:#F1F1F1;stroke-width:1.5;" width="271" x="474" y="326"/><text fill="#000000" font-family="sans-serif" font-size="14" font-weight="bold" lengthAdjust="spacing" textLength="78" x="479" y="341.5352">field_value</text><text fill="#000000" font-family="sans-serif" font-size="14" lengthAdjust="spacing" textLength="49" x="583" y="341.5352">William</text><line style="stroke:#000000;stroke-width:1.0;" x1="578" x2="578" y1="326" y2="346.4883"/><line style="stroke:#000000;stroke-width:1.0;" x1="474" x2="745" y1="346.4883" y2="346.4883"/><text fill="#000000" font-family="sans-serif" font-size="14" font-weight="bold" lengthAdjust="spacing" textLength="74" x="479" y="362.0234">row_count</text><text fill="#000000" font-family="sans-serif" font-size="14" lengthAdjust="spacing" textLength="9" x="583" y="362.0234">1</text><line style="stroke:#000000;stroke-width:1.0;" x1="578" x2="578" y1="346.4883" y2="366.9766"/><line style="stroke:#000000;stroke-width:1.0;" x1="474" x2="745" y1="366.9766" y2="366.9766"/><text fill="#000000" font-family="sans-serif" font-size="14" font-weight="bold" lengthAdjust="spacing" textLength="94" x="479" y="382.5117">ratio_percent</text><text fill="#000000" font-family="sans-serif" font-size="14" lengthAdjust="spacing" textLength="157" x="583" y="382.5117">4.3478260869565215</text><line style="stroke:#000000;stroke-width:1.0;" x1="578" x2="578" y1="366.9766" y2="387.4648"/><rect fill="none" height="61.4648" rx="5" ry="5" style="stroke:#000000;stroke-width:1.5;" width="271" x="474" y="326"/><rect fill="#F1F1F1" height="61.4648" rx="5" ry="5" style="stroke:#F1F1F1;stroke-width:1.5;" width="271" x="474" y="405"/><text fill="#000000" font-family="sans-serif" font-size="14" font-weight="bold" lengthAdjust="spacing" textLength="78" x="479" y="420.5352">field_value</text><text fill="#000000" font-family="sans-serif" font-size="14" lengthAdjust="spacing" textLength="65" x="583" y="420.5352">Foon Yue</text><line style="stroke:#000000;stroke-width:1.0;" x1="578" x2="578" y1="405" y2="425.4883"/><line style="stroke:#000000;stroke-width:1.0;" x1="474" x2="745" y1="425.4883" y2="425.4883"/><text fill="#000000" font-family="sans-serif" font-size="14" font-weight="bold" lengthAdjust="spacing" textLength="74" x="479" y="441.0234">row_count</text><text fill="#000000" font-family="sans-serif" font-size="14" lengthAdjust="spacing" textLength="9" x="583" y="441.0234">1</text><line style="stroke:#000000;stroke-width:1.0;" x1="578" x2="578" y1="425.4883" y2="445.9766"/><line style="stroke:#000000;stroke-width:1.0;" x1="474" x2="745" y1="445.9766" y2="445.9766"/><text fill="#000000" font-family="sans-serif" font-size="14" font-weight="bold" lengthAdjust="spacing" textLength="94" x="479" y="461.5117">ratio_percent</text><text fill="#000000" font-family="sans-serif" font-size="14" lengthAdjust="spacing" textLength="157" x="583" y="461.5117">4.3478260869565215</text><line style="stroke:#000000;stroke-width:1.0;" x1="578" x2="578" y1="445.9766" y2="466.4648"/><rect fill="none" height="61.4648" rx="5" ry="5" style="stroke:#000000;stroke-width:1.5;" width="271" x="474" y="405"/><rect fill="#F1F1F1" height="61.4648" rx="5" ry="5" style="stroke:#F1F1F1;stroke-width:1.5;" width="271" x="474" y="484"/><text fill="#000000" font-family="sans-serif" font-size="14" font-weight="bold" lengthAdjust="spacing" textLength="78" x="479" y="499.5352">field_value</text><text fill="#000000" font-family="sans-serif" font-size="14" lengthAdjust="spacing" textLength="35" x="583" y="499.5352">Andy</text><line style="stroke:#000000;stroke-width:1.0;" x1="578" x2="578" y1="484" y2="504.4883"/><line style="stroke:#000000;stroke-width:1.0;" x1="474" x2="745" y1="504.4883" y2="504.4883"/><text fill="#000000" font-family="sans-serif" font-size="14" font-weight="bold" lengthAdjust="spacing" textLength="74" x="479" y="520.0234">row_count</text><text fill="#000000" font-family="sans-serif" font-size="14" lengthAdjust="spacing" textLength="9" x="583" y="520.0234">1</text><line style="stroke:#000000;stroke-width:1.0;" x1="578" x2="578" y1="504.4883" y2="524.9766"/><line style="stroke:#000000;stroke-width:1.0;" x1="474" x2="745" y1="524.9766" y2="524.9766"/><text fill="#000000" font-family="sans-serif" font-size="14" font-weight="bold" lengthAdjust="spacing" textLength="94" x="479" y="540.5117">ratio_percent</text><text fill="#000000" font-family="sans-serif" font-size="14" lengthAdjust="spacing" textLength="157" x="583" y="540.5117">4.3478260869565215</text><line style="stroke:#000000;stroke-width:1.0;" x1="578" x2="578" y1="524.9766" y2="545.4648"/><rect fill="none" height="61.4648" rx="5" ry="5" style="stroke:#000000;stroke-width:1.5;" width="271" x="474" y="484"/><rect fill="#F1F1F1" height="61.4648" rx="5" ry="5" style="stroke:#F1F1F1;stroke-width:1.5;" width="271" x="474" y="563"/><text fill="#000000" font-family="sans-serif" font-size="14" font-weight="bold" lengthAdjust="spacing" textLength="78" x="479" y="578.5352">field_value</text><text fill="#000000" font-family="sans-serif" font-size="14" lengthAdjust="spacing" textLength="22" x="583" y="578.5352">Jeff</text><line style="stroke:#000000;stroke-width:1.0;" x1="578" x2="578" y1="563" y2="583.4883"/><line style="stroke:#000000;stroke-width:1.0;" x1="474" x2="745" y1="583.4883" y2="583.4883"/><text fill="#000000" font-family="sans-serif" font-size="14" font-weight="bold" lengthAdjust="spacing" textLength="74" x="479" y="599.0234">row_count</text><text fill="#000000" font-family="sans-serif" font-size="14" lengthAdjust="spacing" textLength="9" x="583" y="599.0234">1</text><line style="stroke:#000000;stroke-width:1.0;" x1="578" x2="578" y1="583.4883" y2="603.9766"/><line style="stroke:#000000;stroke-width:1.0;" x1="474" x2="745" y1="603.9766" y2="603.9766"/><text fill="#000000" font-family="sans-serif" font-size="14" font-weight="bold" lengthAdjust="spacing" textLength="94" x="479" y="619.5117">ratio_percent</text><text fill="#000000" font-family="sans-serif" font-size="14" lengthAdjust="spacing" textLength="157" x="583" y="619.5117">4.3478260869565215</text><line style="stroke:#000000;stroke-width:1.0;" x1="578" x2="578" y1="603.9766" y2="624.4648"/><rect fill="none" height="61.4648" rx="5" ry="5" style="stroke:#000000;stroke-width:1.5;" width="271" x="474" y="563"/><rect fill="#F1F1F1" height="61.4648" rx="5" ry="5" style="stroke:#F1F1F1;stroke-width:1.5;" width="271" x="474" y="642"/><text fill="#000000" font-family="sans-serif" font-size="14" font-weight="bold" lengthAdjust="spacing" textLength="78" x="479" y="657.5352">field_value</text><text fill="#000000" font-family="sans-serif" font-size="14" lengthAdjust="spacing" textLength="36" x="583" y="657.5352">Steve</text><line style="stroke:#000000;stroke-width:1.0;" x1="578" x2="578" y1="642" y2="662.4883"/><line style="stroke:#000000;stroke-width:1.0;" x1="474" x2="745" y1="662.4883" y2="662.4883"/><text fill="#000000" font-family="sans-serif" font-size="14" font-weight="bold" lengthAdjust="spacing" textLength="74" x="479" y="678.0234">row_count</text><text fill="#000000" font-family="sans-serif" font-size="14" lengthAdjust="spacing" textLength="9" x="583" y="678.0234">1</text><line style="stroke:#000000;stroke-width:1.0;" x1="578" x2="578" y1="662.4883" y2="682.9766"/><line style="stroke:#000000;stroke-width:1.0;" x1="474" x2="745" y1="682.9766" y2="682.9766"/><text fill="#000000" font-family="sans-serif" font-size="14" font-weight="bold" lengthAdjust="spacing" textLength="94" x="479" y="698.5117">ratio_percent</text><text fill="#000000" font-family="sans-serif" font-size="14" lengthAdjust="spacing" textLength="157" x="583" y="698.5117">4.3478260869565215</text><line style="stroke:#000000;stroke-width:1.0;" x1="578" x2="578" y1="682.9766" y2="703.4648"/><rect fill="none" height="61.4648" rx="5" ry="5" style="stroke:#000000;stroke-width:1.5;" width="271" x="474" y="642"/><rect fill="#F1F1F1" height="61.4648" rx="5" ry="5" style="stroke:#F1F1F1;stroke-width:1.5;" width="271" x="474" y="721"/><text fill="#000000" font-family="sans-serif" font-size="14" font-weight="bold" lengthAdjust="spacing" textLength="78" x="479" y="736.5352">field_value</text><text fill="#000000" font-family="sans-serif" font-size="14" lengthAdjust="spacing" textLength="35" x="583" y="736.5352">Barry</text><line style="stroke:#000000;stroke-width:1.0;" x1="578" x2="578" y1="721" y2="741.4883"/><line style="stroke:#000000;stroke-width:1.0;" x1="474" x2="745" y1="741.4883" y2="741.4883"/><text fill="#000000" font-family="sans-serif" font-size="14" font-weight="bold" lengthAdjust="spacing" textLength="74" x="479" y="757.0234">row_count</text><text fill="#000000" font-family="sans-serif" font-size="14" lengthAdjust="spacing" textLength="9" x="583" y="757.0234">1</text><line style="stroke:#000000;stroke-width:1.0;" x1="578" x2="578" y1="741.4883" y2="761.9766"/><line style="stroke:#000000;stroke-width:1.0;" x1="474" x2="745" y1="761.9766" y2="761.9766"/><text fill="#000000" font-family="sans-serif" font-size="14" font-weight="bold" lengthAdjust="spacing" textLength="94" x="479" y="777.5117">ratio_percent</text><text fill="#000000" font-family="sans-serif" font-size="14" lengthAdjust="spacing" textLength="157" x="583" y="777.5117">4.3478260869565215</text><line style="stroke:#000000;stroke-width:1.0;" x1="578" x2="578" y1="761.9766" y2="782.4648"/><rect fill="none" height="61.4648" rx="5" ry="5" style="stroke:#000000;stroke-width:1.5;" width="271" x="474" y="721"/><path d="M208,315.5 L221,315.5 C241.8273,315.5 238.8137,295.6507 257,285.5 C261.038,283.2462 265.2733,281.1247 269.6133,279.1338 " fill="none" style="stroke:#000000;stroke-width:1.0;stroke-dasharray:3.0,3.0;"/><path d="M270.8219,281.8909 L271.6812,278.2274 L268.4048,276.3766 L276.5062,276.1124 L270.8219,281.8909 " fill="#000000" style="stroke:#000000;stroke-width:1.0;"/><ellipse cx="208" cy="315.5" fill="#000000" rx="3" ry="3" style="stroke:#000000;stroke-width:1.0;"/><path d="M347.5,303.5 L360.5,303.5 C395.8613,303.5 413.6954,311.1847 438,285.5 C501.8819,217.9906 411.93,148.679 474,79.5 C475.0081,78.3765 476.0463,77.2844 477.1126,76.2231 " fill="none" style="stroke:#000000;stroke-width:1.0;stroke-dasharray:3.0,3.0;"/><path d="M479.1347,78.4455 L478.7795,74.7065 L475.0905,74.0006 L482.6688,71.1678 L479.1347,78.4455 " fill="#000000" style="stroke:#000000;stroke-width:1.0;"/><ellipse cx="347.5" cy="303.5" fill="#000000" rx="3" ry="3" style="stroke:#000000;stroke-width:1.0;"/><path d="M347.5,324.5 L360.5,324.5 C399.0599,324.5 413.4435,315.2295 438,285.5 C475.3625,240.267 432.6193,200.0887 474,158.5 C475.2233,157.2705 476.4828,156.0793 477.7755,154.925 " fill="none" style="stroke:#000000;stroke-width:1.0;stroke-dasharray:3.0,3.0;"/><path d="M479.7064,157.2737 L479.537,153.4769 L475.8447,152.5764 L483.6472,150.0978 L479.7064,157.2737 " fill="#000000" style="stroke:#000000;stroke-width:1.0;"/><ellipse cx="347.5" cy="324.5" fill="#000000" rx="3" ry="3" style="stroke:#000000;stroke-width:1.0;"/><path d="M347.5,344.5 L360.5,344.5 C403.79,344.5 407.4995,316.2205 438,285.5 C456.7883,266.5762 452.0554,252.6508 474,237.5 C476.3464,235.88 478.7599,234.3267 481.2295,232.8373 " fill="none" style="stroke:#000000;stroke-width:1.0;stroke-dasharray:3.0,3.0;"/><path d="M482.7476,235.5016 L483.2277,231.6987 L479.7115,230.173 L487.8903,229.0421 L482.7476,235.5016 " fill="#000000" style="stroke:#000000;stroke-width:1.0;"/><ellipse cx="347.5" cy="344.5" fill="#000000" rx="3" ry="3" style="stroke:#000000;stroke-width:1.0;"/><path d="M347.5,365.5 L360.5,365.5 C415.27,365.5 422.4402,335.9754 474,317.5 C480.5908,315.1383 487.3965,312.8044 494.2867,310.5217 " fill="none" style="stroke:#000000;stroke-width:1.0;stroke-dasharray:3.0,3.0;"/><path d="M495.2691,313.5231 L496.5378,309.7849 L493.3044,307.5203 L501.7903,308.0658 L495.2691,313.5231 " fill="#000000" style="stroke:#000000;stroke-width:1.0;"/><ellipse cx="347.5" cy="365.5" fill="#000000" rx="3" ry="3" style="stroke:#000000;stroke-width:1.0;"/><path d="M347.5,385.5 L360.5,385.5 C394.9249,385.5 431.8526,382.7204 466.4338,378.8823 " fill="none" style="stroke:#000000;stroke-width:1.0;stroke-dasharray:3.0,3.0;"/><path d="M466.7891,382.0038 L468.7749,378.6158 L466.0785,375.7608 L474.2376,377.9941 L466.7891,382.0038 " fill="#000000" style="stroke:#000000;stroke-width:1.0;"/><ellipse cx="347.5" cy="385.5" fill="#000000" rx="3" ry="3" style="stroke:#000000;stroke-width:1.0;"/><path d="M347.5,406.5 L360.5,406.5 C394.9249,406.5 431.8526,409.2796 466.4338,413.1177 " fill="none" style="stroke:#000000;stroke-width:1.0;stroke-dasharray:3.0,3.0;"/><path d="M466.0785,416.2392 L468.7749,413.3842 L466.7891,409.9962 L474.2376,414.0059 L466.0785,416.2392 " fill="#000000" style="stroke:#000000;stroke-width:1.0;"/><ellipse cx="347.5" cy="406.5" fill="#000000" rx="3" ry="3" style="stroke:#000000;stroke-width:1.0;"/><path d="M347.5,427.5 L360.5,427.5 C415.27,427.5 422.3775,457.2006 474,475.5 C479.867,477.5798 485.9057,479.6324 492.0234,481.6426 " fill="none" style="stroke:#000000;stroke-width:1.0;stroke-dasharray:3.0,3.0;"/><path d="M491.0876,484.5276 L494.1871,482.3445 L492.9592,478.7577 L499.2358,483.9821 L491.0876,484.5276 " fill="#000000" style="stroke:#000000;stroke-width:1.0;"/><ellipse cx="347.5" cy="427.5" fill="#000000" rx="3" ry="3" style="stroke:#000000;stroke-width:1.0;"/><path d="M347.5,447.5 L360.5,447.5 C429.8266,447.5 413.7882,520.1385 474,554.5 C477.1452,556.2949 480.3795,558.0127 483.682,559.6564 " fill="none" style="stroke:#000000;stroke-width:1.0;stroke-dasharray:3.0,3.0;"/><path d="M482.3737,562.4037 L485.7424,560.6377 L484.9903,556.9092 L490.55,562.9272 L482.3737,562.4037 " fill="#000000" style="stroke:#000000;stroke-width:1.0;"/><ellipse cx="347.5" cy="447.5" fill="#000000" rx="3" ry="3" style="stroke:#000000;stroke-width:1.0;"/><path d="M347.5,468.5 L360.5,468.5 C449.508,468.5 401.8044,581.4403 474,633.5 C476.0777,634.9982 478.2121,636.4392 480.395,637.825 " fill="none" style="stroke:#000000;stroke-width:1.0;stroke-dasharray:3.0,3.0;"/><path d="M478.7973,640.4995 L482.4009,639.0233 L481.9928,635.1505 L487.0812,641.8193 L478.7973,640.4995 " fill="#000000" style="stroke:#000000;stroke-width:1.0;"/><ellipse cx="347.5" cy="468.5" fill="#000000" rx="3" ry="3" style="stroke:#000000;stroke-width:1.0;"/><path d="M347.5,488.5 L360.5,488.5 C472.1062,488.5 388.0322,641.3278 474,712.5 C475.7177,713.922 477.4848,715.2923 479.2956,716.6125 " fill="none" style="stroke:#000000;stroke-width:1.0;stroke-dasharray:3.0,3.0;"/><path d="M477.5759,719.1394 L481.1908,717.9023 L481.0153,714.0857 L485.6127,720.9118 L477.5759,719.1394 " fill="#000000" style="stroke:#000000;stroke-width:1.0;"/><ellipse cx="347.5" cy="488.5" fill="#000000" rx="3" ry="3" style="stroke:#000000;stroke-width:1.0;"/><path d="M208,336.5 L221,336.5 C263.1629,336.5 306.1866,364.4055 329.2874,382.1547 " fill="none" style="stroke:#000000;stroke-width:1.0;stroke-dasharray:3.0,3.0;"/><path d="M327.4053,384.5427 L331.0784,383.5663 L331.1695,379.7667 L335.2574,386.86 L327.4053,384.5427 " fill="#000000" style="stroke:#000000;stroke-width:1.0;"/><ellipse cx="208" cy="336.5" fill="#000000" rx="3" ry="3" style="stroke:#000000;stroke-width:1.0;"/><!--MD5=[c4303c84a8b0d8781ff945ff944461d9]
@startjson
{
    "field1": "firstName",
    "combination": "firstName",
    "null_distribution": {
        "total_null_rows": 0,
        "total_not_null_rows": 23
    },
    "data_distribution": [
        {
            "field_value": "Leslie",
            "row_count": 2,
            "ratio_percent": 8.695652173913043
        },
        {
            "field_value": "Gerard",
            "row_count": 2,
            "ratio_percent": 8.695652173913043
        },
        {
            "field_value": "George",
            "row_count": 1,
            "ratio_percent": 4.3478260869565215
        },
        {
            "field_value": "Peter",
            "row_count": 1,
            "ratio_percent": 4.3478260869565215
        },
        {
            "field_value": "William",
            "row_count": 1,
            "ratio_percent": 4.3478260869565215
        },
        {
            "field_value": "Foon Yue",
            "row_count": 1,
            "ratio_percent": 4.3478260869565215
        },
        {
            "field_value": "Andy",
            "row_count": 1,
            "ratio_percent": 4.3478260869565215
        },
        {
            "field_value": "Jeff",
            "row_count": 1,
            "ratio_percent": 4.3478260869565215
        },
        {
            "field_value": "Steve",
            "row_count": 1,
            "ratio_percent": 4.3478260869565215
        },
        {
            "field_value": "Barry",
            "row_count": 1,
            "ratio_percent": 4.3478260869565215
        }
    ]
}
@endjson

PlantUML version 1.2022.5(Sat Apr 30 06:55:52 EDT 2022)
(GPL source distribution)
Java Runtime: OpenJDK Runtime Environment
JVM: OpenJDK 64-Bit Server VM
Default Encoding: UTF-8
Language: en
Country: CA
--></g></svg>