<?xml version="1.0" encoding="UTF-8" standalone="no"?><svg xmlns="http://www.w3.org/2000/svg" xmlns:xlink="http://www.w3.org/1999/xlink" contentStyleType="text/css" height="794px" preserveAspectRatio="none" style="width:825px;height:794px;background:#FFFFFF;" version="1.1" viewBox="0 0 825 794" width="825px" zoomAndPan="magnify"><defs/><g><rect fill="#F1F1F1" height="81.9531" rx="5" ry="5" style="stroke:#F1F1F1;stroke-width:1.5;" width="248" x="10" y="264.5"/><text fill="#000000" font-family="sans-serif" font-size="14" font-weight="bold" lengthAdjust="spacing" textLength="42" x="15" y="280.0352">field1</text><text fill="#000000" font-family="sans-serif" font-size="14" lengthAdjust="spacing" textLength="104" x="149" y="280.0352">productVendor</text><line style="stroke:#000000;stroke-width:1.0;" x1="144" x2="144" y1="264.5" y2="284.9883"/><line style="stroke:#000000;stroke-width:1.0;" x1="10" x2="258" y1="284.9883" y2="284.9883"/><text fill="#000000" font-family="sans-serif" font-size="14" font-weight="bold" lengthAdjust="spacing" textLength="90" x="15" y="300.5234">combination</text><text fill="#000000" font-family="sans-serif" font-size="14" lengthAdjust="spacing" textLength="104" x="149" y="300.5234">productVendor</text><line style="stroke:#000000;stroke-width:1.0;" x1="144" x2="144" y1="284.9883" y2="305.4766"/><line style="stroke:#000000;stroke-width:1.0;" x1="10" x2="258" y1="305.4766" y2="305.4766"/><text fill="#000000" font-family="sans-serif" font-size="14" font-weight="bold" lengthAdjust="spacing" textLength="121" x="15" y="321.0117">null_distribution</text><text fill="#000000" font-family="sans-serif" font-size="14" lengthAdjust="spacing" textLength="12" x="149" y="321.0117">   </text><line style="stroke:#000000;stroke-width:1.0;" x1="144" x2="144" y1="305.4766" y2="325.9648"/><line style="stroke:#000000;stroke-width:1.0;" x1="10" x2="258" y1="325.9648" y2="325.9648"/><text fill="#000000" font-family="sans-serif" font-size="14" font-weight="bold" lengthAdjust="spacing" textLength="124" x="15" y="341.5">data_distribution</text><text fill="#000000" font-family="sans-serif" font-size="14" lengthAdjust="spacing" textLength="12" x="149" y="341.5">   </text><line style="stroke:#000000;stroke-width:1.0;" x1="144" x2="144" y1="325.9648" y2="346.4531"/><rect fill="none" height="81.9531" rx="5" ry="5" style="stroke:#000000;stroke-width:1.5;" width="248" x="10" y="264.5"/><rect fill="#F1F1F1" height="40.9766" rx="5" ry="5" style="stroke:#F1F1F1;stroke-width:1.5;" width="189" x="295" y="235"/><text fill="#000000" font-family="sans-serif" font-size="14" font-weight="bold" lengthAdjust="spacing" textLength="111" x="300" y="250.5352">total_null_rows</text><text fill="#000000" font-family="sans-serif" font-size="14" lengthAdjust="spacing" textLength="9" x="452" y="250.5352">0</text><line style="stroke:#000000;stroke-width:1.0;" x1="447" x2="447" y1="235" y2="255.4883"/><line style="stroke:#000000;stroke-width:1.0;" x1="295" x2="484" y1="255.4883" y2="255.4883"/><text fill="#000000" font-family="sans-serif" font-size="14" font-weight="bold" lengthAdjust="spacing" textLength="142" x="300" y="271.0234">total_not_null_rows</text><text fill="#000000" font-family="sans-serif" font-size="14" lengthAdjust="spacing" textLength="27" x="452" y="271.0234">110</text><line style="stroke:#000000;stroke-width:1.0;" x1="447" x2="447" y1="255.4883" y2="275.9766"/><rect fill="none" height="40.9766" rx="5" ry="5" style="stroke:#000000;stroke-width:1.5;" width="189" x="295" y="235"/><rect fill="#F1F1F1" height="204.8828" rx="5" ry="5" style="stroke:#F1F1F1;stroke-width:1.5;" width="22" x="377.5" y="294"/><text fill="#000000" font-family="sans-serif" font-size="14" lengthAdjust="spacing" textLength="12" x="382.5" y="309.5352">   </text><line style="stroke:#000000;stroke-width:1.0;" x1="377.5" x2="399.5" y1="314.4883" y2="314.4883"/><text fill="#000000" font-family="sans-serif" font-size="14" lengthAdjust="spacing" textLength="12" x="382.5" y="330.0234">   </text><line style="stroke:#000000;stroke-width:1.0;" x1="377.5" x2="399.5" y1="334.9766" y2="334.9766"/><text fill="#000000" font-family="sans-serif" font-size="14" lengthAdjust="spacing" textLength="12" x="382.5" y="350.5117">   </text><line style="stroke:#000000;stroke-width:1.0;" x1="377.5" x2="399.5" y1="355.4648" y2="355.4648"/><text fill="#000000" font-family="sans-serif" font-size="14" lengthAdjust="spacing" textLength="12" x="382.5" y="371">   </text><line style="stroke:#000000;stroke-width:1.0;" x1="377.5" x2="399.5" y1="375.9531" y2="375.9531"/><text fill="#000000" font-family="sans-serif" font-size="14" lengthAdjust="spacing" textLength="12" x="382.5" y="391.4883">   </text><line style="stroke:#000000;stroke-width:1.0;" x1="377.5" x2="399.5" y1="396.4414" y2="396.4414"/><text fill="#000000" font-family="sans-serif" font-size="14" lengthAdjust="spacing" textLength="12" x="382.5" y="411.9766">   </text><line style="stroke:#000000;stroke-width:1.0;" x1="377.5" x2="399.5" y1="416.9297" y2="416.9297"/><text fill="#000000" font-family="sans-serif" font-size="14" lengthAdjust="spacing" textLength="12" x="382.5" y="432.4648">   </text><line style="stroke:#000000;stroke-width:1.0;" x1="377.5" x2="399.5" y1="437.418" y2="437.418"/><text fill="#000000" font-family="sans-serif" font-size="14" lengthAdjust="spacing" textLength="12" x="382.5" y="452.9531">   </text><line style="stroke:#000000;stroke-width:1.0;" x1="377.5" x2="399.5" y1="457.9063" y2="457.9063"/><text fill="#000000" font-family="sans-serif" font-size="14" lengthAdjust="spacing" textLength="12" x="382.5" y="473.4414">   </text><line style="stroke:#000000;stroke-width:1.0;" x1="377.5" x2="399.5" y1="478.3945" y2="478.3945"/><text fill="#000000" font-family="sans-serif" font-size="14" lengthAdjust="spacing" textLength="12" x="382.5" y="493.9297">   </text><rect fill="none" height="204.8828" rx="5" ry="5" style="stroke:#000000;stroke-width:1.5;" width="22" x="377.5" y="294"/><rect fill="#F1F1F1" height="61.4648" rx="5" ry="5" style="stroke:#F1F1F1;stroke-width:1.5;" width="272" x="531" y="10"/><text fill="#000000" font-family="sans-serif" font-size="14" font-weight="bold" lengthAdjust="spacing" textLength="78" x="536" y="25.5352">field_value</text><text fill="#000000" font-family="sans-serif" font-size="14" lengthAdjust="spacing" textLength="158" x="640" y="25.5352">Classic Metal Creations</text><line style="stroke:#000000;stroke-width:1.0;" x1="635" x2="635" y1="10" y2="30.4883"/><line style="stroke:#000000;stroke-width:1.0;" x1="531" x2="803" y1="30.4883" y2="30.4883"/><text fill="#000000" font-family="sans-serif" font-size="14" font-weight="bold" lengthAdjust="spacing" textLength="74" x="536" y="46.0234">row_count</text><text fill="#000000" font-family="sans-serif" font-size="14" lengthAdjust="spacing" textLength="18" x="640" y="46.0234">10</text><line style="stroke:#000000;stroke-width:1.0;" x1="635" x2="635" y1="30.4883" y2="50.9766"/><line style="stroke:#000000;stroke-width:1.0;" x1="531" x2="803" y1="50.9766" y2="50.9766"/><text fill="#000000" font-family="sans-serif" font-size="14" font-weight="bold" lengthAdjust="spacing" textLength="94" x="536" y="66.5117">ratio_percent</text><text fill="#000000" font-family="sans-serif" font-size="14" lengthAdjust="spacing" textLength="148" x="640" y="66.5117">9.090909090909092</text><line style="stroke:#000000;stroke-width:1.0;" x1="635" x2="635" y1="50.9766" y2="71.4648"/><rect fill="none" height="61.4648" rx="5" ry="5" style="stroke:#000000;stroke-width:1.5;" width="272" x="531" y="10"/><rect fill="#F1F1F1" height="61.4648" rx="5" ry="5" style="stroke:#F1F1F1;stroke-width:1.5;" width="292" x="521" y="89"/><text fill="#000000" font-family="sans-serif" font-size="14" font-weight="bold" lengthAdjust="spacing" textLength="78" x="526" y="104.5352">field_value</text><text fill="#000000" font-family="sans-serif" font-size="14" lengthAdjust="spacing" textLength="178" x="630" y="104.5352">Carousel DieCast Legends</text><line style="stroke:#000000;stroke-width:1.0;" x1="625" x2="625" y1="89" y2="109.4883"/><line style="stroke:#000000;stroke-width:1.0;" x1="521" x2="813" y1="109.4883" y2="109.4883"/><text fill="#000000" font-family="sans-serif" font-size="14" font-weight="bold" lengthAdjust="spacing" textLength="74" x="526" y="125.0234">row_count</text><text fill="#000000" font-family="sans-serif" font-size="14" lengthAdjust="spacing" textLength="9" x="630" y="125.0234">9</text><line style="stroke:#000000;stroke-width:1.0;" x1="625" x2="625" y1="109.4883" y2="129.9766"/><line style="stroke:#000000;stroke-width:1.0;" x1="521" x2="813" y1="129.9766" y2="129.9766"/><text fill="#000000" font-family="sans-serif" font-size="14" font-weight="bold" lengthAdjust="spacing" textLength="94" x="526" y="145.5117">ratio_percent</text><text fill="#000000" font-family="sans-serif" font-size="14" lengthAdjust="spacing" textLength="148" x="630" y="145.5117">8.181818181818182</text><line style="stroke:#000000;stroke-width:1.0;" x1="625" x2="625" y1="129.9766" y2="150.4648"/><rect fill="none" height="61.4648" rx="5" ry="5" style="stroke:#000000;stroke-width:1.5;" width="292" x="521" y="89"/><rect fill="#F1F1F1" height="61.4648" rx="5" ry="5" style="stroke:#F1F1F1;stroke-width:1.5;" width="262" x="536" y="168"/><text fill="#000000" font-family="sans-serif" font-size="14" font-weight="bold" lengthAdjust="spacing" textLength="78" x="541" y="183.5352">field_value</text><text fill="#000000" font-family="sans-serif" font-size="14" lengthAdjust="spacing" textLength="142" x="645" y="183.5352">Gearbox Collectibles</text><line style="stroke:#000000;stroke-width:1.0;" x1="640" x2="640" y1="168" y2="188.4883"/><line style="stroke:#000000;stroke-width:1.0;" x1="536" x2="798" y1="188.4883" y2="188.4883"/><text fill="#000000" font-family="sans-serif" font-size="14" font-weight="bold" lengthAdjust="spacing" textLength="74" x="541" y="204.0234">row_count</text><text fill="#000000" font-family="sans-serif" font-size="14" lengthAdjust="spacing" textLength="9" x="645" y="204.0234">9</text><line style="stroke:#000000;stroke-width:1.0;" x1="640" x2="640" y1="188.4883" y2="208.9766"/><line style="stroke:#000000;stroke-width:1.0;" x1="536" x2="798" y1="208.9766" y2="208.9766"/><text fill="#000000" font-family="sans-serif" font-size="14" font-weight="bold" lengthAdjust="spacing" textLength="94" x="541" y="224.5117">ratio_percent</text><text fill="#000000" font-family="sans-serif" font-size="14" lengthAdjust="spacing" textLength="148" x="645" y="224.5117">8.181818181818182</text><line style="stroke:#000000;stroke-width:1.0;" x1="640" x2="640" y1="208.9766" y2="229.4648"/><rect fill="none" height="61.4648" rx="5" ry="5" style="stroke:#000000;stroke-width:1.5;" width="262" x="536" y="168"/><rect fill="#F1F1F1" height="61.4648" rx="5" ry="5" style="stroke:#F1F1F1;stroke-width:1.5;" width="268" x="533" y="247"/><text fill="#000000" font-family="sans-serif" font-size="14" font-weight="bold" lengthAdjust="spacing" textLength="78" x="538" y="262.5352">field_value</text><text fill="#000000" font-family="sans-serif" font-size="14" lengthAdjust="spacing" textLength="154" x="642" y="262.5352">Motor City Art Classics</text><line style="stroke:#000000;stroke-width:1.0;" x1="637" x2="637" y1="247" y2="267.4883"/><line style="stroke:#000000;stroke-width:1.0;" x1="533" x2="801" y1="267.4883" y2="267.4883"/><text fill="#000000" font-family="sans-serif" font-size="14" font-weight="bold" lengthAdjust="spacing" textLength="74" x="538" y="283.0234">row_count</text><text fill="#000000" font-family="sans-serif" font-size="14" lengthAdjust="spacing" textLength="9" x="642" y="283.0234">9</text><line style="stroke:#000000;stroke-width:1.0;" x1="637" x2="637" y1="267.4883" y2="287.9766"/><line style="stroke:#000000;stroke-width:1.0;" x1="533" x2="801" y1="287.9766" y2="287.9766"/><text fill="#000000" font-family="sans-serif" font-size="14" font-weight="bold" lengthAdjust="spacing" textLength="94" x="538" y="303.5117">ratio_percent</text><text fill="#000000" font-family="sans-serif" font-size="14" lengthAdjust="spacing" textLength="148" x="642" y="303.5117">8.181818181818182</text><line style="stroke:#000000;stroke-width:1.0;" x1="637" x2="637" y1="287.9766" y2="308.4648"/><rect fill="none" height="61.4648" rx="5" ry="5" style="stroke:#000000;stroke-width:1.5;" width="268" x="533" y="247"/><rect fill="#F1F1F1" height="61.4648" rx="5" ry="5" style="stroke:#F1F1F1;stroke-width:1.5;" width="262" x="536" y="326"/><text fill="#000000" font-family="sans-serif" font-size="14" font-weight="bold" lengthAdjust="spacing" textLength="78" x="541" y="341.5352">field_value</text><text fill="#000000" font-family="sans-serif" font-size="14" lengthAdjust="spacing" textLength="98" x="645" y="341.5352">Exoto Designs</text><line style="stroke:#000000;stroke-width:1.0;" x1="640" x2="640" y1="326" y2="346.4883"/><line style="stroke:#000000;stroke-width:1.0;" x1="536" x2="798" y1="346.4883" y2="346.4883"/><text fill="#000000" font-family="sans-serif" font-size="14" font-weight="bold" lengthAdjust="spacing" textLength="74" x="541" y="362.0234">row_count</text><text fill="#000000" font-family="sans-serif" font-size="14" lengthAdjust="spacing" textLength="9" x="645" y="362.0234">9</text><line style="stroke:#000000;stroke-width:1.0;" x1="640" x2="640" y1="346.4883" y2="366.9766"/><line style="stroke:#000000;stroke-width:1.0;" x1="536" x2="798" y1="366.9766" y2="366.9766"/><text fill="#000000" font-family="sans-serif" font-size="14" font-weight="bold" lengthAdjust="spacing" textLength="94" x="541" y="382.5117">ratio_percent</text><text fill="#000000" font-family="sans-serif" font-size="14" lengthAdjust="spacing" textLength="148" x="645" y="382.5117">8.181818181818182</text><line style="stroke:#000000;stroke-width:1.0;" x1="640" x2="640" y1="366.9766" y2="387.4648"/><rect fill="none" height="61.4648" rx="5" ry="5" style="stroke:#000000;stroke-width:1.5;" width="262" x="536" y="326"/><rect fill="#F1F1F1" height="61.4648" rx="5" ry="5" style="stroke:#F1F1F1;stroke-width:1.5;" width="285" x="524.5" y="405"/><text fill="#000000" font-family="sans-serif" font-size="14" font-weight="bold" lengthAdjust="spacing" textLength="78" x="529.5" y="420.5352">field_value</text><text fill="#000000" font-family="sans-serif" font-size="14" lengthAdjust="spacing" textLength="171" x="633.5" y="420.5352">Highway 66 Mini Classics</text><line style="stroke:#000000;stroke-width:1.0;" x1="628.5" x2="628.5" y1="405" y2="425.4883"/><line style="stroke:#000000;stroke-width:1.0;" x1="524.5" x2="809.5" y1="425.4883" y2="425.4883"/><text fill="#000000" font-family="sans-serif" font-size="14" font-weight="bold" lengthAdjust="spacing" textLength="74" x="529.5" y="441.0234">row_count</text><text fill="#000000" font-family="sans-serif" font-size="14" lengthAdjust="spacing" textLength="9" x="633.5" y="441.0234">9</text><line style="stroke:#000000;stroke-width:1.0;" x1="628.5" x2="628.5" y1="425.4883" y2="445.9766"/><line style="stroke:#000000;stroke-width:1.0;" x1="524.5" x2="809.5" y1="445.9766" y2="445.9766"/><text fill="#000000" font-family="sans-serif" font-size="14" font-weight="bold" lengthAdjust="spacing" textLength="94" x="529.5" y="461.5117">ratio_percent</text><text fill="#000000" font-family="sans-serif" font-size="14" lengthAdjust="spacing" textLength="148" x="633.5" y="461.5117">8.181818181818182</text><line style="stroke:#000000;stroke-width:1.0;" x1="628.5" x2="628.5" y1="445.9766" y2="466.4648"/><rect fill="none" height="61.4648" rx="5" ry="5" style="stroke:#000000;stroke-width:1.5;" width="285" x="524.5" y="405"/><rect fill="#F1F1F1" height="61.4648" rx="5" ry="5" style="stroke:#F1F1F1;stroke-width:1.5;" width="271" x="531.5" y="484"/><text fill="#000000" font-family="sans-serif" font-size="14" font-weight="bold" lengthAdjust="spacing" textLength="78" x="536.5" y="499.5352">field_value</text><text fill="#000000" font-family="sans-serif" font-size="14" lengthAdjust="spacing" textLength="141" x="640.5" y="499.5352">Unimax Art Galleries</text><line style="stroke:#000000;stroke-width:1.0;" x1="635.5" x2="635.5" y1="484" y2="504.4883"/><line style="stroke:#000000;stroke-width:1.0;" x1="531.5" x2="802.5" y1="504.4883" y2="504.4883"/><text fill="#000000" font-family="sans-serif" font-size="14" font-weight="bold" lengthAdjust="spacing" textLength="74" x="536.5" y="520.0234">row_count</text><text fill="#000000" font-family="sans-serif" font-size="14" lengthAdjust="spacing" textLength="9" x="640.5" y="520.0234">8</text><line style="stroke:#000000;stroke-width:1.0;" x1="635.5" x2="635.5" y1="504.4883" y2="524.9766"/><line style="stroke:#000000;stroke-width:1.0;" x1="531.5" x2="802.5" y1="524.9766" y2="524.9766"/><text fill="#000000" font-family="sans-serif" font-size="14" font-weight="bold" lengthAdjust="spacing" textLength="94" x="536.5" y="540.5117">ratio_percent</text><text fill="#000000" font-family="sans-serif" font-size="14" lengthAdjust="spacing" textLength="157" x="640.5" y="540.5117">7.2727272727272725</text><line style="stroke:#000000;stroke-width:1.0;" x1="635.5" x2="635.5" y1="524.9766" y2="545.4648"/><rect fill="none" height="61.4648" rx="5" ry="5" style="stroke:#000000;stroke-width:1.5;" width="271" x="531.5" y="484"/><rect fill="#F1F1F1" height="61.4648" rx="5" ry="5" style="stroke:#F1F1F1;stroke-width:1.5;" width="288" x="523" y="563"/><text fill="#000000" font-family="sans-serif" font-size="14" font-weight="bold" lengthAdjust="spacing" textLength="78" x="528" y="578.5352">field_value</text><text fill="#000000" font-family="sans-serif" font-size="14" lengthAdjust="spacing" textLength="174" x="632" y="578.5352">Welly Diecast Productions</text><line style="stroke:#000000;stroke-width:1.0;" x1="627" x2="627" y1="563" y2="583.4883"/><line style="stroke:#000000;stroke-width:1.0;" x1="523" x2="811" y1="583.4883" y2="583.4883"/><text fill="#000000" font-family="sans-serif" font-size="14" font-weight="bold" lengthAdjust="spacing" textLength="74" x="528" y="599.0234">row_count</text><text fill="#000000" font-family="sans-serif" font-size="14" lengthAdjust="spacing" textLength="9" x="632" y="599.0234">8</text><line style="stroke:#000000;stroke-width:1.0;" x1="627" x2="627" y1="583.4883" y2="603.9766"/><line style="stroke:#000000;stroke-width:1.0;" x1="523" x2="811" y1="603.9766" y2="603.9766"/><text fill="#000000" font-family="sans-serif" font-size="14" font-weight="bold" lengthAdjust="spacing" textLength="94" x="528" y="619.5117">ratio_percent</text><text fill="#000000" font-family="sans-serif" font-size="14" lengthAdjust="spacing" textLength="157" x="632" y="619.5117">7.2727272727272725</text><line style="stroke:#000000;stroke-width:1.0;" x1="627" x2="627" y1="603.9766" y2="624.4648"/><rect fill="none" height="61.4648" rx="5" ry="5" style="stroke:#000000;stroke-width:1.5;" width="288" x="523" y="563"/><rect fill="#F1F1F1" height="61.4648" rx="5" ry="5" style="stroke:#F1F1F1;stroke-width:1.5;" width="271" x="531.5" y="642"/><text fill="#000000" font-family="sans-serif" font-size="14" font-weight="bold" lengthAdjust="spacing" textLength="78" x="536.5" y="657.5352">field_value</text><text fill="#000000" font-family="sans-serif" font-size="14" lengthAdjust="spacing" textLength="102" x="640.5" y="657.5352">Min Lin Diecast</text><line style="stroke:#000000;stroke-width:1.0;" x1="635.5" x2="635.5" y1="642" y2="662.4883"/><line style="stroke:#000000;stroke-width:1.0;" x1="531.5" x2="802.5" y1="662.4883" y2="662.4883"/><text fill="#000000" font-family="sans-serif" font-size="14" font-weight="bold" lengthAdjust="spacing" textLength="74" x="536.5" y="678.0234">row_count</text><text fill="#000000" font-family="sans-serif" font-size="14" lengthAdjust="spacing" textLength="9" x="640.5" y="678.0234">8</text><line style="stroke:#000000;stroke-width:1.0;" x1="635.5" x2="635.5" y1="662.4883" y2="682.9766"/><line style="stroke:#000000;stroke-width:1.0;" x1="531.5" x2="802.5" y1="682.9766" y2="682.9766"/><text fill="#000000" font-family="sans-serif" font-size="14" font-weight="bold" lengthAdjust="spacing" textLength="94" x="536.5" y="698.5117">ratio_percent</text><text fill="#000000" font-family="sans-serif" font-size="14" lengthAdjust="spacing" textLength="157" x="640.5" y="698.5117">7.2727272727272725</text><line style="stroke:#000000;stroke-width:1.0;" x1="635.5" x2="635.5" y1="682.9766" y2="703.4648"/><rect fill="none" height="61.4648" rx="5" ry="5" style="stroke:#000000;stroke-width:1.5;" width="271" x="531.5" y="642"/><rect fill="#F1F1F1" height="61.4648" rx="5" ry="5" style="stroke:#F1F1F1;stroke-width:1.5;" width="271" x="531.5" y="721"/><text fill="#000000" font-family="sans-serif" font-size="14" font-weight="bold" lengthAdjust="spacing" textLength="78" x="536.5" y="736.5352">field_value</text><text fill="#000000" font-family="sans-serif" font-size="14" lengthAdjust="spacing" textLength="151" x="640.5" y="736.5352">Autoart Studio Design</text><line style="stroke:#000000;stroke-width:1.0;" x1="635.5" x2="635.5" y1="721" y2="741.4883"/><line style="stroke:#000000;stroke-width:1.0;" x1="531.5" x2="802.5" y1="741.4883" y2="741.4883"/><text fill="#000000" font-family="sans-serif" font-size="14" font-weight="bold" lengthAdjust="spacing" textLength="74" x="536.5" y="757.0234">row_count</text><text fill="#000000" font-family="sans-serif" font-size="14" lengthAdjust="spacing" textLength="9" x="640.5" y="757.0234">8</text><line style="stroke:#000000;stroke-width:1.0;" x1="635.5" x2="635.5" y1="741.4883" y2="761.9766"/><line style="stroke:#000000;stroke-width:1.0;" x1="531.5" x2="802.5" y1="761.9766" y2="761.9766"/><text fill="#000000" font-family="sans-serif" font-size="14" font-weight="bold" lengthAdjust="spacing" textLength="94" x="536.5" y="777.5117">ratio_percent</text><text fill="#000000" font-family="sans-serif" font-size="14" lengthAdjust="spacing" textLength="157" x="640.5" y="777.5117">7.2727272727272725</text><line style="stroke:#000000;stroke-width:1.0;" x1="635.5" x2="635.5" y1="761.9766" y2="782.4648"/><rect fill="none" height="61.4648" rx="5" ry="5" style="stroke:#000000;stroke-width:1.5;" width="271" x="531.5" y="721"/><path d="M246,315.5 L259,315.5 C279.8273,315.5 276.7406,295.5187 295,285.5 C299.1394,283.2288 303.4771,281.0988 307.9224,279.1061 " fill="none" style="stroke:#000000;stroke-width:1.0;stroke-dasharray:3.0,3.0;"/><path d="M309.1301,281.9305 L310.0407,278.2004 L306.7148,276.2817 L314.9835,276.0871 L309.1301,281.9305 " fill="#000000" style="stroke:#000000;stroke-width:1.0;"/><ellipse cx="246" cy="315.5" fill="#000000" rx="3" ry="3" style="stroke:#000000;stroke-width:1.0;"/><path d="M390,303.5 L403,303.5 C440.3122,303.5 459.1906,312.4458 485,285.5 C549.2901,218.3792 458.2637,148.0753 521,79.5 C522.3901,77.9805 523.8324,76.5175 525.3224,75.1091 " fill="none" style="stroke:#000000;stroke-width:1.0;stroke-dasharray:3.0,3.0;"/><path d="M527.3889,77.4985 L527.1144,73.5592 L523.2559,72.7197 L531.2959,69.9428 L527.3889,77.4985 " fill="#000000" style="stroke:#000000;stroke-width:1.0;"/><ellipse cx="390" cy="303.5" fill="#000000" rx="3" ry="3" style="stroke:#000000;stroke-width:1.0;"/><path d="M390,324.5 L403,324.5 C443.3564,324.5 458.9543,316.3264 485,285.5 C522.864,240.686 479.219,199.6864 521,158.5 C522.2484,157.2694 523.5312,156.0764 524.8457,154.92 " fill="none" style="stroke:#000000;stroke-width:1.0;stroke-dasharray:3.0,3.0;"/><path d="M526.7815,157.3035 L526.6333,153.4682 L522.91,152.5366 L530.8044,150.0807 L526.7815,157.3035 " fill="#000000" style="stroke:#000000;stroke-width:1.0;"/><ellipse cx="390" cy="324.5" fill="#000000" rx="3" ry="3" style="stroke:#000000;stroke-width:1.0;"/><path d="M390,344.5 L403,344.5 C447.8977,344.5 452.9398,316.9316 485,285.5 C504.0419,266.8314 498.9099,252.4378 521,237.5 C523.7418,235.6459 526.5682,233.8798 529.464,232.1976 " fill="none" style="stroke:#000000;stroke-width:1.0;stroke-dasharray:3.0,3.0;"/><path d="M530.974,234.9479 L531.5268,231.065 L527.954,229.4472 L536.3399,228.4225 L530.974,234.9479 " fill="#000000" style="stroke:#000000;stroke-width:1.0;"/><ellipse cx="390" cy="344.5" fill="#000000" rx="3" ry="3" style="stroke:#000000;stroke-width:1.0;"/><path d="M390,365.5 L403,365.5 C459.6174,365.5 467.3884,335.7024 521,317.5 C528.163,315.068 535.5611,312.6757 543.0503,310.3452 " fill="none" style="stroke:#000000;stroke-width:1.0;stroke-dasharray:3.0,3.0;"/><path d="M543.974,313.3509 L545.3046,309.6524 L542.1267,307.3395 L550.5646,308.036 L543.974,313.3509 " fill="#000000" style="stroke:#000000;stroke-width:1.0;"/><ellipse cx="390" cy="365.5" fill="#000000" rx="3" ry="3" style="stroke:#000000;stroke-width:1.0;"/><path d="M390,385.5 L403,385.5 C444.0515,385.5 488.4857,381.9793 528.9616,377.3913 " fill="none" style="stroke:#000000;stroke-width:1.0;stroke-dasharray:3.0,3.0;"/><path d="M529.309,380.3953 L531.2145,377.1308 L528.6142,374.3873 L536.4715,376.5228 L529.309,380.3953 " fill="#000000" style="stroke:#000000;stroke-width:1.0;"/><ellipse cx="390" cy="385.5" fill="#000000" rx="3" ry="3" style="stroke:#000000;stroke-width:1.0;"/><path d="M390,406.5 L403,406.5 C440.0586,406.5 479.874,409.3691 517.0454,413.3025 " fill="none" style="stroke:#000000;stroke-width:1.0;stroke-dasharray:3.0,3.0;"/><path d="M516.7035,416.4585 L519.4124,413.559 L517.3874,410.1465 L524.9353,414.1573 L516.7035,416.4585 " fill="#000000" style="stroke:#000000;stroke-width:1.0;"/><ellipse cx="390" cy="406.5" fill="#000000" rx="3" ry="3" style="stroke:#000000;stroke-width:1.0;"/><path d="M390,427.5 L403,427.5 C459.6174,427.5 467.3304,457.4693 521,475.5 C527.1473,477.5652 533.4688,479.5963 539.8731,481.5804 " fill="none" style="stroke:#000000;stroke-width:1.0;stroke-dasharray:3.0,3.0;"/><path d="M538.9504,484.6007 L542.1383,482.2725 L540.7959,478.5601 L547.4238,483.8873 L538.9504,484.6007 " fill="#000000" style="stroke:#000000;stroke-width:1.0;"/><ellipse cx="390" cy="427.5" fill="#000000" rx="3" ry="3" style="stroke:#000000;stroke-width:1.0;"/><path d="M390,447.5 L403,447.5 C473.7951,447.5 458.8449,520.6077 521,554.5 C524.358,556.3311 527.8071,558.0802 531.3261,559.7508 " fill="none" style="stroke:#000000;stroke-width:1.0;stroke-dasharray:3.0,3.0;"/><path d="M530.0794,562.4898 L533.3804,560.6858 L532.5728,557.0117 L538.1738,562.8675 L530.0794,562.4898 " fill="#000000" style="stroke:#000000;stroke-width:1.0;"/><ellipse cx="390" cy="447.5" fill="#000000" rx="3" ry="3" style="stroke:#000000;stroke-width:1.0;"/><path d="M390,468.5 L403,468.5 C493.1565,468.5 446.8938,582.1535 521,633.5 C523.3411,635.1221 525.7463,636.6767 528.206,638.1668 " fill="none" style="stroke:#000000;stroke-width:1.0;stroke-dasharray:3.0,3.0;"/><path d="M526.6879,640.8193 L530.1954,639.3053 L529.724,635.5142 L534.8373,641.9619 L526.6879,640.8193 " fill="#000000" style="stroke:#000000;stroke-width:1.0;"/><ellipse cx="390" cy="468.5" fill="#000000" rx="3" ry="3" style="stroke:#000000;stroke-width:1.0;"/><path d="M390,488.5 L403,488.5 C515.5243,488.5 433.0754,642.2789 521,712.5 C522.7721,713.9153 524.5911,715.2794 526.4517,716.5943 " fill="none" style="stroke:#000000;stroke-width:1.0;stroke-dasharray:3.0,3.0;"/><path d="M524.7384,719.186 L528.3955,717.8792 L528.165,714.0025 L532.9311,720.8775 L524.7384,719.186 " fill="#000000" style="stroke:#000000;stroke-width:1.0;"/><ellipse cx="390" cy="488.5" fill="#000000" rx="3" ry="3" style="stroke:#000000;stroke-width:1.0;"/><path d="M246,336.5 L259,336.5 C302.8518,336.5 348.0003,364.993 371.8339,382.7089 " fill="none" style="stroke:#000000;stroke-width:1.0;stroke-dasharray:3.0,3.0;"/><path d="M369.9625,385.1642 L373.6753,384.1124 L373.7052,380.2536 L377.9721,387.3873 L369.9625,385.1642 " fill="#000000" style="stroke:#000000;stroke-width:1.0;"/><ellipse cx="246" cy="336.5" fill="#000000" rx="3" ry="3" style="stroke:#000000;stroke-width:1.0;"/><!--MD5=[0a38de2760f12c9c6c0230b542037b4c]
@startjson
{
    "field1": "productVendor",
    "combination": "productVendor",
    "null_distribution": {
        "total_null_rows": 0,
        "total_not_null_rows": 110
    },
    "data_distribution": [
        {
            "field_value": "Classic Metal Creations",
            "row_count": 10,
            "ratio_percent": 9.090909090909092
        },
        {
            "field_value": "Carousel DieCast Legends",
            "row_count": 9,
            "ratio_percent": 8.181818181818182
        },
        {
            "field_value": "Gearbox Collectibles",
            "row_count": 9,
            "ratio_percent": 8.181818181818182
        },
        {
            "field_value": "Motor City Art Classics",
            "row_count": 9,
            "ratio_percent": 8.181818181818182
        },
        {
            "field_value": "Exoto Designs",
            "row_count": 9,
            "ratio_percent": 8.181818181818182
        },
        {
            "field_value": "Highway 66 Mini Classics",
            "row_count": 9,
            "ratio_percent": 8.181818181818182
        },
        {
            "field_value": "Unimax Art Galleries",
            "row_count": 8,
            "ratio_percent": 7.2727272727272725
        },
        {
            "field_value": "Welly Diecast Productions",
            "row_count": 8,
            "ratio_percent": 7.2727272727272725
        },
        {
            "field_value": "Min Lin Diecast",
            "row_count": 8,
            "ratio_percent": 7.2727272727272725
        },
        {
            "field_value": "Autoart Studio Design",
            "row_count": 8,
            "ratio_percent": 7.2727272727272725
        }
    ]
}
@endjson

PlantUML version 1.2022.5(Sat Apr 30 06:55:52 EDT 2022)
(GPL source distribution)
Java Runtime: OpenJDK Runtime Environment
JVM: OpenJDK 64-Bit Server VM
Default Encoding: UTF-8
Language: en
Country: CA
--></g></svg>