<?xml version="1.0" encoding="UTF-8" standalone="no"?><svg xmlns="http://www.w3.org/2000/svg" xmlns:xlink="http://www.w3.org/1999/xlink" contentStyleType="text/css" height="794px" preserveAspectRatio="none" style="width:599px;height:794px;background:#FFFFFF;" version="1.1" viewBox="0 0 599 794" width="599px" zoomAndPan="magnify"><defs/><g><rect fill="#F1F1F1" height="81.9531" rx="5" ry="5" style="stroke:#F1F1F1;stroke-width:1.5;" width="169" x="10" y="264.5"/><text fill="#000000" font-family="sans-serif" font-size="14" font-weight="bold" lengthAdjust="spacing" textLength="42" x="15" y="280.0352">field1</text><text fill="#000000" font-family="sans-serif" font-size="14" lengthAdjust="spacing" textLength="25" x="149" y="280.0352">age</text><line style="stroke:#000000;stroke-width:1.0;" x1="144" x2="144" y1="264.5" y2="284.9883"/><line style="stroke:#000000;stroke-width:1.0;" x1="10" x2="179" y1="284.9883" y2="284.9883"/><text fill="#000000" font-family="sans-serif" font-size="14" font-weight="bold" lengthAdjust="spacing" textLength="90" x="15" y="300.5234">combination</text><text fill="#000000" font-family="sans-serif" font-size="14" lengthAdjust="spacing" textLength="25" x="149" y="300.5234">age</text><line style="stroke:#000000;stroke-width:1.0;" x1="144" x2="144" y1="284.9883" y2="305.4766"/><line style="stroke:#000000;stroke-width:1.0;" x1="10" x2="179" y1="305.4766" y2="305.4766"/><text fill="#000000" font-family="sans-serif" font-size="14" font-weight="bold" lengthAdjust="spacing" textLength="121" x="15" y="321.0117">null_distribution</text><text fill="#000000" font-family="sans-serif" font-size="14" lengthAdjust="spacing" textLength="12" x="149" y="321.0117">   </text><line style="stroke:#000000;stroke-width:1.0;" x1="144" x2="144" y1="305.4766" y2="325.9648"/><line style="stroke:#000000;stroke-width:1.0;" x1="10" x2="179" y1="325.9648" y2="325.9648"/><text fill="#000000" font-family="sans-serif" font-size="14" font-weight="bold" lengthAdjust="spacing" textLength="124" x="15" y="341.5">data_distribution</text><text fill="#000000" font-family="sans-serif" font-size="14" lengthAdjust="spacing" textLength="12" x="149" y="341.5">   </text><line style="stroke:#000000;stroke-width:1.0;" x1="144" x2="144" y1="325.9648" y2="346.4531"/><rect fill="none" height="81.9531" rx="5" ry="5" style="stroke:#000000;stroke-width:1.5;" width="169" x="10" y="264.5"/><rect fill="#F1F1F1" height="40.9766" rx="5" ry="5" style="stroke:#F1F1F1;stroke-width:1.5;" width="198" x="216" y="235"/><text fill="#000000" font-family="sans-serif" font-size="14" font-weight="bold" lengthAdjust="spacing" textLength="111" x="221" y="250.5352">total_null_rows</text><text fill="#000000" font-family="sans-serif" font-size="14" lengthAdjust="spacing" textLength="9" x="373" y="250.5352">0</text><line style="stroke:#000000;stroke-width:1.0;" x1="368" x2="368" y1="235" y2="255.4883"/><line style="stroke:#000000;stroke-width:1.0;" x1="216" x2="414" y1="255.4883" y2="255.4883"/><text fill="#000000" font-family="sans-serif" font-size="14" font-weight="bold" lengthAdjust="spacing" textLength="142" x="221" y="271.0234">total_not_null_rows</text><text fill="#000000" font-family="sans-serif" font-size="14" lengthAdjust="spacing" textLength="36" x="373" y="271.0234">1000</text><line style="stroke:#000000;stroke-width:1.0;" x1="368" x2="368" y1="255.4883" y2="275.9766"/><rect fill="none" height="40.9766" rx="5" ry="5" style="stroke:#000000;stroke-width:1.5;" width="198" x="216" y="235"/><rect fill="#F1F1F1" height="204.8828" rx="5" ry="5" style="stroke:#F1F1F1;stroke-width:1.5;" width="22" x="303" y="294"/><text fill="#000000" font-family="sans-serif" font-size="14" lengthAdjust="spacing" textLength="12" x="308" y="309.5352">   </text><line style="stroke:#000000;stroke-width:1.0;" x1="303" x2="325" y1="314.4883" y2="314.4883"/><text fill="#000000" font-family="sans-serif" font-size="14" lengthAdjust="spacing" textLength="12" x="308" y="330.0234">   </text><line style="stroke:#000000;stroke-width:1.0;" x1="303" x2="325" y1="334.9766" y2="334.9766"/><text fill="#000000" font-family="sans-serif" font-size="14" lengthAdjust="spacing" textLength="12" x="308" y="350.5117">   </text><line style="stroke:#000000;stroke-width:1.0;" x1="303" x2="325" y1="355.4648" y2="355.4648"/><text fill="#000000" font-family="sans-serif" font-size="14" lengthAdjust="spacing" textLength="12" x="308" y="371">   </text><line style="stroke:#000000;stroke-width:1.0;" x1="303" x2="325" y1="375.9531" y2="375.9531"/><text fill="#000000" font-family="sans-serif" font-size="14" lengthAdjust="spacing" textLength="12" x="308" y="391.4883">   </text><line style="stroke:#000000;stroke-width:1.0;" x1="303" x2="325" y1="396.4414" y2="396.4414"/><text fill="#000000" font-family="sans-serif" font-size="14" lengthAdjust="spacing" textLength="12" x="308" y="411.9766">   </text><line style="stroke:#000000;stroke-width:1.0;" x1="303" x2="325" y1="416.9297" y2="416.9297"/><text fill="#000000" font-family="sans-serif" font-size="14" lengthAdjust="spacing" textLength="12" x="308" y="432.4648">   </text><line style="stroke:#000000;stroke-width:1.0;" x1="303" x2="325" y1="437.418" y2="437.418"/><text fill="#000000" font-family="sans-serif" font-size="14" lengthAdjust="spacing" textLength="12" x="308" y="452.9531">   </text><line style="stroke:#000000;stroke-width:1.0;" x1="303" x2="325" y1="457.9063" y2="457.9063"/><text fill="#000000" font-family="sans-serif" font-size="14" lengthAdjust="spacing" textLength="12" x="308" y="473.4414">   </text><line style="stroke:#000000;stroke-width:1.0;" x1="303" x2="325" y1="478.3945" y2="478.3945"/><text fill="#000000" font-family="sans-serif" font-size="14" lengthAdjust="spacing" textLength="12" x="308" y="493.9297">   </text><rect fill="none" height="204.8828" rx="5" ry="5" style="stroke:#000000;stroke-width:1.5;" width="22" x="303" y="294"/><rect fill="#F1F1F1" height="61.4648" rx="5" ry="5" style="stroke:#F1F1F1;stroke-width:1.5;" width="136" x="451" y="10"/><text fill="#000000" font-family="sans-serif" font-size="14" font-weight="bold" lengthAdjust="spacing" textLength="94" x="456" y="25.5352">field_value_1</text><text fill="#000000" font-family="sans-serif" font-size="14" lengthAdjust="spacing" textLength="18" x="560" y="25.5352">31</text><line style="stroke:#000000;stroke-width:1.0;" x1="555" x2="555" y1="10" y2="30.4883"/><line style="stroke:#000000;stroke-width:1.0;" x1="451" x2="587" y1="30.4883" y2="30.4883"/><text fill="#000000" font-family="sans-serif" font-size="14" font-weight="bold" lengthAdjust="spacing" textLength="74" x="456" y="46.0234">row_count</text><text fill="#000000" font-family="sans-serif" font-size="14" lengthAdjust="spacing" textLength="18" x="560" y="46.0234">61</text><line style="stroke:#000000;stroke-width:1.0;" x1="555" x2="555" y1="30.4883" y2="50.9766"/><line style="stroke:#000000;stroke-width:1.0;" x1="451" x2="587" y1="50.9766" y2="50.9766"/><text fill="#000000" font-family="sans-serif" font-size="14" font-weight="bold" lengthAdjust="spacing" textLength="94" x="456" y="66.5117">ratio_percent</text><text fill="#000000" font-family="sans-serif" font-size="14" lengthAdjust="spacing" textLength="22" x="560" y="66.5117">6.1</text><line style="stroke:#000000;stroke-width:1.0;" x1="555" x2="555" y1="50.9766" y2="71.4648"/><rect fill="none" height="61.4648" rx="5" ry="5" style="stroke:#000000;stroke-width:1.5;" width="136" x="451" y="10"/><rect fill="#F1F1F1" height="61.4648" rx="5" ry="5" style="stroke:#F1F1F1;stroke-width:1.5;" width="136" x="451" y="89"/><text fill="#000000" font-family="sans-serif" font-size="14" font-weight="bold" lengthAdjust="spacing" textLength="94" x="456" y="104.5352">field_value_1</text><text fill="#000000" font-family="sans-serif" font-size="14" lengthAdjust="spacing" textLength="18" x="560" y="104.5352">39</text><line style="stroke:#000000;stroke-width:1.0;" x1="555" x2="555" y1="89" y2="109.4883"/><line style="stroke:#000000;stroke-width:1.0;" x1="451" x2="587" y1="109.4883" y2="109.4883"/><text fill="#000000" font-family="sans-serif" font-size="14" font-weight="bold" lengthAdjust="spacing" textLength="74" x="456" y="125.0234">row_count</text><text fill="#000000" font-family="sans-serif" font-size="14" lengthAdjust="spacing" textLength="18" x="560" y="125.0234">60</text><line style="stroke:#000000;stroke-width:1.0;" x1="555" x2="555" y1="109.4883" y2="129.9766"/><line style="stroke:#000000;stroke-width:1.0;" x1="451" x2="587" y1="129.9766" y2="129.9766"/><text fill="#000000" font-family="sans-serif" font-size="14" font-weight="bold" lengthAdjust="spacing" textLength="94" x="456" y="145.5117">ratio_percent</text><text fill="#000000" font-family="sans-serif" font-size="14" lengthAdjust="spacing" textLength="22" x="560" y="145.5117">6.0</text><line style="stroke:#000000;stroke-width:1.0;" x1="555" x2="555" y1="129.9766" y2="150.4648"/><rect fill="none" height="61.4648" rx="5" ry="5" style="stroke:#000000;stroke-width:1.5;" width="136" x="451" y="89"/><rect fill="#F1F1F1" height="61.4648" rx="5" ry="5" style="stroke:#F1F1F1;stroke-width:1.5;" width="136" x="451" y="168"/><text fill="#000000" font-family="sans-serif" font-size="14" font-weight="bold" lengthAdjust="spacing" textLength="94" x="456" y="183.5352">field_value_1</text><text fill="#000000" font-family="sans-serif" font-size="14" lengthAdjust="spacing" textLength="18" x="560" y="183.5352">26</text><line style="stroke:#000000;stroke-width:1.0;" x1="555" x2="555" y1="168" y2="188.4883"/><line style="stroke:#000000;stroke-width:1.0;" x1="451" x2="587" y1="188.4883" y2="188.4883"/><text fill="#000000" font-family="sans-serif" font-size="14" font-weight="bold" lengthAdjust="spacing" textLength="74" x="456" y="204.0234">row_count</text><text fill="#000000" font-family="sans-serif" font-size="14" lengthAdjust="spacing" textLength="18" x="560" y="204.0234">59</text><line style="stroke:#000000;stroke-width:1.0;" x1="555" x2="555" y1="188.4883" y2="208.9766"/><line style="stroke:#000000;stroke-width:1.0;" x1="451" x2="587" y1="208.9766" y2="208.9766"/><text fill="#000000" font-family="sans-serif" font-size="14" font-weight="bold" lengthAdjust="spacing" textLength="94" x="456" y="224.5117">ratio_percent</text><text fill="#000000" font-family="sans-serif" font-size="14" lengthAdjust="spacing" textLength="22" x="560" y="224.5117">5.9</text><line style="stroke:#000000;stroke-width:1.0;" x1="555" x2="555" y1="208.9766" y2="229.4648"/><rect fill="none" height="61.4648" rx="5" ry="5" style="stroke:#000000;stroke-width:1.5;" width="136" x="451" y="168"/><rect fill="#F1F1F1" height="61.4648" rx="5" ry="5" style="stroke:#F1F1F1;stroke-width:1.5;" width="136" x="451" y="247"/><text fill="#000000" font-family="sans-serif" font-size="14" font-weight="bold" lengthAdjust="spacing" textLength="94" x="456" y="262.5352">field_value_1</text><text fill="#000000" font-family="sans-serif" font-size="14" lengthAdjust="spacing" textLength="18" x="560" y="262.5352">32</text><line style="stroke:#000000;stroke-width:1.0;" x1="555" x2="555" y1="247" y2="267.4883"/><line style="stroke:#000000;stroke-width:1.0;" x1="451" x2="587" y1="267.4883" y2="267.4883"/><text fill="#000000" font-family="sans-serif" font-size="14" font-weight="bold" lengthAdjust="spacing" textLength="74" x="456" y="283.0234">row_count</text><text fill="#000000" font-family="sans-serif" font-size="14" lengthAdjust="spacing" textLength="18" x="560" y="283.0234">52</text><line style="stroke:#000000;stroke-width:1.0;" x1="555" x2="555" y1="267.4883" y2="287.9766"/><line style="stroke:#000000;stroke-width:1.0;" x1="451" x2="587" y1="287.9766" y2="287.9766"/><text fill="#000000" font-family="sans-serif" font-size="14" font-weight="bold" lengthAdjust="spacing" textLength="94" x="456" y="303.5117">ratio_percent</text><text fill="#000000" font-family="sans-serif" font-size="14" lengthAdjust="spacing" textLength="22" x="560" y="303.5117">5.2</text><line style="stroke:#000000;stroke-width:1.0;" x1="555" x2="555" y1="287.9766" y2="308.4648"/><rect fill="none" height="61.4648" rx="5" ry="5" style="stroke:#000000;stroke-width:1.5;" width="136" x="451" y="247"/><rect fill="#F1F1F1" height="61.4648" rx="5" ry="5" style="stroke:#F1F1F1;stroke-width:1.5;" width="136" x="451" y="326"/><text fill="#000000" font-family="sans-serif" font-size="14" font-weight="bold" lengthAdjust="spacing" textLength="94" x="456" y="341.5352">field_value_1</text><text fill="#000000" font-family="sans-serif" font-size="14" lengthAdjust="spacing" textLength="18" x="560" y="341.5352">35</text><line style="stroke:#000000;stroke-width:1.0;" x1="555" x2="555" y1="326" y2="346.4883"/><line style="stroke:#000000;stroke-width:1.0;" x1="451" x2="587" y1="346.4883" y2="346.4883"/><text fill="#000000" font-family="sans-serif" font-size="14" font-weight="bold" lengthAdjust="spacing" textLength="74" x="456" y="362.0234">row_count</text><text fill="#000000" font-family="sans-serif" font-size="14" lengthAdjust="spacing" textLength="18" x="560" y="362.0234">52</text><line style="stroke:#000000;stroke-width:1.0;" x1="555" x2="555" y1="346.4883" y2="366.9766"/><line style="stroke:#000000;stroke-width:1.0;" x1="451" x2="587" y1="366.9766" y2="366.9766"/><text fill="#000000" font-family="sans-serif" font-size="14" font-weight="bold" lengthAdjust="spacing" textLength="94" x="456" y="382.5117">ratio_percent</text><text fill="#000000" font-family="sans-serif" font-size="14" lengthAdjust="spacing" textLength="22" x="560" y="382.5117">5.2</text><line style="stroke:#000000;stroke-width:1.0;" x1="555" x2="555" y1="366.9766" y2="387.4648"/><rect fill="none" height="61.4648" rx="5" ry="5" style="stroke:#000000;stroke-width:1.5;" width="136" x="451" y="326"/><rect fill="#F1F1F1" height="61.4648" rx="5" ry="5" style="stroke:#F1F1F1;stroke-width:1.5;" width="136" x="451" y="405"/><text fill="#000000" font-family="sans-serif" font-size="14" font-weight="bold" lengthAdjust="spacing" textLength="94" x="456" y="420.5352">field_value_1</text><text fill="#000000" font-family="sans-serif" font-size="14" lengthAdjust="spacing" textLength="18" x="560" y="420.5352">36</text><line style="stroke:#000000;stroke-width:1.0;" x1="555" x2="555" y1="405" y2="425.4883"/><line style="stroke:#000000;stroke-width:1.0;" x1="451" x2="587" y1="425.4883" y2="425.4883"/><text fill="#000000" font-family="sans-serif" font-size="14" font-weight="bold" lengthAdjust="spacing" textLength="74" x="456" y="441.0234">row_count</text><text fill="#000000" font-family="sans-serif" font-size="14" lengthAdjust="spacing" textLength="18" x="560" y="441.0234">52</text><line style="stroke:#000000;stroke-width:1.0;" x1="555" x2="555" y1="425.4883" y2="445.9766"/><line style="stroke:#000000;stroke-width:1.0;" x1="451" x2="587" y1="445.9766" y2="445.9766"/><text fill="#000000" font-family="sans-serif" font-size="14" font-weight="bold" lengthAdjust="spacing" textLength="94" x="456" y="461.5117">ratio_percent</text><text fill="#000000" font-family="sans-serif" font-size="14" lengthAdjust="spacing" textLength="22" x="560" y="461.5117">5.2</text><line style="stroke:#000000;stroke-width:1.0;" x1="555" x2="555" y1="445.9766" y2="466.4648"/><rect fill="none" height="61.4648" rx="5" ry="5" style="stroke:#000000;stroke-width:1.5;" width="136" x="451" y="405"/><rect fill="#F1F1F1" height="61.4648" rx="5" ry="5" style="stroke:#F1F1F1;stroke-width:1.5;" width="136" x="451" y="484"/><text fill="#000000" font-family="sans-serif" font-size="14" font-weight="bold" lengthAdjust="spacing" textLength="94" x="456" y="499.5352">field_value_1</text><text fill="#000000" font-family="sans-serif" font-size="14" lengthAdjust="spacing" textLength="18" x="560" y="499.5352">22</text><line style="stroke:#000000;stroke-width:1.0;" x1="555" x2="555" y1="484" y2="504.4883"/><line style="stroke:#000000;stroke-width:1.0;" x1="451" x2="587" y1="504.4883" y2="504.4883"/><text fill="#000000" font-family="sans-serif" font-size="14" font-weight="bold" lengthAdjust="spacing" textLength="74" x="456" y="520.0234">row_count</text><text fill="#000000" font-family="sans-serif" font-size="14" lengthAdjust="spacing" textLength="18" x="560" y="520.0234">51</text><line style="stroke:#000000;stroke-width:1.0;" x1="555" x2="555" y1="504.4883" y2="524.9766"/><line style="stroke:#000000;stroke-width:1.0;" x1="451" x2="587" y1="524.9766" y2="524.9766"/><text fill="#000000" font-family="sans-serif" font-size="14" font-weight="bold" lengthAdjust="spacing" textLength="94" x="456" y="540.5117">ratio_percent</text><text fill="#000000" font-family="sans-serif" font-size="14" lengthAdjust="spacing" textLength="22" x="560" y="540.5117">5.1</text><line style="stroke:#000000;stroke-width:1.0;" x1="555" x2="555" y1="524.9766" y2="545.4648"/><rect fill="none" height="61.4648" rx="5" ry="5" style="stroke:#000000;stroke-width:1.5;" width="136" x="451" y="484"/><rect fill="#F1F1F1" height="61.4648" rx="5" ry="5" style="stroke:#F1F1F1;stroke-width:1.5;" width="136" x="451" y="563"/><text fill="#000000" font-family="sans-serif" font-size="14" font-weight="bold" lengthAdjust="spacing" textLength="94" x="456" y="578.5352">field_value_1</text><text fill="#000000" font-family="sans-serif" font-size="14" lengthAdjust="spacing" textLength="18" x="560" y="578.5352">28</text><line style="stroke:#000000;stroke-width:1.0;" x1="555" x2="555" y1="563" y2="583.4883"/><line style="stroke:#000000;stroke-width:1.0;" x1="451" x2="587" y1="583.4883" y2="583.4883"/><text fill="#000000" font-family="sans-serif" font-size="14" font-weight="bold" lengthAdjust="spacing" textLength="74" x="456" y="599.0234">row_count</text><text fill="#000000" font-family="sans-serif" font-size="14" lengthAdjust="spacing" textLength="18" x="560" y="599.0234">51</text><line style="stroke:#000000;stroke-width:1.0;" x1="555" x2="555" y1="583.4883" y2="603.9766"/><line style="stroke:#000000;stroke-width:1.0;" x1="451" x2="587" y1="603.9766" y2="603.9766"/><text fill="#000000" font-family="sans-serif" font-size="14" font-weight="bold" lengthAdjust="spacing" textLength="94" x="456" y="619.5117">ratio_percent</text><text fill="#000000" font-family="sans-serif" font-size="14" lengthAdjust="spacing" textLength="22" x="560" y="619.5117">5.1</text><line style="stroke:#000000;stroke-width:1.0;" x1="555" x2="555" y1="603.9766" y2="624.4648"/><rect fill="none" height="61.4648" rx="5" ry="5" style="stroke:#000000;stroke-width:1.5;" width="136" x="451" y="563"/><rect fill="#F1F1F1" height="61.4648" rx="5" ry="5" style="stroke:#F1F1F1;stroke-width:1.5;" width="136" x="451" y="642"/><text fill="#000000" font-family="sans-serif" font-size="14" font-weight="bold" lengthAdjust="spacing" textLength="94" x="456" y="657.5352">field_value_1</text><text fill="#000000" font-family="sans-serif" font-size="14" lengthAdjust="spacing" textLength="18" x="560" y="657.5352">33</text><line style="stroke:#000000;stroke-width:1.0;" x1="555" x2="555" y1="642" y2="662.4883"/><line style="stroke:#000000;stroke-width:1.0;" x1="451" x2="587" y1="662.4883" y2="662.4883"/><text fill="#000000" font-family="sans-serif" font-size="14" font-weight="bold" lengthAdjust="spacing" textLength="74" x="456" y="678.0234">row_count</text><text fill="#000000" font-family="sans-serif" font-size="14" lengthAdjust="spacing" textLength="18" x="560" y="678.0234">50</text><line style="stroke:#000000;stroke-width:1.0;" x1="555" x2="555" y1="662.4883" y2="682.9766"/><line style="stroke:#000000;stroke-width:1.0;" x1="451" x2="587" y1="682.9766" y2="682.9766"/><text fill="#000000" font-family="sans-serif" font-size="14" font-weight="bold" lengthAdjust="spacing" textLength="94" x="456" y="698.5117">ratio_percent</text><text fill="#000000" font-family="sans-serif" font-size="14" lengthAdjust="spacing" textLength="22" x="560" y="698.5117">5.0</text><line style="stroke:#000000;stroke-width:1.0;" x1="555" x2="555" y1="682.9766" y2="703.4648"/><rect fill="none" height="61.4648" rx="5" ry="5" style="stroke:#000000;stroke-width:1.5;" width="136" x="451" y="642"/><rect fill="#F1F1F1" height="61.4648" rx="5" ry="5" style="stroke:#F1F1F1;stroke-width:1.5;" width="136" x="451" y="721"/><text fill="#000000" font-family="sans-serif" font-size="14" font-weight="bold" lengthAdjust="spacing" textLength="94" x="456" y="736.5352">field_value_1</text><text fill="#000000" font-family="sans-serif" font-size="14" lengthAdjust="spacing" textLength="18" x="560" y="736.5352">34</text><line style="stroke:#000000;stroke-width:1.0;" x1="555" x2="555" y1="721" y2="741.4883"/><line style="stroke:#000000;stroke-width:1.0;" x1="451" x2="587" y1="741.4883" y2="741.4883"/><text fill="#000000" font-family="sans-serif" font-size="14" font-weight="bold" lengthAdjust="spacing" textLength="74" x="456" y="757.0234">row_count</text><text fill="#000000" font-family="sans-serif" font-size="14" lengthAdjust="spacing" textLength="18" x="560" y="757.0234">49</text><line style="stroke:#000000;stroke-width:1.0;" x1="555" x2="555" y1="741.4883" y2="761.9766"/><line style="stroke:#000000;stroke-width:1.0;" x1="451" x2="587" y1="761.9766" y2="761.9766"/><text fill="#000000" font-family="sans-serif" font-size="14" font-weight="bold" lengthAdjust="spacing" textLength="94" x="456" y="777.5117">ratio_percent</text><text fill="#000000" font-family="sans-serif" font-size="14" lengthAdjust="spacing" textLength="22" x="560" y="777.5117">4.9</text><line style="stroke:#000000;stroke-width:1.0;" x1="555" x2="555" y1="761.9766" y2="782.4648"/><rect fill="none" height="61.4648" rx="5" ry="5" style="stroke:#000000;stroke-width:1.5;" width="136" x="451" y="721"/><path d="M167,315.5 L180,315.5 C200.8273,315.5 197.6745,295.3971 216,285.5 C220.2321,283.2144 224.6626,281.0778 229.2032,279.0842 " fill="none" style="stroke:#000000;stroke-width:1.0;stroke-dasharray:3.0,3.0;"/><path d="M230.4096,281.9694 L231.3671,278.1794 L227.9968,276.199 L236.4162,276.0682 L230.4096,281.9694 " fill="#000000" style="stroke:#000000;stroke-width:1.0;"/><ellipse cx="167" cy="315.5" fill="#000000" rx="3" ry="3" style="stroke:#000000;stroke-width:1.0;"/><path d="M315.5,305.5 L315.5,292.5 C315.5,281.4171 406.771,292.9239 415,285.5 C484.0097,223.2418 397.7602,155.6836 451,79.5 C451.6541,78.564 452.3385,77.6473 453.0503,76.7497 " fill="none" style="stroke:#000000;stroke-width:1.0;stroke-dasharray:3.0,3.0;"/><path d="M455.3103,78.7772 L454.5709,75.0547 L450.7903,74.7222 L458.119,71.0997 L455.3103,78.7772 " fill="#000000" style="stroke:#000000;stroke-width:1.0;"/><ellipse cx="315.5" cy="305.5" fill="#000000" rx="3" ry="3" style="stroke:#000000;stroke-width:1.0;"/><path d="M315.5,324.5 L328.5,324.5 C370.6713,324.5 387.4563,317.4338 415,285.5 C453.3185,241.074 414.9578,204.7918 451,158.5 C451.8003,157.4721 452.6358,156.4664 453.5028,155.4827 " fill="none" style="stroke:#000000;stroke-width:1.0;stroke-dasharray:3.0,3.0;"/><path d="M455.6611,157.5959 L455.0877,153.864 L451.3445,153.3695 L458.7858,150.087 L455.6611,157.5959 " fill="#000000" style="stroke:#000000;stroke-width:1.0;"/><ellipse cx="315.5" cy="324.5" fill="#000000" rx="3" ry="3" style="stroke:#000000;stroke-width:1.0;"/><path d="M315.5,344.5 L328.5,344.5 C375.0358,344.5 381.3638,317.6588 415,285.5 C434.2747,267.0719 431.0508,255.1957 451,237.5 C452.4175,236.2426 453.8818,235.0062 455.3836,233.7921 " fill="none" style="stroke:#000000;stroke-width:1.0;stroke-dasharray:3.0,3.0;"/><path d="M457.2112,236.1755 L457.1712,232.4214 L453.556,231.4086 L461.3422,229.2231 L457.2112,236.1755 " fill="#000000" style="stroke:#000000;stroke-width:1.0;"/><ellipse cx="315.5" cy="344.5" fill="#000000" rx="3" ry="3" style="stroke:#000000;stroke-width:1.0;"/><path d="M315.5,365.5 L328.5,365.5 C355.211,365.5 413.866,336.5014 458.9881,311.7972 " fill="none" style="stroke:#000000;stroke-width:1.0;stroke-dasharray:3.0,3.0;"/><path d="M460.4946,314.5316 L461.0389,310.6674 L457.4817,309.0629 L465.824,308.0312 L460.4946,314.5316 " fill="#000000" style="stroke:#000000;stroke-width:1.0;"/><ellipse cx="315.5" cy="365.5" fill="#000000" rx="3" ry="3" style="stroke:#000000;stroke-width:1.0;"/><path d="M315.5,385.5 L328.5,385.5 C366.657,385.5 408.636,379.7137 443.4091,373.3104 " fill="none" style="stroke:#000000;stroke-width:1.0;stroke-dasharray:3.0,3.0;"/><path d="M443.9935,376.4149 L445.7375,372.872 L442.8246,370.2059 L451.1703,371.8492 L443.9935,376.4149 " fill="#000000" style="stroke:#000000;stroke-width:1.0;"/><ellipse cx="315.5" cy="385.5" fill="#000000" rx="3" ry="3" style="stroke:#000000;stroke-width:1.0;"/><path d="M315.5,406.5 L328.5,406.5 C366.657,406.5 408.636,412.2863 443.4091,418.6896 " fill="none" style="stroke:#000000;stroke-width:1.0;stroke-dasharray:3.0,3.0;"/><path d="M442.8246,421.7941 L445.7375,419.128 L443.9935,415.5851 L451.1703,420.1508 L442.8246,421.7941 " fill="#000000" style="stroke:#000000;stroke-width:1.0;"/><ellipse cx="315.5" cy="406.5" fill="#000000" rx="3" ry="3" style="stroke:#000000;stroke-width:1.0;"/><path d="M315.5,427.5 L328.5,427.5 C354.9851,427.5 413.0625,455.7992 458.0809,480.1177 " fill="none" style="stroke:#000000;stroke-width:1.0;stroke-dasharray:3.0,3.0;"/><path d="M456.5972,482.8472 L460.1281,481.2305 L459.5647,477.3882 L464.9047,483.8271 L456.5972,482.8472 " fill="#000000" style="stroke:#000000;stroke-width:1.0;"/><ellipse cx="315.5" cy="427.5" fill="#000000" rx="3" ry="3" style="stroke:#000000;stroke-width:1.0;"/><path d="M315.5,447.5 L328.5,447.5 C400.7892,447.5 392.2049,512.4421 451,554.5 C452.9814,555.9174 455.0179,557.3282 457.0919,558.7264 " fill="none" style="stroke:#000000;stroke-width:1.0;stroke-dasharray:3.0,3.0;"/><path d="M455.4315,561.2533 L458.987,559.9717 L458.7522,556.1996 L463.409,562.8773 L455.4315,561.2533 " fill="#000000" style="stroke:#000000;stroke-width:1.0;"/><ellipse cx="315.5" cy="447.5" fill="#000000" rx="3" ry="3" style="stroke:#000000;stroke-width:1.0;"/><path d="M315.5,468.5 L328.5,468.5 C419.8344,468.5 382.8207,572.7253 451,633.5 C452.4144,634.7608 453.876,636.0003 455.3754,637.2172 " fill="none" style="stroke:#000000;stroke-width:1.0;stroke-dasharray:3.0,3.0;"/><path d="M453.5442,639.5975 L457.1606,638.5905 L457.2065,634.8369 L461.3261,641.795 L453.5442,639.5975 " fill="#000000" style="stroke:#000000;stroke-width:1.0;"/><ellipse cx="315.5" cy="468.5" fill="#000000" rx="3" ry="3" style="stroke:#000000;stroke-width:1.0;"/><path d="M315.5,487.5 L315.5,500.5 C315.5,612.3237 370.1778,635.2192 451,712.5 C452.2319,713.6779 453.506,714.8344 454.8151,715.9686 " fill="none" style="stroke:#000000;stroke-width:1.0;stroke-dasharray:3.0,3.0;"/><path d="M452.8838,718.3454 L456.5977,717.417 L456.7463,713.5917 L460.7571,720.7966 L452.8838,718.3454 " fill="#000000" style="stroke:#000000;stroke-width:1.0;"/><ellipse cx="315.5" cy="487.5" fill="#000000" rx="3" ry="3" style="stroke:#000000;stroke-width:1.0;"/><path d="M167,336.5 L180,336.5 C225.3406,336.5 272.4028,365.289 297.0463,382.9834 " fill="none" style="stroke:#000000;stroke-width:1.0;stroke-dasharray:3.0,3.0;"/><path d="M295.181,385.5179 L298.9472,384.3824 L298.9117,380.4489 L303.3825,387.6468 L295.181,385.5179 " fill="#000000" style="stroke:#000000;stroke-width:1.0;"/><ellipse cx="167" cy="336.5" fill="#000000" rx="3" ry="3" style="stroke:#000000;stroke-width:1.0;"/><!--MD5=[2fce00b913d253a44c00d3b008a7c586]
@startjson
{
    "field1": "age",
    "combination": "age",
    "null_distribution": {
        "total_null_rows": 0,
        "total_not_null_rows": 1000
    },
    "data_distribution": [
        {
            "field_value_1": "31",
            "row_count": 61,
            "ratio_percent": 6.1
        },
        {
            "field_value_1": "39",
            "row_count": 60,
            "ratio_percent": 6.0
        },
        {
            "field_value_1": "26",
            "row_count": 59,
            "ratio_percent": 5.9
        },
        {
            "field_value_1": "32",
            "row_count": 52,
            "ratio_percent": 5.2
        },
        {
            "field_value_1": "35",
            "row_count": 52,
            "ratio_percent": 5.2
        },
        {
            "field_value_1": "36",
            "row_count": 52,
            "ratio_percent": 5.2
        },
        {
            "field_value_1": "22",
            "row_count": 51,
            "ratio_percent": 5.1
        },
        {
            "field_value_1": "28",
            "row_count": 51,
            "ratio_percent": 5.1
        },
        {
            "field_value_1": "33",
            "row_count": 50,
            "ratio_percent": 5.0
        },
        {
            "field_value_1": "34",
            "row_count": 49,
            "ratio_percent": 4.9
        }
    ]
}
@endjson

PlantUML version 1.2022.12(Sun Oct 23 14:12:26 EDT 2022)
(GPL source distribution)
Java Runtime: OpenJDK Runtime Environment
JVM: OpenJDK 64-Bit Server VM
Default Encoding: UTF-8
Language: en
Country: CA
--></g></svg>