<?xml version="1.0" encoding="UTF-8" standalone="no"?><svg xmlns="http://www.w3.org/2000/svg" xmlns:xlink="http://www.w3.org/1999/xlink" contentStyleType="text/css" height="794px" preserveAspectRatio="none" style="width:689px;height:794px;background:#FFFFFF;" version="1.1" viewBox="0 0 689 794" width="689px" zoomAndPan="magnify"><defs/><g><rect fill="#F1F1F1" height="81.9531" rx="5" ry="5" style="stroke:#F1F1F1;stroke-width:1.5;" width="259" x="10" y="264.5"/><text fill="#000000" font-family="sans-serif" font-size="14" font-weight="bold" lengthAdjust="spacing" textLength="42" x="15" y="280.0352">field1</text><text fill="#000000" font-family="sans-serif" font-size="14" lengthAdjust="spacing" textLength="115" x="149" y="280.0352">account_number</text><line style="stroke:#000000;stroke-width:1.0;" x1="144" x2="144" y1="264.5" y2="284.9883"/><line style="stroke:#000000;stroke-width:1.0;" x1="10" x2="269" y1="284.9883" y2="284.9883"/><text fill="#000000" font-family="sans-serif" font-size="14" font-weight="bold" lengthAdjust="spacing" textLength="90" x="15" y="300.5234">combination</text><text fill="#000000" font-family="sans-serif" font-size="14" lengthAdjust="spacing" textLength="115" x="149" y="300.5234">account_number</text><line style="stroke:#000000;stroke-width:1.0;" x1="144" x2="144" y1="284.9883" y2="305.4766"/><line style="stroke:#000000;stroke-width:1.0;" x1="10" x2="269" y1="305.4766" y2="305.4766"/><text fill="#000000" font-family="sans-serif" font-size="14" font-weight="bold" lengthAdjust="spacing" textLength="121" x="15" y="321.0117">null_distribution</text><text fill="#000000" font-family="sans-serif" font-size="14" lengthAdjust="spacing" textLength="12" x="149" y="321.0117">   </text><line style="stroke:#000000;stroke-width:1.0;" x1="144" x2="144" y1="305.4766" y2="325.9648"/><line style="stroke:#000000;stroke-width:1.0;" x1="10" x2="269" y1="325.9648" y2="325.9648"/><text fill="#000000" font-family="sans-serif" font-size="14" font-weight="bold" lengthAdjust="spacing" textLength="124" x="15" y="341.5">data_distribution</text><text fill="#000000" font-family="sans-serif" font-size="14" lengthAdjust="spacing" textLength="12" x="149" y="341.5">   </text><line style="stroke:#000000;stroke-width:1.0;" x1="144" x2="144" y1="325.9648" y2="346.4531"/><rect fill="none" height="81.9531" rx="5" ry="5" style="stroke:#000000;stroke-width:1.5;" width="259" x="10" y="264.5"/><rect fill="#F1F1F1" height="40.9766" rx="5" ry="5" style="stroke:#F1F1F1;stroke-width:1.5;" width="198" x="306" y="235"/><text fill="#000000" font-family="sans-serif" font-size="14" font-weight="bold" lengthAdjust="spacing" textLength="111" x="311" y="250.5352">total_null_rows</text><text fill="#000000" font-family="sans-serif" font-size="14" lengthAdjust="spacing" textLength="9" x="463" y="250.5352">0</text><line style="stroke:#000000;stroke-width:1.0;" x1="458" x2="458" y1="235" y2="255.4883"/><line style="stroke:#000000;stroke-width:1.0;" x1="306" x2="504" y1="255.4883" y2="255.4883"/><text fill="#000000" font-family="sans-serif" font-size="14" font-weight="bold" lengthAdjust="spacing" textLength="142" x="311" y="271.0234">total_not_null_rows</text><text fill="#000000" font-family="sans-serif" font-size="14" lengthAdjust="spacing" textLength="36" x="463" y="271.0234">1000</text><line style="stroke:#000000;stroke-width:1.0;" x1="458" x2="458" y1="255.4883" y2="275.9766"/><rect fill="none" height="40.9766" rx="5" ry="5" style="stroke:#000000;stroke-width:1.5;" width="198" x="306" y="235"/><rect fill="#F1F1F1" height="204.8828" rx="5" ry="5" style="stroke:#F1F1F1;stroke-width:1.5;" width="22" x="393" y="294"/><text fill="#000000" font-family="sans-serif" font-size="14" lengthAdjust="spacing" textLength="12" x="398" y="309.5352">   </text><line style="stroke:#000000;stroke-width:1.0;" x1="393" x2="415" y1="314.4883" y2="314.4883"/><text fill="#000000" font-family="sans-serif" font-size="14" lengthAdjust="spacing" textLength="12" x="398" y="330.0234">   </text><line style="stroke:#000000;stroke-width:1.0;" x1="393" x2="415" y1="334.9766" y2="334.9766"/><text fill="#000000" font-family="sans-serif" font-size="14" lengthAdjust="spacing" textLength="12" x="398" y="350.5117">   </text><line style="stroke:#000000;stroke-width:1.0;" x1="393" x2="415" y1="355.4648" y2="355.4648"/><text fill="#000000" font-family="sans-serif" font-size="14" lengthAdjust="spacing" textLength="12" x="398" y="371">   </text><line style="stroke:#000000;stroke-width:1.0;" x1="393" x2="415" y1="375.9531" y2="375.9531"/><text fill="#000000" font-family="sans-serif" font-size="14" lengthAdjust="spacing" textLength="12" x="398" y="391.4883">   </text><line style="stroke:#000000;stroke-width:1.0;" x1="393" x2="415" y1="396.4414" y2="396.4414"/><text fill="#000000" font-family="sans-serif" font-size="14" lengthAdjust="spacing" textLength="12" x="398" y="411.9766">   </text><line style="stroke:#000000;stroke-width:1.0;" x1="393" x2="415" y1="416.9297" y2="416.9297"/><text fill="#000000" font-family="sans-serif" font-size="14" lengthAdjust="spacing" textLength="12" x="398" y="432.4648">   </text><line style="stroke:#000000;stroke-width:1.0;" x1="393" x2="415" y1="437.418" y2="437.418"/><text fill="#000000" font-family="sans-serif" font-size="14" lengthAdjust="spacing" textLength="12" x="398" y="452.9531">   </text><line style="stroke:#000000;stroke-width:1.0;" x1="393" x2="415" y1="457.9063" y2="457.9063"/><text fill="#000000" font-family="sans-serif" font-size="14" lengthAdjust="spacing" textLength="12" x="398" y="473.4414">   </text><line style="stroke:#000000;stroke-width:1.0;" x1="393" x2="415" y1="478.3945" y2="478.3945"/><text fill="#000000" font-family="sans-serif" font-size="14" lengthAdjust="spacing" textLength="12" x="398" y="493.9297">   </text><rect fill="none" height="204.8828" rx="5" ry="5" style="stroke:#000000;stroke-width:1.5;" width="22" x="393" y="294"/><rect fill="#F1F1F1" height="61.4648" rx="5" ry="5" style="stroke:#F1F1F1;stroke-width:1.5;" width="136" x="541" y="10"/><text fill="#000000" font-family="sans-serif" font-size="14" font-weight="bold" lengthAdjust="spacing" textLength="94" x="546" y="25.5352">field_value_1</text><text fill="#000000" font-family="sans-serif" font-size="14" lengthAdjust="spacing" textLength="9" x="650" y="25.5352">0</text><line style="stroke:#000000;stroke-width:1.0;" x1="645" x2="645" y1="10" y2="30.4883"/><line style="stroke:#000000;stroke-width:1.0;" x1="541" x2="677" y1="30.4883" y2="30.4883"/><text fill="#000000" font-family="sans-serif" font-size="14" font-weight="bold" lengthAdjust="spacing" textLength="74" x="546" y="46.0234">row_count</text><text fill="#000000" font-family="sans-serif" font-size="14" lengthAdjust="spacing" textLength="9" x="650" y="46.0234">1</text><line style="stroke:#000000;stroke-width:1.0;" x1="645" x2="645" y1="30.4883" y2="50.9766"/><line style="stroke:#000000;stroke-width:1.0;" x1="541" x2="677" y1="50.9766" y2="50.9766"/><text fill="#000000" font-family="sans-serif" font-size="14" font-weight="bold" lengthAdjust="spacing" textLength="94" x="546" y="66.5117">ratio_percent</text><text fill="#000000" font-family="sans-serif" font-size="14" lengthAdjust="spacing" textLength="22" x="650" y="66.5117">0.1</text><line style="stroke:#000000;stroke-width:1.0;" x1="645" x2="645" y1="50.9766" y2="71.4648"/><rect fill="none" height="61.4648" rx="5" ry="5" style="stroke:#000000;stroke-width:1.5;" width="136" x="541" y="10"/><rect fill="#F1F1F1" height="61.4648" rx="5" ry="5" style="stroke:#F1F1F1;stroke-width:1.5;" width="136" x="541" y="89"/><text fill="#000000" font-family="sans-serif" font-size="14" font-weight="bold" lengthAdjust="spacing" textLength="94" x="546" y="104.5352">field_value_1</text><text fill="#000000" font-family="sans-serif" font-size="14" lengthAdjust="spacing" textLength="9" x="650" y="104.5352">1</text><line style="stroke:#000000;stroke-width:1.0;" x1="645" x2="645" y1="89" y2="109.4883"/><line style="stroke:#000000;stroke-width:1.0;" x1="541" x2="677" y1="109.4883" y2="109.4883"/><text fill="#000000" font-family="sans-serif" font-size="14" font-weight="bold" lengthAdjust="spacing" textLength="74" x="546" y="125.0234">row_count</text><text fill="#000000" font-family="sans-serif" font-size="14" lengthAdjust="spacing" textLength="9" x="650" y="125.0234">1</text><line style="stroke:#000000;stroke-width:1.0;" x1="645" x2="645" y1="109.4883" y2="129.9766"/><line style="stroke:#000000;stroke-width:1.0;" x1="541" x2="677" y1="129.9766" y2="129.9766"/><text fill="#000000" font-family="sans-serif" font-size="14" font-weight="bold" lengthAdjust="spacing" textLength="94" x="546" y="145.5117">ratio_percent</text><text fill="#000000" font-family="sans-serif" font-size="14" lengthAdjust="spacing" textLength="22" x="650" y="145.5117">0.1</text><line style="stroke:#000000;stroke-width:1.0;" x1="645" x2="645" y1="129.9766" y2="150.4648"/><rect fill="none" height="61.4648" rx="5" ry="5" style="stroke:#000000;stroke-width:1.5;" width="136" x="541" y="89"/><rect fill="#F1F1F1" height="61.4648" rx="5" ry="5" style="stroke:#F1F1F1;stroke-width:1.5;" width="136" x="541" y="168"/><text fill="#000000" font-family="sans-serif" font-size="14" font-weight="bold" lengthAdjust="spacing" textLength="94" x="546" y="183.5352">field_value_1</text><text fill="#000000" font-family="sans-serif" font-size="14" lengthAdjust="spacing" textLength="9" x="650" y="183.5352">2</text><line style="stroke:#000000;stroke-width:1.0;" x1="645" x2="645" y1="168" y2="188.4883"/><line style="stroke:#000000;stroke-width:1.0;" x1="541" x2="677" y1="188.4883" y2="188.4883"/><text fill="#000000" font-family="sans-serif" font-size="14" font-weight="bold" lengthAdjust="spacing" textLength="74" x="546" y="204.0234">row_count</text><text fill="#000000" font-family="sans-serif" font-size="14" lengthAdjust="spacing" textLength="9" x="650" y="204.0234">1</text><line style="stroke:#000000;stroke-width:1.0;" x1="645" x2="645" y1="188.4883" y2="208.9766"/><line style="stroke:#000000;stroke-width:1.0;" x1="541" x2="677" y1="208.9766" y2="208.9766"/><text fill="#000000" font-family="sans-serif" font-size="14" font-weight="bold" lengthAdjust="spacing" textLength="94" x="546" y="224.5117">ratio_percent</text><text fill="#000000" font-family="sans-serif" font-size="14" lengthAdjust="spacing" textLength="22" x="650" y="224.5117">0.1</text><line style="stroke:#000000;stroke-width:1.0;" x1="645" x2="645" y1="208.9766" y2="229.4648"/><rect fill="none" height="61.4648" rx="5" ry="5" style="stroke:#000000;stroke-width:1.5;" width="136" x="541" y="168"/><rect fill="#F1F1F1" height="61.4648" rx="5" ry="5" style="stroke:#F1F1F1;stroke-width:1.5;" width="136" x="541" y="247"/><text fill="#000000" font-family="sans-serif" font-size="14" font-weight="bold" lengthAdjust="spacing" textLength="94" x="546" y="262.5352">field_value_1</text><text fill="#000000" font-family="sans-serif" font-size="14" lengthAdjust="spacing" textLength="9" x="650" y="262.5352">3</text><line style="stroke:#000000;stroke-width:1.0;" x1="645" x2="645" y1="247" y2="267.4883"/><line style="stroke:#000000;stroke-width:1.0;" x1="541" x2="677" y1="267.4883" y2="267.4883"/><text fill="#000000" font-family="sans-serif" font-size="14" font-weight="bold" lengthAdjust="spacing" textLength="74" x="546" y="283.0234">row_count</text><text fill="#000000" font-family="sans-serif" font-size="14" lengthAdjust="spacing" textLength="9" x="650" y="283.0234">1</text><line style="stroke:#000000;stroke-width:1.0;" x1="645" x2="645" y1="267.4883" y2="287.9766"/><line style="stroke:#000000;stroke-width:1.0;" x1="541" x2="677" y1="287.9766" y2="287.9766"/><text fill="#000000" font-family="sans-serif" font-size="14" font-weight="bold" lengthAdjust="spacing" textLength="94" x="546" y="303.5117">ratio_percent</text><text fill="#000000" font-family="sans-serif" font-size="14" lengthAdjust="spacing" textLength="22" x="650" y="303.5117">0.1</text><line style="stroke:#000000;stroke-width:1.0;" x1="645" x2="645" y1="287.9766" y2="308.4648"/><rect fill="none" height="61.4648" rx="5" ry="5" style="stroke:#000000;stroke-width:1.5;" width="136" x="541" y="247"/><rect fill="#F1F1F1" height="61.4648" rx="5" ry="5" style="stroke:#F1F1F1;stroke-width:1.5;" width="136" x="541" y="326"/><text fill="#000000" font-family="sans-serif" font-size="14" font-weight="bold" lengthAdjust="spacing" textLength="94" x="546" y="341.5352">field_value_1</text><text fill="#000000" font-family="sans-serif" font-size="14" lengthAdjust="spacing" textLength="9" x="650" y="341.5352">4</text><line style="stroke:#000000;stroke-width:1.0;" x1="645" x2="645" y1="326" y2="346.4883"/><line style="stroke:#000000;stroke-width:1.0;" x1="541" x2="677" y1="346.4883" y2="346.4883"/><text fill="#000000" font-family="sans-serif" font-size="14" font-weight="bold" lengthAdjust="spacing" textLength="74" x="546" y="362.0234">row_count</text><text fill="#000000" font-family="sans-serif" font-size="14" lengthAdjust="spacing" textLength="9" x="650" y="362.0234">1</text><line style="stroke:#000000;stroke-width:1.0;" x1="645" x2="645" y1="346.4883" y2="366.9766"/><line style="stroke:#000000;stroke-width:1.0;" x1="541" x2="677" y1="366.9766" y2="366.9766"/><text fill="#000000" font-family="sans-serif" font-size="14" font-weight="bold" lengthAdjust="spacing" textLength="94" x="546" y="382.5117">ratio_percent</text><text fill="#000000" font-family="sans-serif" font-size="14" lengthAdjust="spacing" textLength="22" x="650" y="382.5117">0.1</text><line style="stroke:#000000;stroke-width:1.0;" x1="645" x2="645" y1="366.9766" y2="387.4648"/><rect fill="none" height="61.4648" rx="5" ry="5" style="stroke:#000000;stroke-width:1.5;" width="136" x="541" y="326"/><rect fill="#F1F1F1" height="61.4648" rx="5" ry="5" style="stroke:#F1F1F1;stroke-width:1.5;" width="136" x="541" y="405"/><text fill="#000000" font-family="sans-serif" font-size="14" font-weight="bold" lengthAdjust="spacing" textLength="94" x="546" y="420.5352">field_value_1</text><text fill="#000000" font-family="sans-serif" font-size="14" lengthAdjust="spacing" textLength="9" x="650" y="420.5352">5</text><line style="stroke:#000000;stroke-width:1.0;" x1="645" x2="645" y1="405" y2="425.4883"/><line style="stroke:#000000;stroke-width:1.0;" x1="541" x2="677" y1="425.4883" y2="425.4883"/><text fill="#000000" font-family="sans-serif" font-size="14" font-weight="bold" lengthAdjust="spacing" textLength="74" x="546" y="441.0234">row_count</text><text fill="#000000" font-family="sans-serif" font-size="14" lengthAdjust="spacing" textLength="9" x="650" y="441.0234">1</text><line style="stroke:#000000;stroke-width:1.0;" x1="645" x2="645" y1="425.4883" y2="445.9766"/><line style="stroke:#000000;stroke-width:1.0;" x1="541" x2="677" y1="445.9766" y2="445.9766"/><text fill="#000000" font-family="sans-serif" font-size="14" font-weight="bold" lengthAdjust="spacing" textLength="94" x="546" y="461.5117">ratio_percent</text><text fill="#000000" font-family="sans-serif" font-size="14" lengthAdjust="spacing" textLength="22" x="650" y="461.5117">0.1</text><line style="stroke:#000000;stroke-width:1.0;" x1="645" x2="645" y1="445.9766" y2="466.4648"/><rect fill="none" height="61.4648" rx="5" ry="5" style="stroke:#000000;stroke-width:1.5;" width="136" x="541" y="405"/><rect fill="#F1F1F1" height="61.4648" rx="5" ry="5" style="stroke:#F1F1F1;stroke-width:1.5;" width="136" x="541" y="484"/><text fill="#000000" font-family="sans-serif" font-size="14" font-weight="bold" lengthAdjust="spacing" textLength="94" x="546" y="499.5352">field_value_1</text><text fill="#000000" font-family="sans-serif" font-size="14" lengthAdjust="spacing" textLength="9" x="650" y="499.5352">6</text><line style="stroke:#000000;stroke-width:1.0;" x1="645" x2="645" y1="484" y2="504.4883"/><line style="stroke:#000000;stroke-width:1.0;" x1="541" x2="677" y1="504.4883" y2="504.4883"/><text fill="#000000" font-family="sans-serif" font-size="14" font-weight="bold" lengthAdjust="spacing" textLength="74" x="546" y="520.0234">row_count</text><text fill="#000000" font-family="sans-serif" font-size="14" lengthAdjust="spacing" textLength="9" x="650" y="520.0234">1</text><line style="stroke:#000000;stroke-width:1.0;" x1="645" x2="645" y1="504.4883" y2="524.9766"/><line style="stroke:#000000;stroke-width:1.0;" x1="541" x2="677" y1="524.9766" y2="524.9766"/><text fill="#000000" font-family="sans-serif" font-size="14" font-weight="bold" lengthAdjust="spacing" textLength="94" x="546" y="540.5117">ratio_percent</text><text fill="#000000" font-family="sans-serif" font-size="14" lengthAdjust="spacing" textLength="22" x="650" y="540.5117">0.1</text><line style="stroke:#000000;stroke-width:1.0;" x1="645" x2="645" y1="524.9766" y2="545.4648"/><rect fill="none" height="61.4648" rx="5" ry="5" style="stroke:#000000;stroke-width:1.5;" width="136" x="541" y="484"/><rect fill="#F1F1F1" height="61.4648" rx="5" ry="5" style="stroke:#F1F1F1;stroke-width:1.5;" width="136" x="541" y="563"/><text fill="#000000" font-family="sans-serif" font-size="14" font-weight="bold" lengthAdjust="spacing" textLength="94" x="546" y="578.5352">field_value_1</text><text fill="#000000" font-family="sans-serif" font-size="14" lengthAdjust="spacing" textLength="9" x="650" y="578.5352">7</text><line style="stroke:#000000;stroke-width:1.0;" x1="645" x2="645" y1="563" y2="583.4883"/><line style="stroke:#000000;stroke-width:1.0;" x1="541" x2="677" y1="583.4883" y2="583.4883"/><text fill="#000000" font-family="sans-serif" font-size="14" font-weight="bold" lengthAdjust="spacing" textLength="74" x="546" y="599.0234">row_count</text><text fill="#000000" font-family="sans-serif" font-size="14" lengthAdjust="spacing" textLength="9" x="650" y="599.0234">1</text><line style="stroke:#000000;stroke-width:1.0;" x1="645" x2="645" y1="583.4883" y2="603.9766"/><line style="stroke:#000000;stroke-width:1.0;" x1="541" x2="677" y1="603.9766" y2="603.9766"/><text fill="#000000" font-family="sans-serif" font-size="14" font-weight="bold" lengthAdjust="spacing" textLength="94" x="546" y="619.5117">ratio_percent</text><text fill="#000000" font-family="sans-serif" font-size="14" lengthAdjust="spacing" textLength="22" x="650" y="619.5117">0.1</text><line style="stroke:#000000;stroke-width:1.0;" x1="645" x2="645" y1="603.9766" y2="624.4648"/><rect fill="none" height="61.4648" rx="5" ry="5" style="stroke:#000000;stroke-width:1.5;" width="136" x="541" y="563"/><rect fill="#F1F1F1" height="61.4648" rx="5" ry="5" style="stroke:#F1F1F1;stroke-width:1.5;" width="136" x="541" y="642"/><text fill="#000000" font-family="sans-serif" font-size="14" font-weight="bold" lengthAdjust="spacing" textLength="94" x="546" y="657.5352">field_value_1</text><text fill="#000000" font-family="sans-serif" font-size="14" lengthAdjust="spacing" textLength="9" x="650" y="657.5352">8</text><line style="stroke:#000000;stroke-width:1.0;" x1="645" x2="645" y1="642" y2="662.4883"/><line style="stroke:#000000;stroke-width:1.0;" x1="541" x2="677" y1="662.4883" y2="662.4883"/><text fill="#000000" font-family="sans-serif" font-size="14" font-weight="bold" lengthAdjust="spacing" textLength="74" x="546" y="678.0234">row_count</text><text fill="#000000" font-family="sans-serif" font-size="14" lengthAdjust="spacing" textLength="9" x="650" y="678.0234">1</text><line style="stroke:#000000;stroke-width:1.0;" x1="645" x2="645" y1="662.4883" y2="682.9766"/><line style="stroke:#000000;stroke-width:1.0;" x1="541" x2="677" y1="682.9766" y2="682.9766"/><text fill="#000000" font-family="sans-serif" font-size="14" font-weight="bold" lengthAdjust="spacing" textLength="94" x="546" y="698.5117">ratio_percent</text><text fill="#000000" font-family="sans-serif" font-size="14" lengthAdjust="spacing" textLength="22" x="650" y="698.5117">0.1</text><line style="stroke:#000000;stroke-width:1.0;" x1="645" x2="645" y1="682.9766" y2="703.4648"/><rect fill="none" height="61.4648" rx="5" ry="5" style="stroke:#000000;stroke-width:1.5;" width="136" x="541" y="642"/><rect fill="#F1F1F1" height="61.4648" rx="5" ry="5" style="stroke:#F1F1F1;stroke-width:1.5;" width="136" x="541" y="721"/><text fill="#000000" font-family="sans-serif" font-size="14" font-weight="bold" lengthAdjust="spacing" textLength="94" x="546" y="736.5352">field_value_1</text><text fill="#000000" font-family="sans-serif" font-size="14" lengthAdjust="spacing" textLength="9" x="650" y="736.5352">9</text><line style="stroke:#000000;stroke-width:1.0;" x1="645" x2="645" y1="721" y2="741.4883"/><line style="stroke:#000000;stroke-width:1.0;" x1="541" x2="677" y1="741.4883" y2="741.4883"/><text fill="#000000" font-family="sans-serif" font-size="14" font-weight="bold" lengthAdjust="spacing" textLength="74" x="546" y="757.0234">row_count</text><text fill="#000000" font-family="sans-serif" font-size="14" lengthAdjust="spacing" textLength="9" x="650" y="757.0234">1</text><line style="stroke:#000000;stroke-width:1.0;" x1="645" x2="645" y1="741.4883" y2="761.9766"/><line style="stroke:#000000;stroke-width:1.0;" x1="541" x2="677" y1="761.9766" y2="761.9766"/><text fill="#000000" font-family="sans-serif" font-size="14" font-weight="bold" lengthAdjust="spacing" textLength="94" x="546" y="777.5117">ratio_percent</text><text fill="#000000" font-family="sans-serif" font-size="14" lengthAdjust="spacing" textLength="22" x="650" y="777.5117">0.1</text><line style="stroke:#000000;stroke-width:1.0;" x1="645" x2="645" y1="761.9766" y2="782.4648"/><rect fill="none" height="61.4648" rx="5" ry="5" style="stroke:#000000;stroke-width:1.5;" width="136" x="541" y="721"/><path d="M257,315.5 L270,315.5 C290.8273,315.5 287.6745,295.3971 306,285.5 C310.2321,283.2144 314.6626,281.0778 319.2032,279.0842 " fill="none" style="stroke:#000000;stroke-width:1.0;stroke-dasharray:3.0,3.0;"/><path d="M320.4096,281.9694 L321.3671,278.1794 L317.9968,276.199 L326.4162,276.0682 L320.4096,281.9694 " fill="#000000" style="stroke:#000000;stroke-width:1.0;"/><ellipse cx="257" cy="315.5" fill="#000000" rx="3" ry="3" style="stroke:#000000;stroke-width:1.0;"/><path d="M405.5,305.5 L405.5,292.5 C405.5,281.4171 496.771,292.9239 505,285.5 C574.0097,223.2418 487.7602,155.6836 541,79.5 C541.6541,78.564 542.3385,77.6473 543.0503,76.7497 " fill="none" style="stroke:#000000;stroke-width:1.0;stroke-dasharray:3.0,3.0;"/><path d="M545.3103,78.7772 L544.5709,75.0547 L540.7903,74.7222 L548.119,71.0997 L545.3103,78.7772 " fill="#000000" style="stroke:#000000;stroke-width:1.0;"/><ellipse cx="405.5" cy="305.5" fill="#000000" rx="3" ry="3" style="stroke:#000000;stroke-width:1.0;"/><path d="M405.5,324.5 L418.5,324.5 C460.6713,324.5 477.4563,317.4338 505,285.5 C543.3185,241.074 504.9578,204.7918 541,158.5 C541.8003,157.4721 542.6358,156.4664 543.5028,155.4827 " fill="none" style="stroke:#000000;stroke-width:1.0;stroke-dasharray:3.0,3.0;"/><path d="M545.6611,157.5959 L545.0877,153.864 L541.3445,153.3695 L548.7858,150.087 L545.6611,157.5959 " fill="#000000" style="stroke:#000000;stroke-width:1.0;"/><ellipse cx="405.5" cy="324.5" fill="#000000" rx="3" ry="3" style="stroke:#000000;stroke-width:1.0;"/><path d="M405.5,344.5 L418.5,344.5 C465.0358,344.5 471.3638,317.6588 505,285.5 C524.2747,267.0719 521.0508,255.1957 541,237.5 C542.4175,236.2426 543.8818,235.0062 545.3836,233.7921 " fill="none" style="stroke:#000000;stroke-width:1.0;stroke-dasharray:3.0,3.0;"/><path d="M547.2112,236.1755 L547.1712,232.4214 L543.556,231.4086 L551.3422,229.2231 L547.2112,236.1755 " fill="#000000" style="stroke:#000000;stroke-width:1.0;"/><ellipse cx="405.5" cy="344.5" fill="#000000" rx="3" ry="3" style="stroke:#000000;stroke-width:1.0;"/><path d="M405.5,365.5 L418.5,365.5 C445.211,365.5 503.866,336.5014 548.9881,311.7972 " fill="none" style="stroke:#000000;stroke-width:1.0;stroke-dasharray:3.0,3.0;"/><path d="M550.4946,314.5316 L551.0389,310.6674 L547.4817,309.0629 L555.824,308.0312 L550.4946,314.5316 " fill="#000000" style="stroke:#000000;stroke-width:1.0;"/><ellipse cx="405.5" cy="365.5" fill="#000000" rx="3" ry="3" style="stroke:#000000;stroke-width:1.0;"/><path d="M405.5,385.5 L418.5,385.5 C456.657,385.5 498.636,379.7137 533.4091,373.3104 " fill="none" style="stroke:#000000;stroke-width:1.0;stroke-dasharray:3.0,3.0;"/><path d="M533.9935,376.4149 L535.7375,372.872 L532.8246,370.2059 L541.1703,371.8492 L533.9935,376.4149 " fill="#000000" style="stroke:#000000;stroke-width:1.0;"/><ellipse cx="405.5" cy="385.5" fill="#000000" rx="3" ry="3" style="stroke:#000000;stroke-width:1.0;"/><path d="M405.5,406.5 L418.5,406.5 C456.657,406.5 498.636,412.2863 533.4091,418.6896 " fill="none" style="stroke:#000000;stroke-width:1.0;stroke-dasharray:3.0,3.0;"/><path d="M532.8246,421.7941 L535.7375,419.128 L533.9935,415.5851 L541.1703,420.1508 L532.8246,421.7941 " fill="#000000" style="stroke:#000000;stroke-width:1.0;"/><ellipse cx="405.5" cy="406.5" fill="#000000" rx="3" ry="3" style="stroke:#000000;stroke-width:1.0;"/><path d="M405.5,427.5 L418.5,427.5 C444.9851,427.5 503.0625,455.7992 548.0809,480.1177 " fill="none" style="stroke:#000000;stroke-width:1.0;stroke-dasharray:3.0,3.0;"/><path d="M546.5972,482.8472 L550.1281,481.2305 L549.5647,477.3882 L554.9047,483.8271 L546.5972,482.8472 " fill="#000000" style="stroke:#000000;stroke-width:1.0;"/><ellipse cx="405.5" cy="427.5" fill="#000000" rx="3" ry="3" style="stroke:#000000;stroke-width:1.0;"/><path d="M405.5,447.5 L418.5,447.5 C490.7892,447.5 482.2049,512.4421 541,554.5 C542.9814,555.9174 545.0179,557.3282 547.0919,558.7264 " fill="none" style="stroke:#000000;stroke-width:1.0;stroke-dasharray:3.0,3.0;"/><path d="M545.4315,561.2533 L548.987,559.9717 L548.7522,556.1996 L553.409,562.8773 L545.4315,561.2533 " fill="#000000" style="stroke:#000000;stroke-width:1.0;"/><ellipse cx="405.5" cy="447.5" fill="#000000" rx="3" ry="3" style="stroke:#000000;stroke-width:1.0;"/><path d="M405.5,468.5 L418.5,468.5 C509.8344,468.5 472.8207,572.7253 541,633.5 C542.4144,634.7608 543.876,636.0003 545.3754,637.2172 " fill="none" style="stroke:#000000;stroke-width:1.0;stroke-dasharray:3.0,3.0;"/><path d="M543.5442,639.5975 L547.1606,638.5905 L547.2065,634.8369 L551.3261,641.795 L543.5442,639.5975 " fill="#000000" style="stroke:#000000;stroke-width:1.0;"/><ellipse cx="405.5" cy="468.5" fill="#000000" rx="3" ry="3" style="stroke:#000000;stroke-width:1.0;"/><path d="M405.5,487.5 L405.5,500.5 C405.5,612.3237 460.1778,635.2192 541,712.5 C542.2319,713.6779 543.506,714.8344 544.8151,715.9686 " fill="none" style="stroke:#000000;stroke-width:1.0;stroke-dasharray:3.0,3.0;"/><path d="M542.8838,718.3454 L546.5977,717.417 L546.7463,713.5917 L550.7571,720.7966 L542.8838,718.3454 " fill="#000000" style="stroke:#000000;stroke-width:1.0;"/><ellipse cx="405.5" cy="487.5" fill="#000000" rx="3" ry="3" style="stroke:#000000;stroke-width:1.0;"/><path d="M257,336.5 L270,336.5 C315.3406,336.5 362.4028,365.289 387.0463,382.9834 " fill="none" style="stroke:#000000;stroke-width:1.0;stroke-dasharray:3.0,3.0;"/><path d="M385.181,385.5179 L388.9472,384.3824 L388.9117,380.4489 L393.3825,387.6468 L385.181,385.5179 " fill="#000000" style="stroke:#000000;stroke-width:1.0;"/><ellipse cx="257" cy="336.5" fill="#000000" rx="3" ry="3" style="stroke:#000000;stroke-width:1.0;"/><!--MD5=[519c69b2adf99419df893c92cc36d5ad]
@startjson
{
    "field1": "account_number",
    "combination": "account_number",
    "null_distribution": {
        "total_null_rows": 0,
        "total_not_null_rows": 1000
    },
    "data_distribution": [
        {
            "field_value_1": "0",
            "row_count": 1,
            "ratio_percent": 0.1
        },
        {
            "field_value_1": "1",
            "row_count": 1,
            "ratio_percent": 0.1
        },
        {
            "field_value_1": "2",
            "row_count": 1,
            "ratio_percent": 0.1
        },
        {
            "field_value_1": "3",
            "row_count": 1,
            "ratio_percent": 0.1
        },
        {
            "field_value_1": "4",
            "row_count": 1,
            "ratio_percent": 0.1
        },
        {
            "field_value_1": "5",
            "row_count": 1,
            "ratio_percent": 0.1
        },
        {
            "field_value_1": "6",
            "row_count": 1,
            "ratio_percent": 0.1
        },
        {
            "field_value_1": "7",
            "row_count": 1,
            "ratio_percent": 0.1
        },
        {
            "field_value_1": "8",
            "row_count": 1,
            "ratio_percent": 0.1
        },
        {
            "field_value_1": "9",
            "row_count": 1,
            "ratio_percent": 0.1
        }
    ]
}
@endjson

PlantUML version 1.2022.12(Sun Oct 23 14:12:26 EDT 2022)
(GPL source distribution)
Java Runtime: OpenJDK Runtime Environment
JVM: OpenJDK 64-Bit Server VM
Default Encoding: UTF-8
Language: en
Country: CA
--></g></svg>