<?xml version="1.0" encoding="UTF-8" standalone="no"?><svg xmlns="http://www.w3.org/2000/svg" xmlns:xlink="http://www.w3.org/1999/xlink" contentStyleType="text/css" height="794px" preserveAspectRatio="none" style="width:656px;height:794px;background:#FFFFFF;" version="1.1" viewBox="0 0 656 794" width="656px" zoomAndPan="magnify"><defs/><g><rect fill="#F1F1F1" height="81.9531" rx="5" ry="5" style="stroke:#F1F1F1;stroke-width:1.5;" width="167" x="10" y="264.5"/><text fill="#000000" font-family="sans-serif" font-size="14" font-weight="bold" lengthAdjust="spacing" textLength="42" x="15" y="280.0352">field1</text><text fill="#000000" font-family="sans-serif" font-size="14" lengthAdjust="spacing" textLength="23" x="149" y="280.0352">city</text><line style="stroke:#000000;stroke-width:1.0;" x1="144" x2="144" y1="264.5" y2="284.9883"/><line style="stroke:#000000;stroke-width:1.0;" x1="10" x2="177" y1="284.9883" y2="284.9883"/><text fill="#000000" font-family="sans-serif" font-size="14" font-weight="bold" lengthAdjust="spacing" textLength="90" x="15" y="300.5234">combination</text><text fill="#000000" font-family="sans-serif" font-size="14" lengthAdjust="spacing" textLength="23" x="149" y="300.5234">city</text><line style="stroke:#000000;stroke-width:1.0;" x1="144" x2="144" y1="284.9883" y2="305.4766"/><line style="stroke:#000000;stroke-width:1.0;" x1="10" x2="177" y1="305.4766" y2="305.4766"/><text fill="#000000" font-family="sans-serif" font-size="14" font-weight="bold" lengthAdjust="spacing" textLength="121" x="15" y="321.0117">null_distribution</text><text fill="#000000" font-family="sans-serif" font-size="14" lengthAdjust="spacing" textLength="12" x="149" y="321.0117">   </text><line style="stroke:#000000;stroke-width:1.0;" x1="144" x2="144" y1="305.4766" y2="325.9648"/><line style="stroke:#000000;stroke-width:1.0;" x1="10" x2="177" y1="325.9648" y2="325.9648"/><text fill="#000000" font-family="sans-serif" font-size="14" font-weight="bold" lengthAdjust="spacing" textLength="124" x="15" y="341.5">data_distribution</text><text fill="#000000" font-family="sans-serif" font-size="14" lengthAdjust="spacing" textLength="12" x="149" y="341.5">   </text><line style="stroke:#000000;stroke-width:1.0;" x1="144" x2="144" y1="325.9648" y2="346.4531"/><rect fill="none" height="81.9531" rx="5" ry="5" style="stroke:#000000;stroke-width:1.5;" width="167" x="10" y="264.5"/><rect fill="#F1F1F1" height="40.9766" rx="5" ry="5" style="stroke:#F1F1F1;stroke-width:1.5;" width="198" x="214" y="235"/><text fill="#000000" font-family="sans-serif" font-size="14" font-weight="bold" lengthAdjust="spacing" textLength="111" x="219" y="250.5352">total_null_rows</text><text fill="#000000" font-family="sans-serif" font-size="14" lengthAdjust="spacing" textLength="9" x="371" y="250.5352">0</text><line style="stroke:#000000;stroke-width:1.0;" x1="366" x2="366" y1="235" y2="255.4883"/><line style="stroke:#000000;stroke-width:1.0;" x1="214" x2="412" y1="255.4883" y2="255.4883"/><text fill="#000000" font-family="sans-serif" font-size="14" font-weight="bold" lengthAdjust="spacing" textLength="142" x="219" y="271.0234">total_not_null_rows</text><text fill="#000000" font-family="sans-serif" font-size="14" lengthAdjust="spacing" textLength="36" x="371" y="271.0234">1000</text><line style="stroke:#000000;stroke-width:1.0;" x1="366" x2="366" y1="255.4883" y2="275.9766"/><rect fill="none" height="40.9766" rx="5" ry="5" style="stroke:#000000;stroke-width:1.5;" width="198" x="214" y="235"/><rect fill="#F1F1F1" height="204.8828" rx="5" ry="5" style="stroke:#F1F1F1;stroke-width:1.5;" width="22" x="301" y="294"/><text fill="#000000" font-family="sans-serif" font-size="14" lengthAdjust="spacing" textLength="12" x="306" y="309.5352">   </text><line style="stroke:#000000;stroke-width:1.0;" x1="301" x2="323" y1="314.4883" y2="314.4883"/><text fill="#000000" font-family="sans-serif" font-size="14" lengthAdjust="spacing" textLength="12" x="306" y="330.0234">   </text><line style="stroke:#000000;stroke-width:1.0;" x1="301" x2="323" y1="334.9766" y2="334.9766"/><text fill="#000000" font-family="sans-serif" font-size="14" lengthAdjust="spacing" textLength="12" x="306" y="350.5117">   </text><line style="stroke:#000000;stroke-width:1.0;" x1="301" x2="323" y1="355.4648" y2="355.4648"/><text fill="#000000" font-family="sans-serif" font-size="14" lengthAdjust="spacing" textLength="12" x="306" y="371">   </text><line style="stroke:#000000;stroke-width:1.0;" x1="301" x2="323" y1="375.9531" y2="375.9531"/><text fill="#000000" font-family="sans-serif" font-size="14" lengthAdjust="spacing" textLength="12" x="306" y="391.4883">   </text><line style="stroke:#000000;stroke-width:1.0;" x1="301" x2="323" y1="396.4414" y2="396.4414"/><text fill="#000000" font-family="sans-serif" font-size="14" lengthAdjust="spacing" textLength="12" x="306" y="411.9766">   </text><line style="stroke:#000000;stroke-width:1.0;" x1="301" x2="323" y1="416.9297" y2="416.9297"/><text fill="#000000" font-family="sans-serif" font-size="14" lengthAdjust="spacing" textLength="12" x="306" y="432.4648">   </text><line style="stroke:#000000;stroke-width:1.0;" x1="301" x2="323" y1="437.418" y2="437.418"/><text fill="#000000" font-family="sans-serif" font-size="14" lengthAdjust="spacing" textLength="12" x="306" y="452.9531">   </text><line style="stroke:#000000;stroke-width:1.0;" x1="301" x2="323" y1="457.9063" y2="457.9063"/><text fill="#000000" font-family="sans-serif" font-size="14" lengthAdjust="spacing" textLength="12" x="306" y="473.4414">   </text><line style="stroke:#000000;stroke-width:1.0;" x1="301" x2="323" y1="478.3945" y2="478.3945"/><text fill="#000000" font-family="sans-serif" font-size="14" lengthAdjust="spacing" textLength="12" x="306" y="493.9297">   </text><rect fill="none" height="204.8828" rx="5" ry="5" style="stroke:#000000;stroke-width:1.5;" width="22" x="301" y="294"/><rect fill="#F1F1F1" height="61.4648" rx="5" ry="5" style="stroke:#F1F1F1;stroke-width:1.5;" width="160" x="466.5" y="10"/><text fill="#000000" font-family="sans-serif" font-size="14" font-weight="bold" lengthAdjust="spacing" textLength="94" x="471.5" y="25.5352">field_value_1</text><text fill="#000000" font-family="sans-serif" font-size="14" lengthAdjust="spacing" textLength="46" x="575.5" y="25.5352">Belvoir</text><line style="stroke:#000000;stroke-width:1.0;" x1="570.5" x2="570.5" y1="10" y2="30.4883"/><line style="stroke:#000000;stroke-width:1.0;" x1="466.5" x2="626.5" y1="30.4883" y2="30.4883"/><text fill="#000000" font-family="sans-serif" font-size="14" font-weight="bold" lengthAdjust="spacing" textLength="74" x="471.5" y="46.0234">row_count</text><text fill="#000000" font-family="sans-serif" font-size="14" lengthAdjust="spacing" textLength="9" x="575.5" y="46.0234">2</text><line style="stroke:#000000;stroke-width:1.0;" x1="570.5" x2="570.5" y1="30.4883" y2="50.9766"/><line style="stroke:#000000;stroke-width:1.0;" x1="466.5" x2="626.5" y1="50.9766" y2="50.9766"/><text fill="#000000" font-family="sans-serif" font-size="14" font-weight="bold" lengthAdjust="spacing" textLength="94" x="471.5" y="66.5117">ratio_percent</text><text fill="#000000" font-family="sans-serif" font-size="14" lengthAdjust="spacing" textLength="22" x="575.5" y="66.5117">0.2</text><line style="stroke:#000000;stroke-width:1.0;" x1="570.5" x2="570.5" y1="50.9766" y2="71.4648"/><rect fill="none" height="61.4648" rx="5" ry="5" style="stroke:#000000;stroke-width:1.5;" width="160" x="466.5" y="10"/><rect fill="#F1F1F1" height="61.4648" rx="5" ry="5" style="stroke:#F1F1F1;stroke-width:1.5;" width="181" x="456" y="89"/><text fill="#000000" font-family="sans-serif" font-size="14" font-weight="bold" lengthAdjust="spacing" textLength="94" x="461" y="104.5352">field_value_1</text><text fill="#000000" font-family="sans-serif" font-size="14" lengthAdjust="spacing" textLength="67" x="565" y="104.5352">Aberdeen</text><line style="stroke:#000000;stroke-width:1.0;" x1="560" x2="560" y1="89" y2="109.4883"/><line style="stroke:#000000;stroke-width:1.0;" x1="456" x2="637" y1="109.4883" y2="109.4883"/><text fill="#000000" font-family="sans-serif" font-size="14" font-weight="bold" lengthAdjust="spacing" textLength="74" x="461" y="125.0234">row_count</text><text fill="#000000" font-family="sans-serif" font-size="14" lengthAdjust="spacing" textLength="9" x="565" y="125.0234">1</text><line style="stroke:#000000;stroke-width:1.0;" x1="560" x2="560" y1="109.4883" y2="129.9766"/><line style="stroke:#000000;stroke-width:1.0;" x1="456" x2="637" y1="129.9766" y2="129.9766"/><text fill="#000000" font-family="sans-serif" font-size="14" font-weight="bold" lengthAdjust="spacing" textLength="94" x="461" y="145.5117">ratio_percent</text><text fill="#000000" font-family="sans-serif" font-size="14" lengthAdjust="spacing" textLength="22" x="565" y="145.5117">0.1</text><line style="stroke:#000000;stroke-width:1.0;" x1="560" x2="560" y1="129.9766" y2="150.4648"/><rect fill="none" height="61.4648" rx="5" ry="5" style="stroke:#000000;stroke-width:1.5;" width="181" x="456" y="89"/><rect fill="#F1F1F1" height="61.4648" rx="5" ry="5" style="stroke:#F1F1F1;stroke-width:1.5;" width="168" x="462.5" y="168"/><text fill="#000000" font-family="sans-serif" font-size="14" font-weight="bold" lengthAdjust="spacing" textLength="94" x="467.5" y="183.5352">field_value_1</text><text fill="#000000" font-family="sans-serif" font-size="14" lengthAdjust="spacing" textLength="54" x="571.5" y="183.5352">Abiquiu</text><line style="stroke:#000000;stroke-width:1.0;" x1="566.5" x2="566.5" y1="168" y2="188.4883"/><line style="stroke:#000000;stroke-width:1.0;" x1="462.5" x2="630.5" y1="188.4883" y2="188.4883"/><text fill="#000000" font-family="sans-serif" font-size="14" font-weight="bold" lengthAdjust="spacing" textLength="74" x="467.5" y="204.0234">row_count</text><text fill="#000000" font-family="sans-serif" font-size="14" lengthAdjust="spacing" textLength="9" x="571.5" y="204.0234">1</text><line style="stroke:#000000;stroke-width:1.0;" x1="566.5" x2="566.5" y1="188.4883" y2="208.9766"/><line style="stroke:#000000;stroke-width:1.0;" x1="462.5" x2="630.5" y1="208.9766" y2="208.9766"/><text fill="#000000" font-family="sans-serif" font-size="14" font-weight="bold" lengthAdjust="spacing" textLength="94" x="467.5" y="224.5117">ratio_percent</text><text fill="#000000" font-family="sans-serif" font-size="14" lengthAdjust="spacing" textLength="22" x="571.5" y="224.5117">0.1</text><line style="stroke:#000000;stroke-width:1.0;" x1="566.5" x2="566.5" y1="208.9766" y2="229.4648"/><rect fill="none" height="61.4648" rx="5" ry="5" style="stroke:#000000;stroke-width:1.5;" width="168" x="462.5" y="168"/><rect fill="#F1F1F1" height="61.4648" rx="5" ry="5" style="stroke:#F1F1F1;stroke-width:1.5;" width="167" x="463" y="247"/><text fill="#000000" font-family="sans-serif" font-size="14" font-weight="bold" lengthAdjust="spacing" textLength="94" x="468" y="262.5352">field_value_1</text><text fill="#000000" font-family="sans-serif" font-size="14" lengthAdjust="spacing" textLength="53" x="572" y="262.5352">Abrams</text><line style="stroke:#000000;stroke-width:1.0;" x1="567" x2="567" y1="247" y2="267.4883"/><line style="stroke:#000000;stroke-width:1.0;" x1="463" x2="630" y1="267.4883" y2="267.4883"/><text fill="#000000" font-family="sans-serif" font-size="14" font-weight="bold" lengthAdjust="spacing" textLength="74" x="468" y="283.0234">row_count</text><text fill="#000000" font-family="sans-serif" font-size="14" lengthAdjust="spacing" textLength="9" x="572" y="283.0234">1</text><line style="stroke:#000000;stroke-width:1.0;" x1="567" x2="567" y1="267.4883" y2="287.9766"/><line style="stroke:#000000;stroke-width:1.0;" x1="463" x2="630" y1="287.9766" y2="287.9766"/><text fill="#000000" font-family="sans-serif" font-size="14" font-weight="bold" lengthAdjust="spacing" textLength="94" x="468" y="303.5117">ratio_percent</text><text fill="#000000" font-family="sans-serif" font-size="14" lengthAdjust="spacing" textLength="22" x="572" y="303.5117">0.1</text><line style="stroke:#000000;stroke-width:1.0;" x1="567" x2="567" y1="287.9766" y2="308.4648"/><rect fill="none" height="61.4648" rx="5" ry="5" style="stroke:#000000;stroke-width:1.5;" width="167" x="463" y="247"/><rect fill="#F1F1F1" height="61.4648" rx="5" ry="5" style="stroke:#F1F1F1;stroke-width:1.5;" width="174" x="459.5" y="326"/><text fill="#000000" font-family="sans-serif" font-size="14" font-weight="bold" lengthAdjust="spacing" textLength="94" x="464.5" y="341.5352">field_value_1</text><text fill="#000000" font-family="sans-serif" font-size="14" lengthAdjust="spacing" textLength="60" x="568.5" y="341.5352">Accoville</text><line style="stroke:#000000;stroke-width:1.0;" x1="563.5" x2="563.5" y1="326" y2="346.4883"/><line style="stroke:#000000;stroke-width:1.0;" x1="459.5" x2="633.5" y1="346.4883" y2="346.4883"/><text fill="#000000" font-family="sans-serif" font-size="14" font-weight="bold" lengthAdjust="spacing" textLength="74" x="464.5" y="362.0234">row_count</text><text fill="#000000" font-family="sans-serif" font-size="14" lengthAdjust="spacing" textLength="9" x="568.5" y="362.0234">1</text><line style="stroke:#000000;stroke-width:1.0;" x1="563.5" x2="563.5" y1="346.4883" y2="366.9766"/><line style="stroke:#000000;stroke-width:1.0;" x1="459.5" x2="633.5" y1="366.9766" y2="366.9766"/><text fill="#000000" font-family="sans-serif" font-size="14" font-weight="bold" lengthAdjust="spacing" textLength="94" x="464.5" y="382.5117">ratio_percent</text><text fill="#000000" font-family="sans-serif" font-size="14" lengthAdjust="spacing" textLength="22" x="568.5" y="382.5117">0.1</text><line style="stroke:#000000;stroke-width:1.0;" x1="563.5" x2="563.5" y1="366.9766" y2="387.4648"/><rect fill="none" height="61.4648" rx="5" ry="5" style="stroke:#000000;stroke-width:1.5;" width="174" x="459.5" y="326"/><rect fill="#F1F1F1" height="61.4648" rx="5" ry="5" style="stroke:#F1F1F1;stroke-width:1.5;" width="141" x="476" y="405"/><text fill="#000000" font-family="sans-serif" font-size="14" font-weight="bold" lengthAdjust="spacing" textLength="94" x="481" y="420.5352">field_value_1</text><text fill="#000000" font-family="sans-serif" font-size="14" lengthAdjust="spacing" textLength="27" x="585" y="420.5352">Ada</text><line style="stroke:#000000;stroke-width:1.0;" x1="580" x2="580" y1="405" y2="425.4883"/><line style="stroke:#000000;stroke-width:1.0;" x1="476" x2="617" y1="425.4883" y2="425.4883"/><text fill="#000000" font-family="sans-serif" font-size="14" font-weight="bold" lengthAdjust="spacing" textLength="74" x="481" y="441.0234">row_count</text><text fill="#000000" font-family="sans-serif" font-size="14" lengthAdjust="spacing" textLength="9" x="585" y="441.0234">1</text><line style="stroke:#000000;stroke-width:1.0;" x1="580" x2="580" y1="425.4883" y2="445.9766"/><line style="stroke:#000000;stroke-width:1.0;" x1="476" x2="617" y1="445.9766" y2="445.9766"/><text fill="#000000" font-family="sans-serif" font-size="14" font-weight="bold" lengthAdjust="spacing" textLength="94" x="481" y="461.5117">ratio_percent</text><text fill="#000000" font-family="sans-serif" font-size="14" lengthAdjust="spacing" textLength="22" x="585" y="461.5117">0.1</text><line style="stroke:#000000;stroke-width:1.0;" x1="580" x2="580" y1="445.9766" y2="466.4648"/><rect fill="none" height="61.4648" rx="5" ry="5" style="stroke:#000000;stroke-width:1.5;" width="141" x="476" y="405"/><rect fill="#F1F1F1" height="61.4648" rx="5" ry="5" style="stroke:#F1F1F1;stroke-width:1.5;" width="195" x="449" y="484"/><text fill="#000000" font-family="sans-serif" font-size="14" font-weight="bold" lengthAdjust="spacing" textLength="94" x="454" y="499.5352">field_value_1</text><text fill="#000000" font-family="sans-serif" font-size="14" lengthAdjust="spacing" textLength="81" x="558" y="499.5352">Adamstown</text><line style="stroke:#000000;stroke-width:1.0;" x1="553" x2="553" y1="484" y2="504.4883"/><line style="stroke:#000000;stroke-width:1.0;" x1="449" x2="644" y1="504.4883" y2="504.4883"/><text fill="#000000" font-family="sans-serif" font-size="14" font-weight="bold" lengthAdjust="spacing" textLength="74" x="454" y="520.0234">row_count</text><text fill="#000000" font-family="sans-serif" font-size="14" lengthAdjust="spacing" textLength="9" x="558" y="520.0234">1</text><line style="stroke:#000000;stroke-width:1.0;" x1="553" x2="553" y1="504.4883" y2="524.9766"/><line style="stroke:#000000;stroke-width:1.0;" x1="449" x2="644" y1="524.9766" y2="524.9766"/><text fill="#000000" font-family="sans-serif" font-size="14" font-weight="bold" lengthAdjust="spacing" textLength="94" x="454" y="540.5117">ratio_percent</text><text fill="#000000" font-family="sans-serif" font-size="14" lengthAdjust="spacing" textLength="22" x="558" y="540.5117">0.1</text><line style="stroke:#000000;stroke-width:1.0;" x1="553" x2="553" y1="524.9766" y2="545.4648"/><rect fill="none" height="61.4648" rx="5" ry="5" style="stroke:#000000;stroke-width:1.5;" width="195" x="449" y="484"/><rect fill="#F1F1F1" height="61.4648" rx="5" ry="5" style="stroke:#F1F1F1;stroke-width:1.5;" width="167" x="463" y="563"/><text fill="#000000" font-family="sans-serif" font-size="14" font-weight="bold" lengthAdjust="spacing" textLength="94" x="468" y="578.5352">field_value_1</text><text fill="#000000" font-family="sans-serif" font-size="14" lengthAdjust="spacing" textLength="53" x="572" y="578.5352">Adelino</text><line style="stroke:#000000;stroke-width:1.0;" x1="567" x2="567" y1="563" y2="583.4883"/><line style="stroke:#000000;stroke-width:1.0;" x1="463" x2="630" y1="583.4883" y2="583.4883"/><text fill="#000000" font-family="sans-serif" font-size="14" font-weight="bold" lengthAdjust="spacing" textLength="74" x="468" y="599.0234">row_count</text><text fill="#000000" font-family="sans-serif" font-size="14" lengthAdjust="spacing" textLength="9" x="572" y="599.0234">1</text><line style="stroke:#000000;stroke-width:1.0;" x1="567" x2="567" y1="583.4883" y2="603.9766"/><line style="stroke:#000000;stroke-width:1.0;" x1="463" x2="630" y1="603.9766" y2="603.9766"/><text fill="#000000" font-family="sans-serif" font-size="14" font-weight="bold" lengthAdjust="spacing" textLength="94" x="468" y="619.5117">ratio_percent</text><text fill="#000000" font-family="sans-serif" font-size="14" lengthAdjust="spacing" textLength="22" x="572" y="619.5117">0.1</text><line style="stroke:#000000;stroke-width:1.0;" x1="567" x2="567" y1="603.9766" y2="624.4648"/><rect fill="none" height="61.4648" rx="5" ry="5" style="stroke:#000000;stroke-width:1.5;" width="167" x="463" y="563"/><rect fill="#F1F1F1" height="61.4648" rx="5" ry="5" style="stroke:#F1F1F1;stroke-width:1.5;" width="172" x="460.5" y="642"/><text fill="#000000" font-family="sans-serif" font-size="14" font-weight="bold" lengthAdjust="spacing" textLength="94" x="465.5" y="657.5352">field_value_1</text><text fill="#000000" font-family="sans-serif" font-size="14" lengthAdjust="spacing" textLength="58" x="569.5" y="657.5352">Advance</text><line style="stroke:#000000;stroke-width:1.0;" x1="564.5" x2="564.5" y1="642" y2="662.4883"/><line style="stroke:#000000;stroke-width:1.0;" x1="460.5" x2="632.5" y1="662.4883" y2="662.4883"/><text fill="#000000" font-family="sans-serif" font-size="14" font-weight="bold" lengthAdjust="spacing" textLength="74" x="465.5" y="678.0234">row_count</text><text fill="#000000" font-family="sans-serif" font-size="14" lengthAdjust="spacing" textLength="9" x="569.5" y="678.0234">1</text><line style="stroke:#000000;stroke-width:1.0;" x1="564.5" x2="564.5" y1="662.4883" y2="682.9766"/><line style="stroke:#000000;stroke-width:1.0;" x1="460.5" x2="632.5" y1="682.9766" y2="682.9766"/><text fill="#000000" font-family="sans-serif" font-size="14" font-weight="bold" lengthAdjust="spacing" textLength="94" x="465.5" y="698.5117">ratio_percent</text><text fill="#000000" font-family="sans-serif" font-size="14" lengthAdjust="spacing" textLength="22" x="569.5" y="698.5117">0.1</text><line style="stroke:#000000;stroke-width:1.0;" x1="564.5" x2="564.5" y1="682.9766" y2="703.4648"/><rect fill="none" height="61.4648" rx="5" ry="5" style="stroke:#000000;stroke-width:1.5;" width="172" x="460.5" y="642"/><rect fill="#F1F1F1" height="61.4648" rx="5" ry="5" style="stroke:#F1F1F1;stroke-width:1.5;" width="158" x="467.5" y="721"/><text fill="#000000" font-family="sans-serif" font-size="14" font-weight="bold" lengthAdjust="spacing" textLength="94" x="472.5" y="736.5352">field_value_1</text><text fill="#000000" font-family="sans-serif" font-size="14" lengthAdjust="spacing" textLength="44" x="576.5" y="736.5352">Aguila</text><line style="stroke:#000000;stroke-width:1.0;" x1="571.5" x2="571.5" y1="721" y2="741.4883"/><line style="stroke:#000000;stroke-width:1.0;" x1="467.5" x2="625.5" y1="741.4883" y2="741.4883"/><text fill="#000000" font-family="sans-serif" font-size="14" font-weight="bold" lengthAdjust="spacing" textLength="74" x="472.5" y="757.0234">row_count</text><text fill="#000000" font-family="sans-serif" font-size="14" lengthAdjust="spacing" textLength="9" x="576.5" y="757.0234">1</text><line style="stroke:#000000;stroke-width:1.0;" x1="571.5" x2="571.5" y1="741.4883" y2="761.9766"/><line style="stroke:#000000;stroke-width:1.0;" x1="467.5" x2="625.5" y1="761.9766" y2="761.9766"/><text fill="#000000" font-family="sans-serif" font-size="14" font-weight="bold" lengthAdjust="spacing" textLength="94" x="472.5" y="777.5117">ratio_percent</text><text fill="#000000" font-family="sans-serif" font-size="14" lengthAdjust="spacing" textLength="22" x="576.5" y="777.5117">0.1</text><line style="stroke:#000000;stroke-width:1.0;" x1="571.5" x2="571.5" y1="761.9766" y2="782.4648"/><rect fill="none" height="61.4648" rx="5" ry="5" style="stroke:#000000;stroke-width:1.5;" width="158" x="467.5" y="721"/><path d="M165,315.5 L178,315.5 C198.8273,315.5 195.6745,295.3971 214,285.5 C218.2321,283.2144 222.6626,281.0778 227.2032,279.0842 " fill="none" style="stroke:#000000;stroke-width:1.0;stroke-dasharray:3.0,3.0;"/><path d="M228.4096,281.9694 L229.3671,278.1794 L225.9968,276.199 L234.4162,276.0682 L228.4096,281.9694 " fill="#000000" style="stroke:#000000;stroke-width:1.0;"/><ellipse cx="165" cy="315.5" fill="#000000" rx="3" ry="3" style="stroke:#000000;stroke-width:1.0;"/><path d="M313.5,303.5 L326.5,303.5 C365.768,303.5 385.6833,313.7095 413,285.5 C477.6556,218.7312 390.503,151.7255 449,79.5 C452.4556,75.2334 456.449,71.4305 460.8048,68.0414 " fill="none" style="stroke:#000000;stroke-width:1.0;stroke-dasharray:3.0,3.0;"/><path d="M462.5527,70.5005 L462.6491,66.7305 L459.0569,65.5823 L466.9526,63.6716 L462.5527,70.5005 " fill="#000000" style="stroke:#000000;stroke-width:1.0;"/><ellipse cx="313.5" cy="303.5" fill="#000000" rx="3" ry="3" style="stroke:#000000;stroke-width:1.0;"/><path d="M313.5,324.5 L326.5,324.5 C368.6713,324.5 385.4563,317.4338 413,285.5 C451.3185,241.074 409.7725,202.1255 449,158.5 C450.0012,157.3865 451.0386,156.3043 452.1089,155.2525 " fill="none" style="stroke:#000000;stroke-width:1.0;stroke-dasharray:3.0,3.0;"/><path d="M454.1127,157.4962 L453.7917,153.7496 L450.1051,153.0088 L457.7182,150.2429 L454.1127,157.4962 " fill="#000000" style="stroke:#000000;stroke-width:1.0;"/><ellipse cx="313.5" cy="324.5" fill="#000000" rx="3" ry="3" style="stroke:#000000;stroke-width:1.0;"/><path d="M313.5,344.5 L326.5,344.5 C373.0358,344.5 379.3638,317.6588 413,285.5 C432.2747,267.0719 427.8486,253.7398 449,237.5 C451.2944,235.7384 453.6792,234.0449 456.134,232.418 " fill="none" style="stroke:#000000;stroke-width:1.0;stroke-dasharray:3.0,3.0;"/><path d="M457.7949,235.0772 L458.1284,231.1723 L454.4731,229.7587 L462.7821,228.2656 L457.7949,235.0772 " fill="#000000" style="stroke:#000000;stroke-width:1.0;"/><ellipse cx="313.5" cy="344.5" fill="#000000" rx="3" ry="3" style="stroke:#000000;stroke-width:1.0;"/><path d="M313.5,365.5 L326.5,365.5 C330.3174,365.5 403.8232,335.7824 464.7337,310.8862 " fill="none" style="stroke:#000000;stroke-width:1.0;stroke-dasharray:3.0,3.0;"/><path d="M465.8757,313.6788 L466.8281,310.0297 L463.5917,308.0935 L471.7152,308.0312 L465.8757,313.6788 " fill="#000000" style="stroke:#000000;stroke-width:1.0;"/><ellipse cx="313.5" cy="365.5" fill="#000000" rx="3" ry="3" style="stroke:#000000;stroke-width:1.0;"/><path d="M313.5,385.5 L326.5,385.5 C367.9418,385.5 413.4086,380.3565 452.1599,374.4019 " fill="none" style="stroke:#000000;stroke-width:1.0;stroke-dasharray:3.0,3.0;"/><path d="M452.6401,377.4649 L454.4572,374.0417 L451.6797,371.3388 L459.8175,373.2014 L452.6401,377.4649 " fill="#000000" style="stroke:#000000;stroke-width:1.0;"/><ellipse cx="313.5" cy="385.5" fill="#000000" rx="3" ry="3" style="stroke:#000000;stroke-width:1.0;"/><path d="M313.5,406.5 L326.5,406.5 C374.0027,406.5 426.7937,413.258 468.6976,420.2493 " fill="none" style="stroke:#000000;stroke-width:1.0;stroke-dasharray:3.0,3.0;"/><path d="M468.1934,423.2199 L470.9256,420.6274 L469.2018,417.2786 L476.1243,421.5097 L468.1934,423.2199 " fill="#000000" style="stroke:#000000;stroke-width:1.0;"/><ellipse cx="313.5" cy="406.5" fill="#000000" rx="3" ry="3" style="stroke:#000000;stroke-width:1.0;"/><path d="M313.5,427.5 L326.5,427.5 C328.3964,427.5 401.5067,456.5953 462.8308,481.1344 " fill="none" style="stroke:#000000;stroke-width:1.0;stroke-dasharray:3.0,3.0;"/><path d="M461.7048,483.9476 L464.9407,481.9789 L463.9568,478.3213 L469.8638,483.9494 L461.7048,483.9476 " fill="#000000" style="stroke:#000000;stroke-width:1.0;"/><ellipse cx="313.5" cy="427.5" fill="#000000" rx="3" ry="3" style="stroke:#000000;stroke-width:1.0;"/><path d="M313.5,447.5 L326.5,447.5 C398.7892,447.5 387.3763,516.7078 449,554.5 C451.698,556.1546 454.4785,557.7648 457.3178,559.3289 " fill="none" style="stroke:#000000;stroke-width:1.0;stroke-dasharray:3.0,3.0;"/><path d="M455.8918,562.017 L459.3339,560.3984 L458.7439,556.6407 L464.0382,562.894 L455.8918,562.017 " fill="#000000" style="stroke:#000000;stroke-width:1.0;"/><ellipse cx="313.5" cy="447.5" fill="#000000" rx="3" ry="3" style="stroke:#000000;stroke-width:1.0;"/><path d="M313.5,468.5 L326.5,468.5 C417.8344,468.5 376.6912,577.702 449,633.5 C450.9399,634.9969 452.9449,636.4445 455.0029,637.8436 " fill="none" style="stroke:#000000;stroke-width:1.0;stroke-dasharray:3.0,3.0;"/><path d="M453.3815,640.3717 L456.8989,639.0596 L456.6242,635.3155 L461.323,641.897 L453.3815,640.3717 " fill="#000000" style="stroke:#000000;stroke-width:1.0;"/><ellipse cx="313.5" cy="468.5" fill="#000000" rx="3" ry="3" style="stroke:#000000;stroke-width:1.0;"/><path d="M313.5,488.5 L326.5,488.5 C439.9703,488.5 364.1669,637.1419 449,712.5 C452.8292,715.9015 456.9928,719.027 461.3706,721.896 " fill="none" style="stroke:#000000;stroke-width:1.0;stroke-dasharray:3.0,3.0;"/><path d="M459.7618,724.5173 L463.3366,723.1027 L462.9795,719.2747 L467.9238,725.9182 L459.7618,724.5173 " fill="#000000" style="stroke:#000000;stroke-width:1.0;"/><ellipse cx="313.5" cy="488.5" fill="#000000" rx="3" ry="3" style="stroke:#000000;stroke-width:1.0;"/><path d="M165,336.5 L178,336.5 C223.3406,336.5 270.4028,365.289 295.0463,382.9834 " fill="none" style="stroke:#000000;stroke-width:1.0;stroke-dasharray:3.0,3.0;"/><path d="M293.181,385.5179 L296.9472,384.3824 L296.9117,380.4489 L301.3825,387.6468 L293.181,385.5179 " fill="#000000" style="stroke:#000000;stroke-width:1.0;"/><ellipse cx="165" cy="336.5" fill="#000000" rx="3" ry="3" style="stroke:#000000;stroke-width:1.0;"/><!--MD5=[39ad9749047a2e5054e1a7990ea2565d]
@startjson
{
    "field1": "city",
    "combination": "city",
    "null_distribution": {
        "total_null_rows": 0,
        "total_not_null_rows": 1000
    },
    "data_distribution": [
        {
            "field_value_1": "Belvoir",
            "row_count": 2,
            "ratio_percent": 0.2
        },
        {
            "field_value_1": "Aberdeen",
            "row_count": 1,
            "ratio_percent": 0.1
        },
        {
            "field_value_1": "Abiquiu",
            "row_count": 1,
            "ratio_percent": 0.1
        },
        {
            "field_value_1": "Abrams",
            "row_count": 1,
            "ratio_percent": 0.1
        },
        {
            "field_value_1": "Accoville",
            "row_count": 1,
            "ratio_percent": 0.1
        },
        {
            "field_value_1": "Ada",
            "row_count": 1,
            "ratio_percent": 0.1
        },
        {
            "field_value_1": "Adamstown",
            "row_count": 1,
            "ratio_percent": 0.1
        },
        {
            "field_value_1": "Adelino",
            "row_count": 1,
            "ratio_percent": 0.1
        },
        {
            "field_value_1": "Advance",
            "row_count": 1,
            "ratio_percent": 0.1
        },
        {
            "field_value_1": "Aguila",
            "row_count": 1,
            "ratio_percent": 0.1
        }
    ]
}
@endjson

PlantUML version 1.2022.12(Sun Oct 23 14:12:26 EDT 2022)
(GPL source distribution)
Java Runtime: OpenJDK Runtime Environment
JVM: OpenJDK 64-Bit Server VM
Default Encoding: UTF-8
Language: en
Country: CA
--></g></svg>