<?xml version="1.0" encoding="UTF-8" standalone="no"?><svg xmlns="http://www.w3.org/2000/svg" xmlns:xlink="http://www.w3.org/1999/xlink" contentStyleType="text/css" height="794px" preserveAspectRatio="none" style="width:814px;height:794px;background:#FFFFFF;" version="1.1" viewBox="0 0 814 794" width="814px" zoomAndPan="magnify"><defs/><g><rect fill="#F1F1F1" height="81.9531" rx="5" ry="5" style="stroke:#F1F1F1;stroke-width:1.5;" width="181" x="10" y="264.5"/><text fill="#000000" font-family="sans-serif" font-size="14" font-weight="bold" lengthAdjust="spacing" textLength="42" x="15" y="280.0352">field1</text><text fill="#000000" font-family="sans-serif" font-size="14" lengthAdjust="spacing" textLength="37" x="149" y="280.0352">email</text><line style="stroke:#000000;stroke-width:1.0;" x1="144" x2="144" y1="264.5" y2="284.9883"/><line style="stroke:#000000;stroke-width:1.0;" x1="10" x2="191" y1="284.9883" y2="284.9883"/><text fill="#000000" font-family="sans-serif" font-size="14" font-weight="bold" lengthAdjust="spacing" textLength="90" x="15" y="300.5234">combination</text><text fill="#000000" font-family="sans-serif" font-size="14" lengthAdjust="spacing" textLength="37" x="149" y="300.5234">email</text><line style="stroke:#000000;stroke-width:1.0;" x1="144" x2="144" y1="284.9883" y2="305.4766"/><line style="stroke:#000000;stroke-width:1.0;" x1="10" x2="191" y1="305.4766" y2="305.4766"/><text fill="#000000" font-family="sans-serif" font-size="14" font-weight="bold" lengthAdjust="spacing" textLength="121" x="15" y="321.0117">null_distribution</text><text fill="#000000" font-family="sans-serif" font-size="14" lengthAdjust="spacing" textLength="12" x="149" y="321.0117">   </text><line style="stroke:#000000;stroke-width:1.0;" x1="144" x2="144" y1="305.4766" y2="325.9648"/><line style="stroke:#000000;stroke-width:1.0;" x1="10" x2="191" y1="325.9648" y2="325.9648"/><text fill="#000000" font-family="sans-serif" font-size="14" font-weight="bold" lengthAdjust="spacing" textLength="124" x="15" y="341.5">data_distribution</text><text fill="#000000" font-family="sans-serif" font-size="14" lengthAdjust="spacing" textLength="12" x="149" y="341.5">   </text><line style="stroke:#000000;stroke-width:1.0;" x1="144" x2="144" y1="325.9648" y2="346.4531"/><rect fill="none" height="81.9531" rx="5" ry="5" style="stroke:#000000;stroke-width:1.5;" width="181" x="10" y="264.5"/><rect fill="#F1F1F1" height="40.9766" rx="5" ry="5" style="stroke:#F1F1F1;stroke-width:1.5;" width="198" x="228" y="235"/><text fill="#000000" font-family="sans-serif" font-size="14" font-weight="bold" lengthAdjust="spacing" textLength="111" x="233" y="250.5352">total_null_rows</text><text fill="#000000" font-family="sans-serif" font-size="14" lengthAdjust="spacing" textLength="9" x="385" y="250.5352">0</text><line style="stroke:#000000;stroke-width:1.0;" x1="380" x2="380" y1="235" y2="255.4883"/><line style="stroke:#000000;stroke-width:1.0;" x1="228" x2="426" y1="255.4883" y2="255.4883"/><text fill="#000000" font-family="sans-serif" font-size="14" font-weight="bold" lengthAdjust="spacing" textLength="142" x="233" y="271.0234">total_not_null_rows</text><text fill="#000000" font-family="sans-serif" font-size="14" lengthAdjust="spacing" textLength="36" x="385" y="271.0234">1000</text><line style="stroke:#000000;stroke-width:1.0;" x1="380" x2="380" y1="255.4883" y2="275.9766"/><rect fill="none" height="40.9766" rx="5" ry="5" style="stroke:#000000;stroke-width:1.5;" width="198" x="228" y="235"/><rect fill="#F1F1F1" height="204.8828" rx="5" ry="5" style="stroke:#F1F1F1;stroke-width:1.5;" width="22" x="315" y="294"/><text fill="#000000" font-family="sans-serif" font-size="14" lengthAdjust="spacing" textLength="12" x="320" y="309.5352">   </text><line style="stroke:#000000;stroke-width:1.0;" x1="315" x2="337" y1="314.4883" y2="314.4883"/><text fill="#000000" font-family="sans-serif" font-size="14" lengthAdjust="spacing" textLength="12" x="320" y="330.0234">   </text><line style="stroke:#000000;stroke-width:1.0;" x1="315" x2="337" y1="334.9766" y2="334.9766"/><text fill="#000000" font-family="sans-serif" font-size="14" lengthAdjust="spacing" textLength="12" x="320" y="350.5117">   </text><line style="stroke:#000000;stroke-width:1.0;" x1="315" x2="337" y1="355.4648" y2="355.4648"/><text fill="#000000" font-family="sans-serif" font-size="14" lengthAdjust="spacing" textLength="12" x="320" y="371">   </text><line style="stroke:#000000;stroke-width:1.0;" x1="315" x2="337" y1="375.9531" y2="375.9531"/><text fill="#000000" font-family="sans-serif" font-size="14" lengthAdjust="spacing" textLength="12" x="320" y="391.4883">   </text><line style="stroke:#000000;stroke-width:1.0;" x1="315" x2="337" y1="396.4414" y2="396.4414"/><text fill="#000000" font-family="sans-serif" font-size="14" lengthAdjust="spacing" textLength="12" x="320" y="411.9766">   </text><line style="stroke:#000000;stroke-width:1.0;" x1="315" x2="337" y1="416.9297" y2="416.9297"/><text fill="#000000" font-family="sans-serif" font-size="14" lengthAdjust="spacing" textLength="12" x="320" y="432.4648">   </text><line style="stroke:#000000;stroke-width:1.0;" x1="315" x2="337" y1="437.418" y2="437.418"/><text fill="#000000" font-family="sans-serif" font-size="14" lengthAdjust="spacing" textLength="12" x="320" y="452.9531">   </text><line style="stroke:#000000;stroke-width:1.0;" x1="315" x2="337" y1="457.9063" y2="457.9063"/><text fill="#000000" font-family="sans-serif" font-size="14" lengthAdjust="spacing" textLength="12" x="320" y="473.4414">   </text><line style="stroke:#000000;stroke-width:1.0;" x1="315" x2="337" y1="478.3945" y2="478.3945"/><text fill="#000000" font-family="sans-serif" font-size="14" lengthAdjust="spacing" textLength="12" x="320" y="493.9297">   </text><rect fill="none" height="204.8828" rx="5" ry="5" style="stroke:#000000;stroke-width:1.5;" width="22" x="315" y="294"/><rect fill="#F1F1F1" height="61.4648" rx="5" ry="5" style="stroke:#F1F1F1;stroke-width:1.5;" width="293" x="486" y="10"/><text fill="#000000" font-family="sans-serif" font-size="14" font-weight="bold" lengthAdjust="spacing" textLength="94" x="491" y="25.5352">field_value_1</text><text fill="#000000" font-family="sans-serif" font-size="14" lengthAdjust="spacing" textLength="179" x="595" y="25.5352">abbottodom@jimbies.com</text><line style="stroke:#000000;stroke-width:1.0;" x1="590" x2="590" y1="10" y2="30.4883"/><line style="stroke:#000000;stroke-width:1.0;" x1="486" x2="779" y1="30.4883" y2="30.4883"/><text fill="#000000" font-family="sans-serif" font-size="14" font-weight="bold" lengthAdjust="spacing" textLength="74" x="491" y="46.0234">row_count</text><text fill="#000000" font-family="sans-serif" font-size="14" lengthAdjust="spacing" textLength="9" x="595" y="46.0234">1</text><line style="stroke:#000000;stroke-width:1.0;" x1="590" x2="590" y1="30.4883" y2="50.9766"/><line style="stroke:#000000;stroke-width:1.0;" x1="486" x2="779" y1="50.9766" y2="50.9766"/><text fill="#000000" font-family="sans-serif" font-size="14" font-weight="bold" lengthAdjust="spacing" textLength="94" x="491" y="66.5117">ratio_percent</text><text fill="#000000" font-family="sans-serif" font-size="14" lengthAdjust="spacing" textLength="22" x="595" y="66.5117">0.1</text><line style="stroke:#000000;stroke-width:1.0;" x1="590" x2="590" y1="50.9766" y2="71.4648"/><rect fill="none" height="61.4648" rx="5" ry="5" style="stroke:#000000;stroke-width:1.5;" width="293" x="486" y="10"/><rect fill="#F1F1F1" height="61.4648" rx="5" ry="5" style="stroke:#F1F1F1;stroke-width:1.5;" width="313" x="476" y="89"/><text fill="#000000" font-family="sans-serif" font-size="14" font-weight="bold" lengthAdjust="spacing" textLength="94" x="481" y="104.5352">field_value_1</text><text fill="#000000" font-family="sans-serif" font-size="14" lengthAdjust="spacing" textLength="199" x="585" y="104.5352">abigailnichols@enquility.com</text><line style="stroke:#000000;stroke-width:1.0;" x1="580" x2="580" y1="89" y2="109.4883"/><line style="stroke:#000000;stroke-width:1.0;" x1="476" x2="789" y1="109.4883" y2="109.4883"/><text fill="#000000" font-family="sans-serif" font-size="14" font-weight="bold" lengthAdjust="spacing" textLength="74" x="481" y="125.0234">row_count</text><text fill="#000000" font-family="sans-serif" font-size="14" lengthAdjust="spacing" textLength="9" x="585" y="125.0234">1</text><line style="stroke:#000000;stroke-width:1.0;" x1="580" x2="580" y1="109.4883" y2="129.9766"/><line style="stroke:#000000;stroke-width:1.0;" x1="476" x2="789" y1="129.9766" y2="129.9766"/><text fill="#000000" font-family="sans-serif" font-size="14" font-weight="bold" lengthAdjust="spacing" textLength="94" x="481" y="145.5117">ratio_percent</text><text fill="#000000" font-family="sans-serif" font-size="14" lengthAdjust="spacing" textLength="22" x="585" y="145.5117">0.1</text><line style="stroke:#000000;stroke-width:1.0;" x1="580" x2="580" y1="129.9766" y2="150.4648"/><rect fill="none" height="61.4648" rx="5" ry="5" style="stroke:#000000;stroke-width:1.5;" width="313" x="476" y="89"/><rect fill="#F1F1F1" height="61.4648" rx="5" ry="5" style="stroke:#F1F1F1;stroke-width:1.5;" width="318" x="473.5" y="168"/><text fill="#000000" font-family="sans-serif" font-size="14" font-weight="bold" lengthAdjust="spacing" textLength="94" x="478.5" y="183.5352">field_value_1</text><text fill="#000000" font-family="sans-serif" font-size="14" lengthAdjust="spacing" textLength="204" x="582.5" y="183.5352">acevedodorsey@netropic.com</text><line style="stroke:#000000;stroke-width:1.0;" x1="577.5" x2="577.5" y1="168" y2="188.4883"/><line style="stroke:#000000;stroke-width:1.0;" x1="473.5" x2="791.5" y1="188.4883" y2="188.4883"/><text fill="#000000" font-family="sans-serif" font-size="14" font-weight="bold" lengthAdjust="spacing" textLength="74" x="478.5" y="204.0234">row_count</text><text fill="#000000" font-family="sans-serif" font-size="14" lengthAdjust="spacing" textLength="9" x="582.5" y="204.0234">1</text><line style="stroke:#000000;stroke-width:1.0;" x1="577.5" x2="577.5" y1="188.4883" y2="208.9766"/><line style="stroke:#000000;stroke-width:1.0;" x1="473.5" x2="791.5" y1="208.9766" y2="208.9766"/><text fill="#000000" font-family="sans-serif" font-size="14" font-weight="bold" lengthAdjust="spacing" textLength="94" x="478.5" y="224.5117">ratio_percent</text><text fill="#000000" font-family="sans-serif" font-size="14" lengthAdjust="spacing" textLength="22" x="582.5" y="224.5117">0.1</text><line style="stroke:#000000;stroke-width:1.0;" x1="577.5" x2="577.5" y1="208.9766" y2="229.4648"/><rect fill="none" height="61.4648" rx="5" ry="5" style="stroke:#000000;stroke-width:1.5;" width="318" x="473.5" y="168"/><rect fill="#F1F1F1" height="61.4648" rx="5" ry="5" style="stroke:#F1F1F1;stroke-width:1.5;" width="297" x="484" y="247"/><text fill="#000000" font-family="sans-serif" font-size="14" font-weight="bold" lengthAdjust="spacing" textLength="94" x="489" y="262.5352">field_value_1</text><text fill="#000000" font-family="sans-serif" font-size="14" lengthAdjust="spacing" textLength="183" x="593" y="262.5352">adacortez@micronaut.com</text><line style="stroke:#000000;stroke-width:1.0;" x1="588" x2="588" y1="247" y2="267.4883"/><line style="stroke:#000000;stroke-width:1.0;" x1="484" x2="781" y1="267.4883" y2="267.4883"/><text fill="#000000" font-family="sans-serif" font-size="14" font-weight="bold" lengthAdjust="spacing" textLength="74" x="489" y="283.0234">row_count</text><text fill="#000000" font-family="sans-serif" font-size="14" lengthAdjust="spacing" textLength="9" x="593" y="283.0234">1</text><line style="stroke:#000000;stroke-width:1.0;" x1="588" x2="588" y1="267.4883" y2="287.9766"/><line style="stroke:#000000;stroke-width:1.0;" x1="484" x2="781" y1="287.9766" y2="287.9766"/><text fill="#000000" font-family="sans-serif" font-size="14" font-weight="bold" lengthAdjust="spacing" textLength="94" x="489" y="303.5117">ratio_percent</text><text fill="#000000" font-family="sans-serif" font-size="14" lengthAdjust="spacing" textLength="22" x="593" y="303.5117">0.1</text><line style="stroke:#000000;stroke-width:1.0;" x1="588" x2="588" y1="287.9766" y2="308.4648"/><rect fill="none" height="61.4648" rx="5" ry="5" style="stroke:#000000;stroke-width:1.5;" width="297" x="484" y="247"/><rect fill="#F1F1F1" height="61.4648" rx="5" ry="5" style="stroke:#F1F1F1;stroke-width:1.5;" width="289" x="488" y="326"/><text fill="#000000" font-family="sans-serif" font-size="14" font-weight="bold" lengthAdjust="spacing" textLength="94" x="493" y="341.5352">field_value_1</text><text fill="#000000" font-family="sans-serif" font-size="14" lengthAdjust="spacing" textLength="175" x="597" y="341.5352">adelatyler@surelogic.com</text><line style="stroke:#000000;stroke-width:1.0;" x1="592" x2="592" y1="326" y2="346.4883"/><line style="stroke:#000000;stroke-width:1.0;" x1="488" x2="777" y1="346.4883" y2="346.4883"/><text fill="#000000" font-family="sans-serif" font-size="14" font-weight="bold" lengthAdjust="spacing" textLength="74" x="493" y="362.0234">row_count</text><text fill="#000000" font-family="sans-serif" font-size="14" lengthAdjust="spacing" textLength="9" x="597" y="362.0234">1</text><line style="stroke:#000000;stroke-width:1.0;" x1="592" x2="592" y1="346.4883" y2="366.9766"/><line style="stroke:#000000;stroke-width:1.0;" x1="488" x2="777" y1="366.9766" y2="366.9766"/><text fill="#000000" font-family="sans-serif" font-size="14" font-weight="bold" lengthAdjust="spacing" textLength="94" x="493" y="382.5117">ratio_percent</text><text fill="#000000" font-family="sans-serif" font-size="14" lengthAdjust="spacing" textLength="22" x="597" y="382.5117">0.1</text><line style="stroke:#000000;stroke-width:1.0;" x1="592" x2="592" y1="366.9766" y2="387.4648"/><rect fill="none" height="61.4648" rx="5" ry="5" style="stroke:#000000;stroke-width:1.5;" width="289" x="488" y="326"/><rect fill="#F1F1F1" height="61.4648" rx="5" ry="5" style="stroke:#F1F1F1;stroke-width:1.5;" width="297" x="484" y="405"/><text fill="#000000" font-family="sans-serif" font-size="14" font-weight="bold" lengthAdjust="spacing" textLength="94" x="489" y="420.5352">field_value_1</text><text fill="#000000" font-family="sans-serif" font-size="14" lengthAdjust="spacing" textLength="183" x="593" y="420.5352">adelecarroll@aquafire.com</text><line style="stroke:#000000;stroke-width:1.0;" x1="588" x2="588" y1="405" y2="425.4883"/><line style="stroke:#000000;stroke-width:1.0;" x1="484" x2="781" y1="425.4883" y2="425.4883"/><text fill="#000000" font-family="sans-serif" font-size="14" font-weight="bold" lengthAdjust="spacing" textLength="74" x="489" y="441.0234">row_count</text><text fill="#000000" font-family="sans-serif" font-size="14" lengthAdjust="spacing" textLength="9" x="593" y="441.0234">1</text><line style="stroke:#000000;stroke-width:1.0;" x1="588" x2="588" y1="425.4883" y2="445.9766"/><line style="stroke:#000000;stroke-width:1.0;" x1="484" x2="781" y1="445.9766" y2="445.9766"/><text fill="#000000" font-family="sans-serif" font-size="14" font-weight="bold" lengthAdjust="spacing" textLength="94" x="489" y="461.5117">ratio_percent</text><text fill="#000000" font-family="sans-serif" font-size="14" lengthAdjust="spacing" textLength="22" x="593" y="461.5117">0.1</text><line style="stroke:#000000;stroke-width:1.0;" x1="588" x2="588" y1="445.9766" y2="466.4648"/><rect fill="none" height="61.4648" rx="5" ry="5" style="stroke:#000000;stroke-width:1.5;" width="297" x="484" y="405"/><rect fill="#F1F1F1" height="61.4648" rx="5" ry="5" style="stroke:#F1F1F1;stroke-width:1.5;" width="297" x="484" y="484"/><text fill="#000000" font-family="sans-serif" font-size="14" font-weight="bold" lengthAdjust="spacing" textLength="94" x="489" y="499.5352">field_value_1</text><text fill="#000000" font-family="sans-serif" font-size="14" lengthAdjust="spacing" textLength="183" x="593" y="499.5352">adkinsmejia@datagen.com</text><line style="stroke:#000000;stroke-width:1.0;" x1="588" x2="588" y1="484" y2="504.4883"/><line style="stroke:#000000;stroke-width:1.0;" x1="484" x2="781" y1="504.4883" y2="504.4883"/><text fill="#000000" font-family="sans-serif" font-size="14" font-weight="bold" lengthAdjust="spacing" textLength="74" x="489" y="520.0234">row_count</text><text fill="#000000" font-family="sans-serif" font-size="14" lengthAdjust="spacing" textLength="9" x="593" y="520.0234">1</text><line style="stroke:#000000;stroke-width:1.0;" x1="588" x2="588" y1="504.4883" y2="524.9766"/><line style="stroke:#000000;stroke-width:1.0;" x1="484" x2="781" y1="524.9766" y2="524.9766"/><text fill="#000000" font-family="sans-serif" font-size="14" font-weight="bold" lengthAdjust="spacing" textLength="94" x="489" y="540.5117">ratio_percent</text><text fill="#000000" font-family="sans-serif" font-size="14" lengthAdjust="spacing" textLength="22" x="593" y="540.5117">0.1</text><line style="stroke:#000000;stroke-width:1.0;" x1="588" x2="588" y1="524.9766" y2="545.4648"/><rect fill="none" height="61.4648" rx="5" ry="5" style="stroke:#000000;stroke-width:1.5;" width="297" x="484" y="484"/><rect fill="#F1F1F1" height="61.4648" rx="5" ry="5" style="stroke:#F1F1F1;stroke-width:1.5;" width="339" x="463" y="563"/><text fill="#000000" font-family="sans-serif" font-size="14" font-weight="bold" lengthAdjust="spacing" textLength="94" x="468" y="578.5352">field_value_1</text><text fill="#000000" font-family="sans-serif" font-size="14" lengthAdjust="spacing" textLength="225" x="572" y="578.5352">adrianamcfadden@telequiet.com</text><line style="stroke:#000000;stroke-width:1.0;" x1="567" x2="567" y1="563" y2="583.4883"/><line style="stroke:#000000;stroke-width:1.0;" x1="463" x2="802" y1="583.4883" y2="583.4883"/><text fill="#000000" font-family="sans-serif" font-size="14" font-weight="bold" lengthAdjust="spacing" textLength="74" x="468" y="599.0234">row_count</text><text fill="#000000" font-family="sans-serif" font-size="14" lengthAdjust="spacing" textLength="9" x="572" y="599.0234">1</text><line style="stroke:#000000;stroke-width:1.0;" x1="567" x2="567" y1="583.4883" y2="603.9766"/><line style="stroke:#000000;stroke-width:1.0;" x1="463" x2="802" y1="603.9766" y2="603.9766"/><text fill="#000000" font-family="sans-serif" font-size="14" font-weight="bold" lengthAdjust="spacing" textLength="94" x="468" y="619.5117">ratio_percent</text><text fill="#000000" font-family="sans-serif" font-size="14" lengthAdjust="spacing" textLength="22" x="572" y="619.5117">0.1</text><line style="stroke:#000000;stroke-width:1.0;" x1="567" x2="567" y1="603.9766" y2="624.4648"/><rect fill="none" height="61.4648" rx="5" ry="5" style="stroke:#000000;stroke-width:1.5;" width="339" x="463" y="563"/><rect fill="#F1F1F1" height="61.4648" rx="5" ry="5" style="stroke:#F1F1F1;stroke-width:1.5;" width="314" x="475.5" y="642"/><text fill="#000000" font-family="sans-serif" font-size="14" font-weight="bold" lengthAdjust="spacing" textLength="94" x="480.5" y="657.5352">field_value_1</text><text fill="#000000" font-family="sans-serif" font-size="14" lengthAdjust="spacing" textLength="200" x="584.5" y="657.5352">adrianpitts@combogene.com</text><line style="stroke:#000000;stroke-width:1.0;" x1="579.5" x2="579.5" y1="642" y2="662.4883"/><line style="stroke:#000000;stroke-width:1.0;" x1="475.5" x2="789.5" y1="662.4883" y2="662.4883"/><text fill="#000000" font-family="sans-serif" font-size="14" font-weight="bold" lengthAdjust="spacing" textLength="74" x="480.5" y="678.0234">row_count</text><text fill="#000000" font-family="sans-serif" font-size="14" lengthAdjust="spacing" textLength="9" x="584.5" y="678.0234">1</text><line style="stroke:#000000;stroke-width:1.0;" x1="579.5" x2="579.5" y1="662.4883" y2="682.9766"/><line style="stroke:#000000;stroke-width:1.0;" x1="475.5" x2="789.5" y1="682.9766" y2="682.9766"/><text fill="#000000" font-family="sans-serif" font-size="14" font-weight="bold" lengthAdjust="spacing" textLength="94" x="480.5" y="698.5117">ratio_percent</text><text fill="#000000" font-family="sans-serif" font-size="14" lengthAdjust="spacing" textLength="22" x="584.5" y="698.5117">0.1</text><line style="stroke:#000000;stroke-width:1.0;" x1="579.5" x2="579.5" y1="682.9766" y2="703.4648"/><rect fill="none" height="61.4648" rx="5" ry="5" style="stroke:#000000;stroke-width:1.5;" width="314" x="475.5" y="642"/><rect fill="#F1F1F1" height="61.4648" rx="5" ry="5" style="stroke:#F1F1F1;stroke-width:1.5;" width="288" x="488.5" y="721"/><text fill="#000000" font-family="sans-serif" font-size="14" font-weight="bold" lengthAdjust="spacing" textLength="94" x="493.5" y="736.5352">field_value_1</text><text fill="#000000" font-family="sans-serif" font-size="14" lengthAdjust="spacing" textLength="174" x="597.5" y="736.5352">agneshooper@digial.com</text><line style="stroke:#000000;stroke-width:1.0;" x1="592.5" x2="592.5" y1="721" y2="741.4883"/><line style="stroke:#000000;stroke-width:1.0;" x1="488.5" x2="776.5" y1="741.4883" y2="741.4883"/><text fill="#000000" font-family="sans-serif" font-size="14" font-weight="bold" lengthAdjust="spacing" textLength="74" x="493.5" y="757.0234">row_count</text><text fill="#000000" font-family="sans-serif" font-size="14" lengthAdjust="spacing" textLength="9" x="597.5" y="757.0234">1</text><line style="stroke:#000000;stroke-width:1.0;" x1="592.5" x2="592.5" y1="741.4883" y2="761.9766"/><line style="stroke:#000000;stroke-width:1.0;" x1="488.5" x2="776.5" y1="761.9766" y2="761.9766"/><text fill="#000000" font-family="sans-serif" font-size="14" font-weight="bold" lengthAdjust="spacing" textLength="94" x="493.5" y="777.5117">ratio_percent</text><text fill="#000000" font-family="sans-serif" font-size="14" lengthAdjust="spacing" textLength="22" x="597.5" y="777.5117">0.1</text><line style="stroke:#000000;stroke-width:1.0;" x1="592.5" x2="592.5" y1="761.9766" y2="782.4648"/><rect fill="none" height="61.4648" rx="5" ry="5" style="stroke:#000000;stroke-width:1.5;" width="288" x="488.5" y="721"/><path d="M179,315.5 L192,315.5 C212.8273,315.5 209.6745,295.3971 228,285.5 C232.2321,283.2144 236.6626,281.0778 241.2032,279.0842 " fill="none" style="stroke:#000000;stroke-width:1.0;stroke-dasharray:3.0,3.0;"/><path d="M242.4096,281.9694 L243.3671,278.1794 L239.9968,276.199 L248.4162,276.0682 L242.4096,281.9694 " fill="#000000" style="stroke:#000000;stroke-width:1.0;"/><ellipse cx="179" cy="315.5" fill="#000000" rx="3" ry="3" style="stroke:#000000;stroke-width:1.0;"/><path d="M327.5,303.5 L340.5,303.5 C379.768,303.5 399.6833,313.7095 427,285.5 C491.6556,218.7312 399.0704,146.9642 463,79.5 C468.0194,74.2031 473.6029,69.5596 479.5988,65.4932 " fill="none" style="stroke:#000000;stroke-width:1.0;stroke-dasharray:3.0,3.0;"/><path d="M481.2746,68.1576 L481.5971,64.2364 L477.923,62.8289 L486.2597,61.3037 L481.2746,68.1576 " fill="#000000" style="stroke:#000000;stroke-width:1.0;"/><ellipse cx="327.5" cy="303.5" fill="#000000" rx="3" ry="3" style="stroke:#000000;stroke-width:1.0;"/><path d="M327.5,324.5 L340.5,324.5 C382.6713,324.5 399.4563,317.4338 427,285.5 C465.3185,241.074 420.5029,198.9471 463,158.5 C465.2016,156.4046 467.4923,154.4138 469.8617,152.5226 " fill="none" style="stroke:#000000;stroke-width:1.0;stroke-dasharray:3.0,3.0;"/><path d="M471.7724,155.102 L471.7963,151.0896 L467.951,149.9432 L476.3102,147.7458 L471.7724,155.102 " fill="#000000" style="stroke:#000000;stroke-width:1.0;"/><ellipse cx="327.5" cy="324.5" fill="#000000" rx="3" ry="3" style="stroke:#000000;stroke-width:1.0;"/><path d="M327.5,344.5 L340.5,344.5 C387.0358,344.5 393.3638,317.6588 427,285.5 C446.2747,267.0719 440.6513,252.048 463,237.5 C465.4802,235.8855 468.019,234.3375 470.6084,232.8532 " fill="none" style="stroke:#000000;stroke-width:1.0;stroke-dasharray:3.0,3.0;"/><path d="M472.1211,235.6398 L472.6983,231.7187 L469.0956,230.0667 L477.5748,229.0714 L472.1211,235.6398 " fill="#000000" style="stroke:#000000;stroke-width:1.0;"/><ellipse cx="327.5" cy="344.5" fill="#000000" rx="3" ry="3" style="stroke:#000000;stroke-width:1.0;"/><path d="M327.5,365.5 L340.5,365.5 C398.9749,365.5 407.1877,334.9441 463,317.5 C471.2062,314.9351 479.6812,312.4454 488.2631,310.0458 " fill="none" style="stroke:#000000;stroke-width:1.0;stroke-dasharray:3.0,3.0;"/><path d="M489.0608,312.938 L490.4323,309.4476 L487.4655,307.1536 L495.4936,308.0517 L489.0608,312.938 " fill="#000000" style="stroke:#000000;stroke-width:1.0;"/><ellipse cx="327.5" cy="365.5" fill="#000000" rx="3" ry="3" style="stroke:#000000;stroke-width:1.0;"/><path d="M327.5,385.5 L340.5,385.5 C386.2668,385.5 435.8777,381.9165 480.9749,377.2688 " fill="none" style="stroke:#000000;stroke-width:1.0;stroke-dasharray:3.0,3.0;"/><path d="M481.2891,380.2642 L483.2213,377.0331 L480.6606,374.2735 L488.4631,376.4832 L481.2891,380.2642 " fill="#000000" style="stroke:#000000;stroke-width:1.0;"/><ellipse cx="327.5" cy="385.5" fill="#000000" rx="3" ry="3" style="stroke:#000000;stroke-width:1.0;"/><path d="M327.5,406.5 L340.5,406.5 C384.8503,406.5 432.8105,409.8651 476.7749,414.3028 " fill="none" style="stroke:#000000;stroke-width:1.0;stroke-dasharray:3.0,3.0;"/><path d="M476.4627,417.3382 L479.0515,414.5369 L477.0871,411.2673 L484.3635,415.0832 L476.4627,417.3382 " fill="#000000" style="stroke:#000000;stroke-width:1.0;"/><ellipse cx="327.5" cy="406.5" fill="#000000" rx="3" ry="3" style="stroke:#000000;stroke-width:1.0;"/><path d="M327.5,427.5 L340.5,427.5 C398.9749,427.5 407.139,458.2126 463,475.5 C470.1194,477.7033 477.4419,479.845 484.8616,481.9166 " fill="none" style="stroke:#000000;stroke-width:1.0;stroke-dasharray:3.0,3.0;"/><path d="M484.0424,484.8959 L487.096,482.531 L485.6807,478.9374 L492.3098,483.9645 L484.0424,484.8959 " fill="#000000" style="stroke:#000000;stroke-width:1.0;"/><ellipse cx="327.5" cy="427.5" fill="#000000" rx="3" ry="3" style="stroke:#000000;stroke-width:1.0;"/><path d="M327.5,447.5 L340.5,447.5 C412.7892,447.5 398.6274,521.6079 463,554.5 C466.6869,556.3839 470.4653,558.1779 474.3147,559.8863 " fill="none" style="stroke:#000000;stroke-width:1.0;stroke-dasharray:3.0,3.0;"/><path d="M473.1213,562.6868 L476.4151,560.7813 L475.5081,557.0858 L481.3159,562.8698 L473.1213,562.6868 " fill="#000000" style="stroke:#000000;stroke-width:1.0;"/><ellipse cx="327.5" cy="447.5" fill="#000000" rx="3" ry="3" style="stroke:#000000;stroke-width:1.0;"/><path d="M327.5,468.5 L340.5,468.5 C431.8344,468.5 386.5762,583.4863 463,633.5 C465.4763,635.1205 468.0115,636.6741 470.5975,638.1635 " fill="none" style="stroke:#000000;stroke-width:1.0;stroke-dasharray:3.0,3.0;"/><path d="M469.0797,640.9468 L472.6849,639.3018 L472.1152,635.3802 L477.5557,641.9579 L469.0797,640.9468 " fill="#000000" style="stroke:#000000;stroke-width:1.0;"/><ellipse cx="327.5" cy="468.5" fill="#000000" rx="3" ry="3" style="stroke:#000000;stroke-width:1.0;"/><path d="M327.5,488.5 L340.5,488.5 C453.9703,488.5 372.5705,643.9579 463,712.5 C468.9393,717.0017 475.3098,720.9976 481.9726,724.5432 " fill="none" style="stroke:#000000;stroke-width:1.0;stroke-dasharray:3.0,3.0;"/><path d="M480.6136,727.2453 L483.9992,725.5625 L483.3317,721.8412 L488.7277,727.9409 L480.6136,727.2453 " fill="#000000" style="stroke:#000000;stroke-width:1.0;"/><ellipse cx="327.5" cy="488.5" fill="#000000" rx="3" ry="3" style="stroke:#000000;stroke-width:1.0;"/><path d="M179,336.5 L192,336.5 C237.3406,336.5 284.4028,365.289 309.0463,382.9834 " fill="none" style="stroke:#000000;stroke-width:1.0;stroke-dasharray:3.0,3.0;"/><path d="M307.181,385.5179 L310.9472,384.3824 L310.9117,380.4489 L315.3825,387.6468 L307.181,385.5179 " fill="#000000" style="stroke:#000000;stroke-width:1.0;"/><ellipse cx="179" cy="336.5" fill="#000000" rx="3" ry="3" style="stroke:#000000;stroke-width:1.0;"/><!--MD5=[6403088d9fa004e5d571bede9d17b6ad]
@startjson
{
    "field1": "email",
    "combination": "email",
    "null_distribution": {
        "total_null_rows": 0,
        "total_not_null_rows": 1000
    },
    "data_distribution": [
        {
            "field_value_1": "abbottodom@jimbies.com",
            "row_count": 1,
            "ratio_percent": 0.1
        },
        {
            "field_value_1": "abigailnichols@enquility.com",
            "row_count": 1,
            "ratio_percent": 0.1
        },
        {
            "field_value_1": "acevedodorsey@netropic.com",
            "row_count": 1,
            "ratio_percent": 0.1
        },
        {
            "field_value_1": "adacortez@micronaut.com",
            "row_count": 1,
            "ratio_percent": 0.1
        },
        {
            "field_value_1": "adelatyler@surelogic.com",
            "row_count": 1,
            "ratio_percent": 0.1
        },
        {
            "field_value_1": "adelecarroll@aquafire.com",
            "row_count": 1,
            "ratio_percent": 0.1
        },
        {
            "field_value_1": "adkinsmejia@datagen.com",
            "row_count": 1,
            "ratio_percent": 0.1
        },
        {
            "field_value_1": "adrianamcfadden@telequiet.com",
            "row_count": 1,
            "ratio_percent": 0.1
        },
        {
            "field_value_1": "adrianpitts@combogene.com",
            "row_count": 1,
            "ratio_percent": 0.1
        },
        {
            "field_value_1": "agneshooper@digial.com",
            "row_count": 1,
            "ratio_percent": 0.1
        }
    ]
}
@endjson

PlantUML version 1.2022.12(Sun Oct 23 14:12:26 EDT 2022)
(GPL source distribution)
Java Runtime: OpenJDK Runtime Environment
JVM: OpenJDK 64-Bit Server VM
Default Encoding: UTF-8
Language: en
Country: CA
--></g></svg>