<?xml version="1.0" encoding="UTF-8" standalone="no"?><svg xmlns="http://www.w3.org/2000/svg" xmlns:xlink="http://www.w3.org/1999/xlink" contentStyleType="text/css" height="794px" preserveAspectRatio="none" style="width:675px;height:794px;background:#FFFFFF;" version="1.1" viewBox="0 0 675 794" width="675px" zoomAndPan="magnify"><defs/><g><rect fill="#F1F1F1" height="81.9531" rx="5" ry="5" style="stroke:#F1F1F1;stroke-width:1.5;" width="209" x="10" y="264.5"/><text fill="#000000" font-family="sans-serif" font-size="14" font-weight="bold" lengthAdjust="spacing" textLength="42" x="15" y="280.0352">field1</text><text fill="#000000" font-family="sans-serif" font-size="14" lengthAdjust="spacing" textLength="65" x="149" y="280.0352">firstname</text><line style="stroke:#000000;stroke-width:1.0;" x1="144" x2="144" y1="264.5" y2="284.9883"/><line style="stroke:#000000;stroke-width:1.0;" x1="10" x2="219" y1="284.9883" y2="284.9883"/><text fill="#000000" font-family="sans-serif" font-size="14" font-weight="bold" lengthAdjust="spacing" textLength="90" x="15" y="300.5234">combination</text><text fill="#000000" font-family="sans-serif" font-size="14" lengthAdjust="spacing" textLength="65" x="149" y="300.5234">firstname</text><line style="stroke:#000000;stroke-width:1.0;" x1="144" x2="144" y1="284.9883" y2="305.4766"/><line style="stroke:#000000;stroke-width:1.0;" x1="10" x2="219" y1="305.4766" y2="305.4766"/><text fill="#000000" font-family="sans-serif" font-size="14" font-weight="bold" lengthAdjust="spacing" textLength="121" x="15" y="321.0117">null_distribution</text><text fill="#000000" font-family="sans-serif" font-size="14" lengthAdjust="spacing" textLength="12" x="149" y="321.0117">   </text><line style="stroke:#000000;stroke-width:1.0;" x1="144" x2="144" y1="305.4766" y2="325.9648"/><line style="stroke:#000000;stroke-width:1.0;" x1="10" x2="219" y1="325.9648" y2="325.9648"/><text fill="#000000" font-family="sans-serif" font-size="14" font-weight="bold" lengthAdjust="spacing" textLength="124" x="15" y="341.5">data_distribution</text><text fill="#000000" font-family="sans-serif" font-size="14" lengthAdjust="spacing" textLength="12" x="149" y="341.5">   </text><line style="stroke:#000000;stroke-width:1.0;" x1="144" x2="144" y1="325.9648" y2="346.4531"/><rect fill="none" height="81.9531" rx="5" ry="5" style="stroke:#000000;stroke-width:1.5;" width="209" x="10" y="264.5"/><rect fill="#F1F1F1" height="40.9766" rx="5" ry="5" style="stroke:#F1F1F1;stroke-width:1.5;" width="198" x="256" y="235"/><text fill="#000000" font-family="sans-serif" font-size="14" font-weight="bold" lengthAdjust="spacing" textLength="111" x="261" y="250.5352">total_null_rows</text><text fill="#000000" font-family="sans-serif" font-size="14" lengthAdjust="spacing" textLength="9" x="413" y="250.5352">0</text><line style="stroke:#000000;stroke-width:1.0;" x1="408" x2="408" y1="235" y2="255.4883"/><line style="stroke:#000000;stroke-width:1.0;" x1="256" x2="454" y1="255.4883" y2="255.4883"/><text fill="#000000" font-family="sans-serif" font-size="14" font-weight="bold" lengthAdjust="spacing" textLength="142" x="261" y="271.0234">total_not_null_rows</text><text fill="#000000" font-family="sans-serif" font-size="14" lengthAdjust="spacing" textLength="36" x="413" y="271.0234">1000</text><line style="stroke:#000000;stroke-width:1.0;" x1="408" x2="408" y1="255.4883" y2="275.9766"/><rect fill="none" height="40.9766" rx="5" ry="5" style="stroke:#000000;stroke-width:1.5;" width="198" x="256" y="235"/><rect fill="#F1F1F1" height="204.8828" rx="5" ry="5" style="stroke:#F1F1F1;stroke-width:1.5;" width="22" x="343" y="294"/><text fill="#000000" font-family="sans-serif" font-size="14" lengthAdjust="spacing" textLength="12" x="348" y="309.5352">   </text><line style="stroke:#000000;stroke-width:1.0;" x1="343" x2="365" y1="314.4883" y2="314.4883"/><text fill="#000000" font-family="sans-serif" font-size="14" lengthAdjust="spacing" textLength="12" x="348" y="330.0234">   </text><line style="stroke:#000000;stroke-width:1.0;" x1="343" x2="365" y1="334.9766" y2="334.9766"/><text fill="#000000" font-family="sans-serif" font-size="14" lengthAdjust="spacing" textLength="12" x="348" y="350.5117">   </text><line style="stroke:#000000;stroke-width:1.0;" x1="343" x2="365" y1="355.4648" y2="355.4648"/><text fill="#000000" font-family="sans-serif" font-size="14" lengthAdjust="spacing" textLength="12" x="348" y="371">   </text><line style="stroke:#000000;stroke-width:1.0;" x1="343" x2="365" y1="375.9531" y2="375.9531"/><text fill="#000000" font-family="sans-serif" font-size="14" lengthAdjust="spacing" textLength="12" x="348" y="391.4883">   </text><line style="stroke:#000000;stroke-width:1.0;" x1="343" x2="365" y1="396.4414" y2="396.4414"/><text fill="#000000" font-family="sans-serif" font-size="14" lengthAdjust="spacing" textLength="12" x="348" y="411.9766">   </text><line style="stroke:#000000;stroke-width:1.0;" x1="343" x2="365" y1="416.9297" y2="416.9297"/><text fill="#000000" font-family="sans-serif" font-size="14" lengthAdjust="spacing" textLength="12" x="348" y="432.4648">   </text><line style="stroke:#000000;stroke-width:1.0;" x1="343" x2="365" y1="437.418" y2="437.418"/><text fill="#000000" font-family="sans-serif" font-size="14" lengthAdjust="spacing" textLength="12" x="348" y="452.9531">   </text><line style="stroke:#000000;stroke-width:1.0;" x1="343" x2="365" y1="457.9063" y2="457.9063"/><text fill="#000000" font-family="sans-serif" font-size="14" lengthAdjust="spacing" textLength="12" x="348" y="473.4414">   </text><line style="stroke:#000000;stroke-width:1.0;" x1="343" x2="365" y1="478.3945" y2="478.3945"/><text fill="#000000" font-family="sans-serif" font-size="14" lengthAdjust="spacing" textLength="12" x="348" y="493.9297">   </text><rect fill="none" height="204.8828" rx="5" ry="5" style="stroke:#000000;stroke-width:1.5;" width="22" x="343" y="294"/><rect fill="#F1F1F1" height="61.4648" rx="5" ry="5" style="stroke:#F1F1F1;stroke-width:1.5;" width="139" x="507.5" y="10"/><text fill="#000000" font-family="sans-serif" font-size="14" font-weight="bold" lengthAdjust="spacing" textLength="94" x="512.5" y="25.5352">field_value_1</text><text fill="#000000" font-family="sans-serif" font-size="14" lengthAdjust="spacing" textLength="25" x="616.5" y="25.5352">Gay</text><line style="stroke:#000000;stroke-width:1.0;" x1="611.5" x2="611.5" y1="10" y2="30.4883"/><line style="stroke:#000000;stroke-width:1.0;" x1="507.5" x2="646.5" y1="30.4883" y2="30.4883"/><text fill="#000000" font-family="sans-serif" font-size="14" font-weight="bold" lengthAdjust="spacing" textLength="74" x="512.5" y="46.0234">row_count</text><text fill="#000000" font-family="sans-serif" font-size="14" lengthAdjust="spacing" textLength="9" x="616.5" y="46.0234">2</text><line style="stroke:#000000;stroke-width:1.0;" x1="611.5" x2="611.5" y1="30.4883" y2="50.9766"/><line style="stroke:#000000;stroke-width:1.0;" x1="507.5" x2="646.5" y1="50.9766" y2="50.9766"/><text fill="#000000" font-family="sans-serif" font-size="14" font-weight="bold" lengthAdjust="spacing" textLength="94" x="512.5" y="66.5117">ratio_percent</text><text fill="#000000" font-family="sans-serif" font-size="14" lengthAdjust="spacing" textLength="22" x="616.5" y="66.5117">0.2</text><line style="stroke:#000000;stroke-width:1.0;" x1="611.5" x2="611.5" y1="50.9766" y2="71.4648"/><rect fill="none" height="61.4648" rx="5" ry="5" style="stroke:#000000;stroke-width:1.5;" width="139" x="507.5" y="10"/><rect fill="#F1F1F1" height="61.4648" rx="5" ry="5" style="stroke:#F1F1F1;stroke-width:1.5;" width="154" x="500" y="89"/><text fill="#000000" font-family="sans-serif" font-size="14" font-weight="bold" lengthAdjust="spacing" textLength="94" x="505" y="104.5352">field_value_1</text><text fill="#000000" font-family="sans-serif" font-size="14" lengthAdjust="spacing" textLength="40" x="609" y="104.5352">Kelley</text><line style="stroke:#000000;stroke-width:1.0;" x1="604" x2="604" y1="89" y2="109.4883"/><line style="stroke:#000000;stroke-width:1.0;" x1="500" x2="654" y1="109.4883" y2="109.4883"/><text fill="#000000" font-family="sans-serif" font-size="14" font-weight="bold" lengthAdjust="spacing" textLength="74" x="505" y="125.0234">row_count</text><text fill="#000000" font-family="sans-serif" font-size="14" lengthAdjust="spacing" textLength="9" x="609" y="125.0234">2</text><line style="stroke:#000000;stroke-width:1.0;" x1="604" x2="604" y1="109.4883" y2="129.9766"/><line style="stroke:#000000;stroke-width:1.0;" x1="500" x2="654" y1="129.9766" y2="129.9766"/><text fill="#000000" font-family="sans-serif" font-size="14" font-weight="bold" lengthAdjust="spacing" textLength="94" x="505" y="145.5117">ratio_percent</text><text fill="#000000" font-family="sans-serif" font-size="14" lengthAdjust="spacing" textLength="22" x="609" y="145.5117">0.2</text><line style="stroke:#000000;stroke-width:1.0;" x1="604" x2="604" y1="129.9766" y2="150.4648"/><rect fill="none" height="61.4648" rx="5" ry="5" style="stroke:#000000;stroke-width:1.5;" width="154" x="500" y="89"/><rect fill="#F1F1F1" height="61.4648" rx="5" ry="5" style="stroke:#F1F1F1;stroke-width:1.5;" width="143" x="505.5" y="168"/><text fill="#000000" font-family="sans-serif" font-size="14" font-weight="bold" lengthAdjust="spacing" textLength="94" x="510.5" y="183.5352">field_value_1</text><text fill="#000000" font-family="sans-serif" font-size="14" lengthAdjust="spacing" textLength="29" x="614.5" y="183.5352">Lara</text><line style="stroke:#000000;stroke-width:1.0;" x1="609.5" x2="609.5" y1="168" y2="188.4883"/><line style="stroke:#000000;stroke-width:1.0;" x1="505.5" x2="648.5" y1="188.4883" y2="188.4883"/><text fill="#000000" font-family="sans-serif" font-size="14" font-weight="bold" lengthAdjust="spacing" textLength="74" x="510.5" y="204.0234">row_count</text><text fill="#000000" font-family="sans-serif" font-size="14" lengthAdjust="spacing" textLength="9" x="614.5" y="204.0234">2</text><line style="stroke:#000000;stroke-width:1.0;" x1="609.5" x2="609.5" y1="188.4883" y2="208.9766"/><line style="stroke:#000000;stroke-width:1.0;" x1="505.5" x2="648.5" y1="208.9766" y2="208.9766"/><text fill="#000000" font-family="sans-serif" font-size="14" font-weight="bold" lengthAdjust="spacing" textLength="94" x="510.5" y="224.5117">ratio_percent</text><text fill="#000000" font-family="sans-serif" font-size="14" lengthAdjust="spacing" textLength="22" x="614.5" y="224.5117">0.2</text><line style="stroke:#000000;stroke-width:1.0;" x1="609.5" x2="609.5" y1="208.9766" y2="229.4648"/><rect fill="none" height="61.4648" rx="5" ry="5" style="stroke:#000000;stroke-width:1.5;" width="143" x="505.5" y="168"/><rect fill="#F1F1F1" height="61.4648" rx="5" ry="5" style="stroke:#F1F1F1;stroke-width:1.5;" width="146" x="504" y="247"/><text fill="#000000" font-family="sans-serif" font-size="14" font-weight="bold" lengthAdjust="spacing" textLength="94" x="509" y="262.5352">field_value_1</text><text fill="#000000" font-family="sans-serif" font-size="14" lengthAdjust="spacing" textLength="32" x="613" y="262.5352">Lynn</text><line style="stroke:#000000;stroke-width:1.0;" x1="608" x2="608" y1="247" y2="267.4883"/><line style="stroke:#000000;stroke-width:1.0;" x1="504" x2="650" y1="267.4883" y2="267.4883"/><text fill="#000000" font-family="sans-serif" font-size="14" font-weight="bold" lengthAdjust="spacing" textLength="74" x="509" y="283.0234">row_count</text><text fill="#000000" font-family="sans-serif" font-size="14" lengthAdjust="spacing" textLength="9" x="613" y="283.0234">2</text><line style="stroke:#000000;stroke-width:1.0;" x1="608" x2="608" y1="267.4883" y2="287.9766"/><line style="stroke:#000000;stroke-width:1.0;" x1="504" x2="650" y1="287.9766" y2="287.9766"/><text fill="#000000" font-family="sans-serif" font-size="14" font-weight="bold" lengthAdjust="spacing" textLength="94" x="509" y="303.5117">ratio_percent</text><text fill="#000000" font-family="sans-serif" font-size="14" lengthAdjust="spacing" textLength="22" x="613" y="303.5117">0.2</text><line style="stroke:#000000;stroke-width:1.0;" x1="608" x2="608" y1="287.9766" y2="308.4648"/><rect fill="none" height="61.4648" rx="5" ry="5" style="stroke:#000000;stroke-width:1.5;" width="146" x="504" y="247"/><rect fill="#F1F1F1" height="61.4648" rx="5" ry="5" style="stroke:#F1F1F1;stroke-width:1.5;" width="166" x="494" y="326"/><text fill="#000000" font-family="sans-serif" font-size="14" font-weight="bold" lengthAdjust="spacing" textLength="94" x="499" y="341.5352">field_value_1</text><text fill="#000000" font-family="sans-serif" font-size="14" lengthAdjust="spacing" textLength="52" x="603" y="341.5352">Michael</text><line style="stroke:#000000;stroke-width:1.0;" x1="598" x2="598" y1="326" y2="346.4883"/><line style="stroke:#000000;stroke-width:1.0;" x1="494" x2="660" y1="346.4883" y2="346.4883"/><text fill="#000000" font-family="sans-serif" font-size="14" font-weight="bold" lengthAdjust="spacing" textLength="74" x="499" y="362.0234">row_count</text><text fill="#000000" font-family="sans-serif" font-size="14" lengthAdjust="spacing" textLength="9" x="603" y="362.0234">2</text><line style="stroke:#000000;stroke-width:1.0;" x1="598" x2="598" y1="346.4883" y2="366.9766"/><line style="stroke:#000000;stroke-width:1.0;" x1="494" x2="660" y1="366.9766" y2="366.9766"/><text fill="#000000" font-family="sans-serif" font-size="14" font-weight="bold" lengthAdjust="spacing" textLength="94" x="499" y="382.5117">ratio_percent</text><text fill="#000000" font-family="sans-serif" font-size="14" lengthAdjust="spacing" textLength="22" x="603" y="382.5117">0.2</text><line style="stroke:#000000;stroke-width:1.0;" x1="598" x2="598" y1="366.9766" y2="387.4648"/><rect fill="none" height="61.4648" rx="5" ry="5" style="stroke:#000000;stroke-width:1.5;" width="166" x="494" y="326"/><rect fill="#F1F1F1" height="61.4648" rx="5" ry="5" style="stroke:#F1F1F1;stroke-width:1.5;" width="167" x="493.5" y="405"/><text fill="#000000" font-family="sans-serif" font-size="14" font-weight="bold" lengthAdjust="spacing" textLength="94" x="498.5" y="420.5352">field_value_1</text><text fill="#000000" font-family="sans-serif" font-size="14" lengthAdjust="spacing" textLength="53" x="602.5" y="420.5352">Morgan</text><line style="stroke:#000000;stroke-width:1.0;" x1="597.5" x2="597.5" y1="405" y2="425.4883"/><line style="stroke:#000000;stroke-width:1.0;" x1="493.5" x2="660.5" y1="425.4883" y2="425.4883"/><text fill="#000000" font-family="sans-serif" font-size="14" font-weight="bold" lengthAdjust="spacing" textLength="74" x="498.5" y="441.0234">row_count</text><text fill="#000000" font-family="sans-serif" font-size="14" lengthAdjust="spacing" textLength="9" x="602.5" y="441.0234">2</text><line style="stroke:#000000;stroke-width:1.0;" x1="597.5" x2="597.5" y1="425.4883" y2="445.9766"/><line style="stroke:#000000;stroke-width:1.0;" x1="493.5" x2="660.5" y1="445.9766" y2="445.9766"/><text fill="#000000" font-family="sans-serif" font-size="14" font-weight="bold" lengthAdjust="spacing" textLength="94" x="498.5" y="461.5117">ratio_percent</text><text fill="#000000" font-family="sans-serif" font-size="14" lengthAdjust="spacing" textLength="22" x="602.5" y="461.5117">0.2</text><line style="stroke:#000000;stroke-width:1.0;" x1="597.5" x2="597.5" y1="445.9766" y2="466.4648"/><rect fill="none" height="61.4648" rx="5" ry="5" style="stroke:#000000;stroke-width:1.5;" width="167" x="493.5" y="405"/><rect fill="#F1F1F1" height="61.4648" rx="5" ry="5" style="stroke:#F1F1F1;stroke-width:1.5;" width="147" x="503.5" y="484"/><text fill="#000000" font-family="sans-serif" font-size="14" font-weight="bold" lengthAdjust="spacing" textLength="94" x="508.5" y="499.5352">field_value_1</text><text fill="#000000" font-family="sans-serif" font-size="14" lengthAdjust="spacing" textLength="33" x="612.5" y="499.5352">Rose</text><line style="stroke:#000000;stroke-width:1.0;" x1="607.5" x2="607.5" y1="484" y2="504.4883"/><line style="stroke:#000000;stroke-width:1.0;" x1="503.5" x2="650.5" y1="504.4883" y2="504.4883"/><text fill="#000000" font-family="sans-serif" font-size="14" font-weight="bold" lengthAdjust="spacing" textLength="74" x="508.5" y="520.0234">row_count</text><text fill="#000000" font-family="sans-serif" font-size="14" lengthAdjust="spacing" textLength="9" x="612.5" y="520.0234">2</text><line style="stroke:#000000;stroke-width:1.0;" x1="607.5" x2="607.5" y1="504.4883" y2="524.9766"/><line style="stroke:#000000;stroke-width:1.0;" x1="503.5" x2="650.5" y1="524.9766" y2="524.9766"/><text fill="#000000" font-family="sans-serif" font-size="14" font-weight="bold" lengthAdjust="spacing" textLength="94" x="508.5" y="540.5117">ratio_percent</text><text fill="#000000" font-family="sans-serif" font-size="14" lengthAdjust="spacing" textLength="22" x="612.5" y="540.5117">0.2</text><line style="stroke:#000000;stroke-width:1.0;" x1="607.5" x2="607.5" y1="524.9766" y2="545.4648"/><rect fill="none" height="61.4648" rx="5" ry="5" style="stroke:#000000;stroke-width:1.5;" width="147" x="503.5" y="484"/><rect fill="#F1F1F1" height="61.4648" rx="5" ry="5" style="stroke:#F1F1F1;stroke-width:1.5;" width="161" x="496.5" y="563"/><text fill="#000000" font-family="sans-serif" font-size="14" font-weight="bold" lengthAdjust="spacing" textLength="94" x="501.5" y="578.5352">field_value_1</text><text fill="#000000" font-family="sans-serif" font-size="14" lengthAdjust="spacing" textLength="47" x="605.5" y="578.5352">Abbott</text><line style="stroke:#000000;stroke-width:1.0;" x1="600.5" x2="600.5" y1="563" y2="583.4883"/><line style="stroke:#000000;stroke-width:1.0;" x1="496.5" x2="657.5" y1="583.4883" y2="583.4883"/><text fill="#000000" font-family="sans-serif" font-size="14" font-weight="bold" lengthAdjust="spacing" textLength="74" x="501.5" y="599.0234">row_count</text><text fill="#000000" font-family="sans-serif" font-size="14" lengthAdjust="spacing" textLength="9" x="605.5" y="599.0234">1</text><line style="stroke:#000000;stroke-width:1.0;" x1="600.5" x2="600.5" y1="583.4883" y2="603.9766"/><line style="stroke:#000000;stroke-width:1.0;" x1="496.5" x2="657.5" y1="603.9766" y2="603.9766"/><text fill="#000000" font-family="sans-serif" font-size="14" font-weight="bold" lengthAdjust="spacing" textLength="94" x="501.5" y="619.5117">ratio_percent</text><text fill="#000000" font-family="sans-serif" font-size="14" lengthAdjust="spacing" textLength="22" x="605.5" y="619.5117">0.1</text><line style="stroke:#000000;stroke-width:1.0;" x1="600.5" x2="600.5" y1="603.9766" y2="624.4648"/><rect fill="none" height="61.4648" rx="5" ry="5" style="stroke:#000000;stroke-width:1.5;" width="161" x="496.5" y="563"/><rect fill="#F1F1F1" height="61.4648" rx="5" ry="5" style="stroke:#F1F1F1;stroke-width:1.5;" width="162" x="496" y="642"/><text fill="#000000" font-family="sans-serif" font-size="14" font-weight="bold" lengthAdjust="spacing" textLength="94" x="501" y="657.5352">field_value_1</text><text fill="#000000" font-family="sans-serif" font-size="14" lengthAdjust="spacing" textLength="48" x="605" y="657.5352">Abigail</text><line style="stroke:#000000;stroke-width:1.0;" x1="600" x2="600" y1="642" y2="662.4883"/><line style="stroke:#000000;stroke-width:1.0;" x1="496" x2="658" y1="662.4883" y2="662.4883"/><text fill="#000000" font-family="sans-serif" font-size="14" font-weight="bold" lengthAdjust="spacing" textLength="74" x="501" y="678.0234">row_count</text><text fill="#000000" font-family="sans-serif" font-size="14" lengthAdjust="spacing" textLength="9" x="605" y="678.0234">1</text><line style="stroke:#000000;stroke-width:1.0;" x1="600" x2="600" y1="662.4883" y2="682.9766"/><line style="stroke:#000000;stroke-width:1.0;" x1="496" x2="658" y1="682.9766" y2="682.9766"/><text fill="#000000" font-family="sans-serif" font-size="14" font-weight="bold" lengthAdjust="spacing" textLength="94" x="501" y="698.5117">ratio_percent</text><text fill="#000000" font-family="sans-serif" font-size="14" lengthAdjust="spacing" textLength="22" x="605" y="698.5117">0.1</text><line style="stroke:#000000;stroke-width:1.0;" x1="600" x2="600" y1="682.9766" y2="703.4648"/><rect fill="none" height="61.4648" rx="5" ry="5" style="stroke:#000000;stroke-width:1.5;" width="162" x="496" y="642"/><rect fill="#F1F1F1" height="61.4648" rx="5" ry="5" style="stroke:#F1F1F1;stroke-width:1.5;" width="172" x="491" y="721"/><text fill="#000000" font-family="sans-serif" font-size="14" font-weight="bold" lengthAdjust="spacing" textLength="94" x="496" y="736.5352">field_value_1</text><text fill="#000000" font-family="sans-serif" font-size="14" lengthAdjust="spacing" textLength="58" x="600" y="736.5352">Acevedo</text><line style="stroke:#000000;stroke-width:1.0;" x1="595" x2="595" y1="721" y2="741.4883"/><line style="stroke:#000000;stroke-width:1.0;" x1="491" x2="663" y1="741.4883" y2="741.4883"/><text fill="#000000" font-family="sans-serif" font-size="14" font-weight="bold" lengthAdjust="spacing" textLength="74" x="496" y="757.0234">row_count</text><text fill="#000000" font-family="sans-serif" font-size="14" lengthAdjust="spacing" textLength="9" x="600" y="757.0234">1</text><line style="stroke:#000000;stroke-width:1.0;" x1="595" x2="595" y1="741.4883" y2="761.9766"/><line style="stroke:#000000;stroke-width:1.0;" x1="491" x2="663" y1="761.9766" y2="761.9766"/><text fill="#000000" font-family="sans-serif" font-size="14" font-weight="bold" lengthAdjust="spacing" textLength="94" x="496" y="777.5117">ratio_percent</text><text fill="#000000" font-family="sans-serif" font-size="14" lengthAdjust="spacing" textLength="22" x="600" y="777.5117">0.1</text><line style="stroke:#000000;stroke-width:1.0;" x1="595" x2="595" y1="761.9766" y2="782.4648"/><rect fill="none" height="61.4648" rx="5" ry="5" style="stroke:#000000;stroke-width:1.5;" width="172" x="491" y="721"/><path d="M207,315.5 L220,315.5 C240.8273,315.5 237.6745,295.3971 256,285.5 C260.2321,283.2144 264.6626,281.0778 269.2032,279.0842 " fill="none" style="stroke:#000000;stroke-width:1.0;stroke-dasharray:3.0,3.0;"/><path d="M270.4096,281.9694 L271.3671,278.1794 L267.9968,276.199 L276.4162,276.0682 L270.4096,281.9694 " fill="#000000" style="stroke:#000000;stroke-width:1.0;"/><ellipse cx="207" cy="315.5" fill="#000000" rx="3" ry="3" style="stroke:#000000;stroke-width:1.0;"/><path d="M355.5,303.5 L368.5,303.5 C407.768,303.5 427.6833,313.7095 455,285.5 C519.6556,218.7312 434.1672,153.0422 491,79.5 C494.1503,75.4234 497.8244,71.7592 501.8451,68.4675 " fill="none" style="stroke:#000000;stroke-width:1.0;stroke-dasharray:3.0,3.0;"/><path d="M503.6694,70.9147 L503.6805,67.0993 L500.0208,66.0202 L507.9632,63.9068 L503.6694,70.9147 " fill="#000000" style="stroke:#000000;stroke-width:1.0;"/><ellipse cx="355.5" cy="303.5" fill="#000000" rx="3" ry="3" style="stroke:#000000;stroke-width:1.0;"/><path d="M355.5,324.5 L368.5,324.5 C410.6713,324.5 427.4563,317.4338 455,285.5 C493.3185,241.074 452.7788,203.0097 491,158.5 C492.1227,157.1926 493.2983,155.9267 494.5205,154.7011 " fill="none" style="stroke:#000000;stroke-width:1.0;stroke-dasharray:3.0,3.0;"/><path d="M496.5682,156.9564 L496.212,153.1653 L492.4728,152.4458 L500.1587,149.5818 L496.5682,156.9564 " fill="#000000" style="stroke:#000000;stroke-width:1.0;"/><ellipse cx="355.5" cy="324.5" fill="#000000" rx="3" ry="3" style="stroke:#000000;stroke-width:1.0;"/><path d="M355.5,344.5 L368.5,344.5 C415.0358,344.5 421.3638,317.6588 455,285.5 C474.2747,267.0719 470.2249,254.2185 491,237.5 C493.5739,235.4287 496.2755,233.4411 499.0687,231.5368 " fill="none" style="stroke:#000000;stroke-width:1.0;stroke-dasharray:3.0,3.0;"/><path d="M500.7855,234.2033 L501.0685,230.2492 L497.3518,228.8704 L505.7348,227.2448 L500.7855,234.2033 " fill="#000000" style="stroke:#000000;stroke-width:1.0;"/><ellipse cx="355.5" cy="344.5" fill="#000000" rx="3" ry="3" style="stroke:#000000;stroke-width:1.0;"/><path d="M355.5,365.5 L368.5,365.5 C383.0237,365.5 450.4087,336.023 504.6018,311.1894 " fill="none" style="stroke:#000000;stroke-width:1.0;stroke-dasharray:3.0,3.0;"/><path d="M505.8651,313.9398 L506.6646,310.2419 L503.3385,308.439 L511.4777,308.0312 L505.8651,313.9398 " fill="#000000" style="stroke:#000000;stroke-width:1.0;"/><ellipse cx="355.5" cy="365.5" fill="#000000" rx="3" ry="3" style="stroke:#000000;stroke-width:1.0;"/><path d="M355.5,385.5 L368.5,385.5 C407.4749,385.5 450.1676,380.4436 486.6776,374.5535 " fill="none" style="stroke:#000000;stroke-width:1.0;stroke-dasharray:3.0,3.0;"/><path d="M487.1848,377.6308 L488.9857,374.1731 L486.1704,371.4761 L494.3711,373.2854 L487.1848,377.6308 " fill="#000000" style="stroke:#000000;stroke-width:1.0;"/><ellipse cx="355.5" cy="385.5" fill="#000000" rx="3" ry="3" style="stroke:#000000;stroke-width:1.0;"/><path d="M355.5,406.5 L368.5,406.5 C407.3047,406.5 449.7948,411.5124 486.199,417.3694 " fill="none" style="stroke:#000000;stroke-width:1.0;stroke-dasharray:3.0,3.0;"/><path d="M485.6945,420.4384 L488.5007,417.7478 L486.7034,414.3005 L493.8713,418.6306 L485.6945,420.4384 " fill="#000000" style="stroke:#000000;stroke-width:1.0;"/><ellipse cx="355.5" cy="406.5" fill="#000000" rx="3" ry="3" style="stroke:#000000;stroke-width:1.0;"/><path d="M355.5,427.5 L368.5,427.5 C375.7142,427.5 443.6163,456.3598 499.9066,480.8356 " fill="none" style="stroke:#000000;stroke-width:1.0;stroke-dasharray:3.0,3.0;"/><path d="M498.6611,483.6968 L502.0526,481.7697 L501.1521,477.9743 L507.0598,483.9494 L498.6611,483.6968 " fill="#000000" style="stroke:#000000;stroke-width:1.0;"/><ellipse cx="355.5" cy="427.5" fill="#000000" rx="3" ry="3" style="stroke:#000000;stroke-width:1.0;"/><path d="M355.5,447.5 L368.5,447.5 C440.7892,447.5 430.2552,515.3107 491,554.5 C493.4035,556.0506 495.8787,557.5717 498.4046,559.0601 " fill="none" style="stroke:#000000;stroke-width:1.0;stroke-dasharray:3.0,3.0;"/><path d="M496.8601,561.7762 L500.4417,560.2185 L499.9491,556.344 L505.1948,562.9214 L496.8601,561.7762 " fill="#000000" style="stroke:#000000;stroke-width:1.0;"/><ellipse cx="355.5" cy="447.5" fill="#000000" rx="3" ry="3" style="stroke:#000000;stroke-width:1.0;"/><path d="M355.5,468.5 L368.5,468.5 C459.8344,468.5 419.984,576.0657 491,633.5 C492.7244,634.8946 494.5068,636.2512 496.3362,637.5696 " fill="none" style="stroke:#000000;stroke-width:1.0;stroke-dasharray:3.0,3.0;"/><path d="M494.6016,640.1234 L498.2515,638.8706 L498.0707,635.0158 L502.7206,641.9061 L494.6016,640.1234 " fill="#000000" style="stroke:#000000;stroke-width:1.0;"/><ellipse cx="355.5" cy="468.5" fill="#000000" rx="3" ry="3" style="stroke:#000000;stroke-width:1.0;"/><path d="M355.5,488.5 L368.5,488.5 C481.9703,488.5 407.9095,635.2247 491,712.5 C492.4112,713.8125 493.8743,715.0869 495.3813,716.3239 " fill="none" style="stroke:#000000;stroke-width:1.0;stroke-dasharray:3.0,3.0;"/><path d="M493.5463,718.7298 L497.1857,717.7001 L497.2164,713.918 L501.396,720.9115 L493.5463,718.7298 " fill="#000000" style="stroke:#000000;stroke-width:1.0;"/><ellipse cx="355.5" cy="488.5" fill="#000000" rx="3" ry="3" style="stroke:#000000;stroke-width:1.0;"/><path d="M207,336.5 L220,336.5 C265.3406,336.5 312.4028,365.289 337.0463,382.9834 " fill="none" style="stroke:#000000;stroke-width:1.0;stroke-dasharray:3.0,3.0;"/><path d="M335.181,385.5179 L338.9472,384.3824 L338.9117,380.4489 L343.3825,387.6468 L335.181,385.5179 " fill="#000000" style="stroke:#000000;stroke-width:1.0;"/><ellipse cx="207" cy="336.5" fill="#000000" rx="3" ry="3" style="stroke:#000000;stroke-width:1.0;"/><!--MD5=[da97c0455afe69b3887425bcaee8ff45]
@startjson
{
    "field1": "firstname",
    "combination": "firstname",
    "null_distribution": {
        "total_null_rows": 0,
        "total_not_null_rows": 1000
    },
    "data_distribution": [
        {
            "field_value_1": "Gay",
            "row_count": 2,
            "ratio_percent": 0.2
        },
        {
            "field_value_1": "Kelley",
            "row_count": 2,
            "ratio_percent": 0.2
        },
        {
            "field_value_1": "Lara",
            "row_count": 2,
            "ratio_percent": 0.2
        },
        {
            "field_value_1": "Lynn",
            "row_count": 2,
            "ratio_percent": 0.2
        },
        {
            "field_value_1": "Michael",
            "row_count": 2,
            "ratio_percent": 0.2
        },
        {
            "field_value_1": "Morgan",
            "row_count": 2,
            "ratio_percent": 0.2
        },
        {
            "field_value_1": "Rose",
            "row_count": 2,
            "ratio_percent": 0.2
        },
        {
            "field_value_1": "Abbott",
            "row_count": 1,
            "ratio_percent": 0.1
        },
        {
            "field_value_1": "Abigail",
            "row_count": 1,
            "ratio_percent": 0.1
        },
        {
            "field_value_1": "Acevedo",
            "row_count": 1,
            "ratio_percent": 0.1
        }
    ]
}
@endjson

PlantUML version 1.2022.12(Sun Oct 23 14:12:26 EDT 2022)
(GPL source distribution)
Java Runtime: OpenJDK Runtime Environment
JVM: OpenJDK 64-Bit Server VM
Default Encoding: UTF-8
Language: en
Country: CA
--></g></svg>