<?xml version="1.0" encoding="UTF-8" standalone="no"?><svg xmlns="http://www.w3.org/2000/svg" xmlns:xlink="http://www.w3.org/1999/xlink" contentStyleType="text/css" height="794px" preserveAspectRatio="none" style="width:817px;height:794px;background:#FFFFFF;" version="1.1" viewBox="0 0 817 794" width="817px" zoomAndPan="magnify"><defs/><g><rect fill="#F1F1F1" height="81.9531" rx="5" ry="5" style="stroke:#F1F1F1;stroke-width:1.5;" width="202" x="10" y="264.5"/><text fill="#000000" font-family="sans-serif" font-size="14" font-weight="bold" lengthAdjust="spacing" textLength="42" x="15" y="280.0352">field1</text><text fill="#000000" font-family="sans-serif" font-size="14" lengthAdjust="spacing" textLength="58" x="149" y="280.0352">utc_time</text><line style="stroke:#000000;stroke-width:1.0;" x1="144" x2="144" y1="264.5" y2="284.9883"/><line style="stroke:#000000;stroke-width:1.0;" x1="10" x2="212" y1="284.9883" y2="284.9883"/><text fill="#000000" font-family="sans-serif" font-size="14" font-weight="bold" lengthAdjust="spacing" textLength="90" x="15" y="300.5234">combination</text><text fill="#000000" font-family="sans-serif" font-size="14" lengthAdjust="spacing" textLength="58" x="149" y="300.5234">utc_time</text><line style="stroke:#000000;stroke-width:1.0;" x1="144" x2="144" y1="284.9883" y2="305.4766"/><line style="stroke:#000000;stroke-width:1.0;" x1="10" x2="212" y1="305.4766" y2="305.4766"/><text fill="#000000" font-family="sans-serif" font-size="14" font-weight="bold" lengthAdjust="spacing" textLength="121" x="15" y="321.0117">null_distribution</text><text fill="#000000" font-family="sans-serif" font-size="14" lengthAdjust="spacing" textLength="12" x="149" y="321.0117">   </text><line style="stroke:#000000;stroke-width:1.0;" x1="144" x2="144" y1="305.4766" y2="325.9648"/><line style="stroke:#000000;stroke-width:1.0;" x1="10" x2="212" y1="325.9648" y2="325.9648"/><text fill="#000000" font-family="sans-serif" font-size="14" font-weight="bold" lengthAdjust="spacing" textLength="124" x="15" y="341.5">data_distribution</text><text fill="#000000" font-family="sans-serif" font-size="14" lengthAdjust="spacing" textLength="12" x="149" y="341.5">   </text><line style="stroke:#000000;stroke-width:1.0;" x1="144" x2="144" y1="325.9648" y2="346.4531"/><rect fill="none" height="81.9531" rx="5" ry="5" style="stroke:#000000;stroke-width:1.5;" width="202" x="10" y="264.5"/><rect fill="#F1F1F1" height="40.9766" rx="5" ry="5" style="stroke:#F1F1F1;stroke-width:1.5;" width="207" x="249" y="235"/><text fill="#000000" font-family="sans-serif" font-size="14" font-weight="bold" lengthAdjust="spacing" textLength="111" x="254" y="250.5352">total_null_rows</text><text fill="#000000" font-family="sans-serif" font-size="14" lengthAdjust="spacing" textLength="9" x="406" y="250.5352">0</text><line style="stroke:#000000;stroke-width:1.0;" x1="401" x2="401" y1="235" y2="255.4883"/><line style="stroke:#000000;stroke-width:1.0;" x1="249" x2="456" y1="255.4883" y2="255.4883"/><text fill="#000000" font-family="sans-serif" font-size="14" font-weight="bold" lengthAdjust="spacing" textLength="142" x="254" y="271.0234">total_not_null_rows</text><text fill="#000000" font-family="sans-serif" font-size="14" lengthAdjust="spacing" textLength="45" x="406" y="271.0234">14005</text><line style="stroke:#000000;stroke-width:1.0;" x1="401" x2="401" y1="255.4883" y2="275.9766"/><rect fill="none" height="40.9766" rx="5" ry="5" style="stroke:#000000;stroke-width:1.5;" width="207" x="249" y="235"/><rect fill="#F1F1F1" height="204.8828" rx="5" ry="5" style="stroke:#F1F1F1;stroke-width:1.5;" width="22" x="340.5" y="294"/><text fill="#000000" font-family="sans-serif" font-size="14" lengthAdjust="spacing" textLength="12" x="345.5" y="309.5352">   </text><line style="stroke:#000000;stroke-width:1.0;" x1="340.5" x2="362.5" y1="314.4883" y2="314.4883"/><text fill="#000000" font-family="sans-serif" font-size="14" lengthAdjust="spacing" textLength="12" x="345.5" y="330.0234">   </text><line style="stroke:#000000;stroke-width:1.0;" x1="340.5" x2="362.5" y1="334.9766" y2="334.9766"/><text fill="#000000" font-family="sans-serif" font-size="14" lengthAdjust="spacing" textLength="12" x="345.5" y="350.5117">   </text><line style="stroke:#000000;stroke-width:1.0;" x1="340.5" x2="362.5" y1="355.4648" y2="355.4648"/><text fill="#000000" font-family="sans-serif" font-size="14" lengthAdjust="spacing" textLength="12" x="345.5" y="371">   </text><line style="stroke:#000000;stroke-width:1.0;" x1="340.5" x2="362.5" y1="375.9531" y2="375.9531"/><text fill="#000000" font-family="sans-serif" font-size="14" lengthAdjust="spacing" textLength="12" x="345.5" y="391.4883">   </text><line style="stroke:#000000;stroke-width:1.0;" x1="340.5" x2="362.5" y1="396.4414" y2="396.4414"/><text fill="#000000" font-family="sans-serif" font-size="14" lengthAdjust="spacing" textLength="12" x="345.5" y="411.9766">   </text><line style="stroke:#000000;stroke-width:1.0;" x1="340.5" x2="362.5" y1="416.9297" y2="416.9297"/><text fill="#000000" font-family="sans-serif" font-size="14" lengthAdjust="spacing" textLength="12" x="345.5" y="432.4648">   </text><line style="stroke:#000000;stroke-width:1.0;" x1="340.5" x2="362.5" y1="437.418" y2="437.418"/><text fill="#000000" font-family="sans-serif" font-size="14" lengthAdjust="spacing" textLength="12" x="345.5" y="452.9531">   </text><line style="stroke:#000000;stroke-width:1.0;" x1="340.5" x2="362.5" y1="457.9063" y2="457.9063"/><text fill="#000000" font-family="sans-serif" font-size="14" lengthAdjust="spacing" textLength="12" x="345.5" y="473.4414">   </text><line style="stroke:#000000;stroke-width:1.0;" x1="340.5" x2="362.5" y1="478.3945" y2="478.3945"/><text fill="#000000" font-family="sans-serif" font-size="14" lengthAdjust="spacing" textLength="12" x="345.5" y="493.9297">   </text><rect fill="none" height="204.8828" rx="5" ry="5" style="stroke:#000000;stroke-width:1.5;" width="22" x="340.5" y="294"/><rect fill="#F1F1F1" height="61.4648" rx="5" ry="5" style="stroke:#F1F1F1;stroke-width:1.5;" width="312" x="493" y="10"/><text fill="#000000" font-family="sans-serif" font-size="14" font-weight="bold" lengthAdjust="spacing" textLength="94" x="498" y="25.5352">field_value_1</text><text fill="#000000" font-family="sans-serif" font-size="14" lengthAdjust="spacing" textLength="198" x="602" y="25.5352">2015-05-20T00:00:00.000Z</text><line style="stroke:#000000;stroke-width:1.0;" x1="597" x2="597" y1="10" y2="30.4883"/><line style="stroke:#000000;stroke-width:1.0;" x1="493" x2="805" y1="30.4883" y2="30.4883"/><text fill="#000000" font-family="sans-serif" font-size="14" font-weight="bold" lengthAdjust="spacing" textLength="74" x="498" y="46.0234">row_count</text><text fill="#000000" font-family="sans-serif" font-size="14" lengthAdjust="spacing" textLength="9" x="602" y="46.0234">3</text><line style="stroke:#000000;stroke-width:1.0;" x1="597" x2="597" y1="30.4883" y2="50.9766"/><line style="stroke:#000000;stroke-width:1.0;" x1="493" x2="805" y1="50.9766" y2="50.9766"/><text fill="#000000" font-family="sans-serif" font-size="14" font-weight="bold" lengthAdjust="spacing" textLength="94" x="498" y="66.5117">ratio_percent</text><text fill="#000000" font-family="sans-serif" font-size="14" lengthAdjust="spacing" textLength="31" x="602" y="66.5117">0.02</text><line style="stroke:#000000;stroke-width:1.0;" x1="597" x2="597" y1="50.9766" y2="71.4648"/><rect fill="none" height="61.4648" rx="5" ry="5" style="stroke:#000000;stroke-width:1.5;" width="312" x="493" y="10"/><rect fill="#F1F1F1" height="61.4648" rx="5" ry="5" style="stroke:#F1F1F1;stroke-width:1.5;" width="312" x="493" y="89"/><text fill="#000000" font-family="sans-serif" font-size="14" font-weight="bold" lengthAdjust="spacing" textLength="94" x="498" y="104.5352">field_value_1</text><text fill="#000000" font-family="sans-serif" font-size="14" lengthAdjust="spacing" textLength="198" x="602" y="104.5352">2015-05-19T00:00:00.000Z</text><line style="stroke:#000000;stroke-width:1.0;" x1="597" x2="597" y1="89" y2="109.4883"/><line style="stroke:#000000;stroke-width:1.0;" x1="493" x2="805" y1="109.4883" y2="109.4883"/><text fill="#000000" font-family="sans-serif" font-size="14" font-weight="bold" lengthAdjust="spacing" textLength="74" x="498" y="125.0234">row_count</text><text fill="#000000" font-family="sans-serif" font-size="14" lengthAdjust="spacing" textLength="9" x="602" y="125.0234">2</text><line style="stroke:#000000;stroke-width:1.0;" x1="597" x2="597" y1="109.4883" y2="129.9766"/><line style="stroke:#000000;stroke-width:1.0;" x1="493" x2="805" y1="129.9766" y2="129.9766"/><text fill="#000000" font-family="sans-serif" font-size="14" font-weight="bold" lengthAdjust="spacing" textLength="94" x="498" y="145.5117">ratio_percent</text><text fill="#000000" font-family="sans-serif" font-size="14" lengthAdjust="spacing" textLength="31" x="602" y="145.5117">0.01</text><line style="stroke:#000000;stroke-width:1.0;" x1="597" x2="597" y1="129.9766" y2="150.4648"/><rect fill="none" height="61.4648" rx="5" ry="5" style="stroke:#000000;stroke-width:1.5;" width="312" x="493" y="89"/><rect fill="#F1F1F1" height="61.4648" rx="5" ry="5" style="stroke:#F1F1F1;stroke-width:1.5;" width="312" x="493" y="168"/><text fill="#000000" font-family="sans-serif" font-size="14" font-weight="bold" lengthAdjust="spacing" textLength="94" x="498" y="183.5352">field_value_1</text><text fill="#000000" font-family="sans-serif" font-size="14" lengthAdjust="spacing" textLength="198" x="602" y="183.5352">2015-05-18T00:09:43.370Z</text><line style="stroke:#000000;stroke-width:1.0;" x1="597" x2="597" y1="168" y2="188.4883"/><line style="stroke:#000000;stroke-width:1.0;" x1="493" x2="805" y1="188.4883" y2="188.4883"/><text fill="#000000" font-family="sans-serif" font-size="14" font-weight="bold" lengthAdjust="spacing" textLength="74" x="498" y="204.0234">row_count</text><text fill="#000000" font-family="sans-serif" font-size="14" lengthAdjust="spacing" textLength="9" x="602" y="204.0234">1</text><line style="stroke:#000000;stroke-width:1.0;" x1="597" x2="597" y1="188.4883" y2="208.9766"/><line style="stroke:#000000;stroke-width:1.0;" x1="493" x2="805" y1="208.9766" y2="208.9766"/><text fill="#000000" font-family="sans-serif" font-size="14" font-weight="bold" lengthAdjust="spacing" textLength="94" x="498" y="224.5117">ratio_percent</text><text fill="#000000" font-family="sans-serif" font-size="14" lengthAdjust="spacing" textLength="31" x="602" y="224.5117">0.01</text><line style="stroke:#000000;stroke-width:1.0;" x1="597" x2="597" y1="208.9766" y2="229.4648"/><rect fill="none" height="61.4648" rx="5" ry="5" style="stroke:#000000;stroke-width:1.5;" width="312" x="493" y="168"/><rect fill="#F1F1F1" height="61.4648" rx="5" ry="5" style="stroke:#F1F1F1;stroke-width:1.5;" width="312" x="493" y="247"/><text fill="#000000" font-family="sans-serif" font-size="14" font-weight="bold" lengthAdjust="spacing" textLength="94" x="498" y="262.5352">field_value_1</text><text fill="#000000" font-family="sans-serif" font-size="14" lengthAdjust="spacing" textLength="198" x="602" y="262.5352">2015-05-18T00:09:47.065Z</text><line style="stroke:#000000;stroke-width:1.0;" x1="597" x2="597" y1="247" y2="267.4883"/><line style="stroke:#000000;stroke-width:1.0;" x1="493" x2="805" y1="267.4883" y2="267.4883"/><text fill="#000000" font-family="sans-serif" font-size="14" font-weight="bold" lengthAdjust="spacing" textLength="74" x="498" y="283.0234">row_count</text><text fill="#000000" font-family="sans-serif" font-size="14" lengthAdjust="spacing" textLength="9" x="602" y="283.0234">1</text><line style="stroke:#000000;stroke-width:1.0;" x1="597" x2="597" y1="267.4883" y2="287.9766"/><line style="stroke:#000000;stroke-width:1.0;" x1="493" x2="805" y1="287.9766" y2="287.9766"/><text fill="#000000" font-family="sans-serif" font-size="14" font-weight="bold" lengthAdjust="spacing" textLength="94" x="498" y="303.5117">ratio_percent</text><text fill="#000000" font-family="sans-serif" font-size="14" lengthAdjust="spacing" textLength="31" x="602" y="303.5117">0.01</text><line style="stroke:#000000;stroke-width:1.0;" x1="597" x2="597" y1="287.9766" y2="308.4648"/><rect fill="none" height="61.4648" rx="5" ry="5" style="stroke:#000000;stroke-width:1.5;" width="312" x="493" y="247"/><rect fill="#F1F1F1" height="61.4648" rx="5" ry="5" style="stroke:#F1F1F1;stroke-width:1.5;" width="312" x="493" y="326"/><text fill="#000000" font-family="sans-serif" font-size="14" font-weight="bold" lengthAdjust="spacing" textLength="94" x="498" y="341.5352">field_value_1</text><text fill="#000000" font-family="sans-serif" font-size="14" lengthAdjust="spacing" textLength="198" x="602" y="341.5352">2015-05-18T00:14:02.259Z</text><line style="stroke:#000000;stroke-width:1.0;" x1="597" x2="597" y1="326" y2="346.4883"/><line style="stroke:#000000;stroke-width:1.0;" x1="493" x2="805" y1="346.4883" y2="346.4883"/><text fill="#000000" font-family="sans-serif" font-size="14" font-weight="bold" lengthAdjust="spacing" textLength="74" x="498" y="362.0234">row_count</text><text fill="#000000" font-family="sans-serif" font-size="14" lengthAdjust="spacing" textLength="9" x="602" y="362.0234">1</text><line style="stroke:#000000;stroke-width:1.0;" x1="597" x2="597" y1="346.4883" y2="366.9766"/><line style="stroke:#000000;stroke-width:1.0;" x1="493" x2="805" y1="366.9766" y2="366.9766"/><text fill="#000000" font-family="sans-serif" font-size="14" font-weight="bold" lengthAdjust="spacing" textLength="94" x="498" y="382.5117">ratio_percent</text><text fill="#000000" font-family="sans-serif" font-size="14" lengthAdjust="spacing" textLength="31" x="602" y="382.5117">0.01</text><line style="stroke:#000000;stroke-width:1.0;" x1="597" x2="597" y1="366.9766" y2="387.4648"/><rect fill="none" height="61.4648" rx="5" ry="5" style="stroke:#000000;stroke-width:1.5;" width="312" x="493" y="326"/><rect fill="#F1F1F1" height="61.4648" rx="5" ry="5" style="stroke:#F1F1F1;stroke-width:1.5;" width="312" x="493" y="405"/><text fill="#000000" font-family="sans-serif" font-size="14" font-weight="bold" lengthAdjust="spacing" textLength="94" x="498" y="420.5352">field_value_1</text><text fill="#000000" font-family="sans-serif" font-size="14" lengthAdjust="spacing" textLength="198" x="602" y="420.5352">2015-05-18T00:49:08.445Z</text><line style="stroke:#000000;stroke-width:1.0;" x1="597" x2="597" y1="405" y2="425.4883"/><line style="stroke:#000000;stroke-width:1.0;" x1="493" x2="805" y1="425.4883" y2="425.4883"/><text fill="#000000" font-family="sans-serif" font-size="14" font-weight="bold" lengthAdjust="spacing" textLength="74" x="498" y="441.0234">row_count</text><text fill="#000000" font-family="sans-serif" font-size="14" lengthAdjust="spacing" textLength="9" x="602" y="441.0234">1</text><line style="stroke:#000000;stroke-width:1.0;" x1="597" x2="597" y1="425.4883" y2="445.9766"/><line style="stroke:#000000;stroke-width:1.0;" x1="493" x2="805" y1="445.9766" y2="445.9766"/><text fill="#000000" font-family="sans-serif" font-size="14" font-weight="bold" lengthAdjust="spacing" textLength="94" x="498" y="461.5117">ratio_percent</text><text fill="#000000" font-family="sans-serif" font-size="14" lengthAdjust="spacing" textLength="31" x="602" y="461.5117">0.01</text><line style="stroke:#000000;stroke-width:1.0;" x1="597" x2="597" y1="445.9766" y2="466.4648"/><rect fill="none" height="61.4648" rx="5" ry="5" style="stroke:#000000;stroke-width:1.5;" width="312" x="493" y="405"/><rect fill="#F1F1F1" height="61.4648" rx="5" ry="5" style="stroke:#F1F1F1;stroke-width:1.5;" width="312" x="493" y="484"/><text fill="#000000" font-family="sans-serif" font-size="14" font-weight="bold" lengthAdjust="spacing" textLength="94" x="498" y="499.5352">field_value_1</text><text fill="#000000" font-family="sans-serif" font-size="14" lengthAdjust="spacing" textLength="198" x="602" y="499.5352">2015-05-18T00:55:22.257Z</text><line style="stroke:#000000;stroke-width:1.0;" x1="597" x2="597" y1="484" y2="504.4883"/><line style="stroke:#000000;stroke-width:1.0;" x1="493" x2="805" y1="504.4883" y2="504.4883"/><text fill="#000000" font-family="sans-serif" font-size="14" font-weight="bold" lengthAdjust="spacing" textLength="74" x="498" y="520.0234">row_count</text><text fill="#000000" font-family="sans-serif" font-size="14" lengthAdjust="spacing" textLength="9" x="602" y="520.0234">1</text><line style="stroke:#000000;stroke-width:1.0;" x1="597" x2="597" y1="504.4883" y2="524.9766"/><line style="stroke:#000000;stroke-width:1.0;" x1="493" x2="805" y1="524.9766" y2="524.9766"/><text fill="#000000" font-family="sans-serif" font-size="14" font-weight="bold" lengthAdjust="spacing" textLength="94" x="498" y="540.5117">ratio_percent</text><text fill="#000000" font-family="sans-serif" font-size="14" lengthAdjust="spacing" textLength="31" x="602" y="540.5117">0.01</text><line style="stroke:#000000;stroke-width:1.0;" x1="597" x2="597" y1="524.9766" y2="545.4648"/><rect fill="none" height="61.4648" rx="5" ry="5" style="stroke:#000000;stroke-width:1.5;" width="312" x="493" y="484"/><rect fill="#F1F1F1" height="61.4648" rx="5" ry="5" style="stroke:#F1F1F1;stroke-width:1.5;" width="312" x="493" y="563"/><text fill="#000000" font-family="sans-serif" font-size="14" font-weight="bold" lengthAdjust="spacing" textLength="94" x="498" y="578.5352">field_value_1</text><text fill="#000000" font-family="sans-serif" font-size="14" lengthAdjust="spacing" textLength="198" x="602" y="578.5352">2015-05-18T01:50:44.236Z</text><line style="stroke:#000000;stroke-width:1.0;" x1="597" x2="597" y1="563" y2="583.4883"/><line style="stroke:#000000;stroke-width:1.0;" x1="493" x2="805" y1="583.4883" y2="583.4883"/><text fill="#000000" font-family="sans-serif" font-size="14" font-weight="bold" lengthAdjust="spacing" textLength="74" x="498" y="599.0234">row_count</text><text fill="#000000" font-family="sans-serif" font-size="14" lengthAdjust="spacing" textLength="9" x="602" y="599.0234">1</text><line style="stroke:#000000;stroke-width:1.0;" x1="597" x2="597" y1="583.4883" y2="603.9766"/><line style="stroke:#000000;stroke-width:1.0;" x1="493" x2="805" y1="603.9766" y2="603.9766"/><text fill="#000000" font-family="sans-serif" font-size="14" font-weight="bold" lengthAdjust="spacing" textLength="94" x="498" y="619.5117">ratio_percent</text><text fill="#000000" font-family="sans-serif" font-size="14" lengthAdjust="spacing" textLength="31" x="602" y="619.5117">0.01</text><line style="stroke:#000000;stroke-width:1.0;" x1="597" x2="597" y1="603.9766" y2="624.4648"/><rect fill="none" height="61.4648" rx="5" ry="5" style="stroke:#000000;stroke-width:1.5;" width="312" x="493" y="563"/><rect fill="#F1F1F1" height="61.4648" rx="5" ry="5" style="stroke:#F1F1F1;stroke-width:1.5;" width="312" x="493" y="642"/><text fill="#000000" font-family="sans-serif" font-size="14" font-weight="bold" lengthAdjust="spacing" textLength="94" x="498" y="657.5352">field_value_1</text><text fill="#000000" font-family="sans-serif" font-size="14" lengthAdjust="spacing" textLength="198" x="602" y="657.5352">2015-05-18T01:55:14.216Z</text><line style="stroke:#000000;stroke-width:1.0;" x1="597" x2="597" y1="642" y2="662.4883"/><line style="stroke:#000000;stroke-width:1.0;" x1="493" x2="805" y1="662.4883" y2="662.4883"/><text fill="#000000" font-family="sans-serif" font-size="14" font-weight="bold" lengthAdjust="spacing" textLength="74" x="498" y="678.0234">row_count</text><text fill="#000000" font-family="sans-serif" font-size="14" lengthAdjust="spacing" textLength="9" x="602" y="678.0234">1</text><line style="stroke:#000000;stroke-width:1.0;" x1="597" x2="597" y1="662.4883" y2="682.9766"/><line style="stroke:#000000;stroke-width:1.0;" x1="493" x2="805" y1="682.9766" y2="682.9766"/><text fill="#000000" font-family="sans-serif" font-size="14" font-weight="bold" lengthAdjust="spacing" textLength="94" x="498" y="698.5117">ratio_percent</text><text fill="#000000" font-family="sans-serif" font-size="14" lengthAdjust="spacing" textLength="31" x="602" y="698.5117">0.01</text><line style="stroke:#000000;stroke-width:1.0;" x1="597" x2="597" y1="682.9766" y2="703.4648"/><rect fill="none" height="61.4648" rx="5" ry="5" style="stroke:#000000;stroke-width:1.5;" width="312" x="493" y="642"/><rect fill="#F1F1F1" height="61.4648" rx="5" ry="5" style="stroke:#F1F1F1;stroke-width:1.5;" width="312" x="493" y="721"/><text fill="#000000" font-family="sans-serif" font-size="14" font-weight="bold" lengthAdjust="spacing" textLength="94" x="498" y="736.5352">field_value_1</text><text fill="#000000" font-family="sans-serif" font-size="14" lengthAdjust="spacing" textLength="198" x="602" y="736.5352">2015-05-18T01:55:56.793Z</text><line style="stroke:#000000;stroke-width:1.0;" x1="597" x2="597" y1="721" y2="741.4883"/><line style="stroke:#000000;stroke-width:1.0;" x1="493" x2="805" y1="741.4883" y2="741.4883"/><text fill="#000000" font-family="sans-serif" font-size="14" font-weight="bold" lengthAdjust="spacing" textLength="74" x="498" y="757.0234">row_count</text><text fill="#000000" font-family="sans-serif" font-size="14" lengthAdjust="spacing" textLength="9" x="602" y="757.0234">1</text><line style="stroke:#000000;stroke-width:1.0;" x1="597" x2="597" y1="741.4883" y2="761.9766"/><line style="stroke:#000000;stroke-width:1.0;" x1="493" x2="805" y1="761.9766" y2="761.9766"/><text fill="#000000" font-family="sans-serif" font-size="14" font-weight="bold" lengthAdjust="spacing" textLength="94" x="498" y="777.5117">ratio_percent</text><text fill="#000000" font-family="sans-serif" font-size="14" lengthAdjust="spacing" textLength="31" x="602" y="777.5117">0.01</text><line style="stroke:#000000;stroke-width:1.0;" x1="597" x2="597" y1="761.9766" y2="782.4648"/><rect fill="none" height="61.4648" rx="5" ry="5" style="stroke:#000000;stroke-width:1.5;" width="312" x="493" y="721"/><path d="M200,315.5 L213,315.5 C233.8273,315.5 230.6143,295.285 249,285.5 C253.4187,283.1484 258.0447,280.9598 262.7859,278.9261 " fill="none" style="stroke:#000000;stroke-width:1.0;stroke-dasharray:3.0,3.0;"/><path d="M263.9339,281.7334 L264.8914,278.0652 L261.638,276.1189 L269.804,276.0563 L263.9339,281.7334 " fill="#000000" style="stroke:#000000;stroke-width:1.0;"/><ellipse cx="200" cy="315.5" fill="#000000" rx="3" ry="3" style="stroke:#000000;stroke-width:1.0;"/><path d="M353,303.5 L366,303.5 C407.2281,303.5 428.1738,314.9755 457,285.5 C521.9848,219.0516 429.712,147.5665 493,79.5 C494.0305,78.3917 495.0874,77.3128 496.1691,76.2627 " fill="none" style="stroke:#000000;stroke-width:1.0;stroke-dasharray:3.0,3.0;"/><path d="M498.1749,78.5058 L497.8514,74.7583 L494.1633,74.0196 L501.7768,71.2481 L498.1749,78.5058 " fill="#000000" style="stroke:#000000;stroke-width:1.0;"/><ellipse cx="353" cy="303.5" fill="#000000" rx="3" ry="3" style="stroke:#000000;stroke-width:1.0;"/><path d="M353,324.5 L366,324.5 C410.0022,324.5 427.9505,318.5503 457,285.5 C495.7318,241.4339 450.8878,199.3477 493,158.5 C494.258,157.2798 495.5482,156.096 496.8683,154.9475 " fill="none" style="stroke:#000000;stroke-width:1.0;stroke-dasharray:3.0,3.0;"/><path d="M498.7931,157.3363 L498.6598,153.504 L494.9435,152.5588 L502.8402,150.1356 L498.7931,157.3363 " fill="#000000" style="stroke:#000000;stroke-width:1.0;"/><ellipse cx="353" cy="324.5" fill="#000000" rx="3" ry="3" style="stroke:#000000;stroke-width:1.0;"/><path d="M353,344.5 L366,344.5 C414.2012,344.5 421.773,318.4001 457,285.5 C476.4889,267.2985 470.79,252.259 493,237.5 C495.4014,235.9042 497.8631,234.3737 500.3763,232.9058 " fill="none" style="stroke:#000000;stroke-width:1.0;stroke-dasharray:3.0,3.0;"/><path d="M501.8728,235.6125 L502.4063,231.7835 L498.8798,230.1992 L507.143,229.1647 L501.8728,235.6125 " fill="#000000" style="stroke:#000000;stroke-width:1.0;"/><ellipse cx="353" cy="344.5" fill="#000000" rx="3" ry="3" style="stroke:#000000;stroke-width:1.0;"/><path d="M353,365.5 L366,365.5 C426.3414,365.5 435.472,335.7103 493,317.5 C500.9135,314.995 509.09,312.5316 517.3611,310.1339 " fill="none" style="stroke:#000000;stroke-width:1.0;stroke-dasharray:3.0,3.0;"/><path d="M518.1969,313.0494 L519.5478,309.5071 L516.5253,307.2184 L524.6499,308.0444 L518.1969,313.0494 " fill="#000000" style="stroke:#000000;stroke-width:1.0;"/><ellipse cx="353" cy="365.5" fill="#000000" rx="3" ry="3" style="stroke:#000000;stroke-width:1.0;"/><path d="M353,385.5 L366,385.5 C404.826,385.5 446.4974,382.7558 485.5896,378.9557 " fill="none" style="stroke:#000000;stroke-width:1.0;stroke-dasharray:3.0,3.0;"/><path d="M485.8991,382.0687 L487.9244,378.7236 L485.2802,375.8427 L493.3721,378.1821 L485.8991,382.0687 " fill="#000000" style="stroke:#000000;stroke-width:1.0;"/><ellipse cx="353" cy="385.5" fill="#000000" rx="3" ry="3" style="stroke:#000000;stroke-width:1.0;"/><path d="M353,406.5 L366,406.5 C404.826,406.5 446.4974,409.2442 485.5896,413.0443 " fill="none" style="stroke:#000000;stroke-width:1.0;stroke-dasharray:3.0,3.0;"/><path d="M485.2802,416.1573 L487.9244,413.2764 L485.8991,409.9313 L493.3721,413.8179 L485.2802,416.1573 " fill="#000000" style="stroke:#000000;stroke-width:1.0;"/><ellipse cx="353" cy="406.5" fill="#000000" rx="3" ry="3" style="stroke:#000000;stroke-width:1.0;"/><path d="M353,427.5 L366,427.5 C426.3414,427.5 435.4172,457.4636 493,475.5 C499.9721,477.6838 507.1493,479.8299 514.4162,481.9229 " fill="none" style="stroke:#000000;stroke-width:1.0;stroke-dasharray:3.0,3.0;"/><path d="M513.5863,484.8399 L516.604,482.5453 L515.2462,479.0058 L521.7089,483.9977 L513.5863,484.8399 " fill="#000000" style="stroke:#000000;stroke-width:1.0;"/><ellipse cx="353" cy="427.5" fill="#000000" rx="3" ry="3" style="stroke:#000000;stroke-width:1.0;"/><path d="M353,447.5 L366,447.5 C439.8072,447.5 427.2942,520.8807 493,554.5 C496.7166,556.4017 500.5316,558.2144 504.4206,559.942 " fill="none" style="stroke:#000000;stroke-width:1.0;stroke-dasharray:3.0,3.0;"/><path d="M503.2131,562.772 L506.5431,560.8477 L505.6281,557.1121 L511.4955,562.9608 L503.2131,562.772 " fill="#000000" style="stroke:#000000;stroke-width:1.0;"/><ellipse cx="353" cy="447.5" fill="#000000" rx="3" ry="3" style="stroke:#000000;stroke-width:1.0;"/><path d="M353,468.5 L366,468.5 C458.5405,468.5 415.6071,582.7646 493,633.5 C495.4732,635.1213 498.0089,636.6752 500.5977,638.1645 " fill="none" style="stroke:#000000;stroke-width:1.0;stroke-dasharray:3.0,3.0;"/><path d="M499.0804,640.9527 L502.6889,639.3025 L502.1151,635.3763 L507.5681,641.9578 L499.0804,640.9527 " fill="#000000" style="stroke:#000000;stroke-width:1.0;"/><ellipse cx="353" cy="468.5" fill="#000000" rx="3" ry="3" style="stroke:#000000;stroke-width:1.0;"/><path d="M353,488.5 L366,488.5 C480.4434,488.5 401.9197,643.2059 493,712.5 C494.9936,714.0167 497.0392,715.475 499.1306,716.877 " fill="none" style="stroke:#000000;stroke-width:1.0;stroke-dasharray:3.0,3.0;"/><path d="M497.5147,719.4395 L501.0524,718.089 L500.7466,714.3146 L505.5367,720.9168 L497.5147,719.4395 " fill="#000000" style="stroke:#000000;stroke-width:1.0;"/><ellipse cx="353" cy="488.5" fill="#000000" rx="3" ry="3" style="stroke:#000000;stroke-width:1.0;"/><path d="M200,336.5 L213,336.5 C260.0497,336.5 309.2629,365.8357 334.6101,383.482 " fill="none" style="stroke:#000000;stroke-width:1.0;stroke-dasharray:3.0,3.0;"/><path d="M332.8416,385.964 L336.4716,384.8085 L336.3787,381.0001 L340.815,387.9035 L332.8416,385.964 " fill="#000000" style="stroke:#000000;stroke-width:1.0;"/><ellipse cx="200" cy="336.5" fill="#000000" rx="3" ry="3" style="stroke:#000000;stroke-width:1.0;"/><!--MD5=[57ea938928171e2916e0a018e745558d]
@startjson
{
    "field1": "utc_time",
    "combination": "utc_time",
    "null_distribution": {
        "total_null_rows": 0,
        "total_not_null_rows": 14005
    },
    "data_distribution": [
        {
            "field_value_1": "2015-05-20T00:00:00.000Z",
            "row_count": 3,
            "ratio_percent": 0.02
        },
        {
            "field_value_1": "2015-05-19T00:00:00.000Z",
            "row_count": 2,
            "ratio_percent": 0.01
        },
        {
            "field_value_1": "2015-05-18T00:09:43.370Z",
            "row_count": 1,
            "ratio_percent": 0.01
        },
        {
            "field_value_1": "2015-05-18T00:09:47.065Z",
            "row_count": 1,
            "ratio_percent": 0.01
        },
        {
            "field_value_1": "2015-05-18T00:14:02.259Z",
            "row_count": 1,
            "ratio_percent": 0.01
        },
        {
            "field_value_1": "2015-05-18T00:49:08.445Z",
            "row_count": 1,
            "ratio_percent": 0.01
        },
        {
            "field_value_1": "2015-05-18T00:55:22.257Z",
            "row_count": 1,
            "ratio_percent": 0.01
        },
        {
            "field_value_1": "2015-05-18T01:50:44.236Z",
            "row_count": 1,
            "ratio_percent": 0.01
        },
        {
            "field_value_1": "2015-05-18T01:55:14.216Z",
            "row_count": 1,
            "ratio_percent": 0.01
        },
        {
            "field_value_1": "2015-05-18T01:55:56.793Z",
            "row_count": 1,
            "ratio_percent": 0.01
        }
    ]
}
@endjson

PlantUML version 1.2022.12(Sun Oct 23 14:12:26 EDT 2022)
(GPL source distribution)
Java Runtime: OpenJDK Runtime Environment
JVM: OpenJDK 64-Bit Server VM
Default Encoding: UTF-8
Language: en
Country: CA
--></g></svg>