<?xml version="1.0" encoding="UTF-8" standalone="no"?><svg xmlns="http://www.w3.org/2000/svg" xmlns:xlink="http://www.w3.org/1999/xlink" contentStyleType="text/css" height="794px" preserveAspectRatio="none" style="width:731px;height:794px;background:#FFFFFF;" version="1.1" viewBox="0 0 731 794" width="731px" zoomAndPan="magnify"><defs/><g><rect fill="#F1F1F1" height="81.9531" rx="5" ry="5" style="stroke:#F1F1F1;stroke-width:1.5;" width="194" x="10" y="264.5"/><text fill="#000000" font-family="sans-serif" font-size="14" font-weight="bold" lengthAdjust="spacing" textLength="42" x="15" y="280.0352">field1</text><text fill="#000000" font-family="sans-serif" font-size="14" lengthAdjust="spacing" textLength="50" x="149" y="280.0352">clientip</text><line style="stroke:#000000;stroke-width:1.0;" x1="144" x2="144" y1="264.5" y2="284.9883"/><line style="stroke:#000000;stroke-width:1.0;" x1="10" x2="204" y1="284.9883" y2="284.9883"/><text fill="#000000" font-family="sans-serif" font-size="14" font-weight="bold" lengthAdjust="spacing" textLength="90" x="15" y="300.5234">combination</text><text fill="#000000" font-family="sans-serif" font-size="14" lengthAdjust="spacing" textLength="50" x="149" y="300.5234">clientip</text><line style="stroke:#000000;stroke-width:1.0;" x1="144" x2="144" y1="284.9883" y2="305.4766"/><line style="stroke:#000000;stroke-width:1.0;" x1="10" x2="204" y1="305.4766" y2="305.4766"/><text fill="#000000" font-family="sans-serif" font-size="14" font-weight="bold" lengthAdjust="spacing" textLength="121" x="15" y="321.0117">null_distribution</text><text fill="#000000" font-family="sans-serif" font-size="14" lengthAdjust="spacing" textLength="12" x="149" y="321.0117">   </text><line style="stroke:#000000;stroke-width:1.0;" x1="144" x2="144" y1="305.4766" y2="325.9648"/><line style="stroke:#000000;stroke-width:1.0;" x1="10" x2="204" y1="325.9648" y2="325.9648"/><text fill="#000000" font-family="sans-serif" font-size="14" font-weight="bold" lengthAdjust="spacing" textLength="124" x="15" y="341.5">data_distribution</text><text fill="#000000" font-family="sans-serif" font-size="14" lengthAdjust="spacing" textLength="12" x="149" y="341.5">   </text><line style="stroke:#000000;stroke-width:1.0;" x1="144" x2="144" y1="325.9648" y2="346.4531"/><rect fill="none" height="81.9531" rx="5" ry="5" style="stroke:#000000;stroke-width:1.5;" width="194" x="10" y="264.5"/><rect fill="#F1F1F1" height="40.9766" rx="5" ry="5" style="stroke:#F1F1F1;stroke-width:1.5;" width="207" x="241" y="235"/><text fill="#000000" font-family="sans-serif" font-size="14" font-weight="bold" lengthAdjust="spacing" textLength="111" x="246" y="250.5352">total_null_rows</text><text fill="#000000" font-family="sans-serif" font-size="14" lengthAdjust="spacing" textLength="9" x="398" y="250.5352">0</text><line style="stroke:#000000;stroke-width:1.0;" x1="393" x2="393" y1="235" y2="255.4883"/><line style="stroke:#000000;stroke-width:1.0;" x1="241" x2="448" y1="255.4883" y2="255.4883"/><text fill="#000000" font-family="sans-serif" font-size="14" font-weight="bold" lengthAdjust="spacing" textLength="142" x="246" y="271.0234">total_not_null_rows</text><text fill="#000000" font-family="sans-serif" font-size="14" lengthAdjust="spacing" textLength="45" x="398" y="271.0234">14005</text><line style="stroke:#000000;stroke-width:1.0;" x1="393" x2="393" y1="255.4883" y2="275.9766"/><rect fill="none" height="40.9766" rx="5" ry="5" style="stroke:#000000;stroke-width:1.5;" width="207" x="241" y="235"/><rect fill="#F1F1F1" height="204.8828" rx="5" ry="5" style="stroke:#F1F1F1;stroke-width:1.5;" width="22" x="332.5" y="294"/><text fill="#000000" font-family="sans-serif" font-size="14" lengthAdjust="spacing" textLength="12" x="337.5" y="309.5352">   </text><line style="stroke:#000000;stroke-width:1.0;" x1="332.5" x2="354.5" y1="314.4883" y2="314.4883"/><text fill="#000000" font-family="sans-serif" font-size="14" lengthAdjust="spacing" textLength="12" x="337.5" y="330.0234">   </text><line style="stroke:#000000;stroke-width:1.0;" x1="332.5" x2="354.5" y1="334.9766" y2="334.9766"/><text fill="#000000" font-family="sans-serif" font-size="14" lengthAdjust="spacing" textLength="12" x="337.5" y="350.5117">   </text><line style="stroke:#000000;stroke-width:1.0;" x1="332.5" x2="354.5" y1="355.4648" y2="355.4648"/><text fill="#000000" font-family="sans-serif" font-size="14" lengthAdjust="spacing" textLength="12" x="337.5" y="371">   </text><line style="stroke:#000000;stroke-width:1.0;" x1="332.5" x2="354.5" y1="375.9531" y2="375.9531"/><text fill="#000000" font-family="sans-serif" font-size="14" lengthAdjust="spacing" textLength="12" x="337.5" y="391.4883">   </text><line style="stroke:#000000;stroke-width:1.0;" x1="332.5" x2="354.5" y1="396.4414" y2="396.4414"/><text fill="#000000" font-family="sans-serif" font-size="14" lengthAdjust="spacing" textLength="12" x="337.5" y="411.9766">   </text><line style="stroke:#000000;stroke-width:1.0;" x1="332.5" x2="354.5" y1="416.9297" y2="416.9297"/><text fill="#000000" font-family="sans-serif" font-size="14" lengthAdjust="spacing" textLength="12" x="337.5" y="432.4648">   </text><line style="stroke:#000000;stroke-width:1.0;" x1="332.5" x2="354.5" y1="437.418" y2="437.418"/><text fill="#000000" font-family="sans-serif" font-size="14" lengthAdjust="spacing" textLength="12" x="337.5" y="452.9531">   </text><line style="stroke:#000000;stroke-width:1.0;" x1="332.5" x2="354.5" y1="457.9063" y2="457.9063"/><text fill="#000000" font-family="sans-serif" font-size="14" lengthAdjust="spacing" textLength="12" x="337.5" y="473.4414">   </text><line style="stroke:#000000;stroke-width:1.0;" x1="332.5" x2="354.5" y1="478.3945" y2="478.3945"/><text fill="#000000" font-family="sans-serif" font-size="14" lengthAdjust="spacing" textLength="12" x="337.5" y="493.9297">   </text><rect fill="none" height="204.8828" rx="5" ry="5" style="stroke:#000000;stroke-width:1.5;" width="22" x="332.5" y="294"/><rect fill="#F1F1F1" height="61.4648" rx="5" ry="5" style="stroke:#F1F1F1;stroke-width:1.5;" width="216" x="494" y="10"/><text fill="#000000" font-family="sans-serif" font-size="14" font-weight="bold" lengthAdjust="spacing" textLength="94" x="499" y="25.5352">field_value_1</text><text fill="#000000" font-family="sans-serif" font-size="14" lengthAdjust="spacing" textLength="102" x="603" y="25.5352">50.119.12.160</text><line style="stroke:#000000;stroke-width:1.0;" x1="598" x2="598" y1="10" y2="30.4883"/><line style="stroke:#000000;stroke-width:1.0;" x1="494" x2="710" y1="30.4883" y2="30.4883"/><text fill="#000000" font-family="sans-serif" font-size="14" font-weight="bold" lengthAdjust="spacing" textLength="74" x="499" y="46.0234">row_count</text><text fill="#000000" font-family="sans-serif" font-size="14" lengthAdjust="spacing" textLength="18" x="603" y="46.0234">27</text><line style="stroke:#000000;stroke-width:1.0;" x1="598" x2="598" y1="30.4883" y2="50.9766"/><line style="stroke:#000000;stroke-width:1.0;" x1="494" x2="710" y1="50.9766" y2="50.9766"/><text fill="#000000" font-family="sans-serif" font-size="14" font-weight="bold" lengthAdjust="spacing" textLength="94" x="499" y="66.5117">ratio_percent</text><text fill="#000000" font-family="sans-serif" font-size="14" lengthAdjust="spacing" textLength="31" x="603" y="66.5117">0.19</text><line style="stroke:#000000;stroke-width:1.0;" x1="598" x2="598" y1="50.9766" y2="71.4648"/><rect fill="none" height="61.4648" rx="5" ry="5" style="stroke:#000000;stroke-width:1.5;" width="216" x="494" y="10"/><rect fill="#F1F1F1" height="61.4648" rx="5" ry="5" style="stroke:#F1F1F1;stroke-width:1.5;" width="216" x="494" y="89"/><text fill="#000000" font-family="sans-serif" font-size="14" font-weight="bold" lengthAdjust="spacing" textLength="94" x="499" y="104.5352">field_value_1</text><text fill="#000000" font-family="sans-serif" font-size="14" lengthAdjust="spacing" textLength="102" x="603" y="104.5352">115.74.50.141</text><line style="stroke:#000000;stroke-width:1.0;" x1="598" x2="598" y1="89" y2="109.4883"/><line style="stroke:#000000;stroke-width:1.0;" x1="494" x2="710" y1="109.4883" y2="109.4883"/><text fill="#000000" font-family="sans-serif" font-size="14" font-weight="bold" lengthAdjust="spacing" textLength="74" x="499" y="125.0234">row_count</text><text fill="#000000" font-family="sans-serif" font-size="14" lengthAdjust="spacing" textLength="18" x="603" y="125.0234">26</text><line style="stroke:#000000;stroke-width:1.0;" x1="598" x2="598" y1="109.4883" y2="129.9766"/><line style="stroke:#000000;stroke-width:1.0;" x1="494" x2="710" y1="129.9766" y2="129.9766"/><text fill="#000000" font-family="sans-serif" font-size="14" font-weight="bold" lengthAdjust="spacing" textLength="94" x="499" y="145.5117">ratio_percent</text><text fill="#000000" font-family="sans-serif" font-size="14" lengthAdjust="spacing" textLength="31" x="603" y="145.5117">0.19</text><line style="stroke:#000000;stroke-width:1.0;" x1="598" x2="598" y1="129.9766" y2="150.4648"/><rect fill="none" height="61.4648" rx="5" ry="5" style="stroke:#000000;stroke-width:1.5;" width="216" x="494" y="89"/><rect fill="#F1F1F1" height="61.4648" rx="5" ry="5" style="stroke:#F1F1F1;stroke-width:1.5;" width="225" x="489.5" y="168"/><text fill="#000000" font-family="sans-serif" font-size="14" font-weight="bold" lengthAdjust="spacing" textLength="94" x="494.5" y="183.5352">field_value_1</text><text fill="#000000" font-family="sans-serif" font-size="14" lengthAdjust="spacing" textLength="111" x="598.5" y="183.5352">24.221.193.188</text><line style="stroke:#000000;stroke-width:1.0;" x1="593.5" x2="593.5" y1="168" y2="188.4883"/><line style="stroke:#000000;stroke-width:1.0;" x1="489.5" x2="714.5" y1="188.4883" y2="188.4883"/><text fill="#000000" font-family="sans-serif" font-size="14" font-weight="bold" lengthAdjust="spacing" textLength="74" x="494.5" y="204.0234">row_count</text><text fill="#000000" font-family="sans-serif" font-size="14" lengthAdjust="spacing" textLength="18" x="598.5" y="204.0234">25</text><line style="stroke:#000000;stroke-width:1.0;" x1="593.5" x2="593.5" y1="188.4883" y2="208.9766"/><line style="stroke:#000000;stroke-width:1.0;" x1="489.5" x2="714.5" y1="208.9766" y2="208.9766"/><text fill="#000000" font-family="sans-serif" font-size="14" font-weight="bold" lengthAdjust="spacing" textLength="94" x="494.5" y="224.5117">ratio_percent</text><text fill="#000000" font-family="sans-serif" font-size="14" lengthAdjust="spacing" textLength="31" x="598.5" y="224.5117">0.18</text><line style="stroke:#000000;stroke-width:1.0;" x1="593.5" x2="593.5" y1="208.9766" y2="229.4648"/><rect fill="none" height="61.4648" rx="5" ry="5" style="stroke:#000000;stroke-width:1.5;" width="225" x="489.5" y="168"/><rect fill="#F1F1F1" height="61.4648" rx="5" ry="5" style="stroke:#F1F1F1;stroke-width:1.5;" width="198" x="503" y="247"/><text fill="#000000" font-family="sans-serif" font-size="14" font-weight="bold" lengthAdjust="spacing" textLength="94" x="508" y="262.5352">field_value_1</text><text fill="#000000" font-family="sans-serif" font-size="14" lengthAdjust="spacing" textLength="84" x="612" y="262.5352">178.209.1.7</text><line style="stroke:#000000;stroke-width:1.0;" x1="607" x2="607" y1="247" y2="267.4883"/><line style="stroke:#000000;stroke-width:1.0;" x1="503" x2="701" y1="267.4883" y2="267.4883"/><text fill="#000000" font-family="sans-serif" font-size="14" font-weight="bold" lengthAdjust="spacing" textLength="74" x="508" y="283.0234">row_count</text><text fill="#000000" font-family="sans-serif" font-size="14" lengthAdjust="spacing" textLength="18" x="612" y="283.0234">24</text><line style="stroke:#000000;stroke-width:1.0;" x1="607" x2="607" y1="267.4883" y2="287.9766"/><line style="stroke:#000000;stroke-width:1.0;" x1="503" x2="701" y1="287.9766" y2="287.9766"/><text fill="#000000" font-family="sans-serif" font-size="14" font-weight="bold" lengthAdjust="spacing" textLength="94" x="508" y="303.5117">ratio_percent</text><text fill="#000000" font-family="sans-serif" font-size="14" lengthAdjust="spacing" textLength="31" x="612" y="303.5117">0.17</text><line style="stroke:#000000;stroke-width:1.0;" x1="607" x2="607" y1="287.9766" y2="308.4648"/><rect fill="none" height="61.4648" rx="5" ry="5" style="stroke:#000000;stroke-width:1.5;" width="198" x="503" y="247"/><rect fill="#F1F1F1" height="61.4648" rx="5" ry="5" style="stroke:#F1F1F1;stroke-width:1.5;" width="225" x="489.5" y="326"/><text fill="#000000" font-family="sans-serif" font-size="14" font-weight="bold" lengthAdjust="spacing" textLength="94" x="494.5" y="341.5352">field_value_1</text><text fill="#000000" font-family="sans-serif" font-size="14" lengthAdjust="spacing" textLength="111" x="598.5" y="341.5352">96.118.235.181</text><line style="stroke:#000000;stroke-width:1.0;" x1="593.5" x2="593.5" y1="326" y2="346.4883"/><line style="stroke:#000000;stroke-width:1.0;" x1="489.5" x2="714.5" y1="346.4883" y2="346.4883"/><text fill="#000000" font-family="sans-serif" font-size="14" font-weight="bold" lengthAdjust="spacing" textLength="74" x="494.5" y="362.0234">row_count</text><text fill="#000000" font-family="sans-serif" font-size="14" lengthAdjust="spacing" textLength="18" x="598.5" y="362.0234">24</text><line style="stroke:#000000;stroke-width:1.0;" x1="593.5" x2="593.5" y1="346.4883" y2="366.9766"/><line style="stroke:#000000;stroke-width:1.0;" x1="489.5" x2="714.5" y1="366.9766" y2="366.9766"/><text fill="#000000" font-family="sans-serif" font-size="14" font-weight="bold" lengthAdjust="spacing" textLength="94" x="494.5" y="382.5117">ratio_percent</text><text fill="#000000" font-family="sans-serif" font-size="14" lengthAdjust="spacing" textLength="31" x="598.5" y="382.5117">0.17</text><line style="stroke:#000000;stroke-width:1.0;" x1="593.5" x2="593.5" y1="366.9766" y2="387.4648"/><rect fill="none" height="61.4648" rx="5" ry="5" style="stroke:#000000;stroke-width:1.5;" width="225" x="489.5" y="326"/><rect fill="#F1F1F1" height="61.4648" rx="5" ry="5" style="stroke:#F1F1F1;stroke-width:1.5;" width="234" x="485" y="405"/><text fill="#000000" font-family="sans-serif" font-size="14" font-weight="bold" lengthAdjust="spacing" textLength="94" x="490" y="420.5352">field_value_1</text><text fill="#000000" font-family="sans-serif" font-size="14" lengthAdjust="spacing" textLength="120" x="594" y="420.5352">178.224.224.185</text><line style="stroke:#000000;stroke-width:1.0;" x1="589" x2="589" y1="405" y2="425.4883"/><line style="stroke:#000000;stroke-width:1.0;" x1="485" x2="719" y1="425.4883" y2="425.4883"/><text fill="#000000" font-family="sans-serif" font-size="14" font-weight="bold" lengthAdjust="spacing" textLength="74" x="490" y="441.0234">row_count</text><text fill="#000000" font-family="sans-serif" font-size="14" lengthAdjust="spacing" textLength="18" x="594" y="441.0234">23</text><line style="stroke:#000000;stroke-width:1.0;" x1="589" x2="589" y1="425.4883" y2="445.9766"/><line style="stroke:#000000;stroke-width:1.0;" x1="485" x2="719" y1="445.9766" y2="445.9766"/><text fill="#000000" font-family="sans-serif" font-size="14" font-weight="bold" lengthAdjust="spacing" textLength="94" x="490" y="461.5117">ratio_percent</text><text fill="#000000" font-family="sans-serif" font-size="14" lengthAdjust="spacing" textLength="31" x="594" y="461.5117">0.16</text><line style="stroke:#000000;stroke-width:1.0;" x1="589" x2="589" y1="445.9766" y2="466.4648"/><rect fill="none" height="61.4648" rx="5" ry="5" style="stroke:#000000;stroke-width:1.5;" width="234" x="485" y="405"/><rect fill="#F1F1F1" height="61.4648" rx="5" ry="5" style="stroke:#F1F1F1;stroke-width:1.5;" width="198" x="503" y="484"/><text fill="#000000" font-family="sans-serif" font-size="14" font-weight="bold" lengthAdjust="spacing" textLength="94" x="508" y="499.5352">field_value_1</text><text fill="#000000" font-family="sans-serif" font-size="14" lengthAdjust="spacing" textLength="84" x="612" y="499.5352">21.1.201.77</text><line style="stroke:#000000;stroke-width:1.0;" x1="607" x2="607" y1="484" y2="504.4883"/><line style="stroke:#000000;stroke-width:1.0;" x1="503" x2="701" y1="504.4883" y2="504.4883"/><text fill="#000000" font-family="sans-serif" font-size="14" font-weight="bold" lengthAdjust="spacing" textLength="74" x="508" y="520.0234">row_count</text><text fill="#000000" font-family="sans-serif" font-size="14" lengthAdjust="spacing" textLength="18" x="612" y="520.0234">23</text><line style="stroke:#000000;stroke-width:1.0;" x1="607" x2="607" y1="504.4883" y2="524.9766"/><line style="stroke:#000000;stroke-width:1.0;" x1="503" x2="701" y1="524.9766" y2="524.9766"/><text fill="#000000" font-family="sans-serif" font-size="14" font-weight="bold" lengthAdjust="spacing" textLength="94" x="508" y="540.5117">ratio_percent</text><text fill="#000000" font-family="sans-serif" font-size="14" lengthAdjust="spacing" textLength="31" x="612" y="540.5117">0.16</text><line style="stroke:#000000;stroke-width:1.0;" x1="607" x2="607" y1="524.9766" y2="545.4648"/><rect fill="none" height="61.4648" rx="5" ry="5" style="stroke:#000000;stroke-width:1.5;" width="198" x="503" y="484"/><rect fill="#F1F1F1" height="61.4648" rx="5" ry="5" style="stroke:#F1F1F1;stroke-width:1.5;" width="225" x="489.5" y="563"/><text fill="#000000" font-family="sans-serif" font-size="14" font-weight="bold" lengthAdjust="spacing" textLength="94" x="494.5" y="578.5352">field_value_1</text><text fill="#000000" font-family="sans-serif" font-size="14" lengthAdjust="spacing" textLength="111" x="598.5" y="578.5352">243.249.65.126</text><line style="stroke:#000000;stroke-width:1.0;" x1="593.5" x2="593.5" y1="563" y2="583.4883"/><line style="stroke:#000000;stroke-width:1.0;" x1="489.5" x2="714.5" y1="583.4883" y2="583.4883"/><text fill="#000000" font-family="sans-serif" font-size="14" font-weight="bold" lengthAdjust="spacing" textLength="74" x="494.5" y="599.0234">row_count</text><text fill="#000000" font-family="sans-serif" font-size="14" lengthAdjust="spacing" textLength="18" x="598.5" y="599.0234">23</text><line style="stroke:#000000;stroke-width:1.0;" x1="593.5" x2="593.5" y1="583.4883" y2="603.9766"/><line style="stroke:#000000;stroke-width:1.0;" x1="489.5" x2="714.5" y1="603.9766" y2="603.9766"/><text fill="#000000" font-family="sans-serif" font-size="14" font-weight="bold" lengthAdjust="spacing" textLength="94" x="494.5" y="619.5117">ratio_percent</text><text fill="#000000" font-family="sans-serif" font-size="14" lengthAdjust="spacing" textLength="31" x="598.5" y="619.5117">0.16</text><line style="stroke:#000000;stroke-width:1.0;" x1="593.5" x2="593.5" y1="603.9766" y2="624.4648"/><rect fill="none" height="61.4648" rx="5" ry="5" style="stroke:#000000;stroke-width:1.5;" width="225" x="489.5" y="563"/><rect fill="#F1F1F1" height="61.4648" rx="5" ry="5" style="stroke:#F1F1F1;stroke-width:1.5;" width="225" x="489.5" y="642"/><text fill="#000000" font-family="sans-serif" font-size="14" font-weight="bold" lengthAdjust="spacing" textLength="94" x="494.5" y="657.5352">field_value_1</text><text fill="#000000" font-family="sans-serif" font-size="14" lengthAdjust="spacing" textLength="111" x="598.5" y="657.5352">247.45.153.155</text><line style="stroke:#000000;stroke-width:1.0;" x1="593.5" x2="593.5" y1="642" y2="662.4883"/><line style="stroke:#000000;stroke-width:1.0;" x1="489.5" x2="714.5" y1="662.4883" y2="662.4883"/><text fill="#000000" font-family="sans-serif" font-size="14" font-weight="bold" lengthAdjust="spacing" textLength="74" x="494.5" y="678.0234">row_count</text><text fill="#000000" font-family="sans-serif" font-size="14" lengthAdjust="spacing" textLength="18" x="598.5" y="678.0234">23</text><line style="stroke:#000000;stroke-width:1.0;" x1="593.5" x2="593.5" y1="662.4883" y2="682.9766"/><line style="stroke:#000000;stroke-width:1.0;" x1="489.5" x2="714.5" y1="682.9766" y2="682.9766"/><text fill="#000000" font-family="sans-serif" font-size="14" font-weight="bold" lengthAdjust="spacing" textLength="94" x="494.5" y="698.5117">ratio_percent</text><text fill="#000000" font-family="sans-serif" font-size="14" lengthAdjust="spacing" textLength="31" x="598.5" y="698.5117">0.16</text><line style="stroke:#000000;stroke-width:1.0;" x1="593.5" x2="593.5" y1="682.9766" y2="703.4648"/><rect fill="none" height="61.4648" rx="5" ry="5" style="stroke:#000000;stroke-width:1.5;" width="225" x="489.5" y="642"/><rect fill="#F1F1F1" height="61.4648" rx="5" ry="5" style="stroke:#F1F1F1;stroke-width:1.5;" width="216" x="494" y="721"/><text fill="#000000" font-family="sans-serif" font-size="14" font-weight="bold" lengthAdjust="spacing" textLength="94" x="499" y="736.5352">field_value_1</text><text fill="#000000" font-family="sans-serif" font-size="14" lengthAdjust="spacing" textLength="102" x="603" y="736.5352">35.106.192.47</text><line style="stroke:#000000;stroke-width:1.0;" x1="598" x2="598" y1="721" y2="741.4883"/><line style="stroke:#000000;stroke-width:1.0;" x1="494" x2="710" y1="741.4883" y2="741.4883"/><text fill="#000000" font-family="sans-serif" font-size="14" font-weight="bold" lengthAdjust="spacing" textLength="74" x="499" y="757.0234">row_count</text><text fill="#000000" font-family="sans-serif" font-size="14" lengthAdjust="spacing" textLength="18" x="603" y="757.0234">23</text><line style="stroke:#000000;stroke-width:1.0;" x1="598" x2="598" y1="741.4883" y2="761.9766"/><line style="stroke:#000000;stroke-width:1.0;" x1="494" x2="710" y1="761.9766" y2="761.9766"/><text fill="#000000" font-family="sans-serif" font-size="14" font-weight="bold" lengthAdjust="spacing" textLength="94" x="499" y="777.5117">ratio_percent</text><text fill="#000000" font-family="sans-serif" font-size="14" lengthAdjust="spacing" textLength="31" x="603" y="777.5117">0.16</text><line style="stroke:#000000;stroke-width:1.0;" x1="598" x2="598" y1="761.9766" y2="782.4648"/><rect fill="none" height="61.4648" rx="5" ry="5" style="stroke:#000000;stroke-width:1.5;" width="216" x="494" y="721"/><path d="M192,315.5 L205,315.5 C225.8273,315.5 222.6143,295.285 241,285.5 C245.4187,283.1484 250.0447,280.9598 254.7859,278.9261 " fill="none" style="stroke:#000000;stroke-width:1.0;stroke-dasharray:3.0,3.0;"/><path d="M255.9339,281.7334 L256.8914,278.0652 L253.638,276.1189 L261.804,276.0563 L255.9339,281.7334 " fill="#000000" style="stroke:#000000;stroke-width:1.0;"/><ellipse cx="192" cy="315.5" fill="#000000" rx="3" ry="3" style="stroke:#000000;stroke-width:1.0;"/><path d="M345,303.5 L358,303.5 C399.2281,303.5 420.1738,314.9755 449,285.5 C513.9848,219.0516 424.3895,149.9612 485,79.5 C486.1301,78.1862 487.3059,76.9165 488.5232,75.6895 " fill="none" style="stroke:#000000;stroke-width:1.0;stroke-dasharray:3.0,3.0;"/><path d="M490.5678,77.926 L490.2006,74.156 L486.4786,73.453 L494.1145,70.578 L490.5678,77.926 " fill="#000000" style="stroke:#000000;stroke-width:1.0;"/><ellipse cx="345" cy="303.5" fill="#000000" rx="3" ry="3" style="stroke:#000000;stroke-width:1.0;"/><path d="M345,324.5 L358,324.5 C402.0022,324.5 419.9505,318.5503 449,285.5 C487.7318,241.4339 444.4976,200.9445 485,158.5 C486.0767,157.3716 487.187,156.2759 488.3281,155.2119 " fill="none" style="stroke:#000000;stroke-width:1.0;stroke-dasharray:3.0,3.0;"/><path d="M490.3522,157.5912 L490.1126,153.6937 L486.3039,152.8325 L494.2765,150.1515 L490.3522,157.5912 " fill="#000000" style="stroke:#000000;stroke-width:1.0;"/><ellipse cx="345" cy="324.5" fill="#000000" rx="3" ry="3" style="stroke:#000000;stroke-width:1.0;"/><path d="M345,344.5 L358,344.5 C406.2012,344.5 413.773,318.4001 449,285.5 C468.4889,267.2985 463.3769,253.1062 485,237.5 C487.0754,236.0021 489.2122,234.559 491.4001,233.1687 " fill="none" style="stroke:#000000;stroke-width:1.0;stroke-dasharray:3.0,3.0;"/><path d="M493.0057,235.8514 L493.4121,231.9645 L489.7945,230.486 L498.1067,229.1548 L493.0057,235.8514 " fill="#000000" style="stroke:#000000;stroke-width:1.0;"/><ellipse cx="345" cy="344.5" fill="#000000" rx="3" ry="3" style="stroke:#000000;stroke-width:1.0;"/><path d="M345,365.5 L358,365.5 C418.3414,365.5 428.2356,337.9667 485,317.5 C491.3526,315.2095 497.9106,312.8755 504.5267,310.5436 " fill="none" style="stroke:#000000;stroke-width:1.0;stroke-dasharray:3.0,3.0;"/><path d="M505.5377,313.4215 L506.6852,309.7853 L503.5157,307.6656 L511.7216,308.0161 L505.5377,313.4215 " fill="#000000" style="stroke:#000000;stroke-width:1.0;"/><ellipse cx="345" cy="365.5" fill="#000000" rx="3" ry="3" style="stroke:#000000;stroke-width:1.0;"/><path d="M345,385.5 L358,385.5 C398.5109,385.5 442.5486,381.4932 481.8941,376.4584 " fill="none" style="stroke:#000000;stroke-width:1.0;stroke-dasharray:3.0,3.0;"/><path d="M482.302,379.58 L484.2353,376.1525 L481.4862,373.3368 L489.6982,375.4386 L482.302,379.58 " fill="#000000" style="stroke:#000000;stroke-width:1.0;"/><ellipse cx="345" cy="385.5" fill="#000000" rx="3" ry="3" style="stroke:#000000;stroke-width:1.0;"/><path d="M345,406.5 L358,406.5 C397.114,406.5 439.5157,410.2352 477.8075,415.0246 " fill="none" style="stroke:#000000;stroke-width:1.0;stroke-dasharray:3.0,3.0;"/><path d="M477.419,418.0651 L480.0879,415.3159 L478.1959,411.984 L485.4088,415.9957 L477.419,418.0651 " fill="#000000" style="stroke:#000000;stroke-width:1.0;"/><ellipse cx="345" cy="406.5" fill="#000000" rx="3" ry="3" style="stroke:#000000;stroke-width:1.0;"/><path d="M345,427.5 L358,427.5 C418.3414,427.5 428.1572,455.252 485,475.5 C490.5097,477.4626 496.1757,479.4522 501.9014,481.4406 " fill="none" style="stroke:#000000;stroke-width:1.0;stroke-dasharray:3.0,3.0;"/><path d="M500.8951,484.3515 L504.0845,482.1953 L502.9077,478.5297 L509.1786,483.9564 L500.8951,484.3515 " fill="#000000" style="stroke:#000000;stroke-width:1.0;"/><ellipse cx="345" cy="427.5" fill="#000000" rx="3" ry="3" style="stroke:#000000;stroke-width:1.0;"/><path d="M345,447.5 L358,447.5 C431.8072,447.5 420.6424,518.3668 485,554.5 C488.1472,556.267 491.3873,557.9707 494.6943,559.6119 " fill="none" style="stroke:#000000;stroke-width:1.0;stroke-dasharray:3.0,3.0;"/><path d="M493.3819,562.3614 L496.7565,560.5963 L496.0068,556.8624 L501.5681,562.893 L493.3819,562.3614 " fill="#000000" style="stroke:#000000;stroke-width:1.0;"/><ellipse cx="345" cy="447.5" fill="#000000" rx="3" ry="3" style="stroke:#000000;stroke-width:1.0;"/><path d="M345,468.5 L358,468.5 C450.5405,468.5 409.6254,579.8119 485,633.5 C487.1281,635.0158 489.3193,636.4759 491.5627,637.8821 " fill="none" style="stroke:#000000;stroke-width:1.0;stroke-dasharray:3.0,3.0;"/><path d="M489.9393,640.6324 L493.6255,639.0997 L493.1862,635.1317 L498.4386,641.9407 L489.9393,640.6324 " fill="#000000" style="stroke:#000000;stroke-width:1.0;"/><ellipse cx="345" cy="468.5" fill="#000000" rx="3" ry="3" style="stroke:#000000;stroke-width:1.0;"/><path d="M345,488.5 L358,488.5 C472.4434,488.5 396.6654,639.7382 485,712.5 C486.7363,713.9302 488.5273,715.3088 490.3656,716.6376 " fill="none" style="stroke:#000000;stroke-width:1.0;stroke-dasharray:3.0,3.0;"/><path d="M488.6342,719.206 L492.2919,717.9361 L492.0969,714.0691 L496.7866,720.966 L488.6342,719.206 " fill="#000000" style="stroke:#000000;stroke-width:1.0;"/><ellipse cx="345" cy="488.5" fill="#000000" rx="3" ry="3" style="stroke:#000000;stroke-width:1.0;"/><path d="M192,336.5 L205,336.5 C252.0497,336.5 301.2629,365.8357 326.6101,383.482 " fill="none" style="stroke:#000000;stroke-width:1.0;stroke-dasharray:3.0,3.0;"/><path d="M324.8416,385.964 L328.4716,384.8085 L328.3787,381.0001 L332.815,387.9035 L324.8416,385.964 " fill="#000000" style="stroke:#000000;stroke-width:1.0;"/><ellipse cx="192" cy="336.5" fill="#000000" rx="3" ry="3" style="stroke:#000000;stroke-width:1.0;"/><!--MD5=[730be81672dd0b0d8b771148d43687dc]
@startjson
{
    "field1": "clientip",
    "combination": "clientip",
    "null_distribution": {
        "total_null_rows": 0,
        "total_not_null_rows": 14005
    },
    "data_distribution": [
        {
            "field_value_1": "50.119.12.160",
            "row_count": 27,
            "ratio_percent": 0.19
        },
        {
            "field_value_1": "115.74.50.141",
            "row_count": 26,
            "ratio_percent": 0.19
        },
        {
            "field_value_1": "24.221.193.188",
            "row_count": 25,
            "ratio_percent": 0.18
        },
        {
            "field_value_1": "178.209.1.7",
            "row_count": 24,
            "ratio_percent": 0.17
        },
        {
            "field_value_1": "96.118.235.181",
            "row_count": 24,
            "ratio_percent": 0.17
        },
        {
            "field_value_1": "178.224.224.185",
            "row_count": 23,
            "ratio_percent": 0.16
        },
        {
            "field_value_1": "21.1.201.77",
            "row_count": 23,
            "ratio_percent": 0.16
        },
        {
            "field_value_1": "243.249.65.126",
            "row_count": 23,
            "ratio_percent": 0.16
        },
        {
            "field_value_1": "247.45.153.155",
            "row_count": 23,
            "ratio_percent": 0.16
        },
        {
            "field_value_1": "35.106.192.47",
            "row_count": 23,
            "ratio_percent": 0.16
        }
    ]
}
@endjson

PlantUML version 1.2022.12(Sun Oct 23 14:12:26 EDT 2022)
(GPL source distribution)
Java Runtime: OpenJDK Runtime Environment
JVM: OpenJDK 64-Bit Server VM
Default Encoding: UTF-8
Language: en
Country: CA
--></g></svg>