<?xml version="1.0" encoding="UTF-8" standalone="no"?><svg xmlns="http://www.w3.org/2000/svg" xmlns:xlink="http://www.w3.org/1999/xlink" contentStyleType="text/css" height="182px" preserveAspectRatio="none" style="width:810px;height:182px;background:#FFFFFF;" version="1.1" viewBox="0 0 810 182" width="810px" zoomAndPan="magnify"><defs/><g><rect fill="#F1F1F1" height="81.9531" rx="5" ry="5" style="stroke:#F1F1F1;stroke-width:1.5;" width="323" x="10" y="10"/><text fill="#000000" font-family="sans-serif" font-size="14" font-weight="bold" lengthAdjust="spacing" textLength="42" x="15" y="25.5352">field1</text><text fill="#000000" font-family="sans-serif" font-size="14" lengthAdjust="spacing" textLength="179" x="149" y="25.5352">relatedContent.twitter:site</text><line style="stroke:#000000;stroke-width:1.0;" x1="144" x2="144" y1="10" y2="30.4883"/><line style="stroke:#000000;stroke-width:1.0;" x1="10" x2="333" y1="30.4883" y2="30.4883"/><text fill="#000000" font-family="sans-serif" font-size="14" font-weight="bold" lengthAdjust="spacing" textLength="90" x="15" y="46.0234">combination</text><text fill="#000000" font-family="sans-serif" font-size="14" lengthAdjust="spacing" textLength="179" x="149" y="46.0234">relatedContent.twitter:site</text><line style="stroke:#000000;stroke-width:1.0;" x1="144" x2="144" y1="30.4883" y2="50.9766"/><line style="stroke:#000000;stroke-width:1.0;" x1="10" x2="333" y1="50.9766" y2="50.9766"/><text fill="#000000" font-family="sans-serif" font-size="14" font-weight="bold" lengthAdjust="spacing" textLength="121" x="15" y="66.5117">null_distribution</text><text fill="#000000" font-family="sans-serif" font-size="14" lengthAdjust="spacing" textLength="12" x="149" y="66.5117">   </text><line style="stroke:#000000;stroke-width:1.0;" x1="144" x2="144" y1="50.9766" y2="71.4648"/><line style="stroke:#000000;stroke-width:1.0;" x1="10" x2="333" y1="71.4648" y2="71.4648"/><text fill="#000000" font-family="sans-serif" font-size="14" font-weight="bold" lengthAdjust="spacing" textLength="124" x="15" y="87">data_distribution</text><text fill="#000000" font-family="sans-serif" font-size="14" lengthAdjust="spacing" textLength="12" x="149" y="87">   </text><line style="stroke:#000000;stroke-width:1.0;" x1="144" x2="144" y1="71.4648" y2="91.9531"/><rect fill="none" height="81.9531" rx="5" ry="5" style="stroke:#000000;stroke-width:1.5;" width="323" x="10" y="10"/><rect fill="#F1F1F1" height="40.9766" rx="5" ry="5" style="stroke:#F1F1F1;stroke-width:1.5;" width="207" x="370" y="21.5"/><text fill="#000000" font-family="sans-serif" font-size="14" font-weight="bold" lengthAdjust="spacing" textLength="111" x="375" y="37.0352">total_null_rows</text><text fill="#000000" font-family="sans-serif" font-size="14" lengthAdjust="spacing" textLength="36" x="527" y="37.0352">2282</text><line style="stroke:#000000;stroke-width:1.0;" x1="522" x2="522" y1="21.5" y2="41.9883"/><line style="stroke:#000000;stroke-width:1.0;" x1="370" x2="577" y1="41.9883" y2="41.9883"/><text fill="#000000" font-family="sans-serif" font-size="14" font-weight="bold" lengthAdjust="spacing" textLength="142" x="375" y="57.5234">total_not_null_rows</text><text fill="#000000" font-family="sans-serif" font-size="14" lengthAdjust="spacing" textLength="45" x="527" y="57.5234">11723</text><line style="stroke:#000000;stroke-width:1.0;" x1="522" x2="522" y1="41.9883" y2="62.4766"/><rect fill="none" height="40.9766" rx="5" ry="5" style="stroke:#000000;stroke-width:1.5;" width="207" x="370" y="21.5"/><rect fill="#F1F1F1" height="40.9766" rx="5" ry="5" style="stroke:#F1F1F1;stroke-width:1.5;" width="22" x="461.5" y="80.5"/><text fill="#000000" font-family="sans-serif" font-size="14" lengthAdjust="spacing" textLength="12" x="466.5" y="96.0352">   </text><line style="stroke:#000000;stroke-width:1.0;" x1="461.5" x2="483.5" y1="100.9883" y2="100.9883"/><text fill="#000000" font-family="sans-serif" font-size="14" lengthAdjust="spacing" textLength="12" x="466.5" y="116.5234">   </text><rect fill="none" height="40.9766" rx="5" ry="5" style="stroke:#000000;stroke-width:1.5;" width="22" x="461.5" y="80.5"/><rect fill="#F1F1F1" height="61.4648" rx="5" ry="5" style="stroke:#F1F1F1;stroke-width:1.5;" width="184" x="614" y="30.5"/><text fill="#000000" font-family="sans-serif" font-size="14" font-weight="bold" lengthAdjust="spacing" textLength="94" x="619" y="46.0352">field_value_1</text><text fill="#000000" font-family="sans-serif" font-size="14" lengthAdjust="spacing" textLength="70" x="723" y="46.0352">@laweekly</text><line style="stroke:#000000;stroke-width:1.0;" x1="718" x2="718" y1="30.5" y2="50.9883"/><line style="stroke:#000000;stroke-width:1.0;" x1="614" x2="798" y1="50.9883" y2="50.9883"/><text fill="#000000" font-family="sans-serif" font-size="14" font-weight="bold" lengthAdjust="spacing" textLength="74" x="619" y="66.5234">row_count</text><text fill="#000000" font-family="sans-serif" font-size="14" lengthAdjust="spacing" textLength="45" x="723" y="66.5234">11723</text><line style="stroke:#000000;stroke-width:1.0;" x1="718" x2="718" y1="50.9883" y2="71.4766"/><line style="stroke:#000000;stroke-width:1.0;" x1="614" x2="798" y1="71.4766" y2="71.4766"/><text fill="#000000" font-family="sans-serif" font-size="14" font-weight="bold" lengthAdjust="spacing" textLength="94" x="619" y="87.0117">ratio_percent</text><text fill="#000000" font-family="sans-serif" font-size="14" lengthAdjust="spacing" textLength="40" x="723" y="87.0117">83.71</text><line style="stroke:#000000;stroke-width:1.0;" x1="718" x2="718" y1="71.4766" y2="91.9648"/><rect fill="none" height="61.4648" rx="5" ry="5" style="stroke:#000000;stroke-width:1.5;" width="184" x="614" y="30.5"/><rect fill="#F1F1F1" height="61.4648" rx="5" ry="5" style="stroke:#F1F1F1;stroke-width:1.5;" width="154" x="629" y="109.5"/><text fill="#000000" font-family="sans-serif" font-size="14" font-weight="bold" lengthAdjust="spacing" textLength="94" x="634" y="125.0352">field_value_1</text><text fill="#000000" font-family="sans-serif" font-size="14" lengthAdjust="spacing" textLength="36" x="738" y="125.0352">None</text><line style="stroke:#000000;stroke-width:1.0;" x1="733" x2="733" y1="109.5" y2="129.9883"/><line style="stroke:#000000;stroke-width:1.0;" x1="629" x2="783" y1="129.9883" y2="129.9883"/><text fill="#000000" font-family="sans-serif" font-size="14" font-weight="bold" lengthAdjust="spacing" textLength="74" x="634" y="145.5234">row_count</text><text fill="#000000" font-family="sans-serif" font-size="14" lengthAdjust="spacing" textLength="36" x="738" y="145.5234">2282</text><line style="stroke:#000000;stroke-width:1.0;" x1="733" x2="733" y1="129.9883" y2="150.4766"/><line style="stroke:#000000;stroke-width:1.0;" x1="629" x2="783" y1="150.4766" y2="150.4766"/><text fill="#000000" font-family="sans-serif" font-size="14" font-weight="bold" lengthAdjust="spacing" textLength="94" x="634" y="166.0117">ratio_percent</text><text fill="#000000" font-family="sans-serif" font-size="14" lengthAdjust="spacing" textLength="40" x="738" y="166.0117">16.29</text><line style="stroke:#000000;stroke-width:1.0;" x1="733" x2="733" y1="150.4766" y2="170.9648"/><rect fill="none" height="61.4648" rx="5" ry="5" style="stroke:#000000;stroke-width:1.5;" width="154" x="629" y="109.5"/><path d="M321,61 L334,61 C343.3211,61 352.9616,60.5754 362.6178,59.8531 " fill="none" style="stroke:#000000;stroke-width:1.0;stroke-dasharray:3.0,3.0;"/><path d="M362.874,62.9498 L364.9402,59.661 L362.3615,56.7565 L370.3594,59.2125 L362.874,62.9498 " fill="#000000" style="stroke:#000000;stroke-width:1.0;"/><ellipse cx="321" cy="61" fill="#000000" rx="3" ry="3" style="stroke:#000000;stroke-width:1.0;"/><path d="M474,90 L487,90 C526.2981,90 569.229,85.3332 606.554,79.7438 " fill="none" style="stroke:#000000;stroke-width:1.0;stroke-dasharray:3.0,3.0;"/><path d="M607.0362,82.8943 L608.9169,79.3822 L606.0719,76.5933 L614.4304,78.5384 L607.0362,82.8943 " fill="#000000" style="stroke:#000000;stroke-width:1.0;"/><ellipse cx="474" cy="90" fill="#000000" rx="3" ry="3" style="stroke:#000000;stroke-width:1.0;"/><path d="M474,111 L487,111 C531.8505,111 581.4329,117.0787 622.0132,123.6701 " fill="none" style="stroke:#000000;stroke-width:1.0;stroke-dasharray:3.0,3.0;"/><path d="M621.519,126.6578 L624.2539,124.0407 L622.5073,120.6823 L629.4825,124.9054 L621.519,126.6578 " fill="#000000" style="stroke:#000000;stroke-width:1.0;"/><ellipse cx="474" cy="111" fill="#000000" rx="3" ry="3" style="stroke:#000000;stroke-width:1.0;"/><path d="M321,82 L334,82 C377.4837,82 427.92,91.2406 454.4633,96.8333 " fill="none" style="stroke:#000000;stroke-width:1.0;stroke-dasharray:3.0,3.0;"/><path d="M453.8216,99.8078 L456.6942,97.3146 L455.105,93.8588 L461.8997,98.4376 L453.8216,99.8078 " fill="#000000" style="stroke:#000000;stroke-width:1.0;"/><ellipse cx="321" cy="82" fill="#000000" rx="3" ry="3" style="stroke:#000000;stroke-width:1.0;"/><!--MD5=[1e7e7ba7ceabf7251ad9b996a213b224]
@startjson
{
    "field1": "relatedContent.twitter:site",
    "combination": "relatedContent.twitter:site",
    "null_distribution": {
        "total_null_rows": 2282,
        "total_not_null_rows": 11723
    },
    "data_distribution": [
        {
            "field_value_1": "@laweekly",
            "row_count": 11723,
            "ratio_percent": 83.71
        },
        {
            "field_value_1": "None",
            "row_count": 2282,
            "ratio_percent": 16.29
        }
    ]
}
@endjson

PlantUML version 1.2022.12(Sun Oct 23 14:12:26 EDT 2022)
(GPL source distribution)
Java Runtime: OpenJDK Runtime Environment
JVM: OpenJDK 64-Bit Server VM
Default Encoding: UTF-8
Language: en
Country: CA
--></g></svg>