<?xml version="1.0" encoding="UTF-8" standalone="no"?><svg xmlns="http://www.w3.org/2000/svg" xmlns:xlink="http://www.w3.org/1999/xlink" contentStyleType="text/css" height="794px" preserveAspectRatio="none" style="width:939px;height:794px;background:#FFFFFF;" version="1.1" viewBox="0 0 939 794" width="939px" zoomAndPan="magnify"><defs/><g><rect fill="#F1F1F1" height="81.9531" rx="5" ry="5" style="stroke:#F1F1F1;stroke-width:1.5;" width="319" x="10" y="264.5"/><text fill="#000000" font-family="sans-serif" font-size="14" font-weight="bold" lengthAdjust="spacing" textLength="42" x="15" y="280.0352">field1</text><text fill="#000000" font-family="sans-serif" font-size="14" lengthAdjust="spacing" textLength="175" x="149" y="280.0352">relatedContent.article:tag</text><line style="stroke:#000000;stroke-width:1.0;" x1="144" x2="144" y1="264.5" y2="284.9883"/><line style="stroke:#000000;stroke-width:1.0;" x1="10" x2="329" y1="284.9883" y2="284.9883"/><text fill="#000000" font-family="sans-serif" font-size="14" font-weight="bold" lengthAdjust="spacing" textLength="90" x="15" y="300.5234">combination</text><text fill="#000000" font-family="sans-serif" font-size="14" lengthAdjust="spacing" textLength="175" x="149" y="300.5234">relatedContent.article:tag</text><line style="stroke:#000000;stroke-width:1.0;" x1="144" x2="144" y1="284.9883" y2="305.4766"/><line style="stroke:#000000;stroke-width:1.0;" x1="10" x2="329" y1="305.4766" y2="305.4766"/><text fill="#000000" font-family="sans-serif" font-size="14" font-weight="bold" lengthAdjust="spacing" textLength="121" x="15" y="321.0117">null_distribution</text><text fill="#000000" font-family="sans-serif" font-size="14" lengthAdjust="spacing" textLength="12" x="149" y="321.0117">   </text><line style="stroke:#000000;stroke-width:1.0;" x1="144" x2="144" y1="305.4766" y2="325.9648"/><line style="stroke:#000000;stroke-width:1.0;" x1="10" x2="329" y1="325.9648" y2="325.9648"/><text fill="#000000" font-family="sans-serif" font-size="14" font-weight="bold" lengthAdjust="spacing" textLength="124" x="15" y="341.5">data_distribution</text><text fill="#000000" font-family="sans-serif" font-size="14" lengthAdjust="spacing" textLength="12" x="149" y="341.5">   </text><line style="stroke:#000000;stroke-width:1.0;" x1="144" x2="144" y1="325.9648" y2="346.4531"/><rect fill="none" height="81.9531" rx="5" ry="5" style="stroke:#000000;stroke-width:1.5;" width="319" x="10" y="264.5"/><rect fill="#F1F1F1" height="40.9766" rx="5" ry="5" style="stroke:#F1F1F1;stroke-width:1.5;" width="198" x="366" y="235"/><text fill="#000000" font-family="sans-serif" font-size="14" font-weight="bold" lengthAdjust="spacing" textLength="111" x="371" y="250.5352">total_null_rows</text><text fill="#000000" font-family="sans-serif" font-size="14" lengthAdjust="spacing" textLength="36" x="523" y="250.5352">8008</text><line style="stroke:#000000;stroke-width:1.0;" x1="518" x2="518" y1="235" y2="255.4883"/><line style="stroke:#000000;stroke-width:1.0;" x1="366" x2="564" y1="255.4883" y2="255.4883"/><text fill="#000000" font-family="sans-serif" font-size="14" font-weight="bold" lengthAdjust="spacing" textLength="142" x="371" y="271.0234">total_not_null_rows</text><text fill="#000000" font-family="sans-serif" font-size="14" lengthAdjust="spacing" textLength="36" x="523" y="271.0234">5997</text><line style="stroke:#000000;stroke-width:1.0;" x1="518" x2="518" y1="255.4883" y2="275.9766"/><rect fill="none" height="40.9766" rx="5" ry="5" style="stroke:#000000;stroke-width:1.5;" width="198" x="366" y="235"/><rect fill="#F1F1F1" height="204.8828" rx="5" ry="5" style="stroke:#F1F1F1;stroke-width:1.5;" width="22" x="453" y="294"/><text fill="#000000" font-family="sans-serif" font-size="14" lengthAdjust="spacing" textLength="12" x="458" y="309.5352">   </text><line style="stroke:#000000;stroke-width:1.0;" x1="453" x2="475" y1="314.4883" y2="314.4883"/><text fill="#000000" font-family="sans-serif" font-size="14" lengthAdjust="spacing" textLength="12" x="458" y="330.0234">   </text><line style="stroke:#000000;stroke-width:1.0;" x1="453" x2="475" y1="334.9766" y2="334.9766"/><text fill="#000000" font-family="sans-serif" font-size="14" lengthAdjust="spacing" textLength="12" x="458" y="350.5117">   </text><line style="stroke:#000000;stroke-width:1.0;" x1="453" x2="475" y1="355.4648" y2="355.4648"/><text fill="#000000" font-family="sans-serif" font-size="14" lengthAdjust="spacing" textLength="12" x="458" y="371">   </text><line style="stroke:#000000;stroke-width:1.0;" x1="453" x2="475" y1="375.9531" y2="375.9531"/><text fill="#000000" font-family="sans-serif" font-size="14" lengthAdjust="spacing" textLength="12" x="458" y="391.4883">   </text><line style="stroke:#000000;stroke-width:1.0;" x1="453" x2="475" y1="396.4414" y2="396.4414"/><text fill="#000000" font-family="sans-serif" font-size="14" lengthAdjust="spacing" textLength="12" x="458" y="411.9766">   </text><line style="stroke:#000000;stroke-width:1.0;" x1="453" x2="475" y1="416.9297" y2="416.9297"/><text fill="#000000" font-family="sans-serif" font-size="14" lengthAdjust="spacing" textLength="12" x="458" y="432.4648">   </text><line style="stroke:#000000;stroke-width:1.0;" x1="453" x2="475" y1="437.418" y2="437.418"/><text fill="#000000" font-family="sans-serif" font-size="14" lengthAdjust="spacing" textLength="12" x="458" y="452.9531">   </text><line style="stroke:#000000;stroke-width:1.0;" x1="453" x2="475" y1="457.9063" y2="457.9063"/><text fill="#000000" font-family="sans-serif" font-size="14" lengthAdjust="spacing" textLength="12" x="458" y="473.4414">   </text><line style="stroke:#000000;stroke-width:1.0;" x1="453" x2="475" y1="478.3945" y2="478.3945"/><text fill="#000000" font-family="sans-serif" font-size="14" lengthAdjust="spacing" textLength="12" x="458" y="493.9297">   </text><rect fill="none" height="204.8828" rx="5" ry="5" style="stroke:#000000;stroke-width:1.5;" width="22" x="453" y="294"/><rect fill="#F1F1F1" height="61.4648" rx="5" ry="5" style="stroke:#F1F1F1;stroke-width:1.5;" width="154" x="687" y="10"/><text fill="#000000" font-family="sans-serif" font-size="14" font-weight="bold" lengthAdjust="spacing" textLength="94" x="692" y="25.5352">field_value_1</text><text fill="#000000" font-family="sans-serif" font-size="14" lengthAdjust="spacing" textLength="36" x="796" y="25.5352">None</text><line style="stroke:#000000;stroke-width:1.0;" x1="791" x2="791" y1="10" y2="30.4883"/><line style="stroke:#000000;stroke-width:1.0;" x1="687" x2="841" y1="30.4883" y2="30.4883"/><text fill="#000000" font-family="sans-serif" font-size="14" font-weight="bold" lengthAdjust="spacing" textLength="74" x="692" y="46.0234">row_count</text><text fill="#000000" font-family="sans-serif" font-size="14" lengthAdjust="spacing" textLength="36" x="796" y="46.0234">8008</text><line style="stroke:#000000;stroke-width:1.0;" x1="791" x2="791" y1="30.4883" y2="50.9766"/><line style="stroke:#000000;stroke-width:1.0;" x1="687" x2="841" y1="50.9766" y2="50.9766"/><text fill="#000000" font-family="sans-serif" font-size="14" font-weight="bold" lengthAdjust="spacing" textLength="94" x="692" y="66.5117">ratio_percent</text><text fill="#000000" font-family="sans-serif" font-size="14" lengthAdjust="spacing" textLength="40" x="796" y="66.5117">57.18</text><line style="stroke:#000000;stroke-width:1.0;" x1="791" x2="791" y1="50.9766" y2="71.4648"/><rect fill="none" height="61.4648" rx="5" ry="5" style="stroke:#000000;stroke-width:1.5;" width="154" x="687" y="10"/><rect fill="#F1F1F1" height="61.4648" rx="5" ry="5" style="stroke:#F1F1F1;stroke-width:1.5;" width="211" x="658.5" y="89"/><text fill="#000000" font-family="sans-serif" font-size="14" font-weight="bold" lengthAdjust="spacing" textLength="94" x="663.5" y="104.5352">field_value_1</text><text fill="#000000" font-family="sans-serif" font-size="14" lengthAdjust="spacing" textLength="97" x="767.5" y="104.5352">Entertainment</text><line style="stroke:#000000;stroke-width:1.0;" x1="762.5" x2="762.5" y1="89" y2="109.4883"/><line style="stroke:#000000;stroke-width:1.0;" x1="658.5" x2="869.5" y1="109.4883" y2="109.4883"/><text fill="#000000" font-family="sans-serif" font-size="14" font-weight="bold" lengthAdjust="spacing" textLength="74" x="663.5" y="125.0234">row_count</text><text fill="#000000" font-family="sans-serif" font-size="14" lengthAdjust="spacing" textLength="27" x="767.5" y="125.0234">815</text><line style="stroke:#000000;stroke-width:1.0;" x1="762.5" x2="762.5" y1="109.4883" y2="129.9766"/><line style="stroke:#000000;stroke-width:1.0;" x1="658.5" x2="869.5" y1="129.9766" y2="129.9766"/><text fill="#000000" font-family="sans-serif" font-size="14" font-weight="bold" lengthAdjust="spacing" textLength="94" x="663.5" y="145.5117">ratio_percent</text><text fill="#000000" font-family="sans-serif" font-size="14" lengthAdjust="spacing" textLength="31" x="767.5" y="145.5117">5.82</text><line style="stroke:#000000;stroke-width:1.0;" x1="762.5" x2="762.5" y1="129.9766" y2="150.4648"/><rect fill="none" height="61.4648" rx="5" ry="5" style="stroke:#000000;stroke-width:1.5;" width="211" x="658.5" y="89"/><rect fill="#F1F1F1" height="61.4648" rx="5" ry="5" style="stroke:#F1F1F1;stroke-width:1.5;" width="195" x="666.5" y="168"/><text fill="#000000" font-family="sans-serif" font-size="14" font-weight="bold" lengthAdjust="spacing" textLength="94" x="671.5" y="183.5352">field_value_1</text><text fill="#000000" font-family="sans-serif" font-size="14" lengthAdjust="spacing" textLength="81" x="775.5" y="183.5352">Mark Mauer</text><line style="stroke:#000000;stroke-width:1.0;" x1="770.5" x2="770.5" y1="168" y2="188.4883"/><line style="stroke:#000000;stroke-width:1.0;" x1="666.5" x2="861.5" y1="188.4883" y2="188.4883"/><text fill="#000000" font-family="sans-serif" font-size="14" font-weight="bold" lengthAdjust="spacing" textLength="74" x="671.5" y="204.0234">row_count</text><text fill="#000000" font-family="sans-serif" font-size="14" lengthAdjust="spacing" textLength="27" x="775.5" y="204.0234">466</text><line style="stroke:#000000;stroke-width:1.0;" x1="770.5" x2="770.5" y1="188.4883" y2="208.9766"/><line style="stroke:#000000;stroke-width:1.0;" x1="666.5" x2="861.5" y1="208.9766" y2="208.9766"/><text fill="#000000" font-family="sans-serif" font-size="14" font-weight="bold" lengthAdjust="spacing" textLength="94" x="671.5" y="224.5117">ratio_percent</text><text fill="#000000" font-family="sans-serif" font-size="14" lengthAdjust="spacing" textLength="31" x="775.5" y="224.5117">3.33</text><line style="stroke:#000000;stroke-width:1.0;" x1="770.5" x2="770.5" y1="208.9766" y2="229.4648"/><rect fill="none" height="61.4648" rx="5" ry="5" style="stroke:#000000;stroke-width:1.5;" width="195" x="666.5" y="168"/><rect fill="#F1F1F1" height="61.4648" rx="5" ry="5" style="stroke:#F1F1F1;stroke-width:1.5;" width="215" x="656.5" y="247"/><text fill="#000000" font-family="sans-serif" font-size="14" font-weight="bold" lengthAdjust="spacing" textLength="94" x="661.5" y="262.5352">field_value_1</text><text fill="#000000" font-family="sans-serif" font-size="14" lengthAdjust="spacing" textLength="101" x="765.5" y="262.5352">Celebrity News</text><line style="stroke:#000000;stroke-width:1.0;" x1="760.5" x2="760.5" y1="247" y2="267.4883"/><line style="stroke:#000000;stroke-width:1.0;" x1="656.5" x2="871.5" y1="267.4883" y2="267.4883"/><text fill="#000000" font-family="sans-serif" font-size="14" font-weight="bold" lengthAdjust="spacing" textLength="74" x="661.5" y="283.0234">row_count</text><text fill="#000000" font-family="sans-serif" font-size="14" lengthAdjust="spacing" textLength="27" x="765.5" y="283.0234">370</text><line style="stroke:#000000;stroke-width:1.0;" x1="760.5" x2="760.5" y1="267.4883" y2="287.9766"/><line style="stroke:#000000;stroke-width:1.0;" x1="656.5" x2="871.5" y1="287.9766" y2="287.9766"/><text fill="#000000" font-family="sans-serif" font-size="14" font-weight="bold" lengthAdjust="spacing" textLength="94" x="661.5" y="303.5117">ratio_percent</text><text fill="#000000" font-family="sans-serif" font-size="14" lengthAdjust="spacing" textLength="31" x="765.5" y="303.5117">2.64</text><line style="stroke:#000000;stroke-width:1.0;" x1="760.5" x2="760.5" y1="287.9766" y2="308.4648"/><rect fill="none" height="61.4648" rx="5" ry="5" style="stroke:#000000;stroke-width:1.5;" width="215" x="656.5" y="247"/><rect fill="#F1F1F1" height="61.4648" rx="5" ry="5" style="stroke:#F1F1F1;stroke-width:1.5;" width="254" x="637" y="326"/><text fill="#000000" font-family="sans-serif" font-size="14" font-weight="bold" lengthAdjust="spacing" textLength="94" x="642" y="341.5352">field_value_1</text><text fill="#000000" font-family="sans-serif" font-size="14" lengthAdjust="spacing" textLength="140" x="746" y="341.5352">Culture and Lifestyle</text><line style="stroke:#000000;stroke-width:1.0;" x1="741" x2="741" y1="326" y2="346.4883"/><line style="stroke:#000000;stroke-width:1.0;" x1="637" x2="891" y1="346.4883" y2="346.4883"/><text fill="#000000" font-family="sans-serif" font-size="14" font-weight="bold" lengthAdjust="spacing" textLength="74" x="642" y="362.0234">row_count</text><text fill="#000000" font-family="sans-serif" font-size="14" lengthAdjust="spacing" textLength="27" x="746" y="362.0234">177</text><line style="stroke:#000000;stroke-width:1.0;" x1="741" x2="741" y1="346.4883" y2="366.9766"/><line style="stroke:#000000;stroke-width:1.0;" x1="637" x2="891" y1="366.9766" y2="366.9766"/><text fill="#000000" font-family="sans-serif" font-size="14" font-weight="bold" lengthAdjust="spacing" textLength="94" x="642" y="382.5117">ratio_percent</text><text fill="#000000" font-family="sans-serif" font-size="14" lengthAdjust="spacing" textLength="31" x="746" y="382.5117">1.26</text><line style="stroke:#000000;stroke-width:1.0;" x1="741" x2="741" y1="366.9766" y2="387.4648"/><rect fill="none" height="61.4648" rx="5" ry="5" style="stroke:#000000;stroke-width:1.5;" width="254" x="637" y="326"/><rect fill="#F1F1F1" height="61.4648" rx="5" ry="5" style="stroke:#F1F1F1;stroke-width:1.5;" width="216" x="656" y="405"/><text fill="#000000" font-family="sans-serif" font-size="14" font-weight="bold" lengthAdjust="spacing" textLength="94" x="661" y="420.5352">field_value_1</text><text fill="#000000" font-family="sans-serif" font-size="14" lengthAdjust="spacing" textLength="102" x="765" y="420.5352">Timothy Norris</text><line style="stroke:#000000;stroke-width:1.0;" x1="760" x2="760" y1="405" y2="425.4883"/><line style="stroke:#000000;stroke-width:1.0;" x1="656" x2="872" y1="425.4883" y2="425.4883"/><text fill="#000000" font-family="sans-serif" font-size="14" font-weight="bold" lengthAdjust="spacing" textLength="74" x="661" y="441.0234">row_count</text><text fill="#000000" font-family="sans-serif" font-size="14" lengthAdjust="spacing" textLength="27" x="765" y="441.0234">162</text><line style="stroke:#000000;stroke-width:1.0;" x1="760" x2="760" y1="425.4883" y2="445.9766"/><line style="stroke:#000000;stroke-width:1.0;" x1="656" x2="872" y1="445.9766" y2="445.9766"/><text fill="#000000" font-family="sans-serif" font-size="14" font-weight="bold" lengthAdjust="spacing" textLength="94" x="661" y="461.5117">ratio_percent</text><text fill="#000000" font-family="sans-serif" font-size="14" lengthAdjust="spacing" textLength="31" x="765" y="461.5117">1.16</text><line style="stroke:#000000;stroke-width:1.0;" x1="760" x2="760" y1="445.9766" y2="466.4648"/><rect fill="none" height="61.4648" rx="5" ry="5" style="stroke:#000000;stroke-width:1.5;" width="216" x="656" y="405"/><rect fill="#F1F1F1" height="61.4648" rx="5" ry="5" style="stroke:#F1F1F1;stroke-width:1.5;" width="326" x="601" y="484"/><text fill="#000000" font-family="sans-serif" font-size="14" font-weight="bold" lengthAdjust="spacing" textLength="94" x="606" y="499.5352">field_value_1</text><text fill="#000000" font-family="sans-serif" font-size="14" lengthAdjust="spacing" textLength="212" x="710" y="499.5352">Arts, Entertainment, and Media</text><line style="stroke:#000000;stroke-width:1.0;" x1="705" x2="705" y1="484" y2="504.4883"/><line style="stroke:#000000;stroke-width:1.0;" x1="601" x2="927" y1="504.4883" y2="504.4883"/><text fill="#000000" font-family="sans-serif" font-size="14" font-weight="bold" lengthAdjust="spacing" textLength="74" x="606" y="520.0234">row_count</text><text fill="#000000" font-family="sans-serif" font-size="14" lengthAdjust="spacing" textLength="27" x="710" y="520.0234">150</text><line style="stroke:#000000;stroke-width:1.0;" x1="705" x2="705" y1="504.4883" y2="524.9766"/><line style="stroke:#000000;stroke-width:1.0;" x1="601" x2="927" y1="524.9766" y2="524.9766"/><text fill="#000000" font-family="sans-serif" font-size="14" font-weight="bold" lengthAdjust="spacing" textLength="94" x="606" y="540.5117">ratio_percent</text><text fill="#000000" font-family="sans-serif" font-size="14" lengthAdjust="spacing" textLength="31" x="710" y="540.5117">1.07</text><line style="stroke:#000000;stroke-width:1.0;" x1="705" x2="705" y1="524.9766" y2="545.4648"/><rect fill="none" height="61.4648" rx="5" ry="5" style="stroke:#000000;stroke-width:1.5;" width="326" x="601" y="484"/><rect fill="#F1F1F1" height="61.4648" rx="5" ry="5" style="stroke:#F1F1F1;stroke-width:1.5;" width="249" x="639.5" y="563"/><text fill="#000000" font-family="sans-serif" font-size="14" font-weight="bold" lengthAdjust="spacing" textLength="94" x="644.5" y="578.5352">field_value_1</text><text fill="#000000" font-family="sans-serif" font-size="14" lengthAdjust="spacing" textLength="135" x="748.5" y="578.5352">Concerts and Tours</text><line style="stroke:#000000;stroke-width:1.0;" x1="743.5" x2="743.5" y1="563" y2="583.4883"/><line style="stroke:#000000;stroke-width:1.0;" x1="639.5" x2="888.5" y1="583.4883" y2="583.4883"/><text fill="#000000" font-family="sans-serif" font-size="14" font-weight="bold" lengthAdjust="spacing" textLength="74" x="644.5" y="599.0234">row_count</text><text fill="#000000" font-family="sans-serif" font-size="14" lengthAdjust="spacing" textLength="27" x="748.5" y="599.0234">148</text><line style="stroke:#000000;stroke-width:1.0;" x1="743.5" x2="743.5" y1="583.4883" y2="603.9766"/><line style="stroke:#000000;stroke-width:1.0;" x1="639.5" x2="888.5" y1="603.9766" y2="603.9766"/><text fill="#000000" font-family="sans-serif" font-size="14" font-weight="bold" lengthAdjust="spacing" textLength="94" x="644.5" y="619.5117">ratio_percent</text><text fill="#000000" font-family="sans-serif" font-size="14" lengthAdjust="spacing" textLength="31" x="748.5" y="619.5117">1.06</text><line style="stroke:#000000;stroke-width:1.0;" x1="743.5" x2="743.5" y1="603.9766" y2="624.4648"/><rect fill="none" height="61.4648" rx="5" ry="5" style="stroke:#000000;stroke-width:1.5;" width="249" x="639.5" y="563"/><rect fill="#F1F1F1" height="61.4648" rx="5" ry="5" style="stroke:#F1F1F1;stroke-width:1.5;" width="170" x="679" y="642"/><text fill="#000000" font-family="sans-serif" font-size="14" font-weight="bold" lengthAdjust="spacing" textLength="94" x="684" y="657.5352">field_value_1</text><text fill="#000000" font-family="sans-serif" font-size="14" lengthAdjust="spacing" textLength="56" x="788" y="657.5352">Painting</text><line style="stroke:#000000;stroke-width:1.0;" x1="783" x2="783" y1="642" y2="662.4883"/><line style="stroke:#000000;stroke-width:1.0;" x1="679" x2="849" y1="662.4883" y2="662.4883"/><text fill="#000000" font-family="sans-serif" font-size="14" font-weight="bold" lengthAdjust="spacing" textLength="74" x="684" y="678.0234">row_count</text><text fill="#000000" font-family="sans-serif" font-size="14" lengthAdjust="spacing" textLength="27" x="788" y="678.0234">137</text><line style="stroke:#000000;stroke-width:1.0;" x1="783" x2="783" y1="662.4883" y2="682.9766"/><line style="stroke:#000000;stroke-width:1.0;" x1="679" x2="849" y1="682.9766" y2="682.9766"/><text fill="#000000" font-family="sans-serif" font-size="14" font-weight="bold" lengthAdjust="spacing" textLength="94" x="684" y="698.5117">ratio_percent</text><text fill="#000000" font-family="sans-serif" font-size="14" lengthAdjust="spacing" textLength="31" x="788" y="698.5117">0.98</text><line style="stroke:#000000;stroke-width:1.0;" x1="783" x2="783" y1="682.9766" y2="703.4648"/><rect fill="none" height="61.4648" rx="5" ry="5" style="stroke:#000000;stroke-width:1.5;" width="170" x="679" y="642"/><rect fill="#F1F1F1" height="61.4648" rx="5" ry="5" style="stroke:#F1F1F1;stroke-width:1.5;" width="234" x="647" y="721"/><text fill="#000000" font-family="sans-serif" font-size="14" font-weight="bold" lengthAdjust="spacing" textLength="94" x="652" y="736.5352">field_value_1</text><text fill="#000000" font-family="sans-serif" font-size="14" lengthAdjust="spacing" textLength="120" x="756" y="736.5352">Fashion and Style</text><line style="stroke:#000000;stroke-width:1.0;" x1="751" x2="751" y1="721" y2="741.4883"/><line style="stroke:#000000;stroke-width:1.0;" x1="647" x2="881" y1="741.4883" y2="741.4883"/><text fill="#000000" font-family="sans-serif" font-size="14" font-weight="bold" lengthAdjust="spacing" textLength="74" x="652" y="757.0234">row_count</text><text fill="#000000" font-family="sans-serif" font-size="14" lengthAdjust="spacing" textLength="27" x="756" y="757.0234">106</text><line style="stroke:#000000;stroke-width:1.0;" x1="751" x2="751" y1="741.4883" y2="761.9766"/><line style="stroke:#000000;stroke-width:1.0;" x1="647" x2="881" y1="761.9766" y2="761.9766"/><text fill="#000000" font-family="sans-serif" font-size="14" font-weight="bold" lengthAdjust="spacing" textLength="94" x="652" y="777.5117">ratio_percent</text><text fill="#000000" font-family="sans-serif" font-size="14" lengthAdjust="spacing" textLength="31" x="756" y="777.5117">0.76</text><line style="stroke:#000000;stroke-width:1.0;" x1="751" x2="751" y1="761.9766" y2="782.4648"/><rect fill="none" height="61.4648" rx="5" ry="5" style="stroke:#000000;stroke-width:1.5;" width="234" x="647" y="721"/><path d="M317,315.5 L330,315.5 C350.8273,315.5 347.6745,295.3971 366,285.5 C370.2321,283.2144 374.6626,281.0778 379.2032,279.0842 " fill="none" style="stroke:#000000;stroke-width:1.0;stroke-dasharray:3.0,3.0;"/><path d="M380.4096,281.9694 L381.3671,278.1794 L377.9968,276.199 L386.4162,276.0682 L380.4096,281.9694 " fill="#000000" style="stroke:#000000;stroke-width:1.0;"/><ellipse cx="317" cy="315.5" fill="#000000" rx="3" ry="3" style="stroke:#000000;stroke-width:1.0;"/><path d="M465.5,303.5 L478.5,303.5 C517.768,303.5 537.6833,313.7095 565,285.5 C629.6556,218.7312 537.366,147.2432 601,79.5 C621.2402,57.9528 651.1121,47.3797 679.7419,42.4584 " fill="none" style="stroke:#000000;stroke-width:1.0;stroke-dasharray:3.0,3.0;"/><path d="M680.217,45.5135 L682.0332,42.1021 L679.2668,39.4033 L687.3796,41.2707 L680.217,45.5135 " fill="#000000" style="stroke:#000000;stroke-width:1.0;"/><ellipse cx="465.5" cy="303.5" fill="#000000" rx="3" ry="3" style="stroke:#000000;stroke-width:1.0;"/><path d="M465.5,324.5 L478.5,324.5 C520.6713,324.5 537.4563,317.4338 565,285.5 C603.3185,241.074 558.6802,199.1326 601,158.5 C614.9491,145.107 632.6501,136.0443 651.2038,129.9649 " fill="none" style="stroke:#000000;stroke-width:1.0;stroke-dasharray:3.0,3.0;"/><path d="M652.1104,132.9357 L653.4319,129.285 L650.2972,126.9941 L658.6307,127.6985 L652.1104,132.9357 " fill="#000000" style="stroke:#000000;stroke-width:1.0;"/><ellipse cx="465.5" cy="324.5" fill="#000000" rx="3" ry="3" style="stroke:#000000;stroke-width:1.0;"/><path d="M465.5,344.5 L478.5,344.5 C525.0358,344.5 531.3638,317.6588 565,285.5 C584.2747,267.0719 578.7151,252.1456 601,237.5 C618.383,226.0759 638.7749,217.9918 659.1269,212.2728 " fill="none" style="stroke:#000000;stroke-width:1.0;stroke-dasharray:3.0,3.0;"/><path d="M659.9276,215.2691 L661.3741,211.6723 L658.3262,209.2766 L666.6175,210.2711 L659.9276,215.2691 " fill="#000000" style="stroke:#000000;stroke-width:1.0;"/><ellipse cx="465.5" cy="344.5" fill="#000000" rx="3" ry="3" style="stroke:#000000;stroke-width:1.0;"/><path d="M465.5,365.5 L478.5,365.5 C536.9749,365.5 545.2663,335.1935 601,317.5 C616.4891,312.5827 632.9672,307.9047 649.2627,303.5961 " fill="none" style="stroke:#000000;stroke-width:1.0;stroke-dasharray:3.0,3.0;"/><path d="M650.044,306.5841 L651.5038,303.0101 L648.4815,300.6081 L656.7328,301.6429 L650.044,306.5841 " fill="#000000" style="stroke:#000000;stroke-width:1.0;"/><ellipse cx="465.5" cy="365.5" fill="#000000" rx="3" ry="3" style="stroke:#000000;stroke-width:1.0;"/><path d="M465.5,385.5 L478.5,385.5 C527.9515,385.5 581.9828,381.1252 629.5762,375.7739 " fill="none" style="stroke:#000000;stroke-width:1.0;stroke-dasharray:3.0,3.0;"/><path d="M629.9229,378.8065 L631.8506,375.5139 L629.2295,372.7413 L637.1577,374.9072 L629.9229,378.8065 " fill="#000000" style="stroke:#000000;stroke-width:1.0;"/><ellipse cx="465.5" cy="385.5" fill="#000000" rx="3" ry="3" style="stroke:#000000;stroke-width:1.0;"/><path d="M465.5,406.5 L478.5,406.5 C534.673,406.5 596.7553,412.1449 648.5984,418.4537 " fill="none" style="stroke:#000000;stroke-width:1.0;stroke-dasharray:3.0,3.0;"/><path d="M648.2244,421.4828 L650.8703,418.7342 L648.9725,415.4246 L656.1712,419.3887 L648.2244,421.4828 " fill="#000000" style="stroke:#000000;stroke-width:1.0;"/><ellipse cx="465.5" cy="406.5" fill="#000000" rx="3" ry="3" style="stroke:#000000;stroke-width:1.0;"/><path d="M465.5,427.5 L478.5,427.5 C536.9749,427.5 545.2151,457.9684 601,475.5 C607.9542,477.6855 615.1086,479.8177 622.3569,481.8859 " fill="none" style="stroke:#000000;stroke-width:1.0;stroke-dasharray:3.0,3.0;"/><path d="M621.5383,484.7962 L624.5396,482.4999 L623.1755,478.9756 L629.6326,483.9325 L621.5383,484.7962 " fill="#000000" style="stroke:#000000;stroke-width:1.0;"/><ellipse cx="465.5" cy="427.5" fill="#000000" rx="3" ry="3" style="stroke:#000000;stroke-width:1.0;"/><path d="M465.5,447.5 L478.5,447.5 C550.7892,447.5 536.7718,521.3267 601,554.5 C610.9385,559.6332 621.5692,564.1047 632.4582,567.9976 " fill="none" style="stroke:#000000;stroke-width:1.0;stroke-dasharray:3.0,3.0;"/><path d="M631.4679,570.8729 L634.6147,568.7403 L633.4485,565.1223 L639.6464,570.4733 L631.4679,570.8729 " fill="#000000" style="stroke:#000000;stroke-width:1.0;"/><ellipse cx="465.5" cy="447.5" fill="#000000" rx="3" ry="3" style="stroke:#000000;stroke-width:1.0;"/><path d="M465.5,468.5 L478.5,468.5 C569.8344,468.5 524.7956,583.1526 601,633.5 C621.9502,647.3416 647.3078,656.2817 671.6981,662.0524 " fill="none" style="stroke:#000000;stroke-width:1.0;stroke-dasharray:3.0,3.0;"/><path d="M671.0217,665.0654 L673.9578,662.5597 L672.3746,659.0394 L679.2305,663.7435 L671.0217,665.0654 " fill="#000000" style="stroke:#000000;stroke-width:1.0;"/><ellipse cx="465.5" cy="468.5" fill="#000000" rx="3" ry="3" style="stroke:#000000;stroke-width:1.0;"/><path d="M465.5,488.5 L478.5,488.5 C591.9703,488.5 510.8711,643.5631 601,712.5 C612.6763,721.4309 626.0963,728.3543 640.1123,733.715 " fill="none" style="stroke:#000000;stroke-width:1.0;stroke-dasharray:3.0,3.0;"/><path d="M639.047,736.6661 L642.3256,734.514 L641.1776,730.7639 L647.49,736.3782 L639.047,736.6661 " fill="#000000" style="stroke:#000000;stroke-width:1.0;"/><ellipse cx="465.5" cy="488.5" fill="#000000" rx="3" ry="3" style="stroke:#000000;stroke-width:1.0;"/><path d="M317,336.5 L330,336.5 C375.3406,336.5 422.4028,365.289 447.0463,382.9834 " fill="none" style="stroke:#000000;stroke-width:1.0;stroke-dasharray:3.0,3.0;"/><path d="M445.181,385.5179 L448.9472,384.3824 L448.9117,380.4489 L453.3825,387.6468 L445.181,385.5179 " fill="#000000" style="stroke:#000000;stroke-width:1.0;"/><ellipse cx="317" cy="336.5" fill="#000000" rx="3" ry="3" style="stroke:#000000;stroke-width:1.0;"/><!--MD5=[90b851f0f7309e191116ccf677c057cc]
@startjson
{
    "field1": "relatedContent.article:tag",
    "combination": "relatedContent.article:tag",
    "null_distribution": {
        "total_null_rows": 8008,
        "total_not_null_rows": 5997
    },
    "data_distribution": [
        {
            "field_value_1": "None",
            "row_count": 8008,
            "ratio_percent": 57.18
        },
        {
            "field_value_1": "Entertainment",
            "row_count": 815,
            "ratio_percent": 5.82
        },
        {
            "field_value_1": "Mark Mauer",
            "row_count": 466,
            "ratio_percent": 3.33
        },
        {
            "field_value_1": "Celebrity News",
            "row_count": 370,
            "ratio_percent": 2.64
        },
        {
            "field_value_1": "Culture and Lifestyle",
            "row_count": 177,
            "ratio_percent": 1.26
        },
        {
            "field_value_1": "Timothy Norris",
            "row_count": 162,
            "ratio_percent": 1.16
        },
        {
            "field_value_1": "Arts, Entertainment, and Media",
            "row_count": 150,
            "ratio_percent": 1.07
        },
        {
            "field_value_1": "Concerts and Tours",
            "row_count": 148,
            "ratio_percent": 1.06
        },
        {
            "field_value_1": "Painting",
            "row_count": 137,
            "ratio_percent": 0.98
        },
        {
            "field_value_1": "Fashion and Style",
            "row_count": 106,
            "ratio_percent": 0.76
        }
    ]
}
@endjson

PlantUML version 1.2022.12(Sun Oct 23 14:12:26 EDT 2022)
(GPL source distribution)
Java Runtime: OpenJDK Runtime Environment
JVM: OpenJDK 64-Bit Server VM
Default Encoding: UTF-8
Language: en
Country: CA
--></g></svg>