<?xml version="1.0" encoding="UTF-8" standalone="no"?><svg xmlns="http://www.w3.org/2000/svg" xmlns:xlink="http://www.w3.org/1999/xlink" contentStyleType="text/css" height="794px" preserveAspectRatio="none" style="width:1017px;height:794px;background:#FFFFFF;" version="1.1" viewBox="0 0 1017 794" width="1017px" zoomAndPan="magnify"><defs/><g><rect fill="#F1F1F1" height="81.9531" rx="5" ry="5" style="stroke:#F1F1F1;stroke-width:1.5;" width="402" x="10" y="264.5"/><text fill="#000000" font-family="sans-serif" font-size="14" font-weight="bold" lengthAdjust="spacing" textLength="42" x="15" y="280.0352">field1</text><text fill="#000000" font-family="sans-serif" font-size="14" lengthAdjust="spacing" textLength="258" x="149" y="280.0352">relatedContent.article:published_time</text><line style="stroke:#000000;stroke-width:1.0;" x1="144" x2="144" y1="264.5" y2="284.9883"/><line style="stroke:#000000;stroke-width:1.0;" x1="10" x2="412" y1="284.9883" y2="284.9883"/><text fill="#000000" font-family="sans-serif" font-size="14" font-weight="bold" lengthAdjust="spacing" textLength="90" x="15" y="300.5234">combination</text><text fill="#000000" font-family="sans-serif" font-size="14" lengthAdjust="spacing" textLength="258" x="149" y="300.5234">relatedContent.article:published_time</text><line style="stroke:#000000;stroke-width:1.0;" x1="144" x2="144" y1="284.9883" y2="305.4766"/><line style="stroke:#000000;stroke-width:1.0;" x1="10" x2="412" y1="305.4766" y2="305.4766"/><text fill="#000000" font-family="sans-serif" font-size="14" font-weight="bold" lengthAdjust="spacing" textLength="121" x="15" y="321.0117">null_distribution</text><text fill="#000000" font-family="sans-serif" font-size="14" lengthAdjust="spacing" textLength="12" x="149" y="321.0117">   </text><line style="stroke:#000000;stroke-width:1.0;" x1="144" x2="144" y1="305.4766" y2="325.9648"/><line style="stroke:#000000;stroke-width:1.0;" x1="10" x2="412" y1="325.9648" y2="325.9648"/><text fill="#000000" font-family="sans-serif" font-size="14" font-weight="bold" lengthAdjust="spacing" textLength="124" x="15" y="341.5">data_distribution</text><text fill="#000000" font-family="sans-serif" font-size="14" lengthAdjust="spacing" textLength="12" x="149" y="341.5">   </text><line style="stroke:#000000;stroke-width:1.0;" x1="144" x2="144" y1="325.9648" y2="346.4531"/><rect fill="none" height="81.9531" rx="5" ry="5" style="stroke:#000000;stroke-width:1.5;" width="402" x="10" y="264.5"/><rect fill="#F1F1F1" height="40.9766" rx="5" ry="5" style="stroke:#F1F1F1;stroke-width:1.5;" width="207" x="449" y="235"/><text fill="#000000" font-family="sans-serif" font-size="14" font-weight="bold" lengthAdjust="spacing" textLength="111" x="454" y="250.5352">total_null_rows</text><text fill="#000000" font-family="sans-serif" font-size="14" lengthAdjust="spacing" textLength="36" x="606" y="250.5352">2282</text><line style="stroke:#000000;stroke-width:1.0;" x1="601" x2="601" y1="235" y2="255.4883"/><line style="stroke:#000000;stroke-width:1.0;" x1="449" x2="656" y1="255.4883" y2="255.4883"/><text fill="#000000" font-family="sans-serif" font-size="14" font-weight="bold" lengthAdjust="spacing" textLength="142" x="454" y="271.0234">total_not_null_rows</text><text fill="#000000" font-family="sans-serif" font-size="14" lengthAdjust="spacing" textLength="45" x="606" y="271.0234">11723</text><line style="stroke:#000000;stroke-width:1.0;" x1="601" x2="601" y1="255.4883" y2="275.9766"/><rect fill="none" height="40.9766" rx="5" ry="5" style="stroke:#000000;stroke-width:1.5;" width="207" x="449" y="235"/><rect fill="#F1F1F1" height="204.8828" rx="5" ry="5" style="stroke:#F1F1F1;stroke-width:1.5;" width="22" x="540.5" y="294"/><text fill="#000000" font-family="sans-serif" font-size="14" lengthAdjust="spacing" textLength="12" x="545.5" y="309.5352">   </text><line style="stroke:#000000;stroke-width:1.0;" x1="540.5" x2="562.5" y1="314.4883" y2="314.4883"/><text fill="#000000" font-family="sans-serif" font-size="14" lengthAdjust="spacing" textLength="12" x="545.5" y="330.0234">   </text><line style="stroke:#000000;stroke-width:1.0;" x1="540.5" x2="562.5" y1="334.9766" y2="334.9766"/><text fill="#000000" font-family="sans-serif" font-size="14" lengthAdjust="spacing" textLength="12" x="545.5" y="350.5117">   </text><line style="stroke:#000000;stroke-width:1.0;" x1="540.5" x2="562.5" y1="355.4648" y2="355.4648"/><text fill="#000000" font-family="sans-serif" font-size="14" lengthAdjust="spacing" textLength="12" x="545.5" y="371">   </text><line style="stroke:#000000;stroke-width:1.0;" x1="540.5" x2="562.5" y1="375.9531" y2="375.9531"/><text fill="#000000" font-family="sans-serif" font-size="14" lengthAdjust="spacing" textLength="12" x="545.5" y="391.4883">   </text><line style="stroke:#000000;stroke-width:1.0;" x1="540.5" x2="562.5" y1="396.4414" y2="396.4414"/><text fill="#000000" font-family="sans-serif" font-size="14" lengthAdjust="spacing" textLength="12" x="545.5" y="411.9766">   </text><line style="stroke:#000000;stroke-width:1.0;" x1="540.5" x2="562.5" y1="416.9297" y2="416.9297"/><text fill="#000000" font-family="sans-serif" font-size="14" lengthAdjust="spacing" textLength="12" x="545.5" y="432.4648">   </text><line style="stroke:#000000;stroke-width:1.0;" x1="540.5" x2="562.5" y1="437.418" y2="437.418"/><text fill="#000000" font-family="sans-serif" font-size="14" lengthAdjust="spacing" textLength="12" x="545.5" y="452.9531">   </text><line style="stroke:#000000;stroke-width:1.0;" x1="540.5" x2="562.5" y1="457.9063" y2="457.9063"/><text fill="#000000" font-family="sans-serif" font-size="14" lengthAdjust="spacing" textLength="12" x="545.5" y="473.4414">   </text><line style="stroke:#000000;stroke-width:1.0;" x1="540.5" x2="562.5" y1="478.3945" y2="478.3945"/><text fill="#000000" font-family="sans-serif" font-size="14" lengthAdjust="spacing" textLength="12" x="545.5" y="493.9297">   </text><rect fill="none" height="204.8828" rx="5" ry="5" style="stroke:#000000;stroke-width:1.5;" width="22" x="540.5" y="294"/><rect fill="#F1F1F1" height="61.4648" rx="5" ry="5" style="stroke:#F1F1F1;stroke-width:1.5;" width="154" x="772" y="10"/><text fill="#000000" font-family="sans-serif" font-size="14" font-weight="bold" lengthAdjust="spacing" textLength="94" x="777" y="25.5352">field_value_1</text><text fill="#000000" font-family="sans-serif" font-size="14" lengthAdjust="spacing" textLength="36" x="881" y="25.5352">None</text><line style="stroke:#000000;stroke-width:1.0;" x1="876" x2="876" y1="10" y2="30.4883"/><line style="stroke:#000000;stroke-width:1.0;" x1="772" x2="926" y1="30.4883" y2="30.4883"/><text fill="#000000" font-family="sans-serif" font-size="14" font-weight="bold" lengthAdjust="spacing" textLength="74" x="777" y="46.0234">row_count</text><text fill="#000000" font-family="sans-serif" font-size="14" lengthAdjust="spacing" textLength="36" x="881" y="46.0234">2282</text><line style="stroke:#000000;stroke-width:1.0;" x1="876" x2="876" y1="30.4883" y2="50.9766"/><line style="stroke:#000000;stroke-width:1.0;" x1="772" x2="926" y1="50.9766" y2="50.9766"/><text fill="#000000" font-family="sans-serif" font-size="14" font-weight="bold" lengthAdjust="spacing" textLength="94" x="777" y="66.5117">ratio_percent</text><text fill="#000000" font-family="sans-serif" font-size="14" lengthAdjust="spacing" textLength="40" x="881" y="66.5117">16.29</text><line style="stroke:#000000;stroke-width:1.0;" x1="876" x2="876" y1="50.9766" y2="71.4648"/><rect fill="none" height="61.4648" rx="5" ry="5" style="stroke:#000000;stroke-width:1.5;" width="154" x="772" y="10"/><rect fill="#F1F1F1" height="61.4648" rx="5" ry="5" style="stroke:#F1F1F1;stroke-width:1.5;" width="312" x="693" y="89"/><text fill="#000000" font-family="sans-serif" font-size="14" font-weight="bold" lengthAdjust="spacing" textLength="94" x="698" y="104.5352">field_value_1</text><text fill="#000000" font-family="sans-serif" font-size="14" lengthAdjust="spacing" textLength="198" x="802" y="104.5352">2005-10-15T00:10:27.000Z</text><line style="stroke:#000000;stroke-width:1.0;" x1="797" x2="797" y1="89" y2="109.4883"/><line style="stroke:#000000;stroke-width:1.0;" x1="693" x2="1005" y1="109.4883" y2="109.4883"/><text fill="#000000" font-family="sans-serif" font-size="14" font-weight="bold" lengthAdjust="spacing" textLength="74" x="698" y="125.0234">row_count</text><text fill="#000000" font-family="sans-serif" font-size="14" lengthAdjust="spacing" textLength="18" x="802" y="125.0234">97</text><line style="stroke:#000000;stroke-width:1.0;" x1="797" x2="797" y1="109.4883" y2="129.9766"/><line style="stroke:#000000;stroke-width:1.0;" x1="693" x2="1005" y1="129.9766" y2="129.9766"/><text fill="#000000" font-family="sans-serif" font-size="14" font-weight="bold" lengthAdjust="spacing" textLength="94" x="698" y="145.5117">ratio_percent</text><text fill="#000000" font-family="sans-serif" font-size="14" lengthAdjust="spacing" textLength="31" x="802" y="145.5117">0.69</text><line style="stroke:#000000;stroke-width:1.0;" x1="797" x2="797" y1="129.9766" y2="150.4648"/><rect fill="none" height="61.4648" rx="5" ry="5" style="stroke:#000000;stroke-width:1.5;" width="312" x="693" y="89"/><rect fill="#F1F1F1" height="61.4648" rx="5" ry="5" style="stroke:#F1F1F1;stroke-width:1.5;" width="312" x="693" y="168"/><text fill="#000000" font-family="sans-serif" font-size="14" font-weight="bold" lengthAdjust="spacing" textLength="94" x="698" y="183.5352">field_value_1</text><text fill="#000000" font-family="sans-serif" font-size="14" lengthAdjust="spacing" textLength="198" x="802" y="183.5352">2005-10-19T17:10:20.000Z</text><line style="stroke:#000000;stroke-width:1.0;" x1="797" x2="797" y1="168" y2="188.4883"/><line style="stroke:#000000;stroke-width:1.0;" x1="693" x2="1005" y1="188.4883" y2="188.4883"/><text fill="#000000" font-family="sans-serif" font-size="14" font-weight="bold" lengthAdjust="spacing" textLength="74" x="698" y="204.0234">row_count</text><text fill="#000000" font-family="sans-serif" font-size="14" lengthAdjust="spacing" textLength="18" x="802" y="204.0234">86</text><line style="stroke:#000000;stroke-width:1.0;" x1="797" x2="797" y1="188.4883" y2="208.9766"/><line style="stroke:#000000;stroke-width:1.0;" x1="693" x2="1005" y1="208.9766" y2="208.9766"/><text fill="#000000" font-family="sans-serif" font-size="14" font-weight="bold" lengthAdjust="spacing" textLength="94" x="698" y="224.5117">ratio_percent</text><text fill="#000000" font-family="sans-serif" font-size="14" lengthAdjust="spacing" textLength="31" x="802" y="224.5117">0.61</text><line style="stroke:#000000;stroke-width:1.0;" x1="797" x2="797" y1="208.9766" y2="229.4648"/><rect fill="none" height="61.4648" rx="5" ry="5" style="stroke:#000000;stroke-width:1.5;" width="312" x="693" y="168"/><rect fill="#F1F1F1" height="61.4648" rx="5" ry="5" style="stroke:#F1F1F1;stroke-width:1.5;" width="312" x="693" y="247"/><text fill="#000000" font-family="sans-serif" font-size="14" font-weight="bold" lengthAdjust="spacing" textLength="94" x="698" y="262.5352">field_value_1</text><text fill="#000000" font-family="sans-serif" font-size="14" lengthAdjust="spacing" textLength="198" x="802" y="262.5352">2005-10-17T07:10:18.000Z</text><line style="stroke:#000000;stroke-width:1.0;" x1="797" x2="797" y1="247" y2="267.4883"/><line style="stroke:#000000;stroke-width:1.0;" x1="693" x2="1005" y1="267.4883" y2="267.4883"/><text fill="#000000" font-family="sans-serif" font-size="14" font-weight="bold" lengthAdjust="spacing" textLength="74" x="698" y="283.0234">row_count</text><text fill="#000000" font-family="sans-serif" font-size="14" lengthAdjust="spacing" textLength="18" x="802" y="283.0234">82</text><line style="stroke:#000000;stroke-width:1.0;" x1="797" x2="797" y1="267.4883" y2="287.9766"/><line style="stroke:#000000;stroke-width:1.0;" x1="693" x2="1005" y1="287.9766" y2="287.9766"/><text fill="#000000" font-family="sans-serif" font-size="14" font-weight="bold" lengthAdjust="spacing" textLength="94" x="698" y="303.5117">ratio_percent</text><text fill="#000000" font-family="sans-serif" font-size="14" lengthAdjust="spacing" textLength="31" x="802" y="303.5117">0.59</text><line style="stroke:#000000;stroke-width:1.0;" x1="797" x2="797" y1="287.9766" y2="308.4648"/><rect fill="none" height="61.4648" rx="5" ry="5" style="stroke:#000000;stroke-width:1.5;" width="312" x="693" y="247"/><rect fill="#F1F1F1" height="61.4648" rx="5" ry="5" style="stroke:#F1F1F1;stroke-width:1.5;" width="312" x="693" y="326"/><text fill="#000000" font-family="sans-serif" font-size="14" font-weight="bold" lengthAdjust="spacing" textLength="94" x="698" y="341.5352">field_value_1</text><text fill="#000000" font-family="sans-serif" font-size="14" lengthAdjust="spacing" textLength="198" x="802" y="341.5352">2005-12-18T09:12:22.000Z</text><line style="stroke:#000000;stroke-width:1.0;" x1="797" x2="797" y1="326" y2="346.4883"/><line style="stroke:#000000;stroke-width:1.0;" x1="693" x2="1005" y1="346.4883" y2="346.4883"/><text fill="#000000" font-family="sans-serif" font-size="14" font-weight="bold" lengthAdjust="spacing" textLength="74" x="698" y="362.0234">row_count</text><text fill="#000000" font-family="sans-serif" font-size="14" lengthAdjust="spacing" textLength="18" x="802" y="362.0234">74</text><line style="stroke:#000000;stroke-width:1.0;" x1="797" x2="797" y1="346.4883" y2="366.9766"/><line style="stroke:#000000;stroke-width:1.0;" x1="693" x2="1005" y1="366.9766" y2="366.9766"/><text fill="#000000" font-family="sans-serif" font-size="14" font-weight="bold" lengthAdjust="spacing" textLength="94" x="698" y="382.5117">ratio_percent</text><text fill="#000000" font-family="sans-serif" font-size="14" lengthAdjust="spacing" textLength="31" x="802" y="382.5117">0.53</text><line style="stroke:#000000;stroke-width:1.0;" x1="797" x2="797" y1="366.9766" y2="387.4648"/><rect fill="none" height="61.4648" rx="5" ry="5" style="stroke:#000000;stroke-width:1.5;" width="312" x="693" y="326"/><rect fill="#F1F1F1" height="61.4648" rx="5" ry="5" style="stroke:#F1F1F1;stroke-width:1.5;" width="312" x="693" y="405"/><text fill="#000000" font-family="sans-serif" font-size="14" font-weight="bold" lengthAdjust="spacing" textLength="94" x="698" y="420.5352">field_value_1</text><text fill="#000000" font-family="sans-serif" font-size="14" lengthAdjust="spacing" textLength="198" x="802" y="420.5352">2008-02-28T17:00:00.000Z</text><line style="stroke:#000000;stroke-width:1.0;" x1="797" x2="797" y1="405" y2="425.4883"/><line style="stroke:#000000;stroke-width:1.0;" x1="693" x2="1005" y1="425.4883" y2="425.4883"/><text fill="#000000" font-family="sans-serif" font-size="14" font-weight="bold" lengthAdjust="spacing" textLength="74" x="698" y="441.0234">row_count</text><text fill="#000000" font-family="sans-serif" font-size="14" lengthAdjust="spacing" textLength="18" x="802" y="441.0234">57</text><line style="stroke:#000000;stroke-width:1.0;" x1="797" x2="797" y1="425.4883" y2="445.9766"/><line style="stroke:#000000;stroke-width:1.0;" x1="693" x2="1005" y1="445.9766" y2="445.9766"/><text fill="#000000" font-family="sans-serif" font-size="14" font-weight="bold" lengthAdjust="spacing" textLength="94" x="698" y="461.5117">ratio_percent</text><text fill="#000000" font-family="sans-serif" font-size="14" lengthAdjust="spacing" textLength="31" x="802" y="461.5117">0.41</text><line style="stroke:#000000;stroke-width:1.0;" x1="797" x2="797" y1="445.9766" y2="466.4648"/><rect fill="none" height="61.4648" rx="5" ry="5" style="stroke:#000000;stroke-width:1.5;" width="312" x="693" y="405"/><rect fill="#F1F1F1" height="61.4648" rx="5" ry="5" style="stroke:#F1F1F1;stroke-width:1.5;" width="312" x="693" y="484"/><text fill="#000000" font-family="sans-serif" font-size="14" font-weight="bold" lengthAdjust="spacing" textLength="94" x="698" y="499.5352">field_value_1</text><text fill="#000000" font-family="sans-serif" font-size="14" lengthAdjust="spacing" textLength="198" x="802" y="499.5352">2008-05-02T12:38:40.000Z</text><line style="stroke:#000000;stroke-width:1.0;" x1="797" x2="797" y1="484" y2="504.4883"/><line style="stroke:#000000;stroke-width:1.0;" x1="693" x2="1005" y1="504.4883" y2="504.4883"/><text fill="#000000" font-family="sans-serif" font-size="14" font-weight="bold" lengthAdjust="spacing" textLength="74" x="698" y="520.0234">row_count</text><text fill="#000000" font-family="sans-serif" font-size="14" lengthAdjust="spacing" textLength="18" x="802" y="520.0234">56</text><line style="stroke:#000000;stroke-width:1.0;" x1="797" x2="797" y1="504.4883" y2="524.9766"/><line style="stroke:#000000;stroke-width:1.0;" x1="693" x2="1005" y1="524.9766" y2="524.9766"/><text fill="#000000" font-family="sans-serif" font-size="14" font-weight="bold" lengthAdjust="spacing" textLength="94" x="698" y="540.5117">ratio_percent</text><text fill="#000000" font-family="sans-serif" font-size="14" lengthAdjust="spacing" textLength="22" x="802" y="540.5117">0.4</text><line style="stroke:#000000;stroke-width:1.0;" x1="797" x2="797" y1="524.9766" y2="545.4648"/><rect fill="none" height="61.4648" rx="5" ry="5" style="stroke:#000000;stroke-width:1.5;" width="312" x="693" y="484"/><rect fill="#F1F1F1" height="61.4648" rx="5" ry="5" style="stroke:#F1F1F1;stroke-width:1.5;" width="312" x="693" y="563"/><text fill="#000000" font-family="sans-serif" font-size="14" font-weight="bold" lengthAdjust="spacing" textLength="94" x="698" y="578.5352">field_value_1</text><text fill="#000000" font-family="sans-serif" font-size="14" lengthAdjust="spacing" textLength="198" x="802" y="578.5352">2005-10-18T15:10:44.000Z</text><line style="stroke:#000000;stroke-width:1.0;" x1="797" x2="797" y1="563" y2="583.4883"/><line style="stroke:#000000;stroke-width:1.0;" x1="693" x2="1005" y1="583.4883" y2="583.4883"/><text fill="#000000" font-family="sans-serif" font-size="14" font-weight="bold" lengthAdjust="spacing" textLength="74" x="698" y="599.0234">row_count</text><text fill="#000000" font-family="sans-serif" font-size="14" lengthAdjust="spacing" textLength="18" x="802" y="599.0234">49</text><line style="stroke:#000000;stroke-width:1.0;" x1="797" x2="797" y1="583.4883" y2="603.9766"/><line style="stroke:#000000;stroke-width:1.0;" x1="693" x2="1005" y1="603.9766" y2="603.9766"/><text fill="#000000" font-family="sans-serif" font-size="14" font-weight="bold" lengthAdjust="spacing" textLength="94" x="698" y="619.5117">ratio_percent</text><text fill="#000000" font-family="sans-serif" font-size="14" lengthAdjust="spacing" textLength="31" x="802" y="619.5117">0.35</text><line style="stroke:#000000;stroke-width:1.0;" x1="797" x2="797" y1="603.9766" y2="624.4648"/><rect fill="none" height="61.4648" rx="5" ry="5" style="stroke:#000000;stroke-width:1.5;" width="312" x="693" y="563"/><rect fill="#F1F1F1" height="61.4648" rx="5" ry="5" style="stroke:#F1F1F1;stroke-width:1.5;" width="312" x="693" y="642"/><text fill="#000000" font-family="sans-serif" font-size="14" font-weight="bold" lengthAdjust="spacing" textLength="94" x="698" y="657.5352">field_value_1</text><text fill="#000000" font-family="sans-serif" font-size="14" lengthAdjust="spacing" textLength="198" x="802" y="657.5352">2007-06-29T15:06:30.000Z</text><line style="stroke:#000000;stroke-width:1.0;" x1="797" x2="797" y1="642" y2="662.4883"/><line style="stroke:#000000;stroke-width:1.0;" x1="693" x2="1005" y1="662.4883" y2="662.4883"/><text fill="#000000" font-family="sans-serif" font-size="14" font-weight="bold" lengthAdjust="spacing" textLength="74" x="698" y="678.0234">row_count</text><text fill="#000000" font-family="sans-serif" font-size="14" lengthAdjust="spacing" textLength="18" x="802" y="678.0234">49</text><line style="stroke:#000000;stroke-width:1.0;" x1="797" x2="797" y1="662.4883" y2="682.9766"/><line style="stroke:#000000;stroke-width:1.0;" x1="693" x2="1005" y1="682.9766" y2="682.9766"/><text fill="#000000" font-family="sans-serif" font-size="14" font-weight="bold" lengthAdjust="spacing" textLength="94" x="698" y="698.5117">ratio_percent</text><text fill="#000000" font-family="sans-serif" font-size="14" lengthAdjust="spacing" textLength="31" x="802" y="698.5117">0.35</text><line style="stroke:#000000;stroke-width:1.0;" x1="797" x2="797" y1="682.9766" y2="703.4648"/><rect fill="none" height="61.4648" rx="5" ry="5" style="stroke:#000000;stroke-width:1.5;" width="312" x="693" y="642"/><rect fill="#F1F1F1" height="61.4648" rx="5" ry="5" style="stroke:#F1F1F1;stroke-width:1.5;" width="312" x="693" y="721"/><text fill="#000000" font-family="sans-serif" font-size="14" font-weight="bold" lengthAdjust="spacing" textLength="94" x="698" y="736.5352">field_value_1</text><text fill="#000000" font-family="sans-serif" font-size="14" lengthAdjust="spacing" textLength="198" x="802" y="736.5352">2006-10-17T19:10:35.000Z</text><line style="stroke:#000000;stroke-width:1.0;" x1="797" x2="797" y1="721" y2="741.4883"/><line style="stroke:#000000;stroke-width:1.0;" x1="693" x2="1005" y1="741.4883" y2="741.4883"/><text fill="#000000" font-family="sans-serif" font-size="14" font-weight="bold" lengthAdjust="spacing" textLength="74" x="698" y="757.0234">row_count</text><text fill="#000000" font-family="sans-serif" font-size="14" lengthAdjust="spacing" textLength="18" x="802" y="757.0234">44</text><line style="stroke:#000000;stroke-width:1.0;" x1="797" x2="797" y1="741.4883" y2="761.9766"/><line style="stroke:#000000;stroke-width:1.0;" x1="693" x2="1005" y1="761.9766" y2="761.9766"/><text fill="#000000" font-family="sans-serif" font-size="14" font-weight="bold" lengthAdjust="spacing" textLength="94" x="698" y="777.5117">ratio_percent</text><text fill="#000000" font-family="sans-serif" font-size="14" lengthAdjust="spacing" textLength="31" x="802" y="777.5117">0.31</text><line style="stroke:#000000;stroke-width:1.0;" x1="797" x2="797" y1="761.9766" y2="782.4648"/><rect fill="none" height="61.4648" rx="5" ry="5" style="stroke:#000000;stroke-width:1.5;" width="312" x="693" y="721"/><path d="M400,315.5 L413,315.5 C433.8273,315.5 430.6143,295.285 449,285.5 C453.4187,283.1484 458.0447,280.9598 462.7859,278.9261 " fill="none" style="stroke:#000000;stroke-width:1.0;stroke-dasharray:3.0,3.0;"/><path d="M463.9339,281.7334 L464.8914,278.0652 L461.638,276.1189 L469.804,276.0563 L463.9339,281.7334 " fill="#000000" style="stroke:#000000;stroke-width:1.0;"/><ellipse cx="400" cy="315.5" fill="#000000" rx="3" ry="3" style="stroke:#000000;stroke-width:1.0;"/><path d="M553,303.5 L566,303.5 C607.2281,303.5 628.1738,314.9755 657,285.5 C721.9848,219.0516 629.712,147.5665 693,79.5 C711.5361,59.5643 738.6059,49.169 764.9831,43.9341 " fill="none" style="stroke:#000000;stroke-width:1.0;stroke-dasharray:3.0,3.0;"/><path d="M765.5205,46.8995 L767.2073,43.5311 L764.4458,40.9686 L772.3969,42.5907 L765.5205,46.8995 " fill="#000000" style="stroke:#000000;stroke-width:1.0;"/><ellipse cx="553" cy="303.5" fill="#000000" rx="3" ry="3" style="stroke:#000000;stroke-width:1.0;"/><path d="M553,324.5 L566,324.5 C610.0022,324.5 627.9505,318.5503 657,285.5 C695.7318,241.4339 650.8878,199.3477 693,158.5 C694.258,157.2798 695.5482,156.096 696.8683,154.9475 " fill="none" style="stroke:#000000;stroke-width:1.0;stroke-dasharray:3.0,3.0;"/><path d="M698.7931,157.3363 L698.6598,153.504 L694.9435,152.5588 L702.8402,150.1356 L698.7931,157.3363 " fill="#000000" style="stroke:#000000;stroke-width:1.0;"/><ellipse cx="553" cy="324.5" fill="#000000" rx="3" ry="3" style="stroke:#000000;stroke-width:1.0;"/><path d="M553,344.5 L566,344.5 C614.2012,344.5 621.773,318.4001 657,285.5 C676.4889,267.2985 670.79,252.259 693,237.5 C695.4014,235.9042 697.8631,234.3737 700.3763,232.9058 " fill="none" style="stroke:#000000;stroke-width:1.0;stroke-dasharray:3.0,3.0;"/><path d="M701.8728,235.6125 L702.4063,231.7835 L698.8798,230.1992 L707.143,229.1647 L701.8728,235.6125 " fill="#000000" style="stroke:#000000;stroke-width:1.0;"/><ellipse cx="553" cy="344.5" fill="#000000" rx="3" ry="3" style="stroke:#000000;stroke-width:1.0;"/><path d="M553,365.5 L566,365.5 C626.3414,365.5 635.472,335.7103 693,317.5 C700.9135,314.995 709.09,312.5316 717.3611,310.1339 " fill="none" style="stroke:#000000;stroke-width:1.0;stroke-dasharray:3.0,3.0;"/><path d="M718.1969,313.0494 L719.5478,309.5071 L716.5253,307.2184 L724.6499,308.0444 L718.1969,313.0494 " fill="#000000" style="stroke:#000000;stroke-width:1.0;"/><ellipse cx="553" cy="365.5" fill="#000000" rx="3" ry="3" style="stroke:#000000;stroke-width:1.0;"/><path d="M553,385.5 L566,385.5 C604.826,385.5 646.4974,382.7558 685.5896,378.9557 " fill="none" style="stroke:#000000;stroke-width:1.0;stroke-dasharray:3.0,3.0;"/><path d="M685.8991,382.0687 L687.9244,378.7236 L685.2802,375.8427 L693.3721,378.1821 L685.8991,382.0687 " fill="#000000" style="stroke:#000000;stroke-width:1.0;"/><ellipse cx="553" cy="385.5" fill="#000000" rx="3" ry="3" style="stroke:#000000;stroke-width:1.0;"/><path d="M553,406.5 L566,406.5 C604.826,406.5 646.4974,409.2442 685.5896,413.0443 " fill="none" style="stroke:#000000;stroke-width:1.0;stroke-dasharray:3.0,3.0;"/><path d="M685.2802,416.1573 L687.9244,413.2764 L685.8991,409.9313 L693.3721,413.8179 L685.2802,416.1573 " fill="#000000" style="stroke:#000000;stroke-width:1.0;"/><ellipse cx="553" cy="406.5" fill="#000000" rx="3" ry="3" style="stroke:#000000;stroke-width:1.0;"/><path d="M553,427.5 L566,427.5 C626.3414,427.5 635.4172,457.4636 693,475.5 C699.9721,477.6838 707.1493,479.8299 714.4162,481.9229 " fill="none" style="stroke:#000000;stroke-width:1.0;stroke-dasharray:3.0,3.0;"/><path d="M713.5863,484.8399 L716.604,482.5453 L715.2462,479.0058 L721.7089,483.9977 L713.5863,484.8399 " fill="#000000" style="stroke:#000000;stroke-width:1.0;"/><ellipse cx="553" cy="427.5" fill="#000000" rx="3" ry="3" style="stroke:#000000;stroke-width:1.0;"/><path d="M553,447.5 L566,447.5 C639.8072,447.5 627.2942,520.8807 693,554.5 C696.7166,556.4017 700.5316,558.2144 704.4206,559.942 " fill="none" style="stroke:#000000;stroke-width:1.0;stroke-dasharray:3.0,3.0;"/><path d="M703.2131,562.772 L706.5431,560.8477 L705.6281,557.1121 L711.4955,562.9608 L703.2131,562.772 " fill="#000000" style="stroke:#000000;stroke-width:1.0;"/><ellipse cx="553" cy="447.5" fill="#000000" rx="3" ry="3" style="stroke:#000000;stroke-width:1.0;"/><path d="M553,468.5 L566,468.5 C658.5405,468.5 615.6071,582.7646 693,633.5 C695.4732,635.1213 698.0089,636.6752 700.5977,638.1645 " fill="none" style="stroke:#000000;stroke-width:1.0;stroke-dasharray:3.0,3.0;"/><path d="M699.0804,640.9527 L702.6889,639.3025 L702.1151,635.3763 L707.5681,641.9578 L699.0804,640.9527 " fill="#000000" style="stroke:#000000;stroke-width:1.0;"/><ellipse cx="553" cy="468.5" fill="#000000" rx="3" ry="3" style="stroke:#000000;stroke-width:1.0;"/><path d="M553,488.5 L566,488.5 C680.4434,488.5 601.9197,643.2059 693,712.5 C694.9936,714.0167 697.0392,715.475 699.1306,716.877 " fill="none" style="stroke:#000000;stroke-width:1.0;stroke-dasharray:3.0,3.0;"/><path d="M697.5147,719.4395 L701.0524,718.089 L700.7466,714.3146 L705.5367,720.9168 L697.5147,719.4395 " fill="#000000" style="stroke:#000000;stroke-width:1.0;"/><ellipse cx="553" cy="488.5" fill="#000000" rx="3" ry="3" style="stroke:#000000;stroke-width:1.0;"/><path d="M400,336.5 L413,336.5 C460.0497,336.5 509.2629,365.8357 534.6101,383.482 " fill="none" style="stroke:#000000;stroke-width:1.0;stroke-dasharray:3.0,3.0;"/><path d="M532.8416,385.964 L536.4716,384.8085 L536.3787,381.0001 L540.815,387.9035 L532.8416,385.964 " fill="#000000" style="stroke:#000000;stroke-width:1.0;"/><ellipse cx="400" cy="336.5" fill="#000000" rx="3" ry="3" style="stroke:#000000;stroke-width:1.0;"/><!--MD5=[a339c2587f9bb0286c161b4d677e9621]
@startjson
{
    "field1": "relatedContent.article:published_time",
    "combination": "relatedContent.article:published_time",
    "null_distribution": {
        "total_null_rows": 2282,
        "total_not_null_rows": 11723
    },
    "data_distribution": [
        {
            "field_value_1": "None",
            "row_count": 2282,
            "ratio_percent": 16.29
        },
        {
            "field_value_1": "2005-10-15T00:10:27.000Z",
            "row_count": 97,
            "ratio_percent": 0.69
        },
        {
            "field_value_1": "2005-10-19T17:10:20.000Z",
            "row_count": 86,
            "ratio_percent": 0.61
        },
        {
            "field_value_1": "2005-10-17T07:10:18.000Z",
            "row_count": 82,
            "ratio_percent": 0.59
        },
        {
            "field_value_1": "2005-12-18T09:12:22.000Z",
            "row_count": 74,
            "ratio_percent": 0.53
        },
        {
            "field_value_1": "2008-02-28T17:00:00.000Z",
            "row_count": 57,
            "ratio_percent": 0.41
        },
        {
            "field_value_1": "2008-05-02T12:38:40.000Z",
            "row_count": 56,
            "ratio_percent": 0.4
        },
        {
            "field_value_1": "2005-10-18T15:10:44.000Z",
            "row_count": 49,
            "ratio_percent": 0.35
        },
        {
            "field_value_1": "2007-06-29T15:06:30.000Z",
            "row_count": 49,
            "ratio_percent": 0.35
        },
        {
            "field_value_1": "2006-10-17T19:10:35.000Z",
            "row_count": 44,
            "ratio_percent": 0.31
        }
    ]
}
@endjson

PlantUML version 1.2022.12(Sun Oct 23 14:12:26 EDT 2022)
(GPL source distribution)
Java Runtime: OpenJDK Runtime Environment
JVM: OpenJDK 64-Bit Server VM
Default Encoding: UTF-8
Language: en
Country: CA
--></g></svg>