<?xml version="1.0" encoding="UTF-8" standalone="no"?><svg xmlns="http://www.w3.org/2000/svg" xmlns:xlink="http://www.w3.org/1999/xlink" contentStyleType="text/css" height="138px" preserveAspectRatio="none" style="width:833px;height:138px;background:#FFFFFF;" version="1.1" viewBox="0 0 833 138" width="833px" zoomAndPan="magnify"><defs/><g><rect fill="#F1F1F1" height="81.9531" rx="5" ry="5" style="stroke:#F1F1F1;stroke-width:1.5;" width="167" x="10" y="10"/><text fill="#000000" font-family="sans-serif" font-size="14" font-weight="bold" lengthAdjust="spacing" textLength="42" x="15" y="25.5352">field1</text><text fill="#000000" font-family="sans-serif" font-size="14" lengthAdjust="spacing" textLength="23" x="149" y="25.5352">xss</text><line style="stroke:#000000;stroke-width:1.0;" x1="144" x2="144" y1="10" y2="30.4883"/><line style="stroke:#000000;stroke-width:1.0;" x1="10" x2="177" y1="30.4883" y2="30.4883"/><text fill="#000000" font-family="sans-serif" font-size="14" font-weight="bold" lengthAdjust="spacing" textLength="90" x="15" y="46.0234">combination</text><text fill="#000000" font-family="sans-serif" font-size="14" lengthAdjust="spacing" textLength="23" x="149" y="46.0234">xss</text><line style="stroke:#000000;stroke-width:1.0;" x1="144" x2="144" y1="30.4883" y2="50.9766"/><line style="stroke:#000000;stroke-width:1.0;" x1="10" x2="177" y1="50.9766" y2="50.9766"/><text fill="#000000" font-family="sans-serif" font-size="14" font-weight="bold" lengthAdjust="spacing" textLength="121" x="15" y="66.5117">null_distribution</text><text fill="#000000" font-family="sans-serif" font-size="14" lengthAdjust="spacing" textLength="12" x="149" y="66.5117">   </text><line style="stroke:#000000;stroke-width:1.0;" x1="144" x2="144" y1="50.9766" y2="71.4648"/><line style="stroke:#000000;stroke-width:1.0;" x1="10" x2="177" y1="71.4648" y2="71.4648"/><text fill="#000000" font-family="sans-serif" font-size="14" font-weight="bold" lengthAdjust="spacing" textLength="124" x="15" y="87">data_distribution</text><text fill="#000000" font-family="sans-serif" font-size="14" lengthAdjust="spacing" textLength="12" x="149" y="87">   </text><line style="stroke:#000000;stroke-width:1.0;" x1="144" x2="144" y1="71.4648" y2="91.9531"/><rect fill="none" height="81.9531" rx="5" ry="5" style="stroke:#000000;stroke-width:1.5;" width="167" x="10" y="10"/><rect fill="#F1F1F1" height="40.9766" rx="5" ry="5" style="stroke:#F1F1F1;stroke-width:1.5;" width="207" x="214" y="26.5"/><text fill="#000000" font-family="sans-serif" font-size="14" font-weight="bold" lengthAdjust="spacing" textLength="111" x="219" y="42.0352">total_null_rows</text><text fill="#000000" font-family="sans-serif" font-size="14" lengthAdjust="spacing" textLength="9" x="371" y="42.0352">0</text><line style="stroke:#000000;stroke-width:1.0;" x1="366" x2="366" y1="26.5" y2="46.9883"/><line style="stroke:#000000;stroke-width:1.0;" x1="214" x2="421" y1="46.9883" y2="46.9883"/><text fill="#000000" font-family="sans-serif" font-size="14" font-weight="bold" lengthAdjust="spacing" textLength="142" x="219" y="62.5234">total_not_null_rows</text><text fill="#000000" font-family="sans-serif" font-size="14" lengthAdjust="spacing" textLength="45" x="371" y="62.5234">14005</text><line style="stroke:#000000;stroke-width:1.0;" x1="366" x2="366" y1="46.9883" y2="67.4766"/><rect fill="none" height="40.9766" rx="5" ry="5" style="stroke:#000000;stroke-width:1.5;" width="207" x="214" y="26.5"/><rect fill="#F1F1F1" height="20.4883" rx="5" ry="5" style="stroke:#F1F1F1;stroke-width:1.5;" width="22" x="305.5" y="86"/><text fill="#000000" font-family="sans-serif" font-size="14" lengthAdjust="spacing" textLength="12" x="310.5" y="101.5352">   </text><rect fill="none" height="20.4883" rx="5" ry="5" style="stroke:#000000;stroke-width:1.5;" width="22" x="305.5" y="86"/><rect fill="#F1F1F1" height="61.4648" rx="5" ry="5" style="stroke:#F1F1F1;stroke-width:1.5;" width="363" x="458" y="65.5"/><text fill="#000000" font-family="sans-serif" font-size="14" font-weight="bold" lengthAdjust="spacing" textLength="94" x="463" y="81.0352">field_value_1</text><text fill="#000000" font-family="sans-serif" font-size="14" lengthAdjust="spacing" textLength="249" x="567" y="81.0352">&lt;script&gt;console.log("xss")&lt;/script&gt;</text><line style="stroke:#000000;stroke-width:1.0;" x1="562" x2="562" y1="65.5" y2="85.9883"/><line style="stroke:#000000;stroke-width:1.0;" x1="458" x2="821" y1="85.9883" y2="85.9883"/><text fill="#000000" font-family="sans-serif" font-size="14" font-weight="bold" lengthAdjust="spacing" textLength="74" x="463" y="101.5234">row_count</text><text fill="#000000" font-family="sans-serif" font-size="14" lengthAdjust="spacing" textLength="45" x="567" y="101.5234">14005</text><line style="stroke:#000000;stroke-width:1.0;" x1="562" x2="562" y1="85.9883" y2="106.4766"/><line style="stroke:#000000;stroke-width:1.0;" x1="458" x2="821" y1="106.4766" y2="106.4766"/><text fill="#000000" font-family="sans-serif" font-size="14" font-weight="bold" lengthAdjust="spacing" textLength="94" x="463" y="122.0117">ratio_percent</text><text fill="#000000" font-family="sans-serif" font-size="14" lengthAdjust="spacing" textLength="40" x="567" y="122.0117">100.0</text><line style="stroke:#000000;stroke-width:1.0;" x1="562" x2="562" y1="106.4766" y2="126.9648"/><rect fill="none" height="61.4648" rx="5" ry="5" style="stroke:#000000;stroke-width:1.5;" width="363" x="458" y="65.5"/><path d="M165,61 L178,61 C187.2819,61 196.895,60.6871 206.5328,60.155 " fill="none" style="stroke:#000000;stroke-width:1.0;stroke-dasharray:3.0,3.0;"/><path d="M206.7216,63.2465 L208.8514,60.0133 L206.344,57.0634 L214.2616,59.6829 L206.7216,63.2465 " fill="#000000" style="stroke:#000000;stroke-width:1.0;"/><ellipse cx="165" cy="61" fill="#000000" rx="3" ry="3" style="stroke:#000000;stroke-width:1.0;"/><path d="M317.1916,96 L330.1916,96 C351.7492,96 399.198,96 450.5856,96 " fill="none" style="stroke:#000000;stroke-width:1.0;stroke-dasharray:3.0,3.0;"/><path d="M450.5856,99.0431 L452.8679,96 L450.5856,92.9569 L458.1933,96 L450.5856,99.0431 " fill="#000000" style="stroke:#000000;stroke-width:1.0;"/><ellipse cx="317.1916" cy="96" fill="#000000" rx="3" ry="3" style="stroke:#000000;stroke-width:1.0;"/><path d="M165,82 L178,82 C221.301,82 271.8094,88.8089 298.4131,92.9298 " fill="none" style="stroke:#000000;stroke-width:1.0;stroke-dasharray:3.0,3.0;"/><path d="M297.9403,95.9116 L300.6494,93.2844 L298.886,89.948 L305.8675,94.1119 L297.9403,95.9116 " fill="#000000" style="stroke:#000000;stroke-width:1.0;"/><ellipse cx="165" cy="82" fill="#000000" rx="3" ry="3" style="stroke:#000000;stroke-width:1.0;"/><!--MD5=[09b040b42338829eb453a62a0a7d49f5]
@startjson
{
    "field1": "xss",
    "combination": "xss",
    "null_distribution": {
        "total_null_rows": 0,
        "total_not_null_rows": 14005
    },
    "data_distribution": [
        {
            "field_value_1": "<script>console.log(\"xss\")</script>",
            "row_count": 14005,
            "ratio_percent": 100.0
        }
    ]
}
@endjson

PlantUML version 1.2022.12(Sun Oct 23 14:12:26 EDT 2022)
(GPL source distribution)
Java Runtime: OpenJDK Runtime Environment
JVM: OpenJDK 64-Bit Server VM
Default Encoding: UTF-8
Language: en
Country: CA
--></g></svg>