<?xml version="1.0" encoding="UTF-8" standalone="no"?><svg xmlns="http://www.w3.org/2000/svg" xmlns:xlink="http://www.w3.org/1999/xlink" contentStyleType="text/css" height="794px" preserveAspectRatio="none" style="width:863px;height:794px;background:#FFFFFF;" version="1.1" viewBox="0 0 863 794" width="863px" zoomAndPan="magnify"><defs/><g><rect fill="#F1F1F1" height="81.9531" rx="5" ry="5" style="stroke:#F1F1F1;stroke-width:1.5;" width="281" x="10" y="264.5"/><text fill="#000000" font-family="sans-serif" font-size="14" font-weight="bold" lengthAdjust="spacing" textLength="42" x="15" y="280.0352">field1</text><text fill="#000000" font-family="sans-serif" font-size="14" lengthAdjust="spacing" textLength="137" x="149" y="280.0352">geo.coordinates.lon</text><line style="stroke:#000000;stroke-width:1.0;" x1="144" x2="144" y1="264.5" y2="284.9883"/><line style="stroke:#000000;stroke-width:1.0;" x1="10" x2="291" y1="284.9883" y2="284.9883"/><text fill="#000000" font-family="sans-serif" font-size="14" font-weight="bold" lengthAdjust="spacing" textLength="90" x="15" y="300.5234">combination</text><text fill="#000000" font-family="sans-serif" font-size="14" lengthAdjust="spacing" textLength="137" x="149" y="300.5234">geo.coordinates.lon</text><line style="stroke:#000000;stroke-width:1.0;" x1="144" x2="144" y1="284.9883" y2="305.4766"/><line style="stroke:#000000;stroke-width:1.0;" x1="10" x2="291" y1="305.4766" y2="305.4766"/><text fill="#000000" font-family="sans-serif" font-size="14" font-weight="bold" lengthAdjust="spacing" textLength="121" x="15" y="321.0117">null_distribution</text><text fill="#000000" font-family="sans-serif" font-size="14" lengthAdjust="spacing" textLength="12" x="149" y="321.0117">   </text><line style="stroke:#000000;stroke-width:1.0;" x1="144" x2="144" y1="305.4766" y2="325.9648"/><line style="stroke:#000000;stroke-width:1.0;" x1="10" x2="291" y1="325.9648" y2="325.9648"/><text fill="#000000" font-family="sans-serif" font-size="14" font-weight="bold" lengthAdjust="spacing" textLength="124" x="15" y="341.5">data_distribution</text><text fill="#000000" font-family="sans-serif" font-size="14" lengthAdjust="spacing" textLength="12" x="149" y="341.5">   </text><line style="stroke:#000000;stroke-width:1.0;" x1="144" x2="144" y1="325.9648" y2="346.4531"/><rect fill="none" height="81.9531" rx="5" ry="5" style="stroke:#000000;stroke-width:1.5;" width="281" x="10" y="264.5"/><rect fill="#F1F1F1" height="40.9766" rx="5" ry="5" style="stroke:#F1F1F1;stroke-width:1.5;" width="207" x="328" y="235"/><text fill="#000000" font-family="sans-serif" font-size="14" font-weight="bold" lengthAdjust="spacing" textLength="111" x="333" y="250.5352">total_null_rows</text><text fill="#000000" font-family="sans-serif" font-size="14" lengthAdjust="spacing" textLength="9" x="485" y="250.5352">1</text><line style="stroke:#000000;stroke-width:1.0;" x1="480" x2="480" y1="235" y2="255.4883"/><line style="stroke:#000000;stroke-width:1.0;" x1="328" x2="535" y1="255.4883" y2="255.4883"/><text fill="#000000" font-family="sans-serif" font-size="14" font-weight="bold" lengthAdjust="spacing" textLength="142" x="333" y="271.0234">total_not_null_rows</text><text fill="#000000" font-family="sans-serif" font-size="14" lengthAdjust="spacing" textLength="45" x="485" y="271.0234">14004</text><line style="stroke:#000000;stroke-width:1.0;" x1="480" x2="480" y1="255.4883" y2="275.9766"/><rect fill="none" height="40.9766" rx="5" ry="5" style="stroke:#000000;stroke-width:1.5;" width="207" x="328" y="235"/><rect fill="#F1F1F1" height="204.8828" rx="5" ry="5" style="stroke:#F1F1F1;stroke-width:1.5;" width="22" x="419.5" y="294"/><text fill="#000000" font-family="sans-serif" font-size="14" lengthAdjust="spacing" textLength="12" x="424.5" y="309.5352">   </text><line style="stroke:#000000;stroke-width:1.0;" x1="419.5" x2="441.5" y1="314.4883" y2="314.4883"/><text fill="#000000" font-family="sans-serif" font-size="14" lengthAdjust="spacing" textLength="12" x="424.5" y="330.0234">   </text><line style="stroke:#000000;stroke-width:1.0;" x1="419.5" x2="441.5" y1="334.9766" y2="334.9766"/><text fill="#000000" font-family="sans-serif" font-size="14" lengthAdjust="spacing" textLength="12" x="424.5" y="350.5117">   </text><line style="stroke:#000000;stroke-width:1.0;" x1="419.5" x2="441.5" y1="355.4648" y2="355.4648"/><text fill="#000000" font-family="sans-serif" font-size="14" lengthAdjust="spacing" textLength="12" x="424.5" y="371">   </text><line style="stroke:#000000;stroke-width:1.0;" x1="419.5" x2="441.5" y1="375.9531" y2="375.9531"/><text fill="#000000" font-family="sans-serif" font-size="14" lengthAdjust="spacing" textLength="12" x="424.5" y="391.4883">   </text><line style="stroke:#000000;stroke-width:1.0;" x1="419.5" x2="441.5" y1="396.4414" y2="396.4414"/><text fill="#000000" font-family="sans-serif" font-size="14" lengthAdjust="spacing" textLength="12" x="424.5" y="411.9766">   </text><line style="stroke:#000000;stroke-width:1.0;" x1="419.5" x2="441.5" y1="416.9297" y2="416.9297"/><text fill="#000000" font-family="sans-serif" font-size="14" lengthAdjust="spacing" textLength="12" x="424.5" y="432.4648">   </text><line style="stroke:#000000;stroke-width:1.0;" x1="419.5" x2="441.5" y1="437.418" y2="437.418"/><text fill="#000000" font-family="sans-serif" font-size="14" lengthAdjust="spacing" textLength="12" x="424.5" y="452.9531">   </text><line style="stroke:#000000;stroke-width:1.0;" x1="419.5" x2="441.5" y1="457.9063" y2="457.9063"/><text fill="#000000" font-family="sans-serif" font-size="14" lengthAdjust="spacing" textLength="12" x="424.5" y="473.4414">   </text><line style="stroke:#000000;stroke-width:1.0;" x1="419.5" x2="441.5" y1="478.3945" y2="478.3945"/><text fill="#000000" font-family="sans-serif" font-size="14" lengthAdjust="spacing" textLength="12" x="424.5" y="493.9297">   </text><rect fill="none" height="204.8828" rx="5" ry="5" style="stroke:#000000;stroke-width:1.5;" width="22" x="419.5" y="294"/><rect fill="#F1F1F1" height="61.4648" rx="5" ry="5" style="stroke:#F1F1F1;stroke-width:1.5;" width="279" x="572" y="10"/><text fill="#000000" font-family="sans-serif" font-size="14" font-weight="bold" lengthAdjust="spacing" textLength="94" x="577" y="25.5352">field_value_1</text><text fill="#000000" font-family="sans-serif" font-size="14" lengthAdjust="spacing" textLength="165" x="681" y="25.5352">-112.64476013183594</text><line style="stroke:#000000;stroke-width:1.0;" x1="676" x2="676" y1="10" y2="30.4883"/><line style="stroke:#000000;stroke-width:1.0;" x1="572" x2="851" y1="30.4883" y2="30.4883"/><text fill="#000000" font-family="sans-serif" font-size="14" font-weight="bold" lengthAdjust="spacing" textLength="74" x="577" y="46.0234">row_count</text><text fill="#000000" font-family="sans-serif" font-size="14" lengthAdjust="spacing" textLength="18" x="681" y="46.0234">13</text><line style="stroke:#000000;stroke-width:1.0;" x1="676" x2="676" y1="30.4883" y2="50.9766"/><line style="stroke:#000000;stroke-width:1.0;" x1="572" x2="851" y1="50.9766" y2="50.9766"/><text fill="#000000" font-family="sans-serif" font-size="14" font-weight="bold" lengthAdjust="spacing" textLength="94" x="577" y="66.5117">ratio_percent</text><text fill="#000000" font-family="sans-serif" font-size="14" lengthAdjust="spacing" textLength="31" x="681" y="66.5117">0.09</text><line style="stroke:#000000;stroke-width:1.0;" x1="676" x2="676" y1="50.9766" y2="71.4648"/><rect fill="none" height="61.4648" rx="5" ry="5" style="stroke:#000000;stroke-width:1.5;" width="279" x="572" y="10"/><rect fill="#F1F1F1" height="61.4648" rx="5" ry="5" style="stroke:#F1F1F1;stroke-width:1.5;" width="279" x="572" y="89"/><text fill="#000000" font-family="sans-serif" font-size="14" font-weight="bold" lengthAdjust="spacing" textLength="94" x="577" y="104.5352">field_value_1</text><text fill="#000000" font-family="sans-serif" font-size="14" lengthAdjust="spacing" textLength="165" x="681" y="104.5352">-109.60366821289062</text><line style="stroke:#000000;stroke-width:1.0;" x1="676" x2="676" y1="89" y2="109.4883"/><line style="stroke:#000000;stroke-width:1.0;" x1="572" x2="851" y1="109.4883" y2="109.4883"/><text fill="#000000" font-family="sans-serif" font-size="14" font-weight="bold" lengthAdjust="spacing" textLength="74" x="577" y="125.0234">row_count</text><text fill="#000000" font-family="sans-serif" font-size="14" lengthAdjust="spacing" textLength="18" x="681" y="125.0234">13</text><line style="stroke:#000000;stroke-width:1.0;" x1="676" x2="676" y1="109.4883" y2="129.9766"/><line style="stroke:#000000;stroke-width:1.0;" x1="572" x2="851" y1="129.9766" y2="129.9766"/><text fill="#000000" font-family="sans-serif" font-size="14" font-weight="bold" lengthAdjust="spacing" textLength="94" x="577" y="145.5117">ratio_percent</text><text fill="#000000" font-family="sans-serif" font-size="14" lengthAdjust="spacing" textLength="31" x="681" y="145.5117">0.09</text><line style="stroke:#000000;stroke-width:1.0;" x1="676" x2="676" y1="129.9766" y2="150.4648"/><rect fill="none" height="61.4648" rx="5" ry="5" style="stroke:#000000;stroke-width:1.5;" width="279" x="572" y="89"/><rect fill="#F1F1F1" height="61.4648" rx="5" ry="5" style="stroke:#F1F1F1;stroke-width:1.5;" width="279" x="572" y="168"/><text fill="#000000" font-family="sans-serif" font-size="14" font-weight="bold" lengthAdjust="spacing" textLength="94" x="577" y="183.5352">field_value_1</text><text fill="#000000" font-family="sans-serif" font-size="14" lengthAdjust="spacing" textLength="165" x="681" y="183.5352">-101.74628448486328</text><line style="stroke:#000000;stroke-width:1.0;" x1="676" x2="676" y1="168" y2="188.4883"/><line style="stroke:#000000;stroke-width:1.0;" x1="572" x2="851" y1="188.4883" y2="188.4883"/><text fill="#000000" font-family="sans-serif" font-size="14" font-weight="bold" lengthAdjust="spacing" textLength="74" x="577" y="204.0234">row_count</text><text fill="#000000" font-family="sans-serif" font-size="14" lengthAdjust="spacing" textLength="18" x="681" y="204.0234">12</text><line style="stroke:#000000;stroke-width:1.0;" x1="676" x2="676" y1="188.4883" y2="208.9766"/><line style="stroke:#000000;stroke-width:1.0;" x1="572" x2="851" y1="208.9766" y2="208.9766"/><text fill="#000000" font-family="sans-serif" font-size="14" font-weight="bold" lengthAdjust="spacing" textLength="94" x="577" y="224.5117">ratio_percent</text><text fill="#000000" font-family="sans-serif" font-size="14" lengthAdjust="spacing" textLength="31" x="681" y="224.5117">0.09</text><line style="stroke:#000000;stroke-width:1.0;" x1="676" x2="676" y1="208.9766" y2="229.4648"/><rect fill="none" height="61.4648" rx="5" ry="5" style="stroke:#000000;stroke-width:1.5;" width="279" x="572" y="168"/><rect fill="#F1F1F1" height="61.4648" rx="5" ry="5" style="stroke:#F1F1F1;stroke-width:1.5;" width="270" x="576.5" y="247"/><text fill="#000000" font-family="sans-serif" font-size="14" font-weight="bold" lengthAdjust="spacing" textLength="94" x="581.5" y="262.5352">field_value_1</text><text fill="#000000" font-family="sans-serif" font-size="14" lengthAdjust="spacing" textLength="156" x="685.5" y="262.5352">-93.11381530761719</text><line style="stroke:#000000;stroke-width:1.0;" x1="680.5" x2="680.5" y1="247" y2="267.4883"/><line style="stroke:#000000;stroke-width:1.0;" x1="576.5" x2="846.5" y1="267.4883" y2="267.4883"/><text fill="#000000" font-family="sans-serif" font-size="14" font-weight="bold" lengthAdjust="spacing" textLength="74" x="581.5" y="283.0234">row_count</text><text fill="#000000" font-family="sans-serif" font-size="14" lengthAdjust="spacing" textLength="18" x="685.5" y="283.0234">12</text><line style="stroke:#000000;stroke-width:1.0;" x1="680.5" x2="680.5" y1="267.4883" y2="287.9766"/><line style="stroke:#000000;stroke-width:1.0;" x1="576.5" x2="846.5" y1="287.9766" y2="287.9766"/><text fill="#000000" font-family="sans-serif" font-size="14" font-weight="bold" lengthAdjust="spacing" textLength="94" x="581.5" y="303.5117">ratio_percent</text><text fill="#000000" font-family="sans-serif" font-size="14" lengthAdjust="spacing" textLength="31" x="685.5" y="303.5117">0.09</text><line style="stroke:#000000;stroke-width:1.0;" x1="680.5" x2="680.5" y1="287.9766" y2="308.4648"/><rect fill="none" height="61.4648" rx="5" ry="5" style="stroke:#000000;stroke-width:1.5;" width="270" x="576.5" y="247"/><rect fill="#F1F1F1" height="61.4648" rx="5" ry="5" style="stroke:#F1F1F1;stroke-width:1.5;" width="270" x="576.5" y="326"/><text fill="#000000" font-family="sans-serif" font-size="14" font-weight="bold" lengthAdjust="spacing" textLength="94" x="581.5" y="341.5352">field_value_1</text><text fill="#000000" font-family="sans-serif" font-size="14" lengthAdjust="spacing" textLength="156" x="685.5" y="341.5352">-87.75242614746094</text><line style="stroke:#000000;stroke-width:1.0;" x1="680.5" x2="680.5" y1="326" y2="346.4883"/><line style="stroke:#000000;stroke-width:1.0;" x1="576.5" x2="846.5" y1="346.4883" y2="346.4883"/><text fill="#000000" font-family="sans-serif" font-size="14" font-weight="bold" lengthAdjust="spacing" textLength="74" x="581.5" y="362.0234">row_count</text><text fill="#000000" font-family="sans-serif" font-size="14" lengthAdjust="spacing" textLength="18" x="685.5" y="362.0234">12</text><line style="stroke:#000000;stroke-width:1.0;" x1="680.5" x2="680.5" y1="346.4883" y2="366.9766"/><line style="stroke:#000000;stroke-width:1.0;" x1="576.5" x2="846.5" y1="366.9766" y2="366.9766"/><text fill="#000000" font-family="sans-serif" font-size="14" font-weight="bold" lengthAdjust="spacing" textLength="94" x="581.5" y="382.5117">ratio_percent</text><text fill="#000000" font-family="sans-serif" font-size="14" lengthAdjust="spacing" textLength="31" x="685.5" y="382.5117">0.09</text><line style="stroke:#000000;stroke-width:1.0;" x1="680.5" x2="680.5" y1="366.9766" y2="387.4648"/><rect fill="none" height="61.4648" rx="5" ry="5" style="stroke:#000000;stroke-width:1.5;" width="270" x="576.5" y="326"/><rect fill="#F1F1F1" height="61.4648" rx="5" ry="5" style="stroke:#F1F1F1;stroke-width:1.5;" width="225" x="599" y="405"/><text fill="#000000" font-family="sans-serif" font-size="14" font-weight="bold" lengthAdjust="spacing" textLength="94" x="604" y="420.5352">field_value_1</text><text fill="#000000" font-family="sans-serif" font-size="14" lengthAdjust="spacing" textLength="111" x="708" y="420.5352">-112.03515625</text><line style="stroke:#000000;stroke-width:1.0;" x1="703" x2="703" y1="405" y2="425.4883"/><line style="stroke:#000000;stroke-width:1.0;" x1="599" x2="824" y1="425.4883" y2="425.4883"/><text fill="#000000" font-family="sans-serif" font-size="14" font-weight="bold" lengthAdjust="spacing" textLength="74" x="604" y="441.0234">row_count</text><text fill="#000000" font-family="sans-serif" font-size="14" lengthAdjust="spacing" textLength="18" x="708" y="441.0234">11</text><line style="stroke:#000000;stroke-width:1.0;" x1="703" x2="703" y1="425.4883" y2="445.9766"/><line style="stroke:#000000;stroke-width:1.0;" x1="599" x2="824" y1="445.9766" y2="445.9766"/><text fill="#000000" font-family="sans-serif" font-size="14" font-weight="bold" lengthAdjust="spacing" textLength="94" x="604" y="461.5117">ratio_percent</text><text fill="#000000" font-family="sans-serif" font-size="14" lengthAdjust="spacing" textLength="31" x="708" y="461.5117">0.08</text><line style="stroke:#000000;stroke-width:1.0;" x1="703" x2="703" y1="445.9766" y2="466.4648"/><rect fill="none" height="61.4648" rx="5" ry="5" style="stroke:#000000;stroke-width:1.5;" width="225" x="599" y="405"/><rect fill="#F1F1F1" height="61.4648" rx="5" ry="5" style="stroke:#F1F1F1;stroke-width:1.5;" width="279" x="572" y="484"/><text fill="#000000" font-family="sans-serif" font-size="14" font-weight="bold" lengthAdjust="spacing" textLength="94" x="577" y="499.5352">field_value_1</text><text fill="#000000" font-family="sans-serif" font-size="14" lengthAdjust="spacing" textLength="165" x="681" y="499.5352">-111.56913757324219</text><line style="stroke:#000000;stroke-width:1.0;" x1="676" x2="676" y1="484" y2="504.4883"/><line style="stroke:#000000;stroke-width:1.0;" x1="572" x2="851" y1="504.4883" y2="504.4883"/><text fill="#000000" font-family="sans-serif" font-size="14" font-weight="bold" lengthAdjust="spacing" textLength="74" x="577" y="520.0234">row_count</text><text fill="#000000" font-family="sans-serif" font-size="14" lengthAdjust="spacing" textLength="18" x="681" y="520.0234">11</text><line style="stroke:#000000;stroke-width:1.0;" x1="676" x2="676" y1="504.4883" y2="524.9766"/><line style="stroke:#000000;stroke-width:1.0;" x1="572" x2="851" y1="524.9766" y2="524.9766"/><text fill="#000000" font-family="sans-serif" font-size="14" font-weight="bold" lengthAdjust="spacing" textLength="94" x="577" y="540.5117">ratio_percent</text><text fill="#000000" font-family="sans-serif" font-size="14" lengthAdjust="spacing" textLength="31" x="681" y="540.5117">0.08</text><line style="stroke:#000000;stroke-width:1.0;" x1="676" x2="676" y1="524.9766" y2="545.4648"/><rect fill="none" height="61.4648" rx="5" ry="5" style="stroke:#000000;stroke-width:1.5;" width="279" x="572" y="484"/><rect fill="#F1F1F1" height="61.4648" rx="5" ry="5" style="stroke:#F1F1F1;stroke-width:1.5;" width="279" x="572" y="563"/><text fill="#000000" font-family="sans-serif" font-size="14" font-weight="bold" lengthAdjust="spacing" textLength="94" x="577" y="578.5352">field_value_1</text><text fill="#000000" font-family="sans-serif" font-size="14" lengthAdjust="spacing" textLength="165" x="681" y="578.5352">-106.46446990966797</text><line style="stroke:#000000;stroke-width:1.0;" x1="676" x2="676" y1="563" y2="583.4883"/><line style="stroke:#000000;stroke-width:1.0;" x1="572" x2="851" y1="583.4883" y2="583.4883"/><text fill="#000000" font-family="sans-serif" font-size="14" font-weight="bold" lengthAdjust="spacing" textLength="74" x="577" y="599.0234">row_count</text><text fill="#000000" font-family="sans-serif" font-size="14" lengthAdjust="spacing" textLength="18" x="681" y="599.0234">11</text><line style="stroke:#000000;stroke-width:1.0;" x1="676" x2="676" y1="583.4883" y2="603.9766"/><line style="stroke:#000000;stroke-width:1.0;" x1="572" x2="851" y1="603.9766" y2="603.9766"/><text fill="#000000" font-family="sans-serif" font-size="14" font-weight="bold" lengthAdjust="spacing" textLength="94" x="577" y="619.5117">ratio_percent</text><text fill="#000000" font-family="sans-serif" font-size="14" lengthAdjust="spacing" textLength="31" x="681" y="619.5117">0.08</text><line style="stroke:#000000;stroke-width:1.0;" x1="676" x2="676" y1="603.9766" y2="624.4648"/><rect fill="none" height="61.4648" rx="5" ry="5" style="stroke:#000000;stroke-width:1.5;" width="279" x="572" y="563"/><rect fill="#F1F1F1" height="61.4648" rx="5" ry="5" style="stroke:#F1F1F1;stroke-width:1.5;" width="279" x="572" y="642"/><text fill="#000000" font-family="sans-serif" font-size="14" font-weight="bold" lengthAdjust="spacing" textLength="94" x="577" y="657.5352">field_value_1</text><text fill="#000000" font-family="sans-serif" font-size="14" lengthAdjust="spacing" textLength="165" x="681" y="657.5352">-102.46710205078125</text><line style="stroke:#000000;stroke-width:1.0;" x1="676" x2="676" y1="642" y2="662.4883"/><line style="stroke:#000000;stroke-width:1.0;" x1="572" x2="851" y1="662.4883" y2="662.4883"/><text fill="#000000" font-family="sans-serif" font-size="14" font-weight="bold" lengthAdjust="spacing" textLength="74" x="577" y="678.0234">row_count</text><text fill="#000000" font-family="sans-serif" font-size="14" lengthAdjust="spacing" textLength="18" x="681" y="678.0234">11</text><line style="stroke:#000000;stroke-width:1.0;" x1="676" x2="676" y1="662.4883" y2="682.9766"/><line style="stroke:#000000;stroke-width:1.0;" x1="572" x2="851" y1="682.9766" y2="682.9766"/><text fill="#000000" font-family="sans-serif" font-size="14" font-weight="bold" lengthAdjust="spacing" textLength="94" x="577" y="698.5117">ratio_percent</text><text fill="#000000" font-family="sans-serif" font-size="14" lengthAdjust="spacing" textLength="31" x="681" y="698.5117">0.08</text><line style="stroke:#000000;stroke-width:1.0;" x1="676" x2="676" y1="682.9766" y2="703.4648"/><rect fill="none" height="61.4648" rx="5" ry="5" style="stroke:#000000;stroke-width:1.5;" width="279" x="572" y="642"/><rect fill="#F1F1F1" height="61.4648" rx="5" ry="5" style="stroke:#F1F1F1;stroke-width:1.5;" width="279" x="572" y="721"/><text fill="#000000" font-family="sans-serif" font-size="14" font-weight="bold" lengthAdjust="spacing" textLength="94" x="577" y="736.5352">field_value_1</text><text fill="#000000" font-family="sans-serif" font-size="14" lengthAdjust="spacing" textLength="165" x="681" y="736.5352">-100.02427673339844</text><line style="stroke:#000000;stroke-width:1.0;" x1="676" x2="676" y1="721" y2="741.4883"/><line style="stroke:#000000;stroke-width:1.0;" x1="572" x2="851" y1="741.4883" y2="741.4883"/><text fill="#000000" font-family="sans-serif" font-size="14" font-weight="bold" lengthAdjust="spacing" textLength="74" x="577" y="757.0234">row_count</text><text fill="#000000" font-family="sans-serif" font-size="14" lengthAdjust="spacing" textLength="18" x="681" y="757.0234">11</text><line style="stroke:#000000;stroke-width:1.0;" x1="676" x2="676" y1="741.4883" y2="761.9766"/><line style="stroke:#000000;stroke-width:1.0;" x1="572" x2="851" y1="761.9766" y2="761.9766"/><text fill="#000000" font-family="sans-serif" font-size="14" font-weight="bold" lengthAdjust="spacing" textLength="94" x="577" y="777.5117">ratio_percent</text><text fill="#000000" font-family="sans-serif" font-size="14" lengthAdjust="spacing" textLength="31" x="681" y="777.5117">0.08</text><line style="stroke:#000000;stroke-width:1.0;" x1="676" x2="676" y1="761.9766" y2="782.4648"/><rect fill="none" height="61.4648" rx="5" ry="5" style="stroke:#000000;stroke-width:1.5;" width="279" x="572" y="721"/><path d="M279,315.5 L292,315.5 C312.8273,315.5 309.6143,295.285 328,285.5 C332.4187,283.1484 337.0447,280.9598 341.7859,278.9261 " fill="none" style="stroke:#000000;stroke-width:1.0;stroke-dasharray:3.0,3.0;"/><path d="M342.9339,281.7334 L343.8914,278.0652 L340.638,276.1189 L348.804,276.0563 L342.9339,281.7334 " fill="#000000" style="stroke:#000000;stroke-width:1.0;"/><ellipse cx="279" cy="315.5" fill="#000000" rx="3" ry="3" style="stroke:#000000;stroke-width:1.0;"/><path d="M432,303.5 L445,303.5 C486.2281,303.5 507.1738,314.9755 536,285.5 C600.9848,219.0516 509.6644,148.4398 572,79.5 C572.9245,78.4775 573.8735,77.4809 574.8455,76.5097 " fill="none" style="stroke:#000000;stroke-width:1.0;stroke-dasharray:3.0,3.0;"/><path d="M576.9617,78.8326 L576.5876,74.9225 L572.7292,74.1868 L580.6527,71.219 L576.9617,78.8326 " fill="#000000" style="stroke:#000000;stroke-width:1.0;"/><ellipse cx="432" cy="303.5" fill="#000000" rx="3" ry="3" style="stroke:#000000;stroke-width:1.0;"/><path d="M432,324.5 L445,324.5 C489.0022,324.5 506.9505,318.5503 536,285.5 C574.7318,241.4339 530.4597,199.9292 572,158.5 C573.2256,157.2777 574.4863,156.0929 575.7792,154.9445 " fill="none" style="stroke:#000000;stroke-width:1.0;stroke-dasharray:3.0,3.0;"/><path d="M577.7012,157.2913 L577.5392,153.503 L573.8571,152.5978 L581.646,150.1394 L577.7012,157.2913 " fill="#000000" style="stroke:#000000;stroke-width:1.0;"/><ellipse cx="432" cy="324.5" fill="#000000" rx="3" ry="3" style="stroke:#000000;stroke-width:1.0;"/><path d="M432,344.5 L445,344.5 C493.2012,344.5 500.773,318.4001 536,285.5 C555.4889,267.2985 549.9974,252.5663 572,237.5 C574.3621,235.8826 576.79,234.3318 579.2734,232.8451 " fill="none" style="stroke:#000000;stroke-width:1.0;stroke-dasharray:3.0,3.0;"/><path d="M580.7886,235.5233 L581.282,231.7087 L577.7581,230.1669 L585.9689,229.057 L580.7886,235.5233 " fill="#000000" style="stroke:#000000;stroke-width:1.0;"/><ellipse cx="432" cy="344.5" fill="#000000" rx="3" ry="3" style="stroke:#000000;stroke-width:1.0;"/><path d="M432,365.5 L445,365.5 C505.3414,365.5 514.7366,336.5259 572,317.5 C579.1491,315.1247 586.5315,312.7568 593.9944,310.4271 " fill="none" style="stroke:#000000;stroke-width:1.0;stroke-dasharray:3.0,3.0;"/><path d="M594.9207,313.4207 L596.2396,309.7324 L593.0681,307.4335 L601.4784,308.1114 L594.9207,313.4207 " fill="#000000" style="stroke:#000000;stroke-width:1.0;"/><ellipse cx="432" cy="365.5" fill="#000000" rx="3" ry="3" style="stroke:#000000;stroke-width:1.0;"/><path d="M432,385.5 L445,385.5 C485.2845,385.5 528.7997,382.1723 568.7342,377.7714 " fill="none" style="stroke:#000000;stroke-width:1.0;stroke-dasharray:3.0,3.0;"/><path d="M569.0917,380.9462 L571.1153,377.5032 L568.3767,374.5965 L576.6714,376.8776 L569.0917,380.9462 " fill="#000000" style="stroke:#000000;stroke-width:1.0;"/><ellipse cx="432" cy="385.5" fill="#000000" rx="3" ry="3" style="stroke:#000000;stroke-width:1.0;"/><path d="M432,406.5 L445,406.5 C493.1849,406.5 545.9919,411.2609 591.7649,416.9247 " fill="none" style="stroke:#000000;stroke-width:1.0;stroke-dasharray:3.0,3.0;"/><path d="M591.3835,419.9556 L594.0381,417.2108 L592.1464,413.8938 L599.3421,417.8783 L591.3835,419.9556 " fill="#000000" style="stroke:#000000;stroke-width:1.0;"/><ellipse cx="432" cy="406.5" fill="#000000" rx="3" ry="3" style="stroke:#000000;stroke-width:1.0;"/><path d="M432,427.5 L445,427.5 C505.3414,427.5 514.6736,456.6648 572,475.5 C578.3826,477.5971 584.9525,479.6826 591.6005,481.7359 " fill="none" style="stroke:#000000;stroke-width:1.0;stroke-dasharray:3.0,3.0;"/><path d="M590.7147,484.6316 L593.7723,482.4003 L592.4863,478.8402 L598.8398,483.9504 L590.7147,484.6316 " fill="#000000" style="stroke:#000000;stroke-width:1.0;"/><ellipse cx="432" cy="427.5" fill="#000000" rx="3" ry="3" style="stroke:#000000;stroke-width:1.0;"/><path d="M432,447.5 L445,447.5 C518.8072,447.5 506.768,519.9704 572,554.5 C575.4422,556.3221 578.9786,558.0666 582.5852,559.7364 " fill="none" style="stroke:#000000;stroke-width:1.0;stroke-dasharray:3.0,3.0;"/><path d="M581.3374,562.5427 L584.6899,560.6722 L583.833,556.9301 L589.601,562.8559 L581.3374,562.5427 " fill="#000000" style="stroke:#000000;stroke-width:1.0;"/><ellipse cx="432" cy="447.5" fill="#000000" rx="3" ry="3" style="stroke:#000000;stroke-width:1.0;"/><path d="M432,468.5 L445,468.5 C537.5405,468.5 495.3199,581.6934 572,633.5 C574.3721,635.1026 576.8093,636.6399 579.3009,638.1145 " fill="none" style="stroke:#000000;stroke-width:1.0;stroke-dasharray:3.0,3.0;"/><path d="M577.7975,640.8007 L581.3156,639.242 L580.8043,635.4282 L586.0165,641.8729 L577.7975,640.8007 " fill="#000000" style="stroke:#000000;stroke-width:1.0;"/><ellipse cx="432" cy="468.5" fill="#000000" rx="3" ry="3" style="stroke:#000000;stroke-width:1.0;"/><path d="M432,488.5 L445,488.5 C559.4434,488.5 481.8919,641.9463 572,712.5 C573.8038,713.9124 575.6561,715.2736 577.5509,716.5856 " fill="none" style="stroke:#000000;stroke-width:1.0;stroke-dasharray:3.0,3.0;"/><path d="M575.8416,719.225 L579.5305,717.8676 L579.2603,713.9462 L584.1494,720.859 L575.8416,719.225 " fill="#000000" style="stroke:#000000;stroke-width:1.0;"/><ellipse cx="432" cy="488.5" fill="#000000" rx="3" ry="3" style="stroke:#000000;stroke-width:1.0;"/><path d="M279,336.5 L292,336.5 C339.0497,336.5 388.2629,365.8357 413.6101,383.482 " fill="none" style="stroke:#000000;stroke-width:1.0;stroke-dasharray:3.0,3.0;"/><path d="M411.8416,385.964 L415.4716,384.8085 L415.3787,381.0001 L419.815,387.9035 L411.8416,385.964 " fill="#000000" style="stroke:#000000;stroke-width:1.0;"/><ellipse cx="279" cy="336.5" fill="#000000" rx="3" ry="3" style="stroke:#000000;stroke-width:1.0;"/><!--MD5=[5dd30b59d1890669892fe32f9c7ec950]
@startjson
{
    "field1": "geo.coordinates.lon",
    "combination": "geo.coordinates.lon",
    "null_distribution": {
        "total_null_rows": 1,
        "total_not_null_rows": 14004
    },
    "data_distribution": [
        {
            "field_value_1": "-112.64476013183594",
            "row_count": 13,
            "ratio_percent": 0.09
        },
        {
            "field_value_1": "-109.60366821289062",
            "row_count": 13,
            "ratio_percent": 0.09
        },
        {
            "field_value_1": "-101.74628448486328",
            "row_count": 12,
            "ratio_percent": 0.09
        },
        {
            "field_value_1": "-93.11381530761719",
            "row_count": 12,
            "ratio_percent": 0.09
        },
        {
            "field_value_1": "-87.75242614746094",
            "row_count": 12,
            "ratio_percent": 0.09
        },
        {
            "field_value_1": "-112.03515625",
            "row_count": 11,
            "ratio_percent": 0.08
        },
        {
            "field_value_1": "-111.56913757324219",
            "row_count": 11,
            "ratio_percent": 0.08
        },
        {
            "field_value_1": "-106.46446990966797",
            "row_count": 11,
            "ratio_percent": 0.08
        },
        {
            "field_value_1": "-102.46710205078125",
            "row_count": 11,
            "ratio_percent": 0.08
        },
        {
            "field_value_1": "-100.02427673339844",
            "row_count": 11,
            "ratio_percent": 0.08
        }
    ]
}
@endjson

PlantUML version 1.2022.12(Sun Oct 23 14:12:26 EDT 2022)
(GPL source distribution)
Java Runtime: OpenJDK Runtime Environment
JVM: OpenJDK 64-Bit Server VM
Default Encoding: UTF-8
Language: en
Country: CA
--></g></svg>