<?xml version="1.0" encoding="UTF-8" standalone="no"?><svg xmlns="http://www.w3.org/2000/svg" xmlns:xlink="http://www.w3.org/1999/xlink" contentStyleType="text/css" height="794px" preserveAspectRatio="none" style="width:805px;height:794px;background:#FFFFFF;" version="1.1" viewBox="0 0 805 794" width="805px" zoomAndPan="magnify"><defs/><g><rect fill="#F1F1F1" height="81.9531" rx="5" ry="5" style="stroke:#F1F1F1;stroke-width:1.5;" width="357" x="10" y="264.5"/><text fill="#000000" font-family="sans-serif" font-size="14" font-weight="bold" lengthAdjust="spacing" textLength="42" x="15" y="280.0352">field1</text><text fill="#000000" font-family="sans-serif" font-size="14" lengthAdjust="spacing" textLength="213" x="149" y="280.0352">relatedContent.og:image:width</text><line style="stroke:#000000;stroke-width:1.0;" x1="144" x2="144" y1="264.5" y2="284.9883"/><line style="stroke:#000000;stroke-width:1.0;" x1="10" x2="367" y1="284.9883" y2="284.9883"/><text fill="#000000" font-family="sans-serif" font-size="14" font-weight="bold" lengthAdjust="spacing" textLength="90" x="15" y="300.5234">combination</text><text fill="#000000" font-family="sans-serif" font-size="14" lengthAdjust="spacing" textLength="213" x="149" y="300.5234">relatedContent.og:image:width</text><line style="stroke:#000000;stroke-width:1.0;" x1="144" x2="144" y1="284.9883" y2="305.4766"/><line style="stroke:#000000;stroke-width:1.0;" x1="10" x2="367" y1="305.4766" y2="305.4766"/><text fill="#000000" font-family="sans-serif" font-size="14" font-weight="bold" lengthAdjust="spacing" textLength="121" x="15" y="321.0117">null_distribution</text><text fill="#000000" font-family="sans-serif" font-size="14" lengthAdjust="spacing" textLength="12" x="149" y="321.0117">   </text><line style="stroke:#000000;stroke-width:1.0;" x1="144" x2="144" y1="305.4766" y2="325.9648"/><line style="stroke:#000000;stroke-width:1.0;" x1="10" x2="367" y1="325.9648" y2="325.9648"/><text fill="#000000" font-family="sans-serif" font-size="14" font-weight="bold" lengthAdjust="spacing" textLength="124" x="15" y="341.5">data_distribution</text><text fill="#000000" font-family="sans-serif" font-size="14" lengthAdjust="spacing" textLength="12" x="149" y="341.5">   </text><line style="stroke:#000000;stroke-width:1.0;" x1="144" x2="144" y1="325.9648" y2="346.4531"/><rect fill="none" height="81.9531" rx="5" ry="5" style="stroke:#000000;stroke-width:1.5;" width="357" x="10" y="264.5"/><rect fill="#F1F1F1" height="40.9766" rx="5" ry="5" style="stroke:#F1F1F1;stroke-width:1.5;" width="198" x="404" y="235"/><text fill="#000000" font-family="sans-serif" font-size="14" font-weight="bold" lengthAdjust="spacing" textLength="111" x="409" y="250.5352">total_null_rows</text><text fill="#000000" font-family="sans-serif" font-size="14" lengthAdjust="spacing" textLength="36" x="561" y="250.5352">4327</text><line style="stroke:#000000;stroke-width:1.0;" x1="556" x2="556" y1="235" y2="255.4883"/><line style="stroke:#000000;stroke-width:1.0;" x1="404" x2="602" y1="255.4883" y2="255.4883"/><text fill="#000000" font-family="sans-serif" font-size="14" font-weight="bold" lengthAdjust="spacing" textLength="142" x="409" y="271.0234">total_not_null_rows</text><text fill="#000000" font-family="sans-serif" font-size="14" lengthAdjust="spacing" textLength="36" x="561" y="271.0234">9678</text><line style="stroke:#000000;stroke-width:1.0;" x1="556" x2="556" y1="255.4883" y2="275.9766"/><rect fill="none" height="40.9766" rx="5" ry="5" style="stroke:#000000;stroke-width:1.5;" width="198" x="404" y="235"/><rect fill="#F1F1F1" height="204.8828" rx="5" ry="5" style="stroke:#F1F1F1;stroke-width:1.5;" width="22" x="491" y="294"/><text fill="#000000" font-family="sans-serif" font-size="14" lengthAdjust="spacing" textLength="12" x="496" y="309.5352">   </text><line style="stroke:#000000;stroke-width:1.0;" x1="491" x2="513" y1="314.4883" y2="314.4883"/><text fill="#000000" font-family="sans-serif" font-size="14" lengthAdjust="spacing" textLength="12" x="496" y="330.0234">   </text><line style="stroke:#000000;stroke-width:1.0;" x1="491" x2="513" y1="334.9766" y2="334.9766"/><text fill="#000000" font-family="sans-serif" font-size="14" lengthAdjust="spacing" textLength="12" x="496" y="350.5117">   </text><line style="stroke:#000000;stroke-width:1.0;" x1="491" x2="513" y1="355.4648" y2="355.4648"/><text fill="#000000" font-family="sans-serif" font-size="14" lengthAdjust="spacing" textLength="12" x="496" y="371">   </text><line style="stroke:#000000;stroke-width:1.0;" x1="491" x2="513" y1="375.9531" y2="375.9531"/><text fill="#000000" font-family="sans-serif" font-size="14" lengthAdjust="spacing" textLength="12" x="496" y="391.4883">   </text><line style="stroke:#000000;stroke-width:1.0;" x1="491" x2="513" y1="396.4414" y2="396.4414"/><text fill="#000000" font-family="sans-serif" font-size="14" lengthAdjust="spacing" textLength="12" x="496" y="411.9766">   </text><line style="stroke:#000000;stroke-width:1.0;" x1="491" x2="513" y1="416.9297" y2="416.9297"/><text fill="#000000" font-family="sans-serif" font-size="14" lengthAdjust="spacing" textLength="12" x="496" y="432.4648">   </text><line style="stroke:#000000;stroke-width:1.0;" x1="491" x2="513" y1="437.418" y2="437.418"/><text fill="#000000" font-family="sans-serif" font-size="14" lengthAdjust="spacing" textLength="12" x="496" y="452.9531">   </text><line style="stroke:#000000;stroke-width:1.0;" x1="491" x2="513" y1="457.9063" y2="457.9063"/><text fill="#000000" font-family="sans-serif" font-size="14" lengthAdjust="spacing" textLength="12" x="496" y="473.4414">   </text><line style="stroke:#000000;stroke-width:1.0;" x1="491" x2="513" y1="478.3945" y2="478.3945"/><text fill="#000000" font-family="sans-serif" font-size="14" lengthAdjust="spacing" textLength="12" x="496" y="493.9297">   </text><rect fill="none" height="204.8828" rx="5" ry="5" style="stroke:#000000;stroke-width:1.5;" width="22" x="491" y="294"/><rect fill="#F1F1F1" height="61.4648" rx="5" ry="5" style="stroke:#F1F1F1;stroke-width:1.5;" width="154" x="639" y="10"/><text fill="#000000" font-family="sans-serif" font-size="14" font-weight="bold" lengthAdjust="spacing" textLength="94" x="644" y="25.5352">field_value_1</text><text fill="#000000" font-family="sans-serif" font-size="14" lengthAdjust="spacing" textLength="27" x="748" y="25.5352">480</text><line style="stroke:#000000;stroke-width:1.0;" x1="743" x2="743" y1="10" y2="30.4883"/><line style="stroke:#000000;stroke-width:1.0;" x1="639" x2="793" y1="30.4883" y2="30.4883"/><text fill="#000000" font-family="sans-serif" font-size="14" font-weight="bold" lengthAdjust="spacing" textLength="74" x="644" y="46.0234">row_count</text><text fill="#000000" font-family="sans-serif" font-size="14" lengthAdjust="spacing" textLength="36" x="748" y="46.0234">5505</text><line style="stroke:#000000;stroke-width:1.0;" x1="743" x2="743" y1="30.4883" y2="50.9766"/><line style="stroke:#000000;stroke-width:1.0;" x1="639" x2="793" y1="50.9766" y2="50.9766"/><text fill="#000000" font-family="sans-serif" font-size="14" font-weight="bold" lengthAdjust="spacing" textLength="94" x="644" y="66.5117">ratio_percent</text><text fill="#000000" font-family="sans-serif" font-size="14" lengthAdjust="spacing" textLength="40" x="748" y="66.5117">39.31</text><line style="stroke:#000000;stroke-width:1.0;" x1="743" x2="743" y1="50.9766" y2="71.4648"/><rect fill="none" height="61.4648" rx="5" ry="5" style="stroke:#000000;stroke-width:1.5;" width="154" x="639" y="10"/><rect fill="#F1F1F1" height="61.4648" rx="5" ry="5" style="stroke:#F1F1F1;stroke-width:1.5;" width="150" x="641" y="89"/><text fill="#000000" font-family="sans-serif" font-size="14" font-weight="bold" lengthAdjust="spacing" textLength="94" x="646" y="104.5352">field_value_1</text><text fill="#000000" font-family="sans-serif" font-size="14" lengthAdjust="spacing" textLength="36" x="750" y="104.5352">None</text><line style="stroke:#000000;stroke-width:1.0;" x1="745" x2="745" y1="89" y2="109.4883"/><line style="stroke:#000000;stroke-width:1.0;" x1="641" x2="791" y1="109.4883" y2="109.4883"/><text fill="#000000" font-family="sans-serif" font-size="14" font-weight="bold" lengthAdjust="spacing" textLength="74" x="646" y="125.0234">row_count</text><text fill="#000000" font-family="sans-serif" font-size="14" lengthAdjust="spacing" textLength="36" x="750" y="125.0234">4327</text><line style="stroke:#000000;stroke-width:1.0;" x1="745" x2="745" y1="109.4883" y2="129.9766"/><line style="stroke:#000000;stroke-width:1.0;" x1="641" x2="791" y1="129.9766" y2="129.9766"/><text fill="#000000" font-family="sans-serif" font-size="14" font-weight="bold" lengthAdjust="spacing" textLength="94" x="646" y="145.5117">ratio_percent</text><text fill="#000000" font-family="sans-serif" font-size="14" lengthAdjust="spacing" textLength="31" x="750" y="145.5117">30.9</text><line style="stroke:#000000;stroke-width:1.0;" x1="745" x2="745" y1="129.9766" y2="150.4648"/><rect fill="none" height="61.4648" rx="5" ry="5" style="stroke:#000000;stroke-width:1.5;" width="150" x="641" y="89"/><rect fill="#F1F1F1" height="61.4648" rx="5" ry="5" style="stroke:#F1F1F1;stroke-width:1.5;" width="154" x="639" y="168"/><text fill="#000000" font-family="sans-serif" font-size="14" font-weight="bold" lengthAdjust="spacing" textLength="94" x="644" y="183.5352">field_value_1</text><text fill="#000000" font-family="sans-serif" font-size="14" lengthAdjust="spacing" textLength="27" x="748" y="183.5352">500</text><line style="stroke:#000000;stroke-width:1.0;" x1="743" x2="743" y1="168" y2="188.4883"/><line style="stroke:#000000;stroke-width:1.0;" x1="639" x2="793" y1="188.4883" y2="188.4883"/><text fill="#000000" font-family="sans-serif" font-size="14" font-weight="bold" lengthAdjust="spacing" textLength="74" x="644" y="204.0234">row_count</text><text fill="#000000" font-family="sans-serif" font-size="14" lengthAdjust="spacing" textLength="36" x="748" y="204.0234">2760</text><line style="stroke:#000000;stroke-width:1.0;" x1="743" x2="743" y1="188.4883" y2="208.9766"/><line style="stroke:#000000;stroke-width:1.0;" x1="639" x2="793" y1="208.9766" y2="208.9766"/><text fill="#000000" font-family="sans-serif" font-size="14" font-weight="bold" lengthAdjust="spacing" textLength="94" x="644" y="224.5117">ratio_percent</text><text fill="#000000" font-family="sans-serif" font-size="14" lengthAdjust="spacing" textLength="40" x="748" y="224.5117">19.71</text><line style="stroke:#000000;stroke-width:1.0;" x1="743" x2="743" y1="208.9766" y2="229.4648"/><rect fill="none" height="61.4648" rx="5" ry="5" style="stroke:#000000;stroke-width:1.5;" width="154" x="639" y="168"/><rect fill="#F1F1F1" height="61.4648" rx="5" ry="5" style="stroke:#F1F1F1;stroke-width:1.5;" width="145" x="643.5" y="247"/><text fill="#000000" font-family="sans-serif" font-size="14" font-weight="bold" lengthAdjust="spacing" textLength="94" x="648.5" y="262.5352">field_value_1</text><text fill="#000000" font-family="sans-serif" font-size="14" lengthAdjust="spacing" textLength="27" x="752.5" y="262.5352">200</text><line style="stroke:#000000;stroke-width:1.0;" x1="747.5" x2="747.5" y1="247" y2="267.4883"/><line style="stroke:#000000;stroke-width:1.0;" x1="643.5" x2="788.5" y1="267.4883" y2="267.4883"/><text fill="#000000" font-family="sans-serif" font-size="14" font-weight="bold" lengthAdjust="spacing" textLength="74" x="648.5" y="283.0234">row_count</text><text fill="#000000" font-family="sans-serif" font-size="14" lengthAdjust="spacing" textLength="27" x="752.5" y="283.0234">738</text><line style="stroke:#000000;stroke-width:1.0;" x1="747.5" x2="747.5" y1="267.4883" y2="287.9766"/><line style="stroke:#000000;stroke-width:1.0;" x1="643.5" x2="788.5" y1="287.9766" y2="287.9766"/><text fill="#000000" font-family="sans-serif" font-size="14" font-weight="bold" lengthAdjust="spacing" textLength="94" x="648.5" y="303.5117">ratio_percent</text><text fill="#000000" font-family="sans-serif" font-size="14" lengthAdjust="spacing" textLength="31" x="752.5" y="303.5117">5.27</text><line style="stroke:#000000;stroke-width:1.0;" x1="747.5" x2="747.5" y1="287.9766" y2="308.4648"/><rect fill="none" height="61.4648" rx="5" ry="5" style="stroke:#000000;stroke-width:1.5;" width="145" x="643.5" y="247"/><rect fill="#F1F1F1" height="61.4648" rx="5" ry="5" style="stroke:#F1F1F1;stroke-width:1.5;" width="145" x="643.5" y="326"/><text fill="#000000" font-family="sans-serif" font-size="14" font-weight="bold" lengthAdjust="spacing" textLength="94" x="648.5" y="341.5352">field_value_1</text><text fill="#000000" font-family="sans-serif" font-size="14" lengthAdjust="spacing" textLength="27" x="752.5" y="341.5352">300</text><line style="stroke:#000000;stroke-width:1.0;" x1="747.5" x2="747.5" y1="326" y2="346.4883"/><line style="stroke:#000000;stroke-width:1.0;" x1="643.5" x2="788.5" y1="346.4883" y2="346.4883"/><text fill="#000000" font-family="sans-serif" font-size="14" font-weight="bold" lengthAdjust="spacing" textLength="74" x="648.5" y="362.0234">row_count</text><text fill="#000000" font-family="sans-serif" font-size="14" lengthAdjust="spacing" textLength="27" x="752.5" y="362.0234">498</text><line style="stroke:#000000;stroke-width:1.0;" x1="747.5" x2="747.5" y1="346.4883" y2="366.9766"/><line style="stroke:#000000;stroke-width:1.0;" x1="643.5" x2="788.5" y1="366.9766" y2="366.9766"/><text fill="#000000" font-family="sans-serif" font-size="14" font-weight="bold" lengthAdjust="spacing" textLength="94" x="648.5" y="382.5117">ratio_percent</text><text fill="#000000" font-family="sans-serif" font-size="14" lengthAdjust="spacing" textLength="31" x="752.5" y="382.5117">3.56</text><line style="stroke:#000000;stroke-width:1.0;" x1="747.5" x2="747.5" y1="366.9766" y2="387.4648"/><rect fill="none" height="61.4648" rx="5" ry="5" style="stroke:#000000;stroke-width:1.5;" width="145" x="643.5" y="326"/><rect fill="#F1F1F1" height="61.4648" rx="5" ry="5" style="stroke:#F1F1F1;stroke-width:1.5;" width="145" x="643.5" y="405"/><text fill="#000000" font-family="sans-serif" font-size="14" font-weight="bold" lengthAdjust="spacing" textLength="94" x="648.5" y="420.5352">field_value_1</text><text fill="#000000" font-family="sans-serif" font-size="14" lengthAdjust="spacing" textLength="27" x="752.5" y="420.5352">360</text><line style="stroke:#000000;stroke-width:1.0;" x1="747.5" x2="747.5" y1="405" y2="425.4883"/><line style="stroke:#000000;stroke-width:1.0;" x1="643.5" x2="788.5" y1="425.4883" y2="425.4883"/><text fill="#000000" font-family="sans-serif" font-size="14" font-weight="bold" lengthAdjust="spacing" textLength="74" x="648.5" y="441.0234">row_count</text><text fill="#000000" font-family="sans-serif" font-size="14" lengthAdjust="spacing" textLength="27" x="752.5" y="441.0234">326</text><line style="stroke:#000000;stroke-width:1.0;" x1="747.5" x2="747.5" y1="425.4883" y2="445.9766"/><line style="stroke:#000000;stroke-width:1.0;" x1="643.5" x2="788.5" y1="445.9766" y2="445.9766"/><text fill="#000000" font-family="sans-serif" font-size="14" font-weight="bold" lengthAdjust="spacing" textLength="94" x="648.5" y="461.5117">ratio_percent</text><text fill="#000000" font-family="sans-serif" font-size="14" lengthAdjust="spacing" textLength="31" x="752.5" y="461.5117">2.33</text><line style="stroke:#000000;stroke-width:1.0;" x1="747.5" x2="747.5" y1="445.9766" y2="466.4648"/><rect fill="none" height="61.4648" rx="5" ry="5" style="stroke:#000000;stroke-width:1.5;" width="145" x="643.5" y="405"/><rect fill="#F1F1F1" height="61.4648" rx="5" ry="5" style="stroke:#F1F1F1;stroke-width:1.5;" width="145" x="643.5" y="484"/><text fill="#000000" font-family="sans-serif" font-size="14" font-weight="bold" lengthAdjust="spacing" textLength="94" x="648.5" y="499.5352">field_value_1</text><text fill="#000000" font-family="sans-serif" font-size="14" lengthAdjust="spacing" textLength="27" x="752.5" y="499.5352">400</text><line style="stroke:#000000;stroke-width:1.0;" x1="747.5" x2="747.5" y1="484" y2="504.4883"/><line style="stroke:#000000;stroke-width:1.0;" x1="643.5" x2="788.5" y1="504.4883" y2="504.4883"/><text fill="#000000" font-family="sans-serif" font-size="14" font-weight="bold" lengthAdjust="spacing" textLength="74" x="648.5" y="520.0234">row_count</text><text fill="#000000" font-family="sans-serif" font-size="14" lengthAdjust="spacing" textLength="27" x="752.5" y="520.0234">276</text><line style="stroke:#000000;stroke-width:1.0;" x1="747.5" x2="747.5" y1="504.4883" y2="524.9766"/><line style="stroke:#000000;stroke-width:1.0;" x1="643.5" x2="788.5" y1="524.9766" y2="524.9766"/><text fill="#000000" font-family="sans-serif" font-size="14" font-weight="bold" lengthAdjust="spacing" textLength="94" x="648.5" y="540.5117">ratio_percent</text><text fill="#000000" font-family="sans-serif" font-size="14" lengthAdjust="spacing" textLength="31" x="752.5" y="540.5117">1.97</text><line style="stroke:#000000;stroke-width:1.0;" x1="747.5" x2="747.5" y1="524.9766" y2="545.4648"/><rect fill="none" height="61.4648" rx="5" ry="5" style="stroke:#000000;stroke-width:1.5;" width="145" x="643.5" y="484"/><rect fill="#F1F1F1" height="61.4648" rx="5" ry="5" style="stroke:#F1F1F1;stroke-width:1.5;" width="145" x="643.5" y="563"/><text fill="#000000" font-family="sans-serif" font-size="14" font-weight="bold" lengthAdjust="spacing" textLength="94" x="648.5" y="578.5352">field_value_1</text><text fill="#000000" font-family="sans-serif" font-size="14" lengthAdjust="spacing" textLength="27" x="752.5" y="578.5352">250</text><line style="stroke:#000000;stroke-width:1.0;" x1="747.5" x2="747.5" y1="563" y2="583.4883"/><line style="stroke:#000000;stroke-width:1.0;" x1="643.5" x2="788.5" y1="583.4883" y2="583.4883"/><text fill="#000000" font-family="sans-serif" font-size="14" font-weight="bold" lengthAdjust="spacing" textLength="74" x="648.5" y="599.0234">row_count</text><text fill="#000000" font-family="sans-serif" font-size="14" lengthAdjust="spacing" textLength="27" x="752.5" y="599.0234">255</text><line style="stroke:#000000;stroke-width:1.0;" x1="747.5" x2="747.5" y1="583.4883" y2="603.9766"/><line style="stroke:#000000;stroke-width:1.0;" x1="643.5" x2="788.5" y1="603.9766" y2="603.9766"/><text fill="#000000" font-family="sans-serif" font-size="14" font-weight="bold" lengthAdjust="spacing" textLength="94" x="648.5" y="619.5117">ratio_percent</text><text fill="#000000" font-family="sans-serif" font-size="14" lengthAdjust="spacing" textLength="31" x="752.5" y="619.5117">1.82</text><line style="stroke:#000000;stroke-width:1.0;" x1="747.5" x2="747.5" y1="603.9766" y2="624.4648"/><rect fill="none" height="61.4648" rx="5" ry="5" style="stroke:#000000;stroke-width:1.5;" width="145" x="643.5" y="563"/><rect fill="#F1F1F1" height="61.4648" rx="5" ry="5" style="stroke:#F1F1F1;stroke-width:1.5;" width="141" x="645.5" y="642"/><text fill="#000000" font-family="sans-serif" font-size="14" font-weight="bold" lengthAdjust="spacing" textLength="94" x="650.5" y="657.5352">field_value_1</text><text fill="#000000" font-family="sans-serif" font-size="14" lengthAdjust="spacing" textLength="27" x="754.5" y="657.5352">288</text><line style="stroke:#000000;stroke-width:1.0;" x1="749.5" x2="749.5" y1="642" y2="662.4883"/><line style="stroke:#000000;stroke-width:1.0;" x1="645.5" x2="786.5" y1="662.4883" y2="662.4883"/><text fill="#000000" font-family="sans-serif" font-size="14" font-weight="bold" lengthAdjust="spacing" textLength="74" x="650.5" y="678.0234">row_count</text><text fill="#000000" font-family="sans-serif" font-size="14" lengthAdjust="spacing" textLength="27" x="754.5" y="678.0234">210</text><line style="stroke:#000000;stroke-width:1.0;" x1="749.5" x2="749.5" y1="662.4883" y2="682.9766"/><line style="stroke:#000000;stroke-width:1.0;" x1="645.5" x2="786.5" y1="682.9766" y2="682.9766"/><text fill="#000000" font-family="sans-serif" font-size="14" font-weight="bold" lengthAdjust="spacing" textLength="94" x="650.5" y="698.5117">ratio_percent</text><text fill="#000000" font-family="sans-serif" font-size="14" lengthAdjust="spacing" textLength="22" x="754.5" y="698.5117">1.5</text><line style="stroke:#000000;stroke-width:1.0;" x1="749.5" x2="749.5" y1="682.9766" y2="703.4648"/><rect fill="none" height="61.4648" rx="5" ry="5" style="stroke:#000000;stroke-width:1.5;" width="141" x="645.5" y="642"/><rect fill="#F1F1F1" height="61.4648" rx="5" ry="5" style="stroke:#F1F1F1;stroke-width:1.5;" width="145" x="643.5" y="721"/><text fill="#000000" font-family="sans-serif" font-size="14" font-weight="bold" lengthAdjust="spacing" textLength="94" x="648.5" y="736.5352">field_value_1</text><text fill="#000000" font-family="sans-serif" font-size="14" lengthAdjust="spacing" textLength="27" x="752.5" y="736.5352">450</text><line style="stroke:#000000;stroke-width:1.0;" x1="747.5" x2="747.5" y1="721" y2="741.4883"/><line style="stroke:#000000;stroke-width:1.0;" x1="643.5" x2="788.5" y1="741.4883" y2="741.4883"/><text fill="#000000" font-family="sans-serif" font-size="14" font-weight="bold" lengthAdjust="spacing" textLength="74" x="648.5" y="757.0234">row_count</text><text fill="#000000" font-family="sans-serif" font-size="14" lengthAdjust="spacing" textLength="27" x="752.5" y="757.0234">204</text><line style="stroke:#000000;stroke-width:1.0;" x1="747.5" x2="747.5" y1="741.4883" y2="761.9766"/><line style="stroke:#000000;stroke-width:1.0;" x1="643.5" x2="788.5" y1="761.9766" y2="761.9766"/><text fill="#000000" font-family="sans-serif" font-size="14" font-weight="bold" lengthAdjust="spacing" textLength="94" x="648.5" y="777.5117">ratio_percent</text><text fill="#000000" font-family="sans-serif" font-size="14" lengthAdjust="spacing" textLength="31" x="752.5" y="777.5117">1.46</text><line style="stroke:#000000;stroke-width:1.0;" x1="747.5" x2="747.5" y1="761.9766" y2="782.4648"/><rect fill="none" height="61.4648" rx="5" ry="5" style="stroke:#000000;stroke-width:1.5;" width="145" x="643.5" y="721"/><path d="M355,315.5 L368,315.5 C388.8273,315.5 385.6745,295.3971 404,285.5 C408.2321,283.2144 412.6626,281.0778 417.2032,279.0842 " fill="none" style="stroke:#000000;stroke-width:1.0;stroke-dasharray:3.0,3.0;"/><path d="M418.4096,281.9694 L419.3671,278.1794 L415.9968,276.199 L424.4162,276.0682 L418.4096,281.9694 " fill="#000000" style="stroke:#000000;stroke-width:1.0;"/><ellipse cx="355" cy="315.5" fill="#000000" rx="3" ry="3" style="stroke:#000000;stroke-width:1.0;"/><path d="M503.5,305.5 L503.5,292.5 C503.5,281.4171 594.771,292.9239 603,285.5 C672.0097,223.2418 583.7805,154.2611 639,79.5 C639.6919,78.5632 640.4129,77.6472 641.1605,76.7517 " fill="none" style="stroke:#000000;stroke-width:1.0;stroke-dasharray:3.0,3.0;"/><path d="M643.4075,78.8695 L642.7488,75.0664 L638.9134,74.634 L646.4548,71.1341 L643.4075,78.8695 " fill="#000000" style="stroke:#000000;stroke-width:1.0;"/><ellipse cx="503.5" cy="305.5" fill="#000000" rx="3" ry="3" style="stroke:#000000;stroke-width:1.0;"/><path d="M503.5,324.5 L516.5,324.5 C558.6713,324.5 575.4563,317.4338 603,285.5 C641.3185,241.074 601.7561,203.8306 639,158.5 C639.8458,157.4705 640.7258,156.4654 641.6366,155.4842 " fill="none" style="stroke:#000000;stroke-width:1.0;stroke-dasharray:3.0,3.0;"/><path d="M643.7812,157.6957 L643.2952,153.8758 L639.492,153.2727 L647.1654,150.1227 L643.7812,157.6957 " fill="#000000" style="stroke:#000000;stroke-width:1.0;"/><ellipse cx="503.5" cy="324.5" fill="#000000" rx="3" ry="3" style="stroke:#000000;stroke-width:1.0;"/><path d="M503.5,344.5 L516.5,344.5 C563.0358,344.5 569.3638,317.6588 603,285.5 C622.2747,267.0719 618.5935,254.6664 639,237.5 C640.6577,236.1055 642.3737,234.7436 644.1361,233.4152 " fill="none" style="stroke:#000000;stroke-width:1.0;stroke-dasharray:3.0,3.0;"/><path d="M645.8907,235.8764 L645.982,232.0992 L642.3814,230.954 L650.2891,229.0286 L645.8907,235.8764 " fill="#000000" style="stroke:#000000;stroke-width:1.0;"/><ellipse cx="503.5" cy="344.5" fill="#000000" rx="3" ry="3" style="stroke:#000000;stroke-width:1.0;"/><path d="M503.5,365.5 L516.5,365.5 C530.464,365.5 594.6841,336.143 646.4478,311.3412 " fill="none" style="stroke:#000000;stroke-width:1.0;stroke-dasharray:3.0,3.0;"/><path d="M647.7718,314.0977 L648.5152,310.3482 L645.1238,308.5847 L653.339,308.0312 L647.7718,314.0977 " fill="#000000" style="stroke:#000000;stroke-width:1.0;"/><ellipse cx="503.5" cy="365.5" fill="#000000" rx="3" ry="3" style="stroke:#000000;stroke-width:1.0;"/><path d="M503.5,385.5 L516.5,385.5 C556.103,385.5 599.6803,379.8064 635.9346,373.4648 " fill="none" style="stroke:#000000;stroke-width:1.0;stroke-dasharray:3.0,3.0;"/><path d="M636.4791,376.5132 L638.2209,373.0564 L635.3901,370.4164 L643.5556,372.1035 L636.4791,376.5132 " fill="#000000" style="stroke:#000000;stroke-width:1.0;"/><ellipse cx="503.5" cy="385.5" fill="#000000" rx="3" ry="3" style="stroke:#000000;stroke-width:1.0;"/><path d="M503.5,406.5 L516.5,406.5 C556.103,406.5 599.6803,412.1936 635.9346,418.5352 " fill="none" style="stroke:#000000;stroke-width:1.0;stroke-dasharray:3.0,3.0;"/><path d="M635.3901,421.5836 L638.2209,418.9436 L636.4791,415.4868 L643.5556,419.8965 L635.3901,421.5836 " fill="#000000" style="stroke:#000000;stroke-width:1.0;"/><ellipse cx="503.5" cy="406.5" fill="#000000" rx="3" ry="3" style="stroke:#000000;stroke-width:1.0;"/><path d="M503.5,427.5 L516.5,427.5 C530.3705,427.5 594.04,456.2423 645.6791,480.686 " fill="none" style="stroke:#000000;stroke-width:1.0;stroke-dasharray:3.0,3.0;"/><path d="M644.3738,483.4368 L647.7423,481.665 L646.9845,477.9351 L652.5563,483.9494 L644.3738,483.4368 " fill="#000000" style="stroke:#000000;stroke-width:1.0;"/><ellipse cx="503.5" cy="427.5" fill="#000000" rx="3" ry="3" style="stroke:#000000;stroke-width:1.0;"/><path d="M503.5,447.5 L516.5,447.5 C588.7892,447.5 579.1221,513.9986 639,554.5 C641.0992,555.9199 643.2569,557.3232 645.4562,558.7058 " fill="none" style="stroke:#000000;stroke-width:1.0;stroke-dasharray:3.0,3.0;"/><path d="M643.8234,561.3879 L647.4677,559.9304 L647.0889,556.0237 L652.1614,562.7877 L643.8234,561.3879 " fill="#000000" style="stroke:#000000;stroke-width:1.0;"/><ellipse cx="503.5" cy="447.5" fill="#000000" rx="3" ry="3" style="stroke:#000000;stroke-width:1.0;"/><path d="M503.5,468.5 L516.5,468.5 C607.8344,468.5 569.2502,574.5344 639,633.5 C640.6543,634.8985 642.3673,636.264 644.127,637.5955 " fill="none" style="stroke:#000000;stroke-width:1.0;stroke-dasharray:3.0,3.0;"/><path d="M642.3687,640.0537 L645.9706,638.9143 L645.8853,635.1374 L650.2723,641.9913 L642.3687,640.0537 " fill="#000000" style="stroke:#000000;stroke-width:1.0;"/><ellipse cx="503.5" cy="468.5" fill="#000000" rx="3" ry="3" style="stroke:#000000;stroke-width:1.0;"/><path d="M503.5,487.5 L503.5,500.5 C503.5,612.3237 556.1788,637.3655 639,712.5 C640.3008,713.6801 641.6439,714.8341 643.0226,715.962 " fill="none" style="stroke:#000000;stroke-width:1.0;stroke-dasharray:3.0,3.0;"/><path d="M641.1115,718.4632 L644.8984,717.3954 L644.9337,713.4609 L649.2754,720.7398 L641.1115,718.4632 " fill="#000000" style="stroke:#000000;stroke-width:1.0;"/><ellipse cx="503.5" cy="487.5" fill="#000000" rx="3" ry="3" style="stroke:#000000;stroke-width:1.0;"/><path d="M355,336.5 L368,336.5 C413.3406,336.5 460.4028,365.289 485.0463,382.9834 " fill="none" style="stroke:#000000;stroke-width:1.0;stroke-dasharray:3.0,3.0;"/><path d="M483.181,385.5179 L486.9472,384.3824 L486.9117,380.4489 L491.3825,387.6468 L483.181,385.5179 " fill="#000000" style="stroke:#000000;stroke-width:1.0;"/><ellipse cx="355" cy="336.5" fill="#000000" rx="3" ry="3" style="stroke:#000000;stroke-width:1.0;"/><!--MD5=[81f18cb7b3d4b3a3291406d0f3825015]
@startjson
{
    "field1": "relatedContent.og:image:width",
    "combination": "relatedContent.og:image:width",
    "null_distribution": {
        "total_null_rows": 4327,
        "total_not_null_rows": 9678
    },
    "data_distribution": [
        {
            "field_value_1": "480",
            "row_count": 5505,
            "ratio_percent": 39.31
        },
        {
            "field_value_1": "None",
            "row_count": 4327,
            "ratio_percent": 30.9
        },
        {
            "field_value_1": "500",
            "row_count": 2760,
            "ratio_percent": 19.71
        },
        {
            "field_value_1": "200",
            "row_count": 738,
            "ratio_percent": 5.27
        },
        {
            "field_value_1": "300",
            "row_count": 498,
            "ratio_percent": 3.56
        },
        {
            "field_value_1": "360",
            "row_count": 326,
            "ratio_percent": 2.33
        },
        {
            "field_value_1": "400",
            "row_count": 276,
            "ratio_percent": 1.97
        },
        {
            "field_value_1": "250",
            "row_count": 255,
            "ratio_percent": 1.82
        },
        {
            "field_value_1": "288",
            "row_count": 210,
            "ratio_percent": 1.5
        },
        {
            "field_value_1": "450",
            "row_count": 204,
            "ratio_percent": 1.46
        }
    ]
}
@endjson

PlantUML version 1.2022.12(Sun Oct 23 14:12:26 EDT 2022)
(GPL source distribution)
Java Runtime: OpenJDK Runtime Environment
JVM: OpenJDK 64-Bit Server VM
Default Encoding: UTF-8
Language: en
Country: CA
--></g></svg>