<?xml version="1.0" encoding="UTF-8" standalone="no"?><svg xmlns="http://www.w3.org/2000/svg" xmlns:xlink="http://www.w3.org/1999/xlink" contentStyleType="text/css" height="794px" preserveAspectRatio="none" style="width:850px;height:794px;background:#FFFFFF;" version="1.1" viewBox="0 0 850 794" width="850px" zoomAndPan="magnify"><defs/><g><rect fill="#F1F1F1" height="81.9531" rx="5" ry="5" style="stroke:#F1F1F1;stroke-width:1.5;" width="276" x="10" y="264.5"/><text fill="#000000" font-family="sans-serif" font-size="14" font-weight="bold" lengthAdjust="spacing" textLength="42" x="15" y="280.0352">field1</text><text fill="#000000" font-family="sans-serif" font-size="14" lengthAdjust="spacing" textLength="132" x="149" y="280.0352">geo.coordinates.lat</text><line style="stroke:#000000;stroke-width:1.0;" x1="144" x2="144" y1="264.5" y2="284.9883"/><line style="stroke:#000000;stroke-width:1.0;" x1="10" x2="286" y1="284.9883" y2="284.9883"/><text fill="#000000" font-family="sans-serif" font-size="14" font-weight="bold" lengthAdjust="spacing" textLength="90" x="15" y="300.5234">combination</text><text fill="#000000" font-family="sans-serif" font-size="14" lengthAdjust="spacing" textLength="132" x="149" y="300.5234">geo.coordinates.lat</text><line style="stroke:#000000;stroke-width:1.0;" x1="144" x2="144" y1="284.9883" y2="305.4766"/><line style="stroke:#000000;stroke-width:1.0;" x1="10" x2="286" y1="305.4766" y2="305.4766"/><text fill="#000000" font-family="sans-serif" font-size="14" font-weight="bold" lengthAdjust="spacing" textLength="121" x="15" y="321.0117">null_distribution</text><text fill="#000000" font-family="sans-serif" font-size="14" lengthAdjust="spacing" textLength="12" x="149" y="321.0117">   </text><line style="stroke:#000000;stroke-width:1.0;" x1="144" x2="144" y1="305.4766" y2="325.9648"/><line style="stroke:#000000;stroke-width:1.0;" x1="10" x2="286" y1="325.9648" y2="325.9648"/><text fill="#000000" font-family="sans-serif" font-size="14" font-weight="bold" lengthAdjust="spacing" textLength="124" x="15" y="341.5">data_distribution</text><text fill="#000000" font-family="sans-serif" font-size="14" lengthAdjust="spacing" textLength="12" x="149" y="341.5">   </text><line style="stroke:#000000;stroke-width:1.0;" x1="144" x2="144" y1="325.9648" y2="346.4531"/><rect fill="none" height="81.9531" rx="5" ry="5" style="stroke:#000000;stroke-width:1.5;" width="276" x="10" y="264.5"/><rect fill="#F1F1F1" height="40.9766" rx="5" ry="5" style="stroke:#F1F1F1;stroke-width:1.5;" width="207" x="323" y="235"/><text fill="#000000" font-family="sans-serif" font-size="14" font-weight="bold" lengthAdjust="spacing" textLength="111" x="328" y="250.5352">total_null_rows</text><text fill="#000000" font-family="sans-serif" font-size="14" lengthAdjust="spacing" textLength="9" x="480" y="250.5352">1</text><line style="stroke:#000000;stroke-width:1.0;" x1="475" x2="475" y1="235" y2="255.4883"/><line style="stroke:#000000;stroke-width:1.0;" x1="323" x2="530" y1="255.4883" y2="255.4883"/><text fill="#000000" font-family="sans-serif" font-size="14" font-weight="bold" lengthAdjust="spacing" textLength="142" x="328" y="271.0234">total_not_null_rows</text><text fill="#000000" font-family="sans-serif" font-size="14" lengthAdjust="spacing" textLength="45" x="480" y="271.0234">14004</text><line style="stroke:#000000;stroke-width:1.0;" x1="475" x2="475" y1="255.4883" y2="275.9766"/><rect fill="none" height="40.9766" rx="5" ry="5" style="stroke:#000000;stroke-width:1.5;" width="207" x="323" y="235"/><rect fill="#F1F1F1" height="204.8828" rx="5" ry="5" style="stroke:#F1F1F1;stroke-width:1.5;" width="22" x="414.5" y="294"/><text fill="#000000" font-family="sans-serif" font-size="14" lengthAdjust="spacing" textLength="12" x="419.5" y="309.5352">   </text><line style="stroke:#000000;stroke-width:1.0;" x1="414.5" x2="436.5" y1="314.4883" y2="314.4883"/><text fill="#000000" font-family="sans-serif" font-size="14" lengthAdjust="spacing" textLength="12" x="419.5" y="330.0234">   </text><line style="stroke:#000000;stroke-width:1.0;" x1="414.5" x2="436.5" y1="334.9766" y2="334.9766"/><text fill="#000000" font-family="sans-serif" font-size="14" lengthAdjust="spacing" textLength="12" x="419.5" y="350.5117">   </text><line style="stroke:#000000;stroke-width:1.0;" x1="414.5" x2="436.5" y1="355.4648" y2="355.4648"/><text fill="#000000" font-family="sans-serif" font-size="14" lengthAdjust="spacing" textLength="12" x="419.5" y="371">   </text><line style="stroke:#000000;stroke-width:1.0;" x1="414.5" x2="436.5" y1="375.9531" y2="375.9531"/><text fill="#000000" font-family="sans-serif" font-size="14" lengthAdjust="spacing" textLength="12" x="419.5" y="391.4883">   </text><line style="stroke:#000000;stroke-width:1.0;" x1="414.5" x2="436.5" y1="396.4414" y2="396.4414"/><text fill="#000000" font-family="sans-serif" font-size="14" lengthAdjust="spacing" textLength="12" x="419.5" y="411.9766">   </text><line style="stroke:#000000;stroke-width:1.0;" x1="414.5" x2="436.5" y1="416.9297" y2="416.9297"/><text fill="#000000" font-family="sans-serif" font-size="14" lengthAdjust="spacing" textLength="12" x="419.5" y="432.4648">   </text><line style="stroke:#000000;stroke-width:1.0;" x1="414.5" x2="436.5" y1="437.418" y2="437.418"/><text fill="#000000" font-family="sans-serif" font-size="14" lengthAdjust="spacing" textLength="12" x="419.5" y="452.9531">   </text><line style="stroke:#000000;stroke-width:1.0;" x1="414.5" x2="436.5" y1="457.9063" y2="457.9063"/><text fill="#000000" font-family="sans-serif" font-size="14" lengthAdjust="spacing" textLength="12" x="419.5" y="473.4414">   </text><line style="stroke:#000000;stroke-width:1.0;" x1="414.5" x2="436.5" y1="478.3945" y2="478.3945"/><text fill="#000000" font-family="sans-serif" font-size="14" lengthAdjust="spacing" textLength="12" x="419.5" y="493.9297">   </text><rect fill="none" height="204.8828" rx="5" ry="5" style="stroke:#000000;stroke-width:1.5;" width="22" x="414.5" y="294"/><rect fill="#F1F1F1" height="61.4648" rx="5" ry="5" style="stroke:#F1F1F1;stroke-width:1.5;" width="262" x="571.5" y="10"/><text fill="#000000" font-family="sans-serif" font-size="14" font-weight="bold" lengthAdjust="spacing" textLength="94" x="576.5" y="25.5352">field_value_1</text><text fill="#000000" font-family="sans-serif" font-size="14" lengthAdjust="spacing" textLength="148" x="680.5" y="25.5352">31.46902847290039</text><line style="stroke:#000000;stroke-width:1.0;" x1="675.5" x2="675.5" y1="10" y2="30.4883"/><line style="stroke:#000000;stroke-width:1.0;" x1="571.5" x2="833.5" y1="30.4883" y2="30.4883"/><text fill="#000000" font-family="sans-serif" font-size="14" font-weight="bold" lengthAdjust="spacing" textLength="74" x="576.5" y="46.0234">row_count</text><text fill="#000000" font-family="sans-serif" font-size="14" lengthAdjust="spacing" textLength="18" x="680.5" y="46.0234">13</text><line style="stroke:#000000;stroke-width:1.0;" x1="675.5" x2="675.5" y1="30.4883" y2="50.9766"/><line style="stroke:#000000;stroke-width:1.0;" x1="571.5" x2="833.5" y1="50.9766" y2="50.9766"/><text fill="#000000" font-family="sans-serif" font-size="14" font-weight="bold" lengthAdjust="spacing" textLength="94" x="576.5" y="66.5117">ratio_percent</text><text fill="#000000" font-family="sans-serif" font-size="14" lengthAdjust="spacing" textLength="31" x="680.5" y="66.5117">0.09</text><line style="stroke:#000000;stroke-width:1.0;" x1="675.5" x2="675.5" y1="50.9766" y2="71.4648"/><rect fill="none" height="61.4648" rx="5" ry="5" style="stroke:#000000;stroke-width:1.5;" width="262" x="571.5" y="10"/><rect fill="#F1F1F1" height="61.4648" rx="5" ry="5" style="stroke:#F1F1F1;stroke-width:1.5;" width="262" x="571.5" y="89"/><text fill="#000000" font-family="sans-serif" font-size="14" font-weight="bold" lengthAdjust="spacing" textLength="94" x="576.5" y="104.5352">field_value_1</text><text fill="#000000" font-family="sans-serif" font-size="14" lengthAdjust="spacing" textLength="148" x="680.5" y="104.5352">46.97494125366211</text><line style="stroke:#000000;stroke-width:1.0;" x1="675.5" x2="675.5" y1="89" y2="109.4883"/><line style="stroke:#000000;stroke-width:1.0;" x1="571.5" x2="833.5" y1="109.4883" y2="109.4883"/><text fill="#000000" font-family="sans-serif" font-size="14" font-weight="bold" lengthAdjust="spacing" textLength="74" x="576.5" y="125.0234">row_count</text><text fill="#000000" font-family="sans-serif" font-size="14" lengthAdjust="spacing" textLength="18" x="680.5" y="125.0234">13</text><line style="stroke:#000000;stroke-width:1.0;" x1="675.5" x2="675.5" y1="109.4883" y2="129.9766"/><line style="stroke:#000000;stroke-width:1.0;" x1="571.5" x2="833.5" y1="129.9766" y2="129.9766"/><text fill="#000000" font-family="sans-serif" font-size="14" font-weight="bold" lengthAdjust="spacing" textLength="94" x="576.5" y="145.5117">ratio_percent</text><text fill="#000000" font-family="sans-serif" font-size="14" lengthAdjust="spacing" textLength="31" x="680.5" y="145.5117">0.09</text><line style="stroke:#000000;stroke-width:1.0;" x1="675.5" x2="675.5" y1="129.9766" y2="150.4648"/><rect fill="none" height="61.4648" rx="5" ry="5" style="stroke:#000000;stroke-width:1.5;" width="262" x="571.5" y="89"/><rect fill="#F1F1F1" height="61.4648" rx="5" ry="5" style="stroke:#F1F1F1;stroke-width:1.5;" width="271" x="567" y="168"/><text fill="#000000" font-family="sans-serif" font-size="14" font-weight="bold" lengthAdjust="spacing" textLength="94" x="572" y="183.5352">field_value_1</text><text fill="#000000" font-family="sans-serif" font-size="14" lengthAdjust="spacing" textLength="157" x="676" y="183.5352">41.298885345458984</text><line style="stroke:#000000;stroke-width:1.0;" x1="671" x2="671" y1="168" y2="188.4883"/><line style="stroke:#000000;stroke-width:1.0;" x1="567" x2="838" y1="188.4883" y2="188.4883"/><text fill="#000000" font-family="sans-serif" font-size="14" font-weight="bold" lengthAdjust="spacing" textLength="74" x="572" y="204.0234">row_count</text><text fill="#000000" font-family="sans-serif" font-size="14" lengthAdjust="spacing" textLength="18" x="676" y="204.0234">12</text><line style="stroke:#000000;stroke-width:1.0;" x1="671" x2="671" y1="188.4883" y2="208.9766"/><line style="stroke:#000000;stroke-width:1.0;" x1="567" x2="838" y1="208.9766" y2="208.9766"/><text fill="#000000" font-family="sans-serif" font-size="14" font-weight="bold" lengthAdjust="spacing" textLength="94" x="572" y="224.5117">ratio_percent</text><text fill="#000000" font-family="sans-serif" font-size="14" lengthAdjust="spacing" textLength="31" x="676" y="224.5117">0.09</text><line style="stroke:#000000;stroke-width:1.0;" x1="671" x2="671" y1="208.9766" y2="229.4648"/><rect fill="none" height="61.4648" rx="5" ry="5" style="stroke:#000000;stroke-width:1.5;" width="271" x="567" y="168"/><rect fill="#F1F1F1" height="61.4648" rx="5" ry="5" style="stroke:#F1F1F1;stroke-width:1.5;" width="262" x="571.5" y="247"/><text fill="#000000" font-family="sans-serif" font-size="14" font-weight="bold" lengthAdjust="spacing" textLength="94" x="576.5" y="262.5352">field_value_1</text><text fill="#000000" font-family="sans-serif" font-size="14" lengthAdjust="spacing" textLength="148" x="680.5" y="262.5352">41.61033248901367</text><line style="stroke:#000000;stroke-width:1.0;" x1="675.5" x2="675.5" y1="247" y2="267.4883"/><line style="stroke:#000000;stroke-width:1.0;" x1="571.5" x2="833.5" y1="267.4883" y2="267.4883"/><text fill="#000000" font-family="sans-serif" font-size="14" font-weight="bold" lengthAdjust="spacing" textLength="74" x="576.5" y="283.0234">row_count</text><text fill="#000000" font-family="sans-serif" font-size="14" lengthAdjust="spacing" textLength="18" x="680.5" y="283.0234">12</text><line style="stroke:#000000;stroke-width:1.0;" x1="675.5" x2="675.5" y1="267.4883" y2="287.9766"/><line style="stroke:#000000;stroke-width:1.0;" x1="571.5" x2="833.5" y1="287.9766" y2="287.9766"/><text fill="#000000" font-family="sans-serif" font-size="14" font-weight="bold" lengthAdjust="spacing" textLength="94" x="576.5" y="303.5117">ratio_percent</text><text fill="#000000" font-family="sans-serif" font-size="14" lengthAdjust="spacing" textLength="31" x="680.5" y="303.5117">0.09</text><line style="stroke:#000000;stroke-width:1.0;" x1="675.5" x2="675.5" y1="287.9766" y2="308.4648"/><rect fill="none" height="61.4648" rx="5" ry="5" style="stroke:#000000;stroke-width:1.5;" width="262" x="571.5" y="247"/><rect fill="#F1F1F1" height="61.4648" rx="5" ry="5" style="stroke:#F1F1F1;stroke-width:1.5;" width="262" x="571.5" y="326"/><text fill="#000000" font-family="sans-serif" font-size="14" font-weight="bold" lengthAdjust="spacing" textLength="94" x="576.5" y="341.5352">field_value_1</text><text fill="#000000" font-family="sans-serif" font-size="14" lengthAdjust="spacing" textLength="148" x="680.5" y="341.5352">41.78598403930664</text><line style="stroke:#000000;stroke-width:1.0;" x1="675.5" x2="675.5" y1="326" y2="346.4883"/><line style="stroke:#000000;stroke-width:1.0;" x1="571.5" x2="833.5" y1="346.4883" y2="346.4883"/><text fill="#000000" font-family="sans-serif" font-size="14" font-weight="bold" lengthAdjust="spacing" textLength="74" x="576.5" y="362.0234">row_count</text><text fill="#000000" font-family="sans-serif" font-size="14" lengthAdjust="spacing" textLength="18" x="680.5" y="362.0234">12</text><line style="stroke:#000000;stroke-width:1.0;" x1="675.5" x2="675.5" y1="346.4883" y2="366.9766"/><line style="stroke:#000000;stroke-width:1.0;" x1="571.5" x2="833.5" y1="366.9766" y2="366.9766"/><text fill="#000000" font-family="sans-serif" font-size="14" font-weight="bold" lengthAdjust="spacing" textLength="94" x="576.5" y="382.5117">ratio_percent</text><text fill="#000000" font-family="sans-serif" font-size="14" lengthAdjust="spacing" textLength="31" x="680.5" y="382.5117">0.09</text><line style="stroke:#000000;stroke-width:1.0;" x1="675.5" x2="675.5" y1="366.9766" y2="387.4648"/><rect fill="none" height="61.4648" rx="5" ry="5" style="stroke:#000000;stroke-width:1.5;" width="262" x="571.5" y="326"/><rect fill="#F1F1F1" height="61.4648" rx="5" ry="5" style="stroke:#F1F1F1;stroke-width:1.5;" width="262" x="571.5" y="405"/><text fill="#000000" font-family="sans-serif" font-size="14" font-weight="bold" lengthAdjust="spacing" textLength="94" x="576.5" y="420.5352">field_value_1</text><text fill="#000000" font-family="sans-serif" font-size="14" lengthAdjust="spacing" textLength="148" x="680.5" y="420.5352">33.99287796020508</text><line style="stroke:#000000;stroke-width:1.0;" x1="675.5" x2="675.5" y1="405" y2="425.4883"/><line style="stroke:#000000;stroke-width:1.0;" x1="571.5" x2="833.5" y1="425.4883" y2="425.4883"/><text fill="#000000" font-family="sans-serif" font-size="14" font-weight="bold" lengthAdjust="spacing" textLength="74" x="576.5" y="441.0234">row_count</text><text fill="#000000" font-family="sans-serif" font-size="14" lengthAdjust="spacing" textLength="18" x="680.5" y="441.0234">11</text><line style="stroke:#000000;stroke-width:1.0;" x1="675.5" x2="675.5" y1="425.4883" y2="445.9766"/><line style="stroke:#000000;stroke-width:1.0;" x1="571.5" x2="833.5" y1="445.9766" y2="445.9766"/><text fill="#000000" font-family="sans-serif" font-size="14" font-weight="bold" lengthAdjust="spacing" textLength="94" x="576.5" y="461.5117">ratio_percent</text><text fill="#000000" font-family="sans-serif" font-size="14" lengthAdjust="spacing" textLength="31" x="680.5" y="461.5117">0.08</text><line style="stroke:#000000;stroke-width:1.0;" x1="675.5" x2="675.5" y1="445.9766" y2="466.4648"/><rect fill="none" height="61.4648" rx="5" ry="5" style="stroke:#000000;stroke-width:1.5;" width="262" x="571.5" y="405"/><rect fill="#F1F1F1" height="61.4648" rx="5" ry="5" style="stroke:#F1F1F1;stroke-width:1.5;" width="262" x="571.5" y="484"/><text fill="#000000" font-family="sans-serif" font-size="14" font-weight="bold" lengthAdjust="spacing" textLength="94" x="576.5" y="499.5352">field_value_1</text><text fill="#000000" font-family="sans-serif" font-size="14" lengthAdjust="spacing" textLength="148" x="680.5" y="499.5352">34.73002243041992</text><line style="stroke:#000000;stroke-width:1.0;" x1="675.5" x2="675.5" y1="484" y2="504.4883"/><line style="stroke:#000000;stroke-width:1.0;" x1="571.5" x2="833.5" y1="504.4883" y2="504.4883"/><text fill="#000000" font-family="sans-serif" font-size="14" font-weight="bold" lengthAdjust="spacing" textLength="74" x="576.5" y="520.0234">row_count</text><text fill="#000000" font-family="sans-serif" font-size="14" lengthAdjust="spacing" textLength="18" x="680.5" y="520.0234">11</text><line style="stroke:#000000;stroke-width:1.0;" x1="675.5" x2="675.5" y1="504.4883" y2="524.9766"/><line style="stroke:#000000;stroke-width:1.0;" x1="571.5" x2="833.5" y1="524.9766" y2="524.9766"/><text fill="#000000" font-family="sans-serif" font-size="14" font-weight="bold" lengthAdjust="spacing" textLength="94" x="576.5" y="540.5117">ratio_percent</text><text fill="#000000" font-family="sans-serif" font-size="14" lengthAdjust="spacing" textLength="31" x="680.5" y="540.5117">0.08</text><line style="stroke:#000000;stroke-width:1.0;" x1="675.5" x2="675.5" y1="524.9766" y2="545.4648"/><rect fill="none" height="61.4648" rx="5" ry="5" style="stroke:#000000;stroke-width:1.5;" width="262" x="571.5" y="484"/><rect fill="#F1F1F1" height="61.4648" rx="5" ry="5" style="stroke:#F1F1F1;stroke-width:1.5;" width="271" x="567" y="563"/><text fill="#000000" font-family="sans-serif" font-size="14" font-weight="bold" lengthAdjust="spacing" textLength="94" x="572" y="578.5352">field_value_1</text><text fill="#000000" font-family="sans-serif" font-size="14" lengthAdjust="spacing" textLength="157" x="676" y="578.5352">35.698707580566406</text><line style="stroke:#000000;stroke-width:1.0;" x1="671" x2="671" y1="563" y2="583.4883"/><line style="stroke:#000000;stroke-width:1.0;" x1="567" x2="838" y1="583.4883" y2="583.4883"/><text fill="#000000" font-family="sans-serif" font-size="14" font-weight="bold" lengthAdjust="spacing" textLength="74" x="572" y="599.0234">row_count</text><text fill="#000000" font-family="sans-serif" font-size="14" lengthAdjust="spacing" textLength="18" x="676" y="599.0234">11</text><line style="stroke:#000000;stroke-width:1.0;" x1="671" x2="671" y1="583.4883" y2="603.9766"/><line style="stroke:#000000;stroke-width:1.0;" x1="567" x2="838" y1="603.9766" y2="603.9766"/><text fill="#000000" font-family="sans-serif" font-size="14" font-weight="bold" lengthAdjust="spacing" textLength="94" x="572" y="619.5117">ratio_percent</text><text fill="#000000" font-family="sans-serif" font-size="14" lengthAdjust="spacing" textLength="31" x="676" y="619.5117">0.08</text><line style="stroke:#000000;stroke-width:1.0;" x1="671" x2="671" y1="603.9766" y2="624.4648"/><rect fill="none" height="61.4648" rx="5" ry="5" style="stroke:#000000;stroke-width:1.5;" width="271" x="567" y="563"/><rect fill="#F1F1F1" height="61.4648" rx="5" ry="5" style="stroke:#F1F1F1;stroke-width:1.5;" width="271" x="567" y="642"/><text fill="#000000" font-family="sans-serif" font-size="14" font-weight="bold" lengthAdjust="spacing" textLength="94" x="572" y="657.5352">field_value_1</text><text fill="#000000" font-family="sans-serif" font-size="14" lengthAdjust="spacing" textLength="157" x="676" y="657.5352">38.378631591796875</text><line style="stroke:#000000;stroke-width:1.0;" x1="671" x2="671" y1="642" y2="662.4883"/><line style="stroke:#000000;stroke-width:1.0;" x1="567" x2="838" y1="662.4883" y2="662.4883"/><text fill="#000000" font-family="sans-serif" font-size="14" font-weight="bold" lengthAdjust="spacing" textLength="74" x="572" y="678.0234">row_count</text><text fill="#000000" font-family="sans-serif" font-size="14" lengthAdjust="spacing" textLength="18" x="676" y="678.0234">11</text><line style="stroke:#000000;stroke-width:1.0;" x1="671" x2="671" y1="662.4883" y2="682.9766"/><line style="stroke:#000000;stroke-width:1.0;" x1="567" x2="838" y1="682.9766" y2="682.9766"/><text fill="#000000" font-family="sans-serif" font-size="14" font-weight="bold" lengthAdjust="spacing" textLength="94" x="572" y="698.5117">ratio_percent</text><text fill="#000000" font-family="sans-serif" font-size="14" lengthAdjust="spacing" textLength="31" x="676" y="698.5117">0.08</text><line style="stroke:#000000;stroke-width:1.0;" x1="671" x2="671" y1="682.9766" y2="703.4648"/><rect fill="none" height="61.4648" rx="5" ry="5" style="stroke:#000000;stroke-width:1.5;" width="271" x="567" y="642"/><rect fill="#F1F1F1" height="61.4648" rx="5" ry="5" style="stroke:#F1F1F1;stroke-width:1.5;" width="271" x="567" y="721"/><text fill="#000000" font-family="sans-serif" font-size="14" font-weight="bold" lengthAdjust="spacing" textLength="94" x="572" y="736.5352">field_value_1</text><text fill="#000000" font-family="sans-serif" font-size="14" lengthAdjust="spacing" textLength="157" x="676" y="736.5352">42.908355712890625</text><line style="stroke:#000000;stroke-width:1.0;" x1="671" x2="671" y1="721" y2="741.4883"/><line style="stroke:#000000;stroke-width:1.0;" x1="567" x2="838" y1="741.4883" y2="741.4883"/><text fill="#000000" font-family="sans-serif" font-size="14" font-weight="bold" lengthAdjust="spacing" textLength="74" x="572" y="757.0234">row_count</text><text fill="#000000" font-family="sans-serif" font-size="14" lengthAdjust="spacing" textLength="18" x="676" y="757.0234">11</text><line style="stroke:#000000;stroke-width:1.0;" x1="671" x2="671" y1="741.4883" y2="761.9766"/><line style="stroke:#000000;stroke-width:1.0;" x1="567" x2="838" y1="761.9766" y2="761.9766"/><text fill="#000000" font-family="sans-serif" font-size="14" font-weight="bold" lengthAdjust="spacing" textLength="94" x="572" y="777.5117">ratio_percent</text><text fill="#000000" font-family="sans-serif" font-size="14" lengthAdjust="spacing" textLength="31" x="676" y="777.5117">0.08</text><line style="stroke:#000000;stroke-width:1.0;" x1="671" x2="671" y1="761.9766" y2="782.4648"/><rect fill="none" height="61.4648" rx="5" ry="5" style="stroke:#000000;stroke-width:1.5;" width="271" x="567" y="721"/><path d="M274,315.5 L287,315.5 C307.8273,315.5 304.6143,295.285 323,285.5 C327.4187,283.1484 332.0447,280.9598 336.7859,278.9261 " fill="none" style="stroke:#000000;stroke-width:1.0;stroke-dasharray:3.0,3.0;"/><path d="M337.9339,281.7334 L338.8914,278.0652 L335.638,276.1189 L343.804,276.0563 L337.9339,281.7334 " fill="#000000" style="stroke:#000000;stroke-width:1.0;"/><ellipse cx="274" cy="315.5" fill="#000000" rx="3" ry="3" style="stroke:#000000;stroke-width:1.0;"/><path d="M427,303.5 L440,303.5 C481.2281,303.5 502.1738,314.9755 531,285.5 C595.9848,219.0516 504.93,148.679 567,79.5 C568.0081,78.3765 569.0463,77.2844 570.1126,76.2231 " fill="none" style="stroke:#000000;stroke-width:1.0;stroke-dasharray:3.0,3.0;"/><path d="M572.1347,78.4455 L571.7795,74.7065 L568.0905,74.0006 L575.6688,71.1678 L572.1347,78.4455 " fill="#000000" style="stroke:#000000;stroke-width:1.0;"/><ellipse cx="427" cy="303.5" fill="#000000" rx="3" ry="3" style="stroke:#000000;stroke-width:1.0;"/><path d="M427,324.5 L440,324.5 C484.0022,324.5 501.9505,318.5503 531,285.5 C569.7318,241.4339 525.6193,200.0887 567,158.5 C568.2233,157.2705 569.4828,156.0793 570.7755,154.925 " fill="none" style="stroke:#000000;stroke-width:1.0;stroke-dasharray:3.0,3.0;"/><path d="M572.7064,157.2737 L572.537,153.4769 L568.8447,152.5764 L576.6472,150.0978 L572.7064,157.2737 " fill="#000000" style="stroke:#000000;stroke-width:1.0;"/><ellipse cx="427" cy="324.5" fill="#000000" rx="3" ry="3" style="stroke:#000000;stroke-width:1.0;"/><path d="M427,344.5 L440,344.5 C488.2012,344.5 495.773,318.4001 531,285.5 C550.4889,267.2985 545.0554,252.6508 567,237.5 C569.3464,235.88 571.7599,234.3267 574.2295,232.8373 " fill="none" style="stroke:#000000;stroke-width:1.0;stroke-dasharray:3.0,3.0;"/><path d="M575.7476,235.5016 L576.2277,231.6987 L572.7115,230.173 L580.8903,229.0421 L575.7476,235.5016 " fill="#000000" style="stroke:#000000;stroke-width:1.0;"/><ellipse cx="427" cy="344.5" fill="#000000" rx="3" ry="3" style="stroke:#000000;stroke-width:1.0;"/><path d="M427,365.5 L440,365.5 C500.3414,365.5 509.8118,336.7507 567,317.5 C574.0371,315.1312 581.3048,312.7614 588.6494,310.4241 " fill="none" style="stroke:#000000;stroke-width:1.0;stroke-dasharray:3.0,3.0;"/><path d="M589.5794,313.3699 L590.8587,309.7266 L587.7193,307.4783 L596.0138,308.099 L589.5794,313.3699 " fill="#000000" style="stroke:#000000;stroke-width:1.0;"/><ellipse cx="427" cy="365.5" fill="#000000" rx="3" ry="3" style="stroke:#000000;stroke-width:1.0;"/><path d="M427,385.5 L440,385.5 C480.3294,385.5 523.94,382.0635 563.7937,377.5565 " fill="none" style="stroke:#000000;stroke-width:1.0;stroke-dasharray:3.0,3.0;"/><path d="M564.1597,380.7239 L566.1692,377.282 L563.4277,374.389 L571.7122,376.6415 L564.1597,380.7239 " fill="#000000" style="stroke:#000000;stroke-width:1.0;"/><ellipse cx="427" cy="385.5" fill="#000000" rx="3" ry="3" style="stroke:#000000;stroke-width:1.0;"/><path d="M427,406.5 L440,406.5 C480.3294,406.5 523.94,409.9365 563.7937,414.4435 " fill="none" style="stroke:#000000;stroke-width:1.0;stroke-dasharray:3.0,3.0;"/><path d="M563.4277,417.611 L566.1692,414.718 L564.1597,411.2761 L571.7122,415.3585 L563.4277,417.611 " fill="#000000" style="stroke:#000000;stroke-width:1.0;"/><ellipse cx="427" cy="406.5" fill="#000000" rx="3" ry="3" style="stroke:#000000;stroke-width:1.0;"/><path d="M427,427.5 L440,427.5 C500.3414,427.5 509.7464,456.4445 567,475.5 C573.1558,477.5488 579.4895,479.5928 585.8977,481.6109 " fill="none" style="stroke:#000000;stroke-width:1.0;stroke-dasharray:3.0,3.0;"/><path d="M584.9553,484.6312 L588.1629,482.3177 L586.84,478.5906 L593.4484,483.9668 L584.9553,484.6312 " fill="#000000" style="stroke:#000000;stroke-width:1.0;"/><ellipse cx="427" cy="427.5" fill="#000000" rx="3" ry="3" style="stroke:#000000;stroke-width:1.0;"/><path d="M427,447.5 L440,447.5 C513.8072,447.5 501.9012,519.7199 567,554.5 C570.4092,556.3214 573.9135,558.0667 577.488,559.7385 " fill="none" style="stroke:#000000;stroke-width:1.0;stroke-dasharray:3.0,3.0;"/><path d="M576.2381,562.5202 L579.5743,560.6759 L578.7379,556.9568 L584.4423,562.8631 L576.2381,562.5202 " fill="#000000" style="stroke:#000000;stroke-width:1.0;"/><ellipse cx="427" cy="447.5" fill="#000000" rx="3" ry="3" style="stroke:#000000;stroke-width:1.0;"/><path d="M427,468.5 L440,468.5 C532.5405,468.5 490.5197,581.399 567,633.5 C569.3564,635.1053 571.7791,636.6453 574.257,638.1226 " fill="none" style="stroke:#000000;stroke-width:1.0;stroke-dasharray:3.0,3.0;"/><path d="M572.7506,640.7949 L576.2612,639.2524 L575.7634,635.4503 L580.9378,641.8886 L572.7506,640.7949 " fill="#000000" style="stroke:#000000;stroke-width:1.0;"/><ellipse cx="427" cy="468.5" fill="#000000" rx="3" ry="3" style="stroke:#000000;stroke-width:1.0;"/><path d="M427,488.5 L440,488.5 C554.4434,488.5 477.1639,641.6004 567,712.5 C568.7953,713.9169 570.6403,715.2823 572.5287,716.5982 " fill="none" style="stroke:#000000;stroke-width:1.0;stroke-dasharray:3.0,3.0;"/><path d="M570.8145,719.23 L574.5025,717.8838 L574.2428,713.9664 L579.1082,720.8836 L570.8145,719.23 " fill="#000000" style="stroke:#000000;stroke-width:1.0;"/><ellipse cx="427" cy="488.5" fill="#000000" rx="3" ry="3" style="stroke:#000000;stroke-width:1.0;"/><path d="M274,336.5 L287,336.5 C334.0497,336.5 383.2629,365.8357 408.6101,383.482 " fill="none" style="stroke:#000000;stroke-width:1.0;stroke-dasharray:3.0,3.0;"/><path d="M406.8416,385.964 L410.4716,384.8085 L410.3787,381.0001 L414.815,387.9035 L406.8416,385.964 " fill="#000000" style="stroke:#000000;stroke-width:1.0;"/><ellipse cx="274" cy="336.5" fill="#000000" rx="3" ry="3" style="stroke:#000000;stroke-width:1.0;"/><!--MD5=[ab29aa3cd6868e11020f9482e7c07f89]
@startjson
{
    "field1": "geo.coordinates.lat",
    "combination": "geo.coordinates.lat",
    "null_distribution": {
        "total_null_rows": 1,
        "total_not_null_rows": 14004
    },
    "data_distribution": [
        {
            "field_value_1": "31.46902847290039",
            "row_count": 13,
            "ratio_percent": 0.09
        },
        {
            "field_value_1": "46.97494125366211",
            "row_count": 13,
            "ratio_percent": 0.09
        },
        {
            "field_value_1": "41.298885345458984",
            "row_count": 12,
            "ratio_percent": 0.09
        },
        {
            "field_value_1": "41.61033248901367",
            "row_count": 12,
            "ratio_percent": 0.09
        },
        {
            "field_value_1": "41.78598403930664",
            "row_count": 12,
            "ratio_percent": 0.09
        },
        {
            "field_value_1": "33.99287796020508",
            "row_count": 11,
            "ratio_percent": 0.08
        },
        {
            "field_value_1": "34.73002243041992",
            "row_count": 11,
            "ratio_percent": 0.08
        },
        {
            "field_value_1": "35.698707580566406",
            "row_count": 11,
            "ratio_percent": 0.08
        },
        {
            "field_value_1": "38.378631591796875",
            "row_count": 11,
            "ratio_percent": 0.08
        },
        {
            "field_value_1": "42.908355712890625",
            "row_count": 11,
            "ratio_percent": 0.08
        }
    ]
}
@endjson

PlantUML version 1.2022.12(Sun Oct 23 14:12:26 EDT 2022)
(GPL source distribution)
Java Runtime: OpenJDK Runtime Environment
JVM: OpenJDK 64-Bit Server VM
Default Encoding: UTF-8
Language: en
Country: CA
--></g></svg>