<?xml version="1.0" encoding="UTF-8" standalone="no"?><svg xmlns="http://www.w3.org/2000/svg" xmlns:xlink="http://www.w3.org/1999/xlink" contentStyleType="text/css" height="182px" preserveAspectRatio="none" style="width:764px;height:182px;background:#FFFFFF;" version="1.1" viewBox="0 0 764 182" width="764px" zoomAndPan="magnify"><defs/><g><rect fill="#F1F1F1" height="81.9531" rx="5" ry="5" style="stroke:#F1F1F1;stroke-width:1.5;" width="302" x="10" y="10"/><text fill="#000000" font-family="sans-serif" font-size="14" font-weight="bold" lengthAdjust="spacing" textLength="42" x="15" y="25.5352">field1</text><text fill="#000000" font-family="sans-serif" font-size="14" lengthAdjust="spacing" textLength="158" x="149" y="25.5352">relatedContent.og:type</text><line style="stroke:#000000;stroke-width:1.0;" x1="144" x2="144" y1="10" y2="30.4883"/><line style="stroke:#000000;stroke-width:1.0;" x1="10" x2="312" y1="30.4883" y2="30.4883"/><text fill="#000000" font-family="sans-serif" font-size="14" font-weight="bold" lengthAdjust="spacing" textLength="90" x="15" y="46.0234">combination</text><text fill="#000000" font-family="sans-serif" font-size="14" lengthAdjust="spacing" textLength="158" x="149" y="46.0234">relatedContent.og:type</text><line style="stroke:#000000;stroke-width:1.0;" x1="144" x2="144" y1="30.4883" y2="50.9766"/><line style="stroke:#000000;stroke-width:1.0;" x1="10" x2="312" y1="50.9766" y2="50.9766"/><text fill="#000000" font-family="sans-serif" font-size="14" font-weight="bold" lengthAdjust="spacing" textLength="121" x="15" y="66.5117">null_distribution</text><text fill="#000000" font-family="sans-serif" font-size="14" lengthAdjust="spacing" textLength="12" x="149" y="66.5117">   </text><line style="stroke:#000000;stroke-width:1.0;" x1="144" x2="144" y1="50.9766" y2="71.4648"/><line style="stroke:#000000;stroke-width:1.0;" x1="10" x2="312" y1="71.4648" y2="71.4648"/><text fill="#000000" font-family="sans-serif" font-size="14" font-weight="bold" lengthAdjust="spacing" textLength="124" x="15" y="87">data_distribution</text><text fill="#000000" font-family="sans-serif" font-size="14" lengthAdjust="spacing" textLength="12" x="149" y="87">   </text><line style="stroke:#000000;stroke-width:1.0;" x1="144" x2="144" y1="71.4648" y2="91.9531"/><rect fill="none" height="81.9531" rx="5" ry="5" style="stroke:#000000;stroke-width:1.5;" width="302" x="10" y="10"/><rect fill="#F1F1F1" height="40.9766" rx="5" ry="5" style="stroke:#F1F1F1;stroke-width:1.5;" width="207" x="349" y="21.5"/><text fill="#000000" font-family="sans-serif" font-size="14" font-weight="bold" lengthAdjust="spacing" textLength="111" x="354" y="37.0352">total_null_rows</text><text fill="#000000" font-family="sans-serif" font-size="14" lengthAdjust="spacing" textLength="36" x="506" y="37.0352">2282</text><line style="stroke:#000000;stroke-width:1.0;" x1="501" x2="501" y1="21.5" y2="41.9883"/><line style="stroke:#000000;stroke-width:1.0;" x1="349" x2="556" y1="41.9883" y2="41.9883"/><text fill="#000000" font-family="sans-serif" font-size="14" font-weight="bold" lengthAdjust="spacing" textLength="142" x="354" y="57.5234">total_not_null_rows</text><text fill="#000000" font-family="sans-serif" font-size="14" lengthAdjust="spacing" textLength="45" x="506" y="57.5234">11723</text><line style="stroke:#000000;stroke-width:1.0;" x1="501" x2="501" y1="41.9883" y2="62.4766"/><rect fill="none" height="40.9766" rx="5" ry="5" style="stroke:#000000;stroke-width:1.5;" width="207" x="349" y="21.5"/><rect fill="#F1F1F1" height="40.9766" rx="5" ry="5" style="stroke:#F1F1F1;stroke-width:1.5;" width="22" x="440.5" y="80.5"/><text fill="#000000" font-family="sans-serif" font-size="14" lengthAdjust="spacing" textLength="12" x="445.5" y="96.0352">   </text><line style="stroke:#000000;stroke-width:1.0;" x1="440.5" x2="462.5" y1="100.9883" y2="100.9883"/><text fill="#000000" font-family="sans-serif" font-size="14" lengthAdjust="spacing" textLength="12" x="445.5" y="116.5234">   </text><rect fill="none" height="40.9766" rx="5" ry="5" style="stroke:#000000;stroke-width:1.5;" width="22" x="440.5" y="80.5"/><rect fill="#F1F1F1" height="61.4648" rx="5" ry="5" style="stroke:#F1F1F1;stroke-width:1.5;" width="159" x="593" y="30.5"/><text fill="#000000" font-family="sans-serif" font-size="14" font-weight="bold" lengthAdjust="spacing" textLength="94" x="598" y="46.0352">field_value_1</text><text fill="#000000" font-family="sans-serif" font-size="14" lengthAdjust="spacing" textLength="42" x="702" y="46.0352">article</text><line style="stroke:#000000;stroke-width:1.0;" x1="697" x2="697" y1="30.5" y2="50.9883"/><line style="stroke:#000000;stroke-width:1.0;" x1="593" x2="752" y1="50.9883" y2="50.9883"/><text fill="#000000" font-family="sans-serif" font-size="14" font-weight="bold" lengthAdjust="spacing" textLength="74" x="598" y="66.5234">row_count</text><text fill="#000000" font-family="sans-serif" font-size="14" lengthAdjust="spacing" textLength="45" x="702" y="66.5234">11723</text><line style="stroke:#000000;stroke-width:1.0;" x1="697" x2="697" y1="50.9883" y2="71.4766"/><line style="stroke:#000000;stroke-width:1.0;" x1="593" x2="752" y1="71.4766" y2="71.4766"/><text fill="#000000" font-family="sans-serif" font-size="14" font-weight="bold" lengthAdjust="spacing" textLength="94" x="598" y="87.0117">ratio_percent</text><text fill="#000000" font-family="sans-serif" font-size="14" lengthAdjust="spacing" textLength="40" x="702" y="87.0117">83.71</text><line style="stroke:#000000;stroke-width:1.0;" x1="697" x2="697" y1="71.4766" y2="91.9648"/><rect fill="none" height="61.4648" rx="5" ry="5" style="stroke:#000000;stroke-width:1.5;" width="159" x="593" y="30.5"/><rect fill="#F1F1F1" height="61.4648" rx="5" ry="5" style="stroke:#F1F1F1;stroke-width:1.5;" width="154" x="595.5" y="109.5"/><text fill="#000000" font-family="sans-serif" font-size="14" font-weight="bold" lengthAdjust="spacing" textLength="94" x="600.5" y="125.0352">field_value_1</text><text fill="#000000" font-family="sans-serif" font-size="14" lengthAdjust="spacing" textLength="36" x="704.5" y="125.0352">None</text><line style="stroke:#000000;stroke-width:1.0;" x1="699.5" x2="699.5" y1="109.5" y2="129.9883"/><line style="stroke:#000000;stroke-width:1.0;" x1="595.5" x2="749.5" y1="129.9883" y2="129.9883"/><text fill="#000000" font-family="sans-serif" font-size="14" font-weight="bold" lengthAdjust="spacing" textLength="74" x="600.5" y="145.5234">row_count</text><text fill="#000000" font-family="sans-serif" font-size="14" lengthAdjust="spacing" textLength="36" x="704.5" y="145.5234">2282</text><line style="stroke:#000000;stroke-width:1.0;" x1="699.5" x2="699.5" y1="129.9883" y2="150.4766"/><line style="stroke:#000000;stroke-width:1.0;" x1="595.5" x2="749.5" y1="150.4766" y2="150.4766"/><text fill="#000000" font-family="sans-serif" font-size="14" font-weight="bold" lengthAdjust="spacing" textLength="94" x="600.5" y="166.0117">ratio_percent</text><text fill="#000000" font-family="sans-serif" font-size="14" lengthAdjust="spacing" textLength="40" x="704.5" y="166.0117">16.29</text><line style="stroke:#000000;stroke-width:1.0;" x1="699.5" x2="699.5" y1="150.4766" y2="170.9648"/><rect fill="none" height="61.4648" rx="5" ry="5" style="stroke:#000000;stroke-width:1.5;" width="154" x="595.5" y="109.5"/><path d="M300,61 L313,61 C322.3211,61 331.9616,60.5754 341.6178,59.8531 " fill="none" style="stroke:#000000;stroke-width:1.0;stroke-dasharray:3.0,3.0;"/><path d="M341.874,62.9498 L343.9402,59.661 L341.3615,56.7565 L349.3594,59.2125 L341.874,62.9498 " fill="#000000" style="stroke:#000000;stroke-width:1.0;"/><ellipse cx="300" cy="61" fill="#000000" rx="3" ry="3" style="stroke:#000000;stroke-width:1.0;"/><path d="M453,90 L466,90 C505.4503,90 548.7389,84.7203 585.4082,78.6665 " fill="none" style="stroke:#000000;stroke-width:1.0;stroke-dasharray:3.0,3.0;"/><path d="M585.929,81.7547 L587.7244,78.2759 L584.8874,75.5783 L593.1288,77.3645 L585.929,81.7547 " fill="#000000" style="stroke:#000000;stroke-width:1.0;"/><ellipse cx="453" cy="90" fill="#000000" rx="3" ry="3" style="stroke:#000000;stroke-width:1.0;"/><path d="M453,111 L466,111 C506.2932,111 550.5906,116.5077 587.7496,122.7226 " fill="none" style="stroke:#000000;stroke-width:1.0;stroke-dasharray:3.0,3.0;"/><path d="M587.2155,125.8494 L590.0947,123.1231 L588.2837,119.5958 L595.5666,124.0578 L587.2155,125.8494 " fill="#000000" style="stroke:#000000;stroke-width:1.0;"/><ellipse cx="453" cy="111" fill="#000000" rx="3" ry="3" style="stroke:#000000;stroke-width:1.0;"/><path d="M300,82 L313,82 C356.4837,82 406.92,91.2406 433.4633,96.8333 " fill="none" style="stroke:#000000;stroke-width:1.0;stroke-dasharray:3.0,3.0;"/><path d="M432.8216,99.8078 L435.6942,97.3146 L434.105,93.8588 L440.8997,98.4376 L432.8216,99.8078 " fill="#000000" style="stroke:#000000;stroke-width:1.0;"/><ellipse cx="300" cy="82" fill="#000000" rx="3" ry="3" style="stroke:#000000;stroke-width:1.0;"/><!--MD5=[a4053d408cb90a6963b6829348d07117]
@startjson
{
    "field1": "relatedContent.og:type",
    "combination": "relatedContent.og:type",
    "null_distribution": {
        "total_null_rows": 2282,
        "total_not_null_rows": 11723
    },
    "data_distribution": [
        {
            "field_value_1": "article",
            "row_count": 11723,
            "ratio_percent": 83.71
        },
        {
            "field_value_1": "None",
            "row_count": 2282,
            "ratio_percent": 16.29
        }
    ]
}
@endjson

PlantUML version 1.2022.12(Sun Oct 23 14:12:26 EDT 2022)
(GPL source distribution)
Java Runtime: OpenJDK Runtime Environment
JVM: OpenJDK 64-Bit Server VM
Default Encoding: UTF-8
Language: en
Country: CA
--></g></svg>