<?xml version="1.0" encoding="UTF-8" standalone="no"?><svg xmlns="http://www.w3.org/2000/svg" xmlns:xlink="http://www.w3.org/1999/xlink" contentStyleType="text/css" height="818px" preserveAspectRatio="none" style="width:2010px;height:818px;background:#FFFFFF;" version="1.1" viewBox="0 0 2010 818" width="2010px" zoomAndPan="magnify"><defs/><g><rect fill="#F1F1F1" height="81.9531" rx="5" ry="5" style="stroke:#F1F1F1;stroke-width:1.5;" width="376" x="10" y="264.5"/><text fill="#000000" font-family="sans-serif" font-size="14" font-weight="bold" lengthAdjust="spacing" textLength="42" x="15" y="280.0352">field1</text><text fill="#000000" font-family="sans-serif" font-size="14" lengthAdjust="spacing" textLength="232" x="149" y="280.0352">relatedContent.twitter:description</text><line style="stroke:#000000;stroke-width:1.0;" x1="144" x2="144" y1="264.5" y2="284.9883"/><line style="stroke:#000000;stroke-width:1.0;" x1="10" x2="386" y1="284.9883" y2="284.9883"/><text fill="#000000" font-family="sans-serif" font-size="14" font-weight="bold" lengthAdjust="spacing" textLength="90" x="15" y="300.5234">combination</text><text fill="#000000" font-family="sans-serif" font-size="14" lengthAdjust="spacing" textLength="232" x="149" y="300.5234">relatedContent.twitter:description</text><line style="stroke:#000000;stroke-width:1.0;" x1="144" x2="144" y1="284.9883" y2="305.4766"/><line style="stroke:#000000;stroke-width:1.0;" x1="10" x2="386" y1="305.4766" y2="305.4766"/><text fill="#000000" font-family="sans-serif" font-size="14" font-weight="bold" lengthAdjust="spacing" textLength="121" x="15" y="321.0117">null_distribution</text><text fill="#000000" font-family="sans-serif" font-size="14" lengthAdjust="spacing" textLength="12" x="149" y="321.0117">   </text><line style="stroke:#000000;stroke-width:1.0;" x1="144" x2="144" y1="305.4766" y2="325.9648"/><line style="stroke:#000000;stroke-width:1.0;" x1="10" x2="386" y1="325.9648" y2="325.9648"/><text fill="#000000" font-family="sans-serif" font-size="14" font-weight="bold" lengthAdjust="spacing" textLength="124" x="15" y="341.5">data_distribution</text><text fill="#000000" font-family="sans-serif" font-size="14" lengthAdjust="spacing" textLength="12" x="149" y="341.5">   </text><line style="stroke:#000000;stroke-width:1.0;" x1="144" x2="144" y1="325.9648" y2="346.4531"/><rect fill="none" height="81.9531" rx="5" ry="5" style="stroke:#000000;stroke-width:1.5;" width="376" x="10" y="264.5"/><rect fill="#F1F1F1" height="40.9766" rx="5" ry="5" style="stroke:#F1F1F1;stroke-width:1.5;" width="207" x="423" y="235"/><text fill="#000000" font-family="sans-serif" font-size="14" font-weight="bold" lengthAdjust="spacing" textLength="111" x="428" y="250.5352">total_null_rows</text><text fill="#000000" font-family="sans-serif" font-size="14" lengthAdjust="spacing" textLength="36" x="580" y="250.5352">2282</text><line style="stroke:#000000;stroke-width:1.0;" x1="575" x2="575" y1="235" y2="255.4883"/><line style="stroke:#000000;stroke-width:1.0;" x1="423" x2="630" y1="255.4883" y2="255.4883"/><text fill="#000000" font-family="sans-serif" font-size="14" font-weight="bold" lengthAdjust="spacing" textLength="142" x="428" y="271.0234">total_not_null_rows</text><text fill="#000000" font-family="sans-serif" font-size="14" lengthAdjust="spacing" textLength="45" x="580" y="271.0234">11723</text><line style="stroke:#000000;stroke-width:1.0;" x1="575" x2="575" y1="255.4883" y2="275.9766"/><rect fill="none" height="40.9766" rx="5" ry="5" style="stroke:#000000;stroke-width:1.5;" width="207" x="423" y="235"/><rect fill="#F1F1F1" height="204.8828" rx="5" ry="5" style="stroke:#F1F1F1;stroke-width:1.5;" width="22" x="514.5" y="294"/><text fill="#000000" font-family="sans-serif" font-size="14" lengthAdjust="spacing" textLength="12" x="519.5" y="309.5352">   </text><line style="stroke:#000000;stroke-width:1.0;" x1="514.5" x2="536.5" y1="314.4883" y2="314.4883"/><text fill="#000000" font-family="sans-serif" font-size="14" lengthAdjust="spacing" textLength="12" x="519.5" y="330.0234">   </text><line style="stroke:#000000;stroke-width:1.0;" x1="514.5" x2="536.5" y1="334.9766" y2="334.9766"/><text fill="#000000" font-family="sans-serif" font-size="14" lengthAdjust="spacing" textLength="12" x="519.5" y="350.5117">   </text><line style="stroke:#000000;stroke-width:1.0;" x1="514.5" x2="536.5" y1="355.4648" y2="355.4648"/><text fill="#000000" font-family="sans-serif" font-size="14" lengthAdjust="spacing" textLength="12" x="519.5" y="371">   </text><line style="stroke:#000000;stroke-width:1.0;" x1="514.5" x2="536.5" y1="375.9531" y2="375.9531"/><text fill="#000000" font-family="sans-serif" font-size="14" lengthAdjust="spacing" textLength="12" x="519.5" y="391.4883">   </text><line style="stroke:#000000;stroke-width:1.0;" x1="514.5" x2="536.5" y1="396.4414" y2="396.4414"/><text fill="#000000" font-family="sans-serif" font-size="14" lengthAdjust="spacing" textLength="12" x="519.5" y="411.9766">   </text><line style="stroke:#000000;stroke-width:1.0;" x1="514.5" x2="536.5" y1="416.9297" y2="416.9297"/><text fill="#000000" font-family="sans-serif" font-size="14" lengthAdjust="spacing" textLength="12" x="519.5" y="432.4648">   </text><line style="stroke:#000000;stroke-width:1.0;" x1="514.5" x2="536.5" y1="437.418" y2="437.418"/><text fill="#000000" font-family="sans-serif" font-size="14" lengthAdjust="spacing" textLength="12" x="519.5" y="452.9531">   </text><line style="stroke:#000000;stroke-width:1.0;" x1="514.5" x2="536.5" y1="457.9063" y2="457.9063"/><text fill="#000000" font-family="sans-serif" font-size="14" lengthAdjust="spacing" textLength="12" x="519.5" y="473.4414">   </text><line style="stroke:#000000;stroke-width:1.0;" x1="514.5" x2="536.5" y1="478.3945" y2="478.3945"/><text fill="#000000" font-family="sans-serif" font-size="14" lengthAdjust="spacing" textLength="12" x="519.5" y="493.9297">   </text><rect fill="none" height="204.8828" rx="5" ry="5" style="stroke:#000000;stroke-width:1.5;" width="22" x="514.5" y="294"/><rect fill="#F1F1F1" height="61.4648" rx="5" ry="5" style="stroke:#F1F1F1;stroke-width:1.5;" width="944" x="860.5" y="10"/><text fill="#000000" font-family="sans-serif" font-size="14" font-weight="bold" lengthAdjust="spacing" textLength="94" x="865.5" y="25.5352">field_value_1</text><text fill="#000000" font-family="sans-serif" font-size="14" lengthAdjust="spacing" textLength="830" x="969.5" y="25.5352">LA Weekly is the definitive source of information for news, music, movies, restaurants, reviews, and events in Los Angeles.</text><line style="stroke:#000000;stroke-width:1.0;" x1="964.5" x2="964.5" y1="10" y2="30.4883"/><line style="stroke:#000000;stroke-width:1.0;" x1="860.5" x2="1804.5" y1="30.4883" y2="30.4883"/><text fill="#000000" font-family="sans-serif" font-size="14" font-weight="bold" lengthAdjust="spacing" textLength="74" x="865.5" y="46.0234">row_count</text><text fill="#000000" font-family="sans-serif" font-size="14" lengthAdjust="spacing" textLength="36" x="969.5" y="46.0234">5504</text><line style="stroke:#000000;stroke-width:1.0;" x1="964.5" x2="964.5" y1="30.4883" y2="50.9766"/><line style="stroke:#000000;stroke-width:1.0;" x1="860.5" x2="1804.5" y1="50.9766" y2="50.9766"/><text fill="#000000" font-family="sans-serif" font-size="14" font-weight="bold" lengthAdjust="spacing" textLength="94" x="865.5" y="66.5117">ratio_percent</text><text fill="#000000" font-family="sans-serif" font-size="14" lengthAdjust="spacing" textLength="31" x="969.5" y="66.5117">39.3</text><line style="stroke:#000000;stroke-width:1.0;" x1="964.5" x2="964.5" y1="50.9766" y2="71.4648"/><rect fill="none" height="61.4648" rx="5" ry="5" style="stroke:#000000;stroke-width:1.5;" width="944" x="860.5" y="10"/><rect fill="#F1F1F1" height="61.4648" rx="5" ry="5" style="stroke:#F1F1F1;stroke-width:1.5;" width="154" x="1255.5" y="89"/><text fill="#000000" font-family="sans-serif" font-size="14" font-weight="bold" lengthAdjust="spacing" textLength="94" x="1260.5" y="104.5352">field_value_1</text><text fill="#000000" font-family="sans-serif" font-size="14" lengthAdjust="spacing" textLength="36" x="1364.5" y="104.5352">None</text><line style="stroke:#000000;stroke-width:1.0;" x1="1359.5" x2="1359.5" y1="89" y2="109.4883"/><line style="stroke:#000000;stroke-width:1.0;" x1="1255.5" x2="1409.5" y1="109.4883" y2="109.4883"/><text fill="#000000" font-family="sans-serif" font-size="14" font-weight="bold" lengthAdjust="spacing" textLength="74" x="1260.5" y="125.0234">row_count</text><text fill="#000000" font-family="sans-serif" font-size="14" lengthAdjust="spacing" textLength="36" x="1364.5" y="125.0234">2282</text><line style="stroke:#000000;stroke-width:1.0;" x1="1359.5" x2="1359.5" y1="109.4883" y2="129.9766"/><line style="stroke:#000000;stroke-width:1.0;" x1="1255.5" x2="1409.5" y1="129.9766" y2="129.9766"/><text fill="#000000" font-family="sans-serif" font-size="14" font-weight="bold" lengthAdjust="spacing" textLength="94" x="1260.5" y="145.5117">ratio_percent</text><text fill="#000000" font-family="sans-serif" font-size="14" lengthAdjust="spacing" textLength="40" x="1364.5" y="145.5117">16.29</text><line style="stroke:#000000;stroke-width:1.0;" x1="1359.5" x2="1359.5" y1="129.9766" y2="150.4648"/><rect fill="none" height="61.4648" rx="5" ry="5" style="stroke:#000000;stroke-width:1.5;" width="154" x="1255.5" y="89"/><rect fill="#F1F1F1" height="61.4648" rx="5" ry="5" style="stroke:#F1F1F1;stroke-width:1.5;" width="445" x="1110" y="168"/><text fill="#000000" font-family="sans-serif" font-size="14" font-weight="bold" lengthAdjust="spacing" textLength="94" x="1115" y="183.5352">field_value_1</text><text fill="#000000" font-family="sans-serif" font-size="14" lengthAdjust="spacing" textLength="331" x="1219" y="183.5352">All photos by Mark Mauer. More after the jump...</text><line style="stroke:#000000;stroke-width:1.0;" x1="1214" x2="1214" y1="168" y2="188.4883"/><line style="stroke:#000000;stroke-width:1.0;" x1="1110" x2="1555" y1="188.4883" y2="188.4883"/><text fill="#000000" font-family="sans-serif" font-size="14" font-weight="bold" lengthAdjust="spacing" textLength="74" x="1115" y="204.0234">row_count</text><text fill="#000000" font-family="sans-serif" font-size="14" lengthAdjust="spacing" textLength="27" x="1219" y="204.0234">144</text><line style="stroke:#000000;stroke-width:1.0;" x1="1214" x2="1214" y1="188.4883" y2="208.9766"/><line style="stroke:#000000;stroke-width:1.0;" x1="1110" x2="1555" y1="208.9766" y2="208.9766"/><text fill="#000000" font-family="sans-serif" font-size="14" font-weight="bold" lengthAdjust="spacing" textLength="94" x="1115" y="224.5117">ratio_percent</text><text fill="#000000" font-family="sans-serif" font-size="14" lengthAdjust="spacing" textLength="31" x="1219" y="224.5117">1.03</text><line style="stroke:#000000;stroke-width:1.0;" x1="1214" x2="1214" y1="208.9766" y2="229.4648"/><rect fill="none" height="61.4648" rx="5" ry="5" style="stroke:#000000;stroke-width:1.5;" width="445" x="1110" y="168"/><rect fill="#F1F1F1" height="61.4648" rx="5" ry="5" style="stroke:#F1F1F1;stroke-width:1.5;" width="1136" x="764.5" y="247"/><text fill="#000000" font-family="sans-serif" font-size="14" font-weight="bold" lengthAdjust="spacing" textLength="94" x="769.5" y="262.5352">field_value_1</text><text fill="#000000" font-family="sans-serif" font-size="14" lengthAdjust="spacing" textLength="1022" x="873.5" y="262.5352">I got on a bus in Los Feliz yesterday at about 1 p.m. headed for Marfa, Texas, to attend the first annual Marfa Film Festival. If you've been to the mov...</text><line style="stroke:#000000;stroke-width:1.0;" x1="868.5" x2="868.5" y1="247" y2="267.4883"/><line style="stroke:#000000;stroke-width:1.0;" x1="764.5" x2="1900.5" y1="267.4883" y2="267.4883"/><text fill="#000000" font-family="sans-serif" font-size="14" font-weight="bold" lengthAdjust="spacing" textLength="74" x="769.5" y="283.0234">row_count</text><text fill="#000000" font-family="sans-serif" font-size="14" lengthAdjust="spacing" textLength="18" x="873.5" y="283.0234">56</text><line style="stroke:#000000;stroke-width:1.0;" x1="868.5" x2="868.5" y1="267.4883" y2="287.9766"/><line style="stroke:#000000;stroke-width:1.0;" x1="764.5" x2="1900.5" y1="287.9766" y2="287.9766"/><text fill="#000000" font-family="sans-serif" font-size="14" font-weight="bold" lengthAdjust="spacing" textLength="94" x="769.5" y="303.5117">ratio_percent</text><text fill="#000000" font-family="sans-serif" font-size="14" lengthAdjust="spacing" textLength="22" x="873.5" y="303.5117">0.4</text><line style="stroke:#000000;stroke-width:1.0;" x1="868.5" x2="868.5" y1="287.9766" y2="308.4648"/><rect fill="none" height="61.4648" rx="5" ry="5" style="stroke:#000000;stroke-width:1.5;" width="1136" x="764.5" y="247"/><rect fill="#F1F1F1" height="61.4648" rx="5" ry="5" style="stroke:#F1F1F1;stroke-width:1.5;" width="1220" x="722.5" y="326"/><text fill="#000000" font-family="sans-serif" font-size="14" font-weight="bold" lengthAdjust="spacing" textLength="94" x="727.5" y="341.5352">field_value_1</text><text fill="#000000" font-family="sans-serif" font-size="14" lengthAdjust="spacing" textLength="1106" x="831.5" y="341.5352">I ran into Tammie Brown at the John Water's Meet &amp;amp; Greet before the mustachioed director's Christmas show tonight at UCLA's Royce Hall. Tammie is a long...</text><line style="stroke:#000000;stroke-width:1.0;" x1="826.5" x2="826.5" y1="326" y2="346.4883"/><line style="stroke:#000000;stroke-width:1.0;" x1="722.5" x2="1942.5" y1="346.4883" y2="346.4883"/><text fill="#000000" font-family="sans-serif" font-size="14" font-weight="bold" lengthAdjust="spacing" textLength="74" x="727.5" y="362.0234">row_count</text><text fill="#000000" font-family="sans-serif" font-size="14" lengthAdjust="spacing" textLength="18" x="831.5" y="362.0234">52</text><line style="stroke:#000000;stroke-width:1.0;" x1="826.5" x2="826.5" y1="346.4883" y2="366.9766"/><line style="stroke:#000000;stroke-width:1.0;" x1="722.5" x2="1942.5" y1="366.9766" y2="366.9766"/><text fill="#000000" font-family="sans-serif" font-size="14" font-weight="bold" lengthAdjust="spacing" textLength="94" x="727.5" y="382.5117">ratio_percent</text><text fill="#000000" font-family="sans-serif" font-size="14" lengthAdjust="spacing" textLength="31" x="831.5" y="382.5117">0.37</text><line style="stroke:#000000;stroke-width:1.0;" x1="826.5" x2="826.5" y1="366.9766" y2="387.4648"/><rect fill="none" height="61.4648" rx="5" ry="5" style="stroke:#000000;stroke-width:1.5;" width="1220" x="722.5" y="326"/><rect fill="#F1F1F1" height="61.4648" rx="5" ry="5" style="stroke:#F1F1F1;stroke-width:1.5;" width="1331" x="667" y="405"/><text fill="#000000" font-family="sans-serif" font-size="14" font-weight="bold" lengthAdjust="spacing" textLength="94" x="672" y="420.5352">field_value_1</text><text fill="#000000" font-family="sans-serif" font-size="14" lengthAdjust="spacing" textLength="1217" x="776" y="420.5352">&amp;nbsp; &amp;nbsp;&amp;nbsp; &amp;nbsp;&amp;nbsp; &amp;nbsp;&amp;nbsp; &amp;nbsp;&amp;nbsp; &amp;nbsp;&amp;nbsp; &amp;nbsp;&amp;nbsp; &amp;nbsp;&amp;nbsp; &amp;nbsp;&amp;nbsp; &amp;nbsp;&amp;nbsp; &amp;nbsp;&amp;nbsp; &amp;nbsp;&amp;nbsp; &amp;amp;n...</text><line style="stroke:#000000;stroke-width:1.0;" x1="771" x2="771" y1="405" y2="425.4883"/><line style="stroke:#000000;stroke-width:1.0;" x1="667" x2="1998" y1="425.4883" y2="425.4883"/><text fill="#000000" font-family="sans-serif" font-size="14" font-weight="bold" lengthAdjust="spacing" textLength="74" x="672" y="441.0234">row_count</text><text fill="#000000" font-family="sans-serif" font-size="14" lengthAdjust="spacing" textLength="18" x="776" y="441.0234">51</text><line style="stroke:#000000;stroke-width:1.0;" x1="771" x2="771" y1="425.4883" y2="445.9766"/><line style="stroke:#000000;stroke-width:1.0;" x1="667" x2="1998" y1="445.9766" y2="445.9766"/><text fill="#000000" font-family="sans-serif" font-size="14" font-weight="bold" lengthAdjust="spacing" textLength="94" x="672" y="461.5117">ratio_percent</text><text fill="#000000" font-family="sans-serif" font-size="14" lengthAdjust="spacing" textLength="31" x="776" y="461.5117">0.36</text><line style="stroke:#000000;stroke-width:1.0;" x1="771" x2="771" y1="445.9766" y2="466.4648"/><rect fill="none" height="61.4648" rx="5" ry="5" style="stroke:#000000;stroke-width:1.5;" width="1331" x="667" y="405"/><rect fill="#F1F1F1" height="61.4648" rx="5" ry="5" style="stroke:#F1F1F1;stroke-width:1.5;" width="838" x="913.5" y="484"/><text fill="#000000" font-family="sans-serif" font-size="14" font-weight="bold" lengthAdjust="spacing" textLength="94" x="918.5" y="499.5352">field_value_1</text><text fill="#000000" font-family="sans-serif" font-size="14" lengthAdjust="spacing" textLength="724" x="1022.5" y="499.5352">Two very different styles across the street from one another on Ardmore just south of Santa Monica Blvd...</text><line style="stroke:#000000;stroke-width:1.0;" x1="1017.5" x2="1017.5" y1="484" y2="504.4883"/><line style="stroke:#000000;stroke-width:1.0;" x1="913.5" x2="1751.5" y1="504.4883" y2="504.4883"/><text fill="#000000" font-family="sans-serif" font-size="14" font-weight="bold" lengthAdjust="spacing" textLength="74" x="918.5" y="520.0234">row_count</text><text fill="#000000" font-family="sans-serif" font-size="14" lengthAdjust="spacing" textLength="18" x="1022.5" y="520.0234">42</text><line style="stroke:#000000;stroke-width:1.0;" x1="1017.5" x2="1017.5" y1="504.4883" y2="524.9766"/><line style="stroke:#000000;stroke-width:1.0;" x1="913.5" x2="1751.5" y1="524.9766" y2="524.9766"/><text fill="#000000" font-family="sans-serif" font-size="14" font-weight="bold" lengthAdjust="spacing" textLength="94" x="918.5" y="540.5117">ratio_percent</text><text fill="#000000" font-family="sans-serif" font-size="14" lengthAdjust="spacing" textLength="22" x="1022.5" y="540.5117">0.3</text><line style="stroke:#000000;stroke-width:1.0;" x1="1017.5" x2="1017.5" y1="524.9766" y2="545.4648"/><rect fill="none" height="61.4648" rx="5" ry="5" style="stroke:#000000;stroke-width:1.5;" width="838" x="913.5" y="484"/><rect fill="#F1F1F1" height="61.4648" rx="5" ry="5" style="stroke:#F1F1F1;stroke-width:1.5;" width="1222" x="721.5" y="563"/><text fill="#000000" font-family="sans-serif" font-size="14" font-weight="bold" lengthAdjust="spacing" textLength="94" x="726.5" y="578.5352">field_value_1</text><text fill="#000000" font-family="sans-serif" font-size="14" lengthAdjust="spacing" textLength="1108" x="830.5" y="578.5352">Five hundred Los Angeles Laker fans swarmed the Hollywood Billiards Sports Bar &amp;amp; Grill on Thursday night to watch Kobe Bryant and the boys take on Kevin...</text><line style="stroke:#000000;stroke-width:1.0;" x1="825.5" x2="825.5" y1="563" y2="583.4883"/><line style="stroke:#000000;stroke-width:1.0;" x1="721.5" x2="1943.5" y1="583.4883" y2="583.4883"/><text fill="#000000" font-family="sans-serif" font-size="14" font-weight="bold" lengthAdjust="spacing" textLength="74" x="726.5" y="599.0234">row_count</text><text fill="#000000" font-family="sans-serif" font-size="14" lengthAdjust="spacing" textLength="18" x="830.5" y="599.0234">40</text><line style="stroke:#000000;stroke-width:1.0;" x1="825.5" x2="825.5" y1="583.4883" y2="603.9766"/><line style="stroke:#000000;stroke-width:1.0;" x1="721.5" x2="1943.5" y1="603.9766" y2="603.9766"/><text fill="#000000" font-family="sans-serif" font-size="14" font-weight="bold" lengthAdjust="spacing" textLength="94" x="726.5" y="619.5117">ratio_percent</text><text fill="#000000" font-family="sans-serif" font-size="14" lengthAdjust="spacing" textLength="31" x="830.5" y="619.5117">0.29</text><line style="stroke:#000000;stroke-width:1.0;" x1="825.5" x2="825.5" y1="603.9766" y2="624.4648"/><rect fill="none" height="61.4648" rx="5" ry="5" style="stroke:#000000;stroke-width:1.5;" width="1222" x="721.5" y="563"/><rect fill="#F1F1F1" height="61.4648" rx="5" ry="5" style="stroke:#F1F1F1;stroke-width:1.5;" width="1179" x="743" y="642"/><text fill="#000000" font-family="sans-serif" font-size="14" font-weight="bold" lengthAdjust="spacing" textLength="94" x="748" y="657.5352">field_value_1</text><text fill="#000000" font-family="sans-serif" font-size="14" lengthAdjust="spacing" textLength="1065" x="852" y="657.5352">Linda Immediato recently lost her blogging virginity and is making up for lost time. She's a born and bred New Yorker who was an on-air news reporter fo...</text><line style="stroke:#000000;stroke-width:1.0;" x1="847" x2="847" y1="642" y2="662.4883"/><line style="stroke:#000000;stroke-width:1.0;" x1="743" x2="1922" y1="662.4883" y2="662.4883"/><text fill="#000000" font-family="sans-serif" font-size="14" font-weight="bold" lengthAdjust="spacing" textLength="74" x="748" y="678.0234">row_count</text><text fill="#000000" font-family="sans-serif" font-size="14" lengthAdjust="spacing" textLength="18" x="852" y="678.0234">40</text><line style="stroke:#000000;stroke-width:1.0;" x1="847" x2="847" y1="662.4883" y2="682.9766"/><line style="stroke:#000000;stroke-width:1.0;" x1="743" x2="1922" y1="682.9766" y2="682.9766"/><text fill="#000000" font-family="sans-serif" font-size="14" font-weight="bold" lengthAdjust="spacing" textLength="94" x="748" y="698.5117">ratio_percent</text><text fill="#000000" font-family="sans-serif" font-size="14" lengthAdjust="spacing" textLength="31" x="852" y="698.5117">0.29</text><line style="stroke:#000000;stroke-width:1.0;" x1="847" x2="847" y1="682.9766" y2="703.4648"/><rect fill="none" height="61.4648" rx="5" ry="5" style="stroke:#000000;stroke-width:1.5;" width="1179" x="743" y="642"/><rect fill="#F1F1F1" height="61.4648" rx="5" ry="5" style="stroke:#F1F1F1;stroke-width:1.5;" width="1152" x="756.5" y="721"/><text fill="#000000" font-family="sans-serif" font-size="14" font-weight="bold" lengthAdjust="spacing" textLength="94" x="761.5" y="736.5352">field_value_1</text><text fill="#000000" font-family="sans-serif" font-size="14" lengthAdjust="spacing" textLength="1038" x="865.5" y="736.5352">A little rain fell, but no damage done. Air, whose new one, Pocket Symphony, is their best in a while, played the usually dry Greek Theatre along with N...</text><line style="stroke:#000000;stroke-width:1.0;" x1="860.5" x2="860.5" y1="721" y2="741.4883"/><line style="stroke:#000000;stroke-width:1.0;" x1="756.5" x2="1908.5" y1="741.4883" y2="741.4883"/><text fill="#000000" font-family="sans-serif" font-size="14" font-weight="bold" lengthAdjust="spacing" textLength="74" x="761.5" y="757.0234">row_count</text><text fill="#000000" font-family="sans-serif" font-size="14" lengthAdjust="spacing" textLength="18" x="865.5" y="757.0234">39</text><line style="stroke:#000000;stroke-width:1.0;" x1="860.5" x2="860.5" y1="741.4883" y2="761.9766"/><line style="stroke:#000000;stroke-width:1.0;" x1="756.5" x2="1908.5" y1="761.9766" y2="761.9766"/><text fill="#000000" font-family="sans-serif" font-size="14" font-weight="bold" lengthAdjust="spacing" textLength="94" x="761.5" y="777.5117">ratio_percent</text><text fill="#000000" font-family="sans-serif" font-size="14" lengthAdjust="spacing" textLength="31" x="865.5" y="777.5117">0.28</text><line style="stroke:#000000;stroke-width:1.0;" x1="860.5" x2="860.5" y1="761.9766" y2="782.4648"/><rect fill="none" height="61.4648" rx="5" ry="5" style="stroke:#000000;stroke-width:1.5;" width="1152" x="756.5" y="721"/><path d="M374,315.5 L387,315.5 C407.8273,315.5 404.6143,295.285 423,285.5 C427.4187,283.1484 432.0447,280.9598 436.7859,278.9261 " fill="none" style="stroke:#000000;stroke-width:1.0;stroke-dasharray:3.0,3.0;"/><path d="M437.9339,281.7334 L438.8914,278.0652 L435.638,276.1189 L443.804,276.0563 L437.9339,281.7334 " fill="#000000" style="stroke:#000000;stroke-width:1.0;"/><ellipse cx="374" cy="315.5" fill="#000000" rx="3" ry="3" style="stroke:#000000;stroke-width:1.0;"/><path d="M527,303.5 L540,303.5 C581.2281,303.5 602.1738,314.9755 631,285.5 C695.9848,219.0516 597.6287,141.355 667,79.5 C699.364,50.6426 769.8254,35.3446 853.2886,28.1385 " fill="none" style="stroke:#000000;stroke-width:1.0;stroke-dasharray:3.0,3.0;"/><path d="M853.5408,31.1753 L855.5662,27.9494 L853.0364,25.1018 L860.8805,27.508 L853.5408,31.1753 " fill="#000000" style="stroke:#000000;stroke-width:1.0;"/><ellipse cx="527" cy="303.5" fill="#000000" rx="3" ry="3" style="stroke:#000000;stroke-width:1.0;"/><path d="M527,324.5 L540,324.5 C584.0022,324.5 601.9505,318.5503 631,285.5 C669.7318,241.4339 621.2551,195.234 667,158.5 C754.2363,88.4476 1089.4728,102.0079 1248.003,112.8086 " fill="none" style="stroke:#000000;stroke-width:1.0;stroke-dasharray:3.0,3.0;"/><path d="M1247.7853,115.9588 L1250.3657,112.9718 L1248.2207,109.6583 L1255.8787,113.3528 L1247.7853,115.9588 " fill="#000000" style="stroke:#000000;stroke-width:1.0;"/><ellipse cx="527" cy="324.5" fill="#000000" rx="3" ry="3" style="stroke:#000000;stroke-width:1.0;"/><path d="M527,344.5 L540,344.5 C588.2012,344.5 595.773,318.4001 631,285.5 C650.4889,267.2985 643.5081,250.1191 667,237.5 C806.6123,162.5049 987.3046,156.6232 1125.0935,167.3522 " fill="none" style="stroke:#000000;stroke-width:1.0;stroke-dasharray:3.0,3.0;"/><path d="M1124.8432,170.4595 L1127.424,167.54 L1125.3439,164.2449 L1132.8619,167.9782 L1124.8432,170.4595 " fill="#000000" style="stroke:#000000;stroke-width:1.0;"/><ellipse cx="527" cy="344.5" fill="#000000" rx="3" ry="3" style="stroke:#000000;stroke-width:1.0;"/><path d="M527,365.5 L540,365.5 C600.3414,365.5 607.9933,330.1211 667,317.5 C696.3247,311.2277 726.5308,305.8155 757.1388,301.1537 " fill="none" style="stroke:#000000;stroke-width:1.0;stroke-dasharray:3.0,3.0;"/><path d="M757.6065,304.2698 L759.4759,300.803 L756.6712,298.0377 L764.9289,299.9846 L757.6065,304.2698 " fill="#000000" style="stroke:#000000;stroke-width:1.0;"/><ellipse cx="527" cy="365.5" fill="#000000" rx="3" ry="3" style="stroke:#000000;stroke-width:1.0;"/><path d="M527,385.5 L540,385.5 C596.9029,385.5 656.09,384.7432 715.3384,383.474 " fill="none" style="stroke:#000000;stroke-width:1.0;stroke-dasharray:3.0,3.0;"/><path d="M715.4047,386.515 L717.6191,383.4243 L715.2722,380.4331 L722.9407,383.3084 L715.4047,386.515 " fill="#000000" style="stroke:#000000;stroke-width:1.0;"/><ellipse cx="527" cy="385.5" fill="#000000" rx="3" ry="3" style="stroke:#000000;stroke-width:1.0;"/><path d="M527,406.5 L540,406.5 C579.1019,406.5 619.2824,406.8574 659.8203,407.4928 " fill="none" style="stroke:#000000;stroke-width:1.0;stroke-dasharray:3.0,3.0;"/><path d="M659.7715,410.5221 L662.0923,407.5293 L659.869,404.4635 L667.3936,407.6146 L659.7715,410.5221 " fill="#000000" style="stroke:#000000;stroke-width:1.0;"/><ellipse cx="527" cy="406.5" fill="#000000" rx="3" ry="3" style="stroke:#000000;stroke-width:1.0;"/><path d="M527,427.5 L540,427.5 C600.3414,427.5 607.9838,462.9231 667,475.5 C743.5656,491.8168 826.1356,502.2315 906.1813,508.7244 " fill="none" style="stroke:#000000;stroke-width:1.0;stroke-dasharray:3.0,3.0;"/><path d="M905.9349,511.8197 L908.5028,508.9093 L906.4278,505.6291 L913.9195,509.3406 L905.9349,511.8197 " fill="#000000" style="stroke:#000000;stroke-width:1.0;"/><ellipse cx="527" cy="427.5" fill="#000000" rx="3" ry="3" style="stroke:#000000;stroke-width:1.0;"/><path d="M527,447.5 L540,447.5 C613.8072,447.5 598.4403,527.1674 667,554.5 C682.4878,560.6745 698.3402,566.2772 714.4671,571.353 " fill="none" style="stroke:#000000;stroke-width:1.0;stroke-dasharray:3.0,3.0;"/><path d="M713.549,574.3245 L716.6957,572.0416 L715.3852,568.3815 L721.8958,573.6482 L713.549,574.3245 " fill="#000000" style="stroke:#000000;stroke-width:1.0;"/><ellipse cx="527" cy="447.5" fill="#000000" rx="3" ry="3" style="stroke:#000000;stroke-width:1.0;"/><path d="M527,468.5 L540,468.5 C632.5405,468.5 585.2049,590.2182 667,633.5 C804.8205,706.4275 981.9253,713.3561 1118.7071,703.5759 " fill="none" style="stroke:#000000;stroke-width:1.0;stroke-dasharray:3.0,3.0;"/><path d="M1118.936,706.6615 L1121.0213,703.4042 L1118.4782,700.4903 L1126.4211,703.0036 L1118.936,706.6615 " fill="#000000" style="stroke:#000000;stroke-width:1.0;"/><ellipse cx="527" cy="468.5" fill="#000000" rx="3" ry="3" style="stroke:#000000;stroke-width:1.0;"/><path d="M527,488.5 L540,488.5 C654.4434,488.5 569.8433,652.0198 667,712.5 C817.2287,806.0176 1025.4441,801.6763 1168.6592,783.0482 " fill="none" style="stroke:#000000;stroke-width:1.0;stroke-dasharray:3.0,3.0;"/><path d="M1169.0645,786.098 L1170.9465,782.7443 L1168.2539,779.9985 L1176.2836,782.0351 L1169.0645,786.098 " fill="#000000" style="stroke:#000000;stroke-width:1.0;"/><ellipse cx="527" cy="488.5" fill="#000000" rx="3" ry="3" style="stroke:#000000;stroke-width:1.0;"/><path d="M374,336.5 L387,336.5 C434.0497,336.5 483.2629,365.8357 508.6101,383.482 " fill="none" style="stroke:#000000;stroke-width:1.0;stroke-dasharray:3.0,3.0;"/><path d="M506.8416,385.964 L510.4716,384.8085 L510.3787,381.0001 L514.815,387.9035 L506.8416,385.964 " fill="#000000" style="stroke:#000000;stroke-width:1.0;"/><ellipse cx="374" cy="336.5" fill="#000000" rx="3" ry="3" style="stroke:#000000;stroke-width:1.0;"/><!--MD5=[f9e339bd9f936f5b74ce0d34514792ce]
@startjson
{
    "field1": "relatedContent.twitter:description",
    "combination": "relatedContent.twitter:description",
    "null_distribution": {
        "total_null_rows": 2282,
        "total_not_null_rows": 11723
    },
    "data_distribution": [
        {
            "field_value_1": "LA Weekly is the definitive source of information for news, music, movies, restaurants, reviews, and events in Los Angeles.",
            "row_count": 5504,
            "ratio_percent": 39.3
        },
        {
            "field_value_1": "None",
            "row_count": 2282,
            "ratio_percent": 16.29
        },
        {
            "field_value_1": "All photos by Mark Mauer. More after the jump...",
            "row_count": 144,
            "ratio_percent": 1.03
        },
        {
            "field_value_1": "I got on a bus in Los Feliz yesterday at about 1 p.m. headed for Marfa, Texas, to attend the first annual Marfa Film Festival. If you&#039;ve been to the mov...",
            "row_count": 56,
            "ratio_percent": 0.4
        },
        {
            "field_value_1": "I ran into Tammie Brown at the John Water&#039;s Meet &amp; Greet before the mustachioed director&#039;s Christmas show tonight at UCLA&#039;s Royce Hall. Tammie is a long...",
            "row_count": 52,
            "ratio_percent": 0.37
        },
        {
            "field_value_1": "&nbsp; &nbsp;&nbsp; &nbsp;&nbsp; &nbsp;&nbsp; &nbsp;&nbsp; &nbsp;&nbsp; &nbsp;&nbsp; &nbsp;&nbsp; &nbsp;&nbsp; &nbsp;&nbsp; &nbsp;&nbsp; &nbsp;&nbsp; &amp;n...",
            "row_count": 51,
            "ratio_percent": 0.36
        },
        {
            "field_value_1": "Two very different styles across the street from one another on Ardmore just south of Santa Monica Blvd...",
            "row_count": 42,
            "ratio_percent": 0.3
        },
        {
            "field_value_1": "Five hundred Los Angeles Laker fans swarmed the Hollywood Billiards Sports Bar &amp; Grill on Thursday night to watch Kobe Bryant and the boys take on Kevin...",
            "row_count": 40,
            "ratio_percent": 0.29
        },
        {
            "field_value_1": "Linda Immediato recently lost her blogging virginity and is making up for lost time. She&#039;s a born and bred New Yorker who was an on-air news reporter fo...",
            "row_count": 40,
            "ratio_percent": 0.29
        },
        {
            "field_value_1": "A little rain fell, but no damage done. Air, whose new one, Pocket Symphony, is their best in a while, played the usually dry Greek Theatre along with N...",
            "row_count": 39,
            "ratio_percent": 0.28
        }
    ]
}
@endjson

PlantUML version 1.2022.12(Sun Oct 23 14:12:26 EDT 2022)
(GPL source distribution)
Java Runtime: OpenJDK Runtime Environment
JVM: OpenJDK 64-Bit Server VM
Default Encoding: UTF-8
Language: en
Country: CA
--></g></svg>