<?xml version="1.0" encoding="UTF-8" standalone="no"?><svg xmlns="http://www.w3.org/2000/svg" xmlns:xlink="http://www.w3.org/1999/xlink" contentStyleType="text/css" height="399px" preserveAspectRatio="none" style="width:844px;height:399px;background:#FFFFFF;" version="1.1" viewBox="0 0 844 399" width="844px" zoomAndPan="magnify"><defs/><g><rect fill="#F1F1F1" height="81.9531" rx="5" ry="5" style="stroke:#F1F1F1;stroke-width:1.5;" width="346" x="10" y="92.5"/><text fill="#000000" font-family="sans-serif" font-size="14" font-weight="bold" lengthAdjust="spacing" textLength="42" x="15" y="108.0352">field1</text><text fill="#000000" font-family="sans-serif" font-size="14" lengthAdjust="spacing" textLength="202" x="149" y="108.0352">relatedContent.article:section</text><line style="stroke:#000000;stroke-width:1.0;" x1="144" x2="144" y1="92.5" y2="112.9883"/><line style="stroke:#000000;stroke-width:1.0;" x1="10" x2="356" y1="112.9883" y2="112.9883"/><text fill="#000000" font-family="sans-serif" font-size="14" font-weight="bold" lengthAdjust="spacing" textLength="90" x="15" y="128.5234">combination</text><text fill="#000000" font-family="sans-serif" font-size="14" lengthAdjust="spacing" textLength="202" x="149" y="128.5234">relatedContent.article:section</text><line style="stroke:#000000;stroke-width:1.0;" x1="144" x2="144" y1="112.9883" y2="133.4766"/><line style="stroke:#000000;stroke-width:1.0;" x1="10" x2="356" y1="133.4766" y2="133.4766"/><text fill="#000000" font-family="sans-serif" font-size="14" font-weight="bold" lengthAdjust="spacing" textLength="121" x="15" y="149.0117">null_distribution</text><text fill="#000000" font-family="sans-serif" font-size="14" lengthAdjust="spacing" textLength="12" x="149" y="149.0117">   </text><line style="stroke:#000000;stroke-width:1.0;" x1="144" x2="144" y1="133.4766" y2="153.9648"/><line style="stroke:#000000;stroke-width:1.0;" x1="10" x2="356" y1="153.9648" y2="153.9648"/><text fill="#000000" font-family="sans-serif" font-size="14" font-weight="bold" lengthAdjust="spacing" textLength="124" x="15" y="169.5">data_distribution</text><text fill="#000000" font-family="sans-serif" font-size="14" lengthAdjust="spacing" textLength="12" x="149" y="169.5">   </text><line style="stroke:#000000;stroke-width:1.0;" x1="144" x2="144" y1="153.9648" y2="174.4531"/><rect fill="none" height="81.9531" rx="5" ry="5" style="stroke:#000000;stroke-width:1.5;" width="346" x="10" y="92.5"/><rect fill="#F1F1F1" height="40.9766" rx="5" ry="5" style="stroke:#F1F1F1;stroke-width:1.5;" width="207" x="393" y="89"/><text fill="#000000" font-family="sans-serif" font-size="14" font-weight="bold" lengthAdjust="spacing" textLength="111" x="398" y="104.5352">total_null_rows</text><text fill="#000000" font-family="sans-serif" font-size="14" lengthAdjust="spacing" textLength="36" x="550" y="104.5352">2282</text><line style="stroke:#000000;stroke-width:1.0;" x1="545" x2="545" y1="89" y2="109.4883"/><line style="stroke:#000000;stroke-width:1.0;" x1="393" x2="600" y1="109.4883" y2="109.4883"/><text fill="#000000" font-family="sans-serif" font-size="14" font-weight="bold" lengthAdjust="spacing" textLength="142" x="398" y="125.0234">total_not_null_rows</text><text fill="#000000" font-family="sans-serif" font-size="14" lengthAdjust="spacing" textLength="45" x="550" y="125.0234">11723</text><line style="stroke:#000000;stroke-width:1.0;" x1="545" x2="545" y1="109.4883" y2="129.9766"/><rect fill="none" height="40.9766" rx="5" ry="5" style="stroke:#000000;stroke-width:1.5;" width="207" x="393" y="89"/><rect fill="#F1F1F1" height="102.4414" rx="5" ry="5" style="stroke:#F1F1F1;stroke-width:1.5;" width="22" x="484.5" y="148.5"/><text fill="#000000" font-family="sans-serif" font-size="14" lengthAdjust="spacing" textLength="12" x="489.5" y="164.0352">   </text><line style="stroke:#000000;stroke-width:1.0;" x1="484.5" x2="506.5" y1="168.9883" y2="168.9883"/><text fill="#000000" font-family="sans-serif" font-size="14" lengthAdjust="spacing" textLength="12" x="489.5" y="184.5234">   </text><line style="stroke:#000000;stroke-width:1.0;" x1="484.5" x2="506.5" y1="189.4766" y2="189.4766"/><text fill="#000000" font-family="sans-serif" font-size="14" lengthAdjust="spacing" textLength="12" x="489.5" y="205.0117">   </text><line style="stroke:#000000;stroke-width:1.0;" x1="484.5" x2="506.5" y1="209.9648" y2="209.9648"/><text fill="#000000" font-family="sans-serif" font-size="14" lengthAdjust="spacing" textLength="12" x="489.5" y="225.5">   </text><line style="stroke:#000000;stroke-width:1.0;" x1="484.5" x2="506.5" y1="230.4531" y2="230.4531"/><text fill="#000000" font-family="sans-serif" font-size="14" lengthAdjust="spacing" textLength="12" x="489.5" y="245.9883">   </text><rect fill="none" height="102.4414" rx="5" ry="5" style="stroke:#000000;stroke-width:1.5;" width="22" x="484.5" y="148.5"/><rect fill="#F1F1F1" height="61.4648" rx="5" ry="5" style="stroke:#F1F1F1;stroke-width:1.5;" width="154" x="657.5" y="10"/><text fill="#000000" font-family="sans-serif" font-size="14" font-weight="bold" lengthAdjust="spacing" textLength="94" x="662.5" y="25.5352">field_value_1</text><text fill="#000000" font-family="sans-serif" font-size="14" lengthAdjust="spacing" textLength="28" x="766.5" y="25.5352">Arts</text><line style="stroke:#000000;stroke-width:1.0;" x1="761.5" x2="761.5" y1="10" y2="30.4883"/><line style="stroke:#000000;stroke-width:1.0;" x1="657.5" x2="811.5" y1="30.4883" y2="30.4883"/><text fill="#000000" font-family="sans-serif" font-size="14" font-weight="bold" lengthAdjust="spacing" textLength="74" x="662.5" y="46.0234">row_count</text><text fill="#000000" font-family="sans-serif" font-size="14" lengthAdjust="spacing" textLength="36" x="766.5" y="46.0234">8458</text><line style="stroke:#000000;stroke-width:1.0;" x1="761.5" x2="761.5" y1="30.4883" y2="50.9766"/><line style="stroke:#000000;stroke-width:1.0;" x1="657.5" x2="811.5" y1="50.9766" y2="50.9766"/><text fill="#000000" font-family="sans-serif" font-size="14" font-weight="bold" lengthAdjust="spacing" textLength="94" x="662.5" y="66.5117">ratio_percent</text><text fill="#000000" font-family="sans-serif" font-size="14" lengthAdjust="spacing" textLength="40" x="766.5" y="66.5117">60.39</text><line style="stroke:#000000;stroke-width:1.0;" x1="761.5" x2="761.5" y1="50.9766" y2="71.4648"/><rect fill="none" height="61.4648" rx="5" ry="5" style="stroke:#000000;stroke-width:1.5;" width="154" x="657.5" y="10"/><rect fill="#F1F1F1" height="61.4648" rx="5" ry="5" style="stroke:#F1F1F1;stroke-width:1.5;" width="154" x="657.5" y="89"/><text fill="#000000" font-family="sans-serif" font-size="14" font-weight="bold" lengthAdjust="spacing" textLength="94" x="662.5" y="104.5352">field_value_1</text><text fill="#000000" font-family="sans-serif" font-size="14" lengthAdjust="spacing" textLength="39" x="766.5" y="104.5352">Music</text><line style="stroke:#000000;stroke-width:1.0;" x1="761.5" x2="761.5" y1="89" y2="109.4883"/><line style="stroke:#000000;stroke-width:1.0;" x1="657.5" x2="811.5" y1="109.4883" y2="109.4883"/><text fill="#000000" font-family="sans-serif" font-size="14" font-weight="bold" lengthAdjust="spacing" textLength="74" x="662.5" y="125.0234">row_count</text><text fill="#000000" font-family="sans-serif" font-size="14" lengthAdjust="spacing" textLength="36" x="766.5" y="125.0234">8287</text><line style="stroke:#000000;stroke-width:1.0;" x1="761.5" x2="761.5" y1="109.4883" y2="129.9766"/><line style="stroke:#000000;stroke-width:1.0;" x1="657.5" x2="811.5" y1="129.9766" y2="129.9766"/><text fill="#000000" font-family="sans-serif" font-size="14" font-weight="bold" lengthAdjust="spacing" textLength="94" x="662.5" y="145.5117">ratio_percent</text><text fill="#000000" font-family="sans-serif" font-size="14" lengthAdjust="spacing" textLength="40" x="766.5" y="145.5117">59.17</text><line style="stroke:#000000;stroke-width:1.0;" x1="761.5" x2="761.5" y1="129.9766" y2="150.4648"/><rect fill="none" height="61.4648" rx="5" ry="5" style="stroke:#000000;stroke-width:1.5;" width="154" x="657.5" y="89"/><rect fill="#F1F1F1" height="61.4648" rx="5" ry="5" style="stroke:#F1F1F1;stroke-width:1.5;" width="150" x="659.5" y="168"/><text fill="#000000" font-family="sans-serif" font-size="14" font-weight="bold" lengthAdjust="spacing" textLength="94" x="664.5" y="183.5352">field_value_1</text><text fill="#000000" font-family="sans-serif" font-size="14" lengthAdjust="spacing" textLength="36" x="768.5" y="183.5352">News</text><line style="stroke:#000000;stroke-width:1.0;" x1="763.5" x2="763.5" y1="168" y2="188.4883"/><line style="stroke:#000000;stroke-width:1.0;" x1="659.5" x2="809.5" y1="188.4883" y2="188.4883"/><text fill="#000000" font-family="sans-serif" font-size="14" font-weight="bold" lengthAdjust="spacing" textLength="74" x="664.5" y="204.0234">row_count</text><text fill="#000000" font-family="sans-serif" font-size="14" lengthAdjust="spacing" textLength="36" x="768.5" y="204.0234">5616</text><line style="stroke:#000000;stroke-width:1.0;" x1="763.5" x2="763.5" y1="188.4883" y2="208.9766"/><line style="stroke:#000000;stroke-width:1.0;" x1="659.5" x2="809.5" y1="208.9766" y2="208.9766"/><text fill="#000000" font-family="sans-serif" font-size="14" font-weight="bold" lengthAdjust="spacing" textLength="94" x="664.5" y="224.5117">ratio_percent</text><text fill="#000000" font-family="sans-serif" font-size="14" lengthAdjust="spacing" textLength="31" x="768.5" y="224.5117">40.1</text><line style="stroke:#000000;stroke-width:1.0;" x1="763.5" x2="763.5" y1="208.9766" y2="229.4648"/><rect fill="none" height="61.4648" rx="5" ry="5" style="stroke:#000000;stroke-width:1.5;" width="150" x="659.5" y="168"/><rect fill="#F1F1F1" height="61.4648" rx="5" ry="5" style="stroke:#F1F1F1;stroke-width:1.5;" width="154" x="657.5" y="247"/><text fill="#000000" font-family="sans-serif" font-size="14" font-weight="bold" lengthAdjust="spacing" textLength="94" x="662.5" y="262.5352">field_value_1</text><text fill="#000000" font-family="sans-serif" font-size="14" lengthAdjust="spacing" textLength="36" x="766.5" y="262.5352">None</text><line style="stroke:#000000;stroke-width:1.0;" x1="761.5" x2="761.5" y1="247" y2="267.4883"/><line style="stroke:#000000;stroke-width:1.0;" x1="657.5" x2="811.5" y1="267.4883" y2="267.4883"/><text fill="#000000" font-family="sans-serif" font-size="14" font-weight="bold" lengthAdjust="spacing" textLength="74" x="662.5" y="283.0234">row_count</text><text fill="#000000" font-family="sans-serif" font-size="14" lengthAdjust="spacing" textLength="36" x="766.5" y="283.0234">2282</text><line style="stroke:#000000;stroke-width:1.0;" x1="761.5" x2="761.5" y1="267.4883" y2="287.9766"/><line style="stroke:#000000;stroke-width:1.0;" x1="657.5" x2="811.5" y1="287.9766" y2="287.9766"/><text fill="#000000" font-family="sans-serif" font-size="14" font-weight="bold" lengthAdjust="spacing" textLength="94" x="662.5" y="303.5117">ratio_percent</text><text fill="#000000" font-family="sans-serif" font-size="14" lengthAdjust="spacing" textLength="40" x="766.5" y="303.5117">16.29</text><line style="stroke:#000000;stroke-width:1.0;" x1="761.5" x2="761.5" y1="287.9766" y2="308.4648"/><rect fill="none" height="61.4648" rx="5" ry="5" style="stroke:#000000;stroke-width:1.5;" width="154" x="657.5" y="247"/><rect fill="#F1F1F1" height="61.4648" rx="5" ry="5" style="stroke:#F1F1F1;stroke-width:1.5;" width="195" x="637" y="326"/><text fill="#000000" font-family="sans-serif" font-size="14" font-weight="bold" lengthAdjust="spacing" textLength="94" x="642" y="341.5352">field_value_1</text><text fill="#000000" font-family="sans-serif" font-size="14" lengthAdjust="spacing" textLength="81" x="746" y="341.5352">Restaurants</text><line style="stroke:#000000;stroke-width:1.0;" x1="741" x2="741" y1="326" y2="346.4883"/><line style="stroke:#000000;stroke-width:1.0;" x1="637" x2="832" y1="346.4883" y2="346.4883"/><text fill="#000000" font-family="sans-serif" font-size="14" font-weight="bold" lengthAdjust="spacing" textLength="74" x="642" y="362.0234">row_count</text><text fill="#000000" font-family="sans-serif" font-size="14" lengthAdjust="spacing" textLength="27" x="746" y="362.0234">132</text><line style="stroke:#000000;stroke-width:1.0;" x1="741" x2="741" y1="346.4883" y2="366.9766"/><line style="stroke:#000000;stroke-width:1.0;" x1="637" x2="832" y1="366.9766" y2="366.9766"/><text fill="#000000" font-family="sans-serif" font-size="14" font-weight="bold" lengthAdjust="spacing" textLength="94" x="642" y="382.5117">ratio_percent</text><text fill="#000000" font-family="sans-serif" font-size="14" lengthAdjust="spacing" textLength="31" x="746" y="382.5117">0.94</text><line style="stroke:#000000;stroke-width:1.0;" x1="741" x2="741" y1="366.9766" y2="387.4648"/><rect fill="none" height="61.4648" rx="5" ry="5" style="stroke:#000000;stroke-width:1.5;" width="195" x="637" y="326"/><path d="M344,143.5 L357,143.5 C369.4362,143.5 393.4047,138.2998 417.9833,131.9669 " fill="none" style="stroke:#000000;stroke-width:1.0;stroke-dasharray:3.0,3.0;"/><path d="M418.7451,134.8813 L420.1691,131.3955 L417.2214,129.0525 L425.2693,130.0623 L418.7451,134.8813 " fill="#000000" style="stroke:#000000;stroke-width:1.0;"/><ellipse cx="344" cy="143.5" fill="#000000" rx="3" ry="3" style="stroke:#000000;stroke-width:1.0;"/><path d="M497,158.5 L510,158.5 C551.4097,158.5 567.2888,162.5483 601,138.5 C626.0073,120.6608 613.5571,99.3504 637,79.5 C641.2854,75.8713 645.9516,72.5501 650.8441,69.5151 " fill="none" style="stroke:#000000;stroke-width:1.0;stroke-dasharray:3.0,3.0;"/><path d="M652.4294,72.234 L652.8833,68.3261 L649.2588,66.7962 L657.6414,65.5517 L652.4294,72.234 " fill="#000000" style="stroke:#000000;stroke-width:1.0;"/><ellipse cx="497" cy="158.5" fill="#000000" rx="3" ry="3" style="stroke:#000000;stroke-width:1.0;"/><path d="M497,178.5 L510,178.5 C557.5166,178.5 608.8886,165.9315 650.4348,152.3965 " fill="none" style="stroke:#000000;stroke-width:1.0;stroke-dasharray:3.0,3.0;"/><path d="M651.4132,155.3462 L652.6471,151.6627 L649.4564,149.4468 L657.8091,149.9505 L651.4132,155.3462 " fill="#000000" style="stroke:#000000;stroke-width:1.0;"/><ellipse cx="497" cy="178.5" fill="#000000" rx="3" ry="3" style="stroke:#000000;stroke-width:1.0;"/><path d="M497,198.5 L510,198.5 C557.1418,198.5 609.8642,198.5 652.3119,198.5 " fill="none" style="stroke:#000000;stroke-width:1.0;stroke-dasharray:3.0,3.0;"/><path d="M652.3119,201.5125 L654.5713,198.5 L652.3119,195.4875 L659.8432,198.5 L652.3119,201.5125 " fill="#000000" style="stroke:#000000;stroke-width:1.0;"/><ellipse cx="497" cy="198.5" fill="#000000" rx="3" ry="3" style="stroke:#000000;stroke-width:1.0;"/><path d="M497,219.5 L510,219.5 C557.4648,219.5 608.8327,231.8554 650.3897,245.1611 " fill="none" style="stroke:#000000;stroke-width:1.0;stroke-dasharray:3.0,3.0;"/><path d="M649.4279,248.1116 L652.6026,245.8824 L651.3515,242.2106 L657.7661,247.5656 L649.4279,248.1116 " fill="#000000" style="stroke:#000000;stroke-width:1.0;"/><ellipse cx="497" cy="219.5" fill="#000000" rx="3" ry="3" style="stroke:#000000;stroke-width:1.0;"/><path d="M497,240.5 L510,240.5 C576.0086,240.5 577.9605,287.9793 637,317.5 C640.602,319.301 644.3082,321.0828 648.0735,322.8352 " fill="none" style="stroke:#000000;stroke-width:1.0;stroke-dasharray:3.0,3.0;"/><path d="M646.8254,325.5679 L650.1231,323.7713 L649.3217,320.1025 L654.9053,325.9555 L646.8254,325.5679 " fill="#000000" style="stroke:#000000;stroke-width:1.0;"/><ellipse cx="497" cy="240.5" fill="#000000" rx="3" ry="3" style="stroke:#000000;stroke-width:1.0;"/><path d="M344,164.5 L357,164.5 C401.3929,164.5 451.4126,181.4954 477.6607,191.8002 " fill="none" style="stroke:#000000;stroke-width:1.0;stroke-dasharray:3.0,3.0;"/><path d="M476.5274,194.6201 L479.7756,192.6501 L478.794,188.9802 L484.7105,194.6334 L476.5274,194.6201 " fill="#000000" style="stroke:#000000;stroke-width:1.0;"/><ellipse cx="344" cy="164.5" fill="#000000" rx="3" ry="3" style="stroke:#000000;stroke-width:1.0;"/><!--MD5=[a2be37bff250444474a7e931a3f1a9fc]
@startjson
{
    "field1": "relatedContent.article:section",
    "combination": "relatedContent.article:section",
    "null_distribution": {
        "total_null_rows": 2282,
        "total_not_null_rows": 11723
    },
    "data_distribution": [
        {
            "field_value_1": "Arts",
            "row_count": 8458,
            "ratio_percent": 60.39
        },
        {
            "field_value_1": "Music",
            "row_count": 8287,
            "ratio_percent": 59.17
        },
        {
            "field_value_1": "News",
            "row_count": 5616,
            "ratio_percent": 40.1
        },
        {
            "field_value_1": "None",
            "row_count": 2282,
            "ratio_percent": 16.29
        },
        {
            "field_value_1": "Restaurants",
            "row_count": 132,
            "ratio_percent": 0.94
        }
    ]
}
@endjson

PlantUML version 1.2022.12(Sun Oct 23 14:12:26 EDT 2022)
(GPL source distribution)
Java Runtime: OpenJDK Runtime Environment
JVM: OpenJDK 64-Bit Server VM
Default Encoding: UTF-8
Language: en
Country: CA
--></g></svg>