<?xml version="1.0" encoding="UTF-8" standalone="no"?><svg xmlns="http://www.w3.org/2000/svg" xmlns:xlink="http://www.w3.org/1999/xlink" contentStyleType="text/css" height="794px" preserveAspectRatio="none" style="width:2146px;height:794px;background:#FFFFFF;" version="1.1" viewBox="0 0 2146 794" width="2146px" zoomAndPan="magnify"><defs/><g><rect fill="#F1F1F1" height="81.9531" rx="5" ry="5" style="stroke:#F1F1F1;stroke-width:1.5;" width="216" x="10" y="264.5"/><text fill="#000000" font-family="sans-serif" font-size="14" font-weight="bold" lengthAdjust="spacing" textLength="42" x="15" y="280.0352">field1</text><text fill="#000000" font-family="sans-serif" font-size="14" lengthAdjust="spacing" textLength="72" x="149" y="280.0352">@message</text><line style="stroke:#000000;stroke-width:1.0;" x1="144" x2="144" y1="264.5" y2="284.9883"/><line style="stroke:#000000;stroke-width:1.0;" x1="10" x2="226" y1="284.9883" y2="284.9883"/><text fill="#000000" font-family="sans-serif" font-size="14" font-weight="bold" lengthAdjust="spacing" textLength="90" x="15" y="300.5234">combination</text><text fill="#000000" font-family="sans-serif" font-size="14" lengthAdjust="spacing" textLength="72" x="149" y="300.5234">@message</text><line style="stroke:#000000;stroke-width:1.0;" x1="144" x2="144" y1="284.9883" y2="305.4766"/><line style="stroke:#000000;stroke-width:1.0;" x1="10" x2="226" y1="305.4766" y2="305.4766"/><text fill="#000000" font-family="sans-serif" font-size="14" font-weight="bold" lengthAdjust="spacing" textLength="121" x="15" y="321.0117">null_distribution</text><text fill="#000000" font-family="sans-serif" font-size="14" lengthAdjust="spacing" textLength="12" x="149" y="321.0117">   </text><line style="stroke:#000000;stroke-width:1.0;" x1="144" x2="144" y1="305.4766" y2="325.9648"/><line style="stroke:#000000;stroke-width:1.0;" x1="10" x2="226" y1="325.9648" y2="325.9648"/><text fill="#000000" font-family="sans-serif" font-size="14" font-weight="bold" lengthAdjust="spacing" textLength="124" x="15" y="341.5">data_distribution</text><text fill="#000000" font-family="sans-serif" font-size="14" lengthAdjust="spacing" textLength="12" x="149" y="341.5">   </text><line style="stroke:#000000;stroke-width:1.0;" x1="144" x2="144" y1="325.9648" y2="346.4531"/><rect fill="none" height="81.9531" rx="5" ry="5" style="stroke:#000000;stroke-width:1.5;" width="216" x="10" y="264.5"/><rect fill="#F1F1F1" height="40.9766" rx="5" ry="5" style="stroke:#F1F1F1;stroke-width:1.5;" width="207" x="263" y="235"/><text fill="#000000" font-family="sans-serif" font-size="14" font-weight="bold" lengthAdjust="spacing" textLength="111" x="268" y="250.5352">total_null_rows</text><text fill="#000000" font-family="sans-serif" font-size="14" lengthAdjust="spacing" textLength="9" x="420" y="250.5352">0</text><line style="stroke:#000000;stroke-width:1.0;" x1="415" x2="415" y1="235" y2="255.4883"/><line style="stroke:#000000;stroke-width:1.0;" x1="263" x2="470" y1="255.4883" y2="255.4883"/><text fill="#000000" font-family="sans-serif" font-size="14" font-weight="bold" lengthAdjust="spacing" textLength="142" x="268" y="271.0234">total_not_null_rows</text><text fill="#000000" font-family="sans-serif" font-size="14" lengthAdjust="spacing" textLength="45" x="420" y="271.0234">14005</text><line style="stroke:#000000;stroke-width:1.0;" x1="415" x2="415" y1="255.4883" y2="275.9766"/><rect fill="none" height="40.9766" rx="5" ry="5" style="stroke:#000000;stroke-width:1.5;" width="207" x="263" y="235"/><rect fill="#F1F1F1" height="204.8828" rx="5" ry="5" style="stroke:#F1F1F1;stroke-width:1.5;" width="22" x="354.5" y="294"/><text fill="#000000" font-family="sans-serif" font-size="14" lengthAdjust="spacing" textLength="12" x="359.5" y="309.5352">   </text><line style="stroke:#000000;stroke-width:1.0;" x1="354.5" x2="376.5" y1="314.4883" y2="314.4883"/><text fill="#000000" font-family="sans-serif" font-size="14" lengthAdjust="spacing" textLength="12" x="359.5" y="330.0234">   </text><line style="stroke:#000000;stroke-width:1.0;" x1="354.5" x2="376.5" y1="334.9766" y2="334.9766"/><text fill="#000000" font-family="sans-serif" font-size="14" lengthAdjust="spacing" textLength="12" x="359.5" y="350.5117">   </text><line style="stroke:#000000;stroke-width:1.0;" x1="354.5" x2="376.5" y1="355.4648" y2="355.4648"/><text fill="#000000" font-family="sans-serif" font-size="14" lengthAdjust="spacing" textLength="12" x="359.5" y="371">   </text><line style="stroke:#000000;stroke-width:1.0;" x1="354.5" x2="376.5" y1="375.9531" y2="375.9531"/><text fill="#000000" font-family="sans-serif" font-size="14" lengthAdjust="spacing" textLength="12" x="359.5" y="391.4883">   </text><line style="stroke:#000000;stroke-width:1.0;" x1="354.5" x2="376.5" y1="396.4414" y2="396.4414"/><text fill="#000000" font-family="sans-serif" font-size="14" lengthAdjust="spacing" textLength="12" x="359.5" y="411.9766">   </text><line style="stroke:#000000;stroke-width:1.0;" x1="354.5" x2="376.5" y1="416.9297" y2="416.9297"/><text fill="#000000" font-family="sans-serif" font-size="14" lengthAdjust="spacing" textLength="12" x="359.5" y="432.4648">   </text><line style="stroke:#000000;stroke-width:1.0;" x1="354.5" x2="376.5" y1="437.418" y2="437.418"/><text fill="#000000" font-family="sans-serif" font-size="14" lengthAdjust="spacing" textLength="12" x="359.5" y="452.9531">   </text><line style="stroke:#000000;stroke-width:1.0;" x1="354.5" x2="376.5" y1="457.9063" y2="457.9063"/><text fill="#000000" font-family="sans-serif" font-size="14" lengthAdjust="spacing" textLength="12" x="359.5" y="473.4414">   </text><line style="stroke:#000000;stroke-width:1.0;" x1="354.5" x2="376.5" y1="478.3945" y2="478.3945"/><text fill="#000000" font-family="sans-serif" font-size="14" lengthAdjust="spacing" textLength="12" x="359.5" y="493.9297">   </text><rect fill="none" height="204.8828" rx="5" ry="5" style="stroke:#000000;stroke-width:1.5;" width="22" x="354.5" y="294"/><rect fill="#F1F1F1" height="61.4648" rx="5" ry="5" style="stroke:#F1F1F1;stroke-width:1.5;" width="1610" x="515.5" y="10"/><text fill="#000000" font-family="sans-serif" font-size="14" font-weight="bold" lengthAdjust="spacing" textLength="94" x="520.5" y="25.5352">field_value_1</text><text fill="#000000" font-family="sans-serif" font-size="14" lengthAdjust="spacing" textLength="1496" x="624.5" y="25.5352">0.100.131.159 - - [2015-05-18T03:57:19.769Z] "GET /uploads/janet-l-kavandi.jpg HTTP/1.1" 200 8479 "-" "Mozilla/5.0 (X11; Linux i686) AppleWebKit/534.24 (KHTML, like Gecko) Chrome/11.0.696.50 Safari/534.24"</text><line style="stroke:#000000;stroke-width:1.0;" x1="619.5" x2="619.5" y1="10" y2="30.4883"/><line style="stroke:#000000;stroke-width:1.0;" x1="515.5" x2="2125.5" y1="30.4883" y2="30.4883"/><text fill="#000000" font-family="sans-serif" font-size="14" font-weight="bold" lengthAdjust="spacing" textLength="74" x="520.5" y="46.0234">row_count</text><text fill="#000000" font-family="sans-serif" font-size="14" lengthAdjust="spacing" textLength="9" x="624.5" y="46.0234">1</text><line style="stroke:#000000;stroke-width:1.0;" x1="619.5" x2="619.5" y1="30.4883" y2="50.9766"/><line style="stroke:#000000;stroke-width:1.0;" x1="515.5" x2="2125.5" y1="50.9766" y2="50.9766"/><text fill="#000000" font-family="sans-serif" font-size="14" font-weight="bold" lengthAdjust="spacing" textLength="94" x="520.5" y="66.5117">ratio_percent</text><text fill="#000000" font-family="sans-serif" font-size="14" lengthAdjust="spacing" textLength="31" x="624.5" y="66.5117">0.01</text><line style="stroke:#000000;stroke-width:1.0;" x1="619.5" x2="619.5" y1="50.9766" y2="71.4648"/><rect fill="none" height="61.4648" rx="5" ry="5" style="stroke:#000000;stroke-width:1.5;" width="1610" x="515.5" y="10"/><rect fill="#F1F1F1" height="61.4648" rx="5" ry="5" style="stroke:#F1F1F1;stroke-width:1.5;" width="1441" x="600" y="89"/><text fill="#000000" font-family="sans-serif" font-size="14" font-weight="bold" lengthAdjust="spacing" textLength="94" x="605" y="104.5352">field_value_1</text><text fill="#000000" font-family="sans-serif" font-size="14" lengthAdjust="spacing" textLength="1327" x="709" y="104.5352">0.100.131.159 - - [2015-05-18T07:19:37.797Z] "GET /uploads/william-frederick-fisher.jpg HTTP/1.1" 200 4535 "-" "Mozilla/5.0 (X11; Linux x86_64; rv:6.0a1) Gecko/20110421 Firefox/6.0a1"</text><line style="stroke:#000000;stroke-width:1.0;" x1="704" x2="704" y1="89" y2="109.4883"/><line style="stroke:#000000;stroke-width:1.0;" x1="600" x2="2041" y1="109.4883" y2="109.4883"/><text fill="#000000" font-family="sans-serif" font-size="14" font-weight="bold" lengthAdjust="spacing" textLength="74" x="605" y="125.0234">row_count</text><text fill="#000000" font-family="sans-serif" font-size="14" lengthAdjust="spacing" textLength="9" x="709" y="125.0234">1</text><line style="stroke:#000000;stroke-width:1.0;" x1="704" x2="704" y1="109.4883" y2="129.9766"/><line style="stroke:#000000;stroke-width:1.0;" x1="600" x2="2041" y1="129.9766" y2="129.9766"/><text fill="#000000" font-family="sans-serif" font-size="14" font-weight="bold" lengthAdjust="spacing" textLength="94" x="605" y="145.5117">ratio_percent</text><text fill="#000000" font-family="sans-serif" font-size="14" lengthAdjust="spacing" textLength="31" x="709" y="145.5117">0.01</text><line style="stroke:#000000;stroke-width:1.0;" x1="704" x2="704" y1="129.9766" y2="150.4648"/><rect fill="none" height="61.4648" rx="5" ry="5" style="stroke:#000000;stroke-width:1.5;" width="1441" x="600" y="89"/><rect fill="#F1F1F1" height="61.4648" rx="5" ry="5" style="stroke:#F1F1F1;stroke-width:1.5;" width="1385" x="628" y="168"/><text fill="#000000" font-family="sans-serif" font-size="14" font-weight="bold" lengthAdjust="spacing" textLength="94" x="633" y="183.5352">field_value_1</text><text fill="#000000" font-family="sans-serif" font-size="14" lengthAdjust="spacing" textLength="1271" x="737" y="183.5352">0.100.131.159 - - [2015-05-18T07:28:10.028Z] "GET /uploads/thomas-akers.jpg HTTP/1.1" 200 9225 "-" "Mozilla/4.0 (compatible; MSIE 6.0; Windows NT 5.1; SV1; .NET CLR 1.1.4322)"</text><line style="stroke:#000000;stroke-width:1.0;" x1="732" x2="732" y1="168" y2="188.4883"/><line style="stroke:#000000;stroke-width:1.0;" x1="628" x2="2013" y1="188.4883" y2="188.4883"/><text fill="#000000" font-family="sans-serif" font-size="14" font-weight="bold" lengthAdjust="spacing" textLength="74" x="633" y="204.0234">row_count</text><text fill="#000000" font-family="sans-serif" font-size="14" lengthAdjust="spacing" textLength="9" x="737" y="204.0234">1</text><line style="stroke:#000000;stroke-width:1.0;" x1="732" x2="732" y1="188.4883" y2="208.9766"/><line style="stroke:#000000;stroke-width:1.0;" x1="628" x2="2013" y1="208.9766" y2="208.9766"/><text fill="#000000" font-family="sans-serif" font-size="14" font-weight="bold" lengthAdjust="spacing" textLength="94" x="633" y="224.5117">ratio_percent</text><text fill="#000000" font-family="sans-serif" font-size="14" lengthAdjust="spacing" textLength="31" x="737" y="224.5117">0.01</text><line style="stroke:#000000;stroke-width:1.0;" x1="732" x2="732" y1="208.9766" y2="229.4648"/><rect fill="none" height="61.4648" rx="5" ry="5" style="stroke:#000000;stroke-width:1.5;" width="1385" x="628" y="168"/><rect fill="#F1F1F1" height="61.4648" rx="5" ry="5" style="stroke:#F1F1F1;stroke-width:1.5;" width="1374" x="633.5" y="247"/><text fill="#000000" font-family="sans-serif" font-size="14" font-weight="bold" lengthAdjust="spacing" textLength="94" x="638.5" y="262.5352">field_value_1</text><text fill="#000000" font-family="sans-serif" font-size="14" lengthAdjust="spacing" textLength="1260" x="742.5" y="262.5352">0.100.131.159 - - [2015-05-18T10:10:51.408Z] "GET /uploads/jack-lousma.jpg HTTP/1.1" 200 7519 "-" "Mozilla/4.0 (compatible; MSIE 6.0; Windows NT 5.1; SV1; .NET CLR 1.1.4322)"</text><line style="stroke:#000000;stroke-width:1.0;" x1="737.5" x2="737.5" y1="247" y2="267.4883"/><line style="stroke:#000000;stroke-width:1.0;" x1="633.5" x2="2007.5" y1="267.4883" y2="267.4883"/><text fill="#000000" font-family="sans-serif" font-size="14" font-weight="bold" lengthAdjust="spacing" textLength="74" x="638.5" y="283.0234">row_count</text><text fill="#000000" font-family="sans-serif" font-size="14" lengthAdjust="spacing" textLength="9" x="742.5" y="283.0234">1</text><line style="stroke:#000000;stroke-width:1.0;" x1="737.5" x2="737.5" y1="267.4883" y2="287.9766"/><line style="stroke:#000000;stroke-width:1.0;" x1="633.5" x2="2007.5" y1="287.9766" y2="287.9766"/><text fill="#000000" font-family="sans-serif" font-size="14" font-weight="bold" lengthAdjust="spacing" textLength="94" x="638.5" y="303.5117">ratio_percent</text><text fill="#000000" font-family="sans-serif" font-size="14" lengthAdjust="spacing" textLength="31" x="742.5" y="303.5117">0.01</text><line style="stroke:#000000;stroke-width:1.0;" x1="737.5" x2="737.5" y1="287.9766" y2="308.4648"/><rect fill="none" height="61.4648" rx="5" ry="5" style="stroke:#000000;stroke-width:1.5;" width="1374" x="633.5" y="247"/><rect fill="#F1F1F1" height="61.4648" rx="5" ry="5" style="stroke:#F1F1F1;stroke-width:1.5;" width="1396" x="622.5" y="326"/><text fill="#000000" font-family="sans-serif" font-size="14" font-weight="bold" lengthAdjust="spacing" textLength="94" x="627.5" y="341.5352">field_value_1</text><text fill="#000000" font-family="sans-serif" font-size="14" lengthAdjust="spacing" textLength="1282" x="731.5" y="341.5352">0.100.131.159 - - [2015-05-18T17:35:46.307Z] "GET /uploads/stephanie-wilson.jpg HTTP/1.1" 200 5137 "-" "Mozilla/5.0 (X11; Linux x86_64; rv:6.0a1) Gecko/20110421 Firefox/6.0a1"</text><line style="stroke:#000000;stroke-width:1.0;" x1="726.5" x2="726.5" y1="326" y2="346.4883"/><line style="stroke:#000000;stroke-width:1.0;" x1="622.5" x2="2018.5" y1="346.4883" y2="346.4883"/><text fill="#000000" font-family="sans-serif" font-size="14" font-weight="bold" lengthAdjust="spacing" textLength="74" x="627.5" y="362.0234">row_count</text><text fill="#000000" font-family="sans-serif" font-size="14" lengthAdjust="spacing" textLength="9" x="731.5" y="362.0234">1</text><line style="stroke:#000000;stroke-width:1.0;" x1="726.5" x2="726.5" y1="346.4883" y2="366.9766"/><line style="stroke:#000000;stroke-width:1.0;" x1="622.5" x2="2018.5" y1="366.9766" y2="366.9766"/><text fill="#000000" font-family="sans-serif" font-size="14" font-weight="bold" lengthAdjust="spacing" textLength="94" x="627.5" y="382.5117">ratio_percent</text><text fill="#000000" font-family="sans-serif" font-size="14" lengthAdjust="spacing" textLength="31" x="731.5" y="382.5117">0.01</text><line style="stroke:#000000;stroke-width:1.0;" x1="726.5" x2="726.5" y1="366.9766" y2="387.4648"/><rect fill="none" height="61.4648" rx="5" ry="5" style="stroke:#000000;stroke-width:1.5;" width="1396" x="622.5" y="326"/><rect fill="#F1F1F1" height="61.4648" rx="5" ry="5" style="stroke:#F1F1F1;stroke-width:1.5;" width="1614" x="513.5" y="405"/><text fill="#000000" font-family="sans-serif" font-size="14" font-weight="bold" lengthAdjust="spacing" textLength="94" x="518.5" y="420.5352">field_value_1</text><text fill="#000000" font-family="sans-serif" font-size="14" lengthAdjust="spacing" textLength="1500" x="622.5" y="420.5352">0.100.131.159 - - [2015-05-19T09:20:47.650Z] "GET /people/type:astronauts/name:william-frederick-fisher/profile HTTP/1.1" 200 9698 "-" "Mozilla/5.0 (X11; Linux x86_64; rv:6.0a1) Gecko/20110421 Firefox/6.0a1"</text><line style="stroke:#000000;stroke-width:1.0;" x1="617.5" x2="617.5" y1="405" y2="425.4883"/><line style="stroke:#000000;stroke-width:1.0;" x1="513.5" x2="2127.5" y1="425.4883" y2="425.4883"/><text fill="#000000" font-family="sans-serif" font-size="14" font-weight="bold" lengthAdjust="spacing" textLength="74" x="518.5" y="441.0234">row_count</text><text fill="#000000" font-family="sans-serif" font-size="14" lengthAdjust="spacing" textLength="9" x="622.5" y="441.0234">1</text><line style="stroke:#000000;stroke-width:1.0;" x1="617.5" x2="617.5" y1="425.4883" y2="445.9766"/><line style="stroke:#000000;stroke-width:1.0;" x1="513.5" x2="2127.5" y1="445.9766" y2="445.9766"/><text fill="#000000" font-family="sans-serif" font-size="14" font-weight="bold" lengthAdjust="spacing" textLength="94" x="518.5" y="461.5117">ratio_percent</text><text fill="#000000" font-family="sans-serif" font-size="14" lengthAdjust="spacing" textLength="31" x="622.5" y="461.5117">0.01</text><line style="stroke:#000000;stroke-width:1.0;" x1="617.5" x2="617.5" y1="445.9766" y2="466.4648"/><rect fill="none" height="61.4648" rx="5" ry="5" style="stroke:#000000;stroke-width:1.5;" width="1614" x="513.5" y="405"/><rect fill="#F1F1F1" height="61.4648" rx="5" ry="5" style="stroke:#F1F1F1;stroke-width:1.5;" width="1367" x="637" y="484"/><text fill="#000000" font-family="sans-serif" font-size="14" font-weight="bold" lengthAdjust="spacing" textLength="94" x="642" y="499.5352">field_value_1</text><text fill="#000000" font-family="sans-serif" font-size="14" lengthAdjust="spacing" textLength="1253" x="746" y="499.5352">0.100.131.159 - - [2015-05-19T11:01:07.684Z] "GET /uploads/rhea-seddon.jpg HTTP/1.1" 200 9583 "-" "Mozilla/5.0 (X11; Linux x86_64; rv:6.0a1) Gecko/20110421 Firefox/6.0a1"</text><line style="stroke:#000000;stroke-width:1.0;" x1="741" x2="741" y1="484" y2="504.4883"/><line style="stroke:#000000;stroke-width:1.0;" x1="637" x2="2004" y1="504.4883" y2="504.4883"/><text fill="#000000" font-family="sans-serif" font-size="14" font-weight="bold" lengthAdjust="spacing" textLength="74" x="642" y="520.0234">row_count</text><text fill="#000000" font-family="sans-serif" font-size="14" lengthAdjust="spacing" textLength="9" x="746" y="520.0234">1</text><line style="stroke:#000000;stroke-width:1.0;" x1="741" x2="741" y1="504.4883" y2="524.9766"/><line style="stroke:#000000;stroke-width:1.0;" x1="637" x2="2004" y1="524.9766" y2="524.9766"/><text fill="#000000" font-family="sans-serif" font-size="14" font-weight="bold" lengthAdjust="spacing" textLength="94" x="642" y="540.5117">ratio_percent</text><text fill="#000000" font-family="sans-serif" font-size="14" lengthAdjust="spacing" textLength="31" x="746" y="540.5117">0.01</text><line style="stroke:#000000;stroke-width:1.0;" x1="741" x2="741" y1="524.9766" y2="545.4648"/><rect fill="none" height="61.4648" rx="5" ry="5" style="stroke:#000000;stroke-width:1.5;" width="1367" x="637" y="484"/><rect fill="#F1F1F1" height="61.4648" rx="5" ry="5" style="stroke:#F1F1F1;stroke-width:1.5;" width="1627" x="507" y="563"/><text fill="#000000" font-family="sans-serif" font-size="14" font-weight="bold" lengthAdjust="spacing" textLength="94" x="512" y="578.5352">field_value_1</text><text fill="#000000" font-family="sans-serif" font-size="14" lengthAdjust="spacing" textLength="1513" x="616" y="578.5352">0.100.131.159 - - [2015-05-19T15:31:20.447Z] "GET /uploads/yuri-onufrienko.png HTTP/1.1" 200 14727 "-" "Mozilla/5.0 (X11; Linux i686) AppleWebKit/534.24 (KHTML, like Gecko) Chrome/11.0.696.50 Safari/534.24"</text><line style="stroke:#000000;stroke-width:1.0;" x1="611" x2="611" y1="563" y2="583.4883"/><line style="stroke:#000000;stroke-width:1.0;" x1="507" x2="2134" y1="583.4883" y2="583.4883"/><text fill="#000000" font-family="sans-serif" font-size="14" font-weight="bold" lengthAdjust="spacing" textLength="74" x="512" y="599.0234">row_count</text><text fill="#000000" font-family="sans-serif" font-size="14" lengthAdjust="spacing" textLength="9" x="616" y="599.0234">1</text><line style="stroke:#000000;stroke-width:1.0;" x1="611" x2="611" y1="583.4883" y2="603.9766"/><line style="stroke:#000000;stroke-width:1.0;" x1="507" x2="2134" y1="603.9766" y2="603.9766"/><text fill="#000000" font-family="sans-serif" font-size="14" font-weight="bold" lengthAdjust="spacing" textLength="94" x="512" y="619.5117">ratio_percent</text><text fill="#000000" font-family="sans-serif" font-size="14" lengthAdjust="spacing" textLength="31" x="616" y="619.5117">0.01</text><line style="stroke:#000000;stroke-width:1.0;" x1="611" x2="611" y1="603.9766" y2="624.4648"/><rect fill="none" height="61.4648" rx="5" ry="5" style="stroke:#000000;stroke-width:1.5;" width="1627" x="507" y="563"/><rect fill="#F1F1F1" height="61.4648" rx="5" ry="5" style="stroke:#F1F1F1;stroke-width:1.5;" width="1384" x="628.5" y="642"/><text fill="#000000" font-family="sans-serif" font-size="14" font-weight="bold" lengthAdjust="spacing" textLength="94" x="633.5" y="657.5352">field_value_1</text><text fill="#000000" font-family="sans-serif" font-size="14" lengthAdjust="spacing" textLength="1270" x="737.5" y="657.5352">0.100.131.159 - - [2015-05-19T15:44:56.563Z] "GET /uploads/reinhard-furrer.jpg HTTP/1.1" 200 8981 "-" "Mozilla/5.0 (X11; Linux x86_64; rv:6.0a1) Gecko/20110421 Firefox/6.0a1"</text><line style="stroke:#000000;stroke-width:1.0;" x1="732.5" x2="732.5" y1="642" y2="662.4883"/><line style="stroke:#000000;stroke-width:1.0;" x1="628.5" x2="2012.5" y1="662.4883" y2="662.4883"/><text fill="#000000" font-family="sans-serif" font-size="14" font-weight="bold" lengthAdjust="spacing" textLength="74" x="633.5" y="678.0234">row_count</text><text fill="#000000" font-family="sans-serif" font-size="14" lengthAdjust="spacing" textLength="9" x="737.5" y="678.0234">1</text><line style="stroke:#000000;stroke-width:1.0;" x1="732.5" x2="732.5" y1="662.4883" y2="682.9766"/><line style="stroke:#000000;stroke-width:1.0;" x1="628.5" x2="2012.5" y1="682.9766" y2="682.9766"/><text fill="#000000" font-family="sans-serif" font-size="14" font-weight="bold" lengthAdjust="spacing" textLength="94" x="633.5" y="698.5117">ratio_percent</text><text fill="#000000" font-family="sans-serif" font-size="14" lengthAdjust="spacing" textLength="31" x="737.5" y="698.5117">0.01</text><line style="stroke:#000000;stroke-width:1.0;" x1="732.5" x2="732.5" y1="682.9766" y2="703.4648"/><rect fill="none" height="61.4648" rx="5" ry="5" style="stroke:#000000;stroke-width:1.5;" width="1384" x="628.5" y="642"/><rect fill="#F1F1F1" height="61.4648" rx="5" ry="5" style="stroke:#F1F1F1;stroke-width:1.5;" width="1376" x="632.5" y="721"/><text fill="#000000" font-family="sans-serif" font-size="14" font-weight="bold" lengthAdjust="spacing" textLength="94" x="637.5" y="736.5352">field_value_1</text><text fill="#000000" font-family="sans-serif" font-size="14" lengthAdjust="spacing" textLength="1262" x="741.5" y="736.5352">0.100.131.159 - - [2015-05-19T17:37:49.988Z] "GET /uploads/kevin-kregel.jpg HTTP/1.1" 200 3047 "-" "Mozilla/4.0 (compatible; MSIE 6.0; Windows NT 5.1; SV1; .NET CLR 1.1.4322)"</text><line style="stroke:#000000;stroke-width:1.0;" x1="736.5" x2="736.5" y1="721" y2="741.4883"/><line style="stroke:#000000;stroke-width:1.0;" x1="632.5" x2="2008.5" y1="741.4883" y2="741.4883"/><text fill="#000000" font-family="sans-serif" font-size="14" font-weight="bold" lengthAdjust="spacing" textLength="74" x="637.5" y="757.0234">row_count</text><text fill="#000000" font-family="sans-serif" font-size="14" lengthAdjust="spacing" textLength="9" x="741.5" y="757.0234">1</text><line style="stroke:#000000;stroke-width:1.0;" x1="736.5" x2="736.5" y1="741.4883" y2="761.9766"/><line style="stroke:#000000;stroke-width:1.0;" x1="632.5" x2="2008.5" y1="761.9766" y2="761.9766"/><text fill="#000000" font-family="sans-serif" font-size="14" font-weight="bold" lengthAdjust="spacing" textLength="94" x="637.5" y="777.5117">ratio_percent</text><text fill="#000000" font-family="sans-serif" font-size="14" lengthAdjust="spacing" textLength="31" x="741.5" y="777.5117">0.01</text><line style="stroke:#000000;stroke-width:1.0;" x1="736.5" x2="736.5" y1="761.9766" y2="782.4648"/><rect fill="none" height="61.4648" rx="5" ry="5" style="stroke:#000000;stroke-width:1.5;" width="1376" x="632.5" y="721"/><path d="M214,315.5 L227,315.5 C247.8273,315.5 244.6143,295.285 263,285.5 C267.4187,283.1484 272.0447,280.9598 276.7859,278.9261 " fill="none" style="stroke:#000000;stroke-width:1.0;stroke-dasharray:3.0,3.0;"/><path d="M277.9339,281.7334 L278.8914,278.0652 L275.638,276.1189 L283.804,276.0563 L277.9339,281.7334 " fill="#000000" style="stroke:#000000;stroke-width:1.0;"/><ellipse cx="214" cy="315.5" fill="#000000" rx="3" ry="3" style="stroke:#000000;stroke-width:1.0;"/><path d="M367,303.5 L380,303.5 C421.2281,303.5 442.1738,314.9755 471,285.5 C535.9848,219.0516 437.3004,140.9848 507,79.5 C508.4488,78.222 509.9594,76.9668 511.5303,75.7341 " fill="none" style="stroke:#000000;stroke-width:1.0;stroke-dasharray:3.0,3.0;"/><path d="M513.3878,78.2762 L513.4369,74.341 L509.6728,73.192 L517.8856,71.0904 L513.3878,78.2762 " fill="#000000" style="stroke:#000000;stroke-width:1.0;"/><ellipse cx="367" cy="303.5" fill="#000000" rx="3" ry="3" style="stroke:#000000;stroke-width:1.0;"/><path d="M367,324.5 L380,324.5 C424.0022,324.5 441.9505,318.5503 471,285.5 C509.7318,241.4339 461.0603,194.9899 507,158.5 C526.5799,142.9477 556.2838,130.9501 592.9385,121.8216 " fill="none" style="stroke:#000000;stroke-width:1.0;stroke-dasharray:3.0,3.0;"/><path d="M593.6536,124.7906 L595.1653,121.2853 L592.2234,118.8525 L600.3612,120.0339 L593.6536,124.7906 " fill="#000000" style="stroke:#000000;stroke-width:1.0;"/><ellipse cx="367" cy="324.5" fill="#000000" rx="3" ry="3" style="stroke:#000000;stroke-width:1.0;"/><path d="M367,344.5 L380,344.5 C428.2012,344.5 435.773,318.4001 471,285.5 C490.4889,267.2985 483.4413,249.9939 507,237.5 C533.272,223.5672 572.8815,213.1617 620.7326,205.5001 " fill="none" style="stroke:#000000;stroke-width:1.0;stroke-dasharray:3.0,3.0;"/><path d="M621.1959,208.4736 L622.9627,205.1526 L620.2693,202.5266 L628.1663,204.3418 L621.1959,208.4736 " fill="#000000" style="stroke:#000000;stroke-width:1.0;"/><ellipse cx="367" cy="344.5" fill="#000000" rx="3" ry="3" style="stroke:#000000;stroke-width:1.0;"/><path d="M367,365.5 L380,365.5 C440.3414,365.5 447.9253,329.7988 507,317.5 C545.7475,309.4331 585.7475,302.6526 626.2621,296.9734 " fill="none" style="stroke:#000000;stroke-width:1.0;stroke-dasharray:3.0,3.0;"/><path d="M626.6812,300.0017 L628.5334,296.6591 L625.8431,293.9451 L633.8329,295.9257 L626.6812,300.0017 " fill="#000000" style="stroke:#000000;stroke-width:1.0;"/><ellipse cx="367" cy="365.5" fill="#000000" rx="3" ry="3" style="stroke:#000000;stroke-width:1.0;"/><path d="M367,385.5 L380,385.5 C456.2181,385.5 535.8959,384.5357 615.2373,382.9588 " fill="none" style="stroke:#000000;stroke-width:1.0;stroke-dasharray:3.0,3.0;"/><path d="M615.2991,386.0296 L617.5404,382.9124 L615.1755,379.888 L622.9143,382.8043 L615.2991,386.0296 " fill="#000000" style="stroke:#000000;stroke-width:1.0;"/><ellipse cx="367" cy="385.5" fill="#000000" rx="3" ry="3" style="stroke:#000000;stroke-width:1.0;"/><path d="M367,406.5 L380,406.5 C421.2015,406.5 463.414,406.7818 506.0378,407.2898 " fill="none" style="stroke:#000000;stroke-width:1.0;stroke-dasharray:3.0,3.0;"/><path d="M506.0002,410.3626 L508.3424,407.318 L506.0754,404.217 L513.7197,407.3837 L506.0002,410.3626 " fill="#000000" style="stroke:#000000;stroke-width:1.0;"/><ellipse cx="367" cy="406.5" fill="#000000" rx="3" ry="3" style="stroke:#000000;stroke-width:1.0;"/><path d="M367,427.5 L380,427.5 C440.3414,427.5 447.9177,463.2374 507,475.5 C546.891,483.7794 588.1087,490.6886 629.8484,496.4312 " fill="none" style="stroke:#000000;stroke-width:1.0;stroke-dasharray:3.0,3.0;"/><path d="M629.4397,499.4407 L632.1055,496.7377 L630.2571,493.4217 L637.3722,497.453 L629.4397,499.4407 " fill="#000000" style="stroke:#000000;stroke-width:1.0;"/><ellipse cx="367" cy="427.5" fill="#000000" rx="3" ry="3" style="stroke:#000000;stroke-width:1.0;"/><path d="M367,447.5 L380,447.5 C453.8072,447.5 438.2957,527.5328 507,554.5 C512.1433,556.5188 517.3192,558.4851 522.5255,560.3999 " fill="none" style="stroke:#000000;stroke-width:1.0;stroke-dasharray:3.0,3.0;"/><path d="M521.4938,563.2471 L524.6609,561.1737 L523.5572,557.5527 L529.6436,562.9792 L521.4938,563.2471 " fill="#000000" style="stroke:#000000;stroke-width:1.0;"/><ellipse cx="367" cy="447.5" fill="#000000" rx="3" ry="3" style="stroke:#000000;stroke-width:1.0;"/><path d="M367,468.5 L380,468.5 C472.5405,468.5 424.9757,590.6542 507,633.5 C533.4329,647.3074 573.2502,657.6219 621.3198,665.22 " fill="none" style="stroke:#000000;stroke-width:1.0;stroke-dasharray:3.0,3.0;"/><path d="M620.8603,668.207 L623.56,665.5647 L621.7793,662.233 L628.7872,666.3688 L620.8603,668.207 " fill="#000000" style="stroke:#000000;stroke-width:1.0;"/><ellipse cx="367" cy="468.5" fill="#000000" rx="3" ry="3" style="stroke:#000000;stroke-width:1.0;"/><path d="M367,488.5 L380,488.5 C494.4434,488.5 409.5227,652.5378 507,712.5 C533.4567,728.7746 574.803,740.6097 625.1446,749.0501 " fill="none" style="stroke:#000000;stroke-width:1.0;stroke-dasharray:3.0,3.0;"/><path d="M624.6562,752.0469 L627.3922,749.4163 L625.6329,746.0533 L632.6366,750.2709 L624.6562,752.0469 " fill="#000000" style="stroke:#000000;stroke-width:1.0;"/><ellipse cx="367" cy="488.5" fill="#000000" rx="3" ry="3" style="stroke:#000000;stroke-width:1.0;"/><path d="M214,336.5 L227,336.5 C274.0497,336.5 323.2629,365.8357 348.6101,383.482 " fill="none" style="stroke:#000000;stroke-width:1.0;stroke-dasharray:3.0,3.0;"/><path d="M346.8416,385.964 L350.4716,384.8085 L350.3787,381.0001 L354.815,387.9035 L346.8416,385.964 " fill="#000000" style="stroke:#000000;stroke-width:1.0;"/><ellipse cx="214" cy="336.5" fill="#000000" rx="3" ry="3" style="stroke:#000000;stroke-width:1.0;"/><!--MD5=[bfa0d90adf0eb2a4e31088b565846c7c]
@startjson
{
    "field1": "@message",
    "combination": "@message",
    "null_distribution": {
        "total_null_rows": 0,
        "total_not_null_rows": 14005
    },
    "data_distribution": [
        {
            "field_value_1": "0.100.131.159 - - [2015-05-18T03:57:19.769Z] \"GET /uploads/janet-l-kavandi.jpg HTTP/1.1\" 200 8479 \"-\" \"Mozilla/5.0 (X11; Linux i686) AppleWebKit/534.24 (KHTML, like Gecko) Chrome/11.0.696.50 Safari/534.24\"",
            "row_count": 1,
            "ratio_percent": 0.01
        },
        {
            "field_value_1": "0.100.131.159 - - [2015-05-18T07:19:37.797Z] \"GET /uploads/william-frederick-fisher.jpg HTTP/1.1\" 200 4535 \"-\" \"Mozilla/5.0 (X11; Linux x86_64; rv:6.0a1) Gecko/20110421 Firefox/6.0a1\"",
            "row_count": 1,
            "ratio_percent": 0.01
        },
        {
            "field_value_1": "0.100.131.159 - - [2015-05-18T07:28:10.028Z] \"GET /uploads/thomas-akers.jpg HTTP/1.1\" 200 9225 \"-\" \"Mozilla/4.0 (compatible; MSIE 6.0; Windows NT 5.1; SV1; .NET CLR 1.1.4322)\"",
            "row_count": 1,
            "ratio_percent": 0.01
        },
        {
            "field_value_1": "0.100.131.159 - - [2015-05-18T10:10:51.408Z] \"GET /uploads/jack-lousma.jpg HTTP/1.1\" 200 7519 \"-\" \"Mozilla/4.0 (compatible; MSIE 6.0; Windows NT 5.1; SV1; .NET CLR 1.1.4322)\"",
            "row_count": 1,
            "ratio_percent": 0.01
        },
        {
            "field_value_1": "0.100.131.159 - - [2015-05-18T17:35:46.307Z] \"GET /uploads/stephanie-wilson.jpg HTTP/1.1\" 200 5137 \"-\" \"Mozilla/5.0 (X11; Linux x86_64; rv:6.0a1) Gecko/20110421 Firefox/6.0a1\"",
            "row_count": 1,
            "ratio_percent": 0.01
        },
        {
            "field_value_1": "0.100.131.159 - - [2015-05-19T09:20:47.650Z] \"GET /people/type:astronauts/name:william-frederick-fisher/profile HTTP/1.1\" 200 9698 \"-\" \"Mozilla/5.0 (X11; Linux x86_64; rv:6.0a1) Gecko/20110421 Firefox/6.0a1\"",
            "row_count": 1,
            "ratio_percent": 0.01
        },
        {
            "field_value_1": "0.100.131.159 - - [2015-05-19T11:01:07.684Z] \"GET /uploads/rhea-seddon.jpg HTTP/1.1\" 200 9583 \"-\" \"Mozilla/5.0 (X11; Linux x86_64; rv:6.0a1) Gecko/20110421 Firefox/6.0a1\"",
            "row_count": 1,
            "ratio_percent": 0.01
        },
        {
            "field_value_1": "0.100.131.159 - - [2015-05-19T15:31:20.447Z] \"GET /uploads/yuri-onufrienko.png HTTP/1.1\" 200 14727 \"-\" \"Mozilla/5.0 (X11; Linux i686) AppleWebKit/534.24 (KHTML, like Gecko) Chrome/11.0.696.50 Safari/534.24\"",
            "row_count": 1,
            "ratio_percent": 0.01
        },
        {
            "field_value_1": "0.100.131.159 - - [2015-05-19T15:44:56.563Z] \"GET /uploads/reinhard-furrer.jpg HTTP/1.1\" 200 8981 \"-\" \"Mozilla/5.0 (X11; Linux x86_64; rv:6.0a1) Gecko/20110421 Firefox/6.0a1\"",
            "row_count": 1,
            "ratio_percent": 0.01
        },
        {
            "field_value_1": "0.100.131.159 - - [2015-05-19T17:37:49.988Z] \"GET /uploads/kevin-kregel.jpg HTTP/1.1\" 200 3047 \"-\" \"Mozilla/4.0 (compatible; MSIE 6.0; Windows NT 5.1; SV1; .NET CLR 1.1.4322)\"",
            "row_count": 1,
            "ratio_percent": 0.01
        }
    ]
}
@endjson

PlantUML version 1.2022.12(Sun Oct 23 14:12:26 EDT 2022)
(GPL source distribution)
Java Runtime: OpenJDK Runtime Environment
JVM: OpenJDK 64-Bit Server VM
Default Encoding: UTF-8
Language: en
Country: CA
--></g></svg>