<?xml version="1.0" encoding="UTF-8" standalone="no"?><svg xmlns="http://www.w3.org/2000/svg" xmlns:xlink="http://www.w3.org/1999/xlink" contentStyleType="text/css" height="794px" preserveAspectRatio="none" style="width:952px;height:794px;background:#FFFFFF;" version="1.1" viewBox="0 0 952 794" width="952px" zoomAndPan="magnify"><defs/><g><rect fill="#F1F1F1" height="81.9531" rx="5" ry="5" style="stroke:#F1F1F1;stroke-width:1.5;" width="191" x="10" y="264.5"/><text fill="#000000" font-family="sans-serif" font-size="14" font-weight="bold" lengthAdjust="spacing" textLength="42" x="15" y="280.0352">field1</text><text fill="#000000" font-family="sans-serif" font-size="14" lengthAdjust="spacing" textLength="47" x="149" y="280.0352">referer</text><line style="stroke:#000000;stroke-width:1.0;" x1="144" x2="144" y1="264.5" y2="284.9883"/><line style="stroke:#000000;stroke-width:1.0;" x1="10" x2="201" y1="284.9883" y2="284.9883"/><text fill="#000000" font-family="sans-serif" font-size="14" font-weight="bold" lengthAdjust="spacing" textLength="90" x="15" y="300.5234">combination</text><text fill="#000000" font-family="sans-serif" font-size="14" lengthAdjust="spacing" textLength="47" x="149" y="300.5234">referer</text><line style="stroke:#000000;stroke-width:1.0;" x1="144" x2="144" y1="284.9883" y2="305.4766"/><line style="stroke:#000000;stroke-width:1.0;" x1="10" x2="201" y1="305.4766" y2="305.4766"/><text fill="#000000" font-family="sans-serif" font-size="14" font-weight="bold" lengthAdjust="spacing" textLength="121" x="15" y="321.0117">null_distribution</text><text fill="#000000" font-family="sans-serif" font-size="14" lengthAdjust="spacing" textLength="12" x="149" y="321.0117">   </text><line style="stroke:#000000;stroke-width:1.0;" x1="144" x2="144" y1="305.4766" y2="325.9648"/><line style="stroke:#000000;stroke-width:1.0;" x1="10" x2="201" y1="325.9648" y2="325.9648"/><text fill="#000000" font-family="sans-serif" font-size="14" font-weight="bold" lengthAdjust="spacing" textLength="124" x="15" y="341.5">data_distribution</text><text fill="#000000" font-family="sans-serif" font-size="14" lengthAdjust="spacing" textLength="12" x="149" y="341.5">   </text><line style="stroke:#000000;stroke-width:1.0;" x1="144" x2="144" y1="325.9648" y2="346.4531"/><rect fill="none" height="81.9531" rx="5" ry="5" style="stroke:#000000;stroke-width:1.5;" width="191" x="10" y="264.5"/><rect fill="#F1F1F1" height="40.9766" rx="5" ry="5" style="stroke:#F1F1F1;stroke-width:1.5;" width="207" x="238" y="235"/><text fill="#000000" font-family="sans-serif" font-size="14" font-weight="bold" lengthAdjust="spacing" textLength="111" x="243" y="250.5352">total_null_rows</text><text fill="#000000" font-family="sans-serif" font-size="14" lengthAdjust="spacing" textLength="9" x="395" y="250.5352">0</text><line style="stroke:#000000;stroke-width:1.0;" x1="390" x2="390" y1="235" y2="255.4883"/><line style="stroke:#000000;stroke-width:1.0;" x1="238" x2="445" y1="255.4883" y2="255.4883"/><text fill="#000000" font-family="sans-serif" font-size="14" font-weight="bold" lengthAdjust="spacing" textLength="142" x="243" y="271.0234">total_not_null_rows</text><text fill="#000000" font-family="sans-serif" font-size="14" lengthAdjust="spacing" textLength="45" x="395" y="271.0234">14005</text><line style="stroke:#000000;stroke-width:1.0;" x1="390" x2="390" y1="255.4883" y2="275.9766"/><rect fill="none" height="40.9766" rx="5" ry="5" style="stroke:#000000;stroke-width:1.5;" width="207" x="238" y="235"/><rect fill="#F1F1F1" height="204.8828" rx="5" ry="5" style="stroke:#F1F1F1;stroke-width:1.5;" width="22" x="329.5" y="294"/><text fill="#000000" font-family="sans-serif" font-size="14" lengthAdjust="spacing" textLength="12" x="334.5" y="309.5352">   </text><line style="stroke:#000000;stroke-width:1.0;" x1="329.5" x2="351.5" y1="314.4883" y2="314.4883"/><text fill="#000000" font-family="sans-serif" font-size="14" lengthAdjust="spacing" textLength="12" x="334.5" y="330.0234">   </text><line style="stroke:#000000;stroke-width:1.0;" x1="329.5" x2="351.5" y1="334.9766" y2="334.9766"/><text fill="#000000" font-family="sans-serif" font-size="14" lengthAdjust="spacing" textLength="12" x="334.5" y="350.5117">   </text><line style="stroke:#000000;stroke-width:1.0;" x1="329.5" x2="351.5" y1="355.4648" y2="355.4648"/><text fill="#000000" font-family="sans-serif" font-size="14" lengthAdjust="spacing" textLength="12" x="334.5" y="371">   </text><line style="stroke:#000000;stroke-width:1.0;" x1="329.5" x2="351.5" y1="375.9531" y2="375.9531"/><text fill="#000000" font-family="sans-serif" font-size="14" lengthAdjust="spacing" textLength="12" x="334.5" y="391.4883">   </text><line style="stroke:#000000;stroke-width:1.0;" x1="329.5" x2="351.5" y1="396.4414" y2="396.4414"/><text fill="#000000" font-family="sans-serif" font-size="14" lengthAdjust="spacing" textLength="12" x="334.5" y="411.9766">   </text><line style="stroke:#000000;stroke-width:1.0;" x1="329.5" x2="351.5" y1="416.9297" y2="416.9297"/><text fill="#000000" font-family="sans-serif" font-size="14" lengthAdjust="spacing" textLength="12" x="334.5" y="432.4648">   </text><line style="stroke:#000000;stroke-width:1.0;" x1="329.5" x2="351.5" y1="437.418" y2="437.418"/><text fill="#000000" font-family="sans-serif" font-size="14" lengthAdjust="spacing" textLength="12" x="334.5" y="452.9531">   </text><line style="stroke:#000000;stroke-width:1.0;" x1="329.5" x2="351.5" y1="457.9063" y2="457.9063"/><text fill="#000000" font-family="sans-serif" font-size="14" lengthAdjust="spacing" textLength="12" x="334.5" y="473.4414">   </text><line style="stroke:#000000;stroke-width:1.0;" x1="329.5" x2="351.5" y1="478.3945" y2="478.3945"/><text fill="#000000" font-family="sans-serif" font-size="14" lengthAdjust="spacing" textLength="12" x="334.5" y="493.9297">   </text><rect fill="none" height="204.8828" rx="5" ry="5" style="stroke:#000000;stroke-width:1.5;" width="22" x="329.5" y="294"/><rect fill="#F1F1F1" height="61.4648" rx="5" ry="5" style="stroke:#F1F1F1;stroke-width:1.5;" width="440" x="491" y="10"/><text fill="#000000" font-family="sans-serif" font-size="14" font-weight="bold" lengthAdjust="spacing" textLength="94" x="496" y="25.5352">field_value_1</text><text fill="#000000" font-family="sans-serif" font-size="14" lengthAdjust="spacing" textLength="326" x="600" y="25.5352">http://www.slate.com/success/henry-hartsfield</text><line style="stroke:#000000;stroke-width:1.0;" x1="595" x2="595" y1="10" y2="30.4883"/><line style="stroke:#000000;stroke-width:1.0;" x1="491" x2="931" y1="30.4883" y2="30.4883"/><text fill="#000000" font-family="sans-serif" font-size="14" font-weight="bold" lengthAdjust="spacing" textLength="74" x="496" y="46.0234">row_count</text><text fill="#000000" font-family="sans-serif" font-size="14" lengthAdjust="spacing" textLength="18" x="600" y="46.0234">20</text><line style="stroke:#000000;stroke-width:1.0;" x1="595" x2="595" y1="30.4883" y2="50.9766"/><line style="stroke:#000000;stroke-width:1.0;" x1="491" x2="931" y1="50.9766" y2="50.9766"/><text fill="#000000" font-family="sans-serif" font-size="14" font-weight="bold" lengthAdjust="spacing" textLength="94" x="496" y="66.5117">ratio_percent</text><text fill="#000000" font-family="sans-serif" font-size="14" lengthAdjust="spacing" textLength="31" x="600" y="66.5117">0.14</text><line style="stroke:#000000;stroke-width:1.0;" x1="595" x2="595" y1="50.9766" y2="71.4648"/><rect fill="none" height="61.4648" rx="5" ry="5" style="stroke:#000000;stroke-width:1.5;" width="440" x="491" y="10"/><rect fill="#F1F1F1" height="61.4648" rx="5" ry="5" style="stroke:#F1F1F1;stroke-width:1.5;" width="421" x="500.5" y="89"/><text fill="#000000" font-family="sans-serif" font-size="14" font-weight="bold" lengthAdjust="spacing" textLength="94" x="505.5" y="104.5352">field_value_1</text><text fill="#000000" font-family="sans-serif" font-size="14" lengthAdjust="spacing" textLength="307" x="609.5" y="104.5352">http://www.slate.com/success/vladimir-titov</text><line style="stroke:#000000;stroke-width:1.0;" x1="604.5" x2="604.5" y1="89" y2="109.4883"/><line style="stroke:#000000;stroke-width:1.0;" x1="500.5" x2="921.5" y1="109.4883" y2="109.4883"/><text fill="#000000" font-family="sans-serif" font-size="14" font-weight="bold" lengthAdjust="spacing" textLength="74" x="505.5" y="125.0234">row_count</text><text fill="#000000" font-family="sans-serif" font-size="14" lengthAdjust="spacing" textLength="18" x="609.5" y="125.0234">19</text><line style="stroke:#000000;stroke-width:1.0;" x1="604.5" x2="604.5" y1="109.4883" y2="129.9766"/><line style="stroke:#000000;stroke-width:1.0;" x1="500.5" x2="921.5" y1="129.9766" y2="129.9766"/><text fill="#000000" font-family="sans-serif" font-size="14" font-weight="bold" lengthAdjust="spacing" textLength="94" x="505.5" y="145.5117">ratio_percent</text><text fill="#000000" font-family="sans-serif" font-size="14" lengthAdjust="spacing" textLength="31" x="609.5" y="145.5117">0.14</text><line style="stroke:#000000;stroke-width:1.0;" x1="604.5" x2="604.5" y1="129.9766" y2="150.4648"/><rect fill="none" height="61.4648" rx="5" ry="5" style="stroke:#000000;stroke-width:1.5;" width="421" x="500.5" y="89"/><rect fill="#F1F1F1" height="61.4648" rx="5" ry="5" style="stroke:#F1F1F1;stroke-width:1.5;" width="446" x="488" y="168"/><text fill="#000000" font-family="sans-serif" font-size="14" font-weight="bold" lengthAdjust="spacing" textLength="94" x="493" y="183.5352">field_value_1</text><text fill="#000000" font-family="sans-serif" font-size="14" lengthAdjust="spacing" textLength="332" x="597" y="183.5352">http://www.slate.com/success/martin-j-fettman</text><line style="stroke:#000000;stroke-width:1.0;" x1="592" x2="592" y1="168" y2="188.4883"/><line style="stroke:#000000;stroke-width:1.0;" x1="488" x2="934" y1="188.4883" y2="188.4883"/><text fill="#000000" font-family="sans-serif" font-size="14" font-weight="bold" lengthAdjust="spacing" textLength="74" x="493" y="204.0234">row_count</text><text fill="#000000" font-family="sans-serif" font-size="14" lengthAdjust="spacing" textLength="18" x="597" y="204.0234">18</text><line style="stroke:#000000;stroke-width:1.0;" x1="592" x2="592" y1="188.4883" y2="208.9766"/><line style="stroke:#000000;stroke-width:1.0;" x1="488" x2="934" y1="208.9766" y2="208.9766"/><text fill="#000000" font-family="sans-serif" font-size="14" font-weight="bold" lengthAdjust="spacing" textLength="94" x="493" y="224.5117">ratio_percent</text><text fill="#000000" font-family="sans-serif" font-size="14" lengthAdjust="spacing" textLength="31" x="597" y="224.5117">0.13</text><line style="stroke:#000000;stroke-width:1.0;" x1="592" x2="592" y1="208.9766" y2="229.4648"/><rect fill="none" height="61.4648" rx="5" ry="5" style="stroke:#000000;stroke-width:1.5;" width="446" x="488" y="168"/><rect fill="#F1F1F1" height="61.4648" rx="5" ry="5" style="stroke:#F1F1F1;stroke-width:1.5;" width="455" x="483.5" y="247"/><text fill="#000000" font-family="sans-serif" font-size="14" font-weight="bold" lengthAdjust="spacing" textLength="94" x="488.5" y="262.5352">field_value_1</text><text fill="#000000" font-family="sans-serif" font-size="14" lengthAdjust="spacing" textLength="341" x="592.5" y="262.5352">http://www.slate.com/success/douglas-wheelock</text><line style="stroke:#000000;stroke-width:1.0;" x1="587.5" x2="587.5" y1="247" y2="267.4883"/><line style="stroke:#000000;stroke-width:1.0;" x1="483.5" x2="938.5" y1="267.4883" y2="267.4883"/><text fill="#000000" font-family="sans-serif" font-size="14" font-weight="bold" lengthAdjust="spacing" textLength="74" x="488.5" y="283.0234">row_count</text><text fill="#000000" font-family="sans-serif" font-size="14" lengthAdjust="spacing" textLength="18" x="592.5" y="283.0234">17</text><line style="stroke:#000000;stroke-width:1.0;" x1="587.5" x2="587.5" y1="267.4883" y2="287.9766"/><line style="stroke:#000000;stroke-width:1.0;" x1="483.5" x2="938.5" y1="287.9766" y2="287.9766"/><text fill="#000000" font-family="sans-serif" font-size="14" font-weight="bold" lengthAdjust="spacing" textLength="94" x="488.5" y="303.5117">ratio_percent</text><text fill="#000000" font-family="sans-serif" font-size="14" lengthAdjust="spacing" textLength="31" x="592.5" y="303.5117">0.12</text><line style="stroke:#000000;stroke-width:1.0;" x1="587.5" x2="587.5" y1="287.9766" y2="308.4648"/><rect fill="none" height="61.4648" rx="5" ry="5" style="stroke:#000000;stroke-width:1.5;" width="455" x="483.5" y="247"/><rect fill="#F1F1F1" height="61.4648" rx="5" ry="5" style="stroke:#F1F1F1;stroke-width:1.5;" width="439" x="491.5" y="326"/><text fill="#000000" font-family="sans-serif" font-size="14" font-weight="bold" lengthAdjust="spacing" textLength="94" x="496.5" y="341.5352">field_value_1</text><text fill="#000000" font-family="sans-serif" font-size="14" lengthAdjust="spacing" textLength="325" x="600.5" y="341.5352">http://www.slate.com/success/lloyd-hammond</text><line style="stroke:#000000;stroke-width:1.0;" x1="595.5" x2="595.5" y1="326" y2="346.4883"/><line style="stroke:#000000;stroke-width:1.0;" x1="491.5" x2="930.5" y1="346.4883" y2="346.4883"/><text fill="#000000" font-family="sans-serif" font-size="14" font-weight="bold" lengthAdjust="spacing" textLength="74" x="496.5" y="362.0234">row_count</text><text fill="#000000" font-family="sans-serif" font-size="14" lengthAdjust="spacing" textLength="18" x="600.5" y="362.0234">17</text><line style="stroke:#000000;stroke-width:1.0;" x1="595.5" x2="595.5" y1="346.4883" y2="366.9766"/><line style="stroke:#000000;stroke-width:1.0;" x1="491.5" x2="930.5" y1="366.9766" y2="366.9766"/><text fill="#000000" font-family="sans-serif" font-size="14" font-weight="bold" lengthAdjust="spacing" textLength="94" x="496.5" y="382.5117">ratio_percent</text><text fill="#000000" font-family="sans-serif" font-size="14" lengthAdjust="spacing" textLength="31" x="600.5" y="382.5117">0.12</text><line style="stroke:#000000;stroke-width:1.0;" x1="595.5" x2="595.5" y1="366.9766" y2="387.4648"/><rect fill="none" height="61.4648" rx="5" ry="5" style="stroke:#000000;stroke-width:1.5;" width="439" x="491.5" y="326"/><rect fill="#F1F1F1" height="61.4648" rx="5" ry="5" style="stroke:#F1F1F1;stroke-width:1.5;" width="448" x="487" y="405"/><text fill="#000000" font-family="sans-serif" font-size="14" font-weight="bold" lengthAdjust="spacing" textLength="94" x="492" y="420.5352">field_value_1</text><text fill="#000000" font-family="sans-serif" font-size="14" lengthAdjust="spacing" textLength="334" x="596" y="420.5352">http://www.slate.com/success/william-c-mccool</text><line style="stroke:#000000;stroke-width:1.0;" x1="591" x2="591" y1="405" y2="425.4883"/><line style="stroke:#000000;stroke-width:1.0;" x1="487" x2="935" y1="425.4883" y2="425.4883"/><text fill="#000000" font-family="sans-serif" font-size="14" font-weight="bold" lengthAdjust="spacing" textLength="74" x="492" y="441.0234">row_count</text><text fill="#000000" font-family="sans-serif" font-size="14" lengthAdjust="spacing" textLength="18" x="596" y="441.0234">17</text><line style="stroke:#000000;stroke-width:1.0;" x1="591" x2="591" y1="425.4883" y2="445.9766"/><line style="stroke:#000000;stroke-width:1.0;" x1="487" x2="935" y1="445.9766" y2="445.9766"/><text fill="#000000" font-family="sans-serif" font-size="14" font-weight="bold" lengthAdjust="spacing" textLength="94" x="492" y="461.5117">ratio_percent</text><text fill="#000000" font-family="sans-serif" font-size="14" lengthAdjust="spacing" textLength="31" x="596" y="461.5117">0.12</text><line style="stroke:#000000;stroke-width:1.0;" x1="591" x2="591" y1="445.9766" y2="466.4648"/><rect fill="none" height="61.4648" rx="5" ry="5" style="stroke:#000000;stroke-width:1.5;" width="448" x="487" y="405"/><rect fill="#F1F1F1" height="61.4648" rx="5" ry="5" style="stroke:#F1F1F1;stroke-width:1.5;" width="458" x="482" y="484"/><text fill="#000000" font-family="sans-serif" font-size="14" font-weight="bold" lengthAdjust="spacing" textLength="94" x="487" y="499.5352">field_value_1</text><text fill="#000000" font-family="sans-serif" font-size="14" lengthAdjust="spacing" textLength="344" x="591" y="499.5352">http://www.slate.com/success/aleksandr-laveykin</text><line style="stroke:#000000;stroke-width:1.0;" x1="586" x2="586" y1="484" y2="504.4883"/><line style="stroke:#000000;stroke-width:1.0;" x1="482" x2="940" y1="504.4883" y2="504.4883"/><text fill="#000000" font-family="sans-serif" font-size="14" font-weight="bold" lengthAdjust="spacing" textLength="74" x="487" y="520.0234">row_count</text><text fill="#000000" font-family="sans-serif" font-size="14" lengthAdjust="spacing" textLength="18" x="591" y="520.0234">16</text><line style="stroke:#000000;stroke-width:1.0;" x1="586" x2="586" y1="504.4883" y2="524.9766"/><line style="stroke:#000000;stroke-width:1.0;" x1="482" x2="940" y1="524.9766" y2="524.9766"/><text fill="#000000" font-family="sans-serif" font-size="14" font-weight="bold" lengthAdjust="spacing" textLength="94" x="487" y="540.5117">ratio_percent</text><text fill="#000000" font-family="sans-serif" font-size="14" lengthAdjust="spacing" textLength="31" x="591" y="540.5117">0.11</text><line style="stroke:#000000;stroke-width:1.0;" x1="586" x2="586" y1="524.9766" y2="545.4648"/><rect fill="none" height="61.4648" rx="5" ry="5" style="stroke:#000000;stroke-width:1.5;" width="458" x="482" y="484"/><rect fill="#F1F1F1" height="61.4648" rx="5" ry="5" style="stroke:#F1F1F1;stroke-width:1.5;" width="444" x="489" y="563"/><text fill="#000000" font-family="sans-serif" font-size="14" font-weight="bold" lengthAdjust="spacing" textLength="94" x="494" y="578.5352">field_value_1</text><text fill="#000000" font-family="sans-serif" font-size="14" lengthAdjust="spacing" textLength="330" x="598" y="578.5352">http://www.slate.com/success/anatoly-solovyev</text><line style="stroke:#000000;stroke-width:1.0;" x1="593" x2="593" y1="563" y2="583.4883"/><line style="stroke:#000000;stroke-width:1.0;" x1="489" x2="933" y1="583.4883" y2="583.4883"/><text fill="#000000" font-family="sans-serif" font-size="14" font-weight="bold" lengthAdjust="spacing" textLength="74" x="494" y="599.0234">row_count</text><text fill="#000000" font-family="sans-serif" font-size="14" lengthAdjust="spacing" textLength="18" x="598" y="599.0234">16</text><line style="stroke:#000000;stroke-width:1.0;" x1="593" x2="593" y1="583.4883" y2="603.9766"/><line style="stroke:#000000;stroke-width:1.0;" x1="489" x2="933" y1="603.9766" y2="603.9766"/><text fill="#000000" font-family="sans-serif" font-size="14" font-weight="bold" lengthAdjust="spacing" textLength="94" x="494" y="619.5117">ratio_percent</text><text fill="#000000" font-family="sans-serif" font-size="14" lengthAdjust="spacing" textLength="31" x="598" y="619.5117">0.11</text><line style="stroke:#000000;stroke-width:1.0;" x1="593" x2="593" y1="603.9766" y2="624.4648"/><rect fill="none" height="61.4648" rx="5" ry="5" style="stroke:#000000;stroke-width:1.5;" width="444" x="489" y="563"/><rect fill="#F1F1F1" height="61.4648" rx="5" ry="5" style="stroke:#F1F1F1;stroke-width:1.5;" width="414" x="504" y="642"/><text fill="#000000" font-family="sans-serif" font-size="14" font-weight="bold" lengthAdjust="spacing" textLength="94" x="509" y="657.5352">field_value_1</text><text fill="#000000" font-family="sans-serif" font-size="14" lengthAdjust="spacing" textLength="300" x="613" y="657.5352">http://www.slate.com/success/daniel-barry</text><line style="stroke:#000000;stroke-width:1.0;" x1="608" x2="608" y1="642" y2="662.4883"/><line style="stroke:#000000;stroke-width:1.0;" x1="504" x2="918" y1="662.4883" y2="662.4883"/><text fill="#000000" font-family="sans-serif" font-size="14" font-weight="bold" lengthAdjust="spacing" textLength="74" x="509" y="678.0234">row_count</text><text fill="#000000" font-family="sans-serif" font-size="14" lengthAdjust="spacing" textLength="18" x="613" y="678.0234">16</text><line style="stroke:#000000;stroke-width:1.0;" x1="608" x2="608" y1="662.4883" y2="682.9766"/><line style="stroke:#000000;stroke-width:1.0;" x1="504" x2="918" y1="682.9766" y2="682.9766"/><text fill="#000000" font-family="sans-serif" font-size="14" font-weight="bold" lengthAdjust="spacing" textLength="94" x="509" y="698.5117">ratio_percent</text><text fill="#000000" font-family="sans-serif" font-size="14" lengthAdjust="spacing" textLength="31" x="613" y="698.5117">0.11</text><line style="stroke:#000000;stroke-width:1.0;" x1="608" x2="608" y1="682.9766" y2="703.4648"/><rect fill="none" height="61.4648" rx="5" ry="5" style="stroke:#000000;stroke-width:1.5;" width="414" x="504" y="642"/><rect fill="#F1F1F1" height="61.4648" rx="5" ry="5" style="stroke:#F1F1F1;stroke-width:1.5;" width="442" x="490" y="721"/><text fill="#000000" font-family="sans-serif" font-size="14" font-weight="bold" lengthAdjust="spacing" textLength="94" x="495" y="736.5352">field_value_1</text><text fill="#000000" font-family="sans-serif" font-size="14" lengthAdjust="spacing" textLength="328" x="599" y="736.5352">http://www.slate.com/success/duane-graveline</text><line style="stroke:#000000;stroke-width:1.0;" x1="594" x2="594" y1="721" y2="741.4883"/><line style="stroke:#000000;stroke-width:1.0;" x1="490" x2="932" y1="741.4883" y2="741.4883"/><text fill="#000000" font-family="sans-serif" font-size="14" font-weight="bold" lengthAdjust="spacing" textLength="74" x="495" y="757.0234">row_count</text><text fill="#000000" font-family="sans-serif" font-size="14" lengthAdjust="spacing" textLength="18" x="599" y="757.0234">16</text><line style="stroke:#000000;stroke-width:1.0;" x1="594" x2="594" y1="741.4883" y2="761.9766"/><line style="stroke:#000000;stroke-width:1.0;" x1="490" x2="932" y1="761.9766" y2="761.9766"/><text fill="#000000" font-family="sans-serif" font-size="14" font-weight="bold" lengthAdjust="spacing" textLength="94" x="495" y="777.5117">ratio_percent</text><text fill="#000000" font-family="sans-serif" font-size="14" lengthAdjust="spacing" textLength="31" x="599" y="777.5117">0.11</text><line style="stroke:#000000;stroke-width:1.0;" x1="594" x2="594" y1="761.9766" y2="782.4648"/><rect fill="none" height="61.4648" rx="5" ry="5" style="stroke:#000000;stroke-width:1.5;" width="442" x="490" y="721"/><path d="M189,315.5 L202,315.5 C222.8273,315.5 219.6143,295.285 238,285.5 C242.4187,283.1484 247.0447,280.9598 251.7859,278.9261 " fill="none" style="stroke:#000000;stroke-width:1.0;stroke-dasharray:3.0,3.0;"/><path d="M252.9339,281.7334 L253.8914,278.0652 L250.638,276.1189 L258.804,276.0563 L252.9339,281.7334 " fill="#000000" style="stroke:#000000;stroke-width:1.0;"/><ellipse cx="189" cy="315.5" fill="#000000" rx="3" ry="3" style="stroke:#000000;stroke-width:1.0;"/><path d="M342,303.5 L355,303.5 C396.2281,303.5 417.1738,314.9755 446,285.5 C510.9848,219.0516 416.1493,145.0904 482,79.5 C483.1227,78.3817 484.2649,77.2887 485.4258,76.2202 " fill="none" style="stroke:#000000;stroke-width:1.0;stroke-dasharray:3.0,3.0;"/><path d="M487.4814,78.6026 L487.2125,74.6785 L483.3702,73.8379 L491.3816,71.0813 L487.4814,78.6026 " fill="#000000" style="stroke:#000000;stroke-width:1.0;"/><ellipse cx="342" cy="303.5" fill="#000000" rx="3" ry="3" style="stroke:#000000;stroke-width:1.0;"/><path d="M342,324.5 L355,324.5 C399.0022,324.5 416.9505,318.5503 446,285.5 C484.7318,241.4339 438.3529,197.7034 482,158.5 C485.9729,154.9316 490.1478,151.6283 494.4932,148.5723 " fill="none" style="stroke:#000000;stroke-width:1.0;stroke-dasharray:3.0,3.0;"/><path d="M496.2143,151.1662 L496.4387,147.2815 L492.7722,145.9784 L500.978,144.2697 L496.2143,151.1662 " fill="#000000" style="stroke:#000000;stroke-width:1.0;"/><ellipse cx="342" cy="324.5" fill="#000000" rx="3" ry="3" style="stroke:#000000;stroke-width:1.0;"/><path d="M342,344.5 L355,344.5 C403.2012,344.5 410.773,318.4001 446,285.5 C465.4889,267.2985 459.2406,251.3968 482,237.5 C484.8014,235.7895 487.6563,234.1483 490.5584,232.5739 " fill="none" style="stroke:#000000;stroke-width:1.0;stroke-dasharray:3.0,3.0;"/><path d="M491.9799,235.3156 L492.6147,231.5078 L489.1369,229.8322 L497.4126,229.0201 L491.9799,235.3156 " fill="#000000" style="stroke:#000000;stroke-width:1.0;"/><ellipse cx="342" cy="344.5" fill="#000000" rx="3" ry="3" style="stroke:#000000;stroke-width:1.0;"/><path d="M342,365.5 L355,365.5 C415.3414,365.5 423.8019,333.4395 482,317.5 C491.9239,314.782 502.1429,312.2081 512.4991,309.7767 " fill="none" style="stroke:#000000;stroke-width:1.0;stroke-dasharray:3.0,3.0;"/><path d="M513.1973,312.8019 L514.768,309.2531 L511.801,306.7515 L520.0621,308.0313 L513.1973,312.8019 " fill="#000000" style="stroke:#000000;stroke-width:1.0;"/><ellipse cx="342" cy="365.5" fill="#000000" rx="3" ry="3" style="stroke:#000000;stroke-width:1.0;"/><path d="M342,385.5 L355,385.5 C396.7677,385.5 441.2046,383.4868 484.0047,380.5213 " fill="none" style="stroke:#000000;stroke-width:1.0;stroke-dasharray:3.0,3.0;"/><path d="M484.2224,383.5976 L486.3119,380.358 L483.787,377.445 L491.6954,379.9771 L484.2224,383.5976 " fill="#000000" style="stroke:#000000;stroke-width:1.0;"/><ellipse cx="342" cy="385.5" fill="#000000" rx="3" ry="3" style="stroke:#000000;stroke-width:1.0;"/><path d="M342,406.5 L355,406.5 C395.3696,406.5 438.2327,408.3807 479.7013,411.1841 " fill="none" style="stroke:#000000;stroke-width:1.0;stroke-dasharray:3.0,3.0;"/><path d="M479.4877,414.2745 L482.0191,411.3443 L479.9149,408.0938 L487.4273,411.7181 L479.4877,414.2745 " fill="#000000" style="stroke:#000000;stroke-width:1.0;"/><ellipse cx="342" cy="406.5" fill="#000000" rx="3" ry="3" style="stroke:#000000;stroke-width:1.0;"/><path d="M342,427.5 L355,427.5 C415.3414,427.5 423.7682,459.6842 482,475.5 C490.7337,477.8721 499.6963,480.1284 508.7801,482.2709 " fill="none" style="stroke:#000000;stroke-width:1.0;stroke-dasharray:3.0,3.0;"/><path d="M508.1026,485.1945 L510.9728,482.7791 L509.4577,479.3473 L516.0891,483.9648 L508.1026,485.1945 " fill="#000000" style="stroke:#000000;stroke-width:1.0;"/><ellipse cx="342" cy="427.5" fill="#000000" rx="3" ry="3" style="stroke:#000000;stroke-width:1.0;"/><path d="M342,447.5 L355,447.5 C428.8072,447.5 415.0538,523.4242 482,554.5 C486.3119,556.5015 490.7124,558.4014 495.1841,560.2047 " fill="none" style="stroke:#000000;stroke-width:1.0;stroke-dasharray:3.0,3.0;"/><path d="M494.0821,563.038 L497.309,561.0312 L496.2861,557.3715 L502.2672,562.9598 L494.0821,563.038 " fill="#000000" style="stroke:#000000;stroke-width:1.0;"/><ellipse cx="342" cy="447.5" fill="#000000" rx="3" ry="3" style="stroke:#000000;stroke-width:1.0;"/><path d="M342,468.5 L355,468.5 C447.5405,468.5 402.7191,585.7686 482,633.5 C487.0302,636.5285 492.2292,639.3384 497.5615,641.9449 " fill="none" style="stroke:#000000;stroke-width:1.0;stroke-dasharray:3.0,3.0;"/><path d="M496.284,644.674 L499.6083,642.9031 L498.8391,639.2158 L504.3843,645.1388 L496.284,644.674 " fill="#000000" style="stroke:#000000;stroke-width:1.0;"/><ellipse cx="342" cy="468.5" fill="#000000" rx="3" ry="3" style="stroke:#000000;stroke-width:1.0;"/><path d="M342,488.5 L355,488.5 C469.4434,488.5 388.3304,646.7483 482,712.5 C484.141,714.0029 486.3206,715.4546 488.5355,716.8568 " fill="none" style="stroke:#000000;stroke-width:1.0;stroke-dasharray:3.0,3.0;"/><path d="M486.9117,719.5556 L490.5596,718.0746 L490.1593,714.158 L495.2824,720.9163 L486.9117,719.5556 " fill="#000000" style="stroke:#000000;stroke-width:1.0;"/><ellipse cx="342" cy="488.5" fill="#000000" rx="3" ry="3" style="stroke:#000000;stroke-width:1.0;"/><path d="M189,336.5 L202,336.5 C249.0497,336.5 298.2629,365.8357 323.6101,383.482 " fill="none" style="stroke:#000000;stroke-width:1.0;stroke-dasharray:3.0,3.0;"/><path d="M321.8416,385.964 L325.4716,384.8085 L325.3787,381.0001 L329.815,387.9035 L321.8416,385.964 " fill="#000000" style="stroke:#000000;stroke-width:1.0;"/><ellipse cx="189" cy="336.5" fill="#000000" rx="3" ry="3" style="stroke:#000000;stroke-width:1.0;"/><!--MD5=[f2f98f62f05b9d414829189889b3abf4]
@startjson
{
    "field1": "referer",
    "combination": "referer",
    "null_distribution": {
        "total_null_rows": 0,
        "total_not_null_rows": 14005
    },
    "data_distribution": [
        {
            "field_value_1": "http://www.slate.com/success/henry-hartsfield",
            "row_count": 20,
            "ratio_percent": 0.14
        },
        {
            "field_value_1": "http://www.slate.com/success/vladimir-titov",
            "row_count": 19,
            "ratio_percent": 0.14
        },
        {
            "field_value_1": "http://www.slate.com/success/martin-j-fettman",
            "row_count": 18,
            "ratio_percent": 0.13
        },
        {
            "field_value_1": "http://www.slate.com/success/douglas-wheelock",
            "row_count": 17,
            "ratio_percent": 0.12
        },
        {
            "field_value_1": "http://www.slate.com/success/lloyd-hammond",
            "row_count": 17,
            "ratio_percent": 0.12
        },
        {
            "field_value_1": "http://www.slate.com/success/william-c-mccool",
            "row_count": 17,
            "ratio_percent": 0.12
        },
        {
            "field_value_1": "http://www.slate.com/success/aleksandr-laveykin",
            "row_count": 16,
            "ratio_percent": 0.11
        },
        {
            "field_value_1": "http://www.slate.com/success/anatoly-solovyev",
            "row_count": 16,
            "ratio_percent": 0.11
        },
        {
            "field_value_1": "http://www.slate.com/success/daniel-barry",
            "row_count": 16,
            "ratio_percent": 0.11
        },
        {
            "field_value_1": "http://www.slate.com/success/duane-graveline",
            "row_count": 16,
            "ratio_percent": 0.11
        }
    ]
}
@endjson

PlantUML version 1.2022.12(Sun Oct 23 14:12:26 EDT 2022)
(GPL source distribution)
Java Runtime: OpenJDK Runtime Environment
JVM: OpenJDK 64-Bit Server VM
Default Encoding: UTF-8
Language: en
Country: CA
--></g></svg>