<?xml version="1.0" encoding="UTF-8" standalone="no"?><svg xmlns="http://www.w3.org/2000/svg" xmlns:xlink="http://www.w3.org/1999/xlink" contentStyleType="text/css" height="478px" preserveAspectRatio="none" style="width:685px;height:478px;background:#FFFFFF;" version="1.1" viewBox="0 0 685 478" width="685px" zoomAndPan="magnify"><defs/><g><rect fill="#F1F1F1" height="81.9531" rx="5" ry="5" style="stroke:#F1F1F1;stroke-width:1.5;" width="222" x="10" y="126.5"/><text fill="#000000" font-family="sans-serif" font-size="14" font-weight="bold" lengthAdjust="spacing" textLength="42" x="15" y="142.0352">field1</text><text fill="#000000" font-family="sans-serif" font-size="14" lengthAdjust="spacing" textLength="78" x="149" y="142.0352">machine.os</text><line style="stroke:#000000;stroke-width:1.0;" x1="144" x2="144" y1="126.5" y2="146.9883"/><line style="stroke:#000000;stroke-width:1.0;" x1="10" x2="232" y1="146.9883" y2="146.9883"/><text fill="#000000" font-family="sans-serif" font-size="14" font-weight="bold" lengthAdjust="spacing" textLength="90" x="15" y="162.5234">combination</text><text fill="#000000" font-family="sans-serif" font-size="14" lengthAdjust="spacing" textLength="78" x="149" y="162.5234">machine.os</text><line style="stroke:#000000;stroke-width:1.0;" x1="144" x2="144" y1="146.9883" y2="167.4766"/><line style="stroke:#000000;stroke-width:1.0;" x1="10" x2="232" y1="167.4766" y2="167.4766"/><text fill="#000000" font-family="sans-serif" font-size="14" font-weight="bold" lengthAdjust="spacing" textLength="121" x="15" y="183.0117">null_distribution</text><text fill="#000000" font-family="sans-serif" font-size="14" lengthAdjust="spacing" textLength="12" x="149" y="183.0117">   </text><line style="stroke:#000000;stroke-width:1.0;" x1="144" x2="144" y1="167.4766" y2="187.9648"/><line style="stroke:#000000;stroke-width:1.0;" x1="10" x2="232" y1="187.9648" y2="187.9648"/><text fill="#000000" font-family="sans-serif" font-size="14" font-weight="bold" lengthAdjust="spacing" textLength="124" x="15" y="203.5">data_distribution</text><text fill="#000000" font-family="sans-serif" font-size="14" lengthAdjust="spacing" textLength="12" x="149" y="203.5">   </text><line style="stroke:#000000;stroke-width:1.0;" x1="144" x2="144" y1="187.9648" y2="208.4531"/><rect fill="none" height="81.9531" rx="5" ry="5" style="stroke:#000000;stroke-width:1.5;" width="222" x="10" y="126.5"/><rect fill="#F1F1F1" height="40.9766" rx="5" ry="5" style="stroke:#F1F1F1;stroke-width:1.5;" width="207" x="269" y="118"/><text fill="#000000" font-family="sans-serif" font-size="14" font-weight="bold" lengthAdjust="spacing" textLength="111" x="274" y="133.5352">total_null_rows</text><text fill="#000000" font-family="sans-serif" font-size="14" lengthAdjust="spacing" textLength="36" x="426" y="133.5352">1334</text><line style="stroke:#000000;stroke-width:1.0;" x1="421" x2="421" y1="118" y2="138.4883"/><line style="stroke:#000000;stroke-width:1.0;" x1="269" x2="476" y1="138.4883" y2="138.4883"/><text fill="#000000" font-family="sans-serif" font-size="14" font-weight="bold" lengthAdjust="spacing" textLength="142" x="274" y="154.0234">total_not_null_rows</text><text fill="#000000" font-family="sans-serif" font-size="14" lengthAdjust="spacing" textLength="45" x="426" y="154.0234">12671</text><line style="stroke:#000000;stroke-width:1.0;" x1="421" x2="421" y1="138.4883" y2="158.9766"/><rect fill="none" height="40.9766" rx="5" ry="5" style="stroke:#000000;stroke-width:1.5;" width="207" x="269" y="118"/><rect fill="#F1F1F1" height="122.9297" rx="5" ry="5" style="stroke:#F1F1F1;stroke-width:1.5;" width="22" x="360.5" y="177"/><text fill="#000000" font-family="sans-serif" font-size="14" lengthAdjust="spacing" textLength="12" x="365.5" y="192.5352">   </text><line style="stroke:#000000;stroke-width:1.0;" x1="360.5" x2="382.5" y1="197.4883" y2="197.4883"/><text fill="#000000" font-family="sans-serif" font-size="14" lengthAdjust="spacing" textLength="12" x="365.5" y="213.0234">   </text><line style="stroke:#000000;stroke-width:1.0;" x1="360.5" x2="382.5" y1="217.9766" y2="217.9766"/><text fill="#000000" font-family="sans-serif" font-size="14" lengthAdjust="spacing" textLength="12" x="365.5" y="233.5117">   </text><line style="stroke:#000000;stroke-width:1.0;" x1="360.5" x2="382.5" y1="238.4648" y2="238.4648"/><text fill="#000000" font-family="sans-serif" font-size="14" lengthAdjust="spacing" textLength="12" x="365.5" y="254">   </text><line style="stroke:#000000;stroke-width:1.0;" x1="360.5" x2="382.5" y1="258.9531" y2="258.9531"/><text fill="#000000" font-family="sans-serif" font-size="14" lengthAdjust="spacing" textLength="12" x="365.5" y="274.4883">   </text><line style="stroke:#000000;stroke-width:1.0;" x1="360.5" x2="382.5" y1="279.4414" y2="279.4414"/><text fill="#000000" font-family="sans-serif" font-size="14" lengthAdjust="spacing" textLength="12" x="365.5" y="294.9766">   </text><rect fill="none" height="122.9297" rx="5" ry="5" style="stroke:#000000;stroke-width:1.5;" width="22" x="360.5" y="177"/><rect fill="#F1F1F1" height="61.4648" rx="5" ry="5" style="stroke:#F1F1F1;stroke-width:1.5;" width="154" x="516" y="10"/><text fill="#000000" font-family="sans-serif" font-size="14" font-weight="bold" lengthAdjust="spacing" textLength="94" x="521" y="25.5352">field_value_1</text><text fill="#000000" font-family="sans-serif" font-size="14" lengthAdjust="spacing" textLength="37" x="625" y="25.5352">win 7</text><line style="stroke:#000000;stroke-width:1.0;" x1="620" x2="620" y1="10" y2="30.4883"/><line style="stroke:#000000;stroke-width:1.0;" x1="516" x2="670" y1="30.4883" y2="30.4883"/><text fill="#000000" font-family="sans-serif" font-size="14" font-weight="bold" lengthAdjust="spacing" textLength="74" x="521" y="46.0234">row_count</text><text fill="#000000" font-family="sans-serif" font-size="14" lengthAdjust="spacing" textLength="36" x="625" y="46.0234">2859</text><line style="stroke:#000000;stroke-width:1.0;" x1="620" x2="620" y1="30.4883" y2="50.9766"/><line style="stroke:#000000;stroke-width:1.0;" x1="516" x2="670" y1="50.9766" y2="50.9766"/><text fill="#000000" font-family="sans-serif" font-size="14" font-weight="bold" lengthAdjust="spacing" textLength="94" x="521" y="66.5117">ratio_percent</text><text fill="#000000" font-family="sans-serif" font-size="14" lengthAdjust="spacing" textLength="40" x="625" y="66.5117">20.41</text><line style="stroke:#000000;stroke-width:1.0;" x1="620" x2="620" y1="50.9766" y2="71.4648"/><rect fill="none" height="61.4648" rx="5" ry="5" style="stroke:#000000;stroke-width:1.5;" width="154" x="516" y="10"/><rect fill="#F1F1F1" height="61.4648" rx="5" ry="5" style="stroke:#F1F1F1;stroke-width:1.5;" width="154" x="516" y="89"/><text fill="#000000" font-family="sans-serif" font-size="14" font-weight="bold" lengthAdjust="spacing" textLength="94" x="521" y="104.5352">field_value_1</text><text fill="#000000" font-family="sans-serif" font-size="14" lengthAdjust="spacing" textLength="37" x="625" y="104.5352">win 8</text><line style="stroke:#000000;stroke-width:1.0;" x1="620" x2="620" y1="89" y2="109.4883"/><line style="stroke:#000000;stroke-width:1.0;" x1="516" x2="670" y1="109.4883" y2="109.4883"/><text fill="#000000" font-family="sans-serif" font-size="14" font-weight="bold" lengthAdjust="spacing" textLength="74" x="521" y="125.0234">row_count</text><text fill="#000000" font-family="sans-serif" font-size="14" lengthAdjust="spacing" textLength="36" x="625" y="125.0234">2838</text><line style="stroke:#000000;stroke-width:1.0;" x1="620" x2="620" y1="109.4883" y2="129.9766"/><line style="stroke:#000000;stroke-width:1.0;" x1="516" x2="670" y1="129.9766" y2="129.9766"/><text fill="#000000" font-family="sans-serif" font-size="14" font-weight="bold" lengthAdjust="spacing" textLength="94" x="521" y="145.5117">ratio_percent</text><text fill="#000000" font-family="sans-serif" font-size="14" lengthAdjust="spacing" textLength="40" x="625" y="145.5117">20.26</text><line style="stroke:#000000;stroke-width:1.0;" x1="620" x2="620" y1="129.9766" y2="150.4648"/><rect fill="none" height="61.4648" rx="5" ry="5" style="stroke:#000000;stroke-width:1.5;" width="154" x="516" y="89"/><rect fill="#F1F1F1" height="61.4648" rx="5" ry="5" style="stroke:#F1F1F1;stroke-width:1.5;" width="160" x="513" y="168"/><text fill="#000000" font-family="sans-serif" font-size="14" font-weight="bold" lengthAdjust="spacing" textLength="94" x="518" y="183.5352">field_value_1</text><text fill="#000000" font-family="sans-serif" font-size="14" lengthAdjust="spacing" textLength="46" x="622" y="183.5352">win xp</text><line style="stroke:#000000;stroke-width:1.0;" x1="617" x2="617" y1="168" y2="188.4883"/><line style="stroke:#000000;stroke-width:1.0;" x1="513" x2="673" y1="188.4883" y2="188.4883"/><text fill="#000000" font-family="sans-serif" font-size="14" font-weight="bold" lengthAdjust="spacing" textLength="74" x="518" y="204.0234">row_count</text><text fill="#000000" font-family="sans-serif" font-size="14" lengthAdjust="spacing" textLength="36" x="622" y="204.0234">2798</text><line style="stroke:#000000;stroke-width:1.0;" x1="617" x2="617" y1="188.4883" y2="208.9766"/><line style="stroke:#000000;stroke-width:1.0;" x1="513" x2="673" y1="208.9766" y2="208.9766"/><text fill="#000000" font-family="sans-serif" font-size="14" font-weight="bold" lengthAdjust="spacing" textLength="94" x="518" y="224.5117">ratio_percent</text><text fill="#000000" font-family="sans-serif" font-size="14" lengthAdjust="spacing" textLength="40" x="622" y="224.5117">19.98</text><line style="stroke:#000000;stroke-width:1.0;" x1="617" x2="617" y1="208.9766" y2="229.4648"/><rect fill="none" height="61.4648" rx="5" ry="5" style="stroke:#000000;stroke-width:1.5;" width="160" x="513" y="168"/><rect fill="#F1F1F1" height="61.4648" rx="5" ry="5" style="stroke:#F1F1F1;stroke-width:1.5;" width="154" x="516" y="247"/><text fill="#000000" font-family="sans-serif" font-size="14" font-weight="bold" lengthAdjust="spacing" textLength="94" x="521" y="262.5352">field_value_1</text><text fill="#000000" font-family="sans-serif" font-size="14" lengthAdjust="spacing" textLength="20" x="625" y="262.5352">ios</text><line style="stroke:#000000;stroke-width:1.0;" x1="620" x2="620" y1="247" y2="267.4883"/><line style="stroke:#000000;stroke-width:1.0;" x1="516" x2="670" y1="267.4883" y2="267.4883"/><text fill="#000000" font-family="sans-serif" font-size="14" font-weight="bold" lengthAdjust="spacing" textLength="74" x="521" y="283.0234">row_count</text><text fill="#000000" font-family="sans-serif" font-size="14" lengthAdjust="spacing" textLength="36" x="625" y="283.0234">2740</text><line style="stroke:#000000;stroke-width:1.0;" x1="620" x2="620" y1="267.4883" y2="287.9766"/><line style="stroke:#000000;stroke-width:1.0;" x1="516" x2="670" y1="287.9766" y2="287.9766"/><text fill="#000000" font-family="sans-serif" font-size="14" font-weight="bold" lengthAdjust="spacing" textLength="94" x="521" y="303.5117">ratio_percent</text><text fill="#000000" font-family="sans-serif" font-size="14" lengthAdjust="spacing" textLength="40" x="625" y="303.5117">19.56</text><line style="stroke:#000000;stroke-width:1.0;" x1="620" x2="620" y1="287.9766" y2="308.4648"/><rect fill="none" height="61.4648" rx="5" ry="5" style="stroke:#000000;stroke-width:1.5;" width="154" x="516" y="247"/><rect fill="#F1F1F1" height="61.4648" rx="5" ry="5" style="stroke:#F1F1F1;stroke-width:1.5;" width="154" x="516" y="326"/><text fill="#000000" font-family="sans-serif" font-size="14" font-weight="bold" lengthAdjust="spacing" textLength="94" x="521" y="341.5352">field_value_1</text><text fill="#000000" font-family="sans-serif" font-size="14" lengthAdjust="spacing" textLength="25" x="625" y="341.5352">osx</text><line style="stroke:#000000;stroke-width:1.0;" x1="620" x2="620" y1="326" y2="346.4883"/><line style="stroke:#000000;stroke-width:1.0;" x1="516" x2="670" y1="346.4883" y2="346.4883"/><text fill="#000000" font-family="sans-serif" font-size="14" font-weight="bold" lengthAdjust="spacing" textLength="74" x="521" y="362.0234">row_count</text><text fill="#000000" font-family="sans-serif" font-size="14" lengthAdjust="spacing" textLength="36" x="625" y="362.0234">1436</text><line style="stroke:#000000;stroke-width:1.0;" x1="620" x2="620" y1="346.4883" y2="366.9766"/><line style="stroke:#000000;stroke-width:1.0;" x1="516" x2="670" y1="366.9766" y2="366.9766"/><text fill="#000000" font-family="sans-serif" font-size="14" font-weight="bold" lengthAdjust="spacing" textLength="94" x="521" y="382.5117">ratio_percent</text><text fill="#000000" font-family="sans-serif" font-size="14" lengthAdjust="spacing" textLength="40" x="625" y="382.5117">10.25</text><line style="stroke:#000000;stroke-width:1.0;" x1="620" x2="620" y1="366.9766" y2="387.4648"/><rect fill="none" height="61.4648" rx="5" ry="5" style="stroke:#000000;stroke-width:1.5;" width="154" x="516" y="326"/><rect fill="#F1F1F1" height="61.4648" rx="5" ry="5" style="stroke:#F1F1F1;stroke-width:1.5;" width="150" x="518" y="405"/><text fill="#000000" font-family="sans-serif" font-size="14" font-weight="bold" lengthAdjust="spacing" textLength="94" x="523" y="420.5352">field_value_1</text><text fill="#000000" font-family="sans-serif" font-size="14" lengthAdjust="spacing" textLength="36" x="627" y="420.5352">None</text><line style="stroke:#000000;stroke-width:1.0;" x1="622" x2="622" y1="405" y2="425.4883"/><line style="stroke:#000000;stroke-width:1.0;" x1="518" x2="668" y1="425.4883" y2="425.4883"/><text fill="#000000" font-family="sans-serif" font-size="14" font-weight="bold" lengthAdjust="spacing" textLength="74" x="523" y="441.0234">row_count</text><text fill="#000000" font-family="sans-serif" font-size="14" lengthAdjust="spacing" textLength="36" x="627" y="441.0234">1334</text><line style="stroke:#000000;stroke-width:1.0;" x1="622" x2="622" y1="425.4883" y2="445.9766"/><line style="stroke:#000000;stroke-width:1.0;" x1="518" x2="668" y1="445.9766" y2="445.9766"/><text fill="#000000" font-family="sans-serif" font-size="14" font-weight="bold" lengthAdjust="spacing" textLength="94" x="523" y="461.5117">ratio_percent</text><text fill="#000000" font-family="sans-serif" font-size="14" lengthAdjust="spacing" textLength="31" x="627" y="461.5117">9.53</text><line style="stroke:#000000;stroke-width:1.0;" x1="622" x2="622" y1="445.9766" y2="466.4648"/><rect fill="none" height="61.4648" rx="5" ry="5" style="stroke:#000000;stroke-width:1.5;" width="150" x="518" y="405"/><path d="M220,177.5 L233,177.5 C236.5821,177.5 264.6904,169.7208 294.7028,161.111 " fill="none" style="stroke:#000000;stroke-width:1.0;stroke-dasharray:3.0,3.0;"/><path d="M295.536,164.0083 L296.8758,160.4861 L293.8695,158.2137 L301.946,159.0279 L295.536,164.0083 " fill="#000000" style="stroke:#000000;stroke-width:1.0;"/><ellipse cx="220" cy="177.5" fill="#000000" rx="3" ry="3" style="stroke:#000000;stroke-width:1.0;"/><path d="M373,186.5 L386,186.5 C427.2281,186.5 445.2254,194.7703 477,168.5 C509.8851,141.3116 483.9292,110.7335 513,79.5 C514.0212,78.4028 515.08,77.3326 516.1719,76.289 " fill="none" style="stroke:#000000;stroke-width:1.0;stroke-dasharray:3.0,3.0;"/><path d="M518.1716,78.5754 L517.8868,74.7892 L514.1722,74.0025 L521.8881,71.2897 L518.1716,78.5754 " fill="#000000" style="stroke:#000000;stroke-width:1.0;"/><ellipse cx="373" cy="186.5" fill="#000000" rx="3" ry="3" style="stroke:#000000;stroke-width:1.0;"/><path d="M373,207.5 L386,207.5 C400.4349,207.5 467.3314,178.023 521.1288,153.1894 " fill="none" style="stroke:#000000;stroke-width:1.0;stroke-dasharray:3.0,3.0;"/><path d="M522.3921,155.9197 L523.1765,152.2419 L519.8655,150.4591 L527.9545,150.0312 L522.3921,155.9197 " fill="#000000" style="stroke:#000000;stroke-width:1.0;"/><ellipse cx="373" cy="207.5" fill="#000000" rx="3" ry="3" style="stroke:#000000;stroke-width:1.0;"/><path d="M373,227.5 L386,227.5 C425.5442,227.5 468.9376,222.2203 505.6962,216.1665 " fill="none" style="stroke:#000000;stroke-width:1.0;stroke-dasharray:3.0,3.0;"/><path d="M506.2169,219.2623 L508.018,215.7759 L505.1754,213.0707 L513.4356,214.8645 L506.2169,219.2623 " fill="#000000" style="stroke:#000000;stroke-width:1.0;"/><ellipse cx="373" cy="227.5" fill="#000000" rx="3" ry="3" style="stroke:#000000;stroke-width:1.0;"/><path d="M373,248.5 L386,248.5 C426.5581,248.5 471.1654,254.0539 508.5105,260.3006 " fill="none" style="stroke:#000000;stroke-width:1.0;stroke-dasharray:3.0,3.0;"/><path d="M507.9738,263.4425 L510.8669,260.7032 L509.0472,257.1587 L516.3652,261.6424 L507.9738,263.4425 " fill="#000000" style="stroke:#000000;stroke-width:1.0;"/><ellipse cx="373" cy="248.5" fill="#000000" rx="3" ry="3" style="stroke:#000000;stroke-width:1.0;"/><path d="M373,269.5 L386,269.5 C400.3106,269.5 466.3921,298.2423 520.0029,322.686 " fill="none" style="stroke:#000000;stroke-width:1.0;stroke-dasharray:3.0,3.0;"/><path d="M518.6975,325.5419 L522.1448,323.665 L521.3083,319.83 L527.1427,325.9494 L518.6975,325.5419 " fill="#000000" style="stroke:#000000;stroke-width:1.0;"/><ellipse cx="373" cy="269.5" fill="#000000" rx="3" ry="3" style="stroke:#000000;stroke-width:1.0;"/><path d="M373,289.5 L386,289.5 C459.8072,289.5 451.1864,356.169 513,396.5 C515.3256,398.0174 517.7188,399.5147 520.1584,400.9874 " fill="none" style="stroke:#000000;stroke-width:1.0;stroke-dasharray:3.0,3.0;"/><path d="M518.6235,403.6082 L522.1241,402.1386 L521.6934,398.3666 L526.7105,404.8248 L518.6235,403.6082 " fill="#000000" style="stroke:#000000;stroke-width:1.0;"/><ellipse cx="373" cy="289.5" fill="#000000" rx="3" ry="3" style="stroke:#000000;stroke-width:1.0;"/><path d="M220,198.5 L233,198.5 C277.7962,198.5 327.6571,217.9233 353.7719,229.7002 " fill="none" style="stroke:#000000;stroke-width:1.0;stroke-dasharray:3.0,3.0;"/><path d="M352.4767,232.5049 L355.8754,230.6716 L355.0671,226.8955 L360.7835,232.9382 L352.4767,232.5049 " fill="#000000" style="stroke:#000000;stroke-width:1.0;"/><ellipse cx="220" cy="198.5" fill="#000000" rx="3" ry="3" style="stroke:#000000;stroke-width:1.0;"/><!--MD5=[added2e7edb84d71cf60e7d8908f2227]
@startjson
{
    "field1": "machine.os",
    "combination": "machine.os",
    "null_distribution": {
        "total_null_rows": 1334,
        "total_not_null_rows": 12671
    },
    "data_distribution": [
        {
            "field_value_1": "win 7",
            "row_count": 2859,
            "ratio_percent": 20.41
        },
        {
            "field_value_1": "win 8",
            "row_count": 2838,
            "ratio_percent": 20.26
        },
        {
            "field_value_1": "win xp",
            "row_count": 2798,
            "ratio_percent": 19.98
        },
        {
            "field_value_1": "ios",
            "row_count": 2740,
            "ratio_percent": 19.56
        },
        {
            "field_value_1": "osx",
            "row_count": 1436,
            "ratio_percent": 10.25
        },
        {
            "field_value_1": "None",
            "row_count": 1334,
            "ratio_percent": 9.53
        }
    ]
}
@endjson

PlantUML version 1.2022.12(Sun Oct 23 14:12:26 EDT 2022)
(GPL source distribution)
Java Runtime: OpenJDK Runtime Environment
JVM: OpenJDK 64-Bit Server VM
Default Encoding: UTF-8
Language: en
Country: CA
--></g></svg>