<?xml version="1.0" encoding="UTF-8" standalone="no"?><svg xmlns="http://www.w3.org/2000/svg" xmlns:xlink="http://www.w3.org/1999/xlink" contentStyleType="text/css" height="182px" preserveAspectRatio="none" style="width:694px;height:182px;background:#FFFFFF;" version="1.1" viewBox="0 0 694 182" width="694px" zoomAndPan="magnify"><defs/><g><rect fill="#F1F1F1" height="81.9531" rx="5" ry="5" style="stroke:#F1F1F1;stroke-width:1.5;" width="179" x="10" y="10"/><text fill="#000000" font-family="sans-serif" font-size="14" font-weight="bold" lengthAdjust="spacing" textLength="42" x="15" y="25.5352">field1</text><text fill="#000000" font-family="sans-serif" font-size="14" lengthAdjust="spacing" textLength="35" x="149" y="25.5352">Error</text><line style="stroke:#000000;stroke-width:1.0;" x1="144" x2="144" y1="10" y2="30.4883"/><line style="stroke:#000000;stroke-width:1.0;" x1="10" x2="189" y1="30.4883" y2="30.4883"/><text fill="#000000" font-family="sans-serif" font-size="14" font-weight="bold" lengthAdjust="spacing" textLength="90" x="15" y="46.0234">combination</text><text fill="#000000" font-family="sans-serif" font-size="14" lengthAdjust="spacing" textLength="35" x="149" y="46.0234">Error</text><line style="stroke:#000000;stroke-width:1.0;" x1="144" x2="144" y1="30.4883" y2="50.9766"/><line style="stroke:#000000;stroke-width:1.0;" x1="10" x2="189" y1="50.9766" y2="50.9766"/><text fill="#000000" font-family="sans-serif" font-size="14" font-weight="bold" lengthAdjust="spacing" textLength="121" x="15" y="66.5117">null_distribution</text><text fill="#000000" font-family="sans-serif" font-size="14" lengthAdjust="spacing" textLength="12" x="149" y="66.5117">   </text><line style="stroke:#000000;stroke-width:1.0;" x1="144" x2="144" y1="50.9766" y2="71.4648"/><line style="stroke:#000000;stroke-width:1.0;" x1="10" x2="189" y1="71.4648" y2="71.4648"/><text fill="#000000" font-family="sans-serif" font-size="14" font-weight="bold" lengthAdjust="spacing" textLength="124" x="15" y="87">data_distribution</text><text fill="#000000" font-family="sans-serif" font-size="14" lengthAdjust="spacing" textLength="12" x="149" y="87">   </text><line style="stroke:#000000;stroke-width:1.0;" x1="144" x2="144" y1="71.4648" y2="91.9531"/><rect fill="none" height="81.9531" rx="5" ry="5" style="stroke:#000000;stroke-width:1.5;" width="179" x="10" y="10"/><rect fill="#F1F1F1" height="40.9766" rx="5" ry="5" style="stroke:#F1F1F1;stroke-width:1.5;" width="189" x="226" y="21.5"/><text fill="#000000" font-family="sans-serif" font-size="14" font-weight="bold" lengthAdjust="spacing" textLength="111" x="231" y="37.0352">total_null_rows</text><text fill="#000000" font-family="sans-serif" font-size="14" lengthAdjust="spacing" textLength="27" x="383" y="37.0352">111</text><line style="stroke:#000000;stroke-width:1.0;" x1="378" x2="378" y1="21.5" y2="41.9883"/><line style="stroke:#000000;stroke-width:1.0;" x1="226" x2="415" y1="41.9883" y2="41.9883"/><text fill="#000000" font-family="sans-serif" font-size="14" font-weight="bold" lengthAdjust="spacing" textLength="142" x="231" y="57.5234">total_not_null_rows</text><text fill="#000000" font-family="sans-serif" font-size="14" lengthAdjust="spacing" textLength="9" x="383" y="57.5234">2</text><line style="stroke:#000000;stroke-width:1.0;" x1="378" x2="378" y1="41.9883" y2="62.4766"/><rect fill="none" height="40.9766" rx="5" ry="5" style="stroke:#000000;stroke-width:1.5;" width="189" x="226" y="21.5"/><rect fill="#F1F1F1" height="40.9766" rx="5" ry="5" style="stroke:#F1F1F1;stroke-width:1.5;" width="22" x="308.5" y="80.5"/><text fill="#000000" font-family="sans-serif" font-size="14" lengthAdjust="spacing" textLength="12" x="313.5" y="96.0352">   </text><line style="stroke:#000000;stroke-width:1.0;" x1="308.5" x2="330.5" y1="100.9883" y2="100.9883"/><text fill="#000000" font-family="sans-serif" font-size="14" lengthAdjust="spacing" textLength="12" x="313.5" y="116.5234">   </text><rect fill="none" height="40.9766" rx="5" ry="5" style="stroke:#000000;stroke-width:1.5;" width="22" x="308.5" y="80.5"/><rect fill="#F1F1F1" height="61.4648" rx="5" ry="5" style="stroke:#F1F1F1;stroke-width:1.5;" width="154" x="490" y="30.5"/><text fill="#000000" font-family="sans-serif" font-size="14" font-weight="bold" lengthAdjust="spacing" textLength="94" x="495" y="46.0352">field_value_1</text><text fill="#000000" font-family="sans-serif" font-size="14" lengthAdjust="spacing" textLength="36" x="599" y="46.0352">None</text><line style="stroke:#000000;stroke-width:1.0;" x1="594" x2="594" y1="30.5" y2="50.9883"/><line style="stroke:#000000;stroke-width:1.0;" x1="490" x2="644" y1="50.9883" y2="50.9883"/><text fill="#000000" font-family="sans-serif" font-size="14" font-weight="bold" lengthAdjust="spacing" textLength="74" x="495" y="66.5234">row_count</text><text fill="#000000" font-family="sans-serif" font-size="14" lengthAdjust="spacing" textLength="27" x="599" y="66.5234">111</text><line style="stroke:#000000;stroke-width:1.0;" x1="594" x2="594" y1="50.9883" y2="71.4766"/><line style="stroke:#000000;stroke-width:1.0;" x1="490" x2="644" y1="71.4766" y2="71.4766"/><text fill="#000000" font-family="sans-serif" font-size="14" font-weight="bold" lengthAdjust="spacing" textLength="94" x="495" y="87.0117">ratio_percent</text><text fill="#000000" font-family="sans-serif" font-size="14" lengthAdjust="spacing" textLength="40" x="599" y="87.0117">98.23</text><line style="stroke:#000000;stroke-width:1.0;" x1="594" x2="594" y1="71.4766" y2="91.9648"/><rect fill="none" height="61.4648" rx="5" ry="5" style="stroke:#000000;stroke-width:1.5;" width="154" x="490" y="30.5"/><rect fill="#F1F1F1" height="61.4648" rx="5" ry="5" style="stroke:#F1F1F1;stroke-width:1.5;" width="230" x="452" y="109.5"/><text fill="#000000" font-family="sans-serif" font-size="14" font-weight="bold" lengthAdjust="spacing" textLength="94" x="457" y="125.0352">field_value_1</text><text fill="#000000" font-family="sans-serif" font-size="14" lengthAdjust="spacing" textLength="116" x="561" y="125.0352">Movie not found!</text><line style="stroke:#000000;stroke-width:1.0;" x1="556" x2="556" y1="109.5" y2="129.9883"/><line style="stroke:#000000;stroke-width:1.0;" x1="452" x2="682" y1="129.9883" y2="129.9883"/><text fill="#000000" font-family="sans-serif" font-size="14" font-weight="bold" lengthAdjust="spacing" textLength="74" x="457" y="145.5234">row_count</text><text fill="#000000" font-family="sans-serif" font-size="14" lengthAdjust="spacing" textLength="9" x="561" y="145.5234">2</text><line style="stroke:#000000;stroke-width:1.0;" x1="556" x2="556" y1="129.9883" y2="150.4766"/><line style="stroke:#000000;stroke-width:1.0;" x1="452" x2="682" y1="150.4766" y2="150.4766"/><text fill="#000000" font-family="sans-serif" font-size="14" font-weight="bold" lengthAdjust="spacing" textLength="94" x="457" y="166.0117">ratio_percent</text><text fill="#000000" font-family="sans-serif" font-size="14" lengthAdjust="spacing" textLength="31" x="561" y="166.0117">1.77</text><line style="stroke:#000000;stroke-width:1.0;" x1="556" x2="556" y1="150.4766" y2="170.9648"/><rect fill="none" height="61.4648" rx="5" ry="5" style="stroke:#000000;stroke-width:1.5;" width="230" x="452" y="109.5"/><path d="M177,61 L190,61 C199.2689,61 208.8709,60.5212 218.4666,59.7157 " fill="none" style="stroke:#000000;stroke-width:1.0;stroke-dasharray:3.0,3.0;"/><path d="M218.7518,62.7908 L220.7729,59.5018 L218.1813,56.6406 L226.1543,59.0026 L218.7518,62.7908 " fill="#000000" style="stroke:#000000;stroke-width:1.0;"/><ellipse cx="177" cy="61" fill="#000000" rx="3" ry="3" style="stroke:#000000;stroke-width:1.0;"/><path d="M321,90 L334,90 C383.6041,90 438.7067,83.4197 482.8138,76.5281 " fill="none" style="stroke:#000000;stroke-width:1.0;stroke-dasharray:3.0,3.0;"/><path d="M483.2929,79.5446 L485.0762,76.1687 L482.3346,73.5115 L490.3551,75.3301 L483.2929,79.5446 " fill="#000000" style="stroke:#000000;stroke-width:1.0;"/><ellipse cx="321" cy="90" fill="#000000" rx="3" ry="3" style="stroke:#000000;stroke-width:1.0;"/><path d="M321,111 L334,111 C370.1723,111 409.2684,114.4992 444.8925,119.0665 " fill="none" style="stroke:#000000;stroke-width:1.0;stroke-dasharray:3.0,3.0;"/><path d="M444.4965,122.0852 L447.1565,119.3635 L445.2885,116.0478 L452.4393,120.0565 L444.4965,122.0852 " fill="#000000" style="stroke:#000000;stroke-width:1.0;"/><ellipse cx="321" cy="111" fill="#000000" rx="3" ry="3" style="stroke:#000000;stroke-width:1.0;"/><path d="M177,82 L190,82 C230.1344,82 276.5128,90.9761 301.5913,96.5892 " fill="none" style="stroke:#000000;stroke-width:1.0;stroke-dasharray:3.0,3.0;"/><path d="M300.9158,99.5328 L303.799,97.0957 L302.2667,93.6455 L308.9503,98.2778 L300.9158,99.5328 " fill="#000000" style="stroke:#000000;stroke-width:1.0;"/><ellipse cx="177" cy="82" fill="#000000" rx="3" ry="3" style="stroke:#000000;stroke-width:1.0;"/><!--MD5=[97d2e8170571723421a3b37d51c1a684]
@startjson
{
    "field1": "Error",
    "combination": "Error",
    "null_distribution": {
        "total_null_rows": 111,
        "total_not_null_rows": 2
    },
    "data_distribution": [
        {
            "field_value_1": "None",
            "row_count": 111,
            "ratio_percent": 98.23
        },
        {
            "field_value_1": "Movie not found!",
            "row_count": 2,
            "ratio_percent": 1.77
        }
    ]
}
@endjson

PlantUML version 1.2022.12(Sun Oct 23 14:12:26 EDT 2022)
(GPL source distribution)
Java Runtime: OpenJDK Runtime Environment
JVM: OpenJDK 64-Bit Server VM
Default Encoding: UTF-8
Language: en
Country: CA
--></g></svg>