<?xml version="1.0" encoding="UTF-8" standalone="no"?><svg xmlns="http://www.w3.org/2000/svg" xmlns:xlink="http://www.w3.org/1999/xlink" contentStyleType="text/css" height="794px" preserveAspectRatio="none" style="width:653px;height:794px;background:#FFFFFF;" version="1.1" viewBox="0 0 653 794" width="653px" zoomAndPan="magnify"><defs/><g><rect fill="#F1F1F1" height="81.9531" rx="5" ry="5" style="stroke:#F1F1F1;stroke-width:1.5;" width="214" x="10" y="264.5"/><text fill="#000000" font-family="sans-serif" font-size="14" font-weight="bold" lengthAdjust="spacing" textLength="42" x="15" y="280.0352">field1</text><text fill="#000000" font-family="sans-serif" font-size="14" lengthAdjust="spacing" textLength="70" x="149" y="280.0352">Metascore</text><line style="stroke:#000000;stroke-width:1.0;" x1="144" x2="144" y1="264.5" y2="284.9883"/><line style="stroke:#000000;stroke-width:1.0;" x1="10" x2="224" y1="284.9883" y2="284.9883"/><text fill="#000000" font-family="sans-serif" font-size="14" font-weight="bold" lengthAdjust="spacing" textLength="90" x="15" y="300.5234">combination</text><text fill="#000000" font-family="sans-serif" font-size="14" lengthAdjust="spacing" textLength="70" x="149" y="300.5234">Metascore</text><line style="stroke:#000000;stroke-width:1.0;" x1="144" x2="144" y1="284.9883" y2="305.4766"/><line style="stroke:#000000;stroke-width:1.0;" x1="10" x2="224" y1="305.4766" y2="305.4766"/><text fill="#000000" font-family="sans-serif" font-size="14" font-weight="bold" lengthAdjust="spacing" textLength="121" x="15" y="321.0117">null_distribution</text><text fill="#000000" font-family="sans-serif" font-size="14" lengthAdjust="spacing" textLength="12" x="149" y="321.0117">   </text><line style="stroke:#000000;stroke-width:1.0;" x1="144" x2="144" y1="305.4766" y2="325.9648"/><line style="stroke:#000000;stroke-width:1.0;" x1="10" x2="224" y1="325.9648" y2="325.9648"/><text fill="#000000" font-family="sans-serif" font-size="14" font-weight="bold" lengthAdjust="spacing" textLength="124" x="15" y="341.5">data_distribution</text><text fill="#000000" font-family="sans-serif" font-size="14" lengthAdjust="spacing" textLength="12" x="149" y="341.5">   </text><line style="stroke:#000000;stroke-width:1.0;" x1="144" x2="144" y1="325.9648" y2="346.4531"/><rect fill="none" height="81.9531" rx="5" ry="5" style="stroke:#000000;stroke-width:1.5;" width="214" x="10" y="264.5"/><rect fill="#F1F1F1" height="40.9766" rx="5" ry="5" style="stroke:#F1F1F1;stroke-width:1.5;" width="189" x="261" y="235"/><text fill="#000000" font-family="sans-serif" font-size="14" font-weight="bold" lengthAdjust="spacing" textLength="111" x="266" y="250.5352">total_null_rows</text><text fill="#000000" font-family="sans-serif" font-size="14" lengthAdjust="spacing" textLength="9" x="418" y="250.5352">2</text><line style="stroke:#000000;stroke-width:1.0;" x1="413" x2="413" y1="235" y2="255.4883"/><line style="stroke:#000000;stroke-width:1.0;" x1="261" x2="450" y1="255.4883" y2="255.4883"/><text fill="#000000" font-family="sans-serif" font-size="14" font-weight="bold" lengthAdjust="spacing" textLength="142" x="266" y="271.0234">total_not_null_rows</text><text fill="#000000" font-family="sans-serif" font-size="14" lengthAdjust="spacing" textLength="27" x="418" y="271.0234">111</text><line style="stroke:#000000;stroke-width:1.0;" x1="413" x2="413" y1="255.4883" y2="275.9766"/><rect fill="none" height="40.9766" rx="5" ry="5" style="stroke:#000000;stroke-width:1.5;" width="189" x="261" y="235"/><rect fill="#F1F1F1" height="204.8828" rx="5" ry="5" style="stroke:#F1F1F1;stroke-width:1.5;" width="22" x="343.5" y="294"/><text fill="#000000" font-family="sans-serif" font-size="14" lengthAdjust="spacing" textLength="12" x="348.5" y="309.5352">   </text><line style="stroke:#000000;stroke-width:1.0;" x1="343.5" x2="365.5" y1="314.4883" y2="314.4883"/><text fill="#000000" font-family="sans-serif" font-size="14" lengthAdjust="spacing" textLength="12" x="348.5" y="330.0234">   </text><line style="stroke:#000000;stroke-width:1.0;" x1="343.5" x2="365.5" y1="334.9766" y2="334.9766"/><text fill="#000000" font-family="sans-serif" font-size="14" lengthAdjust="spacing" textLength="12" x="348.5" y="350.5117">   </text><line style="stroke:#000000;stroke-width:1.0;" x1="343.5" x2="365.5" y1="355.4648" y2="355.4648"/><text fill="#000000" font-family="sans-serif" font-size="14" lengthAdjust="spacing" textLength="12" x="348.5" y="371">   </text><line style="stroke:#000000;stroke-width:1.0;" x1="343.5" x2="365.5" y1="375.9531" y2="375.9531"/><text fill="#000000" font-family="sans-serif" font-size="14" lengthAdjust="spacing" textLength="12" x="348.5" y="391.4883">   </text><line style="stroke:#000000;stroke-width:1.0;" x1="343.5" x2="365.5" y1="396.4414" y2="396.4414"/><text fill="#000000" font-family="sans-serif" font-size="14" lengthAdjust="spacing" textLength="12" x="348.5" y="411.9766">   </text><line style="stroke:#000000;stroke-width:1.0;" x1="343.5" x2="365.5" y1="416.9297" y2="416.9297"/><text fill="#000000" font-family="sans-serif" font-size="14" lengthAdjust="spacing" textLength="12" x="348.5" y="432.4648">   </text><line style="stroke:#000000;stroke-width:1.0;" x1="343.5" x2="365.5" y1="437.418" y2="437.418"/><text fill="#000000" font-family="sans-serif" font-size="14" lengthAdjust="spacing" textLength="12" x="348.5" y="452.9531">   </text><line style="stroke:#000000;stroke-width:1.0;" x1="343.5" x2="365.5" y1="457.9063" y2="457.9063"/><text fill="#000000" font-family="sans-serif" font-size="14" lengthAdjust="spacing" textLength="12" x="348.5" y="473.4414">   </text><line style="stroke:#000000;stroke-width:1.0;" x1="343.5" x2="365.5" y1="478.3945" y2="478.3945"/><text fill="#000000" font-family="sans-serif" font-size="14" lengthAdjust="spacing" textLength="12" x="348.5" y="493.9297">   </text><rect fill="none" height="204.8828" rx="5" ry="5" style="stroke:#000000;stroke-width:1.5;" width="22" x="343.5" y="294"/><rect fill="#F1F1F1" height="61.4648" rx="5" ry="5" style="stroke:#F1F1F1;stroke-width:1.5;" width="154" x="487" y="10"/><text fill="#000000" font-family="sans-serif" font-size="14" font-weight="bold" lengthAdjust="spacing" textLength="94" x="492" y="25.5352">field_value_1</text><text fill="#000000" font-family="sans-serif" font-size="14" lengthAdjust="spacing" textLength="27" x="596" y="25.5352">N/A</text><line style="stroke:#000000;stroke-width:1.0;" x1="591" x2="591" y1="10" y2="30.4883"/><line style="stroke:#000000;stroke-width:1.0;" x1="487" x2="641" y1="30.4883" y2="30.4883"/><text fill="#000000" font-family="sans-serif" font-size="14" font-weight="bold" lengthAdjust="spacing" textLength="74" x="492" y="46.0234">row_count</text><text fill="#000000" font-family="sans-serif" font-size="14" lengthAdjust="spacing" textLength="18" x="596" y="46.0234">57</text><line style="stroke:#000000;stroke-width:1.0;" x1="591" x2="591" y1="30.4883" y2="50.9766"/><line style="stroke:#000000;stroke-width:1.0;" x1="487" x2="641" y1="50.9766" y2="50.9766"/><text fill="#000000" font-family="sans-serif" font-size="14" font-weight="bold" lengthAdjust="spacing" textLength="94" x="492" y="66.5117">ratio_percent</text><text fill="#000000" font-family="sans-serif" font-size="14" lengthAdjust="spacing" textLength="40" x="596" y="66.5117">50.44</text><line style="stroke:#000000;stroke-width:1.0;" x1="591" x2="591" y1="50.9766" y2="71.4648"/><rect fill="none" height="61.4648" rx="5" ry="5" style="stroke:#000000;stroke-width:1.5;" width="154" x="487" y="10"/><rect fill="#F1F1F1" height="61.4648" rx="5" ry="5" style="stroke:#F1F1F1;stroke-width:1.5;" width="145" x="491.5" y="89"/><text fill="#000000" font-family="sans-serif" font-size="14" font-weight="bold" lengthAdjust="spacing" textLength="94" x="496.5" y="104.5352">field_value_1</text><text fill="#000000" font-family="sans-serif" font-size="14" lengthAdjust="spacing" textLength="18" x="600.5" y="104.5352">57</text><line style="stroke:#000000;stroke-width:1.0;" x1="595.5" x2="595.5" y1="89" y2="109.4883"/><line style="stroke:#000000;stroke-width:1.0;" x1="491.5" x2="636.5" y1="109.4883" y2="109.4883"/><text fill="#000000" font-family="sans-serif" font-size="14" font-weight="bold" lengthAdjust="spacing" textLength="74" x="496.5" y="125.0234">row_count</text><text fill="#000000" font-family="sans-serif" font-size="14" lengthAdjust="spacing" textLength="9" x="600.5" y="125.0234">5</text><line style="stroke:#000000;stroke-width:1.0;" x1="595.5" x2="595.5" y1="109.4883" y2="129.9766"/><line style="stroke:#000000;stroke-width:1.0;" x1="491.5" x2="636.5" y1="129.9766" y2="129.9766"/><text fill="#000000" font-family="sans-serif" font-size="14" font-weight="bold" lengthAdjust="spacing" textLength="94" x="496.5" y="145.5117">ratio_percent</text><text fill="#000000" font-family="sans-serif" font-size="14" lengthAdjust="spacing" textLength="31" x="600.5" y="145.5117">4.42</text><line style="stroke:#000000;stroke-width:1.0;" x1="595.5" x2="595.5" y1="129.9766" y2="150.4648"/><rect fill="none" height="61.4648" rx="5" ry="5" style="stroke:#000000;stroke-width:1.5;" width="145" x="491.5" y="89"/><rect fill="#F1F1F1" height="61.4648" rx="5" ry="5" style="stroke:#F1F1F1;stroke-width:1.5;" width="145" x="491.5" y="168"/><text fill="#000000" font-family="sans-serif" font-size="14" font-weight="bold" lengthAdjust="spacing" textLength="94" x="496.5" y="183.5352">field_value_1</text><text fill="#000000" font-family="sans-serif" font-size="14" lengthAdjust="spacing" textLength="18" x="600.5" y="183.5352">44</text><line style="stroke:#000000;stroke-width:1.0;" x1="595.5" x2="595.5" y1="168" y2="188.4883"/><line style="stroke:#000000;stroke-width:1.0;" x1="491.5" x2="636.5" y1="188.4883" y2="188.4883"/><text fill="#000000" font-family="sans-serif" font-size="14" font-weight="bold" lengthAdjust="spacing" textLength="74" x="496.5" y="204.0234">row_count</text><text fill="#000000" font-family="sans-serif" font-size="14" lengthAdjust="spacing" textLength="9" x="600.5" y="204.0234">4</text><line style="stroke:#000000;stroke-width:1.0;" x1="595.5" x2="595.5" y1="188.4883" y2="208.9766"/><line style="stroke:#000000;stroke-width:1.0;" x1="491.5" x2="636.5" y1="208.9766" y2="208.9766"/><text fill="#000000" font-family="sans-serif" font-size="14" font-weight="bold" lengthAdjust="spacing" textLength="94" x="496.5" y="224.5117">ratio_percent</text><text fill="#000000" font-family="sans-serif" font-size="14" lengthAdjust="spacing" textLength="31" x="600.5" y="224.5117">3.54</text><line style="stroke:#000000;stroke-width:1.0;" x1="595.5" x2="595.5" y1="208.9766" y2="229.4648"/><rect fill="none" height="61.4648" rx="5" ry="5" style="stroke:#000000;stroke-width:1.5;" width="145" x="491.5" y="168"/><rect fill="#F1F1F1" height="61.4648" rx="5" ry="5" style="stroke:#F1F1F1;stroke-width:1.5;" width="145" x="491.5" y="247"/><text fill="#000000" font-family="sans-serif" font-size="14" font-weight="bold" lengthAdjust="spacing" textLength="94" x="496.5" y="262.5352">field_value_1</text><text fill="#000000" font-family="sans-serif" font-size="14" lengthAdjust="spacing" textLength="18" x="600.5" y="262.5352">55</text><line style="stroke:#000000;stroke-width:1.0;" x1="595.5" x2="595.5" y1="247" y2="267.4883"/><line style="stroke:#000000;stroke-width:1.0;" x1="491.5" x2="636.5" y1="267.4883" y2="267.4883"/><text fill="#000000" font-family="sans-serif" font-size="14" font-weight="bold" lengthAdjust="spacing" textLength="74" x="496.5" y="283.0234">row_count</text><text fill="#000000" font-family="sans-serif" font-size="14" lengthAdjust="spacing" textLength="9" x="600.5" y="283.0234">4</text><line style="stroke:#000000;stroke-width:1.0;" x1="595.5" x2="595.5" y1="267.4883" y2="287.9766"/><line style="stroke:#000000;stroke-width:1.0;" x1="491.5" x2="636.5" y1="287.9766" y2="287.9766"/><text fill="#000000" font-family="sans-serif" font-size="14" font-weight="bold" lengthAdjust="spacing" textLength="94" x="496.5" y="303.5117">ratio_percent</text><text fill="#000000" font-family="sans-serif" font-size="14" lengthAdjust="spacing" textLength="31" x="600.5" y="303.5117">3.54</text><line style="stroke:#000000;stroke-width:1.0;" x1="595.5" x2="595.5" y1="287.9766" y2="308.4648"/><rect fill="none" height="61.4648" rx="5" ry="5" style="stroke:#000000;stroke-width:1.5;" width="145" x="491.5" y="247"/><rect fill="#F1F1F1" height="61.4648" rx="5" ry="5" style="stroke:#F1F1F1;stroke-width:1.5;" width="145" x="491.5" y="326"/><text fill="#000000" font-family="sans-serif" font-size="14" font-weight="bold" lengthAdjust="spacing" textLength="94" x="496.5" y="341.5352">field_value_1</text><text fill="#000000" font-family="sans-serif" font-size="14" lengthAdjust="spacing" textLength="18" x="600.5" y="341.5352">37</text><line style="stroke:#000000;stroke-width:1.0;" x1="595.5" x2="595.5" y1="326" y2="346.4883"/><line style="stroke:#000000;stroke-width:1.0;" x1="491.5" x2="636.5" y1="346.4883" y2="346.4883"/><text fill="#000000" font-family="sans-serif" font-size="14" font-weight="bold" lengthAdjust="spacing" textLength="74" x="496.5" y="362.0234">row_count</text><text fill="#000000" font-family="sans-serif" font-size="14" lengthAdjust="spacing" textLength="9" x="600.5" y="362.0234">3</text><line style="stroke:#000000;stroke-width:1.0;" x1="595.5" x2="595.5" y1="346.4883" y2="366.9766"/><line style="stroke:#000000;stroke-width:1.0;" x1="491.5" x2="636.5" y1="366.9766" y2="366.9766"/><text fill="#000000" font-family="sans-serif" font-size="14" font-weight="bold" lengthAdjust="spacing" textLength="94" x="496.5" y="382.5117">ratio_percent</text><text fill="#000000" font-family="sans-serif" font-size="14" lengthAdjust="spacing" textLength="31" x="600.5" y="382.5117">2.65</text><line style="stroke:#000000;stroke-width:1.0;" x1="595.5" x2="595.5" y1="366.9766" y2="387.4648"/><rect fill="none" height="61.4648" rx="5" ry="5" style="stroke:#000000;stroke-width:1.5;" width="145" x="491.5" y="326"/><rect fill="#F1F1F1" height="61.4648" rx="5" ry="5" style="stroke:#F1F1F1;stroke-width:1.5;" width="145" x="491.5" y="405"/><text fill="#000000" font-family="sans-serif" font-size="14" font-weight="bold" lengthAdjust="spacing" textLength="94" x="496.5" y="420.5352">field_value_1</text><text fill="#000000" font-family="sans-serif" font-size="14" lengthAdjust="spacing" textLength="18" x="600.5" y="420.5352">76</text><line style="stroke:#000000;stroke-width:1.0;" x1="595.5" x2="595.5" y1="405" y2="425.4883"/><line style="stroke:#000000;stroke-width:1.0;" x1="491.5" x2="636.5" y1="425.4883" y2="425.4883"/><text fill="#000000" font-family="sans-serif" font-size="14" font-weight="bold" lengthAdjust="spacing" textLength="74" x="496.5" y="441.0234">row_count</text><text fill="#000000" font-family="sans-serif" font-size="14" lengthAdjust="spacing" textLength="9" x="600.5" y="441.0234">3</text><line style="stroke:#000000;stroke-width:1.0;" x1="595.5" x2="595.5" y1="425.4883" y2="445.9766"/><line style="stroke:#000000;stroke-width:1.0;" x1="491.5" x2="636.5" y1="445.9766" y2="445.9766"/><text fill="#000000" font-family="sans-serif" font-size="14" font-weight="bold" lengthAdjust="spacing" textLength="94" x="496.5" y="461.5117">ratio_percent</text><text fill="#000000" font-family="sans-serif" font-size="14" lengthAdjust="spacing" textLength="31" x="600.5" y="461.5117">2.65</text><line style="stroke:#000000;stroke-width:1.0;" x1="595.5" x2="595.5" y1="445.9766" y2="466.4648"/><rect fill="none" height="61.4648" rx="5" ry="5" style="stroke:#000000;stroke-width:1.5;" width="145" x="491.5" y="405"/><rect fill="#F1F1F1" height="61.4648" rx="5" ry="5" style="stroke:#F1F1F1;stroke-width:1.5;" width="150" x="489" y="484"/><text fill="#000000" font-family="sans-serif" font-size="14" font-weight="bold" lengthAdjust="spacing" textLength="94" x="494" y="499.5352">field_value_1</text><text fill="#000000" font-family="sans-serif" font-size="14" lengthAdjust="spacing" textLength="36" x="598" y="499.5352">None</text><line style="stroke:#000000;stroke-width:1.0;" x1="593" x2="593" y1="484" y2="504.4883"/><line style="stroke:#000000;stroke-width:1.0;" x1="489" x2="639" y1="504.4883" y2="504.4883"/><text fill="#000000" font-family="sans-serif" font-size="14" font-weight="bold" lengthAdjust="spacing" textLength="74" x="494" y="520.0234">row_count</text><text fill="#000000" font-family="sans-serif" font-size="14" lengthAdjust="spacing" textLength="9" x="598" y="520.0234">2</text><line style="stroke:#000000;stroke-width:1.0;" x1="593" x2="593" y1="504.4883" y2="524.9766"/><line style="stroke:#000000;stroke-width:1.0;" x1="489" x2="639" y1="524.9766" y2="524.9766"/><text fill="#000000" font-family="sans-serif" font-size="14" font-weight="bold" lengthAdjust="spacing" textLength="94" x="494" y="540.5117">ratio_percent</text><text fill="#000000" font-family="sans-serif" font-size="14" lengthAdjust="spacing" textLength="31" x="598" y="540.5117">1.77</text><line style="stroke:#000000;stroke-width:1.0;" x1="593" x2="593" y1="524.9766" y2="545.4648"/><rect fill="none" height="61.4648" rx="5" ry="5" style="stroke:#000000;stroke-width:1.5;" width="150" x="489" y="484"/><rect fill="#F1F1F1" height="61.4648" rx="5" ry="5" style="stroke:#F1F1F1;stroke-width:1.5;" width="145" x="491.5" y="563"/><text fill="#000000" font-family="sans-serif" font-size="14" font-weight="bold" lengthAdjust="spacing" textLength="94" x="496.5" y="578.5352">field_value_1</text><text fill="#000000" font-family="sans-serif" font-size="14" lengthAdjust="spacing" textLength="18" x="600.5" y="578.5352">27</text><line style="stroke:#000000;stroke-width:1.0;" x1="595.5" x2="595.5" y1="563" y2="583.4883"/><line style="stroke:#000000;stroke-width:1.0;" x1="491.5" x2="636.5" y1="583.4883" y2="583.4883"/><text fill="#000000" font-family="sans-serif" font-size="14" font-weight="bold" lengthAdjust="spacing" textLength="74" x="496.5" y="599.0234">row_count</text><text fill="#000000" font-family="sans-serif" font-size="14" lengthAdjust="spacing" textLength="9" x="600.5" y="599.0234">2</text><line style="stroke:#000000;stroke-width:1.0;" x1="595.5" x2="595.5" y1="583.4883" y2="603.9766"/><line style="stroke:#000000;stroke-width:1.0;" x1="491.5" x2="636.5" y1="603.9766" y2="603.9766"/><text fill="#000000" font-family="sans-serif" font-size="14" font-weight="bold" lengthAdjust="spacing" textLength="94" x="496.5" y="619.5117">ratio_percent</text><text fill="#000000" font-family="sans-serif" font-size="14" lengthAdjust="spacing" textLength="31" x="600.5" y="619.5117">1.77</text><line style="stroke:#000000;stroke-width:1.0;" x1="595.5" x2="595.5" y1="603.9766" y2="624.4648"/><rect fill="none" height="61.4648" rx="5" ry="5" style="stroke:#000000;stroke-width:1.5;" width="145" x="491.5" y="563"/><rect fill="#F1F1F1" height="61.4648" rx="5" ry="5" style="stroke:#F1F1F1;stroke-width:1.5;" width="145" x="491.5" y="642"/><text fill="#000000" font-family="sans-serif" font-size="14" font-weight="bold" lengthAdjust="spacing" textLength="94" x="496.5" y="657.5352">field_value_1</text><text fill="#000000" font-family="sans-serif" font-size="14" lengthAdjust="spacing" textLength="18" x="600.5" y="657.5352">36</text><line style="stroke:#000000;stroke-width:1.0;" x1="595.5" x2="595.5" y1="642" y2="662.4883"/><line style="stroke:#000000;stroke-width:1.0;" x1="491.5" x2="636.5" y1="662.4883" y2="662.4883"/><text fill="#000000" font-family="sans-serif" font-size="14" font-weight="bold" lengthAdjust="spacing" textLength="74" x="496.5" y="678.0234">row_count</text><text fill="#000000" font-family="sans-serif" font-size="14" lengthAdjust="spacing" textLength="9" x="600.5" y="678.0234">2</text><line style="stroke:#000000;stroke-width:1.0;" x1="595.5" x2="595.5" y1="662.4883" y2="682.9766"/><line style="stroke:#000000;stroke-width:1.0;" x1="491.5" x2="636.5" y1="682.9766" y2="682.9766"/><text fill="#000000" font-family="sans-serif" font-size="14" font-weight="bold" lengthAdjust="spacing" textLength="94" x="496.5" y="698.5117">ratio_percent</text><text fill="#000000" font-family="sans-serif" font-size="14" lengthAdjust="spacing" textLength="31" x="600.5" y="698.5117">1.77</text><line style="stroke:#000000;stroke-width:1.0;" x1="595.5" x2="595.5" y1="682.9766" y2="703.4648"/><rect fill="none" height="61.4648" rx="5" ry="5" style="stroke:#000000;stroke-width:1.5;" width="145" x="491.5" y="642"/><rect fill="#F1F1F1" height="61.4648" rx="5" ry="5" style="stroke:#F1F1F1;stroke-width:1.5;" width="145" x="491.5" y="721"/><text fill="#000000" font-family="sans-serif" font-size="14" font-weight="bold" lengthAdjust="spacing" textLength="94" x="496.5" y="736.5352">field_value_1</text><text fill="#000000" font-family="sans-serif" font-size="14" lengthAdjust="spacing" textLength="18" x="600.5" y="736.5352">53</text><line style="stroke:#000000;stroke-width:1.0;" x1="595.5" x2="595.5" y1="721" y2="741.4883"/><line style="stroke:#000000;stroke-width:1.0;" x1="491.5" x2="636.5" y1="741.4883" y2="741.4883"/><text fill="#000000" font-family="sans-serif" font-size="14" font-weight="bold" lengthAdjust="spacing" textLength="74" x="496.5" y="757.0234">row_count</text><text fill="#000000" font-family="sans-serif" font-size="14" lengthAdjust="spacing" textLength="9" x="600.5" y="757.0234">2</text><line style="stroke:#000000;stroke-width:1.0;" x1="595.5" x2="595.5" y1="741.4883" y2="761.9766"/><line style="stroke:#000000;stroke-width:1.0;" x1="491.5" x2="636.5" y1="761.9766" y2="761.9766"/><text fill="#000000" font-family="sans-serif" font-size="14" font-weight="bold" lengthAdjust="spacing" textLength="94" x="496.5" y="777.5117">ratio_percent</text><text fill="#000000" font-family="sans-serif" font-size="14" lengthAdjust="spacing" textLength="31" x="600.5" y="777.5117">1.77</text><line style="stroke:#000000;stroke-width:1.0;" x1="595.5" x2="595.5" y1="761.9766" y2="782.4648"/><rect fill="none" height="61.4648" rx="5" ry="5" style="stroke:#000000;stroke-width:1.5;" width="145" x="491.5" y="721"/><path d="M212,315.5 L225,315.5 C245.8273,315.5 242.7406,295.5187 261,285.5 C265.1394,283.2288 269.4771,281.0988 273.9224,279.1061 " fill="none" style="stroke:#000000;stroke-width:1.0;stroke-dasharray:3.0,3.0;"/><path d="M275.1301,281.9305 L276.0407,278.2004 L272.7148,276.2817 L280.9835,276.0871 L275.1301,281.9305 " fill="#000000" style="stroke:#000000;stroke-width:1.0;"/><ellipse cx="212" cy="315.5" fill="#000000" rx="3" ry="3" style="stroke:#000000;stroke-width:1.0;"/><path d="M356,305.5 L356,292.5 C356,281.9158 443.1531,292.6029 451,285.5 C519.9064,223.1275 431.7805,154.2611 487,79.5 C487.6919,78.5632 488.4129,77.6472 489.1605,76.7517 " fill="none" style="stroke:#000000;stroke-width:1.0;stroke-dasharray:3.0,3.0;"/><path d="M491.4075,78.8695 L490.7488,75.0664 L486.9134,74.634 L494.4548,71.1341 L491.4075,78.8695 " fill="#000000" style="stroke:#000000;stroke-width:1.0;"/><ellipse cx="356" cy="305.5" fill="#000000" rx="3" ry="3" style="stroke:#000000;stroke-width:1.0;"/><path d="M356,324.5 L369,324.5 C409.3564,324.5 424.9543,316.3264 451,285.5 C488.864,240.686 449.7561,203.8306 487,158.5 C487.8458,157.4705 488.7258,156.4654 489.6366,155.4842 " fill="none" style="stroke:#000000;stroke-width:1.0;stroke-dasharray:3.0,3.0;"/><path d="M491.7812,157.6957 L491.2952,153.8758 L487.492,153.2727 L495.1654,150.1227 L491.7812,157.6957 " fill="#000000" style="stroke:#000000;stroke-width:1.0;"/><ellipse cx="356" cy="324.5" fill="#000000" rx="3" ry="3" style="stroke:#000000;stroke-width:1.0;"/><path d="M356,344.5 L369,344.5 C413.8977,344.5 418.9398,316.9316 451,285.5 C470.0419,266.8314 466.5935,254.6664 487,237.5 C488.6577,236.1055 490.3737,234.7436 492.1361,233.4152 " fill="none" style="stroke:#000000;stroke-width:1.0;stroke-dasharray:3.0,3.0;"/><path d="M493.8907,235.8764 L493.982,232.0992 L490.3814,230.954 L498.2891,229.0286 L493.8907,235.8764 " fill="#000000" style="stroke:#000000;stroke-width:1.0;"/><ellipse cx="356" cy="344.5" fill="#000000" rx="3" ry="3" style="stroke:#000000;stroke-width:1.0;"/><path d="M356,365.5 L369,365.5 C382.7004,365.5 445.4602,336.143 496.0372,311.3412 " fill="none" style="stroke:#000000;stroke-width:1.0;stroke-dasharray:3.0,3.0;"/><path d="M497.3612,314.0345 L498.0571,310.3482 L494.7132,308.6479 L502.7704,308.0312 L497.3612,314.0345 " fill="#000000" style="stroke:#000000;stroke-width:1.0;"/><ellipse cx="356" cy="365.5" fill="#000000" rx="3" ry="3" style="stroke:#000000;stroke-width:1.0;"/><path d="M356,385.5 L369,385.5 C407.2482,385.5 449.2692,379.9461 484.4358,373.6994 " fill="none" style="stroke:#000000;stroke-width:1.0;stroke-dasharray:3.0,3.0;"/><path d="M484.9725,376.6579 L486.6547,373.2968 L483.8991,370.7408 L491.8321,372.3576 L484.9725,376.6579 " fill="#000000" style="stroke:#000000;stroke-width:1.0;"/><ellipse cx="356" cy="385.5" fill="#000000" rx="3" ry="3" style="stroke:#000000;stroke-width:1.0;"/><path d="M356,406.5 L369,406.5 C407.2482,406.5 449.2692,412.0539 484.4358,418.3006 " fill="none" style="stroke:#000000;stroke-width:1.0;stroke-dasharray:3.0,3.0;"/><path d="M483.8991,421.2592 L486.6547,418.7032 L484.9725,415.3421 L491.8321,419.6424 L483.8991,421.2592 " fill="#000000" style="stroke:#000000;stroke-width:1.0;"/><ellipse cx="356" cy="406.5" fill="#000000" rx="3" ry="3" style="stroke:#000000;stroke-width:1.0;"/><path d="M356,427.5 L369,427.5 C382.5799,427.5 444.576,456.1251 494.9765,480.5363 " fill="none" style="stroke:#000000;stroke-width:1.0;stroke-dasharray:3.0,3.0;"/><path d="M493.6112,483.3477 L497.0851,481.5602 L496.3417,477.7248 L502.005,483.9494 L493.6112,483.3477 " fill="#000000" style="stroke:#000000;stroke-width:1.0;"/><ellipse cx="356" cy="427.5" fill="#000000" rx="3" ry="3" style="stroke:#000000;stroke-width:1.0;"/><path d="M356,447.5 L369,447.5 C439.7951,447.5 428.7308,514.2924 487,554.5 C489.0859,555.9393 491.2321,557.3595 493.4214,558.7567 " fill="none" style="stroke:#000000;stroke-width:1.0;stroke-dasharray:3.0,3.0;"/><path d="M491.7739,561.4287 L495.4254,559.9923 L495.0689,556.0846 L500.1015,562.8754 L491.7739,561.4287 " fill="#000000" style="stroke:#000000;stroke-width:1.0;"/><ellipse cx="356" cy="447.5" fill="#000000" rx="3" ry="3" style="stroke:#000000;stroke-width:1.0;"/><path d="M356,468.5 L369,468.5 C459.1565,468.5 418.6709,574.6839 487,633.5 C488.4829,634.7765 490.0149,636.0245 491.5869,637.2438 " fill="none" style="stroke:#000000;stroke-width:1.0;stroke-dasharray:3.0,3.0;"/><path d="M489.7633,639.7412 L493.4599,638.6115 L493.4105,634.7464 L497.8304,641.8028 L489.7633,639.7412 " fill="#000000" style="stroke:#000000;stroke-width:1.0;"/><ellipse cx="356" cy="468.5" fill="#000000" rx="3" ry="3" style="stroke:#000000;stroke-width:1.0;"/><path d="M356,487.5 L356,500.5 C356,611.2594 405.5356,637.4587 487,712.5 C488.2918,713.6899 489.6267,714.8529 490.998,715.9889 " fill="none" style="stroke:#000000;stroke-width:1.0;stroke-dasharray:3.0,3.0;"/><path d="M489.0747,718.479 L492.8655,717.4314 L492.9212,713.4989 L497.2231,720.7971 L489.0747,718.479 " fill="#000000" style="stroke:#000000;stroke-width:1.0;"/><ellipse cx="356" cy="487.5" fill="#000000" rx="3" ry="3" style="stroke:#000000;stroke-width:1.0;"/><path d="M212,336.5 L225,336.5 C268.8518,336.5 314.0003,364.993 337.8339,382.7089 " fill="none" style="stroke:#000000;stroke-width:1.0;stroke-dasharray:3.0,3.0;"/><path d="M335.9625,385.1642 L339.6753,384.1124 L339.7052,380.2536 L343.9721,387.3873 L335.9625,385.1642 " fill="#000000" style="stroke:#000000;stroke-width:1.0;"/><ellipse cx="212" cy="336.5" fill="#000000" rx="3" ry="3" style="stroke:#000000;stroke-width:1.0;"/><!--MD5=[16218c2833c1ee8935f4f9058d9722f2]
@startjson
{
    "field1": "Metascore",
    "combination": "Metascore",
    "null_distribution": {
        "total_null_rows": 2,
        "total_not_null_rows": 111
    },
    "data_distribution": [
        {
            "field_value_1": "N/A",
            "row_count": 57,
            "ratio_percent": 50.44
        },
        {
            "field_value_1": "57",
            "row_count": 5,
            "ratio_percent": 4.42
        },
        {
            "field_value_1": "44",
            "row_count": 4,
            "ratio_percent": 3.54
        },
        {
            "field_value_1": "55",
            "row_count": 4,
            "ratio_percent": 3.54
        },
        {
            "field_value_1": "37",
            "row_count": 3,
            "ratio_percent": 2.65
        },
        {
            "field_value_1": "76",
            "row_count": 3,
            "ratio_percent": 2.65
        },
        {
            "field_value_1": "None",
            "row_count": 2,
            "ratio_percent": 1.77
        },
        {
            "field_value_1": "27",
            "row_count": 2,
            "ratio_percent": 1.77
        },
        {
            "field_value_1": "36",
            "row_count": 2,
            "ratio_percent": 1.77
        },
        {
            "field_value_1": "53",
            "row_count": 2,
            "ratio_percent": 1.77
        }
    ]
}
@endjson

PlantUML version 1.2022.12(Sun Oct 23 14:12:26 EDT 2022)
(GPL source distribution)
Java Runtime: OpenJDK Runtime Environment
JVM: OpenJDK 64-Bit Server VM
Default Encoding: UTF-8
Language: en
Country: CA
--></g></svg>