<?xml version="1.0" encoding="UTF-8" standalone="no"?><svg xmlns="http://www.w3.org/2000/svg" xmlns:xlink="http://www.w3.org/1999/xlink" contentStyleType="text/css" height="794px" preserveAspectRatio="none" style="width:674px;height:794px;background:#FFFFFF;" version="1.1" viewBox="0 0 674 794" width="674px" zoomAndPan="magnify"><defs/><g><rect fill="#F1F1F1" height="81.9531" rx="5" ry="5" style="stroke:#F1F1F1;stroke-width:1.5;" width="217" x="10" y="264.5"/><text fill="#000000" font-family="sans-serif" font-size="14" font-weight="bold" lengthAdjust="spacing" textLength="42" x="15" y="280.0352">field1</text><text fill="#000000" font-family="sans-serif" font-size="14" lengthAdjust="spacing" textLength="73" x="149" y="280.0352">imdbVotes</text><line style="stroke:#000000;stroke-width:1.0;" x1="144" x2="144" y1="264.5" y2="284.9883"/><line style="stroke:#000000;stroke-width:1.0;" x1="10" x2="227" y1="284.9883" y2="284.9883"/><text fill="#000000" font-family="sans-serif" font-size="14" font-weight="bold" lengthAdjust="spacing" textLength="90" x="15" y="300.5234">combination</text><text fill="#000000" font-family="sans-serif" font-size="14" lengthAdjust="spacing" textLength="73" x="149" y="300.5234">imdbVotes</text><line style="stroke:#000000;stroke-width:1.0;" x1="144" x2="144" y1="284.9883" y2="305.4766"/><line style="stroke:#000000;stroke-width:1.0;" x1="10" x2="227" y1="305.4766" y2="305.4766"/><text fill="#000000" font-family="sans-serif" font-size="14" font-weight="bold" lengthAdjust="spacing" textLength="121" x="15" y="321.0117">null_distribution</text><text fill="#000000" font-family="sans-serif" font-size="14" lengthAdjust="spacing" textLength="12" x="149" y="321.0117">   </text><line style="stroke:#000000;stroke-width:1.0;" x1="144" x2="144" y1="305.4766" y2="325.9648"/><line style="stroke:#000000;stroke-width:1.0;" x1="10" x2="227" y1="325.9648" y2="325.9648"/><text fill="#000000" font-family="sans-serif" font-size="14" font-weight="bold" lengthAdjust="spacing" textLength="124" x="15" y="341.5">data_distribution</text><text fill="#000000" font-family="sans-serif" font-size="14" lengthAdjust="spacing" textLength="12" x="149" y="341.5">   </text><line style="stroke:#000000;stroke-width:1.0;" x1="144" x2="144" y1="325.9648" y2="346.4531"/><rect fill="none" height="81.9531" rx="5" ry="5" style="stroke:#000000;stroke-width:1.5;" width="217" x="10" y="264.5"/><rect fill="#F1F1F1" height="40.9766" rx="5" ry="5" style="stroke:#F1F1F1;stroke-width:1.5;" width="189" x="264" y="235"/><text fill="#000000" font-family="sans-serif" font-size="14" font-weight="bold" lengthAdjust="spacing" textLength="111" x="269" y="250.5352">total_null_rows</text><text fill="#000000" font-family="sans-serif" font-size="14" lengthAdjust="spacing" textLength="9" x="421" y="250.5352">2</text><line style="stroke:#000000;stroke-width:1.0;" x1="416" x2="416" y1="235" y2="255.4883"/><line style="stroke:#000000;stroke-width:1.0;" x1="264" x2="453" y1="255.4883" y2="255.4883"/><text fill="#000000" font-family="sans-serif" font-size="14" font-weight="bold" lengthAdjust="spacing" textLength="142" x="269" y="271.0234">total_not_null_rows</text><text fill="#000000" font-family="sans-serif" font-size="14" lengthAdjust="spacing" textLength="27" x="421" y="271.0234">111</text><line style="stroke:#000000;stroke-width:1.0;" x1="416" x2="416" y1="255.4883" y2="275.9766"/><rect fill="none" height="40.9766" rx="5" ry="5" style="stroke:#000000;stroke-width:1.5;" width="189" x="264" y="235"/><rect fill="#F1F1F1" height="204.8828" rx="5" ry="5" style="stroke:#F1F1F1;stroke-width:1.5;" width="22" x="346.5" y="294"/><text fill="#000000" font-family="sans-serif" font-size="14" lengthAdjust="spacing" textLength="12" x="351.5" y="309.5352">   </text><line style="stroke:#000000;stroke-width:1.0;" x1="346.5" x2="368.5" y1="314.4883" y2="314.4883"/><text fill="#000000" font-family="sans-serif" font-size="14" lengthAdjust="spacing" textLength="12" x="351.5" y="330.0234">   </text><line style="stroke:#000000;stroke-width:1.0;" x1="346.5" x2="368.5" y1="334.9766" y2="334.9766"/><text fill="#000000" font-family="sans-serif" font-size="14" lengthAdjust="spacing" textLength="12" x="351.5" y="350.5117">   </text><line style="stroke:#000000;stroke-width:1.0;" x1="346.5" x2="368.5" y1="355.4648" y2="355.4648"/><text fill="#000000" font-family="sans-serif" font-size="14" lengthAdjust="spacing" textLength="12" x="351.5" y="371">   </text><line style="stroke:#000000;stroke-width:1.0;" x1="346.5" x2="368.5" y1="375.9531" y2="375.9531"/><text fill="#000000" font-family="sans-serif" font-size="14" lengthAdjust="spacing" textLength="12" x="351.5" y="391.4883">   </text><line style="stroke:#000000;stroke-width:1.0;" x1="346.5" x2="368.5" y1="396.4414" y2="396.4414"/><text fill="#000000" font-family="sans-serif" font-size="14" lengthAdjust="spacing" textLength="12" x="351.5" y="411.9766">   </text><line style="stroke:#000000;stroke-width:1.0;" x1="346.5" x2="368.5" y1="416.9297" y2="416.9297"/><text fill="#000000" font-family="sans-serif" font-size="14" lengthAdjust="spacing" textLength="12" x="351.5" y="432.4648">   </text><line style="stroke:#000000;stroke-width:1.0;" x1="346.5" x2="368.5" y1="437.418" y2="437.418"/><text fill="#000000" font-family="sans-serif" font-size="14" lengthAdjust="spacing" textLength="12" x="351.5" y="452.9531">   </text><line style="stroke:#000000;stroke-width:1.0;" x1="346.5" x2="368.5" y1="457.9063" y2="457.9063"/><text fill="#000000" font-family="sans-serif" font-size="14" lengthAdjust="spacing" textLength="12" x="351.5" y="473.4414">   </text><line style="stroke:#000000;stroke-width:1.0;" x1="346.5" x2="368.5" y1="478.3945" y2="478.3945"/><text fill="#000000" font-family="sans-serif" font-size="14" lengthAdjust="spacing" textLength="12" x="351.5" y="493.9297">   </text><rect fill="none" height="204.8828" rx="5" ry="5" style="stroke:#000000;stroke-width:1.5;" width="22" x="346.5" y="294"/><rect fill="#F1F1F1" height="61.4648" rx="5" ry="5" style="stroke:#F1F1F1;stroke-width:1.5;" width="172" x="490" y="10"/><text fill="#000000" font-family="sans-serif" font-size="14" font-weight="bold" lengthAdjust="spacing" textLength="94" x="495" y="25.5352">field_value_1</text><text fill="#000000" font-family="sans-serif" font-size="14" lengthAdjust="spacing" textLength="58" x="599" y="25.5352">118,636</text><line style="stroke:#000000;stroke-width:1.0;" x1="594" x2="594" y1="10" y2="30.4883"/><line style="stroke:#000000;stroke-width:1.0;" x1="490" x2="662" y1="30.4883" y2="30.4883"/><text fill="#000000" font-family="sans-serif" font-size="14" font-weight="bold" lengthAdjust="spacing" textLength="74" x="495" y="46.0234">row_count</text><text fill="#000000" font-family="sans-serif" font-size="14" lengthAdjust="spacing" textLength="9" x="599" y="46.0234">4</text><line style="stroke:#000000;stroke-width:1.0;" x1="594" x2="594" y1="30.4883" y2="50.9766"/><line style="stroke:#000000;stroke-width:1.0;" x1="490" x2="662" y1="50.9766" y2="50.9766"/><text fill="#000000" font-family="sans-serif" font-size="14" font-weight="bold" lengthAdjust="spacing" textLength="94" x="495" y="66.5117">ratio_percent</text><text fill="#000000" font-family="sans-serif" font-size="14" lengthAdjust="spacing" textLength="31" x="599" y="66.5117">3.54</text><line style="stroke:#000000;stroke-width:1.0;" x1="594" x2="594" y1="50.9766" y2="71.4648"/><rect fill="none" height="61.4648" rx="5" ry="5" style="stroke:#000000;stroke-width:1.5;" width="172" x="490" y="10"/><rect fill="#F1F1F1" height="61.4648" rx="5" ry="5" style="stroke:#F1F1F1;stroke-width:1.5;" width="150" x="501" y="89"/><text fill="#000000" font-family="sans-serif" font-size="14" font-weight="bold" lengthAdjust="spacing" textLength="94" x="506" y="104.5352">field_value_1</text><text fill="#000000" font-family="sans-serif" font-size="14" lengthAdjust="spacing" textLength="36" x="610" y="104.5352">None</text><line style="stroke:#000000;stroke-width:1.0;" x1="605" x2="605" y1="89" y2="109.4883"/><line style="stroke:#000000;stroke-width:1.0;" x1="501" x2="651" y1="109.4883" y2="109.4883"/><text fill="#000000" font-family="sans-serif" font-size="14" font-weight="bold" lengthAdjust="spacing" textLength="74" x="506" y="125.0234">row_count</text><text fill="#000000" font-family="sans-serif" font-size="14" lengthAdjust="spacing" textLength="9" x="610" y="125.0234">2</text><line style="stroke:#000000;stroke-width:1.0;" x1="605" x2="605" y1="109.4883" y2="129.9766"/><line style="stroke:#000000;stroke-width:1.0;" x1="501" x2="651" y1="129.9766" y2="129.9766"/><text fill="#000000" font-family="sans-serif" font-size="14" font-weight="bold" lengthAdjust="spacing" textLength="94" x="506" y="145.5117">ratio_percent</text><text fill="#000000" font-family="sans-serif" font-size="14" lengthAdjust="spacing" textLength="31" x="610" y="145.5117">1.77</text><line style="stroke:#000000;stroke-width:1.0;" x1="605" x2="605" y1="129.9766" y2="150.4648"/><rect fill="none" height="61.4648" rx="5" ry="5" style="stroke:#000000;stroke-width:1.5;" width="150" x="501" y="89"/><rect fill="#F1F1F1" height="61.4648" rx="5" ry="5" style="stroke:#F1F1F1;stroke-width:1.5;" width="163" x="494.5" y="168"/><text fill="#000000" font-family="sans-serif" font-size="14" font-weight="bold" lengthAdjust="spacing" textLength="94" x="499.5" y="183.5352">field_value_1</text><text fill="#000000" font-family="sans-serif" font-size="14" lengthAdjust="spacing" textLength="49" x="603.5" y="183.5352">12,221</text><line style="stroke:#000000;stroke-width:1.0;" x1="598.5" x2="598.5" y1="168" y2="188.4883"/><line style="stroke:#000000;stroke-width:1.0;" x1="494.5" x2="657.5" y1="188.4883" y2="188.4883"/><text fill="#000000" font-family="sans-serif" font-size="14" font-weight="bold" lengthAdjust="spacing" textLength="74" x="499.5" y="204.0234">row_count</text><text fill="#000000" font-family="sans-serif" font-size="14" lengthAdjust="spacing" textLength="9" x="603.5" y="204.0234">2</text><line style="stroke:#000000;stroke-width:1.0;" x1="598.5" x2="598.5" y1="188.4883" y2="208.9766"/><line style="stroke:#000000;stroke-width:1.0;" x1="494.5" x2="657.5" y1="208.9766" y2="208.9766"/><text fill="#000000" font-family="sans-serif" font-size="14" font-weight="bold" lengthAdjust="spacing" textLength="94" x="499.5" y="224.5117">ratio_percent</text><text fill="#000000" font-family="sans-serif" font-size="14" lengthAdjust="spacing" textLength="31" x="603.5" y="224.5117">1.77</text><line style="stroke:#000000;stroke-width:1.0;" x1="598.5" x2="598.5" y1="208.9766" y2="229.4648"/><rect fill="none" height="61.4648" rx="5" ry="5" style="stroke:#000000;stroke-width:1.5;" width="163" x="494.5" y="168"/><rect fill="#F1F1F1" height="61.4648" rx="5" ry="5" style="stroke:#F1F1F1;stroke-width:1.5;" width="163" x="494.5" y="247"/><text fill="#000000" font-family="sans-serif" font-size="14" font-weight="bold" lengthAdjust="spacing" textLength="94" x="499.5" y="262.5352">field_value_1</text><text fill="#000000" font-family="sans-serif" font-size="14" lengthAdjust="spacing" textLength="49" x="603.5" y="262.5352">13,100</text><line style="stroke:#000000;stroke-width:1.0;" x1="598.5" x2="598.5" y1="247" y2="267.4883"/><line style="stroke:#000000;stroke-width:1.0;" x1="494.5" x2="657.5" y1="267.4883" y2="267.4883"/><text fill="#000000" font-family="sans-serif" font-size="14" font-weight="bold" lengthAdjust="spacing" textLength="74" x="499.5" y="283.0234">row_count</text><text fill="#000000" font-family="sans-serif" font-size="14" lengthAdjust="spacing" textLength="9" x="603.5" y="283.0234">2</text><line style="stroke:#000000;stroke-width:1.0;" x1="598.5" x2="598.5" y1="267.4883" y2="287.9766"/><line style="stroke:#000000;stroke-width:1.0;" x1="494.5" x2="657.5" y1="287.9766" y2="287.9766"/><text fill="#000000" font-family="sans-serif" font-size="14" font-weight="bold" lengthAdjust="spacing" textLength="94" x="499.5" y="303.5117">ratio_percent</text><text fill="#000000" font-family="sans-serif" font-size="14" lengthAdjust="spacing" textLength="31" x="603.5" y="303.5117">1.77</text><line style="stroke:#000000;stroke-width:1.0;" x1="598.5" x2="598.5" y1="287.9766" y2="308.4648"/><rect fill="none" height="61.4648" rx="5" ry="5" style="stroke:#000000;stroke-width:1.5;" width="163" x="494.5" y="247"/><rect fill="#F1F1F1" height="61.4648" rx="5" ry="5" style="stroke:#F1F1F1;stroke-width:1.5;" width="163" x="494.5" y="326"/><text fill="#000000" font-family="sans-serif" font-size="14" font-weight="bold" lengthAdjust="spacing" textLength="94" x="499.5" y="341.5352">field_value_1</text><text fill="#000000" font-family="sans-serif" font-size="14" lengthAdjust="spacing" textLength="49" x="603.5" y="341.5352">19,495</text><line style="stroke:#000000;stroke-width:1.0;" x1="598.5" x2="598.5" y1="326" y2="346.4883"/><line style="stroke:#000000;stroke-width:1.0;" x1="494.5" x2="657.5" y1="346.4883" y2="346.4883"/><text fill="#000000" font-family="sans-serif" font-size="14" font-weight="bold" lengthAdjust="spacing" textLength="74" x="499.5" y="362.0234">row_count</text><text fill="#000000" font-family="sans-serif" font-size="14" lengthAdjust="spacing" textLength="9" x="603.5" y="362.0234">2</text><line style="stroke:#000000;stroke-width:1.0;" x1="598.5" x2="598.5" y1="346.4883" y2="366.9766"/><line style="stroke:#000000;stroke-width:1.0;" x1="494.5" x2="657.5" y1="366.9766" y2="366.9766"/><text fill="#000000" font-family="sans-serif" font-size="14" font-weight="bold" lengthAdjust="spacing" textLength="94" x="499.5" y="382.5117">ratio_percent</text><text fill="#000000" font-family="sans-serif" font-size="14" lengthAdjust="spacing" textLength="31" x="603.5" y="382.5117">1.77</text><line style="stroke:#000000;stroke-width:1.0;" x1="598.5" x2="598.5" y1="366.9766" y2="387.4648"/><rect fill="none" height="61.4648" rx="5" ry="5" style="stroke:#000000;stroke-width:1.5;" width="163" x="494.5" y="326"/><rect fill="#F1F1F1" height="61.4648" rx="5" ry="5" style="stroke:#F1F1F1;stroke-width:1.5;" width="172" x="490" y="405"/><text fill="#000000" font-family="sans-serif" font-size="14" font-weight="bold" lengthAdjust="spacing" textLength="94" x="495" y="420.5352">field_value_1</text><text fill="#000000" font-family="sans-serif" font-size="14" lengthAdjust="spacing" textLength="58" x="599" y="420.5352">359,439</text><line style="stroke:#000000;stroke-width:1.0;" x1="594" x2="594" y1="405" y2="425.4883"/><line style="stroke:#000000;stroke-width:1.0;" x1="490" x2="662" y1="425.4883" y2="425.4883"/><text fill="#000000" font-family="sans-serif" font-size="14" font-weight="bold" lengthAdjust="spacing" textLength="74" x="495" y="441.0234">row_count</text><text fill="#000000" font-family="sans-serif" font-size="14" lengthAdjust="spacing" textLength="9" x="599" y="441.0234">2</text><line style="stroke:#000000;stroke-width:1.0;" x1="594" x2="594" y1="425.4883" y2="445.9766"/><line style="stroke:#000000;stroke-width:1.0;" x1="490" x2="662" y1="445.9766" y2="445.9766"/><text fill="#000000" font-family="sans-serif" font-size="14" font-weight="bold" lengthAdjust="spacing" textLength="94" x="495" y="461.5117">ratio_percent</text><text fill="#000000" font-family="sans-serif" font-size="14" lengthAdjust="spacing" textLength="31" x="599" y="461.5117">1.77</text><line style="stroke:#000000;stroke-width:1.0;" x1="594" x2="594" y1="445.9766" y2="466.4648"/><rect fill="none" height="61.4648" rx="5" ry="5" style="stroke:#000000;stroke-width:1.5;" width="172" x="490" y="405"/><rect fill="#F1F1F1" height="61.4648" rx="5" ry="5" style="stroke:#F1F1F1;stroke-width:1.5;" width="163" x="494.5" y="484"/><text fill="#000000" font-family="sans-serif" font-size="14" font-weight="bold" lengthAdjust="spacing" textLength="94" x="499.5" y="499.5352">field_value_1</text><text fill="#000000" font-family="sans-serif" font-size="14" lengthAdjust="spacing" textLength="49" x="603.5" y="499.5352">36,211</text><line style="stroke:#000000;stroke-width:1.0;" x1="598.5" x2="598.5" y1="484" y2="504.4883"/><line style="stroke:#000000;stroke-width:1.0;" x1="494.5" x2="657.5" y1="504.4883" y2="504.4883"/><text fill="#000000" font-family="sans-serif" font-size="14" font-weight="bold" lengthAdjust="spacing" textLength="74" x="499.5" y="520.0234">row_count</text><text fill="#000000" font-family="sans-serif" font-size="14" lengthAdjust="spacing" textLength="9" x="603.5" y="520.0234">2</text><line style="stroke:#000000;stroke-width:1.0;" x1="598.5" x2="598.5" y1="504.4883" y2="524.9766"/><line style="stroke:#000000;stroke-width:1.0;" x1="494.5" x2="657.5" y1="524.9766" y2="524.9766"/><text fill="#000000" font-family="sans-serif" font-size="14" font-weight="bold" lengthAdjust="spacing" textLength="94" x="499.5" y="540.5117">ratio_percent</text><text fill="#000000" font-family="sans-serif" font-size="14" lengthAdjust="spacing" textLength="31" x="603.5" y="540.5117">1.77</text><line style="stroke:#000000;stroke-width:1.0;" x1="598.5" x2="598.5" y1="524.9766" y2="545.4648"/><rect fill="none" height="61.4648" rx="5" ry="5" style="stroke:#000000;stroke-width:1.5;" width="163" x="494.5" y="484"/><rect fill="#F1F1F1" height="61.4648" rx="5" ry="5" style="stroke:#F1F1F1;stroke-width:1.5;" width="163" x="494.5" y="563"/><text fill="#000000" font-family="sans-serif" font-size="14" font-weight="bold" lengthAdjust="spacing" textLength="94" x="499.5" y="578.5352">field_value_1</text><text fill="#000000" font-family="sans-serif" font-size="14" lengthAdjust="spacing" textLength="49" x="603.5" y="578.5352">38,196</text><line style="stroke:#000000;stroke-width:1.0;" x1="598.5" x2="598.5" y1="563" y2="583.4883"/><line style="stroke:#000000;stroke-width:1.0;" x1="494.5" x2="657.5" y1="583.4883" y2="583.4883"/><text fill="#000000" font-family="sans-serif" font-size="14" font-weight="bold" lengthAdjust="spacing" textLength="74" x="499.5" y="599.0234">row_count</text><text fill="#000000" font-family="sans-serif" font-size="14" lengthAdjust="spacing" textLength="9" x="603.5" y="599.0234">2</text><line style="stroke:#000000;stroke-width:1.0;" x1="598.5" x2="598.5" y1="583.4883" y2="603.9766"/><line style="stroke:#000000;stroke-width:1.0;" x1="494.5" x2="657.5" y1="603.9766" y2="603.9766"/><text fill="#000000" font-family="sans-serif" font-size="14" font-weight="bold" lengthAdjust="spacing" textLength="94" x="499.5" y="619.5117">ratio_percent</text><text fill="#000000" font-family="sans-serif" font-size="14" lengthAdjust="spacing" textLength="31" x="603.5" y="619.5117">1.77</text><line style="stroke:#000000;stroke-width:1.0;" x1="598.5" x2="598.5" y1="603.9766" y2="624.4648"/><rect fill="none" height="61.4648" rx="5" ry="5" style="stroke:#000000;stroke-width:1.5;" width="163" x="494.5" y="563"/><rect fill="#F1F1F1" height="61.4648" rx="5" ry="5" style="stroke:#F1F1F1;stroke-width:1.5;" width="154" x="499" y="642"/><text fill="#000000" font-family="sans-serif" font-size="14" font-weight="bold" lengthAdjust="spacing" textLength="94" x="504" y="657.5352">field_value_1</text><text fill="#000000" font-family="sans-serif" font-size="14" lengthAdjust="spacing" textLength="40" x="608" y="657.5352">6,289</text><line style="stroke:#000000;stroke-width:1.0;" x1="603" x2="603" y1="642" y2="662.4883"/><line style="stroke:#000000;stroke-width:1.0;" x1="499" x2="653" y1="662.4883" y2="662.4883"/><text fill="#000000" font-family="sans-serif" font-size="14" font-weight="bold" lengthAdjust="spacing" textLength="74" x="504" y="678.0234">row_count</text><text fill="#000000" font-family="sans-serif" font-size="14" lengthAdjust="spacing" textLength="9" x="608" y="678.0234">2</text><line style="stroke:#000000;stroke-width:1.0;" x1="603" x2="603" y1="662.4883" y2="682.9766"/><line style="stroke:#000000;stroke-width:1.0;" x1="499" x2="653" y1="682.9766" y2="682.9766"/><text fill="#000000" font-family="sans-serif" font-size="14" font-weight="bold" lengthAdjust="spacing" textLength="94" x="504" y="698.5117">ratio_percent</text><text fill="#000000" font-family="sans-serif" font-size="14" lengthAdjust="spacing" textLength="31" x="608" y="698.5117">1.77</text><line style="stroke:#000000;stroke-width:1.0;" x1="603" x2="603" y1="682.9766" y2="703.4648"/><rect fill="none" height="61.4648" rx="5" ry="5" style="stroke:#000000;stroke-width:1.5;" width="154" x="499" y="642"/><rect fill="#F1F1F1" height="61.4648" rx="5" ry="5" style="stroke:#F1F1F1;stroke-width:1.5;" width="163" x="494.5" y="721"/><text fill="#000000" font-family="sans-serif" font-size="14" font-weight="bold" lengthAdjust="spacing" textLength="94" x="499.5" y="736.5352">field_value_1</text><text fill="#000000" font-family="sans-serif" font-size="14" lengthAdjust="spacing" textLength="49" x="603.5" y="736.5352">68,925</text><line style="stroke:#000000;stroke-width:1.0;" x1="598.5" x2="598.5" y1="721" y2="741.4883"/><line style="stroke:#000000;stroke-width:1.0;" x1="494.5" x2="657.5" y1="741.4883" y2="741.4883"/><text fill="#000000" font-family="sans-serif" font-size="14" font-weight="bold" lengthAdjust="spacing" textLength="74" x="499.5" y="757.0234">row_count</text><text fill="#000000" font-family="sans-serif" font-size="14" lengthAdjust="spacing" textLength="9" x="603.5" y="757.0234">2</text><line style="stroke:#000000;stroke-width:1.0;" x1="598.5" x2="598.5" y1="741.4883" y2="761.9766"/><line style="stroke:#000000;stroke-width:1.0;" x1="494.5" x2="657.5" y1="761.9766" y2="761.9766"/><text fill="#000000" font-family="sans-serif" font-size="14" font-weight="bold" lengthAdjust="spacing" textLength="94" x="499.5" y="777.5117">ratio_percent</text><text fill="#000000" font-family="sans-serif" font-size="14" lengthAdjust="spacing" textLength="31" x="603.5" y="777.5117">1.77</text><line style="stroke:#000000;stroke-width:1.0;" x1="598.5" x2="598.5" y1="761.9766" y2="782.4648"/><rect fill="none" height="61.4648" rx="5" ry="5" style="stroke:#000000;stroke-width:1.5;" width="163" x="494.5" y="721"/><path d="M215,315.5 L228,315.5 C248.8273,315.5 245.7406,295.5187 264,285.5 C268.1394,283.2288 272.4771,281.0988 276.9224,279.1061 " fill="none" style="stroke:#000000;stroke-width:1.0;stroke-dasharray:3.0,3.0;"/><path d="M278.1301,281.9305 L279.0407,278.2004 L275.7148,276.2817 L283.9835,276.0871 L278.1301,281.9305 " fill="#000000" style="stroke:#000000;stroke-width:1.0;"/><ellipse cx="215" cy="315.5" fill="#000000" rx="3" ry="3" style="stroke:#000000;stroke-width:1.0;"/><path d="M359,305.5 L359,292.5 C359,281.9158 446.1531,292.6029 454,285.5 C522.9064,223.1275 433.1672,153.0422 490,79.5 C490.717,78.5721 491.4612,77.6656 492.2305,76.78 " fill="none" style="stroke:#000000;stroke-width:1.0;stroke-dasharray:3.0,3.0;"/><path d="M494.4491,78.9473 L493.8559,75.116 L490.0118,74.6127 L497.6487,71.2333 L494.4491,78.9473 " fill="#000000" style="stroke:#000000;stroke-width:1.0;"/><ellipse cx="359" cy="305.5" fill="#000000" rx="3" ry="3" style="stroke:#000000;stroke-width:1.0;"/><path d="M359,324.5 L372,324.5 C412.3564,324.5 427.9543,316.3264 454,285.5 C491.864,240.686 451.7788,203.0097 490,158.5 C491.7006,156.5196 493.5227,154.6344 495.4443,152.8402 " fill="none" style="stroke:#000000;stroke-width:1.0;stroke-dasharray:3.0,3.0;"/><path d="M497.4897,155.2569 L497.2568,151.3061 L493.3989,150.4235 L501.4861,147.7266 L497.4897,155.2569 " fill="#000000" style="stroke:#000000;stroke-width:1.0;"/><ellipse cx="359" cy="324.5" fill="#000000" rx="3" ry="3" style="stroke:#000000;stroke-width:1.0;"/><path d="M359,344.5 L372,344.5 C416.8977,344.5 421.9398,316.9316 454,285.5 C473.0419,266.8314 469.2249,254.2185 490,237.5 C491.7278,236.1096 493.5133,234.7568 495.3453,233.4417 " fill="none" style="stroke:#000000;stroke-width:1.0;stroke-dasharray:3.0,3.0;"/><path d="M497.0759,235.9986 L497.263,232.1437 L493.6146,230.8847 L501.7377,229.115 L497.0759,235.9986 " fill="#000000" style="stroke:#000000;stroke-width:1.0;"/><ellipse cx="359" cy="344.5" fill="#000000" rx="3" ry="3" style="stroke:#000000;stroke-width:1.0;"/><path d="M359,365.5 L372,365.5 C379.1288,365.5 446.1713,336.023 501.3881,311.1894 " fill="none" style="stroke:#000000;stroke-width:1.0;stroke-dasharray:3.0,3.0;"/><path d="M502.6514,313.9951 L503.4924,310.2419 L500.1248,308.3837 L508.4024,308.0312 L502.6514,313.9951 " fill="#000000" style="stroke:#000000;stroke-width:1.0;"/><ellipse cx="359" cy="365.5" fill="#000000" rx="3" ry="3" style="stroke:#000000;stroke-width:1.0;"/><path d="M359,385.5 L372,385.5 C409.9813,385.5 451.5549,380.4876 487.1692,374.6306 " fill="none" style="stroke:#000000;stroke-width:1.0;stroke-dasharray:3.0,3.0;"/><path d="M487.6736,377.6329 L489.4209,374.2522 L486.6647,371.6283 L494.675,373.3694 L487.6736,377.6329 " fill="#000000" style="stroke:#000000;stroke-width:1.0;"/><ellipse cx="359" cy="385.5" fill="#000000" rx="3" ry="3" style="stroke:#000000;stroke-width:1.0;"/><path d="M359,406.5 L372,406.5 C408.3294,406.5 447.9454,411.0859 482.4893,416.6103 " fill="none" style="stroke:#000000;stroke-width:1.0;stroke-dasharray:3.0,3.0;"/><path d="M481.9821,419.7092 L484.8134,416.9907 L482.9965,413.5115 L490.2363,417.8783 L481.9821,419.7092 " fill="#000000" style="stroke:#000000;stroke-width:1.0;"/><ellipse cx="359" cy="406.5" fill="#000000" rx="3" ry="3" style="stroke:#000000;stroke-width:1.0;"/><path d="M359,427.5 L372,427.5 C379.0816,427.5 445.5111,456.3598 500.5763,480.8356 " fill="none" style="stroke:#000000;stroke-width:1.0;stroke-dasharray:3.0,3.0;"/><path d="M499.3308,483.6346 L502.6756,481.7697 L501.8219,478.0366 L507.5738,483.9494 L499.3308,483.6346 " fill="#000000" style="stroke:#000000;stroke-width:1.0;"/><ellipse cx="359" cy="427.5" fill="#000000" rx="3" ry="3" style="stroke:#000000;stroke-width:1.0;"/><path d="M359,447.5 L372,447.5 C442.7951,447.5 430.8699,515.5695 490,554.5 C492.3166,556.0252 494.7025,557.5198 497.1383,558.9812 " fill="none" style="stroke:#000000;stroke-width:1.0;stroke-dasharray:3.0,3.0;"/><path d="M495.6228,561.6016 L499.1037,560.1178 L498.6539,556.3607 L503.6895,562.77 L495.6228,561.6016 " fill="#000000" style="stroke:#000000;stroke-width:1.0;"/><ellipse cx="359" cy="447.5" fill="#000000" rx="3" ry="3" style="stroke:#000000;stroke-width:1.0;"/><path d="M359,468.5 L372,468.5 C462.1565,468.5 420.4076,576.1843 490,633.5 C491.712,634.91 493.4832,636.2801 495.3026,637.6108 " fill="none" style="stroke:#000000;stroke-width:1.0;stroke-dasharray:3.0,3.0;"/><path d="M493.5536,640.1529 L497.2091,638.9225 L497.0515,635.0687 L501.6578,641.9831 L493.5536,640.1529 " fill="#000000" style="stroke:#000000;stroke-width:1.0;"/><ellipse cx="359" cy="468.5" fill="#000000" rx="3" ry="3" style="stroke:#000000;stroke-width:1.0;"/><path d="M359,487.5 L359,500.5 C359,611.2594 406.9224,639.2486 490,712.5 C491.4991,713.8218 493.0505,715.1064 494.6458,716.3543 " fill="none" style="stroke:#000000;stroke-width:1.0;stroke-dasharray:3.0,3.0;"/><path d="M492.7927,718.8954 L496.5516,717.7441 L496.4988,713.8132 L500.9986,720.987 L492.7927,718.8954 " fill="#000000" style="stroke:#000000;stroke-width:1.0;"/><ellipse cx="359" cy="487.5" fill="#000000" rx="3" ry="3" style="stroke:#000000;stroke-width:1.0;"/><path d="M215,336.5 L228,336.5 C271.8518,336.5 317.0003,364.993 340.8339,382.7089 " fill="none" style="stroke:#000000;stroke-width:1.0;stroke-dasharray:3.0,3.0;"/><path d="M338.9625,385.1642 L342.6753,384.1124 L342.7052,380.2536 L346.9721,387.3873 L338.9625,385.1642 " fill="#000000" style="stroke:#000000;stroke-width:1.0;"/><ellipse cx="215" cy="336.5" fill="#000000" rx="3" ry="3" style="stroke:#000000;stroke-width:1.0;"/><!--MD5=[008268ec69cb47abd3addcccc29677b5]
@startjson
{
    "field1": "imdbVotes",
    "combination": "imdbVotes",
    "null_distribution": {
        "total_null_rows": 2,
        "total_not_null_rows": 111
    },
    "data_distribution": [
        {
            "field_value_1": "118,636",
            "row_count": 4,
            "ratio_percent": 3.54
        },
        {
            "field_value_1": "None",
            "row_count": 2,
            "ratio_percent": 1.77
        },
        {
            "field_value_1": "12,221",
            "row_count": 2,
            "ratio_percent": 1.77
        },
        {
            "field_value_1": "13,100",
            "row_count": 2,
            "ratio_percent": 1.77
        },
        {
            "field_value_1": "19,495",
            "row_count": 2,
            "ratio_percent": 1.77
        },
        {
            "field_value_1": "359,439",
            "row_count": 2,
            "ratio_percent": 1.77
        },
        {
            "field_value_1": "36,211",
            "row_count": 2,
            "ratio_percent": 1.77
        },
        {
            "field_value_1": "38,196",
            "row_count": 2,
            "ratio_percent": 1.77
        },
        {
            "field_value_1": "6,289",
            "row_count": 2,
            "ratio_percent": 1.77
        },
        {
            "field_value_1": "68,925",
            "row_count": 2,
            "ratio_percent": 1.77
        }
    ]
}
@endjson

PlantUML version 1.2022.12(Sun Oct 23 14:12:26 EDT 2022)
(GPL source distribution)
Java Runtime: OpenJDK Runtime Environment
JVM: OpenJDK 64-Bit Server VM
Default Encoding: UTF-8
Language: en
Country: CA
--></g></svg>