<?xml version="1.0" encoding="UTF-8" standalone="no"?><svg xmlns="http://www.w3.org/2000/svg" xmlns:xlink="http://www.w3.org/1999/xlink" contentStyleType="text/css" height="794px" preserveAspectRatio="none" style="width:695px;height:794px;background:#FFFFFF;" version="1.1" viewBox="0 0 695 794" width="695px" zoomAndPan="magnify"><defs/><g><rect fill="#F1F1F1" height="81.9531" rx="5" ry="5" style="stroke:#F1F1F1;stroke-width:1.5;" width="199" x="10" y="264.5"/><text fill="#000000" font-family="sans-serif" font-size="14" font-weight="bold" lengthAdjust="spacing" textLength="42" x="15" y="280.0352">field1</text><text fill="#000000" font-family="sans-serif" font-size="14" lengthAdjust="spacing" textLength="55" x="149" y="280.0352">Country</text><line style="stroke:#000000;stroke-width:1.0;" x1="144" x2="144" y1="264.5" y2="284.9883"/><line style="stroke:#000000;stroke-width:1.0;" x1="10" x2="209" y1="284.9883" y2="284.9883"/><text fill="#000000" font-family="sans-serif" font-size="14" font-weight="bold" lengthAdjust="spacing" textLength="90" x="15" y="300.5234">combination</text><text fill="#000000" font-family="sans-serif" font-size="14" lengthAdjust="spacing" textLength="55" x="149" y="300.5234">Country</text><line style="stroke:#000000;stroke-width:1.0;" x1="144" x2="144" y1="284.9883" y2="305.4766"/><line style="stroke:#000000;stroke-width:1.0;" x1="10" x2="209" y1="305.4766" y2="305.4766"/><text fill="#000000" font-family="sans-serif" font-size="14" font-weight="bold" lengthAdjust="spacing" textLength="121" x="15" y="321.0117">null_distribution</text><text fill="#000000" font-family="sans-serif" font-size="14" lengthAdjust="spacing" textLength="12" x="149" y="321.0117">   </text><line style="stroke:#000000;stroke-width:1.0;" x1="144" x2="144" y1="305.4766" y2="325.9648"/><line style="stroke:#000000;stroke-width:1.0;" x1="10" x2="209" y1="325.9648" y2="325.9648"/><text fill="#000000" font-family="sans-serif" font-size="14" font-weight="bold" lengthAdjust="spacing" textLength="124" x="15" y="341.5">data_distribution</text><text fill="#000000" font-family="sans-serif" font-size="14" lengthAdjust="spacing" textLength="12" x="149" y="341.5">   </text><line style="stroke:#000000;stroke-width:1.0;" x1="144" x2="144" y1="325.9648" y2="346.4531"/><rect fill="none" height="81.9531" rx="5" ry="5" style="stroke:#000000;stroke-width:1.5;" width="199" x="10" y="264.5"/><rect fill="#F1F1F1" height="40.9766" rx="5" ry="5" style="stroke:#F1F1F1;stroke-width:1.5;" width="189" x="246" y="235"/><text fill="#000000" font-family="sans-serif" font-size="14" font-weight="bold" lengthAdjust="spacing" textLength="111" x="251" y="250.5352">total_null_rows</text><text fill="#000000" font-family="sans-serif" font-size="14" lengthAdjust="spacing" textLength="9" x="403" y="250.5352">2</text><line style="stroke:#000000;stroke-width:1.0;" x1="398" x2="398" y1="235" y2="255.4883"/><line style="stroke:#000000;stroke-width:1.0;" x1="246" x2="435" y1="255.4883" y2="255.4883"/><text fill="#000000" font-family="sans-serif" font-size="14" font-weight="bold" lengthAdjust="spacing" textLength="142" x="251" y="271.0234">total_not_null_rows</text><text fill="#000000" font-family="sans-serif" font-size="14" lengthAdjust="spacing" textLength="27" x="403" y="271.0234">111</text><line style="stroke:#000000;stroke-width:1.0;" x1="398" x2="398" y1="255.4883" y2="275.9766"/><rect fill="none" height="40.9766" rx="5" ry="5" style="stroke:#000000;stroke-width:1.5;" width="189" x="246" y="235"/><rect fill="#F1F1F1" height="204.8828" rx="5" ry="5" style="stroke:#F1F1F1;stroke-width:1.5;" width="22" x="328.5" y="294"/><text fill="#000000" font-family="sans-serif" font-size="14" lengthAdjust="spacing" textLength="12" x="333.5" y="309.5352">   </text><line style="stroke:#000000;stroke-width:1.0;" x1="328.5" x2="350.5" y1="314.4883" y2="314.4883"/><text fill="#000000" font-family="sans-serif" font-size="14" lengthAdjust="spacing" textLength="12" x="333.5" y="330.0234">   </text><line style="stroke:#000000;stroke-width:1.0;" x1="328.5" x2="350.5" y1="334.9766" y2="334.9766"/><text fill="#000000" font-family="sans-serif" font-size="14" lengthAdjust="spacing" textLength="12" x="333.5" y="350.5117">   </text><line style="stroke:#000000;stroke-width:1.0;" x1="328.5" x2="350.5" y1="355.4648" y2="355.4648"/><text fill="#000000" font-family="sans-serif" font-size="14" lengthAdjust="spacing" textLength="12" x="333.5" y="371">   </text><line style="stroke:#000000;stroke-width:1.0;" x1="328.5" x2="350.5" y1="375.9531" y2="375.9531"/><text fill="#000000" font-family="sans-serif" font-size="14" lengthAdjust="spacing" textLength="12" x="333.5" y="391.4883">   </text><line style="stroke:#000000;stroke-width:1.0;" x1="328.5" x2="350.5" y1="396.4414" y2="396.4414"/><text fill="#000000" font-family="sans-serif" font-size="14" lengthAdjust="spacing" textLength="12" x="333.5" y="411.9766">   </text><line style="stroke:#000000;stroke-width:1.0;" x1="328.5" x2="350.5" y1="416.9297" y2="416.9297"/><text fill="#000000" font-family="sans-serif" font-size="14" lengthAdjust="spacing" textLength="12" x="333.5" y="432.4648">   </text><line style="stroke:#000000;stroke-width:1.0;" x1="328.5" x2="350.5" y1="437.418" y2="437.418"/><text fill="#000000" font-family="sans-serif" font-size="14" lengthAdjust="spacing" textLength="12" x="333.5" y="452.9531">   </text><line style="stroke:#000000;stroke-width:1.0;" x1="328.5" x2="350.5" y1="457.9063" y2="457.9063"/><text fill="#000000" font-family="sans-serif" font-size="14" lengthAdjust="spacing" textLength="12" x="333.5" y="473.4414">   </text><line style="stroke:#000000;stroke-width:1.0;" x1="328.5" x2="350.5" y1="478.3945" y2="478.3945"/><text fill="#000000" font-family="sans-serif" font-size="14" lengthAdjust="spacing" textLength="12" x="333.5" y="493.9297">   </text><rect fill="none" height="204.8828" rx="5" ry="5" style="stroke:#000000;stroke-width:1.5;" width="22" x="328.5" y="294"/><rect fill="#F1F1F1" height="61.4648" rx="5" ry="5" style="stroke:#F1F1F1;stroke-width:1.5;" width="154" x="500.5" y="10"/><text fill="#000000" font-family="sans-serif" font-size="14" font-weight="bold" lengthAdjust="spacing" textLength="94" x="505.5" y="25.5352">field_value_1</text><text fill="#000000" font-family="sans-serif" font-size="14" lengthAdjust="spacing" textLength="28" x="609.5" y="25.5352">USA</text><line style="stroke:#000000;stroke-width:1.0;" x1="604.5" x2="604.5" y1="10" y2="30.4883"/><line style="stroke:#000000;stroke-width:1.0;" x1="500.5" x2="654.5" y1="30.4883" y2="30.4883"/><text fill="#000000" font-family="sans-serif" font-size="14" font-weight="bold" lengthAdjust="spacing" textLength="74" x="505.5" y="46.0234">row_count</text><text fill="#000000" font-family="sans-serif" font-size="14" lengthAdjust="spacing" textLength="18" x="609.5" y="46.0234">58</text><line style="stroke:#000000;stroke-width:1.0;" x1="604.5" x2="604.5" y1="30.4883" y2="50.9766"/><line style="stroke:#000000;stroke-width:1.0;" x1="500.5" x2="654.5" y1="50.9766" y2="50.9766"/><text fill="#000000" font-family="sans-serif" font-size="14" font-weight="bold" lengthAdjust="spacing" textLength="94" x="505.5" y="66.5117">ratio_percent</text><text fill="#000000" font-family="sans-serif" font-size="14" lengthAdjust="spacing" textLength="40" x="609.5" y="66.5117">51.33</text><line style="stroke:#000000;stroke-width:1.0;" x1="604.5" x2="604.5" y1="50.9766" y2="71.4648"/><rect fill="none" height="61.4648" rx="5" ry="5" style="stroke:#000000;stroke-width:1.5;" width="154" x="500.5" y="10"/><rect fill="#F1F1F1" height="61.4648" rx="5" ry="5" style="stroke:#F1F1F1;stroke-width:1.5;" width="160" x="497.5" y="89"/><text fill="#000000" font-family="sans-serif" font-size="14" font-weight="bold" lengthAdjust="spacing" textLength="94" x="502.5" y="104.5352">field_value_1</text><text fill="#000000" font-family="sans-serif" font-size="14" lengthAdjust="spacing" textLength="46" x="606.5" y="104.5352">France</text><line style="stroke:#000000;stroke-width:1.0;" x1="601.5" x2="601.5" y1="89" y2="109.4883"/><line style="stroke:#000000;stroke-width:1.0;" x1="497.5" x2="657.5" y1="109.4883" y2="109.4883"/><text fill="#000000" font-family="sans-serif" font-size="14" font-weight="bold" lengthAdjust="spacing" textLength="74" x="502.5" y="125.0234">row_count</text><text fill="#000000" font-family="sans-serif" font-size="14" lengthAdjust="spacing" textLength="9" x="606.5" y="125.0234">6</text><line style="stroke:#000000;stroke-width:1.0;" x1="601.5" x2="601.5" y1="109.4883" y2="129.9766"/><line style="stroke:#000000;stroke-width:1.0;" x1="497.5" x2="657.5" y1="129.9766" y2="129.9766"/><text fill="#000000" font-family="sans-serif" font-size="14" font-weight="bold" lengthAdjust="spacing" textLength="94" x="502.5" y="145.5117">ratio_percent</text><text fill="#000000" font-family="sans-serif" font-size="14" lengthAdjust="spacing" textLength="31" x="606.5" y="145.5117">5.31</text><line style="stroke:#000000;stroke-width:1.0;" x1="601.5" x2="601.5" y1="129.9766" y2="150.4648"/><rect fill="none" height="61.4648" rx="5" ry="5" style="stroke:#000000;stroke-width:1.5;" width="160" x="497.5" y="89"/><rect fill="#F1F1F1" height="61.4648" rx="5" ry="5" style="stroke:#F1F1F1;stroke-width:1.5;" width="148" x="503.5" y="168"/><text fill="#000000" font-family="sans-serif" font-size="14" font-weight="bold" lengthAdjust="spacing" textLength="94" x="508.5" y="183.5352">field_value_1</text><text fill="#000000" font-family="sans-serif" font-size="14" lengthAdjust="spacing" textLength="34" x="612.5" y="183.5352">India</text><line style="stroke:#000000;stroke-width:1.0;" x1="607.5" x2="607.5" y1="168" y2="188.4883"/><line style="stroke:#000000;stroke-width:1.0;" x1="503.5" x2="651.5" y1="188.4883" y2="188.4883"/><text fill="#000000" font-family="sans-serif" font-size="14" font-weight="bold" lengthAdjust="spacing" textLength="74" x="508.5" y="204.0234">row_count</text><text fill="#000000" font-family="sans-serif" font-size="14" lengthAdjust="spacing" textLength="9" x="612.5" y="204.0234">5</text><line style="stroke:#000000;stroke-width:1.0;" x1="607.5" x2="607.5" y1="188.4883" y2="208.9766"/><line style="stroke:#000000;stroke-width:1.0;" x1="503.5" x2="651.5" y1="208.9766" y2="208.9766"/><text fill="#000000" font-family="sans-serif" font-size="14" font-weight="bold" lengthAdjust="spacing" textLength="94" x="508.5" y="224.5117">ratio_percent</text><text fill="#000000" font-family="sans-serif" font-size="14" lengthAdjust="spacing" textLength="31" x="612.5" y="224.5117">4.42</text><line style="stroke:#000000;stroke-width:1.0;" x1="607.5" x2="607.5" y1="208.9766" y2="229.4648"/><rect fill="none" height="61.4648" rx="5" ry="5" style="stroke:#000000;stroke-width:1.5;" width="148" x="503.5" y="168"/><rect fill="#F1F1F1" height="61.4648" rx="5" ry="5" style="stroke:#F1F1F1;stroke-width:1.5;" width="175" x="490" y="247"/><text fill="#000000" font-family="sans-serif" font-size="14" font-weight="bold" lengthAdjust="spacing" textLength="94" x="495" y="262.5352">field_value_1</text><text fill="#000000" font-family="sans-serif" font-size="14" lengthAdjust="spacing" textLength="61" x="599" y="262.5352">Australia</text><line style="stroke:#000000;stroke-width:1.0;" x1="594" x2="594" y1="247" y2="267.4883"/><line style="stroke:#000000;stroke-width:1.0;" x1="490" x2="665" y1="267.4883" y2="267.4883"/><text fill="#000000" font-family="sans-serif" font-size="14" font-weight="bold" lengthAdjust="spacing" textLength="74" x="495" y="283.0234">row_count</text><text fill="#000000" font-family="sans-serif" font-size="14" lengthAdjust="spacing" textLength="9" x="599" y="283.0234">3</text><line style="stroke:#000000;stroke-width:1.0;" x1="594" x2="594" y1="267.4883" y2="287.9766"/><line style="stroke:#000000;stroke-width:1.0;" x1="490" x2="665" y1="287.9766" y2="287.9766"/><text fill="#000000" font-family="sans-serif" font-size="14" font-weight="bold" lengthAdjust="spacing" textLength="94" x="495" y="303.5117">ratio_percent</text><text fill="#000000" font-family="sans-serif" font-size="14" lengthAdjust="spacing" textLength="31" x="599" y="303.5117">2.65</text><line style="stroke:#000000;stroke-width:1.0;" x1="594" x2="594" y1="287.9766" y2="308.4648"/><rect fill="none" height="61.4648" rx="5" ry="5" style="stroke:#000000;stroke-width:1.5;" width="175" x="490" y="247"/><rect fill="#F1F1F1" height="61.4648" rx="5" ry="5" style="stroke:#F1F1F1;stroke-width:1.5;" width="169" x="493" y="326"/><text fill="#000000" font-family="sans-serif" font-size="14" font-weight="bold" lengthAdjust="spacing" textLength="94" x="498" y="341.5352">field_value_1</text><text fill="#000000" font-family="sans-serif" font-size="14" lengthAdjust="spacing" textLength="55" x="602" y="341.5352">UK, USA</text><line style="stroke:#000000;stroke-width:1.0;" x1="597" x2="597" y1="326" y2="346.4883"/><line style="stroke:#000000;stroke-width:1.0;" x1="493" x2="662" y1="346.4883" y2="346.4883"/><text fill="#000000" font-family="sans-serif" font-size="14" font-weight="bold" lengthAdjust="spacing" textLength="74" x="498" y="362.0234">row_count</text><text fill="#000000" font-family="sans-serif" font-size="14" lengthAdjust="spacing" textLength="9" x="602" y="362.0234">3</text><line style="stroke:#000000;stroke-width:1.0;" x1="597" x2="597" y1="346.4883" y2="366.9766"/><line style="stroke:#000000;stroke-width:1.0;" x1="493" x2="662" y1="366.9766" y2="366.9766"/><text fill="#000000" font-family="sans-serif" font-size="14" font-weight="bold" lengthAdjust="spacing" textLength="94" x="498" y="382.5117">ratio_percent</text><text fill="#000000" font-family="sans-serif" font-size="14" lengthAdjust="spacing" textLength="31" x="602" y="382.5117">2.65</text><line style="stroke:#000000;stroke-width:1.0;" x1="597" x2="597" y1="366.9766" y2="387.4648"/><rect fill="none" height="61.4648" rx="5" ry="5" style="stroke:#000000;stroke-width:1.5;" width="169" x="493" y="326"/><rect fill="#F1F1F1" height="61.4648" rx="5" ry="5" style="stroke:#F1F1F1;stroke-width:1.5;" width="202" x="476.5" y="405"/><text fill="#000000" font-family="sans-serif" font-size="14" font-weight="bold" lengthAdjust="spacing" textLength="94" x="481.5" y="420.5352">field_value_1</text><text fill="#000000" font-family="sans-serif" font-size="14" lengthAdjust="spacing" textLength="88" x="585.5" y="420.5352">USA, Canada</text><line style="stroke:#000000;stroke-width:1.0;" x1="580.5" x2="580.5" y1="405" y2="425.4883"/><line style="stroke:#000000;stroke-width:1.0;" x1="476.5" x2="678.5" y1="425.4883" y2="425.4883"/><text fill="#000000" font-family="sans-serif" font-size="14" font-weight="bold" lengthAdjust="spacing" textLength="74" x="481.5" y="441.0234">row_count</text><text fill="#000000" font-family="sans-serif" font-size="14" lengthAdjust="spacing" textLength="9" x="585.5" y="441.0234">3</text><line style="stroke:#000000;stroke-width:1.0;" x1="580.5" x2="580.5" y1="425.4883" y2="445.9766"/><line style="stroke:#000000;stroke-width:1.0;" x1="476.5" x2="678.5" y1="445.9766" y2="445.9766"/><text fill="#000000" font-family="sans-serif" font-size="14" font-weight="bold" lengthAdjust="spacing" textLength="94" x="481.5" y="461.5117">ratio_percent</text><text fill="#000000" font-family="sans-serif" font-size="14" lengthAdjust="spacing" textLength="31" x="585.5" y="461.5117">2.65</text><line style="stroke:#000000;stroke-width:1.0;" x1="580.5" x2="580.5" y1="445.9766" y2="466.4648"/><rect fill="none" height="61.4648" rx="5" ry="5" style="stroke:#000000;stroke-width:1.5;" width="202" x="476.5" y="405"/><rect fill="#F1F1F1" height="61.4648" rx="5" ry="5" style="stroke:#F1F1F1;stroke-width:1.5;" width="169" x="493" y="484"/><text fill="#000000" font-family="sans-serif" font-size="14" font-weight="bold" lengthAdjust="spacing" textLength="94" x="498" y="499.5352">field_value_1</text><text fill="#000000" font-family="sans-serif" font-size="14" lengthAdjust="spacing" textLength="55" x="602" y="499.5352">USA, UK</text><line style="stroke:#000000;stroke-width:1.0;" x1="597" x2="597" y1="484" y2="504.4883"/><line style="stroke:#000000;stroke-width:1.0;" x1="493" x2="662" y1="504.4883" y2="504.4883"/><text fill="#000000" font-family="sans-serif" font-size="14" font-weight="bold" lengthAdjust="spacing" textLength="74" x="498" y="520.0234">row_count</text><text fill="#000000" font-family="sans-serif" font-size="14" lengthAdjust="spacing" textLength="9" x="602" y="520.0234">3</text><line style="stroke:#000000;stroke-width:1.0;" x1="597" x2="597" y1="504.4883" y2="524.9766"/><line style="stroke:#000000;stroke-width:1.0;" x1="493" x2="662" y1="524.9766" y2="524.9766"/><text fill="#000000" font-family="sans-serif" font-size="14" font-weight="bold" lengthAdjust="spacing" textLength="94" x="498" y="540.5117">ratio_percent</text><text fill="#000000" font-family="sans-serif" font-size="14" lengthAdjust="spacing" textLength="31" x="602" y="540.5117">2.65</text><line style="stroke:#000000;stroke-width:1.0;" x1="597" x2="597" y1="524.9766" y2="545.4648"/><rect fill="none" height="61.4648" rx="5" ry="5" style="stroke:#000000;stroke-width:1.5;" width="169" x="493" y="484"/><rect fill="#F1F1F1" height="61.4648" rx="5" ry="5" style="stroke:#F1F1F1;stroke-width:1.5;" width="150" x="502.5" y="563"/><text fill="#000000" font-family="sans-serif" font-size="14" font-weight="bold" lengthAdjust="spacing" textLength="94" x="507.5" y="578.5352">field_value_1</text><text fill="#000000" font-family="sans-serif" font-size="14" lengthAdjust="spacing" textLength="36" x="611.5" y="578.5352">None</text><line style="stroke:#000000;stroke-width:1.0;" x1="606.5" x2="606.5" y1="563" y2="583.4883"/><line style="stroke:#000000;stroke-width:1.0;" x1="502.5" x2="652.5" y1="583.4883" y2="583.4883"/><text fill="#000000" font-family="sans-serif" font-size="14" font-weight="bold" lengthAdjust="spacing" textLength="74" x="507.5" y="599.0234">row_count</text><text fill="#000000" font-family="sans-serif" font-size="14" lengthAdjust="spacing" textLength="9" x="611.5" y="599.0234">2</text><line style="stroke:#000000;stroke-width:1.0;" x1="606.5" x2="606.5" y1="583.4883" y2="603.9766"/><line style="stroke:#000000;stroke-width:1.0;" x1="502.5" x2="652.5" y1="603.9766" y2="603.9766"/><text fill="#000000" font-family="sans-serif" font-size="14" font-weight="bold" lengthAdjust="spacing" textLength="94" x="507.5" y="619.5117">ratio_percent</text><text fill="#000000" font-family="sans-serif" font-size="14" lengthAdjust="spacing" textLength="31" x="611.5" y="619.5117">1.77</text><line style="stroke:#000000;stroke-width:1.0;" x1="606.5" x2="606.5" y1="603.9766" y2="624.4648"/><rect fill="none" height="61.4648" rx="5" ry="5" style="stroke:#000000;stroke-width:1.5;" width="150" x="502.5" y="563"/><rect fill="#F1F1F1" height="61.4648" rx="5" ry="5" style="stroke:#F1F1F1;stroke-width:1.5;" width="211" x="472" y="642"/><text fill="#000000" font-family="sans-serif" font-size="14" font-weight="bold" lengthAdjust="spacing" textLength="94" x="477" y="657.5352">field_value_1</text><text fill="#000000" font-family="sans-serif" font-size="14" lengthAdjust="spacing" textLength="97" x="581" y="657.5352">Australia, USA</text><line style="stroke:#000000;stroke-width:1.0;" x1="576" x2="576" y1="642" y2="662.4883"/><line style="stroke:#000000;stroke-width:1.0;" x1="472" x2="683" y1="662.4883" y2="662.4883"/><text fill="#000000" font-family="sans-serif" font-size="14" font-weight="bold" lengthAdjust="spacing" textLength="74" x="477" y="678.0234">row_count</text><text fill="#000000" font-family="sans-serif" font-size="14" lengthAdjust="spacing" textLength="9" x="581" y="678.0234">2</text><line style="stroke:#000000;stroke-width:1.0;" x1="576" x2="576" y1="662.4883" y2="682.9766"/><line style="stroke:#000000;stroke-width:1.0;" x1="472" x2="683" y1="682.9766" y2="682.9766"/><text fill="#000000" font-family="sans-serif" font-size="14" font-weight="bold" lengthAdjust="spacing" textLength="94" x="477" y="698.5117">ratio_percent</text><text fill="#000000" font-family="sans-serif" font-size="14" lengthAdjust="spacing" textLength="31" x="581" y="698.5117">1.77</text><line style="stroke:#000000;stroke-width:1.0;" x1="576" x2="576" y1="682.9766" y2="703.4648"/><rect fill="none" height="61.4648" rx="5" ry="5" style="stroke:#000000;stroke-width:1.5;" width="211" x="472" y="642"/><rect fill="#F1F1F1" height="61.4648" rx="5" ry="5" style="stroke:#F1F1F1;stroke-width:1.5;" width="154" x="500.5" y="721"/><text fill="#000000" font-family="sans-serif" font-size="14" font-weight="bold" lengthAdjust="spacing" textLength="94" x="505.5" y="736.5352">field_value_1</text><text fill="#000000" font-family="sans-serif" font-size="14" lengthAdjust="spacing" textLength="40" x="609.5" y="736.5352">China</text><line style="stroke:#000000;stroke-width:1.0;" x1="604.5" x2="604.5" y1="721" y2="741.4883"/><line style="stroke:#000000;stroke-width:1.0;" x1="500.5" x2="654.5" y1="741.4883" y2="741.4883"/><text fill="#000000" font-family="sans-serif" font-size="14" font-weight="bold" lengthAdjust="spacing" textLength="74" x="505.5" y="757.0234">row_count</text><text fill="#000000" font-family="sans-serif" font-size="14" lengthAdjust="spacing" textLength="9" x="609.5" y="757.0234">2</text><line style="stroke:#000000;stroke-width:1.0;" x1="604.5" x2="604.5" y1="741.4883" y2="761.9766"/><line style="stroke:#000000;stroke-width:1.0;" x1="500.5" x2="654.5" y1="761.9766" y2="761.9766"/><text fill="#000000" font-family="sans-serif" font-size="14" font-weight="bold" lengthAdjust="spacing" textLength="94" x="505.5" y="777.5117">ratio_percent</text><text fill="#000000" font-family="sans-serif" font-size="14" lengthAdjust="spacing" textLength="31" x="609.5" y="777.5117">1.77</text><line style="stroke:#000000;stroke-width:1.0;" x1="604.5" x2="604.5" y1="761.9766" y2="782.4648"/><rect fill="none" height="61.4648" rx="5" ry="5" style="stroke:#000000;stroke-width:1.5;" width="154" x="500.5" y="721"/><path d="M197,315.5 L210,315.5 C230.8273,315.5 227.7406,295.5187 246,285.5 C250.1394,283.2288 254.4771,281.0988 258.9224,279.1061 " fill="none" style="stroke:#000000;stroke-width:1.0;stroke-dasharray:3.0,3.0;"/><path d="M260.1301,281.9305 L261.0407,278.2004 L257.7148,276.2817 L265.9835,276.0871 L260.1301,281.9305 " fill="#000000" style="stroke:#000000;stroke-width:1.0;"/><ellipse cx="197" cy="315.5" fill="#000000" rx="3" ry="3" style="stroke:#000000;stroke-width:1.0;"/><path d="M341,303.5 L354,303.5 C391.3122,303.5 410.1906,312.4458 436,285.5 C500.2901,218.3792 412.5459,150.9397 472,79.5 C478.0253,72.2601 485.5295,66.3637 493.7372,61.5615 " fill="none" style="stroke:#000000;stroke-width:1.0;stroke-dasharray:3.0,3.0;"/><path d="M495.25,64.3787 L495.8501,60.427 L492.2245,58.7443 L500.7802,57.7797 L495.25,64.3787 " fill="#000000" style="stroke:#000000;stroke-width:1.0;"/><ellipse cx="341" cy="303.5" fill="#000000" rx="3" ry="3" style="stroke:#000000;stroke-width:1.0;"/><path d="M341,324.5 L354,324.5 C394.3564,324.5 409.9543,316.3264 436,285.5 C473.864,240.686 432.1948,201.599 472,158.5 C477.5558,152.4845 484.1248,147.3928 491.2234,143.0836 " fill="none" style="stroke:#000000;stroke-width:1.0;stroke-dasharray:3.0,3.0;"/><path d="M492.7199,145.7453 L493.2196,141.9612 L489.7268,140.422 L497.8775,139.3422 L492.7199,145.7453 " fill="#000000" style="stroke:#000000;stroke-width:1.0;"/><ellipse cx="341" cy="324.5" fill="#000000" rx="3" ry="3" style="stroke:#000000;stroke-width:1.0;"/><path d="M341,344.5 L354,344.5 C398.8977,344.5 403.9398,316.9316 436,285.5 C455.0419,266.8314 450.6341,253.4565 472,237.5 C479.6357,231.7975 488.1959,226.8491 497.0468,222.575 " fill="none" style="stroke:#000000;stroke-width:1.0;stroke-dasharray:3.0,3.0;"/><path d="M498.3022,225.3008 L499.0912,221.6335 L495.7915,219.8491 L503.8614,219.4367 L498.3022,225.3008 " fill="#000000" style="stroke:#000000;stroke-width:1.0;"/><ellipse cx="341" cy="344.5" fill="#000000" rx="3" ry="3" style="stroke:#000000;stroke-width:1.0;"/><path d="M341,365.5 L354,365.5 C410.6174,365.5 419.3203,338.2457 472,317.5 C477.5515,315.3138 483.2752,313.079 489.0509,310.8384 " fill="none" style="stroke:#000000;stroke-width:1.0;stroke-dasharray:3.0,3.0;"/><path d="M490.186,313.7722 L491.2512,309.987 L487.9157,307.9046 L496.3854,308.0005 L490.186,313.7722 " fill="#000000" style="stroke:#000000;stroke-width:1.0;"/><ellipse cx="341" cy="365.5" fill="#000000" rx="3" ry="3" style="stroke:#000000;stroke-width:1.0;"/><path d="M341,385.5 L354,385.5 C397.645,385.5 445.6968,379.9698 485.9836,373.7394 " fill="none" style="stroke:#000000;stroke-width:1.0;stroke-dasharray:3.0,3.0;"/><path d="M486.4517,376.7111 L488.2124,373.3883 L485.5155,370.7677 L493.4129,372.569 L486.4517,376.7111 " fill="#000000" style="stroke:#000000;stroke-width:1.0;"/><ellipse cx="341" cy="385.5" fill="#000000" rx="3" ry="3" style="stroke:#000000;stroke-width:1.0;"/><path d="M341,406.5 L354,406.5 C391.7244,406.5 432.741,410.6316 469.1901,415.7758 " fill="none" style="stroke:#000000;stroke-width:1.0;stroke-dasharray:3.0,3.0;"/><path d="M468.7453,418.8581 L471.5018,416.1094 L469.6349,412.6935 L476.8958,416.8878 L468.7453,418.8581 " fill="#000000" style="stroke:#000000;stroke-width:1.0;"/><ellipse cx="341" cy="406.5" fill="#000000" rx="3" ry="3" style="stroke:#000000;stroke-width:1.0;"/><path d="M341,427.5 L354,427.5 C410.6174,427.5 419.2343,454.9742 472,475.5 C476.8097,477.371 481.7506,479.2731 486.7439,481.18 " fill="none" style="stroke:#000000;stroke-width:1.0;stroke-dasharray:3.0,3.0;"/><path d="M485.6263,484.1175 L488.947,482.0181 L487.8614,478.2424 L494.0878,483.9739 L485.6263,484.1175 " fill="#000000" style="stroke:#000000;stroke-width:1.0;"/><ellipse cx="341" cy="427.5" fill="#000000" rx="3" ry="3" style="stroke:#000000;stroke-width:1.0;"/><path d="M341,447.5 L354,447.5 C424.7951,447.5 411.5013,517.7324 472,554.5 C479.465,559.0368 487.5433,563.1823 495.7898,566.9341 " fill="none" style="stroke:#000000;stroke-width:1.0;stroke-dasharray:3.0,3.0;"/><path d="M494.5663,569.7168 L497.8769,567.8517 L497.0134,564.1513 L502.7466,569.993 L494.5663,569.7168 " fill="#000000" style="stroke:#000000;stroke-width:1.0;"/><ellipse cx="341" cy="447.5" fill="#000000" rx="3" ry="3" style="stroke:#000000;stroke-width:1.0;"/><path d="M341,468.5 L354,468.5 C444.1565,468.5 400.3812,578.7374 472,633.5 C473.9696,635.006 476.0034,636.4587 478.0902,637.8598 " fill="none" style="stroke:#000000;stroke-width:1.0;stroke-dasharray:3.0,3.0;"/><path d="M476.4704,640.423 L480.0126,639.0746 L479.71,635.2965 L484.4983,641.9093 L476.4704,640.423 " fill="#000000" style="stroke:#000000;stroke-width:1.0;"/><ellipse cx="341" cy="468.5" fill="#000000" rx="3" ry="3" style="stroke:#000000;stroke-width:1.0;"/><path d="M341,488.5 L354,488.5 C466.5243,488.5 387.4624,638.2361 472,712.5 C478.6199,718.3154 486.1859,723.294 494.1558,727.5498 " fill="none" style="stroke:#000000;stroke-width:1.0;stroke-dasharray:3.0,3.0;"/><path d="M492.7928,730.2609 L496.1891,728.572 L495.5188,724.8387 L500.9336,730.9572 L492.7928,730.2609 " fill="#000000" style="stroke:#000000;stroke-width:1.0;"/><ellipse cx="341" cy="488.5" fill="#000000" rx="3" ry="3" style="stroke:#000000;stroke-width:1.0;"/><path d="M197,336.5 L210,336.5 C253.8518,336.5 299.0003,364.993 322.8339,382.7089 " fill="none" style="stroke:#000000;stroke-width:1.0;stroke-dasharray:3.0,3.0;"/><path d="M320.9625,385.1642 L324.6753,384.1124 L324.7052,380.2536 L328.9721,387.3873 L320.9625,385.1642 " fill="#000000" style="stroke:#000000;stroke-width:1.0;"/><ellipse cx="197" cy="336.5" fill="#000000" rx="3" ry="3" style="stroke:#000000;stroke-width:1.0;"/><!--MD5=[c85cb984ea060f015595ba7488669050]
@startjson
{
    "field1": "Country",
    "combination": "Country",
    "null_distribution": {
        "total_null_rows": 2,
        "total_not_null_rows": 111
    },
    "data_distribution": [
        {
            "field_value_1": "USA",
            "row_count": 58,
            "ratio_percent": 51.33
        },
        {
            "field_value_1": "France",
            "row_count": 6,
            "ratio_percent": 5.31
        },
        {
            "field_value_1": "India",
            "row_count": 5,
            "ratio_percent": 4.42
        },
        {
            "field_value_1": "Australia",
            "row_count": 3,
            "ratio_percent": 2.65
        },
        {
            "field_value_1": "UK, USA",
            "row_count": 3,
            "ratio_percent": 2.65
        },
        {
            "field_value_1": "USA, Canada",
            "row_count": 3,
            "ratio_percent": 2.65
        },
        {
            "field_value_1": "USA, UK",
            "row_count": 3,
            "ratio_percent": 2.65
        },
        {
            "field_value_1": "None",
            "row_count": 2,
            "ratio_percent": 1.77
        },
        {
            "field_value_1": "Australia, USA",
            "row_count": 2,
            "ratio_percent": 1.77
        },
        {
            "field_value_1": "China",
            "row_count": 2,
            "ratio_percent": 1.77
        }
    ]
}
@endjson

PlantUML version 1.2022.12(Sun Oct 23 14:12:26 EDT 2022)
(GPL source distribution)
Java Runtime: OpenJDK Runtime Environment
JVM: OpenJDK 64-Bit Server VM
Default Encoding: UTF-8
Language: en
Country: CA
--></g></svg>