<?xml version="1.0" encoding="UTF-8" standalone="no"?><svg xmlns="http://www.w3.org/2000/svg" xmlns:xlink="http://www.w3.org/1999/xlink" contentStyleType="text/css" height="794px" preserveAspectRatio="none" style="width:1013px;height:794px;background:#FFFFFF;" version="1.1" viewBox="0 0 1013 794" width="1013px" zoomAndPan="magnify"><defs/><g><rect fill="#F1F1F1" height="81.9531" rx="5" ry="5" style="stroke:#F1F1F1;stroke-width:1.5;" width="195" x="10" y="264.5"/><text fill="#000000" font-family="sans-serif" font-size="14" font-weight="bold" lengthAdjust="spacing" textLength="42" x="15" y="280.0352">field1</text><text fill="#000000" font-family="sans-serif" font-size="14" lengthAdjust="spacing" textLength="51" x="149" y="280.0352">Awards</text><line style="stroke:#000000;stroke-width:1.0;" x1="144" x2="144" y1="264.5" y2="284.9883"/><line style="stroke:#000000;stroke-width:1.0;" x1="10" x2="205" y1="284.9883" y2="284.9883"/><text fill="#000000" font-family="sans-serif" font-size="14" font-weight="bold" lengthAdjust="spacing" textLength="90" x="15" y="300.5234">combination</text><text fill="#000000" font-family="sans-serif" font-size="14" lengthAdjust="spacing" textLength="51" x="149" y="300.5234">Awards</text><line style="stroke:#000000;stroke-width:1.0;" x1="144" x2="144" y1="284.9883" y2="305.4766"/><line style="stroke:#000000;stroke-width:1.0;" x1="10" x2="205" y1="305.4766" y2="305.4766"/><text fill="#000000" font-family="sans-serif" font-size="14" font-weight="bold" lengthAdjust="spacing" textLength="121" x="15" y="321.0117">null_distribution</text><text fill="#000000" font-family="sans-serif" font-size="14" lengthAdjust="spacing" textLength="12" x="149" y="321.0117">   </text><line style="stroke:#000000;stroke-width:1.0;" x1="144" x2="144" y1="305.4766" y2="325.9648"/><line style="stroke:#000000;stroke-width:1.0;" x1="10" x2="205" y1="325.9648" y2="325.9648"/><text fill="#000000" font-family="sans-serif" font-size="14" font-weight="bold" lengthAdjust="spacing" textLength="124" x="15" y="341.5">data_distribution</text><text fill="#000000" font-family="sans-serif" font-size="14" lengthAdjust="spacing" textLength="12" x="149" y="341.5">   </text><line style="stroke:#000000;stroke-width:1.0;" x1="144" x2="144" y1="325.9648" y2="346.4531"/><rect fill="none" height="81.9531" rx="5" ry="5" style="stroke:#000000;stroke-width:1.5;" width="195" x="10" y="264.5"/><rect fill="#F1F1F1" height="40.9766" rx="5" ry="5" style="stroke:#F1F1F1;stroke-width:1.5;" width="189" x="242" y="235"/><text fill="#000000" font-family="sans-serif" font-size="14" font-weight="bold" lengthAdjust="spacing" textLength="111" x="247" y="250.5352">total_null_rows</text><text fill="#000000" font-family="sans-serif" font-size="14" lengthAdjust="spacing" textLength="9" x="399" y="250.5352">2</text><line style="stroke:#000000;stroke-width:1.0;" x1="394" x2="394" y1="235" y2="255.4883"/><line style="stroke:#000000;stroke-width:1.0;" x1="242" x2="431" y1="255.4883" y2="255.4883"/><text fill="#000000" font-family="sans-serif" font-size="14" font-weight="bold" lengthAdjust="spacing" textLength="142" x="247" y="271.0234">total_not_null_rows</text><text fill="#000000" font-family="sans-serif" font-size="14" lengthAdjust="spacing" textLength="27" x="399" y="271.0234">111</text><line style="stroke:#000000;stroke-width:1.0;" x1="394" x2="394" y1="255.4883" y2="275.9766"/><rect fill="none" height="40.9766" rx="5" ry="5" style="stroke:#000000;stroke-width:1.5;" width="189" x="242" y="235"/><rect fill="#F1F1F1" height="204.8828" rx="5" ry="5" style="stroke:#F1F1F1;stroke-width:1.5;" width="22" x="324.5" y="294"/><text fill="#000000" font-family="sans-serif" font-size="14" lengthAdjust="spacing" textLength="12" x="329.5" y="309.5352">   </text><line style="stroke:#000000;stroke-width:1.0;" x1="324.5" x2="346.5" y1="314.4883" y2="314.4883"/><text fill="#000000" font-family="sans-serif" font-size="14" lengthAdjust="spacing" textLength="12" x="329.5" y="330.0234">   </text><line style="stroke:#000000;stroke-width:1.0;" x1="324.5" x2="346.5" y1="334.9766" y2="334.9766"/><text fill="#000000" font-family="sans-serif" font-size="14" lengthAdjust="spacing" textLength="12" x="329.5" y="350.5117">   </text><line style="stroke:#000000;stroke-width:1.0;" x1="324.5" x2="346.5" y1="355.4648" y2="355.4648"/><text fill="#000000" font-family="sans-serif" font-size="14" lengthAdjust="spacing" textLength="12" x="329.5" y="371">   </text><line style="stroke:#000000;stroke-width:1.0;" x1="324.5" x2="346.5" y1="375.9531" y2="375.9531"/><text fill="#000000" font-family="sans-serif" font-size="14" lengthAdjust="spacing" textLength="12" x="329.5" y="391.4883">   </text><line style="stroke:#000000;stroke-width:1.0;" x1="324.5" x2="346.5" y1="396.4414" y2="396.4414"/><text fill="#000000" font-family="sans-serif" font-size="14" lengthAdjust="spacing" textLength="12" x="329.5" y="411.9766">   </text><line style="stroke:#000000;stroke-width:1.0;" x1="324.5" x2="346.5" y1="416.9297" y2="416.9297"/><text fill="#000000" font-family="sans-serif" font-size="14" lengthAdjust="spacing" textLength="12" x="329.5" y="432.4648">   </text><line style="stroke:#000000;stroke-width:1.0;" x1="324.5" x2="346.5" y1="437.418" y2="437.418"/><text fill="#000000" font-family="sans-serif" font-size="14" lengthAdjust="spacing" textLength="12" x="329.5" y="452.9531">   </text><line style="stroke:#000000;stroke-width:1.0;" x1="324.5" x2="346.5" y1="457.9063" y2="457.9063"/><text fill="#000000" font-family="sans-serif" font-size="14" lengthAdjust="spacing" textLength="12" x="329.5" y="473.4414">   </text><line style="stroke:#000000;stroke-width:1.0;" x1="324.5" x2="346.5" y1="478.3945" y2="478.3945"/><text fill="#000000" font-family="sans-serif" font-size="14" lengthAdjust="spacing" textLength="12" x="329.5" y="493.9297">   </text><rect fill="none" height="204.8828" rx="5" ry="5" style="stroke:#000000;stroke-width:1.5;" width="22" x="324.5" y="294"/><rect fill="#F1F1F1" height="61.4648" rx="5" ry="5" style="stroke:#F1F1F1;stroke-width:1.5;" width="154" x="657.5" y="10"/><text fill="#000000" font-family="sans-serif" font-size="14" font-weight="bold" lengthAdjust="spacing" textLength="94" x="662.5" y="25.5352">field_value_1</text><text fill="#000000" font-family="sans-serif" font-size="14" lengthAdjust="spacing" textLength="27" x="766.5" y="25.5352">N/A</text><line style="stroke:#000000;stroke-width:1.0;" x1="761.5" x2="761.5" y1="10" y2="30.4883"/><line style="stroke:#000000;stroke-width:1.0;" x1="657.5" x2="811.5" y1="30.4883" y2="30.4883"/><text fill="#000000" font-family="sans-serif" font-size="14" font-weight="bold" lengthAdjust="spacing" textLength="74" x="662.5" y="46.0234">row_count</text><text fill="#000000" font-family="sans-serif" font-size="14" lengthAdjust="spacing" textLength="18" x="766.5" y="46.0234">19</text><line style="stroke:#000000;stroke-width:1.0;" x1="761.5" x2="761.5" y1="30.4883" y2="50.9766"/><line style="stroke:#000000;stroke-width:1.0;" x1="657.5" x2="811.5" y1="50.9766" y2="50.9766"/><text fill="#000000" font-family="sans-serif" font-size="14" font-weight="bold" lengthAdjust="spacing" textLength="94" x="662.5" y="66.5117">ratio_percent</text><text fill="#000000" font-family="sans-serif" font-size="14" lengthAdjust="spacing" textLength="40" x="766.5" y="66.5117">16.81</text><line style="stroke:#000000;stroke-width:1.0;" x1="761.5" x2="761.5" y1="50.9766" y2="71.4648"/><rect fill="none" height="61.4648" rx="5" ry="5" style="stroke:#000000;stroke-width:1.5;" width="154" x="657.5" y="10"/><rect fill="#F1F1F1" height="61.4648" rx="5" ry="5" style="stroke:#F1F1F1;stroke-width:1.5;" width="217" x="626" y="89"/><text fill="#000000" font-family="sans-serif" font-size="14" font-weight="bold" lengthAdjust="spacing" textLength="94" x="631" y="104.5352">field_value_1</text><text fill="#000000" font-family="sans-serif" font-size="14" lengthAdjust="spacing" textLength="103" x="735" y="104.5352">3 nominations.</text><line style="stroke:#000000;stroke-width:1.0;" x1="730" x2="730" y1="89" y2="109.4883"/><line style="stroke:#000000;stroke-width:1.0;" x1="626" x2="843" y1="109.4883" y2="109.4883"/><text fill="#000000" font-family="sans-serif" font-size="14" font-weight="bold" lengthAdjust="spacing" textLength="74" x="631" y="125.0234">row_count</text><text fill="#000000" font-family="sans-serif" font-size="14" lengthAdjust="spacing" textLength="9" x="735" y="125.0234">6</text><line style="stroke:#000000;stroke-width:1.0;" x1="730" x2="730" y1="109.4883" y2="129.9766"/><line style="stroke:#000000;stroke-width:1.0;" x1="626" x2="843" y1="129.9766" y2="129.9766"/><text fill="#000000" font-family="sans-serif" font-size="14" font-weight="bold" lengthAdjust="spacing" textLength="94" x="631" y="145.5117">ratio_percent</text><text fill="#000000" font-family="sans-serif" font-size="14" lengthAdjust="spacing" textLength="31" x="735" y="145.5117">5.31</text><line style="stroke:#000000;stroke-width:1.0;" x1="730" x2="730" y1="129.9766" y2="150.4648"/><rect fill="none" height="61.4648" rx="5" ry="5" style="stroke:#000000;stroke-width:1.5;" width="217" x="626" y="89"/><rect fill="#F1F1F1" height="61.4648" rx="5" ry="5" style="stroke:#F1F1F1;stroke-width:1.5;" width="210" x="629.5" y="168"/><text fill="#000000" font-family="sans-serif" font-size="14" font-weight="bold" lengthAdjust="spacing" textLength="94" x="634.5" y="183.5352">field_value_1</text><text fill="#000000" font-family="sans-serif" font-size="14" lengthAdjust="spacing" textLength="96" x="738.5" y="183.5352">1 nomination.</text><line style="stroke:#000000;stroke-width:1.0;" x1="733.5" x2="733.5" y1="168" y2="188.4883"/><line style="stroke:#000000;stroke-width:1.0;" x1="629.5" x2="839.5" y1="188.4883" y2="188.4883"/><text fill="#000000" font-family="sans-serif" font-size="14" font-weight="bold" lengthAdjust="spacing" textLength="74" x="634.5" y="204.0234">row_count</text><text fill="#000000" font-family="sans-serif" font-size="14" lengthAdjust="spacing" textLength="9" x="738.5" y="204.0234">4</text><line style="stroke:#000000;stroke-width:1.0;" x1="733.5" x2="733.5" y1="188.4883" y2="208.9766"/><line style="stroke:#000000;stroke-width:1.0;" x1="629.5" x2="839.5" y1="208.9766" y2="208.9766"/><text fill="#000000" font-family="sans-serif" font-size="14" font-weight="bold" lengthAdjust="spacing" textLength="94" x="634.5" y="224.5117">ratio_percent</text><text fill="#000000" font-family="sans-serif" font-size="14" lengthAdjust="spacing" textLength="31" x="738.5" y="224.5117">3.54</text><line style="stroke:#000000;stroke-width:1.0;" x1="733.5" x2="733.5" y1="208.9766" y2="229.4648"/><rect fill="none" height="61.4648" rx="5" ry="5" style="stroke:#000000;stroke-width:1.5;" width="210" x="629.5" y="168"/><rect fill="#F1F1F1" height="61.4648" rx="5" ry="5" style="stroke:#F1F1F1;stroke-width:1.5;" width="272" x="598.5" y="247"/><text fill="#000000" font-family="sans-serif" font-size="14" font-weight="bold" lengthAdjust="spacing" textLength="94" x="603.5" y="262.5352">field_value_1</text><text fill="#000000" font-family="sans-serif" font-size="14" lengthAdjust="spacing" textLength="158" x="707.5" y="262.5352">1 win &amp; 2 nominations.</text><line style="stroke:#000000;stroke-width:1.0;" x1="702.5" x2="702.5" y1="247" y2="267.4883"/><line style="stroke:#000000;stroke-width:1.0;" x1="598.5" x2="870.5" y1="267.4883" y2="267.4883"/><text fill="#000000" font-family="sans-serif" font-size="14" font-weight="bold" lengthAdjust="spacing" textLength="74" x="603.5" y="283.0234">row_count</text><text fill="#000000" font-family="sans-serif" font-size="14" lengthAdjust="spacing" textLength="9" x="707.5" y="283.0234">4</text><line style="stroke:#000000;stroke-width:1.0;" x1="702.5" x2="702.5" y1="267.4883" y2="287.9766"/><line style="stroke:#000000;stroke-width:1.0;" x1="598.5" x2="870.5" y1="287.9766" y2="287.9766"/><text fill="#000000" font-family="sans-serif" font-size="14" font-weight="bold" lengthAdjust="spacing" textLength="94" x="603.5" y="303.5117">ratio_percent</text><text fill="#000000" font-family="sans-serif" font-size="14" lengthAdjust="spacing" textLength="31" x="707.5" y="303.5117">3.54</text><line style="stroke:#000000;stroke-width:1.0;" x1="702.5" x2="702.5" y1="287.9766" y2="308.4648"/><rect fill="none" height="61.4648" rx="5" ry="5" style="stroke:#000000;stroke-width:1.5;" width="272" x="598.5" y="247"/><rect fill="#F1F1F1" height="61.4648" rx="5" ry="5" style="stroke:#F1F1F1;stroke-width:1.5;" width="155" x="657" y="326"/><text fill="#000000" font-family="sans-serif" font-size="14" font-weight="bold" lengthAdjust="spacing" textLength="94" x="662" y="341.5352">field_value_1</text><text fill="#000000" font-family="sans-serif" font-size="14" lengthAdjust="spacing" textLength="41" x="766" y="341.5352">1 win.</text><line style="stroke:#000000;stroke-width:1.0;" x1="761" x2="761" y1="326" y2="346.4883"/><line style="stroke:#000000;stroke-width:1.0;" x1="657" x2="812" y1="346.4883" y2="346.4883"/><text fill="#000000" font-family="sans-serif" font-size="14" font-weight="bold" lengthAdjust="spacing" textLength="74" x="662" y="362.0234">row_count</text><text fill="#000000" font-family="sans-serif" font-size="14" lengthAdjust="spacing" textLength="9" x="766" y="362.0234">4</text><line style="stroke:#000000;stroke-width:1.0;" x1="761" x2="761" y1="346.4883" y2="366.9766"/><line style="stroke:#000000;stroke-width:1.0;" x1="657" x2="812" y1="366.9766" y2="366.9766"/><text fill="#000000" font-family="sans-serif" font-size="14" font-weight="bold" lengthAdjust="spacing" textLength="94" x="662" y="382.5117">ratio_percent</text><text fill="#000000" font-family="sans-serif" font-size="14" lengthAdjust="spacing" textLength="31" x="766" y="382.5117">3.54</text><line style="stroke:#000000;stroke-width:1.0;" x1="761" x2="761" y1="366.9766" y2="387.4648"/><rect fill="none" height="61.4648" rx="5" ry="5" style="stroke:#000000;stroke-width:1.5;" width="155" x="657" y="326"/><rect fill="#F1F1F1" height="61.4648" rx="5" ry="5" style="stroke:#F1F1F1;stroke-width:1.5;" width="533" x="468" y="405"/><text fill="#000000" font-family="sans-serif" font-size="14" font-weight="bold" lengthAdjust="spacing" textLength="94" x="473" y="420.5352">field_value_1</text><text fill="#000000" font-family="sans-serif" font-size="14" lengthAdjust="spacing" textLength="419" x="577" y="420.5352">Won 3 Primetime Emmys. Another 32 wins &amp; 80 nominations.</text><line style="stroke:#000000;stroke-width:1.0;" x1="572" x2="572" y1="405" y2="425.4883"/><line style="stroke:#000000;stroke-width:1.0;" x1="468" x2="1001" y1="425.4883" y2="425.4883"/><text fill="#000000" font-family="sans-serif" font-size="14" font-weight="bold" lengthAdjust="spacing" textLength="74" x="473" y="441.0234">row_count</text><text fill="#000000" font-family="sans-serif" font-size="14" lengthAdjust="spacing" textLength="9" x="577" y="441.0234">4</text><line style="stroke:#000000;stroke-width:1.0;" x1="572" x2="572" y1="425.4883" y2="445.9766"/><line style="stroke:#000000;stroke-width:1.0;" x1="468" x2="1001" y1="445.9766" y2="445.9766"/><text fill="#000000" font-family="sans-serif" font-size="14" font-weight="bold" lengthAdjust="spacing" textLength="94" x="473" y="461.5117">ratio_percent</text><text fill="#000000" font-family="sans-serif" font-size="14" lengthAdjust="spacing" textLength="31" x="577" y="461.5117">3.54</text><line style="stroke:#000000;stroke-width:1.0;" x1="572" x2="572" y1="445.9766" y2="466.4648"/><rect fill="none" height="61.4648" rx="5" ry="5" style="stroke:#000000;stroke-width:1.5;" width="533" x="468" y="405"/><rect fill="#F1F1F1" height="61.4648" rx="5" ry="5" style="stroke:#F1F1F1;stroke-width:1.5;" width="272" x="598.5" y="484"/><text fill="#000000" font-family="sans-serif" font-size="14" font-weight="bold" lengthAdjust="spacing" textLength="94" x="603.5" y="499.5352">field_value_1</text><text fill="#000000" font-family="sans-serif" font-size="14" lengthAdjust="spacing" textLength="158" x="707.5" y="499.5352">1 win &amp; 9 nominations.</text><line style="stroke:#000000;stroke-width:1.0;" x1="702.5" x2="702.5" y1="484" y2="504.4883"/><line style="stroke:#000000;stroke-width:1.0;" x1="598.5" x2="870.5" y1="504.4883" y2="504.4883"/><text fill="#000000" font-family="sans-serif" font-size="14" font-weight="bold" lengthAdjust="spacing" textLength="74" x="603.5" y="520.0234">row_count</text><text fill="#000000" font-family="sans-serif" font-size="14" lengthAdjust="spacing" textLength="9" x="707.5" y="520.0234">3</text><line style="stroke:#000000;stroke-width:1.0;" x1="702.5" x2="702.5" y1="504.4883" y2="524.9766"/><line style="stroke:#000000;stroke-width:1.0;" x1="598.5" x2="870.5" y1="524.9766" y2="524.9766"/><text fill="#000000" font-family="sans-serif" font-size="14" font-weight="bold" lengthAdjust="spacing" textLength="94" x="603.5" y="540.5117">ratio_percent</text><text fill="#000000" font-family="sans-serif" font-size="14" lengthAdjust="spacing" textLength="31" x="707.5" y="540.5117">2.65</text><line style="stroke:#000000;stroke-width:1.0;" x1="702.5" x2="702.5" y1="524.9766" y2="545.4648"/><rect fill="none" height="61.4648" rx="5" ry="5" style="stroke:#000000;stroke-width:1.5;" width="272" x="598.5" y="484"/><rect fill="#F1F1F1" height="61.4648" rx="5" ry="5" style="stroke:#F1F1F1;stroke-width:1.5;" width="150" x="659.5" y="563"/><text fill="#000000" font-family="sans-serif" font-size="14" font-weight="bold" lengthAdjust="spacing" textLength="94" x="664.5" y="578.5352">field_value_1</text><text fill="#000000" font-family="sans-serif" font-size="14" lengthAdjust="spacing" textLength="36" x="768.5" y="578.5352">None</text><line style="stroke:#000000;stroke-width:1.0;" x1="763.5" x2="763.5" y1="563" y2="583.4883"/><line style="stroke:#000000;stroke-width:1.0;" x1="659.5" x2="809.5" y1="583.4883" y2="583.4883"/><text fill="#000000" font-family="sans-serif" font-size="14" font-weight="bold" lengthAdjust="spacing" textLength="74" x="664.5" y="599.0234">row_count</text><text fill="#000000" font-family="sans-serif" font-size="14" lengthAdjust="spacing" textLength="9" x="768.5" y="599.0234">2</text><line style="stroke:#000000;stroke-width:1.0;" x1="763.5" x2="763.5" y1="583.4883" y2="603.9766"/><line style="stroke:#000000;stroke-width:1.0;" x1="659.5" x2="809.5" y1="603.9766" y2="603.9766"/><text fill="#000000" font-family="sans-serif" font-size="14" font-weight="bold" lengthAdjust="spacing" textLength="94" x="664.5" y="619.5117">ratio_percent</text><text fill="#000000" font-family="sans-serif" font-size="14" lengthAdjust="spacing" textLength="31" x="768.5" y="619.5117">1.77</text><line style="stroke:#000000;stroke-width:1.0;" x1="763.5" x2="763.5" y1="603.9766" y2="624.4648"/><rect fill="none" height="61.4648" rx="5" ry="5" style="stroke:#000000;stroke-width:1.5;" width="150" x="659.5" y="563"/><rect fill="#F1F1F1" height="61.4648" rx="5" ry="5" style="stroke:#F1F1F1;stroke-width:1.5;" width="272" x="598.5" y="642"/><text fill="#000000" font-family="sans-serif" font-size="14" font-weight="bold" lengthAdjust="spacing" textLength="94" x="603.5" y="657.5352">field_value_1</text><text fill="#000000" font-family="sans-serif" font-size="14" lengthAdjust="spacing" textLength="158" x="707.5" y="657.5352">1 win &amp; 3 nominations.</text><line style="stroke:#000000;stroke-width:1.0;" x1="702.5" x2="702.5" y1="642" y2="662.4883"/><line style="stroke:#000000;stroke-width:1.0;" x1="598.5" x2="870.5" y1="662.4883" y2="662.4883"/><text fill="#000000" font-family="sans-serif" font-size="14" font-weight="bold" lengthAdjust="spacing" textLength="74" x="603.5" y="678.0234">row_count</text><text fill="#000000" font-family="sans-serif" font-size="14" lengthAdjust="spacing" textLength="9" x="707.5" y="678.0234">2</text><line style="stroke:#000000;stroke-width:1.0;" x1="702.5" x2="702.5" y1="662.4883" y2="682.9766"/><line style="stroke:#000000;stroke-width:1.0;" x1="598.5" x2="870.5" y1="682.9766" y2="682.9766"/><text fill="#000000" font-family="sans-serif" font-size="14" font-weight="bold" lengthAdjust="spacing" textLength="94" x="603.5" y="698.5117">ratio_percent</text><text fill="#000000" font-family="sans-serif" font-size="14" lengthAdjust="spacing" textLength="31" x="707.5" y="698.5117">1.77</text><line style="stroke:#000000;stroke-width:1.0;" x1="702.5" x2="702.5" y1="682.9766" y2="703.4648"/><rect fill="none" height="61.4648" rx="5" ry="5" style="stroke:#000000;stroke-width:1.5;" width="272" x="598.5" y="642"/><rect fill="#F1F1F1" height="61.4648" rx="5" ry="5" style="stroke:#F1F1F1;stroke-width:1.5;" width="272" x="598.5" y="721"/><text fill="#000000" font-family="sans-serif" font-size="14" font-weight="bold" lengthAdjust="spacing" textLength="94" x="603.5" y="736.5352">field_value_1</text><text fill="#000000" font-family="sans-serif" font-size="14" lengthAdjust="spacing" textLength="158" x="707.5" y="736.5352">1 win &amp; 4 nominations.</text><line style="stroke:#000000;stroke-width:1.0;" x1="702.5" x2="702.5" y1="721" y2="741.4883"/><line style="stroke:#000000;stroke-width:1.0;" x1="598.5" x2="870.5" y1="741.4883" y2="741.4883"/><text fill="#000000" font-family="sans-serif" font-size="14" font-weight="bold" lengthAdjust="spacing" textLength="74" x="603.5" y="757.0234">row_count</text><text fill="#000000" font-family="sans-serif" font-size="14" lengthAdjust="spacing" textLength="9" x="707.5" y="757.0234">2</text><line style="stroke:#000000;stroke-width:1.0;" x1="702.5" x2="702.5" y1="741.4883" y2="761.9766"/><line style="stroke:#000000;stroke-width:1.0;" x1="598.5" x2="870.5" y1="761.9766" y2="761.9766"/><text fill="#000000" font-family="sans-serif" font-size="14" font-weight="bold" lengthAdjust="spacing" textLength="94" x="603.5" y="777.5117">ratio_percent</text><text fill="#000000" font-family="sans-serif" font-size="14" lengthAdjust="spacing" textLength="31" x="707.5" y="777.5117">1.77</text><line style="stroke:#000000;stroke-width:1.0;" x1="702.5" x2="702.5" y1="761.9766" y2="782.4648"/><rect fill="none" height="61.4648" rx="5" ry="5" style="stroke:#000000;stroke-width:1.5;" width="272" x="598.5" y="721"/><path d="M193,315.5 L206,315.5 C226.8273,315.5 223.7406,295.5187 242,285.5 C246.1394,283.2288 250.4771,281.0988 254.9224,279.1061 " fill="none" style="stroke:#000000;stroke-width:1.0;stroke-dasharray:3.0,3.0;"/><path d="M256.1301,281.9305 L257.0407,278.2004 L253.7148,276.2817 L261.9835,276.0871 L256.1301,281.9305 " fill="#000000" style="stroke:#000000;stroke-width:1.0;"/><ellipse cx="193" cy="315.5" fill="#000000" rx="3" ry="3" style="stroke:#000000;stroke-width:1.0;"/><path d="M337,303.5 L350,303.5 C387.3122,303.5 406.1906,312.4458 432,285.5 C496.2901,218.3792 401.3841,144.3132 468,79.5 C515.2233,33.5546 591.2468,26.4209 649.9502,29.2662 " fill="none" style="stroke:#000000;stroke-width:1.0;stroke-dasharray:3.0,3.0;"/><path d="M649.7738,32.3855 L652.2896,29.3985 L650.1266,26.147 L657.7482,29.7072 L649.7738,32.3855 " fill="#000000" style="stroke:#000000;stroke-width:1.0;"/><ellipse cx="337" cy="303.5" fill="#000000" rx="3" ry="3" style="stroke:#000000;stroke-width:1.0;"/><path d="M337,324.5 L350,324.5 C390.3564,324.5 405.9543,316.3264 432,285.5 C469.864,240.686 423.8958,197.1885 468,158.5 C508.633,122.8564 566.9364,111.4798 618.6084,109.7091 " fill="none" style="stroke:#000000;stroke-width:1.0;stroke-dasharray:3.0,3.0;"/><path d="M618.6857,112.7382 L620.8802,109.6511 L618.5311,106.68 L626.1812,109.5158 L618.6857,112.7382 " fill="#000000" style="stroke:#000000;stroke-width:1.0;"/><ellipse cx="337" cy="324.5" fill="#000000" rx="3" ry="3" style="stroke:#000000;stroke-width:1.0;"/><path d="M337,344.5 L350,344.5 C394.8977,344.5 399.9398,316.9316 432,285.5 C451.0419,266.8314 445.0791,251.1287 468,237.5 C513.9819,210.1593 572.1103,199.4829 622.2915,196.0294 " fill="none" style="stroke:#000000;stroke-width:1.0;stroke-dasharray:3.0,3.0;"/><path d="M622.4819,199.0944 L624.5902,195.8866 L622.1011,192.9644 L629.954,195.5534 L622.4819,199.0944 " fill="#000000" style="stroke:#000000;stroke-width:1.0;"/><ellipse cx="337" cy="344.5" fill="#000000" rx="3" ry="3" style="stroke:#000000;stroke-width:1.0;"/><path d="M337,365.5 L350,365.5 C406.6174,365.5 413.4007,332.4814 468,317.5 C507.4287,306.6812 551.0001,298.584 591.269,292.6121 " fill="none" style="stroke:#000000;stroke-width:1.0;stroke-dasharray:3.0,3.0;"/><path d="M591.7052,295.6037 L593.5127,292.2849 L590.8328,289.6205 L598.7479,291.5216 L591.7052,295.6037 " fill="#000000" style="stroke:#000000;stroke-width:1.0;"/><ellipse cx="337" cy="365.5" fill="#000000" rx="3" ry="3" style="stroke:#000000;stroke-width:1.0;"/><path d="M337,385.5 L350,385.5 C453.2571,385.5 571.69,374.9447 649.4044,366.5702 " fill="none" style="stroke:#000000;stroke-width:1.0;stroke-dasharray:3.0,3.0;"/><path d="M649.7462,369.7145 L651.7626,366.3138 L649.0626,363.426 L657.265,365.7156 L649.7462,369.7145 " fill="#000000" style="stroke:#000000;stroke-width:1.0;"/><ellipse cx="337" cy="385.5" fill="#000000" rx="3" ry="3" style="stroke:#000000;stroke-width:1.0;"/><path d="M337,406.5 L350,406.5 C385.8117,406.5 423.4487,407.7696 460.5795,409.7776 " fill="none" style="stroke:#000000;stroke-width:1.0;stroke-dasharray:3.0,3.0;"/><path d="M460.4037,412.9435 L462.9539,409.9094 L460.7552,406.6117 L468.4942,410.2171 L460.4037,412.9435 " fill="#000000" style="stroke:#000000;stroke-width:1.0;"/><ellipse cx="337" cy="406.5" fill="#000000" rx="3" ry="3" style="stroke:#000000;stroke-width:1.0;"/><path d="M337,427.5 L350,427.5 C406.6174,427.5 413.3732,460.619 468,475.5 C507.427,486.2404 550.9978,494.1959 591.2668,500.0152 " fill="none" style="stroke:#000000;stroke-width:1.0;stroke-dasharray:3.0,3.0;"/><path d="M590.842,503.0068 L593.5105,500.3338 L591.6915,497.0236 L598.7457,501.0771 L590.842,503.0068 " fill="#000000" style="stroke:#000000;stroke-width:1.0;"/><ellipse cx="337" cy="427.5" fill="#000000" rx="3" ry="3" style="stroke:#000000;stroke-width:1.0;"/><path d="M337,447.5 L350,447.5 C420.7951,447.5 403.9801,524.2774 468,554.5 C525.7461,581.7608 597.744,591.0226 652.267,593.7377 " fill="none" style="stroke:#000000;stroke-width:1.0;stroke-dasharray:3.0,3.0;"/><path d="M652.1307,596.7674 L654.5392,593.84 L652.4033,590.708 L659.8411,594.0786 L652.1307,596.7674 " fill="#000000" style="stroke:#000000;stroke-width:1.0;"/><ellipse cx="337" cy="447.5" fill="#000000" rx="3" ry="3" style="stroke:#000000;stroke-width:1.0;"/><path d="M337,468.5 L350,468.5 C440.1565,468.5 391.0348,586.5474 468,633.5 C504.5546,655.8001 549.0707,667.1257 591.1475,672.4785 " fill="none" style="stroke:#000000;stroke-width:1.0;stroke-dasharray:3.0,3.0;"/><path d="M590.7872,675.4987 L593.4126,672.7487 L591.5077,669.4584 L598.6979,673.3792 L590.7872,675.4987 " fill="#000000" style="stroke:#000000;stroke-width:1.0;"/><ellipse cx="337" cy="468.5" fill="#000000" rx="3" ry="3" style="stroke:#000000;stroke-width:1.0;"/><path d="M337,488.5 L350,488.5 C462.5243,488.5 376.1428,647.5078 468,712.5 C503.4943,737.6134 548.3796,749.614 591.1212,754.7195 " fill="none" style="stroke:#000000;stroke-width:1.0;stroke-dasharray:3.0,3.0;"/><path d="M590.7826,757.7888 L593.4231,754.9734 L591.4598,751.6503 L598.7943,755.5659 L590.7826,757.7888 " fill="#000000" style="stroke:#000000;stroke-width:1.0;"/><ellipse cx="337" cy="488.5" fill="#000000" rx="3" ry="3" style="stroke:#000000;stroke-width:1.0;"/><path d="M193,336.5 L206,336.5 C249.8518,336.5 295.0003,364.993 318.8339,382.7089 " fill="none" style="stroke:#000000;stroke-width:1.0;stroke-dasharray:3.0,3.0;"/><path d="M316.9625,385.1642 L320.6753,384.1124 L320.7052,380.2536 L324.9721,387.3873 L316.9625,385.1642 " fill="#000000" style="stroke:#000000;stroke-width:1.0;"/><ellipse cx="193" cy="336.5" fill="#000000" rx="3" ry="3" style="stroke:#000000;stroke-width:1.0;"/><!--MD5=[706c7ca95042698027a0e6411ed7c7c7]
@startjson
{
    "field1": "Awards",
    "combination": "Awards",
    "null_distribution": {
        "total_null_rows": 2,
        "total_not_null_rows": 111
    },
    "data_distribution": [
        {
            "field_value_1": "N/A",
            "row_count": 19,
            "ratio_percent": 16.81
        },
        {
            "field_value_1": "3 nominations.",
            "row_count": 6,
            "ratio_percent": 5.31
        },
        {
            "field_value_1": "1 nomination.",
            "row_count": 4,
            "ratio_percent": 3.54
        },
        {
            "field_value_1": "1 win & 2 nominations.",
            "row_count": 4,
            "ratio_percent": 3.54
        },
        {
            "field_value_1": "1 win.",
            "row_count": 4,
            "ratio_percent": 3.54
        },
        {
            "field_value_1": "Won 3 Primetime Emmys. Another 32 wins & 80 nominations.",
            "row_count": 4,
            "ratio_percent": 3.54
        },
        {
            "field_value_1": "1 win & 9 nominations.",
            "row_count": 3,
            "ratio_percent": 2.65
        },
        {
            "field_value_1": "None",
            "row_count": 2,
            "ratio_percent": 1.77
        },
        {
            "field_value_1": "1 win & 3 nominations.",
            "row_count": 2,
            "ratio_percent": 1.77
        },
        {
            "field_value_1": "1 win & 4 nominations.",
            "row_count": 2,
            "ratio_percent": 1.77
        }
    ]
}
@endjson

PlantUML version 1.2022.12(Sun Oct 23 14:12:26 EDT 2022)
(GPL source distribution)
Java Runtime: OpenJDK Runtime Environment
JVM: OpenJDK 64-Bit Server VM
Default Encoding: UTF-8
Language: en
Country: CA
--></g></svg>