<?xml version="1.0" encoding="UTF-8" standalone="no"?><svg xmlns="http://www.w3.org/2000/svg" xmlns:xlink="http://www.w3.org/1999/xlink" contentStyleType="text/css" height="182px" preserveAspectRatio="none" style="width:649px;height:182px;background:#FFFFFF;" version="1.1" viewBox="0 0 649 182" width="649px" zoomAndPan="magnify"><defs/><g><rect fill="#F1F1F1" height="81.9531" rx="5" ry="5" style="stroke:#F1F1F1;stroke-width:1.5;" width="210" x="10" y="10"/><text fill="#000000" font-family="sans-serif" font-size="14" font-weight="bold" lengthAdjust="spacing" textLength="42" x="15" y="25.5352">field1</text><text fill="#000000" font-family="sans-serif" font-size="14" lengthAdjust="spacing" textLength="66" x="149" y="25.5352">Response</text><line style="stroke:#000000;stroke-width:1.0;" x1="144" x2="144" y1="10" y2="30.4883"/><line style="stroke:#000000;stroke-width:1.0;" x1="10" x2="220" y1="30.4883" y2="30.4883"/><text fill="#000000" font-family="sans-serif" font-size="14" font-weight="bold" lengthAdjust="spacing" textLength="90" x="15" y="46.0234">combination</text><text fill="#000000" font-family="sans-serif" font-size="14" lengthAdjust="spacing" textLength="66" x="149" y="46.0234">Response</text><line style="stroke:#000000;stroke-width:1.0;" x1="144" x2="144" y1="30.4883" y2="50.9766"/><line style="stroke:#000000;stroke-width:1.0;" x1="10" x2="220" y1="50.9766" y2="50.9766"/><text fill="#000000" font-family="sans-serif" font-size="14" font-weight="bold" lengthAdjust="spacing" textLength="121" x="15" y="66.5117">null_distribution</text><text fill="#000000" font-family="sans-serif" font-size="14" lengthAdjust="spacing" textLength="12" x="149" y="66.5117">   </text><line style="stroke:#000000;stroke-width:1.0;" x1="144" x2="144" y1="50.9766" y2="71.4648"/><line style="stroke:#000000;stroke-width:1.0;" x1="10" x2="220" y1="71.4648" y2="71.4648"/><text fill="#000000" font-family="sans-serif" font-size="14" font-weight="bold" lengthAdjust="spacing" textLength="124" x="15" y="87">data_distribution</text><text fill="#000000" font-family="sans-serif" font-size="14" lengthAdjust="spacing" textLength="12" x="149" y="87">   </text><line style="stroke:#000000;stroke-width:1.0;" x1="144" x2="144" y1="71.4648" y2="91.9531"/><rect fill="none" height="81.9531" rx="5" ry="5" style="stroke:#000000;stroke-width:1.5;" width="210" x="10" y="10"/><rect fill="#F1F1F1" height="40.9766" rx="5" ry="5" style="stroke:#F1F1F1;stroke-width:1.5;" width="189" x="257" y="21.5"/><text fill="#000000" font-family="sans-serif" font-size="14" font-weight="bold" lengthAdjust="spacing" textLength="111" x="262" y="37.0352">total_null_rows</text><text fill="#000000" font-family="sans-serif" font-size="14" lengthAdjust="spacing" textLength="9" x="414" y="37.0352">0</text><line style="stroke:#000000;stroke-width:1.0;" x1="409" x2="409" y1="21.5" y2="41.9883"/><line style="stroke:#000000;stroke-width:1.0;" x1="257" x2="446" y1="41.9883" y2="41.9883"/><text fill="#000000" font-family="sans-serif" font-size="14" font-weight="bold" lengthAdjust="spacing" textLength="142" x="262" y="57.5234">total_not_null_rows</text><text fill="#000000" font-family="sans-serif" font-size="14" lengthAdjust="spacing" textLength="27" x="414" y="57.5234">113</text><line style="stroke:#000000;stroke-width:1.0;" x1="409" x2="409" y1="41.9883" y2="62.4766"/><rect fill="none" height="40.9766" rx="5" ry="5" style="stroke:#000000;stroke-width:1.5;" width="189" x="257" y="21.5"/><rect fill="#F1F1F1" height="40.9766" rx="5" ry="5" style="stroke:#F1F1F1;stroke-width:1.5;" width="22" x="339.5" y="80.5"/><text fill="#000000" font-family="sans-serif" font-size="14" lengthAdjust="spacing" textLength="12" x="344.5" y="96.0352">   </text><line style="stroke:#000000;stroke-width:1.0;" x1="339.5" x2="361.5" y1="100.9883" y2="100.9883"/><text fill="#000000" font-family="sans-serif" font-size="14" lengthAdjust="spacing" textLength="12" x="344.5" y="116.5234">   </text><rect fill="none" height="40.9766" rx="5" ry="5" style="stroke:#000000;stroke-width:1.5;" width="22" x="339.5" y="80.5"/><rect fill="#F1F1F1" height="61.4648" rx="5" ry="5" style="stroke:#F1F1F1;stroke-width:1.5;" width="154" x="483" y="30.5"/><text fill="#000000" font-family="sans-serif" font-size="14" font-weight="bold" lengthAdjust="spacing" textLength="94" x="488" y="46.0352">field_value_1</text><text fill="#000000" font-family="sans-serif" font-size="14" lengthAdjust="spacing" textLength="32" x="592" y="46.0352">True</text><line style="stroke:#000000;stroke-width:1.0;" x1="587" x2="587" y1="30.5" y2="50.9883"/><line style="stroke:#000000;stroke-width:1.0;" x1="483" x2="637" y1="50.9883" y2="50.9883"/><text fill="#000000" font-family="sans-serif" font-size="14" font-weight="bold" lengthAdjust="spacing" textLength="74" x="488" y="66.5234">row_count</text><text fill="#000000" font-family="sans-serif" font-size="14" lengthAdjust="spacing" textLength="27" x="592" y="66.5234">111</text><line style="stroke:#000000;stroke-width:1.0;" x1="587" x2="587" y1="50.9883" y2="71.4766"/><line style="stroke:#000000;stroke-width:1.0;" x1="483" x2="637" y1="71.4766" y2="71.4766"/><text fill="#000000" font-family="sans-serif" font-size="14" font-weight="bold" lengthAdjust="spacing" textLength="94" x="488" y="87.0117">ratio_percent</text><text fill="#000000" font-family="sans-serif" font-size="14" lengthAdjust="spacing" textLength="40" x="592" y="87.0117">98.23</text><line style="stroke:#000000;stroke-width:1.0;" x1="587" x2="587" y1="71.4766" y2="91.9648"/><rect fill="none" height="61.4648" rx="5" ry="5" style="stroke:#000000;stroke-width:1.5;" width="154" x="483" y="30.5"/><rect fill="#F1F1F1" height="61.4648" rx="5" ry="5" style="stroke:#F1F1F1;stroke-width:1.5;" width="149" x="485.5" y="109.5"/><text fill="#000000" font-family="sans-serif" font-size="14" font-weight="bold" lengthAdjust="spacing" textLength="94" x="490.5" y="125.0352">field_value_1</text><text fill="#000000" font-family="sans-serif" font-size="14" lengthAdjust="spacing" textLength="35" x="594.5" y="125.0352">False</text><line style="stroke:#000000;stroke-width:1.0;" x1="589.5" x2="589.5" y1="109.5" y2="129.9883"/><line style="stroke:#000000;stroke-width:1.0;" x1="485.5" x2="634.5" y1="129.9883" y2="129.9883"/><text fill="#000000" font-family="sans-serif" font-size="14" font-weight="bold" lengthAdjust="spacing" textLength="74" x="490.5" y="145.5234">row_count</text><text fill="#000000" font-family="sans-serif" font-size="14" lengthAdjust="spacing" textLength="9" x="594.5" y="145.5234">2</text><line style="stroke:#000000;stroke-width:1.0;" x1="589.5" x2="589.5" y1="129.9883" y2="150.4766"/><line style="stroke:#000000;stroke-width:1.0;" x1="485.5" x2="634.5" y1="150.4766" y2="150.4766"/><text fill="#000000" font-family="sans-serif" font-size="14" font-weight="bold" lengthAdjust="spacing" textLength="94" x="490.5" y="166.0117">ratio_percent</text><text fill="#000000" font-family="sans-serif" font-size="14" lengthAdjust="spacing" textLength="31" x="594.5" y="166.0117">1.77</text><line style="stroke:#000000;stroke-width:1.0;" x1="589.5" x2="589.5" y1="150.4766" y2="170.9648"/><rect fill="none" height="61.4648" rx="5" ry="5" style="stroke:#000000;stroke-width:1.5;" width="149" x="485.5" y="109.5"/><path d="M208,61 L221,61 C230.2689,61 239.8709,60.5212 249.4666,59.7157 " fill="none" style="stroke:#000000;stroke-width:1.0;stroke-dasharray:3.0,3.0;"/><path d="M249.7518,62.7908 L251.7729,59.5018 L249.1813,56.6406 L257.1543,59.0026 L249.7518,62.7908 " fill="#000000" style="stroke:#000000;stroke-width:1.0;"/><ellipse cx="208" cy="61" fill="#000000" rx="3" ry="3" style="stroke:#000000;stroke-width:1.0;"/><path d="M352,90 L365,90 C401.5011,90 441.4383,84.9419 475.575,79.0506 " fill="none" style="stroke:#000000;stroke-width:1.0;stroke-dasharray:3.0,3.0;"/><path d="M476.1147,82.1073 L477.8676,78.6458 L475.0354,75.9938 L483.2168,77.7014 L476.1147,82.1073 " fill="#000000" style="stroke:#000000;stroke-width:1.0;"/><ellipse cx="352" cy="90" fill="#000000" rx="3" ry="3" style="stroke:#000000;stroke-width:1.0;"/><path d="M352,111 L365,111 C402.4533,111 443.5243,116.3254 478.2346,122.4121 " fill="none" style="stroke:#000000;stroke-width:1.0;stroke-dasharray:3.0,3.0;"/><path d="M477.6778,125.5169 L480.5632,122.8298 L478.7914,119.3073 L485.9966,123.8042 L477.6778,125.5169 " fill="#000000" style="stroke:#000000;stroke-width:1.0;"/><ellipse cx="352" cy="111" fill="#000000" rx="3" ry="3" style="stroke:#000000;stroke-width:1.0;"/><path d="M208,82 L221,82 C261.1344,82 307.5128,90.9761 332.5913,96.5892 " fill="none" style="stroke:#000000;stroke-width:1.0;stroke-dasharray:3.0,3.0;"/><path d="M331.9158,99.5328 L334.799,97.0957 L333.2667,93.6455 L339.9503,98.2778 L331.9158,99.5328 " fill="#000000" style="stroke:#000000;stroke-width:1.0;"/><ellipse cx="208" cy="82" fill="#000000" rx="3" ry="3" style="stroke:#000000;stroke-width:1.0;"/><!--MD5=[6fef7a6b39266211d76c9179d50c3866]
@startjson
{
    "field1": "Response",
    "combination": "Response",
    "null_distribution": {
        "total_null_rows": 0,
        "total_not_null_rows": 113
    },
    "data_distribution": [
        {
            "field_value_1": "True",
            "row_count": 111,
            "ratio_percent": 98.23
        },
        {
            "field_value_1": "False",
            "row_count": 2,
            "ratio_percent": 1.77
        }
    ]
}
@endjson

PlantUML version 1.2022.12(Sun Oct 23 14:12:26 EDT 2022)
(GPL source distribution)
Java Runtime: OpenJDK Runtime Environment
JVM: OpenJDK 64-Bit Server VM
Default Encoding: UTF-8
Language: en
Country: CA
--></g></svg>