<?xml version="1.0" encoding="UTF-8" standalone="no"?><svg xmlns="http://www.w3.org/2000/svg" xmlns:xlink="http://www.w3.org/1999/xlink" contentStyleType="text/css" height="794px" preserveAspectRatio="none" style="width:984px;height:794px;background:#FFFFFF;" version="1.1" viewBox="0 0 984 794" width="984px" zoomAndPan="magnify"><defs/><g><rect fill="#F1F1F1" height="81.9531" rx="5" ry="5" style="stroke:#F1F1F1;stroke-width:1.5;" width="199" x="10" y="264.5"/><text fill="#000000" font-family="sans-serif" font-size="14" font-weight="bold" lengthAdjust="spacing" textLength="42" x="15" y="280.0352">field1</text><text fill="#000000" font-family="sans-serif" font-size="14" lengthAdjust="spacing" textLength="55" x="149" y="280.0352">Director</text><line style="stroke:#000000;stroke-width:1.0;" x1="144" x2="144" y1="264.5" y2="284.9883"/><line style="stroke:#000000;stroke-width:1.0;" x1="10" x2="209" y1="284.9883" y2="284.9883"/><text fill="#000000" font-family="sans-serif" font-size="14" font-weight="bold" lengthAdjust="spacing" textLength="90" x="15" y="300.5234">combination</text><text fill="#000000" font-family="sans-serif" font-size="14" lengthAdjust="spacing" textLength="55" x="149" y="300.5234">Director</text><line style="stroke:#000000;stroke-width:1.0;" x1="144" x2="144" y1="284.9883" y2="305.4766"/><line style="stroke:#000000;stroke-width:1.0;" x1="10" x2="209" y1="305.4766" y2="305.4766"/><text fill="#000000" font-family="sans-serif" font-size="14" font-weight="bold" lengthAdjust="spacing" textLength="121" x="15" y="321.0117">null_distribution</text><text fill="#000000" font-family="sans-serif" font-size="14" lengthAdjust="spacing" textLength="12" x="149" y="321.0117">   </text><line style="stroke:#000000;stroke-width:1.0;" x1="144" x2="144" y1="305.4766" y2="325.9648"/><line style="stroke:#000000;stroke-width:1.0;" x1="10" x2="209" y1="325.9648" y2="325.9648"/><text fill="#000000" font-family="sans-serif" font-size="14" font-weight="bold" lengthAdjust="spacing" textLength="124" x="15" y="341.5">data_distribution</text><text fill="#000000" font-family="sans-serif" font-size="14" lengthAdjust="spacing" textLength="12" x="149" y="341.5">   </text><line style="stroke:#000000;stroke-width:1.0;" x1="144" x2="144" y1="325.9648" y2="346.4531"/><rect fill="none" height="81.9531" rx="5" ry="5" style="stroke:#000000;stroke-width:1.5;" width="199" x="10" y="264.5"/><rect fill="#F1F1F1" height="40.9766" rx="5" ry="5" style="stroke:#F1F1F1;stroke-width:1.5;" width="189" x="246" y="235"/><text fill="#000000" font-family="sans-serif" font-size="14" font-weight="bold" lengthAdjust="spacing" textLength="111" x="251" y="250.5352">total_null_rows</text><text fill="#000000" font-family="sans-serif" font-size="14" lengthAdjust="spacing" textLength="9" x="403" y="250.5352">2</text><line style="stroke:#000000;stroke-width:1.0;" x1="398" x2="398" y1="235" y2="255.4883"/><line style="stroke:#000000;stroke-width:1.0;" x1="246" x2="435" y1="255.4883" y2="255.4883"/><text fill="#000000" font-family="sans-serif" font-size="14" font-weight="bold" lengthAdjust="spacing" textLength="142" x="251" y="271.0234">total_not_null_rows</text><text fill="#000000" font-family="sans-serif" font-size="14" lengthAdjust="spacing" textLength="27" x="403" y="271.0234">111</text><line style="stroke:#000000;stroke-width:1.0;" x1="398" x2="398" y1="255.4883" y2="275.9766"/><rect fill="none" height="40.9766" rx="5" ry="5" style="stroke:#000000;stroke-width:1.5;" width="189" x="246" y="235"/><rect fill="#F1F1F1" height="204.8828" rx="5" ry="5" style="stroke:#F1F1F1;stroke-width:1.5;" width="22" x="328.5" y="294"/><text fill="#000000" font-family="sans-serif" font-size="14" lengthAdjust="spacing" textLength="12" x="333.5" y="309.5352">   </text><line style="stroke:#000000;stroke-width:1.0;" x1="328.5" x2="350.5" y1="314.4883" y2="314.4883"/><text fill="#000000" font-family="sans-serif" font-size="14" lengthAdjust="spacing" textLength="12" x="333.5" y="330.0234">   </text><line style="stroke:#000000;stroke-width:1.0;" x1="328.5" x2="350.5" y1="334.9766" y2="334.9766"/><text fill="#000000" font-family="sans-serif" font-size="14" lengthAdjust="spacing" textLength="12" x="333.5" y="350.5117">   </text><line style="stroke:#000000;stroke-width:1.0;" x1="328.5" x2="350.5" y1="355.4648" y2="355.4648"/><text fill="#000000" font-family="sans-serif" font-size="14" lengthAdjust="spacing" textLength="12" x="333.5" y="371">   </text><line style="stroke:#000000;stroke-width:1.0;" x1="328.5" x2="350.5" y1="375.9531" y2="375.9531"/><text fill="#000000" font-family="sans-serif" font-size="14" lengthAdjust="spacing" textLength="12" x="333.5" y="391.4883">   </text><line style="stroke:#000000;stroke-width:1.0;" x1="328.5" x2="350.5" y1="396.4414" y2="396.4414"/><text fill="#000000" font-family="sans-serif" font-size="14" lengthAdjust="spacing" textLength="12" x="333.5" y="411.9766">   </text><line style="stroke:#000000;stroke-width:1.0;" x1="328.5" x2="350.5" y1="416.9297" y2="416.9297"/><text fill="#000000" font-family="sans-serif" font-size="14" lengthAdjust="spacing" textLength="12" x="333.5" y="432.4648">   </text><line style="stroke:#000000;stroke-width:1.0;" x1="328.5" x2="350.5" y1="437.418" y2="437.418"/><text fill="#000000" font-family="sans-serif" font-size="14" lengthAdjust="spacing" textLength="12" x="333.5" y="452.9531">   </text><line style="stroke:#000000;stroke-width:1.0;" x1="328.5" x2="350.5" y1="457.9063" y2="457.9063"/><text fill="#000000" font-family="sans-serif" font-size="14" lengthAdjust="spacing" textLength="12" x="333.5" y="473.4414">   </text><line style="stroke:#000000;stroke-width:1.0;" x1="328.5" x2="350.5" y1="478.3945" y2="478.3945"/><text fill="#000000" font-family="sans-serif" font-size="14" lengthAdjust="spacing" textLength="12" x="333.5" y="493.9297">   </text><rect fill="none" height="204.8828" rx="5" ry="5" style="stroke:#000000;stroke-width:1.5;" width="22" x="328.5" y="294"/><rect fill="#F1F1F1" height="61.4648" rx="5" ry="5" style="stroke:#F1F1F1;stroke-width:1.5;" width="154" x="645" y="10"/><text fill="#000000" font-family="sans-serif" font-size="14" font-weight="bold" lengthAdjust="spacing" textLength="94" x="650" y="25.5352">field_value_1</text><text fill="#000000" font-family="sans-serif" font-size="14" lengthAdjust="spacing" textLength="27" x="754" y="25.5352">N/A</text><line style="stroke:#000000;stroke-width:1.0;" x1="749" x2="749" y1="10" y2="30.4883"/><line style="stroke:#000000;stroke-width:1.0;" x1="645" x2="799" y1="30.4883" y2="30.4883"/><text fill="#000000" font-family="sans-serif" font-size="14" font-weight="bold" lengthAdjust="spacing" textLength="74" x="650" y="46.0234">row_count</text><text fill="#000000" font-family="sans-serif" font-size="14" lengthAdjust="spacing" textLength="18" x="754" y="46.0234">15</text><line style="stroke:#000000;stroke-width:1.0;" x1="749" x2="749" y1="30.4883" y2="50.9766"/><line style="stroke:#000000;stroke-width:1.0;" x1="645" x2="799" y1="50.9766" y2="50.9766"/><text fill="#000000" font-family="sans-serif" font-size="14" font-weight="bold" lengthAdjust="spacing" textLength="94" x="650" y="66.5117">ratio_percent</text><text fill="#000000" font-family="sans-serif" font-size="14" lengthAdjust="spacing" textLength="40" x="754" y="66.5117">13.27</text><line style="stroke:#000000;stroke-width:1.0;" x1="749" x2="749" y1="50.9766" y2="71.4648"/><rect fill="none" height="61.4648" rx="5" ry="5" style="stroke:#000000;stroke-width:1.5;" width="154" x="645" y="10"/><rect fill="#F1F1F1" height="61.4648" rx="5" ry="5" style="stroke:#F1F1F1;stroke-width:1.5;" width="196" x="624" y="89"/><text fill="#000000" font-family="sans-serif" font-size="14" font-weight="bold" lengthAdjust="spacing" textLength="94" x="629" y="104.5352">field_value_1</text><text fill="#000000" font-family="sans-serif" font-size="14" lengthAdjust="spacing" textLength="82" x="733" y="104.5352">Doug Liman</text><line style="stroke:#000000;stroke-width:1.0;" x1="728" x2="728" y1="89" y2="109.4883"/><line style="stroke:#000000;stroke-width:1.0;" x1="624" x2="820" y1="109.4883" y2="109.4883"/><text fill="#000000" font-family="sans-serif" font-size="14" font-weight="bold" lengthAdjust="spacing" textLength="74" x="629" y="125.0234">row_count</text><text fill="#000000" font-family="sans-serif" font-size="14" lengthAdjust="spacing" textLength="9" x="733" y="125.0234">3</text><line style="stroke:#000000;stroke-width:1.0;" x1="728" x2="728" y1="109.4883" y2="129.9766"/><line style="stroke:#000000;stroke-width:1.0;" x1="624" x2="820" y1="129.9766" y2="129.9766"/><text fill="#000000" font-family="sans-serif" font-size="14" font-weight="bold" lengthAdjust="spacing" textLength="94" x="629" y="145.5117">ratio_percent</text><text fill="#000000" font-family="sans-serif" font-size="14" lengthAdjust="spacing" textLength="31" x="733" y="145.5117">2.65</text><line style="stroke:#000000;stroke-width:1.0;" x1="728" x2="728" y1="129.9766" y2="150.4648"/><rect fill="none" height="61.4648" rx="5" ry="5" style="stroke:#000000;stroke-width:1.5;" width="196" x="624" y="89"/><rect fill="#F1F1F1" height="61.4648" rx="5" ry="5" style="stroke:#F1F1F1;stroke-width:1.5;" width="150" x="647" y="168"/><text fill="#000000" font-family="sans-serif" font-size="14" font-weight="bold" lengthAdjust="spacing" textLength="94" x="652" y="183.5352">field_value_1</text><text fill="#000000" font-family="sans-serif" font-size="14" lengthAdjust="spacing" textLength="36" x="756" y="183.5352">None</text><line style="stroke:#000000;stroke-width:1.0;" x1="751" x2="751" y1="168" y2="188.4883"/><line style="stroke:#000000;stroke-width:1.0;" x1="647" x2="797" y1="188.4883" y2="188.4883"/><text fill="#000000" font-family="sans-serif" font-size="14" font-weight="bold" lengthAdjust="spacing" textLength="74" x="652" y="204.0234">row_count</text><text fill="#000000" font-family="sans-serif" font-size="14" lengthAdjust="spacing" textLength="9" x="756" y="204.0234">2</text><line style="stroke:#000000;stroke-width:1.0;" x1="751" x2="751" y1="188.4883" y2="208.9766"/><line style="stroke:#000000;stroke-width:1.0;" x1="647" x2="797" y1="208.9766" y2="208.9766"/><text fill="#000000" font-family="sans-serif" font-size="14" font-weight="bold" lengthAdjust="spacing" textLength="94" x="652" y="224.5117">ratio_percent</text><text fill="#000000" font-family="sans-serif" font-size="14" lengthAdjust="spacing" textLength="31" x="756" y="224.5117">1.77</text><line style="stroke:#000000;stroke-width:1.0;" x1="751" x2="751" y1="208.9766" y2="229.4648"/><rect fill="none" height="61.4648" rx="5" ry="5" style="stroke:#000000;stroke-width:1.5;" width="150" x="647" y="168"/><rect fill="#F1F1F1" height="61.4648" rx="5" ry="5" style="stroke:#F1F1F1;stroke-width:1.5;" width="212" x="616" y="247"/><text fill="#000000" font-family="sans-serif" font-size="14" font-weight="bold" lengthAdjust="spacing" textLength="94" x="621" y="262.5352">field_value_1</text><text fill="#000000" font-family="sans-serif" font-size="14" lengthAdjust="spacing" textLength="98" x="725" y="262.5352">Baz Luhrmann</text><line style="stroke:#000000;stroke-width:1.0;" x1="720" x2="720" y1="247" y2="267.4883"/><line style="stroke:#000000;stroke-width:1.0;" x1="616" x2="828" y1="267.4883" y2="267.4883"/><text fill="#000000" font-family="sans-serif" font-size="14" font-weight="bold" lengthAdjust="spacing" textLength="74" x="621" y="283.0234">row_count</text><text fill="#000000" font-family="sans-serif" font-size="14" lengthAdjust="spacing" textLength="9" x="725" y="283.0234">2</text><line style="stroke:#000000;stroke-width:1.0;" x1="720" x2="720" y1="267.4883" y2="287.9766"/><line style="stroke:#000000;stroke-width:1.0;" x1="616" x2="828" y1="287.9766" y2="287.9766"/><text fill="#000000" font-family="sans-serif" font-size="14" font-weight="bold" lengthAdjust="spacing" textLength="94" x="621" y="303.5117">ratio_percent</text><text fill="#000000" font-family="sans-serif" font-size="14" lengthAdjust="spacing" textLength="31" x="725" y="303.5117">1.77</text><line style="stroke:#000000;stroke-width:1.0;" x1="720" x2="720" y1="287.9766" y2="308.4648"/><rect fill="none" height="61.4648" rx="5" ry="5" style="stroke:#000000;stroke-width:1.5;" width="212" x="616" y="247"/><rect fill="#F1F1F1" height="61.4648" rx="5" ry="5" style="stroke:#F1F1F1;stroke-width:1.5;" width="208" x="618" y="326"/><text fill="#000000" font-family="sans-serif" font-size="14" font-weight="bold" lengthAdjust="spacing" textLength="94" x="623" y="341.5352">field_value_1</text><text fill="#000000" font-family="sans-serif" font-size="14" lengthAdjust="spacing" textLength="94" x="727" y="341.5352">David Kellogg</text><line style="stroke:#000000;stroke-width:1.0;" x1="722" x2="722" y1="326" y2="346.4883"/><line style="stroke:#000000;stroke-width:1.0;" x1="618" x2="826" y1="346.4883" y2="346.4883"/><text fill="#000000" font-family="sans-serif" font-size="14" font-weight="bold" lengthAdjust="spacing" textLength="74" x="623" y="362.0234">row_count</text><text fill="#000000" font-family="sans-serif" font-size="14" lengthAdjust="spacing" textLength="9" x="727" y="362.0234">2</text><line style="stroke:#000000;stroke-width:1.0;" x1="722" x2="722" y1="346.4883" y2="366.9766"/><line style="stroke:#000000;stroke-width:1.0;" x1="618" x2="826" y1="366.9766" y2="366.9766"/><text fill="#000000" font-family="sans-serif" font-size="14" font-weight="bold" lengthAdjust="spacing" textLength="94" x="623" y="382.5117">ratio_percent</text><text fill="#000000" font-family="sans-serif" font-size="14" lengthAdjust="spacing" textLength="31" x="727" y="382.5117">1.77</text><line style="stroke:#000000;stroke-width:1.0;" x1="722" x2="722" y1="366.9766" y2="387.4648"/><rect fill="none" height="61.4648" rx="5" ry="5" style="stroke:#000000;stroke-width:1.5;" width="208" x="618" y="326"/><rect fill="#F1F1F1" height="61.4648" rx="5" ry="5" style="stroke:#F1F1F1;stroke-width:1.5;" width="500" x="472" y="405"/><text fill="#000000" font-family="sans-serif" font-size="14" font-weight="bold" lengthAdjust="spacing" textLength="94" x="477" y="420.5352">field_value_1</text><text fill="#000000" font-family="sans-serif" font-size="14" lengthAdjust="spacing" textLength="386" x="581" y="420.5352">Ellen Hovde, Albert Maysles, David Maysles, Muffie Meyer</text><line style="stroke:#000000;stroke-width:1.0;" x1="576" x2="576" y1="405" y2="425.4883"/><line style="stroke:#000000;stroke-width:1.0;" x1="472" x2="972" y1="425.4883" y2="425.4883"/><text fill="#000000" font-family="sans-serif" font-size="14" font-weight="bold" lengthAdjust="spacing" textLength="74" x="477" y="441.0234">row_count</text><text fill="#000000" font-family="sans-serif" font-size="14" lengthAdjust="spacing" textLength="9" x="581" y="441.0234">2</text><line style="stroke:#000000;stroke-width:1.0;" x1="576" x2="576" y1="425.4883" y2="445.9766"/><line style="stroke:#000000;stroke-width:1.0;" x1="472" x2="972" y1="445.9766" y2="445.9766"/><text fill="#000000" font-family="sans-serif" font-size="14" font-weight="bold" lengthAdjust="spacing" textLength="94" x="477" y="461.5117">ratio_percent</text><text fill="#000000" font-family="sans-serif" font-size="14" lengthAdjust="spacing" textLength="31" x="581" y="461.5117">1.77</text><line style="stroke:#000000;stroke-width:1.0;" x1="576" x2="576" y1="445.9766" y2="466.4648"/><rect fill="none" height="61.4648" rx="5" ry="5" style="stroke:#000000;stroke-width:1.5;" width="500" x="472" y="405"/><rect fill="#F1F1F1" height="61.4648" rx="5" ry="5" style="stroke:#F1F1F1;stroke-width:1.5;" width="231" x="606.5" y="484"/><text fill="#000000" font-family="sans-serif" font-size="14" font-weight="bold" lengthAdjust="spacing" textLength="94" x="611.5" y="499.5352">field_value_1</text><text fill="#000000" font-family="sans-serif" font-size="14" lengthAdjust="spacing" textLength="117" x="715.5" y="499.5352">Francis Lawrence</text><line style="stroke:#000000;stroke-width:1.0;" x1="710.5" x2="710.5" y1="484" y2="504.4883"/><line style="stroke:#000000;stroke-width:1.0;" x1="606.5" x2="837.5" y1="504.4883" y2="504.4883"/><text fill="#000000" font-family="sans-serif" font-size="14" font-weight="bold" lengthAdjust="spacing" textLength="74" x="611.5" y="520.0234">row_count</text><text fill="#000000" font-family="sans-serif" font-size="14" lengthAdjust="spacing" textLength="9" x="715.5" y="520.0234">2</text><line style="stroke:#000000;stroke-width:1.0;" x1="710.5" x2="710.5" y1="504.4883" y2="524.9766"/><line style="stroke:#000000;stroke-width:1.0;" x1="606.5" x2="837.5" y1="524.9766" y2="524.9766"/><text fill="#000000" font-family="sans-serif" font-size="14" font-weight="bold" lengthAdjust="spacing" textLength="94" x="611.5" y="540.5117">ratio_percent</text><text fill="#000000" font-family="sans-serif" font-size="14" lengthAdjust="spacing" textLength="31" x="715.5" y="540.5117">1.77</text><line style="stroke:#000000;stroke-width:1.0;" x1="710.5" x2="710.5" y1="524.9766" y2="545.4648"/><rect fill="none" height="61.4648" rx="5" ry="5" style="stroke:#000000;stroke-width:1.5;" width="231" x="606.5" y="484"/><rect fill="#F1F1F1" height="61.4648" rx="5" ry="5" style="stroke:#F1F1F1;stroke-width:1.5;" width="179" x="632.5" y="563"/><text fill="#000000" font-family="sans-serif" font-size="14" font-weight="bold" lengthAdjust="spacing" textLength="94" x="637.5" y="578.5352">field_value_1</text><text fill="#000000" font-family="sans-serif" font-size="14" lengthAdjust="spacing" textLength="65" x="741.5" y="578.5352">Hark Tsui</text><line style="stroke:#000000;stroke-width:1.0;" x1="736.5" x2="736.5" y1="563" y2="583.4883"/><line style="stroke:#000000;stroke-width:1.0;" x1="632.5" x2="811.5" y1="583.4883" y2="583.4883"/><text fill="#000000" font-family="sans-serif" font-size="14" font-weight="bold" lengthAdjust="spacing" textLength="74" x="637.5" y="599.0234">row_count</text><text fill="#000000" font-family="sans-serif" font-size="14" lengthAdjust="spacing" textLength="9" x="741.5" y="599.0234">2</text><line style="stroke:#000000;stroke-width:1.0;" x1="736.5" x2="736.5" y1="583.4883" y2="603.9766"/><line style="stroke:#000000;stroke-width:1.0;" x1="632.5" x2="811.5" y1="603.9766" y2="603.9766"/><text fill="#000000" font-family="sans-serif" font-size="14" font-weight="bold" lengthAdjust="spacing" textLength="94" x="637.5" y="619.5117">ratio_percent</text><text fill="#000000" font-family="sans-serif" font-size="14" lengthAdjust="spacing" textLength="31" x="741.5" y="619.5117">1.77</text><line style="stroke:#000000;stroke-width:1.0;" x1="736.5" x2="736.5" y1="603.9766" y2="624.4648"/><rect fill="none" height="61.4648" rx="5" ry="5" style="stroke:#000000;stroke-width:1.5;" width="179" x="632.5" y="563"/><rect fill="#F1F1F1" height="61.4648" rx="5" ry="5" style="stroke:#F1F1F1;stroke-width:1.5;" width="227" x="608.5" y="642"/><text fill="#000000" font-family="sans-serif" font-size="14" font-weight="bold" lengthAdjust="spacing" textLength="94" x="613.5" y="657.5352">field_value_1</text><text fill="#000000" font-family="sans-serif" font-size="14" lengthAdjust="spacing" textLength="113" x="717.5" y="657.5352">Jalmari Helander</text><line style="stroke:#000000;stroke-width:1.0;" x1="712.5" x2="712.5" y1="642" y2="662.4883"/><line style="stroke:#000000;stroke-width:1.0;" x1="608.5" x2="835.5" y1="662.4883" y2="662.4883"/><text fill="#000000" font-family="sans-serif" font-size="14" font-weight="bold" lengthAdjust="spacing" textLength="74" x="613.5" y="678.0234">row_count</text><text fill="#000000" font-family="sans-serif" font-size="14" lengthAdjust="spacing" textLength="9" x="717.5" y="678.0234">2</text><line style="stroke:#000000;stroke-width:1.0;" x1="712.5" x2="712.5" y1="662.4883" y2="682.9766"/><line style="stroke:#000000;stroke-width:1.0;" x1="608.5" x2="835.5" y1="682.9766" y2="682.9766"/><text fill="#000000" font-family="sans-serif" font-size="14" font-weight="bold" lengthAdjust="spacing" textLength="94" x="613.5" y="698.5117">ratio_percent</text><text fill="#000000" font-family="sans-serif" font-size="14" lengthAdjust="spacing" textLength="31" x="717.5" y="698.5117">1.77</text><line style="stroke:#000000;stroke-width:1.0;" x1="712.5" x2="712.5" y1="682.9766" y2="703.4648"/><rect fill="none" height="61.4648" rx="5" ry="5" style="stroke:#000000;stroke-width:1.5;" width="227" x="608.5" y="642"/><rect fill="#F1F1F1" height="61.4648" rx="5" ry="5" style="stroke:#F1F1F1;stroke-width:1.5;" width="194" x="625" y="721"/><text fill="#000000" font-family="sans-serif" font-size="14" font-weight="bold" lengthAdjust="spacing" textLength="94" x="630" y="736.5352">field_value_1</text><text fill="#000000" font-family="sans-serif" font-size="14" lengthAdjust="spacing" textLength="80" x="734" y="736.5352">Jon Favreau</text><line style="stroke:#000000;stroke-width:1.0;" x1="729" x2="729" y1="721" y2="741.4883"/><line style="stroke:#000000;stroke-width:1.0;" x1="625" x2="819" y1="741.4883" y2="741.4883"/><text fill="#000000" font-family="sans-serif" font-size="14" font-weight="bold" lengthAdjust="spacing" textLength="74" x="630" y="757.0234">row_count</text><text fill="#000000" font-family="sans-serif" font-size="14" lengthAdjust="spacing" textLength="9" x="734" y="757.0234">2</text><line style="stroke:#000000;stroke-width:1.0;" x1="729" x2="729" y1="741.4883" y2="761.9766"/><line style="stroke:#000000;stroke-width:1.0;" x1="625" x2="819" y1="761.9766" y2="761.9766"/><text fill="#000000" font-family="sans-serif" font-size="14" font-weight="bold" lengthAdjust="spacing" textLength="94" x="630" y="777.5117">ratio_percent</text><text fill="#000000" font-family="sans-serif" font-size="14" lengthAdjust="spacing" textLength="31" x="734" y="777.5117">1.77</text><line style="stroke:#000000;stroke-width:1.0;" x1="729" x2="729" y1="761.9766" y2="782.4648"/><rect fill="none" height="61.4648" rx="5" ry="5" style="stroke:#000000;stroke-width:1.5;" width="194" x="625" y="721"/><path d="M197,315.5 L210,315.5 C230.8273,315.5 227.7406,295.5187 246,285.5 C250.1394,283.2288 254.4771,281.0988 258.9224,279.1061 " fill="none" style="stroke:#000000;stroke-width:1.0;stroke-dasharray:3.0,3.0;"/><path d="M260.1301,281.9305 L261.0407,278.2004 L257.7148,276.2817 L265.9835,276.0871 L260.1301,281.9305 " fill="#000000" style="stroke:#000000;stroke-width:1.0;"/><ellipse cx="197" cy="315.5" fill="#000000" rx="3" ry="3" style="stroke:#000000;stroke-width:1.0;"/><path d="M341,303.5 L354,303.5 C391.3122,303.5 410.1906,312.4458 436,285.5 C500.2901,218.3792 405.692,144.6281 472,79.5 C514.8676,37.3951 583.3464,29.1952 637.7271,30.6651 " fill="none" style="stroke:#000000;stroke-width:1.0;stroke-dasharray:3.0,3.0;"/><path d="M637.6194,33.6954 L639.9998,30.7459 L637.8347,27.6349 L645.3027,30.9342 L637.6194,33.6954 " fill="#000000" style="stroke:#000000;stroke-width:1.0;"/><ellipse cx="341" cy="303.5" fill="#000000" rx="3" ry="3" style="stroke:#000000;stroke-width:1.0;"/><path d="M341,324.5 L354,324.5 C394.3564,324.5 409.9543,316.3264 436,285.5 C473.864,240.686 428.0797,197.3971 472,158.5 C510.9449,124.0093 567.3902,113.1133 616.7456,111.3494 " fill="none" style="stroke:#000000;stroke-width:1.0;stroke-dasharray:3.0,3.0;"/><path d="M616.8261,114.366 L619.008,111.2889 L616.665,108.3328 L624.2871,111.148 L616.8261,114.366 " fill="#000000" style="stroke:#000000;stroke-width:1.0;"/><ellipse cx="341" cy="324.5" fill="#000000" rx="3" ry="3" style="stroke:#000000;stroke-width:1.0;"/><path d="M341,344.5 L354,344.5 C398.8977,344.5 403.9398,316.9316 436,285.5 C455.0419,266.8314 449.1439,251.2372 472,237.5 C522.3072,207.2638 588.232,197.9863 639.6813,196.0155 " fill="none" style="stroke:#000000;stroke-width:1.0;stroke-dasharray:3.0,3.0;"/><path d="M639.7803,199.1374 L642.0228,195.9412 L639.5822,192.8935 L647.4862,195.7679 L639.7803,199.1374 " fill="#000000" style="stroke:#000000;stroke-width:1.0;"/><ellipse cx="341" cy="344.5" fill="#000000" rx="3" ry="3" style="stroke:#000000;stroke-width:1.0;"/><path d="M341,365.5 L354,365.5 C410.6174,365.5 417.474,332.7463 472,317.5 C516.0318,305.188 565.564,296.2711 608.8203,290.0256 " fill="none" style="stroke:#000000;stroke-width:1.0;stroke-dasharray:3.0,3.0;"/><path d="M609.2432,293.0024 L611.0529,289.7084 L608.3974,287.0488 L616.2622,288.9683 L609.2432,293.0024 " fill="#000000" style="stroke:#000000;stroke-width:1.0;"/><ellipse cx="341" cy="365.5" fill="#000000" rx="3" ry="3" style="stroke:#000000;stroke-width:1.0;"/><path d="M341,385.5 L354,385.5 C440.2962,385.5 537.6387,377.4548 610.4508,369.8394 " fill="none" style="stroke:#000000;stroke-width:1.0;stroke-dasharray:3.0,3.0;"/><path d="M610.7829,372.9833 L612.8087,369.5903 L610.1187,366.6954 L618.3106,369.009 L610.7829,372.9833 " fill="#000000" style="stroke:#000000;stroke-width:1.0;"/><ellipse cx="341" cy="385.5" fill="#000000" rx="3" ry="3" style="stroke:#000000;stroke-width:1.0;"/><path d="M341,406.5 L354,406.5 C389.7009,406.5 427.2923,407.8769 464.2553,410.0307 " fill="none" style="stroke:#000000;stroke-width:1.0;stroke-dasharray:3.0,3.0;"/><path d="M464.0668,413.1815 L466.6184,410.1721 L464.4437,406.8799 L472.1323,410.5019 L464.0668,413.1815 " fill="#000000" style="stroke:#000000;stroke-width:1.0;"/><ellipse cx="341" cy="406.5" fill="#000000" rx="3" ry="3" style="stroke:#000000;stroke-width:1.0;"/><path d="M341,427.5 L354,427.5 C410.6174,427.5 417.4443,460.3603 472,475.5 C512.8638,486.8401 558.4681,495.1785 599.3963,501.1646 " fill="none" style="stroke:#000000;stroke-width:1.0;stroke-dasharray:3.0,3.0;"/><path d="M598.96,504.1989 L601.6719,501.4918 L599.8325,498.1304 L606.9818,502.2552 L598.96,504.1989 " fill="#000000" style="stroke:#000000;stroke-width:1.0;"/><ellipse cx="341" cy="427.5" fill="#000000" rx="3" ry="3" style="stroke:#000000;stroke-width:1.0;"/><path d="M341,447.5 L354,447.5 C424.7951,447.5 408.1241,523.9744 472,554.5 C519.4986,577.1991 577.3304,587.1845 625.3519,591.3889 " fill="none" style="stroke:#000000;stroke-width:1.0;stroke-dasharray:3.0,3.0;"/><path d="M625.1014,594.4368 L627.6379,591.5768 L625.6024,588.341 L632.9717,592.0151 L625.1014,594.4368 " fill="#000000" style="stroke:#000000;stroke-width:1.0;"/><ellipse cx="341" cy="447.5" fill="#000000" rx="3" ry="3" style="stroke:#000000;stroke-width:1.0;"/><path d="M341,468.5 L354,468.5 C444.1565,468.5 395.2582,586.1831 472,633.5 C510.2763,657.1001 557.9317,668.0498 601.3065,672.6974 " fill="none" style="stroke:#000000;stroke-width:1.0;stroke-dasharray:3.0,3.0;"/><path d="M601.0087,675.6903 L603.5512,672.9208 L601.6043,669.7045 L608.7888,673.442 L601.0087,675.6903 " fill="#000000" style="stroke:#000000;stroke-width:1.0;"/><ellipse cx="341" cy="468.5" fill="#000000" rx="3" ry="3" style="stroke:#000000;stroke-width:1.0;"/><path d="M341,488.5 L354,488.5 C466.5243,488.5 380.4518,647.0732 472,712.5 C513.7298,742.3231 569.4259,753.033 617.6082,755.8707 " fill="none" style="stroke:#000000;stroke-width:1.0;stroke-dasharray:3.0,3.0;"/><path d="M617.4523,758.9368 L619.9077,755.9876 L617.764,752.8047 L625.2733,756.2603 L617.4523,758.9368 " fill="#000000" style="stroke:#000000;stroke-width:1.0;"/><ellipse cx="341" cy="488.5" fill="#000000" rx="3" ry="3" style="stroke:#000000;stroke-width:1.0;"/><path d="M197,336.5 L210,336.5 C253.8518,336.5 299.0003,364.993 322.8339,382.7089 " fill="none" style="stroke:#000000;stroke-width:1.0;stroke-dasharray:3.0,3.0;"/><path d="M320.9625,385.1642 L324.6753,384.1124 L324.7052,380.2536 L328.9721,387.3873 L320.9625,385.1642 " fill="#000000" style="stroke:#000000;stroke-width:1.0;"/><ellipse cx="197" cy="336.5" fill="#000000" rx="3" ry="3" style="stroke:#000000;stroke-width:1.0;"/><!--MD5=[cb86e2489e075640d412f2be6f73e809]
@startjson
{
    "field1": "Director",
    "combination": "Director",
    "null_distribution": {
        "total_null_rows": 2,
        "total_not_null_rows": 111
    },
    "data_distribution": [
        {
            "field_value_1": "N/A",
            "row_count": 15,
            "ratio_percent": 13.27
        },
        {
            "field_value_1": "Doug Liman",
            "row_count": 3,
            "ratio_percent": 2.65
        },
        {
            "field_value_1": "None",
            "row_count": 2,
            "ratio_percent": 1.77
        },
        {
            "field_value_1": "Baz Luhrmann",
            "row_count": 2,
            "ratio_percent": 1.77
        },
        {
            "field_value_1": "David Kellogg",
            "row_count": 2,
            "ratio_percent": 1.77
        },
        {
            "field_value_1": "Ellen Hovde, Albert Maysles, David Maysles, Muffie Meyer",
            "row_count": 2,
            "ratio_percent": 1.77
        },
        {
            "field_value_1": "Francis Lawrence",
            "row_count": 2,
            "ratio_percent": 1.77
        },
        {
            "field_value_1": "Hark Tsui",
            "row_count": 2,
            "ratio_percent": 1.77
        },
        {
            "field_value_1": "Jalmari Helander",
            "row_count": 2,
            "ratio_percent": 1.77
        },
        {
            "field_value_1": "Jon Favreau",
            "row_count": 2,
            "ratio_percent": 1.77
        }
    ]
}
@endjson

PlantUML version 1.2022.12(Sun Oct 23 14:12:26 EDT 2022)
(GPL source distribution)
Java Runtime: OpenJDK Runtime Environment
JVM: OpenJDK 64-Bit Server VM
Default Encoding: UTF-8
Language: en
Country: CA
--></g></svg>