<?xml version="1.0" encoding="UTF-8" standalone="no"?><svg xmlns="http://www.w3.org/2000/svg" xmlns:xlink="http://www.w3.org/1999/xlink" contentStyleType="text/css" height="794px" preserveAspectRatio="none" style="width:700px;height:794px;background:#FFFFFF;" version="1.1" viewBox="0 0 700 794" width="700px" zoomAndPan="magnify"><defs/><g><rect fill="#F1F1F1" height="81.9531" rx="5" ry="5" style="stroke:#F1F1F1;stroke-width:1.5;" width="230" x="10" y="264.5"/><text fill="#000000" font-family="sans-serif" font-size="14" font-weight="bold" lengthAdjust="spacing" textLength="42" x="15" y="280.0352">field1</text><text fill="#000000" font-family="sans-serif" font-size="14" lengthAdjust="spacing" textLength="86" x="149" y="280.0352">line_number</text><line style="stroke:#000000;stroke-width:1.0;" x1="144" x2="144" y1="264.5" y2="284.9883"/><line style="stroke:#000000;stroke-width:1.0;" x1="10" x2="240" y1="284.9883" y2="284.9883"/><text fill="#000000" font-family="sans-serif" font-size="14" font-weight="bold" lengthAdjust="spacing" textLength="90" x="15" y="300.5234">combination</text><text fill="#000000" font-family="sans-serif" font-size="14" lengthAdjust="spacing" textLength="86" x="149" y="300.5234">line_number</text><line style="stroke:#000000;stroke-width:1.0;" x1="144" x2="144" y1="284.9883" y2="305.4766"/><line style="stroke:#000000;stroke-width:1.0;" x1="10" x2="240" y1="305.4766" y2="305.4766"/><text fill="#000000" font-family="sans-serif" font-size="14" font-weight="bold" lengthAdjust="spacing" textLength="121" x="15" y="321.0117">null_distribution</text><text fill="#000000" font-family="sans-serif" font-size="14" lengthAdjust="spacing" textLength="12" x="149" y="321.0117">   </text><line style="stroke:#000000;stroke-width:1.0;" x1="144" x2="144" y1="305.4766" y2="325.9648"/><line style="stroke:#000000;stroke-width:1.0;" x1="10" x2="240" y1="325.9648" y2="325.9648"/><text fill="#000000" font-family="sans-serif" font-size="14" font-weight="bold" lengthAdjust="spacing" textLength="124" x="15" y="341.5">data_distribution</text><text fill="#000000" font-family="sans-serif" font-size="14" lengthAdjust="spacing" textLength="12" x="149" y="341.5">   </text><line style="stroke:#000000;stroke-width:1.0;" x1="144" x2="144" y1="325.9648" y2="346.4531"/><rect fill="none" height="81.9531" rx="5" ry="5" style="stroke:#000000;stroke-width:1.5;" width="230" x="10" y="264.5"/><rect fill="#F1F1F1" height="40.9766" rx="5" ry="5" style="stroke:#F1F1F1;stroke-width:1.5;" width="216" x="277" y="235"/><text fill="#000000" font-family="sans-serif" font-size="14" font-weight="bold" lengthAdjust="spacing" textLength="111" x="282" y="250.5352">total_null_rows</text><text fill="#000000" font-family="sans-serif" font-size="14" lengthAdjust="spacing" textLength="9" x="434" y="250.5352">0</text><line style="stroke:#000000;stroke-width:1.0;" x1="429" x2="429" y1="235" y2="255.4883"/><line style="stroke:#000000;stroke-width:1.0;" x1="277" x2="493" y1="255.4883" y2="255.4883"/><text fill="#000000" font-family="sans-serif" font-size="14" font-weight="bold" lengthAdjust="spacing" textLength="142" x="282" y="271.0234">total_not_null_rows</text><text fill="#000000" font-family="sans-serif" font-size="14" lengthAdjust="spacing" textLength="54" x="434" y="271.0234">111396</text><line style="stroke:#000000;stroke-width:1.0;" x1="429" x2="429" y1="255.4883" y2="275.9766"/><rect fill="none" height="40.9766" rx="5" ry="5" style="stroke:#000000;stroke-width:1.5;" width="216" x="277" y="235"/><rect fill="#F1F1F1" height="204.8828" rx="5" ry="5" style="stroke:#F1F1F1;stroke-width:1.5;" width="22" x="373" y="294"/><text fill="#000000" font-family="sans-serif" font-size="14" lengthAdjust="spacing" textLength="12" x="378" y="309.5352">   </text><line style="stroke:#000000;stroke-width:1.0;" x1="373" x2="395" y1="314.4883" y2="314.4883"/><text fill="#000000" font-family="sans-serif" font-size="14" lengthAdjust="spacing" textLength="12" x="378" y="330.0234">   </text><line style="stroke:#000000;stroke-width:1.0;" x1="373" x2="395" y1="334.9766" y2="334.9766"/><text fill="#000000" font-family="sans-serif" font-size="14" lengthAdjust="spacing" textLength="12" x="378" y="350.5117">   </text><line style="stroke:#000000;stroke-width:1.0;" x1="373" x2="395" y1="355.4648" y2="355.4648"/><text fill="#000000" font-family="sans-serif" font-size="14" lengthAdjust="spacing" textLength="12" x="378" y="371">   </text><line style="stroke:#000000;stroke-width:1.0;" x1="373" x2="395" y1="375.9531" y2="375.9531"/><text fill="#000000" font-family="sans-serif" font-size="14" lengthAdjust="spacing" textLength="12" x="378" y="391.4883">   </text><line style="stroke:#000000;stroke-width:1.0;" x1="373" x2="395" y1="396.4414" y2="396.4414"/><text fill="#000000" font-family="sans-serif" font-size="14" lengthAdjust="spacing" textLength="12" x="378" y="411.9766">   </text><line style="stroke:#000000;stroke-width:1.0;" x1="373" x2="395" y1="416.9297" y2="416.9297"/><text fill="#000000" font-family="sans-serif" font-size="14" lengthAdjust="spacing" textLength="12" x="378" y="432.4648">   </text><line style="stroke:#000000;stroke-width:1.0;" x1="373" x2="395" y1="437.418" y2="437.418"/><text fill="#000000" font-family="sans-serif" font-size="14" lengthAdjust="spacing" textLength="12" x="378" y="452.9531">   </text><line style="stroke:#000000;stroke-width:1.0;" x1="373" x2="395" y1="457.9063" y2="457.9063"/><text fill="#000000" font-family="sans-serif" font-size="14" lengthAdjust="spacing" textLength="12" x="378" y="473.4414">   </text><line style="stroke:#000000;stroke-width:1.0;" x1="373" x2="395" y1="478.3945" y2="478.3945"/><text fill="#000000" font-family="sans-serif" font-size="14" lengthAdjust="spacing" textLength="12" x="378" y="493.9297">   </text><rect fill="none" height="204.8828" rx="5" ry="5" style="stroke:#000000;stroke-width:1.5;" width="22" x="373" y="294"/><rect fill="#F1F1F1" height="61.4648" rx="5" ry="5" style="stroke:#F1F1F1;stroke-width:1.5;" width="150" x="534" y="10"/><text fill="#000000" font-family="sans-serif" font-size="14" font-weight="bold" lengthAdjust="spacing" textLength="94" x="539" y="25.5352">field_value_1</text><text fill="#000000" font-family="sans-serif" font-size="14" lengthAdjust="spacing" textLength="4" x="643" y="25.5352"> </text><line style="stroke:#000000;stroke-width:1.0;" x1="638" x2="638" y1="10" y2="30.4883"/><line style="stroke:#000000;stroke-width:1.0;" x1="534" x2="684" y1="30.4883" y2="30.4883"/><text fill="#000000" font-family="sans-serif" font-size="14" font-weight="bold" lengthAdjust="spacing" textLength="74" x="539" y="46.0234">row_count</text><text fill="#000000" font-family="sans-serif" font-size="14" lengthAdjust="spacing" textLength="36" x="643" y="46.0234">6243</text><line style="stroke:#000000;stroke-width:1.0;" x1="638" x2="638" y1="30.4883" y2="50.9766"/><line style="stroke:#000000;stroke-width:1.0;" x1="534" x2="684" y1="50.9766" y2="50.9766"/><text fill="#000000" font-family="sans-serif" font-size="14" font-weight="bold" lengthAdjust="spacing" textLength="94" x="539" y="66.5117">ratio_percent</text><text fill="#000000" font-family="sans-serif" font-size="14" lengthAdjust="spacing" textLength="22" x="643" y="66.5117">5.6</text><line style="stroke:#000000;stroke-width:1.0;" x1="638" x2="638" y1="50.9766" y2="71.4648"/><rect fill="none" height="61.4648" rx="5" ry="5" style="stroke:#000000;stroke-width:1.5;" width="150" x="534" y="10"/><rect fill="#F1F1F1" height="61.4648" rx="5" ry="5" style="stroke:#F1F1F1;stroke-width:1.5;" width="149" x="534.5" y="89"/><text fill="#000000" font-family="sans-serif" font-size="14" font-weight="bold" lengthAdjust="spacing" textLength="94" x="539.5" y="104.5352">field_value_1</text><text fill="#000000" font-family="sans-serif" font-size="14" lengthAdjust="spacing" textLength="35" x="643.5" y="104.5352">5.1.3</text><line style="stroke:#000000;stroke-width:1.0;" x1="638.5" x2="638.5" y1="89" y2="109.4883"/><line style="stroke:#000000;stroke-width:1.0;" x1="534.5" x2="683.5" y1="109.4883" y2="109.4883"/><text fill="#000000" font-family="sans-serif" font-size="14" font-weight="bold" lengthAdjust="spacing" textLength="74" x="539.5" y="125.0234">row_count</text><text fill="#000000" font-family="sans-serif" font-size="14" lengthAdjust="spacing" textLength="18" x="643.5" y="125.0234">37</text><line style="stroke:#000000;stroke-width:1.0;" x1="638.5" x2="638.5" y1="109.4883" y2="129.9766"/><line style="stroke:#000000;stroke-width:1.0;" x1="534.5" x2="683.5" y1="129.9766" y2="129.9766"/><text fill="#000000" font-family="sans-serif" font-size="14" font-weight="bold" lengthAdjust="spacing" textLength="94" x="539.5" y="145.5117">ratio_percent</text><text fill="#000000" font-family="sans-serif" font-size="14" lengthAdjust="spacing" textLength="31" x="643.5" y="145.5117">0.03</text><line style="stroke:#000000;stroke-width:1.0;" x1="638.5" x2="638.5" y1="129.9766" y2="150.4648"/><rect fill="none" height="61.4648" rx="5" ry="5" style="stroke:#000000;stroke-width:1.5;" width="149" x="534.5" y="89"/><rect fill="#F1F1F1" height="61.4648" rx="5" ry="5" style="stroke:#F1F1F1;stroke-width:1.5;" width="149" x="534.5" y="168"/><text fill="#000000" font-family="sans-serif" font-size="14" font-weight="bold" lengthAdjust="spacing" textLength="94" x="539.5" y="183.5352">field_value_1</text><text fill="#000000" font-family="sans-serif" font-size="14" lengthAdjust="spacing" textLength="35" x="643.5" y="183.5352">1.1.1</text><line style="stroke:#000000;stroke-width:1.0;" x1="638.5" x2="638.5" y1="168" y2="188.4883"/><line style="stroke:#000000;stroke-width:1.0;" x1="534.5" x2="683.5" y1="188.4883" y2="188.4883"/><text fill="#000000" font-family="sans-serif" font-size="14" font-weight="bold" lengthAdjust="spacing" textLength="74" x="539.5" y="204.0234">row_count</text><text fill="#000000" font-family="sans-serif" font-size="14" lengthAdjust="spacing" textLength="18" x="643.5" y="204.0234">36</text><line style="stroke:#000000;stroke-width:1.0;" x1="638.5" x2="638.5" y1="188.4883" y2="208.9766"/><line style="stroke:#000000;stroke-width:1.0;" x1="534.5" x2="683.5" y1="208.9766" y2="208.9766"/><text fill="#000000" font-family="sans-serif" font-size="14" font-weight="bold" lengthAdjust="spacing" textLength="94" x="539.5" y="224.5117">ratio_percent</text><text fill="#000000" font-family="sans-serif" font-size="14" lengthAdjust="spacing" textLength="31" x="643.5" y="224.5117">0.03</text><line style="stroke:#000000;stroke-width:1.0;" x1="638.5" x2="638.5" y1="208.9766" y2="229.4648"/><rect fill="none" height="61.4648" rx="5" ry="5" style="stroke:#000000;stroke-width:1.5;" width="149" x="534.5" y="168"/><rect fill="#F1F1F1" height="61.4648" rx="5" ry="5" style="stroke:#F1F1F1;stroke-width:1.5;" width="158" x="530" y="247"/><text fill="#000000" font-family="sans-serif" font-size="14" font-weight="bold" lengthAdjust="spacing" textLength="94" x="535" y="262.5352">field_value_1</text><text fill="#000000" font-family="sans-serif" font-size="14" lengthAdjust="spacing" textLength="44" x="639" y="262.5352">1.1.10</text><line style="stroke:#000000;stroke-width:1.0;" x1="634" x2="634" y1="247" y2="267.4883"/><line style="stroke:#000000;stroke-width:1.0;" x1="530" x2="688" y1="267.4883" y2="267.4883"/><text fill="#000000" font-family="sans-serif" font-size="14" font-weight="bold" lengthAdjust="spacing" textLength="74" x="535" y="283.0234">row_count</text><text fill="#000000" font-family="sans-serif" font-size="14" lengthAdjust="spacing" textLength="18" x="639" y="283.0234">36</text><line style="stroke:#000000;stroke-width:1.0;" x1="634" x2="634" y1="267.4883" y2="287.9766"/><line style="stroke:#000000;stroke-width:1.0;" x1="530" x2="688" y1="287.9766" y2="287.9766"/><text fill="#000000" font-family="sans-serif" font-size="14" font-weight="bold" lengthAdjust="spacing" textLength="94" x="535" y="303.5117">ratio_percent</text><text fill="#000000" font-family="sans-serif" font-size="14" lengthAdjust="spacing" textLength="31" x="639" y="303.5117">0.03</text><line style="stroke:#000000;stroke-width:1.0;" x1="634" x2="634" y1="287.9766" y2="308.4648"/><rect fill="none" height="61.4648" rx="5" ry="5" style="stroke:#000000;stroke-width:1.5;" width="158" x="530" y="247"/><rect fill="#F1F1F1" height="61.4648" rx="5" ry="5" style="stroke:#F1F1F1;stroke-width:1.5;" width="158" x="530" y="326"/><text fill="#000000" font-family="sans-serif" font-size="14" font-weight="bold" lengthAdjust="spacing" textLength="94" x="535" y="341.5352">field_value_1</text><text fill="#000000" font-family="sans-serif" font-size="14" lengthAdjust="spacing" textLength="44" x="639" y="341.5352">1.1.11</text><line style="stroke:#000000;stroke-width:1.0;" x1="634" x2="634" y1="326" y2="346.4883"/><line style="stroke:#000000;stroke-width:1.0;" x1="530" x2="688" y1="346.4883" y2="346.4883"/><text fill="#000000" font-family="sans-serif" font-size="14" font-weight="bold" lengthAdjust="spacing" textLength="74" x="535" y="362.0234">row_count</text><text fill="#000000" font-family="sans-serif" font-size="14" lengthAdjust="spacing" textLength="18" x="639" y="362.0234">36</text><line style="stroke:#000000;stroke-width:1.0;" x1="634" x2="634" y1="346.4883" y2="366.9766"/><line style="stroke:#000000;stroke-width:1.0;" x1="530" x2="688" y1="366.9766" y2="366.9766"/><text fill="#000000" font-family="sans-serif" font-size="14" font-weight="bold" lengthAdjust="spacing" textLength="94" x="535" y="382.5117">ratio_percent</text><text fill="#000000" font-family="sans-serif" font-size="14" lengthAdjust="spacing" textLength="31" x="639" y="382.5117">0.03</text><line style="stroke:#000000;stroke-width:1.0;" x1="634" x2="634" y1="366.9766" y2="387.4648"/><rect fill="none" height="61.4648" rx="5" ry="5" style="stroke:#000000;stroke-width:1.5;" width="158" x="530" y="326"/><rect fill="#F1F1F1" height="61.4648" rx="5" ry="5" style="stroke:#F1F1F1;stroke-width:1.5;" width="158" x="530" y="405"/><text fill="#000000" font-family="sans-serif" font-size="14" font-weight="bold" lengthAdjust="spacing" textLength="94" x="535" y="420.5352">field_value_1</text><text fill="#000000" font-family="sans-serif" font-size="14" lengthAdjust="spacing" textLength="44" x="639" y="420.5352">1.1.12</text><line style="stroke:#000000;stroke-width:1.0;" x1="634" x2="634" y1="405" y2="425.4883"/><line style="stroke:#000000;stroke-width:1.0;" x1="530" x2="688" y1="425.4883" y2="425.4883"/><text fill="#000000" font-family="sans-serif" font-size="14" font-weight="bold" lengthAdjust="spacing" textLength="74" x="535" y="441.0234">row_count</text><text fill="#000000" font-family="sans-serif" font-size="14" lengthAdjust="spacing" textLength="18" x="639" y="441.0234">36</text><line style="stroke:#000000;stroke-width:1.0;" x1="634" x2="634" y1="425.4883" y2="445.9766"/><line style="stroke:#000000;stroke-width:1.0;" x1="530" x2="688" y1="445.9766" y2="445.9766"/><text fill="#000000" font-family="sans-serif" font-size="14" font-weight="bold" lengthAdjust="spacing" textLength="94" x="535" y="461.5117">ratio_percent</text><text fill="#000000" font-family="sans-serif" font-size="14" lengthAdjust="spacing" textLength="31" x="639" y="461.5117">0.03</text><line style="stroke:#000000;stroke-width:1.0;" x1="634" x2="634" y1="445.9766" y2="466.4648"/><rect fill="none" height="61.4648" rx="5" ry="5" style="stroke:#000000;stroke-width:1.5;" width="158" x="530" y="405"/><rect fill="#F1F1F1" height="61.4648" rx="5" ry="5" style="stroke:#F1F1F1;stroke-width:1.5;" width="158" x="530" y="484"/><text fill="#000000" font-family="sans-serif" font-size="14" font-weight="bold" lengthAdjust="spacing" textLength="94" x="535" y="499.5352">field_value_1</text><text fill="#000000" font-family="sans-serif" font-size="14" lengthAdjust="spacing" textLength="44" x="639" y="499.5352">1.1.13</text><line style="stroke:#000000;stroke-width:1.0;" x1="634" x2="634" y1="484" y2="504.4883"/><line style="stroke:#000000;stroke-width:1.0;" x1="530" x2="688" y1="504.4883" y2="504.4883"/><text fill="#000000" font-family="sans-serif" font-size="14" font-weight="bold" lengthAdjust="spacing" textLength="74" x="535" y="520.0234">row_count</text><text fill="#000000" font-family="sans-serif" font-size="14" lengthAdjust="spacing" textLength="18" x="639" y="520.0234">36</text><line style="stroke:#000000;stroke-width:1.0;" x1="634" x2="634" y1="504.4883" y2="524.9766"/><line style="stroke:#000000;stroke-width:1.0;" x1="530" x2="688" y1="524.9766" y2="524.9766"/><text fill="#000000" font-family="sans-serif" font-size="14" font-weight="bold" lengthAdjust="spacing" textLength="94" x="535" y="540.5117">ratio_percent</text><text fill="#000000" font-family="sans-serif" font-size="14" lengthAdjust="spacing" textLength="31" x="639" y="540.5117">0.03</text><line style="stroke:#000000;stroke-width:1.0;" x1="634" x2="634" y1="524.9766" y2="545.4648"/><rect fill="none" height="61.4648" rx="5" ry="5" style="stroke:#000000;stroke-width:1.5;" width="158" x="530" y="484"/><rect fill="#F1F1F1" height="61.4648" rx="5" ry="5" style="stroke:#F1F1F1;stroke-width:1.5;" width="149" x="534.5" y="563"/><text fill="#000000" font-family="sans-serif" font-size="14" font-weight="bold" lengthAdjust="spacing" textLength="94" x="539.5" y="578.5352">field_value_1</text><text fill="#000000" font-family="sans-serif" font-size="14" lengthAdjust="spacing" textLength="35" x="643.5" y="578.5352">1.1.2</text><line style="stroke:#000000;stroke-width:1.0;" x1="638.5" x2="638.5" y1="563" y2="583.4883"/><line style="stroke:#000000;stroke-width:1.0;" x1="534.5" x2="683.5" y1="583.4883" y2="583.4883"/><text fill="#000000" font-family="sans-serif" font-size="14" font-weight="bold" lengthAdjust="spacing" textLength="74" x="539.5" y="599.0234">row_count</text><text fill="#000000" font-family="sans-serif" font-size="14" lengthAdjust="spacing" textLength="18" x="643.5" y="599.0234">36</text><line style="stroke:#000000;stroke-width:1.0;" x1="638.5" x2="638.5" y1="583.4883" y2="603.9766"/><line style="stroke:#000000;stroke-width:1.0;" x1="534.5" x2="683.5" y1="603.9766" y2="603.9766"/><text fill="#000000" font-family="sans-serif" font-size="14" font-weight="bold" lengthAdjust="spacing" textLength="94" x="539.5" y="619.5117">ratio_percent</text><text fill="#000000" font-family="sans-serif" font-size="14" lengthAdjust="spacing" textLength="31" x="643.5" y="619.5117">0.03</text><line style="stroke:#000000;stroke-width:1.0;" x1="638.5" x2="638.5" y1="603.9766" y2="624.4648"/><rect fill="none" height="61.4648" rx="5" ry="5" style="stroke:#000000;stroke-width:1.5;" width="149" x="534.5" y="563"/><rect fill="#F1F1F1" height="61.4648" rx="5" ry="5" style="stroke:#F1F1F1;stroke-width:1.5;" width="149" x="534.5" y="642"/><text fill="#000000" font-family="sans-serif" font-size="14" font-weight="bold" lengthAdjust="spacing" textLength="94" x="539.5" y="657.5352">field_value_1</text><text fill="#000000" font-family="sans-serif" font-size="14" lengthAdjust="spacing" textLength="35" x="643.5" y="657.5352">1.1.3</text><line style="stroke:#000000;stroke-width:1.0;" x1="638.5" x2="638.5" y1="642" y2="662.4883"/><line style="stroke:#000000;stroke-width:1.0;" x1="534.5" x2="683.5" y1="662.4883" y2="662.4883"/><text fill="#000000" font-family="sans-serif" font-size="14" font-weight="bold" lengthAdjust="spacing" textLength="74" x="539.5" y="678.0234">row_count</text><text fill="#000000" font-family="sans-serif" font-size="14" lengthAdjust="spacing" textLength="18" x="643.5" y="678.0234">36</text><line style="stroke:#000000;stroke-width:1.0;" x1="638.5" x2="638.5" y1="662.4883" y2="682.9766"/><line style="stroke:#000000;stroke-width:1.0;" x1="534.5" x2="683.5" y1="682.9766" y2="682.9766"/><text fill="#000000" font-family="sans-serif" font-size="14" font-weight="bold" lengthAdjust="spacing" textLength="94" x="539.5" y="698.5117">ratio_percent</text><text fill="#000000" font-family="sans-serif" font-size="14" lengthAdjust="spacing" textLength="31" x="643.5" y="698.5117">0.03</text><line style="stroke:#000000;stroke-width:1.0;" x1="638.5" x2="638.5" y1="682.9766" y2="703.4648"/><rect fill="none" height="61.4648" rx="5" ry="5" style="stroke:#000000;stroke-width:1.5;" width="149" x="534.5" y="642"/><rect fill="#F1F1F1" height="61.4648" rx="5" ry="5" style="stroke:#F1F1F1;stroke-width:1.5;" width="149" x="534.5" y="721"/><text fill="#000000" font-family="sans-serif" font-size="14" font-weight="bold" lengthAdjust="spacing" textLength="94" x="539.5" y="736.5352">field_value_1</text><text fill="#000000" font-family="sans-serif" font-size="14" lengthAdjust="spacing" textLength="35" x="643.5" y="736.5352">1.1.4</text><line style="stroke:#000000;stroke-width:1.0;" x1="638.5" x2="638.5" y1="721" y2="741.4883"/><line style="stroke:#000000;stroke-width:1.0;" x1="534.5" x2="683.5" y1="741.4883" y2="741.4883"/><text fill="#000000" font-family="sans-serif" font-size="14" font-weight="bold" lengthAdjust="spacing" textLength="74" x="539.5" y="757.0234">row_count</text><text fill="#000000" font-family="sans-serif" font-size="14" lengthAdjust="spacing" textLength="18" x="643.5" y="757.0234">36</text><line style="stroke:#000000;stroke-width:1.0;" x1="638.5" x2="638.5" y1="741.4883" y2="761.9766"/><line style="stroke:#000000;stroke-width:1.0;" x1="534.5" x2="683.5" y1="761.9766" y2="761.9766"/><text fill="#000000" font-family="sans-serif" font-size="14" font-weight="bold" lengthAdjust="spacing" textLength="94" x="539.5" y="777.5117">ratio_percent</text><text fill="#000000" font-family="sans-serif" font-size="14" lengthAdjust="spacing" textLength="31" x="643.5" y="777.5117">0.03</text><line style="stroke:#000000;stroke-width:1.0;" x1="638.5" x2="638.5" y1="761.9766" y2="782.4648"/><rect fill="none" height="61.4648" rx="5" ry="5" style="stroke:#000000;stroke-width:1.5;" width="149" x="534.5" y="721"/><path d="M228,315.5 L241,315.5 C261.8273,315.5 258.5595,295.1812 277,285.5 C281.4954,283.14 286.1967,280.9488 291.0148,278.9165 " fill="none" style="stroke:#000000;stroke-width:1.0;stroke-dasharray:3.0,3.0;"/><path d="M292.1607,281.7694 L293.1544,278.0571 L289.8689,276.0637 L298.147,276.0517 L292.1607,281.7694 " fill="#000000" style="stroke:#000000;stroke-width:1.0;"/><ellipse cx="228" cy="315.5" fill="#000000" rx="3" ry="3" style="stroke:#000000;stroke-width:1.0;"/><path d="M385.5,303.5 L398.5,303.5 C441.6918,303.5 463.6623,316.2434 494,285.5 C559.2827,219.3442 474.3938,153.974 530,79.5 C530.7824,78.4521 531.6008,77.4306 532.4518,76.4349 " fill="none" style="stroke:#000000;stroke-width:1.0;stroke-dasharray:3.0,3.0;"/><path d="M534.6215,78.518 L534.0141,74.8076 L530.282,74.3518 L537.6595,71.0105 L534.6215,78.518 " fill="#000000" style="stroke:#000000;stroke-width:1.0;"/><ellipse cx="385.5" cy="303.5" fill="#000000" rx="3" ry="3" style="stroke:#000000;stroke-width:1.0;"/><path d="M385.5,324.5 L398.5,324.5 C444.3473,324.5 463.4377,319.6748 494,285.5 C533.109,241.7683 492.5217,203.637 530,158.5 C530.8688,157.4536 531.7727,156.4327 532.7081,155.4369 " fill="none" style="stroke:#000000;stroke-width:1.0;stroke-dasharray:3.0,3.0;"/><path d="M534.8814,157.7078 L534.4112,153.8069 L530.5347,153.166 L538.3853,150.0035 L534.8814,157.7078 " fill="#000000" style="stroke:#000000;stroke-width:1.0;"/><ellipse cx="385.5" cy="324.5" fill="#000000" rx="3" ry="3" style="stroke:#000000;stroke-width:1.0;"/><path d="M385.5,344.5 L398.5,344.5 C448.3912,344.5 457.1687,319.154 494,285.5 C513.6862,267.5121 509.5048,254.5605 530,237.5 C531.5351,236.2222 533.1191,234.9729 534.743,233.7525 " fill="none" style="stroke:#000000;stroke-width:1.0;stroke-dasharray:3.0,3.0;"/><path d="M536.5681,236.3294 L536.6757,232.3837 L532.918,231.1756 L541.1852,229.1899 L536.5681,236.3294 " fill="#000000" style="stroke:#000000;stroke-width:1.0;"/><ellipse cx="385.5" cy="344.5" fill="#000000" rx="3" ry="3" style="stroke:#000000;stroke-width:1.0;"/><path d="M385.5,365.5 L398.5,365.5 C413.1422,365.5 481.1785,336.023 535.8992,311.1894 " fill="none" style="stroke:#000000;stroke-width:1.0;stroke-dasharray:3.0,3.0;"/><path d="M537.1625,313.9666 L537.9821,310.2419 L534.6359,308.4122 L542.8421,308.0312 L537.1625,313.9666 " fill="#000000" style="stroke:#000000;stroke-width:1.0;"/><ellipse cx="385.5" cy="365.5" fill="#000000" rx="3" ry="3" style="stroke:#000000;stroke-width:1.0;"/><path d="M385.5,385.5 L398.5,385.5 C439.5598,385.5 484.7145,379.9925 522.5973,373.7777 " fill="none" style="stroke:#000000;stroke-width:1.0;stroke-dasharray:3.0,3.0;"/><path d="M523.0977,376.7682 L524.8402,373.4024 L522.0969,370.7872 L530.0735,372.5268 L523.0977,376.7682 " fill="#000000" style="stroke:#000000;stroke-width:1.0;"/><ellipse cx="385.5" cy="385.5" fill="#000000" rx="3" ry="3" style="stroke:#000000;stroke-width:1.0;"/><path d="M385.5,406.5 L398.5,406.5 C439.5598,406.5 484.7145,412.0075 522.5973,418.2223 " fill="none" style="stroke:#000000;stroke-width:1.0;stroke-dasharray:3.0,3.0;"/><path d="M522.0969,421.2128 L524.8402,418.5976 L523.0977,415.2318 L530.0735,419.4732 L522.0969,421.2128 " fill="#000000" style="stroke:#000000;stroke-width:1.0;"/><ellipse cx="385.5" cy="406.5" fill="#000000" rx="3" ry="3" style="stroke:#000000;stroke-width:1.0;"/><path d="M385.5,427.5 L398.5,427.5 C413.0465,427.5 480.4983,456.3598 535.0881,480.8356 " fill="none" style="stroke:#000000;stroke-width:1.0;stroke-dasharray:3.0,3.0;"/><path d="M533.8426,483.607 L537.1667,481.7697 L536.3337,478.0641 L542.0168,483.9494 L533.8426,483.607 " fill="#000000" style="stroke:#000000;stroke-width:1.0;"/><ellipse cx="385.5" cy="427.5" fill="#000000" rx="3" ry="3" style="stroke:#000000;stroke-width:1.0;"/><path d="M385.5,447.5 L398.5,447.5 C473.8478,447.5 466.6487,513.7091 530,554.5 C532.379,556.0318 534.8266,557.5469 537.3202,559.0395 " fill="none" style="stroke:#000000;stroke-width:1.0;stroke-dasharray:3.0,3.0;"/><path d="M535.7623,561.7166 L539.328,560.208 L538.8781,556.3624 L544.0129,562.9343 L535.7623,561.7166 " fill="#000000" style="stroke:#000000;stroke-width:1.0;"/><ellipse cx="385.5" cy="447.5" fill="#000000" rx="3" ry="3" style="stroke:#000000;stroke-width:1.0;"/><path d="M385.5,468.5 L398.5,468.5 C492.2738,468.5 457.0546,574.572 530,633.5 C531.7202,634.8896 533.498,636.2471 535.3213,637.5717 " fill="none" style="stroke:#000000;stroke-width:1.0;stroke-dasharray:3.0,3.0;"/><path d="M533.5711,640.1147 L537.2286,638.8843 L537.0715,635.0287 L541.6787,641.9472 L533.5711,640.1147 " fill="#000000" style="stroke:#000000;stroke-width:1.0;"/><ellipse cx="385.5" cy="468.5" fill="#000000" rx="3" ry="3" style="stroke:#000000;stroke-width:1.0;"/><path d="M385.5,488.5 L398.5,488.5 C513.9429,488.5 445.5729,633.7654 530,712.5 C531.412,713.8168 532.8769,715.0989 534.3859,716.3465 " fill="none" style="stroke:#000000;stroke-width:1.0;stroke-dasharray:3.0,3.0;"/><path d="M532.5294,718.7548 L536.1922,717.7388 L536.2424,713.9381 L540.4069,720.9877 L532.5294,718.7548 " fill="#000000" style="stroke:#000000;stroke-width:1.0;"/><ellipse cx="385.5" cy="488.5" fill="#000000" rx="3" ry="3" style="stroke:#000000;stroke-width:1.0;"/><path d="M228,336.5 L241,336.5 C289.5847,336.5 340.7595,366.1373 366.8849,383.7526 " fill="none" style="stroke:#000000;stroke-width:1.0;stroke-dasharray:3.0,3.0;"/><path d="M365.123,386.3062 L368.8001,385.074 L368.6468,381.199 L373.2689,388.1573 L365.123,386.3062 " fill="#000000" style="stroke:#000000;stroke-width:1.0;"/><ellipse cx="228" cy="336.5" fill="#000000" rx="3" ry="3" style="stroke:#000000;stroke-width:1.0;"/><!--MD5=[cabfd9705b135caccbad083bbe4bfb54]
@startjson
{
    "field1": "line_number",
    "combination": "line_number",
    "null_distribution": {
        "total_null_rows": 0,
        "total_not_null_rows": 111396
    },
    "data_distribution": [
        {
            "field_value_1": "",
            "row_count": 6243,
            "ratio_percent": 5.6
        },
        {
            "field_value_1": "5.1.3",
            "row_count": 37,
            "ratio_percent": 0.03
        },
        {
            "field_value_1": "1.1.1",
            "row_count": 36,
            "ratio_percent": 0.03
        },
        {
            "field_value_1": "1.1.10",
            "row_count": 36,
            "ratio_percent": 0.03
        },
        {
            "field_value_1": "1.1.11",
            "row_count": 36,
            "ratio_percent": 0.03
        },
        {
            "field_value_1": "1.1.12",
            "row_count": 36,
            "ratio_percent": 0.03
        },
        {
            "field_value_1": "1.1.13",
            "row_count": 36,
            "ratio_percent": 0.03
        },
        {
            "field_value_1": "1.1.2",
            "row_count": 36,
            "ratio_percent": 0.03
        },
        {
            "field_value_1": "1.1.3",
            "row_count": 36,
            "ratio_percent": 0.03
        },
        {
            "field_value_1": "1.1.4",
            "row_count": 36,
            "ratio_percent": 0.03
        }
    ]
}
@endjson

PlantUML version 1.2022.12(Sun Oct 23 14:12:26 EDT 2022)
(GPL source distribution)
Java Runtime: OpenJDK Runtime Environment
JVM: OpenJDK 64-Bit Server VM
Default Encoding: UTF-8
Language: en
Country: CA
--></g></svg>