<?xml version="1.0" encoding="UTF-8" standalone="no"?><svg xmlns="http://www.w3.org/2000/svg" xmlns:xlink="http://www.w3.org/1999/xlink" contentStyleType="text/css" height="809px" preserveAspectRatio="none" style="width:515px;height:809px;background:#FFFFFF;" version="1.1" viewBox="0 0 515 809" width="515px" zoomAndPan="magnify"><defs/><g><rect fill="#F1F1F1" height="102.4414" rx="5" ry="5" style="stroke:#F1F1F1;stroke-width:1.5;" width="22" x="10" y="353.5"/><text fill="#000000" font-family="sans-serif" font-size="14" lengthAdjust="spacing" textLength="12" x="15" y="369.0352">   </text><line style="stroke:#000000;stroke-width:1.0;" x1="10" x2="32" y1="373.9883" y2="373.9883"/><text fill="#000000" font-family="sans-serif" font-size="14" lengthAdjust="spacing" textLength="12" x="15" y="389.5234">   </text><line style="stroke:#000000;stroke-width:1.0;" x1="10" x2="32" y1="394.4766" y2="394.4766"/><text fill="#000000" font-family="sans-serif" font-size="14" lengthAdjust="spacing" textLength="12" x="15" y="410.0117">   </text><line style="stroke:#000000;stroke-width:1.0;" x1="10" x2="32" y1="414.9648" y2="414.9648"/><text fill="#000000" font-family="sans-serif" font-size="14" lengthAdjust="spacing" textLength="12" x="15" y="430.5">   </text><line style="stroke:#000000;stroke-width:1.0;" x1="10" x2="32" y1="435.4531" y2="435.4531"/><text fill="#000000" font-family="sans-serif" font-size="14" lengthAdjust="spacing" textLength="12" x="15" y="450.9883">   </text><rect fill="none" height="102.4414" rx="5" ry="5" style="stroke:#000000;stroke-width:1.5;" width="22" x="10" y="353.5"/><rect fill="#F1F1F1" height="143.418" rx="5" ry="5" style="stroke:#F1F1F1;stroke-width:1.5;" width="432" x="71" y="10"/><text fill="#000000" font-family="sans-serif" font-size="14" font-weight="bold" lengthAdjust="spacing" textLength="96" x="76" y="25.5352">CONTACT_ID</text><text fill="#000000" font-family="sans-serif" font-size="14" lengthAdjust="spacing" textLength="27" x="240" y="25.5352">159</text><line style="stroke:#000000;stroke-width:1.0;" x1="235" x2="235" y1="10" y2="30.4883"/><line style="stroke:#000000;stroke-width:1.0;" x1="71" x2="503" y1="30.4883" y2="30.4883"/><text fill="#000000" font-family="sans-serif" font-size="14" font-weight="bold" lengthAdjust="spacing" textLength="90" x="76" y="46.0234">FIRST_NAME</text><text fill="#000000" font-family="sans-serif" font-size="14" lengthAdjust="spacing" textLength="49" x="240" y="46.0234">Amado</text><line style="stroke:#000000;stroke-width:1.0;" x1="235" x2="235" y1="30.4883" y2="50.9766"/><line style="stroke:#000000;stroke-width:1.0;" x1="71" x2="503" y1="50.9766" y2="50.9766"/><text fill="#000000" font-family="sans-serif" font-size="14" font-weight="bold" lengthAdjust="spacing" textLength="85" x="76" y="66.5117">LAST_NAME</text><text fill="#000000" font-family="sans-serif" font-size="14" lengthAdjust="spacing" textLength="61" x="240" y="66.5117">Jefferson</text><line style="stroke:#000000;stroke-width:1.0;" x1="235" x2="235" y1="50.9766" y2="71.4648"/><line style="stroke:#000000;stroke-width:1.0;" x1="71" x2="503" y1="71.4648" y2="71.4648"/><text fill="#000000" font-family="sans-serif" font-size="14" font-weight="bold" lengthAdjust="spacing" textLength="44" x="76" y="87">EMAIL</text><text fill="#000000" font-family="sans-serif" font-size="14" lengthAdjust="spacing" textLength="258" x="240" y="87">amado.jefferson@energytransfer.com</text><line style="stroke:#000000;stroke-width:1.0;" x1="235" x2="235" y1="71.4648" y2="91.9531"/><line style="stroke:#000000;stroke-width:1.0;" x1="71" x2="503" y1="91.9531" y2="91.9531"/><text fill="#000000" font-family="sans-serif" font-size="14" font-weight="bold" lengthAdjust="spacing" textLength="51" x="76" y="107.4883">PHONE</text><text fill="#000000" font-family="sans-serif" font-size="14" lengthAdjust="spacing" textLength="122" x="240" y="107.4883">+1 612 123 4407</text><line style="stroke:#000000;stroke-width:1.0;" x1="235" x2="235" y1="91.9531" y2="112.4414"/><line style="stroke:#000000;stroke-width:1.0;" x1="71" x2="503" y1="112.4414" y2="112.4414"/><text fill="#000000" font-family="sans-serif" font-size="14" font-weight="bold" lengthAdjust="spacing" textLength="104" x="76" y="127.9766">CUSTOMER_ID</text><text fill="#000000" font-family="sans-serif" font-size="14" lengthAdjust="spacing" textLength="27" x="240" y="127.9766">159</text><line style="stroke:#000000;stroke-width:1.0;" x1="235" x2="235" y1="112.4414" y2="132.9297"/><line style="stroke:#000000;stroke-width:1.0;" x1="71" x2="503" y1="132.9297" y2="132.9297"/><text fill="#000000" font-family="sans-serif" font-size="14" font-weight="bold" lengthAdjust="spacing" textLength="154" x="76" y="148.4648">SYS_EXEC_DURATION</text><text fill="#000000" font-family="sans-serif" font-size="14" lengthAdjust="spacing" textLength="67" x="240" y="148.4648">0.281335</text><line style="stroke:#000000;stroke-width:1.0;" x1="235" x2="235" y1="132.9297" y2="153.418"/><rect fill="none" height="143.418" rx="5" ry="5" style="stroke:#000000;stroke-width:1.5;" width="432" x="71" y="10"/><rect fill="#F1F1F1" height="143.418" rx="5" ry="5" style="stroke:#F1F1F1;stroke-width:1.5;" width="320" x="127" y="171"/><text fill="#000000" font-family="sans-serif" font-size="14" font-weight="bold" lengthAdjust="spacing" textLength="96" x="132" y="186.5352">CONTACT_ID</text><text fill="#000000" font-family="sans-serif" font-size="14" lengthAdjust="spacing" textLength="27" x="296" y="186.5352">241</text><line style="stroke:#000000;stroke-width:1.0;" x1="291" x2="291" y1="171" y2="191.4883"/><line style="stroke:#000000;stroke-width:1.0;" x1="127" x2="447" y1="191.4883" y2="191.4883"/><text fill="#000000" font-family="sans-serif" font-size="14" font-weight="bold" lengthAdjust="spacing" textLength="90" x="132" y="207.0234">FIRST_NAME</text><text fill="#000000" font-family="sans-serif" font-size="14" lengthAdjust="spacing" textLength="43" x="296" y="207.0234">Johnie</text><line style="stroke:#000000;stroke-width:1.0;" x1="291" x2="291" y1="191.4883" y2="211.9766"/><line style="stroke:#000000;stroke-width:1.0;" x1="127" x2="447" y1="211.9766" y2="211.9766"/><text fill="#000000" font-family="sans-serif" font-size="14" font-weight="bold" lengthAdjust="spacing" textLength="85" x="132" y="227.5117">LAST_NAME</text><text fill="#000000" font-family="sans-serif" font-size="14" lengthAdjust="spacing" textLength="37" x="296" y="227.5117">Rojas</text><line style="stroke:#000000;stroke-width:1.0;" x1="291" x2="291" y1="211.9766" y2="232.4648"/><line style="stroke:#000000;stroke-width:1.0;" x1="127" x2="447" y1="232.4648" y2="232.4648"/><text fill="#000000" font-family="sans-serif" font-size="14" font-weight="bold" lengthAdjust="spacing" textLength="44" x="132" y="248">EMAIL</text><text fill="#000000" font-family="sans-serif" font-size="14" lengthAdjust="spacing" textLength="146" x="296" y="248">johnie.rojas@itw.com</text><line style="stroke:#000000;stroke-width:1.0;" x1="291" x2="291" y1="232.4648" y2="252.9531"/><line style="stroke:#000000;stroke-width:1.0;" x1="127" x2="447" y1="252.9531" y2="252.9531"/><text fill="#000000" font-family="sans-serif" font-size="14" font-weight="bold" lengthAdjust="spacing" textLength="51" x="132" y="268.4883">PHONE</text><text fill="#000000" font-family="sans-serif" font-size="14" lengthAdjust="spacing" textLength="122" x="296" y="268.4883">+91 80 012 4887</text><line style="stroke:#000000;stroke-width:1.0;" x1="291" x2="291" y1="252.9531" y2="273.4414"/><line style="stroke:#000000;stroke-width:1.0;" x1="127" x2="447" y1="273.4414" y2="273.4414"/><text fill="#000000" font-family="sans-serif" font-size="14" font-weight="bold" lengthAdjust="spacing" textLength="104" x="132" y="288.9766">CUSTOMER_ID</text><text fill="#000000" font-family="sans-serif" font-size="14" lengthAdjust="spacing" textLength="27" x="296" y="288.9766">241</text><line style="stroke:#000000;stroke-width:1.0;" x1="291" x2="291" y1="273.4414" y2="293.9297"/><line style="stroke:#000000;stroke-width:1.0;" x1="127" x2="447" y1="293.9297" y2="293.9297"/><text fill="#000000" font-family="sans-serif" font-size="14" font-weight="bold" lengthAdjust="spacing" textLength="154" x="132" y="309.4648">SYS_EXEC_DURATION</text><text fill="#000000" font-family="sans-serif" font-size="14" lengthAdjust="spacing" textLength="67" x="296" y="309.4648">0.281622</text><line style="stroke:#000000;stroke-width:1.0;" x1="291" x2="291" y1="293.9297" y2="314.418"/><rect fill="none" height="143.418" rx="5" ry="5" style="stroke:#000000;stroke-width:1.5;" width="320" x="127" y="171"/><rect fill="#F1F1F1" height="143.418" rx="5" ry="5" style="stroke:#F1F1F1;stroke-width:1.5;" width="366" x="104" y="332"/><text fill="#000000" font-family="sans-serif" font-size="14" font-weight="bold" lengthAdjust="spacing" textLength="96" x="109" y="347.5352">CONTACT_ID</text><text fill="#000000" font-family="sans-serif" font-size="14" lengthAdjust="spacing" textLength="27" x="273" y="347.5352">248</text><line style="stroke:#000000;stroke-width:1.0;" x1="268" x2="268" y1="332" y2="352.4883"/><line style="stroke:#000000;stroke-width:1.0;" x1="104" x2="470" y1="352.4883" y2="352.4883"/><text fill="#000000" font-family="sans-serif" font-size="14" font-weight="bold" lengthAdjust="spacing" textLength="90" x="109" y="368.0234">FIRST_NAME</text><text fill="#000000" font-family="sans-serif" font-size="14" lengthAdjust="spacing" textLength="20" x="273" y="368.0234">Bill</text><line style="stroke:#000000;stroke-width:1.0;" x1="268" x2="268" y1="352.4883" y2="372.9766"/><line style="stroke:#000000;stroke-width:1.0;" x1="104" x2="470" y1="372.9766" y2="372.9766"/><text fill="#000000" font-family="sans-serif" font-size="14" font-weight="bold" lengthAdjust="spacing" textLength="85" x="109" y="388.5117">LAST_NAME</text><text fill="#000000" font-family="sans-serif" font-size="14" lengthAdjust="spacing" textLength="34" x="273" y="388.5117">Stein</text><line style="stroke:#000000;stroke-width:1.0;" x1="268" x2="268" y1="372.9766" y2="393.4648"/><line style="stroke:#000000;stroke-width:1.0;" x1="104" x2="470" y1="393.4648" y2="393.4648"/><text fill="#000000" font-family="sans-serif" font-size="14" font-weight="bold" lengthAdjust="spacing" textLength="44" x="109" y="409">EMAIL</text><text fill="#000000" font-family="sans-serif" font-size="14" lengthAdjust="spacing" textLength="192" x="273" y="409">bill.stein@devonenergy.com</text><line style="stroke:#000000;stroke-width:1.0;" x1="268" x2="268" y1="393.4648" y2="413.9531"/><line style="stroke:#000000;stroke-width:1.0;" x1="104" x2="470" y1="413.9531" y2="413.9531"/><text fill="#000000" font-family="sans-serif" font-size="14" font-weight="bold" lengthAdjust="spacing" textLength="51" x="109" y="429.4883">PHONE</text><text fill="#000000" font-family="sans-serif" font-size="14" lengthAdjust="spacing" textLength="113" x="273" y="429.4883">+39 6 012 4501</text><line style="stroke:#000000;stroke-width:1.0;" x1="268" x2="268" y1="413.9531" y2="434.4414"/><line style="stroke:#000000;stroke-width:1.0;" x1="104" x2="470" y1="434.4414" y2="434.4414"/><text fill="#000000" font-family="sans-serif" font-size="14" font-weight="bold" lengthAdjust="spacing" textLength="104" x="109" y="449.9766">CUSTOMER_ID</text><text fill="#000000" font-family="sans-serif" font-size="14" lengthAdjust="spacing" textLength="27" x="273" y="449.9766">248</text><line style="stroke:#000000;stroke-width:1.0;" x1="268" x2="268" y1="434.4414" y2="454.9297"/><line style="stroke:#000000;stroke-width:1.0;" x1="104" x2="470" y1="454.9297" y2="454.9297"/><text fill="#000000" font-family="sans-serif" font-size="14" font-weight="bold" lengthAdjust="spacing" textLength="154" x="109" y="470.4648">SYS_EXEC_DURATION</text><text fill="#000000" font-family="sans-serif" font-size="14" lengthAdjust="spacing" textLength="67" x="273" y="470.4648">0.281663</text><line style="stroke:#000000;stroke-width:1.0;" x1="268" x2="268" y1="454.9297" y2="475.418"/><rect fill="none" height="143.418" rx="5" ry="5" style="stroke:#000000;stroke-width:1.5;" width="366" x="104" y="332"/><rect fill="#F1F1F1" height="143.418" rx="5" ry="5" style="stroke:#F1F1F1;stroke-width:1.5;" width="373" x="100.5" y="493"/><text fill="#000000" font-family="sans-serif" font-size="14" font-weight="bold" lengthAdjust="spacing" textLength="96" x="105.5" y="508.5352">CONTACT_ID</text><text fill="#000000" font-family="sans-serif" font-size="14" lengthAdjust="spacing" textLength="27" x="269.5" y="508.5352">288</text><line style="stroke:#000000;stroke-width:1.0;" x1="264.5" x2="264.5" y1="493" y2="513.4883"/><line style="stroke:#000000;stroke-width:1.0;" x1="100.5" x2="473.5" y1="513.4883" y2="513.4883"/><text fill="#000000" font-family="sans-serif" font-size="14" font-weight="bold" lengthAdjust="spacing" textLength="90" x="105.5" y="529.0234">FIRST_NAME</text><text fill="#000000" font-family="sans-serif" font-size="14" lengthAdjust="spacing" textLength="56" x="269.5" y="529.0234">Dorotha</text><line style="stroke:#000000;stroke-width:1.0;" x1="264.5" x2="264.5" y1="513.4883" y2="533.9766"/><line style="stroke:#000000;stroke-width:1.0;" x1="100.5" x2="473.5" y1="533.9766" y2="533.9766"/><text fill="#000000" font-family="sans-serif" font-size="14" font-weight="bold" lengthAdjust="spacing" textLength="85" x="105.5" y="549.5117">LAST_NAME</text><text fill="#000000" font-family="sans-serif" font-size="14" lengthAdjust="spacing" textLength="39" x="269.5" y="549.5117">Wong</text><line style="stroke:#000000;stroke-width:1.0;" x1="264.5" x2="264.5" y1="533.9766" y2="554.4648"/><line style="stroke:#000000;stroke-width:1.0;" x1="100.5" x2="473.5" y1="554.4648" y2="554.4648"/><text fill="#000000" font-family="sans-serif" font-size="14" font-weight="bold" lengthAdjust="spacing" textLength="44" x="105.5" y="570">EMAIL</text><text fill="#000000" font-family="sans-serif" font-size="14" lengthAdjust="spacing" textLength="199" x="269.5" y="570">dorotha.wong@firstdata.com</text><line style="stroke:#000000;stroke-width:1.0;" x1="264.5" x2="264.5" y1="554.4648" y2="574.9531"/><line style="stroke:#000000;stroke-width:1.0;" x1="100.5" x2="473.5" y1="574.9531" y2="574.9531"/><text fill="#000000" font-family="sans-serif" font-size="14" font-weight="bold" lengthAdjust="spacing" textLength="51" x="105.5" y="590.4883">PHONE</text><text fill="#000000" font-family="sans-serif" font-size="14" lengthAdjust="spacing" textLength="113" x="269.5" y="590.4883">+41 6 012 3565</text><line style="stroke:#000000;stroke-width:1.0;" x1="264.5" x2="264.5" y1="574.9531" y2="595.4414"/><line style="stroke:#000000;stroke-width:1.0;" x1="100.5" x2="473.5" y1="595.4414" y2="595.4414"/><text fill="#000000" font-family="sans-serif" font-size="14" font-weight="bold" lengthAdjust="spacing" textLength="104" x="105.5" y="610.9766">CUSTOMER_ID</text><text fill="#000000" font-family="sans-serif" font-size="14" lengthAdjust="spacing" textLength="27" x="269.5" y="610.9766">288</text><line style="stroke:#000000;stroke-width:1.0;" x1="264.5" x2="264.5" y1="595.4414" y2="615.9297"/><line style="stroke:#000000;stroke-width:1.0;" x1="100.5" x2="473.5" y1="615.9297" y2="615.9297"/><text fill="#000000" font-family="sans-serif" font-size="14" font-weight="bold" lengthAdjust="spacing" textLength="154" x="105.5" y="631.4648">SYS_EXEC_DURATION</text><text fill="#000000" font-family="sans-serif" font-size="14" lengthAdjust="spacing" textLength="67" x="269.5" y="631.4648">0.281703</text><line style="stroke:#000000;stroke-width:1.0;" x1="264.5" x2="264.5" y1="615.9297" y2="636.418"/><rect fill="none" height="143.418" rx="5" ry="5" style="stroke:#000000;stroke-width:1.5;" width="373" x="100.5" y="493"/><rect fill="#F1F1F1" height="143.418" rx="5" ry="5" style="stroke:#F1F1F1;stroke-width:1.5;" width="345" x="114.5" y="654"/><text fill="#000000" font-family="sans-serif" font-size="14" font-weight="bold" lengthAdjust="spacing" textLength="96" x="119.5" y="669.5352">CONTACT_ID</text><text fill="#000000" font-family="sans-serif" font-size="14" lengthAdjust="spacing" textLength="27" x="283.5" y="669.5352">220</text><line style="stroke:#000000;stroke-width:1.0;" x1="278.5" x2="278.5" y1="654" y2="674.4883"/><line style="stroke:#000000;stroke-width:1.0;" x1="114.5" x2="459.5" y1="674.4883" y2="674.4883"/><text fill="#000000" font-family="sans-serif" font-size="14" font-weight="bold" lengthAdjust="spacing" textLength="90" x="119.5" y="690.0234">FIRST_NAME</text><text fill="#000000" font-family="sans-serif" font-size="14" lengthAdjust="spacing" textLength="58" x="283.5" y="690.0234">Tamisha</text><line style="stroke:#000000;stroke-width:1.0;" x1="278.5" x2="278.5" y1="674.4883" y2="694.9766"/><line style="stroke:#000000;stroke-width:1.0;" x1="114.5" x2="459.5" y1="694.9766" y2="694.9766"/><text fill="#000000" font-family="sans-serif" font-size="14" font-weight="bold" lengthAdjust="spacing" textLength="85" x="119.5" y="710.5117">LAST_NAME</text><text fill="#000000" font-family="sans-serif" font-size="14" lengthAdjust="spacing" textLength="47" x="283.5" y="710.5117">Vargas</text><line style="stroke:#000000;stroke-width:1.0;" x1="278.5" x2="278.5" y1="694.9766" y2="715.4648"/><line style="stroke:#000000;stroke-width:1.0;" x1="114.5" x2="459.5" y1="715.4648" y2="715.4648"/><text fill="#000000" font-family="sans-serif" font-size="14" font-weight="bold" lengthAdjust="spacing" textLength="44" x="119.5" y="731">EMAIL</text><text fill="#000000" font-family="sans-serif" font-size="14" lengthAdjust="spacing" textLength="171" x="283.5" y="731">tamisha.vargas@twc.com</text><line style="stroke:#000000;stroke-width:1.0;" x1="278.5" x2="278.5" y1="715.4648" y2="735.9531"/><line style="stroke:#000000;stroke-width:1.0;" x1="114.5" x2="459.5" y1="735.9531" y2="735.9531"/><text fill="#000000" font-family="sans-serif" font-size="14" font-weight="bold" lengthAdjust="spacing" textLength="51" x="119.5" y="751.4883">PHONE</text><text fill="#000000" font-family="sans-serif" font-size="14" lengthAdjust="spacing" textLength="122" x="283.5" y="751.4883">+91 80 012 4793</text><line style="stroke:#000000;stroke-width:1.0;" x1="278.5" x2="278.5" y1="735.9531" y2="756.4414"/><line style="stroke:#000000;stroke-width:1.0;" x1="114.5" x2="459.5" y1="756.4414" y2="756.4414"/><text fill="#000000" font-family="sans-serif" font-size="14" font-weight="bold" lengthAdjust="spacing" textLength="104" x="119.5" y="771.9766">CUSTOMER_ID</text><text fill="#000000" font-family="sans-serif" font-size="14" lengthAdjust="spacing" textLength="27" x="283.5" y="771.9766">220</text><line style="stroke:#000000;stroke-width:1.0;" x1="278.5" x2="278.5" y1="756.4414" y2="776.9297"/><line style="stroke:#000000;stroke-width:1.0;" x1="114.5" x2="459.5" y1="776.9297" y2="776.9297"/><text fill="#000000" font-family="sans-serif" font-size="14" font-weight="bold" lengthAdjust="spacing" textLength="154" x="119.5" y="792.4648">SYS_EXEC_DURATION</text><text fill="#000000" font-family="sans-serif" font-size="14" lengthAdjust="spacing" textLength="67" x="283.5" y="792.4648">0.281733</text><line style="stroke:#000000;stroke-width:1.0;" x1="278.5" x2="278.5" y1="776.9297" y2="797.418"/><rect fill="none" height="143.418" rx="5" ry="5" style="stroke:#000000;stroke-width:1.5;" width="345" x="114.5" y="654"/><path d="M22,363.5 L35,363.5 C80.5962,363.5 41.7711,196.4955 71,161.5 C71.7595,160.5907 72.5303,159.6917 73.3122,158.8029 " fill="none" style="stroke:#000000;stroke-width:1.0;stroke-dasharray:3.0,3.0;"/><path d="M75.5997,160.9293 L74.907,157.0873 L71.0246,156.6765 L78.6282,153.0841 L75.5997,160.9293 " fill="#000000" style="stroke:#000000;stroke-width:1.0;"/><ellipse cx="22" cy="363.5" fill="#000000" rx="3" ry="3" style="stroke:#000000;stroke-width:1.0;"/><path d="M22,383.5 L35,383.5 C66.4803,383.5 46.8527,342.697 71,322.5 C85.7959,310.1246 102.6867,299.5704 120.3539,290.591 " fill="none" style="stroke:#000000;stroke-width:1.0;stroke-dasharray:3.0,3.0;"/><path d="M121.7512,293.4204 L122.476,289.543 L118.9566,287.7616 L127.4275,287.0978 L121.7512,293.4204 " fill="#000000" style="stroke:#000000;stroke-width:1.0;"/><ellipse cx="22" cy="383.5" fill="#000000" rx="3" ry="3" style="stroke:#000000;stroke-width:1.0;"/><path d="M22,403.5 L35,403.5 C55.0271,403.5 75.9512,403.5 96.8081,403.5 " fill="none" style="stroke:#000000;stroke-width:1.0;stroke-dasharray:3.0,3.0;"/><path d="M96.8081,406.5717 L99.1118,403.5 L96.8081,400.4283 L104.4873,403.5 L96.8081,406.5717 " fill="#000000" style="stroke:#000000;stroke-width:1.0;"/><ellipse cx="22" cy="403.5" fill="#000000" rx="3" ry="3" style="stroke:#000000;stroke-width:1.0;"/><path d="M22,424.5 L35,424.5 C66.0984,424.5 47.0734,464.6348 71,484.5 C78.4015,490.6451 86.3198,496.3423 94.5921,501.6214 " fill="none" style="stroke:#000000;stroke-width:1.0;stroke-dasharray:3.0,3.0;"/><path d="M93.0097,504.1782 L96.5097,502.8082 L96.1744,499.0645 L100.9842,505.5773 L93.0097,504.1782 " fill="#000000" style="stroke:#000000;stroke-width:1.0;"/><ellipse cx="22" cy="424.5" fill="#000000" rx="3" ry="3" style="stroke:#000000;stroke-width:1.0;"/><path d="M22,445.5 L35,445.5 C80.1587,445.5 42.0216,610.8653 71,645.5 C81.6042,658.1741 94.4162,668.8411 108.4442,677.8188 " fill="none" style="stroke:#000000;stroke-width:1.0;stroke-dasharray:3.0,3.0;"/><path d="M106.8413,680.4298 L110.4024,679.021 L110.047,675.2079 L114.9715,681.826 L106.8413,680.4298 " fill="#000000" style="stroke:#000000;stroke-width:1.0;"/><ellipse cx="22" cy="445.5" fill="#000000" rx="3" ry="3" style="stroke:#000000;stroke-width:1.0;"/><!--MD5=[033f4af3859bb00aeffd9fb527a31c74]
@startjson
[
    {
        "CONTACT_ID": 159,
        "FIRST_NAME": "Amado",
        "LAST_NAME": "Jefferson",
        "EMAIL": "amado.jefferson@energytransfer.com",
        "PHONE": "+1 612 123 4407",
        "CUSTOMER_ID": 159,
        "SYS_EXEC_DURATION": "0.281335"
    },
    {
        "CONTACT_ID": 241,
        "FIRST_NAME": "Johnie",
        "LAST_NAME": "Rojas",
        "EMAIL": "johnie.rojas@itw.com",
        "PHONE": "+91 80 012 4887",
        "CUSTOMER_ID": 241,
        "SYS_EXEC_DURATION": "0.281622"
    },
    {
        "CONTACT_ID": 248,
        "FIRST_NAME": "Bill",
        "LAST_NAME": "Stein",
        "EMAIL": "bill.stein@devonenergy.com",
        "PHONE": "+39 6 012 4501",
        "CUSTOMER_ID": 248,
        "SYS_EXEC_DURATION": "0.281663"
    },
    {
        "CONTACT_ID": 288,
        "FIRST_NAME": "Dorotha",
        "LAST_NAME": "Wong",
        "EMAIL": "dorotha.wong@firstdata.com",
        "PHONE": "+41 6 012 3565",
        "CUSTOMER_ID": 288,
        "SYS_EXEC_DURATION": "0.281703"
    },
    {
        "CONTACT_ID": 220,
        "FIRST_NAME": "Tamisha",
        "LAST_NAME": "Vargas",
        "EMAIL": "tamisha.vargas@twc.com",
        "PHONE": "+91 80 012 4793",
        "CUSTOMER_ID": 220,
        "SYS_EXEC_DURATION": "0.281733"
    }
]
@endjson

PlantUML version 1.2022.12(Sun Oct 23 14:12:26 EDT 2022)
(GPL source distribution)
Java Runtime: OpenJDK Runtime Environment
JVM: OpenJDK 64-Bit Server VM
Default Encoding: UTF-8
Language: en
Country: CA
--></g></svg>