<?xml version="1.0" encoding="UTF-8" standalone="no"?><svg xmlns="http://www.w3.org/2000/svg" xmlns:xlink="http://www.w3.org/1999/xlink" contentStyleType="text/css" height="809px" preserveAspectRatio="none" style="width:756px;height:809px;background:#FFFFFF;" version="1.1" viewBox="0 0 756 809" width="756px" zoomAndPan="magnify"><defs/><g><rect fill="#F1F1F1" height="102.4414" rx="5" ry="5" style="stroke:#F1F1F1;stroke-width:1.5;" width="22" x="10" y="353.5"/><text fill="#000000" font-family="sans-serif" font-size="14" lengthAdjust="spacing" textLength="12" x="15" y="369.0352">   </text><line style="stroke:#000000;stroke-width:1.0;" x1="10" x2="32" y1="373.9883" y2="373.9883"/><text fill="#000000" font-family="sans-serif" font-size="14" lengthAdjust="spacing" textLength="12" x="15" y="389.5234">   </text><line style="stroke:#000000;stroke-width:1.0;" x1="10" x2="32" y1="394.4766" y2="394.4766"/><text fill="#000000" font-family="sans-serif" font-size="14" lengthAdjust="spacing" textLength="12" x="15" y="410.0117">   </text><line style="stroke:#000000;stroke-width:1.0;" x1="10" x2="32" y1="414.9648" y2="414.9648"/><text fill="#000000" font-family="sans-serif" font-size="14" lengthAdjust="spacing" textLength="12" x="15" y="430.5">   </text><line style="stroke:#000000;stroke-width:1.0;" x1="10" x2="32" y1="435.4531" y2="435.4531"/><text fill="#000000" font-family="sans-serif" font-size="14" lengthAdjust="spacing" textLength="12" x="15" y="450.9883">   </text><rect fill="none" height="102.4414" rx="5" ry="5" style="stroke:#000000;stroke-width:1.5;" width="22" x="10" y="353.5"/><rect fill="#F1F1F1" height="143.418" rx="5" ry="5" style="stroke:#F1F1F1;stroke-width:1.5;" width="606" x="104.5" y="10"/><text fill="#000000" font-family="sans-serif" font-size="14" font-weight="bold" lengthAdjust="spacing" textLength="95" x="109.5" y="25.5352">PRODUCT_ID</text><text fill="#000000" font-family="sans-serif" font-size="14" lengthAdjust="spacing" textLength="27" x="273.5" y="25.5352">227</text><line style="stroke:#000000;stroke-width:1.0;" x1="268.5" x2="268.5" y1="10" y2="30.4883"/><line style="stroke:#000000;stroke-width:1.0;" x1="104.5" x2="710.5" y1="30.4883" y2="30.4883"/><text fill="#000000" font-family="sans-serif" font-size="14" font-weight="bold" lengthAdjust="spacing" textLength="121" x="109.5" y="46.0234">PRODUCT_NAME</text><text fill="#000000" font-family="sans-serif" font-size="14" lengthAdjust="spacing" textLength="188" x="273.5" y="46.0234">Gigabyte GA-X99-UD5 WIFI</text><line style="stroke:#000000;stroke-width:1.0;" x1="268.5" x2="268.5" y1="30.4883" y2="50.9766"/><line style="stroke:#000000;stroke-width:1.0;" x1="104.5" x2="710.5" y1="50.9766" y2="50.9766"/><text fill="#000000" font-family="sans-serif" font-size="14" font-weight="bold" lengthAdjust="spacing" textLength="99" x="109.5" y="66.5117">DESCRIPTION</text><text fill="#000000" font-family="sans-serif" font-size="14" lengthAdjust="spacing" textLength="432" x="273.5" y="66.5117">CPU:LGA2011-3,Form Factor:EATX,RAM Slots:8,Max RAM:64GB</text><line style="stroke:#000000;stroke-width:1.0;" x1="268.5" x2="268.5" y1="50.9766" y2="71.4648"/><line style="stroke:#000000;stroke-width:1.0;" x1="104.5" x2="710.5" y1="71.4648" y2="71.4648"/><text fill="#000000" font-family="sans-serif" font-size="14" font-weight="bold" lengthAdjust="spacing" textLength="128" x="109.5" y="87">STANDARD_COST</text><text fill="#000000" font-family="sans-serif" font-size="14" lengthAdjust="spacing" textLength="49" x="273.5" y="87">217.83</text><line style="stroke:#000000;stroke-width:1.0;" x1="268.5" x2="268.5" y1="71.4648" y2="91.9531"/><line style="stroke:#000000;stroke-width:1.0;" x1="104.5" x2="710.5" y1="91.9531" y2="91.9531"/><text fill="#000000" font-family="sans-serif" font-size="14" font-weight="bold" lengthAdjust="spacing" textLength="80" x="109.5" y="107.4883">LIST_PRICE</text><text fill="#000000" font-family="sans-serif" font-size="14" lengthAdjust="spacing" textLength="40" x="273.5" y="107.4883">305.0</text><line style="stroke:#000000;stroke-width:1.0;" x1="268.5" x2="268.5" y1="91.9531" y2="112.4414"/><line style="stroke:#000000;stroke-width:1.0;" x1="104.5" x2="710.5" y1="112.4414" y2="112.4414"/><text fill="#000000" font-family="sans-serif" font-size="14" font-weight="bold" lengthAdjust="spacing" textLength="103" x="109.5" y="127.9766">CATEGORY_ID</text><text fill="#000000" font-family="sans-serif" font-size="14" lengthAdjust="spacing" textLength="9" x="273.5" y="127.9766">4</text><line style="stroke:#000000;stroke-width:1.0;" x1="268.5" x2="268.5" y1="112.4414" y2="132.9297"/><line style="stroke:#000000;stroke-width:1.0;" x1="104.5" x2="710.5" y1="132.9297" y2="132.9297"/><text fill="#000000" font-family="sans-serif" font-size="14" font-weight="bold" lengthAdjust="spacing" textLength="154" x="109.5" y="148.4648">SYS_EXEC_DURATION</text><text fill="#000000" font-family="sans-serif" font-size="14" lengthAdjust="spacing" textLength="67" x="273.5" y="148.4648">0.256908</text><line style="stroke:#000000;stroke-width:1.0;" x1="268.5" x2="268.5" y1="132.9297" y2="153.418"/><rect fill="none" height="143.418" rx="5" ry="5" style="stroke:#000000;stroke-width:1.5;" width="606" x="104.5" y="10"/><rect fill="#F1F1F1" height="143.418" rx="5" ry="5" style="stroke:#F1F1F1;stroke-width:1.5;" width="673" x="71" y="171"/><text fill="#000000" font-family="sans-serif" font-size="14" font-weight="bold" lengthAdjust="spacing" textLength="95" x="76" y="186.5352">PRODUCT_ID</text><text fill="#000000" font-family="sans-serif" font-size="14" lengthAdjust="spacing" textLength="27" x="240" y="186.5352">116</text><line style="stroke:#000000;stroke-width:1.0;" x1="235" x2="235" y1="171" y2="191.4883"/><line style="stroke:#000000;stroke-width:1.0;" x1="71" x2="744" y1="191.4883" y2="191.4883"/><text fill="#000000" font-family="sans-serif" font-size="14" font-weight="bold" lengthAdjust="spacing" textLength="121" x="76" y="207.0234">PRODUCT_NAME</text><text fill="#000000" font-family="sans-serif" font-size="14" lengthAdjust="spacing" textLength="108" x="240" y="207.0234">G.Skill Trident Z</text><line style="stroke:#000000;stroke-width:1.0;" x1="235" x2="235" y1="191.4883" y2="211.9766"/><line style="stroke:#000000;stroke-width:1.0;" x1="71" x2="744" y1="211.9766" y2="211.9766"/><text fill="#000000" font-family="sans-serif" font-size="14" font-weight="bold" lengthAdjust="spacing" textLength="99" x="76" y="227.5117">DESCRIPTION</text><text fill="#000000" font-family="sans-serif" font-size="14" lengthAdjust="spacing" textLength="499" x="240" y="227.5117">Speed:DDR4-3400,Type:288-pin DIMM,CAS:16Module:4x16GBSize:64GB</text><line style="stroke:#000000;stroke-width:1.0;" x1="235" x2="235" y1="211.9766" y2="232.4648"/><line style="stroke:#000000;stroke-width:1.0;" x1="71" x2="744" y1="232.4648" y2="232.4648"/><text fill="#000000" font-family="sans-serif" font-size="14" font-weight="bold" lengthAdjust="spacing" textLength="128" x="76" y="248">STANDARD_COST</text><text fill="#000000" font-family="sans-serif" font-size="14" lengthAdjust="spacing" textLength="49" x="240" y="248">565.39</text><line style="stroke:#000000;stroke-width:1.0;" x1="235" x2="235" y1="232.4648" y2="252.9531"/><line style="stroke:#000000;stroke-width:1.0;" x1="71" x2="744" y1="252.9531" y2="252.9531"/><text fill="#000000" font-family="sans-serif" font-size="14" font-weight="bold" lengthAdjust="spacing" textLength="80" x="76" y="268.4883">LIST_PRICE</text><text fill="#000000" font-family="sans-serif" font-size="14" lengthAdjust="spacing" textLength="49" x="240" y="268.4883">731.99</text><line style="stroke:#000000;stroke-width:1.0;" x1="235" x2="235" y1="252.9531" y2="273.4414"/><line style="stroke:#000000;stroke-width:1.0;" x1="71" x2="744" y1="273.4414" y2="273.4414"/><text fill="#000000" font-family="sans-serif" font-size="14" font-weight="bold" lengthAdjust="spacing" textLength="103" x="76" y="288.9766">CATEGORY_ID</text><text fill="#000000" font-family="sans-serif" font-size="14" lengthAdjust="spacing" textLength="9" x="240" y="288.9766">5</text><line style="stroke:#000000;stroke-width:1.0;" x1="235" x2="235" y1="273.4414" y2="293.9297"/><line style="stroke:#000000;stroke-width:1.0;" x1="71" x2="744" y1="293.9297" y2="293.9297"/><text fill="#000000" font-family="sans-serif" font-size="14" font-weight="bold" lengthAdjust="spacing" textLength="154" x="76" y="309.4648">SYS_EXEC_DURATION</text><text fill="#000000" font-family="sans-serif" font-size="14" lengthAdjust="spacing" textLength="67" x="240" y="309.4648">0.257062</text><line style="stroke:#000000;stroke-width:1.0;" x1="235" x2="235" y1="293.9297" y2="314.418"/><rect fill="none" height="143.418" rx="5" ry="5" style="stroke:#000000;stroke-width:1.5;" width="673" x="71" y="171"/><rect fill="#F1F1F1" height="143.418" rx="5" ry="5" style="stroke:#F1F1F1;stroke-width:1.5;" width="401" x="207" y="332"/><text fill="#000000" font-family="sans-serif" font-size="14" font-weight="bold" lengthAdjust="spacing" textLength="95" x="212" y="347.5352">PRODUCT_ID</text><text fill="#000000" font-family="sans-serif" font-size="14" lengthAdjust="spacing" textLength="27" x="376" y="347.5352">120</text><line style="stroke:#000000;stroke-width:1.0;" x1="371" x2="371" y1="332" y2="352.4883"/><line style="stroke:#000000;stroke-width:1.0;" x1="207" x2="608" y1="352.4883" y2="352.4883"/><text fill="#000000" font-family="sans-serif" font-size="14" font-weight="bold" lengthAdjust="spacing" textLength="121" x="212" y="368.0234">PRODUCT_NAME</text><text fill="#000000" font-family="sans-serif" font-size="14" lengthAdjust="spacing" textLength="201" x="376" y="368.0234">Intel Core 2 Extreme QX9775</text><line style="stroke:#000000;stroke-width:1.0;" x1="371" x2="371" y1="352.4883" y2="372.9766"/><line style="stroke:#000000;stroke-width:1.0;" x1="207" x2="608" y1="372.9766" y2="372.9766"/><text fill="#000000" font-family="sans-serif" font-size="14" font-weight="bold" lengthAdjust="spacing" textLength="99" x="212" y="388.5117">DESCRIPTION</text><text fill="#000000" font-family="sans-serif" font-size="14" lengthAdjust="spacing" textLength="227" x="376" y="388.5117">Speed:3.2GHz,Cores:4,TDP:150W</text><line style="stroke:#000000;stroke-width:1.0;" x1="371" x2="371" y1="372.9766" y2="393.4648"/><line style="stroke:#000000;stroke-width:1.0;" x1="207" x2="608" y1="393.4648" y2="393.4648"/><text fill="#000000" font-family="sans-serif" font-size="14" font-weight="bold" lengthAdjust="spacing" textLength="128" x="212" y="409">STANDARD_COST</text><text fill="#000000" font-family="sans-serif" font-size="14" lengthAdjust="spacing" textLength="49" x="376" y="409">737.68</text><line style="stroke:#000000;stroke-width:1.0;" x1="371" x2="371" y1="393.4648" y2="413.9531"/><line style="stroke:#000000;stroke-width:1.0;" x1="207" x2="608" y1="413.9531" y2="413.9531"/><text fill="#000000" font-family="sans-serif" font-size="14" font-weight="bold" lengthAdjust="spacing" textLength="80" x="212" y="429.4883">LIST_PRICE</text><text fill="#000000" font-family="sans-serif" font-size="14" lengthAdjust="spacing" textLength="40" x="376" y="429.4883">892.0</text><line style="stroke:#000000;stroke-width:1.0;" x1="371" x2="371" y1="413.9531" y2="434.4414"/><line style="stroke:#000000;stroke-width:1.0;" x1="207" x2="608" y1="434.4414" y2="434.4414"/><text fill="#000000" font-family="sans-serif" font-size="14" font-weight="bold" lengthAdjust="spacing" textLength="103" x="212" y="449.9766">CATEGORY_ID</text><text fill="#000000" font-family="sans-serif" font-size="14" lengthAdjust="spacing" textLength="9" x="376" y="449.9766">1</text><line style="stroke:#000000;stroke-width:1.0;" x1="371" x2="371" y1="434.4414" y2="454.9297"/><line style="stroke:#000000;stroke-width:1.0;" x1="207" x2="608" y1="454.9297" y2="454.9297"/><text fill="#000000" font-family="sans-serif" font-size="14" font-weight="bold" lengthAdjust="spacing" textLength="154" x="212" y="470.4648">SYS_EXEC_DURATION</text><text fill="#000000" font-family="sans-serif" font-size="14" lengthAdjust="spacing" textLength="67" x="376" y="470.4648">0.257098</text><line style="stroke:#000000;stroke-width:1.0;" x1="371" x2="371" y1="454.9297" y2="475.418"/><rect fill="none" height="143.418" rx="5" ry="5" style="stroke:#000000;stroke-width:1.5;" width="401" x="207" y="332"/><rect fill="#F1F1F1" height="143.418" rx="5" ry="5" style="stroke:#F1F1F1;stroke-width:1.5;" width="516" x="149.5" y="493"/><text fill="#000000" font-family="sans-serif" font-size="14" font-weight="bold" lengthAdjust="spacing" textLength="95" x="154.5" y="508.5352">PRODUCT_ID</text><text fill="#000000" font-family="sans-serif" font-size="14" lengthAdjust="spacing" textLength="27" x="318.5" y="508.5352">260</text><line style="stroke:#000000;stroke-width:1.0;" x1="313.5" x2="313.5" y1="493" y2="513.4883"/><line style="stroke:#000000;stroke-width:1.0;" x1="149.5" x2="665.5" y1="513.4883" y2="513.4883"/><text fill="#000000" font-family="sans-serif" font-size="14" font-weight="bold" lengthAdjust="spacing" textLength="121" x="154.5" y="529.0234">PRODUCT_NAME</text><text fill="#000000" font-family="sans-serif" font-size="14" lengthAdjust="spacing" textLength="190" x="318.5" y="529.0234">Crucial CT1050MX300SSD1</text><line style="stroke:#000000;stroke-width:1.0;" x1="313.5" x2="313.5" y1="513.4883" y2="533.9766"/><line style="stroke:#000000;stroke-width:1.0;" x1="149.5" x2="665.5" y1="533.9766" y2="533.9766"/><text fill="#000000" font-family="sans-serif" font-size="14" font-weight="bold" lengthAdjust="spacing" textLength="99" x="154.5" y="549.5117">DESCRIPTION</text><text fill="#000000" font-family="sans-serif" font-size="14" lengthAdjust="spacing" textLength="342" x="318.5" y="549.5117">Series:MX300,Type:SSD,Capacity:1.1TB,Cache:N/A</text><line style="stroke:#000000;stroke-width:1.0;" x1="313.5" x2="313.5" y1="533.9766" y2="554.4648"/><line style="stroke:#000000;stroke-width:1.0;" x1="149.5" x2="665.5" y1="554.4648" y2="554.4648"/><text fill="#000000" font-family="sans-serif" font-size="14" font-weight="bold" lengthAdjust="spacing" textLength="128" x="154.5" y="570">STANDARD_COST</text><text fill="#000000" font-family="sans-serif" font-size="14" lengthAdjust="spacing" textLength="49" x="318.5" y="570">192.52</text><line style="stroke:#000000;stroke-width:1.0;" x1="313.5" x2="313.5" y1="554.4648" y2="574.9531"/><line style="stroke:#000000;stroke-width:1.0;" x1="149.5" x2="665.5" y1="574.9531" y2="574.9531"/><text fill="#000000" font-family="sans-serif" font-size="14" font-weight="bold" lengthAdjust="spacing" textLength="80" x="154.5" y="590.4883">LIST_PRICE</text><text fill="#000000" font-family="sans-serif" font-size="14" lengthAdjust="spacing" textLength="49" x="318.5" y="590.4883">267.99</text><line style="stroke:#000000;stroke-width:1.0;" x1="313.5" x2="313.5" y1="574.9531" y2="595.4414"/><line style="stroke:#000000;stroke-width:1.0;" x1="149.5" x2="665.5" y1="595.4414" y2="595.4414"/><text fill="#000000" font-family="sans-serif" font-size="14" font-weight="bold" lengthAdjust="spacing" textLength="103" x="154.5" y="610.9766">CATEGORY_ID</text><text fill="#000000" font-family="sans-serif" font-size="14" lengthAdjust="spacing" textLength="9" x="318.5" y="610.9766">5</text><line style="stroke:#000000;stroke-width:1.0;" x1="313.5" x2="313.5" y1="595.4414" y2="615.9297"/><line style="stroke:#000000;stroke-width:1.0;" x1="149.5" x2="665.5" y1="615.9297" y2="615.9297"/><text fill="#000000" font-family="sans-serif" font-size="14" font-weight="bold" lengthAdjust="spacing" textLength="154" x="154.5" y="631.4648">SYS_EXEC_DURATION</text><text fill="#000000" font-family="sans-serif" font-size="14" lengthAdjust="spacing" textLength="67" x="318.5" y="631.4648">0.257131</text><line style="stroke:#000000;stroke-width:1.0;" x1="313.5" x2="313.5" y1="615.9297" y2="636.418"/><rect fill="none" height="143.418" rx="5" ry="5" style="stroke:#000000;stroke-width:1.5;" width="516" x="149.5" y="493"/><rect fill="#F1F1F1" height="143.418" rx="5" ry="5" style="stroke:#F1F1F1;stroke-width:1.5;" width="615" x="100" y="654"/><text fill="#000000" font-family="sans-serif" font-size="14" font-weight="bold" lengthAdjust="spacing" textLength="95" x="105" y="669.5352">PRODUCT_ID</text><text fill="#000000" font-family="sans-serif" font-size="14" lengthAdjust="spacing" textLength="27" x="269" y="669.5352">192</text><line style="stroke:#000000;stroke-width:1.0;" x1="264" x2="264" y1="654" y2="674.4883"/><line style="stroke:#000000;stroke-width:1.0;" x1="100" x2="715" y1="674.4883" y2="674.4883"/><text fill="#000000" font-family="sans-serif" font-size="14" font-weight="bold" lengthAdjust="spacing" textLength="121" x="105" y="690.0234">PRODUCT_NAME</text><text fill="#000000" font-family="sans-serif" font-size="14" lengthAdjust="spacing" textLength="188" x="269" y="690.0234">Asus Rampage V Edition 10</text><line style="stroke:#000000;stroke-width:1.0;" x1="264" x2="264" y1="674.4883" y2="694.9766"/><line style="stroke:#000000;stroke-width:1.0;" x1="100" x2="715" y1="694.9766" y2="694.9766"/><text fill="#000000" font-family="sans-serif" font-size="14" font-weight="bold" lengthAdjust="spacing" textLength="99" x="105" y="710.5117">DESCRIPTION</text><text fill="#000000" font-family="sans-serif" font-size="14" lengthAdjust="spacing" textLength="441" x="269" y="710.5117">CPU:LGA2011-3,Form Factor:EATX,RAM Slots:8,Max RAM:128GB</text><line style="stroke:#000000;stroke-width:1.0;" x1="264" x2="264" y1="694.9766" y2="715.4648"/><line style="stroke:#000000;stroke-width:1.0;" x1="100" x2="715" y1="715.4648" y2="715.4648"/><text fill="#000000" font-family="sans-serif" font-size="14" font-weight="bold" lengthAdjust="spacing" textLength="128" x="105" y="731">STANDARD_COST</text><text fill="#000000" font-family="sans-serif" font-size="14" lengthAdjust="spacing" textLength="40" x="269" y="731">452.5</text><line style="stroke:#000000;stroke-width:1.0;" x1="264" x2="264" y1="715.4648" y2="735.9531"/><line style="stroke:#000000;stroke-width:1.0;" x1="100" x2="715" y1="735.9531" y2="735.9531"/><text fill="#000000" font-family="sans-serif" font-size="14" font-weight="bold" lengthAdjust="spacing" textLength="80" x="105" y="751.4883">LIST_PRICE</text><text fill="#000000" font-family="sans-serif" font-size="14" lengthAdjust="spacing" textLength="49" x="269" y="751.4883">519.99</text><line style="stroke:#000000;stroke-width:1.0;" x1="264" x2="264" y1="735.9531" y2="756.4414"/><line style="stroke:#000000;stroke-width:1.0;" x1="100" x2="715" y1="756.4414" y2="756.4414"/><text fill="#000000" font-family="sans-serif" font-size="14" font-weight="bold" lengthAdjust="spacing" textLength="103" x="105" y="771.9766">CATEGORY_ID</text><text fill="#000000" font-family="sans-serif" font-size="14" lengthAdjust="spacing" textLength="9" x="269" y="771.9766">4</text><line style="stroke:#000000;stroke-width:1.0;" x1="264" x2="264" y1="756.4414" y2="776.9297"/><line style="stroke:#000000;stroke-width:1.0;" x1="100" x2="715" y1="776.9297" y2="776.9297"/><text fill="#000000" font-family="sans-serif" font-size="14" font-weight="bold" lengthAdjust="spacing" textLength="154" x="105" y="792.4648">SYS_EXEC_DURATION</text><text fill="#000000" font-family="sans-serif" font-size="14" lengthAdjust="spacing" textLength="67" x="269" y="792.4648">0.257162</text><line style="stroke:#000000;stroke-width:1.0;" x1="264" x2="264" y1="776.9297" y2="797.418"/><rect fill="none" height="143.418" rx="5" ry="5" style="stroke:#000000;stroke-width:1.5;" width="615" x="100" y="654"/><path d="M22,363.5 L35,363.5 C80.5962,363.5 39.6967,194.6529 71,161.5 C79.4377,152.5638 88.678,144.5456 98.5385,137.3559 " fill="none" style="stroke:#000000;stroke-width:1.0;stroke-dasharray:3.0,3.0;"/><path d="M100.2866,139.8431 L100.4039,136.0448 L96.7903,134.8687 L104.7565,132.9855 L100.2866,139.8431 " fill="#000000" style="stroke:#000000;stroke-width:1.0;"/><ellipse cx="22" cy="363.5" fill="#000000" rx="3" ry="3" style="stroke:#000000;stroke-width:1.0;"/><path d="M22,383.5 L35,383.5 C66.4803,383.5 45.669,341.191 71,322.5 C72.8659,321.1232 74.7522,319.7697 76.6577,318.4392 " fill="none" style="stroke:#000000;stroke-width:1.0;stroke-dasharray:3.0,3.0;"/><path d="M78.4321,321.0597 L78.6231,317.1084 L74.8833,315.8186 L83.2091,314.0032 L78.4321,321.0597 " fill="#000000" style="stroke:#000000;stroke-width:1.0;"/><ellipse cx="22" cy="383.5" fill="#000000" rx="3" ry="3" style="stroke:#000000;stroke-width:1.0;"/><path d="M22,403.5 L35,403.5 C88.355,403.5 146.0147,403.5 199.644,403.5 " fill="none" style="stroke:#000000;stroke-width:1.0;stroke-dasharray:3.0,3.0;"/><path d="M199.644,406.5159 L201.9059,403.5 L199.644,400.4841 L207.1837,403.5 L199.644,406.5159 " fill="#000000" style="stroke:#000000;stroke-width:1.0;"/><ellipse cx="22" cy="403.5" fill="#000000" rx="3" ry="3" style="stroke:#000000;stroke-width:1.0;"/><path d="M22,424.5 L35,424.5 C66.0984,424.5 45.9094,466.1268 71,484.5 C92.6688,500.3675 117.0403,513.1316 142.5056,523.3924 " fill="none" style="stroke:#000000;stroke-width:1.0;stroke-dasharray:3.0,3.0;"/><path d="M141.3744,526.2764 L144.6687,524.2408 L143.6369,520.5083 L149.7158,526.2206 L141.3744,526.2764 " fill="#000000" style="stroke:#000000;stroke-width:1.0;"/><ellipse cx="22" cy="424.5" fill="#000000" rx="3" ry="3" style="stroke:#000000;stroke-width:1.0;"/><path d="M22,445.5 L35,445.5 C125.3174,445.5 8.9375,579.8839 71,645.5 C78.1416,653.0506 85.8564,659.9454 94.0339,666.2388 " fill="none" style="stroke:#000000;stroke-width:1.0;stroke-dasharray:3.0,3.0;"/><path d="M92.1554,668.7755 L95.9364,667.6476 L95.9124,663.7021 L100.3757,670.935 L92.1554,668.7755 " fill="#000000" style="stroke:#000000;stroke-width:1.0;"/><ellipse cx="22" cy="445.5" fill="#000000" rx="3" ry="3" style="stroke:#000000;stroke-width:1.0;"/><!--MD5=[ac7eb47dcbc692b47af2490725b3af4a]
@startjson
[
    {
        "PRODUCT_ID": 227,
        "PRODUCT_NAME": "Gigabyte GA-X99-UD5 WIFI",
        "DESCRIPTION": "CPU:LGA2011-3,Form Factor:EATX,RAM Slots:8,Max RAM:64GB",
        "STANDARD_COST": 217.83,
        "LIST_PRICE": 305.0,
        "CATEGORY_ID": 4,
        "SYS_EXEC_DURATION": "0.256908"
    },
    {
        "PRODUCT_ID": 116,
        "PRODUCT_NAME": "G.Skill Trident Z",
        "DESCRIPTION": "Speed:DDR4-3400,Type:288-pin DIMM,CAS:16Module:4x16GBSize:64GB",
        "STANDARD_COST": 565.39,
        "LIST_PRICE": 731.99,
        "CATEGORY_ID": 5,
        "SYS_EXEC_DURATION": "0.257062"
    },
    {
        "PRODUCT_ID": 120,
        "PRODUCT_NAME": "Intel Core 2 Extreme QX9775",
        "DESCRIPTION": "Speed:3.2GHz,Cores:4,TDP:150W",
        "STANDARD_COST": 737.68,
        "LIST_PRICE": 892.0,
        "CATEGORY_ID": 1,
        "SYS_EXEC_DURATION": "0.257098"
    },
    {
        "PRODUCT_ID": 260,
        "PRODUCT_NAME": "Crucial CT1050MX300SSD1",
        "DESCRIPTION": "Series:MX300,Type:SSD,Capacity:1.1TB,Cache:N/A",
        "STANDARD_COST": 192.52,
        "LIST_PRICE": 267.99,
        "CATEGORY_ID": 5,
        "SYS_EXEC_DURATION": "0.257131"
    },
    {
        "PRODUCT_ID": 192,
        "PRODUCT_NAME": "Asus Rampage V Edition 10",
        "DESCRIPTION": "CPU:LGA2011-3,Form Factor:EATX,RAM Slots:8,Max RAM:128GB",
        "STANDARD_COST": 452.5,
        "LIST_PRICE": 519.99,
        "CATEGORY_ID": 4,
        "SYS_EXEC_DURATION": "0.257162"
    }
]
@endjson

PlantUML version 1.2022.12(Sun Oct 23 14:12:26 EDT 2022)
(GPL source distribution)
Java Runtime: OpenJDK Runtime Environment
JVM: OpenJDK 64-Bit Server VM
Default Encoding: UTF-8
Language: en
Country: CA
--></g></svg>