<?xml version="1.0" encoding="UTF-8" standalone="no"?><svg xmlns="http://www.w3.org/2000/svg" xmlns:xlink="http://www.w3.org/1999/xlink" contentStyleType="text/css" height="648px" preserveAspectRatio="none" style="width:571px;height:648px;background:#FFFFFF;" version="1.1" viewBox="0 0 571 648" width="571px" zoomAndPan="magnify"><defs/><g><rect fill="#DDDDDD" height="26.4883" rx="7.5" ry="7.5" style="stroke:#000000;stroke-width:2.0;" width="122" x="217.6667" y="5"/><text fill="#000000" font-family="sans-serif" font-size="14" font-weight="bold" lengthAdjust="spacing" textLength="112" x="222.6667" y="23.5352">:: table erd1 © ::</text><!--MD5=[ed20471bcf231b346f385570aecda8a9]
class dbo.DatabaseLog--><g id="elem_dbo.DatabaseLog"><rect codeLine="16" fill="#F1F1F1" height="272.8359" id="dbo.DatabaseLog" rx="2.5" ry="2.5" style="stroke:#181818;stroke-width:0.5;" width="200" x="8.5" y="44.4883"/><path d="M40.3333,53.1432 L40.3333,55.4766 L42.6667,55.4766 L42.6667,53.1432 L40.3333,53.1432 M43.8333,53.1432 L43.8333,55.4766 L46.1667,55.4766 L46.1667,53.1432 L43.8333,53.1432 M47.3333,53.1432 L47.3333,55.4766 L49.6667,55.4766 L49.6667,53.1432 L47.3333,53.1432 M40.3333,56.6432 L40.3333,58.9766 L42.6667,58.9766 L42.6667,56.6432 L40.3333,56.6432 M43.8333,56.6432 L43.8333,58.9766 L46.1667,58.9766 L46.1667,56.6432 L43.8333,56.6432 M47.3333,56.6432 L47.3333,58.9766 L49.6667,58.9766 L49.6667,56.6432 L47.3333,56.6432 M40.3333,60.1432 L40.3333,62.4766 L42.6667,62.4766 L42.6667,60.1432 L40.3333,60.1432 M43.8333,60.1432 L43.8333,62.4766 L46.1667,62.4766 L46.1667,60.1432 L43.8333,60.1432 M47.3333,60.1432 L47.3333,62.4766 L49.6667,62.4766 L49.6667,60.1432 L47.3333,60.1432 " fill="#000000" style="stroke:;stroke-width:0.0;stroke-dasharray:;"/><text fill="#000000" font-family="sans-serif" font-size="14" font-weight="bold" lengthAdjust="spacing" textLength="122" x="55.6667" y="63.0234">dbo.DatabaseLog</text><line style="stroke:#181818;stroke-width:0.5;" x1="9.5" x2="207.5" y1="70.9766" y2="70.9766"/><ellipse cx="19.5" cy="81.9766" fill="#84BE84" rx="3" ry="3" style="stroke:#038048;stroke-width:1.0;"/><text fill="#000000" font-family="sans-serif" font-size="14" font-weight="bold" lengthAdjust="spacing" textLength="174" x="28.5" y="88.5117">(pk) DatabaseLogID : int</text><line style="stroke:#181818;stroke-width:1.0;" x1="9.5" x2="207.5" y1="95.4648" y2="95.4648"/><rect fill="none" height="6" style="stroke:#C82930;stroke-width:1.0;" width="6" x="16.5" y="103.4648"/><text fill="#000000" font-family="sans-serif" font-size="14" lengthAdjust="spacing" textLength="135" x="28.5" y="113">PostTime : datetime</text><rect fill="none" height="6" style="stroke:#C82930;stroke-width:1.0;" width="6" x="16.5" y="119.9531"/><text fill="#000000" font-family="sans-serif" font-size="14" lengthAdjust="spacing" textLength="166" x="28.5" y="129.4883">DatabaseUser : nvarchar</text><rect fill="none" height="6" style="stroke:#C82930;stroke-width:1.0;" width="6" x="16.5" y="136.4414"/><text fill="#000000" font-family="sans-serif" font-size="14" lengthAdjust="spacing" textLength="109" x="28.5" y="145.9766">Event : nvarchar</text><rect fill="none" height="6" style="stroke:#C82930;stroke-width:1.0;" width="6" x="16.5" y="152.9297"/><text fill="#000000" font-family="sans-serif" font-size="14" lengthAdjust="spacing" textLength="125" x="28.5" y="162.4648">Schema : nvarchar</text><rect fill="none" height="6" style="stroke:#C82930;stroke-width:1.0;" width="6" x="16.5" y="169.418"/><text fill="#000000" font-family="sans-serif" font-size="14" lengthAdjust="spacing" textLength="116" x="28.5" y="178.9531">Object : nvarchar</text><rect fill="none" height="6" style="stroke:#C82930;stroke-width:1.0;" width="6" x="16.5" y="185.9063"/><text fill="#000000" font-family="sans-serif" font-size="14" lengthAdjust="spacing" textLength="107" x="28.5" y="195.4414">TSQL : nvarchar</text><rect fill="none" height="6" style="stroke:#C82930;stroke-width:1.0;" width="6" x="16.5" y="202.3945"/><text fill="#000000" font-family="sans-serif" font-size="14" lengthAdjust="spacing" textLength="101" x="28.5" y="211.9297">XmlEvent : xml</text><line style="stroke:#181818;stroke-width:1.0;" x1="9.5" x2="207.5" y1="218.8828" y2="218.8828"/><line style="stroke:#181818;stroke-width:1.0;" x1="9.5" x2="207.5" y1="220.8828" y2="220.8828"/><path d="M19.5833,226.5378 C18.4517,226.5378 17.4367,227.0044 16.7017,227.7394 L20.1667,231.2044 L20.1667,226.5728 C19.98,226.5494 19.7817,226.5378 19.5833,226.5378 M21.3333,227.7744 L21.3333,231.7528 L18.16,234.9261 C18.8717,235.5094 19.7583,235.8711 20.75,235.8711 C23.0017,235.8711 24.8333,234.0394 24.8333,231.7878 C24.8333,229.7344 23.305,228.0661 21.3333,227.7744 M16.5617,229.3028 C15.9083,229.9328 15.5,230.8078 15.5,231.7878 C15.5,232.9078 16.0367,233.8761 16.8533,234.5178 L19.3383,232.0328 L16.5617,229.3028 " fill="#000000" style="stroke:;stroke-width:0.0;stroke-dasharray:;"/><text fill="#000000" font-family="sans-serif" font-size="14" font-weight="bold" lengthAdjust="spacing" textLength="36" x="30.8333" y="236.418">stats</text><text fill="#000000" font-family="sans-serif" font-size="14" lengthAdjust="spacing" textLength="120" x="14.5" y="252.9063">total rows : 1,596</text><text fill="#000000" font-family="sans-serif" font-size="14" lengthAdjust="spacing" textLength="83" x="14.5" y="269.3945">total cols : 8</text><text fill="#000000" font-family="sans-serif" font-size="14" lengthAdjust="spacing" textLength="134" x="14.5" y="285.8828">data size : 6,544 KB</text><text fill="#000000" font-family="sans-serif" font-size="14" lengthAdjust="spacing" textLength="121" x="14.5" y="302.3711">index size : 48 KB</text><line style="stroke:#181818;stroke-width:1.0;" x1="9.5" x2="207.5" y1="309.3242" y2="309.3242"/></g><!--MD5=[aaa33348b87733f47856b642ed89103c]
class dbo.ErrorLog--><g id="elem_dbo.ErrorLog"><rect codeLine="36" fill="#F1F1F1" height="289.3242" id="dbo.ErrorLog" rx="2.5" ry="2.5" style="stroke:#181818;stroke-width:0.5;" width="203" x="7" y="352.4883"/><path d="M55.8333,361.1432 L55.8333,363.4766 L58.1667,363.4766 L58.1667,361.1432 L55.8333,361.1432 M59.3333,361.1432 L59.3333,363.4766 L61.6667,363.4766 L61.6667,361.1432 L59.3333,361.1432 M62.8333,361.1432 L62.8333,363.4766 L65.1667,363.4766 L65.1667,361.1432 L62.8333,361.1432 M55.8333,364.6432 L55.8333,366.9766 L58.1667,366.9766 L58.1667,364.6432 L55.8333,364.6432 M59.3333,364.6432 L59.3333,366.9766 L61.6667,366.9766 L61.6667,364.6432 L59.3333,364.6432 M62.8333,364.6432 L62.8333,366.9766 L65.1667,366.9766 L65.1667,364.6432 L62.8333,364.6432 M55.8333,368.1432 L55.8333,370.4766 L58.1667,370.4766 L58.1667,368.1432 L55.8333,368.1432 M59.3333,368.1432 L59.3333,370.4766 L61.6667,370.4766 L61.6667,368.1432 L59.3333,368.1432 M62.8333,368.1432 L62.8333,370.4766 L65.1667,370.4766 L65.1667,368.1432 L62.8333,368.1432 " fill="#000000" style="stroke:;stroke-width:0.0;stroke-dasharray:;"/><text fill="#000000" font-family="sans-serif" font-size="14" font-weight="bold" lengthAdjust="spacing" textLength="91" x="71.1667" y="371.0234">dbo.ErrorLog</text><line style="stroke:#181818;stroke-width:0.5;" x1="8" x2="209" y1="378.9766" y2="378.9766"/><ellipse cx="18" cy="389.9766" fill="#84BE84" rx="3" ry="3" style="stroke:#038048;stroke-width:1.0;"/><text fill="#000000" font-family="sans-serif" font-size="14" font-weight="bold" lengthAdjust="spacing" textLength="143" x="27" y="396.5117">(pk) ErrorLogID : int</text><line style="stroke:#181818;stroke-width:1.0;" x1="8" x2="209" y1="403.4648" y2="403.4648"/><rect fill="none" height="6" style="stroke:#C82930;stroke-width:1.0;" width="6" x="15" y="411.4648"/><text fill="#000000" font-family="sans-serif" font-size="14" lengthAdjust="spacing" textLength="141" x="27" y="421">ErrorTime : datetime</text><rect fill="none" height="6" style="stroke:#C82930;stroke-width:1.0;" width="6" x="15" y="427.9531"/><text fill="#000000" font-family="sans-serif" font-size="14" lengthAdjust="spacing" textLength="142" x="27" y="437.4883">UserName : nvarchar</text><rect fill="none" height="6" style="stroke:#C82930;stroke-width:1.0;" width="6" x="15" y="444.4414"/><text fill="#000000" font-family="sans-serif" font-size="14" lengthAdjust="spacing" textLength="120" x="27" y="453.9766">ErrorNumber : int</text><rect fill="none" height="6" style="stroke:#C82930;stroke-width:1.0;" width="6" x="15" y="460.9297"/><text fill="#000000" font-family="sans-serif" font-size="14" lengthAdjust="spacing" textLength="118" x="27" y="470.4648">ErrorSeverity : int</text><rect fill="none" height="6" style="stroke:#C82930;stroke-width:1.0;" width="6" x="15" y="477.418"/><text fill="#000000" font-family="sans-serif" font-size="14" lengthAdjust="spacing" textLength="99" x="27" y="486.9531">ErrorState : int</text><rect fill="none" height="6" style="stroke:#C82930;stroke-width:1.0;" width="6" x="15" y="493.9063"/><text fill="#000000" font-family="sans-serif" font-size="14" lengthAdjust="spacing" textLength="177" x="27" y="503.4414">ErrorProcedure : nvarchar</text><rect fill="none" height="6" style="stroke:#C82930;stroke-width:1.0;" width="6" x="15" y="510.3945"/><text fill="#000000" font-family="sans-serif" font-size="14" lengthAdjust="spacing" textLength="93" x="27" y="519.9297">ErrorLine : int</text><rect fill="none" height="6" style="stroke:#C82930;stroke-width:1.0;" width="6" x="15" y="526.8828"/><text fill="#000000" font-family="sans-serif" font-size="14" lengthAdjust="spacing" textLength="166" x="27" y="536.418">ErrorMessage : nvarchar</text><line style="stroke:#181818;stroke-width:1.0;" x1="8" x2="209" y1="543.3711" y2="543.3711"/><line style="stroke:#181818;stroke-width:1.0;" x1="8" x2="209" y1="545.3711" y2="545.3711"/><path d="M18.0833,551.026 C16.9517,551.026 15.9367,551.4927 15.2017,552.2277 L18.6667,555.6927 L18.6667,551.061 C18.48,551.0377 18.2817,551.026 18.0833,551.026 M19.8333,552.2627 L19.8333,556.241 L16.66,559.4144 C17.3717,559.9977 18.2583,560.3594 19.25,560.3594 C21.5017,560.3594 23.3333,558.5277 23.3333,556.276 C23.3333,554.2227 21.805,552.5544 19.8333,552.2627 M15.0617,553.791 C14.4083,554.421 14,555.296 14,556.276 C14,557.396 14.5367,558.3644 15.3533,559.006 L17.8383,556.521 L15.0617,553.791 " fill="#000000" style="stroke:;stroke-width:0.0;stroke-dasharray:;"/><text fill="#000000" font-family="sans-serif" font-size="14" font-weight="bold" lengthAdjust="spacing" textLength="36" x="29.3333" y="560.9063">stats</text><text fill="#000000" font-family="sans-serif" font-size="14" lengthAdjust="spacing" textLength="89" x="13" y="577.3945">total rows : 0</text><text fill="#000000" font-family="sans-serif" font-size="14" lengthAdjust="spacing" textLength="83" x="13" y="593.8828">total cols : 9</text><text fill="#000000" font-family="sans-serif" font-size="14" lengthAdjust="spacing" textLength="103" x="13" y="610.3711">data size : 0 KB</text><text fill="#000000" font-family="sans-serif" font-size="14" lengthAdjust="spacing" textLength="112" x="13" y="626.8594">index size : 0 KB</text><line style="stroke:#181818;stroke-width:1.0;" x1="8" x2="209" y1="633.8125" y2="633.8125"/></g><!--MD5=[706fba21ad28fc252412ee44e693b279]
class dbo.AWBuildVersion--><g id="elem_dbo.AWBuildVersion"><rect codeLine="57" fill="#F1F1F1" height="206.8828" id="dbo.AWBuildVersion" rx="2.5" ry="2.5" style="stroke:#181818;stroke-width:0.5;" width="274" x="280" y="77.4883"/><path d="M337.3333,86.1432 L337.3333,88.4766 L339.6667,88.4766 L339.6667,86.1432 L337.3333,86.1432 M340.8333,86.1432 L340.8333,88.4766 L343.1667,88.4766 L343.1667,86.1432 L340.8333,86.1432 M344.3333,86.1432 L344.3333,88.4766 L346.6667,88.4766 L346.6667,86.1432 L344.3333,86.1432 M337.3333,89.6432 L337.3333,91.9766 L339.6667,91.9766 L339.6667,89.6432 L337.3333,89.6432 M340.8333,89.6432 L340.8333,91.9766 L343.1667,91.9766 L343.1667,89.6432 L340.8333,89.6432 M344.3333,89.6432 L344.3333,91.9766 L346.6667,91.9766 L346.6667,89.6432 L344.3333,89.6432 M337.3333,93.1432 L337.3333,95.4766 L339.6667,95.4766 L339.6667,93.1432 L337.3333,93.1432 M340.8333,93.1432 L340.8333,95.4766 L343.1667,95.4766 L343.1667,93.1432 L340.8333,93.1432 M344.3333,93.1432 L344.3333,95.4766 L346.6667,95.4766 L346.6667,93.1432 L344.3333,93.1432 " fill="#000000" style="stroke:;stroke-width:0.0;stroke-dasharray:;"/><text fill="#000000" font-family="sans-serif" font-size="14" font-weight="bold" lengthAdjust="spacing" textLength="145" x="352.6667" y="96.0234">dbo.AWBuildVersion</text><line style="stroke:#181818;stroke-width:0.5;" x1="281" x2="553" y1="103.9766" y2="103.9766"/><ellipse cx="291" cy="114.9766" fill="#84BE84" rx="3" ry="3" style="stroke:#038048;stroke-width:1.0;"/><text fill="#000000" font-family="sans-serif" font-size="14" font-weight="bold" lengthAdjust="spacing" textLength="248" x="300" y="121.5117">(pk) SystemInformationID : tinyint</text><line style="stroke:#181818;stroke-width:1.0;" x1="281" x2="553" y1="128.4648" y2="128.4648"/><rect fill="none" height="6" style="stroke:#C82930;stroke-width:1.0;" width="6" x="288" y="136.4648"/><text fill="#000000" font-family="sans-serif" font-size="14" lengthAdjust="spacing" textLength="191" x="300" y="146">Database Version : nvarchar</text><rect fill="none" height="6" style="stroke:#C82930;stroke-width:1.0;" width="6" x="288" y="152.9531"/><text fill="#000000" font-family="sans-serif" font-size="14" lengthAdjust="spacing" textLength="155" x="300" y="162.4883">VersionDate : datetime</text><rect fill="none" height="6" style="stroke:#C82930;stroke-width:1.0;" width="6" x="288" y="169.4414"/><text fill="#000000" font-family="sans-serif" font-size="14" lengthAdjust="spacing" textLength="163" x="300" y="178.9766">ModifiedDate : datetime</text><line style="stroke:#181818;stroke-width:1.0;" x1="281" x2="553" y1="185.9297" y2="185.9297"/><line style="stroke:#181818;stroke-width:1.0;" x1="281" x2="553" y1="187.9297" y2="187.9297"/><path d="M291.0833,193.5846 C289.9517,193.5846 288.9367,194.0513 288.2017,194.7863 L291.6667,198.2513 L291.6667,193.6196 C291.48,193.5963 291.2817,193.5846 291.0833,193.5846 M292.8333,194.8213 L292.8333,198.7996 L289.66,201.973 C290.3717,202.5563 291.2583,202.918 292.25,202.918 C294.5017,202.918 296.3333,201.0863 296.3333,198.8346 C296.3333,196.7813 294.805,195.113 292.8333,194.8213 M288.0617,196.3496 C287.4083,196.9796 287,197.8546 287,198.8346 C287,199.9546 287.5367,200.923 288.3533,201.5646 L290.8383,199.0796 L288.0617,196.3496 " fill="#000000" style="stroke:;stroke-width:0.0;stroke-dasharray:;"/><text fill="#000000" font-family="sans-serif" font-size="14" font-weight="bold" lengthAdjust="spacing" textLength="36" x="302.3333" y="203.4648">stats</text><text fill="#000000" font-family="sans-serif" font-size="14" lengthAdjust="spacing" textLength="89" x="286" y="219.9531">total rows : 1</text><text fill="#000000" font-family="sans-serif" font-size="14" lengthAdjust="spacing" textLength="83" x="286" y="236.4414">total cols : 4</text><text fill="#000000" font-family="sans-serif" font-size="14" lengthAdjust="spacing" textLength="112" x="286" y="252.9297">data size : 72 KB</text><text fill="#000000" font-family="sans-serif" font-size="14" lengthAdjust="spacing" textLength="112" x="286" y="269.418">index size : 0 KB</text><line style="stroke:#181818;stroke-width:1.0;" x1="281" x2="553" y1="276.3711" y2="276.3711"/></g><!--MD5=[d7ab133867abefce70937b0c0ddc60e6]
class Production.TransactionHistoryArchive--><g id="elem_Production.TransactionHistoryArchive"><rect codeLine="73" fill="#F1F1F1" height="289.3242" id="Production.TransactionHistoryArchive" rx="2.5" ry="2.5" style="stroke:#181818;stroke-width:0.5;" width="294.3333" x="270" y="319.4883"/><path d="M274,328.1432 L274,330.4766 L276.3333,330.4766 L276.3333,328.1432 L274,328.1432 M277.5,328.1432 L277.5,330.4766 L279.8333,330.4766 L279.8333,328.1432 L277.5,328.1432 M281,328.1432 L281,330.4766 L283.3333,330.4766 L283.3333,328.1432 L281,328.1432 M274,331.6432 L274,333.9766 L276.3333,333.9766 L276.3333,331.6432 L274,331.6432 M277.5,331.6432 L277.5,333.9766 L279.8333,333.9766 L279.8333,331.6432 L277.5,331.6432 M281,331.6432 L281,333.9766 L283.3333,333.9766 L283.3333,331.6432 L281,331.6432 M274,335.1432 L274,337.4766 L276.3333,337.4766 L276.3333,335.1432 L274,335.1432 M277.5,335.1432 L277.5,337.4766 L279.8333,337.4766 L279.8333,335.1432 L277.5,335.1432 M281,335.1432 L281,337.4766 L283.3333,337.4766 L283.3333,335.1432 L281,335.1432 " fill="#000000" style="stroke:;stroke-width:0.0;stroke-dasharray:;"/><text fill="#000000" font-family="sans-serif" font-size="14" font-weight="bold" lengthAdjust="spacing" textLength="272" x="289.3333" y="338.0234">Production.TransactionHistoryArchive</text><line style="stroke:#181818;stroke-width:0.5;" x1="271" x2="563.3333" y1="345.9766" y2="345.9766"/><ellipse cx="281" cy="356.9766" fill="#84BE84" rx="3" ry="3" style="stroke:#038048;stroke-width:1.0;"/><text fill="#000000" font-family="sans-serif" font-size="14" font-weight="bold" lengthAdjust="spacing" textLength="167" x="290" y="363.5117">(pk) TransactionID : int</text><line style="stroke:#181818;stroke-width:1.0;" x1="271" x2="563.3333" y1="370.4648" y2="370.4648"/><rect fill="none" height="6" style="stroke:#C82930;stroke-width:1.0;" width="6" x="278" y="378.4648"/><text fill="#000000" font-family="sans-serif" font-size="14" lengthAdjust="spacing" textLength="97" x="290" y="388">ProductID : int</text><rect fill="none" height="6" style="stroke:#C82930;stroke-width:1.0;" width="6" x="278" y="394.9531"/><text fill="#000000" font-family="sans-serif" font-size="14" lengthAdjust="spacing" textLength="152" x="290" y="404.4883">ReferenceOrderID : int</text><rect fill="none" height="6" style="stroke:#C82930;stroke-width:1.0;" width="6" x="278" y="411.4414"/><text fill="#000000" font-family="sans-serif" font-size="14" lengthAdjust="spacing" textLength="180" x="290" y="420.9766">ReferenceOrderLineID : int</text><rect fill="none" height="6" style="stroke:#C82930;stroke-width:1.0;" width="6" x="278" y="427.9297"/><text fill="#000000" font-family="sans-serif" font-size="14" lengthAdjust="spacing" textLength="184" x="290" y="437.4648">TransactionDate : datetime</text><rect fill="none" height="6" style="stroke:#C82930;stroke-width:1.0;" width="6" x="278" y="444.418"/><text fill="#000000" font-family="sans-serif" font-size="14" lengthAdjust="spacing" textLength="165" x="290" y="453.9531">TransactionType : nchar</text><rect fill="none" height="6" style="stroke:#C82930;stroke-width:1.0;" width="6" x="278" y="460.9063"/><text fill="#000000" font-family="sans-serif" font-size="14" lengthAdjust="spacing" textLength="88" x="290" y="470.4414">Quantity : int</text><rect fill="none" height="6" style="stroke:#C82930;stroke-width:1.0;" width="6" x="278" y="477.3945"/><text fill="#000000" font-family="sans-serif" font-size="14" lengthAdjust="spacing" textLength="132" x="290" y="486.9297">ActualCost : money</text><rect fill="none" height="6" style="stroke:#C82930;stroke-width:1.0;" width="6" x="278" y="493.8828"/><text fill="#000000" font-family="sans-serif" font-size="14" lengthAdjust="spacing" textLength="163" x="290" y="503.418">ModifiedDate : datetime</text><line style="stroke:#181818;stroke-width:1.0;" x1="271" x2="563.3333" y1="510.3711" y2="510.3711"/><line style="stroke:#181818;stroke-width:1.0;" x1="271" x2="563.3333" y1="512.3711" y2="512.3711"/><path d="M281.0833,518.026 C279.9517,518.026 278.9367,518.4927 278.2017,519.2277 L281.6667,522.6927 L281.6667,518.061 C281.48,518.0377 281.2817,518.026 281.0833,518.026 M282.8333,519.2627 L282.8333,523.241 L279.66,526.4144 C280.3717,526.9977 281.2583,527.3594 282.25,527.3594 C284.5017,527.3594 286.3333,525.5277 286.3333,523.276 C286.3333,521.2227 284.805,519.5544 282.8333,519.2627 M278.0617,520.791 C277.4083,521.421 277,522.296 277,523.276 C277,524.396 277.5367,525.3644 278.3533,526.006 L280.8383,523.521 L278.0617,520.791 " fill="#000000" style="stroke:;stroke-width:0.0;stroke-dasharray:;"/><text fill="#000000" font-family="sans-serif" font-size="14" font-weight="bold" lengthAdjust="spacing" textLength="36" x="292.3333" y="527.9063">stats</text><text fill="#000000" font-family="sans-serif" font-size="14" lengthAdjust="spacing" textLength="129" x="276" y="544.3945">total rows : 89,253</text><text fill="#000000" font-family="sans-serif" font-size="14" lengthAdjust="spacing" textLength="83" x="276" y="560.8828">total cols : 9</text><text fill="#000000" font-family="sans-serif" font-size="14" lengthAdjust="spacing" textLength="134" x="276" y="577.3711">data size : 5,064 KB</text><text fill="#000000" font-family="sans-serif" font-size="14" lengthAdjust="spacing" textLength="143" x="276" y="593.8594">index size : 2,864 KB</text><line style="stroke:#181818;stroke-width:1.0;" x1="271" x2="563.3333" y1="600.8125" y2="600.8125"/></g><!--MD5=[1957af4e5edf33498ae0d3cfffbde7ca]
@startuml
skinparam titleBorderRoundCorner 15
skinparam titleBorderThickness 2
skinparam titleBorderColor black
skinparam titleBackgroundColor #DDDDDD
title **:: table erd1 © ::**
!theme _none_
skinparam shadowing False
left to right direction
skinparam linetype polyline
skinparam packageStyle rectangle
hide circle



entity "<&grid-three-up>** dbo.DatabaseLog**" as dbo.DatabaseLog { 
  + **(pk) DatabaseLogID : int**
  - -
  - PostTime : datetime
  - DatabaseUser : nvarchar
  - Event : nvarchar
  - Schema : nvarchar
  - Object : nvarchar
  - TSQL : nvarchar
  - XmlEvent : xml
  ==
  <&pie-chart>** stats**
      total rows : 1,596
      total cols : 8
      data size : 6,544 KB
      index size : 48 KB
  - -
}


entity "<&grid-three-up>** dbo.ErrorLog**" as dbo.ErrorLog { 
  + **(pk) ErrorLogID : int**
  - -
  - ErrorTime : datetime
  - UserName : nvarchar
  - ErrorNumber : int
  - ErrorSeverity : int
  - ErrorState : int
  - ErrorProcedure : nvarchar
  - ErrorLine : int
  - ErrorMessage : nvarchar
  ==
  <&pie-chart>** stats**
      total rows : 0
      total cols : 9
      data size : 0 KB
      index size : 0 KB
  - -
}


entity "<&grid-three-up>** dbo.AWBuildVersion**" as dbo.AWBuildVersion { 
  + **(pk) SystemInformationID : tinyint**
  - -
  - Database Version : nvarchar
  - VersionDate : datetime
  - ModifiedDate : datetime
  ==
  <&pie-chart>** stats**
      total rows : 1
      total cols : 4
      data size : 72 KB
      index size : 0 KB
  - -
}


entity "<&grid-three-up>** Production.TransactionHistoryArchive**" as Production.TransactionHistoryArchive { 
  + **(pk) TransactionID : int**
  - -
  - ProductID : int
  - ReferenceOrderID : int
  - ReferenceOrderLineID : int
  - TransactionDate : datetime
  - TransactionType : nchar
  - Quantity : int
  - ActualCost : money
  - ModifiedDate : datetime
  ==
  <&pie-chart>** stats**
      total rows : 89,253
      total cols : 9
      data size : 5,064 KB
      index size : 2,864 KB
  - -
}


@enduml

@startuml
skinparam titleBorderRoundCorner 15
skinparam titleBorderThickness 2
skinparam titleBorderColor black
skinparam titleBackgroundColor #DDDDDD
title **:: table erd1 © ::**
skinparam shadowing False
left to right direction
skinparam linetype polyline
skinparam packageStyle rectangle
hide circle



entity "<&grid-three-up>** dbo.DatabaseLog**" as dbo.DatabaseLog { 
  + **(pk) DatabaseLogID : int**
  - -
  - PostTime : datetime
  - DatabaseUser : nvarchar
  - Event : nvarchar
  - Schema : nvarchar
  - Object : nvarchar
  - TSQL : nvarchar
  - XmlEvent : xml
  ==
  <&pie-chart>** stats**
      total rows : 1,596
      total cols : 8
      data size : 6,544 KB
      index size : 48 KB
  - -
}


entity "<&grid-three-up>** dbo.ErrorLog**" as dbo.ErrorLog { 
  + **(pk) ErrorLogID : int**
  - -
  - ErrorTime : datetime
  - UserName : nvarchar
  - ErrorNumber : int
  - ErrorSeverity : int
  - ErrorState : int
  - ErrorProcedure : nvarchar
  - ErrorLine : int
  - ErrorMessage : nvarchar
  ==
  <&pie-chart>** stats**
      total rows : 0
      total cols : 9
      data size : 0 KB
      index size : 0 KB
  - -
}


entity "<&grid-three-up>** dbo.AWBuildVersion**" as dbo.AWBuildVersion { 
  + **(pk) SystemInformationID : tinyint**
  - -
  - Database Version : nvarchar
  - VersionDate : datetime
  - ModifiedDate : datetime
  ==
  <&pie-chart>** stats**
      total rows : 1
      total cols : 4
      data size : 72 KB
      index size : 0 KB
  - -
}


entity "<&grid-three-up>** Production.TransactionHistoryArchive**" as Production.TransactionHistoryArchive { 
  + **(pk) TransactionID : int**
  - -
  - ProductID : int
  - ReferenceOrderID : int
  - ReferenceOrderLineID : int
  - TransactionDate : datetime
  - TransactionType : nchar
  - Quantity : int
  - ActualCost : money
  - ModifiedDate : datetime
  ==
  <&pie-chart>** stats**
      total rows : 89,253
      total cols : 9
      data size : 5,064 KB
      index size : 2,864 KB
  - -
}


@enduml

PlantUML version 1.2022.5(Sat Apr 30 06:55:52 EDT 2022)
(GPL source distribution)
Java Runtime: OpenJDK Runtime Environment
JVM: OpenJDK 64-Bit Server VM
Default Encoding: UTF-8
Language: en
Country: CA
--></g></svg>