<?xml version="1.0" encoding="UTF-8" standalone="no"?><svg xmlns="http://www.w3.org/2000/svg" xmlns:xlink="http://www.w3.org/1999/xlink" contentStyleType="text/css" height="124px" preserveAspectRatio="none" style="width:469px;height:124px;background:#FFFFFF;" version="1.1" viewBox="0 0 469 124" width="469px" zoomAndPan="magnify"><defs/><g><rect fill="#F1F1F1" height="20.4883" rx="5" ry="5" style="stroke:#F1F1F1;stroke-width:1.5;" width="22" x="10" y="51"/><text fill="#000000" font-family="sans-serif" font-size="14" lengthAdjust="spacing" textLength="12" x="15" y="66.5352">   </text><rect fill="none" height="20.4883" rx="5" ry="5" style="stroke:#000000;stroke-width:1.5;" width="22" x="10" y="51"/><rect fill="#F1F1F1" height="102.4414" rx="5" ry="5" style="stroke:#F1F1F1;stroke-width:1.5;" width="386" x="71" y="10"/><text fill="#000000" font-family="sans-serif" font-size="14" font-weight="bold" lengthAdjust="spacing" textLength="154" x="76" y="25.5352">SystemInformationID</text><text fill="#000000" font-family="sans-serif" font-size="14" lengthAdjust="spacing" textLength="9" x="240" y="25.5352">1</text><line style="stroke:#000000;stroke-width:1.0;" x1="235" x2="235" y1="10" y2="30.4883"/><line style="stroke:#000000;stroke-width:1.0;" x1="71" x2="457" y1="30.4883" y2="30.4883"/><text fill="#000000" font-family="sans-serif" font-size="14" font-weight="bold" lengthAdjust="spacing" textLength="126" x="76" y="46.0234">Database Version</text><text fill="#000000" font-family="sans-serif" font-size="14" lengthAdjust="spacing" textLength="84" x="240" y="46.0234">13.0.1742.0</text><line style="stroke:#000000;stroke-width:1.0;" x1="235" x2="235" y1="30.4883" y2="50.9766"/><line style="stroke:#000000;stroke-width:1.0;" x1="71" x2="457" y1="50.9766" y2="50.9766"/><text fill="#000000" font-family="sans-serif" font-size="14" font-weight="bold" lengthAdjust="spacing" textLength="88" x="76" y="66.5117">VersionDate</text><text fill="#000000" font-family="sans-serif" font-size="14" lengthAdjust="spacing" textLength="212" x="240" y="66.5117">2017-07-06 01:03:59.653000</text><line style="stroke:#000000;stroke-width:1.0;" x1="235" x2="235" y1="50.9766" y2="71.4648"/><line style="stroke:#000000;stroke-width:1.0;" x1="71" x2="457" y1="71.4648" y2="71.4648"/><text fill="#000000" font-family="sans-serif" font-size="14" font-weight="bold" lengthAdjust="spacing" textLength="97" x="76" y="87">ModifiedDate</text><text fill="#000000" font-family="sans-serif" font-size="14" lengthAdjust="spacing" textLength="212" x="240" y="87">2022-10-26 14:31:41.940000</text><line style="stroke:#000000;stroke-width:1.0;" x1="235" x2="235" y1="71.4648" y2="91.9531"/><line style="stroke:#000000;stroke-width:1.0;" x1="71" x2="457" y1="91.9531" y2="91.9531"/><text fill="#000000" font-family="sans-serif" font-size="14" font-weight="bold" lengthAdjust="spacing" textLength="154" x="76" y="107.4883">SYS_EXEC_DURATION</text><text fill="#000000" font-family="sans-serif" font-size="14" lengthAdjust="spacing" textLength="67" x="240" y="107.4883">0.189625</text><line style="stroke:#000000;stroke-width:1.0;" x1="235" x2="235" y1="91.9531" y2="112.4414"/><rect fill="none" height="102.4414" rx="5" ry="5" style="stroke:#000000;stroke-width:1.5;" width="386" x="71" y="10"/><path d="M21.7826,61 L34.7826,61 C41.9713,61 51.9561,61 63.7644,61 " fill="none" style="stroke:#000000;stroke-width:1.0;stroke-dasharray:3.0,3.0;"/><path d="M63.7644,64.0317 L66.0382,61 L63.7644,57.9683 L71.3436,61 L63.7644,64.0317 " fill="#000000" style="stroke:#000000;stroke-width:1.0;"/><ellipse cx="21.7826" cy="61" fill="#000000" rx="3" ry="3" style="stroke:#000000;stroke-width:1.0;"/><!--MD5=[d78ccc3a346bcf809a6dafc1b4570ab8]
@startjson
[
    {
        "SystemInformationID": 1,
        "Database Version": "13.0.1742.0",
        "VersionDate": "2017-07-06 01:03:59.653000",
        "ModifiedDate": "2022-10-26 14:31:41.940000",
        "SYS_EXEC_DURATION": "0.189625"
    }
]
@endjson

PlantUML version 1.2022.5(Sat Apr 30 06:55:52 EDT 2022)
(GPL source distribution)
Java Runtime: OpenJDK Runtime Environment
JVM: OpenJDK 64-Bit Server VM
Default Encoding: UTF-8
Language: en
Country: CA
--></g></svg>