<?xml version="1.0" encoding="UTF-8" standalone="no"?><svg xmlns="http://www.w3.org/2000/svg" xmlns:xlink="http://www.w3.org/1999/xlink" contentStyleType="text/css" height="426px" preserveAspectRatio="none" style="width:411px;height:426px;background:#FFFFFF;" version="1.1" viewBox="0 0 411 426" width="411px" zoomAndPan="magnify"><defs/><g><rect fill="#F1F1F1" height="61.4648" rx="5" ry="5" style="stroke:#F1F1F1;stroke-width:1.5;" width="22" x="10" y="183"/><text fill="#000000" font-family="sans-serif" font-size="14" lengthAdjust="spacing" textLength="12" x="15" y="198.5352">   </text><line style="stroke:#000000;stroke-width:1.0;" x1="10" x2="32" y1="203.4883" y2="203.4883"/><text fill="#000000" font-family="sans-serif" font-size="14" lengthAdjust="spacing" textLength="12" x="15" y="219.0234">   </text><line style="stroke:#000000;stroke-width:1.0;" x1="10" x2="32" y1="223.9766" y2="223.9766"/><text fill="#000000" font-family="sans-serif" font-size="14" lengthAdjust="spacing" textLength="12" x="15" y="239.5117">   </text><rect fill="none" height="61.4648" rx="5" ry="5" style="stroke:#000000;stroke-width:1.5;" width="22" x="10" y="183"/><rect fill="#F1F1F1" height="122.9297" rx="5" ry="5" style="stroke:#F1F1F1;stroke-width:1.5;" width="328" x="71" y="10"/><text fill="#000000" font-family="sans-serif" font-size="14" font-weight="bold" lengthAdjust="spacing" textLength="50" x="76" y="25.5352">ShiftID</text><text fill="#000000" font-family="sans-serif" font-size="14" lengthAdjust="spacing" textLength="9" x="240" y="25.5352">1</text><line style="stroke:#000000;stroke-width:1.0;" x1="235" x2="235" y1="10" y2="30.4883"/><line style="stroke:#000000;stroke-width:1.0;" x1="71" x2="399" y1="30.4883" y2="30.4883"/><text fill="#000000" font-family="sans-serif" font-size="14" font-weight="bold" lengthAdjust="spacing" textLength="41" x="76" y="46.0234">Name</text><text fill="#000000" font-family="sans-serif" font-size="14" lengthAdjust="spacing" textLength="25" x="240" y="46.0234">Day</text><line style="stroke:#000000;stroke-width:1.0;" x1="235" x2="235" y1="30.4883" y2="50.9766"/><line style="stroke:#000000;stroke-width:1.0;" x1="71" x2="399" y1="50.9766" y2="50.9766"/><text fill="#000000" font-family="sans-serif" font-size="14" font-weight="bold" lengthAdjust="spacing" textLength="71" x="76" y="66.5117">StartTime</text><text fill="#000000" font-family="sans-serif" font-size="14" lengthAdjust="spacing" textLength="62" x="240" y="66.5117">07:00:00</text><line style="stroke:#000000;stroke-width:1.0;" x1="235" x2="235" y1="50.9766" y2="71.4648"/><line style="stroke:#000000;stroke-width:1.0;" x1="71" x2="399" y1="71.4648" y2="71.4648"/><text fill="#000000" font-family="sans-serif" font-size="14" font-weight="bold" lengthAdjust="spacing" textLength="63" x="76" y="87">EndTime</text><text fill="#000000" font-family="sans-serif" font-size="14" lengthAdjust="spacing" textLength="62" x="240" y="87">15:00:00</text><line style="stroke:#000000;stroke-width:1.0;" x1="235" x2="235" y1="71.4648" y2="91.9531"/><line style="stroke:#000000;stroke-width:1.0;" x1="71" x2="399" y1="91.9531" y2="91.9531"/><text fill="#000000" font-family="sans-serif" font-size="14" font-weight="bold" lengthAdjust="spacing" textLength="97" x="76" y="107.4883">ModifiedDate</text><text fill="#000000" font-family="sans-serif" font-size="14" lengthAdjust="spacing" textLength="154" x="240" y="107.4883">2008-04-30 00:00:00</text><line style="stroke:#000000;stroke-width:1.0;" x1="235" x2="235" y1="91.9531" y2="112.4414"/><line style="stroke:#000000;stroke-width:1.0;" x1="71" x2="399" y1="112.4414" y2="112.4414"/><text fill="#000000" font-family="sans-serif" font-size="14" font-weight="bold" lengthAdjust="spacing" textLength="154" x="76" y="127.9766">SYS_EXEC_DURATION</text><text fill="#000000" font-family="sans-serif" font-size="14" lengthAdjust="spacing" textLength="67" x="240" y="127.9766">0.186525</text><line style="stroke:#000000;stroke-width:1.0;" x1="235" x2="235" y1="112.4414" y2="132.9297"/><rect fill="none" height="122.9297" rx="5" ry="5" style="stroke:#000000;stroke-width:1.5;" width="328" x="71" y="10"/><rect fill="#F1F1F1" height="122.9297" rx="5" ry="5" style="stroke:#F1F1F1;stroke-width:1.5;" width="328" x="71" y="151"/><text fill="#000000" font-family="sans-serif" font-size="14" font-weight="bold" lengthAdjust="spacing" textLength="50" x="76" y="166.5352">ShiftID</text><text fill="#000000" font-family="sans-serif" font-size="14" lengthAdjust="spacing" textLength="9" x="240" y="166.5352">2</text><line style="stroke:#000000;stroke-width:1.0;" x1="235" x2="235" y1="151" y2="171.4883"/><line style="stroke:#000000;stroke-width:1.0;" x1="71" x2="399" y1="171.4883" y2="171.4883"/><text fill="#000000" font-family="sans-serif" font-size="14" font-weight="bold" lengthAdjust="spacing" textLength="41" x="76" y="187.0234">Name</text><text fill="#000000" font-family="sans-serif" font-size="14" lengthAdjust="spacing" textLength="54" x="240" y="187.0234">Evening</text><line style="stroke:#000000;stroke-width:1.0;" x1="235" x2="235" y1="171.4883" y2="191.9766"/><line style="stroke:#000000;stroke-width:1.0;" x1="71" x2="399" y1="191.9766" y2="191.9766"/><text fill="#000000" font-family="sans-serif" font-size="14" font-weight="bold" lengthAdjust="spacing" textLength="71" x="76" y="207.5117">StartTime</text><text fill="#000000" font-family="sans-serif" font-size="14" lengthAdjust="spacing" textLength="62" x="240" y="207.5117">15:00:00</text><line style="stroke:#000000;stroke-width:1.0;" x1="235" x2="235" y1="191.9766" y2="212.4648"/><line style="stroke:#000000;stroke-width:1.0;" x1="71" x2="399" y1="212.4648" y2="212.4648"/><text fill="#000000" font-family="sans-serif" font-size="14" font-weight="bold" lengthAdjust="spacing" textLength="63" x="76" y="228">EndTime</text><text fill="#000000" font-family="sans-serif" font-size="14" lengthAdjust="spacing" textLength="62" x="240" y="228">23:00:00</text><line style="stroke:#000000;stroke-width:1.0;" x1="235" x2="235" y1="212.4648" y2="232.9531"/><line style="stroke:#000000;stroke-width:1.0;" x1="71" x2="399" y1="232.9531" y2="232.9531"/><text fill="#000000" font-family="sans-serif" font-size="14" font-weight="bold" lengthAdjust="spacing" textLength="97" x="76" y="248.4883">ModifiedDate</text><text fill="#000000" font-family="sans-serif" font-size="14" lengthAdjust="spacing" textLength="154" x="240" y="248.4883">2008-04-30 00:00:00</text><line style="stroke:#000000;stroke-width:1.0;" x1="235" x2="235" y1="232.9531" y2="253.4414"/><line style="stroke:#000000;stroke-width:1.0;" x1="71" x2="399" y1="253.4414" y2="253.4414"/><text fill="#000000" font-family="sans-serif" font-size="14" font-weight="bold" lengthAdjust="spacing" textLength="154" x="76" y="268.9766">SYS_EXEC_DURATION</text><text fill="#000000" font-family="sans-serif" font-size="14" lengthAdjust="spacing" textLength="67" x="240" y="268.9766">0.186693</text><line style="stroke:#000000;stroke-width:1.0;" x1="235" x2="235" y1="253.4414" y2="273.9297"/><rect fill="none" height="122.9297" rx="5" ry="5" style="stroke:#000000;stroke-width:1.5;" width="328" x="71" y="151"/><rect fill="#F1F1F1" height="122.9297" rx="5" ry="5" style="stroke:#F1F1F1;stroke-width:1.5;" width="328" x="71" y="292"/><text fill="#000000" font-family="sans-serif" font-size="14" font-weight="bold" lengthAdjust="spacing" textLength="50" x="76" y="307.5352">ShiftID</text><text fill="#000000" font-family="sans-serif" font-size="14" lengthAdjust="spacing" textLength="9" x="240" y="307.5352">3</text><line style="stroke:#000000;stroke-width:1.0;" x1="235" x2="235" y1="292" y2="312.4883"/><line style="stroke:#000000;stroke-width:1.0;" x1="71" x2="399" y1="312.4883" y2="312.4883"/><text fill="#000000" font-family="sans-serif" font-size="14" font-weight="bold" lengthAdjust="spacing" textLength="41" x="76" y="328.0234">Name</text><text fill="#000000" font-family="sans-serif" font-size="14" lengthAdjust="spacing" textLength="37" x="240" y="328.0234">Night</text><line style="stroke:#000000;stroke-width:1.0;" x1="235" x2="235" y1="312.4883" y2="332.9766"/><line style="stroke:#000000;stroke-width:1.0;" x1="71" x2="399" y1="332.9766" y2="332.9766"/><text fill="#000000" font-family="sans-serif" font-size="14" font-weight="bold" lengthAdjust="spacing" textLength="71" x="76" y="348.5117">StartTime</text><text fill="#000000" font-family="sans-serif" font-size="14" lengthAdjust="spacing" textLength="62" x="240" y="348.5117">23:00:00</text><line style="stroke:#000000;stroke-width:1.0;" x1="235" x2="235" y1="332.9766" y2="353.4648"/><line style="stroke:#000000;stroke-width:1.0;" x1="71" x2="399" y1="353.4648" y2="353.4648"/><text fill="#000000" font-family="sans-serif" font-size="14" font-weight="bold" lengthAdjust="spacing" textLength="63" x="76" y="369">EndTime</text><text fill="#000000" font-family="sans-serif" font-size="14" lengthAdjust="spacing" textLength="62" x="240" y="369">07:00:00</text><line style="stroke:#000000;stroke-width:1.0;" x1="235" x2="235" y1="353.4648" y2="373.9531"/><line style="stroke:#000000;stroke-width:1.0;" x1="71" x2="399" y1="373.9531" y2="373.9531"/><text fill="#000000" font-family="sans-serif" font-size="14" font-weight="bold" lengthAdjust="spacing" textLength="97" x="76" y="389.4883">ModifiedDate</text><text fill="#000000" font-family="sans-serif" font-size="14" lengthAdjust="spacing" textLength="154" x="240" y="389.4883">2008-04-30 00:00:00</text><line style="stroke:#000000;stroke-width:1.0;" x1="235" x2="235" y1="373.9531" y2="394.4414"/><line style="stroke:#000000;stroke-width:1.0;" x1="71" x2="399" y1="394.4414" y2="394.4414"/><text fill="#000000" font-family="sans-serif" font-size="14" font-weight="bold" lengthAdjust="spacing" textLength="154" x="76" y="409.9766">SYS_EXEC_DURATION</text><text fill="#000000" font-family="sans-serif" font-size="14" lengthAdjust="spacing" textLength="67" x="240" y="409.9766">0.186759</text><line style="stroke:#000000;stroke-width:1.0;" x1="235" x2="235" y1="394.4414" y2="414.9297"/><rect fill="none" height="122.9297" rx="5" ry="5" style="stroke:#000000;stroke-width:1.5;" width="328" x="71" y="292"/><path d="M22,192.5 L35,192.5 C62.7449,192.5 49.4321,158.9529 71,141.5 C72.5752,140.2253 74.1771,138.97 75.8033,137.7339 " fill="none" style="stroke:#000000;stroke-width:1.0;stroke-dasharray:3.0,3.0;"/><path d="M77.6725,140.289 L77.7196,136.332 L73.9341,135.1788 L82.1909,133.0609 L77.6725,140.289 " fill="#000000" style="stroke:#000000;stroke-width:1.0;"/><ellipse cx="22" cy="192.5" fill="#000000" rx="3" ry="3" style="stroke:#000000;stroke-width:1.0;"/><path d="M22,212.5 L35,212.5 C44.453,212.5 54.158,212.5 63.9538,212.5 " fill="none" style="stroke:#000000;stroke-width:1.0;stroke-dasharray:3.0,3.0;"/><path d="M63.9538,215.5024 L66.2056,212.5 L63.9538,209.4976 L71.4597,212.5 L63.9538,215.5024 " fill="#000000" style="stroke:#000000;stroke-width:1.0;"/><ellipse cx="22" cy="212.5" fill="#000000" rx="3" ry="3" style="stroke:#000000;stroke-width:1.0;"/><path d="M22,233.5 L35,233.5 C62.383,233.5 49.633,266.3746 71,283.5 C72.5812,284.7673 74.1887,286.0156 75.8202,287.2451 " fill="none" style="stroke:#000000;stroke-width:1.0;stroke-dasharray:3.0,3.0;"/><path d="M73.9605,289.8078 L77.7423,288.6398 L77.6799,284.6823 L82.2271,291.8942 L73.9605,289.8078 " fill="#000000" style="stroke:#000000;stroke-width:1.0;"/><ellipse cx="22" cy="233.5" fill="#000000" rx="3" ry="3" style="stroke:#000000;stroke-width:1.0;"/><!--MD5=[793e168da466d22f62a58c03387f5ccf]
@startjson
[
    {
        "ShiftID": 1,
        "Name": "Day",
        "StartTime": "07:00:00",
        "EndTime": "15:00:00",
        "ModifiedDate": "2008-04-30 00:00:00",
        "SYS_EXEC_DURATION": "0.186525"
    },
    {
        "ShiftID": 2,
        "Name": "Evening",
        "StartTime": "15:00:00",
        "EndTime": "23:00:00",
        "ModifiedDate": "2008-04-30 00:00:00",
        "SYS_EXEC_DURATION": "0.186693"
    },
    {
        "ShiftID": 3,
        "Name": "Night",
        "StartTime": "23:00:00",
        "EndTime": "07:00:00",
        "ModifiedDate": "2008-04-30 00:00:00",
        "SYS_EXEC_DURATION": "0.186759"
    }
]
@endjson

PlantUML version 1.2022.5(Sat Apr 30 06:55:52 EDT 2022)
(GPL source distribution)
Java Runtime: OpenJDK Runtime Environment
JVM: OpenJDK 64-Bit Server VM
Default Encoding: UTF-8
Language: en
Country: CA
--></g></svg>