<?xml version="1.0" encoding="UTF-8" standalone="no"?><svg xmlns="http://www.w3.org/2000/svg" xmlns:xlink="http://www.w3.org/1999/xlink" contentStyleType="text/css" height="604px" preserveAspectRatio="none" style="width:585px;height:604px;background:#FFFFFF;" version="1.1" viewBox="0 0 585 604" width="585px" zoomAndPan="magnify"><defs/><g><rect fill="#F1F1F1" height="102.4414" rx="5" ry="5" style="stroke:#F1F1F1;stroke-width:1.5;" width="22" x="10" y="251"/><text fill="#000000" font-family="sans-serif" font-size="14" lengthAdjust="spacing" textLength="12" x="15" y="266.5352">   </text><line style="stroke:#000000;stroke-width:1.0;" x1="10" x2="32" y1="271.4883" y2="271.4883"/><text fill="#000000" font-family="sans-serif" font-size="14" lengthAdjust="spacing" textLength="12" x="15" y="287.0234">   </text><line style="stroke:#000000;stroke-width:1.0;" x1="10" x2="32" y1="291.9766" y2="291.9766"/><text fill="#000000" font-family="sans-serif" font-size="14" lengthAdjust="spacing" textLength="12" x="15" y="307.5117">   </text><line style="stroke:#000000;stroke-width:1.0;" x1="10" x2="32" y1="312.4648" y2="312.4648"/><text fill="#000000" font-family="sans-serif" font-size="14" lengthAdjust="spacing" textLength="12" x="15" y="328">   </text><line style="stroke:#000000;stroke-width:1.0;" x1="10" x2="32" y1="332.9531" y2="332.9531"/><text fill="#000000" font-family="sans-serif" font-size="14" lengthAdjust="spacing" textLength="12" x="15" y="348.4883">   </text><rect fill="none" height="102.4414" rx="5" ry="5" style="stroke:#000000;stroke-width:1.5;" width="22" x="10" y="251"/><rect fill="#F1F1F1" height="102.4414" rx="5" ry="5" style="stroke:#F1F1F1;stroke-width:1.5;" width="485" x="79.5" y="10"/><text fill="#000000" font-family="sans-serif" font-size="14" font-weight="bold" lengthAdjust="spacing" textLength="109" x="84.5" y="25.5352">AddressTypeID</text><text fill="#000000" font-family="sans-serif" font-size="14" lengthAdjust="spacing" textLength="9" x="248.5" y="25.5352">1</text><line style="stroke:#000000;stroke-width:1.0;" x1="243.5" x2="243.5" y1="10" y2="30.4883"/><line style="stroke:#000000;stroke-width:1.0;" x1="79.5" x2="564.5" y1="30.4883" y2="30.4883"/><text fill="#000000" font-family="sans-serif" font-size="14" font-weight="bold" lengthAdjust="spacing" textLength="41" x="84.5" y="46.0234">Name</text><text fill="#000000" font-family="sans-serif" font-size="14" lengthAdjust="spacing" textLength="42" x="248.5" y="46.0234">Billing</text><line style="stroke:#000000;stroke-width:1.0;" x1="243.5" x2="243.5" y1="30.4883" y2="50.9766"/><line style="stroke:#000000;stroke-width:1.0;" x1="79.5" x2="564.5" y1="50.9766" y2="50.9766"/><text fill="#000000" font-family="sans-serif" font-size="14" font-weight="bold" lengthAdjust="spacing" textLength="59" x="84.5" y="66.5117">rowguid</text><text fill="#000000" font-family="sans-serif" font-size="14" lengthAdjust="spacing" textLength="311" x="248.5" y="66.5117">B84F78B1-4EFE-4A0E-8CB7-70E9F112F886</text><line style="stroke:#000000;stroke-width:1.0;" x1="243.5" x2="243.5" y1="50.9766" y2="71.4648"/><line style="stroke:#000000;stroke-width:1.0;" x1="79.5" x2="564.5" y1="71.4648" y2="71.4648"/><text fill="#000000" font-family="sans-serif" font-size="14" font-weight="bold" lengthAdjust="spacing" textLength="97" x="84.5" y="87">ModifiedDate</text><text fill="#000000" font-family="sans-serif" font-size="14" lengthAdjust="spacing" textLength="154" x="248.5" y="87">2008-04-30 00:00:00</text><line style="stroke:#000000;stroke-width:1.0;" x1="243.5" x2="243.5" y1="71.4648" y2="91.9531"/><line style="stroke:#000000;stroke-width:1.0;" x1="79.5" x2="564.5" y1="91.9531" y2="91.9531"/><text fill="#000000" font-family="sans-serif" font-size="14" font-weight="bold" lengthAdjust="spacing" textLength="154" x="84.5" y="107.4883">SYS_EXEC_DURATION</text><text fill="#000000" font-family="sans-serif" font-size="14" lengthAdjust="spacing" textLength="67" x="248.5" y="107.4883">0.189382</text><line style="stroke:#000000;stroke-width:1.0;" x1="243.5" x2="243.5" y1="91.9531" y2="112.4414"/><rect fill="none" height="102.4414" rx="5" ry="5" style="stroke:#000000;stroke-width:1.5;" width="485" x="79.5" y="10"/><rect fill="#F1F1F1" height="102.4414" rx="5" ry="5" style="stroke:#F1F1F1;stroke-width:1.5;" width="490" x="77" y="130"/><text fill="#000000" font-family="sans-serif" font-size="14" font-weight="bold" lengthAdjust="spacing" textLength="109" x="82" y="145.5352">AddressTypeID</text><text fill="#000000" font-family="sans-serif" font-size="14" lengthAdjust="spacing" textLength="9" x="246" y="145.5352">2</text><line style="stroke:#000000;stroke-width:1.0;" x1="241" x2="241" y1="130" y2="150.4883"/><line style="stroke:#000000;stroke-width:1.0;" x1="77" x2="567" y1="150.4883" y2="150.4883"/><text fill="#000000" font-family="sans-serif" font-size="14" font-weight="bold" lengthAdjust="spacing" textLength="41" x="82" y="166.0234">Name</text><text fill="#000000" font-family="sans-serif" font-size="14" lengthAdjust="spacing" textLength="40" x="246" y="166.0234">Home</text><line style="stroke:#000000;stroke-width:1.0;" x1="241" x2="241" y1="150.4883" y2="170.9766"/><line style="stroke:#000000;stroke-width:1.0;" x1="77" x2="567" y1="170.9766" y2="170.9766"/><text fill="#000000" font-family="sans-serif" font-size="14" font-weight="bold" lengthAdjust="spacing" textLength="59" x="82" y="186.5117">rowguid</text><text fill="#000000" font-family="sans-serif" font-size="14" lengthAdjust="spacing" textLength="316" x="246" y="186.5117">41BC2FF6-F0FC-475F-8EB9-CEC0805AA0F2</text><line style="stroke:#000000;stroke-width:1.0;" x1="241" x2="241" y1="170.9766" y2="191.4648"/><line style="stroke:#000000;stroke-width:1.0;" x1="77" x2="567" y1="191.4648" y2="191.4648"/><text fill="#000000" font-family="sans-serif" font-size="14" font-weight="bold" lengthAdjust="spacing" textLength="97" x="82" y="207">ModifiedDate</text><text fill="#000000" font-family="sans-serif" font-size="14" lengthAdjust="spacing" textLength="154" x="246" y="207">2008-04-30 00:00:00</text><line style="stroke:#000000;stroke-width:1.0;" x1="241" x2="241" y1="191.4648" y2="211.9531"/><line style="stroke:#000000;stroke-width:1.0;" x1="77" x2="567" y1="211.9531" y2="211.9531"/><text fill="#000000" font-family="sans-serif" font-size="14" font-weight="bold" lengthAdjust="spacing" textLength="154" x="82" y="227.4883">SYS_EXEC_DURATION</text><text fill="#000000" font-family="sans-serif" font-size="14" lengthAdjust="spacing" textLength="67" x="246" y="227.4883">0.189573</text><line style="stroke:#000000;stroke-width:1.0;" x1="241" x2="241" y1="211.9531" y2="232.4414"/><rect fill="none" height="102.4414" rx="5" ry="5" style="stroke:#000000;stroke-width:1.5;" width="490" x="77" y="130"/><rect fill="#F1F1F1" height="102.4414" rx="5" ry="5" style="stroke:#F1F1F1;stroke-width:1.5;" width="496" x="74" y="250"/><text fill="#000000" font-family="sans-serif" font-size="14" font-weight="bold" lengthAdjust="spacing" textLength="109" x="79" y="265.5352">AddressTypeID</text><text fill="#000000" font-family="sans-serif" font-size="14" lengthAdjust="spacing" textLength="9" x="243" y="265.5352">3</text><line style="stroke:#000000;stroke-width:1.0;" x1="238" x2="238" y1="250" y2="270.4883"/><line style="stroke:#000000;stroke-width:1.0;" x1="74" x2="570" y1="270.4883" y2="270.4883"/><text fill="#000000" font-family="sans-serif" font-size="14" font-weight="bold" lengthAdjust="spacing" textLength="41" x="79" y="286.0234">Name</text><text fill="#000000" font-family="sans-serif" font-size="14" lengthAdjust="spacing" textLength="77" x="243" y="286.0234">Main Office</text><line style="stroke:#000000;stroke-width:1.0;" x1="238" x2="238" y1="270.4883" y2="290.9766"/><line style="stroke:#000000;stroke-width:1.0;" x1="74" x2="570" y1="290.9766" y2="290.9766"/><text fill="#000000" font-family="sans-serif" font-size="14" font-weight="bold" lengthAdjust="spacing" textLength="59" x="79" y="306.5117">rowguid</text><text fill="#000000" font-family="sans-serif" font-size="14" lengthAdjust="spacing" textLength="322" x="243" y="306.5117">8EEEC28C-07A2-4FB9-AD0A-42D4A0BBC575</text><line style="stroke:#000000;stroke-width:1.0;" x1="238" x2="238" y1="290.9766" y2="311.4648"/><line style="stroke:#000000;stroke-width:1.0;" x1="74" x2="570" y1="311.4648" y2="311.4648"/><text fill="#000000" font-family="sans-serif" font-size="14" font-weight="bold" lengthAdjust="spacing" textLength="97" x="79" y="327">ModifiedDate</text><text fill="#000000" font-family="sans-serif" font-size="14" lengthAdjust="spacing" textLength="154" x="243" y="327">2008-04-30 00:00:00</text><line style="stroke:#000000;stroke-width:1.0;" x1="238" x2="238" y1="311.4648" y2="331.9531"/><line style="stroke:#000000;stroke-width:1.0;" x1="74" x2="570" y1="331.9531" y2="331.9531"/><text fill="#000000" font-family="sans-serif" font-size="14" font-weight="bold" lengthAdjust="spacing" textLength="154" x="79" y="347.4883">SYS_EXEC_DURATION</text><text fill="#000000" font-family="sans-serif" font-size="14" lengthAdjust="spacing" textLength="67" x="243" y="347.4883">0.189739</text><line style="stroke:#000000;stroke-width:1.0;" x1="238" x2="238" y1="331.9531" y2="352.4414"/><rect fill="none" height="102.4414" rx="5" ry="5" style="stroke:#000000;stroke-width:1.5;" width="496" x="74" y="250"/><rect fill="#F1F1F1" height="102.4414" rx="5" ry="5" style="stroke:#F1F1F1;stroke-width:1.5;" width="495" x="74.5" y="370"/><text fill="#000000" font-family="sans-serif" font-size="14" font-weight="bold" lengthAdjust="spacing" textLength="109" x="79.5" y="385.5352">AddressTypeID</text><text fill="#000000" font-family="sans-serif" font-size="14" lengthAdjust="spacing" textLength="9" x="243.5" y="385.5352">4</text><line style="stroke:#000000;stroke-width:1.0;" x1="238.5" x2="238.5" y1="370" y2="390.4883"/><line style="stroke:#000000;stroke-width:1.0;" x1="74.5" x2="569.5" y1="390.4883" y2="390.4883"/><text fill="#000000" font-family="sans-serif" font-size="14" font-weight="bold" lengthAdjust="spacing" textLength="41" x="79.5" y="406.0234">Name</text><text fill="#000000" font-family="sans-serif" font-size="14" lengthAdjust="spacing" textLength="52" x="243.5" y="406.0234">Primary</text><line style="stroke:#000000;stroke-width:1.0;" x1="238.5" x2="238.5" y1="390.4883" y2="410.9766"/><line style="stroke:#000000;stroke-width:1.0;" x1="74.5" x2="569.5" y1="410.9766" y2="410.9766"/><text fill="#000000" font-family="sans-serif" font-size="14" font-weight="bold" lengthAdjust="spacing" textLength="59" x="79.5" y="426.5117">rowguid</text><text fill="#000000" font-family="sans-serif" font-size="14" lengthAdjust="spacing" textLength="321" x="243.5" y="426.5117">24CB3088-4345-47C4-86C5-17B535133D1E</text><line style="stroke:#000000;stroke-width:1.0;" x1="238.5" x2="238.5" y1="410.9766" y2="431.4648"/><line style="stroke:#000000;stroke-width:1.0;" x1="74.5" x2="569.5" y1="431.4648" y2="431.4648"/><text fill="#000000" font-family="sans-serif" font-size="14" font-weight="bold" lengthAdjust="spacing" textLength="97" x="79.5" y="447">ModifiedDate</text><text fill="#000000" font-family="sans-serif" font-size="14" lengthAdjust="spacing" textLength="154" x="243.5" y="447">2008-04-30 00:00:00</text><line style="stroke:#000000;stroke-width:1.0;" x1="238.5" x2="238.5" y1="431.4648" y2="451.9531"/><line style="stroke:#000000;stroke-width:1.0;" x1="74.5" x2="569.5" y1="451.9531" y2="451.9531"/><text fill="#000000" font-family="sans-serif" font-size="14" font-weight="bold" lengthAdjust="spacing" textLength="154" x="79.5" y="467.4883">SYS_EXEC_DURATION</text><text fill="#000000" font-family="sans-serif" font-size="14" lengthAdjust="spacing" textLength="67" x="243.5" y="467.4883">0.189805</text><line style="stroke:#000000;stroke-width:1.0;" x1="238.5" x2="238.5" y1="451.9531" y2="472.4414"/><rect fill="none" height="102.4414" rx="5" ry="5" style="stroke:#000000;stroke-width:1.5;" width="495" x="74.5" y="370"/><rect fill="#F1F1F1" height="102.4414" rx="5" ry="5" style="stroke:#F1F1F1;stroke-width:1.5;" width="502" x="71" y="490"/><text fill="#000000" font-family="sans-serif" font-size="14" font-weight="bold" lengthAdjust="spacing" textLength="109" x="76" y="505.5352">AddressTypeID</text><text fill="#000000" font-family="sans-serif" font-size="14" lengthAdjust="spacing" textLength="9" x="240" y="505.5352">5</text><line style="stroke:#000000;stroke-width:1.0;" x1="235" x2="235" y1="490" y2="510.4883"/><line style="stroke:#000000;stroke-width:1.0;" x1="71" x2="573" y1="510.4883" y2="510.4883"/><text fill="#000000" font-family="sans-serif" font-size="14" font-weight="bold" lengthAdjust="spacing" textLength="41" x="76" y="526.0234">Name</text><text fill="#000000" font-family="sans-serif" font-size="14" lengthAdjust="spacing" textLength="61" x="240" y="526.0234">Shipping</text><line style="stroke:#000000;stroke-width:1.0;" x1="235" x2="235" y1="510.4883" y2="530.9766"/><line style="stroke:#000000;stroke-width:1.0;" x1="71" x2="573" y1="530.9766" y2="530.9766"/><text fill="#000000" font-family="sans-serif" font-size="14" font-weight="bold" lengthAdjust="spacing" textLength="59" x="76" y="546.5117">rowguid</text><text fill="#000000" font-family="sans-serif" font-size="14" lengthAdjust="spacing" textLength="328" x="240" y="546.5117">B29DA3F8-19A3-47DA-9DAA-15C84F4A83A5</text><line style="stroke:#000000;stroke-width:1.0;" x1="235" x2="235" y1="530.9766" y2="551.4648"/><line style="stroke:#000000;stroke-width:1.0;" x1="71" x2="573" y1="551.4648" y2="551.4648"/><text fill="#000000" font-family="sans-serif" font-size="14" font-weight="bold" lengthAdjust="spacing" textLength="97" x="76" y="567">ModifiedDate</text><text fill="#000000" font-family="sans-serif" font-size="14" lengthAdjust="spacing" textLength="154" x="240" y="567">2008-04-30 00:00:00</text><line style="stroke:#000000;stroke-width:1.0;" x1="235" x2="235" y1="551.4648" y2="571.9531"/><line style="stroke:#000000;stroke-width:1.0;" x1="71" x2="573" y1="571.9531" y2="571.9531"/><text fill="#000000" font-family="sans-serif" font-size="14" font-weight="bold" lengthAdjust="spacing" textLength="154" x="76" y="587.4883">SYS_EXEC_DURATION</text><text fill="#000000" font-family="sans-serif" font-size="14" lengthAdjust="spacing" textLength="67" x="240" y="587.4883">0.189876</text><line style="stroke:#000000;stroke-width:1.0;" x1="235" x2="235" y1="571.9531" y2="592.4414"/><rect fill="none" height="102.4414" rx="5" ry="5" style="stroke:#000000;stroke-width:1.5;" width="502" x="71" y="490"/><path d="M22,261 L35,261 C99.2464,261 25.1955,166.0505 71,121 C72.3949,119.6281 73.8152,118.2855 75.2598,116.9718 " fill="none" style="stroke:#000000;stroke-width:1.0;stroke-dasharray:3.0,3.0;"/><path d="M77.2302,119.2474 L76.9666,115.4939 L73.2894,114.6961 L80.9491,112.0457 L77.2302,119.2474 " fill="#000000" style="stroke:#000000;stroke-width:1.0;"/><ellipse cx="22" cy="261" fill="#000000" rx="3" ry="3" style="stroke:#000000;stroke-width:1.0;"/><path d="M22,281 L35,281 C58.9176,281 50.4432,253.2258 71,241 C74.1379,239.1338 77.3305,237.3256 80.571,235.5736 " fill="none" style="stroke:#000000;stroke-width:1.0;stroke-dasharray:3.0,3.0;"/><path d="M81.9781,238.2603 L82.586,234.5182 L79.1638,232.8869 L87.2877,232.0557 L81.9781,238.2603 " fill="#000000" style="stroke:#000000;stroke-width:1.0;"/><ellipse cx="22" cy="281" fill="#000000" rx="3" ry="3" style="stroke:#000000;stroke-width:1.0;"/><path d="M22,301 L35,301 C45.3064,301 55.8213,301 66.4435,301 " fill="none" style="stroke:#000000;stroke-width:1.0;stroke-dasharray:3.0,3.0;"/><path d="M66.4435,304.1009 L68.7692,301 L66.4435,297.8991 L74.1957,301 L66.4435,304.1009 " fill="#000000" style="stroke:#000000;stroke-width:1.0;"/><ellipse cx="22" cy="301" fill="#000000" rx="3" ry="3" style="stroke:#000000;stroke-width:1.0;"/><path d="M22,322 L35,322 C58.5891,322 50.65,349.0702 71,361 C74.1496,362.8464 77.3531,364.6361 80.6039,366.3707 " fill="none" style="stroke:#000000;stroke-width:1.0;stroke-dasharray:3.0,3.0;"/><path d="M79.2103,369.0655 L82.6249,367.4159 L81.9974,363.676 L87.3407,369.8547 L79.2103,369.0655 " fill="#000000" style="stroke:#000000;stroke-width:1.0;"/><ellipse cx="22" cy="322" fill="#000000" rx="3" ry="3" style="stroke:#000000;stroke-width:1.0;"/><path d="M22,343 L35,343 C98.3859,343 25.7314,436.6319 71,481 C72.3973,482.3695 73.8199,483.7097 75.2667,485.0212 " fill="none" style="stroke:#000000;stroke-width:1.0;stroke-dasharray:3.0,3.0;"/><path d="M73.2997,487.3002 L76.976,486.4965 L77.2338,482.7422 L80.9642,489.9389 L73.2997,487.3002 " fill="#000000" style="stroke:#000000;stroke-width:1.0;"/><ellipse cx="22" cy="343" fill="#000000" rx="3" ry="3" style="stroke:#000000;stroke-width:1.0;"/><!--MD5=[2075a5fd80805d12c0f7f549d81e42c6]
@startjson
[
    {
        "AddressTypeID": 1,
        "Name": "Billing",
        "rowguid": "B84F78B1-4EFE-4A0E-8CB7-70E9F112F886",
        "ModifiedDate": "2008-04-30 00:00:00",
        "SYS_EXEC_DURATION": "0.189382"
    },
    {
        "AddressTypeID": 2,
        "Name": "Home",
        "rowguid": "41BC2FF6-F0FC-475F-8EB9-CEC0805AA0F2",
        "ModifiedDate": "2008-04-30 00:00:00",
        "SYS_EXEC_DURATION": "0.189573"
    },
    {
        "AddressTypeID": 3,
        "Name": "Main Office",
        "rowguid": "8EEEC28C-07A2-4FB9-AD0A-42D4A0BBC575",
        "ModifiedDate": "2008-04-30 00:00:00",
        "SYS_EXEC_DURATION": "0.189739"
    },
    {
        "AddressTypeID": 4,
        "Name": "Primary",
        "rowguid": "24CB3088-4345-47C4-86C5-17B535133D1E",
        "ModifiedDate": "2008-04-30 00:00:00",
        "SYS_EXEC_DURATION": "0.189805"
    },
    {
        "AddressTypeID": 5,
        "Name": "Shipping",
        "rowguid": "B29DA3F8-19A3-47DA-9DAA-15C84F4A83A5",
        "ModifiedDate": "2008-04-30 00:00:00",
        "SYS_EXEC_DURATION": "0.189876"
    }
]
@endjson

PlantUML version 1.2022.5(Sat Apr 30 06:55:52 EDT 2022)
(GPL source distribution)
Java Runtime: OpenJDK Runtime Environment
JVM: OpenJDK 64-Bit Server VM
Default Encoding: UTF-8
Language: en
Country: CA
--></g></svg>