<?xml version="1.0" encoding="UTF-8" standalone="no"?><svg xmlns="http://www.w3.org/2000/svg" xmlns:xlink="http://www.w3.org/1999/xlink" contentStyleType="text/css" height="503px" preserveAspectRatio="none" style="width:469px;height:503px;background:#FFFFFF;" version="1.1" viewBox="0 0 469 503" width="469px" zoomAndPan="magnify"><defs/><g><rect fill="#F1F1F1" height="102.4414" rx="5" ry="5" style="stroke:#F1F1F1;stroke-width:1.5;" width="22" x="10" y="201"/><text fill="#000000" font-family="sans-serif" font-size="14" lengthAdjust="spacing" textLength="12" x="15" y="216.5352">   </text><line style="stroke:#000000;stroke-width:1.0;" x1="10" x2="32" y1="221.4883" y2="221.4883"/><text fill="#000000" font-family="sans-serif" font-size="14" lengthAdjust="spacing" textLength="12" x="15" y="237.0234">   </text><line style="stroke:#000000;stroke-width:1.0;" x1="10" x2="32" y1="241.9766" y2="241.9766"/><text fill="#000000" font-family="sans-serif" font-size="14" lengthAdjust="spacing" textLength="12" x="15" y="257.5117">   </text><line style="stroke:#000000;stroke-width:1.0;" x1="10" x2="32" y1="262.4648" y2="262.4648"/><text fill="#000000" font-family="sans-serif" font-size="14" lengthAdjust="spacing" textLength="12" x="15" y="278">   </text><line style="stroke:#000000;stroke-width:1.0;" x1="10" x2="32" y1="282.9531" y2="282.9531"/><text fill="#000000" font-family="sans-serif" font-size="14" lengthAdjust="spacing" textLength="12" x="15" y="298.4883">   </text><rect fill="none" height="102.4414" rx="5" ry="5" style="stroke:#000000;stroke-width:1.5;" width="22" x="10" y="201"/><rect fill="#F1F1F1" height="81.9531" rx="5" ry="5" style="stroke:#F1F1F1;stroke-width:1.5;" width="386" x="71" y="10"/><text fill="#000000" font-family="sans-serif" font-size="14" font-weight="bold" lengthAdjust="spacing" textLength="115" x="76" y="25.5352">ProductModelID</text><text fill="#000000" font-family="sans-serif" font-size="14" lengthAdjust="spacing" textLength="9" x="240" y="25.5352">7</text><line style="stroke:#000000;stroke-width:1.0;" x1="235" x2="235" y1="10" y2="30.4883"/><line style="stroke:#000000;stroke-width:1.0;" x1="71" x2="457" y1="30.4883" y2="30.4883"/><text fill="#000000" font-family="sans-serif" font-size="14" font-weight="bold" lengthAdjust="spacing" textLength="97" x="76" y="46.0234">IllustrationID</text><text fill="#000000" font-family="sans-serif" font-size="14" lengthAdjust="spacing" textLength="9" x="240" y="46.0234">3</text><line style="stroke:#000000;stroke-width:1.0;" x1="235" x2="235" y1="30.4883" y2="50.9766"/><line style="stroke:#000000;stroke-width:1.0;" x1="71" x2="457" y1="50.9766" y2="50.9766"/><text fill="#000000" font-family="sans-serif" font-size="14" font-weight="bold" lengthAdjust="spacing" textLength="97" x="76" y="66.5117">ModifiedDate</text><text fill="#000000" font-family="sans-serif" font-size="14" lengthAdjust="spacing" textLength="212" x="240" y="66.5117">2014-01-09 14:41:02.167000</text><line style="stroke:#000000;stroke-width:1.0;" x1="235" x2="235" y1="50.9766" y2="71.4648"/><line style="stroke:#000000;stroke-width:1.0;" x1="71" x2="457" y1="71.4648" y2="71.4648"/><text fill="#000000" font-family="sans-serif" font-size="14" font-weight="bold" lengthAdjust="spacing" textLength="154" x="76" y="87">SYS_EXEC_DURATION</text><text fill="#000000" font-family="sans-serif" font-size="14" lengthAdjust="spacing" textLength="67" x="240" y="87">0.178629</text><line style="stroke:#000000;stroke-width:1.0;" x1="235" x2="235" y1="71.4648" y2="91.9531"/><rect fill="none" height="81.9531" rx="5" ry="5" style="stroke:#000000;stroke-width:1.5;" width="386" x="71" y="10"/><rect fill="#F1F1F1" height="81.9531" rx="5" ry="5" style="stroke:#F1F1F1;stroke-width:1.5;" width="386" x="71" y="110"/><text fill="#000000" font-family="sans-serif" font-size="14" font-weight="bold" lengthAdjust="spacing" textLength="115" x="76" y="125.5352">ProductModelID</text><text fill="#000000" font-family="sans-serif" font-size="14" lengthAdjust="spacing" textLength="18" x="240" y="125.5352">10</text><line style="stroke:#000000;stroke-width:1.0;" x1="235" x2="235" y1="110" y2="130.4883"/><line style="stroke:#000000;stroke-width:1.0;" x1="71" x2="457" y1="130.4883" y2="130.4883"/><text fill="#000000" font-family="sans-serif" font-size="14" font-weight="bold" lengthAdjust="spacing" textLength="97" x="76" y="146.0234">IllustrationID</text><text fill="#000000" font-family="sans-serif" font-size="14" lengthAdjust="spacing" textLength="9" x="240" y="146.0234">3</text><line style="stroke:#000000;stroke-width:1.0;" x1="235" x2="235" y1="130.4883" y2="150.9766"/><line style="stroke:#000000;stroke-width:1.0;" x1="71" x2="457" y1="150.9766" y2="150.9766"/><text fill="#000000" font-family="sans-serif" font-size="14" font-weight="bold" lengthAdjust="spacing" textLength="97" x="76" y="166.5117">ModifiedDate</text><text fill="#000000" font-family="sans-serif" font-size="14" lengthAdjust="spacing" textLength="212" x="240" y="166.5117">2014-01-09 14:41:02.167000</text><line style="stroke:#000000;stroke-width:1.0;" x1="235" x2="235" y1="150.9766" y2="171.4648"/><line style="stroke:#000000;stroke-width:1.0;" x1="71" x2="457" y1="171.4648" y2="171.4648"/><text fill="#000000" font-family="sans-serif" font-size="14" font-weight="bold" lengthAdjust="spacing" textLength="154" x="76" y="187">SYS_EXEC_DURATION</text><text fill="#000000" font-family="sans-serif" font-size="14" lengthAdjust="spacing" textLength="67" x="240" y="187">0.178758</text><line style="stroke:#000000;stroke-width:1.0;" x1="235" x2="235" y1="171.4648" y2="191.9531"/><rect fill="none" height="81.9531" rx="5" ry="5" style="stroke:#000000;stroke-width:1.5;" width="386" x="71" y="110"/><rect fill="#F1F1F1" height="81.9531" rx="5" ry="5" style="stroke:#F1F1F1;stroke-width:1.5;" width="386" x="71" y="210"/><text fill="#000000" font-family="sans-serif" font-size="14" font-weight="bold" lengthAdjust="spacing" textLength="115" x="76" y="225.5352">ProductModelID</text><text fill="#000000" font-family="sans-serif" font-size="14" lengthAdjust="spacing" textLength="18" x="240" y="225.5352">47</text><line style="stroke:#000000;stroke-width:1.0;" x1="235" x2="235" y1="210" y2="230.4883"/><line style="stroke:#000000;stroke-width:1.0;" x1="71" x2="457" y1="230.4883" y2="230.4883"/><text fill="#000000" font-family="sans-serif" font-size="14" font-weight="bold" lengthAdjust="spacing" textLength="97" x="76" y="246.0234">IllustrationID</text><text fill="#000000" font-family="sans-serif" font-size="14" lengthAdjust="spacing" textLength="9" x="240" y="246.0234">4</text><line style="stroke:#000000;stroke-width:1.0;" x1="235" x2="235" y1="230.4883" y2="250.9766"/><line style="stroke:#000000;stroke-width:1.0;" x1="71" x2="457" y1="250.9766" y2="250.9766"/><text fill="#000000" font-family="sans-serif" font-size="14" font-weight="bold" lengthAdjust="spacing" textLength="97" x="76" y="266.5117">ModifiedDate</text><text fill="#000000" font-family="sans-serif" font-size="14" lengthAdjust="spacing" textLength="212" x="240" y="266.5117">2014-01-09 14:41:02.183000</text><line style="stroke:#000000;stroke-width:1.0;" x1="235" x2="235" y1="250.9766" y2="271.4648"/><line style="stroke:#000000;stroke-width:1.0;" x1="71" x2="457" y1="271.4648" y2="271.4648"/><text fill="#000000" font-family="sans-serif" font-size="14" font-weight="bold" lengthAdjust="spacing" textLength="154" x="76" y="287">SYS_EXEC_DURATION</text><text fill="#000000" font-family="sans-serif" font-size="14" lengthAdjust="spacing" textLength="49" x="240" y="287">0.1788</text><line style="stroke:#000000;stroke-width:1.0;" x1="235" x2="235" y1="271.4648" y2="291.9531"/><rect fill="none" height="81.9531" rx="5" ry="5" style="stroke:#000000;stroke-width:1.5;" width="386" x="71" y="210"/><rect fill="#F1F1F1" height="81.9531" rx="5" ry="5" style="stroke:#F1F1F1;stroke-width:1.5;" width="386" x="71" y="310"/><text fill="#000000" font-family="sans-serif" font-size="14" font-weight="bold" lengthAdjust="spacing" textLength="115" x="76" y="325.5352">ProductModelID</text><text fill="#000000" font-family="sans-serif" font-size="14" lengthAdjust="spacing" textLength="18" x="240" y="325.5352">47</text><line style="stroke:#000000;stroke-width:1.0;" x1="235" x2="235" y1="310" y2="330.4883"/><line style="stroke:#000000;stroke-width:1.0;" x1="71" x2="457" y1="330.4883" y2="330.4883"/><text fill="#000000" font-family="sans-serif" font-size="14" font-weight="bold" lengthAdjust="spacing" textLength="97" x="76" y="346.0234">IllustrationID</text><text fill="#000000" font-family="sans-serif" font-size="14" lengthAdjust="spacing" textLength="9" x="240" y="346.0234">5</text><line style="stroke:#000000;stroke-width:1.0;" x1="235" x2="235" y1="330.4883" y2="350.9766"/><line style="stroke:#000000;stroke-width:1.0;" x1="71" x2="457" y1="350.9766" y2="350.9766"/><text fill="#000000" font-family="sans-serif" font-size="14" font-weight="bold" lengthAdjust="spacing" textLength="97" x="76" y="366.5117">ModifiedDate</text><text fill="#000000" font-family="sans-serif" font-size="14" lengthAdjust="spacing" textLength="212" x="240" y="366.5117">2014-01-09 14:41:02.183000</text><line style="stroke:#000000;stroke-width:1.0;" x1="235" x2="235" y1="350.9766" y2="371.4648"/><line style="stroke:#000000;stroke-width:1.0;" x1="71" x2="457" y1="371.4648" y2="371.4648"/><text fill="#000000" font-family="sans-serif" font-size="14" font-weight="bold" lengthAdjust="spacing" textLength="154" x="76" y="387">SYS_EXEC_DURATION</text><text fill="#000000" font-family="sans-serif" font-size="14" lengthAdjust="spacing" textLength="67" x="240" y="387">0.178838</text><line style="stroke:#000000;stroke-width:1.0;" x1="235" x2="235" y1="371.4648" y2="391.9531"/><rect fill="none" height="81.9531" rx="5" ry="5" style="stroke:#000000;stroke-width:1.5;" width="386" x="71" y="310"/><rect fill="#F1F1F1" height="81.9531" rx="5" ry="5" style="stroke:#F1F1F1;stroke-width:1.5;" width="386" x="71" y="410"/><text fill="#000000" font-family="sans-serif" font-size="14" font-weight="bold" lengthAdjust="spacing" textLength="115" x="76" y="425.5352">ProductModelID</text><text fill="#000000" font-family="sans-serif" font-size="14" lengthAdjust="spacing" textLength="18" x="240" y="425.5352">48</text><line style="stroke:#000000;stroke-width:1.0;" x1="235" x2="235" y1="410" y2="430.4883"/><line style="stroke:#000000;stroke-width:1.0;" x1="71" x2="457" y1="430.4883" y2="430.4883"/><text fill="#000000" font-family="sans-serif" font-size="14" font-weight="bold" lengthAdjust="spacing" textLength="97" x="76" y="446.0234">IllustrationID</text><text fill="#000000" font-family="sans-serif" font-size="14" lengthAdjust="spacing" textLength="9" x="240" y="446.0234">4</text><line style="stroke:#000000;stroke-width:1.0;" x1="235" x2="235" y1="430.4883" y2="450.9766"/><line style="stroke:#000000;stroke-width:1.0;" x1="71" x2="457" y1="450.9766" y2="450.9766"/><text fill="#000000" font-family="sans-serif" font-size="14" font-weight="bold" lengthAdjust="spacing" textLength="97" x="76" y="466.5117">ModifiedDate</text><text fill="#000000" font-family="sans-serif" font-size="14" lengthAdjust="spacing" textLength="212" x="240" y="466.5117">2014-01-09 14:41:02.183000</text><line style="stroke:#000000;stroke-width:1.0;" x1="235" x2="235" y1="450.9766" y2="471.4648"/><line style="stroke:#000000;stroke-width:1.0;" x1="71" x2="457" y1="471.4648" y2="471.4648"/><text fill="#000000" font-family="sans-serif" font-size="14" font-weight="bold" lengthAdjust="spacing" textLength="154" x="76" y="487">SYS_EXEC_DURATION</text><text fill="#000000" font-family="sans-serif" font-size="14" lengthAdjust="spacing" textLength="67" x="240" y="487">0.178887</text><line style="stroke:#000000;stroke-width:1.0;" x1="235" x2="235" y1="471.4648" y2="491.9531"/><rect fill="none" height="81.9531" rx="5" ry="5" style="stroke:#000000;stroke-width:1.5;" width="386" x="71" y="410"/><path d="M22,211 L35,211 C86.4405,211 33.5133,136.226 71,101 C72.4862,99.6035 74.0062,98.2447 75.5578,96.9228 " fill="none" style="stroke:#000000;stroke-width:1.0;stroke-dasharray:3.0,3.0;"/><path d="M77.5251,99.3773 L77.3987,95.4474 L73.5905,94.4684 L81.6939,92.0046 L77.5251,99.3773 " fill="#000000" style="stroke:#000000;stroke-width:1.0;"/><ellipse cx="22" cy="211" fill="#000000" rx="3" ry="3" style="stroke:#000000;stroke-width:1.0;"/><path d="M22,231 L35,231 C55.8273,231 52.473,210.5146 71,201 C74.9354,198.979 78.9591,197.035 83.0523,195.1654 " fill="none" style="stroke:#000000;stroke-width:1.0;stroke-dasharray:3.0,3.0;"/><path d="M84.283,197.9458 L85.1377,194.2424 L81.8217,192.385 L90.0034,192.0888 L84.283,197.9458 " fill="#000000" style="stroke:#000000;stroke-width:1.0;"/><ellipse cx="22" cy="231" fill="#000000" rx="3" ry="3" style="stroke:#000000;stroke-width:1.0;"/><path d="M22,251 L35,251 C44.3124,251 53.8383,251 63.4602,251 " fill="none" style="stroke:#000000;stroke-width:1.0;stroke-dasharray:3.0,3.0;"/><path d="M63.4602,254.094 L65.7807,251 L63.4602,247.906 L71.1952,251 L63.4602,254.094 " fill="#000000" style="stroke:#000000;stroke-width:1.0;"/><ellipse cx="22" cy="251" fill="#000000" rx="3" ry="3" style="stroke:#000000;stroke-width:1.0;"/><path d="M22,272 L35,272 C55.5456,272 52.6462,291.7663 71,301 C75.0509,303.038 79.1927,304.9985 83.4056,306.884 " fill="none" style="stroke:#000000;stroke-width:1.0;stroke-dasharray:3.0,3.0;"/><path d="M82.1644,309.7454 L85.5516,307.8149 L84.6468,304.0226 L90.559,309.987 L82.1644,309.7454 " fill="#000000" style="stroke:#000000;stroke-width:1.0;"/><ellipse cx="22" cy="272" fill="#000000" rx="3" ry="3" style="stroke:#000000;stroke-width:1.0;"/><path d="M22,293 L35,293 C85.5964,293 34.0339,366.4529 71,401 C72.49,402.3925 74.0137,403.7473 75.5687,405.0655 " fill="none" style="stroke:#000000;stroke-width:1.0;stroke-dasharray:3.0,3.0;"/><path d="M73.6068,407.525 L77.4133,406.537 L77.5307,402.6061 L81.7174,409.9704 L73.6068,407.525 " fill="#000000" style="stroke:#000000;stroke-width:1.0;"/><ellipse cx="22" cy="293" fill="#000000" rx="3" ry="3" style="stroke:#000000;stroke-width:1.0;"/><!--MD5=[37c1a2faf7fd91e1f26eb1a0dda22d9e]
@startjson
[
    {
        "ProductModelID": 7,
        "IllustrationID": 3,
        "ModifiedDate": "2014-01-09 14:41:02.167000",
        "SYS_EXEC_DURATION": "0.178629"
    },
    {
        "ProductModelID": 10,
        "IllustrationID": 3,
        "ModifiedDate": "2014-01-09 14:41:02.167000",
        "SYS_EXEC_DURATION": "0.178758"
    },
    {
        "ProductModelID": 47,
        "IllustrationID": 4,
        "ModifiedDate": "2014-01-09 14:41:02.183000",
        "SYS_EXEC_DURATION": "0.1788"
    },
    {
        "ProductModelID": 47,
        "IllustrationID": 5,
        "ModifiedDate": "2014-01-09 14:41:02.183000",
        "SYS_EXEC_DURATION": "0.178838"
    },
    {
        "ProductModelID": 48,
        "IllustrationID": 4,
        "ModifiedDate": "2014-01-09 14:41:02.183000",
        "SYS_EXEC_DURATION": "0.178887"
    }
]
@endjson

PlantUML version 1.2022.5(Sat Apr 30 06:55:52 EDT 2022)
(GPL source distribution)
Java Runtime: OpenJDK Runtime Environment
JVM: OpenJDK 64-Bit Server VM
Default Encoding: UTF-8
Language: en
Country: CA
--></g></svg>