<?xml version="1.0" encoding="UTF-8" standalone="no"?><svg xmlns="http://www.w3.org/2000/svg" xmlns:xlink="http://www.w3.org/1999/xlink" contentStyleType="text/css" height="503px" preserveAspectRatio="none" style="width:469px;height:503px;background:#FFFFFF;" version="1.1" viewBox="0 0 469 503" width="469px" zoomAndPan="magnify"><defs/><g><rect fill="#F1F1F1" height="102.4414" rx="5" ry="5" style="stroke:#F1F1F1;stroke-width:1.5;" width="22" x="10" y="201"/><text fill="#000000" font-family="sans-serif" font-size="14" lengthAdjust="spacing" textLength="12" x="15" y="216.5352">   </text><line style="stroke:#000000;stroke-width:1.0;" x1="10" x2="32" y1="221.4883" y2="221.4883"/><text fill="#000000" font-family="sans-serif" font-size="14" lengthAdjust="spacing" textLength="12" x="15" y="237.0234">   </text><line style="stroke:#000000;stroke-width:1.0;" x1="10" x2="32" y1="241.9766" y2="241.9766"/><text fill="#000000" font-family="sans-serif" font-size="14" lengthAdjust="spacing" textLength="12" x="15" y="257.5117">   </text><line style="stroke:#000000;stroke-width:1.0;" x1="10" x2="32" y1="262.4648" y2="262.4648"/><text fill="#000000" font-family="sans-serif" font-size="14" lengthAdjust="spacing" textLength="12" x="15" y="278">   </text><line style="stroke:#000000;stroke-width:1.0;" x1="10" x2="32" y1="282.9531" y2="282.9531"/><text fill="#000000" font-family="sans-serif" font-size="14" lengthAdjust="spacing" textLength="12" x="15" y="298.4883">   </text><rect fill="none" height="102.4414" rx="5" ry="5" style="stroke:#000000;stroke-width:1.5;" width="22" x="10" y="201"/><rect fill="#F1F1F1" height="81.9531" rx="5" ry="5" style="stroke:#F1F1F1;stroke-width:1.5;" width="386" x="71" y="10"/><text fill="#000000" font-family="sans-serif" font-size="14" font-weight="bold" lengthAdjust="spacing" textLength="143" x="76" y="25.5352">CountryRegionCode</text><text fill="#000000" font-family="sans-serif" font-size="14" lengthAdjust="spacing" textLength="18" x="240" y="25.5352">AE</text><line style="stroke:#000000;stroke-width:1.0;" x1="235" x2="235" y1="10" y2="30.4883"/><line style="stroke:#000000;stroke-width:1.0;" x1="71" x2="457" y1="30.4883" y2="30.4883"/><text fill="#000000" font-family="sans-serif" font-size="14" font-weight="bold" lengthAdjust="spacing" textLength="99" x="76" y="46.0234">CurrencyCode</text><text fill="#000000" font-family="sans-serif" font-size="14" lengthAdjust="spacing" textLength="28" x="240" y="46.0234">AED</text><line style="stroke:#000000;stroke-width:1.0;" x1="235" x2="235" y1="30.4883" y2="50.9766"/><line style="stroke:#000000;stroke-width:1.0;" x1="71" x2="457" y1="50.9766" y2="50.9766"/><text fill="#000000" font-family="sans-serif" font-size="14" font-weight="bold" lengthAdjust="spacing" textLength="97" x="76" y="66.5117">ModifiedDate</text><text fill="#000000" font-family="sans-serif" font-size="14" lengthAdjust="spacing" textLength="212" x="240" y="66.5117">2014-02-08 10:17:21.510000</text><line style="stroke:#000000;stroke-width:1.0;" x1="235" x2="235" y1="50.9766" y2="71.4648"/><line style="stroke:#000000;stroke-width:1.0;" x1="71" x2="457" y1="71.4648" y2="71.4648"/><text fill="#000000" font-family="sans-serif" font-size="14" font-weight="bold" lengthAdjust="spacing" textLength="154" x="76" y="87">SYS_EXEC_DURATION</text><text fill="#000000" font-family="sans-serif" font-size="14" lengthAdjust="spacing" textLength="67" x="240" y="87">0.178249</text><line style="stroke:#000000;stroke-width:1.0;" x1="235" x2="235" y1="71.4648" y2="91.9531"/><rect fill="none" height="81.9531" rx="5" ry="5" style="stroke:#000000;stroke-width:1.5;" width="386" x="71" y="10"/><rect fill="#F1F1F1" height="81.9531" rx="5" ry="5" style="stroke:#F1F1F1;stroke-width:1.5;" width="386" x="71" y="110"/><text fill="#000000" font-family="sans-serif" font-size="14" font-weight="bold" lengthAdjust="spacing" textLength="143" x="76" y="125.5352">CountryRegionCode</text><text fill="#000000" font-family="sans-serif" font-size="14" lengthAdjust="spacing" textLength="19" x="240" y="125.5352">AR</text><line style="stroke:#000000;stroke-width:1.0;" x1="235" x2="235" y1="110" y2="130.4883"/><line style="stroke:#000000;stroke-width:1.0;" x1="71" x2="457" y1="130.4883" y2="130.4883"/><text fill="#000000" font-family="sans-serif" font-size="14" font-weight="bold" lengthAdjust="spacing" textLength="99" x="76" y="146.0234">CurrencyCode</text><text fill="#000000" font-family="sans-serif" font-size="14" lengthAdjust="spacing" textLength="27" x="240" y="146.0234">ARS</text><line style="stroke:#000000;stroke-width:1.0;" x1="235" x2="235" y1="130.4883" y2="150.9766"/><line style="stroke:#000000;stroke-width:1.0;" x1="71" x2="457" y1="150.9766" y2="150.9766"/><text fill="#000000" font-family="sans-serif" font-size="14" font-weight="bold" lengthAdjust="spacing" textLength="97" x="76" y="166.5117">ModifiedDate</text><text fill="#000000" font-family="sans-serif" font-size="14" lengthAdjust="spacing" textLength="212" x="240" y="166.5117">2014-02-08 10:17:21.510000</text><line style="stroke:#000000;stroke-width:1.0;" x1="235" x2="235" y1="150.9766" y2="171.4648"/><line style="stroke:#000000;stroke-width:1.0;" x1="71" x2="457" y1="171.4648" y2="171.4648"/><text fill="#000000" font-family="sans-serif" font-size="14" font-weight="bold" lengthAdjust="spacing" textLength="154" x="76" y="187">SYS_EXEC_DURATION</text><text fill="#000000" font-family="sans-serif" font-size="14" lengthAdjust="spacing" textLength="67" x="240" y="187">0.178372</text><line style="stroke:#000000;stroke-width:1.0;" x1="235" x2="235" y1="171.4648" y2="191.9531"/><rect fill="none" height="81.9531" rx="5" ry="5" style="stroke:#000000;stroke-width:1.5;" width="386" x="71" y="110"/><rect fill="#F1F1F1" height="81.9531" rx="5" ry="5" style="stroke:#F1F1F1;stroke-width:1.5;" width="386" x="71" y="210"/><text fill="#000000" font-family="sans-serif" font-size="14" font-weight="bold" lengthAdjust="spacing" textLength="143" x="76" y="225.5352">CountryRegionCode</text><text fill="#000000" font-family="sans-serif" font-size="14" lengthAdjust="spacing" textLength="19" x="240" y="225.5352">AT</text><line style="stroke:#000000;stroke-width:1.0;" x1="235" x2="235" y1="210" y2="230.4883"/><line style="stroke:#000000;stroke-width:1.0;" x1="71" x2="457" y1="230.4883" y2="230.4883"/><text fill="#000000" font-family="sans-serif" font-size="14" font-weight="bold" lengthAdjust="spacing" textLength="99" x="76" y="246.0234">CurrencyCode</text><text fill="#000000" font-family="sans-serif" font-size="14" lengthAdjust="spacing" textLength="27" x="240" y="246.0234">ATS</text><line style="stroke:#000000;stroke-width:1.0;" x1="235" x2="235" y1="230.4883" y2="250.9766"/><line style="stroke:#000000;stroke-width:1.0;" x1="71" x2="457" y1="250.9766" y2="250.9766"/><text fill="#000000" font-family="sans-serif" font-size="14" font-weight="bold" lengthAdjust="spacing" textLength="97" x="76" y="266.5117">ModifiedDate</text><text fill="#000000" font-family="sans-serif" font-size="14" lengthAdjust="spacing" textLength="212" x="240" y="266.5117">2014-02-08 10:17:21.510000</text><line style="stroke:#000000;stroke-width:1.0;" x1="235" x2="235" y1="250.9766" y2="271.4648"/><line style="stroke:#000000;stroke-width:1.0;" x1="71" x2="457" y1="271.4648" y2="271.4648"/><text fill="#000000" font-family="sans-serif" font-size="14" font-weight="bold" lengthAdjust="spacing" textLength="154" x="76" y="287">SYS_EXEC_DURATION</text><text fill="#000000" font-family="sans-serif" font-size="14" lengthAdjust="spacing" textLength="67" x="240" y="287">0.178416</text><line style="stroke:#000000;stroke-width:1.0;" x1="235" x2="235" y1="271.4648" y2="291.9531"/><rect fill="none" height="81.9531" rx="5" ry="5" style="stroke:#000000;stroke-width:1.5;" width="386" x="71" y="210"/><rect fill="#F1F1F1" height="81.9531" rx="5" ry="5" style="stroke:#F1F1F1;stroke-width:1.5;" width="328" x="100" y="310"/><text fill="#000000" font-family="sans-serif" font-size="14" font-weight="bold" lengthAdjust="spacing" textLength="143" x="105" y="325.5352">CountryRegionCode</text><text fill="#000000" font-family="sans-serif" font-size="14" lengthAdjust="spacing" textLength="19" x="269" y="325.5352">AT</text><line style="stroke:#000000;stroke-width:1.0;" x1="264" x2="264" y1="310" y2="330.4883"/><line style="stroke:#000000;stroke-width:1.0;" x1="100" x2="428" y1="330.4883" y2="330.4883"/><text fill="#000000" font-family="sans-serif" font-size="14" font-weight="bold" lengthAdjust="spacing" textLength="99" x="105" y="346.0234">CurrencyCode</text><text fill="#000000" font-family="sans-serif" font-size="14" lengthAdjust="spacing" textLength="27" x="269" y="346.0234">EUR</text><line style="stroke:#000000;stroke-width:1.0;" x1="264" x2="264" y1="330.4883" y2="350.9766"/><line style="stroke:#000000;stroke-width:1.0;" x1="100" x2="428" y1="350.9766" y2="350.9766"/><text fill="#000000" font-family="sans-serif" font-size="14" font-weight="bold" lengthAdjust="spacing" textLength="97" x="105" y="366.5117">ModifiedDate</text><text fill="#000000" font-family="sans-serif" font-size="14" lengthAdjust="spacing" textLength="154" x="269" y="366.5117">2008-04-30 00:00:00</text><line style="stroke:#000000;stroke-width:1.0;" x1="264" x2="264" y1="350.9766" y2="371.4648"/><line style="stroke:#000000;stroke-width:1.0;" x1="100" x2="428" y1="371.4648" y2="371.4648"/><text fill="#000000" font-family="sans-serif" font-size="14" font-weight="bold" lengthAdjust="spacing" textLength="154" x="105" y="387">SYS_EXEC_DURATION</text><text fill="#000000" font-family="sans-serif" font-size="14" lengthAdjust="spacing" textLength="67" x="269" y="387">0.178455</text><line style="stroke:#000000;stroke-width:1.0;" x1="264" x2="264" y1="371.4648" y2="391.9531"/><rect fill="none" height="81.9531" rx="5" ry="5" style="stroke:#000000;stroke-width:1.5;" width="328" x="100" y="310"/><rect fill="#F1F1F1" height="81.9531" rx="5" ry="5" style="stroke:#F1F1F1;stroke-width:1.5;" width="386" x="71" y="410"/><text fill="#000000" font-family="sans-serif" font-size="14" font-weight="bold" lengthAdjust="spacing" textLength="143" x="76" y="425.5352">CountryRegionCode</text><text fill="#000000" font-family="sans-serif" font-size="14" lengthAdjust="spacing" textLength="20" x="240" y="425.5352">AU</text><line style="stroke:#000000;stroke-width:1.0;" x1="235" x2="235" y1="410" y2="430.4883"/><line style="stroke:#000000;stroke-width:1.0;" x1="71" x2="457" y1="430.4883" y2="430.4883"/><text fill="#000000" font-family="sans-serif" font-size="14" font-weight="bold" lengthAdjust="spacing" textLength="99" x="76" y="446.0234">CurrencyCode</text><text fill="#000000" font-family="sans-serif" font-size="14" lengthAdjust="spacing" textLength="30" x="240" y="446.0234">AUD</text><line style="stroke:#000000;stroke-width:1.0;" x1="235" x2="235" y1="430.4883" y2="450.9766"/><line style="stroke:#000000;stroke-width:1.0;" x1="71" x2="457" y1="450.9766" y2="450.9766"/><text fill="#000000" font-family="sans-serif" font-size="14" font-weight="bold" lengthAdjust="spacing" textLength="97" x="76" y="466.5117">ModifiedDate</text><text fill="#000000" font-family="sans-serif" font-size="14" lengthAdjust="spacing" textLength="212" x="240" y="466.5117">2014-02-08 10:17:21.510000</text><line style="stroke:#000000;stroke-width:1.0;" x1="235" x2="235" y1="450.9766" y2="471.4648"/><line style="stroke:#000000;stroke-width:1.0;" x1="71" x2="457" y1="471.4648" y2="471.4648"/><text fill="#000000" font-family="sans-serif" font-size="14" font-weight="bold" lengthAdjust="spacing" textLength="154" x="76" y="487">SYS_EXEC_DURATION</text><text fill="#000000" font-family="sans-serif" font-size="14" lengthAdjust="spacing" textLength="67" x="240" y="487">0.178503</text><line style="stroke:#000000;stroke-width:1.0;" x1="235" x2="235" y1="471.4648" y2="491.9531"/><rect fill="none" height="81.9531" rx="5" ry="5" style="stroke:#000000;stroke-width:1.5;" width="386" x="71" y="410"/><path d="M22,211 L35,211 C86.4405,211 33.5133,136.226 71,101 C72.4862,99.6035 74.0062,98.2447 75.5578,96.9228 " fill="none" style="stroke:#000000;stroke-width:1.0;stroke-dasharray:3.0,3.0;"/><path d="M77.5251,99.3773 L77.3987,95.4474 L73.5905,94.4684 L81.6939,92.0046 L77.5251,99.3773 " fill="#000000" style="stroke:#000000;stroke-width:1.0;"/><ellipse cx="22" cy="211" fill="#000000" rx="3" ry="3" style="stroke:#000000;stroke-width:1.0;"/><path d="M22,231 L35,231 C55.8273,231 52.473,210.5146 71,201 C74.9354,198.979 78.9591,197.035 83.0523,195.1654 " fill="none" style="stroke:#000000;stroke-width:1.0;stroke-dasharray:3.0,3.0;"/><path d="M84.283,197.9458 L85.1377,194.2424 L81.8217,192.385 L90.0034,192.0888 L84.283,197.9458 " fill="#000000" style="stroke:#000000;stroke-width:1.0;"/><ellipse cx="22" cy="231" fill="#000000" rx="3" ry="3" style="stroke:#000000;stroke-width:1.0;"/><path d="M22,251 L35,251 C44.3124,251 53.8383,251 63.4602,251 " fill="none" style="stroke:#000000;stroke-width:1.0;stroke-dasharray:3.0,3.0;"/><path d="M63.4602,254.094 L65.7807,251 L63.4602,247.906 L71.1952,251 L63.4602,254.094 " fill="#000000" style="stroke:#000000;stroke-width:1.0;"/><ellipse cx="22" cy="251" fill="#000000" rx="3" ry="3" style="stroke:#000000;stroke-width:1.0;"/><path d="M22,272 L35,272 C55.5456,272 52.6462,291.7663 71,301 C78.2029,304.6238 85.6934,308.0024 93.3592,311.1506 " fill="none" style="stroke:#000000;stroke-width:1.0;stroke-dasharray:3.0,3.0;"/><path d="M92.2285,313.985 L95.485,311.9986 L94.4899,308.3162 L100.4453,313.9774 L92.2285,313.985 " fill="#000000" style="stroke:#000000;stroke-width:1.0;"/><ellipse cx="22" cy="272" fill="#000000" rx="3" ry="3" style="stroke:#000000;stroke-width:1.0;"/><path d="M22,293 L35,293 C85.5964,293 34.0339,366.4529 71,401 C72.49,402.3925 74.0137,403.7473 75.5687,405.0655 " fill="none" style="stroke:#000000;stroke-width:1.0;stroke-dasharray:3.0,3.0;"/><path d="M73.6068,407.525 L77.4133,406.537 L77.5307,402.6061 L81.7174,409.9704 L73.6068,407.525 " fill="#000000" style="stroke:#000000;stroke-width:1.0;"/><ellipse cx="22" cy="293" fill="#000000" rx="3" ry="3" style="stroke:#000000;stroke-width:1.0;"/><!--MD5=[f699920d015dc03b432633af08b20c74]
@startjson
[
    {
        "CountryRegionCode": "AE",
        "CurrencyCode": "AED",
        "ModifiedDate": "2014-02-08 10:17:21.510000",
        "SYS_EXEC_DURATION": "0.178249"
    },
    {
        "CountryRegionCode": "AR",
        "CurrencyCode": "ARS",
        "ModifiedDate": "2014-02-08 10:17:21.510000",
        "SYS_EXEC_DURATION": "0.178372"
    },
    {
        "CountryRegionCode": "AT",
        "CurrencyCode": "ATS",
        "ModifiedDate": "2014-02-08 10:17:21.510000",
        "SYS_EXEC_DURATION": "0.178416"
    },
    {
        "CountryRegionCode": "AT",
        "CurrencyCode": "EUR",
        "ModifiedDate": "2008-04-30 00:00:00",
        "SYS_EXEC_DURATION": "0.178455"
    },
    {
        "CountryRegionCode": "AU",
        "CurrencyCode": "AUD",
        "ModifiedDate": "2014-02-08 10:17:21.510000",
        "SYS_EXEC_DURATION": "0.178503"
    }
]
@endjson

PlantUML version 1.2022.5(Sat Apr 30 06:55:52 EDT 2022)
(GPL source distribution)
Java Runtime: OpenJDK Runtime Environment
JVM: OpenJDK 64-Bit Server VM
Default Encoding: UTF-8
Language: en
Country: CA
--></g></svg>