<?xml version="1.0" encoding="UTF-8" standalone="no"?><svg xmlns="http://www.w3.org/2000/svg" xmlns:xlink="http://www.w3.org/1999/xlink" contentStyleType="text/css" height="913px" preserveAspectRatio="none" style="width:585px;height:913px;background:#FFFFFF;" version="1.1" viewBox="0 0 585 913" width="585px" zoomAndPan="magnify"><defs/><g><rect fill="#F1F1F1" height="102.4414" rx="5" ry="5" style="stroke:#F1F1F1;stroke-width:1.5;" width="22" x="10" y="406"/><text fill="#000000" font-family="sans-serif" font-size="14" lengthAdjust="spacing" textLength="12" x="15" y="421.5352">   </text><line style="stroke:#000000;stroke-width:1.0;" x1="10" x2="32" y1="426.4883" y2="426.4883"/><text fill="#000000" font-family="sans-serif" font-size="14" lengthAdjust="spacing" textLength="12" x="15" y="442.0234">   </text><line style="stroke:#000000;stroke-width:1.0;" x1="10" x2="32" y1="446.9766" y2="446.9766"/><text fill="#000000" font-family="sans-serif" font-size="14" lengthAdjust="spacing" textLength="12" x="15" y="462.5117">   </text><line style="stroke:#000000;stroke-width:1.0;" x1="10" x2="32" y1="467.4648" y2="467.4648"/><text fill="#000000" font-family="sans-serif" font-size="14" lengthAdjust="spacing" textLength="12" x="15" y="483">   </text><line style="stroke:#000000;stroke-width:1.0;" x1="10" x2="32" y1="487.9531" y2="487.9531"/><text fill="#000000" font-family="sans-serif" font-size="14" lengthAdjust="spacing" textLength="12" x="15" y="503.4883">   </text><rect fill="none" height="102.4414" rx="5" ry="5" style="stroke:#000000;stroke-width:1.5;" width="22" x="10" y="406"/><rect fill="#F1F1F1" height="163.9063" rx="5" ry="5" style="stroke:#F1F1F1;stroke-width:1.5;" width="502" x="71" y="10"/><text fill="#000000" font-family="sans-serif" font-size="14" font-weight="bold" lengthAdjust="spacing" textLength="111" x="76" y="25.5352">SalesTaxRateID</text><text fill="#000000" font-family="sans-serif" font-size="14" lengthAdjust="spacing" textLength="9" x="240" y="25.5352">1</text><line style="stroke:#000000;stroke-width:1.0;" x1="235" x2="235" y1="10" y2="30.4883"/><line style="stroke:#000000;stroke-width:1.0;" x1="71" x2="573" y1="30.4883" y2="30.4883"/><text fill="#000000" font-family="sans-serif" font-size="14" font-weight="bold" lengthAdjust="spacing" textLength="61" x="76" y="46.0234">TaxType</text><text fill="#000000" font-family="sans-serif" font-size="14" lengthAdjust="spacing" textLength="9" x="240" y="46.0234">1</text><line style="stroke:#000000;stroke-width:1.0;" x1="235" x2="235" y1="30.4883" y2="50.9766"/><line style="stroke:#000000;stroke-width:1.0;" x1="71" x2="573" y1="50.9766" y2="50.9766"/><text fill="#000000" font-family="sans-serif" font-size="14" font-weight="bold" lengthAdjust="spacing" textLength="58" x="76" y="66.5117">TaxRate</text><text fill="#000000" font-family="sans-serif" font-size="14" lengthAdjust="spacing" textLength="58" x="240" y="66.5117">14.0000</text><line style="stroke:#000000;stroke-width:1.0;" x1="235" x2="235" y1="50.9766" y2="71.4648"/><line style="stroke:#000000;stroke-width:1.0;" x1="71" x2="573" y1="71.4648" y2="71.4648"/><text fill="#000000" font-family="sans-serif" font-size="14" font-weight="bold" lengthAdjust="spacing" textLength="41" x="76" y="87">Name</text><text fill="#000000" font-family="sans-serif" font-size="14" lengthAdjust="spacing" textLength="265" x="240" y="87">Canadian GST + Alberta Provincial Tax</text><line style="stroke:#000000;stroke-width:1.0;" x1="235" x2="235" y1="71.4648" y2="91.9531"/><line style="stroke:#000000;stroke-width:1.0;" x1="71" x2="573" y1="91.9531" y2="91.9531"/><text fill="#000000" font-family="sans-serif" font-size="14" font-weight="bold" lengthAdjust="spacing" textLength="59" x="76" y="107.4883">rowguid</text><text fill="#000000" font-family="sans-serif" font-size="14" lengthAdjust="spacing" textLength="328" x="240" y="107.4883">683DE5DD-521A-47D4-A573-06A3CDB1BC5D</text><line style="stroke:#000000;stroke-width:1.0;" x1="235" x2="235" y1="91.9531" y2="112.4414"/><line style="stroke:#000000;stroke-width:1.0;" x1="71" x2="573" y1="112.4414" y2="112.4414"/><text fill="#000000" font-family="sans-serif" font-size="14" font-weight="bold" lengthAdjust="spacing" textLength="97" x="76" y="127.9766">ModifiedDate</text><text fill="#000000" font-family="sans-serif" font-size="14" lengthAdjust="spacing" textLength="154" x="240" y="127.9766">2008-04-30 00:00:00</text><line style="stroke:#000000;stroke-width:1.0;" x1="235" x2="235" y1="112.4414" y2="132.9297"/><line style="stroke:#000000;stroke-width:1.0;" x1="71" x2="573" y1="132.9297" y2="132.9297"/><text fill="#000000" font-family="sans-serif" font-size="14" font-weight="bold" lengthAdjust="spacing" textLength="113" x="76" y="148.4648">StateProvinceID</text><text fill="#000000" font-family="sans-serif" font-size="14" lengthAdjust="spacing" textLength="9" x="240" y="148.4648">1</text><line style="stroke:#000000;stroke-width:1.0;" x1="235" x2="235" y1="132.9297" y2="153.418"/><line style="stroke:#000000;stroke-width:1.0;" x1="71" x2="573" y1="153.418" y2="153.418"/><text fill="#000000" font-family="sans-serif" font-size="14" font-weight="bold" lengthAdjust="spacing" textLength="154" x="76" y="168.9531">SYS_EXEC_DURATION</text><text fill="#000000" font-family="sans-serif" font-size="14" lengthAdjust="spacing" textLength="67" x="240" y="168.9531">0.184315</text><line style="stroke:#000000;stroke-width:1.0;" x1="235" x2="235" y1="153.418" y2="173.9063"/><rect fill="none" height="163.9063" rx="5" ry="5" style="stroke:#000000;stroke-width:1.5;" width="502" x="71" y="10"/><rect fill="#F1F1F1" height="163.9063" rx="5" ry="5" style="stroke:#F1F1F1;stroke-width:1.5;" width="490" x="77" y="192"/><text fill="#000000" font-family="sans-serif" font-size="14" font-weight="bold" lengthAdjust="spacing" textLength="111" x="82" y="207.5352">SalesTaxRateID</text><text fill="#000000" font-family="sans-serif" font-size="14" lengthAdjust="spacing" textLength="9" x="246" y="207.5352">2</text><line style="stroke:#000000;stroke-width:1.0;" x1="241" x2="241" y1="192" y2="212.4883"/><line style="stroke:#000000;stroke-width:1.0;" x1="77" x2="567" y1="212.4883" y2="212.4883"/><text fill="#000000" font-family="sans-serif" font-size="14" font-weight="bold" lengthAdjust="spacing" textLength="61" x="82" y="228.0234">TaxType</text><text fill="#000000" font-family="sans-serif" font-size="14" lengthAdjust="spacing" textLength="9" x="246" y="228.0234">1</text><line style="stroke:#000000;stroke-width:1.0;" x1="241" x2="241" y1="212.4883" y2="232.9766"/><line style="stroke:#000000;stroke-width:1.0;" x1="77" x2="567" y1="232.9766" y2="232.9766"/><text fill="#000000" font-family="sans-serif" font-size="14" font-weight="bold" lengthAdjust="spacing" textLength="58" x="82" y="248.5117">TaxRate</text><text fill="#000000" font-family="sans-serif" font-size="14" lengthAdjust="spacing" textLength="58" x="246" y="248.5117">14.2500</text><line style="stroke:#000000;stroke-width:1.0;" x1="241" x2="241" y1="232.9766" y2="253.4648"/><line style="stroke:#000000;stroke-width:1.0;" x1="77" x2="567" y1="253.4648" y2="253.4648"/><text fill="#000000" font-family="sans-serif" font-size="14" font-weight="bold" lengthAdjust="spacing" textLength="41" x="82" y="269">Name</text><text fill="#000000" font-family="sans-serif" font-size="14" lengthAdjust="spacing" textLength="267" x="246" y="269">Canadian GST + Ontario Provincial Tax</text><line style="stroke:#000000;stroke-width:1.0;" x1="241" x2="241" y1="253.4648" y2="273.9531"/><line style="stroke:#000000;stroke-width:1.0;" x1="77" x2="567" y1="273.9531" y2="273.9531"/><text fill="#000000" font-family="sans-serif" font-size="14" font-weight="bold" lengthAdjust="spacing" textLength="59" x="82" y="289.4883">rowguid</text><text fill="#000000" font-family="sans-serif" font-size="14" lengthAdjust="spacing" textLength="316" x="246" y="289.4883">05C4FFDB-4F84-4CDF-ABE5-FDF3216EA74E</text><line style="stroke:#000000;stroke-width:1.0;" x1="241" x2="241" y1="273.9531" y2="294.4414"/><line style="stroke:#000000;stroke-width:1.0;" x1="77" x2="567" y1="294.4414" y2="294.4414"/><text fill="#000000" font-family="sans-serif" font-size="14" font-weight="bold" lengthAdjust="spacing" textLength="97" x="82" y="309.9766">ModifiedDate</text><text fill="#000000" font-family="sans-serif" font-size="14" lengthAdjust="spacing" textLength="154" x="246" y="309.9766">2008-04-30 00:00:00</text><line style="stroke:#000000;stroke-width:1.0;" x1="241" x2="241" y1="294.4414" y2="314.9297"/><line style="stroke:#000000;stroke-width:1.0;" x1="77" x2="567" y1="314.9297" y2="314.9297"/><text fill="#000000" font-family="sans-serif" font-size="14" font-weight="bold" lengthAdjust="spacing" textLength="113" x="82" y="330.4648">StateProvinceID</text><text fill="#000000" font-family="sans-serif" font-size="14" lengthAdjust="spacing" textLength="18" x="246" y="330.4648">57</text><line style="stroke:#000000;stroke-width:1.0;" x1="241" x2="241" y1="314.9297" y2="335.418"/><line style="stroke:#000000;stroke-width:1.0;" x1="77" x2="567" y1="335.418" y2="335.418"/><text fill="#000000" font-family="sans-serif" font-size="14" font-weight="bold" lengthAdjust="spacing" textLength="154" x="82" y="350.9531">SYS_EXEC_DURATION</text><text fill="#000000" font-family="sans-serif" font-size="14" lengthAdjust="spacing" textLength="67" x="246" y="350.9531">0.184498</text><line style="stroke:#000000;stroke-width:1.0;" x1="241" x2="241" y1="335.418" y2="355.9063"/><rect fill="none" height="163.9063" rx="5" ry="5" style="stroke:#000000;stroke-width:1.5;" width="490" x="77" y="192"/><rect fill="#F1F1F1" height="163.9063" rx="5" ry="5" style="stroke:#F1F1F1;stroke-width:1.5;" width="494" x="75" y="374"/><text fill="#000000" font-family="sans-serif" font-size="14" font-weight="bold" lengthAdjust="spacing" textLength="111" x="80" y="389.5352">SalesTaxRateID</text><text fill="#000000" font-family="sans-serif" font-size="14" lengthAdjust="spacing" textLength="9" x="244" y="389.5352">3</text><line style="stroke:#000000;stroke-width:1.0;" x1="239" x2="239" y1="374" y2="394.4883"/><line style="stroke:#000000;stroke-width:1.0;" x1="75" x2="569" y1="394.4883" y2="394.4883"/><text fill="#000000" font-family="sans-serif" font-size="14" font-weight="bold" lengthAdjust="spacing" textLength="61" x="80" y="410.0234">TaxType</text><text fill="#000000" font-family="sans-serif" font-size="14" lengthAdjust="spacing" textLength="9" x="244" y="410.0234">1</text><line style="stroke:#000000;stroke-width:1.0;" x1="239" x2="239" y1="394.4883" y2="414.9766"/><line style="stroke:#000000;stroke-width:1.0;" x1="75" x2="569" y1="414.9766" y2="414.9766"/><text fill="#000000" font-family="sans-serif" font-size="14" font-weight="bold" lengthAdjust="spacing" textLength="58" x="80" y="430.5117">TaxRate</text><text fill="#000000" font-family="sans-serif" font-size="14" lengthAdjust="spacing" textLength="58" x="244" y="430.5117">14.2500</text><line style="stroke:#000000;stroke-width:1.0;" x1="239" x2="239" y1="414.9766" y2="435.4648"/><line style="stroke:#000000;stroke-width:1.0;" x1="75" x2="569" y1="435.4648" y2="435.4648"/><text fill="#000000" font-family="sans-serif" font-size="14" font-weight="bold" lengthAdjust="spacing" textLength="41" x="80" y="451">Name</text><text fill="#000000" font-family="sans-serif" font-size="14" lengthAdjust="spacing" textLength="267" x="244" y="451">Canadian GST + Quebec Provincial Tax</text><line style="stroke:#000000;stroke-width:1.0;" x1="239" x2="239" y1="435.4648" y2="455.9531"/><line style="stroke:#000000;stroke-width:1.0;" x1="75" x2="569" y1="455.9531" y2="455.9531"/><text fill="#000000" font-family="sans-serif" font-size="14" font-weight="bold" lengthAdjust="spacing" textLength="59" x="80" y="471.4883">rowguid</text><text fill="#000000" font-family="sans-serif" font-size="14" lengthAdjust="spacing" textLength="320" x="244" y="471.4883">D4EDB557-56D7-403C-B538-4DF5E7302588</text><line style="stroke:#000000;stroke-width:1.0;" x1="239" x2="239" y1="455.9531" y2="476.4414"/><line style="stroke:#000000;stroke-width:1.0;" x1="75" x2="569" y1="476.4414" y2="476.4414"/><text fill="#000000" font-family="sans-serif" font-size="14" font-weight="bold" lengthAdjust="spacing" textLength="97" x="80" y="491.9766">ModifiedDate</text><text fill="#000000" font-family="sans-serif" font-size="14" lengthAdjust="spacing" textLength="154" x="244" y="491.9766">2008-04-30 00:00:00</text><line style="stroke:#000000;stroke-width:1.0;" x1="239" x2="239" y1="476.4414" y2="496.9297"/><line style="stroke:#000000;stroke-width:1.0;" x1="75" x2="569" y1="496.9297" y2="496.9297"/><text fill="#000000" font-family="sans-serif" font-size="14" font-weight="bold" lengthAdjust="spacing" textLength="113" x="80" y="512.4648">StateProvinceID</text><text fill="#000000" font-family="sans-serif" font-size="14" lengthAdjust="spacing" textLength="18" x="244" y="512.4648">63</text><line style="stroke:#000000;stroke-width:1.0;" x1="239" x2="239" y1="496.9297" y2="517.418"/><line style="stroke:#000000;stroke-width:1.0;" x1="75" x2="569" y1="517.418" y2="517.418"/><text fill="#000000" font-family="sans-serif" font-size="14" font-weight="bold" lengthAdjust="spacing" textLength="154" x="80" y="532.9531">SYS_EXEC_DURATION</text><text fill="#000000" font-family="sans-serif" font-size="14" lengthAdjust="spacing" textLength="67" x="244" y="532.9531">0.184582</text><line style="stroke:#000000;stroke-width:1.0;" x1="239" x2="239" y1="517.418" y2="537.9063"/><rect fill="none" height="163.9063" rx="5" ry="5" style="stroke:#000000;stroke-width:1.5;" width="494" x="75" y="374"/><rect fill="#F1F1F1" height="163.9063" rx="5" ry="5" style="stroke:#F1F1F1;stroke-width:1.5;" width="489" x="77.5" y="556"/><text fill="#000000" font-family="sans-serif" font-size="14" font-weight="bold" lengthAdjust="spacing" textLength="111" x="82.5" y="571.5352">SalesTaxRateID</text><text fill="#000000" font-family="sans-serif" font-size="14" lengthAdjust="spacing" textLength="9" x="246.5" y="571.5352">4</text><line style="stroke:#000000;stroke-width:1.0;" x1="241.5" x2="241.5" y1="556" y2="576.4883"/><line style="stroke:#000000;stroke-width:1.0;" x1="77.5" x2="566.5" y1="576.4883" y2="576.4883"/><text fill="#000000" font-family="sans-serif" font-size="14" font-weight="bold" lengthAdjust="spacing" textLength="61" x="82.5" y="592.0234">TaxType</text><text fill="#000000" font-family="sans-serif" font-size="14" lengthAdjust="spacing" textLength="9" x="246.5" y="592.0234">2</text><line style="stroke:#000000;stroke-width:1.0;" x1="241.5" x2="241.5" y1="576.4883" y2="596.9766"/><line style="stroke:#000000;stroke-width:1.0;" x1="77.5" x2="566.5" y1="596.9766" y2="596.9766"/><text fill="#000000" font-family="sans-serif" font-size="14" font-weight="bold" lengthAdjust="spacing" textLength="58" x="82.5" y="612.5117">TaxRate</text><text fill="#000000" font-family="sans-serif" font-size="14" lengthAdjust="spacing" textLength="49" x="246.5" y="612.5117">7.0000</text><line style="stroke:#000000;stroke-width:1.0;" x1="241.5" x2="241.5" y1="596.9766" y2="617.4648"/><line style="stroke:#000000;stroke-width:1.0;" x1="77.5" x2="566.5" y1="617.4648" y2="617.4648"/><text fill="#000000" font-family="sans-serif" font-size="14" font-weight="bold" lengthAdjust="spacing" textLength="41" x="82.5" y="633">Name</text><text fill="#000000" font-family="sans-serif" font-size="14" lengthAdjust="spacing" textLength="96" x="246.5" y="633">Canadian GST</text><line style="stroke:#000000;stroke-width:1.0;" x1="241.5" x2="241.5" y1="617.4648" y2="637.9531"/><line style="stroke:#000000;stroke-width:1.0;" x1="77.5" x2="566.5" y1="637.9531" y2="637.9531"/><text fill="#000000" font-family="sans-serif" font-size="14" font-weight="bold" lengthAdjust="spacing" textLength="59" x="82.5" y="653.4883">rowguid</text><text fill="#000000" font-family="sans-serif" font-size="14" lengthAdjust="spacing" textLength="315" x="246.5" y="653.4883">F0D76907-B433-453F-B95E-16FCE73B807A</text><line style="stroke:#000000;stroke-width:1.0;" x1="241.5" x2="241.5" y1="637.9531" y2="658.4414"/><line style="stroke:#000000;stroke-width:1.0;" x1="77.5" x2="566.5" y1="658.4414" y2="658.4414"/><text fill="#000000" font-family="sans-serif" font-size="14" font-weight="bold" lengthAdjust="spacing" textLength="97" x="82.5" y="673.9766">ModifiedDate</text><text fill="#000000" font-family="sans-serif" font-size="14" lengthAdjust="spacing" textLength="154" x="246.5" y="673.9766">2008-04-30 00:00:00</text><line style="stroke:#000000;stroke-width:1.0;" x1="241.5" x2="241.5" y1="658.4414" y2="678.9297"/><line style="stroke:#000000;stroke-width:1.0;" x1="77.5" x2="566.5" y1="678.9297" y2="678.9297"/><text fill="#000000" font-family="sans-serif" font-size="14" font-weight="bold" lengthAdjust="spacing" textLength="113" x="82.5" y="694.4648">StateProvinceID</text><text fill="#000000" font-family="sans-serif" font-size="14" lengthAdjust="spacing" textLength="9" x="246.5" y="694.4648">1</text><line style="stroke:#000000;stroke-width:1.0;" x1="241.5" x2="241.5" y1="678.9297" y2="699.418"/><line style="stroke:#000000;stroke-width:1.0;" x1="77.5" x2="566.5" y1="699.418" y2="699.418"/><text fill="#000000" font-family="sans-serif" font-size="14" font-weight="bold" lengthAdjust="spacing" textLength="154" x="82.5" y="714.9531">SYS_EXEC_DURATION</text><text fill="#000000" font-family="sans-serif" font-size="14" lengthAdjust="spacing" textLength="67" x="246.5" y="714.9531">0.184675</text><line style="stroke:#000000;stroke-width:1.0;" x1="241.5" x2="241.5" y1="699.418" y2="719.9063"/><rect fill="none" height="163.9063" rx="5" ry="5" style="stroke:#000000;stroke-width:1.5;" width="489" x="77.5" y="556"/><rect fill="#F1F1F1" height="163.9063" rx="5" ry="5" style="stroke:#F1F1F1;stroke-width:1.5;" width="495" x="74.5" y="738"/><text fill="#000000" font-family="sans-serif" font-size="14" font-weight="bold" lengthAdjust="spacing" textLength="111" x="79.5" y="753.5352">SalesTaxRateID</text><text fill="#000000" font-family="sans-serif" font-size="14" lengthAdjust="spacing" textLength="9" x="243.5" y="753.5352">5</text><line style="stroke:#000000;stroke-width:1.0;" x1="238.5" x2="238.5" y1="738" y2="758.4883"/><line style="stroke:#000000;stroke-width:1.0;" x1="74.5" x2="569.5" y1="758.4883" y2="758.4883"/><text fill="#000000" font-family="sans-serif" font-size="14" font-weight="bold" lengthAdjust="spacing" textLength="61" x="79.5" y="774.0234">TaxType</text><text fill="#000000" font-family="sans-serif" font-size="14" lengthAdjust="spacing" textLength="9" x="243.5" y="774.0234">2</text><line style="stroke:#000000;stroke-width:1.0;" x1="238.5" x2="238.5" y1="758.4883" y2="778.9766"/><line style="stroke:#000000;stroke-width:1.0;" x1="74.5" x2="569.5" y1="778.9766" y2="778.9766"/><text fill="#000000" font-family="sans-serif" font-size="14" font-weight="bold" lengthAdjust="spacing" textLength="58" x="79.5" y="794.5117">TaxRate</text><text fill="#000000" font-family="sans-serif" font-size="14" lengthAdjust="spacing" textLength="49" x="243.5" y="794.5117">7.0000</text><line style="stroke:#000000;stroke-width:1.0;" x1="238.5" x2="238.5" y1="778.9766" y2="799.4648"/><line style="stroke:#000000;stroke-width:1.0;" x1="74.5" x2="569.5" y1="799.4648" y2="799.4648"/><text fill="#000000" font-family="sans-serif" font-size="14" font-weight="bold" lengthAdjust="spacing" textLength="41" x="79.5" y="815">Name</text><text fill="#000000" font-family="sans-serif" font-size="14" lengthAdjust="spacing" textLength="96" x="243.5" y="815">Canadian GST</text><line style="stroke:#000000;stroke-width:1.0;" x1="238.5" x2="238.5" y1="799.4648" y2="819.9531"/><line style="stroke:#000000;stroke-width:1.0;" x1="74.5" x2="569.5" y1="819.9531" y2="819.9531"/><text fill="#000000" font-family="sans-serif" font-size="14" font-weight="bold" lengthAdjust="spacing" textLength="59" x="79.5" y="835.4883">rowguid</text><text fill="#000000" font-family="sans-serif" font-size="14" lengthAdjust="spacing" textLength="321" x="243.5" y="835.4883">7E0E97A2-878B-476F-A648-05A3DD4450ED</text><line style="stroke:#000000;stroke-width:1.0;" x1="238.5" x2="238.5" y1="819.9531" y2="840.4414"/><line style="stroke:#000000;stroke-width:1.0;" x1="74.5" x2="569.5" y1="840.4414" y2="840.4414"/><text fill="#000000" font-family="sans-serif" font-size="14" font-weight="bold" lengthAdjust="spacing" textLength="97" x="79.5" y="855.9766">ModifiedDate</text><text fill="#000000" font-family="sans-serif" font-size="14" lengthAdjust="spacing" textLength="154" x="243.5" y="855.9766">2008-04-30 00:00:00</text><line style="stroke:#000000;stroke-width:1.0;" x1="238.5" x2="238.5" y1="840.4414" y2="860.9297"/><line style="stroke:#000000;stroke-width:1.0;" x1="74.5" x2="569.5" y1="860.9297" y2="860.9297"/><text fill="#000000" font-family="sans-serif" font-size="14" font-weight="bold" lengthAdjust="spacing" textLength="113" x="79.5" y="876.4648">StateProvinceID</text><text fill="#000000" font-family="sans-serif" font-size="14" lengthAdjust="spacing" textLength="18" x="243.5" y="876.4648">57</text><line style="stroke:#000000;stroke-width:1.0;" x1="238.5" x2="238.5" y1="860.9297" y2="881.418"/><line style="stroke:#000000;stroke-width:1.0;" x1="74.5" x2="569.5" y1="881.418" y2="881.418"/><text fill="#000000" font-family="sans-serif" font-size="14" font-weight="bold" lengthAdjust="spacing" textLength="154" x="79.5" y="896.9531">SYS_EXEC_DURATION</text><text fill="#000000" font-family="sans-serif" font-size="14" lengthAdjust="spacing" textLength="67" x="243.5" y="896.9531">0.184762</text><line style="stroke:#000000;stroke-width:1.0;" x1="238.5" x2="238.5" y1="881.418" y2="901.9063"/><rect fill="none" height="163.9063" rx="5" ry="5" style="stroke:#000000;stroke-width:1.5;" width="495" x="74.5" y="738"/><path d="M22,416 L35,416 C87.3922,416 37.7386,223.4798 71,183 C71.8583,181.9554 72.7296,180.9229 73.6136,179.9021 " fill="none" style="stroke:#000000;stroke-width:1.0;stroke-dasharray:3.0,3.0;"/><path d="M75.9005,181.9813 L75.173,178.1869 L71.3267,177.8229 L78.8116,174.1848 L75.9005,181.9813 " fill="#000000" style="stroke:#000000;stroke-width:1.0;"/><ellipse cx="22" cy="416" fill="#000000" rx="3" ry="3" style="stroke:#000000;stroke-width:1.0;"/><path d="M22,436 L35,436 C70.3801,436 44.5178,388.4616 71,365 C72.5152,363.6576 74.0518,362.3345 75.6086,361.0305 " fill="none" style="stroke:#000000;stroke-width:1.0;stroke-dasharray:3.0,3.0;"/><path d="M77.583,363.4715 L77.4393,359.5497 L73.6342,358.5895 L81.711,356.0944 L77.583,363.4715 " fill="#000000" style="stroke:#000000;stroke-width:1.0;"/><ellipse cx="22" cy="436" fill="#000000" rx="3" ry="3" style="stroke:#000000;stroke-width:1.0;"/><path d="M22,456 L35,456 C45.7096,456 56.6443,456 67.6906,456 " fill="none" style="stroke:#000000;stroke-width:1.0;stroke-dasharray:3.0,3.0;"/><path d="M67.6906,459.0655 L69.9897,456 L67.6906,452.9345 L75.3544,456 L67.6906,459.0655 " fill="#000000" style="stroke:#000000;stroke-width:1.0;"/><ellipse cx="22" cy="456" fill="#000000" rx="3" ry="3" style="stroke:#000000;stroke-width:1.0;"/><path d="M22,477 L35,477 C69.9843,477 44.7475,523.8762 71,547 C72.5191,548.338 74.0594,549.6569 75.6198,550.9569 " fill="none" style="stroke:#000000;stroke-width:1.0;stroke-dasharray:3.0,3.0;"/><path d="M73.6513,553.4031 L77.4545,552.4332 L77.5882,548.5106 L81.7354,555.878 L73.6513,553.4031 " fill="#000000" style="stroke:#000000;stroke-width:1.0;"/><ellipse cx="22" cy="477" fill="#000000" rx="3" ry="3" style="stroke:#000000;stroke-width:1.0;"/><path d="M22,498 L35,498 C86.953,498 37.9912,688.881 71,729 C71.859,730.044 72.731,731.076 73.6156,732.0962 " fill="none" style="stroke:#000000;stroke-width:1.0;stroke-dasharray:3.0,3.0;"/><path d="M71.3298,734.1768 L75.1761,733.8105 L75.9014,730.0156 L78.8171,737.8106 L71.3298,734.1768 " fill="#000000" style="stroke:#000000;stroke-width:1.0;"/><ellipse cx="22" cy="498" fill="#000000" rx="3" ry="3" style="stroke:#000000;stroke-width:1.0;"/><!--MD5=[b339c33b1fc73f4cad43804098600714]
@startjson
[
    {
        "SalesTaxRateID": 1,
        "TaxType": 1,
        "TaxRate": "14.0000",
        "Name": "Canadian GST + Alberta Provincial Tax",
        "rowguid": "683DE5DD-521A-47D4-A573-06A3CDB1BC5D",
        "ModifiedDate": "2008-04-30 00:00:00",
        "StateProvinceID": 1,
        "SYS_EXEC_DURATION": "0.184315"
    },
    {
        "SalesTaxRateID": 2,
        "TaxType": 1,
        "TaxRate": "14.2500",
        "Name": "Canadian GST + Ontario Provincial Tax",
        "rowguid": "05C4FFDB-4F84-4CDF-ABE5-FDF3216EA74E",
        "ModifiedDate": "2008-04-30 00:00:00",
        "StateProvinceID": 57,
        "SYS_EXEC_DURATION": "0.184498"
    },
    {
        "SalesTaxRateID": 3,
        "TaxType": 1,
        "TaxRate": "14.2500",
        "Name": "Canadian GST + Quebec Provincial Tax",
        "rowguid": "D4EDB557-56D7-403C-B538-4DF5E7302588",
        "ModifiedDate": "2008-04-30 00:00:00",
        "StateProvinceID": 63,
        "SYS_EXEC_DURATION": "0.184582"
    },
    {
        "SalesTaxRateID": 4,
        "TaxType": 2,
        "TaxRate": "7.0000",
        "Name": "Canadian GST",
        "rowguid": "F0D76907-B433-453F-B95E-16FCE73B807A",
        "ModifiedDate": "2008-04-30 00:00:00",
        "StateProvinceID": 1,
        "SYS_EXEC_DURATION": "0.184675"
    },
    {
        "SalesTaxRateID": 5,
        "TaxType": 2,
        "TaxRate": "7.0000",
        "Name": "Canadian GST",
        "rowguid": "7E0E97A2-878B-476F-A648-05A3DD4450ED",
        "ModifiedDate": "2008-04-30 00:00:00",
        "StateProvinceID": 57,
        "SYS_EXEC_DURATION": "0.184762"
    }
]
@endjson

PlantUML version 1.2022.5(Sat Apr 30 06:55:52 EDT 2022)
(GPL source distribution)
Java Runtime: OpenJDK Runtime Environment
JVM: OpenJDK 64-Bit Server VM
Default Encoding: UTF-8
Language: en
Country: CA
--></g></svg>