<?xml version="1.0" encoding="UTF-8" standalone="no"?><svg xmlns="http://www.w3.org/2000/svg" xmlns:xlink="http://www.w3.org/1999/xlink" contentStyleType="text/css" height="794px" preserveAspectRatio="none" style="width:762px;height:794px;background:#FFFFFF;" version="1.1" viewBox="0 0 762 794" width="762px" zoomAndPan="magnify"><defs/><g><rect fill="#F1F1F1" height="81.9531" rx="5" ry="5" style="stroke:#F1F1F1;stroke-width:1.5;" width="188" x="10" y="264.5"/><text fill="#000000" font-family="sans-serif" font-size="14" font-weight="bold" lengthAdjust="spacing" textLength="42" x="15" y="280.0352">field1</text><text fill="#000000" font-family="sans-serif" font-size="14" lengthAdjust="spacing" textLength="44" x="149" y="280.0352">Object</text><line style="stroke:#000000;stroke-width:1.0;" x1="144" x2="144" y1="264.5" y2="284.9883"/><line style="stroke:#000000;stroke-width:1.0;" x1="10" x2="198" y1="284.9883" y2="284.9883"/><text fill="#000000" font-family="sans-serif" font-size="14" font-weight="bold" lengthAdjust="spacing" textLength="90" x="15" y="300.5234">combination</text><text fill="#000000" font-family="sans-serif" font-size="14" lengthAdjust="spacing" textLength="44" x="149" y="300.5234">Object</text><line style="stroke:#000000;stroke-width:1.0;" x1="144" x2="144" y1="284.9883" y2="305.4766"/><line style="stroke:#000000;stroke-width:1.0;" x1="10" x2="198" y1="305.4766" y2="305.4766"/><text fill="#000000" font-family="sans-serif" font-size="14" font-weight="bold" lengthAdjust="spacing" textLength="121" x="15" y="321.0117">null_distribution</text><text fill="#000000" font-family="sans-serif" font-size="14" lengthAdjust="spacing" textLength="12" x="149" y="321.0117">   </text><line style="stroke:#000000;stroke-width:1.0;" x1="144" x2="144" y1="305.4766" y2="325.9648"/><line style="stroke:#000000;stroke-width:1.0;" x1="10" x2="198" y1="325.9648" y2="325.9648"/><text fill="#000000" font-family="sans-serif" font-size="14" font-weight="bold" lengthAdjust="spacing" textLength="124" x="15" y="341.5">data_distribution</text><text fill="#000000" font-family="sans-serif" font-size="14" lengthAdjust="spacing" textLength="12" x="149" y="341.5">   </text><line style="stroke:#000000;stroke-width:1.0;" x1="144" x2="144" y1="325.9648" y2="346.4531"/><rect fill="none" height="81.9531" rx="5" ry="5" style="stroke:#000000;stroke-width:1.5;" width="188" x="10" y="264.5"/><rect fill="#F1F1F1" height="40.9766" rx="5" ry="5" style="stroke:#F1F1F1;stroke-width:1.5;" width="198" x="235" y="235"/><text fill="#000000" font-family="sans-serif" font-size="14" font-weight="bold" lengthAdjust="spacing" textLength="111" x="240" y="250.5352">total_null_rows</text><text fill="#000000" font-family="sans-serif" font-size="14" lengthAdjust="spacing" textLength="9" x="392" y="250.5352">0</text><line style="stroke:#000000;stroke-width:1.0;" x1="387" x2="387" y1="235" y2="255.4883"/><line style="stroke:#000000;stroke-width:1.0;" x1="235" x2="433" y1="255.4883" y2="255.4883"/><text fill="#000000" font-family="sans-serif" font-size="14" font-weight="bold" lengthAdjust="spacing" textLength="142" x="240" y="271.0234">total_not_null_rows</text><text fill="#000000" font-family="sans-serif" font-size="14" lengthAdjust="spacing" textLength="36" x="392" y="271.0234">1596</text><line style="stroke:#000000;stroke-width:1.0;" x1="387" x2="387" y1="255.4883" y2="275.9766"/><rect fill="none" height="40.9766" rx="5" ry="5" style="stroke:#000000;stroke-width:1.5;" width="198" x="235" y="235"/><rect fill="#F1F1F1" height="204.8828" rx="5" ry="5" style="stroke:#F1F1F1;stroke-width:1.5;" width="22" x="322" y="294"/><text fill="#000000" font-family="sans-serif" font-size="14" lengthAdjust="spacing" textLength="12" x="327" y="309.5352">   </text><line style="stroke:#000000;stroke-width:1.0;" x1="322" x2="344" y1="314.4883" y2="314.4883"/><text fill="#000000" font-family="sans-serif" font-size="14" lengthAdjust="spacing" textLength="12" x="327" y="330.0234">   </text><line style="stroke:#000000;stroke-width:1.0;" x1="322" x2="344" y1="334.9766" y2="334.9766"/><text fill="#000000" font-family="sans-serif" font-size="14" lengthAdjust="spacing" textLength="12" x="327" y="350.5117">   </text><line style="stroke:#000000;stroke-width:1.0;" x1="322" x2="344" y1="355.4648" y2="355.4648"/><text fill="#000000" font-family="sans-serif" font-size="14" lengthAdjust="spacing" textLength="12" x="327" y="371">   </text><line style="stroke:#000000;stroke-width:1.0;" x1="322" x2="344" y1="375.9531" y2="375.9531"/><text fill="#000000" font-family="sans-serif" font-size="14" lengthAdjust="spacing" textLength="12" x="327" y="391.4883">   </text><line style="stroke:#000000;stroke-width:1.0;" x1="322" x2="344" y1="396.4414" y2="396.4414"/><text fill="#000000" font-family="sans-serif" font-size="14" lengthAdjust="spacing" textLength="12" x="327" y="411.9766">   </text><line style="stroke:#000000;stroke-width:1.0;" x1="322" x2="344" y1="416.9297" y2="416.9297"/><text fill="#000000" font-family="sans-serif" font-size="14" lengthAdjust="spacing" textLength="12" x="327" y="432.4648">   </text><line style="stroke:#000000;stroke-width:1.0;" x1="322" x2="344" y1="437.418" y2="437.418"/><text fill="#000000" font-family="sans-serif" font-size="14" lengthAdjust="spacing" textLength="12" x="327" y="452.9531">   </text><line style="stroke:#000000;stroke-width:1.0;" x1="322" x2="344" y1="457.9063" y2="457.9063"/><text fill="#000000" font-family="sans-serif" font-size="14" lengthAdjust="spacing" textLength="12" x="327" y="473.4414">   </text><line style="stroke:#000000;stroke-width:1.0;" x1="322" x2="344" y1="478.3945" y2="478.3945"/><text fill="#000000" font-family="sans-serif" font-size="14" lengthAdjust="spacing" textLength="12" x="327" y="493.9297">   </text><rect fill="none" height="204.8828" rx="5" ry="5" style="stroke:#000000;stroke-width:1.5;" width="22" x="322" y="294"/><rect fill="#F1F1F1" height="61.4648" rx="5" ry="5" style="stroke:#F1F1F1;stroke-width:1.5;" width="262" x="479" y="10"/><text fill="#000000" font-family="sans-serif" font-size="14" font-weight="bold" lengthAdjust="spacing" textLength="78" x="484" y="25.5352">field_value</text><text fill="#000000" font-family="sans-serif" font-size="14" lengthAdjust="spacing" textLength="91" x="588" y="25.5352">ModifiedDate</text><line style="stroke:#000000;stroke-width:1.0;" x1="583" x2="583" y1="10" y2="30.4883"/><line style="stroke:#000000;stroke-width:1.0;" x1="479" x2="741" y1="30.4883" y2="30.4883"/><text fill="#000000" font-family="sans-serif" font-size="14" font-weight="bold" lengthAdjust="spacing" textLength="74" x="484" y="46.0234">row_count</text><text fill="#000000" font-family="sans-serif" font-size="14" lengthAdjust="spacing" textLength="18" x="588" y="46.0234">69</text><line style="stroke:#000000;stroke-width:1.0;" x1="583" x2="583" y1="30.4883" y2="50.9766"/><line style="stroke:#000000;stroke-width:1.0;" x1="479" x2="741" y1="50.9766" y2="50.9766"/><text fill="#000000" font-family="sans-serif" font-size="14" font-weight="bold" lengthAdjust="spacing" textLength="94" x="484" y="66.5117">ratio_percent</text><text fill="#000000" font-family="sans-serif" font-size="14" lengthAdjust="spacing" textLength="148" x="588" y="66.5117">4.323308270676692</text><line style="stroke:#000000;stroke-width:1.0;" x1="583" x2="583" y1="50.9766" y2="71.4648"/><rect fill="none" height="61.4648" rx="5" ry="5" style="stroke:#000000;stroke-width:1.5;" width="262" x="479" y="10"/><rect fill="#F1F1F1" height="61.4648" rx="5" ry="5" style="stroke:#F1F1F1;stroke-width:1.5;" width="271" x="474.5" y="89"/><text fill="#000000" font-family="sans-serif" font-size="14" font-weight="bold" lengthAdjust="spacing" textLength="78" x="479.5" y="104.5352">field_value</text><text fill="#000000" font-family="sans-serif" font-size="14" lengthAdjust="spacing" textLength="57" x="583.5" y="104.5352">rowguid</text><line style="stroke:#000000;stroke-width:1.0;" x1="578.5" x2="578.5" y1="89" y2="109.4883"/><line style="stroke:#000000;stroke-width:1.0;" x1="474.5" x2="745.5" y1="109.4883" y2="109.4883"/><text fill="#000000" font-family="sans-serif" font-size="14" font-weight="bold" lengthAdjust="spacing" textLength="74" x="479.5" y="125.0234">row_count</text><text fill="#000000" font-family="sans-serif" font-size="14" lengthAdjust="spacing" textLength="18" x="583.5" y="125.0234">29</text><line style="stroke:#000000;stroke-width:1.0;" x1="578.5" x2="578.5" y1="109.4883" y2="129.9766"/><line style="stroke:#000000;stroke-width:1.0;" x1="474.5" x2="745.5" y1="129.9766" y2="129.9766"/><text fill="#000000" font-family="sans-serif" font-size="14" font-weight="bold" lengthAdjust="spacing" textLength="94" x="479.5" y="145.5117">ratio_percent</text><text fill="#000000" font-family="sans-serif" font-size="14" lengthAdjust="spacing" textLength="157" x="583.5" y="145.5117">1.8170426065162908</text><line style="stroke:#000000;stroke-width:1.0;" x1="578.5" x2="578.5" y1="129.9766" y2="150.4648"/><rect fill="none" height="61.4648" rx="5" ry="5" style="stroke:#000000;stroke-width:1.5;" width="271" x="474.5" y="89"/><rect fill="#F1F1F1" height="61.4648" rx="5" ry="5" style="stroke:#F1F1F1;stroke-width:1.5;" width="271" x="474.5" y="168"/><text fill="#000000" font-family="sans-serif" font-size="14" font-weight="bold" lengthAdjust="spacing" textLength="78" x="479.5" y="183.5352">field_value</text><text fill="#000000" font-family="sans-serif" font-size="14" lengthAdjust="spacing" textLength="39" x="583.5" y="183.5352">Name</text><line style="stroke:#000000;stroke-width:1.0;" x1="578.5" x2="578.5" y1="168" y2="188.4883"/><line style="stroke:#000000;stroke-width:1.0;" x1="474.5" x2="745.5" y1="188.4883" y2="188.4883"/><text fill="#000000" font-family="sans-serif" font-size="14" font-weight="bold" lengthAdjust="spacing" textLength="74" x="479.5" y="204.0234">row_count</text><text fill="#000000" font-family="sans-serif" font-size="14" lengthAdjust="spacing" textLength="18" x="583.5" y="204.0234">23</text><line style="stroke:#000000;stroke-width:1.0;" x1="578.5" x2="578.5" y1="188.4883" y2="208.9766"/><line style="stroke:#000000;stroke-width:1.0;" x1="474.5" x2="745.5" y1="208.9766" y2="208.9766"/><text fill="#000000" font-family="sans-serif" font-size="14" font-weight="bold" lengthAdjust="spacing" textLength="94" x="479.5" y="224.5117">ratio_percent</text><text fill="#000000" font-family="sans-serif" font-size="14" lengthAdjust="spacing" textLength="157" x="583.5" y="224.5117">1.4411027568922306</text><line style="stroke:#000000;stroke-width:1.0;" x1="578.5" x2="578.5" y1="208.9766" y2="229.4648"/><rect fill="none" height="61.4648" rx="5" ry="5" style="stroke:#000000;stroke-width:1.5;" width="271" x="474.5" y="168"/><rect fill="#F1F1F1" height="61.4648" rx="5" ry="5" style="stroke:#F1F1F1;stroke-width:1.5;" width="271" x="474.5" y="247"/><text fill="#000000" font-family="sans-serif" font-size="14" font-weight="bold" lengthAdjust="spacing" textLength="78" x="479.5" y="262.5352">field_value</text><text fill="#000000" font-family="sans-serif" font-size="14" lengthAdjust="spacing" textLength="111" x="583.5" y="262.5352">BusinessEntityID</text><line style="stroke:#000000;stroke-width:1.0;" x1="578.5" x2="578.5" y1="247" y2="267.4883"/><line style="stroke:#000000;stroke-width:1.0;" x1="474.5" x2="745.5" y1="267.4883" y2="267.4883"/><text fill="#000000" font-family="sans-serif" font-size="14" font-weight="bold" lengthAdjust="spacing" textLength="74" x="479.5" y="283.0234">row_count</text><text fill="#000000" font-family="sans-serif" font-size="14" lengthAdjust="spacing" textLength="18" x="583.5" y="283.0234">17</text><line style="stroke:#000000;stroke-width:1.0;" x1="578.5" x2="578.5" y1="267.4883" y2="287.9766"/><line style="stroke:#000000;stroke-width:1.0;" x1="474.5" x2="745.5" y1="287.9766" y2="287.9766"/><text fill="#000000" font-family="sans-serif" font-size="14" font-weight="bold" lengthAdjust="spacing" textLength="94" x="479.5" y="303.5117">ratio_percent</text><text fill="#000000" font-family="sans-serif" font-size="14" lengthAdjust="spacing" textLength="157" x="583.5" y="303.5117">1.0651629072681705</text><line style="stroke:#000000;stroke-width:1.0;" x1="578.5" x2="578.5" y1="287.9766" y2="308.4648"/><rect fill="none" height="61.4648" rx="5" ry="5" style="stroke:#000000;stroke-width:1.5;" width="271" x="474.5" y="247"/><rect fill="#F1F1F1" height="61.4648" rx="5" ry="5" style="stroke:#F1F1F1;stroke-width:1.5;" width="271" x="474.5" y="326"/><text fill="#000000" font-family="sans-serif" font-size="14" font-weight="bold" lengthAdjust="spacing" textLength="78" x="479.5" y="341.5352">field_value</text><text fill="#000000" font-family="sans-serif" font-size="14" lengthAdjust="spacing" textLength="67" x="583.5" y="341.5352">ProductID</text><line style="stroke:#000000;stroke-width:1.0;" x1="578.5" x2="578.5" y1="326" y2="346.4883"/><line style="stroke:#000000;stroke-width:1.0;" x1="474.5" x2="745.5" y1="346.4883" y2="346.4883"/><text fill="#000000" font-family="sans-serif" font-size="14" font-weight="bold" lengthAdjust="spacing" textLength="74" x="479.5" y="362.0234">row_count</text><text fill="#000000" font-family="sans-serif" font-size="14" lengthAdjust="spacing" textLength="18" x="583.5" y="362.0234">16</text><line style="stroke:#000000;stroke-width:1.0;" x1="578.5" x2="578.5" y1="346.4883" y2="366.9766"/><line style="stroke:#000000;stroke-width:1.0;" x1="474.5" x2="745.5" y1="366.9766" y2="366.9766"/><text fill="#000000" font-family="sans-serif" font-size="14" font-weight="bold" lengthAdjust="spacing" textLength="94" x="479.5" y="382.5117">ratio_percent</text><text fill="#000000" font-family="sans-serif" font-size="14" lengthAdjust="spacing" textLength="157" x="583.5" y="382.5117">1.0025062656641603</text><line style="stroke:#000000;stroke-width:1.0;" x1="578.5" x2="578.5" y1="366.9766" y2="387.4648"/><rect fill="none" height="61.4648" rx="5" ry="5" style="stroke:#000000;stroke-width:1.5;" width="271" x="474.5" y="326"/><rect fill="#F1F1F1" height="61.4648" rx="5" ry="5" style="stroke:#F1F1F1;stroke-width:1.5;" width="280" x="470" y="405"/><text fill="#000000" font-family="sans-serif" font-size="14" font-weight="bold" lengthAdjust="spacing" textLength="78" x="475" y="420.5352">field_value</text><text fill="#000000" font-family="sans-serif" font-size="14" lengthAdjust="spacing" textLength="57" x="579" y="420.5352">EndDate</text><line style="stroke:#000000;stroke-width:1.0;" x1="574" x2="574" y1="405" y2="425.4883"/><line style="stroke:#000000;stroke-width:1.0;" x1="470" x2="750" y1="425.4883" y2="425.4883"/><text fill="#000000" font-family="sans-serif" font-size="14" font-weight="bold" lengthAdjust="spacing" textLength="74" x="475" y="441.0234">row_count</text><text fill="#000000" font-family="sans-serif" font-size="14" lengthAdjust="spacing" textLength="9" x="579" y="441.0234">7</text><line style="stroke:#000000;stroke-width:1.0;" x1="574" x2="574" y1="425.4883" y2="445.9766"/><line style="stroke:#000000;stroke-width:1.0;" x1="470" x2="750" y1="445.9766" y2="445.9766"/><text fill="#000000" font-family="sans-serif" font-size="14" font-weight="bold" lengthAdjust="spacing" textLength="94" x="475" y="461.5117">ratio_percent</text><text fill="#000000" font-family="sans-serif" font-size="14" lengthAdjust="spacing" textLength="166" x="579" y="461.5117">0.43859649122807015</text><line style="stroke:#000000;stroke-width:1.0;" x1="574" x2="574" y1="445.9766" y2="466.4648"/><rect fill="none" height="61.4648" rx="5" ry="5" style="stroke:#000000;stroke-width:1.5;" width="280" x="470" y="405"/><rect fill="#F1F1F1" height="61.4648" rx="5" ry="5" style="stroke:#F1F1F1;stroke-width:1.5;" width="280" x="470" y="484"/><text fill="#000000" font-family="sans-serif" font-size="14" font-weight="bold" lengthAdjust="spacing" textLength="78" x="475" y="499.5352">field_value</text><text fill="#000000" font-family="sans-serif" font-size="14" lengthAdjust="spacing" textLength="63" x="579" y="499.5352">StartDate</text><line style="stroke:#000000;stroke-width:1.0;" x1="574" x2="574" y1="484" y2="504.4883"/><line style="stroke:#000000;stroke-width:1.0;" x1="470" x2="750" y1="504.4883" y2="504.4883"/><text fill="#000000" font-family="sans-serif" font-size="14" font-weight="bold" lengthAdjust="spacing" textLength="74" x="475" y="520.0234">row_count</text><text fill="#000000" font-family="sans-serif" font-size="14" lengthAdjust="spacing" textLength="9" x="579" y="520.0234">7</text><line style="stroke:#000000;stroke-width:1.0;" x1="574" x2="574" y1="504.4883" y2="524.9766"/><line style="stroke:#000000;stroke-width:1.0;" x1="470" x2="750" y1="524.9766" y2="524.9766"/><text fill="#000000" font-family="sans-serif" font-size="14" font-weight="bold" lengthAdjust="spacing" textLength="94" x="475" y="540.5117">ratio_percent</text><text fill="#000000" font-family="sans-serif" font-size="14" lengthAdjust="spacing" textLength="166" x="579" y="540.5117">0.43859649122807015</text><line style="stroke:#000000;stroke-width:1.0;" x1="574" x2="574" y1="524.9766" y2="545.4648"/><rect fill="none" height="61.4648" rx="5" ry="5" style="stroke:#000000;stroke-width:1.5;" width="280" x="470" y="484"/><rect fill="#F1F1F1" height="61.4648" rx="5" ry="5" style="stroke:#F1F1F1;stroke-width:1.5;" width="280" x="470" y="563"/><text fill="#000000" font-family="sans-serif" font-size="14" font-weight="bold" lengthAdjust="spacing" textLength="78" x="475" y="578.5352">field_value</text><text fill="#000000" font-family="sans-serif" font-size="14" lengthAdjust="spacing" textLength="70" x="579" y="578.5352">Document</text><line style="stroke:#000000;stroke-width:1.0;" x1="574" x2="574" y1="563" y2="583.4883"/><line style="stroke:#000000;stroke-width:1.0;" x1="470" x2="750" y1="583.4883" y2="583.4883"/><text fill="#000000" font-family="sans-serif" font-size="14" font-weight="bold" lengthAdjust="spacing" textLength="74" x="475" y="599.0234">row_count</text><text fill="#000000" font-family="sans-serif" font-size="14" lengthAdjust="spacing" textLength="9" x="579" y="599.0234">6</text><line style="stroke:#000000;stroke-width:1.0;" x1="574" x2="574" y1="583.4883" y2="603.9766"/><line style="stroke:#000000;stroke-width:1.0;" x1="470" x2="750" y1="603.9766" y2="603.9766"/><text fill="#000000" font-family="sans-serif" font-size="14" font-weight="bold" lengthAdjust="spacing" textLength="94" x="475" y="619.5117">ratio_percent</text><text fill="#000000" font-family="sans-serif" font-size="14" lengthAdjust="spacing" textLength="166" x="579" y="619.5117">0.37593984962406013</text><line style="stroke:#000000;stroke-width:1.0;" x1="574" x2="574" y1="603.9766" y2="624.4648"/><rect fill="none" height="61.4648" rx="5" ry="5" style="stroke:#000000;stroke-width:1.5;" width="280" x="470" y="563"/><rect fill="#F1F1F1" height="61.4648" rx="5" ry="5" style="stroke:#F1F1F1;stroke-width:1.5;" width="280" x="470" y="642"/><text fill="#000000" font-family="sans-serif" font-size="14" font-weight="bold" lengthAdjust="spacing" textLength="78" x="475" y="657.5352">field_value</text><text fill="#000000" font-family="sans-serif" font-size="14" lengthAdjust="spacing" textLength="93" x="579" y="657.5352">EmailAddress</text><line style="stroke:#000000;stroke-width:1.0;" x1="574" x2="574" y1="642" y2="662.4883"/><line style="stroke:#000000;stroke-width:1.0;" x1="470" x2="750" y1="662.4883" y2="662.4883"/><text fill="#000000" font-family="sans-serif" font-size="14" font-weight="bold" lengthAdjust="spacing" textLength="74" x="475" y="678.0234">row_count</text><text fill="#000000" font-family="sans-serif" font-size="14" lengthAdjust="spacing" textLength="9" x="579" y="678.0234">6</text><line style="stroke:#000000;stroke-width:1.0;" x1="574" x2="574" y1="662.4883" y2="682.9766"/><line style="stroke:#000000;stroke-width:1.0;" x1="470" x2="750" y1="682.9766" y2="682.9766"/><text fill="#000000" font-family="sans-serif" font-size="14" font-weight="bold" lengthAdjust="spacing" textLength="94" x="475" y="698.5117">ratio_percent</text><text fill="#000000" font-family="sans-serif" font-size="14" lengthAdjust="spacing" textLength="166" x="579" y="698.5117">0.37593984962406013</text><line style="stroke:#000000;stroke-width:1.0;" x1="574" x2="574" y1="682.9766" y2="703.4648"/><rect fill="none" height="61.4648" rx="5" ry="5" style="stroke:#000000;stroke-width:1.5;" width="280" x="470" y="642"/><rect fill="#F1F1F1" height="61.4648" rx="5" ry="5" style="stroke:#F1F1F1;stroke-width:1.5;" width="280" x="470" y="721"/><text fill="#000000" font-family="sans-serif" font-size="14" font-weight="bold" lengthAdjust="spacing" textLength="78" x="475" y="736.5352">field_value</text><text fill="#000000" font-family="sans-serif" font-size="14" lengthAdjust="spacing" textLength="47" x="579" y="736.5352">Person</text><line style="stroke:#000000;stroke-width:1.0;" x1="574" x2="574" y1="721" y2="741.4883"/><line style="stroke:#000000;stroke-width:1.0;" x1="470" x2="750" y1="741.4883" y2="741.4883"/><text fill="#000000" font-family="sans-serif" font-size="14" font-weight="bold" lengthAdjust="spacing" textLength="74" x="475" y="757.0234">row_count</text><text fill="#000000" font-family="sans-serif" font-size="14" lengthAdjust="spacing" textLength="9" x="579" y="757.0234">6</text><line style="stroke:#000000;stroke-width:1.0;" x1="574" x2="574" y1="741.4883" y2="761.9766"/><line style="stroke:#000000;stroke-width:1.0;" x1="470" x2="750" y1="761.9766" y2="761.9766"/><text fill="#000000" font-family="sans-serif" font-size="14" font-weight="bold" lengthAdjust="spacing" textLength="94" x="475" y="777.5117">ratio_percent</text><text fill="#000000" font-family="sans-serif" font-size="14" lengthAdjust="spacing" textLength="166" x="579" y="777.5117">0.37593984962406013</text><line style="stroke:#000000;stroke-width:1.0;" x1="574" x2="574" y1="761.9766" y2="782.4648"/><rect fill="none" height="61.4648" rx="5" ry="5" style="stroke:#000000;stroke-width:1.5;" width="280" x="470" y="721"/><path d="M186,315.5 L199,315.5 C219.8273,315.5 216.6745,295.3971 235,285.5 C239.2321,283.2144 243.6626,281.0778 248.2032,279.0842 " fill="none" style="stroke:#000000;stroke-width:1.0;stroke-dasharray:3.0,3.0;"/><path d="M249.4096,281.9694 L250.3671,278.1794 L246.9968,276.199 L255.4162,276.0682 L249.4096,281.9694 " fill="#000000" style="stroke:#000000;stroke-width:1.0;"/><ellipse cx="186" cy="315.5" fill="#000000" rx="3" ry="3" style="stroke:#000000;stroke-width:1.0;"/><path d="M334.5,303.5 L347.5,303.5 C386.768,303.5 406.6833,313.7095 434,285.5 C498.6556,218.7312 407.6323,148.4107 470,79.5 C471.1654,78.2123 472.3695,76.9657 473.6092,75.759 " fill="none" style="stroke:#000000;stroke-width:1.0;stroke-dasharray:3.0,3.0;"/><path d="M475.6253,78.0212 L475.3059,74.247 L471.5932,73.4967 L479.2648,70.7189 L475.6253,78.0212 " fill="#000000" style="stroke:#000000;stroke-width:1.0;"/><ellipse cx="334.5" cy="303.5" fill="#000000" rx="3" ry="3" style="stroke:#000000;stroke-width:1.0;"/><path d="M334.5,324.5 L347.5,324.5 C389.6713,324.5 406.4563,317.4338 434,285.5 C472.3185,241.074 428.4404,199.9099 470,158.5 C471.2303,157.2742 472.4957,156.0861 473.7935,154.9346 " fill="none" style="stroke:#000000;stroke-width:1.0;stroke-dasharray:3.0,3.0;"/><path d="M475.7206,157.2901 L475.5601,153.4893 L471.8664,152.579 L479.6824,150.1169 L475.7206,157.2901 " fill="#000000" style="stroke:#000000;stroke-width:1.0;"/><ellipse cx="334.5" cy="324.5" fill="#000000" rx="3" ry="3" style="stroke:#000000;stroke-width:1.0;"/><path d="M334.5,344.5 L347.5,344.5 C394.0358,344.5 400.3638,317.6588 434,285.5 C453.2747,267.0719 447.9903,252.5561 470,237.5 C472.3707,235.8783 474.8075,234.3236 477.2999,232.8333 " fill="none" style="stroke:#000000;stroke-width:1.0;stroke-dasharray:3.0,3.0;"/><path d="M478.8186,235.5213 L479.3159,231.6943 L475.7813,230.1454 L484.0198,229.0367 L478.8186,235.5213 " fill="#000000" style="stroke:#000000;stroke-width:1.0;"/><ellipse cx="334.5" cy="344.5" fill="#000000" rx="3" ry="3" style="stroke:#000000;stroke-width:1.0;"/><path d="M334.5,365.5 L347.5,365.5 C405.9749,365.5 414.6115,336.2462 470,317.5 C477.07,315.1072 484.3718,312.7325 491.7571,310.4038 " fill="none" style="stroke:#000000;stroke-width:1.0;stroke-dasharray:3.0,3.0;"/><path d="M492.682,313.3668 L493.9794,309.7101 L490.8322,307.4407 L499.1648,308.0914 L492.682,313.3668 " fill="#000000" style="stroke:#000000;stroke-width:1.0;"/><ellipse cx="334.5" cy="365.5" fill="#000000" rx="3" ry="3" style="stroke:#000000;stroke-width:1.0;"/><path d="M334.5,385.5 L347.5,385.5 C386.4351,385.5 428.4283,382.297 467.1467,378.02 " fill="none" style="stroke:#000000;stroke-width:1.0;stroke-dasharray:3.0,3.0;"/><path d="M467.4944,381.0993 L469.4562,377.7593 L466.7991,374.9407 L474.8449,377.1509 L467.4944,381.0993 " fill="#000000" style="stroke:#000000;stroke-width:1.0;"/><ellipse cx="334.5" cy="385.5" fill="#000000" rx="3" ry="3" style="stroke:#000000;stroke-width:1.0;"/><path d="M334.5,406.5 L347.5,406.5 C385.0407,406.5 425.4244,409.4777 462.9746,413.5247 " fill="none" style="stroke:#000000;stroke-width:1.0;stroke-dasharray:3.0,3.0;"/><path d="M462.6454,416.5129 L465.2158,413.7716 L463.3038,410.5365 L470.4452,414.3478 L462.6454,416.5129 " fill="#000000" style="stroke:#000000;stroke-width:1.0;"/><ellipse cx="334.5" cy="406.5" fill="#000000" rx="3" ry="3" style="stroke:#000000;stroke-width:1.0;"/><path d="M334.5,427.5 L347.5,427.5 C405.9749,427.5 414.5496,456.9377 470,475.5 C476.1703,477.5656 482.5185,479.612 488.9455,481.6221 " fill="none" style="stroke:#000000;stroke-width:1.0;stroke-dasharray:3.0,3.0;"/><path d="M488.0087,484.652 L491.218,482.3246 L489.8822,478.5921 L496.5205,483.964 L488.0087,484.652 " fill="#000000" style="stroke:#000000;stroke-width:1.0;"/><ellipse cx="334.5" cy="427.5" fill="#000000" rx="3" ry="3" style="stroke:#000000;stroke-width:1.0;"/><path d="M334.5,447.5 L347.5,447.5 C419.7892,447.5 406.3976,520.1421 470,554.5 C473.4381,556.3573 476.9728,558.1327 480.5797,559.8295 " fill="none" style="stroke:#000000;stroke-width:1.0;stroke-dasharray:3.0,3.0;"/><path d="M479.3129,562.6371 L482.6854,560.7796 L481.8464,557.0219 L487.5986,562.9964 L479.3129,562.6371 " fill="#000000" style="stroke:#000000;stroke-width:1.0;"/><ellipse cx="334.5" cy="447.5" fill="#000000" rx="3" ry="3" style="stroke:#000000;stroke-width:1.0;"/><path d="M334.5,468.5 L347.5,468.5 C438.8344,468.5 394.7417,581.749 470,633.5 C472.3667,635.1275 474.8,636.6874 477.2891,638.1825 " fill="none" style="stroke:#000000;stroke-width:1.0;stroke-dasharray:3.0,3.0;"/><path d="M475.7658,640.8672 L479.3027,639.3249 L478.8123,635.4977 L484.001,641.9906 L475.7658,640.8672 " fill="#000000" style="stroke:#000000;stroke-width:1.0;"/><ellipse cx="334.5" cy="468.5" fill="#000000" rx="3" ry="3" style="stroke:#000000;stroke-width:1.0;"/><path d="M334.5,488.5 L347.5,488.5 C460.9703,488.5 381.1641,641.9047 470,712.5 C471.7996,713.9301 473.6485,715.3078 475.541,716.635 " fill="none" style="stroke:#000000;stroke-width:1.0;stroke-dasharray:3.0,3.0;"/><path d="M473.8127,719.2724 L477.519,717.9312 L477.2693,713.9975 L482.1345,720.9557 L473.8127,719.2724 " fill="#000000" style="stroke:#000000;stroke-width:1.0;"/><ellipse cx="334.5" cy="488.5" fill="#000000" rx="3" ry="3" style="stroke:#000000;stroke-width:1.0;"/><path d="M186,336.5 L199,336.5 C244.3406,336.5 291.4028,365.289 316.0463,382.9834 " fill="none" style="stroke:#000000;stroke-width:1.0;stroke-dasharray:3.0,3.0;"/><path d="M314.181,385.5179 L317.9472,384.3824 L317.9117,380.4489 L322.3825,387.6468 L314.181,385.5179 " fill="#000000" style="stroke:#000000;stroke-width:1.0;"/><ellipse cx="186" cy="336.5" fill="#000000" rx="3" ry="3" style="stroke:#000000;stroke-width:1.0;"/><!--MD5=[5f026f8d1b3de34d700d12857b318660]
@startjson
{
    "field1": "Object",
    "combination": "Object",
    "null_distribution": {
        "total_null_rows": 0,
        "total_not_null_rows": 1596
    },
    "data_distribution": [
        {
            "field_value": "ModifiedDate",
            "row_count": 69,
            "ratio_percent": 4.323308270676692
        },
        {
            "field_value": "rowguid",
            "row_count": 29,
            "ratio_percent": 1.8170426065162908
        },
        {
            "field_value": "Name",
            "row_count": 23,
            "ratio_percent": 1.4411027568922306
        },
        {
            "field_value": "BusinessEntityID",
            "row_count": 17,
            "ratio_percent": 1.0651629072681705
        },
        {
            "field_value": "ProductID",
            "row_count": 16,
            "ratio_percent": 1.0025062656641603
        },
        {
            "field_value": "EndDate",
            "row_count": 7,
            "ratio_percent": 0.43859649122807015
        },
        {
            "field_value": "StartDate",
            "row_count": 7,
            "ratio_percent": 0.43859649122807015
        },
        {
            "field_value": "Document",
            "row_count": 6,
            "ratio_percent": 0.37593984962406013
        },
        {
            "field_value": "EmailAddress",
            "row_count": 6,
            "ratio_percent": 0.37593984962406013
        },
        {
            "field_value": "Person",
            "row_count": 6,
            "ratio_percent": 0.37593984962406013
        }
    ]
}
@endjson

PlantUML version 1.2022.5(Sat Apr 30 06:55:52 EDT 2022)
(GPL source distribution)
Java Runtime: OpenJDK Runtime Environment
JVM: OpenJDK 64-Bit Server VM
Default Encoding: UTF-8
Language: en
Country: CA
--></g></svg>