<?xml version="1.0" encoding="UTF-8" standalone="no"?><svg xmlns="http://www.w3.org/2000/svg" xmlns:xlink="http://www.w3.org/1999/xlink" contentStyleType="text/css" height="241px" preserveAspectRatio="none" style="width:748px;height:241px;background:#FFFFFF;" version="1.1" viewBox="0 0 748 241" width="748px" zoomAndPan="magnify"><defs/><g><rect fill="#F1F1F1" height="81.9531" rx="5" ry="5" style="stroke:#F1F1F1;stroke-width:1.5;" width="210" x="10" y="24.5"/><text fill="#000000" font-family="sans-serif" font-size="14" font-weight="bold" lengthAdjust="spacing" textLength="42" x="15" y="40.0352">field1</text><text fill="#000000" font-family="sans-serif" font-size="14" lengthAdjust="spacing" textLength="66" x="149" y="40.0352">StartTime</text><line style="stroke:#000000;stroke-width:1.0;" x1="144" x2="144" y1="24.5" y2="44.9883"/><line style="stroke:#000000;stroke-width:1.0;" x1="10" x2="220" y1="44.9883" y2="44.9883"/><text fill="#000000" font-family="sans-serif" font-size="14" font-weight="bold" lengthAdjust="spacing" textLength="90" x="15" y="60.5234">combination</text><text fill="#000000" font-family="sans-serif" font-size="14" lengthAdjust="spacing" textLength="66" x="149" y="60.5234">StartTime</text><line style="stroke:#000000;stroke-width:1.0;" x1="144" x2="144" y1="44.9883" y2="65.4766"/><line style="stroke:#000000;stroke-width:1.0;" x1="10" x2="220" y1="65.4766" y2="65.4766"/><text fill="#000000" font-family="sans-serif" font-size="14" font-weight="bold" lengthAdjust="spacing" textLength="121" x="15" y="81.0117">null_distribution</text><text fill="#000000" font-family="sans-serif" font-size="14" lengthAdjust="spacing" textLength="12" x="149" y="81.0117">   </text><line style="stroke:#000000;stroke-width:1.0;" x1="144" x2="144" y1="65.4766" y2="85.9648"/><line style="stroke:#000000;stroke-width:1.0;" x1="10" x2="220" y1="85.9648" y2="85.9648"/><text fill="#000000" font-family="sans-serif" font-size="14" font-weight="bold" lengthAdjust="spacing" textLength="124" x="15" y="101.5">data_distribution</text><text fill="#000000" font-family="sans-serif" font-size="14" lengthAdjust="spacing" textLength="12" x="149" y="101.5">   </text><line style="stroke:#000000;stroke-width:1.0;" x1="144" x2="144" y1="85.9648" y2="106.4531"/><rect fill="none" height="81.9531" rx="5" ry="5" style="stroke:#000000;stroke-width:1.5;" width="210" x="10" y="24.5"/><rect fill="#F1F1F1" height="40.9766" rx="5" ry="5" style="stroke:#F1F1F1;stroke-width:1.5;" width="171" x="257" y="31"/><text fill="#000000" font-family="sans-serif" font-size="14" font-weight="bold" lengthAdjust="spacing" textLength="111" x="262" y="46.5352">total_null_rows</text><text fill="#000000" font-family="sans-serif" font-size="14" lengthAdjust="spacing" textLength="9" x="414" y="46.5352">0</text><line style="stroke:#000000;stroke-width:1.0;" x1="409" x2="409" y1="31" y2="51.4883"/><line style="stroke:#000000;stroke-width:1.0;" x1="257" x2="428" y1="51.4883" y2="51.4883"/><text fill="#000000" font-family="sans-serif" font-size="14" font-weight="bold" lengthAdjust="spacing" textLength="142" x="262" y="67.0234">total_not_null_rows</text><text fill="#000000" font-family="sans-serif" font-size="14" lengthAdjust="spacing" textLength="9" x="414" y="67.0234">3</text><line style="stroke:#000000;stroke-width:1.0;" x1="409" x2="409" y1="51.4883" y2="71.9766"/><rect fill="none" height="40.9766" rx="5" ry="5" style="stroke:#000000;stroke-width:1.5;" width="171" x="257" y="31"/><rect fill="#F1F1F1" height="61.4648" rx="5" ry="5" style="stroke:#F1F1F1;stroke-width:1.5;" width="22" x="330.5" y="90"/><text fill="#000000" font-family="sans-serif" font-size="14" lengthAdjust="spacing" textLength="12" x="335.5" y="105.5352">   </text><line style="stroke:#000000;stroke-width:1.0;" x1="330.5" x2="352.5" y1="110.4883" y2="110.4883"/><text fill="#000000" font-family="sans-serif" font-size="14" lengthAdjust="spacing" textLength="12" x="335.5" y="126.0234">   </text><line style="stroke:#000000;stroke-width:1.0;" x1="330.5" x2="352.5" y1="130.9766" y2="130.9766"/><text fill="#000000" font-family="sans-serif" font-size="14" lengthAdjust="spacing" textLength="12" x="335.5" y="146.5117">   </text><rect fill="none" height="61.4648" rx="5" ry="5" style="stroke:#000000;stroke-width:1.5;" width="22" x="330.5" y="90"/><rect fill="#F1F1F1" height="61.4648" rx="5" ry="5" style="stroke:#F1F1F1;stroke-width:1.5;" width="271" x="465" y="10"/><text fill="#000000" font-family="sans-serif" font-size="14" font-weight="bold" lengthAdjust="spacing" textLength="78" x="470" y="25.5352">field_value</text><text fill="#000000" font-family="sans-serif" font-size="14" lengthAdjust="spacing" textLength="129" x="574" y="25.5352">23:00:00.0000000</text><line style="stroke:#000000;stroke-width:1.0;" x1="569" x2="569" y1="10" y2="30.4883"/><line style="stroke:#000000;stroke-width:1.0;" x1="465" x2="736" y1="30.4883" y2="30.4883"/><text fill="#000000" font-family="sans-serif" font-size="14" font-weight="bold" lengthAdjust="spacing" textLength="74" x="470" y="46.0234">row_count</text><text fill="#000000" font-family="sans-serif" font-size="14" lengthAdjust="spacing" textLength="9" x="574" y="46.0234">1</text><line style="stroke:#000000;stroke-width:1.0;" x1="569" x2="569" y1="30.4883" y2="50.9766"/><line style="stroke:#000000;stroke-width:1.0;" x1="465" x2="736" y1="50.9766" y2="50.9766"/><text fill="#000000" font-family="sans-serif" font-size="14" font-weight="bold" lengthAdjust="spacing" textLength="94" x="470" y="66.5117">ratio_percent</text><text fill="#000000" font-family="sans-serif" font-size="14" lengthAdjust="spacing" textLength="157" x="574" y="66.5117">33.333333333333336</text><line style="stroke:#000000;stroke-width:1.0;" x1="569" x2="569" y1="50.9766" y2="71.4648"/><rect fill="none" height="61.4648" rx="5" ry="5" style="stroke:#000000;stroke-width:1.5;" width="271" x="465" y="10"/><rect fill="#F1F1F1" height="61.4648" rx="5" ry="5" style="stroke:#F1F1F1;stroke-width:1.5;" width="271" x="465" y="89"/><text fill="#000000" font-family="sans-serif" font-size="14" font-weight="bold" lengthAdjust="spacing" textLength="78" x="470" y="104.5352">field_value</text><text fill="#000000" font-family="sans-serif" font-size="14" lengthAdjust="spacing" textLength="129" x="574" y="104.5352">15:00:00.0000000</text><line style="stroke:#000000;stroke-width:1.0;" x1="569" x2="569" y1="89" y2="109.4883"/><line style="stroke:#000000;stroke-width:1.0;" x1="465" x2="736" y1="109.4883" y2="109.4883"/><text fill="#000000" font-family="sans-serif" font-size="14" font-weight="bold" lengthAdjust="spacing" textLength="74" x="470" y="125.0234">row_count</text><text fill="#000000" font-family="sans-serif" font-size="14" lengthAdjust="spacing" textLength="9" x="574" y="125.0234">1</text><line style="stroke:#000000;stroke-width:1.0;" x1="569" x2="569" y1="109.4883" y2="129.9766"/><line style="stroke:#000000;stroke-width:1.0;" x1="465" x2="736" y1="129.9766" y2="129.9766"/><text fill="#000000" font-family="sans-serif" font-size="14" font-weight="bold" lengthAdjust="spacing" textLength="94" x="470" y="145.5117">ratio_percent</text><text fill="#000000" font-family="sans-serif" font-size="14" lengthAdjust="spacing" textLength="157" x="574" y="145.5117">33.333333333333336</text><line style="stroke:#000000;stroke-width:1.0;" x1="569" x2="569" y1="129.9766" y2="150.4648"/><rect fill="none" height="61.4648" rx="5" ry="5" style="stroke:#000000;stroke-width:1.5;" width="271" x="465" y="89"/><rect fill="#F1F1F1" height="61.4648" rx="5" ry="5" style="stroke:#F1F1F1;stroke-width:1.5;" width="271" x="465" y="168"/><text fill="#000000" font-family="sans-serif" font-size="14" font-weight="bold" lengthAdjust="spacing" textLength="78" x="470" y="183.5352">field_value</text><text fill="#000000" font-family="sans-serif" font-size="14" lengthAdjust="spacing" textLength="129" x="574" y="183.5352">07:00:00.0000000</text><line style="stroke:#000000;stroke-width:1.0;" x1="569" x2="569" y1="168" y2="188.4883"/><line style="stroke:#000000;stroke-width:1.0;" x1="465" x2="736" y1="188.4883" y2="188.4883"/><text fill="#000000" font-family="sans-serif" font-size="14" font-weight="bold" lengthAdjust="spacing" textLength="74" x="470" y="204.0234">row_count</text><text fill="#000000" font-family="sans-serif" font-size="14" lengthAdjust="spacing" textLength="9" x="574" y="204.0234">1</text><line style="stroke:#000000;stroke-width:1.0;" x1="569" x2="569" y1="188.4883" y2="208.9766"/><line style="stroke:#000000;stroke-width:1.0;" x1="465" x2="736" y1="208.9766" y2="208.9766"/><text fill="#000000" font-family="sans-serif" font-size="14" font-weight="bold" lengthAdjust="spacing" textLength="94" x="470" y="224.5117">ratio_percent</text><text fill="#000000" font-family="sans-serif" font-size="14" lengthAdjust="spacing" textLength="157" x="574" y="224.5117">33.333333333333336</text><line style="stroke:#000000;stroke-width:1.0;" x1="569" x2="569" y1="208.9766" y2="229.4648"/><rect fill="none" height="61.4648" rx="5" ry="5" style="stroke:#000000;stroke-width:1.5;" width="271" x="465" y="168"/><path d="M208,75.5 L221,75.5 C231.7014,75.5 242.8352,74.5856 253.8249,73.1138 " fill="none" style="stroke:#000000;stroke-width:1.0;stroke-dasharray:3.0,3.0;"/><path d="M254.2663,76.1451 L256.0983,72.7827 L253.3834,70.0826 L261.403,72.0102 L254.2663,76.1451 " fill="#000000" style="stroke:#000000;stroke-width:1.0;"/><ellipse cx="208" cy="75.5" fill="#000000" rx="3" ry="3" style="stroke:#000000;stroke-width:1.0;"/><path d="M343,99.5 L356,99.5 C381.9619,99.5 436.6069,86.7211 487.6142,73.0578 " fill="none" style="stroke:#000000;stroke-width:1.0;stroke-dasharray:3.0,3.0;"/><path d="M488.4225,76.056 L489.8628,72.4516 L486.8058,70.0597 L495.1096,71.0369 L488.4225,76.056 " fill="#000000" style="stroke:#000000;stroke-width:1.0;"/><ellipse cx="343" cy="99.5" fill="#000000" rx="3" ry="3" style="stroke:#000000;stroke-width:1.0;"/><path d="M343,119.5 L356,119.5 C388.9829,119.5 424.4738,119.5 457.8959,119.5 " fill="none" style="stroke:#000000;stroke-width:1.0;stroke-dasharray:3.0,3.0;"/><path d="M457.8959,122.5183 L460.1596,119.5 L457.8959,116.4817 L465.4416,119.5 L457.8959,122.5183 " fill="#000000" style="stroke:#000000;stroke-width:1.0;"/><ellipse cx="343" cy="119.5" fill="#000000" rx="3" ry="3" style="stroke:#000000;stroke-width:1.0;"/><path d="M343,140.5 L356,140.5 C381.6265,140.5 435.2739,152.7626 485.7555,166.0109 " fill="none" style="stroke:#000000;stroke-width:1.0;stroke-dasharray:3.0,3.0;"/><path d="M484.9713,168.9794 L487.982,166.599 L486.5397,163.0423 L493.177,167.9713 L484.9713,168.9794 " fill="#000000" style="stroke:#000000;stroke-width:1.0;"/><ellipse cx="343" cy="140.5" fill="#000000" rx="3" ry="3" style="stroke:#000000;stroke-width:1.0;"/><path d="M208,96.5 L221,96.5 C257.9429,96.5 300.0388,107.3971 323.5696,114.5057 " fill="none" style="stroke:#000000;stroke-width:1.0;stroke-dasharray:3.0,3.0;"/><path d="M322.6719,117.3993 L325.7398,115.179 L324.4673,111.6121 L330.8036,116.75 L322.6719,117.3993 " fill="#000000" style="stroke:#000000;stroke-width:1.0;"/><ellipse cx="208" cy="96.5" fill="#000000" rx="3" ry="3" style="stroke:#000000;stroke-width:1.0;"/><!--MD5=[6a18a7249f4a0e420e063493dd6ea092]
@startjson
{
    "field1": "StartTime",
    "combination": "StartTime",
    "null_distribution": {
        "total_null_rows": 0,
        "total_not_null_rows": 3
    },
    "data_distribution": [
        {
            "field_value": "23:00:00.0000000",
            "row_count": 1,
            "ratio_percent": 33.333333333333336
        },
        {
            "field_value": "15:00:00.0000000",
            "row_count": 1,
            "ratio_percent": 33.333333333333336
        },
        {
            "field_value": "07:00:00.0000000",
            "row_count": 1,
            "ratio_percent": 33.333333333333336
        }
    ]
}
@endjson

PlantUML version 1.2022.5(Sat Apr 30 06:55:52 EDT 2022)
(GPL source distribution)
Java Runtime: OpenJDK Runtime Environment
JVM: OpenJDK 64-Bit Server VM
Default Encoding: UTF-8
Language: en
Country: CA
--></g></svg>