<?xml version="1.0" encoding="UTF-8" standalone="no"?><svg xmlns="http://www.w3.org/2000/svg" xmlns:xlink="http://www.w3.org/1999/xlink" contentStyleType="text/css" height="182px" preserveAspectRatio="none" style="width:775px;height:182px;background:#FFFFFF;" version="1.1" viewBox="0 0 775 182" width="775px" zoomAndPan="magnify"><defs/><g><rect fill="#F1F1F1" height="81.9531" rx="5" ry="5" style="stroke:#F1F1F1;stroke-width:1.5;" width="228" x="10" y="10"/><text fill="#000000" font-family="sans-serif" font-size="14" font-weight="bold" lengthAdjust="spacing" textLength="42" x="15" y="25.5352">field1</text><text fill="#000000" font-family="sans-serif" font-size="14" lengthAdjust="spacing" textLength="84" x="149" y="25.5352">SalariedFlag</text><line style="stroke:#000000;stroke-width:1.0;" x1="144" x2="144" y1="10" y2="30.4883"/><line style="stroke:#000000;stroke-width:1.0;" x1="10" x2="238" y1="30.4883" y2="30.4883"/><text fill="#000000" font-family="sans-serif" font-size="14" font-weight="bold" lengthAdjust="spacing" textLength="90" x="15" y="46.0234">combination</text><text fill="#000000" font-family="sans-serif" font-size="14" lengthAdjust="spacing" textLength="84" x="149" y="46.0234">SalariedFlag</text><line style="stroke:#000000;stroke-width:1.0;" x1="144" x2="144" y1="30.4883" y2="50.9766"/><line style="stroke:#000000;stroke-width:1.0;" x1="10" x2="238" y1="50.9766" y2="50.9766"/><text fill="#000000" font-family="sans-serif" font-size="14" font-weight="bold" lengthAdjust="spacing" textLength="121" x="15" y="66.5117">null_distribution</text><text fill="#000000" font-family="sans-serif" font-size="14" lengthAdjust="spacing" textLength="12" x="149" y="66.5117">   </text><line style="stroke:#000000;stroke-width:1.0;" x1="144" x2="144" y1="50.9766" y2="71.4648"/><line style="stroke:#000000;stroke-width:1.0;" x1="10" x2="238" y1="71.4648" y2="71.4648"/><text fill="#000000" font-family="sans-serif" font-size="14" font-weight="bold" lengthAdjust="spacing" textLength="124" x="15" y="87">data_distribution</text><text fill="#000000" font-family="sans-serif" font-size="14" lengthAdjust="spacing" textLength="12" x="149" y="87">   </text><line style="stroke:#000000;stroke-width:1.0;" x1="144" x2="144" y1="71.4648" y2="91.9531"/><rect fill="none" height="81.9531" rx="5" ry="5" style="stroke:#000000;stroke-width:1.5;" width="228" x="10" y="10"/><rect fill="#F1F1F1" height="40.9766" rx="5" ry="5" style="stroke:#F1F1F1;stroke-width:1.5;" width="189" x="275" y="21.5"/><text fill="#000000" font-family="sans-serif" font-size="14" font-weight="bold" lengthAdjust="spacing" textLength="111" x="280" y="37.0352">total_null_rows</text><text fill="#000000" font-family="sans-serif" font-size="14" lengthAdjust="spacing" textLength="9" x="432" y="37.0352">0</text><line style="stroke:#000000;stroke-width:1.0;" x1="427" x2="427" y1="21.5" y2="41.9883"/><line style="stroke:#000000;stroke-width:1.0;" x1="275" x2="464" y1="41.9883" y2="41.9883"/><text fill="#000000" font-family="sans-serif" font-size="14" font-weight="bold" lengthAdjust="spacing" textLength="142" x="280" y="57.5234">total_not_null_rows</text><text fill="#000000" font-family="sans-serif" font-size="14" lengthAdjust="spacing" textLength="27" x="432" y="57.5234">290</text><line style="stroke:#000000;stroke-width:1.0;" x1="427" x2="427" y1="41.9883" y2="62.4766"/><rect fill="none" height="40.9766" rx="5" ry="5" style="stroke:#000000;stroke-width:1.5;" width="189" x="275" y="21.5"/><rect fill="#F1F1F1" height="40.9766" rx="5" ry="5" style="stroke:#F1F1F1;stroke-width:1.5;" width="22" x="357.5" y="80.5"/><text fill="#000000" font-family="sans-serif" font-size="14" lengthAdjust="spacing" textLength="12" x="362.5" y="96.0352">   </text><line style="stroke:#000000;stroke-width:1.0;" x1="357.5" x2="379.5" y1="100.9883" y2="100.9883"/><text fill="#000000" font-family="sans-serif" font-size="14" lengthAdjust="spacing" textLength="12" x="362.5" y="116.5234">   </text><rect fill="none" height="40.9766" rx="5" ry="5" style="stroke:#000000;stroke-width:1.5;" width="22" x="357.5" y="80.5"/><rect fill="#F1F1F1" height="61.4648" rx="5" ry="5" style="stroke:#F1F1F1;stroke-width:1.5;" width="262" x="501" y="30.5"/><text fill="#000000" font-family="sans-serif" font-size="14" font-weight="bold" lengthAdjust="spacing" textLength="78" x="506" y="46.0352">field_value</text><text fill="#000000" font-family="sans-serif" font-size="14" lengthAdjust="spacing" textLength="9" x="610" y="46.0352">0</text><line style="stroke:#000000;stroke-width:1.0;" x1="605" x2="605" y1="30.5" y2="50.9883"/><line style="stroke:#000000;stroke-width:1.0;" x1="501" x2="763" y1="50.9883" y2="50.9883"/><text fill="#000000" font-family="sans-serif" font-size="14" font-weight="bold" lengthAdjust="spacing" textLength="74" x="506" y="66.5234">row_count</text><text fill="#000000" font-family="sans-serif" font-size="14" lengthAdjust="spacing" textLength="27" x="610" y="66.5234">238</text><line style="stroke:#000000;stroke-width:1.0;" x1="605" x2="605" y1="50.9883" y2="71.4766"/><line style="stroke:#000000;stroke-width:1.0;" x1="501" x2="763" y1="71.4766" y2="71.4766"/><text fill="#000000" font-family="sans-serif" font-size="14" font-weight="bold" lengthAdjust="spacing" textLength="94" x="506" y="87.0117">ratio_percent</text><text fill="#000000" font-family="sans-serif" font-size="14" lengthAdjust="spacing" textLength="148" x="610" y="87.0117">82.06896551724138</text><line style="stroke:#000000;stroke-width:1.0;" x1="605" x2="605" y1="71.4766" y2="91.9648"/><rect fill="none" height="61.4648" rx="5" ry="5" style="stroke:#000000;stroke-width:1.5;" width="262" x="501" y="30.5"/><rect fill="#F1F1F1" height="61.4648" rx="5" ry="5" style="stroke:#F1F1F1;stroke-width:1.5;" width="262" x="501" y="109.5"/><text fill="#000000" font-family="sans-serif" font-size="14" font-weight="bold" lengthAdjust="spacing" textLength="78" x="506" y="125.0352">field_value</text><text fill="#000000" font-family="sans-serif" font-size="14" lengthAdjust="spacing" textLength="9" x="610" y="125.0352">1</text><line style="stroke:#000000;stroke-width:1.0;" x1="605" x2="605" y1="109.5" y2="129.9883"/><line style="stroke:#000000;stroke-width:1.0;" x1="501" x2="763" y1="129.9883" y2="129.9883"/><text fill="#000000" font-family="sans-serif" font-size="14" font-weight="bold" lengthAdjust="spacing" textLength="74" x="506" y="145.5234">row_count</text><text fill="#000000" font-family="sans-serif" font-size="14" lengthAdjust="spacing" textLength="18" x="610" y="145.5234">52</text><line style="stroke:#000000;stroke-width:1.0;" x1="605" x2="605" y1="129.9883" y2="150.4766"/><line style="stroke:#000000;stroke-width:1.0;" x1="501" x2="763" y1="150.4766" y2="150.4766"/><text fill="#000000" font-family="sans-serif" font-size="14" font-weight="bold" lengthAdjust="spacing" textLength="94" x="506" y="166.0117">ratio_percent</text><text fill="#000000" font-family="sans-serif" font-size="14" lengthAdjust="spacing" textLength="148" x="610" y="166.0117">17.93103448275862</text><line style="stroke:#000000;stroke-width:1.0;" x1="605" x2="605" y1="150.4766" y2="170.9648"/><rect fill="none" height="61.4648" rx="5" ry="5" style="stroke:#000000;stroke-width:1.5;" width="262" x="501" y="109.5"/><path d="M226,61 L239,61 C248.2689,61 257.8709,60.5212 267.4666,59.7157 " fill="none" style="stroke:#000000;stroke-width:1.0;stroke-dasharray:3.0,3.0;"/><path d="M267.7518,62.7908 L269.7729,59.5018 L267.1813,56.6406 L275.1543,59.0026 L267.7518,62.7908 " fill="#000000" style="stroke:#000000;stroke-width:1.0;"/><ellipse cx="226" cy="61" fill="#000000" rx="3" ry="3" style="stroke:#000000;stroke-width:1.0;"/><path d="M370,90 L383,90 C418.9888,90 457.713,86.9621 493.6319,82.8528 " fill="none" style="stroke:#000000;stroke-width:1.0;stroke-dasharray:3.0,3.0;"/><path d="M493.9889,85.9009 L495.9179,82.5851 L493.2749,79.8048 L501.252,81.9604 L493.9889,85.9009 " fill="#000000" style="stroke:#000000;stroke-width:1.0;"/><ellipse cx="370" cy="90" fill="#000000" rx="3" ry="3" style="stroke:#000000;stroke-width:1.0;"/><path d="M370,111 L383,111 C418.9888,111 457.713,114.0379 493.6319,118.1472 " fill="none" style="stroke:#000000;stroke-width:1.0;stroke-dasharray:3.0,3.0;"/><path d="M493.2749,121.1952 L495.9179,118.4149 L493.9889,115.0991 L501.252,119.0396 L493.2749,121.1952 " fill="#000000" style="stroke:#000000;stroke-width:1.0;"/><ellipse cx="370" cy="111" fill="#000000" rx="3" ry="3" style="stroke:#000000;stroke-width:1.0;"/><path d="M226,82 L239,82 C279.1344,82 325.5128,90.9761 350.5913,96.5892 " fill="none" style="stroke:#000000;stroke-width:1.0;stroke-dasharray:3.0,3.0;"/><path d="M349.9158,99.5328 L352.799,97.0957 L351.2667,93.6455 L357.9503,98.2778 L349.9158,99.5328 " fill="#000000" style="stroke:#000000;stroke-width:1.0;"/><ellipse cx="226" cy="82" fill="#000000" rx="3" ry="3" style="stroke:#000000;stroke-width:1.0;"/><!--MD5=[a117d91ca0ccfc662d743ef32e4d53ea]
@startjson
{
    "field1": "SalariedFlag",
    "combination": "SalariedFlag",
    "null_distribution": {
        "total_null_rows": 0,
        "total_not_null_rows": 290
    },
    "data_distribution": [
        {
            "field_value": "0",
            "row_count": 238,
            "ratio_percent": 82.06896551724138
        },
        {
            "field_value": "1",
            "row_count": 52,
            "ratio_percent": 17.93103448275862
        }
    ]
}
@endjson

PlantUML version 1.2022.5(Sat Apr 30 06:55:52 EDT 2022)
(GPL source distribution)
Java Runtime: OpenJDK Runtime Environment
JVM: OpenJDK 64-Bit Server VM
Default Encoding: UTF-8
Language: en
Country: CA
--></g></svg>