<?xml version="1.0" encoding="UTF-8" standalone="no"?><svg xmlns="http://www.w3.org/2000/svg" xmlns:xlink="http://www.w3.org/1999/xlink" contentStyleType="text/css" height="182px" preserveAspectRatio="none" style="width:771px;height:182px;background:#FFFFFF;" version="1.1" viewBox="0 0 771 182" width="771px" zoomAndPan="magnify"><defs/><g><rect fill="#F1F1F1" height="81.9531" rx="5" ry="5" style="stroke:#F1F1F1;stroke-width:1.5;" width="233" x="10" y="10"/><text fill="#000000" font-family="sans-serif" font-size="14" font-weight="bold" lengthAdjust="spacing" textLength="42" x="15" y="25.5352">field1</text><text fill="#000000" font-family="sans-serif" font-size="14" lengthAdjust="spacing" textLength="89" x="149" y="25.5352">MaritalStatus</text><line style="stroke:#000000;stroke-width:1.0;" x1="144" x2="144" y1="10" y2="30.4883"/><line style="stroke:#000000;stroke-width:1.0;" x1="10" x2="243" y1="30.4883" y2="30.4883"/><text fill="#000000" font-family="sans-serif" font-size="14" font-weight="bold" lengthAdjust="spacing" textLength="90" x="15" y="46.0234">combination</text><text fill="#000000" font-family="sans-serif" font-size="14" lengthAdjust="spacing" textLength="89" x="149" y="46.0234">MaritalStatus</text><line style="stroke:#000000;stroke-width:1.0;" x1="144" x2="144" y1="30.4883" y2="50.9766"/><line style="stroke:#000000;stroke-width:1.0;" x1="10" x2="243" y1="50.9766" y2="50.9766"/><text fill="#000000" font-family="sans-serif" font-size="14" font-weight="bold" lengthAdjust="spacing" textLength="121" x="15" y="66.5117">null_distribution</text><text fill="#000000" font-family="sans-serif" font-size="14" lengthAdjust="spacing" textLength="12" x="149" y="66.5117">   </text><line style="stroke:#000000;stroke-width:1.0;" x1="144" x2="144" y1="50.9766" y2="71.4648"/><line style="stroke:#000000;stroke-width:1.0;" x1="10" x2="243" y1="71.4648" y2="71.4648"/><text fill="#000000" font-family="sans-serif" font-size="14" font-weight="bold" lengthAdjust="spacing" textLength="124" x="15" y="87">data_distribution</text><text fill="#000000" font-family="sans-serif" font-size="14" lengthAdjust="spacing" textLength="12" x="149" y="87">   </text><line style="stroke:#000000;stroke-width:1.0;" x1="144" x2="144" y1="71.4648" y2="91.9531"/><rect fill="none" height="81.9531" rx="5" ry="5" style="stroke:#000000;stroke-width:1.5;" width="233" x="10" y="10"/><rect fill="#F1F1F1" height="40.9766" rx="5" ry="5" style="stroke:#F1F1F1;stroke-width:1.5;" width="189" x="280" y="21.5"/><text fill="#000000" font-family="sans-serif" font-size="14" font-weight="bold" lengthAdjust="spacing" textLength="111" x="285" y="37.0352">total_null_rows</text><text fill="#000000" font-family="sans-serif" font-size="14" lengthAdjust="spacing" textLength="9" x="437" y="37.0352">0</text><line style="stroke:#000000;stroke-width:1.0;" x1="432" x2="432" y1="21.5" y2="41.9883"/><line style="stroke:#000000;stroke-width:1.0;" x1="280" x2="469" y1="41.9883" y2="41.9883"/><text fill="#000000" font-family="sans-serif" font-size="14" font-weight="bold" lengthAdjust="spacing" textLength="142" x="285" y="57.5234">total_not_null_rows</text><text fill="#000000" font-family="sans-serif" font-size="14" lengthAdjust="spacing" textLength="27" x="437" y="57.5234">290</text><line style="stroke:#000000;stroke-width:1.0;" x1="432" x2="432" y1="41.9883" y2="62.4766"/><rect fill="none" height="40.9766" rx="5" ry="5" style="stroke:#000000;stroke-width:1.5;" width="189" x="280" y="21.5"/><rect fill="#F1F1F1" height="40.9766" rx="5" ry="5" style="stroke:#F1F1F1;stroke-width:1.5;" width="22" x="362.5" y="80.5"/><text fill="#000000" font-family="sans-serif" font-size="14" lengthAdjust="spacing" textLength="12" x="367.5" y="96.0352">   </text><line style="stroke:#000000;stroke-width:1.0;" x1="362.5" x2="384.5" y1="100.9883" y2="100.9883"/><text fill="#000000" font-family="sans-serif" font-size="14" lengthAdjust="spacing" textLength="12" x="367.5" y="116.5234">   </text><rect fill="none" height="40.9766" rx="5" ry="5" style="stroke:#000000;stroke-width:1.5;" width="22" x="362.5" y="80.5"/><rect fill="#F1F1F1" height="61.4648" rx="5" ry="5" style="stroke:#F1F1F1;stroke-width:1.5;" width="253" x="506" y="30.5"/><text fill="#000000" font-family="sans-serif" font-size="14" font-weight="bold" lengthAdjust="spacing" textLength="78" x="511" y="46.0352">field_value</text><text fill="#000000" font-family="sans-serif" font-size="14" lengthAdjust="spacing" textLength="12" x="615" y="46.0352">M</text><line style="stroke:#000000;stroke-width:1.0;" x1="610" x2="610" y1="30.5" y2="50.9883"/><line style="stroke:#000000;stroke-width:1.0;" x1="506" x2="759" y1="50.9883" y2="50.9883"/><text fill="#000000" font-family="sans-serif" font-size="14" font-weight="bold" lengthAdjust="spacing" textLength="74" x="511" y="66.5234">row_count</text><text fill="#000000" font-family="sans-serif" font-size="14" lengthAdjust="spacing" textLength="27" x="615" y="66.5234">146</text><line style="stroke:#000000;stroke-width:1.0;" x1="610" x2="610" y1="50.9883" y2="71.4766"/><line style="stroke:#000000;stroke-width:1.0;" x1="506" x2="759" y1="71.4766" y2="71.4766"/><text fill="#000000" font-family="sans-serif" font-size="14" font-weight="bold" lengthAdjust="spacing" textLength="94" x="511" y="87.0117">ratio_percent</text><text fill="#000000" font-family="sans-serif" font-size="14" lengthAdjust="spacing" textLength="139" x="615" y="87.0117">50.3448275862069</text><line style="stroke:#000000;stroke-width:1.0;" x1="610" x2="610" y1="71.4766" y2="91.9648"/><rect fill="none" height="61.4648" rx="5" ry="5" style="stroke:#000000;stroke-width:1.5;" width="253" x="506" y="30.5"/><rect fill="#F1F1F1" height="61.4648" rx="5" ry="5" style="stroke:#F1F1F1;stroke-width:1.5;" width="253" x="506" y="109.5"/><text fill="#000000" font-family="sans-serif" font-size="14" font-weight="bold" lengthAdjust="spacing" textLength="78" x="511" y="125.0352">field_value</text><text fill="#000000" font-family="sans-serif" font-size="14" lengthAdjust="spacing" textLength="8" x="615" y="125.0352">S</text><line style="stroke:#000000;stroke-width:1.0;" x1="610" x2="610" y1="109.5" y2="129.9883"/><line style="stroke:#000000;stroke-width:1.0;" x1="506" x2="759" y1="129.9883" y2="129.9883"/><text fill="#000000" font-family="sans-serif" font-size="14" font-weight="bold" lengthAdjust="spacing" textLength="74" x="511" y="145.5234">row_count</text><text fill="#000000" font-family="sans-serif" font-size="14" lengthAdjust="spacing" textLength="27" x="615" y="145.5234">144</text><line style="stroke:#000000;stroke-width:1.0;" x1="610" x2="610" y1="129.9883" y2="150.4766"/><line style="stroke:#000000;stroke-width:1.0;" x1="506" x2="759" y1="150.4766" y2="150.4766"/><text fill="#000000" font-family="sans-serif" font-size="14" font-weight="bold" lengthAdjust="spacing" textLength="94" x="511" y="166.0117">ratio_percent</text><text fill="#000000" font-family="sans-serif" font-size="14" lengthAdjust="spacing" textLength="139" x="615" y="166.0117">49.6551724137931</text><line style="stroke:#000000;stroke-width:1.0;" x1="610" x2="610" y1="150.4766" y2="170.9648"/><rect fill="none" height="61.4648" rx="5" ry="5" style="stroke:#000000;stroke-width:1.5;" width="253" x="506" y="109.5"/><path d="M231,61 L244,61 C253.2689,61 262.8709,60.5212 272.4666,59.7157 " fill="none" style="stroke:#000000;stroke-width:1.0;stroke-dasharray:3.0,3.0;"/><path d="M272.7518,62.7908 L274.7729,59.5018 L272.1813,56.6406 L280.1543,59.0026 L272.7518,62.7908 " fill="#000000" style="stroke:#000000;stroke-width:1.0;"/><ellipse cx="231" cy="61" fill="#000000" rx="3" ry="3" style="stroke:#000000;stroke-width:1.0;"/><path d="M375,90 L388,90 C424.0429,90 462.8727,86.8411 498.7237,82.6085 " fill="none" style="stroke:#000000;stroke-width:1.0;stroke-dasharray:3.0,3.0;"/><path d="M499.0912,85.6497 L501.0046,82.3329 L498.3562,79.5673 L506.3266,81.6898 L499.0912,85.6497 " fill="#000000" style="stroke:#000000;stroke-width:1.0;"/><ellipse cx="375" cy="90" fill="#000000" rx="3" ry="3" style="stroke:#000000;stroke-width:1.0;"/><path d="M375,111 L388,111 C424.0429,111 462.8727,114.1589 498.7237,118.3915 " fill="none" style="stroke:#000000;stroke-width:1.0;stroke-dasharray:3.0,3.0;"/><path d="M498.3562,121.4327 L501.0046,118.6671 L499.0912,115.3503 L506.3266,119.3102 L498.3562,121.4327 " fill="#000000" style="stroke:#000000;stroke-width:1.0;"/><ellipse cx="375" cy="111" fill="#000000" rx="3" ry="3" style="stroke:#000000;stroke-width:1.0;"/><path d="M231,82 L244,82 C284.1344,82 330.5128,90.9761 355.5913,96.5892 " fill="none" style="stroke:#000000;stroke-width:1.0;stroke-dasharray:3.0,3.0;"/><path d="M354.9158,99.5328 L357.799,97.0957 L356.2667,93.6455 L362.9503,98.2778 L354.9158,99.5328 " fill="#000000" style="stroke:#000000;stroke-width:1.0;"/><ellipse cx="231" cy="82" fill="#000000" rx="3" ry="3" style="stroke:#000000;stroke-width:1.0;"/><!--MD5=[9283a491f02e39aae928dd1c42e663d6]
@startjson
{
    "field1": "MaritalStatus",
    "combination": "MaritalStatus",
    "null_distribution": {
        "total_null_rows": 0,
        "total_not_null_rows": 290
    },
    "data_distribution": [
        {
            "field_value": "M",
            "row_count": 146,
            "ratio_percent": 50.3448275862069
        },
        {
            "field_value": "S",
            "row_count": 144,
            "ratio_percent": 49.6551724137931
        }
    ]
}
@endjson

PlantUML version 1.2022.5(Sat Apr 30 06:55:52 EDT 2022)
(GPL source distribution)
Java Runtime: OpenJDK Runtime Environment
JVM: OpenJDK 64-Bit Server VM
Default Encoding: UTF-8
Language: en
Country: CA
--></g></svg>