<?xml version="1.0" encoding="UTF-8" standalone="no"?><svg xmlns="http://www.w3.org/2000/svg" xmlns:xlink="http://www.w3.org/1999/xlink" contentStyleType="text/css" height="478px" preserveAspectRatio="none" style="width:874px;height:478px;background:#FFFFFF;" version="1.1" viewBox="0 0 874 478" width="874px" zoomAndPan="magnify"><defs/><g><rect fill="#F1F1F1" height="81.9531" rx="5" ry="5" style="stroke:#F1F1F1;stroke-width:1.5;" width="226" x="10" y="126.5"/><text fill="#000000" font-family="sans-serif" font-size="14" font-weight="bold" lengthAdjust="spacing" textLength="42" x="15" y="142.0352">field1</text><text fill="#000000" font-family="sans-serif" font-size="14" lengthAdjust="spacing" textLength="82" x="149" y="142.0352">GroupName</text><line style="stroke:#000000;stroke-width:1.0;" x1="144" x2="144" y1="126.5" y2="146.9883"/><line style="stroke:#000000;stroke-width:1.0;" x1="10" x2="236" y1="146.9883" y2="146.9883"/><text fill="#000000" font-family="sans-serif" font-size="14" font-weight="bold" lengthAdjust="spacing" textLength="90" x="15" y="162.5234">combination</text><text fill="#000000" font-family="sans-serif" font-size="14" lengthAdjust="spacing" textLength="82" x="149" y="162.5234">GroupName</text><line style="stroke:#000000;stroke-width:1.0;" x1="144" x2="144" y1="146.9883" y2="167.4766"/><line style="stroke:#000000;stroke-width:1.0;" x1="10" x2="236" y1="167.4766" y2="167.4766"/><text fill="#000000" font-family="sans-serif" font-size="14" font-weight="bold" lengthAdjust="spacing" textLength="121" x="15" y="183.0117">null_distribution</text><text fill="#000000" font-family="sans-serif" font-size="14" lengthAdjust="spacing" textLength="12" x="149" y="183.0117">   </text><line style="stroke:#000000;stroke-width:1.0;" x1="144" x2="144" y1="167.4766" y2="187.9648"/><line style="stroke:#000000;stroke-width:1.0;" x1="10" x2="236" y1="187.9648" y2="187.9648"/><text fill="#000000" font-family="sans-serif" font-size="14" font-weight="bold" lengthAdjust="spacing" textLength="124" x="15" y="203.5">data_distribution</text><text fill="#000000" font-family="sans-serif" font-size="14" lengthAdjust="spacing" textLength="12" x="149" y="203.5">   </text><line style="stroke:#000000;stroke-width:1.0;" x1="144" x2="144" y1="187.9648" y2="208.4531"/><rect fill="none" height="81.9531" rx="5" ry="5" style="stroke:#000000;stroke-width:1.5;" width="226" x="10" y="126.5"/><rect fill="#F1F1F1" height="40.9766" rx="5" ry="5" style="stroke:#F1F1F1;stroke-width:1.5;" width="180" x="273" y="118"/><text fill="#000000" font-family="sans-serif" font-size="14" font-weight="bold" lengthAdjust="spacing" textLength="111" x="278" y="133.5352">total_null_rows</text><text fill="#000000" font-family="sans-serif" font-size="14" lengthAdjust="spacing" textLength="9" x="430" y="133.5352">0</text><line style="stroke:#000000;stroke-width:1.0;" x1="425" x2="425" y1="118" y2="138.4883"/><line style="stroke:#000000;stroke-width:1.0;" x1="273" x2="453" y1="138.4883" y2="138.4883"/><text fill="#000000" font-family="sans-serif" font-size="14" font-weight="bold" lengthAdjust="spacing" textLength="142" x="278" y="154.0234">total_not_null_rows</text><text fill="#000000" font-family="sans-serif" font-size="14" lengthAdjust="spacing" textLength="18" x="430" y="154.0234">16</text><line style="stroke:#000000;stroke-width:1.0;" x1="425" x2="425" y1="138.4883" y2="158.9766"/><rect fill="none" height="40.9766" rx="5" ry="5" style="stroke:#000000;stroke-width:1.5;" width="180" x="273" y="118"/><rect fill="#F1F1F1" height="122.9297" rx="5" ry="5" style="stroke:#F1F1F1;stroke-width:1.5;" width="22" x="351" y="177"/><text fill="#000000" font-family="sans-serif" font-size="14" lengthAdjust="spacing" textLength="12" x="356" y="192.5352">   </text><line style="stroke:#000000;stroke-width:1.0;" x1="351" x2="373" y1="197.4883" y2="197.4883"/><text fill="#000000" font-family="sans-serif" font-size="14" lengthAdjust="spacing" textLength="12" x="356" y="213.0234">   </text><line style="stroke:#000000;stroke-width:1.0;" x1="351" x2="373" y1="217.9766" y2="217.9766"/><text fill="#000000" font-family="sans-serif" font-size="14" lengthAdjust="spacing" textLength="12" x="356" y="233.5117">   </text><line style="stroke:#000000;stroke-width:1.0;" x1="351" x2="373" y1="238.4648" y2="238.4648"/><text fill="#000000" font-family="sans-serif" font-size="14" lengthAdjust="spacing" textLength="12" x="356" y="254">   </text><line style="stroke:#000000;stroke-width:1.0;" x1="351" x2="373" y1="258.9531" y2="258.9531"/><text fill="#000000" font-family="sans-serif" font-size="14" lengthAdjust="spacing" textLength="12" x="356" y="274.4883">   </text><line style="stroke:#000000;stroke-width:1.0;" x1="351" x2="373" y1="279.4414" y2="279.4414"/><text fill="#000000" font-family="sans-serif" font-size="14" lengthAdjust="spacing" textLength="12" x="356" y="294.9766">   </text><rect fill="none" height="122.9297" rx="5" ry="5" style="stroke:#000000;stroke-width:1.5;" width="22" x="351" y="177"/><rect fill="#F1F1F1" height="61.4648" rx="5" ry="5" style="stroke:#F1F1F1;stroke-width:1.5;" width="372" x="490" y="10"/><text fill="#000000" font-family="sans-serif" font-size="14" font-weight="bold" lengthAdjust="spacing" textLength="78" x="495" y="25.5352">field_value</text><text fill="#000000" font-family="sans-serif" font-size="14" lengthAdjust="spacing" textLength="258" x="599" y="25.5352">Executive General and Administration</text><line style="stroke:#000000;stroke-width:1.0;" x1="594" x2="594" y1="10" y2="30.4883"/><line style="stroke:#000000;stroke-width:1.0;" x1="490" x2="862" y1="30.4883" y2="30.4883"/><text fill="#000000" font-family="sans-serif" font-size="14" font-weight="bold" lengthAdjust="spacing" textLength="74" x="495" y="46.0234">row_count</text><text fill="#000000" font-family="sans-serif" font-size="14" lengthAdjust="spacing" textLength="9" x="599" y="46.0234">5</text><line style="stroke:#000000;stroke-width:1.0;" x1="594" x2="594" y1="30.4883" y2="50.9766"/><line style="stroke:#000000;stroke-width:1.0;" x1="490" x2="862" y1="50.9766" y2="50.9766"/><text fill="#000000" font-family="sans-serif" font-size="14" font-weight="bold" lengthAdjust="spacing" textLength="94" x="495" y="66.5117">ratio_percent</text><text fill="#000000" font-family="sans-serif" font-size="14" lengthAdjust="spacing" textLength="40" x="599" y="66.5117">31.25</text><line style="stroke:#000000;stroke-width:1.0;" x1="594" x2="594" y1="50.9766" y2="71.4648"/><rect fill="none" height="61.4648" rx="5" ry="5" style="stroke:#000000;stroke-width:1.5;" width="372" x="490" y="10"/><rect fill="#F1F1F1" height="61.4648" rx="5" ry="5" style="stroke:#F1F1F1;stroke-width:1.5;" width="300" x="526" y="89"/><text fill="#000000" font-family="sans-serif" font-size="14" font-weight="bold" lengthAdjust="spacing" textLength="78" x="531" y="104.5352">field_value</text><text fill="#000000" font-family="sans-serif" font-size="14" lengthAdjust="spacing" textLength="186" x="635" y="104.5352">Research and Development</text><line style="stroke:#000000;stroke-width:1.0;" x1="630" x2="630" y1="89" y2="109.4883"/><line style="stroke:#000000;stroke-width:1.0;" x1="526" x2="826" y1="109.4883" y2="109.4883"/><text fill="#000000" font-family="sans-serif" font-size="14" font-weight="bold" lengthAdjust="spacing" textLength="74" x="531" y="125.0234">row_count</text><text fill="#000000" font-family="sans-serif" font-size="14" lengthAdjust="spacing" textLength="9" x="635" y="125.0234">3</text><line style="stroke:#000000;stroke-width:1.0;" x1="630" x2="630" y1="109.4883" y2="129.9766"/><line style="stroke:#000000;stroke-width:1.0;" x1="526" x2="826" y1="129.9766" y2="129.9766"/><text fill="#000000" font-family="sans-serif" font-size="14" font-weight="bold" lengthAdjust="spacing" textLength="94" x="531" y="145.5117">ratio_percent</text><text fill="#000000" font-family="sans-serif" font-size="14" lengthAdjust="spacing" textLength="40" x="635" y="145.5117">18.75</text><line style="stroke:#000000;stroke-width:1.0;" x1="630" x2="630" y1="129.9766" y2="150.4648"/><rect fill="none" height="61.4648" rx="5" ry="5" style="stroke:#000000;stroke-width:1.5;" width="300" x="526" y="89"/><rect fill="#F1F1F1" height="61.4648" rx="5" ry="5" style="stroke:#F1F1F1;stroke-width:1.5;" width="252" x="550" y="168"/><text fill="#000000" font-family="sans-serif" font-size="14" font-weight="bold" lengthAdjust="spacing" textLength="78" x="555" y="183.5352">field_value</text><text fill="#000000" font-family="sans-serif" font-size="14" lengthAdjust="spacing" textLength="138" x="659" y="183.5352">Sales and Marketing</text><line style="stroke:#000000;stroke-width:1.0;" x1="654" x2="654" y1="168" y2="188.4883"/><line style="stroke:#000000;stroke-width:1.0;" x1="550" x2="802" y1="188.4883" y2="188.4883"/><text fill="#000000" font-family="sans-serif" font-size="14" font-weight="bold" lengthAdjust="spacing" textLength="74" x="555" y="204.0234">row_count</text><text fill="#000000" font-family="sans-serif" font-size="14" lengthAdjust="spacing" textLength="9" x="659" y="204.0234">2</text><line style="stroke:#000000;stroke-width:1.0;" x1="654" x2="654" y1="188.4883" y2="208.9766"/><line style="stroke:#000000;stroke-width:1.0;" x1="550" x2="802" y1="208.9766" y2="208.9766"/><text fill="#000000" font-family="sans-serif" font-size="14" font-weight="bold" lengthAdjust="spacing" textLength="94" x="555" y="224.5117">ratio_percent</text><text fill="#000000" font-family="sans-serif" font-size="14" lengthAdjust="spacing" textLength="31" x="659" y="224.5117">12.5</text><line style="stroke:#000000;stroke-width:1.0;" x1="654" x2="654" y1="208.9766" y2="229.4648"/><rect fill="none" height="61.4648" rx="5" ry="5" style="stroke:#000000;stroke-width:1.5;" width="252" x="550" y="168"/><rect fill="#F1F1F1" height="61.4648" rx="5" ry="5" style="stroke:#F1F1F1;stroke-width:1.5;" width="237" x="557.5" y="247"/><text fill="#000000" font-family="sans-serif" font-size="14" font-weight="bold" lengthAdjust="spacing" textLength="78" x="562.5" y="262.5352">field_value</text><text fill="#000000" font-family="sans-serif" font-size="14" lengthAdjust="spacing" textLength="123" x="666.5" y="262.5352">Quality Assurance</text><line style="stroke:#000000;stroke-width:1.0;" x1="661.5" x2="661.5" y1="247" y2="267.4883"/><line style="stroke:#000000;stroke-width:1.0;" x1="557.5" x2="794.5" y1="267.4883" y2="267.4883"/><text fill="#000000" font-family="sans-serif" font-size="14" font-weight="bold" lengthAdjust="spacing" textLength="74" x="562.5" y="283.0234">row_count</text><text fill="#000000" font-family="sans-serif" font-size="14" lengthAdjust="spacing" textLength="9" x="666.5" y="283.0234">2</text><line style="stroke:#000000;stroke-width:1.0;" x1="661.5" x2="661.5" y1="267.4883" y2="287.9766"/><line style="stroke:#000000;stroke-width:1.0;" x1="557.5" x2="794.5" y1="287.9766" y2="287.9766"/><text fill="#000000" font-family="sans-serif" font-size="14" font-weight="bold" lengthAdjust="spacing" textLength="94" x="562.5" y="303.5117">ratio_percent</text><text fill="#000000" font-family="sans-serif" font-size="14" lengthAdjust="spacing" textLength="31" x="666.5" y="303.5117">12.5</text><line style="stroke:#000000;stroke-width:1.0;" x1="661.5" x2="661.5" y1="287.9766" y2="308.4648"/><rect fill="none" height="61.4648" rx="5" ry="5" style="stroke:#000000;stroke-width:1.5;" width="237" x="557.5" y="247"/><rect fill="#F1F1F1" height="61.4648" rx="5" ry="5" style="stroke:#F1F1F1;stroke-width:1.5;" width="214" x="569" y="326"/><text fill="#000000" font-family="sans-serif" font-size="14" font-weight="bold" lengthAdjust="spacing" textLength="78" x="574" y="341.5352">field_value</text><text fill="#000000" font-family="sans-serif" font-size="14" lengthAdjust="spacing" textLength="100" x="678" y="341.5352">Manufacturing</text><line style="stroke:#000000;stroke-width:1.0;" x1="673" x2="673" y1="326" y2="346.4883"/><line style="stroke:#000000;stroke-width:1.0;" x1="569" x2="783" y1="346.4883" y2="346.4883"/><text fill="#000000" font-family="sans-serif" font-size="14" font-weight="bold" lengthAdjust="spacing" textLength="74" x="574" y="362.0234">row_count</text><text fill="#000000" font-family="sans-serif" font-size="14" lengthAdjust="spacing" textLength="9" x="678" y="362.0234">2</text><line style="stroke:#000000;stroke-width:1.0;" x1="673" x2="673" y1="346.4883" y2="366.9766"/><line style="stroke:#000000;stroke-width:1.0;" x1="569" x2="783" y1="366.9766" y2="366.9766"/><text fill="#000000" font-family="sans-serif" font-size="14" font-weight="bold" lengthAdjust="spacing" textLength="94" x="574" y="382.5117">ratio_percent</text><text fill="#000000" font-family="sans-serif" font-size="14" lengthAdjust="spacing" textLength="31" x="678" y="382.5117">12.5</text><line style="stroke:#000000;stroke-width:1.0;" x1="673" x2="673" y1="366.9766" y2="387.4648"/><rect fill="none" height="61.4648" rx="5" ry="5" style="stroke:#000000;stroke-width:1.5;" width="214" x="569" y="326"/><rect fill="#F1F1F1" height="61.4648" rx="5" ry="5" style="stroke:#F1F1F1;stroke-width:1.5;" width="271" x="540.5" y="405"/><text fill="#000000" font-family="sans-serif" font-size="14" font-weight="bold" lengthAdjust="spacing" textLength="78" x="545.5" y="420.5352">field_value</text><text fill="#000000" font-family="sans-serif" font-size="14" lengthAdjust="spacing" textLength="157" x="649.5" y="420.5352">Inventory Management</text><line style="stroke:#000000;stroke-width:1.0;" x1="644.5" x2="644.5" y1="405" y2="425.4883"/><line style="stroke:#000000;stroke-width:1.0;" x1="540.5" x2="811.5" y1="425.4883" y2="425.4883"/><text fill="#000000" font-family="sans-serif" font-size="14" font-weight="bold" lengthAdjust="spacing" textLength="74" x="545.5" y="441.0234">row_count</text><text fill="#000000" font-family="sans-serif" font-size="14" lengthAdjust="spacing" textLength="9" x="649.5" y="441.0234">2</text><line style="stroke:#000000;stroke-width:1.0;" x1="644.5" x2="644.5" y1="425.4883" y2="445.9766"/><line style="stroke:#000000;stroke-width:1.0;" x1="540.5" x2="811.5" y1="445.9766" y2="445.9766"/><text fill="#000000" font-family="sans-serif" font-size="14" font-weight="bold" lengthAdjust="spacing" textLength="94" x="545.5" y="461.5117">ratio_percent</text><text fill="#000000" font-family="sans-serif" font-size="14" lengthAdjust="spacing" textLength="31" x="649.5" y="461.5117">12.5</text><line style="stroke:#000000;stroke-width:1.0;" x1="644.5" x2="644.5" y1="445.9766" y2="466.4648"/><rect fill="none" height="61.4648" rx="5" ry="5" style="stroke:#000000;stroke-width:1.5;" width="271" x="540.5" y="405"/><path d="M224,177.5 L237,177.5 C243.4391,177.5 268.6027,169.9165 294.7251,161.4376 " fill="none" style="stroke:#000000;stroke-width:1.0;stroke-dasharray:3.0,3.0;"/><path d="M295.689,164.389 L296.9387,160.7147 L293.7612,158.4862 L302.1036,159.0279 L295.689,164.389 " fill="#000000" style="stroke:#000000;stroke-width:1.0;"/><ellipse cx="224" cy="177.5" fill="#000000" rx="3" ry="3" style="stroke:#000000;stroke-width:1.0;"/><path d="M363.5,186.5 L376.5,186.5 C411.8613,186.5 427.1216,191.4776 454,168.5 C486.433,140.7738 457.2778,106.8843 490,79.5 C491.5458,78.2064 493.1238,76.9523 494.7316,75.7367 " fill="none" style="stroke:#000000;stroke-width:1.0;stroke-dasharray:3.0,3.0;"/><path d="M496.5319,78.2743 L496.6348,74.3865 L492.9313,73.1991 L501.0757,71.2359 L496.5319,78.2743 " fill="#000000" style="stroke:#000000;stroke-width:1.0;"/><ellipse cx="363.5" cy="186.5" fill="#000000" rx="3" ry="3" style="stroke:#000000;stroke-width:1.0;"/><path d="M363.5,207.5 L376.5,207.5 C431.27,207.5 437.7782,176.0118 490,159.5 C499.2617,156.5716 508.8507,153.7871 518.5686,151.1523 " fill="none" style="stroke:#000000;stroke-width:1.0;stroke-dasharray:3.0,3.0;"/><path d="M519.3629,154.1336 L520.8046,150.5566 L517.7744,148.171 L526.0218,149.1667 L519.3629,154.1336 " fill="#000000" style="stroke:#000000;stroke-width:1.0;"/><ellipse cx="363.5" cy="207.5" fill="#000000" rx="3" ry="3" style="stroke:#000000;stroke-width:1.0;"/><path d="M363.5,227.5 L376.5,227.5 C431.0552,227.5 490.9492,222.658 542.71,216.931 " fill="none" style="stroke:#000000;stroke-width:1.0;stroke-dasharray:3.0,3.0;"/><path d="M543.0504,219.9615 L544.9829,216.6757 L542.3697,213.9005 L550.2863,216.0801 L543.0504,219.9615 " fill="#000000" style="stroke:#000000;stroke-width:1.0;"/><ellipse cx="363.5" cy="227.5" fill="#000000" rx="3" ry="3" style="stroke:#000000;stroke-width:1.0;"/><path d="M363.5,248.5 L376.5,248.5 C433.7821,248.5 496.9499,253.8382 550.4089,259.9339 " fill="none" style="stroke:#000000;stroke-width:1.0;stroke-dasharray:3.0,3.0;"/><path d="M550.063,262.9248 L552.6521,260.1933 L550.7548,256.943 L557.8862,260.7986 L550.063,262.9248 " fill="#000000" style="stroke:#000000;stroke-width:1.0;"/><ellipse cx="363.5" cy="248.5" fill="#000000" rx="3" ry="3" style="stroke:#000000;stroke-width:1.0;"/><path d="M363.5,269.5 L376.5,269.5 C431.27,269.5 437.7358,301.1229 490,317.5 C512.9097,324.6788 537.8265,330.9332 561.7459,336.2072 " fill="none" style="stroke:#000000;stroke-width:1.0;stroke-dasharray:3.0,3.0;"/><path d="M561.1039,339.1623 L563.9623,336.6887 L562.388,333.252 L569.1339,337.8124 L561.1039,339.1623 " fill="#000000" style="stroke:#000000;stroke-width:1.0;"/><ellipse cx="363.5" cy="269.5" fill="#000000" rx="3" ry="3" style="stroke:#000000;stroke-width:1.0;"/><path d="M363.5,289.5 L376.5,289.5 C445.8266,289.5 428.5582,364.3895 490,396.5 C503.5349,403.5735 518.2583,409.3641 533.2946,414.1045 " fill="none" style="stroke:#000000;stroke-width:1.0;stroke-dasharray:3.0,3.0;"/><path d="M532.3971,417.0656 L535.5154,414.7776 L534.1921,411.1434 L540.6974,416.3482 L532.3971,417.0656 " fill="#000000" style="stroke:#000000;stroke-width:1.0;"/><ellipse cx="363.5" cy="289.5" fill="#000000" rx="3" ry="3" style="stroke:#000000;stroke-width:1.0;"/><path d="M224,198.5 L237,198.5 C276.9978,198.5 320.9238,217.172 344.7393,229.0015 " fill="none" style="stroke:#000000;stroke-width:1.0;stroke-dasharray:3.0,3.0;"/><path d="M343.37,231.6891 L346.7549,230.0285 L346.1086,226.314 L351.4581,232.4249 L343.37,231.6891 " fill="#000000" style="stroke:#000000;stroke-width:1.0;"/><ellipse cx="224" cy="198.5" fill="#000000" rx="3" ry="3" style="stroke:#000000;stroke-width:1.0;"/><!--MD5=[e1dda3a4cd212b1367a0e9539009add7]
@startjson
{
    "field1": "GroupName",
    "combination": "GroupName",
    "null_distribution": {
        "total_null_rows": 0,
        "total_not_null_rows": 16
    },
    "data_distribution": [
        {
            "field_value": "Executive General and Administration",
            "row_count": 5,
            "ratio_percent": 31.25
        },
        {
            "field_value": "Research and Development",
            "row_count": 3,
            "ratio_percent": 18.75
        },
        {
            "field_value": "Sales and Marketing",
            "row_count": 2,
            "ratio_percent": 12.5
        },
        {
            "field_value": "Quality Assurance",
            "row_count": 2,
            "ratio_percent": 12.5
        },
        {
            "field_value": "Manufacturing",
            "row_count": 2,
            "ratio_percent": 12.5
        },
        {
            "field_value": "Inventory Management",
            "row_count": 2,
            "ratio_percent": 12.5
        }
    ]
}
@endjson

PlantUML version 1.2022.5(Sat Apr 30 06:55:52 EDT 2022)
(GPL source distribution)
Java Runtime: OpenJDK Runtime Environment
JVM: OpenJDK 64-Bit Server VM
Default Encoding: UTF-8
Language: en
Country: CA
--></g></svg>