<?xml version="1.0" encoding="UTF-8" standalone="no"?><svg xmlns="http://www.w3.org/2000/svg" xmlns:xlink="http://www.w3.org/1999/xlink" contentStyleType="text/css" height="399px" preserveAspectRatio="none" style="width:824px;height:399px;background:#FFFFFF;" version="1.1" viewBox="0 0 824 399" width="824px" zoomAndPan="magnify"><defs/><g><rect fill="#F1F1F1" height="81.9531" rx="5" ry="5" style="stroke:#F1F1F1;stroke-width:1.5;" width="268" x="10" y="92.5"/><text fill="#000000" font-family="sans-serif" font-size="14" font-weight="bold" lengthAdjust="spacing" textLength="42" x="15" y="108.0352">field1</text><text fill="#000000" font-family="sans-serif" font-size="14" lengthAdjust="spacing" textLength="124" x="149" y="108.0352">OrganizationLevel</text><line style="stroke:#000000;stroke-width:1.0;" x1="144" x2="144" y1="92.5" y2="112.9883"/><line style="stroke:#000000;stroke-width:1.0;" x1="10" x2="278" y1="112.9883" y2="112.9883"/><text fill="#000000" font-family="sans-serif" font-size="14" font-weight="bold" lengthAdjust="spacing" textLength="90" x="15" y="128.5234">combination</text><text fill="#000000" font-family="sans-serif" font-size="14" lengthAdjust="spacing" textLength="124" x="149" y="128.5234">OrganizationLevel</text><line style="stroke:#000000;stroke-width:1.0;" x1="144" x2="144" y1="112.9883" y2="133.4766"/><line style="stroke:#000000;stroke-width:1.0;" x1="10" x2="278" y1="133.4766" y2="133.4766"/><text fill="#000000" font-family="sans-serif" font-size="14" font-weight="bold" lengthAdjust="spacing" textLength="121" x="15" y="149.0117">null_distribution</text><text fill="#000000" font-family="sans-serif" font-size="14" lengthAdjust="spacing" textLength="12" x="149" y="149.0117">   </text><line style="stroke:#000000;stroke-width:1.0;" x1="144" x2="144" y1="133.4766" y2="153.9648"/><line style="stroke:#000000;stroke-width:1.0;" x1="10" x2="278" y1="153.9648" y2="153.9648"/><text fill="#000000" font-family="sans-serif" font-size="14" font-weight="bold" lengthAdjust="spacing" textLength="124" x="15" y="169.5">data_distribution</text><text fill="#000000" font-family="sans-serif" font-size="14" lengthAdjust="spacing" textLength="12" x="149" y="169.5">   </text><line style="stroke:#000000;stroke-width:1.0;" x1="144" x2="144" y1="153.9648" y2="174.4531"/><rect fill="none" height="81.9531" rx="5" ry="5" style="stroke:#000000;stroke-width:1.5;" width="268" x="10" y="92.5"/><rect fill="#F1F1F1" height="40.9766" rx="5" ry="5" style="stroke:#F1F1F1;stroke-width:1.5;" width="189" x="315" y="89"/><text fill="#000000" font-family="sans-serif" font-size="14" font-weight="bold" lengthAdjust="spacing" textLength="111" x="320" y="104.5352">total_null_rows</text><text fill="#000000" font-family="sans-serif" font-size="14" lengthAdjust="spacing" textLength="9" x="472" y="104.5352">1</text><line style="stroke:#000000;stroke-width:1.0;" x1="467" x2="467" y1="89" y2="109.4883"/><line style="stroke:#000000;stroke-width:1.0;" x1="315" x2="504" y1="109.4883" y2="109.4883"/><text fill="#000000" font-family="sans-serif" font-size="14" font-weight="bold" lengthAdjust="spacing" textLength="142" x="320" y="125.0234">total_not_null_rows</text><text fill="#000000" font-family="sans-serif" font-size="14" lengthAdjust="spacing" textLength="27" x="472" y="125.0234">289</text><line style="stroke:#000000;stroke-width:1.0;" x1="467" x2="467" y1="109.4883" y2="129.9766"/><rect fill="none" height="40.9766" rx="5" ry="5" style="stroke:#000000;stroke-width:1.5;" width="189" x="315" y="89"/><rect fill="#F1F1F1" height="102.4414" rx="5" ry="5" style="stroke:#F1F1F1;stroke-width:1.5;" width="22" x="397.5" y="148.5"/><text fill="#000000" font-family="sans-serif" font-size="14" lengthAdjust="spacing" textLength="12" x="402.5" y="164.0352">   </text><line style="stroke:#000000;stroke-width:1.0;" x1="397.5" x2="419.5" y1="168.9883" y2="168.9883"/><text fill="#000000" font-family="sans-serif" font-size="14" lengthAdjust="spacing" textLength="12" x="402.5" y="184.5234">   </text><line style="stroke:#000000;stroke-width:1.0;" x1="397.5" x2="419.5" y1="189.4766" y2="189.4766"/><text fill="#000000" font-family="sans-serif" font-size="14" lengthAdjust="spacing" textLength="12" x="402.5" y="205.0117">   </text><line style="stroke:#000000;stroke-width:1.0;" x1="397.5" x2="419.5" y1="209.9648" y2="209.9648"/><text fill="#000000" font-family="sans-serif" font-size="14" lengthAdjust="spacing" textLength="12" x="402.5" y="225.5">   </text><line style="stroke:#000000;stroke-width:1.0;" x1="397.5" x2="419.5" y1="230.4531" y2="230.4531"/><text fill="#000000" font-family="sans-serif" font-size="14" lengthAdjust="spacing" textLength="12" x="402.5" y="245.9883">   </text><rect fill="none" height="102.4414" rx="5" ry="5" style="stroke:#000000;stroke-width:1.5;" width="22" x="397.5" y="148.5"/><rect fill="#F1F1F1" height="61.4648" rx="5" ry="5" style="stroke:#F1F1F1;stroke-width:1.5;" width="262" x="545.5" y="10"/><text fill="#000000" font-family="sans-serif" font-size="14" font-weight="bold" lengthAdjust="spacing" textLength="78" x="550.5" y="25.5352">field_value</text><text fill="#000000" font-family="sans-serif" font-size="14" lengthAdjust="spacing" textLength="9" x="654.5" y="25.5352">4</text><line style="stroke:#000000;stroke-width:1.0;" x1="649.5" x2="649.5" y1="10" y2="30.4883"/><line style="stroke:#000000;stroke-width:1.0;" x1="545.5" x2="807.5" y1="30.4883" y2="30.4883"/><text fill="#000000" font-family="sans-serif" font-size="14" font-weight="bold" lengthAdjust="spacing" textLength="74" x="550.5" y="46.0234">row_count</text><text fill="#000000" font-family="sans-serif" font-size="14" lengthAdjust="spacing" textLength="27" x="654.5" y="46.0234">190</text><line style="stroke:#000000;stroke-width:1.0;" x1="649.5" x2="649.5" y1="30.4883" y2="50.9766"/><line style="stroke:#000000;stroke-width:1.0;" x1="545.5" x2="807.5" y1="50.9766" y2="50.9766"/><text fill="#000000" font-family="sans-serif" font-size="14" font-weight="bold" lengthAdjust="spacing" textLength="94" x="550.5" y="66.5117">ratio_percent</text><text fill="#000000" font-family="sans-serif" font-size="14" lengthAdjust="spacing" textLength="148" x="654.5" y="66.5117">65.51724137931035</text><line style="stroke:#000000;stroke-width:1.0;" x1="649.5" x2="649.5" y1="50.9766" y2="71.4648"/><rect fill="none" height="61.4648" rx="5" ry="5" style="stroke:#000000;stroke-width:1.5;" width="262" x="545.5" y="10"/><rect fill="#F1F1F1" height="61.4648" rx="5" ry="5" style="stroke:#F1F1F1;stroke-width:1.5;" width="262" x="545.5" y="89"/><text fill="#000000" font-family="sans-serif" font-size="14" font-weight="bold" lengthAdjust="spacing" textLength="78" x="550.5" y="104.5352">field_value</text><text fill="#000000" font-family="sans-serif" font-size="14" lengthAdjust="spacing" textLength="9" x="654.5" y="104.5352">3</text><line style="stroke:#000000;stroke-width:1.0;" x1="649.5" x2="649.5" y1="89" y2="109.4883"/><line style="stroke:#000000;stroke-width:1.0;" x1="545.5" x2="807.5" y1="109.4883" y2="109.4883"/><text fill="#000000" font-family="sans-serif" font-size="14" font-weight="bold" lengthAdjust="spacing" textLength="74" x="550.5" y="125.0234">row_count</text><text fill="#000000" font-family="sans-serif" font-size="14" lengthAdjust="spacing" textLength="18" x="654.5" y="125.0234">66</text><line style="stroke:#000000;stroke-width:1.0;" x1="649.5" x2="649.5" y1="109.4883" y2="129.9766"/><line style="stroke:#000000;stroke-width:1.0;" x1="545.5" x2="807.5" y1="129.9766" y2="129.9766"/><text fill="#000000" font-family="sans-serif" font-size="14" font-weight="bold" lengthAdjust="spacing" textLength="94" x="550.5" y="145.5117">ratio_percent</text><text fill="#000000" font-family="sans-serif" font-size="14" lengthAdjust="spacing" textLength="148" x="654.5" y="145.5117">22.75862068965517</text><line style="stroke:#000000;stroke-width:1.0;" x1="649.5" x2="649.5" y1="129.9766" y2="150.4648"/><rect fill="none" height="61.4648" rx="5" ry="5" style="stroke:#000000;stroke-width:1.5;" width="262" x="545.5" y="89"/><rect fill="#F1F1F1" height="61.4648" rx="5" ry="5" style="stroke:#F1F1F1;stroke-width:1.5;" width="262" x="545.5" y="168"/><text fill="#000000" font-family="sans-serif" font-size="14" font-weight="bold" lengthAdjust="spacing" textLength="78" x="550.5" y="183.5352">field_value</text><text fill="#000000" font-family="sans-serif" font-size="14" lengthAdjust="spacing" textLength="9" x="654.5" y="183.5352">2</text><line style="stroke:#000000;stroke-width:1.0;" x1="649.5" x2="649.5" y1="168" y2="188.4883"/><line style="stroke:#000000;stroke-width:1.0;" x1="545.5" x2="807.5" y1="188.4883" y2="188.4883"/><text fill="#000000" font-family="sans-serif" font-size="14" font-weight="bold" lengthAdjust="spacing" textLength="74" x="550.5" y="204.0234">row_count</text><text fill="#000000" font-family="sans-serif" font-size="14" lengthAdjust="spacing" textLength="18" x="654.5" y="204.0234">27</text><line style="stroke:#000000;stroke-width:1.0;" x1="649.5" x2="649.5" y1="188.4883" y2="208.9766"/><line style="stroke:#000000;stroke-width:1.0;" x1="545.5" x2="807.5" y1="208.9766" y2="208.9766"/><text fill="#000000" font-family="sans-serif" font-size="14" font-weight="bold" lengthAdjust="spacing" textLength="94" x="550.5" y="224.5117">ratio_percent</text><text fill="#000000" font-family="sans-serif" font-size="14" lengthAdjust="spacing" textLength="148" x="654.5" y="224.5117">9.310344827586206</text><line style="stroke:#000000;stroke-width:1.0;" x1="649.5" x2="649.5" y1="208.9766" y2="229.4648"/><rect fill="none" height="61.4648" rx="5" ry="5" style="stroke:#000000;stroke-width:1.5;" width="262" x="545.5" y="168"/><rect fill="#F1F1F1" height="61.4648" rx="5" ry="5" style="stroke:#F1F1F1;stroke-width:1.5;" width="271" x="541" y="247"/><text fill="#000000" font-family="sans-serif" font-size="14" font-weight="bold" lengthAdjust="spacing" textLength="78" x="546" y="262.5352">field_value</text><text fill="#000000" font-family="sans-serif" font-size="14" lengthAdjust="spacing" textLength="9" x="650" y="262.5352">1</text><line style="stroke:#000000;stroke-width:1.0;" x1="645" x2="645" y1="247" y2="267.4883"/><line style="stroke:#000000;stroke-width:1.0;" x1="541" x2="812" y1="267.4883" y2="267.4883"/><text fill="#000000" font-family="sans-serif" font-size="14" font-weight="bold" lengthAdjust="spacing" textLength="74" x="546" y="283.0234">row_count</text><text fill="#000000" font-family="sans-serif" font-size="14" lengthAdjust="spacing" textLength="9" x="650" y="283.0234">6</text><line style="stroke:#000000;stroke-width:1.0;" x1="645" x2="645" y1="267.4883" y2="287.9766"/><line style="stroke:#000000;stroke-width:1.0;" x1="541" x2="812" y1="287.9766" y2="287.9766"/><text fill="#000000" font-family="sans-serif" font-size="14" font-weight="bold" lengthAdjust="spacing" textLength="94" x="546" y="303.5117">ratio_percent</text><text fill="#000000" font-family="sans-serif" font-size="14" lengthAdjust="spacing" textLength="157" x="650" y="303.5117">2.0689655172413794</text><line style="stroke:#000000;stroke-width:1.0;" x1="645" x2="645" y1="287.9766" y2="308.4648"/><rect fill="none" height="61.4648" rx="5" ry="5" style="stroke:#000000;stroke-width:1.5;" width="271" x="541" y="247"/><rect fill="#F1F1F1" height="61.4648" rx="5" ry="5" style="stroke:#F1F1F1;stroke-width:1.5;" width="271" x="541" y="326"/><text fill="#000000" font-family="sans-serif" font-size="14" font-weight="bold" lengthAdjust="spacing" textLength="78" x="546" y="341.5352">field_value</text><text fill="#000000" font-family="sans-serif" font-size="14" font-weight="bold" lengthAdjust="spacing" textLength="37" x="650" y="341.5352">NULL</text><line style="stroke:#000000;stroke-width:1.0;" x1="645" x2="645" y1="326" y2="346.4883"/><line style="stroke:#000000;stroke-width:1.0;" x1="541" x2="812" y1="346.4883" y2="346.4883"/><text fill="#000000" font-family="sans-serif" font-size="14" font-weight="bold" lengthAdjust="spacing" textLength="74" x="546" y="362.0234">row_count</text><text fill="#000000" font-family="sans-serif" font-size="14" lengthAdjust="spacing" textLength="9" x="650" y="362.0234">1</text><line style="stroke:#000000;stroke-width:1.0;" x1="645" x2="645" y1="346.4883" y2="366.9766"/><line style="stroke:#000000;stroke-width:1.0;" x1="541" x2="812" y1="366.9766" y2="366.9766"/><text fill="#000000" font-family="sans-serif" font-size="14" font-weight="bold" lengthAdjust="spacing" textLength="94" x="546" y="382.5117">ratio_percent</text><text fill="#000000" font-family="sans-serif" font-size="14" lengthAdjust="spacing" textLength="157" x="650" y="382.5117">0.3448275862068966</text><line style="stroke:#000000;stroke-width:1.0;" x1="645" x2="645" y1="366.9766" y2="387.4648"/><rect fill="none" height="61.4648" rx="5" ry="5" style="stroke:#000000;stroke-width:1.5;" width="271" x="541" y="326"/><path d="M266,143.5 L279,143.5 C290.5777,143.5 312.7205,138.3887 335.4953,132.1297 " fill="none" style="stroke:#000000;stroke-width:1.0;stroke-dasharray:3.0,3.0;"/><path d="M336.3222,135.0913 L337.7165,131.5095 L334.6683,129.1681 L342.8993,130.0623 L336.3222,135.0913 " fill="#000000" style="stroke:#000000;stroke-width:1.0;"/><ellipse cx="266" cy="143.5" fill="#000000" rx="3" ry="3" style="stroke:#000000;stroke-width:1.0;"/><path d="M410,158.5 L423,158.5 C460.5128,158.5 474.7126,160.6333 505,138.5 C529.8015,120.3757 516.5845,98.1411 541,79.5 C542.9875,77.9825 545.0323,76.5241 547.1266,75.1223 " fill="none" style="stroke:#000000;stroke-width:1.0;stroke-dasharray:3.0,3.0;"/><path d="M548.7416,77.6917 L549.0536,73.9111 L545.5116,72.5529 L553.5501,71.0848 L548.7416,77.6917 " fill="#000000" style="stroke:#000000;stroke-width:1.0;"/><ellipse cx="410" cy="158.5" fill="#000000" rx="3" ry="3" style="stroke:#000000;stroke-width:1.0;"/><path d="M410,178.5 L423,178.5 C449.9225,178.5 506.7569,165.6687 559.7494,151.9738 " fill="none" style="stroke:#000000;stroke-width:1.0;stroke-dasharray:3.0,3.0;"/><path d="M560.5241,154.9532 L561.9839,151.3927 L558.9746,148.9944 L567.1978,150.0369 L560.5241,154.9532 " fill="#000000" style="stroke:#000000;stroke-width:1.0;"/><ellipse cx="410" cy="178.5" fill="#000000" rx="3" ry="3" style="stroke:#000000;stroke-width:1.0;"/><path d="M410,198.5 L423,198.5 C460.3162,198.5 500.7284,198.5 538.0719,198.5 " fill="none" style="stroke:#000000;stroke-width:1.0;stroke-dasharray:3.0,3.0;"/><path d="M538.0719,201.668 L540.4478,198.5 L538.0719,195.332 L545.9918,198.5 L538.0719,201.668 " fill="#000000" style="stroke:#000000;stroke-width:1.0;"/><ellipse cx="410" cy="198.5" fill="#000000" rx="3" ry="3" style="stroke:#000000;stroke-width:1.0;"/><path d="M410,219.5 L423,219.5 C449.5764,219.5 505.3723,231.8129 557.8199,245.0923 " fill="none" style="stroke:#000000;stroke-width:1.0;stroke-dasharray:3.0,3.0;"/><path d="M557.0683,248.0423 L560.0324,245.656 L558.5715,242.1423 L565.1949,246.9713 L557.0683,248.0423 " fill="#000000" style="stroke:#000000;stroke-width:1.0;"/><ellipse cx="410" cy="219.5" fill="#000000" rx="3" ry="3" style="stroke:#000000;stroke-width:1.0;"/><path d="M410,240.5 L423,240.5 C485.6225,240.5 484.0703,291.4118 541,317.5 C545.2935,319.4675 549.7098,321.3605 554.2055,323.179 " fill="none" style="stroke:#000000;stroke-width:1.0;stroke-dasharray:3.0,3.0;"/><path d="M553.087,326.0286 L556.3427,324.0179 L555.324,320.3294 L561.3296,325.9752 L553.087,326.0286 " fill="#000000" style="stroke:#000000;stroke-width:1.0;"/><ellipse cx="410" cy="240.5" fill="#000000" rx="3" ry="3" style="stroke:#000000;stroke-width:1.0;"/><path d="M266,164.5 L279,164.5 C320.0929,164.5 366.0577,181.0077 390.8212,191.3493 " fill="none" style="stroke:#000000;stroke-width:1.0;stroke-dasharray:3.0,3.0;"/><path d="M389.6267,194.1395 L392.914,192.2452 L392.0158,188.559 L397.797,194.3356 L389.6267,194.1395 " fill="#000000" style="stroke:#000000;stroke-width:1.0;"/><ellipse cx="266" cy="164.5" fill="#000000" rx="3" ry="3" style="stroke:#000000;stroke-width:1.0;"/><!--MD5=[6687b53204cfa78e7ad2b60917554fb3]
@startjson
{
    "field1": "OrganizationLevel",
    "combination": "OrganizationLevel",
    "null_distribution": {
        "total_null_rows": 1,
        "total_not_null_rows": 289
    },
    "data_distribution": [
        {
            "field_value": "4",
            "row_count": 190,
            "ratio_percent": 65.51724137931035
        },
        {
            "field_value": "3",
            "row_count": 66,
            "ratio_percent": 22.75862068965517
        },
        {
            "field_value": "2",
            "row_count": 27,
            "ratio_percent": 9.310344827586206
        },
        {
            "field_value": "1",
            "row_count": 6,
            "ratio_percent": 2.0689655172413794
        },
        {
            "field_value": "**NULL**",
            "row_count": 1,
            "ratio_percent": 0.3448275862068966
        }
    ]
}
@endjson

PlantUML version 1.2022.5(Sat Apr 30 06:55:52 EDT 2022)
(GPL source distribution)
Java Runtime: OpenJDK Runtime Environment
JVM: OpenJDK 64-Bit Server VM
Default Encoding: UTF-8
Language: en
Country: CA
--></g></svg>