<?xml version="1.0" encoding="UTF-8" standalone="no"?><svg xmlns="http://www.w3.org/2000/svg" xmlns:xlink="http://www.w3.org/1999/xlink" contentStyleType="text/css" height="478px" preserveAspectRatio="none" style="width:807px;height:478px;background:#FFFFFF;" version="1.1" viewBox="0 0 807 478" width="807px" zoomAndPan="magnify"><defs/><g><rect fill="#F1F1F1" height="81.9531" rx="5" ry="5" style="stroke:#F1F1F1;stroke-width:1.5;" width="224" x="10" y="126.5"/><text fill="#000000" font-family="sans-serif" font-size="14" font-weight="bold" lengthAdjust="spacing" textLength="42" x="15" y="142.0352">field1</text><text fill="#000000" font-family="sans-serif" font-size="14" lengthAdjust="spacing" textLength="80" x="149" y="142.0352">PersonType</text><line style="stroke:#000000;stroke-width:1.0;" x1="144" x2="144" y1="126.5" y2="146.9883"/><line style="stroke:#000000;stroke-width:1.0;" x1="10" x2="234" y1="146.9883" y2="146.9883"/><text fill="#000000" font-family="sans-serif" font-size="14" font-weight="bold" lengthAdjust="spacing" textLength="90" x="15" y="162.5234">combination</text><text fill="#000000" font-family="sans-serif" font-size="14" lengthAdjust="spacing" textLength="80" x="149" y="162.5234">PersonType</text><line style="stroke:#000000;stroke-width:1.0;" x1="144" x2="144" y1="146.9883" y2="167.4766"/><line style="stroke:#000000;stroke-width:1.0;" x1="10" x2="234" y1="167.4766" y2="167.4766"/><text fill="#000000" font-family="sans-serif" font-size="14" font-weight="bold" lengthAdjust="spacing" textLength="121" x="15" y="183.0117">null_distribution</text><text fill="#000000" font-family="sans-serif" font-size="14" lengthAdjust="spacing" textLength="12" x="149" y="183.0117">   </text><line style="stroke:#000000;stroke-width:1.0;" x1="144" x2="144" y1="167.4766" y2="187.9648"/><line style="stroke:#000000;stroke-width:1.0;" x1="10" x2="234" y1="187.9648" y2="187.9648"/><text fill="#000000" font-family="sans-serif" font-size="14" font-weight="bold" lengthAdjust="spacing" textLength="124" x="15" y="203.5">data_distribution</text><text fill="#000000" font-family="sans-serif" font-size="14" lengthAdjust="spacing" textLength="12" x="149" y="203.5">   </text><line style="stroke:#000000;stroke-width:1.0;" x1="144" x2="144" y1="187.9648" y2="208.4531"/><rect fill="none" height="81.9531" rx="5" ry="5" style="stroke:#000000;stroke-width:1.5;" width="224" x="10" y="126.5"/><rect fill="#F1F1F1" height="40.9766" rx="5" ry="5" style="stroke:#F1F1F1;stroke-width:1.5;" width="207" x="271" y="118"/><text fill="#000000" font-family="sans-serif" font-size="14" font-weight="bold" lengthAdjust="spacing" textLength="111" x="276" y="133.5352">total_null_rows</text><text fill="#000000" font-family="sans-serif" font-size="14" lengthAdjust="spacing" textLength="9" x="428" y="133.5352">0</text><line style="stroke:#000000;stroke-width:1.0;" x1="423" x2="423" y1="118" y2="138.4883"/><line style="stroke:#000000;stroke-width:1.0;" x1="271" x2="478" y1="138.4883" y2="138.4883"/><text fill="#000000" font-family="sans-serif" font-size="14" font-weight="bold" lengthAdjust="spacing" textLength="142" x="276" y="154.0234">total_not_null_rows</text><text fill="#000000" font-family="sans-serif" font-size="14" lengthAdjust="spacing" textLength="45" x="428" y="154.0234">19972</text><line style="stroke:#000000;stroke-width:1.0;" x1="423" x2="423" y1="138.4883" y2="158.9766"/><rect fill="none" height="40.9766" rx="5" ry="5" style="stroke:#000000;stroke-width:1.5;" width="207" x="271" y="118"/><rect fill="#F1F1F1" height="122.9297" rx="5" ry="5" style="stroke:#F1F1F1;stroke-width:1.5;" width="22" x="362.5" y="177"/><text fill="#000000" font-family="sans-serif" font-size="14" lengthAdjust="spacing" textLength="12" x="367.5" y="192.5352">   </text><line style="stroke:#000000;stroke-width:1.0;" x1="362.5" x2="384.5" y1="197.4883" y2="197.4883"/><text fill="#000000" font-family="sans-serif" font-size="14" lengthAdjust="spacing" textLength="12" x="367.5" y="213.0234">   </text><line style="stroke:#000000;stroke-width:1.0;" x1="362.5" x2="384.5" y1="217.9766" y2="217.9766"/><text fill="#000000" font-family="sans-serif" font-size="14" lengthAdjust="spacing" textLength="12" x="367.5" y="233.5117">   </text><line style="stroke:#000000;stroke-width:1.0;" x1="362.5" x2="384.5" y1="238.4648" y2="238.4648"/><text fill="#000000" font-family="sans-serif" font-size="14" lengthAdjust="spacing" textLength="12" x="367.5" y="254">   </text><line style="stroke:#000000;stroke-width:1.0;" x1="362.5" x2="384.5" y1="258.9531" y2="258.9531"/><text fill="#000000" font-family="sans-serif" font-size="14" lengthAdjust="spacing" textLength="12" x="367.5" y="274.4883">   </text><line style="stroke:#000000;stroke-width:1.0;" x1="362.5" x2="384.5" y1="279.4414" y2="279.4414"/><text fill="#000000" font-family="sans-serif" font-size="14" lengthAdjust="spacing" textLength="12" x="367.5" y="294.9766">   </text><rect fill="none" height="122.9297" rx="5" ry="5" style="stroke:#000000;stroke-width:1.5;" width="22" x="362.5" y="177"/><rect fill="#F1F1F1" height="61.4648" rx="5" ry="5" style="stroke:#F1F1F1;stroke-width:1.5;" width="262" x="524" y="10"/><text fill="#000000" font-family="sans-serif" font-size="14" font-weight="bold" lengthAdjust="spacing" textLength="78" x="529" y="25.5352">field_value</text><text fill="#000000" font-family="sans-serif" font-size="14" lengthAdjust="spacing" textLength="14" x="633" y="25.5352">IN</text><line style="stroke:#000000;stroke-width:1.0;" x1="628" x2="628" y1="10" y2="30.4883"/><line style="stroke:#000000;stroke-width:1.0;" x1="524" x2="786" y1="30.4883" y2="30.4883"/><text fill="#000000" font-family="sans-serif" font-size="14" font-weight="bold" lengthAdjust="spacing" textLength="74" x="529" y="46.0234">row_count</text><text fill="#000000" font-family="sans-serif" font-size="14" lengthAdjust="spacing" textLength="45" x="633" y="46.0234">18484</text><line style="stroke:#000000;stroke-width:1.0;" x1="628" x2="628" y1="30.4883" y2="50.9766"/><line style="stroke:#000000;stroke-width:1.0;" x1="524" x2="786" y1="50.9766" y2="50.9766"/><text fill="#000000" font-family="sans-serif" font-size="14" font-weight="bold" lengthAdjust="spacing" textLength="94" x="529" y="66.5117">ratio_percent</text><text fill="#000000" font-family="sans-serif" font-size="14" lengthAdjust="spacing" textLength="148" x="633" y="66.5117">92.54956939715602</text><line style="stroke:#000000;stroke-width:1.0;" x1="628" x2="628" y1="50.9766" y2="71.4648"/><rect fill="none" height="61.4648" rx="5" ry="5" style="stroke:#000000;stroke-width:1.5;" width="262" x="524" y="10"/><rect fill="#F1F1F1" height="61.4648" rx="5" ry="5" style="stroke:#F1F1F1;stroke-width:1.5;" width="262" x="524" y="89"/><text fill="#000000" font-family="sans-serif" font-size="14" font-weight="bold" lengthAdjust="spacing" textLength="78" x="529" y="104.5352">field_value</text><text fill="#000000" font-family="sans-serif" font-size="14" lengthAdjust="spacing" textLength="18" x="633" y="104.5352">SC</text><line style="stroke:#000000;stroke-width:1.0;" x1="628" x2="628" y1="89" y2="109.4883"/><line style="stroke:#000000;stroke-width:1.0;" x1="524" x2="786" y1="109.4883" y2="109.4883"/><text fill="#000000" font-family="sans-serif" font-size="14" font-weight="bold" lengthAdjust="spacing" textLength="74" x="529" y="125.0234">row_count</text><text fill="#000000" font-family="sans-serif" font-size="14" lengthAdjust="spacing" textLength="27" x="633" y="125.0234">753</text><line style="stroke:#000000;stroke-width:1.0;" x1="628" x2="628" y1="109.4883" y2="129.9766"/><line style="stroke:#000000;stroke-width:1.0;" x1="524" x2="786" y1="129.9766" y2="129.9766"/><text fill="#000000" font-family="sans-serif" font-size="14" font-weight="bold" lengthAdjust="spacing" textLength="94" x="529" y="145.5117">ratio_percent</text><text fill="#000000" font-family="sans-serif" font-size="14" lengthAdjust="spacing" textLength="148" x="633" y="145.5117">3.770278389745644</text><line style="stroke:#000000;stroke-width:1.0;" x1="628" x2="628" y1="129.9766" y2="150.4648"/><rect fill="none" height="61.4648" rx="5" ry="5" style="stroke:#000000;stroke-width:1.5;" width="262" x="524" y="89"/><rect fill="#F1F1F1" height="61.4648" rx="5" ry="5" style="stroke:#F1F1F1;stroke-width:1.5;" width="262" x="524" y="168"/><text fill="#000000" font-family="sans-serif" font-size="14" font-weight="bold" lengthAdjust="spacing" textLength="78" x="529" y="183.5352">field_value</text><text fill="#000000" font-family="sans-serif" font-size="14" lengthAdjust="spacing" textLength="20" x="633" y="183.5352">GC</text><line style="stroke:#000000;stroke-width:1.0;" x1="628" x2="628" y1="168" y2="188.4883"/><line style="stroke:#000000;stroke-width:1.0;" x1="524" x2="786" y1="188.4883" y2="188.4883"/><text fill="#000000" font-family="sans-serif" font-size="14" font-weight="bold" lengthAdjust="spacing" textLength="74" x="529" y="204.0234">row_count</text><text fill="#000000" font-family="sans-serif" font-size="14" lengthAdjust="spacing" textLength="27" x="633" y="204.0234">289</text><line style="stroke:#000000;stroke-width:1.0;" x1="628" x2="628" y1="188.4883" y2="208.9766"/><line style="stroke:#000000;stroke-width:1.0;" x1="524" x2="786" y1="208.9766" y2="208.9766"/><text fill="#000000" font-family="sans-serif" font-size="14" font-weight="bold" lengthAdjust="spacing" textLength="94" x="529" y="224.5117">ratio_percent</text><text fill="#000000" font-family="sans-serif" font-size="14" lengthAdjust="spacing" textLength="148" x="633" y="224.5117">1.447025836170639</text><line style="stroke:#000000;stroke-width:1.0;" x1="628" x2="628" y1="208.9766" y2="229.4648"/><rect fill="none" height="61.4648" rx="5" ry="5" style="stroke:#000000;stroke-width:1.5;" width="262" x="524" y="168"/><rect fill="#F1F1F1" height="61.4648" rx="5" ry="5" style="stroke:#F1F1F1;stroke-width:1.5;" width="271" x="519.5" y="247"/><text fill="#000000" font-family="sans-serif" font-size="14" font-weight="bold" lengthAdjust="spacing" textLength="78" x="524.5" y="262.5352">field_value</text><text fill="#000000" font-family="sans-serif" font-size="14" lengthAdjust="spacing" textLength="20" x="628.5" y="262.5352">EM</text><line style="stroke:#000000;stroke-width:1.0;" x1="623.5" x2="623.5" y1="247" y2="267.4883"/><line style="stroke:#000000;stroke-width:1.0;" x1="519.5" x2="790.5" y1="267.4883" y2="267.4883"/><text fill="#000000" font-family="sans-serif" font-size="14" font-weight="bold" lengthAdjust="spacing" textLength="74" x="524.5" y="283.0234">row_count</text><text fill="#000000" font-family="sans-serif" font-size="14" lengthAdjust="spacing" textLength="27" x="628.5" y="283.0234">273</text><line style="stroke:#000000;stroke-width:1.0;" x1="623.5" x2="623.5" y1="267.4883" y2="287.9766"/><line style="stroke:#000000;stroke-width:1.0;" x1="519.5" x2="790.5" y1="287.9766" y2="287.9766"/><text fill="#000000" font-family="sans-serif" font-size="14" font-weight="bold" lengthAdjust="spacing" textLength="94" x="524.5" y="303.5117">ratio_percent</text><text fill="#000000" font-family="sans-serif" font-size="14" lengthAdjust="spacing" textLength="157" x="628.5" y="303.5117">1.3669136791508112</text><line style="stroke:#000000;stroke-width:1.0;" x1="623.5" x2="623.5" y1="287.9766" y2="308.4648"/><rect fill="none" height="61.4648" rx="5" ry="5" style="stroke:#000000;stroke-width:1.5;" width="271" x="519.5" y="247"/><rect fill="#F1F1F1" height="61.4648" rx="5" ry="5" style="stroke:#F1F1F1;stroke-width:1.5;" width="271" x="519.5" y="326"/><text fill="#000000" font-family="sans-serif" font-size="14" font-weight="bold" lengthAdjust="spacing" textLength="78" x="524.5" y="341.5352">field_value</text><text fill="#000000" font-family="sans-serif" font-size="14" lengthAdjust="spacing" textLength="19" x="628.5" y="341.5352">VC</text><line style="stroke:#000000;stroke-width:1.0;" x1="623.5" x2="623.5" y1="326" y2="346.4883"/><line style="stroke:#000000;stroke-width:1.0;" x1="519.5" x2="790.5" y1="346.4883" y2="346.4883"/><text fill="#000000" font-family="sans-serif" font-size="14" font-weight="bold" lengthAdjust="spacing" textLength="74" x="524.5" y="362.0234">row_count</text><text fill="#000000" font-family="sans-serif" font-size="14" lengthAdjust="spacing" textLength="27" x="628.5" y="362.0234">156</text><line style="stroke:#000000;stroke-width:1.0;" x1="623.5" x2="623.5" y1="346.4883" y2="366.9766"/><line style="stroke:#000000;stroke-width:1.0;" x1="519.5" x2="790.5" y1="366.9766" y2="366.9766"/><text fill="#000000" font-family="sans-serif" font-size="14" font-weight="bold" lengthAdjust="spacing" textLength="94" x="524.5" y="382.5117">ratio_percent</text><text fill="#000000" font-family="sans-serif" font-size="14" lengthAdjust="spacing" textLength="157" x="628.5" y="382.5117">0.7810935309433207</text><line style="stroke:#000000;stroke-width:1.0;" x1="623.5" x2="623.5" y1="366.9766" y2="387.4648"/><rect fill="none" height="61.4648" rx="5" ry="5" style="stroke:#000000;stroke-width:1.5;" width="271" x="519.5" y="326"/><rect fill="#F1F1F1" height="61.4648" rx="5" ry="5" style="stroke:#F1F1F1;stroke-width:1.5;" width="280" x="515" y="405"/><text fill="#000000" font-family="sans-serif" font-size="14" font-weight="bold" lengthAdjust="spacing" textLength="78" x="520" y="420.5352">field_value</text><text fill="#000000" font-family="sans-serif" font-size="14" lengthAdjust="spacing" textLength="16" x="624" y="420.5352">SP</text><line style="stroke:#000000;stroke-width:1.0;" x1="619" x2="619" y1="405" y2="425.4883"/><line style="stroke:#000000;stroke-width:1.0;" x1="515" x2="795" y1="425.4883" y2="425.4883"/><text fill="#000000" font-family="sans-serif" font-size="14" font-weight="bold" lengthAdjust="spacing" textLength="74" x="520" y="441.0234">row_count</text><text fill="#000000" font-family="sans-serif" font-size="14" lengthAdjust="spacing" textLength="18" x="624" y="441.0234">17</text><line style="stroke:#000000;stroke-width:1.0;" x1="619" x2="619" y1="425.4883" y2="445.9766"/><line style="stroke:#000000;stroke-width:1.0;" x1="515" x2="795" y1="445.9766" y2="445.9766"/><text fill="#000000" font-family="sans-serif" font-size="14" font-weight="bold" lengthAdjust="spacing" textLength="94" x="520" y="461.5117">ratio_percent</text><text fill="#000000" font-family="sans-serif" font-size="14" lengthAdjust="spacing" textLength="166" x="624" y="461.5117">0.08511916683356699</text><line style="stroke:#000000;stroke-width:1.0;" x1="619" x2="619" y1="445.9766" y2="466.4648"/><rect fill="none" height="61.4648" rx="5" ry="5" style="stroke:#000000;stroke-width:1.5;" width="280" x="515" y="405"/><path d="M222,177.5 L235,177.5 C238.5821,177.5 266.6904,169.7208 296.7028,161.111 " fill="none" style="stroke:#000000;stroke-width:1.0;stroke-dasharray:3.0,3.0;"/><path d="M297.536,164.0083 L298.8758,160.4861 L295.8695,158.2137 L303.946,159.0279 L297.536,164.0083 " fill="#000000" style="stroke:#000000;stroke-width:1.0;"/><ellipse cx="222" cy="177.5" fill="#000000" rx="3" ry="3" style="stroke:#000000;stroke-width:1.0;"/><path d="M375,186.5 L388,186.5 C429.2281,186.5 447.2254,194.7703 479,168.5 C511.8851,141.3116 483.1904,107.9392 515,79.5 C516.4764,78.1801 517.9939,76.9044 519.5487,75.6716 " fill="none" style="stroke:#000000;stroke-width:1.0;stroke-dasharray:3.0,3.0;"/><path d="M521.367,78.141 L521.4007,74.3079 L517.7303,73.2023 L525.722,71.1258 L521.367,78.141 " fill="#000000" style="stroke:#000000;stroke-width:1.0;"/><ellipse cx="375" cy="186.5" fill="#000000" rx="3" ry="3" style="stroke:#000000;stroke-width:1.0;"/><path d="M375,207.5 L388,207.5 C448.3414,207.5 457.7275,178.4987 515,159.5 C522.174,157.1202 529.5823,154.7489 537.0715,152.4167 " fill="none" style="stroke:#000000;stroke-width:1.0;stroke-dasharray:3.0,3.0;"/><path d="M537.9988,155.4209 L539.3247,151.7213 L536.1443,149.4125 L544.5821,150.0987 L537.9988,155.4209 " fill="#000000" style="stroke:#000000;stroke-width:1.0;"/><ellipse cx="375" cy="207.5" fill="#000000" rx="3" ry="3" style="stroke:#000000;stroke-width:1.0;"/><path d="M375,227.5 L388,227.5 C429.9514,227.5 475.4007,223.9046 516.6834,219.2457 " fill="none" style="stroke:#000000;stroke-width:1.0;stroke-dasharray:3.0,3.0;"/><path d="M517.036,222.3089 L518.9808,218.9812 L516.3307,216.1824 L524.3415,218.364 L517.036,222.3089 " fill="#000000" style="stroke:#000000;stroke-width:1.0;"/><ellipse cx="375" cy="227.5" fill="#000000" rx="3" ry="3" style="stroke:#000000;stroke-width:1.0;"/><path d="M375,248.5 L388,248.5 C428.3593,248.5 471.956,251.8277 511.9656,256.2286 " fill="none" style="stroke:#000000;stroke-width:1.0;stroke-dasharray:3.0,3.0;"/><path d="M511.6081,259.4094 L514.3512,256.4968 L512.3232,253.0478 L519.9177,257.1224 L511.6081,259.4094 " fill="#000000" style="stroke:#000000;stroke-width:1.0;"/><ellipse cx="375" cy="248.5" fill="#000000" rx="3" ry="3" style="stroke:#000000;stroke-width:1.0;"/><path d="M375,269.5 L388,269.5 C448.3414,269.5 457.6648,298.6915 515,317.5 C521.4049,319.6011 527.9979,321.6897 534.6694,323.7455 " fill="none" style="stroke:#000000;stroke-width:1.0;stroke-dasharray:3.0,3.0;"/><path d="M533.7826,326.6515 L536.8488,324.4106 L535.5561,320.8396 L541.9343,325.9625 L533.7826,326.6515 " fill="#000000" style="stroke:#000000;stroke-width:1.0;"/><ellipse cx="375" cy="269.5" fill="#000000" rx="3" ry="3" style="stroke:#000000;stroke-width:1.0;"/><path d="M375,289.5 L388,289.5 C461.8072,289.5 449.7519,362.0009 515,396.5 C518.4545,398.3265 522.0036,400.075 525.6231,401.7482 " fill="none" style="stroke:#000000;stroke-width:1.0;stroke-dasharray:3.0,3.0;"/><path d="M524.3729,404.5646 L527.7354,402.6859 L526.8734,398.9318 L532.6641,404.8738 L524.3729,404.5646 " fill="#000000" style="stroke:#000000;stroke-width:1.0;"/><ellipse cx="375" cy="289.5" fill="#000000" rx="3" ry="3" style="stroke:#000000;stroke-width:1.0;"/><path d="M222,198.5 L235,198.5 C279.7962,198.5 329.6571,217.9233 355.7719,229.7002 " fill="none" style="stroke:#000000;stroke-width:1.0;stroke-dasharray:3.0,3.0;"/><path d="M354.4767,232.5049 L357.8754,230.6716 L357.0671,226.8955 L362.7835,232.9382 L354.4767,232.5049 " fill="#000000" style="stroke:#000000;stroke-width:1.0;"/><ellipse cx="222" cy="198.5" fill="#000000" rx="3" ry="3" style="stroke:#000000;stroke-width:1.0;"/><!--MD5=[ce3e3af811fc7a39d3cb0ec6d7ba51aa]
@startjson
{
    "field1": "PersonType",
    "combination": "PersonType",
    "null_distribution": {
        "total_null_rows": 0,
        "total_not_null_rows": 19972
    },
    "data_distribution": [
        {
            "field_value": "IN",
            "row_count": 18484,
            "ratio_percent": 92.54956939715602
        },
        {
            "field_value": "SC",
            "row_count": 753,
            "ratio_percent": 3.770278389745644
        },
        {
            "field_value": "GC",
            "row_count": 289,
            "ratio_percent": 1.447025836170639
        },
        {
            "field_value": "EM",
            "row_count": 273,
            "ratio_percent": 1.3669136791508112
        },
        {
            "field_value": "VC",
            "row_count": 156,
            "ratio_percent": 0.7810935309433207
        },
        {
            "field_value": "SP",
            "row_count": 17,
            "ratio_percent": 0.08511916683356699
        }
    ]
}
@endjson

PlantUML version 1.2022.5(Sat Apr 30 06:55:52 EDT 2022)
(GPL source distribution)
Java Runtime: OpenJDK Runtime Environment
JVM: OpenJDK 64-Bit Server VM
Default Encoding: UTF-8
Language: en
Country: CA
--></g></svg>