<?xml version="1.0" encoding="UTF-8" standalone="no"?><svg xmlns="http://www.w3.org/2000/svg" xmlns:xlink="http://www.w3.org/1999/xlink" contentStyleType="text/css" height="241px" preserveAspectRatio="none" style="width:827px;height:241px;background:#FFFFFF;" version="1.1" viewBox="0 0 827 241" width="827px" zoomAndPan="magnify"><defs/><g><rect fill="#F1F1F1" height="81.9531" rx="5" ry="5" style="stroke:#F1F1F1;stroke-width:1.5;" width="289" x="10" y="24.5"/><text fill="#000000" font-family="sans-serif" font-size="14" font-weight="bold" lengthAdjust="spacing" textLength="42" x="15" y="40.0352">field1</text><text fill="#000000" font-family="sans-serif" font-size="14" lengthAdjust="spacing" textLength="145" x="149" y="40.0352">PhoneNumberTypeID</text><line style="stroke:#000000;stroke-width:1.0;" x1="144" x2="144" y1="24.5" y2="44.9883"/><line style="stroke:#000000;stroke-width:1.0;" x1="10" x2="299" y1="44.9883" y2="44.9883"/><text fill="#000000" font-family="sans-serif" font-size="14" font-weight="bold" lengthAdjust="spacing" textLength="90" x="15" y="60.5234">combination</text><text fill="#000000" font-family="sans-serif" font-size="14" lengthAdjust="spacing" textLength="145" x="149" y="60.5234">PhoneNumberTypeID</text><line style="stroke:#000000;stroke-width:1.0;" x1="144" x2="144" y1="44.9883" y2="65.4766"/><line style="stroke:#000000;stroke-width:1.0;" x1="10" x2="299" y1="65.4766" y2="65.4766"/><text fill="#000000" font-family="sans-serif" font-size="14" font-weight="bold" lengthAdjust="spacing" textLength="121" x="15" y="81.0117">null_distribution</text><text fill="#000000" font-family="sans-serif" font-size="14" lengthAdjust="spacing" textLength="12" x="149" y="81.0117">   </text><line style="stroke:#000000;stroke-width:1.0;" x1="144" x2="144" y1="65.4766" y2="85.9648"/><line style="stroke:#000000;stroke-width:1.0;" x1="10" x2="299" y1="85.9648" y2="85.9648"/><text fill="#000000" font-family="sans-serif" font-size="14" font-weight="bold" lengthAdjust="spacing" textLength="124" x="15" y="101.5">data_distribution</text><text fill="#000000" font-family="sans-serif" font-size="14" lengthAdjust="spacing" textLength="12" x="149" y="101.5">   </text><line style="stroke:#000000;stroke-width:1.0;" x1="144" x2="144" y1="85.9648" y2="106.4531"/><rect fill="none" height="81.9531" rx="5" ry="5" style="stroke:#000000;stroke-width:1.5;" width="289" x="10" y="24.5"/><rect fill="#F1F1F1" height="40.9766" rx="5" ry="5" style="stroke:#F1F1F1;stroke-width:1.5;" width="171" x="336" y="31"/><text fill="#000000" font-family="sans-serif" font-size="14" font-weight="bold" lengthAdjust="spacing" textLength="111" x="341" y="46.5352">total_null_rows</text><text fill="#000000" font-family="sans-serif" font-size="14" lengthAdjust="spacing" textLength="9" x="493" y="46.5352">0</text><line style="stroke:#000000;stroke-width:1.0;" x1="488" x2="488" y1="31" y2="51.4883"/><line style="stroke:#000000;stroke-width:1.0;" x1="336" x2="507" y1="51.4883" y2="51.4883"/><text fill="#000000" font-family="sans-serif" font-size="14" font-weight="bold" lengthAdjust="spacing" textLength="142" x="341" y="67.0234">total_not_null_rows</text><text fill="#000000" font-family="sans-serif" font-size="14" lengthAdjust="spacing" textLength="9" x="493" y="67.0234">3</text><line style="stroke:#000000;stroke-width:1.0;" x1="488" x2="488" y1="51.4883" y2="71.9766"/><rect fill="none" height="40.9766" rx="5" ry="5" style="stroke:#000000;stroke-width:1.5;" width="171" x="336" y="31"/><rect fill="#F1F1F1" height="61.4648" rx="5" ry="5" style="stroke:#F1F1F1;stroke-width:1.5;" width="22" x="409.5" y="90"/><text fill="#000000" font-family="sans-serif" font-size="14" lengthAdjust="spacing" textLength="12" x="414.5" y="105.5352">   </text><line style="stroke:#000000;stroke-width:1.0;" x1="409.5" x2="431.5" y1="110.4883" y2="110.4883"/><text fill="#000000" font-family="sans-serif" font-size="14" lengthAdjust="spacing" textLength="12" x="414.5" y="126.0234">   </text><line style="stroke:#000000;stroke-width:1.0;" x1="409.5" x2="431.5" y1="130.9766" y2="130.9766"/><text fill="#000000" font-family="sans-serif" font-size="14" lengthAdjust="spacing" textLength="12" x="414.5" y="146.5117">   </text><rect fill="none" height="61.4648" rx="5" ry="5" style="stroke:#000000;stroke-width:1.5;" width="22" x="409.5" y="90"/><rect fill="#F1F1F1" height="61.4648" rx="5" ry="5" style="stroke:#F1F1F1;stroke-width:1.5;" width="271" x="544" y="10"/><text fill="#000000" font-family="sans-serif" font-size="14" font-weight="bold" lengthAdjust="spacing" textLength="78" x="549" y="25.5352">field_value</text><text fill="#000000" font-family="sans-serif" font-size="14" lengthAdjust="spacing" textLength="9" x="653" y="25.5352">3</text><line style="stroke:#000000;stroke-width:1.0;" x1="648" x2="648" y1="10" y2="30.4883"/><line style="stroke:#000000;stroke-width:1.0;" x1="544" x2="815" y1="30.4883" y2="30.4883"/><text fill="#000000" font-family="sans-serif" font-size="14" font-weight="bold" lengthAdjust="spacing" textLength="74" x="549" y="46.0234">row_count</text><text fill="#000000" font-family="sans-serif" font-size="14" lengthAdjust="spacing" textLength="9" x="653" y="46.0234">1</text><line style="stroke:#000000;stroke-width:1.0;" x1="648" x2="648" y1="30.4883" y2="50.9766"/><line style="stroke:#000000;stroke-width:1.0;" x1="544" x2="815" y1="50.9766" y2="50.9766"/><text fill="#000000" font-family="sans-serif" font-size="14" font-weight="bold" lengthAdjust="spacing" textLength="94" x="549" y="66.5117">ratio_percent</text><text fill="#000000" font-family="sans-serif" font-size="14" lengthAdjust="spacing" textLength="157" x="653" y="66.5117">33.333333333333336</text><line style="stroke:#000000;stroke-width:1.0;" x1="648" x2="648" y1="50.9766" y2="71.4648"/><rect fill="none" height="61.4648" rx="5" ry="5" style="stroke:#000000;stroke-width:1.5;" width="271" x="544" y="10"/><rect fill="#F1F1F1" height="61.4648" rx="5" ry="5" style="stroke:#F1F1F1;stroke-width:1.5;" width="271" x="544" y="89"/><text fill="#000000" font-family="sans-serif" font-size="14" font-weight="bold" lengthAdjust="spacing" textLength="78" x="549" y="104.5352">field_value</text><text fill="#000000" font-family="sans-serif" font-size="14" lengthAdjust="spacing" textLength="9" x="653" y="104.5352">2</text><line style="stroke:#000000;stroke-width:1.0;" x1="648" x2="648" y1="89" y2="109.4883"/><line style="stroke:#000000;stroke-width:1.0;" x1="544" x2="815" y1="109.4883" y2="109.4883"/><text fill="#000000" font-family="sans-serif" font-size="14" font-weight="bold" lengthAdjust="spacing" textLength="74" x="549" y="125.0234">row_count</text><text fill="#000000" font-family="sans-serif" font-size="14" lengthAdjust="spacing" textLength="9" x="653" y="125.0234">1</text><line style="stroke:#000000;stroke-width:1.0;" x1="648" x2="648" y1="109.4883" y2="129.9766"/><line style="stroke:#000000;stroke-width:1.0;" x1="544" x2="815" y1="129.9766" y2="129.9766"/><text fill="#000000" font-family="sans-serif" font-size="14" font-weight="bold" lengthAdjust="spacing" textLength="94" x="549" y="145.5117">ratio_percent</text><text fill="#000000" font-family="sans-serif" font-size="14" lengthAdjust="spacing" textLength="157" x="653" y="145.5117">33.333333333333336</text><line style="stroke:#000000;stroke-width:1.0;" x1="648" x2="648" y1="129.9766" y2="150.4648"/><rect fill="none" height="61.4648" rx="5" ry="5" style="stroke:#000000;stroke-width:1.5;" width="271" x="544" y="89"/><rect fill="#F1F1F1" height="61.4648" rx="5" ry="5" style="stroke:#F1F1F1;stroke-width:1.5;" width="271" x="544" y="168"/><text fill="#000000" font-family="sans-serif" font-size="14" font-weight="bold" lengthAdjust="spacing" textLength="78" x="549" y="183.5352">field_value</text><text fill="#000000" font-family="sans-serif" font-size="14" lengthAdjust="spacing" textLength="9" x="653" y="183.5352">1</text><line style="stroke:#000000;stroke-width:1.0;" x1="648" x2="648" y1="168" y2="188.4883"/><line style="stroke:#000000;stroke-width:1.0;" x1="544" x2="815" y1="188.4883" y2="188.4883"/><text fill="#000000" font-family="sans-serif" font-size="14" font-weight="bold" lengthAdjust="spacing" textLength="74" x="549" y="204.0234">row_count</text><text fill="#000000" font-family="sans-serif" font-size="14" lengthAdjust="spacing" textLength="9" x="653" y="204.0234">1</text><line style="stroke:#000000;stroke-width:1.0;" x1="648" x2="648" y1="188.4883" y2="208.9766"/><line style="stroke:#000000;stroke-width:1.0;" x1="544" x2="815" y1="208.9766" y2="208.9766"/><text fill="#000000" font-family="sans-serif" font-size="14" font-weight="bold" lengthAdjust="spacing" textLength="94" x="549" y="224.5117">ratio_percent</text><text fill="#000000" font-family="sans-serif" font-size="14" lengthAdjust="spacing" textLength="157" x="653" y="224.5117">33.333333333333336</text><line style="stroke:#000000;stroke-width:1.0;" x1="648" x2="648" y1="208.9766" y2="229.4648"/><rect fill="none" height="61.4648" rx="5" ry="5" style="stroke:#000000;stroke-width:1.5;" width="271" x="544" y="168"/><path d="M287,75.5 L300,75.5 C310.7014,75.5 321.8352,74.5856 332.8249,73.1138 " fill="none" style="stroke:#000000;stroke-width:1.0;stroke-dasharray:3.0,3.0;"/><path d="M333.2663,76.1451 L335.0983,72.7827 L332.3834,70.0826 L340.403,72.0102 L333.2663,76.1451 " fill="#000000" style="stroke:#000000;stroke-width:1.0;"/><ellipse cx="287" cy="75.5" fill="#000000" rx="3" ry="3" style="stroke:#000000;stroke-width:1.0;"/><path d="M422,99.5 L435,99.5 C460.9619,99.5 515.6069,86.7211 566.6142,73.0578 " fill="none" style="stroke:#000000;stroke-width:1.0;stroke-dasharray:3.0,3.0;"/><path d="M567.4225,76.056 L568.8628,72.4516 L565.8058,70.0597 L574.1096,71.0369 L567.4225,76.056 " fill="#000000" style="stroke:#000000;stroke-width:1.0;"/><ellipse cx="422" cy="99.5" fill="#000000" rx="3" ry="3" style="stroke:#000000;stroke-width:1.0;"/><path d="M422,119.5 L435,119.5 C467.9829,119.5 503.4738,119.5 536.8959,119.5 " fill="none" style="stroke:#000000;stroke-width:1.0;stroke-dasharray:3.0,3.0;"/><path d="M536.8959,122.5183 L539.1596,119.5 L536.8959,116.4817 L544.4416,119.5 L536.8959,122.5183 " fill="#000000" style="stroke:#000000;stroke-width:1.0;"/><ellipse cx="422" cy="119.5" fill="#000000" rx="3" ry="3" style="stroke:#000000;stroke-width:1.0;"/><path d="M422,140.5 L435,140.5 C460.6265,140.5 514.2739,152.7626 564.7555,166.0109 " fill="none" style="stroke:#000000;stroke-width:1.0;stroke-dasharray:3.0,3.0;"/><path d="M563.9713,168.9794 L566.982,166.599 L565.5397,163.0423 L572.177,167.9713 L563.9713,168.9794 " fill="#000000" style="stroke:#000000;stroke-width:1.0;"/><ellipse cx="422" cy="140.5" fill="#000000" rx="3" ry="3" style="stroke:#000000;stroke-width:1.0;"/><path d="M287,96.5 L300,96.5 C336.9429,96.5 379.0388,107.3971 402.5696,114.5057 " fill="none" style="stroke:#000000;stroke-width:1.0;stroke-dasharray:3.0,3.0;"/><path d="M401.6719,117.3993 L404.7398,115.179 L403.4673,111.6121 L409.8036,116.75 L401.6719,117.3993 " fill="#000000" style="stroke:#000000;stroke-width:1.0;"/><ellipse cx="287" cy="96.5" fill="#000000" rx="3" ry="3" style="stroke:#000000;stroke-width:1.0;"/><!--MD5=[0c3645ad8af692ff89bcd7fd7116c45d]
@startjson
{
    "field1": "PhoneNumberTypeID",
    "combination": "PhoneNumberTypeID",
    "null_distribution": {
        "total_null_rows": 0,
        "total_not_null_rows": 3
    },
    "data_distribution": [
        {
            "field_value": "3",
            "row_count": 1,
            "ratio_percent": 33.333333333333336
        },
        {
            "field_value": "2",
            "row_count": 1,
            "ratio_percent": 33.333333333333336
        },
        {
            "field_value": "1",
            "row_count": 1,
            "ratio_percent": 33.333333333333336
        }
    ]
}
@endjson

PlantUML version 1.2022.5(Sat Apr 30 06:55:52 EDT 2022)
(GPL source distribution)
Java Runtime: OpenJDK Runtime Environment
JVM: OpenJDK 64-Bit Server VM
Default Encoding: UTF-8
Language: en
Country: CA
--></g></svg>