<?xml version="1.0" encoding="UTF-8" standalone="no"?><svg xmlns="http://www.w3.org/2000/svg" xmlns:xlink="http://www.w3.org/1999/xlink" contentStyleType="text/css" height="241px" preserveAspectRatio="none" style="width:863px;height:241px;background:#FFFFFF;" version="1.1" viewBox="0 0 863 241" width="863px" zoomAndPan="magnify"><defs/><g><rect fill="#F1F1F1" height="81.9531" rx="5" ry="5" style="stroke:#F1F1F1;stroke-width:1.5;" width="289" x="10" y="24.5"/><text fill="#000000" font-family="sans-serif" font-size="14" font-weight="bold" lengthAdjust="spacing" textLength="42" x="15" y="40.0352">field1</text><text fill="#000000" font-family="sans-serif" font-size="14" lengthAdjust="spacing" textLength="145" x="149" y="40.0352">PhoneNumberTypeID</text><line style="stroke:#000000;stroke-width:1.0;" x1="144" x2="144" y1="24.5" y2="44.9883"/><line style="stroke:#000000;stroke-width:1.0;" x1="10" x2="299" y1="44.9883" y2="44.9883"/><text fill="#000000" font-family="sans-serif" font-size="14" font-weight="bold" lengthAdjust="spacing" textLength="90" x="15" y="60.5234">combination</text><text fill="#000000" font-family="sans-serif" font-size="14" lengthAdjust="spacing" textLength="145" x="149" y="60.5234">PhoneNumberTypeID</text><line style="stroke:#000000;stroke-width:1.0;" x1="144" x2="144" y1="44.9883" y2="65.4766"/><line style="stroke:#000000;stroke-width:1.0;" x1="10" x2="299" y1="65.4766" y2="65.4766"/><text fill="#000000" font-family="sans-serif" font-size="14" font-weight="bold" lengthAdjust="spacing" textLength="121" x="15" y="81.0117">null_distribution</text><text fill="#000000" font-family="sans-serif" font-size="14" lengthAdjust="spacing" textLength="12" x="149" y="81.0117">   </text><line style="stroke:#000000;stroke-width:1.0;" x1="144" x2="144" y1="65.4766" y2="85.9648"/><line style="stroke:#000000;stroke-width:1.0;" x1="10" x2="299" y1="85.9648" y2="85.9648"/><text fill="#000000" font-family="sans-serif" font-size="14" font-weight="bold" lengthAdjust="spacing" textLength="124" x="15" y="101.5">data_distribution</text><text fill="#000000" font-family="sans-serif" font-size="14" lengthAdjust="spacing" textLength="12" x="149" y="101.5">   </text><line style="stroke:#000000;stroke-width:1.0;" x1="144" x2="144" y1="85.9648" y2="106.4531"/><rect fill="none" height="81.9531" rx="5" ry="5" style="stroke:#000000;stroke-width:1.5;" width="289" x="10" y="24.5"/><rect fill="#F1F1F1" height="40.9766" rx="5" ry="5" style="stroke:#F1F1F1;stroke-width:1.5;" width="207" x="336" y="31"/><text fill="#000000" font-family="sans-serif" font-size="14" font-weight="bold" lengthAdjust="spacing" textLength="111" x="341" y="46.5352">total_null_rows</text><text fill="#000000" font-family="sans-serif" font-size="14" lengthAdjust="spacing" textLength="9" x="493" y="46.5352">0</text><line style="stroke:#000000;stroke-width:1.0;" x1="488" x2="488" y1="31" y2="51.4883"/><line style="stroke:#000000;stroke-width:1.0;" x1="336" x2="543" y1="51.4883" y2="51.4883"/><text fill="#000000" font-family="sans-serif" font-size="14" font-weight="bold" lengthAdjust="spacing" textLength="142" x="341" y="67.0234">total_not_null_rows</text><text fill="#000000" font-family="sans-serif" font-size="14" lengthAdjust="spacing" textLength="45" x="493" y="67.0234">19972</text><line style="stroke:#000000;stroke-width:1.0;" x1="488" x2="488" y1="51.4883" y2="71.9766"/><rect fill="none" height="40.9766" rx="5" ry="5" style="stroke:#000000;stroke-width:1.5;" width="207" x="336" y="31"/><rect fill="#F1F1F1" height="61.4648" rx="5" ry="5" style="stroke:#F1F1F1;stroke-width:1.5;" width="22" x="427.5" y="90"/><text fill="#000000" font-family="sans-serif" font-size="14" lengthAdjust="spacing" textLength="12" x="432.5" y="105.5352">   </text><line style="stroke:#000000;stroke-width:1.0;" x1="427.5" x2="449.5" y1="110.4883" y2="110.4883"/><text fill="#000000" font-family="sans-serif" font-size="14" lengthAdjust="spacing" textLength="12" x="432.5" y="126.0234">   </text><line style="stroke:#000000;stroke-width:1.0;" x1="427.5" x2="449.5" y1="130.9766" y2="130.9766"/><text fill="#000000" font-family="sans-serif" font-size="14" lengthAdjust="spacing" textLength="12" x="432.5" y="146.5117">   </text><rect fill="none" height="61.4648" rx="5" ry="5" style="stroke:#000000;stroke-width:1.5;" width="22" x="427.5" y="90"/><rect fill="#F1F1F1" height="61.4648" rx="5" ry="5" style="stroke:#F1F1F1;stroke-width:1.5;" width="271" x="580" y="10"/><text fill="#000000" font-family="sans-serif" font-size="14" font-weight="bold" lengthAdjust="spacing" textLength="78" x="585" y="25.5352">field_value</text><text fill="#000000" font-family="sans-serif" font-size="14" lengthAdjust="spacing" textLength="9" x="689" y="25.5352">1</text><line style="stroke:#000000;stroke-width:1.0;" x1="684" x2="684" y1="10" y2="30.4883"/><line style="stroke:#000000;stroke-width:1.0;" x1="580" x2="851" y1="30.4883" y2="30.4883"/><text fill="#000000" font-family="sans-serif" font-size="14" font-weight="bold" lengthAdjust="spacing" textLength="74" x="585" y="46.0234">row_count</text><text fill="#000000" font-family="sans-serif" font-size="14" lengthAdjust="spacing" textLength="45" x="689" y="46.0234">10096</text><line style="stroke:#000000;stroke-width:1.0;" x1="684" x2="684" y1="30.4883" y2="50.9766"/><line style="stroke:#000000;stroke-width:1.0;" x1="580" x2="851" y1="50.9766" y2="50.9766"/><text fill="#000000" font-family="sans-serif" font-size="14" font-weight="bold" lengthAdjust="spacing" textLength="94" x="585" y="66.5117">ratio_percent</text><text fill="#000000" font-family="sans-serif" font-size="14" lengthAdjust="spacing" textLength="157" x="689" y="66.5117">50.550771079511314</text><line style="stroke:#000000;stroke-width:1.0;" x1="684" x2="684" y1="50.9766" y2="71.4648"/><rect fill="none" height="61.4648" rx="5" ry="5" style="stroke:#000000;stroke-width:1.5;" width="271" x="580" y="10"/><rect fill="#F1F1F1" height="61.4648" rx="5" ry="5" style="stroke:#F1F1F1;stroke-width:1.5;" width="262" x="584.5" y="89"/><text fill="#000000" font-family="sans-serif" font-size="14" font-weight="bold" lengthAdjust="spacing" textLength="78" x="589.5" y="104.5352">field_value</text><text fill="#000000" font-family="sans-serif" font-size="14" lengthAdjust="spacing" textLength="9" x="693.5" y="104.5352">2</text><line style="stroke:#000000;stroke-width:1.0;" x1="688.5" x2="688.5" y1="89" y2="109.4883"/><line style="stroke:#000000;stroke-width:1.0;" x1="584.5" x2="846.5" y1="109.4883" y2="109.4883"/><text fill="#000000" font-family="sans-serif" font-size="14" font-weight="bold" lengthAdjust="spacing" textLength="74" x="589.5" y="125.0234">row_count</text><text fill="#000000" font-family="sans-serif" font-size="14" lengthAdjust="spacing" textLength="36" x="693.5" y="125.0234">9140</text><line style="stroke:#000000;stroke-width:1.0;" x1="688.5" x2="688.5" y1="109.4883" y2="129.9766"/><line style="stroke:#000000;stroke-width:1.0;" x1="584.5" x2="846.5" y1="129.9766" y2="129.9766"/><text fill="#000000" font-family="sans-serif" font-size="14" font-weight="bold" lengthAdjust="spacing" textLength="94" x="589.5" y="145.5117">ratio_percent</text><text fill="#000000" font-family="sans-serif" font-size="14" lengthAdjust="spacing" textLength="148" x="693.5" y="145.5117">45.76406969757661</text><line style="stroke:#000000;stroke-width:1.0;" x1="688.5" x2="688.5" y1="129.9766" y2="150.4648"/><rect fill="none" height="61.4648" rx="5" ry="5" style="stroke:#000000;stroke-width:1.5;" width="262" x="584.5" y="89"/><rect fill="#F1F1F1" height="61.4648" rx="5" ry="5" style="stroke:#F1F1F1;stroke-width:1.5;" width="262" x="584.5" y="168"/><text fill="#000000" font-family="sans-serif" font-size="14" font-weight="bold" lengthAdjust="spacing" textLength="78" x="589.5" y="183.5352">field_value</text><text fill="#000000" font-family="sans-serif" font-size="14" lengthAdjust="spacing" textLength="9" x="693.5" y="183.5352">3</text><line style="stroke:#000000;stroke-width:1.0;" x1="688.5" x2="688.5" y1="168" y2="188.4883"/><line style="stroke:#000000;stroke-width:1.0;" x1="584.5" x2="846.5" y1="188.4883" y2="188.4883"/><text fill="#000000" font-family="sans-serif" font-size="14" font-weight="bold" lengthAdjust="spacing" textLength="74" x="589.5" y="204.0234">row_count</text><text fill="#000000" font-family="sans-serif" font-size="14" lengthAdjust="spacing" textLength="27" x="693.5" y="204.0234">736</text><line style="stroke:#000000;stroke-width:1.0;" x1="688.5" x2="688.5" y1="188.4883" y2="208.9766"/><line style="stroke:#000000;stroke-width:1.0;" x1="584.5" x2="846.5" y1="208.9766" y2="208.9766"/><text fill="#000000" font-family="sans-serif" font-size="14" font-weight="bold" lengthAdjust="spacing" textLength="94" x="589.5" y="224.5117">ratio_percent</text><text fill="#000000" font-family="sans-serif" font-size="14" lengthAdjust="spacing" textLength="148" x="693.5" y="224.5117">3.685159222912077</text><line style="stroke:#000000;stroke-width:1.0;" x1="688.5" x2="688.5" y1="208.9766" y2="229.4648"/><rect fill="none" height="61.4648" rx="5" ry="5" style="stroke:#000000;stroke-width:1.5;" width="262" x="584.5" y="168"/><path d="M287,75.5 L300,75.5 C312.5898,75.5 325.7288,74.5321 338.6886,72.9851 " fill="none" style="stroke:#000000;stroke-width:1.0;stroke-dasharray:3.0,3.0;"/><path d="M339.0786,76.0268 L340.9699,72.6926 L338.2987,69.9433 L346.293,72.0102 L339.0786,76.0268 " fill="#000000" style="stroke:#000000;stroke-width:1.0;"/><ellipse cx="287" cy="75.5" fill="#000000" rx="3" ry="3" style="stroke:#000000;stroke-width:1.0;"/><path d="M440,99.5 L453,99.5 C480.8886,99.5 539.9253,86.6162 594.9091,72.8898 " fill="none" style="stroke:#000000;stroke-width:1.0;stroke-dasharray:3.0,3.0;"/><path d="M595.6503,75.8411 L597.1226,72.3339 L594.168,69.9385 L602.2874,71.0369 L595.6503,75.8411 " fill="#000000" style="stroke:#000000;stroke-width:1.0;"/><ellipse cx="440" cy="99.5" fill="#000000" rx="3" ry="3" style="stroke:#000000;stroke-width:1.0;"/><path d="M440,119.5 L453,119.5 C493.1912,119.5 536.8505,119.5 576.7958,119.5 " fill="none" style="stroke:#000000;stroke-width:1.0;stroke-dasharray:3.0,3.0;"/><path d="M576.7958,122.675 L579.177,119.5 L576.7958,116.325 L584.7332,119.5 L576.7958,122.675 " fill="#000000" style="stroke:#000000;stroke-width:1.0;"/><ellipse cx="440" cy="119.5" fill="#000000" rx="3" ry="3" style="stroke:#000000;stroke-width:1.0;"/><path d="M440,140.5 L453,140.5 C480.5316,140.5 538.4889,152.8633 592.9086,166.1738 " fill="none" style="stroke:#000000;stroke-width:1.0;stroke-dasharray:3.0,3.0;"/><path d="M592.1896,169.096 L595.1002,166.7131 L593.6276,163.2516 L600.2141,167.9713 L592.1896,169.096 " fill="#000000" style="stroke:#000000;stroke-width:1.0;"/><ellipse cx="440" cy="140.5" fill="#000000" rx="3" ry="3" style="stroke:#000000;stroke-width:1.0;"/><path d="M287,96.5 L300,96.5 C343.7205,96.5 394.0633,108.1724 420.5284,115.2368 " fill="none" style="stroke:#000000;stroke-width:1.0;stroke-dasharray:3.0,3.0;"/><path d="M419.7178,118.202 L422.7522,115.8447 L421.3389,112.2716 L427.9413,117.2633 L419.7178,118.202 " fill="#000000" style="stroke:#000000;stroke-width:1.0;"/><ellipse cx="287" cy="96.5" fill="#000000" rx="3" ry="3" style="stroke:#000000;stroke-width:1.0;"/><!--MD5=[3f027cab5c2fdd7b613c23439d8e034e]
@startjson
{
    "field1": "PhoneNumberTypeID",
    "combination": "PhoneNumberTypeID",
    "null_distribution": {
        "total_null_rows": 0,
        "total_not_null_rows": 19972
    },
    "data_distribution": [
        {
            "field_value": "1",
            "row_count": 10096,
            "ratio_percent": 50.550771079511314
        },
        {
            "field_value": "2",
            "row_count": 9140,
            "ratio_percent": 45.76406969757661
        },
        {
            "field_value": "3",
            "row_count": 736,
            "ratio_percent": 3.685159222912077
        }
    ]
}
@endjson

PlantUML version 1.2022.5(Sat Apr 30 06:55:52 EDT 2022)
(GPL source distribution)
Java Runtime: OpenJDK Runtime Environment
JVM: OpenJDK 64-Bit Server VM
Default Encoding: UTF-8
Language: en
Country: CA
--></g></svg>