<?xml version="1.0" encoding="UTF-8" standalone="no"?><svg xmlns="http://www.w3.org/2000/svg" xmlns:xlink="http://www.w3.org/1999/xlink" contentStyleType="text/css" height="794px" preserveAspectRatio="none" style="width:848px;height:794px;background:#FFFFFF;" version="1.1" viewBox="0 0 848 794" width="848px" zoomAndPan="magnify"><defs/><g><rect fill="#F1F1F1" height="81.9531" rx="5" ry="5" style="stroke:#F1F1F1;stroke-width:1.5;" width="283" x="10" y="264.5"/><text fill="#000000" font-family="sans-serif" font-size="14" font-weight="bold" lengthAdjust="spacing" textLength="42" x="15" y="280.0352">field1</text><text fill="#000000" font-family="sans-serif" font-size="14" lengthAdjust="spacing" textLength="139" x="149" y="280.0352">CountryRegionCode</text><line style="stroke:#000000;stroke-width:1.0;" x1="144" x2="144" y1="264.5" y2="284.9883"/><line style="stroke:#000000;stroke-width:1.0;" x1="10" x2="293" y1="284.9883" y2="284.9883"/><text fill="#000000" font-family="sans-serif" font-size="14" font-weight="bold" lengthAdjust="spacing" textLength="90" x="15" y="300.5234">combination</text><text fill="#000000" font-family="sans-serif" font-size="14" lengthAdjust="spacing" textLength="139" x="149" y="300.5234">CountryRegionCode</text><line style="stroke:#000000;stroke-width:1.0;" x1="144" x2="144" y1="284.9883" y2="305.4766"/><line style="stroke:#000000;stroke-width:1.0;" x1="10" x2="293" y1="305.4766" y2="305.4766"/><text fill="#000000" font-family="sans-serif" font-size="14" font-weight="bold" lengthAdjust="spacing" textLength="121" x="15" y="321.0117">null_distribution</text><text fill="#000000" font-family="sans-serif" font-size="14" lengthAdjust="spacing" textLength="12" x="149" y="321.0117">   </text><line style="stroke:#000000;stroke-width:1.0;" x1="144" x2="144" y1="305.4766" y2="325.9648"/><line style="stroke:#000000;stroke-width:1.0;" x1="10" x2="293" y1="325.9648" y2="325.9648"/><text fill="#000000" font-family="sans-serif" font-size="14" font-weight="bold" lengthAdjust="spacing" textLength="124" x="15" y="341.5">data_distribution</text><text fill="#000000" font-family="sans-serif" font-size="14" lengthAdjust="spacing" textLength="12" x="149" y="341.5">   </text><line style="stroke:#000000;stroke-width:1.0;" x1="144" x2="144" y1="325.9648" y2="346.4531"/><rect fill="none" height="81.9531" rx="5" ry="5" style="stroke:#000000;stroke-width:1.5;" width="283" x="10" y="264.5"/><rect fill="#F1F1F1" height="40.9766" rx="5" ry="5" style="stroke:#F1F1F1;stroke-width:1.5;" width="189" x="330" y="235"/><text fill="#000000" font-family="sans-serif" font-size="14" font-weight="bold" lengthAdjust="spacing" textLength="111" x="335" y="250.5352">total_null_rows</text><text fill="#000000" font-family="sans-serif" font-size="14" lengthAdjust="spacing" textLength="9" x="487" y="250.5352">0</text><line style="stroke:#000000;stroke-width:1.0;" x1="482" x2="482" y1="235" y2="255.4883"/><line style="stroke:#000000;stroke-width:1.0;" x1="330" x2="519" y1="255.4883" y2="255.4883"/><text fill="#000000" font-family="sans-serif" font-size="14" font-weight="bold" lengthAdjust="spacing" textLength="142" x="335" y="271.0234">total_not_null_rows</text><text fill="#000000" font-family="sans-serif" font-size="14" lengthAdjust="spacing" textLength="27" x="487" y="271.0234">238</text><line style="stroke:#000000;stroke-width:1.0;" x1="482" x2="482" y1="255.4883" y2="275.9766"/><rect fill="none" height="40.9766" rx="5" ry="5" style="stroke:#000000;stroke-width:1.5;" width="189" x="330" y="235"/><rect fill="#F1F1F1" height="204.8828" rx="5" ry="5" style="stroke:#F1F1F1;stroke-width:1.5;" width="22" x="412.5" y="294"/><text fill="#000000" font-family="sans-serif" font-size="14" lengthAdjust="spacing" textLength="12" x="417.5" y="309.5352">   </text><line style="stroke:#000000;stroke-width:1.0;" x1="412.5" x2="434.5" y1="314.4883" y2="314.4883"/><text fill="#000000" font-family="sans-serif" font-size="14" lengthAdjust="spacing" textLength="12" x="417.5" y="330.0234">   </text><line style="stroke:#000000;stroke-width:1.0;" x1="412.5" x2="434.5" y1="334.9766" y2="334.9766"/><text fill="#000000" font-family="sans-serif" font-size="14" lengthAdjust="spacing" textLength="12" x="417.5" y="350.5117">   </text><line style="stroke:#000000;stroke-width:1.0;" x1="412.5" x2="434.5" y1="355.4648" y2="355.4648"/><text fill="#000000" font-family="sans-serif" font-size="14" lengthAdjust="spacing" textLength="12" x="417.5" y="371">   </text><line style="stroke:#000000;stroke-width:1.0;" x1="412.5" x2="434.5" y1="375.9531" y2="375.9531"/><text fill="#000000" font-family="sans-serif" font-size="14" lengthAdjust="spacing" textLength="12" x="417.5" y="391.4883">   </text><line style="stroke:#000000;stroke-width:1.0;" x1="412.5" x2="434.5" y1="396.4414" y2="396.4414"/><text fill="#000000" font-family="sans-serif" font-size="14" lengthAdjust="spacing" textLength="12" x="417.5" y="411.9766">   </text><line style="stroke:#000000;stroke-width:1.0;" x1="412.5" x2="434.5" y1="416.9297" y2="416.9297"/><text fill="#000000" font-family="sans-serif" font-size="14" lengthAdjust="spacing" textLength="12" x="417.5" y="432.4648">   </text><line style="stroke:#000000;stroke-width:1.0;" x1="412.5" x2="434.5" y1="437.418" y2="437.418"/><text fill="#000000" font-family="sans-serif" font-size="14" lengthAdjust="spacing" textLength="12" x="417.5" y="452.9531">   </text><line style="stroke:#000000;stroke-width:1.0;" x1="412.5" x2="434.5" y1="457.9063" y2="457.9063"/><text fill="#000000" font-family="sans-serif" font-size="14" lengthAdjust="spacing" textLength="12" x="417.5" y="473.4414">   </text><line style="stroke:#000000;stroke-width:1.0;" x1="412.5" x2="434.5" y1="478.3945" y2="478.3945"/><text fill="#000000" font-family="sans-serif" font-size="14" lengthAdjust="spacing" textLength="12" x="417.5" y="493.9297">   </text><rect fill="none" height="204.8828" rx="5" ry="5" style="stroke:#000000;stroke-width:1.5;" width="22" x="412.5" y="294"/><rect fill="#F1F1F1" height="61.4648" rx="5" ry="5" style="stroke:#F1F1F1;stroke-width:1.5;" width="280" x="556" y="10"/><text fill="#000000" font-family="sans-serif" font-size="14" font-weight="bold" lengthAdjust="spacing" textLength="78" x="561" y="25.5352">field_value</text><text fill="#000000" font-family="sans-serif" font-size="14" lengthAdjust="spacing" textLength="19" x="665" y="25.5352">AR</text><line style="stroke:#000000;stroke-width:1.0;" x1="660" x2="660" y1="10" y2="30.4883"/><line style="stroke:#000000;stroke-width:1.0;" x1="556" x2="836" y1="30.4883" y2="30.4883"/><text fill="#000000" font-family="sans-serif" font-size="14" font-weight="bold" lengthAdjust="spacing" textLength="74" x="561" y="46.0234">row_count</text><text fill="#000000" font-family="sans-serif" font-size="14" lengthAdjust="spacing" textLength="9" x="665" y="46.0234">1</text><line style="stroke:#000000;stroke-width:1.0;" x1="660" x2="660" y1="30.4883" y2="50.9766"/><line style="stroke:#000000;stroke-width:1.0;" x1="556" x2="836" y1="50.9766" y2="50.9766"/><text fill="#000000" font-family="sans-serif" font-size="14" font-weight="bold" lengthAdjust="spacing" textLength="94" x="561" y="66.5117">ratio_percent</text><text fill="#000000" font-family="sans-serif" font-size="14" lengthAdjust="spacing" textLength="166" x="665" y="66.5117">0.42016806722689076</text><line style="stroke:#000000;stroke-width:1.0;" x1="660" x2="660" y1="50.9766" y2="71.4648"/><rect fill="none" height="61.4648" rx="5" ry="5" style="stroke:#000000;stroke-width:1.5;" width="280" x="556" y="10"/><rect fill="#F1F1F1" height="61.4648" rx="5" ry="5" style="stroke:#F1F1F1;stroke-width:1.5;" width="280" x="556" y="89"/><text fill="#000000" font-family="sans-serif" font-size="14" font-weight="bold" lengthAdjust="spacing" textLength="78" x="561" y="104.5352">field_value</text><text fill="#000000" font-family="sans-serif" font-size="14" lengthAdjust="spacing" textLength="21" x="665" y="104.5352">AQ</text><line style="stroke:#000000;stroke-width:1.0;" x1="660" x2="660" y1="89" y2="109.4883"/><line style="stroke:#000000;stroke-width:1.0;" x1="556" x2="836" y1="109.4883" y2="109.4883"/><text fill="#000000" font-family="sans-serif" font-size="14" font-weight="bold" lengthAdjust="spacing" textLength="74" x="561" y="125.0234">row_count</text><text fill="#000000" font-family="sans-serif" font-size="14" lengthAdjust="spacing" textLength="9" x="665" y="125.0234">1</text><line style="stroke:#000000;stroke-width:1.0;" x1="660" x2="660" y1="109.4883" y2="129.9766"/><line style="stroke:#000000;stroke-width:1.0;" x1="556" x2="836" y1="129.9766" y2="129.9766"/><text fill="#000000" font-family="sans-serif" font-size="14" font-weight="bold" lengthAdjust="spacing" textLength="94" x="561" y="145.5117">ratio_percent</text><text fill="#000000" font-family="sans-serif" font-size="14" lengthAdjust="spacing" textLength="166" x="665" y="145.5117">0.42016806722689076</text><line style="stroke:#000000;stroke-width:1.0;" x1="660" x2="660" y1="129.9766" y2="150.4648"/><rect fill="none" height="61.4648" rx="5" ry="5" style="stroke:#000000;stroke-width:1.5;" width="280" x="556" y="89"/><rect fill="#F1F1F1" height="61.4648" rx="5" ry="5" style="stroke:#F1F1F1;stroke-width:1.5;" width="280" x="556" y="168"/><text fill="#000000" font-family="sans-serif" font-size="14" font-weight="bold" lengthAdjust="spacing" textLength="78" x="561" y="183.5352">field_value</text><text fill="#000000" font-family="sans-serif" font-size="14" lengthAdjust="spacing" textLength="21" x="665" y="183.5352">AO</text><line style="stroke:#000000;stroke-width:1.0;" x1="660" x2="660" y1="168" y2="188.4883"/><line style="stroke:#000000;stroke-width:1.0;" x1="556" x2="836" y1="188.4883" y2="188.4883"/><text fill="#000000" font-family="sans-serif" font-size="14" font-weight="bold" lengthAdjust="spacing" textLength="74" x="561" y="204.0234">row_count</text><text fill="#000000" font-family="sans-serif" font-size="14" lengthAdjust="spacing" textLength="9" x="665" y="204.0234">1</text><line style="stroke:#000000;stroke-width:1.0;" x1="660" x2="660" y1="188.4883" y2="208.9766"/><line style="stroke:#000000;stroke-width:1.0;" x1="556" x2="836" y1="208.9766" y2="208.9766"/><text fill="#000000" font-family="sans-serif" font-size="14" font-weight="bold" lengthAdjust="spacing" textLength="94" x="561" y="224.5117">ratio_percent</text><text fill="#000000" font-family="sans-serif" font-size="14" lengthAdjust="spacing" textLength="166" x="665" y="224.5117">0.42016806722689076</text><line style="stroke:#000000;stroke-width:1.0;" x1="660" x2="660" y1="208.9766" y2="229.4648"/><rect fill="none" height="61.4648" rx="5" ry="5" style="stroke:#000000;stroke-width:1.5;" width="280" x="556" y="168"/><rect fill="#F1F1F1" height="61.4648" rx="5" ry="5" style="stroke:#F1F1F1;stroke-width:1.5;" width="280" x="556" y="247"/><text fill="#000000" font-family="sans-serif" font-size="14" font-weight="bold" lengthAdjust="spacing" textLength="78" x="561" y="262.5352">field_value</text><text fill="#000000" font-family="sans-serif" font-size="14" lengthAdjust="spacing" textLength="20" x="665" y="262.5352">AN</text><line style="stroke:#000000;stroke-width:1.0;" x1="660" x2="660" y1="247" y2="267.4883"/><line style="stroke:#000000;stroke-width:1.0;" x1="556" x2="836" y1="267.4883" y2="267.4883"/><text fill="#000000" font-family="sans-serif" font-size="14" font-weight="bold" lengthAdjust="spacing" textLength="74" x="561" y="283.0234">row_count</text><text fill="#000000" font-family="sans-serif" font-size="14" lengthAdjust="spacing" textLength="9" x="665" y="283.0234">1</text><line style="stroke:#000000;stroke-width:1.0;" x1="660" x2="660" y1="267.4883" y2="287.9766"/><line style="stroke:#000000;stroke-width:1.0;" x1="556" x2="836" y1="287.9766" y2="287.9766"/><text fill="#000000" font-family="sans-serif" font-size="14" font-weight="bold" lengthAdjust="spacing" textLength="94" x="561" y="303.5117">ratio_percent</text><text fill="#000000" font-family="sans-serif" font-size="14" lengthAdjust="spacing" textLength="166" x="665" y="303.5117">0.42016806722689076</text><line style="stroke:#000000;stroke-width:1.0;" x1="660" x2="660" y1="287.9766" y2="308.4648"/><rect fill="none" height="61.4648" rx="5" ry="5" style="stroke:#000000;stroke-width:1.5;" width="280" x="556" y="247"/><rect fill="#F1F1F1" height="61.4648" rx="5" ry="5" style="stroke:#F1F1F1;stroke-width:1.5;" width="280" x="556" y="326"/><text fill="#000000" font-family="sans-serif" font-size="14" font-weight="bold" lengthAdjust="spacing" textLength="78" x="561" y="341.5352">field_value</text><text fill="#000000" font-family="sans-serif" font-size="14" lengthAdjust="spacing" textLength="22" x="665" y="341.5352">AM</text><line style="stroke:#000000;stroke-width:1.0;" x1="660" x2="660" y1="326" y2="346.4883"/><line style="stroke:#000000;stroke-width:1.0;" x1="556" x2="836" y1="346.4883" y2="346.4883"/><text fill="#000000" font-family="sans-serif" font-size="14" font-weight="bold" lengthAdjust="spacing" textLength="74" x="561" y="362.0234">row_count</text><text fill="#000000" font-family="sans-serif" font-size="14" lengthAdjust="spacing" textLength="9" x="665" y="362.0234">1</text><line style="stroke:#000000;stroke-width:1.0;" x1="660" x2="660" y1="346.4883" y2="366.9766"/><line style="stroke:#000000;stroke-width:1.0;" x1="556" x2="836" y1="366.9766" y2="366.9766"/><text fill="#000000" font-family="sans-serif" font-size="14" font-weight="bold" lengthAdjust="spacing" textLength="94" x="561" y="382.5117">ratio_percent</text><text fill="#000000" font-family="sans-serif" font-size="14" lengthAdjust="spacing" textLength="166" x="665" y="382.5117">0.42016806722689076</text><line style="stroke:#000000;stroke-width:1.0;" x1="660" x2="660" y1="366.9766" y2="387.4648"/><rect fill="none" height="61.4648" rx="5" ry="5" style="stroke:#000000;stroke-width:1.5;" width="280" x="556" y="326"/><rect fill="#F1F1F1" height="61.4648" rx="5" ry="5" style="stroke:#F1F1F1;stroke-width:1.5;" width="280" x="556" y="405"/><text fill="#000000" font-family="sans-serif" font-size="14" font-weight="bold" lengthAdjust="spacing" textLength="78" x="561" y="420.5352">field_value</text><text fill="#000000" font-family="sans-serif" font-size="14" lengthAdjust="spacing" textLength="17" x="665" y="420.5352">AL</text><line style="stroke:#000000;stroke-width:1.0;" x1="660" x2="660" y1="405" y2="425.4883"/><line style="stroke:#000000;stroke-width:1.0;" x1="556" x2="836" y1="425.4883" y2="425.4883"/><text fill="#000000" font-family="sans-serif" font-size="14" font-weight="bold" lengthAdjust="spacing" textLength="74" x="561" y="441.0234">row_count</text><text fill="#000000" font-family="sans-serif" font-size="14" lengthAdjust="spacing" textLength="9" x="665" y="441.0234">1</text><line style="stroke:#000000;stroke-width:1.0;" x1="660" x2="660" y1="425.4883" y2="445.9766"/><line style="stroke:#000000;stroke-width:1.0;" x1="556" x2="836" y1="445.9766" y2="445.9766"/><text fill="#000000" font-family="sans-serif" font-size="14" font-weight="bold" lengthAdjust="spacing" textLength="94" x="561" y="461.5117">ratio_percent</text><text fill="#000000" font-family="sans-serif" font-size="14" lengthAdjust="spacing" textLength="166" x="665" y="461.5117">0.42016806722689076</text><line style="stroke:#000000;stroke-width:1.0;" x1="660" x2="660" y1="445.9766" y2="466.4648"/><rect fill="none" height="61.4648" rx="5" ry="5" style="stroke:#000000;stroke-width:1.5;" width="280" x="556" y="405"/><rect fill="#F1F1F1" height="61.4648" rx="5" ry="5" style="stroke:#F1F1F1;stroke-width:1.5;" width="280" x="556" y="484"/><text fill="#000000" font-family="sans-serif" font-size="14" font-weight="bold" lengthAdjust="spacing" textLength="78" x="561" y="499.5352">field_value</text><text fill="#000000" font-family="sans-serif" font-size="14" lengthAdjust="spacing" textLength="14" x="665" y="499.5352">AI</text><line style="stroke:#000000;stroke-width:1.0;" x1="660" x2="660" y1="484" y2="504.4883"/><line style="stroke:#000000;stroke-width:1.0;" x1="556" x2="836" y1="504.4883" y2="504.4883"/><text fill="#000000" font-family="sans-serif" font-size="14" font-weight="bold" lengthAdjust="spacing" textLength="74" x="561" y="520.0234">row_count</text><text fill="#000000" font-family="sans-serif" font-size="14" lengthAdjust="spacing" textLength="9" x="665" y="520.0234">1</text><line style="stroke:#000000;stroke-width:1.0;" x1="660" x2="660" y1="504.4883" y2="524.9766"/><line style="stroke:#000000;stroke-width:1.0;" x1="556" x2="836" y1="524.9766" y2="524.9766"/><text fill="#000000" font-family="sans-serif" font-size="14" font-weight="bold" lengthAdjust="spacing" textLength="94" x="561" y="540.5117">ratio_percent</text><text fill="#000000" font-family="sans-serif" font-size="14" lengthAdjust="spacing" textLength="166" x="665" y="540.5117">0.42016806722689076</text><line style="stroke:#000000;stroke-width:1.0;" x1="660" x2="660" y1="524.9766" y2="545.4648"/><rect fill="none" height="61.4648" rx="5" ry="5" style="stroke:#000000;stroke-width:1.5;" width="280" x="556" y="484"/><rect fill="#F1F1F1" height="61.4648" rx="5" ry="5" style="stroke:#F1F1F1;stroke-width:1.5;" width="280" x="556" y="563"/><text fill="#000000" font-family="sans-serif" font-size="14" font-weight="bold" lengthAdjust="spacing" textLength="78" x="561" y="578.5352">field_value</text><text fill="#000000" font-family="sans-serif" font-size="14" lengthAdjust="spacing" textLength="20" x="665" y="578.5352">AG</text><line style="stroke:#000000;stroke-width:1.0;" x1="660" x2="660" y1="563" y2="583.4883"/><line style="stroke:#000000;stroke-width:1.0;" x1="556" x2="836" y1="583.4883" y2="583.4883"/><text fill="#000000" font-family="sans-serif" font-size="14" font-weight="bold" lengthAdjust="spacing" textLength="74" x="561" y="599.0234">row_count</text><text fill="#000000" font-family="sans-serif" font-size="14" lengthAdjust="spacing" textLength="9" x="665" y="599.0234">1</text><line style="stroke:#000000;stroke-width:1.0;" x1="660" x2="660" y1="583.4883" y2="603.9766"/><line style="stroke:#000000;stroke-width:1.0;" x1="556" x2="836" y1="603.9766" y2="603.9766"/><text fill="#000000" font-family="sans-serif" font-size="14" font-weight="bold" lengthAdjust="spacing" textLength="94" x="561" y="619.5117">ratio_percent</text><text fill="#000000" font-family="sans-serif" font-size="14" lengthAdjust="spacing" textLength="166" x="665" y="619.5117">0.42016806722689076</text><line style="stroke:#000000;stroke-width:1.0;" x1="660" x2="660" y1="603.9766" y2="624.4648"/><rect fill="none" height="61.4648" rx="5" ry="5" style="stroke:#000000;stroke-width:1.5;" width="280" x="556" y="563"/><rect fill="#F1F1F1" height="61.4648" rx="5" ry="5" style="stroke:#F1F1F1;stroke-width:1.5;" width="280" x="556" y="642"/><text fill="#000000" font-family="sans-serif" font-size="14" font-weight="bold" lengthAdjust="spacing" textLength="78" x="561" y="657.5352">field_value</text><text fill="#000000" font-family="sans-serif" font-size="14" lengthAdjust="spacing" textLength="18" x="665" y="657.5352">AF</text><line style="stroke:#000000;stroke-width:1.0;" x1="660" x2="660" y1="642" y2="662.4883"/><line style="stroke:#000000;stroke-width:1.0;" x1="556" x2="836" y1="662.4883" y2="662.4883"/><text fill="#000000" font-family="sans-serif" font-size="14" font-weight="bold" lengthAdjust="spacing" textLength="74" x="561" y="678.0234">row_count</text><text fill="#000000" font-family="sans-serif" font-size="14" lengthAdjust="spacing" textLength="9" x="665" y="678.0234">1</text><line style="stroke:#000000;stroke-width:1.0;" x1="660" x2="660" y1="662.4883" y2="682.9766"/><line style="stroke:#000000;stroke-width:1.0;" x1="556" x2="836" y1="682.9766" y2="682.9766"/><text fill="#000000" font-family="sans-serif" font-size="14" font-weight="bold" lengthAdjust="spacing" textLength="94" x="561" y="698.5117">ratio_percent</text><text fill="#000000" font-family="sans-serif" font-size="14" lengthAdjust="spacing" textLength="166" x="665" y="698.5117">0.42016806722689076</text><line style="stroke:#000000;stroke-width:1.0;" x1="660" x2="660" y1="682.9766" y2="703.4648"/><rect fill="none" height="61.4648" rx="5" ry="5" style="stroke:#000000;stroke-width:1.5;" width="280" x="556" y="642"/><rect fill="#F1F1F1" height="61.4648" rx="5" ry="5" style="stroke:#F1F1F1;stroke-width:1.5;" width="280" x="556" y="721"/><text fill="#000000" font-family="sans-serif" font-size="14" font-weight="bold" lengthAdjust="spacing" textLength="78" x="561" y="736.5352">field_value</text><text fill="#000000" font-family="sans-serif" font-size="14" lengthAdjust="spacing" textLength="18" x="665" y="736.5352">AE</text><line style="stroke:#000000;stroke-width:1.0;" x1="660" x2="660" y1="721" y2="741.4883"/><line style="stroke:#000000;stroke-width:1.0;" x1="556" x2="836" y1="741.4883" y2="741.4883"/><text fill="#000000" font-family="sans-serif" font-size="14" font-weight="bold" lengthAdjust="spacing" textLength="74" x="561" y="757.0234">row_count</text><text fill="#000000" font-family="sans-serif" font-size="14" lengthAdjust="spacing" textLength="9" x="665" y="757.0234">1</text><line style="stroke:#000000;stroke-width:1.0;" x1="660" x2="660" y1="741.4883" y2="761.9766"/><line style="stroke:#000000;stroke-width:1.0;" x1="556" x2="836" y1="761.9766" y2="761.9766"/><text fill="#000000" font-family="sans-serif" font-size="14" font-weight="bold" lengthAdjust="spacing" textLength="94" x="561" y="777.5117">ratio_percent</text><text fill="#000000" font-family="sans-serif" font-size="14" lengthAdjust="spacing" textLength="166" x="665" y="777.5117">0.42016806722689076</text><line style="stroke:#000000;stroke-width:1.0;" x1="660" x2="660" y1="761.9766" y2="782.4648"/><rect fill="none" height="61.4648" rx="5" ry="5" style="stroke:#000000;stroke-width:1.5;" width="280" x="556" y="721"/><path d="M281,315.5 L294,315.5 C314.8273,315.5 311.7406,295.5187 330,285.5 C334.1394,283.2288 338.4771,281.0988 342.9224,279.1061 " fill="none" style="stroke:#000000;stroke-width:1.0;stroke-dasharray:3.0,3.0;"/><path d="M344.1301,281.9305 L345.0407,278.2004 L341.7148,276.2817 L349.9835,276.0871 L344.1301,281.9305 " fill="#000000" style="stroke:#000000;stroke-width:1.0;"/><ellipse cx="281" cy="315.5" fill="#000000" rx="3" ry="3" style="stroke:#000000;stroke-width:1.0;"/><path d="M425,303.5 L438,303.5 C475.3122,303.5 494.1906,312.4458 520,285.5 C584.2901,218.3792 493.6323,148.4107 556,79.5 C557.0125,78.3813 558.0541,77.2936 559.123,76.2361 " fill="none" style="stroke:#000000;stroke-width:1.0;stroke-dasharray:3.0,3.0;"/><path d="M561.139,78.4612 L560.7918,74.7241 L557.107,74.0111 L564.6857,71.1961 L561.139,78.4612 " fill="#000000" style="stroke:#000000;stroke-width:1.0;"/><ellipse cx="425" cy="303.5" fill="#000000" rx="3" ry="3" style="stroke:#000000;stroke-width:1.0;"/><path d="M425,324.5 L438,324.5 C478.3564,324.5 493.9543,316.3264 520,285.5 C557.864,240.686 514.4404,199.9099 556,158.5 C557.2303,157.2742 558.4957,156.0861 559.7935,154.9346 " fill="none" style="stroke:#000000;stroke-width:1.0;stroke-dasharray:3.0,3.0;"/><path d="M561.7206,157.2901 L561.5601,153.4893 L557.8664,152.579 L565.6824,150.1169 L561.7206,157.2901 " fill="#000000" style="stroke:#000000;stroke-width:1.0;"/><ellipse cx="425" cy="324.5" fill="#000000" rx="3" ry="3" style="stroke:#000000;stroke-width:1.0;"/><path d="M425,344.5 L438,344.5 C482.8977,344.5 487.9398,316.9316 520,285.5 C539.0419,266.8314 533.9903,252.5561 556,237.5 C558.3707,235.8783 560.8075,234.3236 563.2999,232.8333 " fill="none" style="stroke:#000000;stroke-width:1.0;stroke-dasharray:3.0,3.0;"/><path d="M564.8186,235.5213 L565.3159,231.6943 L561.7813,230.1454 L570.0198,229.0367 L564.8186,235.5213 " fill="#000000" style="stroke:#000000;stroke-width:1.0;"/><ellipse cx="425" cy="344.5" fill="#000000" rx="3" ry="3" style="stroke:#000000;stroke-width:1.0;"/><path d="M425,365.5 L438,365.5 C494.6174,365.5 502.489,335.9959 556,317.5 C562.9651,315.0925 570.1598,312.713 577.4405,310.3865 " fill="none" style="stroke:#000000;stroke-width:1.0;stroke-dasharray:3.0,3.0;"/><path d="M578.3637,313.3081 L579.6318,309.6941 L576.5173,307.4648 L584.7447,308.0785 L578.3637,313.3081 " fill="#000000" style="stroke:#000000;stroke-width:1.0;"/><ellipse cx="425" cy="365.5" fill="#000000" rx="3" ry="3" style="stroke:#000000;stroke-width:1.0;"/><path d="M425,385.5 L438,385.5 C473.91,385.5 512.461,382.6805 548.5148,378.7999 " fill="none" style="stroke:#000000;stroke-width:1.0;stroke-dasharray:3.0,3.0;"/><path d="M548.8522,381.8614 L550.8109,378.5468 L548.1773,375.7384 L556.1685,377.9563 L548.8522,381.8614 " fill="#000000" style="stroke:#000000;stroke-width:1.0;"/><ellipse cx="425" cy="385.5" fill="#000000" rx="3" ry="3" style="stroke:#000000;stroke-width:1.0;"/><path d="M425,406.5 L438,406.5 C473.91,406.5 512.461,409.3195 548.5148,413.2001 " fill="none" style="stroke:#000000;stroke-width:1.0;stroke-dasharray:3.0,3.0;"/><path d="M548.1773,416.2616 L550.8109,413.4532 L548.8522,410.1386 L556.1685,414.0437 L548.1773,416.2616 " fill="#000000" style="stroke:#000000;stroke-width:1.0;"/><ellipse cx="425" cy="406.5" fill="#000000" rx="3" ry="3" style="stroke:#000000;stroke-width:1.0;"/><path d="M425,427.5 L438,427.5 C494.6174,427.5 502.4279,457.1817 556,475.5 C562.0714,477.576 568.3183,479.6257 574.6455,481.6335 " fill="none" style="stroke:#000000;stroke-width:1.0;stroke-dasharray:3.0,3.0;"/><path d="M573.7107,484.617 L576.8831,482.3346 L575.5803,478.65 L582.1042,483.9705 L573.7107,484.617 " fill="#000000" style="stroke:#000000;stroke-width:1.0;"/><ellipse cx="425" cy="427.5" fill="#000000" rx="3" ry="3" style="stroke:#000000;stroke-width:1.0;"/><path d="M425,447.5 L438,447.5 C508.7951,447.5 494.0275,520.2749 556,554.5 C559.3536,556.3521 562.8021,558.1218 566.3223,559.8125 " fill="none" style="stroke:#000000;stroke-width:1.0;stroke-dasharray:3.0,3.0;"/><path d="M565.0604,562.5533 L568.3779,560.7589 L567.5842,557.0718 L573.1742,562.9672 L565.0604,562.5533 " fill="#000000" style="stroke:#000000;stroke-width:1.0;"/><ellipse cx="425" cy="447.5" fill="#000000" rx="3" ry="3" style="stroke:#000000;stroke-width:1.0;"/><path d="M425,468.5 L438,468.5 C528.1565,468.5 482.1702,581.7568 556,633.5 C558.2975,635.1102 560.6596,636.654 563.0764,638.1344 " fill="none" style="stroke:#000000;stroke-width:1.0;stroke-dasharray:3.0,3.0;"/><path d="M561.5676,640.7417 L565.0319,639.2659 L564.5852,635.527 L569.5948,641.9063 L561.5676,640.7417 " fill="#000000" style="stroke:#000000;stroke-width:1.0;"/><ellipse cx="425" cy="468.5" fill="#000000" rx="3" ry="3" style="stroke:#000000;stroke-width:1.0;"/><path d="M425,488.5 L438,488.5 C550.5243,488.5 468.4532,641.8085 556,712.5 C557.7425,713.907 559.5327,715.2634 561.365,716.5709 " fill="none" style="stroke:#000000;stroke-width:1.0;stroke-dasharray:3.0,3.0;"/><path d="M559.6611,719.1247 L563.2803,717.8488 L563.0689,714.0171 L567.7495,720.8306 L559.6611,719.1247 " fill="#000000" style="stroke:#000000;stroke-width:1.0;"/><ellipse cx="425" cy="488.5" fill="#000000" rx="3" ry="3" style="stroke:#000000;stroke-width:1.0;"/><path d="M281,336.5 L294,336.5 C337.8518,336.5 383.0003,364.993 406.8339,382.7089 " fill="none" style="stroke:#000000;stroke-width:1.0;stroke-dasharray:3.0,3.0;"/><path d="M404.9625,385.1642 L408.6753,384.1124 L408.7052,380.2536 L412.9721,387.3873 L404.9625,385.1642 " fill="#000000" style="stroke:#000000;stroke-width:1.0;"/><ellipse cx="281" cy="336.5" fill="#000000" rx="3" ry="3" style="stroke:#000000;stroke-width:1.0;"/><!--MD5=[a2201c84bcc1ff1582c3a147c8c8e221]
@startjson
{
    "field1": "CountryRegionCode",
    "combination": "CountryRegionCode",
    "null_distribution": {
        "total_null_rows": 0,
        "total_not_null_rows": 238
    },
    "data_distribution": [
        {
            "field_value": "AR",
            "row_count": 1,
            "ratio_percent": 0.42016806722689076
        },
        {
            "field_value": "AQ",
            "row_count": 1,
            "ratio_percent": 0.42016806722689076
        },
        {
            "field_value": "AO",
            "row_count": 1,
            "ratio_percent": 0.42016806722689076
        },
        {
            "field_value": "AN",
            "row_count": 1,
            "ratio_percent": 0.42016806722689076
        },
        {
            "field_value": "AM",
            "row_count": 1,
            "ratio_percent": 0.42016806722689076
        },
        {
            "field_value": "AL",
            "row_count": 1,
            "ratio_percent": 0.42016806722689076
        },
        {
            "field_value": "AI",
            "row_count": 1,
            "ratio_percent": 0.42016806722689076
        },
        {
            "field_value": "AG",
            "row_count": 1,
            "ratio_percent": 0.42016806722689076
        },
        {
            "field_value": "AF",
            "row_count": 1,
            "ratio_percent": 0.42016806722689076
        },
        {
            "field_value": "AE",
            "row_count": 1,
            "ratio_percent": 0.42016806722689076
        }
    ]
}
@endjson

PlantUML version 1.2022.5(Sat Apr 30 06:55:52 EDT 2022)
(GPL source distribution)
Java Runtime: OpenJDK Runtime Environment
JVM: OpenJDK 64-Bit Server VM
Default Encoding: UTF-8
Language: en
Country: CA
--></g></svg>