<?xml version="1.0" encoding="UTF-8" standalone="no"?><svg xmlns="http://www.w3.org/2000/svg" xmlns:xlink="http://www.w3.org/1999/xlink" contentStyleType="text/css" height="794px" preserveAspectRatio="none" style="width:656px;height:794px;background:#FFFFFF;" version="1.1" viewBox="0 0 656 794" width="656px" zoomAndPan="magnify"><defs/><g><rect fill="#F1F1F1" height="81.9531" rx="5" ry="5" style="stroke:#F1F1F1;stroke-width:1.5;" width="244" x="10" y="264.5"/><text fill="#000000" font-family="sans-serif" font-size="14" font-weight="bold" lengthAdjust="spacing" textLength="42" x="15" y="280.0352">field1</text><text fill="#000000" font-family="sans-serif" font-size="14" lengthAdjust="spacing" textLength="100" x="149" y="280.0352">ContactTypeID</text><line style="stroke:#000000;stroke-width:1.0;" x1="144" x2="144" y1="264.5" y2="284.9883"/><line style="stroke:#000000;stroke-width:1.0;" x1="10" x2="254" y1="284.9883" y2="284.9883"/><text fill="#000000" font-family="sans-serif" font-size="14" font-weight="bold" lengthAdjust="spacing" textLength="90" x="15" y="300.5234">combination</text><text fill="#000000" font-family="sans-serif" font-size="14" lengthAdjust="spacing" textLength="100" x="149" y="300.5234">ContactTypeID</text><line style="stroke:#000000;stroke-width:1.0;" x1="144" x2="144" y1="284.9883" y2="305.4766"/><line style="stroke:#000000;stroke-width:1.0;" x1="10" x2="254" y1="305.4766" y2="305.4766"/><text fill="#000000" font-family="sans-serif" font-size="14" font-weight="bold" lengthAdjust="spacing" textLength="121" x="15" y="321.0117">null_distribution</text><text fill="#000000" font-family="sans-serif" font-size="14" lengthAdjust="spacing" textLength="12" x="149" y="321.0117">   </text><line style="stroke:#000000;stroke-width:1.0;" x1="144" x2="144" y1="305.4766" y2="325.9648"/><line style="stroke:#000000;stroke-width:1.0;" x1="10" x2="254" y1="325.9648" y2="325.9648"/><text fill="#000000" font-family="sans-serif" font-size="14" font-weight="bold" lengthAdjust="spacing" textLength="124" x="15" y="341.5">data_distribution</text><text fill="#000000" font-family="sans-serif" font-size="14" lengthAdjust="spacing" textLength="12" x="149" y="341.5">   </text><line style="stroke:#000000;stroke-width:1.0;" x1="144" x2="144" y1="325.9648" y2="346.4531"/><rect fill="none" height="81.9531" rx="5" ry="5" style="stroke:#000000;stroke-width:1.5;" width="244" x="10" y="264.5"/><rect fill="#F1F1F1" height="40.9766" rx="5" ry="5" style="stroke:#F1F1F1;stroke-width:1.5;" width="180" x="291" y="235"/><text fill="#000000" font-family="sans-serif" font-size="14" font-weight="bold" lengthAdjust="spacing" textLength="111" x="296" y="250.5352">total_null_rows</text><text fill="#000000" font-family="sans-serif" font-size="14" lengthAdjust="spacing" textLength="9" x="448" y="250.5352">0</text><line style="stroke:#000000;stroke-width:1.0;" x1="443" x2="443" y1="235" y2="255.4883"/><line style="stroke:#000000;stroke-width:1.0;" x1="291" x2="471" y1="255.4883" y2="255.4883"/><text fill="#000000" font-family="sans-serif" font-size="14" font-weight="bold" lengthAdjust="spacing" textLength="142" x="296" y="271.0234">total_not_null_rows</text><text fill="#000000" font-family="sans-serif" font-size="14" lengthAdjust="spacing" textLength="18" x="448" y="271.0234">20</text><line style="stroke:#000000;stroke-width:1.0;" x1="443" x2="443" y1="255.4883" y2="275.9766"/><rect fill="none" height="40.9766" rx="5" ry="5" style="stroke:#000000;stroke-width:1.5;" width="180" x="291" y="235"/><rect fill="#F1F1F1" height="204.8828" rx="5" ry="5" style="stroke:#F1F1F1;stroke-width:1.5;" width="22" x="369" y="294"/><text fill="#000000" font-family="sans-serif" font-size="14" lengthAdjust="spacing" textLength="12" x="374" y="309.5352">   </text><line style="stroke:#000000;stroke-width:1.0;" x1="369" x2="391" y1="314.4883" y2="314.4883"/><text fill="#000000" font-family="sans-serif" font-size="14" lengthAdjust="spacing" textLength="12" x="374" y="330.0234">   </text><line style="stroke:#000000;stroke-width:1.0;" x1="369" x2="391" y1="334.9766" y2="334.9766"/><text fill="#000000" font-family="sans-serif" font-size="14" lengthAdjust="spacing" textLength="12" x="374" y="350.5117">   </text><line style="stroke:#000000;stroke-width:1.0;" x1="369" x2="391" y1="355.4648" y2="355.4648"/><text fill="#000000" font-family="sans-serif" font-size="14" lengthAdjust="spacing" textLength="12" x="374" y="371">   </text><line style="stroke:#000000;stroke-width:1.0;" x1="369" x2="391" y1="375.9531" y2="375.9531"/><text fill="#000000" font-family="sans-serif" font-size="14" lengthAdjust="spacing" textLength="12" x="374" y="391.4883">   </text><line style="stroke:#000000;stroke-width:1.0;" x1="369" x2="391" y1="396.4414" y2="396.4414"/><text fill="#000000" font-family="sans-serif" font-size="14" lengthAdjust="spacing" textLength="12" x="374" y="411.9766">   </text><line style="stroke:#000000;stroke-width:1.0;" x1="369" x2="391" y1="416.9297" y2="416.9297"/><text fill="#000000" font-family="sans-serif" font-size="14" lengthAdjust="spacing" textLength="12" x="374" y="432.4648">   </text><line style="stroke:#000000;stroke-width:1.0;" x1="369" x2="391" y1="437.418" y2="437.418"/><text fill="#000000" font-family="sans-serif" font-size="14" lengthAdjust="spacing" textLength="12" x="374" y="452.9531">   </text><line style="stroke:#000000;stroke-width:1.0;" x1="369" x2="391" y1="457.9063" y2="457.9063"/><text fill="#000000" font-family="sans-serif" font-size="14" lengthAdjust="spacing" textLength="12" x="374" y="473.4414">   </text><line style="stroke:#000000;stroke-width:1.0;" x1="369" x2="391" y1="478.3945" y2="478.3945"/><text fill="#000000" font-family="sans-serif" font-size="14" lengthAdjust="spacing" textLength="12" x="374" y="493.9297">   </text><rect fill="none" height="204.8828" rx="5" ry="5" style="stroke:#000000;stroke-width:1.5;" width="22" x="369" y="294"/><rect fill="#F1F1F1" height="61.4648" rx="5" ry="5" style="stroke:#F1F1F1;stroke-width:1.5;" width="136" x="508" y="10"/><text fill="#000000" font-family="sans-serif" font-size="14" font-weight="bold" lengthAdjust="spacing" textLength="78" x="513" y="25.5352">field_value</text><text fill="#000000" font-family="sans-serif" font-size="14" lengthAdjust="spacing" textLength="18" x="617" y="25.5352">19</text><line style="stroke:#000000;stroke-width:1.0;" x1="612" x2="612" y1="10" y2="30.4883"/><line style="stroke:#000000;stroke-width:1.0;" x1="508" x2="644" y1="30.4883" y2="30.4883"/><text fill="#000000" font-family="sans-serif" font-size="14" font-weight="bold" lengthAdjust="spacing" textLength="74" x="513" y="46.0234">row_count</text><text fill="#000000" font-family="sans-serif" font-size="14" lengthAdjust="spacing" textLength="9" x="617" y="46.0234">1</text><line style="stroke:#000000;stroke-width:1.0;" x1="612" x2="612" y1="30.4883" y2="50.9766"/><line style="stroke:#000000;stroke-width:1.0;" x1="508" x2="644" y1="50.9766" y2="50.9766"/><text fill="#000000" font-family="sans-serif" font-size="14" font-weight="bold" lengthAdjust="spacing" textLength="94" x="513" y="66.5117">ratio_percent</text><text fill="#000000" font-family="sans-serif" font-size="14" lengthAdjust="spacing" textLength="22" x="617" y="66.5117">5.0</text><line style="stroke:#000000;stroke-width:1.0;" x1="612" x2="612" y1="50.9766" y2="71.4648"/><rect fill="none" height="61.4648" rx="5" ry="5" style="stroke:#000000;stroke-width:1.5;" width="136" x="508" y="10"/><rect fill="#F1F1F1" height="61.4648" rx="5" ry="5" style="stroke:#F1F1F1;stroke-width:1.5;" width="136" x="508" y="89"/><text fill="#000000" font-family="sans-serif" font-size="14" font-weight="bold" lengthAdjust="spacing" textLength="78" x="513" y="104.5352">field_value</text><text fill="#000000" font-family="sans-serif" font-size="14" lengthAdjust="spacing" textLength="18" x="617" y="104.5352">18</text><line style="stroke:#000000;stroke-width:1.0;" x1="612" x2="612" y1="89" y2="109.4883"/><line style="stroke:#000000;stroke-width:1.0;" x1="508" x2="644" y1="109.4883" y2="109.4883"/><text fill="#000000" font-family="sans-serif" font-size="14" font-weight="bold" lengthAdjust="spacing" textLength="74" x="513" y="125.0234">row_count</text><text fill="#000000" font-family="sans-serif" font-size="14" lengthAdjust="spacing" textLength="9" x="617" y="125.0234">1</text><line style="stroke:#000000;stroke-width:1.0;" x1="612" x2="612" y1="109.4883" y2="129.9766"/><line style="stroke:#000000;stroke-width:1.0;" x1="508" x2="644" y1="129.9766" y2="129.9766"/><text fill="#000000" font-family="sans-serif" font-size="14" font-weight="bold" lengthAdjust="spacing" textLength="94" x="513" y="145.5117">ratio_percent</text><text fill="#000000" font-family="sans-serif" font-size="14" lengthAdjust="spacing" textLength="22" x="617" y="145.5117">5.0</text><line style="stroke:#000000;stroke-width:1.0;" x1="612" x2="612" y1="129.9766" y2="150.4648"/><rect fill="none" height="61.4648" rx="5" ry="5" style="stroke:#000000;stroke-width:1.5;" width="136" x="508" y="89"/><rect fill="#F1F1F1" height="61.4648" rx="5" ry="5" style="stroke:#F1F1F1;stroke-width:1.5;" width="136" x="508" y="168"/><text fill="#000000" font-family="sans-serif" font-size="14" font-weight="bold" lengthAdjust="spacing" textLength="78" x="513" y="183.5352">field_value</text><text fill="#000000" font-family="sans-serif" font-size="14" lengthAdjust="spacing" textLength="18" x="617" y="183.5352">17</text><line style="stroke:#000000;stroke-width:1.0;" x1="612" x2="612" y1="168" y2="188.4883"/><line style="stroke:#000000;stroke-width:1.0;" x1="508" x2="644" y1="188.4883" y2="188.4883"/><text fill="#000000" font-family="sans-serif" font-size="14" font-weight="bold" lengthAdjust="spacing" textLength="74" x="513" y="204.0234">row_count</text><text fill="#000000" font-family="sans-serif" font-size="14" lengthAdjust="spacing" textLength="9" x="617" y="204.0234">1</text><line style="stroke:#000000;stroke-width:1.0;" x1="612" x2="612" y1="188.4883" y2="208.9766"/><line style="stroke:#000000;stroke-width:1.0;" x1="508" x2="644" y1="208.9766" y2="208.9766"/><text fill="#000000" font-family="sans-serif" font-size="14" font-weight="bold" lengthAdjust="spacing" textLength="94" x="513" y="224.5117">ratio_percent</text><text fill="#000000" font-family="sans-serif" font-size="14" lengthAdjust="spacing" textLength="22" x="617" y="224.5117">5.0</text><line style="stroke:#000000;stroke-width:1.0;" x1="612" x2="612" y1="208.9766" y2="229.4648"/><rect fill="none" height="61.4648" rx="5" ry="5" style="stroke:#000000;stroke-width:1.5;" width="136" x="508" y="168"/><rect fill="#F1F1F1" height="61.4648" rx="5" ry="5" style="stroke:#F1F1F1;stroke-width:1.5;" width="136" x="508" y="247"/><text fill="#000000" font-family="sans-serif" font-size="14" font-weight="bold" lengthAdjust="spacing" textLength="78" x="513" y="262.5352">field_value</text><text fill="#000000" font-family="sans-serif" font-size="14" lengthAdjust="spacing" textLength="18" x="617" y="262.5352">16</text><line style="stroke:#000000;stroke-width:1.0;" x1="612" x2="612" y1="247" y2="267.4883"/><line style="stroke:#000000;stroke-width:1.0;" x1="508" x2="644" y1="267.4883" y2="267.4883"/><text fill="#000000" font-family="sans-serif" font-size="14" font-weight="bold" lengthAdjust="spacing" textLength="74" x="513" y="283.0234">row_count</text><text fill="#000000" font-family="sans-serif" font-size="14" lengthAdjust="spacing" textLength="9" x="617" y="283.0234">1</text><line style="stroke:#000000;stroke-width:1.0;" x1="612" x2="612" y1="267.4883" y2="287.9766"/><line style="stroke:#000000;stroke-width:1.0;" x1="508" x2="644" y1="287.9766" y2="287.9766"/><text fill="#000000" font-family="sans-serif" font-size="14" font-weight="bold" lengthAdjust="spacing" textLength="94" x="513" y="303.5117">ratio_percent</text><text fill="#000000" font-family="sans-serif" font-size="14" lengthAdjust="spacing" textLength="22" x="617" y="303.5117">5.0</text><line style="stroke:#000000;stroke-width:1.0;" x1="612" x2="612" y1="287.9766" y2="308.4648"/><rect fill="none" height="61.4648" rx="5" ry="5" style="stroke:#000000;stroke-width:1.5;" width="136" x="508" y="247"/><rect fill="#F1F1F1" height="61.4648" rx="5" ry="5" style="stroke:#F1F1F1;stroke-width:1.5;" width="136" x="508" y="326"/><text fill="#000000" font-family="sans-serif" font-size="14" font-weight="bold" lengthAdjust="spacing" textLength="78" x="513" y="341.5352">field_value</text><text fill="#000000" font-family="sans-serif" font-size="14" lengthAdjust="spacing" textLength="18" x="617" y="341.5352">15</text><line style="stroke:#000000;stroke-width:1.0;" x1="612" x2="612" y1="326" y2="346.4883"/><line style="stroke:#000000;stroke-width:1.0;" x1="508" x2="644" y1="346.4883" y2="346.4883"/><text fill="#000000" font-family="sans-serif" font-size="14" font-weight="bold" lengthAdjust="spacing" textLength="74" x="513" y="362.0234">row_count</text><text fill="#000000" font-family="sans-serif" font-size="14" lengthAdjust="spacing" textLength="9" x="617" y="362.0234">1</text><line style="stroke:#000000;stroke-width:1.0;" x1="612" x2="612" y1="346.4883" y2="366.9766"/><line style="stroke:#000000;stroke-width:1.0;" x1="508" x2="644" y1="366.9766" y2="366.9766"/><text fill="#000000" font-family="sans-serif" font-size="14" font-weight="bold" lengthAdjust="spacing" textLength="94" x="513" y="382.5117">ratio_percent</text><text fill="#000000" font-family="sans-serif" font-size="14" lengthAdjust="spacing" textLength="22" x="617" y="382.5117">5.0</text><line style="stroke:#000000;stroke-width:1.0;" x1="612" x2="612" y1="366.9766" y2="387.4648"/><rect fill="none" height="61.4648" rx="5" ry="5" style="stroke:#000000;stroke-width:1.5;" width="136" x="508" y="326"/><rect fill="#F1F1F1" height="61.4648" rx="5" ry="5" style="stroke:#F1F1F1;stroke-width:1.5;" width="136" x="508" y="405"/><text fill="#000000" font-family="sans-serif" font-size="14" font-weight="bold" lengthAdjust="spacing" textLength="78" x="513" y="420.5352">field_value</text><text fill="#000000" font-family="sans-serif" font-size="14" lengthAdjust="spacing" textLength="18" x="617" y="420.5352">14</text><line style="stroke:#000000;stroke-width:1.0;" x1="612" x2="612" y1="405" y2="425.4883"/><line style="stroke:#000000;stroke-width:1.0;" x1="508" x2="644" y1="425.4883" y2="425.4883"/><text fill="#000000" font-family="sans-serif" font-size="14" font-weight="bold" lengthAdjust="spacing" textLength="74" x="513" y="441.0234">row_count</text><text fill="#000000" font-family="sans-serif" font-size="14" lengthAdjust="spacing" textLength="9" x="617" y="441.0234">1</text><line style="stroke:#000000;stroke-width:1.0;" x1="612" x2="612" y1="425.4883" y2="445.9766"/><line style="stroke:#000000;stroke-width:1.0;" x1="508" x2="644" y1="445.9766" y2="445.9766"/><text fill="#000000" font-family="sans-serif" font-size="14" font-weight="bold" lengthAdjust="spacing" textLength="94" x="513" y="461.5117">ratio_percent</text><text fill="#000000" font-family="sans-serif" font-size="14" lengthAdjust="spacing" textLength="22" x="617" y="461.5117">5.0</text><line style="stroke:#000000;stroke-width:1.0;" x1="612" x2="612" y1="445.9766" y2="466.4648"/><rect fill="none" height="61.4648" rx="5" ry="5" style="stroke:#000000;stroke-width:1.5;" width="136" x="508" y="405"/><rect fill="#F1F1F1" height="61.4648" rx="5" ry="5" style="stroke:#F1F1F1;stroke-width:1.5;" width="136" x="508" y="484"/><text fill="#000000" font-family="sans-serif" font-size="14" font-weight="bold" lengthAdjust="spacing" textLength="78" x="513" y="499.5352">field_value</text><text fill="#000000" font-family="sans-serif" font-size="14" lengthAdjust="spacing" textLength="18" x="617" y="499.5352">13</text><line style="stroke:#000000;stroke-width:1.0;" x1="612" x2="612" y1="484" y2="504.4883"/><line style="stroke:#000000;stroke-width:1.0;" x1="508" x2="644" y1="504.4883" y2="504.4883"/><text fill="#000000" font-family="sans-serif" font-size="14" font-weight="bold" lengthAdjust="spacing" textLength="74" x="513" y="520.0234">row_count</text><text fill="#000000" font-family="sans-serif" font-size="14" lengthAdjust="spacing" textLength="9" x="617" y="520.0234">1</text><line style="stroke:#000000;stroke-width:1.0;" x1="612" x2="612" y1="504.4883" y2="524.9766"/><line style="stroke:#000000;stroke-width:1.0;" x1="508" x2="644" y1="524.9766" y2="524.9766"/><text fill="#000000" font-family="sans-serif" font-size="14" font-weight="bold" lengthAdjust="spacing" textLength="94" x="513" y="540.5117">ratio_percent</text><text fill="#000000" font-family="sans-serif" font-size="14" lengthAdjust="spacing" textLength="22" x="617" y="540.5117">5.0</text><line style="stroke:#000000;stroke-width:1.0;" x1="612" x2="612" y1="524.9766" y2="545.4648"/><rect fill="none" height="61.4648" rx="5" ry="5" style="stroke:#000000;stroke-width:1.5;" width="136" x="508" y="484"/><rect fill="#F1F1F1" height="61.4648" rx="5" ry="5" style="stroke:#F1F1F1;stroke-width:1.5;" width="136" x="508" y="563"/><text fill="#000000" font-family="sans-serif" font-size="14" font-weight="bold" lengthAdjust="spacing" textLength="78" x="513" y="578.5352">field_value</text><text fill="#000000" font-family="sans-serif" font-size="14" lengthAdjust="spacing" textLength="18" x="617" y="578.5352">12</text><line style="stroke:#000000;stroke-width:1.0;" x1="612" x2="612" y1="563" y2="583.4883"/><line style="stroke:#000000;stroke-width:1.0;" x1="508" x2="644" y1="583.4883" y2="583.4883"/><text fill="#000000" font-family="sans-serif" font-size="14" font-weight="bold" lengthAdjust="spacing" textLength="74" x="513" y="599.0234">row_count</text><text fill="#000000" font-family="sans-serif" font-size="14" lengthAdjust="spacing" textLength="9" x="617" y="599.0234">1</text><line style="stroke:#000000;stroke-width:1.0;" x1="612" x2="612" y1="583.4883" y2="603.9766"/><line style="stroke:#000000;stroke-width:1.0;" x1="508" x2="644" y1="603.9766" y2="603.9766"/><text fill="#000000" font-family="sans-serif" font-size="14" font-weight="bold" lengthAdjust="spacing" textLength="94" x="513" y="619.5117">ratio_percent</text><text fill="#000000" font-family="sans-serif" font-size="14" lengthAdjust="spacing" textLength="22" x="617" y="619.5117">5.0</text><line style="stroke:#000000;stroke-width:1.0;" x1="612" x2="612" y1="603.9766" y2="624.4648"/><rect fill="none" height="61.4648" rx="5" ry="5" style="stroke:#000000;stroke-width:1.5;" width="136" x="508" y="563"/><rect fill="#F1F1F1" height="61.4648" rx="5" ry="5" style="stroke:#F1F1F1;stroke-width:1.5;" width="136" x="508" y="642"/><text fill="#000000" font-family="sans-serif" font-size="14" font-weight="bold" lengthAdjust="spacing" textLength="78" x="513" y="657.5352">field_value</text><text fill="#000000" font-family="sans-serif" font-size="14" lengthAdjust="spacing" textLength="18" x="617" y="657.5352">11</text><line style="stroke:#000000;stroke-width:1.0;" x1="612" x2="612" y1="642" y2="662.4883"/><line style="stroke:#000000;stroke-width:1.0;" x1="508" x2="644" y1="662.4883" y2="662.4883"/><text fill="#000000" font-family="sans-serif" font-size="14" font-weight="bold" lengthAdjust="spacing" textLength="74" x="513" y="678.0234">row_count</text><text fill="#000000" font-family="sans-serif" font-size="14" lengthAdjust="spacing" textLength="9" x="617" y="678.0234">1</text><line style="stroke:#000000;stroke-width:1.0;" x1="612" x2="612" y1="662.4883" y2="682.9766"/><line style="stroke:#000000;stroke-width:1.0;" x1="508" x2="644" y1="682.9766" y2="682.9766"/><text fill="#000000" font-family="sans-serif" font-size="14" font-weight="bold" lengthAdjust="spacing" textLength="94" x="513" y="698.5117">ratio_percent</text><text fill="#000000" font-family="sans-serif" font-size="14" lengthAdjust="spacing" textLength="22" x="617" y="698.5117">5.0</text><line style="stroke:#000000;stroke-width:1.0;" x1="612" x2="612" y1="682.9766" y2="703.4648"/><rect fill="none" height="61.4648" rx="5" ry="5" style="stroke:#000000;stroke-width:1.5;" width="136" x="508" y="642"/><rect fill="#F1F1F1" height="61.4648" rx="5" ry="5" style="stroke:#F1F1F1;stroke-width:1.5;" width="136" x="508" y="721"/><text fill="#000000" font-family="sans-serif" font-size="14" font-weight="bold" lengthAdjust="spacing" textLength="78" x="513" y="736.5352">field_value</text><text fill="#000000" font-family="sans-serif" font-size="14" lengthAdjust="spacing" textLength="18" x="617" y="736.5352">10</text><line style="stroke:#000000;stroke-width:1.0;" x1="612" x2="612" y1="721" y2="741.4883"/><line style="stroke:#000000;stroke-width:1.0;" x1="508" x2="644" y1="741.4883" y2="741.4883"/><text fill="#000000" font-family="sans-serif" font-size="14" font-weight="bold" lengthAdjust="spacing" textLength="74" x="513" y="757.0234">row_count</text><text fill="#000000" font-family="sans-serif" font-size="14" lengthAdjust="spacing" textLength="9" x="617" y="757.0234">1</text><line style="stroke:#000000;stroke-width:1.0;" x1="612" x2="612" y1="741.4883" y2="761.9766"/><line style="stroke:#000000;stroke-width:1.0;" x1="508" x2="644" y1="761.9766" y2="761.9766"/><text fill="#000000" font-family="sans-serif" font-size="14" font-weight="bold" lengthAdjust="spacing" textLength="94" x="513" y="777.5117">ratio_percent</text><text fill="#000000" font-family="sans-serif" font-size="14" lengthAdjust="spacing" textLength="22" x="617" y="777.5117">5.0</text><line style="stroke:#000000;stroke-width:1.0;" x1="612" x2="612" y1="761.9766" y2="782.4648"/><rect fill="none" height="61.4648" rx="5" ry="5" style="stroke:#000000;stroke-width:1.5;" width="136" x="508" y="721"/><path d="M242,315.5 L255,315.5 C275.8273,315.5 272.8137,295.6507 291,285.5 C295.038,283.2462 299.2733,281.1247 303.6133,279.1338 " fill="none" style="stroke:#000000;stroke-width:1.0;stroke-dasharray:3.0,3.0;"/><path d="M304.8219,281.8909 L305.6812,278.2274 L302.4048,276.3766 L310.5062,276.1124 L304.8219,281.8909 " fill="#000000" style="stroke:#000000;stroke-width:1.0;"/><ellipse cx="242" cy="315.5" fill="#000000" rx="3" ry="3" style="stroke:#000000;stroke-width:1.0;"/><path d="M381.5,305.5 L381.5,292.5 C381.5,282.4144 464.5351,292.2819 472,285.5 C540.7926,223.002 454.7602,155.6836 508,79.5 C508.6541,78.564 509.3385,77.6473 510.0503,76.7497 " fill="none" style="stroke:#000000;stroke-width:1.0;stroke-dasharray:3.0,3.0;"/><path d="M512.3103,78.7772 L511.5709,75.0547 L507.7903,74.7222 L515.119,71.0997 L512.3103,78.7772 " fill="#000000" style="stroke:#000000;stroke-width:1.0;"/><ellipse cx="381.5" cy="305.5" fill="#000000" rx="3" ry="3" style="stroke:#000000;stroke-width:1.0;"/><path d="M381.5,324.5 L394.5,324.5 C433.0599,324.5 447.4435,315.2295 472,285.5 C509.3625,240.267 471.9578,204.7918 508,158.5 C508.8003,157.4721 509.6358,156.4664 510.5028,155.4827 " fill="none" style="stroke:#000000;stroke-width:1.0;stroke-dasharray:3.0,3.0;"/><path d="M512.6611,157.5959 L512.0877,153.864 L508.3445,153.3695 L515.7858,150.087 L512.6611,157.5959 " fill="#000000" style="stroke:#000000;stroke-width:1.0;"/><ellipse cx="381.5" cy="324.5" fill="#000000" rx="3" ry="3" style="stroke:#000000;stroke-width:1.0;"/><path d="M381.5,344.5 L394.5,344.5 C437.79,344.5 441.4995,316.2205 472,285.5 C490.7883,266.5762 488.0508,255.1957 508,237.5 C509.4175,236.2426 510.8818,235.0062 512.3836,233.7921 " fill="none" style="stroke:#000000;stroke-width:1.0;stroke-dasharray:3.0,3.0;"/><path d="M514.2112,236.1755 L514.1712,232.4214 L510.556,231.4086 L518.3422,229.2231 L514.2112,236.1755 " fill="#000000" style="stroke:#000000;stroke-width:1.0;"/><ellipse cx="381.5" cy="344.5" fill="#000000" rx="3" ry="3" style="stroke:#000000;stroke-width:1.0;"/><path d="M381.5,365.5 L394.5,365.5 C407.3632,365.5 465.3181,336.3821 512.2326,311.6451 " fill="none" style="stroke:#000000;stroke-width:1.0;stroke-dasharray:3.0,3.0;"/><path d="M513.6782,314.3791 L514.2831,310.5609 L510.787,308.9111 L519.0676,308.0312 L513.6782,314.3791 " fill="#000000" style="stroke:#000000;stroke-width:1.0;"/><ellipse cx="381.5" cy="365.5" fill="#000000" rx="3" ry="3" style="stroke:#000000;stroke-width:1.0;"/><path d="M381.5,385.5 L394.5,385.5 C429.7076,385.5 468.2878,380.0841 500.7505,373.9333 " fill="none" style="stroke:#000000;stroke-width:1.0;stroke-dasharray:3.0,3.0;"/><path d="M501.3469,377.0071 L503.0559,373.486 L500.1541,370.8594 L508.4351,372.4422 L501.3469,377.0071 " fill="#000000" style="stroke:#000000;stroke-width:1.0;"/><ellipse cx="381.5" cy="385.5" fill="#000000" rx="3" ry="3" style="stroke:#000000;stroke-width:1.0;"/><path d="M381.5,406.5 L394.5,406.5 C429.7076,406.5 468.2878,411.9159 500.7505,418.0667 " fill="none" style="stroke:#000000;stroke-width:1.0;stroke-dasharray:3.0,3.0;"/><path d="M500.1541,421.1406 L503.0559,418.514 L501.3469,414.9929 L508.4351,419.5578 L500.1541,421.1406 " fill="#000000" style="stroke:#000000;stroke-width:1.0;"/><ellipse cx="381.5" cy="406.5" fill="#000000" rx="3" ry="3" style="stroke:#000000;stroke-width:1.0;"/><path d="M381.5,427.5 L394.5,427.5 C407.2523,427.5 464.5461,455.9155 511.305,480.2675 " fill="none" style="stroke:#000000;stroke-width:1.0;stroke-dasharray:3.0,3.0;"/><path d="M509.8812,482.9938 L513.3498,481.3354 L512.7288,477.5411 L518.1209,483.8271 L509.8812,482.9938 " fill="#000000" style="stroke:#000000;stroke-width:1.0;"/><ellipse cx="381.5" cy="427.5" fill="#000000" rx="3" ry="3" style="stroke:#000000;stroke-width:1.0;"/><path d="M381.5,447.5 L394.5,447.5 C463.8266,447.5 452.3903,513.1027 508,554.5 C509.7811,555.8259 511.6112,557.142 513.4766,558.4442 " fill="none" style="stroke:#000000;stroke-width:1.0;stroke-dasharray:3.0,3.0;"/><path d="M511.7296,561.0277 L515.4142,559.7545 L515.2236,555.8607 L519.9354,562.8117 L511.7296,561.0277 " fill="#000000" style="stroke:#000000;stroke-width:1.0;"/><ellipse cx="381.5" cy="447.5" fill="#000000" rx="3" ry="3" style="stroke:#000000;stroke-width:1.0;"/><path d="M381.5,468.5 L394.5,468.5 C483.508,468.5 442.6369,573.0841 508,633.5 C509.3914,634.7861 510.8326,636.0482 512.3138,637.285 " fill="none" style="stroke:#000000;stroke-width:1.0;stroke-dasharray:3.0,3.0;"/><path d="M510.4566,639.6417 L514.0813,638.6779 L514.1709,634.9284 L518.2054,641.9279 L510.4566,639.6417 " fill="#000000" style="stroke:#000000;stroke-width:1.0;"/><ellipse cx="381.5" cy="468.5" fill="#000000" rx="3" ry="3" style="stroke:#000000;stroke-width:1.0;"/><path d="M381.5,487.5 L381.5,500.5 C381.5,610.2213 429.8715,635.463 508,712.5 C509.2137,713.6967 510.4713,714.8701 511.7656,716.0195 " fill="none" style="stroke:#000000;stroke-width:1.0;stroke-dasharray:3.0,3.0;"/><path d="M509.8119,718.3745 L513.5318,717.4848 L513.7193,713.6645 L517.6531,720.9038 L509.8119,718.3745 " fill="#000000" style="stroke:#000000;stroke-width:1.0;"/><ellipse cx="381.5" cy="487.5" fill="#000000" rx="3" ry="3" style="stroke:#000000;stroke-width:1.0;"/><path d="M242,336.5 L255,336.5 C297.1629,336.5 340.1866,364.4055 363.2874,382.1547 " fill="none" style="stroke:#000000;stroke-width:1.0;stroke-dasharray:3.0,3.0;"/><path d="M361.4053,384.5427 L365.0784,383.5663 L365.1695,379.7667 L369.2574,386.86 L361.4053,384.5427 " fill="#000000" style="stroke:#000000;stroke-width:1.0;"/><ellipse cx="242" cy="336.5" fill="#000000" rx="3" ry="3" style="stroke:#000000;stroke-width:1.0;"/><!--MD5=[acf16f75c5d68152b555354201b6b4eb]
@startjson
{
    "field1": "ContactTypeID",
    "combination": "ContactTypeID",
    "null_distribution": {
        "total_null_rows": 0,
        "total_not_null_rows": 20
    },
    "data_distribution": [
        {
            "field_value": "19",
            "row_count": 1,
            "ratio_percent": 5.0
        },
        {
            "field_value": "18",
            "row_count": 1,
            "ratio_percent": 5.0
        },
        {
            "field_value": "17",
            "row_count": 1,
            "ratio_percent": 5.0
        },
        {
            "field_value": "16",
            "row_count": 1,
            "ratio_percent": 5.0
        },
        {
            "field_value": "15",
            "row_count": 1,
            "ratio_percent": 5.0
        },
        {
            "field_value": "14",
            "row_count": 1,
            "ratio_percent": 5.0
        },
        {
            "field_value": "13",
            "row_count": 1,
            "ratio_percent": 5.0
        },
        {
            "field_value": "12",
            "row_count": 1,
            "ratio_percent": 5.0
        },
        {
            "field_value": "11",
            "row_count": 1,
            "ratio_percent": 5.0
        },
        {
            "field_value": "10",
            "row_count": 1,
            "ratio_percent": 5.0
        }
    ]
}
@endjson

PlantUML version 1.2022.5(Sat Apr 30 06:55:52 EDT 2022)
(GPL source distribution)
Java Runtime: OpenJDK Runtime Environment
JVM: OpenJDK 64-Bit Server VM
Default Encoding: UTF-8
Language: en
Country: CA
--></g></svg>