<?xml version="1.0" encoding="UTF-8" standalone="no"?><svg xmlns="http://www.w3.org/2000/svg" xmlns:xlink="http://www.w3.org/1999/xlink" contentStyleType="text/css" height="478px" preserveAspectRatio="none" style="width:721px;height:478px;background:#FFFFFF;" version="1.1" viewBox="0 0 721 478" width="721px" zoomAndPan="magnify"><defs/><g><rect fill="#F1F1F1" height="81.9531" rx="5" ry="5" style="stroke:#F1F1F1;stroke-width:1.5;" width="183" x="10" y="126.5"/><text fill="#000000" font-family="sans-serif" font-size="14" font-weight="bold" lengthAdjust="spacing" textLength="42" x="15" y="142.0352">field1</text><text fill="#000000" font-family="sans-serif" font-size="14" lengthAdjust="spacing" textLength="39" x="149" y="142.0352">Name</text><line style="stroke:#000000;stroke-width:1.0;" x1="144" x2="144" y1="126.5" y2="146.9883"/><line style="stroke:#000000;stroke-width:1.0;" x1="10" x2="193" y1="146.9883" y2="146.9883"/><text fill="#000000" font-family="sans-serif" font-size="14" font-weight="bold" lengthAdjust="spacing" textLength="90" x="15" y="162.5234">combination</text><text fill="#000000" font-family="sans-serif" font-size="14" lengthAdjust="spacing" textLength="39" x="149" y="162.5234">Name</text><line style="stroke:#000000;stroke-width:1.0;" x1="144" x2="144" y1="146.9883" y2="167.4766"/><line style="stroke:#000000;stroke-width:1.0;" x1="10" x2="193" y1="167.4766" y2="167.4766"/><text fill="#000000" font-family="sans-serif" font-size="14" font-weight="bold" lengthAdjust="spacing" textLength="121" x="15" y="183.0117">null_distribution</text><text fill="#000000" font-family="sans-serif" font-size="14" lengthAdjust="spacing" textLength="12" x="149" y="183.0117">   </text><line style="stroke:#000000;stroke-width:1.0;" x1="144" x2="144" y1="167.4766" y2="187.9648"/><line style="stroke:#000000;stroke-width:1.0;" x1="10" x2="193" y1="187.9648" y2="187.9648"/><text fill="#000000" font-family="sans-serif" font-size="14" font-weight="bold" lengthAdjust="spacing" textLength="124" x="15" y="203.5">data_distribution</text><text fill="#000000" font-family="sans-serif" font-size="14" lengthAdjust="spacing" textLength="12" x="149" y="203.5">   </text><line style="stroke:#000000;stroke-width:1.0;" x1="144" x2="144" y1="187.9648" y2="208.4531"/><rect fill="none" height="81.9531" rx="5" ry="5" style="stroke:#000000;stroke-width:1.5;" width="183" x="10" y="126.5"/><rect fill="#F1F1F1" height="40.9766" rx="5" ry="5" style="stroke:#F1F1F1;stroke-width:1.5;" width="171" x="230" y="118"/><text fill="#000000" font-family="sans-serif" font-size="14" font-weight="bold" lengthAdjust="spacing" textLength="111" x="235" y="133.5352">total_null_rows</text><text fill="#000000" font-family="sans-serif" font-size="14" lengthAdjust="spacing" textLength="9" x="387" y="133.5352">0</text><line style="stroke:#000000;stroke-width:1.0;" x1="382" x2="382" y1="118" y2="138.4883"/><line style="stroke:#000000;stroke-width:1.0;" x1="230" x2="401" y1="138.4883" y2="138.4883"/><text fill="#000000" font-family="sans-serif" font-size="14" font-weight="bold" lengthAdjust="spacing" textLength="142" x="235" y="154.0234">total_not_null_rows</text><text fill="#000000" font-family="sans-serif" font-size="14" lengthAdjust="spacing" textLength="9" x="387" y="154.0234">6</text><line style="stroke:#000000;stroke-width:1.0;" x1="382" x2="382" y1="138.4883" y2="158.9766"/><rect fill="none" height="40.9766" rx="5" ry="5" style="stroke:#000000;stroke-width:1.5;" width="171" x="230" y="118"/><rect fill="#F1F1F1" height="122.9297" rx="5" ry="5" style="stroke:#F1F1F1;stroke-width:1.5;" width="22" x="303.5" y="177"/><text fill="#000000" font-family="sans-serif" font-size="14" lengthAdjust="spacing" textLength="12" x="308.5" y="192.5352">   </text><line style="stroke:#000000;stroke-width:1.0;" x1="303.5" x2="325.5" y1="197.4883" y2="197.4883"/><text fill="#000000" font-family="sans-serif" font-size="14" lengthAdjust="spacing" textLength="12" x="308.5" y="213.0234">   </text><line style="stroke:#000000;stroke-width:1.0;" x1="303.5" x2="325.5" y1="217.9766" y2="217.9766"/><text fill="#000000" font-family="sans-serif" font-size="14" lengthAdjust="spacing" textLength="12" x="308.5" y="233.5117">   </text><line style="stroke:#000000;stroke-width:1.0;" x1="303.5" x2="325.5" y1="238.4648" y2="238.4648"/><text fill="#000000" font-family="sans-serif" font-size="14" lengthAdjust="spacing" textLength="12" x="308.5" y="254">   </text><line style="stroke:#000000;stroke-width:1.0;" x1="303.5" x2="325.5" y1="258.9531" y2="258.9531"/><text fill="#000000" font-family="sans-serif" font-size="14" lengthAdjust="spacing" textLength="12" x="308.5" y="274.4883">   </text><line style="stroke:#000000;stroke-width:1.0;" x1="303.5" x2="325.5" y1="279.4414" y2="279.4414"/><text fill="#000000" font-family="sans-serif" font-size="14" lengthAdjust="spacing" textLength="12" x="308.5" y="294.9766">   </text><rect fill="none" height="122.9297" rx="5" ry="5" style="stroke:#000000;stroke-width:1.5;" width="22" x="303.5" y="177"/><rect fill="#F1F1F1" height="61.4648" rx="5" ry="5" style="stroke:#F1F1F1;stroke-width:1.5;" width="271" x="438" y="10"/><text fill="#000000" font-family="sans-serif" font-size="14" font-weight="bold" lengthAdjust="spacing" textLength="78" x="443" y="25.5352">field_value</text><text fill="#000000" font-family="sans-serif" font-size="14" lengthAdjust="spacing" textLength="61" x="547" y="25.5352">Shipping</text><line style="stroke:#000000;stroke-width:1.0;" x1="542" x2="542" y1="10" y2="30.4883"/><line style="stroke:#000000;stroke-width:1.0;" x1="438" x2="709" y1="30.4883" y2="30.4883"/><text fill="#000000" font-family="sans-serif" font-size="14" font-weight="bold" lengthAdjust="spacing" textLength="74" x="443" y="46.0234">row_count</text><text fill="#000000" font-family="sans-serif" font-size="14" lengthAdjust="spacing" textLength="9" x="547" y="46.0234">1</text><line style="stroke:#000000;stroke-width:1.0;" x1="542" x2="542" y1="30.4883" y2="50.9766"/><line style="stroke:#000000;stroke-width:1.0;" x1="438" x2="709" y1="50.9766" y2="50.9766"/><text fill="#000000" font-family="sans-serif" font-size="14" font-weight="bold" lengthAdjust="spacing" textLength="94" x="443" y="66.5117">ratio_percent</text><text fill="#000000" font-family="sans-serif" font-size="14" lengthAdjust="spacing" textLength="157" x="547" y="66.5117">16.666666666666668</text><line style="stroke:#000000;stroke-width:1.0;" x1="542" x2="542" y1="50.9766" y2="71.4648"/><rect fill="none" height="61.4648" rx="5" ry="5" style="stroke:#000000;stroke-width:1.5;" width="271" x="438" y="10"/><rect fill="#F1F1F1" height="61.4648" rx="5" ry="5" style="stroke:#F1F1F1;stroke-width:1.5;" width="271" x="438" y="89"/><text fill="#000000" font-family="sans-serif" font-size="14" font-weight="bold" lengthAdjust="spacing" textLength="78" x="443" y="104.5352">field_value</text><text fill="#000000" font-family="sans-serif" font-size="14" lengthAdjust="spacing" textLength="52" x="547" y="104.5352">Primary</text><line style="stroke:#000000;stroke-width:1.0;" x1="542" x2="542" y1="89" y2="109.4883"/><line style="stroke:#000000;stroke-width:1.0;" x1="438" x2="709" y1="109.4883" y2="109.4883"/><text fill="#000000" font-family="sans-serif" font-size="14" font-weight="bold" lengthAdjust="spacing" textLength="74" x="443" y="125.0234">row_count</text><text fill="#000000" font-family="sans-serif" font-size="14" lengthAdjust="spacing" textLength="9" x="547" y="125.0234">1</text><line style="stroke:#000000;stroke-width:1.0;" x1="542" x2="542" y1="109.4883" y2="129.9766"/><line style="stroke:#000000;stroke-width:1.0;" x1="438" x2="709" y1="129.9766" y2="129.9766"/><text fill="#000000" font-family="sans-serif" font-size="14" font-weight="bold" lengthAdjust="spacing" textLength="94" x="443" y="145.5117">ratio_percent</text><text fill="#000000" font-family="sans-serif" font-size="14" lengthAdjust="spacing" textLength="157" x="547" y="145.5117">16.666666666666668</text><line style="stroke:#000000;stroke-width:1.0;" x1="542" x2="542" y1="129.9766" y2="150.4648"/><rect fill="none" height="61.4648" rx="5" ry="5" style="stroke:#000000;stroke-width:1.5;" width="271" x="438" y="89"/><rect fill="#F1F1F1" height="61.4648" rx="5" ry="5" style="stroke:#F1F1F1;stroke-width:1.5;" width="271" x="438" y="168"/><text fill="#000000" font-family="sans-serif" font-size="14" font-weight="bold" lengthAdjust="spacing" textLength="78" x="443" y="183.5352">field_value</text><text fill="#000000" font-family="sans-serif" font-size="14" lengthAdjust="spacing" textLength="77" x="547" y="183.5352">Main Office</text><line style="stroke:#000000;stroke-width:1.0;" x1="542" x2="542" y1="168" y2="188.4883"/><line style="stroke:#000000;stroke-width:1.0;" x1="438" x2="709" y1="188.4883" y2="188.4883"/><text fill="#000000" font-family="sans-serif" font-size="14" font-weight="bold" lengthAdjust="spacing" textLength="74" x="443" y="204.0234">row_count</text><text fill="#000000" font-family="sans-serif" font-size="14" lengthAdjust="spacing" textLength="9" x="547" y="204.0234">1</text><line style="stroke:#000000;stroke-width:1.0;" x1="542" x2="542" y1="188.4883" y2="208.9766"/><line style="stroke:#000000;stroke-width:1.0;" x1="438" x2="709" y1="208.9766" y2="208.9766"/><text fill="#000000" font-family="sans-serif" font-size="14" font-weight="bold" lengthAdjust="spacing" textLength="94" x="443" y="224.5117">ratio_percent</text><text fill="#000000" font-family="sans-serif" font-size="14" lengthAdjust="spacing" textLength="157" x="547" y="224.5117">16.666666666666668</text><line style="stroke:#000000;stroke-width:1.0;" x1="542" x2="542" y1="208.9766" y2="229.4648"/><rect fill="none" height="61.4648" rx="5" ry="5" style="stroke:#000000;stroke-width:1.5;" width="271" x="438" y="168"/><rect fill="#F1F1F1" height="61.4648" rx="5" ry="5" style="stroke:#F1F1F1;stroke-width:1.5;" width="271" x="438" y="247"/><text fill="#000000" font-family="sans-serif" font-size="14" font-weight="bold" lengthAdjust="spacing" textLength="78" x="443" y="262.5352">field_value</text><text fill="#000000" font-family="sans-serif" font-size="14" lengthAdjust="spacing" textLength="40" x="547" y="262.5352">Home</text><line style="stroke:#000000;stroke-width:1.0;" x1="542" x2="542" y1="247" y2="267.4883"/><line style="stroke:#000000;stroke-width:1.0;" x1="438" x2="709" y1="267.4883" y2="267.4883"/><text fill="#000000" font-family="sans-serif" font-size="14" font-weight="bold" lengthAdjust="spacing" textLength="74" x="443" y="283.0234">row_count</text><text fill="#000000" font-family="sans-serif" font-size="14" lengthAdjust="spacing" textLength="9" x="547" y="283.0234">1</text><line style="stroke:#000000;stroke-width:1.0;" x1="542" x2="542" y1="267.4883" y2="287.9766"/><line style="stroke:#000000;stroke-width:1.0;" x1="438" x2="709" y1="287.9766" y2="287.9766"/><text fill="#000000" font-family="sans-serif" font-size="14" font-weight="bold" lengthAdjust="spacing" textLength="94" x="443" y="303.5117">ratio_percent</text><text fill="#000000" font-family="sans-serif" font-size="14" lengthAdjust="spacing" textLength="157" x="547" y="303.5117">16.666666666666668</text><line style="stroke:#000000;stroke-width:1.0;" x1="542" x2="542" y1="287.9766" y2="308.4648"/><rect fill="none" height="61.4648" rx="5" ry="5" style="stroke:#000000;stroke-width:1.5;" width="271" x="438" y="247"/><rect fill="#F1F1F1" height="61.4648" rx="5" ry="5" style="stroke:#F1F1F1;stroke-width:1.5;" width="271" x="438" y="326"/><text fill="#000000" font-family="sans-serif" font-size="14" font-weight="bold" lengthAdjust="spacing" textLength="78" x="443" y="341.5352">field_value</text><text fill="#000000" font-family="sans-serif" font-size="14" lengthAdjust="spacing" textLength="42" x="547" y="341.5352">Billing</text><line style="stroke:#000000;stroke-width:1.0;" x1="542" x2="542" y1="326" y2="346.4883"/><line style="stroke:#000000;stroke-width:1.0;" x1="438" x2="709" y1="346.4883" y2="346.4883"/><text fill="#000000" font-family="sans-serif" font-size="14" font-weight="bold" lengthAdjust="spacing" textLength="74" x="443" y="362.0234">row_count</text><text fill="#000000" font-family="sans-serif" font-size="14" lengthAdjust="spacing" textLength="9" x="547" y="362.0234">1</text><line style="stroke:#000000;stroke-width:1.0;" x1="542" x2="542" y1="346.4883" y2="366.9766"/><line style="stroke:#000000;stroke-width:1.0;" x1="438" x2="709" y1="366.9766" y2="366.9766"/><text fill="#000000" font-family="sans-serif" font-size="14" font-weight="bold" lengthAdjust="spacing" textLength="94" x="443" y="382.5117">ratio_percent</text><text fill="#000000" font-family="sans-serif" font-size="14" lengthAdjust="spacing" textLength="157" x="547" y="382.5117">16.666666666666668</text><line style="stroke:#000000;stroke-width:1.0;" x1="542" x2="542" y1="366.9766" y2="387.4648"/><rect fill="none" height="61.4648" rx="5" ry="5" style="stroke:#000000;stroke-width:1.5;" width="271" x="438" y="326"/><rect fill="#F1F1F1" height="61.4648" rx="5" ry="5" style="stroke:#F1F1F1;stroke-width:1.5;" width="271" x="438" y="405"/><text fill="#000000" font-family="sans-serif" font-size="14" font-weight="bold" lengthAdjust="spacing" textLength="78" x="443" y="420.5352">field_value</text><text fill="#000000" font-family="sans-serif" font-size="14" lengthAdjust="spacing" textLength="51" x="547" y="420.5352">Archive</text><line style="stroke:#000000;stroke-width:1.0;" x1="542" x2="542" y1="405" y2="425.4883"/><line style="stroke:#000000;stroke-width:1.0;" x1="438" x2="709" y1="425.4883" y2="425.4883"/><text fill="#000000" font-family="sans-serif" font-size="14" font-weight="bold" lengthAdjust="spacing" textLength="74" x="443" y="441.0234">row_count</text><text fill="#000000" font-family="sans-serif" font-size="14" lengthAdjust="spacing" textLength="9" x="547" y="441.0234">1</text><line style="stroke:#000000;stroke-width:1.0;" x1="542" x2="542" y1="425.4883" y2="445.9766"/><line style="stroke:#000000;stroke-width:1.0;" x1="438" x2="709" y1="445.9766" y2="445.9766"/><text fill="#000000" font-family="sans-serif" font-size="14" font-weight="bold" lengthAdjust="spacing" textLength="94" x="443" y="461.5117">ratio_percent</text><text fill="#000000" font-family="sans-serif" font-size="14" lengthAdjust="spacing" textLength="157" x="547" y="461.5117">16.666666666666668</text><line style="stroke:#000000;stroke-width:1.0;" x1="542" x2="542" y1="445.9766" y2="466.4648"/><rect fill="none" height="61.4648" rx="5" ry="5" style="stroke:#000000;stroke-width:1.5;" width="271" x="438" y="405"/><path d="M181,177.5 L194,177.5 C200.2289,177.5 224.4926,169.9165 249.6747,161.4376 " fill="none" style="stroke:#000000;stroke-width:1.0;stroke-dasharray:3.0,3.0;"/><path d="M250.6385,164.2827 L251.8085,160.7147 L248.7108,158.5925 L256.7874,159.0279 L250.6385,164.2827 " fill="#000000" style="stroke:#000000;stroke-width:1.0;"/><ellipse cx="181" cy="177.5" fill="#000000" rx="3" ry="3" style="stroke:#000000;stroke-width:1.0;"/><path d="M316,186.5 L329,186.5 C362.4162,186.5 376.7477,190.3852 402,168.5 C434.2446,140.5549 406.3133,108.0761 438,79.5 C439.4663,78.1776 440.9749,76.8999 442.5215,75.6652 " fill="none" style="stroke:#000000;stroke-width:1.0;stroke-dasharray:3.0,3.0;"/><path d="M444.3421,78.1235 L444.3652,74.2998 L440.701,73.207 L448.6672,71.1139 L444.3421,78.1235 " fill="#000000" style="stroke:#000000;stroke-width:1.0;"/><ellipse cx="316" cy="186.5" fill="#000000" rx="3" ry="3" style="stroke:#000000;stroke-width:1.0;"/><path d="M316,207.5 L329,207.5 C381.9337,207.5 388.3016,177.7222 438,159.5 C444.4889,157.1208 451.1912,154.7792 457.9806,152.496 " fill="none" style="stroke:#000000;stroke-width:1.0;stroke-dasharray:3.0,3.0;"/><path d="M458.9621,155.4542 L460.1992,151.7599 L456.9991,149.5378 L465.376,150.0423 L458.9621,155.4542 " fill="#000000" style="stroke:#000000;stroke-width:1.0;"/><ellipse cx="316" cy="207.5" fill="#000000" rx="3" ry="3" style="stroke:#000000;stroke-width:1.0;"/><path d="M316,227.5 L329,227.5 C362.1159,227.5 397.5844,224.8334 430.9336,221.1173 " fill="none" style="stroke:#000000;stroke-width:1.0;stroke-dasharray:3.0,3.0;"/><path d="M431.2778,224.1287 L433.1921,220.8592 L430.5894,218.106 L438.4619,220.2569 L431.2778,224.1287 " fill="#000000" style="stroke:#000000;stroke-width:1.0;"/><ellipse cx="316" cy="227.5" fill="#000000" rx="3" ry="3" style="stroke:#000000;stroke-width:1.0;"/><path d="M316,248.5 L329,248.5 C362.1159,248.5 397.5844,251.1666 430.9336,254.8827 " fill="none" style="stroke:#000000;stroke-width:1.0;stroke-dasharray:3.0,3.0;"/><path d="M430.5894,257.894 L433.1921,255.1408 L431.2778,251.8713 L438.4619,255.7431 L430.5894,257.894 " fill="#000000" style="stroke:#000000;stroke-width:1.0;"/><ellipse cx="316" cy="248.5" fill="#000000" rx="3" ry="3" style="stroke:#000000;stroke-width:1.0;"/><path d="M316,269.5 L329,269.5 C381.9337,269.5 388.2398,299.4475 438,317.5 C443.6438,319.5475 449.45,321.5617 455.3353,323.5302 " fill="none" style="stroke:#000000;stroke-width:1.0;stroke-dasharray:3.0,3.0;"/><path d="M454.3481,326.5265 L457.5825,324.2706 L456.3225,320.5339 L462.826,325.9982 L454.3481,326.5265 " fill="#000000" style="stroke:#000000;stroke-width:1.0;"/><ellipse cx="316" cy="269.5" fill="#000000" rx="3" ry="3" style="stroke:#000000;stroke-width:1.0;"/><path d="M316,289.5 L329,289.5 C396.8852,289.5 379.3831,362.2588 438,396.5 C440.9837,398.2429 444.0505,399.9124 447.182,401.5111 " fill="none" style="stroke:#000000;stroke-width:1.0;stroke-dasharray:3.0,3.0;"/><path d="M445.8268,404.2919 L449.2676,402.5276 L448.5373,398.7304 L454.1339,404.8993 L445.8268,404.2919 " fill="#000000" style="stroke:#000000;stroke-width:1.0;"/><ellipse cx="316" cy="289.5" fill="#000000" rx="3" ry="3" style="stroke:#000000;stroke-width:1.0;"/><path d="M181,198.5 L194,198.5 C232.132,198.5 273.7629,216.6297 296.8985,228.4781 " fill="none" style="stroke:#000000;stroke-width:1.0;stroke-dasharray:3.0,3.0;"/><path d="M295.4604,231.2116 L298.9487,229.5567 L298.3366,225.7446 L303.7323,232.0733 L295.4604,231.2116 " fill="#000000" style="stroke:#000000;stroke-width:1.0;"/><ellipse cx="181" cy="198.5" fill="#000000" rx="3" ry="3" style="stroke:#000000;stroke-width:1.0;"/><!--MD5=[9ff48ed3d3f8ebe290f5647532e986b5]
@startjson
{
    "field1": "Name",
    "combination": "Name",
    "null_distribution": {
        "total_null_rows": 0,
        "total_not_null_rows": 6
    },
    "data_distribution": [
        {
            "field_value": "Shipping",
            "row_count": 1,
            "ratio_percent": 16.666666666666668
        },
        {
            "field_value": "Primary",
            "row_count": 1,
            "ratio_percent": 16.666666666666668
        },
        {
            "field_value": "Main Office",
            "row_count": 1,
            "ratio_percent": 16.666666666666668
        },
        {
            "field_value": "Home",
            "row_count": 1,
            "ratio_percent": 16.666666666666668
        },
        {
            "field_value": "Billing",
            "row_count": 1,
            "ratio_percent": 16.666666666666668
        },
        {
            "field_value": "Archive",
            "row_count": 1,
            "ratio_percent": 16.666666666666668
        }
    ]
}
@endjson

PlantUML version 1.2022.5(Sat Apr 30 06:55:52 EDT 2022)
(GPL source distribution)
Java Runtime: OpenJDK Runtime Environment
JVM: OpenJDK 64-Bit Server VM
Default Encoding: UTF-8
Language: en
Country: CA
--></g></svg>