<?xml version="1.0" encoding="UTF-8" standalone="no"?><svg xmlns="http://www.w3.org/2000/svg" xmlns:xlink="http://www.w3.org/1999/xlink" contentStyleType="text/css" height="794px" preserveAspectRatio="none" style="width:784px;height:794px;background:#FFFFFF;" version="1.1" viewBox="0 0 784 794" width="784px" zoomAndPan="magnify"><defs/><g><rect fill="#F1F1F1" height="81.9531" rx="5" ry="5" style="stroke:#F1F1F1;stroke-width:1.5;" width="210" x="10" y="264.5"/><text fill="#000000" font-family="sans-serif" font-size="14" font-weight="bold" lengthAdjust="spacing" textLength="42" x="15" y="280.0352">field1</text><text fill="#000000" font-family="sans-serif" font-size="14" lengthAdjust="spacing" textLength="66" x="149" y="280.0352">LastName</text><line style="stroke:#000000;stroke-width:1.0;" x1="144" x2="144" y1="264.5" y2="284.9883"/><line style="stroke:#000000;stroke-width:1.0;" x1="10" x2="220" y1="284.9883" y2="284.9883"/><text fill="#000000" font-family="sans-serif" font-size="14" font-weight="bold" lengthAdjust="spacing" textLength="90" x="15" y="300.5234">combination</text><text fill="#000000" font-family="sans-serif" font-size="14" lengthAdjust="spacing" textLength="66" x="149" y="300.5234">LastName</text><line style="stroke:#000000;stroke-width:1.0;" x1="144" x2="144" y1="284.9883" y2="305.4766"/><line style="stroke:#000000;stroke-width:1.0;" x1="10" x2="220" y1="305.4766" y2="305.4766"/><text fill="#000000" font-family="sans-serif" font-size="14" font-weight="bold" lengthAdjust="spacing" textLength="121" x="15" y="321.0117">null_distribution</text><text fill="#000000" font-family="sans-serif" font-size="14" lengthAdjust="spacing" textLength="12" x="149" y="321.0117">   </text><line style="stroke:#000000;stroke-width:1.0;" x1="144" x2="144" y1="305.4766" y2="325.9648"/><line style="stroke:#000000;stroke-width:1.0;" x1="10" x2="220" y1="325.9648" y2="325.9648"/><text fill="#000000" font-family="sans-serif" font-size="14" font-weight="bold" lengthAdjust="spacing" textLength="124" x="15" y="341.5">data_distribution</text><text fill="#000000" font-family="sans-serif" font-size="14" lengthAdjust="spacing" textLength="12" x="149" y="341.5">   </text><line style="stroke:#000000;stroke-width:1.0;" x1="144" x2="144" y1="325.9648" y2="346.4531"/><rect fill="none" height="81.9531" rx="5" ry="5" style="stroke:#000000;stroke-width:1.5;" width="210" x="10" y="264.5"/><rect fill="#F1F1F1" height="40.9766" rx="5" ry="5" style="stroke:#F1F1F1;stroke-width:1.5;" width="207" x="257" y="235"/><text fill="#000000" font-family="sans-serif" font-size="14" font-weight="bold" lengthAdjust="spacing" textLength="111" x="262" y="250.5352">total_null_rows</text><text fill="#000000" font-family="sans-serif" font-size="14" lengthAdjust="spacing" textLength="9" x="414" y="250.5352">0</text><line style="stroke:#000000;stroke-width:1.0;" x1="409" x2="409" y1="235" y2="255.4883"/><line style="stroke:#000000;stroke-width:1.0;" x1="257" x2="464" y1="255.4883" y2="255.4883"/><text fill="#000000" font-family="sans-serif" font-size="14" font-weight="bold" lengthAdjust="spacing" textLength="142" x="262" y="271.0234">total_not_null_rows</text><text fill="#000000" font-family="sans-serif" font-size="14" lengthAdjust="spacing" textLength="45" x="414" y="271.0234">19972</text><line style="stroke:#000000;stroke-width:1.0;" x1="409" x2="409" y1="255.4883" y2="275.9766"/><rect fill="none" height="40.9766" rx="5" ry="5" style="stroke:#000000;stroke-width:1.5;" width="207" x="257" y="235"/><rect fill="#F1F1F1" height="204.8828" rx="5" ry="5" style="stroke:#F1F1F1;stroke-width:1.5;" width="22" x="348.5" y="294"/><text fill="#000000" font-family="sans-serif" font-size="14" lengthAdjust="spacing" textLength="12" x="353.5" y="309.5352">   </text><line style="stroke:#000000;stroke-width:1.0;" x1="348.5" x2="370.5" y1="314.4883" y2="314.4883"/><text fill="#000000" font-family="sans-serif" font-size="14" lengthAdjust="spacing" textLength="12" x="353.5" y="330.0234">   </text><line style="stroke:#000000;stroke-width:1.0;" x1="348.5" x2="370.5" y1="334.9766" y2="334.9766"/><text fill="#000000" font-family="sans-serif" font-size="14" lengthAdjust="spacing" textLength="12" x="353.5" y="350.5117">   </text><line style="stroke:#000000;stroke-width:1.0;" x1="348.5" x2="370.5" y1="355.4648" y2="355.4648"/><text fill="#000000" font-family="sans-serif" font-size="14" lengthAdjust="spacing" textLength="12" x="353.5" y="371">   </text><line style="stroke:#000000;stroke-width:1.0;" x1="348.5" x2="370.5" y1="375.9531" y2="375.9531"/><text fill="#000000" font-family="sans-serif" font-size="14" lengthAdjust="spacing" textLength="12" x="353.5" y="391.4883">   </text><line style="stroke:#000000;stroke-width:1.0;" x1="348.5" x2="370.5" y1="396.4414" y2="396.4414"/><text fill="#000000" font-family="sans-serif" font-size="14" lengthAdjust="spacing" textLength="12" x="353.5" y="411.9766">   </text><line style="stroke:#000000;stroke-width:1.0;" x1="348.5" x2="370.5" y1="416.9297" y2="416.9297"/><text fill="#000000" font-family="sans-serif" font-size="14" lengthAdjust="spacing" textLength="12" x="353.5" y="432.4648">   </text><line style="stroke:#000000;stroke-width:1.0;" x1="348.5" x2="370.5" y1="437.418" y2="437.418"/><text fill="#000000" font-family="sans-serif" font-size="14" lengthAdjust="spacing" textLength="12" x="353.5" y="452.9531">   </text><line style="stroke:#000000;stroke-width:1.0;" x1="348.5" x2="370.5" y1="457.9063" y2="457.9063"/><text fill="#000000" font-family="sans-serif" font-size="14" lengthAdjust="spacing" textLength="12" x="353.5" y="473.4414">   </text><line style="stroke:#000000;stroke-width:1.0;" x1="348.5" x2="370.5" y1="478.3945" y2="478.3945"/><text fill="#000000" font-family="sans-serif" font-size="14" lengthAdjust="spacing" textLength="12" x="353.5" y="493.9297">   </text><rect fill="none" height="204.8828" rx="5" ry="5" style="stroke:#000000;stroke-width:1.5;" width="22" x="348.5" y="294"/><rect fill="#F1F1F1" height="61.4648" rx="5" ry="5" style="stroke:#F1F1F1;stroke-width:1.5;" width="271" x="501" y="10"/><text fill="#000000" font-family="sans-serif" font-size="14" font-weight="bold" lengthAdjust="spacing" textLength="78" x="506" y="25.5352">field_value</text><text fill="#000000" font-family="sans-serif" font-size="14" lengthAdjust="spacing" textLength="30" x="610" y="25.5352">Diaz</text><line style="stroke:#000000;stroke-width:1.0;" x1="605" x2="605" y1="10" y2="30.4883"/><line style="stroke:#000000;stroke-width:1.0;" x1="501" x2="772" y1="30.4883" y2="30.4883"/><text fill="#000000" font-family="sans-serif" font-size="14" font-weight="bold" lengthAdjust="spacing" textLength="74" x="506" y="46.0234">row_count</text><text fill="#000000" font-family="sans-serif" font-size="14" lengthAdjust="spacing" textLength="27" x="610" y="46.0234">211</text><line style="stroke:#000000;stroke-width:1.0;" x1="605" x2="605" y1="30.4883" y2="50.9766"/><line style="stroke:#000000;stroke-width:1.0;" x1="501" x2="772" y1="50.9766" y2="50.9766"/><text fill="#000000" font-family="sans-serif" font-size="14" font-weight="bold" lengthAdjust="spacing" textLength="94" x="506" y="66.5117">ratio_percent</text><text fill="#000000" font-family="sans-serif" font-size="14" lengthAdjust="spacing" textLength="157" x="610" y="66.5117">1.0564790706989786</text><line style="stroke:#000000;stroke-width:1.0;" x1="605" x2="605" y1="50.9766" y2="71.4648"/><rect fill="none" height="61.4648" rx="5" ry="5" style="stroke:#000000;stroke-width:1.5;" width="271" x="501" y="10"/><rect fill="#F1F1F1" height="61.4648" rx="5" ry="5" style="stroke:#F1F1F1;stroke-width:1.5;" width="271" x="501" y="89"/><text fill="#000000" font-family="sans-serif" font-size="14" font-weight="bold" lengthAdjust="spacing" textLength="78" x="506" y="104.5352">field_value</text><text fill="#000000" font-family="sans-serif" font-size="14" lengthAdjust="spacing" textLength="75" x="610" y="104.5352">Hernandez</text><line style="stroke:#000000;stroke-width:1.0;" x1="605" x2="605" y1="89" y2="109.4883"/><line style="stroke:#000000;stroke-width:1.0;" x1="501" x2="772" y1="109.4883" y2="109.4883"/><text fill="#000000" font-family="sans-serif" font-size="14" font-weight="bold" lengthAdjust="spacing" textLength="74" x="506" y="125.0234">row_count</text><text fill="#000000" font-family="sans-serif" font-size="14" lengthAdjust="spacing" textLength="27" x="610" y="125.0234">188</text><line style="stroke:#000000;stroke-width:1.0;" x1="605" x2="605" y1="109.4883" y2="129.9766"/><line style="stroke:#000000;stroke-width:1.0;" x1="501" x2="772" y1="129.9766" y2="129.9766"/><text fill="#000000" font-family="sans-serif" font-size="14" font-weight="bold" lengthAdjust="spacing" textLength="94" x="506" y="145.5117">ratio_percent</text><text fill="#000000" font-family="sans-serif" font-size="14" lengthAdjust="spacing" textLength="157" x="610" y="145.5117">0.9413178449829762</text><line style="stroke:#000000;stroke-width:1.0;" x1="605" x2="605" y1="129.9766" y2="150.4648"/><rect fill="none" height="61.4648" rx="5" ry="5" style="stroke:#000000;stroke-width:1.5;" width="271" x="501" y="89"/><rect fill="#F1F1F1" height="61.4648" rx="5" ry="5" style="stroke:#F1F1F1;stroke-width:1.5;" width="271" x="501" y="168"/><text fill="#000000" font-family="sans-serif" font-size="14" font-weight="bold" lengthAdjust="spacing" textLength="78" x="506" y="183.5352">field_value</text><text fill="#000000" font-family="sans-serif" font-size="14" lengthAdjust="spacing" textLength="57" x="610" y="183.5352">Sanchez</text><line style="stroke:#000000;stroke-width:1.0;" x1="605" x2="605" y1="168" y2="188.4883"/><line style="stroke:#000000;stroke-width:1.0;" x1="501" x2="772" y1="188.4883" y2="188.4883"/><text fill="#000000" font-family="sans-serif" font-size="14" font-weight="bold" lengthAdjust="spacing" textLength="74" x="506" y="204.0234">row_count</text><text fill="#000000" font-family="sans-serif" font-size="14" lengthAdjust="spacing" textLength="27" x="610" y="204.0234">180</text><line style="stroke:#000000;stroke-width:1.0;" x1="605" x2="605" y1="188.4883" y2="208.9766"/><line style="stroke:#000000;stroke-width:1.0;" x1="501" x2="772" y1="208.9766" y2="208.9766"/><text fill="#000000" font-family="sans-serif" font-size="14" font-weight="bold" lengthAdjust="spacing" textLength="94" x="506" y="224.5117">ratio_percent</text><text fill="#000000" font-family="sans-serif" font-size="14" lengthAdjust="spacing" textLength="157" x="610" y="224.5117">0.9012617664730623</text><line style="stroke:#000000;stroke-width:1.0;" x1="605" x2="605" y1="208.9766" y2="229.4648"/><rect fill="none" height="61.4648" rx="5" ry="5" style="stroke:#000000;stroke-width:1.5;" width="271" x="501" y="168"/><rect fill="#F1F1F1" height="61.4648" rx="5" ry="5" style="stroke:#F1F1F1;stroke-width:1.5;" width="271" x="501" y="247"/><text fill="#000000" font-family="sans-serif" font-size="14" font-weight="bold" lengthAdjust="spacing" textLength="78" x="506" y="262.5352">field_value</text><text fill="#000000" font-family="sans-serif" font-size="14" lengthAdjust="spacing" textLength="60" x="610" y="262.5352">Martinez</text><line style="stroke:#000000;stroke-width:1.0;" x1="605" x2="605" y1="247" y2="267.4883"/><line style="stroke:#000000;stroke-width:1.0;" x1="501" x2="772" y1="267.4883" y2="267.4883"/><text fill="#000000" font-family="sans-serif" font-size="14" font-weight="bold" lengthAdjust="spacing" textLength="74" x="506" y="283.0234">row_count</text><text fill="#000000" font-family="sans-serif" font-size="14" lengthAdjust="spacing" textLength="27" x="610" y="283.0234">173</text><line style="stroke:#000000;stroke-width:1.0;" x1="605" x2="605" y1="267.4883" y2="287.9766"/><line style="stroke:#000000;stroke-width:1.0;" x1="501" x2="772" y1="287.9766" y2="287.9766"/><text fill="#000000" font-family="sans-serif" font-size="14" font-weight="bold" lengthAdjust="spacing" textLength="94" x="506" y="303.5117">ratio_percent</text><text fill="#000000" font-family="sans-serif" font-size="14" lengthAdjust="spacing" textLength="157" x="610" y="303.5117">0.8662126977768877</text><line style="stroke:#000000;stroke-width:1.0;" x1="605" x2="605" y1="287.9766" y2="308.4648"/><rect fill="none" height="61.4648" rx="5" ry="5" style="stroke:#000000;stroke-width:1.5;" width="271" x="501" y="247"/><rect fill="#F1F1F1" height="61.4648" rx="5" ry="5" style="stroke:#F1F1F1;stroke-width:1.5;" width="271" x="501" y="326"/><text fill="#000000" font-family="sans-serif" font-size="14" font-weight="bold" lengthAdjust="spacing" textLength="78" x="506" y="341.5352">field_value</text><text fill="#000000" font-family="sans-serif" font-size="14" lengthAdjust="spacing" textLength="45" x="610" y="341.5352">Torres</text><line style="stroke:#000000;stroke-width:1.0;" x1="605" x2="605" y1="326" y2="346.4883"/><line style="stroke:#000000;stroke-width:1.0;" x1="501" x2="772" y1="346.4883" y2="346.4883"/><text fill="#000000" font-family="sans-serif" font-size="14" font-weight="bold" lengthAdjust="spacing" textLength="74" x="506" y="362.0234">row_count</text><text fill="#000000" font-family="sans-serif" font-size="14" lengthAdjust="spacing" textLength="27" x="610" y="362.0234">172</text><line style="stroke:#000000;stroke-width:1.0;" x1="605" x2="605" y1="346.4883" y2="366.9766"/><line style="stroke:#000000;stroke-width:1.0;" x1="501" x2="772" y1="366.9766" y2="366.9766"/><text fill="#000000" font-family="sans-serif" font-size="14" font-weight="bold" lengthAdjust="spacing" textLength="94" x="506" y="382.5117">ratio_percent</text><text fill="#000000" font-family="sans-serif" font-size="14" lengthAdjust="spacing" textLength="157" x="610" y="382.5117">0.8612056879631484</text><line style="stroke:#000000;stroke-width:1.0;" x1="605" x2="605" y1="366.9766" y2="387.4648"/><rect fill="none" height="61.4648" rx="5" ry="5" style="stroke:#000000;stroke-width:1.5;" width="271" x="501" y="326"/><rect fill="#F1F1F1" height="61.4648" rx="5" ry="5" style="stroke:#F1F1F1;stroke-width:1.5;" width="271" x="501" y="405"/><text fill="#000000" font-family="sans-serif" font-size="14" font-weight="bold" lengthAdjust="spacing" textLength="78" x="506" y="420.5352">field_value</text><text fill="#000000" font-family="sans-serif" font-size="14" lengthAdjust="spacing" textLength="44" x="610" y="420.5352">Martin</text><line style="stroke:#000000;stroke-width:1.0;" x1="605" x2="605" y1="405" y2="425.4883"/><line style="stroke:#000000;stroke-width:1.0;" x1="501" x2="772" y1="425.4883" y2="425.4883"/><text fill="#000000" font-family="sans-serif" font-size="14" font-weight="bold" lengthAdjust="spacing" textLength="74" x="506" y="441.0234">row_count</text><text fill="#000000" font-family="sans-serif" font-size="14" lengthAdjust="spacing" textLength="27" x="610" y="441.0234">171</text><line style="stroke:#000000;stroke-width:1.0;" x1="605" x2="605" y1="425.4883" y2="445.9766"/><line style="stroke:#000000;stroke-width:1.0;" x1="501" x2="772" y1="445.9766" y2="445.9766"/><text fill="#000000" font-family="sans-serif" font-size="14" font-weight="bold" lengthAdjust="spacing" textLength="94" x="506" y="461.5117">ratio_percent</text><text fill="#000000" font-family="sans-serif" font-size="14" lengthAdjust="spacing" textLength="157" x="610" y="461.5117">0.8561986781494092</text><line style="stroke:#000000;stroke-width:1.0;" x1="605" x2="605" y1="445.9766" y2="466.4648"/><rect fill="none" height="61.4648" rx="5" ry="5" style="stroke:#000000;stroke-width:1.5;" width="271" x="501" y="405"/><rect fill="#F1F1F1" height="61.4648" rx="5" ry="5" style="stroke:#F1F1F1;stroke-width:1.5;" width="253" x="510" y="484"/><text fill="#000000" font-family="sans-serif" font-size="14" font-weight="bold" lengthAdjust="spacing" textLength="78" x="515" y="499.5352">field_value</text><text fill="#000000" font-family="sans-serif" font-size="14" lengthAdjust="spacing" textLength="38" x="619" y="499.5352">Perez</text><line style="stroke:#000000;stroke-width:1.0;" x1="614" x2="614" y1="484" y2="504.4883"/><line style="stroke:#000000;stroke-width:1.0;" x1="510" x2="763" y1="504.4883" y2="504.4883"/><text fill="#000000" font-family="sans-serif" font-size="14" font-weight="bold" lengthAdjust="spacing" textLength="74" x="515" y="520.0234">row_count</text><text fill="#000000" font-family="sans-serif" font-size="14" lengthAdjust="spacing" textLength="27" x="619" y="520.0234">170</text><line style="stroke:#000000;stroke-width:1.0;" x1="614" x2="614" y1="504.4883" y2="524.9766"/><line style="stroke:#000000;stroke-width:1.0;" x1="510" x2="763" y1="524.9766" y2="524.9766"/><text fill="#000000" font-family="sans-serif" font-size="14" font-weight="bold" lengthAdjust="spacing" textLength="94" x="515" y="540.5117">ratio_percent</text><text fill="#000000" font-family="sans-serif" font-size="14" lengthAdjust="spacing" textLength="139" x="619" y="540.5117">0.85119166833567</text><line style="stroke:#000000;stroke-width:1.0;" x1="614" x2="614" y1="524.9766" y2="545.4648"/><rect fill="none" height="61.4648" rx="5" ry="5" style="stroke:#000000;stroke-width:1.5;" width="253" x="510" y="484"/><rect fill="#F1F1F1" height="61.4648" rx="5" ry="5" style="stroke:#F1F1F1;stroke-width:1.5;" width="271" x="501" y="563"/><text fill="#000000" font-family="sans-serif" font-size="14" font-weight="bold" lengthAdjust="spacing" textLength="78" x="506" y="578.5352">field_value</text><text fill="#000000" font-family="sans-serif" font-size="14" lengthAdjust="spacing" textLength="64" x="610" y="578.5352">Gonzalez</text><line style="stroke:#000000;stroke-width:1.0;" x1="605" x2="605" y1="563" y2="583.4883"/><line style="stroke:#000000;stroke-width:1.0;" x1="501" x2="772" y1="583.4883" y2="583.4883"/><text fill="#000000" font-family="sans-serif" font-size="14" font-weight="bold" lengthAdjust="spacing" textLength="74" x="506" y="599.0234">row_count</text><text fill="#000000" font-family="sans-serif" font-size="14" lengthAdjust="spacing" textLength="27" x="610" y="599.0234">169</text><line style="stroke:#000000;stroke-width:1.0;" x1="605" x2="605" y1="583.4883" y2="603.9766"/><line style="stroke:#000000;stroke-width:1.0;" x1="501" x2="772" y1="603.9766" y2="603.9766"/><text fill="#000000" font-family="sans-serif" font-size="14" font-weight="bold" lengthAdjust="spacing" textLength="94" x="506" y="619.5117">ratio_percent</text><text fill="#000000" font-family="sans-serif" font-size="14" lengthAdjust="spacing" textLength="157" x="610" y="619.5117">0.8461846585219307</text><line style="stroke:#000000;stroke-width:1.0;" x1="605" x2="605" y1="603.9766" y2="624.4648"/><rect fill="none" height="61.4648" rx="5" ry="5" style="stroke:#000000;stroke-width:1.5;" width="271" x="501" y="563"/><rect fill="#F1F1F1" height="61.4648" rx="5" ry="5" style="stroke:#F1F1F1;stroke-width:1.5;" width="271" x="501" y="642"/><text fill="#000000" font-family="sans-serif" font-size="14" font-weight="bold" lengthAdjust="spacing" textLength="78" x="506" y="657.5352">field_value</text><text fill="#000000" font-family="sans-serif" font-size="14" lengthAdjust="spacing" textLength="41" x="610" y="657.5352">Lopez</text><line style="stroke:#000000;stroke-width:1.0;" x1="605" x2="605" y1="642" y2="662.4883"/><line style="stroke:#000000;stroke-width:1.0;" x1="501" x2="772" y1="662.4883" y2="662.4883"/><text fill="#000000" font-family="sans-serif" font-size="14" font-weight="bold" lengthAdjust="spacing" textLength="74" x="506" y="678.0234">row_count</text><text fill="#000000" font-family="sans-serif" font-size="14" lengthAdjust="spacing" textLength="27" x="610" y="678.0234">168</text><line style="stroke:#000000;stroke-width:1.0;" x1="605" x2="605" y1="662.4883" y2="682.9766"/><line style="stroke:#000000;stroke-width:1.0;" x1="501" x2="772" y1="682.9766" y2="682.9766"/><text fill="#000000" font-family="sans-serif" font-size="14" font-weight="bold" lengthAdjust="spacing" textLength="94" x="506" y="698.5117">ratio_percent</text><text fill="#000000" font-family="sans-serif" font-size="14" lengthAdjust="spacing" textLength="157" x="610" y="698.5117">0.8411776487081914</text><line style="stroke:#000000;stroke-width:1.0;" x1="605" x2="605" y1="682.9766" y2="703.4648"/><rect fill="none" height="61.4648" rx="5" ry="5" style="stroke:#000000;stroke-width:1.5;" width="271" x="501" y="642"/><rect fill="#F1F1F1" height="61.4648" rx="5" ry="5" style="stroke:#F1F1F1;stroke-width:1.5;" width="262" x="505.5" y="721"/><text fill="#000000" font-family="sans-serif" font-size="14" font-weight="bold" lengthAdjust="spacing" textLength="78" x="510.5" y="736.5352">field_value</text><text fill="#000000" font-family="sans-serif" font-size="14" lengthAdjust="spacing" textLength="71" x="614.5" y="736.5352">Rodriguez</text><line style="stroke:#000000;stroke-width:1.0;" x1="609.5" x2="609.5" y1="721" y2="741.4883"/><line style="stroke:#000000;stroke-width:1.0;" x1="505.5" x2="767.5" y1="741.4883" y2="741.4883"/><text fill="#000000" font-family="sans-serif" font-size="14" font-weight="bold" lengthAdjust="spacing" textLength="74" x="510.5" y="757.0234">row_count</text><text fill="#000000" font-family="sans-serif" font-size="14" lengthAdjust="spacing" textLength="27" x="614.5" y="757.0234">166</text><line style="stroke:#000000;stroke-width:1.0;" x1="609.5" x2="609.5" y1="741.4883" y2="761.9766"/><line style="stroke:#000000;stroke-width:1.0;" x1="505.5" x2="767.5" y1="761.9766" y2="761.9766"/><text fill="#000000" font-family="sans-serif" font-size="14" font-weight="bold" lengthAdjust="spacing" textLength="94" x="510.5" y="777.5117">ratio_percent</text><text fill="#000000" font-family="sans-serif" font-size="14" lengthAdjust="spacing" textLength="148" x="614.5" y="777.5117">0.831163629080713</text><line style="stroke:#000000;stroke-width:1.0;" x1="609.5" x2="609.5" y1="761.9766" y2="782.4648"/><rect fill="none" height="61.4648" rx="5" ry="5" style="stroke:#000000;stroke-width:1.5;" width="262" x="505.5" y="721"/><path d="M208,315.5 L221,315.5 C241.8273,315.5 238.6143,295.285 257,285.5 C261.4187,283.1484 266.0447,280.9598 270.7859,278.9261 " fill="none" style="stroke:#000000;stroke-width:1.0;stroke-dasharray:3.0,3.0;"/><path d="M271.9339,281.7334 L272.8914,278.0652 L269.638,276.1189 L277.804,276.0563 L271.9339,281.7334 " fill="#000000" style="stroke:#000000;stroke-width:1.0;"/><ellipse cx="208" cy="315.5" fill="#000000" rx="3" ry="3" style="stroke:#000000;stroke-width:1.0;"/><path d="M361,303.5 L374,303.5 C415.2281,303.5 436.1738,314.9755 465,285.5 C529.9848,219.0516 438.93,148.679 501,79.5 C502.0081,78.3765 503.0463,77.2844 504.1126,76.2231 " fill="none" style="stroke:#000000;stroke-width:1.0;stroke-dasharray:3.0,3.0;"/><path d="M506.1347,78.4455 L505.7795,74.7065 L502.0905,74.0006 L509.6688,71.1678 L506.1347,78.4455 " fill="#000000" style="stroke:#000000;stroke-width:1.0;"/><ellipse cx="361" cy="303.5" fill="#000000" rx="3" ry="3" style="stroke:#000000;stroke-width:1.0;"/><path d="M361,324.5 L374,324.5 C418.0022,324.5 435.9505,318.5503 465,285.5 C503.7318,241.4339 459.6193,200.0887 501,158.5 C502.2233,157.2705 503.4828,156.0793 504.7755,154.925 " fill="none" style="stroke:#000000;stroke-width:1.0;stroke-dasharray:3.0,3.0;"/><path d="M506.7064,157.2737 L506.537,153.4769 L502.8447,152.5764 L510.6472,150.0978 L506.7064,157.2737 " fill="#000000" style="stroke:#000000;stroke-width:1.0;"/><ellipse cx="361" cy="324.5" fill="#000000" rx="3" ry="3" style="stroke:#000000;stroke-width:1.0;"/><path d="M361,344.5 L374,344.5 C422.2012,344.5 429.773,318.4001 465,285.5 C484.4889,267.2985 479.0554,252.6508 501,237.5 C503.3464,235.88 505.7599,234.3267 508.2295,232.8373 " fill="none" style="stroke:#000000;stroke-width:1.0;stroke-dasharray:3.0,3.0;"/><path d="M509.7476,235.5016 L510.2277,231.6987 L506.7115,230.173 L514.8903,229.0421 L509.7476,235.5016 " fill="#000000" style="stroke:#000000;stroke-width:1.0;"/><ellipse cx="361" cy="344.5" fill="#000000" rx="3" ry="3" style="stroke:#000000;stroke-width:1.0;"/><path d="M361,365.5 L374,365.5 C434.3414,365.5 443.8118,336.7507 501,317.5 C508.0371,315.1312 515.3048,312.7614 522.6494,310.4241 " fill="none" style="stroke:#000000;stroke-width:1.0;stroke-dasharray:3.0,3.0;"/><path d="M523.5794,313.3699 L524.8587,309.7266 L521.7193,307.4783 L530.0138,308.099 L523.5794,313.3699 " fill="#000000" style="stroke:#000000;stroke-width:1.0;"/><ellipse cx="361" cy="365.5" fill="#000000" rx="3" ry="3" style="stroke:#000000;stroke-width:1.0;"/><path d="M361,385.5 L374,385.5 C412.9351,385.5 454.9283,382.297 493.6467,378.02 " fill="none" style="stroke:#000000;stroke-width:1.0;stroke-dasharray:3.0,3.0;"/><path d="M493.9944,381.0993 L495.9562,377.7593 L493.2991,374.9407 L501.3449,377.1509 L493.9944,381.0993 " fill="#000000" style="stroke:#000000;stroke-width:1.0;"/><ellipse cx="361" cy="385.5" fill="#000000" rx="3" ry="3" style="stroke:#000000;stroke-width:1.0;"/><path d="M361,406.5 L374,406.5 C412.9351,406.5 454.9283,409.703 493.6467,413.98 " fill="none" style="stroke:#000000;stroke-width:1.0;stroke-dasharray:3.0,3.0;"/><path d="M493.2991,417.0593 L495.9562,414.2407 L493.9944,410.9007 L501.3449,414.8491 L493.2991,417.0593 " fill="#000000" style="stroke:#000000;stroke-width:1.0;"/><ellipse cx="361" cy="406.5" fill="#000000" rx="3" ry="3" style="stroke:#000000;stroke-width:1.0;"/><path d="M361,427.5 L374,427.5 C434.3414,427.5 443.7464,456.4445 501,475.5 C507.1558,477.5488 513.4895,479.5928 519.8977,481.6109 " fill="none" style="stroke:#000000;stroke-width:1.0;stroke-dasharray:3.0,3.0;"/><path d="M518.9553,484.6312 L522.1629,482.3177 L520.84,478.5906 L527.4484,483.9668 L518.9553,484.6312 " fill="#000000" style="stroke:#000000;stroke-width:1.0;"/><ellipse cx="361" cy="427.5" fill="#000000" rx="3" ry="3" style="stroke:#000000;stroke-width:1.0;"/><path d="M361,447.5 L374,447.5 C447.8072,447.5 435.9012,519.7199 501,554.5 C504.4092,556.3214 507.9135,558.0667 511.488,559.7385 " fill="none" style="stroke:#000000;stroke-width:1.0;stroke-dasharray:3.0,3.0;"/><path d="M510.2381,562.5202 L513.5743,560.6759 L512.7379,556.9568 L518.4423,562.8631 L510.2381,562.5202 " fill="#000000" style="stroke:#000000;stroke-width:1.0;"/><ellipse cx="361" cy="447.5" fill="#000000" rx="3" ry="3" style="stroke:#000000;stroke-width:1.0;"/><path d="M361,468.5 L374,468.5 C466.5405,468.5 424.5197,581.399 501,633.5 C503.3564,635.1053 505.7791,636.6453 508.257,638.1226 " fill="none" style="stroke:#000000;stroke-width:1.0;stroke-dasharray:3.0,3.0;"/><path d="M506.7506,640.7949 L510.2612,639.2524 L509.7634,635.4503 L514.9378,641.8886 L506.7506,640.7949 " fill="#000000" style="stroke:#000000;stroke-width:1.0;"/><ellipse cx="361" cy="468.5" fill="#000000" rx="3" ry="3" style="stroke:#000000;stroke-width:1.0;"/><path d="M361,488.5 L374,488.5 C488.4434,488.5 411.1639,641.6004 501,712.5 C502.7953,713.9169 504.6403,715.2823 506.5287,716.5982 " fill="none" style="stroke:#000000;stroke-width:1.0;stroke-dasharray:3.0,3.0;"/><path d="M504.8145,719.23 L508.5025,717.8838 L508.2428,713.9664 L513.1082,720.8836 L504.8145,719.23 " fill="#000000" style="stroke:#000000;stroke-width:1.0;"/><ellipse cx="361" cy="488.5" fill="#000000" rx="3" ry="3" style="stroke:#000000;stroke-width:1.0;"/><path d="M208,336.5 L221,336.5 C268.0497,336.5 317.2629,365.8357 342.6101,383.482 " fill="none" style="stroke:#000000;stroke-width:1.0;stroke-dasharray:3.0,3.0;"/><path d="M340.8416,385.964 L344.4716,384.8085 L344.3787,381.0001 L348.815,387.9035 L340.8416,385.964 " fill="#000000" style="stroke:#000000;stroke-width:1.0;"/><ellipse cx="208" cy="336.5" fill="#000000" rx="3" ry="3" style="stroke:#000000;stroke-width:1.0;"/><!--MD5=[4b66f6a80e0fe85395f89282e062b49e]
@startjson
{
    "field1": "LastName",
    "combination": "LastName",
    "null_distribution": {
        "total_null_rows": 0,
        "total_not_null_rows": 19972
    },
    "data_distribution": [
        {
            "field_value": "Diaz",
            "row_count": 211,
            "ratio_percent": 1.0564790706989786
        },
        {
            "field_value": "Hernandez",
            "row_count": 188,
            "ratio_percent": 0.9413178449829762
        },
        {
            "field_value": "Sanchez",
            "row_count": 180,
            "ratio_percent": 0.9012617664730623
        },
        {
            "field_value": "Martinez",
            "row_count": 173,
            "ratio_percent": 0.8662126977768877
        },
        {
            "field_value": "Torres",
            "row_count": 172,
            "ratio_percent": 0.8612056879631484
        },
        {
            "field_value": "Martin",
            "row_count": 171,
            "ratio_percent": 0.8561986781494092
        },
        {
            "field_value": "Perez",
            "row_count": 170,
            "ratio_percent": 0.85119166833567
        },
        {
            "field_value": "Gonzalez",
            "row_count": 169,
            "ratio_percent": 0.8461846585219307
        },
        {
            "field_value": "Lopez",
            "row_count": 168,
            "ratio_percent": 0.8411776487081914
        },
        {
            "field_value": "Rodriguez",
            "row_count": 166,
            "ratio_percent": 0.831163629080713
        }
    ]
}
@endjson

PlantUML version 1.2022.5(Sat Apr 30 06:55:52 EDT 2022)
(GPL source distribution)
Java Runtime: OpenJDK Runtime Environment
JVM: OpenJDK 64-Bit Server VM
Default Encoding: UTF-8
Language: en
Country: CA
--></g></svg>