<?xml version="1.0" encoding="UTF-8" standalone="no"?><svg xmlns="http://www.w3.org/2000/svg" xmlns:xlink="http://www.w3.org/1999/xlink" contentStyleType="text/css" height="794px" preserveAspectRatio="none" style="width:748px;height:794px;background:#FFFFFF;" version="1.1" viewBox="0 0 748 794" width="748px" zoomAndPan="magnify"><defs/><g><rect fill="#F1F1F1" height="81.9531" rx="5" ry="5" style="stroke:#F1F1F1;stroke-width:1.5;" width="183" x="10" y="264.5"/><text fill="#000000" font-family="sans-serif" font-size="14" font-weight="bold" lengthAdjust="spacing" textLength="42" x="15" y="280.0352">field1</text><text fill="#000000" font-family="sans-serif" font-size="14" lengthAdjust="spacing" textLength="39" x="149" y="280.0352">Name</text><line style="stroke:#000000;stroke-width:1.0;" x1="144" x2="144" y1="264.5" y2="284.9883"/><line style="stroke:#000000;stroke-width:1.0;" x1="10" x2="193" y1="284.9883" y2="284.9883"/><text fill="#000000" font-family="sans-serif" font-size="14" font-weight="bold" lengthAdjust="spacing" textLength="90" x="15" y="300.5234">combination</text><text fill="#000000" font-family="sans-serif" font-size="14" lengthAdjust="spacing" textLength="39" x="149" y="300.5234">Name</text><line style="stroke:#000000;stroke-width:1.0;" x1="144" x2="144" y1="284.9883" y2="305.4766"/><line style="stroke:#000000;stroke-width:1.0;" x1="10" x2="193" y1="305.4766" y2="305.4766"/><text fill="#000000" font-family="sans-serif" font-size="14" font-weight="bold" lengthAdjust="spacing" textLength="121" x="15" y="321.0117">null_distribution</text><text fill="#000000" font-family="sans-serif" font-size="14" lengthAdjust="spacing" textLength="12" x="149" y="321.0117">   </text><line style="stroke:#000000;stroke-width:1.0;" x1="144" x2="144" y1="305.4766" y2="325.9648"/><line style="stroke:#000000;stroke-width:1.0;" x1="10" x2="193" y1="325.9648" y2="325.9648"/><text fill="#000000" font-family="sans-serif" font-size="14" font-weight="bold" lengthAdjust="spacing" textLength="124" x="15" y="341.5">data_distribution</text><text fill="#000000" font-family="sans-serif" font-size="14" lengthAdjust="spacing" textLength="12" x="149" y="341.5">   </text><line style="stroke:#000000;stroke-width:1.0;" x1="144" x2="144" y1="325.9648" y2="346.4531"/><rect fill="none" height="81.9531" rx="5" ry="5" style="stroke:#000000;stroke-width:1.5;" width="183" x="10" y="264.5"/><rect fill="#F1F1F1" height="40.9766" rx="5" ry="5" style="stroke:#F1F1F1;stroke-width:1.5;" width="189" x="230" y="235"/><text fill="#000000" font-family="sans-serif" font-size="14" font-weight="bold" lengthAdjust="spacing" textLength="111" x="235" y="250.5352">total_null_rows</text><text fill="#000000" font-family="sans-serif" font-size="14" lengthAdjust="spacing" textLength="9" x="387" y="250.5352">0</text><line style="stroke:#000000;stroke-width:1.0;" x1="382" x2="382" y1="235" y2="255.4883"/><line style="stroke:#000000;stroke-width:1.0;" x1="230" x2="419" y1="255.4883" y2="255.4883"/><text fill="#000000" font-family="sans-serif" font-size="14" font-weight="bold" lengthAdjust="spacing" textLength="142" x="235" y="271.0234">total_not_null_rows</text><text fill="#000000" font-family="sans-serif" font-size="14" lengthAdjust="spacing" textLength="27" x="387" y="271.0234">238</text><line style="stroke:#000000;stroke-width:1.0;" x1="382" x2="382" y1="255.4883" y2="275.9766"/><rect fill="none" height="40.9766" rx="5" ry="5" style="stroke:#000000;stroke-width:1.5;" width="189" x="230" y="235"/><rect fill="#F1F1F1" height="204.8828" rx="5" ry="5" style="stroke:#F1F1F1;stroke-width:1.5;" width="22" x="312.5" y="294"/><text fill="#000000" font-family="sans-serif" font-size="14" lengthAdjust="spacing" textLength="12" x="317.5" y="309.5352">   </text><line style="stroke:#000000;stroke-width:1.0;" x1="312.5" x2="334.5" y1="314.4883" y2="314.4883"/><text fill="#000000" font-family="sans-serif" font-size="14" lengthAdjust="spacing" textLength="12" x="317.5" y="330.0234">   </text><line style="stroke:#000000;stroke-width:1.0;" x1="312.5" x2="334.5" y1="334.9766" y2="334.9766"/><text fill="#000000" font-family="sans-serif" font-size="14" lengthAdjust="spacing" textLength="12" x="317.5" y="350.5117">   </text><line style="stroke:#000000;stroke-width:1.0;" x1="312.5" x2="334.5" y1="355.4648" y2="355.4648"/><text fill="#000000" font-family="sans-serif" font-size="14" lengthAdjust="spacing" textLength="12" x="317.5" y="371">   </text><line style="stroke:#000000;stroke-width:1.0;" x1="312.5" x2="334.5" y1="375.9531" y2="375.9531"/><text fill="#000000" font-family="sans-serif" font-size="14" lengthAdjust="spacing" textLength="12" x="317.5" y="391.4883">   </text><line style="stroke:#000000;stroke-width:1.0;" x1="312.5" x2="334.5" y1="396.4414" y2="396.4414"/><text fill="#000000" font-family="sans-serif" font-size="14" lengthAdjust="spacing" textLength="12" x="317.5" y="411.9766">   </text><line style="stroke:#000000;stroke-width:1.0;" x1="312.5" x2="334.5" y1="416.9297" y2="416.9297"/><text fill="#000000" font-family="sans-serif" font-size="14" lengthAdjust="spacing" textLength="12" x="317.5" y="432.4648">   </text><line style="stroke:#000000;stroke-width:1.0;" x1="312.5" x2="334.5" y1="437.418" y2="437.418"/><text fill="#000000" font-family="sans-serif" font-size="14" lengthAdjust="spacing" textLength="12" x="317.5" y="452.9531">   </text><line style="stroke:#000000;stroke-width:1.0;" x1="312.5" x2="334.5" y1="457.9063" y2="457.9063"/><text fill="#000000" font-family="sans-serif" font-size="14" lengthAdjust="spacing" textLength="12" x="317.5" y="473.4414">   </text><line style="stroke:#000000;stroke-width:1.0;" x1="312.5" x2="334.5" y1="478.3945" y2="478.3945"/><text fill="#000000" font-family="sans-serif" font-size="14" lengthAdjust="spacing" textLength="12" x="317.5" y="493.9297">   </text><rect fill="none" height="204.8828" rx="5" ry="5" style="stroke:#000000;stroke-width:1.5;" width="22" x="312.5" y="294"/><rect fill="#F1F1F1" height="61.4648" rx="5" ry="5" style="stroke:#F1F1F1;stroke-width:1.5;" width="280" x="456" y="10"/><text fill="#000000" font-family="sans-serif" font-size="14" font-weight="bold" lengthAdjust="spacing" textLength="78" x="461" y="25.5352">field_value</text><text fill="#000000" font-family="sans-serif" font-size="14" lengthAdjust="spacing" textLength="58" x="565" y="25.5352">Armenia</text><line style="stroke:#000000;stroke-width:1.0;" x1="560" x2="560" y1="10" y2="30.4883"/><line style="stroke:#000000;stroke-width:1.0;" x1="456" x2="736" y1="30.4883" y2="30.4883"/><text fill="#000000" font-family="sans-serif" font-size="14" font-weight="bold" lengthAdjust="spacing" textLength="74" x="461" y="46.0234">row_count</text><text fill="#000000" font-family="sans-serif" font-size="14" lengthAdjust="spacing" textLength="9" x="565" y="46.0234">1</text><line style="stroke:#000000;stroke-width:1.0;" x1="560" x2="560" y1="30.4883" y2="50.9766"/><line style="stroke:#000000;stroke-width:1.0;" x1="456" x2="736" y1="50.9766" y2="50.9766"/><text fill="#000000" font-family="sans-serif" font-size="14" font-weight="bold" lengthAdjust="spacing" textLength="94" x="461" y="66.5117">ratio_percent</text><text fill="#000000" font-family="sans-serif" font-size="14" lengthAdjust="spacing" textLength="166" x="565" y="66.5117">0.42016806722689076</text><line style="stroke:#000000;stroke-width:1.0;" x1="560" x2="560" y1="50.9766" y2="71.4648"/><rect fill="none" height="61.4648" rx="5" ry="5" style="stroke:#000000;stroke-width:1.5;" width="280" x="456" y="10"/><rect fill="#F1F1F1" height="61.4648" rx="5" ry="5" style="stroke:#F1F1F1;stroke-width:1.5;" width="280" x="456" y="89"/><text fill="#000000" font-family="sans-serif" font-size="14" font-weight="bold" lengthAdjust="spacing" textLength="78" x="461" y="104.5352">field_value</text><text fill="#000000" font-family="sans-serif" font-size="14" lengthAdjust="spacing" textLength="68" x="565" y="104.5352">Argentina</text><line style="stroke:#000000;stroke-width:1.0;" x1="560" x2="560" y1="89" y2="109.4883"/><line style="stroke:#000000;stroke-width:1.0;" x1="456" x2="736" y1="109.4883" y2="109.4883"/><text fill="#000000" font-family="sans-serif" font-size="14" font-weight="bold" lengthAdjust="spacing" textLength="74" x="461" y="125.0234">row_count</text><text fill="#000000" font-family="sans-serif" font-size="14" lengthAdjust="spacing" textLength="9" x="565" y="125.0234">1</text><line style="stroke:#000000;stroke-width:1.0;" x1="560" x2="560" y1="109.4883" y2="129.9766"/><line style="stroke:#000000;stroke-width:1.0;" x1="456" x2="736" y1="129.9766" y2="129.9766"/><text fill="#000000" font-family="sans-serif" font-size="14" font-weight="bold" lengthAdjust="spacing" textLength="94" x="461" y="145.5117">ratio_percent</text><text fill="#000000" font-family="sans-serif" font-size="14" lengthAdjust="spacing" textLength="166" x="565" y="145.5117">0.42016806722689076</text><line style="stroke:#000000;stroke-width:1.0;" x1="560" x2="560" y1="129.9766" y2="150.4648"/><rect fill="none" height="61.4648" rx="5" ry="5" style="stroke:#000000;stroke-width:1.5;" width="280" x="456" y="89"/><rect fill="#F1F1F1" height="61.4648" rx="5" ry="5" style="stroke:#F1F1F1;stroke-width:1.5;" width="280" x="456" y="168"/><text fill="#000000" font-family="sans-serif" font-size="14" font-weight="bold" lengthAdjust="spacing" textLength="78" x="461" y="183.5352">field_value</text><text fill="#000000" font-family="sans-serif" font-size="14" lengthAdjust="spacing" textLength="145" x="565" y="183.5352">Antigua and Barbuda</text><line style="stroke:#000000;stroke-width:1.0;" x1="560" x2="560" y1="168" y2="188.4883"/><line style="stroke:#000000;stroke-width:1.0;" x1="456" x2="736" y1="188.4883" y2="188.4883"/><text fill="#000000" font-family="sans-serif" font-size="14" font-weight="bold" lengthAdjust="spacing" textLength="74" x="461" y="204.0234">row_count</text><text fill="#000000" font-family="sans-serif" font-size="14" lengthAdjust="spacing" textLength="9" x="565" y="204.0234">1</text><line style="stroke:#000000;stroke-width:1.0;" x1="560" x2="560" y1="188.4883" y2="208.9766"/><line style="stroke:#000000;stroke-width:1.0;" x1="456" x2="736" y1="208.9766" y2="208.9766"/><text fill="#000000" font-family="sans-serif" font-size="14" font-weight="bold" lengthAdjust="spacing" textLength="94" x="461" y="224.5117">ratio_percent</text><text fill="#000000" font-family="sans-serif" font-size="14" lengthAdjust="spacing" textLength="166" x="565" y="224.5117">0.42016806722689076</text><line style="stroke:#000000;stroke-width:1.0;" x1="560" x2="560" y1="208.9766" y2="229.4648"/><rect fill="none" height="61.4648" rx="5" ry="5" style="stroke:#000000;stroke-width:1.5;" width="280" x="456" y="168"/><rect fill="#F1F1F1" height="61.4648" rx="5" ry="5" style="stroke:#F1F1F1;stroke-width:1.5;" width="280" x="456" y="247"/><text fill="#000000" font-family="sans-serif" font-size="14" font-weight="bold" lengthAdjust="spacing" textLength="78" x="461" y="262.5352">field_value</text><text fill="#000000" font-family="sans-serif" font-size="14" lengthAdjust="spacing" textLength="69" x="565" y="262.5352">Antarctica</text><line style="stroke:#000000;stroke-width:1.0;" x1="560" x2="560" y1="247" y2="267.4883"/><line style="stroke:#000000;stroke-width:1.0;" x1="456" x2="736" y1="267.4883" y2="267.4883"/><text fill="#000000" font-family="sans-serif" font-size="14" font-weight="bold" lengthAdjust="spacing" textLength="74" x="461" y="283.0234">row_count</text><text fill="#000000" font-family="sans-serif" font-size="14" lengthAdjust="spacing" textLength="9" x="565" y="283.0234">1</text><line style="stroke:#000000;stroke-width:1.0;" x1="560" x2="560" y1="267.4883" y2="287.9766"/><line style="stroke:#000000;stroke-width:1.0;" x1="456" x2="736" y1="287.9766" y2="287.9766"/><text fill="#000000" font-family="sans-serif" font-size="14" font-weight="bold" lengthAdjust="spacing" textLength="94" x="461" y="303.5117">ratio_percent</text><text fill="#000000" font-family="sans-serif" font-size="14" lengthAdjust="spacing" textLength="166" x="565" y="303.5117">0.42016806722689076</text><line style="stroke:#000000;stroke-width:1.0;" x1="560" x2="560" y1="287.9766" y2="308.4648"/><rect fill="none" height="61.4648" rx="5" ry="5" style="stroke:#000000;stroke-width:1.5;" width="280" x="456" y="247"/><rect fill="#F1F1F1" height="61.4648" rx="5" ry="5" style="stroke:#F1F1F1;stroke-width:1.5;" width="280" x="456" y="326"/><text fill="#000000" font-family="sans-serif" font-size="14" font-weight="bold" lengthAdjust="spacing" textLength="78" x="461" y="341.5352">field_value</text><text fill="#000000" font-family="sans-serif" font-size="14" lengthAdjust="spacing" textLength="57" x="565" y="341.5352">Anguilla</text><line style="stroke:#000000;stroke-width:1.0;" x1="560" x2="560" y1="326" y2="346.4883"/><line style="stroke:#000000;stroke-width:1.0;" x1="456" x2="736" y1="346.4883" y2="346.4883"/><text fill="#000000" font-family="sans-serif" font-size="14" font-weight="bold" lengthAdjust="spacing" textLength="74" x="461" y="362.0234">row_count</text><text fill="#000000" font-family="sans-serif" font-size="14" lengthAdjust="spacing" textLength="9" x="565" y="362.0234">1</text><line style="stroke:#000000;stroke-width:1.0;" x1="560" x2="560" y1="346.4883" y2="366.9766"/><line style="stroke:#000000;stroke-width:1.0;" x1="456" x2="736" y1="366.9766" y2="366.9766"/><text fill="#000000" font-family="sans-serif" font-size="14" font-weight="bold" lengthAdjust="spacing" textLength="94" x="461" y="382.5117">ratio_percent</text><text fill="#000000" font-family="sans-serif" font-size="14" lengthAdjust="spacing" textLength="166" x="565" y="382.5117">0.42016806722689076</text><line style="stroke:#000000;stroke-width:1.0;" x1="560" x2="560" y1="366.9766" y2="387.4648"/><rect fill="none" height="61.4648" rx="5" ry="5" style="stroke:#000000;stroke-width:1.5;" width="280" x="456" y="326"/><rect fill="#F1F1F1" height="61.4648" rx="5" ry="5" style="stroke:#F1F1F1;stroke-width:1.5;" width="280" x="456" y="405"/><text fill="#000000" font-family="sans-serif" font-size="14" font-weight="bold" lengthAdjust="spacing" textLength="78" x="461" y="420.5352">field_value</text><text fill="#000000" font-family="sans-serif" font-size="14" lengthAdjust="spacing" textLength="49" x="565" y="420.5352">Angola</text><line style="stroke:#000000;stroke-width:1.0;" x1="560" x2="560" y1="405" y2="425.4883"/><line style="stroke:#000000;stroke-width:1.0;" x1="456" x2="736" y1="425.4883" y2="425.4883"/><text fill="#000000" font-family="sans-serif" font-size="14" font-weight="bold" lengthAdjust="spacing" textLength="74" x="461" y="441.0234">row_count</text><text fill="#000000" font-family="sans-serif" font-size="14" lengthAdjust="spacing" textLength="9" x="565" y="441.0234">1</text><line style="stroke:#000000;stroke-width:1.0;" x1="560" x2="560" y1="425.4883" y2="445.9766"/><line style="stroke:#000000;stroke-width:1.0;" x1="456" x2="736" y1="445.9766" y2="445.9766"/><text fill="#000000" font-family="sans-serif" font-size="14" font-weight="bold" lengthAdjust="spacing" textLength="94" x="461" y="461.5117">ratio_percent</text><text fill="#000000" font-family="sans-serif" font-size="14" lengthAdjust="spacing" textLength="166" x="565" y="461.5117">0.42016806722689076</text><line style="stroke:#000000;stroke-width:1.0;" x1="560" x2="560" y1="445.9766" y2="466.4648"/><rect fill="none" height="61.4648" rx="5" ry="5" style="stroke:#000000;stroke-width:1.5;" width="280" x="456" y="405"/><rect fill="#F1F1F1" height="61.4648" rx="5" ry="5" style="stroke:#F1F1F1;stroke-width:1.5;" width="280" x="456" y="484"/><text fill="#000000" font-family="sans-serif" font-size="14" font-weight="bold" lengthAdjust="spacing" textLength="78" x="461" y="499.5352">field_value</text><text fill="#000000" font-family="sans-serif" font-size="14" lengthAdjust="spacing" textLength="57" x="565" y="499.5352">Andorra</text><line style="stroke:#000000;stroke-width:1.0;" x1="560" x2="560" y1="484" y2="504.4883"/><line style="stroke:#000000;stroke-width:1.0;" x1="456" x2="736" y1="504.4883" y2="504.4883"/><text fill="#000000" font-family="sans-serif" font-size="14" font-weight="bold" lengthAdjust="spacing" textLength="74" x="461" y="520.0234">row_count</text><text fill="#000000" font-family="sans-serif" font-size="14" lengthAdjust="spacing" textLength="9" x="565" y="520.0234">1</text><line style="stroke:#000000;stroke-width:1.0;" x1="560" x2="560" y1="504.4883" y2="524.9766"/><line style="stroke:#000000;stroke-width:1.0;" x1="456" x2="736" y1="524.9766" y2="524.9766"/><text fill="#000000" font-family="sans-serif" font-size="14" font-weight="bold" lengthAdjust="spacing" textLength="94" x="461" y="540.5117">ratio_percent</text><text fill="#000000" font-family="sans-serif" font-size="14" lengthAdjust="spacing" textLength="166" x="565" y="540.5117">0.42016806722689076</text><line style="stroke:#000000;stroke-width:1.0;" x1="560" x2="560" y1="524.9766" y2="545.4648"/><rect fill="none" height="61.4648" rx="5" ry="5" style="stroke:#000000;stroke-width:1.5;" width="280" x="456" y="484"/><rect fill="#F1F1F1" height="61.4648" rx="5" ry="5" style="stroke:#F1F1F1;stroke-width:1.5;" width="280" x="456" y="563"/><text fill="#000000" font-family="sans-serif" font-size="14" font-weight="bold" lengthAdjust="spacing" textLength="78" x="461" y="578.5352">field_value</text><text fill="#000000" font-family="sans-serif" font-size="14" lengthAdjust="spacing" textLength="115" x="565" y="578.5352">American Samoa</text><line style="stroke:#000000;stroke-width:1.0;" x1="560" x2="560" y1="563" y2="583.4883"/><line style="stroke:#000000;stroke-width:1.0;" x1="456" x2="736" y1="583.4883" y2="583.4883"/><text fill="#000000" font-family="sans-serif" font-size="14" font-weight="bold" lengthAdjust="spacing" textLength="74" x="461" y="599.0234">row_count</text><text fill="#000000" font-family="sans-serif" font-size="14" lengthAdjust="spacing" textLength="9" x="565" y="599.0234">1</text><line style="stroke:#000000;stroke-width:1.0;" x1="560" x2="560" y1="583.4883" y2="603.9766"/><line style="stroke:#000000;stroke-width:1.0;" x1="456" x2="736" y1="603.9766" y2="603.9766"/><text fill="#000000" font-family="sans-serif" font-size="14" font-weight="bold" lengthAdjust="spacing" textLength="94" x="461" y="619.5117">ratio_percent</text><text fill="#000000" font-family="sans-serif" font-size="14" lengthAdjust="spacing" textLength="166" x="565" y="619.5117">0.42016806722689076</text><line style="stroke:#000000;stroke-width:1.0;" x1="560" x2="560" y1="603.9766" y2="624.4648"/><rect fill="none" height="61.4648" rx="5" ry="5" style="stroke:#000000;stroke-width:1.5;" width="280" x="456" y="563"/><rect fill="#F1F1F1" height="61.4648" rx="5" ry="5" style="stroke:#F1F1F1;stroke-width:1.5;" width="280" x="456" y="642"/><text fill="#000000" font-family="sans-serif" font-size="14" font-weight="bold" lengthAdjust="spacing" textLength="78" x="461" y="657.5352">field_value</text><text fill="#000000" font-family="sans-serif" font-size="14" lengthAdjust="spacing" textLength="49" x="565" y="657.5352">Algeria</text><line style="stroke:#000000;stroke-width:1.0;" x1="560" x2="560" y1="642" y2="662.4883"/><line style="stroke:#000000;stroke-width:1.0;" x1="456" x2="736" y1="662.4883" y2="662.4883"/><text fill="#000000" font-family="sans-serif" font-size="14" font-weight="bold" lengthAdjust="spacing" textLength="74" x="461" y="678.0234">row_count</text><text fill="#000000" font-family="sans-serif" font-size="14" lengthAdjust="spacing" textLength="9" x="565" y="678.0234">1</text><line style="stroke:#000000;stroke-width:1.0;" x1="560" x2="560" y1="662.4883" y2="682.9766"/><line style="stroke:#000000;stroke-width:1.0;" x1="456" x2="736" y1="682.9766" y2="682.9766"/><text fill="#000000" font-family="sans-serif" font-size="14" font-weight="bold" lengthAdjust="spacing" textLength="94" x="461" y="698.5117">ratio_percent</text><text fill="#000000" font-family="sans-serif" font-size="14" lengthAdjust="spacing" textLength="166" x="565" y="698.5117">0.42016806722689076</text><line style="stroke:#000000;stroke-width:1.0;" x1="560" x2="560" y1="682.9766" y2="703.4648"/><rect fill="none" height="61.4648" rx="5" ry="5" style="stroke:#000000;stroke-width:1.5;" width="280" x="456" y="642"/><rect fill="#F1F1F1" height="61.4648" rx="5" ry="5" style="stroke:#F1F1F1;stroke-width:1.5;" width="280" x="456" y="721"/><text fill="#000000" font-family="sans-serif" font-size="14" font-weight="bold" lengthAdjust="spacing" textLength="78" x="461" y="736.5352">field_value</text><text fill="#000000" font-family="sans-serif" font-size="14" lengthAdjust="spacing" textLength="52" x="565" y="736.5352">Albania</text><line style="stroke:#000000;stroke-width:1.0;" x1="560" x2="560" y1="721" y2="741.4883"/><line style="stroke:#000000;stroke-width:1.0;" x1="456" x2="736" y1="741.4883" y2="741.4883"/><text fill="#000000" font-family="sans-serif" font-size="14" font-weight="bold" lengthAdjust="spacing" textLength="74" x="461" y="757.0234">row_count</text><text fill="#000000" font-family="sans-serif" font-size="14" lengthAdjust="spacing" textLength="9" x="565" y="757.0234">1</text><line style="stroke:#000000;stroke-width:1.0;" x1="560" x2="560" y1="741.4883" y2="761.9766"/><line style="stroke:#000000;stroke-width:1.0;" x1="456" x2="736" y1="761.9766" y2="761.9766"/><text fill="#000000" font-family="sans-serif" font-size="14" font-weight="bold" lengthAdjust="spacing" textLength="94" x="461" y="777.5117">ratio_percent</text><text fill="#000000" font-family="sans-serif" font-size="14" lengthAdjust="spacing" textLength="166" x="565" y="777.5117">0.42016806722689076</text><line style="stroke:#000000;stroke-width:1.0;" x1="560" x2="560" y1="761.9766" y2="782.4648"/><rect fill="none" height="61.4648" rx="5" ry="5" style="stroke:#000000;stroke-width:1.5;" width="280" x="456" y="721"/><path d="M181,315.5 L194,315.5 C214.8273,315.5 211.7406,295.5187 230,285.5 C234.1394,283.2288 238.4771,281.0988 242.9224,279.1061 " fill="none" style="stroke:#000000;stroke-width:1.0;stroke-dasharray:3.0,3.0;"/><path d="M244.1301,281.9305 L245.0407,278.2004 L241.7148,276.2817 L249.9835,276.0871 L244.1301,281.9305 " fill="#000000" style="stroke:#000000;stroke-width:1.0;"/><ellipse cx="181" cy="315.5" fill="#000000" rx="3" ry="3" style="stroke:#000000;stroke-width:1.0;"/><path d="M325,303.5 L338,303.5 C375.3122,303.5 394.1906,312.4458 420,285.5 C484.2901,218.3792 393.6323,148.4107 456,79.5 C457.0125,78.3813 458.0541,77.2936 459.123,76.2361 " fill="none" style="stroke:#000000;stroke-width:1.0;stroke-dasharray:3.0,3.0;"/><path d="M461.139,78.4612 L460.7918,74.7241 L457.107,74.0111 L464.6857,71.1961 L461.139,78.4612 " fill="#000000" style="stroke:#000000;stroke-width:1.0;"/><ellipse cx="325" cy="303.5" fill="#000000" rx="3" ry="3" style="stroke:#000000;stroke-width:1.0;"/><path d="M325,324.5 L338,324.5 C378.3564,324.5 393.9543,316.3264 420,285.5 C457.864,240.686 414.4404,199.9099 456,158.5 C457.2303,157.2742 458.4957,156.0861 459.7935,154.9346 " fill="none" style="stroke:#000000;stroke-width:1.0;stroke-dasharray:3.0,3.0;"/><path d="M461.7206,157.2901 L461.5601,153.4893 L457.8664,152.579 L465.6824,150.1169 L461.7206,157.2901 " fill="#000000" style="stroke:#000000;stroke-width:1.0;"/><ellipse cx="325" cy="324.5" fill="#000000" rx="3" ry="3" style="stroke:#000000;stroke-width:1.0;"/><path d="M325,344.5 L338,344.5 C382.8977,344.5 387.9398,316.9316 420,285.5 C439.0419,266.8314 433.9903,252.5561 456,237.5 C458.3707,235.8783 460.8075,234.3236 463.2999,232.8333 " fill="none" style="stroke:#000000;stroke-width:1.0;stroke-dasharray:3.0,3.0;"/><path d="M464.8186,235.5213 L465.3159,231.6943 L461.7813,230.1454 L470.0198,229.0367 L464.8186,235.5213 " fill="#000000" style="stroke:#000000;stroke-width:1.0;"/><ellipse cx="325" cy="344.5" fill="#000000" rx="3" ry="3" style="stroke:#000000;stroke-width:1.0;"/><path d="M325,365.5 L338,365.5 C394.6174,365.5 402.489,335.9959 456,317.5 C462.9651,315.0925 470.1598,312.713 477.4405,310.3865 " fill="none" style="stroke:#000000;stroke-width:1.0;stroke-dasharray:3.0,3.0;"/><path d="M478.3637,313.3081 L479.6318,309.6941 L476.5173,307.4648 L484.7447,308.0785 L478.3637,313.3081 " fill="#000000" style="stroke:#000000;stroke-width:1.0;"/><ellipse cx="325" cy="365.5" fill="#000000" rx="3" ry="3" style="stroke:#000000;stroke-width:1.0;"/><path d="M325,385.5 L338,385.5 C373.91,385.5 412.461,382.6805 448.5148,378.7999 " fill="none" style="stroke:#000000;stroke-width:1.0;stroke-dasharray:3.0,3.0;"/><path d="M448.8522,381.8614 L450.8109,378.5468 L448.1773,375.7384 L456.1685,377.9563 L448.8522,381.8614 " fill="#000000" style="stroke:#000000;stroke-width:1.0;"/><ellipse cx="325" cy="385.5" fill="#000000" rx="3" ry="3" style="stroke:#000000;stroke-width:1.0;"/><path d="M325,406.5 L338,406.5 C373.91,406.5 412.461,409.3195 448.5148,413.2001 " fill="none" style="stroke:#000000;stroke-width:1.0;stroke-dasharray:3.0,3.0;"/><path d="M448.1773,416.2616 L450.8109,413.4532 L448.8522,410.1386 L456.1685,414.0437 L448.1773,416.2616 " fill="#000000" style="stroke:#000000;stroke-width:1.0;"/><ellipse cx="325" cy="406.5" fill="#000000" rx="3" ry="3" style="stroke:#000000;stroke-width:1.0;"/><path d="M325,427.5 L338,427.5 C394.6174,427.5 402.4279,457.1817 456,475.5 C462.0714,477.576 468.3183,479.6257 474.6455,481.6335 " fill="none" style="stroke:#000000;stroke-width:1.0;stroke-dasharray:3.0,3.0;"/><path d="M473.7107,484.617 L476.8831,482.3346 L475.5803,478.65 L482.1042,483.9705 L473.7107,484.617 " fill="#000000" style="stroke:#000000;stroke-width:1.0;"/><ellipse cx="325" cy="427.5" fill="#000000" rx="3" ry="3" style="stroke:#000000;stroke-width:1.0;"/><path d="M325,447.5 L338,447.5 C408.7951,447.5 394.0275,520.2749 456,554.5 C459.3536,556.3521 462.8021,558.1218 466.3223,559.8125 " fill="none" style="stroke:#000000;stroke-width:1.0;stroke-dasharray:3.0,3.0;"/><path d="M465.0604,562.5533 L468.3779,560.7589 L467.5842,557.0718 L473.1742,562.9672 L465.0604,562.5533 " fill="#000000" style="stroke:#000000;stroke-width:1.0;"/><ellipse cx="325" cy="447.5" fill="#000000" rx="3" ry="3" style="stroke:#000000;stroke-width:1.0;"/><path d="M325,468.5 L338,468.5 C428.1565,468.5 382.1702,581.7568 456,633.5 C458.2975,635.1102 460.6596,636.654 463.0764,638.1344 " fill="none" style="stroke:#000000;stroke-width:1.0;stroke-dasharray:3.0,3.0;"/><path d="M461.5676,640.7417 L465.0319,639.2659 L464.5852,635.527 L469.5948,641.9063 L461.5676,640.7417 " fill="#000000" style="stroke:#000000;stroke-width:1.0;"/><ellipse cx="325" cy="468.5" fill="#000000" rx="3" ry="3" style="stroke:#000000;stroke-width:1.0;"/><path d="M325,488.5 L338,488.5 C450.5243,488.5 368.4532,641.8085 456,712.5 C457.7425,713.907 459.5327,715.2634 461.365,716.5709 " fill="none" style="stroke:#000000;stroke-width:1.0;stroke-dasharray:3.0,3.0;"/><path d="M459.6611,719.1247 L463.2803,717.8488 L463.0689,714.0171 L467.7495,720.8306 L459.6611,719.1247 " fill="#000000" style="stroke:#000000;stroke-width:1.0;"/><ellipse cx="325" cy="488.5" fill="#000000" rx="3" ry="3" style="stroke:#000000;stroke-width:1.0;"/><path d="M181,336.5 L194,336.5 C237.8518,336.5 283.0003,364.993 306.8339,382.7089 " fill="none" style="stroke:#000000;stroke-width:1.0;stroke-dasharray:3.0,3.0;"/><path d="M304.9625,385.1642 L308.6753,384.1124 L308.7052,380.2536 L312.9721,387.3873 L304.9625,385.1642 " fill="#000000" style="stroke:#000000;stroke-width:1.0;"/><ellipse cx="181" cy="336.5" fill="#000000" rx="3" ry="3" style="stroke:#000000;stroke-width:1.0;"/><!--MD5=[d1ceada7b06b99a99c8af98c97cbc3f1]
@startjson
{
    "field1": "Name",
    "combination": "Name",
    "null_distribution": {
        "total_null_rows": 0,
        "total_not_null_rows": 238
    },
    "data_distribution": [
        {
            "field_value": "Armenia",
            "row_count": 1,
            "ratio_percent": 0.42016806722689076
        },
        {
            "field_value": "Argentina",
            "row_count": 1,
            "ratio_percent": 0.42016806722689076
        },
        {
            "field_value": "Antigua and Barbuda",
            "row_count": 1,
            "ratio_percent": 0.42016806722689076
        },
        {
            "field_value": "Antarctica",
            "row_count": 1,
            "ratio_percent": 0.42016806722689076
        },
        {
            "field_value": "Anguilla",
            "row_count": 1,
            "ratio_percent": 0.42016806722689076
        },
        {
            "field_value": "Angola",
            "row_count": 1,
            "ratio_percent": 0.42016806722689076
        },
        {
            "field_value": "Andorra",
            "row_count": 1,
            "ratio_percent": 0.42016806722689076
        },
        {
            "field_value": "American Samoa",
            "row_count": 1,
            "ratio_percent": 0.42016806722689076
        },
        {
            "field_value": "Algeria",
            "row_count": 1,
            "ratio_percent": 0.42016806722689076
        },
        {
            "field_value": "Albania",
            "row_count": 1,
            "ratio_percent": 0.42016806722689076
        }
    ]
}
@endjson

PlantUML version 1.2022.5(Sat Apr 30 06:55:52 EDT 2022)
(GPL source distribution)
Java Runtime: OpenJDK Runtime Environment
JVM: OpenJDK 64-Bit Server VM
Default Encoding: UTF-8
Language: en
Country: CA
--></g></svg>