<?xml version="1.0" encoding="UTF-8" standalone="no"?><svg xmlns="http://www.w3.org/2000/svg" xmlns:xlink="http://www.w3.org/1999/xlink" contentStyleType="text/css" height="794px" preserveAspectRatio="none" style="width:710px;height:794px;background:#FFFFFF;" version="1.1" viewBox="0 0 710 794" width="710px" zoomAndPan="magnify"><defs/><g><rect fill="#F1F1F1" height="81.9531" rx="5" ry="5" style="stroke:#F1F1F1;stroke-width:1.5;" width="253" x="10" y="264.5"/><text fill="#000000" font-family="sans-serif" font-size="14" font-weight="bold" lengthAdjust="spacing" textLength="42" x="15" y="280.0352">field1</text><text fill="#000000" font-family="sans-serif" font-size="14" lengthAdjust="spacing" textLength="109" x="149" y="280.0352">ProductModelID</text><line style="stroke:#000000;stroke-width:1.0;" x1="144" x2="144" y1="264.5" y2="284.9883"/><line style="stroke:#000000;stroke-width:1.0;" x1="10" x2="263" y1="284.9883" y2="284.9883"/><text fill="#000000" font-family="sans-serif" font-size="14" font-weight="bold" lengthAdjust="spacing" textLength="90" x="15" y="300.5234">combination</text><text fill="#000000" font-family="sans-serif" font-size="14" lengthAdjust="spacing" textLength="109" x="149" y="300.5234">ProductModelID</text><line style="stroke:#000000;stroke-width:1.0;" x1="144" x2="144" y1="284.9883" y2="305.4766"/><line style="stroke:#000000;stroke-width:1.0;" x1="10" x2="263" y1="305.4766" y2="305.4766"/><text fill="#000000" font-family="sans-serif" font-size="14" font-weight="bold" lengthAdjust="spacing" textLength="121" x="15" y="321.0117">null_distribution</text><text fill="#000000" font-family="sans-serif" font-size="14" lengthAdjust="spacing" textLength="12" x="149" y="321.0117">   </text><line style="stroke:#000000;stroke-width:1.0;" x1="144" x2="144" y1="305.4766" y2="325.9648"/><line style="stroke:#000000;stroke-width:1.0;" x1="10" x2="263" y1="325.9648" y2="325.9648"/><text fill="#000000" font-family="sans-serif" font-size="14" font-weight="bold" lengthAdjust="spacing" textLength="124" x="15" y="341.5">data_distribution</text><text fill="#000000" font-family="sans-serif" font-size="14" lengthAdjust="spacing" textLength="12" x="149" y="341.5">   </text><line style="stroke:#000000;stroke-width:1.0;" x1="144" x2="144" y1="325.9648" y2="346.4531"/><rect fill="none" height="81.9531" rx="5" ry="5" style="stroke:#000000;stroke-width:1.5;" width="253" x="10" y="264.5"/><rect fill="#F1F1F1" height="40.9766" rx="5" ry="5" style="stroke:#F1F1F1;stroke-width:1.5;" width="189" x="300" y="235"/><text fill="#000000" font-family="sans-serif" font-size="14" font-weight="bold" lengthAdjust="spacing" textLength="111" x="305" y="250.5352">total_null_rows</text><text fill="#000000" font-family="sans-serif" font-size="14" lengthAdjust="spacing" textLength="9" x="457" y="250.5352">0</text><line style="stroke:#000000;stroke-width:1.0;" x1="452" x2="452" y1="235" y2="255.4883"/><line style="stroke:#000000;stroke-width:1.0;" x1="300" x2="489" y1="255.4883" y2="255.4883"/><text fill="#000000" font-family="sans-serif" font-size="14" font-weight="bold" lengthAdjust="spacing" textLength="142" x="305" y="271.0234">total_not_null_rows</text><text fill="#000000" font-family="sans-serif" font-size="14" lengthAdjust="spacing" textLength="27" x="457" y="271.0234">128</text><line style="stroke:#000000;stroke-width:1.0;" x1="452" x2="452" y1="255.4883" y2="275.9766"/><rect fill="none" height="40.9766" rx="5" ry="5" style="stroke:#000000;stroke-width:1.5;" width="189" x="300" y="235"/><rect fill="#F1F1F1" height="204.8828" rx="5" ry="5" style="stroke:#F1F1F1;stroke-width:1.5;" width="22" x="382.5" y="294"/><text fill="#000000" font-family="sans-serif" font-size="14" lengthAdjust="spacing" textLength="12" x="387.5" y="309.5352">   </text><line style="stroke:#000000;stroke-width:1.0;" x1="382.5" x2="404.5" y1="314.4883" y2="314.4883"/><text fill="#000000" font-family="sans-serif" font-size="14" lengthAdjust="spacing" textLength="12" x="387.5" y="330.0234">   </text><line style="stroke:#000000;stroke-width:1.0;" x1="382.5" x2="404.5" y1="334.9766" y2="334.9766"/><text fill="#000000" font-family="sans-serif" font-size="14" lengthAdjust="spacing" textLength="12" x="387.5" y="350.5117">   </text><line style="stroke:#000000;stroke-width:1.0;" x1="382.5" x2="404.5" y1="355.4648" y2="355.4648"/><text fill="#000000" font-family="sans-serif" font-size="14" lengthAdjust="spacing" textLength="12" x="387.5" y="371">   </text><line style="stroke:#000000;stroke-width:1.0;" x1="382.5" x2="404.5" y1="375.9531" y2="375.9531"/><text fill="#000000" font-family="sans-serif" font-size="14" lengthAdjust="spacing" textLength="12" x="387.5" y="391.4883">   </text><line style="stroke:#000000;stroke-width:1.0;" x1="382.5" x2="404.5" y1="396.4414" y2="396.4414"/><text fill="#000000" font-family="sans-serif" font-size="14" lengthAdjust="spacing" textLength="12" x="387.5" y="411.9766">   </text><line style="stroke:#000000;stroke-width:1.0;" x1="382.5" x2="404.5" y1="416.9297" y2="416.9297"/><text fill="#000000" font-family="sans-serif" font-size="14" lengthAdjust="spacing" textLength="12" x="387.5" y="432.4648">   </text><line style="stroke:#000000;stroke-width:1.0;" x1="382.5" x2="404.5" y1="437.418" y2="437.418"/><text fill="#000000" font-family="sans-serif" font-size="14" lengthAdjust="spacing" textLength="12" x="387.5" y="452.9531">   </text><line style="stroke:#000000;stroke-width:1.0;" x1="382.5" x2="404.5" y1="457.9063" y2="457.9063"/><text fill="#000000" font-family="sans-serif" font-size="14" lengthAdjust="spacing" textLength="12" x="387.5" y="473.4414">   </text><line style="stroke:#000000;stroke-width:1.0;" x1="382.5" x2="404.5" y1="478.3945" y2="478.3945"/><text fill="#000000" font-family="sans-serif" font-size="14" lengthAdjust="spacing" textLength="12" x="387.5" y="493.9297">   </text><rect fill="none" height="204.8828" rx="5" ry="5" style="stroke:#000000;stroke-width:1.5;" width="22" x="382.5" y="294"/><rect fill="#F1F1F1" height="61.4648" rx="5" ry="5" style="stroke:#F1F1F1;stroke-width:1.5;" width="172" x="526" y="10"/><text fill="#000000" font-family="sans-serif" font-size="14" font-weight="bold" lengthAdjust="spacing" textLength="78" x="531" y="25.5352">field_value</text><text fill="#000000" font-family="sans-serif" font-size="14" lengthAdjust="spacing" textLength="27" x="635" y="25.5352">108</text><line style="stroke:#000000;stroke-width:1.0;" x1="630" x2="630" y1="10" y2="30.4883"/><line style="stroke:#000000;stroke-width:1.0;" x1="526" x2="698" y1="30.4883" y2="30.4883"/><text fill="#000000" font-family="sans-serif" font-size="14" font-weight="bold" lengthAdjust="spacing" textLength="74" x="531" y="46.0234">row_count</text><text fill="#000000" font-family="sans-serif" font-size="14" lengthAdjust="spacing" textLength="9" x="635" y="46.0234">1</text><line style="stroke:#000000;stroke-width:1.0;" x1="630" x2="630" y1="30.4883" y2="50.9766"/><line style="stroke:#000000;stroke-width:1.0;" x1="526" x2="698" y1="50.9766" y2="50.9766"/><text fill="#000000" font-family="sans-serif" font-size="14" font-weight="bold" lengthAdjust="spacing" textLength="94" x="531" y="66.5117">ratio_percent</text><text fill="#000000" font-family="sans-serif" font-size="14" lengthAdjust="spacing" textLength="58" x="635" y="66.5117">0.78125</text><line style="stroke:#000000;stroke-width:1.0;" x1="630" x2="630" y1="50.9766" y2="71.4648"/><rect fill="none" height="61.4648" rx="5" ry="5" style="stroke:#000000;stroke-width:1.5;" width="172" x="526" y="10"/><rect fill="#F1F1F1" height="61.4648" rx="5" ry="5" style="stroke:#F1F1F1;stroke-width:1.5;" width="172" x="526" y="89"/><text fill="#000000" font-family="sans-serif" font-size="14" font-weight="bold" lengthAdjust="spacing" textLength="78" x="531" y="104.5352">field_value</text><text fill="#000000" font-family="sans-serif" font-size="14" lengthAdjust="spacing" textLength="27" x="635" y="104.5352">107</text><line style="stroke:#000000;stroke-width:1.0;" x1="630" x2="630" y1="89" y2="109.4883"/><line style="stroke:#000000;stroke-width:1.0;" x1="526" x2="698" y1="109.4883" y2="109.4883"/><text fill="#000000" font-family="sans-serif" font-size="14" font-weight="bold" lengthAdjust="spacing" textLength="74" x="531" y="125.0234">row_count</text><text fill="#000000" font-family="sans-serif" font-size="14" lengthAdjust="spacing" textLength="9" x="635" y="125.0234">1</text><line style="stroke:#000000;stroke-width:1.0;" x1="630" x2="630" y1="109.4883" y2="129.9766"/><line style="stroke:#000000;stroke-width:1.0;" x1="526" x2="698" y1="129.9766" y2="129.9766"/><text fill="#000000" font-family="sans-serif" font-size="14" font-weight="bold" lengthAdjust="spacing" textLength="94" x="531" y="145.5117">ratio_percent</text><text fill="#000000" font-family="sans-serif" font-size="14" lengthAdjust="spacing" textLength="58" x="635" y="145.5117">0.78125</text><line style="stroke:#000000;stroke-width:1.0;" x1="630" x2="630" y1="129.9766" y2="150.4648"/><rect fill="none" height="61.4648" rx="5" ry="5" style="stroke:#000000;stroke-width:1.5;" width="172" x="526" y="89"/><rect fill="#F1F1F1" height="61.4648" rx="5" ry="5" style="stroke:#F1F1F1;stroke-width:1.5;" width="172" x="526" y="168"/><text fill="#000000" font-family="sans-serif" font-size="14" font-weight="bold" lengthAdjust="spacing" textLength="78" x="531" y="183.5352">field_value</text><text fill="#000000" font-family="sans-serif" font-size="14" lengthAdjust="spacing" textLength="27" x="635" y="183.5352">106</text><line style="stroke:#000000;stroke-width:1.0;" x1="630" x2="630" y1="168" y2="188.4883"/><line style="stroke:#000000;stroke-width:1.0;" x1="526" x2="698" y1="188.4883" y2="188.4883"/><text fill="#000000" font-family="sans-serif" font-size="14" font-weight="bold" lengthAdjust="spacing" textLength="74" x="531" y="204.0234">row_count</text><text fill="#000000" font-family="sans-serif" font-size="14" lengthAdjust="spacing" textLength="9" x="635" y="204.0234">1</text><line style="stroke:#000000;stroke-width:1.0;" x1="630" x2="630" y1="188.4883" y2="208.9766"/><line style="stroke:#000000;stroke-width:1.0;" x1="526" x2="698" y1="208.9766" y2="208.9766"/><text fill="#000000" font-family="sans-serif" font-size="14" font-weight="bold" lengthAdjust="spacing" textLength="94" x="531" y="224.5117">ratio_percent</text><text fill="#000000" font-family="sans-serif" font-size="14" lengthAdjust="spacing" textLength="58" x="635" y="224.5117">0.78125</text><line style="stroke:#000000;stroke-width:1.0;" x1="630" x2="630" y1="208.9766" y2="229.4648"/><rect fill="none" height="61.4648" rx="5" ry="5" style="stroke:#000000;stroke-width:1.5;" width="172" x="526" y="168"/><rect fill="#F1F1F1" height="61.4648" rx="5" ry="5" style="stroke:#F1F1F1;stroke-width:1.5;" width="172" x="526" y="247"/><text fill="#000000" font-family="sans-serif" font-size="14" font-weight="bold" lengthAdjust="spacing" textLength="78" x="531" y="262.5352">field_value</text><text fill="#000000" font-family="sans-serif" font-size="14" lengthAdjust="spacing" textLength="27" x="635" y="262.5352">105</text><line style="stroke:#000000;stroke-width:1.0;" x1="630" x2="630" y1="247" y2="267.4883"/><line style="stroke:#000000;stroke-width:1.0;" x1="526" x2="698" y1="267.4883" y2="267.4883"/><text fill="#000000" font-family="sans-serif" font-size="14" font-weight="bold" lengthAdjust="spacing" textLength="74" x="531" y="283.0234">row_count</text><text fill="#000000" font-family="sans-serif" font-size="14" lengthAdjust="spacing" textLength="9" x="635" y="283.0234">1</text><line style="stroke:#000000;stroke-width:1.0;" x1="630" x2="630" y1="267.4883" y2="287.9766"/><line style="stroke:#000000;stroke-width:1.0;" x1="526" x2="698" y1="287.9766" y2="287.9766"/><text fill="#000000" font-family="sans-serif" font-size="14" font-weight="bold" lengthAdjust="spacing" textLength="94" x="531" y="303.5117">ratio_percent</text><text fill="#000000" font-family="sans-serif" font-size="14" lengthAdjust="spacing" textLength="58" x="635" y="303.5117">0.78125</text><line style="stroke:#000000;stroke-width:1.0;" x1="630" x2="630" y1="287.9766" y2="308.4648"/><rect fill="none" height="61.4648" rx="5" ry="5" style="stroke:#000000;stroke-width:1.5;" width="172" x="526" y="247"/><rect fill="#F1F1F1" height="61.4648" rx="5" ry="5" style="stroke:#F1F1F1;stroke-width:1.5;" width="172" x="526" y="326"/><text fill="#000000" font-family="sans-serif" font-size="14" font-weight="bold" lengthAdjust="spacing" textLength="78" x="531" y="341.5352">field_value</text><text fill="#000000" font-family="sans-serif" font-size="14" lengthAdjust="spacing" textLength="27" x="635" y="341.5352">104</text><line style="stroke:#000000;stroke-width:1.0;" x1="630" x2="630" y1="326" y2="346.4883"/><line style="stroke:#000000;stroke-width:1.0;" x1="526" x2="698" y1="346.4883" y2="346.4883"/><text fill="#000000" font-family="sans-serif" font-size="14" font-weight="bold" lengthAdjust="spacing" textLength="74" x="531" y="362.0234">row_count</text><text fill="#000000" font-family="sans-serif" font-size="14" lengthAdjust="spacing" textLength="9" x="635" y="362.0234">1</text><line style="stroke:#000000;stroke-width:1.0;" x1="630" x2="630" y1="346.4883" y2="366.9766"/><line style="stroke:#000000;stroke-width:1.0;" x1="526" x2="698" y1="366.9766" y2="366.9766"/><text fill="#000000" font-family="sans-serif" font-size="14" font-weight="bold" lengthAdjust="spacing" textLength="94" x="531" y="382.5117">ratio_percent</text><text fill="#000000" font-family="sans-serif" font-size="14" lengthAdjust="spacing" textLength="58" x="635" y="382.5117">0.78125</text><line style="stroke:#000000;stroke-width:1.0;" x1="630" x2="630" y1="366.9766" y2="387.4648"/><rect fill="none" height="61.4648" rx="5" ry="5" style="stroke:#000000;stroke-width:1.5;" width="172" x="526" y="326"/><rect fill="#F1F1F1" height="61.4648" rx="5" ry="5" style="stroke:#F1F1F1;stroke-width:1.5;" width="172" x="526" y="405"/><text fill="#000000" font-family="sans-serif" font-size="14" font-weight="bold" lengthAdjust="spacing" textLength="78" x="531" y="420.5352">field_value</text><text fill="#000000" font-family="sans-serif" font-size="14" lengthAdjust="spacing" textLength="27" x="635" y="420.5352">103</text><line style="stroke:#000000;stroke-width:1.0;" x1="630" x2="630" y1="405" y2="425.4883"/><line style="stroke:#000000;stroke-width:1.0;" x1="526" x2="698" y1="425.4883" y2="425.4883"/><text fill="#000000" font-family="sans-serif" font-size="14" font-weight="bold" lengthAdjust="spacing" textLength="74" x="531" y="441.0234">row_count</text><text fill="#000000" font-family="sans-serif" font-size="14" lengthAdjust="spacing" textLength="9" x="635" y="441.0234">1</text><line style="stroke:#000000;stroke-width:1.0;" x1="630" x2="630" y1="425.4883" y2="445.9766"/><line style="stroke:#000000;stroke-width:1.0;" x1="526" x2="698" y1="445.9766" y2="445.9766"/><text fill="#000000" font-family="sans-serif" font-size="14" font-weight="bold" lengthAdjust="spacing" textLength="94" x="531" y="461.5117">ratio_percent</text><text fill="#000000" font-family="sans-serif" font-size="14" lengthAdjust="spacing" textLength="58" x="635" y="461.5117">0.78125</text><line style="stroke:#000000;stroke-width:1.0;" x1="630" x2="630" y1="445.9766" y2="466.4648"/><rect fill="none" height="61.4648" rx="5" ry="5" style="stroke:#000000;stroke-width:1.5;" width="172" x="526" y="405"/><rect fill="#F1F1F1" height="61.4648" rx="5" ry="5" style="stroke:#F1F1F1;stroke-width:1.5;" width="172" x="526" y="484"/><text fill="#000000" font-family="sans-serif" font-size="14" font-weight="bold" lengthAdjust="spacing" textLength="78" x="531" y="499.5352">field_value</text><text fill="#000000" font-family="sans-serif" font-size="14" lengthAdjust="spacing" textLength="27" x="635" y="499.5352">102</text><line style="stroke:#000000;stroke-width:1.0;" x1="630" x2="630" y1="484" y2="504.4883"/><line style="stroke:#000000;stroke-width:1.0;" x1="526" x2="698" y1="504.4883" y2="504.4883"/><text fill="#000000" font-family="sans-serif" font-size="14" font-weight="bold" lengthAdjust="spacing" textLength="74" x="531" y="520.0234">row_count</text><text fill="#000000" font-family="sans-serif" font-size="14" lengthAdjust="spacing" textLength="9" x="635" y="520.0234">1</text><line style="stroke:#000000;stroke-width:1.0;" x1="630" x2="630" y1="504.4883" y2="524.9766"/><line style="stroke:#000000;stroke-width:1.0;" x1="526" x2="698" y1="524.9766" y2="524.9766"/><text fill="#000000" font-family="sans-serif" font-size="14" font-weight="bold" lengthAdjust="spacing" textLength="94" x="531" y="540.5117">ratio_percent</text><text fill="#000000" font-family="sans-serif" font-size="14" lengthAdjust="spacing" textLength="58" x="635" y="540.5117">0.78125</text><line style="stroke:#000000;stroke-width:1.0;" x1="630" x2="630" y1="524.9766" y2="545.4648"/><rect fill="none" height="61.4648" rx="5" ry="5" style="stroke:#000000;stroke-width:1.5;" width="172" x="526" y="484"/><rect fill="#F1F1F1" height="61.4648" rx="5" ry="5" style="stroke:#F1F1F1;stroke-width:1.5;" width="172" x="526" y="563"/><text fill="#000000" font-family="sans-serif" font-size="14" font-weight="bold" lengthAdjust="spacing" textLength="78" x="531" y="578.5352">field_value</text><text fill="#000000" font-family="sans-serif" font-size="14" lengthAdjust="spacing" textLength="27" x="635" y="578.5352">101</text><line style="stroke:#000000;stroke-width:1.0;" x1="630" x2="630" y1="563" y2="583.4883"/><line style="stroke:#000000;stroke-width:1.0;" x1="526" x2="698" y1="583.4883" y2="583.4883"/><text fill="#000000" font-family="sans-serif" font-size="14" font-weight="bold" lengthAdjust="spacing" textLength="74" x="531" y="599.0234">row_count</text><text fill="#000000" font-family="sans-serif" font-size="14" lengthAdjust="spacing" textLength="9" x="635" y="599.0234">1</text><line style="stroke:#000000;stroke-width:1.0;" x1="630" x2="630" y1="583.4883" y2="603.9766"/><line style="stroke:#000000;stroke-width:1.0;" x1="526" x2="698" y1="603.9766" y2="603.9766"/><text fill="#000000" font-family="sans-serif" font-size="14" font-weight="bold" lengthAdjust="spacing" textLength="94" x="531" y="619.5117">ratio_percent</text><text fill="#000000" font-family="sans-serif" font-size="14" lengthAdjust="spacing" textLength="58" x="635" y="619.5117">0.78125</text><line style="stroke:#000000;stroke-width:1.0;" x1="630" x2="630" y1="603.9766" y2="624.4648"/><rect fill="none" height="61.4648" rx="5" ry="5" style="stroke:#000000;stroke-width:1.5;" width="172" x="526" y="563"/><rect fill="#F1F1F1" height="61.4648" rx="5" ry="5" style="stroke:#F1F1F1;stroke-width:1.5;" width="172" x="526" y="642"/><text fill="#000000" font-family="sans-serif" font-size="14" font-weight="bold" lengthAdjust="spacing" textLength="78" x="531" y="657.5352">field_value</text><text fill="#000000" font-family="sans-serif" font-size="14" lengthAdjust="spacing" textLength="27" x="635" y="657.5352">100</text><line style="stroke:#000000;stroke-width:1.0;" x1="630" x2="630" y1="642" y2="662.4883"/><line style="stroke:#000000;stroke-width:1.0;" x1="526" x2="698" y1="662.4883" y2="662.4883"/><text fill="#000000" font-family="sans-serif" font-size="14" font-weight="bold" lengthAdjust="spacing" textLength="74" x="531" y="678.0234">row_count</text><text fill="#000000" font-family="sans-serif" font-size="14" lengthAdjust="spacing" textLength="9" x="635" y="678.0234">1</text><line style="stroke:#000000;stroke-width:1.0;" x1="630" x2="630" y1="662.4883" y2="682.9766"/><line style="stroke:#000000;stroke-width:1.0;" x1="526" x2="698" y1="682.9766" y2="682.9766"/><text fill="#000000" font-family="sans-serif" font-size="14" font-weight="bold" lengthAdjust="spacing" textLength="94" x="531" y="698.5117">ratio_percent</text><text fill="#000000" font-family="sans-serif" font-size="14" lengthAdjust="spacing" textLength="58" x="635" y="698.5117">0.78125</text><line style="stroke:#000000;stroke-width:1.0;" x1="630" x2="630" y1="682.9766" y2="703.4648"/><rect fill="none" height="61.4648" rx="5" ry="5" style="stroke:#000000;stroke-width:1.5;" width="172" x="526" y="642"/><rect fill="#F1F1F1" height="61.4648" rx="5" ry="5" style="stroke:#F1F1F1;stroke-width:1.5;" width="172" x="526" y="721"/><text fill="#000000" font-family="sans-serif" font-size="14" font-weight="bold" lengthAdjust="spacing" textLength="78" x="531" y="736.5352">field_value</text><text fill="#000000" font-family="sans-serif" font-size="14" lengthAdjust="spacing" textLength="18" x="635" y="736.5352">10</text><line style="stroke:#000000;stroke-width:1.0;" x1="630" x2="630" y1="721" y2="741.4883"/><line style="stroke:#000000;stroke-width:1.0;" x1="526" x2="698" y1="741.4883" y2="741.4883"/><text fill="#000000" font-family="sans-serif" font-size="14" font-weight="bold" lengthAdjust="spacing" textLength="74" x="531" y="757.0234">row_count</text><text fill="#000000" font-family="sans-serif" font-size="14" lengthAdjust="spacing" textLength="9" x="635" y="757.0234">1</text><line style="stroke:#000000;stroke-width:1.0;" x1="630" x2="630" y1="741.4883" y2="761.9766"/><line style="stroke:#000000;stroke-width:1.0;" x1="526" x2="698" y1="761.9766" y2="761.9766"/><text fill="#000000" font-family="sans-serif" font-size="14" font-weight="bold" lengthAdjust="spacing" textLength="94" x="531" y="777.5117">ratio_percent</text><text fill="#000000" font-family="sans-serif" font-size="14" lengthAdjust="spacing" textLength="58" x="635" y="777.5117">0.78125</text><line style="stroke:#000000;stroke-width:1.0;" x1="630" x2="630" y1="761.9766" y2="782.4648"/><rect fill="none" height="61.4648" rx="5" ry="5" style="stroke:#000000;stroke-width:1.5;" width="172" x="526" y="721"/><path d="M251,315.5 L264,315.5 C284.8273,315.5 281.7406,295.5187 300,285.5 C304.1394,283.2288 308.4771,281.0988 312.9224,279.1061 " fill="none" style="stroke:#000000;stroke-width:1.0;stroke-dasharray:3.0,3.0;"/><path d="M314.1301,281.9305 L315.0407,278.2004 L311.7148,276.2817 L319.9835,276.0871 L314.1301,281.9305 " fill="#000000" style="stroke:#000000;stroke-width:1.0;"/><ellipse cx="251" cy="315.5" fill="#000000" rx="3" ry="3" style="stroke:#000000;stroke-width:1.0;"/><path d="M395,305.5 L395,292.5 C395,281.9158 482.1531,292.6029 490,285.5 C558.9064,223.1275 469.1672,153.0422 526,79.5 C526.717,78.5721 527.4612,77.6656 528.2305,76.78 " fill="none" style="stroke:#000000;stroke-width:1.0;stroke-dasharray:3.0,3.0;"/><path d="M530.4491,78.9473 L529.8559,75.116 L526.0118,74.6127 L533.6487,71.2333 L530.4491,78.9473 " fill="#000000" style="stroke:#000000;stroke-width:1.0;"/><ellipse cx="395" cy="305.5" fill="#000000" rx="3" ry="3" style="stroke:#000000;stroke-width:1.0;"/><path d="M395,324.5 L408,324.5 C448.3564,324.5 463.9543,316.3264 490,285.5 C527.864,240.686 487.7788,203.0097 526,158.5 C526.8769,157.4788 527.7861,156.483 528.7245,155.5119 " fill="none" style="stroke:#000000;stroke-width:1.0;stroke-dasharray:3.0,3.0;"/><path d="M530.8426,157.7816 L530.4268,153.9233 L526.6064,153.2422 L534.3987,150.2167 L530.8426,157.7816 " fill="#000000" style="stroke:#000000;stroke-width:1.0;"/><ellipse cx="395" cy="324.5" fill="#000000" rx="3" ry="3" style="stroke:#000000;stroke-width:1.0;"/><path d="M395,344.5 L408,344.5 C452.8977,344.5 457.9398,316.9316 490,285.5 C509.0419,266.8314 505.2249,254.2185 526,237.5 C527.7278,236.1096 529.5133,234.7568 531.3453,233.4417 " fill="none" style="stroke:#000000;stroke-width:1.0;stroke-dasharray:3.0,3.0;"/><path d="M533.0759,235.9986 L533.263,232.1437 L529.6146,230.8847 L537.7377,229.115 L533.0759,235.9986 " fill="#000000" style="stroke:#000000;stroke-width:1.0;"/><ellipse cx="395" cy="344.5" fill="#000000" rx="3" ry="3" style="stroke:#000000;stroke-width:1.0;"/><path d="M395,365.5 L408,365.5 C415.1288,365.5 482.1713,336.023 537.3881,311.1894 " fill="none" style="stroke:#000000;stroke-width:1.0;stroke-dasharray:3.0,3.0;"/><path d="M538.6514,313.9951 L539.4924,310.2419 L536.1248,308.3837 L544.4024,308.0312 L538.6514,313.9951 " fill="#000000" style="stroke:#000000;stroke-width:1.0;"/><ellipse cx="395" cy="365.5" fill="#000000" rx="3" ry="3" style="stroke:#000000;stroke-width:1.0;"/><path d="M395,385.5 L408,385.5 C444.3294,385.5 483.9454,380.9141 518.4893,375.3897 " fill="none" style="stroke:#000000;stroke-width:1.0;stroke-dasharray:3.0,3.0;"/><path d="M518.9965,378.4885 L520.8134,375.0093 L517.9821,372.2908 L526.2363,374.1217 L518.9965,378.4885 " fill="#000000" style="stroke:#000000;stroke-width:1.0;"/><ellipse cx="395" cy="385.5" fill="#000000" rx="3" ry="3" style="stroke:#000000;stroke-width:1.0;"/><path d="M395,406.5 L408,406.5 C444.3294,406.5 483.9454,411.0859 518.4893,416.6103 " fill="none" style="stroke:#000000;stroke-width:1.0;stroke-dasharray:3.0,3.0;"/><path d="M517.9821,419.7092 L520.8134,416.9907 L518.9965,413.5115 L526.2363,417.8783 L517.9821,419.7092 " fill="#000000" style="stroke:#000000;stroke-width:1.0;"/><ellipse cx="395" cy="406.5" fill="#000000" rx="3" ry="3" style="stroke:#000000;stroke-width:1.0;"/><path d="M395,427.5 L408,427.5 C415.0816,427.5 481.5111,456.3598 536.5763,480.8356 " fill="none" style="stroke:#000000;stroke-width:1.0;stroke-dasharray:3.0,3.0;"/><path d="M535.3308,483.6346 L538.6756,481.7697 L537.8219,478.0366 L543.5738,483.9494 L535.3308,483.6346 " fill="#000000" style="stroke:#000000;stroke-width:1.0;"/><ellipse cx="395" cy="427.5" fill="#000000" rx="3" ry="3" style="stroke:#000000;stroke-width:1.0;"/><path d="M395,447.5 L408,447.5 C478.7951,447.5 466.8699,515.5695 526,554.5 C528.3166,556.0252 530.7025,557.5198 533.1383,558.9812 " fill="none" style="stroke:#000000;stroke-width:1.0;stroke-dasharray:3.0,3.0;"/><path d="M531.6228,561.6016 L535.1037,560.1178 L534.6539,556.3607 L539.6895,562.77 L531.6228,561.6016 " fill="#000000" style="stroke:#000000;stroke-width:1.0;"/><ellipse cx="395" cy="447.5" fill="#000000" rx="3" ry="3" style="stroke:#000000;stroke-width:1.0;"/><path d="M395,468.5 L408,468.5 C498.1565,468.5 456.4076,576.1843 526,633.5 C527.712,634.91 529.4832,636.2801 531.3026,637.6108 " fill="none" style="stroke:#000000;stroke-width:1.0;stroke-dasharray:3.0,3.0;"/><path d="M529.5536,640.1529 L533.2091,638.9225 L533.0515,635.0687 L537.6578,641.9831 L529.5536,640.1529 " fill="#000000" style="stroke:#000000;stroke-width:1.0;"/><ellipse cx="395" cy="468.5" fill="#000000" rx="3" ry="3" style="stroke:#000000;stroke-width:1.0;"/><path d="M395,487.5 L395,500.5 C395,611.2594 442.9224,639.2486 526,712.5 C527.4991,713.8218 529.0505,715.1064 530.6458,716.3543 " fill="none" style="stroke:#000000;stroke-width:1.0;stroke-dasharray:3.0,3.0;"/><path d="M528.7927,718.8954 L532.5516,717.7441 L532.4988,713.8132 L536.9986,720.987 L528.7927,718.8954 " fill="#000000" style="stroke:#000000;stroke-width:1.0;"/><ellipse cx="395" cy="487.5" fill="#000000" rx="3" ry="3" style="stroke:#000000;stroke-width:1.0;"/><path d="M251,336.5 L264,336.5 C307.8518,336.5 353.0003,364.993 376.8339,382.7089 " fill="none" style="stroke:#000000;stroke-width:1.0;stroke-dasharray:3.0,3.0;"/><path d="M374.9625,385.1642 L378.6753,384.1124 L378.7052,380.2536 L382.9721,387.3873 L374.9625,385.1642 " fill="#000000" style="stroke:#000000;stroke-width:1.0;"/><ellipse cx="251" cy="336.5" fill="#000000" rx="3" ry="3" style="stroke:#000000;stroke-width:1.0;"/><!--MD5=[7db9057b648019fbb8eed1bddb34959d]
@startjson
{
    "field1": "ProductModelID",
    "combination": "ProductModelID",
    "null_distribution": {
        "total_null_rows": 0,
        "total_not_null_rows": 128
    },
    "data_distribution": [
        {
            "field_value": "108",
            "row_count": 1,
            "ratio_percent": 0.78125
        },
        {
            "field_value": "107",
            "row_count": 1,
            "ratio_percent": 0.78125
        },
        {
            "field_value": "106",
            "row_count": 1,
            "ratio_percent": 0.78125
        },
        {
            "field_value": "105",
            "row_count": 1,
            "ratio_percent": 0.78125
        },
        {
            "field_value": "104",
            "row_count": 1,
            "ratio_percent": 0.78125
        },
        {
            "field_value": "103",
            "row_count": 1,
            "ratio_percent": 0.78125
        },
        {
            "field_value": "102",
            "row_count": 1,
            "ratio_percent": 0.78125
        },
        {
            "field_value": "101",
            "row_count": 1,
            "ratio_percent": 0.78125
        },
        {
            "field_value": "100",
            "row_count": 1,
            "ratio_percent": 0.78125
        },
        {
            "field_value": "10",
            "row_count": 1,
            "ratio_percent": 0.78125
        }
    ]
}
@endjson

PlantUML version 1.2022.5(Sat Apr 30 06:55:52 EDT 2022)
(GPL source distribution)
Java Runtime: OpenJDK Runtime Environment
JVM: OpenJDK 64-Bit Server VM
Default Encoding: UTF-8
Language: en
Country: CA
--></g></svg>