<?xml version="1.0" encoding="UTF-8" standalone="no"?><svg xmlns="http://www.w3.org/2000/svg" xmlns:xlink="http://www.w3.org/1999/xlink" contentStyleType="text/css" height="794px" preserveAspectRatio="none" style="width:919px;height:794px;background:#FFFFFF;" version="1.1" viewBox="0 0 919 794" width="919px" zoomAndPan="magnify"><defs/><g><rect fill="#F1F1F1" height="81.9531" rx="5" ry="5" style="stroke:#F1F1F1;stroke-width:1.5;" width="201" x="10" y="264.5"/><text fill="#000000" font-family="sans-serif" font-size="14" font-weight="bold" lengthAdjust="spacing" textLength="42" x="15" y="280.0352">field1</text><text fill="#000000" font-family="sans-serif" font-size="14" lengthAdjust="spacing" textLength="57" x="149" y="280.0352">rowguid</text><line style="stroke:#000000;stroke-width:1.0;" x1="144" x2="144" y1="264.5" y2="284.9883"/><line style="stroke:#000000;stroke-width:1.0;" x1="10" x2="211" y1="284.9883" y2="284.9883"/><text fill="#000000" font-family="sans-serif" font-size="14" font-weight="bold" lengthAdjust="spacing" textLength="90" x="15" y="300.5234">combination</text><text fill="#000000" font-family="sans-serif" font-size="14" lengthAdjust="spacing" textLength="57" x="149" y="300.5234">rowguid</text><line style="stroke:#000000;stroke-width:1.0;" x1="144" x2="144" y1="284.9883" y2="305.4766"/><line style="stroke:#000000;stroke-width:1.0;" x1="10" x2="211" y1="305.4766" y2="305.4766"/><text fill="#000000" font-family="sans-serif" font-size="14" font-weight="bold" lengthAdjust="spacing" textLength="121" x="15" y="321.0117">null_distribution</text><text fill="#000000" font-family="sans-serif" font-size="14" lengthAdjust="spacing" textLength="12" x="149" y="321.0117">   </text><line style="stroke:#000000;stroke-width:1.0;" x1="144" x2="144" y1="305.4766" y2="325.9648"/><line style="stroke:#000000;stroke-width:1.0;" x1="10" x2="211" y1="325.9648" y2="325.9648"/><text fill="#000000" font-family="sans-serif" font-size="14" font-weight="bold" lengthAdjust="spacing" textLength="124" x="15" y="341.5">data_distribution</text><text fill="#000000" font-family="sans-serif" font-size="14" lengthAdjust="spacing" textLength="12" x="149" y="341.5">   </text><line style="stroke:#000000;stroke-width:1.0;" x1="144" x2="144" y1="325.9648" y2="346.4531"/><rect fill="none" height="81.9531" rx="5" ry="5" style="stroke:#000000;stroke-width:1.5;" width="201" x="10" y="264.5"/><rect fill="#F1F1F1" height="40.9766" rx="5" ry="5" style="stroke:#F1F1F1;stroke-width:1.5;" width="180" x="248" y="235"/><text fill="#000000" font-family="sans-serif" font-size="14" font-weight="bold" lengthAdjust="spacing" textLength="111" x="253" y="250.5352">total_null_rows</text><text fill="#000000" font-family="sans-serif" font-size="14" lengthAdjust="spacing" textLength="9" x="405" y="250.5352">0</text><line style="stroke:#000000;stroke-width:1.0;" x1="400" x2="400" y1="235" y2="255.4883"/><line style="stroke:#000000;stroke-width:1.0;" x1="248" x2="428" y1="255.4883" y2="255.4883"/><text fill="#000000" font-family="sans-serif" font-size="14" font-weight="bold" lengthAdjust="spacing" textLength="142" x="253" y="271.0234">total_not_null_rows</text><text fill="#000000" font-family="sans-serif" font-size="14" lengthAdjust="spacing" textLength="18" x="405" y="271.0234">13</text><line style="stroke:#000000;stroke-width:1.0;" x1="400" x2="400" y1="255.4883" y2="275.9766"/><rect fill="none" height="40.9766" rx="5" ry="5" style="stroke:#000000;stroke-width:1.5;" width="180" x="248" y="235"/><rect fill="#F1F1F1" height="204.8828" rx="5" ry="5" style="stroke:#F1F1F1;stroke-width:1.5;" width="22" x="326" y="294"/><text fill="#000000" font-family="sans-serif" font-size="14" lengthAdjust="spacing" textLength="12" x="331" y="309.5352">   </text><line style="stroke:#000000;stroke-width:1.0;" x1="326" x2="348" y1="314.4883" y2="314.4883"/><text fill="#000000" font-family="sans-serif" font-size="14" lengthAdjust="spacing" textLength="12" x="331" y="330.0234">   </text><line style="stroke:#000000;stroke-width:1.0;" x1="326" x2="348" y1="334.9766" y2="334.9766"/><text fill="#000000" font-family="sans-serif" font-size="14" lengthAdjust="spacing" textLength="12" x="331" y="350.5117">   </text><line style="stroke:#000000;stroke-width:1.0;" x1="326" x2="348" y1="355.4648" y2="355.4648"/><text fill="#000000" font-family="sans-serif" font-size="14" lengthAdjust="spacing" textLength="12" x="331" y="371">   </text><line style="stroke:#000000;stroke-width:1.0;" x1="326" x2="348" y1="375.9531" y2="375.9531"/><text fill="#000000" font-family="sans-serif" font-size="14" lengthAdjust="spacing" textLength="12" x="331" y="391.4883">   </text><line style="stroke:#000000;stroke-width:1.0;" x1="326" x2="348" y1="396.4414" y2="396.4414"/><text fill="#000000" font-family="sans-serif" font-size="14" lengthAdjust="spacing" textLength="12" x="331" y="411.9766">   </text><line style="stroke:#000000;stroke-width:1.0;" x1="326" x2="348" y1="416.9297" y2="416.9297"/><text fill="#000000" font-family="sans-serif" font-size="14" lengthAdjust="spacing" textLength="12" x="331" y="432.4648">   </text><line style="stroke:#000000;stroke-width:1.0;" x1="326" x2="348" y1="437.418" y2="437.418"/><text fill="#000000" font-family="sans-serif" font-size="14" lengthAdjust="spacing" textLength="12" x="331" y="452.9531">   </text><line style="stroke:#000000;stroke-width:1.0;" x1="326" x2="348" y1="457.9063" y2="457.9063"/><text fill="#000000" font-family="sans-serif" font-size="14" lengthAdjust="spacing" textLength="12" x="331" y="473.4414">   </text><line style="stroke:#000000;stroke-width:1.0;" x1="326" x2="348" y1="478.3945" y2="478.3945"/><text fill="#000000" font-family="sans-serif" font-size="14" lengthAdjust="spacing" textLength="12" x="331" y="493.9297">   </text><rect fill="none" height="204.8828" rx="5" ry="5" style="stroke:#000000;stroke-width:1.5;" width="22" x="326" y="294"/><rect fill="#F1F1F1" height="61.4648" rx="5" ry="5" style="stroke:#F1F1F1;stroke-width:1.5;" width="432" x="470" y="10"/><text fill="#000000" font-family="sans-serif" font-size="14" font-weight="bold" lengthAdjust="spacing" textLength="78" x="475" y="25.5352">field_value</text><text fill="#000000" font-family="sans-serif" font-size="14" lengthAdjust="spacing" textLength="318" x="579" y="25.5352">B706C1D6-FB99-40B5-844C-6EE54701BA0D</text><line style="stroke:#000000;stroke-width:1.0;" x1="574" x2="574" y1="10" y2="30.4883"/><line style="stroke:#000000;stroke-width:1.0;" x1="470" x2="902" y1="30.4883" y2="30.4883"/><text fill="#000000" font-family="sans-serif" font-size="14" font-weight="bold" lengthAdjust="spacing" textLength="74" x="475" y="46.0234">row_count</text><text fill="#000000" font-family="sans-serif" font-size="14" lengthAdjust="spacing" textLength="9" x="579" y="46.0234">1</text><line style="stroke:#000000;stroke-width:1.0;" x1="574" x2="574" y1="30.4883" y2="50.9766"/><line style="stroke:#000000;stroke-width:1.0;" x1="470" x2="902" y1="50.9766" y2="50.9766"/><text fill="#000000" font-family="sans-serif" font-size="14" font-weight="bold" lengthAdjust="spacing" textLength="94" x="475" y="66.5117">ratio_percent</text><text fill="#000000" font-family="sans-serif" font-size="14" lengthAdjust="spacing" textLength="157" x="579" y="66.5117">7.6923076923076925</text><line style="stroke:#000000;stroke-width:1.0;" x1="574" x2="574" y1="50.9766" y2="71.4648"/><rect fill="none" height="61.4648" rx="5" ry="5" style="stroke:#000000;stroke-width:1.5;" width="432" x="470" y="10"/><rect fill="#F1F1F1" height="61.4648" rx="5" ry="5" style="stroke:#F1F1F1;stroke-width:1.5;" width="432" x="470" y="89"/><text fill="#000000" font-family="sans-serif" font-size="14" font-weight="bold" lengthAdjust="spacing" textLength="78" x="475" y="104.5352">field_value</text><text fill="#000000" font-family="sans-serif" font-size="14" lengthAdjust="spacing" textLength="318" x="579" y="104.5352">82F61D73-0BF5-44FF-AB99-DD73AEE9B9CC</text><line style="stroke:#000000;stroke-width:1.0;" x1="574" x2="574" y1="89" y2="109.4883"/><line style="stroke:#000000;stroke-width:1.0;" x1="470" x2="902" y1="109.4883" y2="109.4883"/><text fill="#000000" font-family="sans-serif" font-size="14" font-weight="bold" lengthAdjust="spacing" textLength="74" x="475" y="125.0234">row_count</text><text fill="#000000" font-family="sans-serif" font-size="14" lengthAdjust="spacing" textLength="9" x="579" y="125.0234">1</text><line style="stroke:#000000;stroke-width:1.0;" x1="574" x2="574" y1="109.4883" y2="129.9766"/><line style="stroke:#000000;stroke-width:1.0;" x1="470" x2="902" y1="129.9766" y2="129.9766"/><text fill="#000000" font-family="sans-serif" font-size="14" font-weight="bold" lengthAdjust="spacing" textLength="94" x="475" y="145.5117">ratio_percent</text><text fill="#000000" font-family="sans-serif" font-size="14" lengthAdjust="spacing" textLength="157" x="579" y="145.5117">7.6923076923076925</text><line style="stroke:#000000;stroke-width:1.0;" x1="574" x2="574" y1="129.9766" y2="150.4648"/><rect fill="none" height="61.4648" rx="5" ry="5" style="stroke:#000000;stroke-width:1.5;" width="432" x="470" y="89"/><rect fill="#F1F1F1" height="61.4648" rx="5" ry="5" style="stroke:#F1F1F1;stroke-width:1.5;" width="433" x="469.5" y="168"/><text fill="#000000" font-family="sans-serif" font-size="14" font-weight="bold" lengthAdjust="spacing" textLength="78" x="474.5" y="183.5352">field_value</text><text fill="#000000" font-family="sans-serif" font-size="14" lengthAdjust="spacing" textLength="319" x="578.5" y="183.5352">7EE72C7E-9800-44C1-B82D-6E34E8289CA1</text><line style="stroke:#000000;stroke-width:1.0;" x1="573.5" x2="573.5" y1="168" y2="188.4883"/><line style="stroke:#000000;stroke-width:1.0;" x1="469.5" x2="902.5" y1="188.4883" y2="188.4883"/><text fill="#000000" font-family="sans-serif" font-size="14" font-weight="bold" lengthAdjust="spacing" textLength="74" x="474.5" y="204.0234">row_count</text><text fill="#000000" font-family="sans-serif" font-size="14" lengthAdjust="spacing" textLength="9" x="578.5" y="204.0234">1</text><line style="stroke:#000000;stroke-width:1.0;" x1="573.5" x2="573.5" y1="188.4883" y2="208.9766"/><line style="stroke:#000000;stroke-width:1.0;" x1="469.5" x2="902.5" y1="208.9766" y2="208.9766"/><text fill="#000000" font-family="sans-serif" font-size="14" font-weight="bold" lengthAdjust="spacing" textLength="94" x="474.5" y="224.5117">ratio_percent</text><text fill="#000000" font-family="sans-serif" font-size="14" lengthAdjust="spacing" textLength="157" x="578.5" y="224.5117">7.6923076923076925</text><line style="stroke:#000000;stroke-width:1.0;" x1="573.5" x2="573.5" y1="208.9766" y2="229.4648"/><rect fill="none" height="61.4648" rx="5" ry="5" style="stroke:#000000;stroke-width:1.5;" width="433" x="469.5" y="168"/><rect fill="#F1F1F1" height="61.4648" rx="5" ry="5" style="stroke:#F1F1F1;stroke-width:1.5;" width="429" x="471.5" y="247"/><text fill="#000000" font-family="sans-serif" font-size="14" font-weight="bold" lengthAdjust="spacing" textLength="78" x="476.5" y="262.5352">field_value</text><text fill="#000000" font-family="sans-serif" font-size="14" lengthAdjust="spacing" textLength="315" x="580.5" y="262.5352">7ED4DEF5-D5BB-4818-8748-5BB5F8315FA2</text><line style="stroke:#000000;stroke-width:1.0;" x1="575.5" x2="575.5" y1="247" y2="267.4883"/><line style="stroke:#000000;stroke-width:1.0;" x1="471.5" x2="900.5" y1="267.4883" y2="267.4883"/><text fill="#000000" font-family="sans-serif" font-size="14" font-weight="bold" lengthAdjust="spacing" textLength="74" x="476.5" y="283.0234">row_count</text><text fill="#000000" font-family="sans-serif" font-size="14" lengthAdjust="spacing" textLength="9" x="580.5" y="283.0234">1</text><line style="stroke:#000000;stroke-width:1.0;" x1="575.5" x2="575.5" y1="267.4883" y2="287.9766"/><line style="stroke:#000000;stroke-width:1.0;" x1="471.5" x2="900.5" y1="287.9766" y2="287.9766"/><text fill="#000000" font-family="sans-serif" font-size="14" font-weight="bold" lengthAdjust="spacing" textLength="94" x="476.5" y="303.5117">ratio_percent</text><text fill="#000000" font-family="sans-serif" font-size="14" lengthAdjust="spacing" textLength="157" x="580.5" y="303.5117">7.6923076923076925</text><line style="stroke:#000000;stroke-width:1.0;" x1="575.5" x2="575.5" y1="287.9766" y2="308.4648"/><rect fill="none" height="61.4648" rx="5" ry="5" style="stroke:#000000;stroke-width:1.5;" width="429" x="471.5" y="247"/><rect fill="#F1F1F1" height="61.4648" rx="5" ry="5" style="stroke:#F1F1F1;stroke-width:1.5;" width="436" x="468" y="326"/><text fill="#000000" font-family="sans-serif" font-size="14" font-weight="bold" lengthAdjust="spacing" textLength="78" x="473" y="341.5352">field_value</text><text fill="#000000" font-family="sans-serif" font-size="14" lengthAdjust="spacing" textLength="322" x="577" y="341.5352">79D41FE8-39D7-4591-9A05-285A3E1AAFCB</text><line style="stroke:#000000;stroke-width:1.0;" x1="572" x2="572" y1="326" y2="346.4883"/><line style="stroke:#000000;stroke-width:1.0;" x1="468" x2="904" y1="346.4883" y2="346.4883"/><text fill="#000000" font-family="sans-serif" font-size="14" font-weight="bold" lengthAdjust="spacing" textLength="74" x="473" y="362.0234">row_count</text><text fill="#000000" font-family="sans-serif" font-size="14" lengthAdjust="spacing" textLength="9" x="577" y="362.0234">1</text><line style="stroke:#000000;stroke-width:1.0;" x1="572" x2="572" y1="346.4883" y2="366.9766"/><line style="stroke:#000000;stroke-width:1.0;" x1="468" x2="904" y1="366.9766" y2="366.9766"/><text fill="#000000" font-family="sans-serif" font-size="14" font-weight="bold" lengthAdjust="spacing" textLength="94" x="473" y="382.5117">ratio_percent</text><text fill="#000000" font-family="sans-serif" font-size="14" lengthAdjust="spacing" textLength="157" x="577" y="382.5117">7.6923076923076925</text><line style="stroke:#000000;stroke-width:1.0;" x1="572" x2="572" y1="366.9766" y2="387.4648"/><rect fill="none" height="61.4648" rx="5" ry="5" style="stroke:#000000;stroke-width:1.5;" width="436" x="468" y="326"/><rect fill="#F1F1F1" height="61.4648" rx="5" ry="5" style="stroke:#F1F1F1;stroke-width:1.5;" width="430" x="471" y="405"/><text fill="#000000" font-family="sans-serif" font-size="14" font-weight="bold" lengthAdjust="spacing" textLength="78" x="476" y="420.5352">field_value</text><text fill="#000000" font-family="sans-serif" font-size="14" lengthAdjust="spacing" textLength="316" x="580" y="420.5352">52F6BE23-5363-4D93-96AE-F714B851E52C</text><line style="stroke:#000000;stroke-width:1.0;" x1="575" x2="575" y1="405" y2="425.4883"/><line style="stroke:#000000;stroke-width:1.0;" x1="471" x2="901" y1="425.4883" y2="425.4883"/><text fill="#000000" font-family="sans-serif" font-size="14" font-weight="bold" lengthAdjust="spacing" textLength="74" x="476" y="441.0234">row_count</text><text fill="#000000" font-family="sans-serif" font-size="14" lengthAdjust="spacing" textLength="9" x="580" y="441.0234">1</text><line style="stroke:#000000;stroke-width:1.0;" x1="575" x2="575" y1="425.4883" y2="445.9766"/><line style="stroke:#000000;stroke-width:1.0;" x1="471" x2="901" y1="445.9766" y2="445.9766"/><text fill="#000000" font-family="sans-serif" font-size="14" font-weight="bold" lengthAdjust="spacing" textLength="94" x="476" y="461.5117">ratio_percent</text><text fill="#000000" font-family="sans-serif" font-size="14" lengthAdjust="spacing" textLength="157" x="580" y="461.5117">7.6923076923076925</text><line style="stroke:#000000;stroke-width:1.0;" x1="575" x2="575" y1="445.9766" y2="466.4648"/><rect fill="none" height="61.4648" rx="5" ry="5" style="stroke:#000000;stroke-width:1.5;" width="430" x="471" y="405"/><rect fill="#F1F1F1" height="61.4648" rx="5" ry="5" style="stroke:#F1F1F1;stroke-width:1.5;" width="436" x="468" y="484"/><text fill="#000000" font-family="sans-serif" font-size="14" font-weight="bold" lengthAdjust="spacing" textLength="78" x="473" y="499.5352">field_value</text><text fill="#000000" font-family="sans-serif" font-size="14" lengthAdjust="spacing" textLength="322" x="577" y="499.5352">5184D96A-EE8C-499A-9316-625496784DE6</text><line style="stroke:#000000;stroke-width:1.0;" x1="572" x2="572" y1="484" y2="504.4883"/><line style="stroke:#000000;stroke-width:1.0;" x1="468" x2="904" y1="504.4883" y2="504.4883"/><text fill="#000000" font-family="sans-serif" font-size="14" font-weight="bold" lengthAdjust="spacing" textLength="74" x="473" y="520.0234">row_count</text><text fill="#000000" font-family="sans-serif" font-size="14" lengthAdjust="spacing" textLength="9" x="577" y="520.0234">1</text><line style="stroke:#000000;stroke-width:1.0;" x1="572" x2="572" y1="504.4883" y2="524.9766"/><line style="stroke:#000000;stroke-width:1.0;" x1="468" x2="904" y1="524.9766" y2="524.9766"/><text fill="#000000" font-family="sans-serif" font-size="14" font-weight="bold" lengthAdjust="spacing" textLength="94" x="473" y="540.5117">ratio_percent</text><text fill="#000000" font-family="sans-serif" font-size="14" lengthAdjust="spacing" textLength="157" x="577" y="540.5117">7.6923076923076925</text><line style="stroke:#000000;stroke-width:1.0;" x1="572" x2="572" y1="524.9766" y2="545.4648"/><rect fill="none" height="61.4648" rx="5" ry="5" style="stroke:#000000;stroke-width:1.5;" width="436" x="468" y="484"/><rect fill="#F1F1F1" height="61.4648" rx="5" ry="5" style="stroke:#F1F1F1;stroke-width:1.5;" width="436" x="468" y="563"/><text fill="#000000" font-family="sans-serif" font-size="14" font-weight="bold" lengthAdjust="spacing" textLength="78" x="473" y="578.5352">field_value</text><text fill="#000000" font-family="sans-serif" font-size="14" lengthAdjust="spacing" textLength="322" x="577" y="578.5352">48265174-8451-4967-973A-639C2276CFAF</text><line style="stroke:#000000;stroke-width:1.0;" x1="572" x2="572" y1="563" y2="583.4883"/><line style="stroke:#000000;stroke-width:1.0;" x1="468" x2="904" y1="583.4883" y2="583.4883"/><text fill="#000000" font-family="sans-serif" font-size="14" font-weight="bold" lengthAdjust="spacing" textLength="74" x="473" y="599.0234">row_count</text><text fill="#000000" font-family="sans-serif" font-size="14" lengthAdjust="spacing" textLength="9" x="577" y="599.0234">1</text><line style="stroke:#000000;stroke-width:1.0;" x1="572" x2="572" y1="583.4883" y2="603.9766"/><line style="stroke:#000000;stroke-width:1.0;" x1="468" x2="904" y1="603.9766" y2="603.9766"/><text fill="#000000" font-family="sans-serif" font-size="14" font-weight="bold" lengthAdjust="spacing" textLength="94" x="473" y="619.5117">ratio_percent</text><text fill="#000000" font-family="sans-serif" font-size="14" lengthAdjust="spacing" textLength="157" x="577" y="619.5117">7.6923076923076925</text><line style="stroke:#000000;stroke-width:1.0;" x1="572" x2="572" y1="603.9766" y2="624.4648"/><rect fill="none" height="61.4648" rx="5" ry="5" style="stroke:#000000;stroke-width:1.5;" width="436" x="468" y="563"/><rect fill="#F1F1F1" height="61.4648" rx="5" ry="5" style="stroke:#F1F1F1;stroke-width:1.5;" width="429" x="471.5" y="642"/><text fill="#000000" font-family="sans-serif" font-size="14" font-weight="bold" lengthAdjust="spacing" textLength="78" x="476.5" y="657.5352">field_value</text><text fill="#000000" font-family="sans-serif" font-size="14" lengthAdjust="spacing" textLength="315" x="580.5" y="657.5352">2A8BD319-36FB-4FBA-9E07-E303839F1974</text><line style="stroke:#000000;stroke-width:1.0;" x1="575.5" x2="575.5" y1="642" y2="662.4883"/><line style="stroke:#000000;stroke-width:1.0;" x1="471.5" x2="900.5" y1="662.4883" y2="662.4883"/><text fill="#000000" font-family="sans-serif" font-size="14" font-weight="bold" lengthAdjust="spacing" textLength="74" x="476.5" y="678.0234">row_count</text><text fill="#000000" font-family="sans-serif" font-size="14" lengthAdjust="spacing" textLength="9" x="580.5" y="678.0234">1</text><line style="stroke:#000000;stroke-width:1.0;" x1="575.5" x2="575.5" y1="662.4883" y2="682.9766"/><line style="stroke:#000000;stroke-width:1.0;" x1="471.5" x2="900.5" y1="682.9766" y2="682.9766"/><text fill="#000000" font-family="sans-serif" font-size="14" font-weight="bold" lengthAdjust="spacing" textLength="94" x="476.5" y="698.5117">ratio_percent</text><text fill="#000000" font-family="sans-serif" font-size="14" lengthAdjust="spacing" textLength="157" x="580.5" y="698.5117">7.6923076923076925</text><line style="stroke:#000000;stroke-width:1.0;" x1="575.5" x2="575.5" y1="682.9766" y2="703.4648"/><rect fill="none" height="61.4648" rx="5" ry="5" style="stroke:#000000;stroke-width:1.5;" width="429" x="471.5" y="642"/><rect fill="#F1F1F1" height="61.4648" rx="5" ry="5" style="stroke:#F1F1F1;stroke-width:1.5;" width="442" x="465" y="721"/><text fill="#000000" font-family="sans-serif" font-size="14" font-weight="bold" lengthAdjust="spacing" textLength="78" x="470" y="736.5352">field_value</text><text fill="#000000" font-family="sans-serif" font-size="14" lengthAdjust="spacing" textLength="328" x="574" y="736.5352">27CF33AF-C338-4842-966C-75CA11AAA6A3</text><line style="stroke:#000000;stroke-width:1.0;" x1="569" x2="569" y1="721" y2="741.4883"/><line style="stroke:#000000;stroke-width:1.0;" x1="465" x2="907" y1="741.4883" y2="741.4883"/><text fill="#000000" font-family="sans-serif" font-size="14" font-weight="bold" lengthAdjust="spacing" textLength="74" x="470" y="757.0234">row_count</text><text fill="#000000" font-family="sans-serif" font-size="14" lengthAdjust="spacing" textLength="9" x="574" y="757.0234">1</text><line style="stroke:#000000;stroke-width:1.0;" x1="569" x2="569" y1="741.4883" y2="761.9766"/><line style="stroke:#000000;stroke-width:1.0;" x1="465" x2="907" y1="761.9766" y2="761.9766"/><text fill="#000000" font-family="sans-serif" font-size="14" font-weight="bold" lengthAdjust="spacing" textLength="94" x="470" y="777.5117">ratio_percent</text><text fill="#000000" font-family="sans-serif" font-size="14" lengthAdjust="spacing" textLength="157" x="574" y="777.5117">7.6923076923076925</text><line style="stroke:#000000;stroke-width:1.0;" x1="569" x2="569" y1="761.9766" y2="782.4648"/><rect fill="none" height="61.4648" rx="5" ry="5" style="stroke:#000000;stroke-width:1.5;" width="442" x="465" y="721"/><path d="M199,315.5 L212,315.5 C232.8273,315.5 229.8137,295.6507 248,285.5 C252.038,283.2462 256.2733,281.1247 260.6133,279.1338 " fill="none" style="stroke:#000000;stroke-width:1.0;stroke-dasharray:3.0,3.0;"/><path d="M261.8219,281.8909 L262.6812,278.2274 L259.4048,276.3766 L267.5062,276.1124 L261.8219,281.8909 " fill="#000000" style="stroke:#000000;stroke-width:1.0;"/><ellipse cx="199" cy="315.5" fill="#000000" rx="3" ry="3" style="stroke:#000000;stroke-width:1.0;"/><path d="M338.5,303.5 L351.5,303.5 C386.8613,303.5 404.6954,311.1847 429,285.5 C492.8819,217.9906 399.3467,145.288 465,79.5 C466.0813,78.4165 467.1814,77.3571 468.2997,76.3214 " fill="none" style="stroke:#000000;stroke-width:1.0;stroke-dasharray:3.0,3.0;"/><path d="M470.2934,78.6165 L470.021,74.8261 L466.306,74.0262 L474.0375,71.3371 L470.2934,78.6165 " fill="#000000" style="stroke:#000000;stroke-width:1.0;"/><ellipse cx="338.5" cy="303.5" fill="#000000" rx="3" ry="3" style="stroke:#000000;stroke-width:1.0;"/><path d="M338.5,324.5 L351.5,324.5 C390.0599,324.5 404.4435,315.2295 429,285.5 C466.3625,240.267 421.4709,197.8344 465,158.5 C466.4512,157.1886 467.9305,155.9138 469.4363,154.6745 " fill="none" style="stroke:#000000;stroke-width:1.0;stroke-dasharray:3.0,3.0;"/><path d="M471.2787,157.0487 L471.217,153.2927 L467.594,152.3002 L475.372,150.0686 L471.2787,157.0487 " fill="#000000" style="stroke:#000000;stroke-width:1.0;"/><ellipse cx="338.5" cy="324.5" fill="#000000" rx="3" ry="3" style="stroke:#000000;stroke-width:1.0;"/><path d="M338.5,344.5 L351.5,344.5 C394.79,344.5 398.4995,316.2205 429,285.5 C447.7883,266.5762 442.2824,251.4651 465,237.5 C467.7478,235.8109 470.5491,234.1903 473.3975,232.6355 " fill="none" style="stroke:#000000;stroke-width:1.0;stroke-dasharray:3.0,3.0;"/><path d="M474.8013,235.3271 L475.4162,231.5826 L471.9937,229.9439 L480.1264,229.126 L474.8013,235.3271 " fill="#000000" style="stroke:#000000;stroke-width:1.0;"/><ellipse cx="338.5" cy="344.5" fill="#000000" rx="3" ry="3" style="stroke:#000000;stroke-width:1.0;"/><path d="M338.5,365.5 L351.5,365.5 C406.27,365.5 412.5135,333.1498 465,317.5 C473.9729,314.8246 483.2075,312.2986 492.5752,309.9178 " fill="none" style="stroke:#000000;stroke-width:1.0;stroke-dasharray:3.0,3.0;"/><path d="M493.3265,312.9333 L494.8368,309.3543 L491.8238,306.9023 L500.114,308.0394 L493.3265,312.9333 " fill="#000000" style="stroke:#000000;stroke-width:1.0;"/><ellipse cx="338.5" cy="365.5" fill="#000000" rx="3" ry="3" style="stroke:#000000;stroke-width:1.0;"/><path d="M338.5,385.5 L351.5,385.5 C386.8204,385.5 424.1634,383.8705 460.5854,381.384 " fill="none" style="stroke:#000000;stroke-width:1.0;stroke-dasharray:3.0,3.0;"/><path d="M460.8027,384.4868 L462.9125,381.221 L460.3681,378.2812 L468.3424,380.8406 L460.8027,384.4868 " fill="#000000" style="stroke:#000000;stroke-width:1.0;"/><ellipse cx="338.5" cy="385.5" fill="#000000" rx="3" ry="3" style="stroke:#000000;stroke-width:1.0;"/><path d="M338.5,406.5 L351.5,406.5 C387.9231,406.5 426.4971,408.2329 463.9939,410.8514 " fill="none" style="stroke:#000000;stroke-width:1.0;stroke-dasharray:3.0,3.0;"/><path d="M463.7798,413.845 L466.2391,411.012 L464.208,407.8578 L471.4779,411.3867 L463.7798,413.845 " fill="#000000" style="stroke:#000000;stroke-width:1.0;"/><ellipse cx="338.5" cy="406.5" fill="#000000" rx="3" ry="3" style="stroke:#000000;stroke-width:1.0;"/><path d="M338.5,427.5 L351.5,427.5 C406.27,427.5 412.4792,459.9655 465,475.5 C472.7776,477.8004 480.752,479.985 488.8395,482.0572 " fill="none" style="stroke:#000000;stroke-width:1.0;stroke-dasharray:3.0,3.0;"/><path d="M488.0909,485.0398 L491.0765,482.6186 L489.5881,479.0745 L496.2962,483.9287 L488.0909,485.0398 " fill="#000000" style="stroke:#000000;stroke-width:1.0;"/><ellipse cx="338.5" cy="427.5" fill="#000000" rx="3" ry="3" style="stroke:#000000;stroke-width:1.0;"/><path d="M338.5,447.5 L351.5,447.5 C420.8266,447.5 403.0498,523.3818 465,554.5 C468.7996,556.4086 472.677,558.2252 476.6187,559.9544 " fill="none" style="stroke:#000000;stroke-width:1.0;stroke-dasharray:3.0,3.0;"/><path d="M475.4111,562.819 L478.7671,560.8601 L477.8262,557.0898 L483.7801,562.9733 L475.4111,562.819 " fill="#000000" style="stroke:#000000;stroke-width:1.0;"/><ellipse cx="338.5" cy="447.5" fill="#000000" rx="3" ry="3" style="stroke:#000000;stroke-width:1.0;"/><path d="M338.5,468.5 L351.5,468.5 C440.508,468.5 390.1437,585.3444 465,633.5 C467.4751,635.0922 469.9966,636.6244 472.5596,638.0987 " fill="none" style="stroke:#000000;stroke-width:1.0;stroke-dasharray:3.0,3.0;"/><path d="M471.0521,640.8499 L474.6231,639.2293 L474.0671,635.3474 L479.4378,641.8674 L471.0521,640.8499 " fill="#000000" style="stroke:#000000;stroke-width:1.0;"/><ellipse cx="338.5" cy="468.5" fill="#000000" rx="3" ry="3" style="stroke:#000000;stroke-width:1.0;"/><path d="M338.5,488.5 L351.5,488.5 C463.1062,488.5 375.3768,645.9896 465,712.5 C467.0292,714.0059 469.0975,715.4604 471.2016,716.8653 " fill="none" style="stroke:#000000;stroke-width:1.0;stroke-dasharray:3.0,3.0;"/><path d="M469.5747,719.4319 L473.1265,718.0854 L472.8284,714.2987 L477.618,720.9324 L469.5747,719.4319 " fill="#000000" style="stroke:#000000;stroke-width:1.0;"/><ellipse cx="338.5" cy="488.5" fill="#000000" rx="3" ry="3" style="stroke:#000000;stroke-width:1.0;"/><path d="M199,336.5 L212,336.5 C254.1629,336.5 297.1866,364.4055 320.2874,382.1547 " fill="none" style="stroke:#000000;stroke-width:1.0;stroke-dasharray:3.0,3.0;"/><path d="M318.4053,384.5427 L322.0784,383.5663 L322.1695,379.7667 L326.2574,386.86 L318.4053,384.5427 " fill="#000000" style="stroke:#000000;stroke-width:1.0;"/><ellipse cx="199" cy="336.5" fill="#000000" rx="3" ry="3" style="stroke:#000000;stroke-width:1.0;"/><!--MD5=[eb502ae91ccac7f53dee1ea6d01a80af]
@startjson
{
    "field1": "rowguid",
    "combination": "rowguid",
    "null_distribution": {
        "total_null_rows": 0,
        "total_not_null_rows": 13
    },
    "data_distribution": [
        {
            "field_value": "B706C1D6-FB99-40B5-844C-6EE54701BA0D",
            "row_count": 1,
            "ratio_percent": 7.6923076923076925
        },
        {
            "field_value": "82F61D73-0BF5-44FF-AB99-DD73AEE9B9CC",
            "row_count": 1,
            "ratio_percent": 7.6923076923076925
        },
        {
            "field_value": "7EE72C7E-9800-44C1-B82D-6E34E8289CA1",
            "row_count": 1,
            "ratio_percent": 7.6923076923076925
        },
        {
            "field_value": "7ED4DEF5-D5BB-4818-8748-5BB5F8315FA2",
            "row_count": 1,
            "ratio_percent": 7.6923076923076925
        },
        {
            "field_value": "79D41FE8-39D7-4591-9A05-285A3E1AAFCB",
            "row_count": 1,
            "ratio_percent": 7.6923076923076925
        },
        {
            "field_value": "52F6BE23-5363-4D93-96AE-F714B851E52C",
            "row_count": 1,
            "ratio_percent": 7.6923076923076925
        },
        {
            "field_value": "5184D96A-EE8C-499A-9316-625496784DE6",
            "row_count": 1,
            "ratio_percent": 7.6923076923076925
        },
        {
            "field_value": "48265174-8451-4967-973A-639C2276CFAF",
            "row_count": 1,
            "ratio_percent": 7.6923076923076925
        },
        {
            "field_value": "2A8BD319-36FB-4FBA-9E07-E303839F1974",
            "row_count": 1,
            "ratio_percent": 7.6923076923076925
        },
        {
            "field_value": "27CF33AF-C338-4842-966C-75CA11AAA6A3",
            "row_count": 1,
            "ratio_percent": 7.6923076923076925
        }
    ]
}
@endjson

PlantUML version 1.2022.5(Sat Apr 30 06:55:52 EDT 2022)
(GPL source distribution)
Java Runtime: OpenJDK Runtime Environment
JVM: OpenJDK 64-Bit Server VM
Default Encoding: UTF-8
Language: en
Country: CA
--></g></svg>