<?xml version="1.0" encoding="UTF-8" standalone="no"?><svg xmlns="http://www.w3.org/2000/svg" xmlns:xlink="http://www.w3.org/1999/xlink" contentStyleType="text/css" height="794px" preserveAspectRatio="none" style="width:854px;height:794px;background:#FFFFFF;" version="1.1" viewBox="0 0 854 794" width="854px" zoomAndPan="magnify"><defs/><g><rect fill="#F1F1F1" height="81.9531" rx="5" ry="5" style="stroke:#F1F1F1;stroke-width:1.5;" width="289" x="10" y="264.5"/><text fill="#000000" font-family="sans-serif" font-size="14" font-weight="bold" lengthAdjust="spacing" textLength="42" x="15" y="280.0352">field1</text><text fill="#000000" font-family="sans-serif" font-size="14" lengthAdjust="spacing" textLength="145" x="149" y="280.0352">ProductDescriptionID</text><line style="stroke:#000000;stroke-width:1.0;" x1="144" x2="144" y1="264.5" y2="284.9883"/><line style="stroke:#000000;stroke-width:1.0;" x1="10" x2="299" y1="284.9883" y2="284.9883"/><text fill="#000000" font-family="sans-serif" font-size="14" font-weight="bold" lengthAdjust="spacing" textLength="90" x="15" y="300.5234">combination</text><text fill="#000000" font-family="sans-serif" font-size="14" lengthAdjust="spacing" textLength="145" x="149" y="300.5234">ProductDescriptionID</text><line style="stroke:#000000;stroke-width:1.0;" x1="144" x2="144" y1="284.9883" y2="305.4766"/><line style="stroke:#000000;stroke-width:1.0;" x1="10" x2="299" y1="305.4766" y2="305.4766"/><text fill="#000000" font-family="sans-serif" font-size="14" font-weight="bold" lengthAdjust="spacing" textLength="121" x="15" y="321.0117">null_distribution</text><text fill="#000000" font-family="sans-serif" font-size="14" lengthAdjust="spacing" textLength="12" x="149" y="321.0117">   </text><line style="stroke:#000000;stroke-width:1.0;" x1="144" x2="144" y1="305.4766" y2="325.9648"/><line style="stroke:#000000;stroke-width:1.0;" x1="10" x2="299" y1="325.9648" y2="325.9648"/><text fill="#000000" font-family="sans-serif" font-size="14" font-weight="bold" lengthAdjust="spacing" textLength="124" x="15" y="341.5">data_distribution</text><text fill="#000000" font-family="sans-serif" font-size="14" lengthAdjust="spacing" textLength="12" x="149" y="341.5">   </text><line style="stroke:#000000;stroke-width:1.0;" x1="144" x2="144" y1="325.9648" y2="346.4531"/><rect fill="none" height="81.9531" rx="5" ry="5" style="stroke:#000000;stroke-width:1.5;" width="289" x="10" y="264.5"/><rect fill="#F1F1F1" height="40.9766" rx="5" ry="5" style="stroke:#F1F1F1;stroke-width:1.5;" width="189" x="336" y="235"/><text fill="#000000" font-family="sans-serif" font-size="14" font-weight="bold" lengthAdjust="spacing" textLength="111" x="341" y="250.5352">total_null_rows</text><text fill="#000000" font-family="sans-serif" font-size="14" lengthAdjust="spacing" textLength="9" x="493" y="250.5352">0</text><line style="stroke:#000000;stroke-width:1.0;" x1="488" x2="488" y1="235" y2="255.4883"/><line style="stroke:#000000;stroke-width:1.0;" x1="336" x2="525" y1="255.4883" y2="255.4883"/><text fill="#000000" font-family="sans-serif" font-size="14" font-weight="bold" lengthAdjust="spacing" textLength="142" x="341" y="271.0234">total_not_null_rows</text><text fill="#000000" font-family="sans-serif" font-size="14" lengthAdjust="spacing" textLength="27" x="493" y="271.0234">762</text><line style="stroke:#000000;stroke-width:1.0;" x1="488" x2="488" y1="255.4883" y2="275.9766"/><rect fill="none" height="40.9766" rx="5" ry="5" style="stroke:#000000;stroke-width:1.5;" width="189" x="336" y="235"/><rect fill="#F1F1F1" height="204.8828" rx="5" ry="5" style="stroke:#F1F1F1;stroke-width:1.5;" width="22" x="418.5" y="294"/><text fill="#000000" font-family="sans-serif" font-size="14" lengthAdjust="spacing" textLength="12" x="423.5" y="309.5352">   </text><line style="stroke:#000000;stroke-width:1.0;" x1="418.5" x2="440.5" y1="314.4883" y2="314.4883"/><text fill="#000000" font-family="sans-serif" font-size="14" lengthAdjust="spacing" textLength="12" x="423.5" y="330.0234">   </text><line style="stroke:#000000;stroke-width:1.0;" x1="418.5" x2="440.5" y1="334.9766" y2="334.9766"/><text fill="#000000" font-family="sans-serif" font-size="14" lengthAdjust="spacing" textLength="12" x="423.5" y="350.5117">   </text><line style="stroke:#000000;stroke-width:1.0;" x1="418.5" x2="440.5" y1="355.4648" y2="355.4648"/><text fill="#000000" font-family="sans-serif" font-size="14" lengthAdjust="spacing" textLength="12" x="423.5" y="371">   </text><line style="stroke:#000000;stroke-width:1.0;" x1="418.5" x2="440.5" y1="375.9531" y2="375.9531"/><text fill="#000000" font-family="sans-serif" font-size="14" lengthAdjust="spacing" textLength="12" x="423.5" y="391.4883">   </text><line style="stroke:#000000;stroke-width:1.0;" x1="418.5" x2="440.5" y1="396.4414" y2="396.4414"/><text fill="#000000" font-family="sans-serif" font-size="14" lengthAdjust="spacing" textLength="12" x="423.5" y="411.9766">   </text><line style="stroke:#000000;stroke-width:1.0;" x1="418.5" x2="440.5" y1="416.9297" y2="416.9297"/><text fill="#000000" font-family="sans-serif" font-size="14" lengthAdjust="spacing" textLength="12" x="423.5" y="432.4648">   </text><line style="stroke:#000000;stroke-width:1.0;" x1="418.5" x2="440.5" y1="437.418" y2="437.418"/><text fill="#000000" font-family="sans-serif" font-size="14" lengthAdjust="spacing" textLength="12" x="423.5" y="452.9531">   </text><line style="stroke:#000000;stroke-width:1.0;" x1="418.5" x2="440.5" y1="457.9063" y2="457.9063"/><text fill="#000000" font-family="sans-serif" font-size="14" lengthAdjust="spacing" textLength="12" x="423.5" y="473.4414">   </text><line style="stroke:#000000;stroke-width:1.0;" x1="418.5" x2="440.5" y1="478.3945" y2="478.3945"/><text fill="#000000" font-family="sans-serif" font-size="14" lengthAdjust="spacing" textLength="12" x="423.5" y="493.9297">   </text><rect fill="none" height="204.8828" rx="5" ry="5" style="stroke:#000000;stroke-width:1.5;" width="22" x="418.5" y="294"/><rect fill="#F1F1F1" height="61.4648" rx="5" ry="5" style="stroke:#F1F1F1;stroke-width:1.5;" width="280" x="562" y="10"/><text fill="#000000" font-family="sans-serif" font-size="14" font-weight="bold" lengthAdjust="spacing" textLength="78" x="567" y="25.5352">field_value</text><text fill="#000000" font-family="sans-serif" font-size="14" lengthAdjust="spacing" textLength="36" x="671" y="25.5352">1189</text><line style="stroke:#000000;stroke-width:1.0;" x1="666" x2="666" y1="10" y2="30.4883"/><line style="stroke:#000000;stroke-width:1.0;" x1="562" x2="842" y1="30.4883" y2="30.4883"/><text fill="#000000" font-family="sans-serif" font-size="14" font-weight="bold" lengthAdjust="spacing" textLength="74" x="567" y="46.0234">row_count</text><text fill="#000000" font-family="sans-serif" font-size="14" lengthAdjust="spacing" textLength="9" x="671" y="46.0234">1</text><line style="stroke:#000000;stroke-width:1.0;" x1="666" x2="666" y1="30.4883" y2="50.9766"/><line style="stroke:#000000;stroke-width:1.0;" x1="562" x2="842" y1="50.9766" y2="50.9766"/><text fill="#000000" font-family="sans-serif" font-size="14" font-weight="bold" lengthAdjust="spacing" textLength="94" x="567" y="66.5117">ratio_percent</text><text fill="#000000" font-family="sans-serif" font-size="14" lengthAdjust="spacing" textLength="166" x="671" y="66.5117">0.13123359580052493</text><line style="stroke:#000000;stroke-width:1.0;" x1="666" x2="666" y1="50.9766" y2="71.4648"/><rect fill="none" height="61.4648" rx="5" ry="5" style="stroke:#000000;stroke-width:1.5;" width="280" x="562" y="10"/><rect fill="#F1F1F1" height="61.4648" rx="5" ry="5" style="stroke:#F1F1F1;stroke-width:1.5;" width="280" x="562" y="89"/><text fill="#000000" font-family="sans-serif" font-size="14" font-weight="bold" lengthAdjust="spacing" textLength="78" x="567" y="104.5352">field_value</text><text fill="#000000" font-family="sans-serif" font-size="14" lengthAdjust="spacing" textLength="36" x="671" y="104.5352">1188</text><line style="stroke:#000000;stroke-width:1.0;" x1="666" x2="666" y1="89" y2="109.4883"/><line style="stroke:#000000;stroke-width:1.0;" x1="562" x2="842" y1="109.4883" y2="109.4883"/><text fill="#000000" font-family="sans-serif" font-size="14" font-weight="bold" lengthAdjust="spacing" textLength="74" x="567" y="125.0234">row_count</text><text fill="#000000" font-family="sans-serif" font-size="14" lengthAdjust="spacing" textLength="9" x="671" y="125.0234">1</text><line style="stroke:#000000;stroke-width:1.0;" x1="666" x2="666" y1="109.4883" y2="129.9766"/><line style="stroke:#000000;stroke-width:1.0;" x1="562" x2="842" y1="129.9766" y2="129.9766"/><text fill="#000000" font-family="sans-serif" font-size="14" font-weight="bold" lengthAdjust="spacing" textLength="94" x="567" y="145.5117">ratio_percent</text><text fill="#000000" font-family="sans-serif" font-size="14" lengthAdjust="spacing" textLength="166" x="671" y="145.5117">0.13123359580052493</text><line style="stroke:#000000;stroke-width:1.0;" x1="666" x2="666" y1="129.9766" y2="150.4648"/><rect fill="none" height="61.4648" rx="5" ry="5" style="stroke:#000000;stroke-width:1.5;" width="280" x="562" y="89"/><rect fill="#F1F1F1" height="61.4648" rx="5" ry="5" style="stroke:#F1F1F1;stroke-width:1.5;" width="280" x="562" y="168"/><text fill="#000000" font-family="sans-serif" font-size="14" font-weight="bold" lengthAdjust="spacing" textLength="78" x="567" y="183.5352">field_value</text><text fill="#000000" font-family="sans-serif" font-size="14" lengthAdjust="spacing" textLength="36" x="671" y="183.5352">1187</text><line style="stroke:#000000;stroke-width:1.0;" x1="666" x2="666" y1="168" y2="188.4883"/><line style="stroke:#000000;stroke-width:1.0;" x1="562" x2="842" y1="188.4883" y2="188.4883"/><text fill="#000000" font-family="sans-serif" font-size="14" font-weight="bold" lengthAdjust="spacing" textLength="74" x="567" y="204.0234">row_count</text><text fill="#000000" font-family="sans-serif" font-size="14" lengthAdjust="spacing" textLength="9" x="671" y="204.0234">1</text><line style="stroke:#000000;stroke-width:1.0;" x1="666" x2="666" y1="188.4883" y2="208.9766"/><line style="stroke:#000000;stroke-width:1.0;" x1="562" x2="842" y1="208.9766" y2="208.9766"/><text fill="#000000" font-family="sans-serif" font-size="14" font-weight="bold" lengthAdjust="spacing" textLength="94" x="567" y="224.5117">ratio_percent</text><text fill="#000000" font-family="sans-serif" font-size="14" lengthAdjust="spacing" textLength="166" x="671" y="224.5117">0.13123359580052493</text><line style="stroke:#000000;stroke-width:1.0;" x1="666" x2="666" y1="208.9766" y2="229.4648"/><rect fill="none" height="61.4648" rx="5" ry="5" style="stroke:#000000;stroke-width:1.5;" width="280" x="562" y="168"/><rect fill="#F1F1F1" height="61.4648" rx="5" ry="5" style="stroke:#F1F1F1;stroke-width:1.5;" width="280" x="562" y="247"/><text fill="#000000" font-family="sans-serif" font-size="14" font-weight="bold" lengthAdjust="spacing" textLength="78" x="567" y="262.5352">field_value</text><text fill="#000000" font-family="sans-serif" font-size="14" lengthAdjust="spacing" textLength="36" x="671" y="262.5352">1186</text><line style="stroke:#000000;stroke-width:1.0;" x1="666" x2="666" y1="247" y2="267.4883"/><line style="stroke:#000000;stroke-width:1.0;" x1="562" x2="842" y1="267.4883" y2="267.4883"/><text fill="#000000" font-family="sans-serif" font-size="14" font-weight="bold" lengthAdjust="spacing" textLength="74" x="567" y="283.0234">row_count</text><text fill="#000000" font-family="sans-serif" font-size="14" lengthAdjust="spacing" textLength="9" x="671" y="283.0234">1</text><line style="stroke:#000000;stroke-width:1.0;" x1="666" x2="666" y1="267.4883" y2="287.9766"/><line style="stroke:#000000;stroke-width:1.0;" x1="562" x2="842" y1="287.9766" y2="287.9766"/><text fill="#000000" font-family="sans-serif" font-size="14" font-weight="bold" lengthAdjust="spacing" textLength="94" x="567" y="303.5117">ratio_percent</text><text fill="#000000" font-family="sans-serif" font-size="14" lengthAdjust="spacing" textLength="166" x="671" y="303.5117">0.13123359580052493</text><line style="stroke:#000000;stroke-width:1.0;" x1="666" x2="666" y1="287.9766" y2="308.4648"/><rect fill="none" height="61.4648" rx="5" ry="5" style="stroke:#000000;stroke-width:1.5;" width="280" x="562" y="247"/><rect fill="#F1F1F1" height="61.4648" rx="5" ry="5" style="stroke:#F1F1F1;stroke-width:1.5;" width="280" x="562" y="326"/><text fill="#000000" font-family="sans-serif" font-size="14" font-weight="bold" lengthAdjust="spacing" textLength="78" x="567" y="341.5352">field_value</text><text fill="#000000" font-family="sans-serif" font-size="14" lengthAdjust="spacing" textLength="36" x="671" y="341.5352">1185</text><line style="stroke:#000000;stroke-width:1.0;" x1="666" x2="666" y1="326" y2="346.4883"/><line style="stroke:#000000;stroke-width:1.0;" x1="562" x2="842" y1="346.4883" y2="346.4883"/><text fill="#000000" font-family="sans-serif" font-size="14" font-weight="bold" lengthAdjust="spacing" textLength="74" x="567" y="362.0234">row_count</text><text fill="#000000" font-family="sans-serif" font-size="14" lengthAdjust="spacing" textLength="9" x="671" y="362.0234">1</text><line style="stroke:#000000;stroke-width:1.0;" x1="666" x2="666" y1="346.4883" y2="366.9766"/><line style="stroke:#000000;stroke-width:1.0;" x1="562" x2="842" y1="366.9766" y2="366.9766"/><text fill="#000000" font-family="sans-serif" font-size="14" font-weight="bold" lengthAdjust="spacing" textLength="94" x="567" y="382.5117">ratio_percent</text><text fill="#000000" font-family="sans-serif" font-size="14" lengthAdjust="spacing" textLength="166" x="671" y="382.5117">0.13123359580052493</text><line style="stroke:#000000;stroke-width:1.0;" x1="666" x2="666" y1="366.9766" y2="387.4648"/><rect fill="none" height="61.4648" rx="5" ry="5" style="stroke:#000000;stroke-width:1.5;" width="280" x="562" y="326"/><rect fill="#F1F1F1" height="61.4648" rx="5" ry="5" style="stroke:#F1F1F1;stroke-width:1.5;" width="280" x="562" y="405"/><text fill="#000000" font-family="sans-serif" font-size="14" font-weight="bold" lengthAdjust="spacing" textLength="78" x="567" y="420.5352">field_value</text><text fill="#000000" font-family="sans-serif" font-size="14" lengthAdjust="spacing" textLength="36" x="671" y="420.5352">1183</text><line style="stroke:#000000;stroke-width:1.0;" x1="666" x2="666" y1="405" y2="425.4883"/><line style="stroke:#000000;stroke-width:1.0;" x1="562" x2="842" y1="425.4883" y2="425.4883"/><text fill="#000000" font-family="sans-serif" font-size="14" font-weight="bold" lengthAdjust="spacing" textLength="74" x="567" y="441.0234">row_count</text><text fill="#000000" font-family="sans-serif" font-size="14" lengthAdjust="spacing" textLength="9" x="671" y="441.0234">1</text><line style="stroke:#000000;stroke-width:1.0;" x1="666" x2="666" y1="425.4883" y2="445.9766"/><line style="stroke:#000000;stroke-width:1.0;" x1="562" x2="842" y1="445.9766" y2="445.9766"/><text fill="#000000" font-family="sans-serif" font-size="14" font-weight="bold" lengthAdjust="spacing" textLength="94" x="567" y="461.5117">ratio_percent</text><text fill="#000000" font-family="sans-serif" font-size="14" lengthAdjust="spacing" textLength="166" x="671" y="461.5117">0.13123359580052493</text><line style="stroke:#000000;stroke-width:1.0;" x1="666" x2="666" y1="445.9766" y2="466.4648"/><rect fill="none" height="61.4648" rx="5" ry="5" style="stroke:#000000;stroke-width:1.5;" width="280" x="562" y="405"/><rect fill="#F1F1F1" height="61.4648" rx="5" ry="5" style="stroke:#F1F1F1;stroke-width:1.5;" width="280" x="562" y="484"/><text fill="#000000" font-family="sans-serif" font-size="14" font-weight="bold" lengthAdjust="spacing" textLength="78" x="567" y="499.5352">field_value</text><text fill="#000000" font-family="sans-serif" font-size="14" lengthAdjust="spacing" textLength="36" x="671" y="499.5352">1182</text><line style="stroke:#000000;stroke-width:1.0;" x1="666" x2="666" y1="484" y2="504.4883"/><line style="stroke:#000000;stroke-width:1.0;" x1="562" x2="842" y1="504.4883" y2="504.4883"/><text fill="#000000" font-family="sans-serif" font-size="14" font-weight="bold" lengthAdjust="spacing" textLength="74" x="567" y="520.0234">row_count</text><text fill="#000000" font-family="sans-serif" font-size="14" lengthAdjust="spacing" textLength="9" x="671" y="520.0234">1</text><line style="stroke:#000000;stroke-width:1.0;" x1="666" x2="666" y1="504.4883" y2="524.9766"/><line style="stroke:#000000;stroke-width:1.0;" x1="562" x2="842" y1="524.9766" y2="524.9766"/><text fill="#000000" font-family="sans-serif" font-size="14" font-weight="bold" lengthAdjust="spacing" textLength="94" x="567" y="540.5117">ratio_percent</text><text fill="#000000" font-family="sans-serif" font-size="14" lengthAdjust="spacing" textLength="166" x="671" y="540.5117">0.13123359580052493</text><line style="stroke:#000000;stroke-width:1.0;" x1="666" x2="666" y1="524.9766" y2="545.4648"/><rect fill="none" height="61.4648" rx="5" ry="5" style="stroke:#000000;stroke-width:1.5;" width="280" x="562" y="484"/><rect fill="#F1F1F1" height="61.4648" rx="5" ry="5" style="stroke:#F1F1F1;stroke-width:1.5;" width="280" x="562" y="563"/><text fill="#000000" font-family="sans-serif" font-size="14" font-weight="bold" lengthAdjust="spacing" textLength="78" x="567" y="578.5352">field_value</text><text fill="#000000" font-family="sans-serif" font-size="14" lengthAdjust="spacing" textLength="36" x="671" y="578.5352">1146</text><line style="stroke:#000000;stroke-width:1.0;" x1="666" x2="666" y1="563" y2="583.4883"/><line style="stroke:#000000;stroke-width:1.0;" x1="562" x2="842" y1="583.4883" y2="583.4883"/><text fill="#000000" font-family="sans-serif" font-size="14" font-weight="bold" lengthAdjust="spacing" textLength="74" x="567" y="599.0234">row_count</text><text fill="#000000" font-family="sans-serif" font-size="14" lengthAdjust="spacing" textLength="9" x="671" y="599.0234">1</text><line style="stroke:#000000;stroke-width:1.0;" x1="666" x2="666" y1="583.4883" y2="603.9766"/><line style="stroke:#000000;stroke-width:1.0;" x1="562" x2="842" y1="603.9766" y2="603.9766"/><text fill="#000000" font-family="sans-serif" font-size="14" font-weight="bold" lengthAdjust="spacing" textLength="94" x="567" y="619.5117">ratio_percent</text><text fill="#000000" font-family="sans-serif" font-size="14" lengthAdjust="spacing" textLength="166" x="671" y="619.5117">0.13123359580052493</text><line style="stroke:#000000;stroke-width:1.0;" x1="666" x2="666" y1="603.9766" y2="624.4648"/><rect fill="none" height="61.4648" rx="5" ry="5" style="stroke:#000000;stroke-width:1.5;" width="280" x="562" y="563"/><rect fill="#F1F1F1" height="61.4648" rx="5" ry="5" style="stroke:#F1F1F1;stroke-width:1.5;" width="280" x="562" y="642"/><text fill="#000000" font-family="sans-serif" font-size="14" font-weight="bold" lengthAdjust="spacing" textLength="78" x="567" y="657.5352">field_value</text><text fill="#000000" font-family="sans-serif" font-size="14" lengthAdjust="spacing" textLength="36" x="671" y="657.5352">1090</text><line style="stroke:#000000;stroke-width:1.0;" x1="666" x2="666" y1="642" y2="662.4883"/><line style="stroke:#000000;stroke-width:1.0;" x1="562" x2="842" y1="662.4883" y2="662.4883"/><text fill="#000000" font-family="sans-serif" font-size="14" font-weight="bold" lengthAdjust="spacing" textLength="74" x="567" y="678.0234">row_count</text><text fill="#000000" font-family="sans-serif" font-size="14" lengthAdjust="spacing" textLength="9" x="671" y="678.0234">1</text><line style="stroke:#000000;stroke-width:1.0;" x1="666" x2="666" y1="662.4883" y2="682.9766"/><line style="stroke:#000000;stroke-width:1.0;" x1="562" x2="842" y1="682.9766" y2="682.9766"/><text fill="#000000" font-family="sans-serif" font-size="14" font-weight="bold" lengthAdjust="spacing" textLength="94" x="567" y="698.5117">ratio_percent</text><text fill="#000000" font-family="sans-serif" font-size="14" lengthAdjust="spacing" textLength="166" x="671" y="698.5117">0.13123359580052493</text><line style="stroke:#000000;stroke-width:1.0;" x1="666" x2="666" y1="682.9766" y2="703.4648"/><rect fill="none" height="61.4648" rx="5" ry="5" style="stroke:#000000;stroke-width:1.5;" width="280" x="562" y="642"/><rect fill="#F1F1F1" height="61.4648" rx="5" ry="5" style="stroke:#F1F1F1;stroke-width:1.5;" width="280" x="562" y="721"/><text fill="#000000" font-family="sans-serif" font-size="14" font-weight="bold" lengthAdjust="spacing" textLength="78" x="567" y="736.5352">field_value</text><text fill="#000000" font-family="sans-serif" font-size="14" lengthAdjust="spacing" textLength="36" x="671" y="736.5352">1062</text><line style="stroke:#000000;stroke-width:1.0;" x1="666" x2="666" y1="721" y2="741.4883"/><line style="stroke:#000000;stroke-width:1.0;" x1="562" x2="842" y1="741.4883" y2="741.4883"/><text fill="#000000" font-family="sans-serif" font-size="14" font-weight="bold" lengthAdjust="spacing" textLength="74" x="567" y="757.0234">row_count</text><text fill="#000000" font-family="sans-serif" font-size="14" lengthAdjust="spacing" textLength="9" x="671" y="757.0234">1</text><line style="stroke:#000000;stroke-width:1.0;" x1="666" x2="666" y1="741.4883" y2="761.9766"/><line style="stroke:#000000;stroke-width:1.0;" x1="562" x2="842" y1="761.9766" y2="761.9766"/><text fill="#000000" font-family="sans-serif" font-size="14" font-weight="bold" lengthAdjust="spacing" textLength="94" x="567" y="777.5117">ratio_percent</text><text fill="#000000" font-family="sans-serif" font-size="14" lengthAdjust="spacing" textLength="166" x="671" y="777.5117">0.13123359580052493</text><line style="stroke:#000000;stroke-width:1.0;" x1="666" x2="666" y1="761.9766" y2="782.4648"/><rect fill="none" height="61.4648" rx="5" ry="5" style="stroke:#000000;stroke-width:1.5;" width="280" x="562" y="721"/><path d="M287,315.5 L300,315.5 C320.8273,315.5 317.7406,295.5187 336,285.5 C340.1394,283.2288 344.4771,281.0988 348.9224,279.1061 " fill="none" style="stroke:#000000;stroke-width:1.0;stroke-dasharray:3.0,3.0;"/><path d="M350.1301,281.9305 L351.0407,278.2004 L347.7148,276.2817 L355.9835,276.0871 L350.1301,281.9305 " fill="#000000" style="stroke:#000000;stroke-width:1.0;"/><ellipse cx="287" cy="315.5" fill="#000000" rx="3" ry="3" style="stroke:#000000;stroke-width:1.0;"/><path d="M431,303.5 L444,303.5 C481.3122,303.5 500.1906,312.4458 526,285.5 C590.2901,218.3792 499.6323,148.4107 562,79.5 C563.0125,78.3813 564.0541,77.2936 565.123,76.2361 " fill="none" style="stroke:#000000;stroke-width:1.0;stroke-dasharray:3.0,3.0;"/><path d="M567.139,78.4612 L566.7918,74.7241 L563.107,74.0111 L570.6857,71.1961 L567.139,78.4612 " fill="#000000" style="stroke:#000000;stroke-width:1.0;"/><ellipse cx="431" cy="303.5" fill="#000000" rx="3" ry="3" style="stroke:#000000;stroke-width:1.0;"/><path d="M431,324.5 L444,324.5 C484.3564,324.5 499.9543,316.3264 526,285.5 C563.864,240.686 520.4404,199.9099 562,158.5 C563.2303,157.2742 564.4957,156.0861 565.7935,154.9346 " fill="none" style="stroke:#000000;stroke-width:1.0;stroke-dasharray:3.0,3.0;"/><path d="M567.7206,157.2901 L567.5601,153.4893 L563.8664,152.579 L571.6824,150.1169 L567.7206,157.2901 " fill="#000000" style="stroke:#000000;stroke-width:1.0;"/><ellipse cx="431" cy="324.5" fill="#000000" rx="3" ry="3" style="stroke:#000000;stroke-width:1.0;"/><path d="M431,344.5 L444,344.5 C488.8977,344.5 493.9398,316.9316 526,285.5 C545.0419,266.8314 539.9903,252.5561 562,237.5 C564.3707,235.8783 566.8075,234.3236 569.2999,232.8333 " fill="none" style="stroke:#000000;stroke-width:1.0;stroke-dasharray:3.0,3.0;"/><path d="M570.8186,235.5213 L571.3159,231.6943 L567.7813,230.1454 L576.0198,229.0367 L570.8186,235.5213 " fill="#000000" style="stroke:#000000;stroke-width:1.0;"/><ellipse cx="431" cy="344.5" fill="#000000" rx="3" ry="3" style="stroke:#000000;stroke-width:1.0;"/><path d="M431,365.5 L444,365.5 C500.6174,365.5 508.489,335.9959 562,317.5 C568.9651,315.0925 576.1598,312.713 583.4405,310.3865 " fill="none" style="stroke:#000000;stroke-width:1.0;stroke-dasharray:3.0,3.0;"/><path d="M584.3637,313.3081 L585.6318,309.6941 L582.5173,307.4648 L590.7447,308.0785 L584.3637,313.3081 " fill="#000000" style="stroke:#000000;stroke-width:1.0;"/><ellipse cx="431" cy="365.5" fill="#000000" rx="3" ry="3" style="stroke:#000000;stroke-width:1.0;"/><path d="M431,385.5 L444,385.5 C479.91,385.5 518.461,382.6805 554.5148,378.7999 " fill="none" style="stroke:#000000;stroke-width:1.0;stroke-dasharray:3.0,3.0;"/><path d="M554.8522,381.8614 L556.8109,378.5468 L554.1773,375.7384 L562.1685,377.9563 L554.8522,381.8614 " fill="#000000" style="stroke:#000000;stroke-width:1.0;"/><ellipse cx="431" cy="385.5" fill="#000000" rx="3" ry="3" style="stroke:#000000;stroke-width:1.0;"/><path d="M431,406.5 L444,406.5 C479.91,406.5 518.461,409.3195 554.5148,413.2001 " fill="none" style="stroke:#000000;stroke-width:1.0;stroke-dasharray:3.0,3.0;"/><path d="M554.1773,416.2616 L556.8109,413.4532 L554.8522,410.1386 L562.1685,414.0437 L554.1773,416.2616 " fill="#000000" style="stroke:#000000;stroke-width:1.0;"/><ellipse cx="431" cy="406.5" fill="#000000" rx="3" ry="3" style="stroke:#000000;stroke-width:1.0;"/><path d="M431,427.5 L444,427.5 C500.6174,427.5 508.4279,457.1817 562,475.5 C568.0714,477.576 574.3183,479.6257 580.6455,481.6335 " fill="none" style="stroke:#000000;stroke-width:1.0;stroke-dasharray:3.0,3.0;"/><path d="M579.7107,484.617 L582.8831,482.3346 L581.5803,478.65 L588.1042,483.9705 L579.7107,484.617 " fill="#000000" style="stroke:#000000;stroke-width:1.0;"/><ellipse cx="431" cy="427.5" fill="#000000" rx="3" ry="3" style="stroke:#000000;stroke-width:1.0;"/><path d="M431,447.5 L444,447.5 C514.7951,447.5 500.0275,520.2749 562,554.5 C565.3536,556.3521 568.8021,558.1218 572.3223,559.8125 " fill="none" style="stroke:#000000;stroke-width:1.0;stroke-dasharray:3.0,3.0;"/><path d="M571.0604,562.5533 L574.3779,560.7589 L573.5842,557.0718 L579.1742,562.9672 L571.0604,562.5533 " fill="#000000" style="stroke:#000000;stroke-width:1.0;"/><ellipse cx="431" cy="447.5" fill="#000000" rx="3" ry="3" style="stroke:#000000;stroke-width:1.0;"/><path d="M431,468.5 L444,468.5 C534.1565,468.5 488.1702,581.7568 562,633.5 C564.2975,635.1102 566.6596,636.654 569.0764,638.1344 " fill="none" style="stroke:#000000;stroke-width:1.0;stroke-dasharray:3.0,3.0;"/><path d="M567.5676,640.7417 L571.0319,639.2659 L570.5852,635.527 L575.5948,641.9063 L567.5676,640.7417 " fill="#000000" style="stroke:#000000;stroke-width:1.0;"/><ellipse cx="431" cy="468.5" fill="#000000" rx="3" ry="3" style="stroke:#000000;stroke-width:1.0;"/><path d="M431,488.5 L444,488.5 C556.5243,488.5 474.4532,641.8085 562,712.5 C563.7425,713.907 565.5327,715.2634 567.365,716.5709 " fill="none" style="stroke:#000000;stroke-width:1.0;stroke-dasharray:3.0,3.0;"/><path d="M565.6611,719.1247 L569.2803,717.8488 L569.0689,714.0171 L573.7495,720.8306 L565.6611,719.1247 " fill="#000000" style="stroke:#000000;stroke-width:1.0;"/><ellipse cx="431" cy="488.5" fill="#000000" rx="3" ry="3" style="stroke:#000000;stroke-width:1.0;"/><path d="M287,336.5 L300,336.5 C343.8518,336.5 389.0003,364.993 412.8339,382.7089 " fill="none" style="stroke:#000000;stroke-width:1.0;stroke-dasharray:3.0,3.0;"/><path d="M410.9625,385.1642 L414.6753,384.1124 L414.7052,380.2536 L418.9721,387.3873 L410.9625,385.1642 " fill="#000000" style="stroke:#000000;stroke-width:1.0;"/><ellipse cx="287" cy="336.5" fill="#000000" rx="3" ry="3" style="stroke:#000000;stroke-width:1.0;"/><!--MD5=[5ad2d347492b063ad4346687149c2805]
@startjson
{
    "field1": "ProductDescriptionID",
    "combination": "ProductDescriptionID",
    "null_distribution": {
        "total_null_rows": 0,
        "total_not_null_rows": 762
    },
    "data_distribution": [
        {
            "field_value": "1189",
            "row_count": 1,
            "ratio_percent": 0.13123359580052493
        },
        {
            "field_value": "1188",
            "row_count": 1,
            "ratio_percent": 0.13123359580052493
        },
        {
            "field_value": "1187",
            "row_count": 1,
            "ratio_percent": 0.13123359580052493
        },
        {
            "field_value": "1186",
            "row_count": 1,
            "ratio_percent": 0.13123359580052493
        },
        {
            "field_value": "1185",
            "row_count": 1,
            "ratio_percent": 0.13123359580052493
        },
        {
            "field_value": "1183",
            "row_count": 1,
            "ratio_percent": 0.13123359580052493
        },
        {
            "field_value": "1182",
            "row_count": 1,
            "ratio_percent": 0.13123359580052493
        },
        {
            "field_value": "1146",
            "row_count": 1,
            "ratio_percent": 0.13123359580052493
        },
        {
            "field_value": "1090",
            "row_count": 1,
            "ratio_percent": 0.13123359580052493
        },
        {
            "field_value": "1062",
            "row_count": 1,
            "ratio_percent": 0.13123359580052493
        }
    ]
}
@endjson

PlantUML version 1.2022.5(Sat Apr 30 06:55:52 EDT 2022)
(GPL source distribution)
Java Runtime: OpenJDK Runtime Environment
JVM: OpenJDK 64-Bit Server VM
Default Encoding: UTF-8
Language: en
Country: CA
--></g></svg>