<?xml version="1.0" encoding="UTF-8" standalone="no"?><svg xmlns="http://www.w3.org/2000/svg" xmlns:xlink="http://www.w3.org/1999/xlink" contentStyleType="text/css" height="794px" preserveAspectRatio="none" style="width:833px;height:794px;background:#FFFFFF;" version="1.1" viewBox="0 0 833 794" width="833px" zoomAndPan="magnify"><defs/><g><rect fill="#F1F1F1" height="81.9531" rx="5" ry="5" style="stroke:#F1F1F1;stroke-width:1.5;" width="250" x="10" y="264.5"/><text fill="#000000" font-family="sans-serif" font-size="14" font-weight="bold" lengthAdjust="spacing" textLength="42" x="15" y="280.0352">field1</text><text fill="#000000" font-family="sans-serif" font-size="14" lengthAdjust="spacing" textLength="106" x="149" y="280.0352">ActualStartDate</text><line style="stroke:#000000;stroke-width:1.0;" x1="144" x2="144" y1="264.5" y2="284.9883"/><line style="stroke:#000000;stroke-width:1.0;" x1="10" x2="260" y1="284.9883" y2="284.9883"/><text fill="#000000" font-family="sans-serif" font-size="14" font-weight="bold" lengthAdjust="spacing" textLength="90" x="15" y="300.5234">combination</text><text fill="#000000" font-family="sans-serif" font-size="14" lengthAdjust="spacing" textLength="106" x="149" y="300.5234">ActualStartDate</text><line style="stroke:#000000;stroke-width:1.0;" x1="144" x2="144" y1="284.9883" y2="305.4766"/><line style="stroke:#000000;stroke-width:1.0;" x1="10" x2="260" y1="305.4766" y2="305.4766"/><text fill="#000000" font-family="sans-serif" font-size="14" font-weight="bold" lengthAdjust="spacing" textLength="121" x="15" y="321.0117">null_distribution</text><text fill="#000000" font-family="sans-serif" font-size="14" lengthAdjust="spacing" textLength="12" x="149" y="321.0117">   </text><line style="stroke:#000000;stroke-width:1.0;" x1="144" x2="144" y1="305.4766" y2="325.9648"/><line style="stroke:#000000;stroke-width:1.0;" x1="10" x2="260" y1="325.9648" y2="325.9648"/><text fill="#000000" font-family="sans-serif" font-size="14" font-weight="bold" lengthAdjust="spacing" textLength="124" x="15" y="341.5">data_distribution</text><text fill="#000000" font-family="sans-serif" font-size="14" lengthAdjust="spacing" textLength="12" x="149" y="341.5">   </text><line style="stroke:#000000;stroke-width:1.0;" x1="144" x2="144" y1="325.9648" y2="346.4531"/><rect fill="none" height="81.9531" rx="5" ry="5" style="stroke:#000000;stroke-width:1.5;" width="250" x="10" y="264.5"/><rect fill="#F1F1F1" height="40.9766" rx="5" ry="5" style="stroke:#F1F1F1;stroke-width:1.5;" width="207" x="297" y="235"/><text fill="#000000" font-family="sans-serif" font-size="14" font-weight="bold" lengthAdjust="spacing" textLength="111" x="302" y="250.5352">total_null_rows</text><text fill="#000000" font-family="sans-serif" font-size="14" lengthAdjust="spacing" textLength="9" x="454" y="250.5352">0</text><line style="stroke:#000000;stroke-width:1.0;" x1="449" x2="449" y1="235" y2="255.4883"/><line style="stroke:#000000;stroke-width:1.0;" x1="297" x2="504" y1="255.4883" y2="255.4883"/><text fill="#000000" font-family="sans-serif" font-size="14" font-weight="bold" lengthAdjust="spacing" textLength="142" x="302" y="271.0234">total_not_null_rows</text><text fill="#000000" font-family="sans-serif" font-size="14" lengthAdjust="spacing" textLength="45" x="454" y="271.0234">67131</text><line style="stroke:#000000;stroke-width:1.0;" x1="449" x2="449" y1="255.4883" y2="275.9766"/><rect fill="none" height="40.9766" rx="5" ry="5" style="stroke:#000000;stroke-width:1.5;" width="207" x="297" y="235"/><rect fill="#F1F1F1" height="204.8828" rx="5" ry="5" style="stroke:#F1F1F1;stroke-width:1.5;" width="22" x="388.5" y="294"/><text fill="#000000" font-family="sans-serif" font-size="14" lengthAdjust="spacing" textLength="12" x="393.5" y="309.5352">   </text><line style="stroke:#000000;stroke-width:1.0;" x1="388.5" x2="410.5" y1="314.4883" y2="314.4883"/><text fill="#000000" font-family="sans-serif" font-size="14" lengthAdjust="spacing" textLength="12" x="393.5" y="330.0234">   </text><line style="stroke:#000000;stroke-width:1.0;" x1="388.5" x2="410.5" y1="334.9766" y2="334.9766"/><text fill="#000000" font-family="sans-serif" font-size="14" lengthAdjust="spacing" textLength="12" x="393.5" y="350.5117">   </text><line style="stroke:#000000;stroke-width:1.0;" x1="388.5" x2="410.5" y1="355.4648" y2="355.4648"/><text fill="#000000" font-family="sans-serif" font-size="14" lengthAdjust="spacing" textLength="12" x="393.5" y="371">   </text><line style="stroke:#000000;stroke-width:1.0;" x1="388.5" x2="410.5" y1="375.9531" y2="375.9531"/><text fill="#000000" font-family="sans-serif" font-size="14" lengthAdjust="spacing" textLength="12" x="393.5" y="391.4883">   </text><line style="stroke:#000000;stroke-width:1.0;" x1="388.5" x2="410.5" y1="396.4414" y2="396.4414"/><text fill="#000000" font-family="sans-serif" font-size="14" lengthAdjust="spacing" textLength="12" x="393.5" y="411.9766">   </text><line style="stroke:#000000;stroke-width:1.0;" x1="388.5" x2="410.5" y1="416.9297" y2="416.9297"/><text fill="#000000" font-family="sans-serif" font-size="14" lengthAdjust="spacing" textLength="12" x="393.5" y="432.4648">   </text><line style="stroke:#000000;stroke-width:1.0;" x1="388.5" x2="410.5" y1="437.418" y2="437.418"/><text fill="#000000" font-family="sans-serif" font-size="14" lengthAdjust="spacing" textLength="12" x="393.5" y="452.9531">   </text><line style="stroke:#000000;stroke-width:1.0;" x1="388.5" x2="410.5" y1="457.9063" y2="457.9063"/><text fill="#000000" font-family="sans-serif" font-size="14" lengthAdjust="spacing" textLength="12" x="393.5" y="473.4414">   </text><line style="stroke:#000000;stroke-width:1.0;" x1="388.5" x2="410.5" y1="478.3945" y2="478.3945"/><text fill="#000000" font-family="sans-serif" font-size="14" lengthAdjust="spacing" textLength="12" x="393.5" y="493.9297">   </text><rect fill="none" height="204.8828" rx="5" ry="5" style="stroke:#000000;stroke-width:1.5;" width="22" x="388.5" y="294"/><rect fill="#F1F1F1" height="61.4648" rx="5" ry="5" style="stroke:#F1F1F1;stroke-width:1.5;" width="271" x="545.5" y="10"/><text fill="#000000" font-family="sans-serif" font-size="14" font-weight="bold" lengthAdjust="spacing" textLength="78" x="550.5" y="25.5352">field_value</text><text fill="#000000" font-family="sans-serif" font-size="14" lengthAdjust="spacing" textLength="153" x="654.5" y="25.5352">Apr 17 2014 12:00AM</text><line style="stroke:#000000;stroke-width:1.0;" x1="649.5" x2="649.5" y1="10" y2="30.4883"/><line style="stroke:#000000;stroke-width:1.0;" x1="545.5" x2="816.5" y1="30.4883" y2="30.4883"/><text fill="#000000" font-family="sans-serif" font-size="14" font-weight="bold" lengthAdjust="spacing" textLength="74" x="550.5" y="46.0234">row_count</text><text fill="#000000" font-family="sans-serif" font-size="14" lengthAdjust="spacing" textLength="27" x="654.5" y="46.0234">342</text><line style="stroke:#000000;stroke-width:1.0;" x1="649.5" x2="649.5" y1="30.4883" y2="50.9766"/><line style="stroke:#000000;stroke-width:1.0;" x1="545.5" x2="816.5" y1="50.9766" y2="50.9766"/><text fill="#000000" font-family="sans-serif" font-size="14" font-weight="bold" lengthAdjust="spacing" textLength="94" x="550.5" y="66.5117">ratio_percent</text><text fill="#000000" font-family="sans-serif" font-size="14" lengthAdjust="spacing" textLength="157" x="654.5" y="66.5117">0.5094516691245475</text><line style="stroke:#000000;stroke-width:1.0;" x1="649.5" x2="649.5" y1="50.9766" y2="71.4648"/><rect fill="none" height="61.4648" rx="5" ry="5" style="stroke:#000000;stroke-width:1.5;" width="271" x="545.5" y="10"/><rect fill="#F1F1F1" height="61.4648" rx="5" ry="5" style="stroke:#F1F1F1;stroke-width:1.5;" width="271" x="545.5" y="89"/><text fill="#000000" font-family="sans-serif" font-size="14" font-weight="bold" lengthAdjust="spacing" textLength="78" x="550.5" y="104.5352">field_value</text><text fill="#000000" font-family="sans-serif" font-size="14" lengthAdjust="spacing" textLength="145" x="654.5" y="104.5352">Jun  1 2014 12:00AM</text><line style="stroke:#000000;stroke-width:1.0;" x1="649.5" x2="649.5" y1="89" y2="109.4883"/><line style="stroke:#000000;stroke-width:1.0;" x1="545.5" x2="816.5" y1="109.4883" y2="109.4883"/><text fill="#000000" font-family="sans-serif" font-size="14" font-weight="bold" lengthAdjust="spacing" textLength="74" x="550.5" y="125.0234">row_count</text><text fill="#000000" font-family="sans-serif" font-size="14" lengthAdjust="spacing" textLength="27" x="654.5" y="125.0234">337</text><line style="stroke:#000000;stroke-width:1.0;" x1="649.5" x2="649.5" y1="109.4883" y2="129.9766"/><line style="stroke:#000000;stroke-width:1.0;" x1="545.5" x2="816.5" y1="129.9766" y2="129.9766"/><text fill="#000000" font-family="sans-serif" font-size="14" font-weight="bold" lengthAdjust="spacing" textLength="94" x="550.5" y="145.5117">ratio_percent</text><text fill="#000000" font-family="sans-serif" font-size="14" lengthAdjust="spacing" textLength="157" x="654.5" y="145.5117">0.5020035453069371</text><line style="stroke:#000000;stroke-width:1.0;" x1="649.5" x2="649.5" y1="129.9766" y2="150.4648"/><rect fill="none" height="61.4648" rx="5" ry="5" style="stroke:#000000;stroke-width:1.5;" width="271" x="545.5" y="89"/><rect fill="#F1F1F1" height="61.4648" rx="5" ry="5" style="stroke:#F1F1F1;stroke-width:1.5;" width="271" x="545.5" y="168"/><text fill="#000000" font-family="sans-serif" font-size="14" font-weight="bold" lengthAdjust="spacing" textLength="78" x="550.5" y="183.5352">field_value</text><text fill="#000000" font-family="sans-serif" font-size="14" lengthAdjust="spacing" textLength="149" x="654.5" y="183.5352">Nov  4 2013 12:00AM</text><line style="stroke:#000000;stroke-width:1.0;" x1="649.5" x2="649.5" y1="168" y2="188.4883"/><line style="stroke:#000000;stroke-width:1.0;" x1="545.5" x2="816.5" y1="188.4883" y2="188.4883"/><text fill="#000000" font-family="sans-serif" font-size="14" font-weight="bold" lengthAdjust="spacing" textLength="74" x="550.5" y="204.0234">row_count</text><text fill="#000000" font-family="sans-serif" font-size="14" lengthAdjust="spacing" textLength="27" x="654.5" y="204.0234">333</text><line style="stroke:#000000;stroke-width:1.0;" x1="649.5" x2="649.5" y1="188.4883" y2="208.9766"/><line style="stroke:#000000;stroke-width:1.0;" x1="545.5" x2="816.5" y1="208.9766" y2="208.9766"/><text fill="#000000" font-family="sans-serif" font-size="14" font-weight="bold" lengthAdjust="spacing" textLength="94" x="550.5" y="224.5117">ratio_percent</text><text fill="#000000" font-family="sans-serif" font-size="14" lengthAdjust="spacing" textLength="157" x="654.5" y="224.5117">0.4960450462528489</text><line style="stroke:#000000;stroke-width:1.0;" x1="649.5" x2="649.5" y1="208.9766" y2="229.4648"/><rect fill="none" height="61.4648" rx="5" ry="5" style="stroke:#000000;stroke-width:1.5;" width="271" x="545.5" y="168"/><rect fill="#F1F1F1" height="61.4648" rx="5" ry="5" style="stroke:#F1F1F1;stroke-width:1.5;" width="271" x="545.5" y="247"/><text fill="#000000" font-family="sans-serif" font-size="14" font-weight="bold" lengthAdjust="spacing" textLength="78" x="550.5" y="262.5352">field_value</text><text fill="#000000" font-family="sans-serif" font-size="14" lengthAdjust="spacing" textLength="148" x="654.5" y="262.5352">Apr  5 2014 12:00AM</text><line style="stroke:#000000;stroke-width:1.0;" x1="649.5" x2="649.5" y1="247" y2="267.4883"/><line style="stroke:#000000;stroke-width:1.0;" x1="545.5" x2="816.5" y1="267.4883" y2="267.4883"/><text fill="#000000" font-family="sans-serif" font-size="14" font-weight="bold" lengthAdjust="spacing" textLength="74" x="550.5" y="283.0234">row_count</text><text fill="#000000" font-family="sans-serif" font-size="14" lengthAdjust="spacing" textLength="27" x="654.5" y="283.0234">326</text><line style="stroke:#000000;stroke-width:1.0;" x1="649.5" x2="649.5" y1="267.4883" y2="287.9766"/><line style="stroke:#000000;stroke-width:1.0;" x1="545.5" x2="816.5" y1="287.9766" y2="287.9766"/><text fill="#000000" font-family="sans-serif" font-size="14" font-weight="bold" lengthAdjust="spacing" textLength="94" x="550.5" y="303.5117">ratio_percent</text><text fill="#000000" font-family="sans-serif" font-size="14" lengthAdjust="spacing" textLength="157" x="654.5" y="303.5117">0.4856176729081944</text><line style="stroke:#000000;stroke-width:1.0;" x1="649.5" x2="649.5" y1="287.9766" y2="308.4648"/><rect fill="none" height="61.4648" rx="5" ry="5" style="stroke:#000000;stroke-width:1.5;" width="271" x="545.5" y="247"/><rect fill="#F1F1F1" height="61.4648" rx="5" ry="5" style="stroke:#F1F1F1;stroke-width:1.5;" width="280" x="541" y="326"/><text fill="#000000" font-family="sans-serif" font-size="14" font-weight="bold" lengthAdjust="spacing" textLength="78" x="546" y="341.5352">field_value</text><text fill="#000000" font-family="sans-serif" font-size="14" lengthAdjust="spacing" textLength="149" x="650" y="341.5352">Nov  8 2013 12:00AM</text><line style="stroke:#000000;stroke-width:1.0;" x1="645" x2="645" y1="326" y2="346.4883"/><line style="stroke:#000000;stroke-width:1.0;" x1="541" x2="821" y1="346.4883" y2="346.4883"/><text fill="#000000" font-family="sans-serif" font-size="14" font-weight="bold" lengthAdjust="spacing" textLength="74" x="546" y="362.0234">row_count</text><text fill="#000000" font-family="sans-serif" font-size="14" lengthAdjust="spacing" textLength="27" x="650" y="362.0234">322</text><line style="stroke:#000000;stroke-width:1.0;" x1="645" x2="645" y1="346.4883" y2="366.9766"/><line style="stroke:#000000;stroke-width:1.0;" x1="541" x2="821" y1="366.9766" y2="366.9766"/><text fill="#000000" font-family="sans-serif" font-size="14" font-weight="bold" lengthAdjust="spacing" textLength="94" x="546" y="382.5117">ratio_percent</text><text fill="#000000" font-family="sans-serif" font-size="14" lengthAdjust="spacing" textLength="166" x="650" y="382.5117">0.47965917385410617</text><line style="stroke:#000000;stroke-width:1.0;" x1="645" x2="645" y1="366.9766" y2="387.4648"/><rect fill="none" height="61.4648" rx="5" ry="5" style="stroke:#000000;stroke-width:1.5;" width="280" x="541" y="326"/><rect fill="#F1F1F1" height="61.4648" rx="5" ry="5" style="stroke:#F1F1F1;stroke-width:1.5;" width="271" x="545.5" y="405"/><text fill="#000000" font-family="sans-serif" font-size="14" font-weight="bold" lengthAdjust="spacing" textLength="78" x="550.5" y="420.5352">field_value</text><text fill="#000000" font-family="sans-serif" font-size="14" lengthAdjust="spacing" textLength="153" x="654.5" y="420.5352">Apr 13 2014 12:00AM</text><line style="stroke:#000000;stroke-width:1.0;" x1="649.5" x2="649.5" y1="405" y2="425.4883"/><line style="stroke:#000000;stroke-width:1.0;" x1="545.5" x2="816.5" y1="425.4883" y2="425.4883"/><text fill="#000000" font-family="sans-serif" font-size="14" font-weight="bold" lengthAdjust="spacing" textLength="74" x="550.5" y="441.0234">row_count</text><text fill="#000000" font-family="sans-serif" font-size="14" lengthAdjust="spacing" textLength="27" x="654.5" y="441.0234">315</text><line style="stroke:#000000;stroke-width:1.0;" x1="649.5" x2="649.5" y1="425.4883" y2="445.9766"/><line style="stroke:#000000;stroke-width:1.0;" x1="545.5" x2="816.5" y1="445.9766" y2="445.9766"/><text fill="#000000" font-family="sans-serif" font-size="14" font-weight="bold" lengthAdjust="spacing" textLength="94" x="550.5" y="461.5117">ratio_percent</text><text fill="#000000" font-family="sans-serif" font-size="14" lengthAdjust="spacing" textLength="157" x="654.5" y="461.5117">0.4692318005094517</text><line style="stroke:#000000;stroke-width:1.0;" x1="649.5" x2="649.5" y1="445.9766" y2="466.4648"/><rect fill="none" height="61.4648" rx="5" ry="5" style="stroke:#000000;stroke-width:1.5;" width="271" x="545.5" y="405"/><rect fill="#F1F1F1" height="61.4648" rx="5" ry="5" style="stroke:#F1F1F1;stroke-width:1.5;" width="280" x="541" y="484"/><text fill="#000000" font-family="sans-serif" font-size="14" font-weight="bold" lengthAdjust="spacing" textLength="78" x="546" y="499.5352">field_value</text><text fill="#000000" font-family="sans-serif" font-size="14" lengthAdjust="spacing" textLength="148" x="650" y="499.5352">Apr  1 2014 12:00AM</text><line style="stroke:#000000;stroke-width:1.0;" x1="645" x2="645" y1="484" y2="504.4883"/><line style="stroke:#000000;stroke-width:1.0;" x1="541" x2="821" y1="504.4883" y2="504.4883"/><text fill="#000000" font-family="sans-serif" font-size="14" font-weight="bold" lengthAdjust="spacing" textLength="74" x="546" y="520.0234">row_count</text><text fill="#000000" font-family="sans-serif" font-size="14" lengthAdjust="spacing" textLength="27" x="650" y="520.0234">309</text><line style="stroke:#000000;stroke-width:1.0;" x1="645" x2="645" y1="504.4883" y2="524.9766"/><line style="stroke:#000000;stroke-width:1.0;" x1="541" x2="821" y1="524.9766" y2="524.9766"/><text fill="#000000" font-family="sans-serif" font-size="14" font-weight="bold" lengthAdjust="spacing" textLength="94" x="546" y="540.5117">ratio_percent</text><text fill="#000000" font-family="sans-serif" font-size="14" lengthAdjust="spacing" textLength="166" x="650" y="540.5117">0.46029405192831924</text><line style="stroke:#000000;stroke-width:1.0;" x1="645" x2="645" y1="524.9766" y2="545.4648"/><rect fill="none" height="61.4648" rx="5" ry="5" style="stroke:#000000;stroke-width:1.5;" width="280" x="541" y="484"/><rect fill="#F1F1F1" height="61.4648" rx="5" ry="5" style="stroke:#F1F1F1;stroke-width:1.5;" width="280" x="541" y="563"/><text fill="#000000" font-family="sans-serif" font-size="14" font-weight="bold" lengthAdjust="spacing" textLength="78" x="546" y="578.5352">field_value</text><text fill="#000000" font-family="sans-serif" font-size="14" lengthAdjust="spacing" textLength="148" x="650" y="578.5352">Apr  9 2014 12:00AM</text><line style="stroke:#000000;stroke-width:1.0;" x1="645" x2="645" y1="563" y2="583.4883"/><line style="stroke:#000000;stroke-width:1.0;" x1="541" x2="821" y1="583.4883" y2="583.4883"/><text fill="#000000" font-family="sans-serif" font-size="14" font-weight="bold" lengthAdjust="spacing" textLength="74" x="546" y="599.0234">row_count</text><text fill="#000000" font-family="sans-serif" font-size="14" lengthAdjust="spacing" textLength="27" x="650" y="599.0234">303</text><line style="stroke:#000000;stroke-width:1.0;" x1="645" x2="645" y1="583.4883" y2="603.9766"/><line style="stroke:#000000;stroke-width:1.0;" x1="541" x2="821" y1="603.9766" y2="603.9766"/><text fill="#000000" font-family="sans-serif" font-size="14" font-weight="bold" lengthAdjust="spacing" textLength="94" x="546" y="619.5117">ratio_percent</text><text fill="#000000" font-family="sans-serif" font-size="14" lengthAdjust="spacing" textLength="166" x="650" y="619.5117">0.45135630334718685</text><line style="stroke:#000000;stroke-width:1.0;" x1="645" x2="645" y1="603.9766" y2="624.4648"/><rect fill="none" height="61.4648" rx="5" ry="5" style="stroke:#000000;stroke-width:1.5;" width="280" x="541" y="563"/><rect fill="#F1F1F1" height="61.4648" rx="5" ry="5" style="stroke:#F1F1F1;stroke-width:1.5;" width="271" x="545.5" y="642"/><text fill="#000000" font-family="sans-serif" font-size="14" font-weight="bold" lengthAdjust="spacing" textLength="78" x="550.5" y="657.5352">field_value</text><text fill="#000000" font-family="sans-serif" font-size="14" lengthAdjust="spacing" textLength="154" x="654.5" y="657.5352">Nov 12 2013 12:00AM</text><line style="stroke:#000000;stroke-width:1.0;" x1="649.5" x2="649.5" y1="642" y2="662.4883"/><line style="stroke:#000000;stroke-width:1.0;" x1="545.5" x2="816.5" y1="662.4883" y2="662.4883"/><text fill="#000000" font-family="sans-serif" font-size="14" font-weight="bold" lengthAdjust="spacing" textLength="74" x="550.5" y="678.0234">row_count</text><text fill="#000000" font-family="sans-serif" font-size="14" lengthAdjust="spacing" textLength="27" x="654.5" y="678.0234">301</text><line style="stroke:#000000;stroke-width:1.0;" x1="649.5" x2="649.5" y1="662.4883" y2="682.9766"/><line style="stroke:#000000;stroke-width:1.0;" x1="545.5" x2="816.5" y1="682.9766" y2="682.9766"/><text fill="#000000" font-family="sans-serif" font-size="14" font-weight="bold" lengthAdjust="spacing" textLength="94" x="550.5" y="698.5117">ratio_percent</text><text fill="#000000" font-family="sans-serif" font-size="14" lengthAdjust="spacing" textLength="157" x="654.5" y="698.5117">0.4483770538201427</text><line style="stroke:#000000;stroke-width:1.0;" x1="649.5" x2="649.5" y1="682.9766" y2="703.4648"/><rect fill="none" height="61.4648" rx="5" ry="5" style="stroke:#000000;stroke-width:1.5;" width="271" x="545.5" y="642"/><rect fill="#F1F1F1" height="61.4648" rx="5" ry="5" style="stroke:#F1F1F1;stroke-width:1.5;" width="280" x="541" y="721"/><text fill="#000000" font-family="sans-serif" font-size="14" font-weight="bold" lengthAdjust="spacing" textLength="78" x="546" y="736.5352">field_value</text><text fill="#000000" font-family="sans-serif" font-size="14" lengthAdjust="spacing" textLength="154" x="650" y="736.5352">Nov 16 2013 12:00AM</text><line style="stroke:#000000;stroke-width:1.0;" x1="645" x2="645" y1="721" y2="741.4883"/><line style="stroke:#000000;stroke-width:1.0;" x1="541" x2="821" y1="741.4883" y2="741.4883"/><text fill="#000000" font-family="sans-serif" font-size="14" font-weight="bold" lengthAdjust="spacing" textLength="74" x="546" y="757.0234">row_count</text><text fill="#000000" font-family="sans-serif" font-size="14" lengthAdjust="spacing" textLength="27" x="650" y="757.0234">293</text><line style="stroke:#000000;stroke-width:1.0;" x1="645" x2="645" y1="741.4883" y2="761.9766"/><line style="stroke:#000000;stroke-width:1.0;" x1="541" x2="821" y1="761.9766" y2="761.9766"/><text fill="#000000" font-family="sans-serif" font-size="14" font-weight="bold" lengthAdjust="spacing" textLength="94" x="546" y="777.5117">ratio_percent</text><text fill="#000000" font-family="sans-serif" font-size="14" lengthAdjust="spacing" textLength="166" x="650" y="777.5117">0.43646005571196617</text><line style="stroke:#000000;stroke-width:1.0;" x1="645" x2="645" y1="761.9766" y2="782.4648"/><rect fill="none" height="61.4648" rx="5" ry="5" style="stroke:#000000;stroke-width:1.5;" width="280" x="541" y="721"/><path d="M248,315.5 L261,315.5 C281.8273,315.5 278.6143,295.285 297,285.5 C301.4187,283.1484 306.0447,280.9598 310.7859,278.9261 " fill="none" style="stroke:#000000;stroke-width:1.0;stroke-dasharray:3.0,3.0;"/><path d="M311.9339,281.7334 L312.8914,278.0652 L309.638,276.1189 L317.804,276.0563 L311.9339,281.7334 " fill="#000000" style="stroke:#000000;stroke-width:1.0;"/><ellipse cx="248" cy="315.5" fill="#000000" rx="3" ry="3" style="stroke:#000000;stroke-width:1.0;"/><path d="M401,303.5 L414,303.5 C455.2281,303.5 476.1738,314.9755 505,285.5 C569.9848,219.0516 478.6323,148.4107 541,79.5 C542.0125,78.3813 543.0541,77.2936 544.123,76.2361 " fill="none" style="stroke:#000000;stroke-width:1.0;stroke-dasharray:3.0,3.0;"/><path d="M546.139,78.4612 L545.7918,74.7241 L542.107,74.0111 L549.6857,71.1961 L546.139,78.4612 " fill="#000000" style="stroke:#000000;stroke-width:1.0;"/><ellipse cx="401" cy="303.5" fill="#000000" rx="3" ry="3" style="stroke:#000000;stroke-width:1.0;"/><path d="M401,324.5 L414,324.5 C458.0022,324.5 475.9505,318.5503 505,285.5 C543.7318,241.4339 499.4404,199.9099 541,158.5 C542.2303,157.2742 543.4957,156.0861 544.7935,154.9346 " fill="none" style="stroke:#000000;stroke-width:1.0;stroke-dasharray:3.0,3.0;"/><path d="M546.7206,157.2901 L546.5601,153.4893 L542.8664,152.579 L550.6824,150.1169 L546.7206,157.2901 " fill="#000000" style="stroke:#000000;stroke-width:1.0;"/><ellipse cx="401" cy="324.5" fill="#000000" rx="3" ry="3" style="stroke:#000000;stroke-width:1.0;"/><path d="M401,344.5 L414,344.5 C462.2012,344.5 469.773,318.4001 505,285.5 C524.4889,267.2985 518.9903,252.5561 541,237.5 C543.3707,235.8783 545.8075,234.3236 548.2999,232.8333 " fill="none" style="stroke:#000000;stroke-width:1.0;stroke-dasharray:3.0,3.0;"/><path d="M549.8186,235.5213 L550.3159,231.6943 L546.7813,230.1454 L555.0198,229.0367 L549.8186,235.5213 " fill="#000000" style="stroke:#000000;stroke-width:1.0;"/><ellipse cx="401" cy="344.5" fill="#000000" rx="3" ry="3" style="stroke:#000000;stroke-width:1.0;"/><path d="M401,365.5 L414,365.5 C474.3414,365.5 483.7275,336.4987 541,317.5 C548.174,315.1202 555.5823,312.7489 563.0715,310.4167 " fill="none" style="stroke:#000000;stroke-width:1.0;stroke-dasharray:3.0,3.0;"/><path d="M563.9988,313.4209 L565.3247,309.7213 L562.1443,307.4125 L570.5821,308.0987 L563.9988,313.4209 " fill="#000000" style="stroke:#000000;stroke-width:1.0;"/><ellipse cx="401" cy="365.5" fill="#000000" rx="3" ry="3" style="stroke:#000000;stroke-width:1.0;"/><path d="M401,385.5 L414,385.5 C452.9413,385.5 494.8965,382.402 533.7354,378.2312 " fill="none" style="stroke:#000000;stroke-width:1.0;stroke-dasharray:3.0,3.0;"/><path d="M534.0746,381.321 L536.0527,377.9768 L533.3963,375.1414 L541.4598,377.3833 L534.0746,381.321 " fill="#000000" style="stroke:#000000;stroke-width:1.0;"/><ellipse cx="401" cy="385.5" fill="#000000" rx="3" ry="3" style="stroke:#000000;stroke-width:1.0;"/><path d="M401,406.5 L414,406.5 C454.3593,406.5 497.956,409.8277 537.9656,414.2286 " fill="none" style="stroke:#000000;stroke-width:1.0;stroke-dasharray:3.0,3.0;"/><path d="M537.6081,417.4094 L540.3512,414.4968 L538.3232,411.0478 L545.9177,415.1224 L537.6081,417.4094 " fill="#000000" style="stroke:#000000;stroke-width:1.0;"/><ellipse cx="401" cy="406.5" fill="#000000" rx="3" ry="3" style="stroke:#000000;stroke-width:1.0;"/><path d="M401,427.5 L414,427.5 C474.3414,427.5 483.6648,456.6915 541,475.5 C547.4049,477.6011 553.9979,479.6897 560.6694,481.7455 " fill="none" style="stroke:#000000;stroke-width:1.0;stroke-dasharray:3.0,3.0;"/><path d="M559.7826,484.6515 L562.8488,482.4106 L561.5561,478.8396 L567.9343,483.9625 L559.7826,484.6515 " fill="#000000" style="stroke:#000000;stroke-width:1.0;"/><ellipse cx="401" cy="427.5" fill="#000000" rx="3" ry="3" style="stroke:#000000;stroke-width:1.0;"/><path d="M401,447.5 L414,447.5 C487.8072,447.5 475.7519,520.0009 541,554.5 C544.4545,556.3265 548.0036,558.075 551.6231,559.7482 " fill="none" style="stroke:#000000;stroke-width:1.0;stroke-dasharray:3.0,3.0;"/><path d="M550.3729,562.5646 L553.7354,560.6859 L552.8734,556.9318 L558.6641,562.8738 L550.3729,562.5646 " fill="#000000" style="stroke:#000000;stroke-width:1.0;"/><ellipse cx="401" cy="447.5" fill="#000000" rx="3" ry="3" style="stroke:#000000;stroke-width:1.0;"/><path d="M401,468.5 L414,468.5 C506.5405,468.5 464.2958,581.7292 541,633.5 C543.3808,635.1069 545.8268,636.648 548.3275,638.1261 " fill="none" style="stroke:#000000;stroke-width:1.0;stroke-dasharray:3.0,3.0;"/><path d="M546.8207,640.8221 L550.3495,639.2561 L549.8343,635.43 L555.0675,641.893 L546.8207,640.8221 " fill="#000000" style="stroke:#000000;stroke-width:1.0;"/><ellipse cx="401" cy="468.5" fill="#000000" rx="3" ry="3" style="stroke:#000000;stroke-width:1.0;"/><path d="M401,488.5 L414,488.5 C528.4434,488.5 450.859,641.9884 541,712.5 C542.8105,713.9162 544.6696,715.2811 546.5714,716.5964 " fill="none" style="stroke:#000000;stroke-width:1.0;stroke-dasharray:3.0,3.0;"/><path d="M544.8579,719.2455 L548.5582,717.8815 L548.2849,713.9473 L553.1941,720.8801 L544.8579,719.2455 " fill="#000000" style="stroke:#000000;stroke-width:1.0;"/><ellipse cx="401" cy="488.5" fill="#000000" rx="3" ry="3" style="stroke:#000000;stroke-width:1.0;"/><path d="M248,336.5 L261,336.5 C308.0497,336.5 357.2629,365.8357 382.6101,383.482 " fill="none" style="stroke:#000000;stroke-width:1.0;stroke-dasharray:3.0,3.0;"/><path d="M380.8416,385.964 L384.4716,384.8085 L384.3787,381.0001 L388.815,387.9035 L380.8416,385.964 " fill="#000000" style="stroke:#000000;stroke-width:1.0;"/><ellipse cx="248" cy="336.5" fill="#000000" rx="3" ry="3" style="stroke:#000000;stroke-width:1.0;"/><!--MD5=[2966fec85362cd0608fb6662b12d89e4]
@startjson
{
    "field1": "ActualStartDate",
    "combination": "ActualStartDate",
    "null_distribution": {
        "total_null_rows": 0,
        "total_not_null_rows": 67131
    },
    "data_distribution": [
        {
            "field_value": "Apr 17 2014 12:00AM",
            "row_count": 342,
            "ratio_percent": 0.5094516691245475
        },
        {
            "field_value": "Jun  1 2014 12:00AM",
            "row_count": 337,
            "ratio_percent": 0.5020035453069371
        },
        {
            "field_value": "Nov  4 2013 12:00AM",
            "row_count": 333,
            "ratio_percent": 0.4960450462528489
        },
        {
            "field_value": "Apr  5 2014 12:00AM",
            "row_count": 326,
            "ratio_percent": 0.4856176729081944
        },
        {
            "field_value": "Nov  8 2013 12:00AM",
            "row_count": 322,
            "ratio_percent": 0.47965917385410617
        },
        {
            "field_value": "Apr 13 2014 12:00AM",
            "row_count": 315,
            "ratio_percent": 0.4692318005094517
        },
        {
            "field_value": "Apr  1 2014 12:00AM",
            "row_count": 309,
            "ratio_percent": 0.46029405192831924
        },
        {
            "field_value": "Apr  9 2014 12:00AM",
            "row_count": 303,
            "ratio_percent": 0.45135630334718685
        },
        {
            "field_value": "Nov 12 2013 12:00AM",
            "row_count": 301,
            "ratio_percent": 0.4483770538201427
        },
        {
            "field_value": "Nov 16 2013 12:00AM",
            "row_count": 293,
            "ratio_percent": 0.43646005571196617
        }
    ]
}
@endjson

PlantUML version 1.2022.5(Sat Apr 30 06:55:52 EDT 2022)
(GPL source distribution)
Java Runtime: OpenJDK Runtime Environment
JVM: OpenJDK 64-Bit Server VM
Default Encoding: UTF-8
Language: en
Country: CA
--></g></svg>