<?xml version="1.0" encoding="UTF-8" standalone="no"?><svg xmlns="http://www.w3.org/2000/svg" xmlns:xlink="http://www.w3.org/1999/xlink" contentStyleType="text/css" height="794px" preserveAspectRatio="none" style="width:829px;height:794px;background:#FFFFFF;" version="1.1" viewBox="0 0 829 794" width="829px" zoomAndPan="magnify"><defs/><g><rect fill="#F1F1F1" height="81.9531" rx="5" ry="5" style="stroke:#F1F1F1;stroke-width:1.5;" width="246" x="10" y="264.5"/><text fill="#000000" font-family="sans-serif" font-size="14" font-weight="bold" lengthAdjust="spacing" textLength="42" x="15" y="280.0352">field1</text><text fill="#000000" font-family="sans-serif" font-size="14" lengthAdjust="spacing" textLength="102" x="149" y="280.0352">ScrapReasonID</text><line style="stroke:#000000;stroke-width:1.0;" x1="144" x2="144" y1="264.5" y2="284.9883"/><line style="stroke:#000000;stroke-width:1.0;" x1="10" x2="256" y1="284.9883" y2="284.9883"/><text fill="#000000" font-family="sans-serif" font-size="14" font-weight="bold" lengthAdjust="spacing" textLength="90" x="15" y="300.5234">combination</text><text fill="#000000" font-family="sans-serif" font-size="14" lengthAdjust="spacing" textLength="102" x="149" y="300.5234">ScrapReasonID</text><line style="stroke:#000000;stroke-width:1.0;" x1="144" x2="144" y1="284.9883" y2="305.4766"/><line style="stroke:#000000;stroke-width:1.0;" x1="10" x2="256" y1="305.4766" y2="305.4766"/><text fill="#000000" font-family="sans-serif" font-size="14" font-weight="bold" lengthAdjust="spacing" textLength="121" x="15" y="321.0117">null_distribution</text><text fill="#000000" font-family="sans-serif" font-size="14" lengthAdjust="spacing" textLength="12" x="149" y="321.0117">   </text><line style="stroke:#000000;stroke-width:1.0;" x1="144" x2="144" y1="305.4766" y2="325.9648"/><line style="stroke:#000000;stroke-width:1.0;" x1="10" x2="256" y1="325.9648" y2="325.9648"/><text fill="#000000" font-family="sans-serif" font-size="14" font-weight="bold" lengthAdjust="spacing" textLength="124" x="15" y="341.5">data_distribution</text><text fill="#000000" font-family="sans-serif" font-size="14" lengthAdjust="spacing" textLength="12" x="149" y="341.5">   </text><line style="stroke:#000000;stroke-width:1.0;" x1="144" x2="144" y1="325.9648" y2="346.4531"/><rect fill="none" height="81.9531" rx="5" ry="5" style="stroke:#000000;stroke-width:1.5;" width="246" x="10" y="264.5"/><rect fill="#F1F1F1" height="40.9766" rx="5" ry="5" style="stroke:#F1F1F1;stroke-width:1.5;" width="207" x="293" y="235"/><text fill="#000000" font-family="sans-serif" font-size="14" font-weight="bold" lengthAdjust="spacing" textLength="111" x="298" y="250.5352">total_null_rows</text><text fill="#000000" font-family="sans-serif" font-size="14" lengthAdjust="spacing" textLength="45" x="450" y="250.5352">71862</text><line style="stroke:#000000;stroke-width:1.0;" x1="445" x2="445" y1="235" y2="255.4883"/><line style="stroke:#000000;stroke-width:1.0;" x1="293" x2="500" y1="255.4883" y2="255.4883"/><text fill="#000000" font-family="sans-serif" font-size="14" font-weight="bold" lengthAdjust="spacing" textLength="142" x="298" y="271.0234">total_not_null_rows</text><text fill="#000000" font-family="sans-serif" font-size="14" lengthAdjust="spacing" textLength="27" x="450" y="271.0234">729</text><line style="stroke:#000000;stroke-width:1.0;" x1="445" x2="445" y1="255.4883" y2="275.9766"/><rect fill="none" height="40.9766" rx="5" ry="5" style="stroke:#000000;stroke-width:1.5;" width="207" x="293" y="235"/><rect fill="#F1F1F1" height="204.8828" rx="5" ry="5" style="stroke:#F1F1F1;stroke-width:1.5;" width="22" x="384.5" y="294"/><text fill="#000000" font-family="sans-serif" font-size="14" lengthAdjust="spacing" textLength="12" x="389.5" y="309.5352">   </text><line style="stroke:#000000;stroke-width:1.0;" x1="384.5" x2="406.5" y1="314.4883" y2="314.4883"/><text fill="#000000" font-family="sans-serif" font-size="14" lengthAdjust="spacing" textLength="12" x="389.5" y="330.0234">   </text><line style="stroke:#000000;stroke-width:1.0;" x1="384.5" x2="406.5" y1="334.9766" y2="334.9766"/><text fill="#000000" font-family="sans-serif" font-size="14" lengthAdjust="spacing" textLength="12" x="389.5" y="350.5117">   </text><line style="stroke:#000000;stroke-width:1.0;" x1="384.5" x2="406.5" y1="355.4648" y2="355.4648"/><text fill="#000000" font-family="sans-serif" font-size="14" lengthAdjust="spacing" textLength="12" x="389.5" y="371">   </text><line style="stroke:#000000;stroke-width:1.0;" x1="384.5" x2="406.5" y1="375.9531" y2="375.9531"/><text fill="#000000" font-family="sans-serif" font-size="14" lengthAdjust="spacing" textLength="12" x="389.5" y="391.4883">   </text><line style="stroke:#000000;stroke-width:1.0;" x1="384.5" x2="406.5" y1="396.4414" y2="396.4414"/><text fill="#000000" font-family="sans-serif" font-size="14" lengthAdjust="spacing" textLength="12" x="389.5" y="411.9766">   </text><line style="stroke:#000000;stroke-width:1.0;" x1="384.5" x2="406.5" y1="416.9297" y2="416.9297"/><text fill="#000000" font-family="sans-serif" font-size="14" lengthAdjust="spacing" textLength="12" x="389.5" y="432.4648">   </text><line style="stroke:#000000;stroke-width:1.0;" x1="384.5" x2="406.5" y1="437.418" y2="437.418"/><text fill="#000000" font-family="sans-serif" font-size="14" lengthAdjust="spacing" textLength="12" x="389.5" y="452.9531">   </text><line style="stroke:#000000;stroke-width:1.0;" x1="384.5" x2="406.5" y1="457.9063" y2="457.9063"/><text fill="#000000" font-family="sans-serif" font-size="14" lengthAdjust="spacing" textLength="12" x="389.5" y="473.4414">   </text><line style="stroke:#000000;stroke-width:1.0;" x1="384.5" x2="406.5" y1="478.3945" y2="478.3945"/><text fill="#000000" font-family="sans-serif" font-size="14" lengthAdjust="spacing" textLength="12" x="389.5" y="493.9297">   </text><rect fill="none" height="204.8828" rx="5" ry="5" style="stroke:#000000;stroke-width:1.5;" width="22" x="384.5" y="294"/><rect fill="#F1F1F1" height="61.4648" rx="5" ry="5" style="stroke:#F1F1F1;stroke-width:1.5;" width="262" x="546" y="10"/><text fill="#000000" font-family="sans-serif" font-size="14" font-weight="bold" lengthAdjust="spacing" textLength="78" x="551" y="25.5352">field_value</text><text fill="#000000" font-family="sans-serif" font-size="14" font-weight="bold" lengthAdjust="spacing" textLength="37" x="655" y="25.5352">NULL</text><line style="stroke:#000000;stroke-width:1.0;" x1="650" x2="650" y1="10" y2="30.4883"/><line style="stroke:#000000;stroke-width:1.0;" x1="546" x2="808" y1="30.4883" y2="30.4883"/><text fill="#000000" font-family="sans-serif" font-size="14" font-weight="bold" lengthAdjust="spacing" textLength="74" x="551" y="46.0234">row_count</text><text fill="#000000" font-family="sans-serif" font-size="14" lengthAdjust="spacing" textLength="45" x="655" y="46.0234">71862</text><line style="stroke:#000000;stroke-width:1.0;" x1="650" x2="650" y1="30.4883" y2="50.9766"/><line style="stroke:#000000;stroke-width:1.0;" x1="546" x2="808" y1="50.9766" y2="50.9766"/><text fill="#000000" font-family="sans-serif" font-size="14" font-weight="bold" lengthAdjust="spacing" textLength="94" x="551" y="66.5117">ratio_percent</text><text fill="#000000" font-family="sans-serif" font-size="14" lengthAdjust="spacing" textLength="148" x="655" y="66.5117">98.99574327395958</text><line style="stroke:#000000;stroke-width:1.0;" x1="650" x2="650" y1="50.9766" y2="71.4648"/><rect fill="none" height="61.4648" rx="5" ry="5" style="stroke:#000000;stroke-width:1.5;" width="262" x="546" y="10"/><rect fill="#F1F1F1" height="61.4648" rx="5" ry="5" style="stroke:#F1F1F1;stroke-width:1.5;" width="280" x="537" y="89"/><text fill="#000000" font-family="sans-serif" font-size="14" font-weight="bold" lengthAdjust="spacing" textLength="78" x="542" y="104.5352">field_value</text><text fill="#000000" font-family="sans-serif" font-size="14" lengthAdjust="spacing" textLength="18" x="646" y="104.5352">13</text><line style="stroke:#000000;stroke-width:1.0;" x1="641" x2="641" y1="89" y2="109.4883"/><line style="stroke:#000000;stroke-width:1.0;" x1="537" x2="817" y1="109.4883" y2="109.4883"/><text fill="#000000" font-family="sans-serif" font-size="14" font-weight="bold" lengthAdjust="spacing" textLength="74" x="542" y="125.0234">row_count</text><text fill="#000000" font-family="sans-serif" font-size="14" lengthAdjust="spacing" textLength="18" x="646" y="125.0234">63</text><line style="stroke:#000000;stroke-width:1.0;" x1="641" x2="641" y1="109.4883" y2="129.9766"/><line style="stroke:#000000;stroke-width:1.0;" x1="537" x2="817" y1="129.9766" y2="129.9766"/><text fill="#000000" font-family="sans-serif" font-size="14" font-weight="bold" lengthAdjust="spacing" textLength="94" x="542" y="145.5117">ratio_percent</text><text fill="#000000" font-family="sans-serif" font-size="14" lengthAdjust="spacing" textLength="166" x="646" y="145.5117">0.08678761829978923</text><line style="stroke:#000000;stroke-width:1.0;" x1="641" x2="641" y1="129.9766" y2="150.4648"/><rect fill="none" height="61.4648" rx="5" ry="5" style="stroke:#000000;stroke-width:1.5;" width="280" x="537" y="89"/><rect fill="#F1F1F1" height="61.4648" rx="5" ry="5" style="stroke:#F1F1F1;stroke-width:1.5;" width="280" x="537" y="168"/><text fill="#000000" font-family="sans-serif" font-size="14" font-weight="bold" lengthAdjust="spacing" textLength="78" x="542" y="183.5352">field_value</text><text fill="#000000" font-family="sans-serif" font-size="14" lengthAdjust="spacing" textLength="9" x="646" y="183.5352">3</text><line style="stroke:#000000;stroke-width:1.0;" x1="641" x2="641" y1="168" y2="188.4883"/><line style="stroke:#000000;stroke-width:1.0;" x1="537" x2="817" y1="188.4883" y2="188.4883"/><text fill="#000000" font-family="sans-serif" font-size="14" font-weight="bold" lengthAdjust="spacing" textLength="74" x="542" y="204.0234">row_count</text><text fill="#000000" font-family="sans-serif" font-size="14" lengthAdjust="spacing" textLength="18" x="646" y="204.0234">54</text><line style="stroke:#000000;stroke-width:1.0;" x1="641" x2="641" y1="188.4883" y2="208.9766"/><line style="stroke:#000000;stroke-width:1.0;" x1="537" x2="817" y1="208.9766" y2="208.9766"/><text fill="#000000" font-family="sans-serif" font-size="14" font-weight="bold" lengthAdjust="spacing" textLength="94" x="542" y="224.5117">ratio_percent</text><text fill="#000000" font-family="sans-serif" font-size="14" lengthAdjust="spacing" textLength="166" x="646" y="224.5117">0.07438938711410506</text><line style="stroke:#000000;stroke-width:1.0;" x1="641" x2="641" y1="208.9766" y2="229.4648"/><rect fill="none" height="61.4648" rx="5" ry="5" style="stroke:#000000;stroke-width:1.5;" width="280" x="537" y="168"/><rect fill="#F1F1F1" height="61.4648" rx="5" ry="5" style="stroke:#F1F1F1;stroke-width:1.5;" width="280" x="537" y="247"/><text fill="#000000" font-family="sans-serif" font-size="14" font-weight="bold" lengthAdjust="spacing" textLength="78" x="542" y="262.5352">field_value</text><text fill="#000000" font-family="sans-serif" font-size="14" lengthAdjust="spacing" textLength="18" x="646" y="262.5352">14</text><line style="stroke:#000000;stroke-width:1.0;" x1="641" x2="641" y1="247" y2="267.4883"/><line style="stroke:#000000;stroke-width:1.0;" x1="537" x2="817" y1="267.4883" y2="267.4883"/><text fill="#000000" font-family="sans-serif" font-size="14" font-weight="bold" lengthAdjust="spacing" textLength="74" x="542" y="283.0234">row_count</text><text fill="#000000" font-family="sans-serif" font-size="14" lengthAdjust="spacing" textLength="18" x="646" y="283.0234">52</text><line style="stroke:#000000;stroke-width:1.0;" x1="641" x2="641" y1="267.4883" y2="287.9766"/><line style="stroke:#000000;stroke-width:1.0;" x1="537" x2="817" y1="287.9766" y2="287.9766"/><text fill="#000000" font-family="sans-serif" font-size="14" font-weight="bold" lengthAdjust="spacing" textLength="94" x="542" y="303.5117">ratio_percent</text><text fill="#000000" font-family="sans-serif" font-size="14" lengthAdjust="spacing" textLength="166" x="646" y="303.5117">0.07163422462839746</text><line style="stroke:#000000;stroke-width:1.0;" x1="641" x2="641" y1="287.9766" y2="308.4648"/><rect fill="none" height="61.4648" rx="5" ry="5" style="stroke:#000000;stroke-width:1.5;" width="280" x="537" y="247"/><rect fill="#F1F1F1" height="61.4648" rx="5" ry="5" style="stroke:#F1F1F1;stroke-width:1.5;" width="280" x="537" y="326"/><text fill="#000000" font-family="sans-serif" font-size="14" font-weight="bold" lengthAdjust="spacing" textLength="78" x="542" y="341.5352">field_value</text><text fill="#000000" font-family="sans-serif" font-size="14" lengthAdjust="spacing" textLength="18" x="646" y="341.5352">11</text><line style="stroke:#000000;stroke-width:1.0;" x1="641" x2="641" y1="326" y2="346.4883"/><line style="stroke:#000000;stroke-width:1.0;" x1="537" x2="817" y1="346.4883" y2="346.4883"/><text fill="#000000" font-family="sans-serif" font-size="14" font-weight="bold" lengthAdjust="spacing" textLength="74" x="542" y="362.0234">row_count</text><text fill="#000000" font-family="sans-serif" font-size="14" lengthAdjust="spacing" textLength="18" x="646" y="362.0234">52</text><line style="stroke:#000000;stroke-width:1.0;" x1="641" x2="641" y1="346.4883" y2="366.9766"/><line style="stroke:#000000;stroke-width:1.0;" x1="537" x2="817" y1="366.9766" y2="366.9766"/><text fill="#000000" font-family="sans-serif" font-size="14" font-weight="bold" lengthAdjust="spacing" textLength="94" x="542" y="382.5117">ratio_percent</text><text fill="#000000" font-family="sans-serif" font-size="14" lengthAdjust="spacing" textLength="166" x="646" y="382.5117">0.07163422462839746</text><line style="stroke:#000000;stroke-width:1.0;" x1="641" x2="641" y1="366.9766" y2="387.4648"/><rect fill="none" height="61.4648" rx="5" ry="5" style="stroke:#000000;stroke-width:1.5;" width="280" x="537" y="326"/><rect fill="#F1F1F1" height="61.4648" rx="5" ry="5" style="stroke:#F1F1F1;stroke-width:1.5;" width="280" x="537" y="405"/><text fill="#000000" font-family="sans-serif" font-size="14" font-weight="bold" lengthAdjust="spacing" textLength="78" x="542" y="420.5352">field_value</text><text fill="#000000" font-family="sans-serif" font-size="14" lengthAdjust="spacing" textLength="18" x="646" y="420.5352">16</text><line style="stroke:#000000;stroke-width:1.0;" x1="641" x2="641" y1="405" y2="425.4883"/><line style="stroke:#000000;stroke-width:1.0;" x1="537" x2="817" y1="425.4883" y2="425.4883"/><text fill="#000000" font-family="sans-serif" font-size="14" font-weight="bold" lengthAdjust="spacing" textLength="74" x="542" y="441.0234">row_count</text><text fill="#000000" font-family="sans-serif" font-size="14" lengthAdjust="spacing" textLength="18" x="646" y="441.0234">51</text><line style="stroke:#000000;stroke-width:1.0;" x1="641" x2="641" y1="425.4883" y2="445.9766"/><line style="stroke:#000000;stroke-width:1.0;" x1="537" x2="817" y1="445.9766" y2="445.9766"/><text fill="#000000" font-family="sans-serif" font-size="14" font-weight="bold" lengthAdjust="spacing" textLength="94" x="542" y="461.5117">ratio_percent</text><text fill="#000000" font-family="sans-serif" font-size="14" lengthAdjust="spacing" textLength="166" x="646" y="461.5117">0.07025664338554366</text><line style="stroke:#000000;stroke-width:1.0;" x1="641" x2="641" y1="445.9766" y2="466.4648"/><rect fill="none" height="61.4648" rx="5" ry="5" style="stroke:#000000;stroke-width:1.5;" width="280" x="537" y="405"/><rect fill="#F1F1F1" height="61.4648" rx="5" ry="5" style="stroke:#F1F1F1;stroke-width:1.5;" width="280" x="537" y="484"/><text fill="#000000" font-family="sans-serif" font-size="14" font-weight="bold" lengthAdjust="spacing" textLength="78" x="542" y="499.5352">field_value</text><text fill="#000000" font-family="sans-serif" font-size="14" lengthAdjust="spacing" textLength="18" x="646" y="499.5352">15</text><line style="stroke:#000000;stroke-width:1.0;" x1="641" x2="641" y1="484" y2="504.4883"/><line style="stroke:#000000;stroke-width:1.0;" x1="537" x2="817" y1="504.4883" y2="504.4883"/><text fill="#000000" font-family="sans-serif" font-size="14" font-weight="bold" lengthAdjust="spacing" textLength="74" x="542" y="520.0234">row_count</text><text fill="#000000" font-family="sans-serif" font-size="14" lengthAdjust="spacing" textLength="18" x="646" y="520.0234">48</text><line style="stroke:#000000;stroke-width:1.0;" x1="641" x2="641" y1="504.4883" y2="524.9766"/><line style="stroke:#000000;stroke-width:1.0;" x1="537" x2="817" y1="524.9766" y2="524.9766"/><text fill="#000000" font-family="sans-serif" font-size="14" font-weight="bold" lengthAdjust="spacing" textLength="94" x="542" y="540.5117">ratio_percent</text><text fill="#000000" font-family="sans-serif" font-size="14" lengthAdjust="spacing" textLength="166" x="646" y="540.5117">0.06612389965698227</text><line style="stroke:#000000;stroke-width:1.0;" x1="641" x2="641" y1="524.9766" y2="545.4648"/><rect fill="none" height="61.4648" rx="5" ry="5" style="stroke:#000000;stroke-width:1.5;" width="280" x="537" y="484"/><rect fill="#F1F1F1" height="61.4648" rx="5" ry="5" style="stroke:#F1F1F1;stroke-width:1.5;" width="280" x="537" y="563"/><text fill="#000000" font-family="sans-serif" font-size="14" font-weight="bold" lengthAdjust="spacing" textLength="78" x="542" y="578.5352">field_value</text><text fill="#000000" font-family="sans-serif" font-size="14" lengthAdjust="spacing" textLength="9" x="646" y="578.5352">9</text><line style="stroke:#000000;stroke-width:1.0;" x1="641" x2="641" y1="563" y2="583.4883"/><line style="stroke:#000000;stroke-width:1.0;" x1="537" x2="817" y1="583.4883" y2="583.4883"/><text fill="#000000" font-family="sans-serif" font-size="14" font-weight="bold" lengthAdjust="spacing" textLength="74" x="542" y="599.0234">row_count</text><text fill="#000000" font-family="sans-serif" font-size="14" lengthAdjust="spacing" textLength="18" x="646" y="599.0234">47</text><line style="stroke:#000000;stroke-width:1.0;" x1="641" x2="641" y1="583.4883" y2="603.9766"/><line style="stroke:#000000;stroke-width:1.0;" x1="537" x2="817" y1="603.9766" y2="603.9766"/><text fill="#000000" font-family="sans-serif" font-size="14" font-weight="bold" lengthAdjust="spacing" textLength="94" x="542" y="619.5117">ratio_percent</text><text fill="#000000" font-family="sans-serif" font-size="14" lengthAdjust="spacing" textLength="166" x="646" y="619.5117">0.06474631841412848</text><line style="stroke:#000000;stroke-width:1.0;" x1="641" x2="641" y1="603.9766" y2="624.4648"/><rect fill="none" height="61.4648" rx="5" ry="5" style="stroke:#000000;stroke-width:1.5;" width="280" x="537" y="563"/><rect fill="#F1F1F1" height="61.4648" rx="5" ry="5" style="stroke:#F1F1F1;stroke-width:1.5;" width="280" x="537" y="642"/><text fill="#000000" font-family="sans-serif" font-size="14" font-weight="bold" lengthAdjust="spacing" textLength="78" x="542" y="657.5352">field_value</text><text fill="#000000" font-family="sans-serif" font-size="14" lengthAdjust="spacing" textLength="9" x="646" y="657.5352">4</text><line style="stroke:#000000;stroke-width:1.0;" x1="641" x2="641" y1="642" y2="662.4883"/><line style="stroke:#000000;stroke-width:1.0;" x1="537" x2="817" y1="662.4883" y2="662.4883"/><text fill="#000000" font-family="sans-serif" font-size="14" font-weight="bold" lengthAdjust="spacing" textLength="74" x="542" y="678.0234">row_count</text><text fill="#000000" font-family="sans-serif" font-size="14" lengthAdjust="spacing" textLength="18" x="646" y="678.0234">45</text><line style="stroke:#000000;stroke-width:1.0;" x1="641" x2="641" y1="662.4883" y2="682.9766"/><line style="stroke:#000000;stroke-width:1.0;" x1="537" x2="817" y1="682.9766" y2="682.9766"/><text fill="#000000" font-family="sans-serif" font-size="14" font-weight="bold" lengthAdjust="spacing" textLength="94" x="542" y="698.5117">ratio_percent</text><text fill="#000000" font-family="sans-serif" font-size="14" lengthAdjust="spacing" textLength="166" x="646" y="698.5117">0.06199115592842088</text><line style="stroke:#000000;stroke-width:1.0;" x1="641" x2="641" y1="682.9766" y2="703.4648"/><rect fill="none" height="61.4648" rx="5" ry="5" style="stroke:#000000;stroke-width:1.5;" width="280" x="537" y="642"/><rect fill="#F1F1F1" height="61.4648" rx="5" ry="5" style="stroke:#F1F1F1;stroke-width:1.5;" width="280" x="537" y="721"/><text fill="#000000" font-family="sans-serif" font-size="14" font-weight="bold" lengthAdjust="spacing" textLength="78" x="542" y="736.5352">field_value</text><text fill="#000000" font-family="sans-serif" font-size="14" lengthAdjust="spacing" textLength="9" x="646" y="736.5352">6</text><line style="stroke:#000000;stroke-width:1.0;" x1="641" x2="641" y1="721" y2="741.4883"/><line style="stroke:#000000;stroke-width:1.0;" x1="537" x2="817" y1="741.4883" y2="741.4883"/><text fill="#000000" font-family="sans-serif" font-size="14" font-weight="bold" lengthAdjust="spacing" textLength="74" x="542" y="757.0234">row_count</text><text fill="#000000" font-family="sans-serif" font-size="14" lengthAdjust="spacing" textLength="18" x="646" y="757.0234">44</text><line style="stroke:#000000;stroke-width:1.0;" x1="641" x2="641" y1="741.4883" y2="761.9766"/><line style="stroke:#000000;stroke-width:1.0;" x1="537" x2="817" y1="761.9766" y2="761.9766"/><text fill="#000000" font-family="sans-serif" font-size="14" font-weight="bold" lengthAdjust="spacing" textLength="94" x="542" y="777.5117">ratio_percent</text><text fill="#000000" font-family="sans-serif" font-size="14" lengthAdjust="spacing" textLength="166" x="646" y="777.5117">0.06061357468556708</text><line style="stroke:#000000;stroke-width:1.0;" x1="641" x2="641" y1="761.9766" y2="782.4648"/><rect fill="none" height="61.4648" rx="5" ry="5" style="stroke:#000000;stroke-width:1.5;" width="280" x="537" y="721"/><path d="M244,315.5 L257,315.5 C277.8273,315.5 274.6143,295.285 293,285.5 C297.4187,283.1484 302.0447,280.9598 306.7859,278.9261 " fill="none" style="stroke:#000000;stroke-width:1.0;stroke-dasharray:3.0,3.0;"/><path d="M307.9339,281.7334 L308.8914,278.0652 L305.638,276.1189 L313.804,276.0563 L307.9339,281.7334 " fill="#000000" style="stroke:#000000;stroke-width:1.0;"/><ellipse cx="244" cy="315.5" fill="#000000" rx="3" ry="3" style="stroke:#000000;stroke-width:1.0;"/><path d="M397,303.5 L410,303.5 C451.2281,303.5 472.1738,314.9755 501,285.5 C565.9848,219.0516 474.6323,148.4107 537,79.5 C538.1654,78.2123 539.3695,76.9657 540.6092,75.759 " fill="none" style="stroke:#000000;stroke-width:1.0;stroke-dasharray:3.0,3.0;"/><path d="M542.6253,78.0212 L542.3059,74.247 L538.5932,73.4967 L546.2648,70.7189 L542.6253,78.0212 " fill="#000000" style="stroke:#000000;stroke-width:1.0;"/><ellipse cx="397" cy="303.5" fill="#000000" rx="3" ry="3" style="stroke:#000000;stroke-width:1.0;"/><path d="M397,324.5 L410,324.5 C454.0022,324.5 471.9505,318.5503 501,285.5 C539.7318,241.4339 495.4404,199.9099 537,158.5 C538.2303,157.2742 539.4957,156.0861 540.7935,154.9346 " fill="none" style="stroke:#000000;stroke-width:1.0;stroke-dasharray:3.0,3.0;"/><path d="M542.7206,157.2901 L542.5601,153.4893 L538.8664,152.579 L546.6824,150.1169 L542.7206,157.2901 " fill="#000000" style="stroke:#000000;stroke-width:1.0;"/><ellipse cx="397" cy="324.5" fill="#000000" rx="3" ry="3" style="stroke:#000000;stroke-width:1.0;"/><path d="M397,344.5 L410,344.5 C458.2012,344.5 465.773,318.4001 501,285.5 C520.4889,267.2985 514.9903,252.5561 537,237.5 C539.3707,235.8783 541.8075,234.3236 544.2999,232.8333 " fill="none" style="stroke:#000000;stroke-width:1.0;stroke-dasharray:3.0,3.0;"/><path d="M545.8186,235.5213 L546.3159,231.6943 L542.7813,230.1454 L551.0198,229.0367 L545.8186,235.5213 " fill="#000000" style="stroke:#000000;stroke-width:1.0;"/><ellipse cx="397" cy="344.5" fill="#000000" rx="3" ry="3" style="stroke:#000000;stroke-width:1.0;"/><path d="M397,365.5 L410,365.5 C470.3414,365.5 479.7275,336.4987 537,317.5 C544.174,315.1202 551.5823,312.7489 559.0715,310.4167 " fill="none" style="stroke:#000000;stroke-width:1.0;stroke-dasharray:3.0,3.0;"/><path d="M559.9988,313.4209 L561.3247,309.7213 L558.1443,307.4125 L566.5821,308.0987 L559.9988,313.4209 " fill="#000000" style="stroke:#000000;stroke-width:1.0;"/><ellipse cx="397" cy="365.5" fill="#000000" rx="3" ry="3" style="stroke:#000000;stroke-width:1.0;"/><path d="M397,385.5 L410,385.5 C448.9413,385.5 490.8965,382.402 529.7354,378.2312 " fill="none" style="stroke:#000000;stroke-width:1.0;stroke-dasharray:3.0,3.0;"/><path d="M530.0746,381.321 L532.0527,377.9768 L529.3963,375.1414 L537.4598,377.3833 L530.0746,381.321 " fill="#000000" style="stroke:#000000;stroke-width:1.0;"/><ellipse cx="397" cy="385.5" fill="#000000" rx="3" ry="3" style="stroke:#000000;stroke-width:1.0;"/><path d="M397,406.5 L410,406.5 C448.9413,406.5 490.8965,409.598 529.7354,413.7688 " fill="none" style="stroke:#000000;stroke-width:1.0;stroke-dasharray:3.0,3.0;"/><path d="M529.3963,416.8586 L532.0527,414.0232 L530.0746,410.679 L537.4598,414.6167 L529.3963,416.8586 " fill="#000000" style="stroke:#000000;stroke-width:1.0;"/><ellipse cx="397" cy="406.5" fill="#000000" rx="3" ry="3" style="stroke:#000000;stroke-width:1.0;"/><path d="M397,427.5 L410,427.5 C470.3414,427.5 479.6648,456.6915 537,475.5 C543.4049,477.6011 549.9979,479.6897 556.6694,481.7455 " fill="none" style="stroke:#000000;stroke-width:1.0;stroke-dasharray:3.0,3.0;"/><path d="M555.7826,484.6515 L558.8488,482.4106 L557.5561,478.8396 L563.9343,483.9625 L555.7826,484.6515 " fill="#000000" style="stroke:#000000;stroke-width:1.0;"/><ellipse cx="397" cy="427.5" fill="#000000" rx="3" ry="3" style="stroke:#000000;stroke-width:1.0;"/><path d="M397,447.5 L410,447.5 C483.8072,447.5 471.7519,520.0009 537,554.5 C540.4545,556.3265 544.0036,558.075 547.6231,559.7482 " fill="none" style="stroke:#000000;stroke-width:1.0;stroke-dasharray:3.0,3.0;"/><path d="M546.3729,562.5646 L549.7354,560.6859 L548.8734,556.9318 L554.6641,562.8738 L546.3729,562.5646 " fill="#000000" style="stroke:#000000;stroke-width:1.0;"/><ellipse cx="397" cy="447.5" fill="#000000" rx="3" ry="3" style="stroke:#000000;stroke-width:1.0;"/><path d="M397,468.5 L410,468.5 C502.5405,468.5 460.2958,581.7292 537,633.5 C539.3808,635.1069 541.8268,636.648 544.3275,638.1261 " fill="none" style="stroke:#000000;stroke-width:1.0;stroke-dasharray:3.0,3.0;"/><path d="M542.8207,640.8221 L546.3495,639.2561 L545.8343,635.43 L551.0675,641.893 L542.8207,640.8221 " fill="#000000" style="stroke:#000000;stroke-width:1.0;"/><ellipse cx="397" cy="468.5" fill="#000000" rx="3" ry="3" style="stroke:#000000;stroke-width:1.0;"/><path d="M397,488.5 L410,488.5 C524.4434,488.5 446.859,641.9884 537,712.5 C538.8105,713.9162 540.6696,715.2811 542.5714,716.5964 " fill="none" style="stroke:#000000;stroke-width:1.0;stroke-dasharray:3.0,3.0;"/><path d="M540.8579,719.2455 L544.5582,717.8815 L544.2849,713.9473 L549.1941,720.8801 L540.8579,719.2455 " fill="#000000" style="stroke:#000000;stroke-width:1.0;"/><ellipse cx="397" cy="488.5" fill="#000000" rx="3" ry="3" style="stroke:#000000;stroke-width:1.0;"/><path d="M244,336.5 L257,336.5 C304.0497,336.5 353.2629,365.8357 378.6101,383.482 " fill="none" style="stroke:#000000;stroke-width:1.0;stroke-dasharray:3.0,3.0;"/><path d="M376.8416,385.964 L380.4716,384.8085 L380.3787,381.0001 L384.815,387.9035 L376.8416,385.964 " fill="#000000" style="stroke:#000000;stroke-width:1.0;"/><ellipse cx="244" cy="336.5" fill="#000000" rx="3" ry="3" style="stroke:#000000;stroke-width:1.0;"/><!--MD5=[a31747ee3d371dfe6751a860b5c59ce3]
@startjson
{
    "field1": "ScrapReasonID",
    "combination": "ScrapReasonID",
    "null_distribution": {
        "total_null_rows": 71862,
        "total_not_null_rows": 729
    },
    "data_distribution": [
        {
            "field_value": "**NULL**",
            "row_count": 71862,
            "ratio_percent": 98.99574327395958
        },
        {
            "field_value": "13",
            "row_count": 63,
            "ratio_percent": 0.08678761829978923
        },
        {
            "field_value": "3",
            "row_count": 54,
            "ratio_percent": 0.07438938711410506
        },
        {
            "field_value": "14",
            "row_count": 52,
            "ratio_percent": 0.07163422462839746
        },
        {
            "field_value": "11",
            "row_count": 52,
            "ratio_percent": 0.07163422462839746
        },
        {
            "field_value": "16",
            "row_count": 51,
            "ratio_percent": 0.07025664338554366
        },
        {
            "field_value": "15",
            "row_count": 48,
            "ratio_percent": 0.06612389965698227
        },
        {
            "field_value": "9",
            "row_count": 47,
            "ratio_percent": 0.06474631841412848
        },
        {
            "field_value": "4",
            "row_count": 45,
            "ratio_percent": 0.06199115592842088
        },
        {
            "field_value": "6",
            "row_count": 44,
            "ratio_percent": 0.06061357468556708
        }
    ]
}
@endjson

PlantUML version 1.2022.5(Sat Apr 30 06:55:52 EDT 2022)
(GPL source distribution)
Java Runtime: OpenJDK Runtime Environment
JVM: OpenJDK 64-Bit Server VM
Default Encoding: UTF-8
Language: en
Country: CA
--></g></svg>