<?xml version="1.0" encoding="UTF-8" standalone="no"?><svg xmlns="http://www.w3.org/2000/svg" xmlns:xlink="http://www.w3.org/1999/xlink" contentStyleType="text/css" height="794px" preserveAspectRatio="none" style="width:855px;height:794px;background:#FFFFFF;" version="1.1" viewBox="0 0 855 794" width="855px" zoomAndPan="magnify"><defs/><g><rect fill="#F1F1F1" height="81.9531" rx="5" ry="5" style="stroke:#F1F1F1;stroke-width:1.5;" width="272" x="10" y="264.5"/><text fill="#000000" font-family="sans-serif" font-size="14" font-weight="bold" lengthAdjust="spacing" textLength="42" x="15" y="280.0352">field1</text><text fill="#000000" font-family="sans-serif" font-size="14" lengthAdjust="spacing" textLength="128" x="149" y="280.0352">ScheduledEndDate</text><line style="stroke:#000000;stroke-width:1.0;" x1="144" x2="144" y1="264.5" y2="284.9883"/><line style="stroke:#000000;stroke-width:1.0;" x1="10" x2="282" y1="284.9883" y2="284.9883"/><text fill="#000000" font-family="sans-serif" font-size="14" font-weight="bold" lengthAdjust="spacing" textLength="90" x="15" y="300.5234">combination</text><text fill="#000000" font-family="sans-serif" font-size="14" lengthAdjust="spacing" textLength="128" x="149" y="300.5234">ScheduledEndDate</text><line style="stroke:#000000;stroke-width:1.0;" x1="144" x2="144" y1="284.9883" y2="305.4766"/><line style="stroke:#000000;stroke-width:1.0;" x1="10" x2="282" y1="305.4766" y2="305.4766"/><text fill="#000000" font-family="sans-serif" font-size="14" font-weight="bold" lengthAdjust="spacing" textLength="121" x="15" y="321.0117">null_distribution</text><text fill="#000000" font-family="sans-serif" font-size="14" lengthAdjust="spacing" textLength="12" x="149" y="321.0117">   </text><line style="stroke:#000000;stroke-width:1.0;" x1="144" x2="144" y1="305.4766" y2="325.9648"/><line style="stroke:#000000;stroke-width:1.0;" x1="10" x2="282" y1="325.9648" y2="325.9648"/><text fill="#000000" font-family="sans-serif" font-size="14" font-weight="bold" lengthAdjust="spacing" textLength="124" x="15" y="341.5">data_distribution</text><text fill="#000000" font-family="sans-serif" font-size="14" lengthAdjust="spacing" textLength="12" x="149" y="341.5">   </text><line style="stroke:#000000;stroke-width:1.0;" x1="144" x2="144" y1="325.9648" y2="346.4531"/><rect fill="none" height="81.9531" rx="5" ry="5" style="stroke:#000000;stroke-width:1.5;" width="272" x="10" y="264.5"/><rect fill="#F1F1F1" height="40.9766" rx="5" ry="5" style="stroke:#F1F1F1;stroke-width:1.5;" width="207" x="319" y="235"/><text fill="#000000" font-family="sans-serif" font-size="14" font-weight="bold" lengthAdjust="spacing" textLength="111" x="324" y="250.5352">total_null_rows</text><text fill="#000000" font-family="sans-serif" font-size="14" lengthAdjust="spacing" textLength="9" x="476" y="250.5352">0</text><line style="stroke:#000000;stroke-width:1.0;" x1="471" x2="471" y1="235" y2="255.4883"/><line style="stroke:#000000;stroke-width:1.0;" x1="319" x2="526" y1="255.4883" y2="255.4883"/><text fill="#000000" font-family="sans-serif" font-size="14" font-weight="bold" lengthAdjust="spacing" textLength="142" x="324" y="271.0234">total_not_null_rows</text><text fill="#000000" font-family="sans-serif" font-size="14" lengthAdjust="spacing" textLength="45" x="476" y="271.0234">67131</text><line style="stroke:#000000;stroke-width:1.0;" x1="471" x2="471" y1="255.4883" y2="275.9766"/><rect fill="none" height="40.9766" rx="5" ry="5" style="stroke:#000000;stroke-width:1.5;" width="207" x="319" y="235"/><rect fill="#F1F1F1" height="204.8828" rx="5" ry="5" style="stroke:#F1F1F1;stroke-width:1.5;" width="22" x="410.5" y="294"/><text fill="#000000" font-family="sans-serif" font-size="14" lengthAdjust="spacing" textLength="12" x="415.5" y="309.5352">   </text><line style="stroke:#000000;stroke-width:1.0;" x1="410.5" x2="432.5" y1="314.4883" y2="314.4883"/><text fill="#000000" font-family="sans-serif" font-size="14" lengthAdjust="spacing" textLength="12" x="415.5" y="330.0234">   </text><line style="stroke:#000000;stroke-width:1.0;" x1="410.5" x2="432.5" y1="334.9766" y2="334.9766"/><text fill="#000000" font-family="sans-serif" font-size="14" lengthAdjust="spacing" textLength="12" x="415.5" y="350.5117">   </text><line style="stroke:#000000;stroke-width:1.0;" x1="410.5" x2="432.5" y1="355.4648" y2="355.4648"/><text fill="#000000" font-family="sans-serif" font-size="14" lengthAdjust="spacing" textLength="12" x="415.5" y="371">   </text><line style="stroke:#000000;stroke-width:1.0;" x1="410.5" x2="432.5" y1="375.9531" y2="375.9531"/><text fill="#000000" font-family="sans-serif" font-size="14" lengthAdjust="spacing" textLength="12" x="415.5" y="391.4883">   </text><line style="stroke:#000000;stroke-width:1.0;" x1="410.5" x2="432.5" y1="396.4414" y2="396.4414"/><text fill="#000000" font-family="sans-serif" font-size="14" lengthAdjust="spacing" textLength="12" x="415.5" y="411.9766">   </text><line style="stroke:#000000;stroke-width:1.0;" x1="410.5" x2="432.5" y1="416.9297" y2="416.9297"/><text fill="#000000" font-family="sans-serif" font-size="14" lengthAdjust="spacing" textLength="12" x="415.5" y="432.4648">   </text><line style="stroke:#000000;stroke-width:1.0;" x1="410.5" x2="432.5" y1="437.418" y2="437.418"/><text fill="#000000" font-family="sans-serif" font-size="14" lengthAdjust="spacing" textLength="12" x="415.5" y="452.9531">   </text><line style="stroke:#000000;stroke-width:1.0;" x1="410.5" x2="432.5" y1="457.9063" y2="457.9063"/><text fill="#000000" font-family="sans-serif" font-size="14" lengthAdjust="spacing" textLength="12" x="415.5" y="473.4414">   </text><line style="stroke:#000000;stroke-width:1.0;" x1="410.5" x2="432.5" y1="478.3945" y2="478.3945"/><text fill="#000000" font-family="sans-serif" font-size="14" lengthAdjust="spacing" textLength="12" x="415.5" y="493.9297">   </text><rect fill="none" height="204.8828" rx="5" ry="5" style="stroke:#000000;stroke-width:1.5;" width="22" x="410.5" y="294"/><rect fill="#F1F1F1" height="61.4648" rx="5" ry="5" style="stroke:#F1F1F1;stroke-width:1.5;" width="280" x="563" y="10"/><text fill="#000000" font-family="sans-serif" font-size="14" font-weight="bold" lengthAdjust="spacing" textLength="78" x="568" y="25.5352">field_value</text><text fill="#000000" font-family="sans-serif" font-size="14" lengthAdjust="spacing" textLength="145" x="672" y="25.5352">Jul 14 2013 12:00AM</text><line style="stroke:#000000;stroke-width:1.0;" x1="667" x2="667" y1="10" y2="30.4883"/><line style="stroke:#000000;stroke-width:1.0;" x1="563" x2="843" y1="30.4883" y2="30.4883"/><text fill="#000000" font-family="sans-serif" font-size="14" font-weight="bold" lengthAdjust="spacing" textLength="74" x="568" y="46.0234">row_count</text><text fill="#000000" font-family="sans-serif" font-size="14" lengthAdjust="spacing" textLength="27" x="672" y="46.0234">235</text><line style="stroke:#000000;stroke-width:1.0;" x1="667" x2="667" y1="30.4883" y2="50.9766"/><line style="stroke:#000000;stroke-width:1.0;" x1="563" x2="843" y1="50.9766" y2="50.9766"/><text fill="#000000" font-family="sans-serif" font-size="14" font-weight="bold" lengthAdjust="spacing" textLength="94" x="568" y="66.5117">ratio_percent</text><text fill="#000000" font-family="sans-serif" font-size="14" lengthAdjust="spacing" textLength="166" x="672" y="66.5117">0.35006181942768616</text><line style="stroke:#000000;stroke-width:1.0;" x1="667" x2="667" y1="50.9766" y2="71.4648"/><rect fill="none" height="61.4648" rx="5" ry="5" style="stroke:#000000;stroke-width:1.5;" width="280" x="563" y="10"/><rect fill="#F1F1F1" height="61.4648" rx="5" ry="5" style="stroke:#F1F1F1;stroke-width:1.5;" width="271" x="567.5" y="89"/><text fill="#000000" font-family="sans-serif" font-size="14" font-weight="bold" lengthAdjust="spacing" textLength="78" x="572.5" y="104.5352">field_value</text><text fill="#000000" font-family="sans-serif" font-size="14" lengthAdjust="spacing" textLength="150" x="676.5" y="104.5352">Jun 13 2013 12:00AM</text><line style="stroke:#000000;stroke-width:1.0;" x1="671.5" x2="671.5" y1="89" y2="109.4883"/><line style="stroke:#000000;stroke-width:1.0;" x1="567.5" x2="838.5" y1="109.4883" y2="109.4883"/><text fill="#000000" font-family="sans-serif" font-size="14" font-weight="bold" lengthAdjust="spacing" textLength="74" x="572.5" y="125.0234">row_count</text><text fill="#000000" font-family="sans-serif" font-size="14" lengthAdjust="spacing" textLength="27" x="676.5" y="125.0234">230</text><line style="stroke:#000000;stroke-width:1.0;" x1="671.5" x2="671.5" y1="109.4883" y2="129.9766"/><line style="stroke:#000000;stroke-width:1.0;" x1="567.5" x2="838.5" y1="129.9766" y2="129.9766"/><text fill="#000000" font-family="sans-serif" font-size="14" font-weight="bold" lengthAdjust="spacing" textLength="94" x="572.5" y="145.5117">ratio_percent</text><text fill="#000000" font-family="sans-serif" font-size="14" lengthAdjust="spacing" textLength="157" x="676.5" y="145.5117">0.3426136956100758</text><line style="stroke:#000000;stroke-width:1.0;" x1="671.5" x2="671.5" y1="129.9766" y2="150.4648"/><rect fill="none" height="61.4648" rx="5" ry="5" style="stroke:#000000;stroke-width:1.5;" width="271" x="567.5" y="89"/><rect fill="#F1F1F1" height="61.4648" rx="5" ry="5" style="stroke:#F1F1F1;stroke-width:1.5;" width="280" x="563" y="168"/><text fill="#000000" font-family="sans-serif" font-size="14" font-weight="bold" lengthAdjust="spacing" textLength="78" x="568" y="183.5352">field_value</text><text fill="#000000" font-family="sans-serif" font-size="14" lengthAdjust="spacing" textLength="156" x="672" y="183.5352">Aug 14 2013 12:00AM</text><line style="stroke:#000000;stroke-width:1.0;" x1="667" x2="667" y1="168" y2="188.4883"/><line style="stroke:#000000;stroke-width:1.0;" x1="563" x2="843" y1="188.4883" y2="188.4883"/><text fill="#000000" font-family="sans-serif" font-size="14" font-weight="bold" lengthAdjust="spacing" textLength="74" x="568" y="204.0234">row_count</text><text fill="#000000" font-family="sans-serif" font-size="14" lengthAdjust="spacing" textLength="27" x="672" y="204.0234">217</text><line style="stroke:#000000;stroke-width:1.0;" x1="667" x2="667" y1="188.4883" y2="208.9766"/><line style="stroke:#000000;stroke-width:1.0;" x1="563" x2="843" y1="208.9766" y2="208.9766"/><text fill="#000000" font-family="sans-serif" font-size="14" font-weight="bold" lengthAdjust="spacing" textLength="94" x="568" y="224.5117">ratio_percent</text><text fill="#000000" font-family="sans-serif" font-size="14" lengthAdjust="spacing" textLength="166" x="672" y="224.5117">0.32324857368428894</text><line style="stroke:#000000;stroke-width:1.0;" x1="667" x2="667" y1="208.9766" y2="229.4648"/><rect fill="none" height="61.4648" rx="5" ry="5" style="stroke:#000000;stroke-width:1.5;" width="280" x="563" y="168"/><rect fill="#F1F1F1" height="61.4648" rx="5" ry="5" style="stroke:#F1F1F1;stroke-width:1.5;" width="280" x="563" y="247"/><text fill="#000000" font-family="sans-serif" font-size="14" font-weight="bold" lengthAdjust="spacing" textLength="78" x="568" y="262.5352">field_value</text><text fill="#000000" font-family="sans-serif" font-size="14" lengthAdjust="spacing" textLength="151" x="672" y="262.5352">Oct 14 2013 12:00AM</text><line style="stroke:#000000;stroke-width:1.0;" x1="667" x2="667" y1="247" y2="267.4883"/><line style="stroke:#000000;stroke-width:1.0;" x1="563" x2="843" y1="267.4883" y2="267.4883"/><text fill="#000000" font-family="sans-serif" font-size="14" font-weight="bold" lengthAdjust="spacing" textLength="74" x="568" y="283.0234">row_count</text><text fill="#000000" font-family="sans-serif" font-size="14" lengthAdjust="spacing" textLength="27" x="672" y="283.0234">213</text><line style="stroke:#000000;stroke-width:1.0;" x1="667" x2="667" y1="267.4883" y2="287.9766"/><line style="stroke:#000000;stroke-width:1.0;" x1="563" x2="843" y1="287.9766" y2="287.9766"/><text fill="#000000" font-family="sans-serif" font-size="14" font-weight="bold" lengthAdjust="spacing" textLength="94" x="568" y="303.5117">ratio_percent</text><text fill="#000000" font-family="sans-serif" font-size="14" lengthAdjust="spacing" textLength="166" x="672" y="303.5117">0.31729007463020065</text><line style="stroke:#000000;stroke-width:1.0;" x1="667" x2="667" y1="287.9766" y2="308.4648"/><rect fill="none" height="61.4648" rx="5" ry="5" style="stroke:#000000;stroke-width:1.5;" width="280" x="563" y="247"/><rect fill="#F1F1F1" height="61.4648" rx="5" ry="5" style="stroke:#F1F1F1;stroke-width:1.5;" width="280" x="563" y="326"/><text fill="#000000" font-family="sans-serif" font-size="14" font-weight="bold" lengthAdjust="spacing" textLength="78" x="568" y="341.5352">field_value</text><text fill="#000000" font-family="sans-serif" font-size="14" lengthAdjust="spacing" textLength="153" x="672" y="341.5352">Sep 13 2013 12:00AM</text><line style="stroke:#000000;stroke-width:1.0;" x1="667" x2="667" y1="326" y2="346.4883"/><line style="stroke:#000000;stroke-width:1.0;" x1="563" x2="843" y1="346.4883" y2="346.4883"/><text fill="#000000" font-family="sans-serif" font-size="14" font-weight="bold" lengthAdjust="spacing" textLength="74" x="568" y="362.0234">row_count</text><text fill="#000000" font-family="sans-serif" font-size="14" lengthAdjust="spacing" textLength="27" x="672" y="362.0234">210</text><line style="stroke:#000000;stroke-width:1.0;" x1="667" x2="667" y1="346.4883" y2="366.9766"/><line style="stroke:#000000;stroke-width:1.0;" x1="563" x2="843" y1="366.9766" y2="366.9766"/><text fill="#000000" font-family="sans-serif" font-size="14" font-weight="bold" lengthAdjust="spacing" textLength="94" x="568" y="382.5117">ratio_percent</text><text fill="#000000" font-family="sans-serif" font-size="14" lengthAdjust="spacing" textLength="166" x="672" y="382.5117">0.31282120033963445</text><line style="stroke:#000000;stroke-width:1.0;" x1="667" x2="667" y1="366.9766" y2="387.4648"/><rect fill="none" height="61.4648" rx="5" ry="5" style="stroke:#000000;stroke-width:1.5;" width="280" x="563" y="326"/><rect fill="#F1F1F1" height="61.4648" rx="5" ry="5" style="stroke:#F1F1F1;stroke-width:1.5;" width="280" x="563" y="405"/><text fill="#000000" font-family="sans-serif" font-size="14" font-weight="bold" lengthAdjust="spacing" textLength="78" x="568" y="420.5352">field_value</text><text fill="#000000" font-family="sans-serif" font-size="14" lengthAdjust="spacing" textLength="154" x="672" y="420.5352">Mar 15 2014 12:00AM</text><line style="stroke:#000000;stroke-width:1.0;" x1="667" x2="667" y1="405" y2="425.4883"/><line style="stroke:#000000;stroke-width:1.0;" x1="563" x2="843" y1="425.4883" y2="425.4883"/><text fill="#000000" font-family="sans-serif" font-size="14" font-weight="bold" lengthAdjust="spacing" textLength="74" x="568" y="441.0234">row_count</text><text fill="#000000" font-family="sans-serif" font-size="14" lengthAdjust="spacing" textLength="27" x="672" y="441.0234">209</text><line style="stroke:#000000;stroke-width:1.0;" x1="667" x2="667" y1="425.4883" y2="445.9766"/><line style="stroke:#000000;stroke-width:1.0;" x1="563" x2="843" y1="445.9766" y2="445.9766"/><text fill="#000000" font-family="sans-serif" font-size="14" font-weight="bold" lengthAdjust="spacing" textLength="94" x="568" y="461.5117">ratio_percent</text><text fill="#000000" font-family="sans-serif" font-size="14" lengthAdjust="spacing" textLength="166" x="672" y="461.5117">0.31133157557611235</text><line style="stroke:#000000;stroke-width:1.0;" x1="667" x2="667" y1="445.9766" y2="466.4648"/><rect fill="none" height="61.4648" rx="5" ry="5" style="stroke:#000000;stroke-width:1.5;" width="280" x="563" y="405"/><rect fill="#F1F1F1" height="61.4648" rx="5" ry="5" style="stroke:#F1F1F1;stroke-width:1.5;" width="280" x="563" y="484"/><text fill="#000000" font-family="sans-serif" font-size="14" font-weight="bold" lengthAdjust="spacing" textLength="78" x="568" y="499.5352">field_value</text><text fill="#000000" font-family="sans-serif" font-size="14" lengthAdjust="spacing" textLength="155" x="672" y="499.5352">May 15 2014 12:00AM</text><line style="stroke:#000000;stroke-width:1.0;" x1="667" x2="667" y1="484" y2="504.4883"/><line style="stroke:#000000;stroke-width:1.0;" x1="563" x2="843" y1="504.4883" y2="504.4883"/><text fill="#000000" font-family="sans-serif" font-size="14" font-weight="bold" lengthAdjust="spacing" textLength="74" x="568" y="520.0234">row_count</text><text fill="#000000" font-family="sans-serif" font-size="14" lengthAdjust="spacing" textLength="27" x="672" y="520.0234">209</text><line style="stroke:#000000;stroke-width:1.0;" x1="667" x2="667" y1="504.4883" y2="524.9766"/><line style="stroke:#000000;stroke-width:1.0;" x1="563" x2="843" y1="524.9766" y2="524.9766"/><text fill="#000000" font-family="sans-serif" font-size="14" font-weight="bold" lengthAdjust="spacing" textLength="94" x="568" y="540.5117">ratio_percent</text><text fill="#000000" font-family="sans-serif" font-size="14" lengthAdjust="spacing" textLength="166" x="672" y="540.5117">0.31133157557611235</text><line style="stroke:#000000;stroke-width:1.0;" x1="667" x2="667" y1="524.9766" y2="545.4648"/><rect fill="none" height="61.4648" rx="5" ry="5" style="stroke:#000000;stroke-width:1.5;" width="280" x="563" y="484"/><rect fill="#F1F1F1" height="61.4648" rx="5" ry="5" style="stroke:#F1F1F1;stroke-width:1.5;" width="280" x="563" y="563"/><text fill="#000000" font-family="sans-serif" font-size="14" font-weight="bold" lengthAdjust="spacing" textLength="78" x="568" y="578.5352">field_value</text><text fill="#000000" font-family="sans-serif" font-size="14" lengthAdjust="spacing" textLength="153" x="672" y="578.5352">Apr 14 2014 12:00AM</text><line style="stroke:#000000;stroke-width:1.0;" x1="667" x2="667" y1="563" y2="583.4883"/><line style="stroke:#000000;stroke-width:1.0;" x1="563" x2="843" y1="583.4883" y2="583.4883"/><text fill="#000000" font-family="sans-serif" font-size="14" font-weight="bold" lengthAdjust="spacing" textLength="74" x="568" y="599.0234">row_count</text><text fill="#000000" font-family="sans-serif" font-size="14" lengthAdjust="spacing" textLength="27" x="672" y="599.0234">209</text><line style="stroke:#000000;stroke-width:1.0;" x1="667" x2="667" y1="583.4883" y2="603.9766"/><line style="stroke:#000000;stroke-width:1.0;" x1="563" x2="843" y1="603.9766" y2="603.9766"/><text fill="#000000" font-family="sans-serif" font-size="14" font-weight="bold" lengthAdjust="spacing" textLength="94" x="568" y="619.5117">ratio_percent</text><text fill="#000000" font-family="sans-serif" font-size="14" lengthAdjust="spacing" textLength="166" x="672" y="619.5117">0.31133157557611235</text><line style="stroke:#000000;stroke-width:1.0;" x1="667" x2="667" y1="603.9766" y2="624.4648"/><rect fill="none" height="61.4648" rx="5" ry="5" style="stroke:#000000;stroke-width:1.5;" width="280" x="563" y="563"/><rect fill="#F1F1F1" height="61.4648" rx="5" ry="5" style="stroke:#F1F1F1;stroke-width:1.5;" width="280" x="563" y="642"/><text fill="#000000" font-family="sans-serif" font-size="14" font-weight="bold" lengthAdjust="spacing" textLength="78" x="568" y="657.5352">field_value</text><text fill="#000000" font-family="sans-serif" font-size="14" lengthAdjust="spacing" textLength="154" x="672" y="657.5352">Nov 13 2013 12:00AM</text><line style="stroke:#000000;stroke-width:1.0;" x1="667" x2="667" y1="642" y2="662.4883"/><line style="stroke:#000000;stroke-width:1.0;" x1="563" x2="843" y1="662.4883" y2="662.4883"/><text fill="#000000" font-family="sans-serif" font-size="14" font-weight="bold" lengthAdjust="spacing" textLength="74" x="568" y="678.0234">row_count</text><text fill="#000000" font-family="sans-serif" font-size="14" lengthAdjust="spacing" textLength="27" x="672" y="678.0234">209</text><line style="stroke:#000000;stroke-width:1.0;" x1="667" x2="667" y1="662.4883" y2="682.9766"/><line style="stroke:#000000;stroke-width:1.0;" x1="563" x2="843" y1="682.9766" y2="682.9766"/><text fill="#000000" font-family="sans-serif" font-size="14" font-weight="bold" lengthAdjust="spacing" textLength="94" x="568" y="698.5117">ratio_percent</text><text fill="#000000" font-family="sans-serif" font-size="14" lengthAdjust="spacing" textLength="166" x="672" y="698.5117">0.31133157557611235</text><line style="stroke:#000000;stroke-width:1.0;" x1="667" x2="667" y1="682.9766" y2="703.4648"/><rect fill="none" height="61.4648" rx="5" ry="5" style="stroke:#000000;stroke-width:1.5;" width="280" x="563" y="642"/><rect fill="#F1F1F1" height="61.4648" rx="5" ry="5" style="stroke:#F1F1F1;stroke-width:1.5;" width="263" x="571.5" y="721"/><text fill="#000000" font-family="sans-serif" font-size="14" font-weight="bold" lengthAdjust="spacing" textLength="78" x="576.5" y="736.5352">field_value</text><text fill="#000000" font-family="sans-serif" font-size="14" lengthAdjust="spacing" textLength="149" x="680.5" y="736.5352">Jan 14 2014 12:00AM</text><line style="stroke:#000000;stroke-width:1.0;" x1="675.5" x2="675.5" y1="721" y2="741.4883"/><line style="stroke:#000000;stroke-width:1.0;" x1="571.5" x2="834.5" y1="741.4883" y2="741.4883"/><text fill="#000000" font-family="sans-serif" font-size="14" font-weight="bold" lengthAdjust="spacing" textLength="74" x="576.5" y="757.0234">row_count</text><text fill="#000000" font-family="sans-serif" font-size="14" lengthAdjust="spacing" textLength="27" x="680.5" y="757.0234">204</text><line style="stroke:#000000;stroke-width:1.0;" x1="675.5" x2="675.5" y1="741.4883" y2="761.9766"/><line style="stroke:#000000;stroke-width:1.0;" x1="571.5" x2="834.5" y1="761.9766" y2="761.9766"/><text fill="#000000" font-family="sans-serif" font-size="14" font-weight="bold" lengthAdjust="spacing" textLength="94" x="576.5" y="777.5117">ratio_percent</text><text fill="#000000" font-family="sans-serif" font-size="14" lengthAdjust="spacing" textLength="148" x="680.5" y="777.5117">0.303883451758502</text><line style="stroke:#000000;stroke-width:1.0;" x1="675.5" x2="675.5" y1="761.9766" y2="782.4648"/><rect fill="none" height="61.4648" rx="5" ry="5" style="stroke:#000000;stroke-width:1.5;" width="263" x="571.5" y="721"/><path d="M270,315.5 L283,315.5 C303.8273,315.5 300.6143,295.285 319,285.5 C323.4187,283.1484 328.0447,280.9598 332.7859,278.9261 " fill="none" style="stroke:#000000;stroke-width:1.0;stroke-dasharray:3.0,3.0;"/><path d="M333.9339,281.7334 L334.8914,278.0652 L331.638,276.1189 L339.804,276.0563 L333.9339,281.7334 " fill="#000000" style="stroke:#000000;stroke-width:1.0;"/><ellipse cx="270" cy="315.5" fill="#000000" rx="3" ry="3" style="stroke:#000000;stroke-width:1.0;"/><path d="M423,303.5 L436,303.5 C477.2281,303.5 498.1738,314.9755 527,285.5 C591.9848,219.0516 500.6323,148.4107 563,79.5 C564.0125,78.3813 565.0541,77.2936 566.123,76.2361 " fill="none" style="stroke:#000000;stroke-width:1.0;stroke-dasharray:3.0,3.0;"/><path d="M568.139,78.4612 L567.7918,74.7241 L564.107,74.0111 L571.6857,71.1961 L568.139,78.4612 " fill="#000000" style="stroke:#000000;stroke-width:1.0;"/><ellipse cx="423" cy="303.5" fill="#000000" rx="3" ry="3" style="stroke:#000000;stroke-width:1.0;"/><path d="M423,324.5 L436,324.5 C480.0022,324.5 497.9505,318.5503 527,285.5 C565.7318,241.4339 521.4404,199.9099 563,158.5 C564.2303,157.2742 565.4957,156.0861 566.7935,154.9346 " fill="none" style="stroke:#000000;stroke-width:1.0;stroke-dasharray:3.0,3.0;"/><path d="M568.7206,157.2901 L568.5601,153.4893 L564.8664,152.579 L572.6824,150.1169 L568.7206,157.2901 " fill="#000000" style="stroke:#000000;stroke-width:1.0;"/><ellipse cx="423" cy="324.5" fill="#000000" rx="3" ry="3" style="stroke:#000000;stroke-width:1.0;"/><path d="M423,344.5 L436,344.5 C484.2012,344.5 491.773,318.4001 527,285.5 C546.4889,267.2985 540.9903,252.5561 563,237.5 C565.3707,235.8783 567.8075,234.3236 570.2999,232.8333 " fill="none" style="stroke:#000000;stroke-width:1.0;stroke-dasharray:3.0,3.0;"/><path d="M571.8186,235.5213 L572.3159,231.6943 L568.7813,230.1454 L577.0198,229.0367 L571.8186,235.5213 " fill="#000000" style="stroke:#000000;stroke-width:1.0;"/><ellipse cx="423" cy="344.5" fill="#000000" rx="3" ry="3" style="stroke:#000000;stroke-width:1.0;"/><path d="M423,365.5 L436,365.5 C496.3414,365.5 505.7275,336.4987 563,317.5 C570.174,315.1202 577.5823,312.7489 585.0715,310.4167 " fill="none" style="stroke:#000000;stroke-width:1.0;stroke-dasharray:3.0,3.0;"/><path d="M585.9988,313.4209 L587.3247,309.7213 L584.1443,307.4125 L592.5821,308.0987 L585.9988,313.4209 " fill="#000000" style="stroke:#000000;stroke-width:1.0;"/><ellipse cx="423" cy="365.5" fill="#000000" rx="3" ry="3" style="stroke:#000000;stroke-width:1.0;"/><path d="M423,385.5 L436,385.5 C474.9413,385.5 516.8965,382.402 555.7354,378.2312 " fill="none" style="stroke:#000000;stroke-width:1.0;stroke-dasharray:3.0,3.0;"/><path d="M556.0746,381.321 L558.0527,377.9768 L555.3963,375.1414 L563.4598,377.3833 L556.0746,381.321 " fill="#000000" style="stroke:#000000;stroke-width:1.0;"/><ellipse cx="423" cy="385.5" fill="#000000" rx="3" ry="3" style="stroke:#000000;stroke-width:1.0;"/><path d="M423,406.5 L436,406.5 C474.9413,406.5 516.8965,409.598 555.7354,413.7688 " fill="none" style="stroke:#000000;stroke-width:1.0;stroke-dasharray:3.0,3.0;"/><path d="M555.3963,416.8586 L558.0527,414.0232 L556.0746,410.679 L563.4598,414.6167 L555.3963,416.8586 " fill="#000000" style="stroke:#000000;stroke-width:1.0;"/><ellipse cx="423" cy="406.5" fill="#000000" rx="3" ry="3" style="stroke:#000000;stroke-width:1.0;"/><path d="M423,427.5 L436,427.5 C496.3414,427.5 505.6648,456.6915 563,475.5 C569.4049,477.6011 575.9979,479.6897 582.6694,481.7455 " fill="none" style="stroke:#000000;stroke-width:1.0;stroke-dasharray:3.0,3.0;"/><path d="M581.7826,484.6515 L584.8488,482.4106 L583.5561,478.8396 L589.9343,483.9625 L581.7826,484.6515 " fill="#000000" style="stroke:#000000;stroke-width:1.0;"/><ellipse cx="423" cy="427.5" fill="#000000" rx="3" ry="3" style="stroke:#000000;stroke-width:1.0;"/><path d="M423,447.5 L436,447.5 C509.8072,447.5 497.7519,520.0009 563,554.5 C566.4545,556.3265 570.0036,558.075 573.6231,559.7482 " fill="none" style="stroke:#000000;stroke-width:1.0;stroke-dasharray:3.0,3.0;"/><path d="M572.3729,562.5646 L575.7354,560.6859 L574.8734,556.9318 L580.6641,562.8738 L572.3729,562.5646 " fill="#000000" style="stroke:#000000;stroke-width:1.0;"/><ellipse cx="423" cy="447.5" fill="#000000" rx="3" ry="3" style="stroke:#000000;stroke-width:1.0;"/><path d="M423,468.5 L436,468.5 C528.5405,468.5 486.2958,581.7292 563,633.5 C565.3808,635.1069 567.8268,636.648 570.3275,638.1261 " fill="none" style="stroke:#000000;stroke-width:1.0;stroke-dasharray:3.0,3.0;"/><path d="M568.8207,640.8221 L572.3495,639.2561 L571.8343,635.43 L577.0675,641.893 L568.8207,640.8221 " fill="#000000" style="stroke:#000000;stroke-width:1.0;"/><ellipse cx="423" cy="468.5" fill="#000000" rx="3" ry="3" style="stroke:#000000;stroke-width:1.0;"/><path d="M423,488.5 L436,488.5 C550.4434,488.5 472.859,641.9884 563,712.5 C564.8105,713.9162 566.6696,715.2811 568.5714,716.5964 " fill="none" style="stroke:#000000;stroke-width:1.0;stroke-dasharray:3.0,3.0;"/><path d="M566.8579,719.2455 L570.5582,717.8815 L570.2849,713.9473 L575.1941,720.8801 L566.8579,719.2455 " fill="#000000" style="stroke:#000000;stroke-width:1.0;"/><ellipse cx="423" cy="488.5" fill="#000000" rx="3" ry="3" style="stroke:#000000;stroke-width:1.0;"/><path d="M270,336.5 L283,336.5 C330.0497,336.5 379.2629,365.8357 404.6101,383.482 " fill="none" style="stroke:#000000;stroke-width:1.0;stroke-dasharray:3.0,3.0;"/><path d="M402.8416,385.964 L406.4716,384.8085 L406.3787,381.0001 L410.815,387.9035 L402.8416,385.964 " fill="#000000" style="stroke:#000000;stroke-width:1.0;"/><ellipse cx="270" cy="336.5" fill="#000000" rx="3" ry="3" style="stroke:#000000;stroke-width:1.0;"/><!--MD5=[4b84aeea1f602870e9f95817719c21e2]
@startjson
{
    "field1": "ScheduledEndDate",
    "combination": "ScheduledEndDate",
    "null_distribution": {
        "total_null_rows": 0,
        "total_not_null_rows": 67131
    },
    "data_distribution": [
        {
            "field_value": "Jul 14 2013 12:00AM",
            "row_count": 235,
            "ratio_percent": 0.35006181942768616
        },
        {
            "field_value": "Jun 13 2013 12:00AM",
            "row_count": 230,
            "ratio_percent": 0.3426136956100758
        },
        {
            "field_value": "Aug 14 2013 12:00AM",
            "row_count": 217,
            "ratio_percent": 0.32324857368428894
        },
        {
            "field_value": "Oct 14 2013 12:00AM",
            "row_count": 213,
            "ratio_percent": 0.31729007463020065
        },
        {
            "field_value": "Sep 13 2013 12:00AM",
            "row_count": 210,
            "ratio_percent": 0.31282120033963445
        },
        {
            "field_value": "Mar 15 2014 12:00AM",
            "row_count": 209,
            "ratio_percent": 0.31133157557611235
        },
        {
            "field_value": "May 15 2014 12:00AM",
            "row_count": 209,
            "ratio_percent": 0.31133157557611235
        },
        {
            "field_value": "Apr 14 2014 12:00AM",
            "row_count": 209,
            "ratio_percent": 0.31133157557611235
        },
        {
            "field_value": "Nov 13 2013 12:00AM",
            "row_count": 209,
            "ratio_percent": 0.31133157557611235
        },
        {
            "field_value": "Jan 14 2014 12:00AM",
            "row_count": 204,
            "ratio_percent": 0.303883451758502
        }
    ]
}
@endjson

PlantUML version 1.2022.5(Sat Apr 30 06:55:52 EDT 2022)
(GPL source distribution)
Java Runtime: OpenJDK Runtime Environment
JVM: OpenJDK 64-Bit Server VM
Default Encoding: UTF-8
Language: en
Country: CA
--></g></svg>