<?xml version="1.0" encoding="UTF-8" standalone="no"?><svg xmlns="http://www.w3.org/2000/svg" xmlns:xlink="http://www.w3.org/1999/xlink" contentStyleType="text/css" height="241px" preserveAspectRatio="none" style="width:757px;height:241px;background:#FFFFFF;" version="1.1" viewBox="0 0 757 241" width="757px" zoomAndPan="magnify"><defs/><g><rect fill="#F1F1F1" height="81.9531" rx="5" ry="5" style="stroke:#F1F1F1;stroke-width:1.5;" width="222" x="10" y="24.5"/><text fill="#000000" font-family="sans-serif" font-size="14" font-weight="bold" lengthAdjust="spacing" textLength="42" x="15" y="40.0352">field1</text><text fill="#000000" font-family="sans-serif" font-size="14" lengthAdjust="spacing" textLength="78" x="149" y="40.0352">ReviewDate</text><line style="stroke:#000000;stroke-width:1.0;" x1="144" x2="144" y1="24.5" y2="44.9883"/><line style="stroke:#000000;stroke-width:1.0;" x1="10" x2="232" y1="44.9883" y2="44.9883"/><text fill="#000000" font-family="sans-serif" font-size="14" font-weight="bold" lengthAdjust="spacing" textLength="90" x="15" y="60.5234">combination</text><text fill="#000000" font-family="sans-serif" font-size="14" lengthAdjust="spacing" textLength="78" x="149" y="60.5234">ReviewDate</text><line style="stroke:#000000;stroke-width:1.0;" x1="144" x2="144" y1="44.9883" y2="65.4766"/><line style="stroke:#000000;stroke-width:1.0;" x1="10" x2="232" y1="65.4766" y2="65.4766"/><text fill="#000000" font-family="sans-serif" font-size="14" font-weight="bold" lengthAdjust="spacing" textLength="121" x="15" y="81.0117">null_distribution</text><text fill="#000000" font-family="sans-serif" font-size="14" lengthAdjust="spacing" textLength="12" x="149" y="81.0117">   </text><line style="stroke:#000000;stroke-width:1.0;" x1="144" x2="144" y1="65.4766" y2="85.9648"/><line style="stroke:#000000;stroke-width:1.0;" x1="10" x2="232" y1="85.9648" y2="85.9648"/><text fill="#000000" font-family="sans-serif" font-size="14" font-weight="bold" lengthAdjust="spacing" textLength="124" x="15" y="101.5">data_distribution</text><text fill="#000000" font-family="sans-serif" font-size="14" lengthAdjust="spacing" textLength="12" x="149" y="101.5">   </text><line style="stroke:#000000;stroke-width:1.0;" x1="144" x2="144" y1="85.9648" y2="106.4531"/><rect fill="none" height="81.9531" rx="5" ry="5" style="stroke:#000000;stroke-width:1.5;" width="222" x="10" y="24.5"/><rect fill="#F1F1F1" height="40.9766" rx="5" ry="5" style="stroke:#F1F1F1;stroke-width:1.5;" width="171" x="269" y="31"/><text fill="#000000" font-family="sans-serif" font-size="14" font-weight="bold" lengthAdjust="spacing" textLength="111" x="274" y="46.5352">total_null_rows</text><text fill="#000000" font-family="sans-serif" font-size="14" lengthAdjust="spacing" textLength="9" x="426" y="46.5352">0</text><line style="stroke:#000000;stroke-width:1.0;" x1="421" x2="421" y1="31" y2="51.4883"/><line style="stroke:#000000;stroke-width:1.0;" x1="269" x2="440" y1="51.4883" y2="51.4883"/><text fill="#000000" font-family="sans-serif" font-size="14" font-weight="bold" lengthAdjust="spacing" textLength="142" x="274" y="67.0234">total_not_null_rows</text><text fill="#000000" font-family="sans-serif" font-size="14" lengthAdjust="spacing" textLength="9" x="426" y="67.0234">4</text><line style="stroke:#000000;stroke-width:1.0;" x1="421" x2="421" y1="51.4883" y2="71.9766"/><rect fill="none" height="40.9766" rx="5" ry="5" style="stroke:#000000;stroke-width:1.5;" width="171" x="269" y="31"/><rect fill="#F1F1F1" height="61.4648" rx="5" ry="5" style="stroke:#F1F1F1;stroke-width:1.5;" width="22" x="342.5" y="90"/><text fill="#000000" font-family="sans-serif" font-size="14" lengthAdjust="spacing" textLength="12" x="347.5" y="105.5352">   </text><line style="stroke:#000000;stroke-width:1.0;" x1="342.5" x2="364.5" y1="110.4883" y2="110.4883"/><text fill="#000000" font-family="sans-serif" font-size="14" lengthAdjust="spacing" textLength="12" x="347.5" y="126.0234">   </text><line style="stroke:#000000;stroke-width:1.0;" x1="342.5" x2="364.5" y1="130.9766" y2="130.9766"/><text fill="#000000" font-family="sans-serif" font-size="14" lengthAdjust="spacing" textLength="12" x="347.5" y="146.5117">   </text><rect fill="none" height="61.4648" rx="5" ry="5" style="stroke:#000000;stroke-width:1.5;" width="22" x="342.5" y="90"/><rect fill="#F1F1F1" height="61.4648" rx="5" ry="5" style="stroke:#F1F1F1;stroke-width:1.5;" width="268" x="477" y="10"/><text fill="#000000" font-family="sans-serif" font-size="14" font-weight="bold" lengthAdjust="spacing" textLength="78" x="482" y="25.5352">field_value</text><text fill="#000000" font-family="sans-serif" font-size="14" lengthAdjust="spacing" textLength="154" x="586" y="25.5352">Nov 15 2013 12:00AM</text><line style="stroke:#000000;stroke-width:1.0;" x1="581" x2="581" y1="10" y2="30.4883"/><line style="stroke:#000000;stroke-width:1.0;" x1="477" x2="745" y1="30.4883" y2="30.4883"/><text fill="#000000" font-family="sans-serif" font-size="14" font-weight="bold" lengthAdjust="spacing" textLength="74" x="482" y="46.0234">row_count</text><text fill="#000000" font-family="sans-serif" font-size="14" lengthAdjust="spacing" textLength="9" x="586" y="46.0234">2</text><line style="stroke:#000000;stroke-width:1.0;" x1="581" x2="581" y1="30.4883" y2="50.9766"/><line style="stroke:#000000;stroke-width:1.0;" x1="477" x2="745" y1="50.9766" y2="50.9766"/><text fill="#000000" font-family="sans-serif" font-size="14" font-weight="bold" lengthAdjust="spacing" textLength="94" x="482" y="66.5117">ratio_percent</text><text fill="#000000" font-family="sans-serif" font-size="14" lengthAdjust="spacing" textLength="31" x="586" y="66.5117">50.0</text><line style="stroke:#000000;stroke-width:1.0;" x1="581" x2="581" y1="50.9766" y2="71.4648"/><rect fill="none" height="61.4648" rx="5" ry="5" style="stroke:#000000;stroke-width:1.5;" width="268" x="477" y="10"/><rect fill="#F1F1F1" height="61.4648" rx="5" ry="5" style="stroke:#F1F1F1;stroke-width:1.5;" width="267" x="477.5" y="89"/><text fill="#000000" font-family="sans-serif" font-size="14" font-weight="bold" lengthAdjust="spacing" textLength="78" x="482.5" y="104.5352">field_value</text><text fill="#000000" font-family="sans-serif" font-size="14" lengthAdjust="spacing" textLength="153" x="586.5" y="104.5352">Sep 18 2013 12:00AM</text><line style="stroke:#000000;stroke-width:1.0;" x1="581.5" x2="581.5" y1="89" y2="109.4883"/><line style="stroke:#000000;stroke-width:1.0;" x1="477.5" x2="744.5" y1="109.4883" y2="109.4883"/><text fill="#000000" font-family="sans-serif" font-size="14" font-weight="bold" lengthAdjust="spacing" textLength="74" x="482.5" y="125.0234">row_count</text><text fill="#000000" font-family="sans-serif" font-size="14" lengthAdjust="spacing" textLength="9" x="586.5" y="125.0234">1</text><line style="stroke:#000000;stroke-width:1.0;" x1="581.5" x2="581.5" y1="109.4883" y2="129.9766"/><line style="stroke:#000000;stroke-width:1.0;" x1="477.5" x2="744.5" y1="129.9766" y2="129.9766"/><text fill="#000000" font-family="sans-serif" font-size="14" font-weight="bold" lengthAdjust="spacing" textLength="94" x="482.5" y="145.5117">ratio_percent</text><text fill="#000000" font-family="sans-serif" font-size="14" lengthAdjust="spacing" textLength="31" x="586.5" y="145.5117">25.0</text><line style="stroke:#000000;stroke-width:1.0;" x1="581.5" x2="581.5" y1="129.9766" y2="150.4648"/><rect fill="none" height="61.4648" rx="5" ry="5" style="stroke:#000000;stroke-width:1.5;" width="267" x="477.5" y="89"/><rect fill="#F1F1F1" height="61.4648" rx="5" ry="5" style="stroke:#F1F1F1;stroke-width:1.5;" width="268" x="477" y="168"/><text fill="#000000" font-family="sans-serif" font-size="14" font-weight="bold" lengthAdjust="spacing" textLength="78" x="482" y="183.5352">field_value</text><text fill="#000000" font-family="sans-serif" font-size="14" lengthAdjust="spacing" textLength="154" x="586" y="183.5352">Nov 13 2013 12:00AM</text><line style="stroke:#000000;stroke-width:1.0;" x1="581" x2="581" y1="168" y2="188.4883"/><line style="stroke:#000000;stroke-width:1.0;" x1="477" x2="745" y1="188.4883" y2="188.4883"/><text fill="#000000" font-family="sans-serif" font-size="14" font-weight="bold" lengthAdjust="spacing" textLength="74" x="482" y="204.0234">row_count</text><text fill="#000000" font-family="sans-serif" font-size="14" lengthAdjust="spacing" textLength="9" x="586" y="204.0234">1</text><line style="stroke:#000000;stroke-width:1.0;" x1="581" x2="581" y1="188.4883" y2="208.9766"/><line style="stroke:#000000;stroke-width:1.0;" x1="477" x2="745" y1="208.9766" y2="208.9766"/><text fill="#000000" font-family="sans-serif" font-size="14" font-weight="bold" lengthAdjust="spacing" textLength="94" x="482" y="224.5117">ratio_percent</text><text fill="#000000" font-family="sans-serif" font-size="14" lengthAdjust="spacing" textLength="31" x="586" y="224.5117">25.0</text><line style="stroke:#000000;stroke-width:1.0;" x1="581" x2="581" y1="208.9766" y2="229.4648"/><rect fill="none" height="61.4648" rx="5" ry="5" style="stroke:#000000;stroke-width:1.5;" width="268" x="477" y="168"/><path d="M220,75.5 L233,75.5 C243.7014,75.5 254.8352,74.5856 265.8249,73.1138 " fill="none" style="stroke:#000000;stroke-width:1.0;stroke-dasharray:3.0,3.0;"/><path d="M266.2663,76.1451 L268.0983,72.7827 L265.3834,70.0826 L273.403,72.0102 L266.2663,76.1451 " fill="#000000" style="stroke:#000000;stroke-width:1.0;"/><ellipse cx="220" cy="75.5" fill="#000000" rx="3" ry="3" style="stroke:#000000;stroke-width:1.0;"/><path d="M355,99.5 L368,99.5 C393.8111,99.5 448.1209,86.7211 498.8126,73.0578 " fill="none" style="stroke:#000000;stroke-width:1.0;stroke-dasharray:3.0,3.0;"/><path d="M499.621,76.0374 L501.0474,72.4516 L498.0043,70.0782 L506.2617,71.0369 L499.621,76.0374 " fill="#000000" style="stroke:#000000;stroke-width:1.0;"/><ellipse cx="355" cy="99.5" fill="#000000" rx="3" ry="3" style="stroke:#000000;stroke-width:1.0;"/><path d="M355,119.5 L368,119.5 C401.0737,119.5 436.6848,119.5 470.1614,119.5 " fill="none" style="stroke:#000000;stroke-width:1.0;stroke-dasharray:3.0,3.0;"/><path d="M470.1614,122.5228 L472.4284,119.5 L470.1614,116.4772 L477.7182,119.5 L470.1614,122.5228 " fill="#000000" style="stroke:#000000;stroke-width:1.0;"/><ellipse cx="355" cy="119.5" fill="#000000" rx="3" ry="3" style="stroke:#000000;stroke-width:1.0;"/><path d="M355,140.5 L368,140.5 C393.4774,140.5 446.7956,152.7626 496.9653,166.0109 " fill="none" style="stroke:#000000;stroke-width:1.0;stroke-dasharray:3.0,3.0;"/><path d="M496.1811,168.9611 L499.1779,166.599 L497.7494,163.0606 L504.3408,167.9713 L496.1811,168.9611 " fill="#000000" style="stroke:#000000;stroke-width:1.0;"/><ellipse cx="355" cy="140.5" fill="#000000" rx="3" ry="3" style="stroke:#000000;stroke-width:1.0;"/><path d="M220,96.5 L233,96.5 C269.9429,96.5 312.0388,107.3971 335.5696,114.5057 " fill="none" style="stroke:#000000;stroke-width:1.0;stroke-dasharray:3.0,3.0;"/><path d="M334.6719,117.3993 L337.7398,115.179 L336.4673,111.6121 L342.8036,116.75 L334.6719,117.3993 " fill="#000000" style="stroke:#000000;stroke-width:1.0;"/><ellipse cx="220" cy="96.5" fill="#000000" rx="3" ry="3" style="stroke:#000000;stroke-width:1.0;"/><!--MD5=[1eff5a9dd9c54dcd8742f8b48d778d14]
@startjson
{
    "field1": "ReviewDate",
    "combination": "ReviewDate",
    "null_distribution": {
        "total_null_rows": 0,
        "total_not_null_rows": 4
    },
    "data_distribution": [
        {
            "field_value": "Nov 15 2013 12:00AM",
            "row_count": 2,
            "ratio_percent": 50.0
        },
        {
            "field_value": "Sep 18 2013 12:00AM",
            "row_count": 1,
            "ratio_percent": 25.0
        },
        {
            "field_value": "Nov 13 2013 12:00AM",
            "row_count": 1,
            "ratio_percent": 25.0
        }
    ]
}
@endjson

PlantUML version 1.2022.5(Sat Apr 30 06:55:52 EDT 2022)
(GPL source distribution)
Java Runtime: OpenJDK Runtime Environment
JVM: OpenJDK 64-Bit Server VM
Default Encoding: UTF-8
Language: en
Country: CA
--></g></svg>