<?xml version="1.0" encoding="UTF-8" standalone="no"?><svg xmlns="http://www.w3.org/2000/svg" xmlns:xlink="http://www.w3.org/1999/xlink" contentStyleType="text/css" height="320px" preserveAspectRatio="none" style="width:670px;height:320px;background:#FFFFFF;" version="1.1" viewBox="0 0 670 320" width="670px" zoomAndPan="magnify"><defs/><g><rect fill="#F1F1F1" height="81.9531" rx="5" ry="5" style="stroke:#F1F1F1;stroke-width:1.5;" width="258" x="10" y="57.5"/><text fill="#000000" font-family="sans-serif" font-size="14" font-weight="bold" lengthAdjust="spacing" textLength="42" x="15" y="73.0352">field1</text><text fill="#000000" font-family="sans-serif" font-size="14" lengthAdjust="spacing" textLength="114" x="149" y="73.0352">ProductReviewID</text><line style="stroke:#000000;stroke-width:1.0;" x1="144" x2="144" y1="57.5" y2="77.9883"/><line style="stroke:#000000;stroke-width:1.0;" x1="10" x2="268" y1="77.9883" y2="77.9883"/><text fill="#000000" font-family="sans-serif" font-size="14" font-weight="bold" lengthAdjust="spacing" textLength="90" x="15" y="93.5234">combination</text><text fill="#000000" font-family="sans-serif" font-size="14" lengthAdjust="spacing" textLength="114" x="149" y="93.5234">ProductReviewID</text><line style="stroke:#000000;stroke-width:1.0;" x1="144" x2="144" y1="77.9883" y2="98.4766"/><line style="stroke:#000000;stroke-width:1.0;" x1="10" x2="268" y1="98.4766" y2="98.4766"/><text fill="#000000" font-family="sans-serif" font-size="14" font-weight="bold" lengthAdjust="spacing" textLength="121" x="15" y="114.0117">null_distribution</text><text fill="#000000" font-family="sans-serif" font-size="14" lengthAdjust="spacing" textLength="12" x="149" y="114.0117">   </text><line style="stroke:#000000;stroke-width:1.0;" x1="144" x2="144" y1="98.4766" y2="118.9648"/><line style="stroke:#000000;stroke-width:1.0;" x1="10" x2="268" y1="118.9648" y2="118.9648"/><text fill="#000000" font-family="sans-serif" font-size="14" font-weight="bold" lengthAdjust="spacing" textLength="124" x="15" y="134.5">data_distribution</text><text fill="#000000" font-family="sans-serif" font-size="14" lengthAdjust="spacing" textLength="12" x="149" y="134.5">   </text><line style="stroke:#000000;stroke-width:1.0;" x1="144" x2="144" y1="118.9648" y2="139.4531"/><rect fill="none" height="81.9531" rx="5" ry="5" style="stroke:#000000;stroke-width:1.5;" width="258" x="10" y="57.5"/><rect fill="#F1F1F1" height="40.9766" rx="5" ry="5" style="stroke:#F1F1F1;stroke-width:1.5;" width="171" x="305" y="59"/><text fill="#000000" font-family="sans-serif" font-size="14" font-weight="bold" lengthAdjust="spacing" textLength="111" x="310" y="74.5352">total_null_rows</text><text fill="#000000" font-family="sans-serif" font-size="14" lengthAdjust="spacing" textLength="9" x="462" y="74.5352">0</text><line style="stroke:#000000;stroke-width:1.0;" x1="457" x2="457" y1="59" y2="79.4883"/><line style="stroke:#000000;stroke-width:1.0;" x1="305" x2="476" y1="79.4883" y2="79.4883"/><text fill="#000000" font-family="sans-serif" font-size="14" font-weight="bold" lengthAdjust="spacing" textLength="142" x="310" y="95.0234">total_not_null_rows</text><text fill="#000000" font-family="sans-serif" font-size="14" lengthAdjust="spacing" textLength="9" x="462" y="95.0234">4</text><line style="stroke:#000000;stroke-width:1.0;" x1="457" x2="457" y1="79.4883" y2="99.9766"/><rect fill="none" height="40.9766" rx="5" ry="5" style="stroke:#000000;stroke-width:1.5;" width="171" x="305" y="59"/><rect fill="#F1F1F1" height="81.9531" rx="5" ry="5" style="stroke:#F1F1F1;stroke-width:1.5;" width="22" x="378.5" y="118.5"/><text fill="#000000" font-family="sans-serif" font-size="14" lengthAdjust="spacing" textLength="12" x="383.5" y="134.0352">   </text><line style="stroke:#000000;stroke-width:1.0;" x1="378.5" x2="400.5" y1="138.9883" y2="138.9883"/><text fill="#000000" font-family="sans-serif" font-size="14" lengthAdjust="spacing" textLength="12" x="383.5" y="154.5234">   </text><line style="stroke:#000000;stroke-width:1.0;" x1="378.5" x2="400.5" y1="159.4766" y2="159.4766"/><text fill="#000000" font-family="sans-serif" font-size="14" lengthAdjust="spacing" textLength="12" x="383.5" y="175.0117">   </text><line style="stroke:#000000;stroke-width:1.0;" x1="378.5" x2="400.5" y1="179.9648" y2="179.9648"/><text fill="#000000" font-family="sans-serif" font-size="14" lengthAdjust="spacing" textLength="12" x="383.5" y="195.5">   </text><rect fill="none" height="81.9531" rx="5" ry="5" style="stroke:#000000;stroke-width:1.5;" width="22" x="378.5" y="118.5"/><rect fill="#F1F1F1" height="61.4648" rx="5" ry="5" style="stroke:#F1F1F1;stroke-width:1.5;" width="145" x="513" y="10"/><text fill="#000000" font-family="sans-serif" font-size="14" font-weight="bold" lengthAdjust="spacing" textLength="78" x="518" y="25.5352">field_value</text><text fill="#000000" font-family="sans-serif" font-size="14" lengthAdjust="spacing" textLength="9" x="622" y="25.5352">4</text><line style="stroke:#000000;stroke-width:1.0;" x1="617" x2="617" y1="10" y2="30.4883"/><line style="stroke:#000000;stroke-width:1.0;" x1="513" x2="658" y1="30.4883" y2="30.4883"/><text fill="#000000" font-family="sans-serif" font-size="14" font-weight="bold" lengthAdjust="spacing" textLength="74" x="518" y="46.0234">row_count</text><text fill="#000000" font-family="sans-serif" font-size="14" lengthAdjust="spacing" textLength="9" x="622" y="46.0234">1</text><line style="stroke:#000000;stroke-width:1.0;" x1="617" x2="617" y1="30.4883" y2="50.9766"/><line style="stroke:#000000;stroke-width:1.0;" x1="513" x2="658" y1="50.9766" y2="50.9766"/><text fill="#000000" font-family="sans-serif" font-size="14" font-weight="bold" lengthAdjust="spacing" textLength="94" x="518" y="66.5117">ratio_percent</text><text fill="#000000" font-family="sans-serif" font-size="14" lengthAdjust="spacing" textLength="31" x="622" y="66.5117">25.0</text><line style="stroke:#000000;stroke-width:1.0;" x1="617" x2="617" y1="50.9766" y2="71.4648"/><rect fill="none" height="61.4648" rx="5" ry="5" style="stroke:#000000;stroke-width:1.5;" width="145" x="513" y="10"/><rect fill="#F1F1F1" height="61.4648" rx="5" ry="5" style="stroke:#F1F1F1;stroke-width:1.5;" width="145" x="513" y="89"/><text fill="#000000" font-family="sans-serif" font-size="14" font-weight="bold" lengthAdjust="spacing" textLength="78" x="518" y="104.5352">field_value</text><text fill="#000000" font-family="sans-serif" font-size="14" lengthAdjust="spacing" textLength="9" x="622" y="104.5352">3</text><line style="stroke:#000000;stroke-width:1.0;" x1="617" x2="617" y1="89" y2="109.4883"/><line style="stroke:#000000;stroke-width:1.0;" x1="513" x2="658" y1="109.4883" y2="109.4883"/><text fill="#000000" font-family="sans-serif" font-size="14" font-weight="bold" lengthAdjust="spacing" textLength="74" x="518" y="125.0234">row_count</text><text fill="#000000" font-family="sans-serif" font-size="14" lengthAdjust="spacing" textLength="9" x="622" y="125.0234">1</text><line style="stroke:#000000;stroke-width:1.0;" x1="617" x2="617" y1="109.4883" y2="129.9766"/><line style="stroke:#000000;stroke-width:1.0;" x1="513" x2="658" y1="129.9766" y2="129.9766"/><text fill="#000000" font-family="sans-serif" font-size="14" font-weight="bold" lengthAdjust="spacing" textLength="94" x="518" y="145.5117">ratio_percent</text><text fill="#000000" font-family="sans-serif" font-size="14" lengthAdjust="spacing" textLength="31" x="622" y="145.5117">25.0</text><line style="stroke:#000000;stroke-width:1.0;" x1="617" x2="617" y1="129.9766" y2="150.4648"/><rect fill="none" height="61.4648" rx="5" ry="5" style="stroke:#000000;stroke-width:1.5;" width="145" x="513" y="89"/><rect fill="#F1F1F1" height="61.4648" rx="5" ry="5" style="stroke:#F1F1F1;stroke-width:1.5;" width="145" x="513" y="168"/><text fill="#000000" font-family="sans-serif" font-size="14" font-weight="bold" lengthAdjust="spacing" textLength="78" x="518" y="183.5352">field_value</text><text fill="#000000" font-family="sans-serif" font-size="14" lengthAdjust="spacing" textLength="9" x="622" y="183.5352">2</text><line style="stroke:#000000;stroke-width:1.0;" x1="617" x2="617" y1="168" y2="188.4883"/><line style="stroke:#000000;stroke-width:1.0;" x1="513" x2="658" y1="188.4883" y2="188.4883"/><text fill="#000000" font-family="sans-serif" font-size="14" font-weight="bold" lengthAdjust="spacing" textLength="74" x="518" y="204.0234">row_count</text><text fill="#000000" font-family="sans-serif" font-size="14" lengthAdjust="spacing" textLength="9" x="622" y="204.0234">1</text><line style="stroke:#000000;stroke-width:1.0;" x1="617" x2="617" y1="188.4883" y2="208.9766"/><line style="stroke:#000000;stroke-width:1.0;" x1="513" x2="658" y1="208.9766" y2="208.9766"/><text fill="#000000" font-family="sans-serif" font-size="14" font-weight="bold" lengthAdjust="spacing" textLength="94" x="518" y="224.5117">ratio_percent</text><text fill="#000000" font-family="sans-serif" font-size="14" lengthAdjust="spacing" textLength="31" x="622" y="224.5117">25.0</text><line style="stroke:#000000;stroke-width:1.0;" x1="617" x2="617" y1="208.9766" y2="229.4648"/><rect fill="none" height="61.4648" rx="5" ry="5" style="stroke:#000000;stroke-width:1.5;" width="145" x="513" y="168"/><rect fill="#F1F1F1" height="61.4648" rx="5" ry="5" style="stroke:#F1F1F1;stroke-width:1.5;" width="145" x="513" y="247"/><text fill="#000000" font-family="sans-serif" font-size="14" font-weight="bold" lengthAdjust="spacing" textLength="78" x="518" y="262.5352">field_value</text><text fill="#000000" font-family="sans-serif" font-size="14" lengthAdjust="spacing" textLength="9" x="622" y="262.5352">1</text><line style="stroke:#000000;stroke-width:1.0;" x1="617" x2="617" y1="247" y2="267.4883"/><line style="stroke:#000000;stroke-width:1.0;" x1="513" x2="658" y1="267.4883" y2="267.4883"/><text fill="#000000" font-family="sans-serif" font-size="14" font-weight="bold" lengthAdjust="spacing" textLength="74" x="518" y="283.0234">row_count</text><text fill="#000000" font-family="sans-serif" font-size="14" lengthAdjust="spacing" textLength="9" x="622" y="283.0234">1</text><line style="stroke:#000000;stroke-width:1.0;" x1="617" x2="617" y1="267.4883" y2="287.9766"/><line style="stroke:#000000;stroke-width:1.0;" x1="513" x2="658" y1="287.9766" y2="287.9766"/><text fill="#000000" font-family="sans-serif" font-size="14" font-weight="bold" lengthAdjust="spacing" textLength="94" x="518" y="303.5117">ratio_percent</text><text fill="#000000" font-family="sans-serif" font-size="14" lengthAdjust="spacing" textLength="31" x="622" y="303.5117">25.0</text><line style="stroke:#000000;stroke-width:1.0;" x1="617" x2="617" y1="287.9766" y2="308.4648"/><rect fill="none" height="61.4648" rx="5" ry="5" style="stroke:#000000;stroke-width:1.5;" width="145" x="513" y="247"/><path d="M256,108.5 L269,108.5 C286.1406,108.5 304.2801,105.714 321.1527,101.869 " fill="none" style="stroke:#000000;stroke-width:1.0;stroke-dasharray:3.0,3.0;"/><path d="M321.8867,104.931 L323.4492,101.3185 L320.4187,98.807 L328.8076,100.034 L321.8867,104.931 " fill="#000000" style="stroke:#000000;stroke-width:1.0;"/><ellipse cx="256" cy="108.5" fill="#000000" rx="3" ry="3" style="stroke:#000000;stroke-width:1.0;"/><path d="M391,128.5 L404,128.5 C437.6401,128.5 447.0498,123.818 477,108.5 C495.292,99.1445 495.8967,90.8842 513,79.5 C515.1302,78.0821 517.3167,76.6709 519.5412,75.2723 " fill="none" style="stroke:#000000;stroke-width:1.0;stroke-dasharray:3.0,3.0;"/><path d="M521.2019,77.9798 L521.5719,74.0267 L517.8805,72.5647 L526.3101,71.1205 L521.2019,77.9798 " fill="#000000" style="stroke:#000000;stroke-width:1.0;"/><ellipse cx="391" cy="128.5" fill="#000000" rx="3" ry="3" style="stroke:#000000;stroke-width:1.0;"/><path d="M391,148.5 L404,148.5 C437.5872,148.5 474.2437,143.5712 505.7303,137.7774 " fill="none" style="stroke:#000000;stroke-width:1.0;stroke-dasharray:3.0,3.0;"/><path d="M506.2935,140.765 L507.9709,137.355 L505.1671,134.7899 L513.1991,136.3694 L506.2935,140.765 " fill="#000000" style="stroke:#000000;stroke-width:1.0;"/><ellipse cx="391" cy="148.5" fill="#000000" rx="3" ry="3" style="stroke:#000000;stroke-width:1.0;"/><path d="M391,169.5 L404,169.5 C437.5872,169.5 474.2437,174.4288 505.7303,180.2226 " fill="none" style="stroke:#000000;stroke-width:1.0;stroke-dasharray:3.0,3.0;"/><path d="M505.1671,183.2101 L507.9709,180.645 L506.2935,177.235 L513.1991,181.6306 L505.1671,183.2101 " fill="#000000" style="stroke:#000000;stroke-width:1.0;"/><ellipse cx="391" cy="169.5" fill="#000000" rx="3" ry="3" style="stroke:#000000;stroke-width:1.0;"/><path d="M391,190.5 L404,190.5 C416.7523,190.5 474.0461,218.9155 520.805,243.2675 " fill="none" style="stroke:#000000;stroke-width:1.0;stroke-dasharray:3.0,3.0;"/><path d="M519.3812,245.9938 L522.8498,244.3354 L522.2288,240.5411 L527.6209,246.8271 L519.3812,245.9938 " fill="#000000" style="stroke:#000000;stroke-width:1.0;"/><ellipse cx="391" cy="190.5" fill="#000000" rx="3" ry="3" style="stroke:#000000;stroke-width:1.0;"/><path d="M256,129.5 L269,129.5 C306.3341,129.5 348.2941,143.1213 371.6944,152.0071 " fill="none" style="stroke:#000000;stroke-width:1.0;stroke-dasharray:3.0,3.0;"/><path d="M370.5723,154.8834 L373.8517,152.8487 L372.8166,149.1308 L378.8852,154.8125 L370.5723,154.8834 " fill="#000000" style="stroke:#000000;stroke-width:1.0;"/><ellipse cx="256" cy="129.5" fill="#000000" rx="3" ry="3" style="stroke:#000000;stroke-width:1.0;"/><!--MD5=[fbe26c9b8dea136ae7018fef08760094]
@startjson
{
    "field1": "ProductReviewID",
    "combination": "ProductReviewID",
    "null_distribution": {
        "total_null_rows": 0,
        "total_not_null_rows": 4
    },
    "data_distribution": [
        {
            "field_value": "4",
            "row_count": 1,
            "ratio_percent": 25.0
        },
        {
            "field_value": "3",
            "row_count": 1,
            "ratio_percent": 25.0
        },
        {
            "field_value": "2",
            "row_count": 1,
            "ratio_percent": 25.0
        },
        {
            "field_value": "1",
            "row_count": 1,
            "ratio_percent": 25.0
        }
    ]
}
@endjson

PlantUML version 1.2022.5(Sat Apr 30 06:55:52 EDT 2022)
(GPL source distribution)
Java Runtime: OpenJDK Runtime Environment
JVM: OpenJDK 64-Bit Server VM
Default Encoding: UTF-8
Language: en
Country: CA
--></g></svg>