<?xml version="1.0" encoding="UTF-8" standalone="no"?><svg xmlns="http://www.w3.org/2000/svg" xmlns:xlink="http://www.w3.org/1999/xlink" contentStyleType="text/css" height="794px" preserveAspectRatio="none" style="width:929px;height:794px;background:#FFFFFF;" version="1.1" viewBox="0 0 929 794" width="929px" zoomAndPan="magnify"><defs/><g><rect fill="#F1F1F1" height="81.9531" rx="5" ry="5" style="stroke:#F1F1F1;stroke-width:1.5;" width="321" x="10" y="264.5"/><text fill="#000000" font-family="sans-serif" font-size="14" font-weight="bold" lengthAdjust="spacing" textLength="42" x="15" y="280.0352">field1</text><text fill="#000000" font-family="sans-serif" font-size="14" lengthAdjust="spacing" textLength="177" x="149" y="280.0352">ThumbnailPhotoFileName</text><line style="stroke:#000000;stroke-width:1.0;" x1="144" x2="144" y1="264.5" y2="284.9883"/><line style="stroke:#000000;stroke-width:1.0;" x1="10" x2="331" y1="284.9883" y2="284.9883"/><text fill="#000000" font-family="sans-serif" font-size="14" font-weight="bold" lengthAdjust="spacing" textLength="90" x="15" y="300.5234">combination</text><text fill="#000000" font-family="sans-serif" font-size="14" lengthAdjust="spacing" textLength="177" x="149" y="300.5234">ThumbnailPhotoFileName</text><line style="stroke:#000000;stroke-width:1.0;" x1="144" x2="144" y1="284.9883" y2="305.4766"/><line style="stroke:#000000;stroke-width:1.0;" x1="10" x2="331" y1="305.4766" y2="305.4766"/><text fill="#000000" font-family="sans-serif" font-size="14" font-weight="bold" lengthAdjust="spacing" textLength="121" x="15" y="321.0117">null_distribution</text><text fill="#000000" font-family="sans-serif" font-size="14" lengthAdjust="spacing" textLength="12" x="149" y="321.0117">   </text><line style="stroke:#000000;stroke-width:1.0;" x1="144" x2="144" y1="305.4766" y2="325.9648"/><line style="stroke:#000000;stroke-width:1.0;" x1="10" x2="331" y1="325.9648" y2="325.9648"/><text fill="#000000" font-family="sans-serif" font-size="14" font-weight="bold" lengthAdjust="spacing" textLength="124" x="15" y="341.5">data_distribution</text><text fill="#000000" font-family="sans-serif" font-size="14" lengthAdjust="spacing" textLength="12" x="149" y="341.5">   </text><line style="stroke:#000000;stroke-width:1.0;" x1="144" x2="144" y1="325.9648" y2="346.4531"/><rect fill="none" height="81.9531" rx="5" ry="5" style="stroke:#000000;stroke-width:1.5;" width="321" x="10" y="264.5"/><rect fill="#F1F1F1" height="40.9766" rx="5" ry="5" style="stroke:#F1F1F1;stroke-width:1.5;" width="189" x="368" y="235"/><text fill="#000000" font-family="sans-serif" font-size="14" font-weight="bold" lengthAdjust="spacing" textLength="111" x="373" y="250.5352">total_null_rows</text><text fill="#000000" font-family="sans-serif" font-size="14" lengthAdjust="spacing" textLength="9" x="525" y="250.5352">0</text><line style="stroke:#000000;stroke-width:1.0;" x1="520" x2="520" y1="235" y2="255.4883"/><line style="stroke:#000000;stroke-width:1.0;" x1="368" x2="557" y1="255.4883" y2="255.4883"/><text fill="#000000" font-family="sans-serif" font-size="14" font-weight="bold" lengthAdjust="spacing" textLength="142" x="373" y="271.0234">total_not_null_rows</text><text fill="#000000" font-family="sans-serif" font-size="14" lengthAdjust="spacing" textLength="27" x="525" y="271.0234">101</text><line style="stroke:#000000;stroke-width:1.0;" x1="520" x2="520" y1="255.4883" y2="275.9766"/><rect fill="none" height="40.9766" rx="5" ry="5" style="stroke:#000000;stroke-width:1.5;" width="189" x="368" y="235"/><rect fill="#F1F1F1" height="204.8828" rx="5" ry="5" style="stroke:#F1F1F1;stroke-width:1.5;" width="22" x="450.5" y="294"/><text fill="#000000" font-family="sans-serif" font-size="14" lengthAdjust="spacing" textLength="12" x="455.5" y="309.5352">   </text><line style="stroke:#000000;stroke-width:1.0;" x1="450.5" x2="472.5" y1="314.4883" y2="314.4883"/><text fill="#000000" font-family="sans-serif" font-size="14" lengthAdjust="spacing" textLength="12" x="455.5" y="330.0234">   </text><line style="stroke:#000000;stroke-width:1.0;" x1="450.5" x2="472.5" y1="334.9766" y2="334.9766"/><text fill="#000000" font-family="sans-serif" font-size="14" lengthAdjust="spacing" textLength="12" x="455.5" y="350.5117">   </text><line style="stroke:#000000;stroke-width:1.0;" x1="450.5" x2="472.5" y1="355.4648" y2="355.4648"/><text fill="#000000" font-family="sans-serif" font-size="14" lengthAdjust="spacing" textLength="12" x="455.5" y="371">   </text><line style="stroke:#000000;stroke-width:1.0;" x1="450.5" x2="472.5" y1="375.9531" y2="375.9531"/><text fill="#000000" font-family="sans-serif" font-size="14" lengthAdjust="spacing" textLength="12" x="455.5" y="391.4883">   </text><line style="stroke:#000000;stroke-width:1.0;" x1="450.5" x2="472.5" y1="396.4414" y2="396.4414"/><text fill="#000000" font-family="sans-serif" font-size="14" lengthAdjust="spacing" textLength="12" x="455.5" y="411.9766">   </text><line style="stroke:#000000;stroke-width:1.0;" x1="450.5" x2="472.5" y1="416.9297" y2="416.9297"/><text fill="#000000" font-family="sans-serif" font-size="14" lengthAdjust="spacing" textLength="12" x="455.5" y="432.4648">   </text><line style="stroke:#000000;stroke-width:1.0;" x1="450.5" x2="472.5" y1="437.418" y2="437.418"/><text fill="#000000" font-family="sans-serif" font-size="14" lengthAdjust="spacing" textLength="12" x="455.5" y="452.9531">   </text><line style="stroke:#000000;stroke-width:1.0;" x1="450.5" x2="472.5" y1="457.9063" y2="457.9063"/><text fill="#000000" font-family="sans-serif" font-size="14" lengthAdjust="spacing" textLength="12" x="455.5" y="473.4414">   </text><line style="stroke:#000000;stroke-width:1.0;" x1="450.5" x2="472.5" y1="478.3945" y2="478.3945"/><text fill="#000000" font-family="sans-serif" font-size="14" lengthAdjust="spacing" textLength="12" x="455.5" y="493.9297">   </text><rect fill="none" height="204.8828" rx="5" ry="5" style="stroke:#000000;stroke-width:1.5;" width="22" x="450.5" y="294"/><rect fill="#F1F1F1" height="61.4648" rx="5" ry="5" style="stroke:#F1F1F1;stroke-width:1.5;" width="271" x="620" y="10"/><text fill="#000000" font-family="sans-serif" font-size="14" font-weight="bold" lengthAdjust="spacing" textLength="78" x="625" y="25.5352">field_value</text><text fill="#000000" font-family="sans-serif" font-size="14" lengthAdjust="spacing" textLength="139" x="729" y="25.5352">chain_lube_small.gif</text><line style="stroke:#000000;stroke-width:1.0;" x1="724" x2="724" y1="10" y2="30.4883"/><line style="stroke:#000000;stroke-width:1.0;" x1="620" x2="891" y1="30.4883" y2="30.4883"/><text fill="#000000" font-family="sans-serif" font-size="14" font-weight="bold" lengthAdjust="spacing" textLength="74" x="625" y="46.0234">row_count</text><text fill="#000000" font-family="sans-serif" font-size="14" lengthAdjust="spacing" textLength="9" x="729" y="46.0234">1</text><line style="stroke:#000000;stroke-width:1.0;" x1="724" x2="724" y1="30.4883" y2="50.9766"/><line style="stroke:#000000;stroke-width:1.0;" x1="620" x2="891" y1="50.9766" y2="50.9766"/><text fill="#000000" font-family="sans-serif" font-size="14" font-weight="bold" lengthAdjust="spacing" textLength="94" x="625" y="66.5117">ratio_percent</text><text fill="#000000" font-family="sans-serif" font-size="14" lengthAdjust="spacing" textLength="157" x="729" y="66.5117">0.9900990099009901</text><line style="stroke:#000000;stroke-width:1.0;" x1="724" x2="724" y1="50.9766" y2="71.4648"/><rect fill="none" height="61.4648" rx="5" ry="5" style="stroke:#000000;stroke-width:1.5;" width="271" x="620" y="10"/><rect fill="#F1F1F1" height="61.4648" rx="5" ry="5" style="stroke:#F1F1F1;stroke-width:1.5;" width="271" x="620" y="89"/><text fill="#000000" font-family="sans-serif" font-size="14" font-weight="bold" lengthAdjust="spacing" textLength="78" x="625" y="104.5352">field_value</text><text fill="#000000" font-family="sans-serif" font-size="14" lengthAdjust="spacing" textLength="134" x="729" y="104.5352">bikepump_small.gif</text><line style="stroke:#000000;stroke-width:1.0;" x1="724" x2="724" y1="89" y2="109.4883"/><line style="stroke:#000000;stroke-width:1.0;" x1="620" x2="891" y1="109.4883" y2="109.4883"/><text fill="#000000" font-family="sans-serif" font-size="14" font-weight="bold" lengthAdjust="spacing" textLength="74" x="625" y="125.0234">row_count</text><text fill="#000000" font-family="sans-serif" font-size="14" lengthAdjust="spacing" textLength="9" x="729" y="125.0234">1</text><line style="stroke:#000000;stroke-width:1.0;" x1="724" x2="724" y1="109.4883" y2="129.9766"/><line style="stroke:#000000;stroke-width:1.0;" x1="620" x2="891" y1="129.9766" y2="129.9766"/><text fill="#000000" font-family="sans-serif" font-size="14" font-weight="bold" lengthAdjust="spacing" textLength="94" x="625" y="145.5117">ratio_percent</text><text fill="#000000" font-family="sans-serif" font-size="14" lengthAdjust="spacing" textLength="157" x="729" y="145.5117">0.9900990099009901</text><line style="stroke:#000000;stroke-width:1.0;" x1="724" x2="724" y1="129.9766" y2="150.4648"/><rect fill="none" height="61.4648" rx="5" ry="5" style="stroke:#000000;stroke-width:1.5;" width="271" x="620" y="89"/><rect fill="#F1F1F1" height="61.4648" rx="5" ry="5" style="stroke:#F1F1F1;stroke-width:1.5;" width="298" x="606.5" y="168"/><text fill="#000000" font-family="sans-serif" font-size="14" font-weight="bold" lengthAdjust="spacing" textLength="78" x="611.5" y="183.5352">field_value</text><text fill="#000000" font-family="sans-serif" font-size="14" lengthAdjust="spacing" textLength="184" x="715.5" y="183.5352">bike_shorts_male_small.gif</text><line style="stroke:#000000;stroke-width:1.0;" x1="710.5" x2="710.5" y1="168" y2="188.4883"/><line style="stroke:#000000;stroke-width:1.0;" x1="606.5" x2="904.5" y1="188.4883" y2="188.4883"/><text fill="#000000" font-family="sans-serif" font-size="14" font-weight="bold" lengthAdjust="spacing" textLength="74" x="611.5" y="204.0234">row_count</text><text fill="#000000" font-family="sans-serif" font-size="14" lengthAdjust="spacing" textLength="9" x="715.5" y="204.0234">1</text><line style="stroke:#000000;stroke-width:1.0;" x1="710.5" x2="710.5" y1="188.4883" y2="208.9766"/><line style="stroke:#000000;stroke-width:1.0;" x1="606.5" x2="904.5" y1="208.9766" y2="208.9766"/><text fill="#000000" font-family="sans-serif" font-size="14" font-weight="bold" lengthAdjust="spacing" textLength="94" x="611.5" y="224.5117">ratio_percent</text><text fill="#000000" font-family="sans-serif" font-size="14" lengthAdjust="spacing" textLength="157" x="715.5" y="224.5117">0.9900990099009901</text><line style="stroke:#000000;stroke-width:1.0;" x1="710.5" x2="710.5" y1="208.9766" y2="229.4648"/><rect fill="none" height="61.4648" rx="5" ry="5" style="stroke:#000000;stroke-width:1.5;" width="298" x="606.5" y="168"/><rect fill="#F1F1F1" height="61.4648" rx="5" ry="5" style="stroke:#F1F1F1;stroke-width:1.5;" width="311" x="600" y="247"/><text fill="#000000" font-family="sans-serif" font-size="14" font-weight="bold" lengthAdjust="spacing" textLength="78" x="605" y="262.5352">field_value</text><text fill="#000000" font-family="sans-serif" font-size="14" lengthAdjust="spacing" textLength="197" x="709" y="262.5352">bike_shorts_female_small.gif</text><line style="stroke:#000000;stroke-width:1.0;" x1="704" x2="704" y1="247" y2="267.4883"/><line style="stroke:#000000;stroke-width:1.0;" x1="600" x2="911" y1="267.4883" y2="267.4883"/><text fill="#000000" font-family="sans-serif" font-size="14" font-weight="bold" lengthAdjust="spacing" textLength="74" x="605" y="283.0234">row_count</text><text fill="#000000" font-family="sans-serif" font-size="14" lengthAdjust="spacing" textLength="9" x="709" y="283.0234">1</text><line style="stroke:#000000;stroke-width:1.0;" x1="704" x2="704" y1="267.4883" y2="287.9766"/><line style="stroke:#000000;stroke-width:1.0;" x1="600" x2="911" y1="287.9766" y2="287.9766"/><text fill="#000000" font-family="sans-serif" font-size="14" font-weight="bold" lengthAdjust="spacing" textLength="94" x="605" y="303.5117">ratio_percent</text><text fill="#000000" font-family="sans-serif" font-size="14" lengthAdjust="spacing" textLength="157" x="709" y="303.5117">0.9900990099009901</text><line style="stroke:#000000;stroke-width:1.0;" x1="704" x2="704" y1="287.9766" y2="308.4648"/><rect fill="none" height="61.4648" rx="5" ry="5" style="stroke:#000000;stroke-width:1.5;" width="311" x="600" y="247"/><rect fill="#F1F1F1" height="61.4648" rx="5" ry="5" style="stroke:#F1F1F1;stroke-width:1.5;" width="271" x="620" y="326"/><text fill="#000000" font-family="sans-serif" font-size="14" font-weight="bold" lengthAdjust="spacing" textLength="78" x="625" y="341.5352">field_value</text><text fill="#000000" font-family="sans-serif" font-size="14" lengthAdjust="spacing" textLength="141" x="729" y="341.5352">bike_shoes_small.gif</text><line style="stroke:#000000;stroke-width:1.0;" x1="724" x2="724" y1="326" y2="346.4883"/><line style="stroke:#000000;stroke-width:1.0;" x1="620" x2="891" y1="346.4883" y2="346.4883"/><text fill="#000000" font-family="sans-serif" font-size="14" font-weight="bold" lengthAdjust="spacing" textLength="74" x="625" y="362.0234">row_count</text><text fill="#000000" font-family="sans-serif" font-size="14" lengthAdjust="spacing" textLength="9" x="729" y="362.0234">1</text><line style="stroke:#000000;stroke-width:1.0;" x1="724" x2="724" y1="346.4883" y2="366.9766"/><line style="stroke:#000000;stroke-width:1.0;" x1="620" x2="891" y1="366.9766" y2="366.9766"/><text fill="#000000" font-family="sans-serif" font-size="14" font-weight="bold" lengthAdjust="spacing" textLength="94" x="625" y="382.5117">ratio_percent</text><text fill="#000000" font-family="sans-serif" font-size="14" lengthAdjust="spacing" textLength="157" x="729" y="382.5117">0.9900990099009901</text><line style="stroke:#000000;stroke-width:1.0;" x1="724" x2="724" y1="366.9766" y2="387.4648"/><rect fill="none" height="61.4648" rx="5" ry="5" style="stroke:#000000;stroke-width:1.5;" width="271" x="620" y="326"/><rect fill="#F1F1F1" height="61.4648" rx="5" ry="5" style="stroke:#F1F1F1;stroke-width:1.5;" width="271" x="620" y="405"/><text fill="#000000" font-family="sans-serif" font-size="14" font-weight="bold" lengthAdjust="spacing" textLength="78" x="625" y="420.5352">field_value</text><text fill="#000000" font-family="sans-serif" font-size="14" lengthAdjust="spacing" textLength="129" x="729" y="420.5352">bike_lock_small.gif</text><line style="stroke:#000000;stroke-width:1.0;" x1="724" x2="724" y1="405" y2="425.4883"/><line style="stroke:#000000;stroke-width:1.0;" x1="620" x2="891" y1="425.4883" y2="425.4883"/><text fill="#000000" font-family="sans-serif" font-size="14" font-weight="bold" lengthAdjust="spacing" textLength="74" x="625" y="441.0234">row_count</text><text fill="#000000" font-family="sans-serif" font-size="14" lengthAdjust="spacing" textLength="9" x="729" y="441.0234">1</text><line style="stroke:#000000;stroke-width:1.0;" x1="724" x2="724" y1="425.4883" y2="445.9766"/><line style="stroke:#000000;stroke-width:1.0;" x1="620" x2="891" y1="445.9766" y2="445.9766"/><text fill="#000000" font-family="sans-serif" font-size="14" font-weight="bold" lengthAdjust="spacing" textLength="94" x="625" y="461.5117">ratio_percent</text><text fill="#000000" font-family="sans-serif" font-size="14" lengthAdjust="spacing" textLength="157" x="729" y="461.5117">0.9900990099009901</text><line style="stroke:#000000;stroke-width:1.0;" x1="724" x2="724" y1="445.9766" y2="466.4648"/><rect fill="none" height="61.4648" rx="5" ry="5" style="stroke:#000000;stroke-width:1.5;" width="271" x="620" y="405"/><rect fill="#F1F1F1" height="61.4648" rx="5" ry="5" style="stroke:#F1F1F1;stroke-width:1.5;" width="323" x="594" y="484"/><text fill="#000000" font-family="sans-serif" font-size="14" font-weight="bold" lengthAdjust="spacing" textLength="78" x="599" y="499.5352">field_value</text><text fill="#000000" font-family="sans-serif" font-size="14" lengthAdjust="spacing" textLength="209" x="703" y="499.5352">awc_tee_male_yellow_small.gif</text><line style="stroke:#000000;stroke-width:1.0;" x1="698" x2="698" y1="484" y2="504.4883"/><line style="stroke:#000000;stroke-width:1.0;" x1="594" x2="917" y1="504.4883" y2="504.4883"/><text fill="#000000" font-family="sans-serif" font-size="14" font-weight="bold" lengthAdjust="spacing" textLength="74" x="599" y="520.0234">row_count</text><text fill="#000000" font-family="sans-serif" font-size="14" lengthAdjust="spacing" textLength="9" x="703" y="520.0234">1</text><line style="stroke:#000000;stroke-width:1.0;" x1="698" x2="698" y1="504.4883" y2="524.9766"/><line style="stroke:#000000;stroke-width:1.0;" x1="594" x2="917" y1="524.9766" y2="524.9766"/><text fill="#000000" font-family="sans-serif" font-size="14" font-weight="bold" lengthAdjust="spacing" textLength="94" x="599" y="540.5117">ratio_percent</text><text fill="#000000" font-family="sans-serif" font-size="14" lengthAdjust="spacing" textLength="157" x="703" y="540.5117">0.9900990099009901</text><line style="stroke:#000000;stroke-width:1.0;" x1="698" x2="698" y1="524.9766" y2="545.4648"/><rect fill="none" height="61.4648" rx="5" ry="5" style="stroke:#000000;stroke-width:1.5;" width="323" x="594" y="484"/><rect fill="#F1F1F1" height="61.4648" rx="5" ry="5" style="stroke:#F1F1F1;stroke-width:1.5;" width="273" x="619" y="563"/><text fill="#000000" font-family="sans-serif" font-size="14" font-weight="bold" lengthAdjust="spacing" textLength="78" x="624" y="578.5352">field_value</text><text fill="#000000" font-family="sans-serif" font-size="14" lengthAdjust="spacing" textLength="159" x="728" y="578.5352">awc_tee_male_small.gif</text><line style="stroke:#000000;stroke-width:1.0;" x1="723" x2="723" y1="563" y2="583.4883"/><line style="stroke:#000000;stroke-width:1.0;" x1="619" x2="892" y1="583.4883" y2="583.4883"/><text fill="#000000" font-family="sans-serif" font-size="14" font-weight="bold" lengthAdjust="spacing" textLength="74" x="624" y="599.0234">row_count</text><text fill="#000000" font-family="sans-serif" font-size="14" lengthAdjust="spacing" textLength="9" x="728" y="599.0234">1</text><line style="stroke:#000000;stroke-width:1.0;" x1="723" x2="723" y1="583.4883" y2="603.9766"/><line style="stroke:#000000;stroke-width:1.0;" x1="619" x2="892" y1="603.9766" y2="603.9766"/><text fill="#000000" font-family="sans-serif" font-size="14" font-weight="bold" lengthAdjust="spacing" textLength="94" x="624" y="619.5117">ratio_percent</text><text fill="#000000" font-family="sans-serif" font-size="14" lengthAdjust="spacing" textLength="157" x="728" y="619.5117">0.9900990099009901</text><line style="stroke:#000000;stroke-width:1.0;" x1="723" x2="723" y1="603.9766" y2="624.4648"/><rect fill="none" height="61.4648" rx="5" ry="5" style="stroke:#000000;stroke-width:1.5;" width="273" x="619" y="563"/><rect fill="#F1F1F1" height="61.4648" rx="5" ry="5" style="stroke:#F1F1F1;stroke-width:1.5;" width="286" x="612.5" y="642"/><text fill="#000000" font-family="sans-serif" font-size="14" font-weight="bold" lengthAdjust="spacing" textLength="78" x="617.5" y="657.5352">field_value</text><text fill="#000000" font-family="sans-serif" font-size="14" lengthAdjust="spacing" textLength="172" x="721.5" y="657.5352">awc_tee_female_small.gif</text><line style="stroke:#000000;stroke-width:1.0;" x1="716.5" x2="716.5" y1="642" y2="662.4883"/><line style="stroke:#000000;stroke-width:1.0;" x1="612.5" x2="898.5" y1="662.4883" y2="662.4883"/><text fill="#000000" font-family="sans-serif" font-size="14" font-weight="bold" lengthAdjust="spacing" textLength="74" x="617.5" y="678.0234">row_count</text><text fill="#000000" font-family="sans-serif" font-size="14" lengthAdjust="spacing" textLength="9" x="721.5" y="678.0234">1</text><line style="stroke:#000000;stroke-width:1.0;" x1="716.5" x2="716.5" y1="662.4883" y2="682.9766"/><line style="stroke:#000000;stroke-width:1.0;" x1="612.5" x2="898.5" y1="682.9766" y2="682.9766"/><text fill="#000000" font-family="sans-serif" font-size="14" font-weight="bold" lengthAdjust="spacing" textLength="94" x="617.5" y="698.5117">ratio_percent</text><text fill="#000000" font-family="sans-serif" font-size="14" lengthAdjust="spacing" textLength="157" x="721.5" y="698.5117">0.9900990099009901</text><line style="stroke:#000000;stroke-width:1.0;" x1="716.5" x2="716.5" y1="682.9766" y2="703.4648"/><rect fill="none" height="61.4648" rx="5" ry="5" style="stroke:#000000;stroke-width:1.5;" width="286" x="612.5" y="642"/><rect fill="#F1F1F1" height="61.4648" rx="5" ry="5" style="stroke:#F1F1F1;stroke-width:1.5;" width="292" x="609.5" y="721"/><text fill="#000000" font-family="sans-serif" font-size="14" font-weight="bold" lengthAdjust="spacing" textLength="78" x="614.5" y="736.5352">field_value</text><text fill="#000000" font-family="sans-serif" font-size="14" lengthAdjust="spacing" textLength="178" x="718.5" y="736.5352">awc_jersey_male_small.gif</text><line style="stroke:#000000;stroke-width:1.0;" x1="713.5" x2="713.5" y1="721" y2="741.4883"/><line style="stroke:#000000;stroke-width:1.0;" x1="609.5" x2="901.5" y1="741.4883" y2="741.4883"/><text fill="#000000" font-family="sans-serif" font-size="14" font-weight="bold" lengthAdjust="spacing" textLength="74" x="614.5" y="757.0234">row_count</text><text fill="#000000" font-family="sans-serif" font-size="14" lengthAdjust="spacing" textLength="9" x="718.5" y="757.0234">1</text><line style="stroke:#000000;stroke-width:1.0;" x1="713.5" x2="713.5" y1="741.4883" y2="761.9766"/><line style="stroke:#000000;stroke-width:1.0;" x1="609.5" x2="901.5" y1="761.9766" y2="761.9766"/><text fill="#000000" font-family="sans-serif" font-size="14" font-weight="bold" lengthAdjust="spacing" textLength="94" x="614.5" y="777.5117">ratio_percent</text><text fill="#000000" font-family="sans-serif" font-size="14" lengthAdjust="spacing" textLength="157" x="718.5" y="777.5117">0.9900990099009901</text><line style="stroke:#000000;stroke-width:1.0;" x1="713.5" x2="713.5" y1="761.9766" y2="782.4648"/><rect fill="none" height="61.4648" rx="5" ry="5" style="stroke:#000000;stroke-width:1.5;" width="292" x="609.5" y="721"/><path d="M319,315.5 L332,315.5 C352.8273,315.5 349.7406,295.5187 368,285.5 C372.1394,283.2288 376.4771,281.0988 380.9224,279.1061 " fill="none" style="stroke:#000000;stroke-width:1.0;stroke-dasharray:3.0,3.0;"/><path d="M382.1301,281.9305 L383.0407,278.2004 L379.7148,276.2817 L387.9835,276.0871 L382.1301,281.9305 " fill="#000000" style="stroke:#000000;stroke-width:1.0;"/><ellipse cx="319" cy="315.5" fill="#000000" rx="3" ry="3" style="stroke:#000000;stroke-width:1.0;"/><path d="M463,303.5 L476,303.5 C513.3122,303.5 532.1906,312.4458 558,285.5 C622.2901,218.3792 530.4376,147.3104 594,79.5 C599.7976,73.315 606.3945,68.0372 613.53,63.5398 " fill="none" style="stroke:#000000;stroke-width:1.0;stroke-dasharray:3.0,3.0;"/><path d="M615.0958,66.2185 L615.539,62.3654 L611.9642,60.8611 L620.2268,59.6253 L615.0958,66.2185 " fill="#000000" style="stroke:#000000;stroke-width:1.0;"/><ellipse cx="463" cy="303.5" fill="#000000" rx="3" ry="3" style="stroke:#000000;stroke-width:1.0;"/><path d="M463,324.5 L476,324.5 C516.3564,324.5 531.9543,316.3264 558,285.5 C595.864,240.686 551.7231,199.1773 594,158.5 C599.9502,152.7749 606.5908,147.8435 613.6922,143.5996 " fill="none" style="stroke:#000000;stroke-width:1.0;stroke-dasharray:3.0,3.0;"/><path d="M615.175,146.2574 L615.6855,142.4875 L612.2093,140.9418 L620.3367,139.8925 L615.175,146.2574 " fill="#000000" style="stroke:#000000;stroke-width:1.0;"/><ellipse cx="463" cy="324.5" fill="#000000" rx="3" ry="3" style="stroke:#000000;stroke-width:1.0;"/><path d="M463,344.5 L476,344.5 C520.8977,344.5 525.9398,316.9316 558,285.5 C577.0419,266.8314 571.7306,252.1692 594,237.5 C596.4243,235.9031 598.9076,234.3715 601.4417,232.9026 " fill="none" style="stroke:#000000;stroke-width:1.0;stroke-dasharray:3.0,3.0;"/><path d="M602.9393,235.6307 L603.4878,231.7794 L599.9441,230.1744 L608.2621,229.1586 L602.9393,235.6307 " fill="#000000" style="stroke:#000000;stroke-width:1.0;"/><ellipse cx="463" cy="344.5" fill="#000000" rx="3" ry="3" style="stroke:#000000;stroke-width:1.0;"/><path d="M463,365.5 L476,365.5 C532.6174,365.5 540.1671,335.0371 594,317.5 C601.6527,315.007 609.5532,312.5816 617.5561,310.2388 " fill="none" style="stroke:#000000;stroke-width:1.0;stroke-dasharray:3.0,3.0;"/><path d="M618.4073,313.1885 L619.7684,309.6004 L616.705,307.2891 L624.9304,308.1109 L618.4073,313.1885 " fill="#000000" style="stroke:#000000;stroke-width:1.0;"/><ellipse cx="463" cy="365.5" fill="#000000" rx="3" ry="3" style="stroke:#000000;stroke-width:1.0;"/><path d="M463,385.5 L476,385.5 C520.6542,385.5 569.1142,381.7794 612.9246,377.0035 " fill="none" style="stroke:#000000;stroke-width:1.0;stroke-dasharray:3.0,3.0;"/><path d="M613.2602,380.0256 L615.1912,376.7519 L612.589,373.9815 L620.4798,376.1646 L613.2602,380.0256 " fill="#000000" style="stroke:#000000;stroke-width:1.0;"/><ellipse cx="463" cy="385.5" fill="#000000" rx="3" ry="3" style="stroke:#000000;stroke-width:1.0;"/><path d="M463,406.5 L476,406.5 C520.6542,406.5 569.1142,410.2206 612.9246,414.9965 " fill="none" style="stroke:#000000;stroke-width:1.0;stroke-dasharray:3.0,3.0;"/><path d="M612.589,418.0185 L615.1912,415.2481 L613.2602,411.9744 L620.4798,415.8354 L612.589,418.0185 " fill="#000000" style="stroke:#000000;stroke-width:1.0;"/><ellipse cx="463" cy="406.5" fill="#000000" rx="3" ry="3" style="stroke:#000000;stroke-width:1.0;"/><path d="M463,427.5 L476,427.5 C532.6174,427.5 540.116,458.1207 594,475.5 C600.6333,477.6394 607.4535,479.7233 614.3657,481.743 " fill="none" style="stroke:#000000;stroke-width:1.0;stroke-dasharray:3.0,3.0;"/><path d="M613.4994,484.7559 L616.6254,482.3928 L615.2321,478.7301 L621.898,483.9089 L613.4994,484.7559 " fill="#000000" style="stroke:#000000;stroke-width:1.0;"/><ellipse cx="463" cy="427.5" fill="#000000" rx="3" ry="3" style="stroke:#000000;stroke-width:1.0;"/><path d="M463,447.5 L476,447.5 C546.7951,447.5 531.4389,521.3631 594,554.5 C599.7541,557.5478 605.7496,560.3615 611.899,562.9587 " fill="none" style="stroke:#000000;stroke-width:1.0;stroke-dasharray:3.0,3.0;"/><path d="M610.7188,565.8724 L614.0842,563.8439 L613.0792,560.0451 L619.1832,565.9093 L610.7188,565.8724 " fill="#000000" style="stroke:#000000;stroke-width:1.0;"/><ellipse cx="463" cy="447.5" fill="#000000" rx="3" ry="3" style="stroke:#000000;stroke-width:1.0;"/><path d="M463,468.5 L476,468.5 C566.1565,468.5 519.2772,583.0549 594,633.5 C597.9107,636.1401 601.9813,638.6019 606.1754,640.8976 " fill="none" style="stroke:#000000;stroke-width:1.0;stroke-dasharray:3.0,3.0;"/><path d="M604.7865,643.5724 L608.1816,641.9393 L607.5644,638.2228 L612.8625,644.37 L604.7865,643.5724 " fill="#000000" style="stroke:#000000;stroke-width:1.0;"/><ellipse cx="463" cy="468.5" fill="#000000" rx="3" ry="3" style="stroke:#000000;stroke-width:1.0;"/><path d="M463,488.5 L476,488.5 C588.5243,488.5 505.2313,643.3491 594,712.5 C596.9636,714.8087 600.044,716.9833 603.2215,719.0315 " fill="none" style="stroke:#000000;stroke-width:1.0;stroke-dasharray:3.0,3.0;"/><path d="M601.6098,721.6924 L605.2172,720.2403 L604.8332,716.3706 L609.8738,723.0607 L601.6098,721.6924 " fill="#000000" style="stroke:#000000;stroke-width:1.0;"/><ellipse cx="463" cy="488.5" fill="#000000" rx="3" ry="3" style="stroke:#000000;stroke-width:1.0;"/><path d="M319,336.5 L332,336.5 C375.8518,336.5 421.0003,364.993 444.8339,382.7089 " fill="none" style="stroke:#000000;stroke-width:1.0;stroke-dasharray:3.0,3.0;"/><path d="M442.9625,385.1642 L446.6753,384.1124 L446.7052,380.2536 L450.9721,387.3873 L442.9625,385.1642 " fill="#000000" style="stroke:#000000;stroke-width:1.0;"/><ellipse cx="319" cy="336.5" fill="#000000" rx="3" ry="3" style="stroke:#000000;stroke-width:1.0;"/><!--MD5=[16ea05fc0fff21ac60ed0933aff44212]
@startjson
{
    "field1": "ThumbnailPhotoFileName",
    "combination": "ThumbnailPhotoFileName",
    "null_distribution": {
        "total_null_rows": 0,
        "total_not_null_rows": 101
    },
    "data_distribution": [
        {
            "field_value": "chain_lube_small.gif",
            "row_count": 1,
            "ratio_percent": 0.9900990099009901
        },
        {
            "field_value": "bikepump_small.gif",
            "row_count": 1,
            "ratio_percent": 0.9900990099009901
        },
        {
            "field_value": "bike_shorts_male_small.gif",
            "row_count": 1,
            "ratio_percent": 0.9900990099009901
        },
        {
            "field_value": "bike_shorts_female_small.gif",
            "row_count": 1,
            "ratio_percent": 0.9900990099009901
        },
        {
            "field_value": "bike_shoes_small.gif",
            "row_count": 1,
            "ratio_percent": 0.9900990099009901
        },
        {
            "field_value": "bike_lock_small.gif",
            "row_count": 1,
            "ratio_percent": 0.9900990099009901
        },
        {
            "field_value": "awc_tee_male_yellow_small.gif",
            "row_count": 1,
            "ratio_percent": 0.9900990099009901
        },
        {
            "field_value": "awc_tee_male_small.gif",
            "row_count": 1,
            "ratio_percent": 0.9900990099009901
        },
        {
            "field_value": "awc_tee_female_small.gif",
            "row_count": 1,
            "ratio_percent": 0.9900990099009901
        },
        {
            "field_value": "awc_jersey_male_small.gif",
            "row_count": 1,
            "ratio_percent": 0.9900990099009901
        }
    ]
}
@endjson

PlantUML version 1.2022.5(Sat Apr 30 06:55:52 EDT 2022)
(GPL source distribution)
Java Runtime: OpenJDK Runtime Environment
JVM: OpenJDK 64-Bit Server VM
Default Encoding: UTF-8
Language: en
Country: CA
--></g></svg>