<?xml version="1.0" encoding="UTF-8" standalone="no"?><svg xmlns="http://www.w3.org/2000/svg" xmlns:xlink="http://www.w3.org/1999/xlink" contentStyleType="text/css" height="557px" preserveAspectRatio="none" style="width:853px;height:557px;background:#FFFFFF;" version="1.1" viewBox="0 0 853 557" width="853px" zoomAndPan="magnify"><defs/><g><rect fill="#F1F1F1" height="81.9531" rx="5" ry="5" style="stroke:#F1F1F1;stroke-width:1.5;" width="279" x="10" y="161.5"/><text fill="#000000" font-family="sans-serif" font-size="14" font-weight="bold" lengthAdjust="spacing" textLength="42" x="15" y="177.0352">field1</text><text fill="#000000" font-family="sans-serif" font-size="14" lengthAdjust="spacing" textLength="135" x="149" y="177.0352">OperationSequence</text><line style="stroke:#000000;stroke-width:1.0;" x1="144" x2="144" y1="161.5" y2="181.9883"/><line style="stroke:#000000;stroke-width:1.0;" x1="10" x2="289" y1="181.9883" y2="181.9883"/><text fill="#000000" font-family="sans-serif" font-size="14" font-weight="bold" lengthAdjust="spacing" textLength="90" x="15" y="197.5234">combination</text><text fill="#000000" font-family="sans-serif" font-size="14" lengthAdjust="spacing" textLength="135" x="149" y="197.5234">OperationSequence</text><line style="stroke:#000000;stroke-width:1.0;" x1="144" x2="144" y1="181.9883" y2="202.4766"/><line style="stroke:#000000;stroke-width:1.0;" x1="10" x2="289" y1="202.4766" y2="202.4766"/><text fill="#000000" font-family="sans-serif" font-size="14" font-weight="bold" lengthAdjust="spacing" textLength="121" x="15" y="218.0117">null_distribution</text><text fill="#000000" font-family="sans-serif" font-size="14" lengthAdjust="spacing" textLength="12" x="149" y="218.0117">   </text><line style="stroke:#000000;stroke-width:1.0;" x1="144" x2="144" y1="202.4766" y2="222.9648"/><line style="stroke:#000000;stroke-width:1.0;" x1="10" x2="289" y1="222.9648" y2="222.9648"/><text fill="#000000" font-family="sans-serif" font-size="14" font-weight="bold" lengthAdjust="spacing" textLength="124" x="15" y="238.5">data_distribution</text><text fill="#000000" font-family="sans-serif" font-size="14" lengthAdjust="spacing" textLength="12" x="149" y="238.5">   </text><line style="stroke:#000000;stroke-width:1.0;" x1="144" x2="144" y1="222.9648" y2="243.4531"/><rect fill="none" height="81.9531" rx="5" ry="5" style="stroke:#000000;stroke-width:1.5;" width="279" x="10" y="161.5"/><rect fill="#F1F1F1" height="40.9766" rx="5" ry="5" style="stroke:#F1F1F1;stroke-width:1.5;" width="207" x="326" y="148"/><text fill="#000000" font-family="sans-serif" font-size="14" font-weight="bold" lengthAdjust="spacing" textLength="111" x="331" y="163.5352">total_null_rows</text><text fill="#000000" font-family="sans-serif" font-size="14" lengthAdjust="spacing" textLength="9" x="483" y="163.5352">0</text><line style="stroke:#000000;stroke-width:1.0;" x1="478" x2="478" y1="148" y2="168.4883"/><line style="stroke:#000000;stroke-width:1.0;" x1="326" x2="533" y1="168.4883" y2="168.4883"/><text fill="#000000" font-family="sans-serif" font-size="14" font-weight="bold" lengthAdjust="spacing" textLength="142" x="331" y="184.0234">total_not_null_rows</text><text fill="#000000" font-family="sans-serif" font-size="14" lengthAdjust="spacing" textLength="45" x="483" y="184.0234">67131</text><line style="stroke:#000000;stroke-width:1.0;" x1="478" x2="478" y1="168.4883" y2="188.9766"/><rect fill="none" height="40.9766" rx="5" ry="5" style="stroke:#000000;stroke-width:1.5;" width="207" x="326" y="148"/><rect fill="#F1F1F1" height="143.418" rx="5" ry="5" style="stroke:#F1F1F1;stroke-width:1.5;" width="22" x="417.5" y="207"/><text fill="#000000" font-family="sans-serif" font-size="14" lengthAdjust="spacing" textLength="12" x="422.5" y="222.5352">   </text><line style="stroke:#000000;stroke-width:1.0;" x1="417.5" x2="439.5" y1="227.4883" y2="227.4883"/><text fill="#000000" font-family="sans-serif" font-size="14" lengthAdjust="spacing" textLength="12" x="422.5" y="243.0234">   </text><line style="stroke:#000000;stroke-width:1.0;" x1="417.5" x2="439.5" y1="247.9766" y2="247.9766"/><text fill="#000000" font-family="sans-serif" font-size="14" lengthAdjust="spacing" textLength="12" x="422.5" y="263.5117">   </text><line style="stroke:#000000;stroke-width:1.0;" x1="417.5" x2="439.5" y1="268.4648" y2="268.4648"/><text fill="#000000" font-family="sans-serif" font-size="14" lengthAdjust="spacing" textLength="12" x="422.5" y="284">   </text><line style="stroke:#000000;stroke-width:1.0;" x1="417.5" x2="439.5" y1="288.9531" y2="288.9531"/><text fill="#000000" font-family="sans-serif" font-size="14" lengthAdjust="spacing" textLength="12" x="422.5" y="304.4883">   </text><line style="stroke:#000000;stroke-width:1.0;" x1="417.5" x2="439.5" y1="309.4414" y2="309.4414"/><text fill="#000000" font-family="sans-serif" font-size="14" lengthAdjust="spacing" textLength="12" x="422.5" y="324.9766">   </text><line style="stroke:#000000;stroke-width:1.0;" x1="417.5" x2="439.5" y1="329.9297" y2="329.9297"/><text fill="#000000" font-family="sans-serif" font-size="14" lengthAdjust="spacing" textLength="12" x="422.5" y="345.4648">   </text><rect fill="none" height="143.418" rx="5" ry="5" style="stroke:#000000;stroke-width:1.5;" width="22" x="417.5" y="207"/><rect fill="#F1F1F1" height="61.4648" rx="5" ry="5" style="stroke:#F1F1F1;stroke-width:1.5;" width="271" x="570" y="10"/><text fill="#000000" font-family="sans-serif" font-size="14" font-weight="bold" lengthAdjust="spacing" textLength="78" x="575" y="25.5352">field_value</text><text fill="#000000" font-family="sans-serif" font-size="14" lengthAdjust="spacing" textLength="9" x="679" y="25.5352">6</text><line style="stroke:#000000;stroke-width:1.0;" x1="674" x2="674" y1="10" y2="30.4883"/><line style="stroke:#000000;stroke-width:1.0;" x1="570" x2="841" y1="30.4883" y2="30.4883"/><text fill="#000000" font-family="sans-serif" font-size="14" font-weight="bold" lengthAdjust="spacing" textLength="74" x="575" y="46.0234">row_count</text><text fill="#000000" font-family="sans-serif" font-size="14" lengthAdjust="spacing" textLength="45" x="679" y="46.0234">30107</text><line style="stroke:#000000;stroke-width:1.0;" x1="674" x2="674" y1="30.4883" y2="50.9766"/><line style="stroke:#000000;stroke-width:1.0;" x1="570" x2="841" y1="50.9766" y2="50.9766"/><text fill="#000000" font-family="sans-serif" font-size="14" font-weight="bold" lengthAdjust="spacing" textLength="94" x="575" y="66.5117">ratio_percent</text><text fill="#000000" font-family="sans-serif" font-size="14" lengthAdjust="spacing" textLength="157" x="679" y="66.5117">44.848132755358925</text><line style="stroke:#000000;stroke-width:1.0;" x1="674" x2="674" y1="50.9766" y2="71.4648"/><rect fill="none" height="61.4648" rx="5" ry="5" style="stroke:#000000;stroke-width:1.5;" width="271" x="570" y="10"/><rect fill="#F1F1F1" height="61.4648" rx="5" ry="5" style="stroke:#F1F1F1;stroke-width:1.5;" width="271" x="570" y="89"/><text fill="#000000" font-family="sans-serif" font-size="14" font-weight="bold" lengthAdjust="spacing" textLength="78" x="575" y="104.5352">field_value</text><text fill="#000000" font-family="sans-serif" font-size="14" lengthAdjust="spacing" textLength="9" x="679" y="104.5352">7</text><line style="stroke:#000000;stroke-width:1.0;" x1="674" x2="674" y1="89" y2="109.4883"/><line style="stroke:#000000;stroke-width:1.0;" x1="570" x2="841" y1="109.4883" y2="109.4883"/><text fill="#000000" font-family="sans-serif" font-size="14" font-weight="bold" lengthAdjust="spacing" textLength="74" x="575" y="125.0234">row_count</text><text fill="#000000" font-family="sans-serif" font-size="14" lengthAdjust="spacing" textLength="45" x="679" y="125.0234">18554</text><line style="stroke:#000000;stroke-width:1.0;" x1="674" x2="674" y1="109.4883" y2="129.9766"/><line style="stroke:#000000;stroke-width:1.0;" x1="570" x2="841" y1="129.9766" y2="129.9766"/><text fill="#000000" font-family="sans-serif" font-size="14" font-weight="bold" lengthAdjust="spacing" textLength="94" x="575" y="145.5117">ratio_percent</text><text fill="#000000" font-family="sans-serif" font-size="14" lengthAdjust="spacing" textLength="157" x="679" y="145.5117">27.638497862388466</text><line style="stroke:#000000;stroke-width:1.0;" x1="674" x2="674" y1="129.9766" y2="150.4648"/><rect fill="none" height="61.4648" rx="5" ry="5" style="stroke:#000000;stroke-width:1.5;" width="271" x="570" y="89"/><rect fill="#F1F1F1" height="61.4648" rx="5" ry="5" style="stroke:#F1F1F1;stroke-width:1.5;" width="271" x="570" y="168"/><text fill="#000000" font-family="sans-serif" font-size="14" font-weight="bold" lengthAdjust="spacing" textLength="78" x="575" y="183.5352">field_value</text><text fill="#000000" font-family="sans-serif" font-size="14" lengthAdjust="spacing" textLength="9" x="679" y="183.5352">1</text><line style="stroke:#000000;stroke-width:1.0;" x1="674" x2="674" y1="168" y2="188.4883"/><line style="stroke:#000000;stroke-width:1.0;" x1="570" x2="841" y1="188.4883" y2="188.4883"/><text fill="#000000" font-family="sans-serif" font-size="14" font-weight="bold" lengthAdjust="spacing" textLength="74" x="575" y="204.0234">row_count</text><text fill="#000000" font-family="sans-serif" font-size="14" lengthAdjust="spacing" textLength="36" x="679" y="204.0234">9567</text><line style="stroke:#000000;stroke-width:1.0;" x1="674" x2="674" y1="188.4883" y2="208.9766"/><line style="stroke:#000000;stroke-width:1.0;" x1="570" x2="841" y1="208.9766" y2="208.9766"/><text fill="#000000" font-family="sans-serif" font-size="14" font-weight="bold" lengthAdjust="spacing" textLength="94" x="575" y="224.5117">ratio_percent</text><text fill="#000000" font-family="sans-serif" font-size="14" lengthAdjust="spacing" textLength="157" x="679" y="224.5117">14.251240112615632</text><line style="stroke:#000000;stroke-width:1.0;" x1="674" x2="674" y1="208.9766" y2="229.4648"/><rect fill="none" height="61.4648" rx="5" ry="5" style="stroke:#000000;stroke-width:1.5;" width="271" x="570" y="168"/><rect fill="#F1F1F1" height="61.4648" rx="5" ry="5" style="stroke:#F1F1F1;stroke-width:1.5;" width="262" x="574.5" y="247"/><text fill="#000000" font-family="sans-serif" font-size="14" font-weight="bold" lengthAdjust="spacing" textLength="78" x="579.5" y="262.5352">field_value</text><text fill="#000000" font-family="sans-serif" font-size="14" lengthAdjust="spacing" textLength="9" x="683.5" y="262.5352">2</text><line style="stroke:#000000;stroke-width:1.0;" x1="678.5" x2="678.5" y1="247" y2="267.4883"/><line style="stroke:#000000;stroke-width:1.0;" x1="574.5" x2="836.5" y1="267.4883" y2="267.4883"/><text fill="#000000" font-family="sans-serif" font-size="14" font-weight="bold" lengthAdjust="spacing" textLength="74" x="579.5" y="283.0234">row_count</text><text fill="#000000" font-family="sans-serif" font-size="14" lengthAdjust="spacing" textLength="36" x="683.5" y="283.0234">5923</text><line style="stroke:#000000;stroke-width:1.0;" x1="678.5" x2="678.5" y1="267.4883" y2="287.9766"/><line style="stroke:#000000;stroke-width:1.0;" x1="574.5" x2="836.5" y1="287.9766" y2="287.9766"/><text fill="#000000" font-family="sans-serif" font-size="14" font-weight="bold" lengthAdjust="spacing" textLength="94" x="579.5" y="303.5117">ratio_percent</text><text fill="#000000" font-family="sans-serif" font-size="14" lengthAdjust="spacing" textLength="148" x="683.5" y="303.5117">8.823047474341214</text><line style="stroke:#000000;stroke-width:1.0;" x1="678.5" x2="678.5" y1="287.9766" y2="308.4648"/><rect fill="none" height="61.4648" rx="5" ry="5" style="stroke:#000000;stroke-width:1.5;" width="262" x="574.5" y="247"/><rect fill="#F1F1F1" height="61.4648" rx="5" ry="5" style="stroke:#F1F1F1;stroke-width:1.5;" width="271" x="570" y="326"/><text fill="#000000" font-family="sans-serif" font-size="14" font-weight="bold" lengthAdjust="spacing" textLength="78" x="575" y="341.5352">field_value</text><text fill="#000000" font-family="sans-serif" font-size="14" lengthAdjust="spacing" textLength="9" x="679" y="341.5352">3</text><line style="stroke:#000000;stroke-width:1.0;" x1="674" x2="674" y1="326" y2="346.4883"/><line style="stroke:#000000;stroke-width:1.0;" x1="570" x2="841" y1="346.4883" y2="346.4883"/><text fill="#000000" font-family="sans-serif" font-size="14" font-weight="bold" lengthAdjust="spacing" textLength="74" x="575" y="362.0234">row_count</text><text fill="#000000" font-family="sans-serif" font-size="14" lengthAdjust="spacing" textLength="36" x="679" y="362.0234">1490</text><line style="stroke:#000000;stroke-width:1.0;" x1="674" x2="674" y1="346.4883" y2="366.9766"/><line style="stroke:#000000;stroke-width:1.0;" x1="570" x2="841" y1="366.9766" y2="366.9766"/><text fill="#000000" font-family="sans-serif" font-size="14" font-weight="bold" lengthAdjust="spacing" textLength="94" x="575" y="382.5117">ratio_percent</text><text fill="#000000" font-family="sans-serif" font-size="14" lengthAdjust="spacing" textLength="157" x="679" y="382.5117">2.2195408976478825</text><line style="stroke:#000000;stroke-width:1.0;" x1="674" x2="674" y1="366.9766" y2="387.4648"/><rect fill="none" height="61.4648" rx="5" ry="5" style="stroke:#000000;stroke-width:1.5;" width="271" x="570" y="326"/><rect fill="#F1F1F1" height="61.4648" rx="5" ry="5" style="stroke:#F1F1F1;stroke-width:1.5;" width="262" x="574.5" y="405"/><text fill="#000000" font-family="sans-serif" font-size="14" font-weight="bold" lengthAdjust="spacing" textLength="78" x="579.5" y="420.5352">field_value</text><text fill="#000000" font-family="sans-serif" font-size="14" lengthAdjust="spacing" textLength="9" x="683.5" y="420.5352">4</text><line style="stroke:#000000;stroke-width:1.0;" x1="678.5" x2="678.5" y1="405" y2="425.4883"/><line style="stroke:#000000;stroke-width:1.0;" x1="574.5" x2="836.5" y1="425.4883" y2="425.4883"/><text fill="#000000" font-family="sans-serif" font-size="14" font-weight="bold" lengthAdjust="spacing" textLength="74" x="579.5" y="441.0234">row_count</text><text fill="#000000" font-family="sans-serif" font-size="14" lengthAdjust="spacing" textLength="27" x="683.5" y="441.0234">816</text><line style="stroke:#000000;stroke-width:1.0;" x1="678.5" x2="678.5" y1="425.4883" y2="445.9766"/><line style="stroke:#000000;stroke-width:1.0;" x1="574.5" x2="836.5" y1="445.9766" y2="445.9766"/><text fill="#000000" font-family="sans-serif" font-size="14" font-weight="bold" lengthAdjust="spacing" textLength="94" x="579.5" y="461.5117">ratio_percent</text><text fill="#000000" font-family="sans-serif" font-size="14" lengthAdjust="spacing" textLength="148" x="683.5" y="461.5117">1.215533807034008</text><line style="stroke:#000000;stroke-width:1.0;" x1="678.5" x2="678.5" y1="445.9766" y2="466.4648"/><rect fill="none" height="61.4648" rx="5" ry="5" style="stroke:#000000;stroke-width:1.5;" width="262" x="574.5" y="405"/><rect fill="#F1F1F1" height="61.4648" rx="5" ry="5" style="stroke:#F1F1F1;stroke-width:1.5;" width="271" x="570" y="484"/><text fill="#000000" font-family="sans-serif" font-size="14" font-weight="bold" lengthAdjust="spacing" textLength="78" x="575" y="499.5352">field_value</text><text fill="#000000" font-family="sans-serif" font-size="14" lengthAdjust="spacing" textLength="9" x="679" y="499.5352">5</text><line style="stroke:#000000;stroke-width:1.0;" x1="674" x2="674" y1="484" y2="504.4883"/><line style="stroke:#000000;stroke-width:1.0;" x1="570" x2="841" y1="504.4883" y2="504.4883"/><text fill="#000000" font-family="sans-serif" font-size="14" font-weight="bold" lengthAdjust="spacing" textLength="74" x="575" y="520.0234">row_count</text><text fill="#000000" font-family="sans-serif" font-size="14" lengthAdjust="spacing" textLength="27" x="679" y="520.0234">674</text><line style="stroke:#000000;stroke-width:1.0;" x1="674" x2="674" y1="504.4883" y2="524.9766"/><line style="stroke:#000000;stroke-width:1.0;" x1="570" x2="841" y1="524.9766" y2="524.9766"/><text fill="#000000" font-family="sans-serif" font-size="14" font-weight="bold" lengthAdjust="spacing" textLength="94" x="575" y="540.5117">ratio_percent</text><text fill="#000000" font-family="sans-serif" font-size="14" lengthAdjust="spacing" textLength="157" x="679" y="540.5117">1.0040070906138743</text><line style="stroke:#000000;stroke-width:1.0;" x1="674" x2="674" y1="524.9766" y2="545.4648"/><rect fill="none" height="61.4648" rx="5" ry="5" style="stroke:#000000;stroke-width:1.5;" width="271" x="570" y="484"/><path d="M277,212.5 L290,212.5 C307.1673,212.5 309.7433,204.0167 326,198.5 C333.143,196.076 340.6039,193.6681 348.1032,191.3319 " fill="none" style="stroke:#000000;stroke-width:1.0;stroke-dasharray:3.0,3.0;"/><path d="M349.0273,194.3327 L350.3537,190.6389 L347.1791,188.3312 L355.605,189.0217 L349.0273,194.3327 " fill="#000000" style="stroke:#000000;stroke-width:1.0;"/><ellipse cx="277" cy="212.5" fill="#000000" rx="3" ry="3" style="stroke:#000000;stroke-width:1.0;"/><path d="M430,216.5 L443,216.5 C484.2281,216.5 503.4477,226.1823 534,198.5 C574.9478,161.3987 530.6839,118.3263 570,79.5 C571.2341,78.2813 572.5037,77.1002 573.806,75.9556 " fill="none" style="stroke:#000000;stroke-width:1.0;stroke-dasharray:3.0,3.0;"/><path d="M575.7215,78.3196 L575.579,74.519 L571.8905,73.5916 L579.7161,71.167 L575.7215,78.3196 " fill="#000000" style="stroke:#000000;stroke-width:1.0;"/><ellipse cx="430" cy="216.5" fill="#000000" rx="3" ry="3" style="stroke:#000000;stroke-width:1.0;"/><path d="M430,236.5 L443,236.5 C486.8291,236.5 498.0875,223.6253 534,198.5 C553.3283,184.9774 549.973,171.9645 570,159.5 C573.3513,157.4142 576.8171,155.4323 580.3694,153.5497 " fill="none" style="stroke:#000000;stroke-width:1.0;stroke-dasharray:3.0,3.0;"/><path d="M581.7692,156.322 L582.4486,152.4998 L578.9696,150.7773 L587.3002,150.0501 L581.7692,156.322 " fill="#000000" style="stroke:#000000;stroke-width:1.0;"/><ellipse cx="430" cy="236.5" fill="#000000" rx="3" ry="3" style="stroke:#000000;stroke-width:1.0;"/><path d="M430,257.5 L443,257.5 C470.8886,257.5 529.9253,244.6162 584.9091,230.8898 " fill="none" style="stroke:#000000;stroke-width:1.0;stroke-dasharray:3.0,3.0;"/><path d="M585.6503,233.8411 L587.1226,230.3339 L584.168,227.9385 L592.2874,229.0369 L585.6503,233.8411 " fill="#000000" style="stroke:#000000;stroke-width:1.0;"/><ellipse cx="430" cy="257.5" fill="#000000" rx="3" ry="3" style="stroke:#000000;stroke-width:1.0;"/><path d="M430,277.5 L443,277.5 C483.1912,277.5 526.8505,277.5 566.7958,277.5 " fill="none" style="stroke:#000000;stroke-width:1.0;stroke-dasharray:3.0,3.0;"/><path d="M566.7958,280.675 L569.177,277.5 L566.7958,274.325 L574.7332,277.5 L566.7958,280.675 " fill="#000000" style="stroke:#000000;stroke-width:1.0;"/><ellipse cx="430" cy="277.5" fill="#000000" rx="3" ry="3" style="stroke:#000000;stroke-width:1.0;"/><path d="M430,298.5 L443,298.5 C470.5316,298.5 528.4889,310.8633 582.9086,324.1738 " fill="none" style="stroke:#000000;stroke-width:1.0;stroke-dasharray:3.0,3.0;"/><path d="M582.1896,327.096 L585.1002,324.7131 L583.6276,321.2516 L590.2141,325.9713 L582.1896,327.096 " fill="#000000" style="stroke:#000000;stroke-width:1.0;"/><ellipse cx="430" cy="298.5" fill="#000000" rx="3" ry="3" style="stroke:#000000;stroke-width:1.0;"/><path d="M430,319.5 L443,319.5 C509.0086,319.5 509.5449,369.9987 570,396.5 C574.5787,398.5071 579.2893,400.4428 584.0815,402.3056 " fill="none" style="stroke:#000000;stroke-width:1.0;stroke-dasharray:3.0,3.0;"/><path d="M583.0107,405.1351 L586.2036,403.1087 L585.1523,399.4762 L591.1551,404.9826 L583.0107,405.1351 " fill="#000000" style="stroke:#000000;stroke-width:1.0;"/><ellipse cx="430" cy="319.5" fill="#000000" rx="3" ry="3" style="stroke:#000000;stroke-width:1.0;"/><path d="M430,339.5 L443,339.5 C525.7013,339.5 499.5132,432.2436 570,475.5 C572.7485,477.1867 575.5732,478.8033 578.4587,480.3523 " fill="none" style="stroke:#000000;stroke-width:1.0;stroke-dasharray:3.0,3.0;"/><path d="M577.0614,483.0869 L580.5096,481.4003 L579.8561,477.6178 L585.2951,483.8457 L577.0614,483.0869 " fill="#000000" style="stroke:#000000;stroke-width:1.0;"/><ellipse cx="430" cy="339.5" fill="#000000" rx="3" ry="3" style="stroke:#000000;stroke-width:1.0;"/><path d="M277,233.5 L290,233.5 C335.2489,233.5 384.9316,255.3513 410.8967,268.6002 " fill="none" style="stroke:#000000;stroke-width:1.0;stroke-dasharray:3.0,3.0;"/><path d="M409.4396,271.3877 L412.9873,269.693 L412.3538,265.8127 L417.8655,272.2429 L409.4396,271.3877 " fill="#000000" style="stroke:#000000;stroke-width:1.0;"/><ellipse cx="277" cy="233.5" fill="#000000" rx="3" ry="3" style="stroke:#000000;stroke-width:1.0;"/><!--MD5=[b3fc8a286dd540902c7cec8ae8a15060]
@startjson
{
    "field1": "OperationSequence",
    "combination": "OperationSequence",
    "null_distribution": {
        "total_null_rows": 0,
        "total_not_null_rows": 67131
    },
    "data_distribution": [
        {
            "field_value": "6",
            "row_count": 30107,
            "ratio_percent": 44.848132755358925
        },
        {
            "field_value": "7",
            "row_count": 18554,
            "ratio_percent": 27.638497862388466
        },
        {
            "field_value": "1",
            "row_count": 9567,
            "ratio_percent": 14.251240112615632
        },
        {
            "field_value": "2",
            "row_count": 5923,
            "ratio_percent": 8.823047474341214
        },
        {
            "field_value": "3",
            "row_count": 1490,
            "ratio_percent": 2.2195408976478825
        },
        {
            "field_value": "4",
            "row_count": 816,
            "ratio_percent": 1.215533807034008
        },
        {
            "field_value": "5",
            "row_count": 674,
            "ratio_percent": 1.0040070906138743
        }
    ]
}
@endjson

PlantUML version 1.2022.5(Sat Apr 30 06:55:52 EDT 2022)
(GPL source distribution)
Java Runtime: OpenJDK Runtime Environment
JVM: OpenJDK 64-Bit Server VM
Default Encoding: UTF-8
Language: en
Country: CA
--></g></svg>