<?xml version="1.0" encoding="UTF-8" standalone="no"?><svg xmlns="http://www.w3.org/2000/svg" xmlns:xlink="http://www.w3.org/1999/xlink" contentStyleType="text/css" height="794px" preserveAspectRatio="none" style="width:897px;height:794px;background:#FFFFFF;" version="1.1" viewBox="0 0 897 794" width="897px" zoomAndPan="magnify"><defs/><g><rect fill="#F1F1F1" height="81.9531" rx="5" ry="5" style="stroke:#F1F1F1;stroke-width:1.5;" width="174" x="10" y="264.5"/><text fill="#000000" font-family="sans-serif" font-size="14" font-weight="bold" lengthAdjust="spacing" textLength="42" x="15" y="280.0352">field1</text><text fill="#000000" font-family="sans-serif" font-size="14" lengthAdjust="spacing" textLength="30" x="149" y="280.0352">Title</text><line style="stroke:#000000;stroke-width:1.0;" x1="144" x2="144" y1="264.5" y2="284.9883"/><line style="stroke:#000000;stroke-width:1.0;" x1="10" x2="184" y1="284.9883" y2="284.9883"/><text fill="#000000" font-family="sans-serif" font-size="14" font-weight="bold" lengthAdjust="spacing" textLength="90" x="15" y="300.5234">combination</text><text fill="#000000" font-family="sans-serif" font-size="14" lengthAdjust="spacing" textLength="30" x="149" y="300.5234">Title</text><line style="stroke:#000000;stroke-width:1.0;" x1="144" x2="144" y1="284.9883" y2="305.4766"/><line style="stroke:#000000;stroke-width:1.0;" x1="10" x2="184" y1="305.4766" y2="305.4766"/><text fill="#000000" font-family="sans-serif" font-size="14" font-weight="bold" lengthAdjust="spacing" textLength="121" x="15" y="321.0117">null_distribution</text><text fill="#000000" font-family="sans-serif" font-size="14" lengthAdjust="spacing" textLength="12" x="149" y="321.0117">   </text><line style="stroke:#000000;stroke-width:1.0;" x1="144" x2="144" y1="305.4766" y2="325.9648"/><line style="stroke:#000000;stroke-width:1.0;" x1="10" x2="184" y1="325.9648" y2="325.9648"/><text fill="#000000" font-family="sans-serif" font-size="14" font-weight="bold" lengthAdjust="spacing" textLength="124" x="15" y="341.5">data_distribution</text><text fill="#000000" font-family="sans-serif" font-size="14" lengthAdjust="spacing" textLength="12" x="149" y="341.5">   </text><line style="stroke:#000000;stroke-width:1.0;" x1="144" x2="144" y1="325.9648" y2="346.4531"/><rect fill="none" height="81.9531" rx="5" ry="5" style="stroke:#000000;stroke-width:1.5;" width="174" x="10" y="264.5"/><rect fill="#F1F1F1" height="40.9766" rx="5" ry="5" style="stroke:#F1F1F1;stroke-width:1.5;" width="180" x="221" y="235"/><text fill="#000000" font-family="sans-serif" font-size="14" font-weight="bold" lengthAdjust="spacing" textLength="111" x="226" y="250.5352">total_null_rows</text><text fill="#000000" font-family="sans-serif" font-size="14" lengthAdjust="spacing" textLength="9" x="378" y="250.5352">0</text><line style="stroke:#000000;stroke-width:1.0;" x1="373" x2="373" y1="235" y2="255.4883"/><line style="stroke:#000000;stroke-width:1.0;" x1="221" x2="401" y1="255.4883" y2="255.4883"/><text fill="#000000" font-family="sans-serif" font-size="14" font-weight="bold" lengthAdjust="spacing" textLength="142" x="226" y="271.0234">total_not_null_rows</text><text fill="#000000" font-family="sans-serif" font-size="14" lengthAdjust="spacing" textLength="18" x="378" y="271.0234">13</text><line style="stroke:#000000;stroke-width:1.0;" x1="373" x2="373" y1="255.4883" y2="275.9766"/><rect fill="none" height="40.9766" rx="5" ry="5" style="stroke:#000000;stroke-width:1.5;" width="180" x="221" y="235"/><rect fill="#F1F1F1" height="204.8828" rx="5" ry="5" style="stroke:#F1F1F1;stroke-width:1.5;" width="22" x="299" y="294"/><text fill="#000000" font-family="sans-serif" font-size="14" lengthAdjust="spacing" textLength="12" x="304" y="309.5352">   </text><line style="stroke:#000000;stroke-width:1.0;" x1="299" x2="321" y1="314.4883" y2="314.4883"/><text fill="#000000" font-family="sans-serif" font-size="14" lengthAdjust="spacing" textLength="12" x="304" y="330.0234">   </text><line style="stroke:#000000;stroke-width:1.0;" x1="299" x2="321" y1="334.9766" y2="334.9766"/><text fill="#000000" font-family="sans-serif" font-size="14" lengthAdjust="spacing" textLength="12" x="304" y="350.5117">   </text><line style="stroke:#000000;stroke-width:1.0;" x1="299" x2="321" y1="355.4648" y2="355.4648"/><text fill="#000000" font-family="sans-serif" font-size="14" lengthAdjust="spacing" textLength="12" x="304" y="371">   </text><line style="stroke:#000000;stroke-width:1.0;" x1="299" x2="321" y1="375.9531" y2="375.9531"/><text fill="#000000" font-family="sans-serif" font-size="14" lengthAdjust="spacing" textLength="12" x="304" y="391.4883">   </text><line style="stroke:#000000;stroke-width:1.0;" x1="299" x2="321" y1="396.4414" y2="396.4414"/><text fill="#000000" font-family="sans-serif" font-size="14" lengthAdjust="spacing" textLength="12" x="304" y="411.9766">   </text><line style="stroke:#000000;stroke-width:1.0;" x1="299" x2="321" y1="416.9297" y2="416.9297"/><text fill="#000000" font-family="sans-serif" font-size="14" lengthAdjust="spacing" textLength="12" x="304" y="432.4648">   </text><line style="stroke:#000000;stroke-width:1.0;" x1="299" x2="321" y1="437.418" y2="437.418"/><text fill="#000000" font-family="sans-serif" font-size="14" lengthAdjust="spacing" textLength="12" x="304" y="452.9531">   </text><line style="stroke:#000000;stroke-width:1.0;" x1="299" x2="321" y1="457.9063" y2="457.9063"/><text fill="#000000" font-family="sans-serif" font-size="14" lengthAdjust="spacing" textLength="12" x="304" y="473.4414">   </text><line style="stroke:#000000;stroke-width:1.0;" x1="299" x2="321" y1="478.3945" y2="478.3945"/><text fill="#000000" font-family="sans-serif" font-size="14" lengthAdjust="spacing" textLength="12" x="304" y="493.9297">   </text><rect fill="none" height="204.8828" rx="5" ry="5" style="stroke:#000000;stroke-width:1.5;" width="22" x="299" y="294"/><rect fill="#F1F1F1" height="61.4648" rx="5" ry="5" style="stroke:#F1F1F1;stroke-width:1.5;" width="316" x="503.5" y="10"/><text fill="#000000" font-family="sans-serif" font-size="14" font-weight="bold" lengthAdjust="spacing" textLength="78" x="508.5" y="25.5352">field_value</text><text fill="#000000" font-family="sans-serif" font-size="14" lengthAdjust="spacing" textLength="202" x="612.5" y="25.5352">Repair and Service Guidelines</text><line style="stroke:#000000;stroke-width:1.0;" x1="607.5" x2="607.5" y1="10" y2="30.4883"/><line style="stroke:#000000;stroke-width:1.0;" x1="503.5" x2="819.5" y1="30.4883" y2="30.4883"/><text fill="#000000" font-family="sans-serif" font-size="14" font-weight="bold" lengthAdjust="spacing" textLength="74" x="508.5" y="46.0234">row_count</text><text fill="#000000" font-family="sans-serif" font-size="14" lengthAdjust="spacing" textLength="9" x="612.5" y="46.0234">1</text><line style="stroke:#000000;stroke-width:1.0;" x1="607.5" x2="607.5" y1="30.4883" y2="50.9766"/><line style="stroke:#000000;stroke-width:1.0;" x1="503.5" x2="819.5" y1="50.9766" y2="50.9766"/><text fill="#000000" font-family="sans-serif" font-size="14" font-weight="bold" lengthAdjust="spacing" textLength="94" x="508.5" y="66.5117">ratio_percent</text><text fill="#000000" font-family="sans-serif" font-size="14" lengthAdjust="spacing" textLength="157" x="612.5" y="66.5117">7.6923076923076925</text><line style="stroke:#000000;stroke-width:1.0;" x1="607.5" x2="607.5" y1="50.9766" y2="71.4648"/><rect fill="none" height="61.4648" rx="5" ry="5" style="stroke:#000000;stroke-width:1.5;" width="316" x="503.5" y="10"/><rect fill="#F1F1F1" height="61.4648" rx="5" ry="5" style="stroke:#F1F1F1;stroke-width:1.5;" width="271" x="526" y="89"/><text fill="#000000" font-family="sans-serif" font-size="14" font-weight="bold" lengthAdjust="spacing" textLength="78" x="531" y="104.5352">field_value</text><text fill="#000000" font-family="sans-serif" font-size="14" lengthAdjust="spacing" textLength="62" x="635" y="104.5352">Overview</text><line style="stroke:#000000;stroke-width:1.0;" x1="630" x2="630" y1="89" y2="109.4883"/><line style="stroke:#000000;stroke-width:1.0;" x1="526" x2="797" y1="109.4883" y2="109.4883"/><text fill="#000000" font-family="sans-serif" font-size="14" font-weight="bold" lengthAdjust="spacing" textLength="74" x="531" y="125.0234">row_count</text><text fill="#000000" font-family="sans-serif" font-size="14" lengthAdjust="spacing" textLength="9" x="635" y="125.0234">1</text><line style="stroke:#000000;stroke-width:1.0;" x1="630" x2="630" y1="109.4883" y2="129.9766"/><line style="stroke:#000000;stroke-width:1.0;" x1="526" x2="797" y1="129.9766" y2="129.9766"/><text fill="#000000" font-family="sans-serif" font-size="14" font-weight="bold" lengthAdjust="spacing" textLength="94" x="531" y="145.5117">ratio_percent</text><text fill="#000000" font-family="sans-serif" font-size="14" lengthAdjust="spacing" textLength="157" x="635" y="145.5117">7.6923076923076925</text><line style="stroke:#000000;stroke-width:1.0;" x1="630" x2="630" y1="129.9766" y2="150.4648"/><rect fill="none" height="61.4648" rx="5" ry="5" style="stroke:#000000;stroke-width:1.5;" width="271" x="526" y="89"/><rect fill="#F1F1F1" height="61.4648" rx="5" ry="5" style="stroke:#F1F1F1;stroke-width:1.5;" width="271" x="526" y="168"/><text fill="#000000" font-family="sans-serif" font-size="14" font-weight="bold" lengthAdjust="spacing" textLength="78" x="531" y="183.5352">field_value</text><text fill="#000000" font-family="sans-serif" font-size="14" lengthAdjust="spacing" textLength="87" x="635" y="183.5352">Maintenance</text><line style="stroke:#000000;stroke-width:1.0;" x1="630" x2="630" y1="168" y2="188.4883"/><line style="stroke:#000000;stroke-width:1.0;" x1="526" x2="797" y1="188.4883" y2="188.4883"/><text fill="#000000" font-family="sans-serif" font-size="14" font-weight="bold" lengthAdjust="spacing" textLength="74" x="531" y="204.0234">row_count</text><text fill="#000000" font-family="sans-serif" font-size="14" lengthAdjust="spacing" textLength="9" x="635" y="204.0234">1</text><line style="stroke:#000000;stroke-width:1.0;" x1="630" x2="630" y1="188.4883" y2="208.9766"/><line style="stroke:#000000;stroke-width:1.0;" x1="526" x2="797" y1="208.9766" y2="208.9766"/><text fill="#000000" font-family="sans-serif" font-size="14" font-weight="bold" lengthAdjust="spacing" textLength="94" x="531" y="224.5117">ratio_percent</text><text fill="#000000" font-family="sans-serif" font-size="14" lengthAdjust="spacing" textLength="157" x="635" y="224.5117">7.6923076923076925</text><line style="stroke:#000000;stroke-width:1.0;" x1="630" x2="630" y1="208.9766" y2="229.4648"/><rect fill="none" height="61.4648" rx="5" ry="5" style="stroke:#000000;stroke-width:1.5;" width="271" x="526" y="168"/><rect fill="#F1F1F1" height="61.4648" rx="5" ry="5" style="stroke:#F1F1F1;stroke-width:1.5;" width="282" x="520.5" y="247"/><text fill="#000000" font-family="sans-serif" font-size="14" font-weight="bold" lengthAdjust="spacing" textLength="78" x="525.5" y="262.5352">field_value</text><text fill="#000000" font-family="sans-serif" font-size="14" lengthAdjust="spacing" textLength="168" x="629.5" y="262.5352">Lubrication Maintenance</text><line style="stroke:#000000;stroke-width:1.0;" x1="624.5" x2="624.5" y1="247" y2="267.4883"/><line style="stroke:#000000;stroke-width:1.0;" x1="520.5" x2="802.5" y1="267.4883" y2="267.4883"/><text fill="#000000" font-family="sans-serif" font-size="14" font-weight="bold" lengthAdjust="spacing" textLength="74" x="525.5" y="283.0234">row_count</text><text fill="#000000" font-family="sans-serif" font-size="14" lengthAdjust="spacing" textLength="9" x="629.5" y="283.0234">1</text><line style="stroke:#000000;stroke-width:1.0;" x1="624.5" x2="624.5" y1="267.4883" y2="287.9766"/><line style="stroke:#000000;stroke-width:1.0;" x1="520.5" x2="802.5" y1="287.9766" y2="287.9766"/><text fill="#000000" font-family="sans-serif" font-size="14" font-weight="bold" lengthAdjust="spacing" textLength="94" x="525.5" y="303.5117">ratio_percent</text><text fill="#000000" font-family="sans-serif" font-size="14" lengthAdjust="spacing" textLength="157" x="629.5" y="303.5117">7.6923076923076925</text><line style="stroke:#000000;stroke-width:1.0;" x1="624.5" x2="624.5" y1="287.9766" y2="308.4648"/><rect fill="none" height="61.4648" rx="5" ry="5" style="stroke:#000000;stroke-width:1.5;" width="282" x="520.5" y="247"/><rect fill="#F1F1F1" height="61.4648" rx="5" ry="5" style="stroke:#F1F1F1;stroke-width:1.5;" width="271" x="526" y="326"/><text fill="#000000" font-family="sans-serif" font-size="14" font-weight="bold" lengthAdjust="spacing" textLength="78" x="531" y="341.5352">field_value</text><text fill="#000000" font-family="sans-serif" font-size="14" lengthAdjust="spacing" textLength="98" x="635" y="341.5352">Introduction 1</text><line style="stroke:#000000;stroke-width:1.0;" x1="630" x2="630" y1="326" y2="346.4883"/><line style="stroke:#000000;stroke-width:1.0;" x1="526" x2="797" y1="346.4883" y2="346.4883"/><text fill="#000000" font-family="sans-serif" font-size="14" font-weight="bold" lengthAdjust="spacing" textLength="74" x="531" y="362.0234">row_count</text><text fill="#000000" font-family="sans-serif" font-size="14" lengthAdjust="spacing" textLength="9" x="635" y="362.0234">1</text><line style="stroke:#000000;stroke-width:1.0;" x1="630" x2="630" y1="346.4883" y2="366.9766"/><line style="stroke:#000000;stroke-width:1.0;" x1="526" x2="797" y1="366.9766" y2="366.9766"/><text fill="#000000" font-family="sans-serif" font-size="14" font-weight="bold" lengthAdjust="spacing" textLength="94" x="531" y="382.5117">ratio_percent</text><text fill="#000000" font-family="sans-serif" font-size="14" lengthAdjust="spacing" textLength="157" x="635" y="382.5117">7.6923076923076925</text><line style="stroke:#000000;stroke-width:1.0;" x1="630" x2="630" y1="366.9766" y2="387.4648"/><rect fill="none" height="61.4648" rx="5" ry="5" style="stroke:#000000;stroke-width:1.5;" width="271" x="526" y="326"/><rect fill="#F1F1F1" height="61.4648" rx="5" ry="5" style="stroke:#F1F1F1;stroke-width:1.5;" width="317" x="503" y="405"/><text fill="#000000" font-family="sans-serif" font-size="14" font-weight="bold" lengthAdjust="spacing" textLength="78" x="508" y="420.5352">field_value</text><text fill="#000000" font-family="sans-serif" font-size="14" lengthAdjust="spacing" textLength="203" x="612" y="420.5352">Installing Replacement Pedals</text><line style="stroke:#000000;stroke-width:1.0;" x1="607" x2="607" y1="405" y2="425.4883"/><line style="stroke:#000000;stroke-width:1.0;" x1="503" x2="820" y1="425.4883" y2="425.4883"/><text fill="#000000" font-family="sans-serif" font-size="14" font-weight="bold" lengthAdjust="spacing" textLength="74" x="508" y="441.0234">row_count</text><text fill="#000000" font-family="sans-serif" font-size="14" lengthAdjust="spacing" textLength="9" x="612" y="441.0234">1</text><line style="stroke:#000000;stroke-width:1.0;" x1="607" x2="607" y1="425.4883" y2="445.9766"/><line style="stroke:#000000;stroke-width:1.0;" x1="503" x2="820" y1="445.9766" y2="445.9766"/><text fill="#000000" font-family="sans-serif" font-size="14" font-weight="bold" lengthAdjust="spacing" textLength="94" x="508" y="461.5117">ratio_percent</text><text fill="#000000" font-family="sans-serif" font-size="14" lengthAdjust="spacing" textLength="157" x="612" y="461.5117">7.6923076923076925</text><line style="stroke:#000000;stroke-width:1.0;" x1="607" x2="607" y1="445.9766" y2="466.4648"/><rect fill="none" height="61.4648" rx="5" ry="5" style="stroke:#000000;stroke-width:1.5;" width="317" x="503" y="405"/><rect fill="#F1F1F1" height="61.4648" rx="5" ry="5" style="stroke:#F1F1F1;stroke-width:1.5;" width="350" x="486.5" y="484"/><text fill="#000000" font-family="sans-serif" font-size="14" font-weight="bold" lengthAdjust="spacing" textLength="78" x="491.5" y="499.5352">field_value</text><text fill="#000000" font-family="sans-serif" font-size="14" lengthAdjust="spacing" textLength="236" x="595.5" y="499.5352">Front Reflector Bracket Installation</text><line style="stroke:#000000;stroke-width:1.0;" x1="590.5" x2="590.5" y1="484" y2="504.4883"/><line style="stroke:#000000;stroke-width:1.0;" x1="486.5" x2="836.5" y1="504.4883" y2="504.4883"/><text fill="#000000" font-family="sans-serif" font-size="14" font-weight="bold" lengthAdjust="spacing" textLength="74" x="491.5" y="520.0234">row_count</text><text fill="#000000" font-family="sans-serif" font-size="14" lengthAdjust="spacing" textLength="9" x="595.5" y="520.0234">1</text><line style="stroke:#000000;stroke-width:1.0;" x1="590.5" x2="590.5" y1="504.4883" y2="524.9766"/><line style="stroke:#000000;stroke-width:1.0;" x1="486.5" x2="836.5" y1="524.9766" y2="524.9766"/><text fill="#000000" font-family="sans-serif" font-size="14" font-weight="bold" lengthAdjust="spacing" textLength="94" x="491.5" y="540.5117">ratio_percent</text><text fill="#000000" font-family="sans-serif" font-size="14" lengthAdjust="spacing" textLength="157" x="595.5" y="540.5117">7.6923076923076925</text><line style="stroke:#000000;stroke-width:1.0;" x1="590.5" x2="590.5" y1="524.9766" y2="545.4648"/><rect fill="none" height="61.4648" rx="5" ry="5" style="stroke:#000000;stroke-width:1.5;" width="350" x="486.5" y="484"/><rect fill="#F1F1F1" height="61.4648" rx="5" ry="5" style="stroke:#F1F1F1;stroke-width:1.5;" width="447" x="438" y="563"/><text fill="#000000" font-family="sans-serif" font-size="14" font-weight="bold" lengthAdjust="spacing" textLength="78" x="443" y="578.5352">field_value</text><text fill="#000000" font-family="sans-serif" font-size="14" lengthAdjust="spacing" textLength="333" x="547" y="578.5352">Front Reflector Bracket and Reflector Assembly 3</text><line style="stroke:#000000;stroke-width:1.0;" x1="542" x2="542" y1="563" y2="583.4883"/><line style="stroke:#000000;stroke-width:1.0;" x1="438" x2="885" y1="583.4883" y2="583.4883"/><text fill="#000000" font-family="sans-serif" font-size="14" font-weight="bold" lengthAdjust="spacing" textLength="74" x="443" y="599.0234">row_count</text><text fill="#000000" font-family="sans-serif" font-size="14" lengthAdjust="spacing" textLength="9" x="547" y="599.0234">1</text><line style="stroke:#000000;stroke-width:1.0;" x1="542" x2="542" y1="583.4883" y2="603.9766"/><line style="stroke:#000000;stroke-width:1.0;" x1="438" x2="885" y1="603.9766" y2="603.9766"/><text fill="#000000" font-family="sans-serif" font-size="14" font-weight="bold" lengthAdjust="spacing" textLength="94" x="443" y="619.5117">ratio_percent</text><text fill="#000000" font-family="sans-serif" font-size="14" lengthAdjust="spacing" textLength="157" x="547" y="619.5117">7.6923076923076925</text><line style="stroke:#000000;stroke-width:1.0;" x1="542" x2="542" y1="603.9766" y2="624.4648"/><rect fill="none" height="61.4648" rx="5" ry="5" style="stroke:#000000;stroke-width:1.5;" width="447" x="438" y="563"/><rect fill="#F1F1F1" height="61.4648" rx="5" ry="5" style="stroke:#F1F1F1;stroke-width:1.5;" width="271" x="526" y="642"/><text fill="#000000" font-family="sans-serif" font-size="14" font-weight="bold" lengthAdjust="spacing" textLength="78" x="531" y="657.5352">field_value</text><text fill="#000000" font-family="sans-serif" font-size="14" lengthAdjust="spacing" textLength="77" x="635" y="657.5352">Documents</text><line style="stroke:#000000;stroke-width:1.0;" x1="630" x2="630" y1="642" y2="662.4883"/><line style="stroke:#000000;stroke-width:1.0;" x1="526" x2="797" y1="662.4883" y2="662.4883"/><text fill="#000000" font-family="sans-serif" font-size="14" font-weight="bold" lengthAdjust="spacing" textLength="74" x="531" y="678.0234">row_count</text><text fill="#000000" font-family="sans-serif" font-size="14" lengthAdjust="spacing" textLength="9" x="635" y="678.0234">1</text><line style="stroke:#000000;stroke-width:1.0;" x1="630" x2="630" y1="662.4883" y2="682.9766"/><line style="stroke:#000000;stroke-width:1.0;" x1="526" x2="797" y1="682.9766" y2="682.9766"/><text fill="#000000" font-family="sans-serif" font-size="14" font-weight="bold" lengthAdjust="spacing" textLength="94" x="531" y="698.5117">ratio_percent</text><text fill="#000000" font-family="sans-serif" font-size="14" lengthAdjust="spacing" textLength="157" x="635" y="698.5117">7.6923076923076925</text><line style="stroke:#000000;stroke-width:1.0;" x1="630" x2="630" y1="682.9766" y2="703.4648"/><rect fill="none" height="61.4648" rx="5" ry="5" style="stroke:#000000;stroke-width:1.5;" width="271" x="526" y="642"/><rect fill="#F1F1F1" height="61.4648" rx="5" ry="5" style="stroke:#F1F1F1;stroke-width:1.5;" width="340" x="491.5" y="721"/><text fill="#000000" font-family="sans-serif" font-size="14" font-weight="bold" lengthAdjust="spacing" textLength="78" x="496.5" y="736.5352">field_value</text><text fill="#000000" font-family="sans-serif" font-size="14" lengthAdjust="spacing" textLength="226" x="600.5" y="736.5352">Crank Arm and Tire Maintenance</text><line style="stroke:#000000;stroke-width:1.0;" x1="595.5" x2="595.5" y1="721" y2="741.4883"/><line style="stroke:#000000;stroke-width:1.0;" x1="491.5" x2="831.5" y1="741.4883" y2="741.4883"/><text fill="#000000" font-family="sans-serif" font-size="14" font-weight="bold" lengthAdjust="spacing" textLength="74" x="496.5" y="757.0234">row_count</text><text fill="#000000" font-family="sans-serif" font-size="14" lengthAdjust="spacing" textLength="9" x="600.5" y="757.0234">1</text><line style="stroke:#000000;stroke-width:1.0;" x1="595.5" x2="595.5" y1="741.4883" y2="761.9766"/><line style="stroke:#000000;stroke-width:1.0;" x1="491.5" x2="831.5" y1="761.9766" y2="761.9766"/><text fill="#000000" font-family="sans-serif" font-size="14" font-weight="bold" lengthAdjust="spacing" textLength="94" x="496.5" y="777.5117">ratio_percent</text><text fill="#000000" font-family="sans-serif" font-size="14" lengthAdjust="spacing" textLength="157" x="600.5" y="777.5117">7.6923076923076925</text><line style="stroke:#000000;stroke-width:1.0;" x1="595.5" x2="595.5" y1="761.9766" y2="782.4648"/><rect fill="none" height="61.4648" rx="5" ry="5" style="stroke:#000000;stroke-width:1.5;" width="340" x="491.5" y="721"/><path d="M172,315.5 L185,315.5 C205.8273,315.5 202.8137,295.6507 221,285.5 C225.038,283.2462 229.2733,281.1247 233.6133,279.1338 " fill="none" style="stroke:#000000;stroke-width:1.0;stroke-dasharray:3.0,3.0;"/><path d="M234.8219,281.8909 L235.6812,278.2274 L232.4048,276.3766 L240.5062,276.1124 L234.8219,281.8909 " fill="#000000" style="stroke:#000000;stroke-width:1.0;"/><ellipse cx="172" cy="315.5" fill="#000000" rx="3" ry="3" style="stroke:#000000;stroke-width:1.0;"/><path d="M311.5,303.5 L324.5,303.5 C359.8613,303.5 377.6954,311.1847 402,285.5 C465.8819,217.9906 372.2835,145.2249 438,79.5 C454.2992,63.1987 474.8355,52.3198 496.8116,45.2344 " fill="none" style="stroke:#000000;stroke-width:1.0;stroke-dasharray:3.0,3.0;"/><path d="M497.6793,48.1073 L498.9663,44.5836 L495.9439,42.3615 L503.9938,43.0652 L497.6793,48.1073 " fill="#000000" style="stroke:#000000;stroke-width:1.0;"/><ellipse cx="311.5" cy="303.5" fill="#000000" rx="3" ry="3" style="stroke:#000000;stroke-width:1.0;"/><path d="M311.5,324.5 L324.5,324.5 C363.0599,324.5 377.4435,315.2295 402,285.5 C439.3625,240.267 394.4331,197.7925 438,158.5 C460.332,138.359 489.236,126.7739 518.7885,120.4293 " fill="none" style="stroke:#000000;stroke-width:1.0;stroke-dasharray:3.0,3.0;"/><path d="M519.3894,123.4388 L521.0456,119.9786 L518.1877,117.4198 L526.3122,118.9271 L519.3894,123.4388 " fill="#000000" style="stroke:#000000;stroke-width:1.0;"/><ellipse cx="311.5" cy="324.5" fill="#000000" rx="3" ry="3" style="stroke:#000000;stroke-width:1.0;"/><path d="M311.5,344.5 L324.5,344.5 C367.79,344.5 371.4995,316.2205 402,285.5 C420.7883,266.5762 415.269,251.4432 438,237.5 C462.2188,222.6441 490.5417,213.0685 518.7196,206.9756 " fill="none" style="stroke:#000000;stroke-width:1.0;stroke-dasharray:3.0,3.0;"/><path d="M519.3401,209.9946 L520.9839,206.5102 L518.0991,203.9566 L526.2672,205.4243 L519.3401,209.9946 " fill="#000000" style="stroke:#000000;stroke-width:1.0;"/><ellipse cx="311.5" cy="344.5" fill="#000000" rx="3" ry="3" style="stroke:#000000;stroke-width:1.0;"/><path d="M311.5,365.5 L324.5,365.5 C379.27,365.5 385.4981,333.0981 438,317.5 C462.1076,310.3377 488.0837,304.2579 513.4911,299.1667 " fill="none" style="stroke:#000000;stroke-width:1.0;stroke-dasharray:3.0,3.0;"/><path d="M514.0827,302.1688 L515.7426,298.7231 L512.8995,296.1647 L520.9962,297.6878 L514.0827,302.1688 " fill="#000000" style="stroke:#000000;stroke-width:1.0;"/><ellipse cx="311.5" cy="365.5" fill="#000000" rx="3" ry="3" style="stroke:#000000;stroke-width:1.0;"/><path d="M311.5,385.5 L324.5,385.5 C388.3229,385.5 458.7044,380.2576 518.5298,374.2306 " fill="none" style="stroke:#000000;stroke-width:1.0;stroke-dasharray:3.0,3.0;"/><path d="M518.8407,377.2774 L520.8149,373.9974 L518.2189,371.1838 L526.1467,373.4533 L518.8407,377.2774 " fill="#000000" style="stroke:#000000;stroke-width:1.0;"/><ellipse cx="311.5" cy="385.5" fill="#000000" rx="3" ry="3" style="stroke:#000000;stroke-width:1.0;"/><path d="M311.5,406.5 L324.5,406.5 C380.3626,406.5 441.2497,410.5163 495.6851,415.5595 " fill="none" style="stroke:#000000;stroke-width:1.0;stroke-dasharray:3.0,3.0;"/><path d="M495.3979,418.6143 L497.9763,415.775 L495.9724,412.5047 L503.3222,416.2776 L495.3979,418.6143 " fill="#000000" style="stroke:#000000;stroke-width:1.0;"/><ellipse cx="311.5" cy="406.5" fill="#000000" rx="3" ry="3" style="stroke:#000000;stroke-width:1.0;"/><path d="M311.5,427.5 L324.5,427.5 C379.27,427.5 385.4643,460.016 438,475.5 C451.4032,479.4504 465.3846,483.0557 479.5251,486.3356 " fill="none" style="stroke:#000000;stroke-width:1.0;stroke-dasharray:3.0,3.0;"/><path d="M478.8509,489.2984 L481.7472,486.8413 L480.1994,483.3729 L486.932,488.0212 L478.8509,489.2984 " fill="#000000" style="stroke:#000000;stroke-width:1.0;"/><ellipse cx="311.5" cy="427.5" fill="#000000" rx="3" ry="3" style="stroke:#000000;stroke-width:1.0;"/><path d="M311.5,447.5 L324.5,447.5 C393.8266,447.5 376.0199,523.4414 438,554.5 C441.7883,556.3984 445.6531,558.206 449.5811,559.9272 " fill="none" style="stroke:#000000;stroke-width:1.0;stroke-dasharray:3.0,3.0;"/><path d="M448.3788,562.7815 L451.7219,560.8289 L450.7834,557.0728 L456.717,562.9328 L448.3788,562.7815 " fill="#000000" style="stroke:#000000;stroke-width:1.0;"/><ellipse cx="311.5" cy="447.5" fill="#000000" rx="3" ry="3" style="stroke:#000000;stroke-width:1.0;"/><path d="M311.5,468.5 L324.5,468.5 C413.508,468.5 363.0975,585.4164 438,633.5 C462.0613,648.9461 490.4559,658.7629 518.7779,664.9024 " fill="none" style="stroke:#000000;stroke-width:1.0;stroke-dasharray:3.0,3.0;"/><path d="M518.1542,667.9375 L521.0542,665.3702 L519.4015,661.8673 L526.3657,666.4616 L518.1542,667.9375 " fill="#000000" style="stroke:#000000;stroke-width:1.0;"/><ellipse cx="311.5" cy="468.5" fill="#000000" rx="3" ry="3" style="stroke:#000000;stroke-width:1.0;"/><path d="M311.5,488.5 L324.5,488.5 C436.1062,488.5 348.3129,646.0758 438,712.5 C452.0252,722.8874 467.8946,730.8446 484.5464,736.9022 " fill="none" style="stroke:#000000;stroke-width:1.0;stroke-dasharray:3.0,3.0;"/><path d="M483.5539,739.7747 L486.7008,737.6466 L485.539,734.0297 L491.7277,739.3836 L483.5539,739.7747 " fill="#000000" style="stroke:#000000;stroke-width:1.0;"/><ellipse cx="311.5" cy="488.5" fill="#000000" rx="3" ry="3" style="stroke:#000000;stroke-width:1.0;"/><path d="M172,336.5 L185,336.5 C227.1629,336.5 270.1866,364.4055 293.2874,382.1547 " fill="none" style="stroke:#000000;stroke-width:1.0;stroke-dasharray:3.0,3.0;"/><path d="M291.4053,384.5427 L295.0784,383.5663 L295.1695,379.7667 L299.2574,386.86 L291.4053,384.5427 " fill="#000000" style="stroke:#000000;stroke-width:1.0;"/><ellipse cx="172" cy="336.5" fill="#000000" rx="3" ry="3" style="stroke:#000000;stroke-width:1.0;"/><!--MD5=[22a24e4faa07c9003827af4db277175a]
@startjson
{
    "field1": "Title",
    "combination": "Title",
    "null_distribution": {
        "total_null_rows": 0,
        "total_not_null_rows": 13
    },
    "data_distribution": [
        {
            "field_value": "Repair and Service Guidelines",
            "row_count": 1,
            "ratio_percent": 7.6923076923076925
        },
        {
            "field_value": "Overview",
            "row_count": 1,
            "ratio_percent": 7.6923076923076925
        },
        {
            "field_value": "Maintenance",
            "row_count": 1,
            "ratio_percent": 7.6923076923076925
        },
        {
            "field_value": "Lubrication Maintenance",
            "row_count": 1,
            "ratio_percent": 7.6923076923076925
        },
        {
            "field_value": "Introduction 1",
            "row_count": 1,
            "ratio_percent": 7.6923076923076925
        },
        {
            "field_value": "Installing Replacement Pedals",
            "row_count": 1,
            "ratio_percent": 7.6923076923076925
        },
        {
            "field_value": "Front Reflector Bracket Installation",
            "row_count": 1,
            "ratio_percent": 7.6923076923076925
        },
        {
            "field_value": "Front Reflector Bracket and Reflector Assembly 3",
            "row_count": 1,
            "ratio_percent": 7.6923076923076925
        },
        {
            "field_value": "Documents",
            "row_count": 1,
            "ratio_percent": 7.6923076923076925
        },
        {
            "field_value": "Crank Arm and Tire Maintenance",
            "row_count": 1,
            "ratio_percent": 7.6923076923076925
        }
    ]
}
@endjson

PlantUML version 1.2022.5(Sat Apr 30 06:55:52 EDT 2022)
(GPL source distribution)
Java Runtime: OpenJDK Runtime Environment
JVM: OpenJDK 64-Bit Server VM
Default Encoding: UTF-8
Language: en
Country: CA
--></g></svg>