<?xml version="1.0" encoding="UTF-8" standalone="no"?><svg xmlns="http://www.w3.org/2000/svg" xmlns:xlink="http://www.w3.org/1999/xlink" contentStyleType="text/css" height="241px" preserveAspectRatio="none" style="width:733px;height:241px;background:#FFFFFF;" version="1.1" viewBox="0 0 733 241" width="733px" zoomAndPan="magnify"><defs/><g><rect fill="#F1F1F1" height="81.9531" rx="5" ry="5" style="stroke:#F1F1F1;stroke-width:1.5;" width="186" x="10" y="24.5"/><text fill="#000000" font-family="sans-serif" font-size="14" font-weight="bold" lengthAdjust="spacing" textLength="42" x="15" y="40.0352">field1</text><text fill="#000000" font-family="sans-serif" font-size="14" lengthAdjust="spacing" textLength="42" x="149" y="40.0352">Status</text><line style="stroke:#000000;stroke-width:1.0;" x1="144" x2="144" y1="24.5" y2="44.9883"/><line style="stroke:#000000;stroke-width:1.0;" x1="10" x2="196" y1="44.9883" y2="44.9883"/><text fill="#000000" font-family="sans-serif" font-size="14" font-weight="bold" lengthAdjust="spacing" textLength="90" x="15" y="60.5234">combination</text><text fill="#000000" font-family="sans-serif" font-size="14" lengthAdjust="spacing" textLength="42" x="149" y="60.5234">Status</text><line style="stroke:#000000;stroke-width:1.0;" x1="144" x2="144" y1="44.9883" y2="65.4766"/><line style="stroke:#000000;stroke-width:1.0;" x1="10" x2="196" y1="65.4766" y2="65.4766"/><text fill="#000000" font-family="sans-serif" font-size="14" font-weight="bold" lengthAdjust="spacing" textLength="121" x="15" y="81.0117">null_distribution</text><text fill="#000000" font-family="sans-serif" font-size="14" lengthAdjust="spacing" textLength="12" x="149" y="81.0117">   </text><line style="stroke:#000000;stroke-width:1.0;" x1="144" x2="144" y1="65.4766" y2="85.9648"/><line style="stroke:#000000;stroke-width:1.0;" x1="10" x2="196" y1="85.9648" y2="85.9648"/><text fill="#000000" font-family="sans-serif" font-size="14" font-weight="bold" lengthAdjust="spacing" textLength="124" x="15" y="101.5">data_distribution</text><text fill="#000000" font-family="sans-serif" font-size="14" lengthAdjust="spacing" textLength="12" x="149" y="101.5">   </text><line style="stroke:#000000;stroke-width:1.0;" x1="144" x2="144" y1="85.9648" y2="106.4531"/><rect fill="none" height="81.9531" rx="5" ry="5" style="stroke:#000000;stroke-width:1.5;" width="186" x="10" y="24.5"/><rect fill="#F1F1F1" height="40.9766" rx="5" ry="5" style="stroke:#F1F1F1;stroke-width:1.5;" width="180" x="233" y="31"/><text fill="#000000" font-family="sans-serif" font-size="14" font-weight="bold" lengthAdjust="spacing" textLength="111" x="238" y="46.5352">total_null_rows</text><text fill="#000000" font-family="sans-serif" font-size="14" lengthAdjust="spacing" textLength="9" x="390" y="46.5352">0</text><line style="stroke:#000000;stroke-width:1.0;" x1="385" x2="385" y1="31" y2="51.4883"/><line style="stroke:#000000;stroke-width:1.0;" x1="233" x2="413" y1="51.4883" y2="51.4883"/><text fill="#000000" font-family="sans-serif" font-size="14" font-weight="bold" lengthAdjust="spacing" textLength="142" x="238" y="67.0234">total_not_null_rows</text><text fill="#000000" font-family="sans-serif" font-size="14" lengthAdjust="spacing" textLength="18" x="390" y="67.0234">13</text><line style="stroke:#000000;stroke-width:1.0;" x1="385" x2="385" y1="51.4883" y2="71.9766"/><rect fill="none" height="40.9766" rx="5" ry="5" style="stroke:#000000;stroke-width:1.5;" width="180" x="233" y="31"/><rect fill="#F1F1F1" height="61.4648" rx="5" ry="5" style="stroke:#F1F1F1;stroke-width:1.5;" width="22" x="311" y="90"/><text fill="#000000" font-family="sans-serif" font-size="14" lengthAdjust="spacing" textLength="12" x="316" y="105.5352">   </text><line style="stroke:#000000;stroke-width:1.0;" x1="311" x2="333" y1="110.4883" y2="110.4883"/><text fill="#000000" font-family="sans-serif" font-size="14" lengthAdjust="spacing" textLength="12" x="316" y="126.0234">   </text><line style="stroke:#000000;stroke-width:1.0;" x1="311" x2="333" y1="130.9766" y2="130.9766"/><text fill="#000000" font-family="sans-serif" font-size="14" lengthAdjust="spacing" textLength="12" x="316" y="146.5117">   </text><rect fill="none" height="61.4648" rx="5" ry="5" style="stroke:#000000;stroke-width:1.5;" width="22" x="311" y="90"/><rect fill="#F1F1F1" height="61.4648" rx="5" ry="5" style="stroke:#F1F1F1;stroke-width:1.5;" width="262" x="454.5" y="10"/><text fill="#000000" font-family="sans-serif" font-size="14" font-weight="bold" lengthAdjust="spacing" textLength="78" x="459.5" y="25.5352">field_value</text><text fill="#000000" font-family="sans-serif" font-size="14" lengthAdjust="spacing" textLength="9" x="563.5" y="25.5352">2</text><line style="stroke:#000000;stroke-width:1.0;" x1="558.5" x2="558.5" y1="10" y2="30.4883"/><line style="stroke:#000000;stroke-width:1.0;" x1="454.5" x2="716.5" y1="30.4883" y2="30.4883"/><text fill="#000000" font-family="sans-serif" font-size="14" font-weight="bold" lengthAdjust="spacing" textLength="74" x="459.5" y="46.0234">row_count</text><text fill="#000000" font-family="sans-serif" font-size="14" lengthAdjust="spacing" textLength="18" x="563.5" y="46.0234">10</text><line style="stroke:#000000;stroke-width:1.0;" x1="558.5" x2="558.5" y1="30.4883" y2="50.9766"/><line style="stroke:#000000;stroke-width:1.0;" x1="454.5" x2="716.5" y1="50.9766" y2="50.9766"/><text fill="#000000" font-family="sans-serif" font-size="14" font-weight="bold" lengthAdjust="spacing" textLength="94" x="459.5" y="66.5117">ratio_percent</text><text fill="#000000" font-family="sans-serif" font-size="14" lengthAdjust="spacing" textLength="148" x="563.5" y="66.5117">76.92307692307692</text><line style="stroke:#000000;stroke-width:1.0;" x1="558.5" x2="558.5" y1="50.9766" y2="71.4648"/><rect fill="none" height="61.4648" rx="5" ry="5" style="stroke:#000000;stroke-width:1.5;" width="262" x="454.5" y="10"/><rect fill="#F1F1F1" height="61.4648" rx="5" ry="5" style="stroke:#F1F1F1;stroke-width:1.5;" width="271" x="450" y="89"/><text fill="#000000" font-family="sans-serif" font-size="14" font-weight="bold" lengthAdjust="spacing" textLength="78" x="455" y="104.5352">field_value</text><text fill="#000000" font-family="sans-serif" font-size="14" lengthAdjust="spacing" textLength="9" x="559" y="104.5352">1</text><line style="stroke:#000000;stroke-width:1.0;" x1="554" x2="554" y1="89" y2="109.4883"/><line style="stroke:#000000;stroke-width:1.0;" x1="450" x2="721" y1="109.4883" y2="109.4883"/><text fill="#000000" font-family="sans-serif" font-size="14" font-weight="bold" lengthAdjust="spacing" textLength="74" x="455" y="125.0234">row_count</text><text fill="#000000" font-family="sans-serif" font-size="14" lengthAdjust="spacing" textLength="9" x="559" y="125.0234">2</text><line style="stroke:#000000;stroke-width:1.0;" x1="554" x2="554" y1="109.4883" y2="129.9766"/><line style="stroke:#000000;stroke-width:1.0;" x1="450" x2="721" y1="129.9766" y2="129.9766"/><text fill="#000000" font-family="sans-serif" font-size="14" font-weight="bold" lengthAdjust="spacing" textLength="94" x="455" y="145.5117">ratio_percent</text><text fill="#000000" font-family="sans-serif" font-size="14" lengthAdjust="spacing" textLength="157" x="559" y="145.5117">15.384615384615385</text><line style="stroke:#000000;stroke-width:1.0;" x1="554" x2="554" y1="129.9766" y2="150.4648"/><rect fill="none" height="61.4648" rx="5" ry="5" style="stroke:#000000;stroke-width:1.5;" width="271" x="450" y="89"/><rect fill="#F1F1F1" height="61.4648" rx="5" ry="5" style="stroke:#F1F1F1;stroke-width:1.5;" width="271" x="450" y="168"/><text fill="#000000" font-family="sans-serif" font-size="14" font-weight="bold" lengthAdjust="spacing" textLength="78" x="455" y="183.5352">field_value</text><text fill="#000000" font-family="sans-serif" font-size="14" lengthAdjust="spacing" textLength="9" x="559" y="183.5352">3</text><line style="stroke:#000000;stroke-width:1.0;" x1="554" x2="554" y1="168" y2="188.4883"/><line style="stroke:#000000;stroke-width:1.0;" x1="450" x2="721" y1="188.4883" y2="188.4883"/><text fill="#000000" font-family="sans-serif" font-size="14" font-weight="bold" lengthAdjust="spacing" textLength="74" x="455" y="204.0234">row_count</text><text fill="#000000" font-family="sans-serif" font-size="14" lengthAdjust="spacing" textLength="9" x="559" y="204.0234">1</text><line style="stroke:#000000;stroke-width:1.0;" x1="554" x2="554" y1="188.4883" y2="208.9766"/><line style="stroke:#000000;stroke-width:1.0;" x1="450" x2="721" y1="208.9766" y2="208.9766"/><text fill="#000000" font-family="sans-serif" font-size="14" font-weight="bold" lengthAdjust="spacing" textLength="94" x="455" y="224.5117">ratio_percent</text><text fill="#000000" font-family="sans-serif" font-size="14" lengthAdjust="spacing" textLength="157" x="559" y="224.5117">7.6923076923076925</text><line style="stroke:#000000;stroke-width:1.0;" x1="554" x2="554" y1="208.9766" y2="229.4648"/><rect fill="none" height="61.4648" rx="5" ry="5" style="stroke:#000000;stroke-width:1.5;" width="271" x="450" y="168"/><path d="M184,75.5 L197,75.5 C208.1912,75.5 219.8454,74.5679 231.3455,73.0712 " fill="none" style="stroke:#000000;stroke-width:1.0;stroke-dasharray:3.0,3.0;"/><path d="M231.7699,76.0826 L233.604,72.7529 L230.9211,70.0598 L238.874,72.0102 L231.7699,76.0826 " fill="#000000" style="stroke:#000000;stroke-width:1.0;"/><ellipse cx="184" cy="75.5" fill="#000000" rx="3" ry="3" style="stroke:#000000;stroke-width:1.0;"/><path d="M323.5,99.5 L336.5,99.5 C362.9686,99.5 418.7937,86.6687 470.8383,72.9738 " fill="none" style="stroke:#000000;stroke-width:1.0;stroke-dasharray:3.0,3.0;"/><path d="M471.6131,75.8999 L473.0329,72.3927 L470.0636,70.0477 L478.1535,71.0369 L471.6131,75.8999 " fill="#000000" style="stroke:#000000;stroke-width:1.0;"/><ellipse cx="323.5" cy="99.5" fill="#000000" rx="3" ry="3" style="stroke:#000000;stroke-width:1.0;"/><path d="M323.5,119.5 L336.5,119.5 C370.7931,119.5 407.7483,119.5 442.4061,119.5 " fill="none" style="stroke:#000000;stroke-width:1.0;stroke-dasharray:3.0,3.0;"/><path d="M442.4061,122.6288 L444.7526,119.5 L442.4061,116.3712 L450.228,119.5 L442.4061,122.6288 " fill="#000000" style="stroke:#000000;stroke-width:1.0;"/><ellipse cx="323.5" cy="119.5" fill="#000000" rx="3" ry="3" style="stroke:#000000;stroke-width:1.0;"/><path d="M323.5,140.5 L336.5,140.5 C362.5741,140.5 417.2088,152.7626 468.6266,166.0109 " fill="none" style="stroke:#000000;stroke-width:1.0;stroke-dasharray:3.0,3.0;"/><path d="M467.8424,169.0345 L470.8944,166.599 L469.4108,162.9872 L476.1857,167.9713 L467.8424,169.0345 " fill="#000000" style="stroke:#000000;stroke-width:1.0;"/><ellipse cx="323.5" cy="140.5" fill="#000000" rx="3" ry="3" style="stroke:#000000;stroke-width:1.0;"/><path d="M184,96.5 L197,96.5 C235.465,96.5 279.4001,107.5109 303.7479,114.6165 " fill="none" style="stroke:#000000;stroke-width:1.0;stroke-dasharray:3.0,3.0;"/><path d="M302.8525,117.6044 L305.9889,115.288 L304.6433,111.6285 L311.2178,116.8549 L302.8525,117.6044 " fill="#000000" style="stroke:#000000;stroke-width:1.0;"/><ellipse cx="184" cy="96.5" fill="#000000" rx="3" ry="3" style="stroke:#000000;stroke-width:1.0;"/><!--MD5=[ae8f1c5ed7f1802a2557bd55ec01c2c8]
@startjson
{
    "field1": "Status",
    "combination": "Status",
    "null_distribution": {
        "total_null_rows": 0,
        "total_not_null_rows": 13
    },
    "data_distribution": [
        {
            "field_value": "2",
            "row_count": 10,
            "ratio_percent": 76.92307692307692
        },
        {
            "field_value": "1",
            "row_count": 2,
            "ratio_percent": 15.384615384615385
        },
        {
            "field_value": "3",
            "row_count": 1,
            "ratio_percent": 7.6923076923076925
        }
    ]
}
@endjson

PlantUML version 1.2022.5(Sat Apr 30 06:55:52 EDT 2022)
(GPL source distribution)
Java Runtime: OpenJDK Runtime Environment
JVM: OpenJDK 64-Bit Server VM
Default Encoding: UTF-8
Language: en
Country: CA
--></g></svg>