<?xml version="1.0" encoding="UTF-8" standalone="no"?><svg xmlns="http://www.w3.org/2000/svg" xmlns:xlink="http://www.w3.org/1999/xlink" contentStyleType="text/css" height="241px" preserveAspectRatio="none" style="width:832px;height:241px;background:#FFFFFF;" version="1.1" viewBox="0 0 832 241" width="832px" zoomAndPan="magnify"><defs/><g><rect fill="#F1F1F1" height="81.9531" rx="5" ry="5" style="stroke:#F1F1F1;stroke-width:1.5;" width="258" x="10" y="24.5"/><text fill="#000000" font-family="sans-serif" font-size="14" font-weight="bold" lengthAdjust="spacing" textLength="42" x="15" y="40.0352">field1</text><text fill="#000000" font-family="sans-serif" font-size="14" lengthAdjust="spacing" textLength="114" x="149" y="40.0352">TransactionType</text><line style="stroke:#000000;stroke-width:1.0;" x1="144" x2="144" y1="24.5" y2="44.9883"/><line style="stroke:#000000;stroke-width:1.0;" x1="10" x2="268" y1="44.9883" y2="44.9883"/><text fill="#000000" font-family="sans-serif" font-size="14" font-weight="bold" lengthAdjust="spacing" textLength="90" x="15" y="60.5234">combination</text><text fill="#000000" font-family="sans-serif" font-size="14" lengthAdjust="spacing" textLength="114" x="149" y="60.5234">TransactionType</text><line style="stroke:#000000;stroke-width:1.0;" x1="144" x2="144" y1="44.9883" y2="65.4766"/><line style="stroke:#000000;stroke-width:1.0;" x1="10" x2="268" y1="65.4766" y2="65.4766"/><text fill="#000000" font-family="sans-serif" font-size="14" font-weight="bold" lengthAdjust="spacing" textLength="121" x="15" y="81.0117">null_distribution</text><text fill="#000000" font-family="sans-serif" font-size="14" lengthAdjust="spacing" textLength="12" x="149" y="81.0117">   </text><line style="stroke:#000000;stroke-width:1.0;" x1="144" x2="144" y1="65.4766" y2="85.9648"/><line style="stroke:#000000;stroke-width:1.0;" x1="10" x2="268" y1="85.9648" y2="85.9648"/><text fill="#000000" font-family="sans-serif" font-size="14" font-weight="bold" lengthAdjust="spacing" textLength="124" x="15" y="101.5">data_distribution</text><text fill="#000000" font-family="sans-serif" font-size="14" lengthAdjust="spacing" textLength="12" x="149" y="101.5">   </text><line style="stroke:#000000;stroke-width:1.0;" x1="144" x2="144" y1="85.9648" y2="106.4531"/><rect fill="none" height="81.9531" rx="5" ry="5" style="stroke:#000000;stroke-width:1.5;" width="258" x="10" y="24.5"/><rect fill="#F1F1F1" height="40.9766" rx="5" ry="5" style="stroke:#F1F1F1;stroke-width:1.5;" width="207" x="305" y="31"/><text fill="#000000" font-family="sans-serif" font-size="14" font-weight="bold" lengthAdjust="spacing" textLength="111" x="310" y="46.5352">total_null_rows</text><text fill="#000000" font-family="sans-serif" font-size="14" lengthAdjust="spacing" textLength="9" x="462" y="46.5352">0</text><line style="stroke:#000000;stroke-width:1.0;" x1="457" x2="457" y1="31" y2="51.4883"/><line style="stroke:#000000;stroke-width:1.0;" x1="305" x2="512" y1="51.4883" y2="51.4883"/><text fill="#000000" font-family="sans-serif" font-size="14" font-weight="bold" lengthAdjust="spacing" textLength="142" x="310" y="67.0234">total_not_null_rows</text><text fill="#000000" font-family="sans-serif" font-size="14" lengthAdjust="spacing" textLength="45" x="462" y="67.0234">89253</text><line style="stroke:#000000;stroke-width:1.0;" x1="457" x2="457" y1="51.4883" y2="71.9766"/><rect fill="none" height="40.9766" rx="5" ry="5" style="stroke:#000000;stroke-width:1.5;" width="207" x="305" y="31"/><rect fill="#F1F1F1" height="61.4648" rx="5" ry="5" style="stroke:#F1F1F1;stroke-width:1.5;" width="22" x="396.5" y="90"/><text fill="#000000" font-family="sans-serif" font-size="14" lengthAdjust="spacing" textLength="12" x="401.5" y="105.5352">   </text><line style="stroke:#000000;stroke-width:1.0;" x1="396.5" x2="418.5" y1="110.4883" y2="110.4883"/><text fill="#000000" font-family="sans-serif" font-size="14" lengthAdjust="spacing" textLength="12" x="401.5" y="126.0234">   </text><line style="stroke:#000000;stroke-width:1.0;" x1="396.5" x2="418.5" y1="130.9766" y2="130.9766"/><text fill="#000000" font-family="sans-serif" font-size="14" lengthAdjust="spacing" textLength="12" x="401.5" y="146.5117">   </text><rect fill="none" height="61.4648" rx="5" ry="5" style="stroke:#000000;stroke-width:1.5;" width="22" x="396.5" y="90"/><rect fill="#F1F1F1" height="61.4648" rx="5" ry="5" style="stroke:#F1F1F1;stroke-width:1.5;" width="271" x="549" y="10"/><text fill="#000000" font-family="sans-serif" font-size="14" font-weight="bold" lengthAdjust="spacing" textLength="78" x="554" y="25.5352">field_value</text><text fill="#000000" font-family="sans-serif" font-size="14" lengthAdjust="spacing" textLength="8" x="658" y="25.5352">S</text><line style="stroke:#000000;stroke-width:1.0;" x1="653" x2="653" y1="10" y2="30.4883"/><line style="stroke:#000000;stroke-width:1.0;" x1="549" x2="820" y1="30.4883" y2="30.4883"/><text fill="#000000" font-family="sans-serif" font-size="14" font-weight="bold" lengthAdjust="spacing" textLength="74" x="554" y="46.0234">row_count</text><text fill="#000000" font-family="sans-serif" font-size="14" lengthAdjust="spacing" textLength="45" x="658" y="46.0234">46742</text><line style="stroke:#000000;stroke-width:1.0;" x1="653" x2="653" y1="30.4883" y2="50.9766"/><line style="stroke:#000000;stroke-width:1.0;" x1="549" x2="820" y1="50.9766" y2="50.9766"/><text fill="#000000" font-family="sans-serif" font-size="14" font-weight="bold" lengthAdjust="spacing" textLength="94" x="554" y="66.5117">ratio_percent</text><text fill="#000000" font-family="sans-serif" font-size="14" lengthAdjust="spacing" textLength="157" x="658" y="66.5117">52.370228451704705</text><line style="stroke:#000000;stroke-width:1.0;" x1="653" x2="653" y1="50.9766" y2="71.4648"/><rect fill="none" height="61.4648" rx="5" ry="5" style="stroke:#000000;stroke-width:1.5;" width="271" x="549" y="10"/><rect fill="#F1F1F1" height="61.4648" rx="5" ry="5" style="stroke:#F1F1F1;stroke-width:1.5;" width="262" x="553.5" y="89"/><text fill="#000000" font-family="sans-serif" font-size="14" font-weight="bold" lengthAdjust="spacing" textLength="78" x="558.5" y="104.5352">field_value</text><text fill="#000000" font-family="sans-serif" font-size="14" lengthAdjust="spacing" textLength="12" x="662.5" y="104.5352">W</text><line style="stroke:#000000;stroke-width:1.0;" x1="657.5" x2="657.5" y1="89" y2="109.4883"/><line style="stroke:#000000;stroke-width:1.0;" x1="553.5" x2="815.5" y1="109.4883" y2="109.4883"/><text fill="#000000" font-family="sans-serif" font-size="14" font-weight="bold" lengthAdjust="spacing" textLength="74" x="558.5" y="125.0234">row_count</text><text fill="#000000" font-family="sans-serif" font-size="14" lengthAdjust="spacing" textLength="45" x="662.5" y="125.0234">41589</text><line style="stroke:#000000;stroke-width:1.0;" x1="657.5" x2="657.5" y1="109.4883" y2="129.9766"/><line style="stroke:#000000;stroke-width:1.0;" x1="553.5" x2="815.5" y1="129.9766" y2="129.9766"/><text fill="#000000" font-family="sans-serif" font-size="14" font-weight="bold" lengthAdjust="spacing" textLength="94" x="558.5" y="145.5117">ratio_percent</text><text fill="#000000" font-family="sans-serif" font-size="14" lengthAdjust="spacing" textLength="148" x="662.5" y="145.5117">46.59675305031764</text><line style="stroke:#000000;stroke-width:1.0;" x1="657.5" x2="657.5" y1="129.9766" y2="150.4648"/><rect fill="none" height="61.4648" rx="5" ry="5" style="stroke:#000000;stroke-width:1.5;" width="262" x="553.5" y="89"/><rect fill="#F1F1F1" height="61.4648" rx="5" ry="5" style="stroke:#F1F1F1;stroke-width:1.5;" width="262" x="553.5" y="168"/><text fill="#000000" font-family="sans-serif" font-size="14" font-weight="bold" lengthAdjust="spacing" textLength="78" x="558.5" y="183.5352">field_value</text><text fill="#000000" font-family="sans-serif" font-size="14" lengthAdjust="spacing" textLength="8" x="662.5" y="183.5352">P</text><line style="stroke:#000000;stroke-width:1.0;" x1="657.5" x2="657.5" y1="168" y2="188.4883"/><line style="stroke:#000000;stroke-width:1.0;" x1="553.5" x2="815.5" y1="188.4883" y2="188.4883"/><text fill="#000000" font-family="sans-serif" font-size="14" font-weight="bold" lengthAdjust="spacing" textLength="74" x="558.5" y="204.0234">row_count</text><text fill="#000000" font-family="sans-serif" font-size="14" lengthAdjust="spacing" textLength="27" x="662.5" y="204.0234">922</text><line style="stroke:#000000;stroke-width:1.0;" x1="657.5" x2="657.5" y1="188.4883" y2="208.9766"/><line style="stroke:#000000;stroke-width:1.0;" x1="553.5" x2="815.5" y1="208.9766" y2="208.9766"/><text fill="#000000" font-family="sans-serif" font-size="14" font-weight="bold" lengthAdjust="spacing" textLength="94" x="558.5" y="224.5117">ratio_percent</text><text fill="#000000" font-family="sans-serif" font-size="14" lengthAdjust="spacing" textLength="148" x="662.5" y="224.5117">1.033018497977659</text><line style="stroke:#000000;stroke-width:1.0;" x1="657.5" x2="657.5" y1="208.9766" y2="229.4648"/><rect fill="none" height="61.4648" rx="5" ry="5" style="stroke:#000000;stroke-width:1.5;" width="262" x="553.5" y="168"/><path d="M256,75.5 L269,75.5 C281.5898,75.5 294.7288,74.5321 307.6886,72.9851 " fill="none" style="stroke:#000000;stroke-width:1.0;stroke-dasharray:3.0,3.0;"/><path d="M308.0786,76.0268 L309.9699,72.6926 L307.2987,69.9433 L315.293,72.0102 L308.0786,76.0268 " fill="#000000" style="stroke:#000000;stroke-width:1.0;"/><ellipse cx="256" cy="75.5" fill="#000000" rx="3" ry="3" style="stroke:#000000;stroke-width:1.0;"/><path d="M409,99.5 L422,99.5 C449.8886,99.5 508.9253,86.6162 563.9091,72.8898 " fill="none" style="stroke:#000000;stroke-width:1.0;stroke-dasharray:3.0,3.0;"/><path d="M564.6503,75.8411 L566.1226,72.3339 L563.168,69.9385 L571.2874,71.0369 L564.6503,75.8411 " fill="#000000" style="stroke:#000000;stroke-width:1.0;"/><ellipse cx="409" cy="99.5" fill="#000000" rx="3" ry="3" style="stroke:#000000;stroke-width:1.0;"/><path d="M409,119.5 L422,119.5 C462.1912,119.5 505.8505,119.5 545.7958,119.5 " fill="none" style="stroke:#000000;stroke-width:1.0;stroke-dasharray:3.0,3.0;"/><path d="M545.7958,122.675 L548.177,119.5 L545.7958,116.325 L553.7332,119.5 L545.7958,122.675 " fill="#000000" style="stroke:#000000;stroke-width:1.0;"/><ellipse cx="409" cy="119.5" fill="#000000" rx="3" ry="3" style="stroke:#000000;stroke-width:1.0;"/><path d="M409,140.5 L422,140.5 C449.5316,140.5 507.4889,152.8633 561.9086,166.1738 " fill="none" style="stroke:#000000;stroke-width:1.0;stroke-dasharray:3.0,3.0;"/><path d="M561.1896,169.096 L564.1002,166.7131 L562.6276,163.2516 L569.2141,167.9713 L561.1896,169.096 " fill="#000000" style="stroke:#000000;stroke-width:1.0;"/><ellipse cx="409" cy="140.5" fill="#000000" rx="3" ry="3" style="stroke:#000000;stroke-width:1.0;"/><path d="M256,96.5 L269,96.5 C312.7205,96.5 363.0633,108.1724 389.5284,115.2368 " fill="none" style="stroke:#000000;stroke-width:1.0;stroke-dasharray:3.0,3.0;"/><path d="M388.7178,118.202 L391.7522,115.8447 L390.3389,112.2716 L396.9413,117.2633 L388.7178,118.202 " fill="#000000" style="stroke:#000000;stroke-width:1.0;"/><ellipse cx="256" cy="96.5" fill="#000000" rx="3" ry="3" style="stroke:#000000;stroke-width:1.0;"/><!--MD5=[efe824321c5b26bba9f4c78753e89faa]
@startjson
{
    "field1": "TransactionType",
    "combination": "TransactionType",
    "null_distribution": {
        "total_null_rows": 0,
        "total_not_null_rows": 89253
    },
    "data_distribution": [
        {
            "field_value": "S",
            "row_count": 46742,
            "ratio_percent": 52.370228451704705
        },
        {
            "field_value": "W",
            "row_count": 41589,
            "ratio_percent": 46.59675305031764
        },
        {
            "field_value": "P",
            "row_count": 922,
            "ratio_percent": 1.033018497977659
        }
    ]
}
@endjson

PlantUML version 1.2022.5(Sat Apr 30 06:55:52 EDT 2022)
(GPL source distribution)
Java Runtime: OpenJDK Runtime Environment
JVM: OpenJDK 64-Bit Server VM
Default Encoding: UTF-8
Language: en
Country: CA
--></g></svg>