<?xml version="1.0" encoding="UTF-8" standalone="no"?><svg xmlns="http://www.w3.org/2000/svg" xmlns:xlink="http://www.w3.org/1999/xlink" contentStyleType="text/css" height="794px" preserveAspectRatio="none" style="width:756px;height:794px;background:#FFFFFF;" version="1.1" viewBox="0 0 756 794" width="756px" zoomAndPan="magnify"><defs/><g><rect fill="#F1F1F1" height="81.9531" rx="5" ry="5" style="stroke:#F1F1F1;stroke-width:1.5;" width="200" x="10" y="264.5"/><text fill="#000000" font-family="sans-serif" font-size="14" font-weight="bold" lengthAdjust="spacing" textLength="42" x="15" y="280.0352">field1</text><text fill="#000000" font-family="sans-serif" font-size="14" lengthAdjust="spacing" textLength="56" x="149" y="280.0352">ListPrice</text><line style="stroke:#000000;stroke-width:1.0;" x1="144" x2="144" y1="264.5" y2="284.9883"/><line style="stroke:#000000;stroke-width:1.0;" x1="10" x2="210" y1="284.9883" y2="284.9883"/><text fill="#000000" font-family="sans-serif" font-size="14" font-weight="bold" lengthAdjust="spacing" textLength="90" x="15" y="300.5234">combination</text><text fill="#000000" font-family="sans-serif" font-size="14" lengthAdjust="spacing" textLength="56" x="149" y="300.5234">ListPrice</text><line style="stroke:#000000;stroke-width:1.0;" x1="144" x2="144" y1="284.9883" y2="305.4766"/><line style="stroke:#000000;stroke-width:1.0;" x1="10" x2="210" y1="305.4766" y2="305.4766"/><text fill="#000000" font-family="sans-serif" font-size="14" font-weight="bold" lengthAdjust="spacing" textLength="121" x="15" y="321.0117">null_distribution</text><text fill="#000000" font-family="sans-serif" font-size="14" lengthAdjust="spacing" textLength="12" x="149" y="321.0117">   </text><line style="stroke:#000000;stroke-width:1.0;" x1="144" x2="144" y1="305.4766" y2="325.9648"/><line style="stroke:#000000;stroke-width:1.0;" x1="10" x2="210" y1="325.9648" y2="325.9648"/><text fill="#000000" font-family="sans-serif" font-size="14" font-weight="bold" lengthAdjust="spacing" textLength="124" x="15" y="341.5">data_distribution</text><text fill="#000000" font-family="sans-serif" font-size="14" lengthAdjust="spacing" textLength="12" x="149" y="341.5">   </text><line style="stroke:#000000;stroke-width:1.0;" x1="144" x2="144" y1="325.9648" y2="346.4531"/><rect fill="none" height="81.9531" rx="5" ry="5" style="stroke:#000000;stroke-width:1.5;" width="200" x="10" y="264.5"/><rect fill="#F1F1F1" height="40.9766" rx="5" ry="5" style="stroke:#F1F1F1;stroke-width:1.5;" width="189" x="247" y="235"/><text fill="#000000" font-family="sans-serif" font-size="14" font-weight="bold" lengthAdjust="spacing" textLength="111" x="252" y="250.5352">total_null_rows</text><text fill="#000000" font-family="sans-serif" font-size="14" lengthAdjust="spacing" textLength="9" x="404" y="250.5352">0</text><line style="stroke:#000000;stroke-width:1.0;" x1="399" x2="399" y1="235" y2="255.4883"/><line style="stroke:#000000;stroke-width:1.0;" x1="247" x2="436" y1="255.4883" y2="255.4883"/><text fill="#000000" font-family="sans-serif" font-size="14" font-weight="bold" lengthAdjust="spacing" textLength="142" x="252" y="271.0234">total_not_null_rows</text><text fill="#000000" font-family="sans-serif" font-size="14" lengthAdjust="spacing" textLength="27" x="404" y="271.0234">395</text><line style="stroke:#000000;stroke-width:1.0;" x1="399" x2="399" y1="255.4883" y2="275.9766"/><rect fill="none" height="40.9766" rx="5" ry="5" style="stroke:#000000;stroke-width:1.5;" width="189" x="247" y="235"/><rect fill="#F1F1F1" height="204.8828" rx="5" ry="5" style="stroke:#F1F1F1;stroke-width:1.5;" width="22" x="329.5" y="294"/><text fill="#000000" font-family="sans-serif" font-size="14" lengthAdjust="spacing" textLength="12" x="334.5" y="309.5352">   </text><line style="stroke:#000000;stroke-width:1.0;" x1="329.5" x2="351.5" y1="314.4883" y2="314.4883"/><text fill="#000000" font-family="sans-serif" font-size="14" lengthAdjust="spacing" textLength="12" x="334.5" y="330.0234">   </text><line style="stroke:#000000;stroke-width:1.0;" x1="329.5" x2="351.5" y1="334.9766" y2="334.9766"/><text fill="#000000" font-family="sans-serif" font-size="14" lengthAdjust="spacing" textLength="12" x="334.5" y="350.5117">   </text><line style="stroke:#000000;stroke-width:1.0;" x1="329.5" x2="351.5" y1="355.4648" y2="355.4648"/><text fill="#000000" font-family="sans-serif" font-size="14" lengthAdjust="spacing" textLength="12" x="334.5" y="371">   </text><line style="stroke:#000000;stroke-width:1.0;" x1="329.5" x2="351.5" y1="375.9531" y2="375.9531"/><text fill="#000000" font-family="sans-serif" font-size="14" lengthAdjust="spacing" textLength="12" x="334.5" y="391.4883">   </text><line style="stroke:#000000;stroke-width:1.0;" x1="329.5" x2="351.5" y1="396.4414" y2="396.4414"/><text fill="#000000" font-family="sans-serif" font-size="14" lengthAdjust="spacing" textLength="12" x="334.5" y="411.9766">   </text><line style="stroke:#000000;stroke-width:1.0;" x1="329.5" x2="351.5" y1="416.9297" y2="416.9297"/><text fill="#000000" font-family="sans-serif" font-size="14" lengthAdjust="spacing" textLength="12" x="334.5" y="432.4648">   </text><line style="stroke:#000000;stroke-width:1.0;" x1="329.5" x2="351.5" y1="437.418" y2="437.418"/><text fill="#000000" font-family="sans-serif" font-size="14" lengthAdjust="spacing" textLength="12" x="334.5" y="452.9531">   </text><line style="stroke:#000000;stroke-width:1.0;" x1="329.5" x2="351.5" y1="457.9063" y2="457.9063"/><text fill="#000000" font-family="sans-serif" font-size="14" lengthAdjust="spacing" textLength="12" x="334.5" y="473.4414">   </text><line style="stroke:#000000;stroke-width:1.0;" x1="329.5" x2="351.5" y1="478.3945" y2="478.3945"/><text fill="#000000" font-family="sans-serif" font-size="14" lengthAdjust="spacing" textLength="12" x="334.5" y="493.9297">   </text><rect fill="none" height="204.8828" rx="5" ry="5" style="stroke:#000000;stroke-width:1.5;" width="22" x="329.5" y="294"/><rect fill="#F1F1F1" height="61.4648" rx="5" ry="5" style="stroke:#F1F1F1;stroke-width:1.5;" width="262" x="477.5" y="10"/><text fill="#000000" font-family="sans-serif" font-size="14" font-weight="bold" lengthAdjust="spacing" textLength="78" x="482.5" y="25.5352">field_value</text><text fill="#000000" font-family="sans-serif" font-size="14" lengthAdjust="spacing" textLength="49" x="586.5" y="25.5352">306.56</text><line style="stroke:#000000;stroke-width:1.0;" x1="581.5" x2="581.5" y1="10" y2="30.4883"/><line style="stroke:#000000;stroke-width:1.0;" x1="477.5" x2="739.5" y1="30.4883" y2="30.4883"/><text fill="#000000" font-family="sans-serif" font-size="14" font-weight="bold" lengthAdjust="spacing" textLength="74" x="482.5" y="46.0234">row_count</text><text fill="#000000" font-family="sans-serif" font-size="14" lengthAdjust="spacing" textLength="18" x="586.5" y="46.0234">12</text><line style="stroke:#000000;stroke-width:1.0;" x1="581.5" x2="581.5" y1="30.4883" y2="50.9766"/><line style="stroke:#000000;stroke-width:1.0;" x1="477.5" x2="739.5" y1="50.9766" y2="50.9766"/><text fill="#000000" font-family="sans-serif" font-size="14" font-weight="bold" lengthAdjust="spacing" textLength="94" x="482.5" y="66.5117">ratio_percent</text><text fill="#000000" font-family="sans-serif" font-size="14" lengthAdjust="spacing" textLength="148" x="586.5" y="66.5117">3.037974683544304</text><line style="stroke:#000000;stroke-width:1.0;" x1="581.5" x2="581.5" y1="50.9766" y2="71.4648"/><rect fill="none" height="61.4648" rx="5" ry="5" style="stroke:#000000;stroke-width:1.5;" width="262" x="477.5" y="10"/><rect fill="#F1F1F1" height="61.4648" rx="5" ry="5" style="stroke:#F1F1F1;stroke-width:1.5;" width="262" x="477.5" y="89"/><text fill="#000000" font-family="sans-serif" font-size="14" font-weight="bold" lengthAdjust="spacing" textLength="78" x="482.5" y="104.5352">field_value</text><text fill="#000000" font-family="sans-serif" font-size="14" lengthAdjust="spacing" textLength="49" x="586.5" y="104.5352">337.22</text><line style="stroke:#000000;stroke-width:1.0;" x1="581.5" x2="581.5" y1="89" y2="109.4883"/><line style="stroke:#000000;stroke-width:1.0;" x1="477.5" x2="739.5" y1="109.4883" y2="109.4883"/><text fill="#000000" font-family="sans-serif" font-size="14" font-weight="bold" lengthAdjust="spacing" textLength="74" x="482.5" y="125.0234">row_count</text><text fill="#000000" font-family="sans-serif" font-size="14" lengthAdjust="spacing" textLength="18" x="586.5" y="125.0234">12</text><line style="stroke:#000000;stroke-width:1.0;" x1="581.5" x2="581.5" y1="109.4883" y2="129.9766"/><line style="stroke:#000000;stroke-width:1.0;" x1="477.5" x2="739.5" y1="129.9766" y2="129.9766"/><text fill="#000000" font-family="sans-serif" font-size="14" font-weight="bold" lengthAdjust="spacing" textLength="94" x="482.5" y="145.5117">ratio_percent</text><text fill="#000000" font-family="sans-serif" font-size="14" lengthAdjust="spacing" textLength="148" x="586.5" y="145.5117">3.037974683544304</text><line style="stroke:#000000;stroke-width:1.0;" x1="581.5" x2="581.5" y1="129.9766" y2="150.4648"/><rect fill="none" height="61.4648" rx="5" ry="5" style="stroke:#000000;stroke-width:1.5;" width="262" x="477.5" y="89"/><rect fill="#F1F1F1" height="61.4648" rx="5" ry="5" style="stroke:#F1F1F1;stroke-width:1.5;" width="262" x="477.5" y="168"/><text fill="#000000" font-family="sans-serif" font-size="14" font-weight="bold" lengthAdjust="spacing" textLength="78" x="482.5" y="183.5352">field_value</text><text fill="#000000" font-family="sans-serif" font-size="14" lengthAdjust="spacing" textLength="49" x="586.5" y="183.5352">699.10</text><line style="stroke:#000000;stroke-width:1.0;" x1="581.5" x2="581.5" y1="168" y2="188.4883"/><line style="stroke:#000000;stroke-width:1.0;" x1="477.5" x2="739.5" y1="188.4883" y2="188.4883"/><text fill="#000000" font-family="sans-serif" font-size="14" font-weight="bold" lengthAdjust="spacing" textLength="74" x="482.5" y="204.0234">row_count</text><text fill="#000000" font-family="sans-serif" font-size="14" lengthAdjust="spacing" textLength="18" x="586.5" y="204.0234">12</text><line style="stroke:#000000;stroke-width:1.0;" x1="581.5" x2="581.5" y1="188.4883" y2="208.9766"/><line style="stroke:#000000;stroke-width:1.0;" x1="477.5" x2="739.5" y1="208.9766" y2="208.9766"/><text fill="#000000" font-family="sans-serif" font-size="14" font-weight="bold" lengthAdjust="spacing" textLength="94" x="482.5" y="224.5117">ratio_percent</text><text fill="#000000" font-family="sans-serif" font-size="14" lengthAdjust="spacing" textLength="148" x="586.5" y="224.5117">3.037974683544304</text><line style="stroke:#000000;stroke-width:1.0;" x1="581.5" x2="581.5" y1="208.9766" y2="229.4648"/><rect fill="none" height="61.4648" rx="5" ry="5" style="stroke:#000000;stroke-width:1.5;" width="262" x="477.5" y="168"/><rect fill="#F1F1F1" height="61.4648" rx="5" ry="5" style="stroke:#F1F1F1;stroke-width:1.5;" width="262" x="477.5" y="247"/><text fill="#000000" font-family="sans-serif" font-size="14" font-weight="bold" lengthAdjust="spacing" textLength="78" x="482.5" y="262.5352">field_value</text><text fill="#000000" font-family="sans-serif" font-size="14" lengthAdjust="spacing" textLength="49" x="586.5" y="262.5352">782.99</text><line style="stroke:#000000;stroke-width:1.0;" x1="581.5" x2="581.5" y1="247" y2="267.4883"/><line style="stroke:#000000;stroke-width:1.0;" x1="477.5" x2="739.5" y1="267.4883" y2="267.4883"/><text fill="#000000" font-family="sans-serif" font-size="14" font-weight="bold" lengthAdjust="spacing" textLength="74" x="482.5" y="283.0234">row_count</text><text fill="#000000" font-family="sans-serif" font-size="14" lengthAdjust="spacing" textLength="18" x="586.5" y="283.0234">12</text><line style="stroke:#000000;stroke-width:1.0;" x1="581.5" x2="581.5" y1="267.4883" y2="287.9766"/><line style="stroke:#000000;stroke-width:1.0;" x1="477.5" x2="739.5" y1="287.9766" y2="287.9766"/><text fill="#000000" font-family="sans-serif" font-size="14" font-weight="bold" lengthAdjust="spacing" textLength="94" x="482.5" y="303.5117">ratio_percent</text><text fill="#000000" font-family="sans-serif" font-size="14" lengthAdjust="spacing" textLength="148" x="586.5" y="303.5117">3.037974683544304</text><line style="stroke:#000000;stroke-width:1.0;" x1="581.5" x2="581.5" y1="287.9766" y2="308.4648"/><rect fill="none" height="61.4648" rx="5" ry="5" style="stroke:#000000;stroke-width:1.5;" width="262" x="477.5" y="247"/><rect fill="#F1F1F1" height="61.4648" rx="5" ry="5" style="stroke:#F1F1F1;stroke-width:1.5;" width="271" x="473" y="326"/><text fill="#000000" font-family="sans-serif" font-size="14" font-weight="bold" lengthAdjust="spacing" textLength="78" x="478" y="341.5352">field_value</text><text fill="#000000" font-family="sans-serif" font-size="14" lengthAdjust="spacing" textLength="49" x="582" y="341.5352">333.42</text><line style="stroke:#000000;stroke-width:1.0;" x1="577" x2="577" y1="326" y2="346.4883"/><line style="stroke:#000000;stroke-width:1.0;" x1="473" x2="744" y1="346.4883" y2="346.4883"/><text fill="#000000" font-family="sans-serif" font-size="14" font-weight="bold" lengthAdjust="spacing" textLength="74" x="478" y="362.0234">row_count</text><text fill="#000000" font-family="sans-serif" font-size="14" lengthAdjust="spacing" textLength="18" x="582" y="362.0234">10</text><line style="stroke:#000000;stroke-width:1.0;" x1="577" x2="577" y1="346.4883" y2="366.9766"/><line style="stroke:#000000;stroke-width:1.0;" x1="473" x2="744" y1="366.9766" y2="366.9766"/><text fill="#000000" font-family="sans-serif" font-size="14" font-weight="bold" lengthAdjust="spacing" textLength="94" x="478" y="382.5117">ratio_percent</text><text fill="#000000" font-family="sans-serif" font-size="14" lengthAdjust="spacing" textLength="157" x="582" y="382.5117">2.5316455696202533</text><line style="stroke:#000000;stroke-width:1.0;" x1="577" x2="577" y1="366.9766" y2="387.4648"/><rect fill="none" height="61.4648" rx="5" ry="5" style="stroke:#000000;stroke-width:1.5;" width="271" x="473" y="326"/><rect fill="#F1F1F1" height="61.4648" rx="5" ry="5" style="stroke:#F1F1F1;stroke-width:1.5;" width="271" x="473" y="405"/><text fill="#000000" font-family="sans-serif" font-size="14" font-weight="bold" lengthAdjust="spacing" textLength="78" x="478" y="420.5352">field_value</text><text fill="#000000" font-family="sans-serif" font-size="14" lengthAdjust="spacing" textLength="49" x="582" y="420.5352">594.83</text><line style="stroke:#000000;stroke-width:1.0;" x1="577" x2="577" y1="405" y2="425.4883"/><line style="stroke:#000000;stroke-width:1.0;" x1="473" x2="744" y1="425.4883" y2="425.4883"/><text fill="#000000" font-family="sans-serif" font-size="14" font-weight="bold" lengthAdjust="spacing" textLength="74" x="478" y="441.0234">row_count</text><text fill="#000000" font-family="sans-serif" font-size="14" lengthAdjust="spacing" textLength="18" x="582" y="441.0234">10</text><line style="stroke:#000000;stroke-width:1.0;" x1="577" x2="577" y1="425.4883" y2="445.9766"/><line style="stroke:#000000;stroke-width:1.0;" x1="473" x2="744" y1="445.9766" y2="445.9766"/><text fill="#000000" font-family="sans-serif" font-size="14" font-weight="bold" lengthAdjust="spacing" textLength="94" x="478" y="461.5117">ratio_percent</text><text fill="#000000" font-family="sans-serif" font-size="14" lengthAdjust="spacing" textLength="157" x="582" y="461.5117">2.5316455696202533</text><line style="stroke:#000000;stroke-width:1.0;" x1="577" x2="577" y1="445.9766" y2="466.4648"/><rect fill="none" height="61.4648" rx="5" ry="5" style="stroke:#000000;stroke-width:1.5;" width="271" x="473" y="405"/><rect fill="#F1F1F1" height="61.4648" rx="5" ry="5" style="stroke:#F1F1F1;stroke-width:1.5;" width="271" x="473" y="484"/><text fill="#000000" font-family="sans-serif" font-size="14" font-weight="bold" lengthAdjust="spacing" textLength="78" x="478" y="499.5352">field_value</text><text fill="#000000" font-family="sans-serif" font-size="14" lengthAdjust="spacing" textLength="49" x="582" y="499.5352">742.35</text><line style="stroke:#000000;stroke-width:1.0;" x1="577" x2="577" y1="484" y2="504.4883"/><line style="stroke:#000000;stroke-width:1.0;" x1="473" x2="744" y1="504.4883" y2="504.4883"/><text fill="#000000" font-family="sans-serif" font-size="14" font-weight="bold" lengthAdjust="spacing" textLength="74" x="478" y="520.0234">row_count</text><text fill="#000000" font-family="sans-serif" font-size="14" lengthAdjust="spacing" textLength="18" x="582" y="520.0234">10</text><line style="stroke:#000000;stroke-width:1.0;" x1="577" x2="577" y1="504.4883" y2="524.9766"/><line style="stroke:#000000;stroke-width:1.0;" x1="473" x2="744" y1="524.9766" y2="524.9766"/><text fill="#000000" font-family="sans-serif" font-size="14" font-weight="bold" lengthAdjust="spacing" textLength="94" x="478" y="540.5117">ratio_percent</text><text fill="#000000" font-family="sans-serif" font-size="14" lengthAdjust="spacing" textLength="157" x="582" y="540.5117">2.5316455696202533</text><line style="stroke:#000000;stroke-width:1.0;" x1="577" x2="577" y1="524.9766" y2="545.4648"/><rect fill="none" height="61.4648" rx="5" ry="5" style="stroke:#000000;stroke-width:1.5;" width="271" x="473" y="484"/><rect fill="#F1F1F1" height="61.4648" rx="5" ry="5" style="stroke:#F1F1F1;stroke-width:1.5;" width="262" x="477.5" y="563"/><text fill="#000000" font-family="sans-serif" font-size="14" font-weight="bold" lengthAdjust="spacing" textLength="78" x="482.5" y="578.5352">field_value</text><text fill="#000000" font-family="sans-serif" font-size="14" lengthAdjust="spacing" textLength="58" x="586.5" y="578.5352">1301.36</text><line style="stroke:#000000;stroke-width:1.0;" x1="581.5" x2="581.5" y1="563" y2="583.4883"/><line style="stroke:#000000;stroke-width:1.0;" x1="477.5" x2="739.5" y1="583.4883" y2="583.4883"/><text fill="#000000" font-family="sans-serif" font-size="14" font-weight="bold" lengthAdjust="spacing" textLength="74" x="482.5" y="599.0234">row_count</text><text fill="#000000" font-family="sans-serif" font-size="14" lengthAdjust="spacing" textLength="9" x="586.5" y="599.0234">9</text><line style="stroke:#000000;stroke-width:1.0;" x1="581.5" x2="581.5" y1="583.4883" y2="603.9766"/><line style="stroke:#000000;stroke-width:1.0;" x1="477.5" x2="739.5" y1="603.9766" y2="603.9766"/><text fill="#000000" font-family="sans-serif" font-size="14" font-weight="bold" lengthAdjust="spacing" textLength="94" x="482.5" y="619.5117">ratio_percent</text><text fill="#000000" font-family="sans-serif" font-size="14" lengthAdjust="spacing" textLength="148" x="586.5" y="619.5117">2.278481012658228</text><line style="stroke:#000000;stroke-width:1.0;" x1="581.5" x2="581.5" y1="603.9766" y2="624.4648"/><rect fill="none" height="61.4648" rx="5" ry="5" style="stroke:#000000;stroke-width:1.5;" width="262" x="477.5" y="563"/><rect fill="#F1F1F1" height="61.4648" rx="5" ry="5" style="stroke:#F1F1F1;stroke-width:1.5;" width="262" x="477.5" y="642"/><text fill="#000000" font-family="sans-serif" font-size="14" font-weight="bold" lengthAdjust="spacing" textLength="78" x="482.5" y="657.5352">field_value</text><text fill="#000000" font-family="sans-serif" font-size="14" lengthAdjust="spacing" textLength="58" x="586.5" y="657.5352">1431.50</text><line style="stroke:#000000;stroke-width:1.0;" x1="581.5" x2="581.5" y1="642" y2="662.4883"/><line style="stroke:#000000;stroke-width:1.0;" x1="477.5" x2="739.5" y1="662.4883" y2="662.4883"/><text fill="#000000" font-family="sans-serif" font-size="14" font-weight="bold" lengthAdjust="spacing" textLength="74" x="482.5" y="678.0234">row_count</text><text fill="#000000" font-family="sans-serif" font-size="14" lengthAdjust="spacing" textLength="9" x="586.5" y="678.0234">9</text><line style="stroke:#000000;stroke-width:1.0;" x1="581.5" x2="581.5" y1="662.4883" y2="682.9766"/><line style="stroke:#000000;stroke-width:1.0;" x1="477.5" x2="739.5" y1="682.9766" y2="682.9766"/><text fill="#000000" font-family="sans-serif" font-size="14" font-weight="bold" lengthAdjust="spacing" textLength="94" x="482.5" y="698.5117">ratio_percent</text><text fill="#000000" font-family="sans-serif" font-size="14" lengthAdjust="spacing" textLength="148" x="586.5" y="698.5117">2.278481012658228</text><line style="stroke:#000000;stroke-width:1.0;" x1="581.5" x2="581.5" y1="682.9766" y2="703.4648"/><rect fill="none" height="61.4648" rx="5" ry="5" style="stroke:#000000;stroke-width:1.5;" width="262" x="477.5" y="642"/><rect fill="#F1F1F1" height="61.4648" rx="5" ry="5" style="stroke:#F1F1F1;stroke-width:1.5;" width="262" x="477.5" y="721"/><text fill="#000000" font-family="sans-serif" font-size="14" font-weight="bold" lengthAdjust="spacing" textLength="78" x="482.5" y="736.5352">field_value</text><text fill="#000000" font-family="sans-serif" font-size="14" lengthAdjust="spacing" textLength="49" x="586.5" y="736.5352">539.99</text><line style="stroke:#000000;stroke-width:1.0;" x1="581.5" x2="581.5" y1="721" y2="741.4883"/><line style="stroke:#000000;stroke-width:1.0;" x1="477.5" x2="739.5" y1="741.4883" y2="741.4883"/><text fill="#000000" font-family="sans-serif" font-size="14" font-weight="bold" lengthAdjust="spacing" textLength="74" x="482.5" y="757.0234">row_count</text><text fill="#000000" font-family="sans-serif" font-size="14" lengthAdjust="spacing" textLength="9" x="586.5" y="757.0234">9</text><line style="stroke:#000000;stroke-width:1.0;" x1="581.5" x2="581.5" y1="741.4883" y2="761.9766"/><line style="stroke:#000000;stroke-width:1.0;" x1="477.5" x2="739.5" y1="761.9766" y2="761.9766"/><text fill="#000000" font-family="sans-serif" font-size="14" font-weight="bold" lengthAdjust="spacing" textLength="94" x="482.5" y="777.5117">ratio_percent</text><text fill="#000000" font-family="sans-serif" font-size="14" lengthAdjust="spacing" textLength="148" x="586.5" y="777.5117">2.278481012658228</text><line style="stroke:#000000;stroke-width:1.0;" x1="581.5" x2="581.5" y1="761.9766" y2="782.4648"/><rect fill="none" height="61.4648" rx="5" ry="5" style="stroke:#000000;stroke-width:1.5;" width="262" x="477.5" y="721"/><path d="M198,315.5 L211,315.5 C231.8273,315.5 228.7406,295.5187 247,285.5 C251.1394,283.2288 255.4771,281.0988 259.9224,279.1061 " fill="none" style="stroke:#000000;stroke-width:1.0;stroke-dasharray:3.0,3.0;"/><path d="M261.1301,281.9305 L262.0407,278.2004 L258.7148,276.2817 L266.9835,276.0871 L261.1301,281.9305 " fill="#000000" style="stroke:#000000;stroke-width:1.0;"/><ellipse cx="198" cy="315.5" fill="#000000" rx="3" ry="3" style="stroke:#000000;stroke-width:1.0;"/><path d="M342,303.5 L355,303.5 C392.3122,303.5 411.1906,312.4458 437,285.5 C501.2901,218.3792 410.93,148.679 473,79.5 C474.0081,78.3765 475.0463,77.2844 476.1126,76.2231 " fill="none" style="stroke:#000000;stroke-width:1.0;stroke-dasharray:3.0,3.0;"/><path d="M478.1347,78.4455 L477.7795,74.7065 L474.0905,74.0006 L481.6688,71.1678 L478.1347,78.4455 " fill="#000000" style="stroke:#000000;stroke-width:1.0;"/><ellipse cx="342" cy="303.5" fill="#000000" rx="3" ry="3" style="stroke:#000000;stroke-width:1.0;"/><path d="M342,324.5 L355,324.5 C395.3564,324.5 410.9543,316.3264 437,285.5 C474.864,240.686 431.6193,200.0887 473,158.5 C474.2233,157.2705 475.4828,156.0793 476.7755,154.925 " fill="none" style="stroke:#000000;stroke-width:1.0;stroke-dasharray:3.0,3.0;"/><path d="M478.7064,157.2737 L478.537,153.4769 L474.8447,152.5764 L482.6472,150.0978 L478.7064,157.2737 " fill="#000000" style="stroke:#000000;stroke-width:1.0;"/><ellipse cx="342" cy="324.5" fill="#000000" rx="3" ry="3" style="stroke:#000000;stroke-width:1.0;"/><path d="M342,344.5 L355,344.5 C399.8977,344.5 404.9398,316.9316 437,285.5 C456.0419,266.8314 451.0554,252.6508 473,237.5 C475.3464,235.88 477.7599,234.3267 480.2295,232.8373 " fill="none" style="stroke:#000000;stroke-width:1.0;stroke-dasharray:3.0,3.0;"/><path d="M481.7476,235.5016 L482.2277,231.6987 L478.7115,230.173 L486.8903,229.0421 L481.7476,235.5016 " fill="#000000" style="stroke:#000000;stroke-width:1.0;"/><ellipse cx="342" cy="344.5" fill="#000000" rx="3" ry="3" style="stroke:#000000;stroke-width:1.0;"/><path d="M342,365.5 L355,365.5 C411.6174,365.5 419.5709,336.2315 473,317.5 C479.8339,315.1041 486.894,312.7271 494.0365,310.3966 " fill="none" style="stroke:#000000;stroke-width:1.0;stroke-dasharray:3.0,3.0;"/><path d="M494.9621,313.2625 L496.1859,309.7025 L493.1109,307.5308 L501.2011,308.0827 L494.9621,313.2625 " fill="#000000" style="stroke:#000000;stroke-width:1.0;"/><ellipse cx="342" cy="365.5" fill="#000000" rx="3" ry="3" style="stroke:#000000;stroke-width:1.0;"/><path d="M342,385.5 L355,385.5 C391.0127,385.5 429.7224,382.5639 465.7667,378.5603 " fill="none" style="stroke:#000000;stroke-width:1.0;stroke-dasharray:3.0,3.0;"/><path d="M466.1147,381.6199 L468.0615,378.2993 L465.4188,375.5006 L473.4158,377.6904 L466.1147,381.6199 " fill="#000000" style="stroke:#000000;stroke-width:1.0;"/><ellipse cx="342" cy="385.5" fill="#000000" rx="3" ry="3" style="stroke:#000000;stroke-width:1.0;"/><path d="M342,406.5 L355,406.5 C391.0127,406.5 429.7224,409.4361 465.7667,413.4397 " fill="none" style="stroke:#000000;stroke-width:1.0;stroke-dasharray:3.0,3.0;"/><path d="M465.4188,416.4994 L468.0615,413.7007 L466.1147,410.3801 L473.4158,414.3096 L465.4188,416.4994 " fill="#000000" style="stroke:#000000;stroke-width:1.0;"/><ellipse cx="342" cy="406.5" fill="#000000" rx="3" ry="3" style="stroke:#000000;stroke-width:1.0;"/><path d="M342,427.5 L355,427.5 C411.6174,427.5 419.5074,456.9509 473,475.5 C478.9641,477.5681 485.1016,479.6165 491.3168,481.6282 " fill="none" style="stroke:#000000;stroke-width:1.0;stroke-dasharray:3.0,3.0;"/><path d="M490.3793,484.5585 L493.5145,482.3313 L492.2542,478.6979 L498.6426,483.9718 L490.3793,484.5585 " fill="#000000" style="stroke:#000000;stroke-width:1.0;"/><ellipse cx="342" cy="427.5" fill="#000000" rx="3" ry="3" style="stroke:#000000;stroke-width:1.0;"/><path d="M342,447.5 L355,447.5 C425.7951,447.5 411.1756,520.008 473,554.5 C476.2257,556.2996 479.542,558.0227 482.9269,559.6722 " fill="none" style="stroke:#000000;stroke-width:1.0;stroke-dasharray:3.0,3.0;"/><path d="M481.6137,562.4872 L485.0382,560.6571 L484.2402,556.8572 L489.9644,562.9553 L481.6137,562.4872 " fill="#000000" style="stroke:#000000;stroke-width:1.0;"/><ellipse cx="342" cy="447.5" fill="#000000" rx="3" ry="3" style="stroke:#000000;stroke-width:1.0;"/><path d="M342,468.5 L355,468.5 C445.1565,468.5 399.3939,581.439 473,633.5 C475.1411,635.0144 477.3405,636.4704 479.5894,637.8702 " fill="none" style="stroke:#000000;stroke-width:1.0;stroke-dasharray:3.0,3.0;"/><path d="M477.9762,640.6249 L481.6554,639.0801 L481.2026,635.1155 L486.4762,641.9033 L477.9762,640.6249 " fill="#000000" style="stroke:#000000;stroke-width:1.0;"/><ellipse cx="342" cy="468.5" fill="#000000" rx="3" ry="3" style="stroke:#000000;stroke-width:1.0;"/><path d="M342,488.5 L355,488.5 C467.5243,488.5 385.7588,641.4317 473,712.5 C474.7289,713.9084 476.5064,715.2659 478.3269,716.5744 " fill="none" style="stroke:#000000;stroke-width:1.0;stroke-dasharray:3.0,3.0;"/><path d="M476.6218,719.1133 L480.2311,717.8533 L480.032,714.0356 L484.674,720.8372 L476.6218,719.1133 " fill="#000000" style="stroke:#000000;stroke-width:1.0;"/><ellipse cx="342" cy="488.5" fill="#000000" rx="3" ry="3" style="stroke:#000000;stroke-width:1.0;"/><path d="M198,336.5 L211,336.5 C254.8518,336.5 300.0003,364.993 323.8339,382.7089 " fill="none" style="stroke:#000000;stroke-width:1.0;stroke-dasharray:3.0,3.0;"/><path d="M321.9625,385.1642 L325.6753,384.1124 L325.7052,380.2536 L329.9721,387.3873 L321.9625,385.1642 " fill="#000000" style="stroke:#000000;stroke-width:1.0;"/><ellipse cx="198" cy="336.5" fill="#000000" rx="3" ry="3" style="stroke:#000000;stroke-width:1.0;"/><!--MD5=[7ef3673d320d9d3f7f3abebd330b9f5d]
@startjson
{
    "field1": "ListPrice",
    "combination": "ListPrice",
    "null_distribution": {
        "total_null_rows": 0,
        "total_not_null_rows": 395
    },
    "data_distribution": [
        {
            "field_value": "306.56",
            "row_count": 12,
            "ratio_percent": 3.037974683544304
        },
        {
            "field_value": "337.22",
            "row_count": 12,
            "ratio_percent": 3.037974683544304
        },
        {
            "field_value": "699.10",
            "row_count": 12,
            "ratio_percent": 3.037974683544304
        },
        {
            "field_value": "782.99",
            "row_count": 12,
            "ratio_percent": 3.037974683544304
        },
        {
            "field_value": "333.42",
            "row_count": 10,
            "ratio_percent": 2.5316455696202533
        },
        {
            "field_value": "594.83",
            "row_count": 10,
            "ratio_percent": 2.5316455696202533
        },
        {
            "field_value": "742.35",
            "row_count": 10,
            "ratio_percent": 2.5316455696202533
        },
        {
            "field_value": "1301.36",
            "row_count": 9,
            "ratio_percent": 2.278481012658228
        },
        {
            "field_value": "1431.50",
            "row_count": 9,
            "ratio_percent": 2.278481012658228
        },
        {
            "field_value": "539.99",
            "row_count": 9,
            "ratio_percent": 2.278481012658228
        }
    ]
}
@endjson

PlantUML version 1.2022.5(Sat Apr 30 06:55:52 EDT 2022)
(GPL source distribution)
Java Runtime: OpenJDK Runtime Environment
JVM: OpenJDK 64-Bit Server VM
Default Encoding: UTF-8
Language: en
Country: CA
--></g></svg>