<?xml version="1.0" encoding="UTF-8" standalone="no"?><svg xmlns="http://www.w3.org/2000/svg" xmlns:xlink="http://www.w3.org/1999/xlink" contentStyleType="text/css" height="794px" preserveAspectRatio="none" style="width:868px;height:794px;background:#FFFFFF;" version="1.1" viewBox="0 0 868 794" width="868px" zoomAndPan="magnify"><defs/><g><rect fill="#F1F1F1" height="81.9531" rx="5" ry="5" style="stroke:#F1F1F1;stroke-width:1.5;" width="294" x="10" y="264.5"/><text fill="#000000" font-family="sans-serif" font-size="14" font-weight="bold" lengthAdjust="spacing" textLength="42" x="15" y="280.0352">field1</text><text fill="#000000" font-family="sans-serif" font-size="14" lengthAdjust="spacing" textLength="150" x="149" y="280.0352">ReferenceOrderLineID</text><line style="stroke:#000000;stroke-width:1.0;" x1="144" x2="144" y1="264.5" y2="284.9883"/><line style="stroke:#000000;stroke-width:1.0;" x1="10" x2="304" y1="284.9883" y2="284.9883"/><text fill="#000000" font-family="sans-serif" font-size="14" font-weight="bold" lengthAdjust="spacing" textLength="90" x="15" y="300.5234">combination</text><text fill="#000000" font-family="sans-serif" font-size="14" lengthAdjust="spacing" textLength="150" x="149" y="300.5234">ReferenceOrderLineID</text><line style="stroke:#000000;stroke-width:1.0;" x1="144" x2="144" y1="284.9883" y2="305.4766"/><line style="stroke:#000000;stroke-width:1.0;" x1="10" x2="304" y1="305.4766" y2="305.4766"/><text fill="#000000" font-family="sans-serif" font-size="14" font-weight="bold" lengthAdjust="spacing" textLength="121" x="15" y="321.0117">null_distribution</text><text fill="#000000" font-family="sans-serif" font-size="14" lengthAdjust="spacing" textLength="12" x="149" y="321.0117">   </text><line style="stroke:#000000;stroke-width:1.0;" x1="144" x2="144" y1="305.4766" y2="325.9648"/><line style="stroke:#000000;stroke-width:1.0;" x1="10" x2="304" y1="325.9648" y2="325.9648"/><text fill="#000000" font-family="sans-serif" font-size="14" font-weight="bold" lengthAdjust="spacing" textLength="124" x="15" y="341.5">data_distribution</text><text fill="#000000" font-family="sans-serif" font-size="14" lengthAdjust="spacing" textLength="12" x="149" y="341.5">   </text><line style="stroke:#000000;stroke-width:1.0;" x1="144" x2="144" y1="325.9648" y2="346.4531"/><rect fill="none" height="81.9531" rx="5" ry="5" style="stroke:#000000;stroke-width:1.5;" width="294" x="10" y="264.5"/><rect fill="#F1F1F1" height="40.9766" rx="5" ry="5" style="stroke:#F1F1F1;stroke-width:1.5;" width="207" x="341" y="235"/><text fill="#000000" font-family="sans-serif" font-size="14" font-weight="bold" lengthAdjust="spacing" textLength="111" x="346" y="250.5352">total_null_rows</text><text fill="#000000" font-family="sans-serif" font-size="14" lengthAdjust="spacing" textLength="9" x="498" y="250.5352">0</text><line style="stroke:#000000;stroke-width:1.0;" x1="493" x2="493" y1="235" y2="255.4883"/><line style="stroke:#000000;stroke-width:1.0;" x1="341" x2="548" y1="255.4883" y2="255.4883"/><text fill="#000000" font-family="sans-serif" font-size="14" font-weight="bold" lengthAdjust="spacing" textLength="142" x="346" y="271.0234">total_not_null_rows</text><text fill="#000000" font-family="sans-serif" font-size="14" lengthAdjust="spacing" textLength="45" x="498" y="271.0234">89253</text><line style="stroke:#000000;stroke-width:1.0;" x1="493" x2="493" y1="255.4883" y2="275.9766"/><rect fill="none" height="40.9766" rx="5" ry="5" style="stroke:#000000;stroke-width:1.5;" width="207" x="341" y="235"/><rect fill="#F1F1F1" height="204.8828" rx="5" ry="5" style="stroke:#F1F1F1;stroke-width:1.5;" width="22" x="432.5" y="294"/><text fill="#000000" font-family="sans-serif" font-size="14" lengthAdjust="spacing" textLength="12" x="437.5" y="309.5352">   </text><line style="stroke:#000000;stroke-width:1.0;" x1="432.5" x2="454.5" y1="314.4883" y2="314.4883"/><text fill="#000000" font-family="sans-serif" font-size="14" lengthAdjust="spacing" textLength="12" x="437.5" y="330.0234">   </text><line style="stroke:#000000;stroke-width:1.0;" x1="432.5" x2="454.5" y1="334.9766" y2="334.9766"/><text fill="#000000" font-family="sans-serif" font-size="14" lengthAdjust="spacing" textLength="12" x="437.5" y="350.5117">   </text><line style="stroke:#000000;stroke-width:1.0;" x1="432.5" x2="454.5" y1="355.4648" y2="355.4648"/><text fill="#000000" font-family="sans-serif" font-size="14" lengthAdjust="spacing" textLength="12" x="437.5" y="371">   </text><line style="stroke:#000000;stroke-width:1.0;" x1="432.5" x2="454.5" y1="375.9531" y2="375.9531"/><text fill="#000000" font-family="sans-serif" font-size="14" lengthAdjust="spacing" textLength="12" x="437.5" y="391.4883">   </text><line style="stroke:#000000;stroke-width:1.0;" x1="432.5" x2="454.5" y1="396.4414" y2="396.4414"/><text fill="#000000" font-family="sans-serif" font-size="14" lengthAdjust="spacing" textLength="12" x="437.5" y="411.9766">   </text><line style="stroke:#000000;stroke-width:1.0;" x1="432.5" x2="454.5" y1="416.9297" y2="416.9297"/><text fill="#000000" font-family="sans-serif" font-size="14" lengthAdjust="spacing" textLength="12" x="437.5" y="432.4648">   </text><line style="stroke:#000000;stroke-width:1.0;" x1="432.5" x2="454.5" y1="437.418" y2="437.418"/><text fill="#000000" font-family="sans-serif" font-size="14" lengthAdjust="spacing" textLength="12" x="437.5" y="452.9531">   </text><line style="stroke:#000000;stroke-width:1.0;" x1="432.5" x2="454.5" y1="457.9063" y2="457.9063"/><text fill="#000000" font-family="sans-serif" font-size="14" lengthAdjust="spacing" textLength="12" x="437.5" y="473.4414">   </text><line style="stroke:#000000;stroke-width:1.0;" x1="432.5" x2="454.5" y1="478.3945" y2="478.3945"/><text fill="#000000" font-family="sans-serif" font-size="14" lengthAdjust="spacing" textLength="12" x="437.5" y="493.9297">   </text><rect fill="none" height="204.8828" rx="5" ry="5" style="stroke:#000000;stroke-width:1.5;" width="22" x="432.5" y="294"/><rect fill="#F1F1F1" height="61.4648" rx="5" ry="5" style="stroke:#F1F1F1;stroke-width:1.5;" width="262" x="589.5" y="10"/><text fill="#000000" font-family="sans-serif" font-size="14" font-weight="bold" lengthAdjust="spacing" textLength="78" x="594.5" y="25.5352">field_value</text><text fill="#000000" font-family="sans-serif" font-size="14" lengthAdjust="spacing" textLength="9" x="698.5" y="25.5352">0</text><line style="stroke:#000000;stroke-width:1.0;" x1="693.5" x2="693.5" y1="10" y2="30.4883"/><line style="stroke:#000000;stroke-width:1.0;" x1="589.5" x2="851.5" y1="30.4883" y2="30.4883"/><text fill="#000000" font-family="sans-serif" font-size="14" font-weight="bold" lengthAdjust="spacing" textLength="74" x="594.5" y="46.0234">row_count</text><text fill="#000000" font-family="sans-serif" font-size="14" lengthAdjust="spacing" textLength="45" x="698.5" y="46.0234">41589</text><line style="stroke:#000000;stroke-width:1.0;" x1="693.5" x2="693.5" y1="30.4883" y2="50.9766"/><line style="stroke:#000000;stroke-width:1.0;" x1="589.5" x2="851.5" y1="50.9766" y2="50.9766"/><text fill="#000000" font-family="sans-serif" font-size="14" font-weight="bold" lengthAdjust="spacing" textLength="94" x="594.5" y="66.5117">ratio_percent</text><text fill="#000000" font-family="sans-serif" font-size="14" lengthAdjust="spacing" textLength="148" x="698.5" y="66.5117">46.59675305031764</text><line style="stroke:#000000;stroke-width:1.0;" x1="693.5" x2="693.5" y1="50.9766" y2="71.4648"/><rect fill="none" height="61.4648" rx="5" ry="5" style="stroke:#000000;stroke-width:1.5;" width="262" x="589.5" y="10"/><rect fill="#F1F1F1" height="61.4648" rx="5" ry="5" style="stroke:#F1F1F1;stroke-width:1.5;" width="271" x="585" y="89"/><text fill="#000000" font-family="sans-serif" font-size="14" font-weight="bold" lengthAdjust="spacing" textLength="78" x="590" y="104.5352">field_value</text><text fill="#000000" font-family="sans-serif" font-size="14" lengthAdjust="spacing" textLength="9" x="694" y="104.5352">1</text><line style="stroke:#000000;stroke-width:1.0;" x1="689" x2="689" y1="89" y2="109.4883"/><line style="stroke:#000000;stroke-width:1.0;" x1="585" x2="856" y1="109.4883" y2="109.4883"/><text fill="#000000" font-family="sans-serif" font-size="14" font-weight="bold" lengthAdjust="spacing" textLength="74" x="590" y="125.0234">row_count</text><text fill="#000000" font-family="sans-serif" font-size="14" lengthAdjust="spacing" textLength="45" x="694" y="125.0234">10207</text><line style="stroke:#000000;stroke-width:1.0;" x1="689" x2="689" y1="109.4883" y2="129.9766"/><line style="stroke:#000000;stroke-width:1.0;" x1="585" x2="856" y1="129.9766" y2="129.9766"/><text fill="#000000" font-family="sans-serif" font-size="14" font-weight="bold" lengthAdjust="spacing" textLength="94" x="590" y="145.5117">ratio_percent</text><text fill="#000000" font-family="sans-serif" font-size="14" lengthAdjust="spacing" textLength="157" x="694" y="145.5117">11.436030161451155</text><line style="stroke:#000000;stroke-width:1.0;" x1="689" x2="689" y1="129.9766" y2="150.4648"/><rect fill="none" height="61.4648" rx="5" ry="5" style="stroke:#000000;stroke-width:1.5;" width="271" x="585" y="89"/><rect fill="#F1F1F1" height="61.4648" rx="5" ry="5" style="stroke:#F1F1F1;stroke-width:1.5;" width="262" x="589.5" y="168"/><text fill="#000000" font-family="sans-serif" font-size="14" font-weight="bold" lengthAdjust="spacing" textLength="78" x="594.5" y="183.5352">field_value</text><text fill="#000000" font-family="sans-serif" font-size="14" lengthAdjust="spacing" textLength="9" x="698.5" y="183.5352">2</text><line style="stroke:#000000;stroke-width:1.0;" x1="693.5" x2="693.5" y1="168" y2="188.4883"/><line style="stroke:#000000;stroke-width:1.0;" x1="589.5" x2="851.5" y1="188.4883" y2="188.4883"/><text fill="#000000" font-family="sans-serif" font-size="14" font-weight="bold" lengthAdjust="spacing" textLength="74" x="594.5" y="204.0234">row_count</text><text fill="#000000" font-family="sans-serif" font-size="14" lengthAdjust="spacing" textLength="36" x="698.5" y="204.0234">3867</text><line style="stroke:#000000;stroke-width:1.0;" x1="693.5" x2="693.5" y1="188.4883" y2="208.9766"/><line style="stroke:#000000;stroke-width:1.0;" x1="589.5" x2="851.5" y1="208.9766" y2="208.9766"/><text fill="#000000" font-family="sans-serif" font-size="14" font-weight="bold" lengthAdjust="spacing" textLength="94" x="594.5" y="224.5117">ratio_percent</text><text fill="#000000" font-family="sans-serif" font-size="14" lengthAdjust="spacing" textLength="148" x="698.5" y="224.5117">4.332627474706732</text><line style="stroke:#000000;stroke-width:1.0;" x1="693.5" x2="693.5" y1="208.9766" y2="229.4648"/><rect fill="none" height="61.4648" rx="5" ry="5" style="stroke:#000000;stroke-width:1.5;" width="262" x="589.5" y="168"/><rect fill="#F1F1F1" height="61.4648" rx="5" ry="5" style="stroke:#F1F1F1;stroke-width:1.5;" width="262" x="589.5" y="247"/><text fill="#000000" font-family="sans-serif" font-size="14" font-weight="bold" lengthAdjust="spacing" textLength="78" x="594.5" y="262.5352">field_value</text><text fill="#000000" font-family="sans-serif" font-size="14" lengthAdjust="spacing" textLength="9" x="698.5" y="262.5352">3</text><line style="stroke:#000000;stroke-width:1.0;" x1="693.5" x2="693.5" y1="247" y2="267.4883"/><line style="stroke:#000000;stroke-width:1.0;" x1="589.5" x2="851.5" y1="267.4883" y2="267.4883"/><text fill="#000000" font-family="sans-serif" font-size="14" font-weight="bold" lengthAdjust="spacing" textLength="74" x="594.5" y="283.0234">row_count</text><text fill="#000000" font-family="sans-serif" font-size="14" lengthAdjust="spacing" textLength="36" x="698.5" y="283.0234">2826</text><line style="stroke:#000000;stroke-width:1.0;" x1="693.5" x2="693.5" y1="267.4883" y2="287.9766"/><line style="stroke:#000000;stroke-width:1.0;" x1="589.5" x2="851.5" y1="287.9766" y2="287.9766"/><text fill="#000000" font-family="sans-serif" font-size="14" font-weight="bold" lengthAdjust="spacing" textLength="94" x="594.5" y="303.5117">ratio_percent</text><text fill="#000000" font-family="sans-serif" font-size="14" lengthAdjust="spacing" textLength="148" x="698.5" y="303.5117">3.166280125037814</text><line style="stroke:#000000;stroke-width:1.0;" x1="693.5" x2="693.5" y1="287.9766" y2="308.4648"/><rect fill="none" height="61.4648" rx="5" ry="5" style="stroke:#000000;stroke-width:1.5;" width="262" x="589.5" y="247"/><rect fill="#F1F1F1" height="61.4648" rx="5" ry="5" style="stroke:#F1F1F1;stroke-width:1.5;" width="271" x="585" y="326"/><text fill="#000000" font-family="sans-serif" font-size="14" font-weight="bold" lengthAdjust="spacing" textLength="78" x="590" y="341.5352">field_value</text><text fill="#000000" font-family="sans-serif" font-size="14" lengthAdjust="spacing" textLength="9" x="694" y="341.5352">4</text><line style="stroke:#000000;stroke-width:1.0;" x1="689" x2="689" y1="326" y2="346.4883"/><line style="stroke:#000000;stroke-width:1.0;" x1="585" x2="856" y1="346.4883" y2="346.4883"/><text fill="#000000" font-family="sans-serif" font-size="14" font-weight="bold" lengthAdjust="spacing" textLength="74" x="590" y="362.0234">row_count</text><text fill="#000000" font-family="sans-serif" font-size="14" lengthAdjust="spacing" textLength="36" x="694" y="362.0234">2078</text><line style="stroke:#000000;stroke-width:1.0;" x1="689" x2="689" y1="346.4883" y2="366.9766"/><line style="stroke:#000000;stroke-width:1.0;" x1="585" x2="856" y1="366.9766" y2="366.9766"/><text fill="#000000" font-family="sans-serif" font-size="14" font-weight="bold" lengthAdjust="spacing" textLength="94" x="590" y="382.5117">ratio_percent</text><text fill="#000000" font-family="sans-serif" font-size="14" lengthAdjust="spacing" textLength="157" x="694" y="382.5117">2.3282130572641817</text><line style="stroke:#000000;stroke-width:1.0;" x1="689" x2="689" y1="366.9766" y2="387.4648"/><rect fill="none" height="61.4648" rx="5" ry="5" style="stroke:#000000;stroke-width:1.5;" width="271" x="585" y="326"/><rect fill="#F1F1F1" height="61.4648" rx="5" ry="5" style="stroke:#F1F1F1;stroke-width:1.5;" width="271" x="585" y="405"/><text fill="#000000" font-family="sans-serif" font-size="14" font-weight="bold" lengthAdjust="spacing" textLength="78" x="590" y="420.5352">field_value</text><text fill="#000000" font-family="sans-serif" font-size="14" lengthAdjust="spacing" textLength="9" x="694" y="420.5352">5</text><line style="stroke:#000000;stroke-width:1.0;" x1="689" x2="689" y1="405" y2="425.4883"/><line style="stroke:#000000;stroke-width:1.0;" x1="585" x2="856" y1="425.4883" y2="425.4883"/><text fill="#000000" font-family="sans-serif" font-size="14" font-weight="bold" lengthAdjust="spacing" textLength="74" x="590" y="441.0234">row_count</text><text fill="#000000" font-family="sans-serif" font-size="14" lengthAdjust="spacing" textLength="36" x="694" y="441.0234">1632</text><line style="stroke:#000000;stroke-width:1.0;" x1="689" x2="689" y1="425.4883" y2="445.9766"/><line style="stroke:#000000;stroke-width:1.0;" x1="585" x2="856" y1="445.9766" y2="445.9766"/><text fill="#000000" font-family="sans-serif" font-size="14" font-weight="bold" lengthAdjust="spacing" textLength="94" x="590" y="461.5117">ratio_percent</text><text fill="#000000" font-family="sans-serif" font-size="14" lengthAdjust="spacing" textLength="157" x="694" y="461.5117">1.8285099660515614</text><line style="stroke:#000000;stroke-width:1.0;" x1="689" x2="689" y1="445.9766" y2="466.4648"/><rect fill="none" height="61.4648" rx="5" ry="5" style="stroke:#000000;stroke-width:1.5;" width="271" x="585" y="405"/><rect fill="#F1F1F1" height="61.4648" rx="5" ry="5" style="stroke:#F1F1F1;stroke-width:1.5;" width="271" x="585" y="484"/><text fill="#000000" font-family="sans-serif" font-size="14" font-weight="bold" lengthAdjust="spacing" textLength="78" x="590" y="499.5352">field_value</text><text fill="#000000" font-family="sans-serif" font-size="14" lengthAdjust="spacing" textLength="9" x="694" y="499.5352">6</text><line style="stroke:#000000;stroke-width:1.0;" x1="689" x2="689" y1="484" y2="504.4883"/><line style="stroke:#000000;stroke-width:1.0;" x1="585" x2="856" y1="504.4883" y2="504.4883"/><text fill="#000000" font-family="sans-serif" font-size="14" font-weight="bold" lengthAdjust="spacing" textLength="74" x="590" y="520.0234">row_count</text><text fill="#000000" font-family="sans-serif" font-size="14" lengthAdjust="spacing" textLength="36" x="694" y="520.0234">1455</text><line style="stroke:#000000;stroke-width:1.0;" x1="689" x2="689" y1="504.4883" y2="524.9766"/><line style="stroke:#000000;stroke-width:1.0;" x1="585" x2="856" y1="524.9766" y2="524.9766"/><text fill="#000000" font-family="sans-serif" font-size="14" font-weight="bold" lengthAdjust="spacing" textLength="94" x="590" y="540.5117">ratio_percent</text><text fill="#000000" font-family="sans-serif" font-size="14" lengthAdjust="spacing" textLength="157" x="694" y="540.5117">1.6301973042922926</text><line style="stroke:#000000;stroke-width:1.0;" x1="689" x2="689" y1="524.9766" y2="545.4648"/><rect fill="none" height="61.4648" rx="5" ry="5" style="stroke:#000000;stroke-width:1.5;" width="271" x="585" y="484"/><rect fill="#F1F1F1" height="61.4648" rx="5" ry="5" style="stroke:#F1F1F1;stroke-width:1.5;" width="271" x="585" y="563"/><text fill="#000000" font-family="sans-serif" font-size="14" font-weight="bold" lengthAdjust="spacing" textLength="78" x="590" y="578.5352">field_value</text><text fill="#000000" font-family="sans-serif" font-size="14" lengthAdjust="spacing" textLength="9" x="694" y="578.5352">7</text><line style="stroke:#000000;stroke-width:1.0;" x1="689" x2="689" y1="563" y2="583.4883"/><line style="stroke:#000000;stroke-width:1.0;" x1="585" x2="856" y1="583.4883" y2="583.4883"/><text fill="#000000" font-family="sans-serif" font-size="14" font-weight="bold" lengthAdjust="spacing" textLength="74" x="590" y="599.0234">row_count</text><text fill="#000000" font-family="sans-serif" font-size="14" lengthAdjust="spacing" textLength="36" x="694" y="599.0234">1359</text><line style="stroke:#000000;stroke-width:1.0;" x1="689" x2="689" y1="583.4883" y2="603.9766"/><line style="stroke:#000000;stroke-width:1.0;" x1="585" x2="856" y1="603.9766" y2="603.9766"/><text fill="#000000" font-family="sans-serif" font-size="14" font-weight="bold" lengthAdjust="spacing" textLength="94" x="590" y="619.5117">ratio_percent</text><text fill="#000000" font-family="sans-serif" font-size="14" lengthAdjust="spacing" textLength="157" x="694" y="619.5117">1.5226378945245538</text><line style="stroke:#000000;stroke-width:1.0;" x1="689" x2="689" y1="603.9766" y2="624.4648"/><rect fill="none" height="61.4648" rx="5" ry="5" style="stroke:#000000;stroke-width:1.5;" width="271" x="585" y="563"/><rect fill="#F1F1F1" height="61.4648" rx="5" ry="5" style="stroke:#F1F1F1;stroke-width:1.5;" width="271" x="585" y="642"/><text fill="#000000" font-family="sans-serif" font-size="14" font-weight="bold" lengthAdjust="spacing" textLength="78" x="590" y="657.5352">field_value</text><text fill="#000000" font-family="sans-serif" font-size="14" lengthAdjust="spacing" textLength="9" x="694" y="657.5352">8</text><line style="stroke:#000000;stroke-width:1.0;" x1="689" x2="689" y1="642" y2="662.4883"/><line style="stroke:#000000;stroke-width:1.0;" x1="585" x2="856" y1="662.4883" y2="662.4883"/><text fill="#000000" font-family="sans-serif" font-size="14" font-weight="bold" lengthAdjust="spacing" textLength="74" x="590" y="678.0234">row_count</text><text fill="#000000" font-family="sans-serif" font-size="14" lengthAdjust="spacing" textLength="36" x="694" y="678.0234">1286</text><line style="stroke:#000000;stroke-width:1.0;" x1="689" x2="689" y1="662.4883" y2="682.9766"/><line style="stroke:#000000;stroke-width:1.0;" x1="585" x2="856" y1="682.9766" y2="682.9766"/><text fill="#000000" font-family="sans-serif" font-size="14" font-weight="bold" lengthAdjust="spacing" textLength="94" x="590" y="698.5117">ratio_percent</text><text fill="#000000" font-family="sans-serif" font-size="14" lengthAdjust="spacing" textLength="157" x="694" y="698.5117">1.4408479266803356</text><line style="stroke:#000000;stroke-width:1.0;" x1="689" x2="689" y1="682.9766" y2="703.4648"/><rect fill="none" height="61.4648" rx="5" ry="5" style="stroke:#000000;stroke-width:1.5;" width="271" x="585" y="642"/><rect fill="#F1F1F1" height="61.4648" rx="5" ry="5" style="stroke:#F1F1F1;stroke-width:1.5;" width="271" x="585" y="721"/><text fill="#000000" font-family="sans-serif" font-size="14" font-weight="bold" lengthAdjust="spacing" textLength="78" x="590" y="736.5352">field_value</text><text fill="#000000" font-family="sans-serif" font-size="14" lengthAdjust="spacing" textLength="9" x="694" y="736.5352">9</text><line style="stroke:#000000;stroke-width:1.0;" x1="689" x2="689" y1="721" y2="741.4883"/><line style="stroke:#000000;stroke-width:1.0;" x1="585" x2="856" y1="741.4883" y2="741.4883"/><text fill="#000000" font-family="sans-serif" font-size="14" font-weight="bold" lengthAdjust="spacing" textLength="74" x="590" y="757.0234">row_count</text><text fill="#000000" font-family="sans-serif" font-size="14" lengthAdjust="spacing" textLength="36" x="694" y="757.0234">1218</text><line style="stroke:#000000;stroke-width:1.0;" x1="689" x2="689" y1="741.4883" y2="761.9766"/><line style="stroke:#000000;stroke-width:1.0;" x1="585" x2="856" y1="761.9766" y2="761.9766"/><text fill="#000000" font-family="sans-serif" font-size="14" font-weight="bold" lengthAdjust="spacing" textLength="94" x="590" y="777.5117">ratio_percent</text><text fill="#000000" font-family="sans-serif" font-size="14" lengthAdjust="spacing" textLength="157" x="694" y="777.5117">1.3646600114281873</text><line style="stroke:#000000;stroke-width:1.0;" x1="689" x2="689" y1="761.9766" y2="782.4648"/><rect fill="none" height="61.4648" rx="5" ry="5" style="stroke:#000000;stroke-width:1.5;" width="271" x="585" y="721"/><path d="M292,315.5 L305,315.5 C325.8273,315.5 322.6143,295.285 341,285.5 C345.4187,283.1484 350.0447,280.9598 354.7859,278.9261 " fill="none" style="stroke:#000000;stroke-width:1.0;stroke-dasharray:3.0,3.0;"/><path d="M355.9339,281.7334 L356.8914,278.0652 L353.638,276.1189 L361.804,276.0563 L355.9339,281.7334 " fill="#000000" style="stroke:#000000;stroke-width:1.0;"/><ellipse cx="292" cy="315.5" fill="#000000" rx="3" ry="3" style="stroke:#000000;stroke-width:1.0;"/><path d="M445,303.5 L458,303.5 C499.2281,303.5 520.1738,314.9755 549,285.5 C613.9848,219.0516 522.93,148.679 585,79.5 C586.0081,78.3765 587.0463,77.2844 588.1126,76.2231 " fill="none" style="stroke:#000000;stroke-width:1.0;stroke-dasharray:3.0,3.0;"/><path d="M590.1347,78.4455 L589.7795,74.7065 L586.0905,74.0006 L593.6688,71.1678 L590.1347,78.4455 " fill="#000000" style="stroke:#000000;stroke-width:1.0;"/><ellipse cx="445" cy="303.5" fill="#000000" rx="3" ry="3" style="stroke:#000000;stroke-width:1.0;"/><path d="M445,324.5 L458,324.5 C502.0022,324.5 519.9505,318.5503 549,285.5 C587.7318,241.4339 543.6193,200.0887 585,158.5 C586.2233,157.2705 587.4828,156.0793 588.7755,154.925 " fill="none" style="stroke:#000000;stroke-width:1.0;stroke-dasharray:3.0,3.0;"/><path d="M590.7064,157.2737 L590.537,153.4769 L586.8447,152.5764 L594.6472,150.0978 L590.7064,157.2737 " fill="#000000" style="stroke:#000000;stroke-width:1.0;"/><ellipse cx="445" cy="324.5" fill="#000000" rx="3" ry="3" style="stroke:#000000;stroke-width:1.0;"/><path d="M445,344.5 L458,344.5 C506.2012,344.5 513.773,318.4001 549,285.5 C568.4889,267.2985 563.0554,252.6508 585,237.5 C587.3464,235.88 589.7599,234.3267 592.2295,232.8373 " fill="none" style="stroke:#000000;stroke-width:1.0;stroke-dasharray:3.0,3.0;"/><path d="M593.7476,235.5016 L594.2277,231.6987 L590.7115,230.173 L598.8903,229.0421 L593.7476,235.5016 " fill="#000000" style="stroke:#000000;stroke-width:1.0;"/><ellipse cx="445" cy="344.5" fill="#000000" rx="3" ry="3" style="stroke:#000000;stroke-width:1.0;"/><path d="M445,365.5 L458,365.5 C518.3414,365.5 527.8118,336.7507 585,317.5 C592.0371,315.1312 599.3048,312.7614 606.6494,310.4241 " fill="none" style="stroke:#000000;stroke-width:1.0;stroke-dasharray:3.0,3.0;"/><path d="M607.5794,313.3699 L608.8587,309.7266 L605.7193,307.4783 L614.0138,308.099 L607.5794,313.3699 " fill="#000000" style="stroke:#000000;stroke-width:1.0;"/><ellipse cx="445" cy="365.5" fill="#000000" rx="3" ry="3" style="stroke:#000000;stroke-width:1.0;"/><path d="M445,385.5 L458,385.5 C496.9351,385.5 538.9283,382.297 577.6467,378.02 " fill="none" style="stroke:#000000;stroke-width:1.0;stroke-dasharray:3.0,3.0;"/><path d="M577.9944,381.0993 L579.9562,377.7593 L577.2991,374.9407 L585.3449,377.1509 L577.9944,381.0993 " fill="#000000" style="stroke:#000000;stroke-width:1.0;"/><ellipse cx="445" cy="385.5" fill="#000000" rx="3" ry="3" style="stroke:#000000;stroke-width:1.0;"/><path d="M445,406.5 L458,406.5 C496.9351,406.5 538.9283,409.703 577.6467,413.98 " fill="none" style="stroke:#000000;stroke-width:1.0;stroke-dasharray:3.0,3.0;"/><path d="M577.2991,417.0593 L579.9562,414.2407 L577.9944,410.9007 L585.3449,414.8491 L577.2991,417.0593 " fill="#000000" style="stroke:#000000;stroke-width:1.0;"/><ellipse cx="445" cy="406.5" fill="#000000" rx="3" ry="3" style="stroke:#000000;stroke-width:1.0;"/><path d="M445,427.5 L458,427.5 C518.3414,427.5 527.7464,456.4445 585,475.5 C591.1558,477.5488 597.4895,479.5928 603.8977,481.6109 " fill="none" style="stroke:#000000;stroke-width:1.0;stroke-dasharray:3.0,3.0;"/><path d="M602.9553,484.6312 L606.1629,482.3177 L604.84,478.5906 L611.4484,483.9668 L602.9553,484.6312 " fill="#000000" style="stroke:#000000;stroke-width:1.0;"/><ellipse cx="445" cy="427.5" fill="#000000" rx="3" ry="3" style="stroke:#000000;stroke-width:1.0;"/><path d="M445,447.5 L458,447.5 C531.8072,447.5 519.9012,519.7199 585,554.5 C588.4092,556.3214 591.9135,558.0667 595.488,559.7385 " fill="none" style="stroke:#000000;stroke-width:1.0;stroke-dasharray:3.0,3.0;"/><path d="M594.2381,562.5202 L597.5743,560.6759 L596.7379,556.9568 L602.4423,562.8631 L594.2381,562.5202 " fill="#000000" style="stroke:#000000;stroke-width:1.0;"/><ellipse cx="445" cy="447.5" fill="#000000" rx="3" ry="3" style="stroke:#000000;stroke-width:1.0;"/><path d="M445,468.5 L458,468.5 C550.5405,468.5 508.5197,581.399 585,633.5 C587.3564,635.1053 589.7791,636.6453 592.257,638.1226 " fill="none" style="stroke:#000000;stroke-width:1.0;stroke-dasharray:3.0,3.0;"/><path d="M590.7506,640.7949 L594.2612,639.2524 L593.7634,635.4503 L598.9378,641.8886 L590.7506,640.7949 " fill="#000000" style="stroke:#000000;stroke-width:1.0;"/><ellipse cx="445" cy="468.5" fill="#000000" rx="3" ry="3" style="stroke:#000000;stroke-width:1.0;"/><path d="M445,488.5 L458,488.5 C572.4434,488.5 495.1639,641.6004 585,712.5 C586.7953,713.9169 588.6403,715.2823 590.5287,716.5982 " fill="none" style="stroke:#000000;stroke-width:1.0;stroke-dasharray:3.0,3.0;"/><path d="M588.8145,719.23 L592.5025,717.8838 L592.2428,713.9664 L597.1082,720.8836 L588.8145,719.23 " fill="#000000" style="stroke:#000000;stroke-width:1.0;"/><ellipse cx="445" cy="488.5" fill="#000000" rx="3" ry="3" style="stroke:#000000;stroke-width:1.0;"/><path d="M292,336.5 L305,336.5 C352.0497,336.5 401.2629,365.8357 426.6101,383.482 " fill="none" style="stroke:#000000;stroke-width:1.0;stroke-dasharray:3.0,3.0;"/><path d="M424.8416,385.964 L428.4716,384.8085 L428.3787,381.0001 L432.815,387.9035 L424.8416,385.964 " fill="#000000" style="stroke:#000000;stroke-width:1.0;"/><ellipse cx="292" cy="336.5" fill="#000000" rx="3" ry="3" style="stroke:#000000;stroke-width:1.0;"/><!--MD5=[0a1ee91c792c366aca0bc7a1522ad051]
@startjson
{
    "field1": "ReferenceOrderLineID",
    "combination": "ReferenceOrderLineID",
    "null_distribution": {
        "total_null_rows": 0,
        "total_not_null_rows": 89253
    },
    "data_distribution": [
        {
            "field_value": "0",
            "row_count": 41589,
            "ratio_percent": 46.59675305031764
        },
        {
            "field_value": "1",
            "row_count": 10207,
            "ratio_percent": 11.436030161451155
        },
        {
            "field_value": "2",
            "row_count": 3867,
            "ratio_percent": 4.332627474706732
        },
        {
            "field_value": "3",
            "row_count": 2826,
            "ratio_percent": 3.166280125037814
        },
        {
            "field_value": "4",
            "row_count": 2078,
            "ratio_percent": 2.3282130572641817
        },
        {
            "field_value": "5",
            "row_count": 1632,
            "ratio_percent": 1.8285099660515614
        },
        {
            "field_value": "6",
            "row_count": 1455,
            "ratio_percent": 1.6301973042922926
        },
        {
            "field_value": "7",
            "row_count": 1359,
            "ratio_percent": 1.5226378945245538
        },
        {
            "field_value": "8",
            "row_count": 1286,
            "ratio_percent": 1.4408479266803356
        },
        {
            "field_value": "9",
            "row_count": 1218,
            "ratio_percent": 1.3646600114281873
        }
    ]
}
@endjson

PlantUML version 1.2022.5(Sat Apr 30 06:55:52 EDT 2022)
(GPL source distribution)
Java Runtime: OpenJDK Runtime Environment
JVM: OpenJDK 64-Bit Server VM
Default Encoding: UTF-8
Language: en
Country: CA
--></g></svg>