<?xml version="1.0" encoding="UTF-8" standalone="no"?><svg xmlns="http://www.w3.org/2000/svg" xmlns:xlink="http://www.w3.org/1999/xlink" contentStyleType="text/css" height="794px" preserveAspectRatio="none" style="width:790px;height:794px;background:#FFFFFF;" version="1.1" viewBox="0 0 790 794" width="790px" zoomAndPan="magnify"><defs/><g><rect fill="#F1F1F1" height="81.9531" rx="5" ry="5" style="stroke:#F1F1F1;stroke-width:1.5;" width="207" x="10" y="264.5"/><text fill="#000000" font-family="sans-serif" font-size="14" font-weight="bold" lengthAdjust="spacing" textLength="42" x="15" y="280.0352">field1</text><text fill="#000000" font-family="sans-serif" font-size="14" lengthAdjust="spacing" textLength="63" x="149" y="280.0352">OrderQty</text><line style="stroke:#000000;stroke-width:1.0;" x1="144" x2="144" y1="264.5" y2="284.9883"/><line style="stroke:#000000;stroke-width:1.0;" x1="10" x2="217" y1="284.9883" y2="284.9883"/><text fill="#000000" font-family="sans-serif" font-size="14" font-weight="bold" lengthAdjust="spacing" textLength="90" x="15" y="300.5234">combination</text><text fill="#000000" font-family="sans-serif" font-size="14" lengthAdjust="spacing" textLength="63" x="149" y="300.5234">OrderQty</text><line style="stroke:#000000;stroke-width:1.0;" x1="144" x2="144" y1="284.9883" y2="305.4766"/><line style="stroke:#000000;stroke-width:1.0;" x1="10" x2="217" y1="305.4766" y2="305.4766"/><text fill="#000000" font-family="sans-serif" font-size="14" font-weight="bold" lengthAdjust="spacing" textLength="121" x="15" y="321.0117">null_distribution</text><text fill="#000000" font-family="sans-serif" font-size="14" lengthAdjust="spacing" textLength="12" x="149" y="321.0117">   </text><line style="stroke:#000000;stroke-width:1.0;" x1="144" x2="144" y1="305.4766" y2="325.9648"/><line style="stroke:#000000;stroke-width:1.0;" x1="10" x2="217" y1="325.9648" y2="325.9648"/><text fill="#000000" font-family="sans-serif" font-size="14" font-weight="bold" lengthAdjust="spacing" textLength="124" x="15" y="341.5">data_distribution</text><text fill="#000000" font-family="sans-serif" font-size="14" lengthAdjust="spacing" textLength="12" x="149" y="341.5">   </text><line style="stroke:#000000;stroke-width:1.0;" x1="144" x2="144" y1="325.9648" y2="346.4531"/><rect fill="none" height="81.9531" rx="5" ry="5" style="stroke:#000000;stroke-width:1.5;" width="207" x="10" y="264.5"/><rect fill="#F1F1F1" height="40.9766" rx="5" ry="5" style="stroke:#F1F1F1;stroke-width:1.5;" width="198" x="254" y="235"/><text fill="#000000" font-family="sans-serif" font-size="14" font-weight="bold" lengthAdjust="spacing" textLength="111" x="259" y="250.5352">total_null_rows</text><text fill="#000000" font-family="sans-serif" font-size="14" lengthAdjust="spacing" textLength="9" x="411" y="250.5352">0</text><line style="stroke:#000000;stroke-width:1.0;" x1="406" x2="406" y1="235" y2="255.4883"/><line style="stroke:#000000;stroke-width:1.0;" x1="254" x2="452" y1="255.4883" y2="255.4883"/><text fill="#000000" font-family="sans-serif" font-size="14" font-weight="bold" lengthAdjust="spacing" textLength="142" x="259" y="271.0234">total_not_null_rows</text><text fill="#000000" font-family="sans-serif" font-size="14" lengthAdjust="spacing" textLength="36" x="411" y="271.0234">8845</text><line style="stroke:#000000;stroke-width:1.0;" x1="406" x2="406" y1="255.4883" y2="275.9766"/><rect fill="none" height="40.9766" rx="5" ry="5" style="stroke:#000000;stroke-width:1.5;" width="198" x="254" y="235"/><rect fill="#F1F1F1" height="204.8828" rx="5" ry="5" style="stroke:#F1F1F1;stroke-width:1.5;" width="22" x="341" y="294"/><text fill="#000000" font-family="sans-serif" font-size="14" lengthAdjust="spacing" textLength="12" x="346" y="309.5352">   </text><line style="stroke:#000000;stroke-width:1.0;" x1="341" x2="363" y1="314.4883" y2="314.4883"/><text fill="#000000" font-family="sans-serif" font-size="14" lengthAdjust="spacing" textLength="12" x="346" y="330.0234">   </text><line style="stroke:#000000;stroke-width:1.0;" x1="341" x2="363" y1="334.9766" y2="334.9766"/><text fill="#000000" font-family="sans-serif" font-size="14" lengthAdjust="spacing" textLength="12" x="346" y="350.5117">   </text><line style="stroke:#000000;stroke-width:1.0;" x1="341" x2="363" y1="355.4648" y2="355.4648"/><text fill="#000000" font-family="sans-serif" font-size="14" lengthAdjust="spacing" textLength="12" x="346" y="371">   </text><line style="stroke:#000000;stroke-width:1.0;" x1="341" x2="363" y1="375.9531" y2="375.9531"/><text fill="#000000" font-family="sans-serif" font-size="14" lengthAdjust="spacing" textLength="12" x="346" y="391.4883">   </text><line style="stroke:#000000;stroke-width:1.0;" x1="341" x2="363" y1="396.4414" y2="396.4414"/><text fill="#000000" font-family="sans-serif" font-size="14" lengthAdjust="spacing" textLength="12" x="346" y="411.9766">   </text><line style="stroke:#000000;stroke-width:1.0;" x1="341" x2="363" y1="416.9297" y2="416.9297"/><text fill="#000000" font-family="sans-serif" font-size="14" lengthAdjust="spacing" textLength="12" x="346" y="432.4648">   </text><line style="stroke:#000000;stroke-width:1.0;" x1="341" x2="363" y1="437.418" y2="437.418"/><text fill="#000000" font-family="sans-serif" font-size="14" lengthAdjust="spacing" textLength="12" x="346" y="452.9531">   </text><line style="stroke:#000000;stroke-width:1.0;" x1="341" x2="363" y1="457.9063" y2="457.9063"/><text fill="#000000" font-family="sans-serif" font-size="14" lengthAdjust="spacing" textLength="12" x="346" y="473.4414">   </text><line style="stroke:#000000;stroke-width:1.0;" x1="341" x2="363" y1="478.3945" y2="478.3945"/><text fill="#000000" font-family="sans-serif" font-size="14" lengthAdjust="spacing" textLength="12" x="346" y="493.9297">   </text><rect fill="none" height="204.8828" rx="5" ry="5" style="stroke:#000000;stroke-width:1.5;" width="22" x="341" y="294"/><rect fill="#F1F1F1" height="61.4648" rx="5" ry="5" style="stroke:#F1F1F1;stroke-width:1.5;" width="262" x="502.5" y="10"/><text fill="#000000" font-family="sans-serif" font-size="14" font-weight="bold" lengthAdjust="spacing" textLength="78" x="507.5" y="25.5352">field_value</text><text fill="#000000" font-family="sans-serif" font-size="14" lengthAdjust="spacing" textLength="9" x="611.5" y="25.5352">3</text><line style="stroke:#000000;stroke-width:1.0;" x1="606.5" x2="606.5" y1="10" y2="30.4883"/><line style="stroke:#000000;stroke-width:1.0;" x1="502.5" x2="764.5" y1="30.4883" y2="30.4883"/><text fill="#000000" font-family="sans-serif" font-size="14" font-weight="bold" lengthAdjust="spacing" textLength="74" x="507.5" y="46.0234">row_count</text><text fill="#000000" font-family="sans-serif" font-size="14" lengthAdjust="spacing" textLength="36" x="611.5" y="46.0234">4136</text><line style="stroke:#000000;stroke-width:1.0;" x1="606.5" x2="606.5" y1="30.4883" y2="50.9766"/><line style="stroke:#000000;stroke-width:1.0;" x1="502.5" x2="764.5" y1="50.9766" y2="50.9766"/><text fill="#000000" font-family="sans-serif" font-size="14" font-weight="bold" lengthAdjust="spacing" textLength="94" x="507.5" y="66.5117">ratio_percent</text><text fill="#000000" font-family="sans-serif" font-size="14" lengthAdjust="spacing" textLength="148" x="611.5" y="66.5117">46.76088185415489</text><line style="stroke:#000000;stroke-width:1.0;" x1="606.5" x2="606.5" y1="50.9766" y2="71.4648"/><rect fill="none" height="61.4648" rx="5" ry="5" style="stroke:#000000;stroke-width:1.5;" width="262" x="502.5" y="10"/><rect fill="#F1F1F1" height="61.4648" rx="5" ry="5" style="stroke:#F1F1F1;stroke-width:1.5;" width="262" x="502.5" y="89"/><text fill="#000000" font-family="sans-serif" font-size="14" font-weight="bold" lengthAdjust="spacing" textLength="78" x="507.5" y="104.5352">field_value</text><text fill="#000000" font-family="sans-serif" font-size="14" lengthAdjust="spacing" textLength="27" x="611.5" y="104.5352">550</text><line style="stroke:#000000;stroke-width:1.0;" x1="606.5" x2="606.5" y1="89" y2="109.4883"/><line style="stroke:#000000;stroke-width:1.0;" x1="502.5" x2="764.5" y1="109.4883" y2="109.4883"/><text fill="#000000" font-family="sans-serif" font-size="14" font-weight="bold" lengthAdjust="spacing" textLength="74" x="507.5" y="125.0234">row_count</text><text fill="#000000" font-family="sans-serif" font-size="14" lengthAdjust="spacing" textLength="36" x="611.5" y="125.0234">3759</text><line style="stroke:#000000;stroke-width:1.0;" x1="606.5" x2="606.5" y1="109.4883" y2="129.9766"/><line style="stroke:#000000;stroke-width:1.0;" x1="502.5" x2="764.5" y1="129.9766" y2="129.9766"/><text fill="#000000" font-family="sans-serif" font-size="14" font-weight="bold" lengthAdjust="spacing" textLength="94" x="507.5" y="145.5117">ratio_percent</text><text fill="#000000" font-family="sans-serif" font-size="14" lengthAdjust="spacing" textLength="148" x="611.5" y="145.5117">42.49858677218768</text><line style="stroke:#000000;stroke-width:1.0;" x1="606.5" x2="606.5" y1="129.9766" y2="150.4648"/><rect fill="none" height="61.4648" rx="5" ry="5" style="stroke:#000000;stroke-width:1.5;" width="262" x="502.5" y="89"/><rect fill="#F1F1F1" height="61.4648" rx="5" ry="5" style="stroke:#F1F1F1;stroke-width:1.5;" width="262" x="502.5" y="168"/><text fill="#000000" font-family="sans-serif" font-size="14" font-weight="bold" lengthAdjust="spacing" textLength="78" x="507.5" y="183.5352">field_value</text><text fill="#000000" font-family="sans-serif" font-size="14" lengthAdjust="spacing" textLength="18" x="611.5" y="183.5352">60</text><line style="stroke:#000000;stroke-width:1.0;" x1="606.5" x2="606.5" y1="168" y2="188.4883"/><line style="stroke:#000000;stroke-width:1.0;" x1="502.5" x2="764.5" y1="188.4883" y2="188.4883"/><text fill="#000000" font-family="sans-serif" font-size="14" font-weight="bold" lengthAdjust="spacing" textLength="74" x="507.5" y="204.0234">row_count</text><text fill="#000000" font-family="sans-serif" font-size="14" lengthAdjust="spacing" textLength="27" x="611.5" y="204.0234">792</text><line style="stroke:#000000;stroke-width:1.0;" x1="606.5" x2="606.5" y1="188.4883" y2="208.9766"/><line style="stroke:#000000;stroke-width:1.0;" x1="502.5" x2="764.5" y1="208.9766" y2="208.9766"/><text fill="#000000" font-family="sans-serif" font-size="14" font-weight="bold" lengthAdjust="spacing" textLength="94" x="507.5" y="224.5117">ratio_percent</text><text fill="#000000" font-family="sans-serif" font-size="14" lengthAdjust="spacing" textLength="148" x="611.5" y="224.5117">8.954211418880723</text><line style="stroke:#000000;stroke-width:1.0;" x1="606.5" x2="606.5" y1="208.9766" y2="229.4648"/><rect fill="none" height="61.4648" rx="5" ry="5" style="stroke:#000000;stroke-width:1.5;" width="262" x="502.5" y="168"/><rect fill="#F1F1F1" height="61.4648" rx="5" ry="5" style="stroke:#F1F1F1;stroke-width:1.5;" width="271" x="498" y="247"/><text fill="#000000" font-family="sans-serif" font-size="14" font-weight="bold" lengthAdjust="spacing" textLength="78" x="503" y="262.5352">field_value</text><text fill="#000000" font-family="sans-serif" font-size="14" lengthAdjust="spacing" textLength="36" x="607" y="262.5352">1250</text><line style="stroke:#000000;stroke-width:1.0;" x1="602" x2="602" y1="247" y2="267.4883"/><line style="stroke:#000000;stroke-width:1.0;" x1="498" x2="769" y1="267.4883" y2="267.4883"/><text fill="#000000" font-family="sans-serif" font-size="14" font-weight="bold" lengthAdjust="spacing" textLength="74" x="503" y="283.0234">row_count</text><text fill="#000000" font-family="sans-serif" font-size="14" lengthAdjust="spacing" textLength="27" x="607" y="283.0234">106</text><line style="stroke:#000000;stroke-width:1.0;" x1="602" x2="602" y1="267.4883" y2="287.9766"/><line style="stroke:#000000;stroke-width:1.0;" x1="498" x2="769" y1="287.9766" y2="287.9766"/><text fill="#000000" font-family="sans-serif" font-size="14" font-weight="bold" lengthAdjust="spacing" textLength="94" x="503" y="303.5117">ratio_percent</text><text fill="#000000" font-family="sans-serif" font-size="14" lengthAdjust="spacing" textLength="157" x="607" y="303.5117">1.1984171848501979</text><line style="stroke:#000000;stroke-width:1.0;" x1="602" x2="602" y1="287.9766" y2="308.4648"/><rect fill="none" height="61.4648" rx="5" ry="5" style="stroke:#000000;stroke-width:1.5;" width="271" x="498" y="247"/><rect fill="#F1F1F1" height="61.4648" rx="5" ry="5" style="stroke:#F1F1F1;stroke-width:1.5;" width="280" x="493.5" y="326"/><text fill="#000000" font-family="sans-serif" font-size="14" font-weight="bold" lengthAdjust="spacing" textLength="78" x="498.5" y="341.5352">field_value</text><text fill="#000000" font-family="sans-serif" font-size="14" lengthAdjust="spacing" textLength="27" x="602.5" y="341.5352">150</text><line style="stroke:#000000;stroke-width:1.0;" x1="597.5" x2="597.5" y1="326" y2="346.4883"/><line style="stroke:#000000;stroke-width:1.0;" x1="493.5" x2="773.5" y1="346.4883" y2="346.4883"/><text fill="#000000" font-family="sans-serif" font-size="14" font-weight="bold" lengthAdjust="spacing" textLength="74" x="498.5" y="362.0234">row_count</text><text fill="#000000" font-family="sans-serif" font-size="14" lengthAdjust="spacing" textLength="9" x="602.5" y="362.0234">6</text><line style="stroke:#000000;stroke-width:1.0;" x1="597.5" x2="597.5" y1="346.4883" y2="366.9766"/><line style="stroke:#000000;stroke-width:1.0;" x1="493.5" x2="773.5" y1="366.9766" y2="366.9766"/><text fill="#000000" font-family="sans-serif" font-size="14" font-weight="bold" lengthAdjust="spacing" textLength="94" x="498.5" y="382.5117">ratio_percent</text><text fill="#000000" font-family="sans-serif" font-size="14" lengthAdjust="spacing" textLength="166" x="602.5" y="382.5117">0.06783493499152063</text><line style="stroke:#000000;stroke-width:1.0;" x1="597.5" x2="597.5" y1="366.9766" y2="387.4648"/><rect fill="none" height="61.4648" rx="5" ry="5" style="stroke:#000000;stroke-width:1.5;" width="280" x="493.5" y="326"/><rect fill="#F1F1F1" height="61.4648" rx="5" ry="5" style="stroke:#F1F1F1;stroke-width:1.5;" width="280" x="493.5" y="405"/><text fill="#000000" font-family="sans-serif" font-size="14" font-weight="bold" lengthAdjust="spacing" textLength="78" x="498.5" y="420.5352">field_value</text><text fill="#000000" font-family="sans-serif" font-size="14" lengthAdjust="spacing" textLength="36" x="602.5" y="420.5352">1000</text><line style="stroke:#000000;stroke-width:1.0;" x1="597.5" x2="597.5" y1="405" y2="425.4883"/><line style="stroke:#000000;stroke-width:1.0;" x1="493.5" x2="773.5" y1="425.4883" y2="425.4883"/><text fill="#000000" font-family="sans-serif" font-size="14" font-weight="bold" lengthAdjust="spacing" textLength="74" x="498.5" y="441.0234">row_count</text><text fill="#000000" font-family="sans-serif" font-size="14" lengthAdjust="spacing" textLength="9" x="602.5" y="441.0234">4</text><line style="stroke:#000000;stroke-width:1.0;" x1="597.5" x2="597.5" y1="425.4883" y2="445.9766"/><line style="stroke:#000000;stroke-width:1.0;" x1="493.5" x2="773.5" y1="445.9766" y2="445.9766"/><text fill="#000000" font-family="sans-serif" font-size="14" font-weight="bold" lengthAdjust="spacing" textLength="94" x="498.5" y="461.5117">ratio_percent</text><text fill="#000000" font-family="sans-serif" font-size="14" lengthAdjust="spacing" textLength="166" x="602.5" y="461.5117">0.04522328999434709</text><line style="stroke:#000000;stroke-width:1.0;" x1="597.5" x2="597.5" y1="445.9766" y2="466.4648"/><rect fill="none" height="61.4648" rx="5" ry="5" style="stroke:#000000;stroke-width:1.5;" width="280" x="493.5" y="405"/><rect fill="#F1F1F1" height="61.4648" rx="5" ry="5" style="stroke:#F1F1F1;stroke-width:1.5;" width="280" x="493.5" y="484"/><text fill="#000000" font-family="sans-serif" font-size="14" font-weight="bold" lengthAdjust="spacing" textLength="78" x="498.5" y="499.5352">field_value</text><text fill="#000000" font-family="sans-serif" font-size="14" lengthAdjust="spacing" textLength="36" x="602.5" y="499.5352">6000</text><line style="stroke:#000000;stroke-width:1.0;" x1="597.5" x2="597.5" y1="484" y2="504.4883"/><line style="stroke:#000000;stroke-width:1.0;" x1="493.5" x2="773.5" y1="504.4883" y2="504.4883"/><text fill="#000000" font-family="sans-serif" font-size="14" font-weight="bold" lengthAdjust="spacing" textLength="74" x="498.5" y="520.0234">row_count</text><text fill="#000000" font-family="sans-serif" font-size="14" lengthAdjust="spacing" textLength="9" x="602.5" y="520.0234">4</text><line style="stroke:#000000;stroke-width:1.0;" x1="597.5" x2="597.5" y1="504.4883" y2="524.9766"/><line style="stroke:#000000;stroke-width:1.0;" x1="493.5" x2="773.5" y1="524.9766" y2="524.9766"/><text fill="#000000" font-family="sans-serif" font-size="14" font-weight="bold" lengthAdjust="spacing" textLength="94" x="498.5" y="540.5117">ratio_percent</text><text fill="#000000" font-family="sans-serif" font-size="14" lengthAdjust="spacing" textLength="166" x="602.5" y="540.5117">0.04522328999434709</text><line style="stroke:#000000;stroke-width:1.0;" x1="597.5" x2="597.5" y1="524.9766" y2="545.4648"/><rect fill="none" height="61.4648" rx="5" ry="5" style="stroke:#000000;stroke-width:1.5;" width="280" x="493.5" y="484"/><rect fill="#F1F1F1" height="61.4648" rx="5" ry="5" style="stroke:#F1F1F1;stroke-width:1.5;" width="280" x="493.5" y="563"/><text fill="#000000" font-family="sans-serif" font-size="14" font-weight="bold" lengthAdjust="spacing" textLength="78" x="498.5" y="578.5352">field_value</text><text fill="#000000" font-family="sans-serif" font-size="14" lengthAdjust="spacing" textLength="27" x="602.5" y="578.5352">750</text><line style="stroke:#000000;stroke-width:1.0;" x1="597.5" x2="597.5" y1="563" y2="583.4883"/><line style="stroke:#000000;stroke-width:1.0;" x1="493.5" x2="773.5" y1="583.4883" y2="583.4883"/><text fill="#000000" font-family="sans-serif" font-size="14" font-weight="bold" lengthAdjust="spacing" textLength="74" x="498.5" y="599.0234">row_count</text><text fill="#000000" font-family="sans-serif" font-size="14" lengthAdjust="spacing" textLength="9" x="602.5" y="599.0234">4</text><line style="stroke:#000000;stroke-width:1.0;" x1="597.5" x2="597.5" y1="583.4883" y2="603.9766"/><line style="stroke:#000000;stroke-width:1.0;" x1="493.5" x2="773.5" y1="603.9766" y2="603.9766"/><text fill="#000000" font-family="sans-serif" font-size="14" font-weight="bold" lengthAdjust="spacing" textLength="94" x="498.5" y="619.5117">ratio_percent</text><text fill="#000000" font-family="sans-serif" font-size="14" lengthAdjust="spacing" textLength="166" x="602.5" y="619.5117">0.04522328999434709</text><line style="stroke:#000000;stroke-width:1.0;" x1="597.5" x2="597.5" y1="603.9766" y2="624.4648"/><rect fill="none" height="61.4648" rx="5" ry="5" style="stroke:#000000;stroke-width:1.5;" width="280" x="493.5" y="563"/><rect fill="#F1F1F1" height="61.4648" rx="5" ry="5" style="stroke:#F1F1F1;stroke-width:1.5;" width="289" x="489" y="642"/><text fill="#000000" font-family="sans-serif" font-size="14" font-weight="bold" lengthAdjust="spacing" textLength="78" x="494" y="657.5352">field_value</text><text fill="#000000" font-family="sans-serif" font-size="14" lengthAdjust="spacing" textLength="27" x="598" y="657.5352">900</text><line style="stroke:#000000;stroke-width:1.0;" x1="593" x2="593" y1="642" y2="662.4883"/><line style="stroke:#000000;stroke-width:1.0;" x1="489" x2="778" y1="662.4883" y2="662.4883"/><text fill="#000000" font-family="sans-serif" font-size="14" font-weight="bold" lengthAdjust="spacing" textLength="74" x="494" y="678.0234">row_count</text><text fill="#000000" font-family="sans-serif" font-size="14" lengthAdjust="spacing" textLength="9" x="598" y="678.0234">3</text><line style="stroke:#000000;stroke-width:1.0;" x1="593" x2="593" y1="662.4883" y2="682.9766"/><line style="stroke:#000000;stroke-width:1.0;" x1="489" x2="778" y1="682.9766" y2="682.9766"/><text fill="#000000" font-family="sans-serif" font-size="14" font-weight="bold" lengthAdjust="spacing" textLength="94" x="494" y="698.5117">ratio_percent</text><text fill="#000000" font-family="sans-serif" font-size="14" lengthAdjust="spacing" textLength="175" x="598" y="698.5117">0.033917467495760314</text><line style="stroke:#000000;stroke-width:1.0;" x1="593" x2="593" y1="682.9766" y2="703.4648"/><rect fill="none" height="61.4648" rx="5" ry="5" style="stroke:#000000;stroke-width:1.5;" width="289" x="489" y="642"/><rect fill="#F1F1F1" height="61.4648" rx="5" ry="5" style="stroke:#F1F1F1;stroke-width:1.5;" width="289" x="489" y="721"/><text fill="#000000" font-family="sans-serif" font-size="14" font-weight="bold" lengthAdjust="spacing" textLength="78" x="494" y="736.5352">field_value</text><text fill="#000000" font-family="sans-serif" font-size="14" lengthAdjust="spacing" textLength="27" x="598" y="736.5352">700</text><line style="stroke:#000000;stroke-width:1.0;" x1="593" x2="593" y1="721" y2="741.4883"/><line style="stroke:#000000;stroke-width:1.0;" x1="489" x2="778" y1="741.4883" y2="741.4883"/><text fill="#000000" font-family="sans-serif" font-size="14" font-weight="bold" lengthAdjust="spacing" textLength="74" x="494" y="757.0234">row_count</text><text fill="#000000" font-family="sans-serif" font-size="14" lengthAdjust="spacing" textLength="9" x="598" y="757.0234">3</text><line style="stroke:#000000;stroke-width:1.0;" x1="593" x2="593" y1="741.4883" y2="761.9766"/><line style="stroke:#000000;stroke-width:1.0;" x1="489" x2="778" y1="761.9766" y2="761.9766"/><text fill="#000000" font-family="sans-serif" font-size="14" font-weight="bold" lengthAdjust="spacing" textLength="94" x="494" y="777.5117">ratio_percent</text><text fill="#000000" font-family="sans-serif" font-size="14" lengthAdjust="spacing" textLength="175" x="598" y="777.5117">0.033917467495760314</text><line style="stroke:#000000;stroke-width:1.0;" x1="593" x2="593" y1="761.9766" y2="782.4648"/><rect fill="none" height="61.4648" rx="5" ry="5" style="stroke:#000000;stroke-width:1.5;" width="289" x="489" y="721"/><path d="M205,315.5 L218,315.5 C238.8273,315.5 235.6745,295.3971 254,285.5 C258.2321,283.2144 262.6626,281.0778 267.2032,279.0842 " fill="none" style="stroke:#000000;stroke-width:1.0;stroke-dasharray:3.0,3.0;"/><path d="M268.4096,281.9694 L269.3671,278.1794 L265.9968,276.199 L274.4162,276.0682 L268.4096,281.9694 " fill="#000000" style="stroke:#000000;stroke-width:1.0;"/><ellipse cx="205" cy="315.5" fill="#000000" rx="3" ry="3" style="stroke:#000000;stroke-width:1.0;"/><path d="M353.5,303.5 L366.5,303.5 C405.768,303.5 425.6833,313.7095 453,285.5 C517.6556,218.7312 426.353,148.1569 489,79.5 C491.4878,76.7736 494.1447,74.2298 496.9444,71.8569 " fill="none" style="stroke:#000000;stroke-width:1.0;stroke-dasharray:3.0,3.0;"/><path d="M498.7983,74.2323 L498.726,70.4665 L495.0905,69.4815 L502.883,67.2222 L498.7983,74.2323 " fill="#000000" style="stroke:#000000;stroke-width:1.0;"/><ellipse cx="353.5" cy="303.5" fill="#000000" rx="3" ry="3" style="stroke:#000000;stroke-width:1.0;"/><path d="M353.5,324.5 L366.5,324.5 C408.6713,324.5 425.4563,317.4338 453,285.5 C491.3185,241.074 447.2726,199.7408 489,158.5 C491.3833,156.1445 493.8935,153.9275 496.5116,151.8409 " fill="none" style="stroke:#000000;stroke-width:1.0;stroke-dasharray:3.0,3.0;"/><path d="M498.3658,154.3594 L498.4005,150.4503 L494.6574,149.3225 L502.8077,147.2054 L498.3658,154.3594 " fill="#000000" style="stroke:#000000;stroke-width:1.0;"/><ellipse cx="353.5" cy="324.5" fill="#000000" rx="3" ry="3" style="stroke:#000000;stroke-width:1.0;"/><path d="M353.5,344.5 L366.5,344.5 C413.0358,344.5 419.3638,317.6588 453,285.5 C472.2747,267.0719 466.9294,252.4666 489,237.5 C491.3915,235.8783 493.8481,234.3238 496.3595,232.8338 " fill="none" style="stroke:#000000;stroke-width:1.0;stroke-dasharray:3.0,3.0;"/><path d="M497.8776,235.5413 L498.3901,231.6952 L494.8413,230.1263 L503.1283,229.0385 L497.8776,235.5413 " fill="#000000" style="stroke:#000000;stroke-width:1.0;"/><ellipse cx="353.5" cy="344.5" fill="#000000" rx="3" ry="3" style="stroke:#000000;stroke-width:1.0;"/><path d="M353.5,365.5 L366.5,365.5 C424.9749,365.5 433.5342,336.0162 489,317.5 C496.1988,315.0968 503.6325,312.7206 511.1534,310.3965 " fill="none" style="stroke:#000000;stroke-width:1.0;stroke-dasharray:3.0,3.0;"/><path d="M512.0757,313.4143 L513.4168,309.7048 L510.2311,307.3788 L518.6979,308.0908 L512.0757,313.4143 " fill="#000000" style="stroke:#000000;stroke-width:1.0;"/><ellipse cx="353.5" cy="365.5" fill="#000000" rx="3" ry="3" style="stroke:#000000;stroke-width:1.0;"/><path d="M353.5,385.5 L366.5,385.5 C405.4413,385.5 447.3965,382.402 486.2354,378.2312 " fill="none" style="stroke:#000000;stroke-width:1.0;stroke-dasharray:3.0,3.0;"/><path d="M486.5746,381.321 L488.5527,377.9768 L485.8963,375.1414 L493.9598,377.3833 L486.5746,381.321 " fill="#000000" style="stroke:#000000;stroke-width:1.0;"/><ellipse cx="353.5" cy="385.5" fill="#000000" rx="3" ry="3" style="stroke:#000000;stroke-width:1.0;"/><path d="M353.5,406.5 L366.5,406.5 C405.4413,406.5 447.3965,409.598 486.2354,413.7688 " fill="none" style="stroke:#000000;stroke-width:1.0;stroke-dasharray:3.0,3.0;"/><path d="M485.8963,416.8586 L488.5527,414.0232 L486.5746,410.679 L493.9598,414.6167 L485.8963,416.8586 " fill="#000000" style="stroke:#000000;stroke-width:1.0;"/><ellipse cx="353.5" cy="406.5" fill="#000000" rx="3" ry="3" style="stroke:#000000;stroke-width:1.0;"/><path d="M353.5,427.5 L366.5,427.5 C424.9749,427.5 433.4747,457.163 489,475.5 C495.4118,477.6175 502.0111,479.7081 508.6931,481.7555 " fill="none" style="stroke:#000000;stroke-width:1.0;stroke-dasharray:3.0,3.0;"/><path d="M507.8116,484.6668 L510.8766,482.4166 L509.5746,478.8441 L515.9714,483.9593 L507.8116,484.6668 " fill="#000000" style="stroke:#000000;stroke-width:1.0;"/><ellipse cx="353.5" cy="427.5" fill="#000000" rx="3" ry="3" style="stroke:#000000;stroke-width:1.0;"/><path d="M353.5,447.5 L366.5,447.5 C438.7892,447.5 425.2586,520.4007 489,554.5 C492.4096,556.324 495.9114,558.068 499.4828,559.7349 " fill="none" style="stroke:#000000;stroke-width:1.0;stroke-dasharray:3.0,3.0;"/><path d="M498.2382,562.5142 L501.5673,560.6684 L500.7275,556.9556 L506.4311,562.8466 L498.2382,562.5142 " fill="#000000" style="stroke:#000000;stroke-width:1.0;"/><ellipse cx="353.5" cy="447.5" fill="#000000" rx="3" ry="3" style="stroke:#000000;stroke-width:1.0;"/><path d="M353.5,468.5 L366.5,468.5 C457.8344,468.5 413.5322,582.0551 489,633.5 C491.3876,635.1276 493.8405,636.6873 496.3486,638.1821 " fill="none" style="stroke:#000000;stroke-width:1.0;stroke-dasharray:3.0,3.0;"/><path d="M494.8258,640.8865 L498.3769,639.3242 L497.8714,635.4778 L503.1095,641.9891 L494.8258,640.8865 " fill="#000000" style="stroke:#000000;stroke-width:1.0;"/><ellipse cx="353.5" cy="468.5" fill="#000000" rx="3" ry="3" style="stroke:#000000;stroke-width:1.0;"/><path d="M353.5,488.5 L366.5,488.5 C479.9703,488.5 399.8782,642.2661 489,712.5 C490.8118,713.9278 492.6718,715.3035 494.5745,716.6289 " fill="none" style="stroke:#000000;stroke-width:1.0;stroke-dasharray:3.0,3.0;"/><path d="M492.8483,719.2791 L496.5622,717.9236 L496.3007,713.9787 L501.2,720.9445 L492.8483,719.2791 " fill="#000000" style="stroke:#000000;stroke-width:1.0;"/><ellipse cx="353.5" cy="488.5" fill="#000000" rx="3" ry="3" style="stroke:#000000;stroke-width:1.0;"/><path d="M205,336.5 L218,336.5 C263.3406,336.5 310.4028,365.289 335.0463,382.9834 " fill="none" style="stroke:#000000;stroke-width:1.0;stroke-dasharray:3.0,3.0;"/><path d="M333.181,385.5179 L336.9472,384.3824 L336.9117,380.4489 L341.3825,387.6468 L333.181,385.5179 " fill="#000000" style="stroke:#000000;stroke-width:1.0;"/><ellipse cx="205" cy="336.5" fill="#000000" rx="3" ry="3" style="stroke:#000000;stroke-width:1.0;"/><!--MD5=[9acae6bcf761220ff3d2603fa87f36b0]
@startjson
{
    "field1": "OrderQty",
    "combination": "OrderQty",
    "null_distribution": {
        "total_null_rows": 0,
        "total_not_null_rows": 8845
    },
    "data_distribution": [
        {
            "field_value": "3",
            "row_count": 4136,
            "ratio_percent": 46.76088185415489
        },
        {
            "field_value": "550",
            "row_count": 3759,
            "ratio_percent": 42.49858677218768
        },
        {
            "field_value": "60",
            "row_count": 792,
            "ratio_percent": 8.954211418880723
        },
        {
            "field_value": "1250",
            "row_count": 106,
            "ratio_percent": 1.1984171848501979
        },
        {
            "field_value": "150",
            "row_count": 6,
            "ratio_percent": 0.06783493499152063
        },
        {
            "field_value": "1000",
            "row_count": 4,
            "ratio_percent": 0.04522328999434709
        },
        {
            "field_value": "6000",
            "row_count": 4,
            "ratio_percent": 0.04522328999434709
        },
        {
            "field_value": "750",
            "row_count": 4,
            "ratio_percent": 0.04522328999434709
        },
        {
            "field_value": "900",
            "row_count": 3,
            "ratio_percent": 0.033917467495760314
        },
        {
            "field_value": "700",
            "row_count": 3,
            "ratio_percent": 0.033917467495760314
        }
    ]
}
@endjson

PlantUML version 1.2022.5(Sat Apr 30 06:55:52 EDT 2022)
(GPL source distribution)
Java Runtime: OpenJDK Runtime Environment
JVM: OpenJDK 64-Bit Server VM
Default Encoding: UTF-8
Language: en
Country: CA
--></g></svg>