<?xml version="1.0" encoding="UTF-8" standalone="no"?><svg xmlns="http://www.w3.org/2000/svg" xmlns:xlink="http://www.w3.org/1999/xlink" contentStyleType="text/css" height="794px" preserveAspectRatio="none" style="width:811px;height:794px;background:#FFFFFF;" version="1.1" viewBox="0 0 811 794" width="811px" zoomAndPan="magnify"><defs/><g><rect fill="#F1F1F1" height="81.9531" rx="5" ry="5" style="stroke:#F1F1F1;stroke-width:1.5;" width="255" x="10" y="264.5"/><text fill="#000000" font-family="sans-serif" font-size="14" font-weight="bold" lengthAdjust="spacing" textLength="42" x="15" y="280.0352">field1</text><text fill="#000000" font-family="sans-serif" font-size="14" lengthAdjust="spacing" textLength="111" x="149" y="280.0352">AccountNumber</text><line style="stroke:#000000;stroke-width:1.0;" x1="144" x2="144" y1="264.5" y2="284.9883"/><line style="stroke:#000000;stroke-width:1.0;" x1="10" x2="265" y1="284.9883" y2="284.9883"/><text fill="#000000" font-family="sans-serif" font-size="14" font-weight="bold" lengthAdjust="spacing" textLength="90" x="15" y="300.5234">combination</text><text fill="#000000" font-family="sans-serif" font-size="14" lengthAdjust="spacing" textLength="111" x="149" y="300.5234">AccountNumber</text><line style="stroke:#000000;stroke-width:1.0;" x1="144" x2="144" y1="284.9883" y2="305.4766"/><line style="stroke:#000000;stroke-width:1.0;" x1="10" x2="265" y1="305.4766" y2="305.4766"/><text fill="#000000" font-family="sans-serif" font-size="14" font-weight="bold" lengthAdjust="spacing" textLength="121" x="15" y="321.0117">null_distribution</text><text fill="#000000" font-family="sans-serif" font-size="14" lengthAdjust="spacing" textLength="12" x="149" y="321.0117">   </text><line style="stroke:#000000;stroke-width:1.0;" x1="144" x2="144" y1="305.4766" y2="325.9648"/><line style="stroke:#000000;stroke-width:1.0;" x1="10" x2="265" y1="325.9648" y2="325.9648"/><text fill="#000000" font-family="sans-serif" font-size="14" font-weight="bold" lengthAdjust="spacing" textLength="124" x="15" y="341.5">data_distribution</text><text fill="#000000" font-family="sans-serif" font-size="14" lengthAdjust="spacing" textLength="12" x="149" y="341.5">   </text><line style="stroke:#000000;stroke-width:1.0;" x1="144" x2="144" y1="325.9648" y2="346.4531"/><rect fill="none" height="81.9531" rx="5" ry="5" style="stroke:#000000;stroke-width:1.5;" width="255" x="10" y="264.5"/><rect fill="#F1F1F1" height="40.9766" rx="5" ry="5" style="stroke:#F1F1F1;stroke-width:1.5;" width="189" x="302" y="235"/><text fill="#000000" font-family="sans-serif" font-size="14" font-weight="bold" lengthAdjust="spacing" textLength="111" x="307" y="250.5352">total_null_rows</text><text fill="#000000" font-family="sans-serif" font-size="14" lengthAdjust="spacing" textLength="9" x="459" y="250.5352">0</text><line style="stroke:#000000;stroke-width:1.0;" x1="454" x2="454" y1="235" y2="255.4883"/><line style="stroke:#000000;stroke-width:1.0;" x1="302" x2="491" y1="255.4883" y2="255.4883"/><text fill="#000000" font-family="sans-serif" font-size="14" font-weight="bold" lengthAdjust="spacing" textLength="142" x="307" y="271.0234">total_not_null_rows</text><text fill="#000000" font-family="sans-serif" font-size="14" lengthAdjust="spacing" textLength="27" x="459" y="271.0234">104</text><line style="stroke:#000000;stroke-width:1.0;" x1="454" x2="454" y1="255.4883" y2="275.9766"/><rect fill="none" height="40.9766" rx="5" ry="5" style="stroke:#000000;stroke-width:1.5;" width="189" x="302" y="235"/><rect fill="#F1F1F1" height="204.8828" rx="5" ry="5" style="stroke:#F1F1F1;stroke-width:1.5;" width="22" x="384.5" y="294"/><text fill="#000000" font-family="sans-serif" font-size="14" lengthAdjust="spacing" textLength="12" x="389.5" y="309.5352">   </text><line style="stroke:#000000;stroke-width:1.0;" x1="384.5" x2="406.5" y1="314.4883" y2="314.4883"/><text fill="#000000" font-family="sans-serif" font-size="14" lengthAdjust="spacing" textLength="12" x="389.5" y="330.0234">   </text><line style="stroke:#000000;stroke-width:1.0;" x1="384.5" x2="406.5" y1="334.9766" y2="334.9766"/><text fill="#000000" font-family="sans-serif" font-size="14" lengthAdjust="spacing" textLength="12" x="389.5" y="350.5117">   </text><line style="stroke:#000000;stroke-width:1.0;" x1="384.5" x2="406.5" y1="355.4648" y2="355.4648"/><text fill="#000000" font-family="sans-serif" font-size="14" lengthAdjust="spacing" textLength="12" x="389.5" y="371">   </text><line style="stroke:#000000;stroke-width:1.0;" x1="384.5" x2="406.5" y1="375.9531" y2="375.9531"/><text fill="#000000" font-family="sans-serif" font-size="14" lengthAdjust="spacing" textLength="12" x="389.5" y="391.4883">   </text><line style="stroke:#000000;stroke-width:1.0;" x1="384.5" x2="406.5" y1="396.4414" y2="396.4414"/><text fill="#000000" font-family="sans-serif" font-size="14" lengthAdjust="spacing" textLength="12" x="389.5" y="411.9766">   </text><line style="stroke:#000000;stroke-width:1.0;" x1="384.5" x2="406.5" y1="416.9297" y2="416.9297"/><text fill="#000000" font-family="sans-serif" font-size="14" lengthAdjust="spacing" textLength="12" x="389.5" y="432.4648">   </text><line style="stroke:#000000;stroke-width:1.0;" x1="384.5" x2="406.5" y1="437.418" y2="437.418"/><text fill="#000000" font-family="sans-serif" font-size="14" lengthAdjust="spacing" textLength="12" x="389.5" y="452.9531">   </text><line style="stroke:#000000;stroke-width:1.0;" x1="384.5" x2="406.5" y1="457.9063" y2="457.9063"/><text fill="#000000" font-family="sans-serif" font-size="14" lengthAdjust="spacing" textLength="12" x="389.5" y="473.4414">   </text><line style="stroke:#000000;stroke-width:1.0;" x1="384.5" x2="406.5" y1="478.3945" y2="478.3945"/><text fill="#000000" font-family="sans-serif" font-size="14" lengthAdjust="spacing" textLength="12" x="389.5" y="493.9297">   </text><rect fill="none" height="204.8828" rx="5" ry="5" style="stroke:#000000;stroke-width:1.5;" width="22" x="384.5" y="294"/><rect fill="#F1F1F1" height="61.4648" rx="5" ry="5" style="stroke:#F1F1F1;stroke-width:1.5;" width="271" x="528" y="10"/><text fill="#000000" font-family="sans-serif" font-size="14" font-weight="bold" lengthAdjust="spacing" textLength="78" x="533" y="25.5352">field_value</text><text fill="#000000" font-family="sans-serif" font-size="14" lengthAdjust="spacing" textLength="92" x="637" y="25.5352">BICYCLE0001</text><line style="stroke:#000000;stroke-width:1.0;" x1="632" x2="632" y1="10" y2="30.4883"/><line style="stroke:#000000;stroke-width:1.0;" x1="528" x2="799" y1="30.4883" y2="30.4883"/><text fill="#000000" font-family="sans-serif" font-size="14" font-weight="bold" lengthAdjust="spacing" textLength="74" x="533" y="46.0234">row_count</text><text fill="#000000" font-family="sans-serif" font-size="14" lengthAdjust="spacing" textLength="9" x="637" y="46.0234">1</text><line style="stroke:#000000;stroke-width:1.0;" x1="632" x2="632" y1="30.4883" y2="50.9766"/><line style="stroke:#000000;stroke-width:1.0;" x1="528" x2="799" y1="50.9766" y2="50.9766"/><text fill="#000000" font-family="sans-serif" font-size="14" font-weight="bold" lengthAdjust="spacing" textLength="94" x="533" y="66.5117">ratio_percent</text><text fill="#000000" font-family="sans-serif" font-size="14" lengthAdjust="spacing" textLength="157" x="637" y="66.5117">0.9615384615384616</text><line style="stroke:#000000;stroke-width:1.0;" x1="632" x2="632" y1="50.9766" y2="71.4648"/><rect fill="none" height="61.4648" rx="5" ry="5" style="stroke:#000000;stroke-width:1.5;" width="271" x="528" y="10"/><rect fill="#F1F1F1" height="61.4648" rx="5" ry="5" style="stroke:#F1F1F1;stroke-width:1.5;" width="271" x="528" y="89"/><text fill="#000000" font-family="sans-serif" font-size="14" font-weight="bold" lengthAdjust="spacing" textLength="78" x="533" y="104.5352">field_value</text><text fill="#000000" font-family="sans-serif" font-size="14" lengthAdjust="spacing" textLength="109" x="637" y="104.5352">BERGERON0001</text><line style="stroke:#000000;stroke-width:1.0;" x1="632" x2="632" y1="89" y2="109.4883"/><line style="stroke:#000000;stroke-width:1.0;" x1="528" x2="799" y1="109.4883" y2="109.4883"/><text fill="#000000" font-family="sans-serif" font-size="14" font-weight="bold" lengthAdjust="spacing" textLength="74" x="533" y="125.0234">row_count</text><text fill="#000000" font-family="sans-serif" font-size="14" lengthAdjust="spacing" textLength="9" x="637" y="125.0234">1</text><line style="stroke:#000000;stroke-width:1.0;" x1="632" x2="632" y1="109.4883" y2="129.9766"/><line style="stroke:#000000;stroke-width:1.0;" x1="528" x2="799" y1="129.9766" y2="129.9766"/><text fill="#000000" font-family="sans-serif" font-size="14" font-weight="bold" lengthAdjust="spacing" textLength="94" x="533" y="145.5117">ratio_percent</text><text fill="#000000" font-family="sans-serif" font-size="14" lengthAdjust="spacing" textLength="157" x="637" y="145.5117">0.9615384615384616</text><line style="stroke:#000000;stroke-width:1.0;" x1="632" x2="632" y1="129.9766" y2="150.4648"/><rect fill="none" height="61.4648" rx="5" ry="5" style="stroke:#000000;stroke-width:1.5;" width="271" x="528" y="89"/><rect fill="#F1F1F1" height="61.4648" rx="5" ry="5" style="stroke:#F1F1F1;stroke-width:1.5;" width="271" x="528" y="168"/><text fill="#000000" font-family="sans-serif" font-size="14" font-weight="bold" lengthAdjust="spacing" textLength="78" x="533" y="183.5352">field_value</text><text fill="#000000" font-family="sans-serif" font-size="14" lengthAdjust="spacing" textLength="114" x="637" y="183.5352">BEAUMONT0001</text><line style="stroke:#000000;stroke-width:1.0;" x1="632" x2="632" y1="168" y2="188.4883"/><line style="stroke:#000000;stroke-width:1.0;" x1="528" x2="799" y1="188.4883" y2="188.4883"/><text fill="#000000" font-family="sans-serif" font-size="14" font-weight="bold" lengthAdjust="spacing" textLength="74" x="533" y="204.0234">row_count</text><text fill="#000000" font-family="sans-serif" font-size="14" lengthAdjust="spacing" textLength="9" x="637" y="204.0234">1</text><line style="stroke:#000000;stroke-width:1.0;" x1="632" x2="632" y1="188.4883" y2="208.9766"/><line style="stroke:#000000;stroke-width:1.0;" x1="528" x2="799" y1="208.9766" y2="208.9766"/><text fill="#000000" font-family="sans-serif" font-size="14" font-weight="bold" lengthAdjust="spacing" textLength="94" x="533" y="224.5117">ratio_percent</text><text fill="#000000" font-family="sans-serif" font-size="14" lengthAdjust="spacing" textLength="157" x="637" y="224.5117">0.9615384615384616</text><line style="stroke:#000000;stroke-width:1.0;" x1="632" x2="632" y1="208.9766" y2="229.4648"/><rect fill="none" height="61.4648" rx="5" ry="5" style="stroke:#000000;stroke-width:1.5;" width="271" x="528" y="168"/><rect fill="#F1F1F1" height="61.4648" rx="5" ry="5" style="stroke:#F1F1F1;stroke-width:1.5;" width="271" x="528" y="247"/><text fill="#000000" font-family="sans-serif" font-size="14" font-weight="bold" lengthAdjust="spacing" textLength="78" x="533" y="262.5352">field_value</text><text fill="#000000" font-family="sans-serif" font-size="14" lengthAdjust="spacing" textLength="103" x="637" y="262.5352">AUSTRALI0001</text><line style="stroke:#000000;stroke-width:1.0;" x1="632" x2="632" y1="247" y2="267.4883"/><line style="stroke:#000000;stroke-width:1.0;" x1="528" x2="799" y1="267.4883" y2="267.4883"/><text fill="#000000" font-family="sans-serif" font-size="14" font-weight="bold" lengthAdjust="spacing" textLength="74" x="533" y="283.0234">row_count</text><text fill="#000000" font-family="sans-serif" font-size="14" lengthAdjust="spacing" textLength="9" x="637" y="283.0234">1</text><line style="stroke:#000000;stroke-width:1.0;" x1="632" x2="632" y1="267.4883" y2="287.9766"/><line style="stroke:#000000;stroke-width:1.0;" x1="528" x2="799" y1="287.9766" y2="287.9766"/><text fill="#000000" font-family="sans-serif" font-size="14" font-weight="bold" lengthAdjust="spacing" textLength="94" x="533" y="303.5117">ratio_percent</text><text fill="#000000" font-family="sans-serif" font-size="14" lengthAdjust="spacing" textLength="157" x="637" y="303.5117">0.9615384615384616</text><line style="stroke:#000000;stroke-width:1.0;" x1="632" x2="632" y1="287.9766" y2="308.4648"/><rect fill="none" height="61.4648" rx="5" ry="5" style="stroke:#000000;stroke-width:1.5;" width="271" x="528" y="247"/><rect fill="#F1F1F1" height="61.4648" rx="5" ry="5" style="stroke:#F1F1F1;stroke-width:1.5;" width="271" x="528" y="326"/><text fill="#000000" font-family="sans-serif" font-size="14" font-weight="bold" lengthAdjust="spacing" textLength="78" x="533" y="341.5352">field_value</text><text fill="#000000" font-family="sans-serif" font-size="14" lengthAdjust="spacing" textLength="103" x="637" y="341.5352">AURORAB0001</text><line style="stroke:#000000;stroke-width:1.0;" x1="632" x2="632" y1="326" y2="346.4883"/><line style="stroke:#000000;stroke-width:1.0;" x1="528" x2="799" y1="346.4883" y2="346.4883"/><text fill="#000000" font-family="sans-serif" font-size="14" font-weight="bold" lengthAdjust="spacing" textLength="74" x="533" y="362.0234">row_count</text><text fill="#000000" font-family="sans-serif" font-size="14" lengthAdjust="spacing" textLength="9" x="637" y="362.0234">1</text><line style="stroke:#000000;stroke-width:1.0;" x1="632" x2="632" y1="346.4883" y2="366.9766"/><line style="stroke:#000000;stroke-width:1.0;" x1="528" x2="799" y1="366.9766" y2="366.9766"/><text fill="#000000" font-family="sans-serif" font-size="14" font-weight="bold" lengthAdjust="spacing" textLength="94" x="533" y="382.5117">ratio_percent</text><text fill="#000000" font-family="sans-serif" font-size="14" lengthAdjust="spacing" textLength="157" x="637" y="382.5117">0.9615384615384616</text><line style="stroke:#000000;stroke-width:1.0;" x1="632" x2="632" y1="366.9766" y2="387.4648"/><rect fill="none" height="61.4648" rx="5" ry="5" style="stroke:#000000;stroke-width:1.5;" width="271" x="528" y="326"/><rect fill="#F1F1F1" height="61.4648" rx="5" ry="5" style="stroke:#F1F1F1;stroke-width:1.5;" width="271" x="528" y="405"/><text fill="#000000" font-family="sans-serif" font-size="14" font-weight="bold" lengthAdjust="spacing" textLength="78" x="533" y="420.5352">field_value</text><text fill="#000000" font-family="sans-serif" font-size="14" lengthAdjust="spacing" textLength="112" x="637" y="420.5352">ANDERSON0001</text><line style="stroke:#000000;stroke-width:1.0;" x1="632" x2="632" y1="405" y2="425.4883"/><line style="stroke:#000000;stroke-width:1.0;" x1="528" x2="799" y1="425.4883" y2="425.4883"/><text fill="#000000" font-family="sans-serif" font-size="14" font-weight="bold" lengthAdjust="spacing" textLength="74" x="533" y="441.0234">row_count</text><text fill="#000000" font-family="sans-serif" font-size="14" lengthAdjust="spacing" textLength="9" x="637" y="441.0234">1</text><line style="stroke:#000000;stroke-width:1.0;" x1="632" x2="632" y1="425.4883" y2="445.9766"/><line style="stroke:#000000;stroke-width:1.0;" x1="528" x2="799" y1="445.9766" y2="445.9766"/><text fill="#000000" font-family="sans-serif" font-size="14" font-weight="bold" lengthAdjust="spacing" textLength="94" x="533" y="461.5117">ratio_percent</text><text fill="#000000" font-family="sans-serif" font-size="14" lengthAdjust="spacing" textLength="157" x="637" y="461.5117">0.9615384615384616</text><line style="stroke:#000000;stroke-width:1.0;" x1="632" x2="632" y1="445.9766" y2="466.4648"/><rect fill="none" height="61.4648" rx="5" ry="5" style="stroke:#000000;stroke-width:1.5;" width="271" x="528" y="405"/><rect fill="#F1F1F1" height="61.4648" rx="5" ry="5" style="stroke:#F1F1F1;stroke-width:1.5;" width="271" x="528" y="484"/><text fill="#000000" font-family="sans-serif" font-size="14" font-weight="bold" lengthAdjust="spacing" textLength="78" x="533" y="499.5352">field_value</text><text fill="#000000" font-family="sans-serif" font-size="14" lengthAdjust="spacing" textLength="109" x="637" y="499.5352">AMERICAN0002</text><line style="stroke:#000000;stroke-width:1.0;" x1="632" x2="632" y1="484" y2="504.4883"/><line style="stroke:#000000;stroke-width:1.0;" x1="528" x2="799" y1="504.4883" y2="504.4883"/><text fill="#000000" font-family="sans-serif" font-size="14" font-weight="bold" lengthAdjust="spacing" textLength="74" x="533" y="520.0234">row_count</text><text fill="#000000" font-family="sans-serif" font-size="14" lengthAdjust="spacing" textLength="9" x="637" y="520.0234">1</text><line style="stroke:#000000;stroke-width:1.0;" x1="632" x2="632" y1="504.4883" y2="524.9766"/><line style="stroke:#000000;stroke-width:1.0;" x1="528" x2="799" y1="524.9766" y2="524.9766"/><text fill="#000000" font-family="sans-serif" font-size="14" font-weight="bold" lengthAdjust="spacing" textLength="94" x="533" y="540.5117">ratio_percent</text><text fill="#000000" font-family="sans-serif" font-size="14" lengthAdjust="spacing" textLength="157" x="637" y="540.5117">0.9615384615384616</text><line style="stroke:#000000;stroke-width:1.0;" x1="632" x2="632" y1="524.9766" y2="545.4648"/><rect fill="none" height="61.4648" rx="5" ry="5" style="stroke:#000000;stroke-width:1.5;" width="271" x="528" y="484"/><rect fill="#F1F1F1" height="61.4648" rx="5" ry="5" style="stroke:#F1F1F1;stroke-width:1.5;" width="271" x="528" y="563"/><text fill="#000000" font-family="sans-serif" font-size="14" font-weight="bold" lengthAdjust="spacing" textLength="78" x="533" y="578.5352">field_value</text><text fill="#000000" font-family="sans-serif" font-size="14" lengthAdjust="spacing" textLength="109" x="637" y="578.5352">AMERICAN0001</text><line style="stroke:#000000;stroke-width:1.0;" x1="632" x2="632" y1="563" y2="583.4883"/><line style="stroke:#000000;stroke-width:1.0;" x1="528" x2="799" y1="583.4883" y2="583.4883"/><text fill="#000000" font-family="sans-serif" font-size="14" font-weight="bold" lengthAdjust="spacing" textLength="74" x="533" y="599.0234">row_count</text><text fill="#000000" font-family="sans-serif" font-size="14" lengthAdjust="spacing" textLength="9" x="637" y="599.0234">1</text><line style="stroke:#000000;stroke-width:1.0;" x1="632" x2="632" y1="583.4883" y2="603.9766"/><line style="stroke:#000000;stroke-width:1.0;" x1="528" x2="799" y1="603.9766" y2="603.9766"/><text fill="#000000" font-family="sans-serif" font-size="14" font-weight="bold" lengthAdjust="spacing" textLength="94" x="533" y="619.5117">ratio_percent</text><text fill="#000000" font-family="sans-serif" font-size="14" lengthAdjust="spacing" textLength="157" x="637" y="619.5117">0.9615384615384616</text><line style="stroke:#000000;stroke-width:1.0;" x1="632" x2="632" y1="603.9766" y2="624.4648"/><rect fill="none" height="61.4648" rx="5" ry="5" style="stroke:#000000;stroke-width:1.5;" width="271" x="528" y="563"/><rect fill="#F1F1F1" height="61.4648" rx="5" ry="5" style="stroke:#F1F1F1;stroke-width:1.5;" width="271" x="528" y="642"/><text fill="#000000" font-family="sans-serif" font-size="14" font-weight="bold" lengthAdjust="spacing" textLength="78" x="533" y="657.5352">field_value</text><text fill="#000000" font-family="sans-serif" font-size="14" lengthAdjust="spacing" textLength="107" x="637" y="657.5352">ALLENSON0001</text><line style="stroke:#000000;stroke-width:1.0;" x1="632" x2="632" y1="642" y2="662.4883"/><line style="stroke:#000000;stroke-width:1.0;" x1="528" x2="799" y1="662.4883" y2="662.4883"/><text fill="#000000" font-family="sans-serif" font-size="14" font-weight="bold" lengthAdjust="spacing" textLength="74" x="533" y="678.0234">row_count</text><text fill="#000000" font-family="sans-serif" font-size="14" lengthAdjust="spacing" textLength="9" x="637" y="678.0234">1</text><line style="stroke:#000000;stroke-width:1.0;" x1="632" x2="632" y1="662.4883" y2="682.9766"/><line style="stroke:#000000;stroke-width:1.0;" x1="528" x2="799" y1="682.9766" y2="682.9766"/><text fill="#000000" font-family="sans-serif" font-size="14" font-weight="bold" lengthAdjust="spacing" textLength="94" x="533" y="698.5117">ratio_percent</text><text fill="#000000" font-family="sans-serif" font-size="14" lengthAdjust="spacing" textLength="157" x="637" y="698.5117">0.9615384615384616</text><line style="stroke:#000000;stroke-width:1.0;" x1="632" x2="632" y1="682.9766" y2="703.4648"/><rect fill="none" height="61.4648" rx="5" ry="5" style="stroke:#000000;stroke-width:1.5;" width="271" x="528" y="642"/><rect fill="#F1F1F1" height="61.4648" rx="5" ry="5" style="stroke:#F1F1F1;stroke-width:1.5;" width="271" x="528" y="721"/><text fill="#000000" font-family="sans-serif" font-size="14" font-weight="bold" lengthAdjust="spacing" textLength="78" x="533" y="736.5352">field_value</text><text fill="#000000" font-family="sans-serif" font-size="14" lengthAdjust="spacing" textLength="113" x="637" y="736.5352">ADVANCED0001</text><line style="stroke:#000000;stroke-width:1.0;" x1="632" x2="632" y1="721" y2="741.4883"/><line style="stroke:#000000;stroke-width:1.0;" x1="528" x2="799" y1="741.4883" y2="741.4883"/><text fill="#000000" font-family="sans-serif" font-size="14" font-weight="bold" lengthAdjust="spacing" textLength="74" x="533" y="757.0234">row_count</text><text fill="#000000" font-family="sans-serif" font-size="14" lengthAdjust="spacing" textLength="9" x="637" y="757.0234">1</text><line style="stroke:#000000;stroke-width:1.0;" x1="632" x2="632" y1="741.4883" y2="761.9766"/><line style="stroke:#000000;stroke-width:1.0;" x1="528" x2="799" y1="761.9766" y2="761.9766"/><text fill="#000000" font-family="sans-serif" font-size="14" font-weight="bold" lengthAdjust="spacing" textLength="94" x="533" y="777.5117">ratio_percent</text><text fill="#000000" font-family="sans-serif" font-size="14" lengthAdjust="spacing" textLength="157" x="637" y="777.5117">0.9615384615384616</text><line style="stroke:#000000;stroke-width:1.0;" x1="632" x2="632" y1="761.9766" y2="782.4648"/><rect fill="none" height="61.4648" rx="5" ry="5" style="stroke:#000000;stroke-width:1.5;" width="271" x="528" y="721"/><path d="M253,315.5 L266,315.5 C286.8273,315.5 283.7406,295.5187 302,285.5 C306.1394,283.2288 310.4771,281.0988 314.9224,279.1061 " fill="none" style="stroke:#000000;stroke-width:1.0;stroke-dasharray:3.0,3.0;"/><path d="M316.1301,281.9305 L317.0407,278.2004 L313.7148,276.2817 L321.9835,276.0871 L316.1301,281.9305 " fill="#000000" style="stroke:#000000;stroke-width:1.0;"/><ellipse cx="253" cy="315.5" fill="#000000" rx="3" ry="3" style="stroke:#000000;stroke-width:1.0;"/><path d="M397,303.5 L410,303.5 C447.3122,303.5 466.1906,312.4458 492,285.5 C556.2901,218.3792 465.93,148.679 528,79.5 C529.0081,78.3765 530.0463,77.2844 531.1126,76.2231 " fill="none" style="stroke:#000000;stroke-width:1.0;stroke-dasharray:3.0,3.0;"/><path d="M533.1347,78.4455 L532.7795,74.7065 L529.0905,74.0006 L536.6688,71.1678 L533.1347,78.4455 " fill="#000000" style="stroke:#000000;stroke-width:1.0;"/><ellipse cx="397" cy="303.5" fill="#000000" rx="3" ry="3" style="stroke:#000000;stroke-width:1.0;"/><path d="M397,324.5 L410,324.5 C450.3564,324.5 465.9543,316.3264 492,285.5 C529.864,240.686 486.6193,200.0887 528,158.5 C529.2233,157.2705 530.4828,156.0793 531.7755,154.925 " fill="none" style="stroke:#000000;stroke-width:1.0;stroke-dasharray:3.0,3.0;"/><path d="M533.7064,157.2737 L533.537,153.4769 L529.8447,152.5764 L537.6472,150.0978 L533.7064,157.2737 " fill="#000000" style="stroke:#000000;stroke-width:1.0;"/><ellipse cx="397" cy="324.5" fill="#000000" rx="3" ry="3" style="stroke:#000000;stroke-width:1.0;"/><path d="M397,344.5 L410,344.5 C454.8977,344.5 459.9398,316.9316 492,285.5 C511.0419,266.8314 506.0554,252.6508 528,237.5 C530.3464,235.88 532.7599,234.3267 535.2295,232.8373 " fill="none" style="stroke:#000000;stroke-width:1.0;stroke-dasharray:3.0,3.0;"/><path d="M536.7476,235.5016 L537.2277,231.6987 L533.7115,230.173 L541.8903,229.0421 L536.7476,235.5016 " fill="#000000" style="stroke:#000000;stroke-width:1.0;"/><ellipse cx="397" cy="344.5" fill="#000000" rx="3" ry="3" style="stroke:#000000;stroke-width:1.0;"/><path d="M397,365.5 L410,365.5 C466.6174,365.5 474.5709,336.2315 528,317.5 C534.8339,315.1041 541.894,312.7271 549.0365,310.3966 " fill="none" style="stroke:#000000;stroke-width:1.0;stroke-dasharray:3.0,3.0;"/><path d="M549.9621,313.2625 L551.1859,309.7025 L548.1109,307.5308 L556.2011,308.0827 L549.9621,313.2625 " fill="#000000" style="stroke:#000000;stroke-width:1.0;"/><ellipse cx="397" cy="365.5" fill="#000000" rx="3" ry="3" style="stroke:#000000;stroke-width:1.0;"/><path d="M397,385.5 L410,385.5 C446.0127,385.5 484.7224,382.5639 520.7667,378.5603 " fill="none" style="stroke:#000000;stroke-width:1.0;stroke-dasharray:3.0,3.0;"/><path d="M521.1147,381.6199 L523.0615,378.2993 L520.4188,375.5006 L528.4158,377.6904 L521.1147,381.6199 " fill="#000000" style="stroke:#000000;stroke-width:1.0;"/><ellipse cx="397" cy="385.5" fill="#000000" rx="3" ry="3" style="stroke:#000000;stroke-width:1.0;"/><path d="M397,406.5 L410,406.5 C446.0127,406.5 484.7224,409.4361 520.7667,413.4397 " fill="none" style="stroke:#000000;stroke-width:1.0;stroke-dasharray:3.0,3.0;"/><path d="M520.4188,416.4994 L523.0615,413.7007 L521.1147,410.3801 L528.4158,414.3096 L520.4188,416.4994 " fill="#000000" style="stroke:#000000;stroke-width:1.0;"/><ellipse cx="397" cy="406.5" fill="#000000" rx="3" ry="3" style="stroke:#000000;stroke-width:1.0;"/><path d="M397,427.5 L410,427.5 C466.6174,427.5 474.5074,456.9509 528,475.5 C533.9641,477.5681 540.1016,479.6165 546.3168,481.6282 " fill="none" style="stroke:#000000;stroke-width:1.0;stroke-dasharray:3.0,3.0;"/><path d="M545.3793,484.5585 L548.5145,482.3313 L547.2542,478.6979 L553.6426,483.9718 L545.3793,484.5585 " fill="#000000" style="stroke:#000000;stroke-width:1.0;"/><ellipse cx="397" cy="427.5" fill="#000000" rx="3" ry="3" style="stroke:#000000;stroke-width:1.0;"/><path d="M397,447.5 L410,447.5 C480.7951,447.5 466.1756,520.008 528,554.5 C531.2257,556.2996 534.542,558.0227 537.9269,559.6722 " fill="none" style="stroke:#000000;stroke-width:1.0;stroke-dasharray:3.0,3.0;"/><path d="M536.6137,562.4872 L540.0382,560.6571 L539.2402,556.8572 L544.9644,562.9553 L536.6137,562.4872 " fill="#000000" style="stroke:#000000;stroke-width:1.0;"/><ellipse cx="397" cy="447.5" fill="#000000" rx="3" ry="3" style="stroke:#000000;stroke-width:1.0;"/><path d="M397,468.5 L410,468.5 C500.1565,468.5 454.3939,581.439 528,633.5 C530.1411,635.0144 532.3405,636.4704 534.5894,637.8702 " fill="none" style="stroke:#000000;stroke-width:1.0;stroke-dasharray:3.0,3.0;"/><path d="M532.9762,640.6249 L536.6554,639.0801 L536.2026,635.1155 L541.4762,641.9033 L532.9762,640.6249 " fill="#000000" style="stroke:#000000;stroke-width:1.0;"/><ellipse cx="397" cy="468.5" fill="#000000" rx="3" ry="3" style="stroke:#000000;stroke-width:1.0;"/><path d="M397,488.5 L410,488.5 C522.5243,488.5 440.7588,641.4317 528,712.5 C529.7289,713.9084 531.5064,715.2659 533.3269,716.5744 " fill="none" style="stroke:#000000;stroke-width:1.0;stroke-dasharray:3.0,3.0;"/><path d="M531.6218,719.1133 L535.2311,717.8533 L535.032,714.0356 L539.674,720.8372 L531.6218,719.1133 " fill="#000000" style="stroke:#000000;stroke-width:1.0;"/><ellipse cx="397" cy="488.5" fill="#000000" rx="3" ry="3" style="stroke:#000000;stroke-width:1.0;"/><path d="M253,336.5 L266,336.5 C309.8518,336.5 355.0003,364.993 378.8339,382.7089 " fill="none" style="stroke:#000000;stroke-width:1.0;stroke-dasharray:3.0,3.0;"/><path d="M376.9625,385.1642 L380.6753,384.1124 L380.7052,380.2536 L384.9721,387.3873 L376.9625,385.1642 " fill="#000000" style="stroke:#000000;stroke-width:1.0;"/><ellipse cx="253" cy="336.5" fill="#000000" rx="3" ry="3" style="stroke:#000000;stroke-width:1.0;"/><!--MD5=[814728eaf2ef01daa12260cfda98253b]
@startjson
{
    "field1": "AccountNumber",
    "combination": "AccountNumber",
    "null_distribution": {
        "total_null_rows": 0,
        "total_not_null_rows": 104
    },
    "data_distribution": [
        {
            "field_value": "BICYCLE0001",
            "row_count": 1,
            "ratio_percent": 0.9615384615384616
        },
        {
            "field_value": "BERGERON0001",
            "row_count": 1,
            "ratio_percent": 0.9615384615384616
        },
        {
            "field_value": "BEAUMONT0001",
            "row_count": 1,
            "ratio_percent": 0.9615384615384616
        },
        {
            "field_value": "AUSTRALI0001",
            "row_count": 1,
            "ratio_percent": 0.9615384615384616
        },
        {
            "field_value": "AURORAB0001",
            "row_count": 1,
            "ratio_percent": 0.9615384615384616
        },
        {
            "field_value": "ANDERSON0001",
            "row_count": 1,
            "ratio_percent": 0.9615384615384616
        },
        {
            "field_value": "AMERICAN0002",
            "row_count": 1,
            "ratio_percent": 0.9615384615384616
        },
        {
            "field_value": "AMERICAN0001",
            "row_count": 1,
            "ratio_percent": 0.9615384615384616
        },
        {
            "field_value": "ALLENSON0001",
            "row_count": 1,
            "ratio_percent": 0.9615384615384616
        },
        {
            "field_value": "ADVANCED0001",
            "row_count": 1,
            "ratio_percent": 0.9615384615384616
        }
    ]
}
@endjson

PlantUML version 1.2022.5(Sat Apr 30 06:55:52 EDT 2022)
(GPL source distribution)
Java Runtime: OpenJDK Runtime Environment
JVM: OpenJDK 64-Bit Server VM
Default Encoding: UTF-8
Language: en
Country: CA
--></g></svg>