<?xml version="1.0" encoding="UTF-8" standalone="no"?><svg xmlns="http://www.w3.org/2000/svg" xmlns:xlink="http://www.w3.org/1999/xlink" contentStyleType="text/css" height="794px" preserveAspectRatio="none" style="width:843px;height:794px;background:#FFFFFF;" version="1.1" viewBox="0 0 843 794" width="843px" zoomAndPan="magnify"><defs/><g><rect fill="#F1F1F1" height="81.9531" rx="5" ry="5" style="stroke:#F1F1F1;stroke-width:1.5;" width="260" x="10" y="264.5"/><text fill="#000000" font-family="sans-serif" font-size="14" font-weight="bold" lengthAdjust="spacing" textLength="42" x="15" y="280.0352">field1</text><text fill="#000000" font-family="sans-serif" font-size="14" lengthAdjust="spacing" textLength="116" x="149" y="280.0352">PurchaseOrderID</text><line style="stroke:#000000;stroke-width:1.0;" x1="144" x2="144" y1="264.5" y2="284.9883"/><line style="stroke:#000000;stroke-width:1.0;" x1="10" x2="270" y1="284.9883" y2="284.9883"/><text fill="#000000" font-family="sans-serif" font-size="14" font-weight="bold" lengthAdjust="spacing" textLength="90" x="15" y="300.5234">combination</text><text fill="#000000" font-family="sans-serif" font-size="14" lengthAdjust="spacing" textLength="116" x="149" y="300.5234">PurchaseOrderID</text><line style="stroke:#000000;stroke-width:1.0;" x1="144" x2="144" y1="284.9883" y2="305.4766"/><line style="stroke:#000000;stroke-width:1.0;" x1="10" x2="270" y1="305.4766" y2="305.4766"/><text fill="#000000" font-family="sans-serif" font-size="14" font-weight="bold" lengthAdjust="spacing" textLength="121" x="15" y="321.0117">null_distribution</text><text fill="#000000" font-family="sans-serif" font-size="14" lengthAdjust="spacing" textLength="12" x="149" y="321.0117">   </text><line style="stroke:#000000;stroke-width:1.0;" x1="144" x2="144" y1="305.4766" y2="325.9648"/><line style="stroke:#000000;stroke-width:1.0;" x1="10" x2="270" y1="325.9648" y2="325.9648"/><text fill="#000000" font-family="sans-serif" font-size="14" font-weight="bold" lengthAdjust="spacing" textLength="124" x="15" y="341.5">data_distribution</text><text fill="#000000" font-family="sans-serif" font-size="14" lengthAdjust="spacing" textLength="12" x="149" y="341.5">   </text><line style="stroke:#000000;stroke-width:1.0;" x1="144" x2="144" y1="325.9648" y2="346.4531"/><rect fill="none" height="81.9531" rx="5" ry="5" style="stroke:#000000;stroke-width:1.5;" width="260" x="10" y="264.5"/><rect fill="#F1F1F1" height="40.9766" rx="5" ry="5" style="stroke:#F1F1F1;stroke-width:1.5;" width="198" x="307" y="235"/><text fill="#000000" font-family="sans-serif" font-size="14" font-weight="bold" lengthAdjust="spacing" textLength="111" x="312" y="250.5352">total_null_rows</text><text fill="#000000" font-family="sans-serif" font-size="14" lengthAdjust="spacing" textLength="9" x="464" y="250.5352">0</text><line style="stroke:#000000;stroke-width:1.0;" x1="459" x2="459" y1="235" y2="255.4883"/><line style="stroke:#000000;stroke-width:1.0;" x1="307" x2="505" y1="255.4883" y2="255.4883"/><text fill="#000000" font-family="sans-serif" font-size="14" font-weight="bold" lengthAdjust="spacing" textLength="142" x="312" y="271.0234">total_not_null_rows</text><text fill="#000000" font-family="sans-serif" font-size="14" lengthAdjust="spacing" textLength="36" x="464" y="271.0234">4012</text><line style="stroke:#000000;stroke-width:1.0;" x1="459" x2="459" y1="255.4883" y2="275.9766"/><rect fill="none" height="40.9766" rx="5" ry="5" style="stroke:#000000;stroke-width:1.5;" width="198" x="307" y="235"/><rect fill="#F1F1F1" height="204.8828" rx="5" ry="5" style="stroke:#F1F1F1;stroke-width:1.5;" width="22" x="394" y="294"/><text fill="#000000" font-family="sans-serif" font-size="14" lengthAdjust="spacing" textLength="12" x="399" y="309.5352">   </text><line style="stroke:#000000;stroke-width:1.0;" x1="394" x2="416" y1="314.4883" y2="314.4883"/><text fill="#000000" font-family="sans-serif" font-size="14" lengthAdjust="spacing" textLength="12" x="399" y="330.0234">   </text><line style="stroke:#000000;stroke-width:1.0;" x1="394" x2="416" y1="334.9766" y2="334.9766"/><text fill="#000000" font-family="sans-serif" font-size="14" lengthAdjust="spacing" textLength="12" x="399" y="350.5117">   </text><line style="stroke:#000000;stroke-width:1.0;" x1="394" x2="416" y1="355.4648" y2="355.4648"/><text fill="#000000" font-family="sans-serif" font-size="14" lengthAdjust="spacing" textLength="12" x="399" y="371">   </text><line style="stroke:#000000;stroke-width:1.0;" x1="394" x2="416" y1="375.9531" y2="375.9531"/><text fill="#000000" font-family="sans-serif" font-size="14" lengthAdjust="spacing" textLength="12" x="399" y="391.4883">   </text><line style="stroke:#000000;stroke-width:1.0;" x1="394" x2="416" y1="396.4414" y2="396.4414"/><text fill="#000000" font-family="sans-serif" font-size="14" lengthAdjust="spacing" textLength="12" x="399" y="411.9766">   </text><line style="stroke:#000000;stroke-width:1.0;" x1="394" x2="416" y1="416.9297" y2="416.9297"/><text fill="#000000" font-family="sans-serif" font-size="14" lengthAdjust="spacing" textLength="12" x="399" y="432.4648">   </text><line style="stroke:#000000;stroke-width:1.0;" x1="394" x2="416" y1="437.418" y2="437.418"/><text fill="#000000" font-family="sans-serif" font-size="14" lengthAdjust="spacing" textLength="12" x="399" y="452.9531">   </text><line style="stroke:#000000;stroke-width:1.0;" x1="394" x2="416" y1="457.9063" y2="457.9063"/><text fill="#000000" font-family="sans-serif" font-size="14" lengthAdjust="spacing" textLength="12" x="399" y="473.4414">   </text><line style="stroke:#000000;stroke-width:1.0;" x1="394" x2="416" y1="478.3945" y2="478.3945"/><text fill="#000000" font-family="sans-serif" font-size="14" lengthAdjust="spacing" textLength="12" x="399" y="493.9297">   </text><rect fill="none" height="204.8828" rx="5" ry="5" style="stroke:#000000;stroke-width:1.5;" width="22" x="394" y="294"/><rect fill="#F1F1F1" height="61.4648" rx="5" ry="5" style="stroke:#F1F1F1;stroke-width:1.5;" width="289" x="542" y="10"/><text fill="#000000" font-family="sans-serif" font-size="14" font-weight="bold" lengthAdjust="spacing" textLength="78" x="547" y="25.5352">field_value</text><text fill="#000000" font-family="sans-serif" font-size="14" lengthAdjust="spacing" textLength="36" x="651" y="25.5352">1007</text><line style="stroke:#000000;stroke-width:1.0;" x1="646" x2="646" y1="10" y2="30.4883"/><line style="stroke:#000000;stroke-width:1.0;" x1="542" x2="831" y1="30.4883" y2="30.4883"/><text fill="#000000" font-family="sans-serif" font-size="14" font-weight="bold" lengthAdjust="spacing" textLength="74" x="547" y="46.0234">row_count</text><text fill="#000000" font-family="sans-serif" font-size="14" lengthAdjust="spacing" textLength="9" x="651" y="46.0234">1</text><line style="stroke:#000000;stroke-width:1.0;" x1="646" x2="646" y1="30.4883" y2="50.9766"/><line style="stroke:#000000;stroke-width:1.0;" x1="542" x2="831" y1="50.9766" y2="50.9766"/><text fill="#000000" font-family="sans-serif" font-size="14" font-weight="bold" lengthAdjust="spacing" textLength="94" x="547" y="66.5117">ratio_percent</text><text fill="#000000" font-family="sans-serif" font-size="14" lengthAdjust="spacing" textLength="175" x="651" y="66.5117">0.024925224327018942</text><line style="stroke:#000000;stroke-width:1.0;" x1="646" x2="646" y1="50.9766" y2="71.4648"/><rect fill="none" height="61.4648" rx="5" ry="5" style="stroke:#000000;stroke-width:1.5;" width="289" x="542" y="10"/><rect fill="#F1F1F1" height="61.4648" rx="5" ry="5" style="stroke:#F1F1F1;stroke-width:1.5;" width="289" x="542" y="89"/><text fill="#000000" font-family="sans-serif" font-size="14" font-weight="bold" lengthAdjust="spacing" textLength="78" x="547" y="104.5352">field_value</text><text fill="#000000" font-family="sans-serif" font-size="14" lengthAdjust="spacing" textLength="36" x="651" y="104.5352">1006</text><line style="stroke:#000000;stroke-width:1.0;" x1="646" x2="646" y1="89" y2="109.4883"/><line style="stroke:#000000;stroke-width:1.0;" x1="542" x2="831" y1="109.4883" y2="109.4883"/><text fill="#000000" font-family="sans-serif" font-size="14" font-weight="bold" lengthAdjust="spacing" textLength="74" x="547" y="125.0234">row_count</text><text fill="#000000" font-family="sans-serif" font-size="14" lengthAdjust="spacing" textLength="9" x="651" y="125.0234">1</text><line style="stroke:#000000;stroke-width:1.0;" x1="646" x2="646" y1="109.4883" y2="129.9766"/><line style="stroke:#000000;stroke-width:1.0;" x1="542" x2="831" y1="129.9766" y2="129.9766"/><text fill="#000000" font-family="sans-serif" font-size="14" font-weight="bold" lengthAdjust="spacing" textLength="94" x="547" y="145.5117">ratio_percent</text><text fill="#000000" font-family="sans-serif" font-size="14" lengthAdjust="spacing" textLength="175" x="651" y="145.5117">0.024925224327018942</text><line style="stroke:#000000;stroke-width:1.0;" x1="646" x2="646" y1="129.9766" y2="150.4648"/><rect fill="none" height="61.4648" rx="5" ry="5" style="stroke:#000000;stroke-width:1.5;" width="289" x="542" y="89"/><rect fill="#F1F1F1" height="61.4648" rx="5" ry="5" style="stroke:#F1F1F1;stroke-width:1.5;" width="289" x="542" y="168"/><text fill="#000000" font-family="sans-serif" font-size="14" font-weight="bold" lengthAdjust="spacing" textLength="78" x="547" y="183.5352">field_value</text><text fill="#000000" font-family="sans-serif" font-size="14" lengthAdjust="spacing" textLength="36" x="651" y="183.5352">1005</text><line style="stroke:#000000;stroke-width:1.0;" x1="646" x2="646" y1="168" y2="188.4883"/><line style="stroke:#000000;stroke-width:1.0;" x1="542" x2="831" y1="188.4883" y2="188.4883"/><text fill="#000000" font-family="sans-serif" font-size="14" font-weight="bold" lengthAdjust="spacing" textLength="74" x="547" y="204.0234">row_count</text><text fill="#000000" font-family="sans-serif" font-size="14" lengthAdjust="spacing" textLength="9" x="651" y="204.0234">1</text><line style="stroke:#000000;stroke-width:1.0;" x1="646" x2="646" y1="188.4883" y2="208.9766"/><line style="stroke:#000000;stroke-width:1.0;" x1="542" x2="831" y1="208.9766" y2="208.9766"/><text fill="#000000" font-family="sans-serif" font-size="14" font-weight="bold" lengthAdjust="spacing" textLength="94" x="547" y="224.5117">ratio_percent</text><text fill="#000000" font-family="sans-serif" font-size="14" lengthAdjust="spacing" textLength="175" x="651" y="224.5117">0.024925224327018942</text><line style="stroke:#000000;stroke-width:1.0;" x1="646" x2="646" y1="208.9766" y2="229.4648"/><rect fill="none" height="61.4648" rx="5" ry="5" style="stroke:#000000;stroke-width:1.5;" width="289" x="542" y="168"/><rect fill="#F1F1F1" height="61.4648" rx="5" ry="5" style="stroke:#F1F1F1;stroke-width:1.5;" width="289" x="542" y="247"/><text fill="#000000" font-family="sans-serif" font-size="14" font-weight="bold" lengthAdjust="spacing" textLength="78" x="547" y="262.5352">field_value</text><text fill="#000000" font-family="sans-serif" font-size="14" lengthAdjust="spacing" textLength="36" x="651" y="262.5352">1004</text><line style="stroke:#000000;stroke-width:1.0;" x1="646" x2="646" y1="247" y2="267.4883"/><line style="stroke:#000000;stroke-width:1.0;" x1="542" x2="831" y1="267.4883" y2="267.4883"/><text fill="#000000" font-family="sans-serif" font-size="14" font-weight="bold" lengthAdjust="spacing" textLength="74" x="547" y="283.0234">row_count</text><text fill="#000000" font-family="sans-serif" font-size="14" lengthAdjust="spacing" textLength="9" x="651" y="283.0234">1</text><line style="stroke:#000000;stroke-width:1.0;" x1="646" x2="646" y1="267.4883" y2="287.9766"/><line style="stroke:#000000;stroke-width:1.0;" x1="542" x2="831" y1="287.9766" y2="287.9766"/><text fill="#000000" font-family="sans-serif" font-size="14" font-weight="bold" lengthAdjust="spacing" textLength="94" x="547" y="303.5117">ratio_percent</text><text fill="#000000" font-family="sans-serif" font-size="14" lengthAdjust="spacing" textLength="175" x="651" y="303.5117">0.024925224327018942</text><line style="stroke:#000000;stroke-width:1.0;" x1="646" x2="646" y1="287.9766" y2="308.4648"/><rect fill="none" height="61.4648" rx="5" ry="5" style="stroke:#000000;stroke-width:1.5;" width="289" x="542" y="247"/><rect fill="#F1F1F1" height="61.4648" rx="5" ry="5" style="stroke:#F1F1F1;stroke-width:1.5;" width="289" x="542" y="326"/><text fill="#000000" font-family="sans-serif" font-size="14" font-weight="bold" lengthAdjust="spacing" textLength="78" x="547" y="341.5352">field_value</text><text fill="#000000" font-family="sans-serif" font-size="14" lengthAdjust="spacing" textLength="36" x="651" y="341.5352">1003</text><line style="stroke:#000000;stroke-width:1.0;" x1="646" x2="646" y1="326" y2="346.4883"/><line style="stroke:#000000;stroke-width:1.0;" x1="542" x2="831" y1="346.4883" y2="346.4883"/><text fill="#000000" font-family="sans-serif" font-size="14" font-weight="bold" lengthAdjust="spacing" textLength="74" x="547" y="362.0234">row_count</text><text fill="#000000" font-family="sans-serif" font-size="14" lengthAdjust="spacing" textLength="9" x="651" y="362.0234">1</text><line style="stroke:#000000;stroke-width:1.0;" x1="646" x2="646" y1="346.4883" y2="366.9766"/><line style="stroke:#000000;stroke-width:1.0;" x1="542" x2="831" y1="366.9766" y2="366.9766"/><text fill="#000000" font-family="sans-serif" font-size="14" font-weight="bold" lengthAdjust="spacing" textLength="94" x="547" y="382.5117">ratio_percent</text><text fill="#000000" font-family="sans-serif" font-size="14" lengthAdjust="spacing" textLength="175" x="651" y="382.5117">0.024925224327018942</text><line style="stroke:#000000;stroke-width:1.0;" x1="646" x2="646" y1="366.9766" y2="387.4648"/><rect fill="none" height="61.4648" rx="5" ry="5" style="stroke:#000000;stroke-width:1.5;" width="289" x="542" y="326"/><rect fill="#F1F1F1" height="61.4648" rx="5" ry="5" style="stroke:#F1F1F1;stroke-width:1.5;" width="289" x="542" y="405"/><text fill="#000000" font-family="sans-serif" font-size="14" font-weight="bold" lengthAdjust="spacing" textLength="78" x="547" y="420.5352">field_value</text><text fill="#000000" font-family="sans-serif" font-size="14" lengthAdjust="spacing" textLength="36" x="651" y="420.5352">1002</text><line style="stroke:#000000;stroke-width:1.0;" x1="646" x2="646" y1="405" y2="425.4883"/><line style="stroke:#000000;stroke-width:1.0;" x1="542" x2="831" y1="425.4883" y2="425.4883"/><text fill="#000000" font-family="sans-serif" font-size="14" font-weight="bold" lengthAdjust="spacing" textLength="74" x="547" y="441.0234">row_count</text><text fill="#000000" font-family="sans-serif" font-size="14" lengthAdjust="spacing" textLength="9" x="651" y="441.0234">1</text><line style="stroke:#000000;stroke-width:1.0;" x1="646" x2="646" y1="425.4883" y2="445.9766"/><line style="stroke:#000000;stroke-width:1.0;" x1="542" x2="831" y1="445.9766" y2="445.9766"/><text fill="#000000" font-family="sans-serif" font-size="14" font-weight="bold" lengthAdjust="spacing" textLength="94" x="547" y="461.5117">ratio_percent</text><text fill="#000000" font-family="sans-serif" font-size="14" lengthAdjust="spacing" textLength="175" x="651" y="461.5117">0.024925224327018942</text><line style="stroke:#000000;stroke-width:1.0;" x1="646" x2="646" y1="445.9766" y2="466.4648"/><rect fill="none" height="61.4648" rx="5" ry="5" style="stroke:#000000;stroke-width:1.5;" width="289" x="542" y="405"/><rect fill="#F1F1F1" height="61.4648" rx="5" ry="5" style="stroke:#F1F1F1;stroke-width:1.5;" width="289" x="542" y="484"/><text fill="#000000" font-family="sans-serif" font-size="14" font-weight="bold" lengthAdjust="spacing" textLength="78" x="547" y="499.5352">field_value</text><text fill="#000000" font-family="sans-serif" font-size="14" lengthAdjust="spacing" textLength="36" x="651" y="499.5352">1001</text><line style="stroke:#000000;stroke-width:1.0;" x1="646" x2="646" y1="484" y2="504.4883"/><line style="stroke:#000000;stroke-width:1.0;" x1="542" x2="831" y1="504.4883" y2="504.4883"/><text fill="#000000" font-family="sans-serif" font-size="14" font-weight="bold" lengthAdjust="spacing" textLength="74" x="547" y="520.0234">row_count</text><text fill="#000000" font-family="sans-serif" font-size="14" lengthAdjust="spacing" textLength="9" x="651" y="520.0234">1</text><line style="stroke:#000000;stroke-width:1.0;" x1="646" x2="646" y1="504.4883" y2="524.9766"/><line style="stroke:#000000;stroke-width:1.0;" x1="542" x2="831" y1="524.9766" y2="524.9766"/><text fill="#000000" font-family="sans-serif" font-size="14" font-weight="bold" lengthAdjust="spacing" textLength="94" x="547" y="540.5117">ratio_percent</text><text fill="#000000" font-family="sans-serif" font-size="14" lengthAdjust="spacing" textLength="175" x="651" y="540.5117">0.024925224327018942</text><line style="stroke:#000000;stroke-width:1.0;" x1="646" x2="646" y1="524.9766" y2="545.4648"/><rect fill="none" height="61.4648" rx="5" ry="5" style="stroke:#000000;stroke-width:1.5;" width="289" x="542" y="484"/><rect fill="#F1F1F1" height="61.4648" rx="5" ry="5" style="stroke:#F1F1F1;stroke-width:1.5;" width="289" x="542" y="563"/><text fill="#000000" font-family="sans-serif" font-size="14" font-weight="bold" lengthAdjust="spacing" textLength="78" x="547" y="578.5352">field_value</text><text fill="#000000" font-family="sans-serif" font-size="14" lengthAdjust="spacing" textLength="36" x="651" y="578.5352">1000</text><line style="stroke:#000000;stroke-width:1.0;" x1="646" x2="646" y1="563" y2="583.4883"/><line style="stroke:#000000;stroke-width:1.0;" x1="542" x2="831" y1="583.4883" y2="583.4883"/><text fill="#000000" font-family="sans-serif" font-size="14" font-weight="bold" lengthAdjust="spacing" textLength="74" x="547" y="599.0234">row_count</text><text fill="#000000" font-family="sans-serif" font-size="14" lengthAdjust="spacing" textLength="9" x="651" y="599.0234">1</text><line style="stroke:#000000;stroke-width:1.0;" x1="646" x2="646" y1="583.4883" y2="603.9766"/><line style="stroke:#000000;stroke-width:1.0;" x1="542" x2="831" y1="603.9766" y2="603.9766"/><text fill="#000000" font-family="sans-serif" font-size="14" font-weight="bold" lengthAdjust="spacing" textLength="94" x="547" y="619.5117">ratio_percent</text><text fill="#000000" font-family="sans-serif" font-size="14" lengthAdjust="spacing" textLength="175" x="651" y="619.5117">0.024925224327018942</text><line style="stroke:#000000;stroke-width:1.0;" x1="646" x2="646" y1="603.9766" y2="624.4648"/><rect fill="none" height="61.4648" rx="5" ry="5" style="stroke:#000000;stroke-width:1.5;" width="289" x="542" y="563"/><rect fill="#F1F1F1" height="61.4648" rx="5" ry="5" style="stroke:#F1F1F1;stroke-width:1.5;" width="289" x="542" y="642"/><text fill="#000000" font-family="sans-serif" font-size="14" font-weight="bold" lengthAdjust="spacing" textLength="78" x="547" y="657.5352">field_value</text><text fill="#000000" font-family="sans-serif" font-size="14" lengthAdjust="spacing" textLength="27" x="651" y="657.5352">100</text><line style="stroke:#000000;stroke-width:1.0;" x1="646" x2="646" y1="642" y2="662.4883"/><line style="stroke:#000000;stroke-width:1.0;" x1="542" x2="831" y1="662.4883" y2="662.4883"/><text fill="#000000" font-family="sans-serif" font-size="14" font-weight="bold" lengthAdjust="spacing" textLength="74" x="547" y="678.0234">row_count</text><text fill="#000000" font-family="sans-serif" font-size="14" lengthAdjust="spacing" textLength="9" x="651" y="678.0234">1</text><line style="stroke:#000000;stroke-width:1.0;" x1="646" x2="646" y1="662.4883" y2="682.9766"/><line style="stroke:#000000;stroke-width:1.0;" x1="542" x2="831" y1="682.9766" y2="682.9766"/><text fill="#000000" font-family="sans-serif" font-size="14" font-weight="bold" lengthAdjust="spacing" textLength="94" x="547" y="698.5117">ratio_percent</text><text fill="#000000" font-family="sans-serif" font-size="14" lengthAdjust="spacing" textLength="175" x="651" y="698.5117">0.024925224327018942</text><line style="stroke:#000000;stroke-width:1.0;" x1="646" x2="646" y1="682.9766" y2="703.4648"/><rect fill="none" height="61.4648" rx="5" ry="5" style="stroke:#000000;stroke-width:1.5;" width="289" x="542" y="642"/><rect fill="#F1F1F1" height="61.4648" rx="5" ry="5" style="stroke:#F1F1F1;stroke-width:1.5;" width="289" x="542" y="721"/><text fill="#000000" font-family="sans-serif" font-size="14" font-weight="bold" lengthAdjust="spacing" textLength="78" x="547" y="736.5352">field_value</text><text fill="#000000" font-family="sans-serif" font-size="14" lengthAdjust="spacing" textLength="18" x="651" y="736.5352">10</text><line style="stroke:#000000;stroke-width:1.0;" x1="646" x2="646" y1="721" y2="741.4883"/><line style="stroke:#000000;stroke-width:1.0;" x1="542" x2="831" y1="741.4883" y2="741.4883"/><text fill="#000000" font-family="sans-serif" font-size="14" font-weight="bold" lengthAdjust="spacing" textLength="74" x="547" y="757.0234">row_count</text><text fill="#000000" font-family="sans-serif" font-size="14" lengthAdjust="spacing" textLength="9" x="651" y="757.0234">1</text><line style="stroke:#000000;stroke-width:1.0;" x1="646" x2="646" y1="741.4883" y2="761.9766"/><line style="stroke:#000000;stroke-width:1.0;" x1="542" x2="831" y1="761.9766" y2="761.9766"/><text fill="#000000" font-family="sans-serif" font-size="14" font-weight="bold" lengthAdjust="spacing" textLength="94" x="547" y="777.5117">ratio_percent</text><text fill="#000000" font-family="sans-serif" font-size="14" lengthAdjust="spacing" textLength="175" x="651" y="777.5117">0.024925224327018942</text><line style="stroke:#000000;stroke-width:1.0;" x1="646" x2="646" y1="761.9766" y2="782.4648"/><rect fill="none" height="61.4648" rx="5" ry="5" style="stroke:#000000;stroke-width:1.5;" width="289" x="542" y="721"/><path d="M258,315.5 L271,315.5 C291.8273,315.5 288.6745,295.3971 307,285.5 C311.2321,283.2144 315.6626,281.0778 320.2032,279.0842 " fill="none" style="stroke:#000000;stroke-width:1.0;stroke-dasharray:3.0,3.0;"/><path d="M321.4096,281.9694 L322.3671,278.1794 L318.9968,276.199 L327.4162,276.0682 L321.4096,281.9694 " fill="#000000" style="stroke:#000000;stroke-width:1.0;"/><ellipse cx="258" cy="315.5" fill="#000000" rx="3" ry="3" style="stroke:#000000;stroke-width:1.0;"/><path d="M406.5,303.5 L419.5,303.5 C458.768,303.5 478.6833,313.7095 506,285.5 C570.6556,218.7312 479.353,148.1569 542,79.5 C542.9302,78.4806 543.884,77.4867 544.8601,76.5177 " fill="none" style="stroke:#000000;stroke-width:1.0;stroke-dasharray:3.0,3.0;"/><path d="M546.9727,78.8475 L546.6074,74.9333 L542.7476,74.188 L550.6844,71.2364 L546.9727,78.8475 " fill="#000000" style="stroke:#000000;stroke-width:1.0;"/><ellipse cx="406.5" cy="303.5" fill="#000000" rx="3" ry="3" style="stroke:#000000;stroke-width:1.0;"/><path d="M406.5,324.5 L419.5,324.5 C461.6713,324.5 478.4563,317.4338 506,285.5 C544.3185,241.074 500.2726,199.7408 542,158.5 C543.2348,157.2796 544.5037,156.0963 545.804,154.9491 " fill="none" style="stroke:#000000;stroke-width:1.0;stroke-dasharray:3.0,3.0;"/><path d="M547.725,157.307 L547.5724,153.5084 L543.8831,152.5913 L551.6986,150.1468 L547.725,157.307 " fill="#000000" style="stroke:#000000;stroke-width:1.0;"/><ellipse cx="406.5" cy="324.5" fill="#000000" rx="3" ry="3" style="stroke:#000000;stroke-width:1.0;"/><path d="M406.5,344.5 L419.5,344.5 C466.0358,344.5 472.3638,317.6588 506,285.5 C525.2747,267.0719 519.9294,252.4666 542,237.5 C544.3915,235.8783 546.8481,234.3238 549.3595,232.8338 " fill="none" style="stroke:#000000;stroke-width:1.0;stroke-dasharray:3.0,3.0;"/><path d="M550.8776,235.5413 L551.3901,231.6952 L547.8413,230.1263 L556.1283,229.0385 L550.8776,235.5413 " fill="#000000" style="stroke:#000000;stroke-width:1.0;"/><ellipse cx="406.5" cy="344.5" fill="#000000" rx="3" ry="3" style="stroke:#000000;stroke-width:1.0;"/><path d="M406.5,365.5 L419.5,365.5 C477.9749,365.5 486.5342,336.0162 542,317.5 C549.1988,315.0968 556.6325,312.7206 564.1534,310.3965 " fill="none" style="stroke:#000000;stroke-width:1.0;stroke-dasharray:3.0,3.0;"/><path d="M565.0757,313.4143 L566.4168,309.7048 L563.2311,307.3788 L571.6979,308.0908 L565.0757,313.4143 " fill="#000000" style="stroke:#000000;stroke-width:1.0;"/><ellipse cx="406.5" cy="365.5" fill="#000000" rx="3" ry="3" style="stroke:#000000;stroke-width:1.0;"/><path d="M406.5,385.5 L419.5,385.5 C457.0233,385.5 497.3449,382.6235 534.9804,378.6825 " fill="none" style="stroke:#000000;stroke-width:1.0;stroke-dasharray:3.0,3.0;"/><path d="M535.3011,381.6783 L537.2273,378.4419 L534.6596,375.6866 L542.4701,377.8806 L535.3011,381.6783 " fill="#000000" style="stroke:#000000;stroke-width:1.0;"/><ellipse cx="406.5" cy="385.5" fill="#000000" rx="3" ry="3" style="stroke:#000000;stroke-width:1.0;"/><path d="M406.5,406.5 L419.5,406.5 C457.0233,406.5 497.3449,409.3765 534.9804,413.3175 " fill="none" style="stroke:#000000;stroke-width:1.0;stroke-dasharray:3.0,3.0;"/><path d="M534.6596,416.3134 L537.2273,413.5581 L535.3011,410.3217 L542.4701,414.1194 L534.6596,416.3134 " fill="#000000" style="stroke:#000000;stroke-width:1.0;"/><ellipse cx="406.5" cy="406.5" fill="#000000" rx="3" ry="3" style="stroke:#000000;stroke-width:1.0;"/><path d="M406.5,427.5 L419.5,427.5 C477.9749,427.5 486.4747,457.163 542,475.5 C548.4118,477.6175 555.0111,479.7081 561.6931,481.7555 " fill="none" style="stroke:#000000;stroke-width:1.0;stroke-dasharray:3.0,3.0;"/><path d="M560.8116,484.6668 L563.8766,482.4166 L562.5746,478.8441 L568.9714,483.9593 L560.8116,484.6668 " fill="#000000" style="stroke:#000000;stroke-width:1.0;"/><ellipse cx="406.5" cy="427.5" fill="#000000" rx="3" ry="3" style="stroke:#000000;stroke-width:1.0;"/><path d="M406.5,447.5 L419.5,447.5 C491.7892,447.5 478.2586,520.4007 542,554.5 C545.4096,556.324 548.9114,558.068 552.4828,559.7349 " fill="none" style="stroke:#000000;stroke-width:1.0;stroke-dasharray:3.0,3.0;"/><path d="M551.2382,562.5142 L554.5673,560.6684 L553.7275,556.9556 L559.4311,562.8466 L551.2382,562.5142 " fill="#000000" style="stroke:#000000;stroke-width:1.0;"/><ellipse cx="406.5" cy="447.5" fill="#000000" rx="3" ry="3" style="stroke:#000000;stroke-width:1.0;"/><path d="M406.5,468.5 L419.5,468.5 C510.8344,468.5 466.5322,582.0551 542,633.5 C544.3876,635.1276 546.8405,636.6873 549.3486,638.1821 " fill="none" style="stroke:#000000;stroke-width:1.0;stroke-dasharray:3.0,3.0;"/><path d="M547.8258,640.8865 L551.3769,639.3242 L550.8714,635.4778 L556.1095,641.9891 L547.8258,640.8865 " fill="#000000" style="stroke:#000000;stroke-width:1.0;"/><ellipse cx="406.5" cy="468.5" fill="#000000" rx="3" ry="3" style="stroke:#000000;stroke-width:1.0;"/><path d="M406.5,488.5 L419.5,488.5 C532.9703,488.5 452.8782,642.2661 542,712.5 C543.8118,713.9278 545.6718,715.3035 547.5745,716.6289 " fill="none" style="stroke:#000000;stroke-width:1.0;stroke-dasharray:3.0,3.0;"/><path d="M545.8483,719.2791 L549.5622,717.9236 L549.3007,713.9787 L554.2,720.9445 L545.8483,719.2791 " fill="#000000" style="stroke:#000000;stroke-width:1.0;"/><ellipse cx="406.5" cy="488.5" fill="#000000" rx="3" ry="3" style="stroke:#000000;stroke-width:1.0;"/><path d="M258,336.5 L271,336.5 C316.3406,336.5 363.4028,365.289 388.0463,382.9834 " fill="none" style="stroke:#000000;stroke-width:1.0;stroke-dasharray:3.0,3.0;"/><path d="M386.181,385.5179 L389.9472,384.3824 L389.9117,380.4489 L394.3825,387.6468 L386.181,385.5179 " fill="#000000" style="stroke:#000000;stroke-width:1.0;"/><ellipse cx="258" cy="336.5" fill="#000000" rx="3" ry="3" style="stroke:#000000;stroke-width:1.0;"/><!--MD5=[3da0cf17e4b120c4f81f36065ad8909a]
@startjson
{
    "field1": "PurchaseOrderID",
    "combination": "PurchaseOrderID",
    "null_distribution": {
        "total_null_rows": 0,
        "total_not_null_rows": 4012
    },
    "data_distribution": [
        {
            "field_value": "1007",
            "row_count": 1,
            "ratio_percent": 0.024925224327018942
        },
        {
            "field_value": "1006",
            "row_count": 1,
            "ratio_percent": 0.024925224327018942
        },
        {
            "field_value": "1005",
            "row_count": 1,
            "ratio_percent": 0.024925224327018942
        },
        {
            "field_value": "1004",
            "row_count": 1,
            "ratio_percent": 0.024925224327018942
        },
        {
            "field_value": "1003",
            "row_count": 1,
            "ratio_percent": 0.024925224327018942
        },
        {
            "field_value": "1002",
            "row_count": 1,
            "ratio_percent": 0.024925224327018942
        },
        {
            "field_value": "1001",
            "row_count": 1,
            "ratio_percent": 0.024925224327018942
        },
        {
            "field_value": "1000",
            "row_count": 1,
            "ratio_percent": 0.024925224327018942
        },
        {
            "field_value": "100",
            "row_count": 1,
            "ratio_percent": 0.024925224327018942
        },
        {
            "field_value": "10",
            "row_count": 1,
            "ratio_percent": 0.024925224327018942
        }
    ]
}
@endjson

PlantUML version 1.2022.5(Sat Apr 30 06:55:52 EDT 2022)
(GPL source distribution)
Java Runtime: OpenJDK Runtime Environment
JVM: OpenJDK 64-Bit Server VM
Default Encoding: UTF-8
Language: en
Country: CA
--></g></svg>