<?xml version="1.0" encoding="UTF-8" standalone="no"?><svg xmlns="http://www.w3.org/2000/svg" xmlns:xlink="http://www.w3.org/1999/xlink" contentStyleType="text/css" height="557px" preserveAspectRatio="none" style="width:928px;height:557px;background:#FFFFFF;" version="1.1" viewBox="0 0 928 557" width="928px" zoomAndPan="magnify"><defs/><g><rect fill="#F1F1F1" height="81.9531" rx="5" ry="5" style="stroke:#F1F1F1;stroke-width:1.5;" width="323" x="10" y="161.5"/><text fill="#000000" font-family="sans-serif" font-size="14" font-weight="bold" lengthAdjust="spacing" textLength="42" x="15" y="177.0352">field1</text><text fill="#000000" font-family="sans-serif" font-size="14" lengthAdjust="spacing" textLength="179" x="149" y="177.0352">PurchasingWebServiceURL</text><line style="stroke:#000000;stroke-width:1.0;" x1="144" x2="144" y1="161.5" y2="181.9883"/><line style="stroke:#000000;stroke-width:1.0;" x1="10" x2="333" y1="181.9883" y2="181.9883"/><text fill="#000000" font-family="sans-serif" font-size="14" font-weight="bold" lengthAdjust="spacing" textLength="90" x="15" y="197.5234">combination</text><text fill="#000000" font-family="sans-serif" font-size="14" lengthAdjust="spacing" textLength="179" x="149" y="197.5234">PurchasingWebServiceURL</text><line style="stroke:#000000;stroke-width:1.0;" x1="144" x2="144" y1="181.9883" y2="202.4766"/><line style="stroke:#000000;stroke-width:1.0;" x1="10" x2="333" y1="202.4766" y2="202.4766"/><text fill="#000000" font-family="sans-serif" font-size="14" font-weight="bold" lengthAdjust="spacing" textLength="121" x="15" y="218.0117">null_distribution</text><text fill="#000000" font-family="sans-serif" font-size="14" lengthAdjust="spacing" textLength="12" x="149" y="218.0117">   </text><line style="stroke:#000000;stroke-width:1.0;" x1="144" x2="144" y1="202.4766" y2="222.9648"/><line style="stroke:#000000;stroke-width:1.0;" x1="10" x2="333" y1="222.9648" y2="222.9648"/><text fill="#000000" font-family="sans-serif" font-size="14" font-weight="bold" lengthAdjust="spacing" textLength="124" x="15" y="238.5">data_distribution</text><text fill="#000000" font-family="sans-serif" font-size="14" lengthAdjust="spacing" textLength="12" x="149" y="238.5">   </text><line style="stroke:#000000;stroke-width:1.0;" x1="144" x2="144" y1="222.9648" y2="243.4531"/><rect fill="none" height="81.9531" rx="5" ry="5" style="stroke:#000000;stroke-width:1.5;" width="323" x="10" y="161.5"/><rect fill="#F1F1F1" height="40.9766" rx="5" ry="5" style="stroke:#F1F1F1;stroke-width:1.5;" width="180" x="370" y="148"/><text fill="#000000" font-family="sans-serif" font-size="14" font-weight="bold" lengthAdjust="spacing" textLength="111" x="375" y="163.5352">total_null_rows</text><text fill="#000000" font-family="sans-serif" font-size="14" lengthAdjust="spacing" textLength="18" x="527" y="163.5352">98</text><line style="stroke:#000000;stroke-width:1.0;" x1="522" x2="522" y1="148" y2="168.4883"/><line style="stroke:#000000;stroke-width:1.0;" x1="370" x2="550" y1="168.4883" y2="168.4883"/><text fill="#000000" font-family="sans-serif" font-size="14" font-weight="bold" lengthAdjust="spacing" textLength="142" x="375" y="184.0234">total_not_null_rows</text><text fill="#000000" font-family="sans-serif" font-size="14" lengthAdjust="spacing" textLength="9" x="527" y="184.0234">6</text><line style="stroke:#000000;stroke-width:1.0;" x1="522" x2="522" y1="168.4883" y2="188.9766"/><rect fill="none" height="40.9766" rx="5" ry="5" style="stroke:#000000;stroke-width:1.5;" width="180" x="370" y="148"/><rect fill="#F1F1F1" height="143.418" rx="5" ry="5" style="stroke:#F1F1F1;stroke-width:1.5;" width="22" x="448" y="207"/><text fill="#000000" font-family="sans-serif" font-size="14" lengthAdjust="spacing" textLength="12" x="453" y="222.5352">   </text><line style="stroke:#000000;stroke-width:1.0;" x1="448" x2="470" y1="227.4883" y2="227.4883"/><text fill="#000000" font-family="sans-serif" font-size="14" lengthAdjust="spacing" textLength="12" x="453" y="243.0234">   </text><line style="stroke:#000000;stroke-width:1.0;" x1="448" x2="470" y1="247.9766" y2="247.9766"/><text fill="#000000" font-family="sans-serif" font-size="14" lengthAdjust="spacing" textLength="12" x="453" y="263.5117">   </text><line style="stroke:#000000;stroke-width:1.0;" x1="448" x2="470" y1="268.4648" y2="268.4648"/><text fill="#000000" font-family="sans-serif" font-size="14" lengthAdjust="spacing" textLength="12" x="453" y="284">   </text><line style="stroke:#000000;stroke-width:1.0;" x1="448" x2="470" y1="288.9531" y2="288.9531"/><text fill="#000000" font-family="sans-serif" font-size="14" lengthAdjust="spacing" textLength="12" x="453" y="304.4883">   </text><line style="stroke:#000000;stroke-width:1.0;" x1="448" x2="470" y1="309.4414" y2="309.4414"/><text fill="#000000" font-family="sans-serif" font-size="14" lengthAdjust="spacing" textLength="12" x="453" y="324.9766">   </text><line style="stroke:#000000;stroke-width:1.0;" x1="448" x2="470" y1="329.9297" y2="329.9297"/><text fill="#000000" font-family="sans-serif" font-size="14" lengthAdjust="spacing" textLength="12" x="453" y="345.4648">   </text><rect fill="none" height="143.418" rx="5" ry="5" style="stroke:#000000;stroke-width:1.5;" width="22" x="448" y="207"/><rect fill="#F1F1F1" height="61.4648" rx="5" ry="5" style="stroke:#F1F1F1;stroke-width:1.5;" width="262" x="620.5" y="10"/><text fill="#000000" font-family="sans-serif" font-size="14" font-weight="bold" lengthAdjust="spacing" textLength="78" x="625.5" y="25.5352">field_value</text><text fill="#000000" font-family="sans-serif" font-size="14" font-weight="bold" lengthAdjust="spacing" textLength="37" x="729.5" y="25.5352">NULL</text><line style="stroke:#000000;stroke-width:1.0;" x1="724.5" x2="724.5" y1="10" y2="30.4883"/><line style="stroke:#000000;stroke-width:1.0;" x1="620.5" x2="882.5" y1="30.4883" y2="30.4883"/><text fill="#000000" font-family="sans-serif" font-size="14" font-weight="bold" lengthAdjust="spacing" textLength="74" x="625.5" y="46.0234">row_count</text><text fill="#000000" font-family="sans-serif" font-size="14" lengthAdjust="spacing" textLength="18" x="729.5" y="46.0234">98</text><line style="stroke:#000000;stroke-width:1.0;" x1="724.5" x2="724.5" y1="30.4883" y2="50.9766"/><line style="stroke:#000000;stroke-width:1.0;" x1="620.5" x2="882.5" y1="50.9766" y2="50.9766"/><text fill="#000000" font-family="sans-serif" font-size="14" font-weight="bold" lengthAdjust="spacing" textLength="94" x="625.5" y="66.5117">ratio_percent</text><text fill="#000000" font-family="sans-serif" font-size="14" lengthAdjust="spacing" textLength="148" x="729.5" y="66.5117">94.23076923076923</text><line style="stroke:#000000;stroke-width:1.0;" x1="724.5" x2="724.5" y1="50.9766" y2="71.4648"/><rect fill="none" height="61.4648" rx="5" ry="5" style="stroke:#000000;stroke-width:1.5;" width="262" x="620.5" y="10"/><rect fill="#F1F1F1" height="61.4648" rx="5" ry="5" style="stroke:#F1F1F1;stroke-width:1.5;" width="329" x="587" y="89"/><text fill="#000000" font-family="sans-serif" font-size="14" font-weight="bold" lengthAdjust="spacing" textLength="78" x="592" y="104.5352">field_value</text><text fill="#000000" font-family="sans-serif" font-size="14" lengthAdjust="spacing" textLength="215" x="696" y="104.5352">www.wideworldimporters.com/</text><line style="stroke:#000000;stroke-width:1.0;" x1="691" x2="691" y1="89" y2="109.4883"/><line style="stroke:#000000;stroke-width:1.0;" x1="587" x2="916" y1="109.4883" y2="109.4883"/><text fill="#000000" font-family="sans-serif" font-size="14" font-weight="bold" lengthAdjust="spacing" textLength="74" x="592" y="125.0234">row_count</text><text fill="#000000" font-family="sans-serif" font-size="14" lengthAdjust="spacing" textLength="9" x="696" y="125.0234">1</text><line style="stroke:#000000;stroke-width:1.0;" x1="691" x2="691" y1="109.4883" y2="129.9766"/><line style="stroke:#000000;stroke-width:1.0;" x1="587" x2="916" y1="129.9766" y2="129.9766"/><text fill="#000000" font-family="sans-serif" font-size="14" font-weight="bold" lengthAdjust="spacing" textLength="94" x="592" y="145.5117">ratio_percent</text><text fill="#000000" font-family="sans-serif" font-size="14" lengthAdjust="spacing" textLength="157" x="696" y="145.5117">0.9615384615384616</text><line style="stroke:#000000;stroke-width:1.0;" x1="691" x2="691" y1="129.9766" y2="150.4648"/><rect fill="none" height="61.4648" rx="5" ry="5" style="stroke:#000000;stroke-width:1.5;" width="329" x="587" y="89"/><rect fill="#F1F1F1" height="61.4648" rx="5" ry="5" style="stroke:#F1F1F1;stroke-width:1.5;" width="271" x="616" y="168"/><text fill="#000000" font-family="sans-serif" font-size="14" font-weight="bold" lengthAdjust="spacing" textLength="78" x="621" y="183.5352">field_value</text><text fill="#000000" font-family="sans-serif" font-size="14" lengthAdjust="spacing" textLength="155" x="725" y="183.5352">www.treyresearch.net/</text><line style="stroke:#000000;stroke-width:1.0;" x1="720" x2="720" y1="168" y2="188.4883"/><line style="stroke:#000000;stroke-width:1.0;" x1="616" x2="887" y1="188.4883" y2="188.4883"/><text fill="#000000" font-family="sans-serif" font-size="14" font-weight="bold" lengthAdjust="spacing" textLength="74" x="621" y="204.0234">row_count</text><text fill="#000000" font-family="sans-serif" font-size="14" lengthAdjust="spacing" textLength="9" x="725" y="204.0234">1</text><line style="stroke:#000000;stroke-width:1.0;" x1="720" x2="720" y1="188.4883" y2="208.9766"/><line style="stroke:#000000;stroke-width:1.0;" x1="616" x2="887" y1="208.9766" y2="208.9766"/><text fill="#000000" font-family="sans-serif" font-size="14" font-weight="bold" lengthAdjust="spacing" textLength="94" x="621" y="224.5117">ratio_percent</text><text fill="#000000" font-family="sans-serif" font-size="14" lengthAdjust="spacing" textLength="157" x="725" y="224.5117">0.9615384615384616</text><line style="stroke:#000000;stroke-width:1.0;" x1="720" x2="720" y1="208.9766" y2="229.4648"/><rect fill="none" height="61.4648" rx="5" ry="5" style="stroke:#000000;stroke-width:1.5;" width="271" x="616" y="168"/><rect fill="#F1F1F1" height="61.4648" rx="5" ry="5" style="stroke:#F1F1F1;stroke-width:1.5;" width="271" x="616" y="247"/><text fill="#000000" font-family="sans-serif" font-size="14" font-weight="bold" lengthAdjust="spacing" textLength="78" x="621" y="262.5352">field_value</text><text fill="#000000" font-family="sans-serif" font-size="14" lengthAdjust="spacing" textLength="149" x="725" y="262.5352">www.proseware.com/</text><line style="stroke:#000000;stroke-width:1.0;" x1="720" x2="720" y1="247" y2="267.4883"/><line style="stroke:#000000;stroke-width:1.0;" x1="616" x2="887" y1="267.4883" y2="267.4883"/><text fill="#000000" font-family="sans-serif" font-size="14" font-weight="bold" lengthAdjust="spacing" textLength="74" x="621" y="283.0234">row_count</text><text fill="#000000" font-family="sans-serif" font-size="14" lengthAdjust="spacing" textLength="9" x="725" y="283.0234">1</text><line style="stroke:#000000;stroke-width:1.0;" x1="720" x2="720" y1="267.4883" y2="287.9766"/><line style="stroke:#000000;stroke-width:1.0;" x1="616" x2="887" y1="287.9766" y2="287.9766"/><text fill="#000000" font-family="sans-serif" font-size="14" font-weight="bold" lengthAdjust="spacing" textLength="94" x="621" y="303.5117">ratio_percent</text><text fill="#000000" font-family="sans-serif" font-size="14" lengthAdjust="spacing" textLength="157" x="725" y="303.5117">0.9615384615384616</text><line style="stroke:#000000;stroke-width:1.0;" x1="720" x2="720" y1="287.9766" y2="308.4648"/><rect fill="none" height="61.4648" rx="5" ry="5" style="stroke:#000000;stroke-width:1.5;" width="271" x="616" y="247"/><rect fill="#F1F1F1" height="61.4648" rx="5" ry="5" style="stroke:#F1F1F1;stroke-width:1.5;" width="311" x="596" y="326"/><text fill="#000000" font-family="sans-serif" font-size="14" font-weight="bold" lengthAdjust="spacing" textLength="78" x="601" y="341.5352">field_value</text><text fill="#000000" font-family="sans-serif" font-size="14" lengthAdjust="spacing" textLength="197" x="705" y="341.5352">www.northwindtraders.com/</text><line style="stroke:#000000;stroke-width:1.0;" x1="700" x2="700" y1="326" y2="346.4883"/><line style="stroke:#000000;stroke-width:1.0;" x1="596" x2="907" y1="346.4883" y2="346.4883"/><text fill="#000000" font-family="sans-serif" font-size="14" font-weight="bold" lengthAdjust="spacing" textLength="74" x="601" y="362.0234">row_count</text><text fill="#000000" font-family="sans-serif" font-size="14" lengthAdjust="spacing" textLength="9" x="705" y="362.0234">1</text><line style="stroke:#000000;stroke-width:1.0;" x1="700" x2="700" y1="346.4883" y2="366.9766"/><line style="stroke:#000000;stroke-width:1.0;" x1="596" x2="907" y1="366.9766" y2="366.9766"/><text fill="#000000" font-family="sans-serif" font-size="14" font-weight="bold" lengthAdjust="spacing" textLength="94" x="601" y="382.5117">ratio_percent</text><text fill="#000000" font-family="sans-serif" font-size="14" lengthAdjust="spacing" textLength="157" x="705" y="382.5117">0.9615384615384616</text><line style="stroke:#000000;stroke-width:1.0;" x1="700" x2="700" y1="366.9766" y2="387.4648"/><rect fill="none" height="61.4648" rx="5" ry="5" style="stroke:#000000;stroke-width:1.5;" width="311" x="596" y="326"/><rect fill="#F1F1F1" height="61.4648" rx="5" ry="5" style="stroke:#F1F1F1;stroke-width:1.5;" width="271" x="616" y="405"/><text fill="#000000" font-family="sans-serif" font-size="14" font-weight="bold" lengthAdjust="spacing" textLength="78" x="621" y="420.5352">field_value</text><text fill="#000000" font-family="sans-serif" font-size="14" lengthAdjust="spacing" textLength="143" x="725" y="420.5352">www.litwareinc.com/</text><line style="stroke:#000000;stroke-width:1.0;" x1="720" x2="720" y1="405" y2="425.4883"/><line style="stroke:#000000;stroke-width:1.0;" x1="616" x2="887" y1="425.4883" y2="425.4883"/><text fill="#000000" font-family="sans-serif" font-size="14" font-weight="bold" lengthAdjust="spacing" textLength="74" x="621" y="441.0234">row_count</text><text fill="#000000" font-family="sans-serif" font-size="14" lengthAdjust="spacing" textLength="9" x="725" y="441.0234">1</text><line style="stroke:#000000;stroke-width:1.0;" x1="720" x2="720" y1="425.4883" y2="445.9766"/><line style="stroke:#000000;stroke-width:1.0;" x1="616" x2="887" y1="445.9766" y2="445.9766"/><text fill="#000000" font-family="sans-serif" font-size="14" font-weight="bold" lengthAdjust="spacing" textLength="94" x="621" y="461.5117">ratio_percent</text><text fill="#000000" font-family="sans-serif" font-size="14" lengthAdjust="spacing" textLength="157" x="725" y="461.5117">0.9615384615384616</text><line style="stroke:#000000;stroke-width:1.0;" x1="720" x2="720" y1="445.9766" y2="466.4648"/><rect fill="none" height="61.4648" rx="5" ry="5" style="stroke:#000000;stroke-width:1.5;" width="271" x="616" y="405"/><rect fill="#F1F1F1" height="61.4648" rx="5" ry="5" style="stroke:#F1F1F1;stroke-width:1.5;" width="271" x="616" y="484"/><text fill="#000000" font-family="sans-serif" font-size="14" font-weight="bold" lengthAdjust="spacing" textLength="78" x="621" y="499.5352">field_value</text><text fill="#000000" font-family="sans-serif" font-size="14" lengthAdjust="spacing" textLength="129" x="725" y="499.5352">www.adatum.com/</text><line style="stroke:#000000;stroke-width:1.0;" x1="720" x2="720" y1="484" y2="504.4883"/><line style="stroke:#000000;stroke-width:1.0;" x1="616" x2="887" y1="504.4883" y2="504.4883"/><text fill="#000000" font-family="sans-serif" font-size="14" font-weight="bold" lengthAdjust="spacing" textLength="74" x="621" y="520.0234">row_count</text><text fill="#000000" font-family="sans-serif" font-size="14" lengthAdjust="spacing" textLength="9" x="725" y="520.0234">1</text><line style="stroke:#000000;stroke-width:1.0;" x1="720" x2="720" y1="504.4883" y2="524.9766"/><line style="stroke:#000000;stroke-width:1.0;" x1="616" x2="887" y1="524.9766" y2="524.9766"/><text fill="#000000" font-family="sans-serif" font-size="14" font-weight="bold" lengthAdjust="spacing" textLength="94" x="621" y="540.5117">ratio_percent</text><text fill="#000000" font-family="sans-serif" font-size="14" lengthAdjust="spacing" textLength="157" x="725" y="540.5117">0.9615384615384616</text><line style="stroke:#000000;stroke-width:1.0;" x1="720" x2="720" y1="524.9766" y2="545.4648"/><rect fill="none" height="61.4648" rx="5" ry="5" style="stroke:#000000;stroke-width:1.5;" width="271" x="616" y="484"/><path d="M321,212.5 L334,212.5 C351.1673,212.5 353.8568,204.3408 370,198.5 C376.3375,196.207 382.9484,193.8766 389.5816,191.5798 " fill="none" style="stroke:#000000;stroke-width:1.0;stroke-dasharray:3.0,3.0;"/><path d="M390.5718,194.4576 L391.7399,190.8372 L388.5913,188.7021 L396.776,189.1042 L390.5718,194.4576 " fill="#000000" style="stroke:#000000;stroke-width:1.0;"/><ellipse cx="321" cy="212.5" fill="#000000" rx="3" ry="3" style="stroke:#000000;stroke-width:1.0;"/><path d="M460.5,216.5 L473.5,216.5 C508.8613,216.5 525.1898,222.6713 551,198.5 C591.3314,160.7295 546.768,117.3764 587,79.5 C594.9642,72.0022 604.0985,65.8624 613.8915,60.8439 " fill="none" style="stroke:#000000;stroke-width:1.0;stroke-dasharray:3.0,3.0;"/><path d="M615.2108,63.5954 L615.9552,59.8544 L612.5723,58.0924 L620.7703,57.5458 L615.2108,63.5954 " fill="#000000" style="stroke:#000000;stroke-width:1.0;"/><ellipse cx="460.5" cy="216.5" fill="#000000" rx="3" ry="3" style="stroke:#000000;stroke-width:1.0;"/><path d="M460.5,236.5 L473.5,236.5 C511.8621,236.5 520.2442,221.429 551,198.5 C569.9119,184.4009 566.6747,171.4719 587,159.5 C590.63,157.3619 594.3694,155.3378 598.1945,153.4216 " fill="none" style="stroke:#000000;stroke-width:1.0;stroke-dasharray:3.0,3.0;"/><path d="M599.5281,156.2107 L600.2863,152.4214 L596.861,150.6325 L605.1672,150.0877 L599.5281,156.2107 " fill="#000000" style="stroke:#000000;stroke-width:1.0;"/><ellipse cx="460.5" cy="236.5" fill="#000000" rx="3" ry="3" style="stroke:#000000;stroke-width:1.0;"/><path d="M460.5,257.5 L473.5,257.5 C488.2906,257.5 550.2948,244.5108 611.9503,230.7217 " fill="none" style="stroke:#000000;stroke-width:1.0;stroke-dasharray:3.0,3.0;"/><path d="M612.6242,233.7273 L614.2045,230.2162 L611.2764,227.7161 L619.4643,229.0369 L612.6242,233.7273 " fill="#000000" style="stroke:#000000;stroke-width:1.0;"/><ellipse cx="460.5" cy="257.5" fill="#000000" rx="3" ry="3" style="stroke:#000000;stroke-width:1.0;"/><path d="M460.5,277.5 L473.5,277.5 C517.3576,277.5 565.1142,277.5 608.4508,277.5 " fill="none" style="stroke:#000000;stroke-width:1.0;stroke-dasharray:3.0,3.0;"/><path d="M608.4508,280.6026 L610.7778,277.5 L608.4508,274.3974 L616.2072,277.5 L608.4508,280.6026 " fill="#000000" style="stroke:#000000;stroke-width:1.0;"/><ellipse cx="460.5" cy="277.5" fill="#000000" rx="3" ry="3" style="stroke:#000000;stroke-width:1.0;"/><path d="M460.5,298.5 L473.5,298.5 C488.1025,298.5 548.8021,310.9644 609.7214,324.3368 " fill="none" style="stroke:#000000;stroke-width:1.0;stroke-dasharray:3.0,3.0;"/><path d="M609.0676,327.3077 L611.9496,324.8272 L610.3752,321.3659 L617.1486,325.9713 L609.0676,327.3077 " fill="#000000" style="stroke:#000000;stroke-width:1.0;"/><ellipse cx="460.5" cy="298.5" fill="#000000" rx="3" ry="3" style="stroke:#000000;stroke-width:1.0;"/><path d="M460.5,319.5 L473.5,319.5 C534.4574,319.5 531.2115,371.9349 587,396.5 C594.031,399.5959 601.3444,402.467 608.8083,405.1268 " fill="none" style="stroke:#000000;stroke-width:1.0;stroke-dasharray:3.0,3.0;"/><path d="M607.7724,408.1305 L611.0611,405.9037 L609.8443,402.123 L616.3177,407.7166 L607.7724,408.1305 " fill="#000000" style="stroke:#000000;stroke-width:1.0;"/><ellipse cx="460.5" cy="319.5" fill="#000000" rx="3" ry="3" style="stroke:#000000;stroke-width:1.0;"/><path d="M460.5,339.5 L473.5,339.5 C552.2285,339.5 520.0638,434.0546 587,475.5 C593.9535,479.8055 601.3432,483.6357 608.9909,487.0431 " fill="none" style="stroke:#000000;stroke-width:1.0;stroke-dasharray:3.0,3.0;"/><path d="M607.7862,489.8795 L611.1182,487.9467 L610.1957,484.2068 L616.0818,490.055 L607.7862,489.8795 " fill="#000000" style="stroke:#000000;stroke-width:1.0;"/><ellipse cx="460.5" cy="339.5" fill="#000000" rx="3" ry="3" style="stroke:#000000;stroke-width:1.0;"/><path d="M321,233.5 L334,233.5 C374.2749,233.5 417.779,254.2889 441.5166,267.6068 " fill="none" style="stroke:#000000;stroke-width:1.0;stroke-dasharray:3.0,3.0;"/><path d="M439.9718,270.2895 L443.5286,268.7654 L443.0614,264.924 L448.2234,271.4688 L439.9718,270.2895 " fill="#000000" style="stroke:#000000;stroke-width:1.0;"/><ellipse cx="321" cy="233.5" fill="#000000" rx="3" ry="3" style="stroke:#000000;stroke-width:1.0;"/><!--MD5=[5a671c5b00a4c7a085a02dafe0bbe549]
@startjson
{
    "field1": "PurchasingWebServiceURL",
    "combination": "PurchasingWebServiceURL",
    "null_distribution": {
        "total_null_rows": 98,
        "total_not_null_rows": 6
    },
    "data_distribution": [
        {
            "field_value": "**NULL**",
            "row_count": 98,
            "ratio_percent": 94.23076923076923
        },
        {
            "field_value": "www.wideworldimporters.com/",
            "row_count": 1,
            "ratio_percent": 0.9615384615384616
        },
        {
            "field_value": "www.treyresearch.net/",
            "row_count": 1,
            "ratio_percent": 0.9615384615384616
        },
        {
            "field_value": "www.proseware.com/",
            "row_count": 1,
            "ratio_percent": 0.9615384615384616
        },
        {
            "field_value": "www.northwindtraders.com/",
            "row_count": 1,
            "ratio_percent": 0.9615384615384616
        },
        {
            "field_value": "www.litwareinc.com/",
            "row_count": 1,
            "ratio_percent": 0.9615384615384616
        },
        {
            "field_value": "www.adatum.com/",
            "row_count": 1,
            "ratio_percent": 0.9615384615384616
        }
    ]
}
@endjson

PlantUML version 1.2022.5(Sat Apr 30 06:55:52 EDT 2022)
(GPL source distribution)
Java Runtime: OpenJDK Runtime Environment
JVM: OpenJDK 64-Bit Server VM
Default Encoding: UTF-8
Language: en
Country: CA
--></g></svg>