<?xml version="1.0" encoding="UTF-8" standalone="no"?><svg xmlns="http://www.w3.org/2000/svg" xmlns:xlink="http://www.w3.org/1999/xlink" contentStyleType="text/css" height="399px" preserveAspectRatio="none" style="width:720px;height:399px;background:#FFFFFF;" version="1.1" viewBox="0 0 720 399" width="720px" zoomAndPan="magnify"><defs/><g><rect fill="#F1F1F1" height="81.9531" rx="5" ry="5" style="stroke:#F1F1F1;stroke-width:1.5;" width="183" x="10" y="92.5"/><text fill="#000000" font-family="sans-serif" font-size="14" font-weight="bold" lengthAdjust="spacing" textLength="42" x="15" y="108.0352">field1</text><text fill="#000000" font-family="sans-serif" font-size="14" lengthAdjust="spacing" textLength="39" x="149" y="108.0352">Name</text><line style="stroke:#000000;stroke-width:1.0;" x1="144" x2="144" y1="92.5" y2="112.9883"/><line style="stroke:#000000;stroke-width:1.0;" x1="10" x2="193" y1="112.9883" y2="112.9883"/><text fill="#000000" font-family="sans-serif" font-size="14" font-weight="bold" lengthAdjust="spacing" textLength="90" x="15" y="128.5234">combination</text><text fill="#000000" font-family="sans-serif" font-size="14" lengthAdjust="spacing" textLength="39" x="149" y="128.5234">Name</text><line style="stroke:#000000;stroke-width:1.0;" x1="144" x2="144" y1="112.9883" y2="133.4766"/><line style="stroke:#000000;stroke-width:1.0;" x1="10" x2="193" y1="133.4766" y2="133.4766"/><text fill="#000000" font-family="sans-serif" font-size="14" font-weight="bold" lengthAdjust="spacing" textLength="121" x="15" y="149.0117">null_distribution</text><text fill="#000000" font-family="sans-serif" font-size="14" lengthAdjust="spacing" textLength="12" x="149" y="149.0117">   </text><line style="stroke:#000000;stroke-width:1.0;" x1="144" x2="144" y1="133.4766" y2="153.9648"/><line style="stroke:#000000;stroke-width:1.0;" x1="10" x2="193" y1="153.9648" y2="153.9648"/><text fill="#000000" font-family="sans-serif" font-size="14" font-weight="bold" lengthAdjust="spacing" textLength="124" x="15" y="169.5">data_distribution</text><text fill="#000000" font-family="sans-serif" font-size="14" lengthAdjust="spacing" textLength="12" x="149" y="169.5">   </text><line style="stroke:#000000;stroke-width:1.0;" x1="144" x2="144" y1="153.9648" y2="174.4531"/><rect fill="none" height="81.9531" rx="5" ry="5" style="stroke:#000000;stroke-width:1.5;" width="183" x="10" y="92.5"/><rect fill="#F1F1F1" height="40.9766" rx="5" ry="5" style="stroke:#F1F1F1;stroke-width:1.5;" width="171" x="230" y="89"/><text fill="#000000" font-family="sans-serif" font-size="14" font-weight="bold" lengthAdjust="spacing" textLength="111" x="235" y="104.5352">total_null_rows</text><text fill="#000000" font-family="sans-serif" font-size="14" lengthAdjust="spacing" textLength="9" x="387" y="104.5352">0</text><line style="stroke:#000000;stroke-width:1.0;" x1="382" x2="382" y1="89" y2="109.4883"/><line style="stroke:#000000;stroke-width:1.0;" x1="230" x2="401" y1="109.4883" y2="109.4883"/><text fill="#000000" font-family="sans-serif" font-size="14" font-weight="bold" lengthAdjust="spacing" textLength="142" x="235" y="125.0234">total_not_null_rows</text><text fill="#000000" font-family="sans-serif" font-size="14" lengthAdjust="spacing" textLength="9" x="387" y="125.0234">5</text><line style="stroke:#000000;stroke-width:1.0;" x1="382" x2="382" y1="109.4883" y2="129.9766"/><rect fill="none" height="40.9766" rx="5" ry="5" style="stroke:#000000;stroke-width:1.5;" width="171" x="230" y="89"/><rect fill="#F1F1F1" height="102.4414" rx="5" ry="5" style="stroke:#F1F1F1;stroke-width:1.5;" width="22" x="303.5" y="148.5"/><text fill="#000000" font-family="sans-serif" font-size="14" lengthAdjust="spacing" textLength="12" x="308.5" y="164.0352">   </text><line style="stroke:#000000;stroke-width:1.0;" x1="303.5" x2="325.5" y1="168.9883" y2="168.9883"/><text fill="#000000" font-family="sans-serif" font-size="14" lengthAdjust="spacing" textLength="12" x="308.5" y="184.5234">   </text><line style="stroke:#000000;stroke-width:1.0;" x1="303.5" x2="325.5" y1="189.4766" y2="189.4766"/><text fill="#000000" font-family="sans-serif" font-size="14" lengthAdjust="spacing" textLength="12" x="308.5" y="205.0117">   </text><line style="stroke:#000000;stroke-width:1.0;" x1="303.5" x2="325.5" y1="209.9648" y2="209.9648"/><text fill="#000000" font-family="sans-serif" font-size="14" lengthAdjust="spacing" textLength="12" x="308.5" y="225.5">   </text><line style="stroke:#000000;stroke-width:1.0;" x1="303.5" x2="325.5" y1="230.4531" y2="230.4531"/><text fill="#000000" font-family="sans-serif" font-size="14" lengthAdjust="spacing" textLength="12" x="308.5" y="245.9883">   </text><rect fill="none" height="102.4414" rx="5" ry="5" style="stroke:#000000;stroke-width:1.5;" width="22" x="303.5" y="148.5"/><rect fill="#F1F1F1" height="61.4648" rx="5" ry="5" style="stroke:#F1F1F1;stroke-width:1.5;" width="205" x="470.5" y="10"/><text fill="#000000" font-family="sans-serif" font-size="14" font-weight="bold" lengthAdjust="spacing" textLength="78" x="475.5" y="25.5352">field_value</text><text fill="#000000" font-family="sans-serif" font-size="14" lengthAdjust="spacing" textLength="91" x="579.5" y="25.5352">ZY - EXPRESS</text><line style="stroke:#000000;stroke-width:1.0;" x1="574.5" x2="574.5" y1="10" y2="30.4883"/><line style="stroke:#000000;stroke-width:1.0;" x1="470.5" x2="675.5" y1="30.4883" y2="30.4883"/><text fill="#000000" font-family="sans-serif" font-size="14" font-weight="bold" lengthAdjust="spacing" textLength="74" x="475.5" y="46.0234">row_count</text><text fill="#000000" font-family="sans-serif" font-size="14" lengthAdjust="spacing" textLength="9" x="579.5" y="46.0234">1</text><line style="stroke:#000000;stroke-width:1.0;" x1="574.5" x2="574.5" y1="30.4883" y2="50.9766"/><line style="stroke:#000000;stroke-width:1.0;" x1="470.5" x2="675.5" y1="50.9766" y2="50.9766"/><text fill="#000000" font-family="sans-serif" font-size="14" font-weight="bold" lengthAdjust="spacing" textLength="94" x="475.5" y="66.5117">ratio_percent</text><text fill="#000000" font-family="sans-serif" font-size="14" lengthAdjust="spacing" textLength="31" x="579.5" y="66.5117">20.0</text><line style="stroke:#000000;stroke-width:1.0;" x1="574.5" x2="574.5" y1="50.9766" y2="71.4648"/><rect fill="none" height="61.4648" rx="5" ry="5" style="stroke:#000000;stroke-width:1.5;" width="205" x="470.5" y="10"/><rect fill="#F1F1F1" height="61.4648" rx="5" ry="5" style="stroke:#F1F1F1;stroke-width:1.5;" width="270" x="438" y="89"/><text fill="#000000" font-family="sans-serif" font-size="14" font-weight="bold" lengthAdjust="spacing" textLength="78" x="443" y="104.5352">field_value</text><text fill="#000000" font-family="sans-serif" font-size="14" lengthAdjust="spacing" textLength="156" x="547" y="104.5352">XRQ - TRUCK GROUND</text><line style="stroke:#000000;stroke-width:1.0;" x1="542" x2="542" y1="89" y2="109.4883"/><line style="stroke:#000000;stroke-width:1.0;" x1="438" x2="708" y1="109.4883" y2="109.4883"/><text fill="#000000" font-family="sans-serif" font-size="14" font-weight="bold" lengthAdjust="spacing" textLength="74" x="443" y="125.0234">row_count</text><text fill="#000000" font-family="sans-serif" font-size="14" lengthAdjust="spacing" textLength="9" x="547" y="125.0234">1</text><line style="stroke:#000000;stroke-width:1.0;" x1="542" x2="542" y1="109.4883" y2="129.9766"/><line style="stroke:#000000;stroke-width:1.0;" x1="438" x2="708" y1="129.9766" y2="129.9766"/><text fill="#000000" font-family="sans-serif" font-size="14" font-weight="bold" lengthAdjust="spacing" textLength="94" x="443" y="145.5117">ratio_percent</text><text fill="#000000" font-family="sans-serif" font-size="14" lengthAdjust="spacing" textLength="31" x="547" y="145.5117">20.0</text><line style="stroke:#000000;stroke-width:1.0;" x1="542" x2="542" y1="129.9766" y2="150.4648"/><rect fill="none" height="61.4648" rx="5" ry="5" style="stroke:#000000;stroke-width:1.5;" width="270" x="438" y="89"/><rect fill="#F1F1F1" height="61.4648" rx="5" ry="5" style="stroke:#F1F1F1;stroke-width:1.5;" width="253" x="446.5" y="168"/><text fill="#000000" font-family="sans-serif" font-size="14" font-weight="bold" lengthAdjust="spacing" textLength="78" x="451.5" y="183.5352">field_value</text><text fill="#000000" font-family="sans-serif" font-size="14" lengthAdjust="spacing" textLength="139" x="555.5" y="183.5352">OVERSEAS - DELUXE</text><line style="stroke:#000000;stroke-width:1.0;" x1="550.5" x2="550.5" y1="168" y2="188.4883"/><line style="stroke:#000000;stroke-width:1.0;" x1="446.5" x2="699.5" y1="188.4883" y2="188.4883"/><text fill="#000000" font-family="sans-serif" font-size="14" font-weight="bold" lengthAdjust="spacing" textLength="74" x="451.5" y="204.0234">row_count</text><text fill="#000000" font-family="sans-serif" font-size="14" lengthAdjust="spacing" textLength="9" x="555.5" y="204.0234">1</text><line style="stroke:#000000;stroke-width:1.0;" x1="550.5" x2="550.5" y1="188.4883" y2="208.9766"/><line style="stroke:#000000;stroke-width:1.0;" x1="446.5" x2="699.5" y1="208.9766" y2="208.9766"/><text fill="#000000" font-family="sans-serif" font-size="14" font-weight="bold" lengthAdjust="spacing" textLength="94" x="451.5" y="224.5117">ratio_percent</text><text fill="#000000" font-family="sans-serif" font-size="14" lengthAdjust="spacing" textLength="31" x="555.5" y="224.5117">20.0</text><line style="stroke:#000000;stroke-width:1.0;" x1="550.5" x2="550.5" y1="208.9766" y2="229.4648"/><rect fill="none" height="61.4648" rx="5" ry="5" style="stroke:#000000;stroke-width:1.5;" width="253" x="446.5" y="168"/><rect fill="#F1F1F1" height="61.4648" rx="5" ry="5" style="stroke:#F1F1F1;stroke-width:1.5;" width="245" x="450.5" y="247"/><text fill="#000000" font-family="sans-serif" font-size="14" font-weight="bold" lengthAdjust="spacing" textLength="78" x="455.5" y="262.5352">field_value</text><text fill="#000000" font-family="sans-serif" font-size="14" lengthAdjust="spacing" textLength="131" x="559.5" y="262.5352">OVERNIGHT J-FAST</text><line style="stroke:#000000;stroke-width:1.0;" x1="554.5" x2="554.5" y1="247" y2="267.4883"/><line style="stroke:#000000;stroke-width:1.0;" x1="450.5" x2="695.5" y1="267.4883" y2="267.4883"/><text fill="#000000" font-family="sans-serif" font-size="14" font-weight="bold" lengthAdjust="spacing" textLength="74" x="455.5" y="283.0234">row_count</text><text fill="#000000" font-family="sans-serif" font-size="14" lengthAdjust="spacing" textLength="9" x="559.5" y="283.0234">1</text><line style="stroke:#000000;stroke-width:1.0;" x1="554.5" x2="554.5" y1="267.4883" y2="287.9766"/><line style="stroke:#000000;stroke-width:1.0;" x1="450.5" x2="695.5" y1="287.9766" y2="287.9766"/><text fill="#000000" font-family="sans-serif" font-size="14" font-weight="bold" lengthAdjust="spacing" textLength="94" x="455.5" y="303.5117">ratio_percent</text><text fill="#000000" font-family="sans-serif" font-size="14" lengthAdjust="spacing" textLength="31" x="559.5" y="303.5117">20.0</text><line style="stroke:#000000;stroke-width:1.0;" x1="554.5" x2="554.5" y1="287.9766" y2="308.4648"/><rect fill="none" height="61.4648" rx="5" ry="5" style="stroke:#000000;stroke-width:1.5;" width="245" x="450.5" y="247"/><rect fill="#F1F1F1" height="61.4648" rx="5" ry="5" style="stroke:#F1F1F1;stroke-width:1.5;" width="264" x="441" y="326"/><text fill="#000000" font-family="sans-serif" font-size="14" font-weight="bold" lengthAdjust="spacing" textLength="78" x="446" y="341.5352">field_value</text><text fill="#000000" font-family="sans-serif" font-size="14" lengthAdjust="spacing" textLength="150" x="550" y="341.5352">CARGO TRANSPORT 5</text><line style="stroke:#000000;stroke-width:1.0;" x1="545" x2="545" y1="326" y2="346.4883"/><line style="stroke:#000000;stroke-width:1.0;" x1="441" x2="705" y1="346.4883" y2="346.4883"/><text fill="#000000" font-family="sans-serif" font-size="14" font-weight="bold" lengthAdjust="spacing" textLength="74" x="446" y="362.0234">row_count</text><text fill="#000000" font-family="sans-serif" font-size="14" lengthAdjust="spacing" textLength="9" x="550" y="362.0234">1</text><line style="stroke:#000000;stroke-width:1.0;" x1="545" x2="545" y1="346.4883" y2="366.9766"/><line style="stroke:#000000;stroke-width:1.0;" x1="441" x2="705" y1="366.9766" y2="366.9766"/><text fill="#000000" font-family="sans-serif" font-size="14" font-weight="bold" lengthAdjust="spacing" textLength="94" x="446" y="382.5117">ratio_percent</text><text fill="#000000" font-family="sans-serif" font-size="14" lengthAdjust="spacing" textLength="31" x="550" y="382.5117">20.0</text><line style="stroke:#000000;stroke-width:1.0;" x1="545" x2="545" y1="366.9766" y2="387.4648"/><rect fill="none" height="61.4648" rx="5" ry="5" style="stroke:#000000;stroke-width:1.5;" width="264" x="441" y="326"/><path d="M181,143.5 L194,143.5 C204.7355,143.5 225.0947,138.4769 246.0934,132.2921 " fill="none" style="stroke:#000000;stroke-width:1.0;stroke-dasharray:3.0,3.0;"/><path d="M246.9853,135.2678 L248.3253,131.6231 L245.2015,129.3163 L253.5329,130.0623 L246.9853,135.2678 " fill="#000000" style="stroke:#000000;stroke-width:1.0;"/><ellipse cx="181" cy="143.5" fill="#000000" rx="3" ry="3" style="stroke:#000000;stroke-width:1.0;"/><path d="M316,158.5 L329,158.5 C362.6401,158.5 375.1217,158.729 402,138.5 C426.5437,120.0281 413.5938,98.1532 438,79.5 C445.8505,73.5 454.5981,68.4222 463.7602,64.1249 " fill="none" style="stroke:#000000;stroke-width:1.0;stroke-dasharray:3.0,3.0;"/><path d="M465.0147,66.9566 L465.8839,63.184 L462.5056,61.2933 L470.8393,60.9886 L465.0147,66.9566 " fill="#000000" style="stroke:#000000;stroke-width:1.0;"/><ellipse cx="316" cy="158.5" fill="#000000" rx="3" ry="3" style="stroke:#000000;stroke-width:1.0;"/><path d="M316,178.5 L329,178.5 C354.9116,178.5 409.4449,165.7211 460.347,152.0578 " fill="none" style="stroke:#000000;stroke-width:1.0;stroke-dasharray:3.0,3.0;"/><path d="M461.1553,155.0498 L462.591,151.4516 L459.5386,149.0658 L467.8269,150.0369 L461.1553,155.0498 " fill="#000000" style="stroke:#000000;stroke-width:1.0;"/><ellipse cx="316" cy="178.5" fill="#000000" rx="3" ry="3" style="stroke:#000000;stroke-width:1.0;"/><path d="M316,198.5 L329,198.5 C364.7177,198.5 403.3824,198.5 439.1583,198.5 " fill="none" style="stroke:#000000;stroke-width:1.0;stroke-dasharray:3.0,3.0;"/><path d="M439.1583,201.5353 L441.4347,198.5 L439.1583,195.4647 L446.7465,198.5 L439.1583,201.5353 " fill="#000000" style="stroke:#000000;stroke-width:1.0;"/><ellipse cx="316" cy="198.5" fill="#000000" rx="3" ry="3" style="stroke:#000000;stroke-width:1.0;"/><path d="M316,219.5 L329,219.5 C354.5768,219.5 408.1144,231.7626 458.4921,245.0109 " fill="none" style="stroke:#000000;stroke-width:1.0;stroke-dasharray:3.0,3.0;"/><path d="M457.7079,247.9733 L460.7139,245.599 L459.2763,242.0484 L465.8982,246.9713 L457.7079,247.9733 " fill="#000000" style="stroke:#000000;stroke-width:1.0;"/><ellipse cx="316" cy="219.5" fill="#000000" rx="3" ry="3" style="stroke:#000000;stroke-width:1.0;"/><path d="M316,240.5 L329,240.5 C388.3129,240.5 384.5564,291.7745 438,317.5 C441.9997,319.4253 446.113,321.2743 450.3034,323.0482 " fill="none" style="stroke:#000000;stroke-width:1.0;stroke-dasharray:3.0,3.0;"/><path d="M449.1375,325.8955 L452.4389,323.9225 L451.4692,320.2008 L457.4218,325.9627 L449.1375,325.8955 " fill="#000000" style="stroke:#000000;stroke-width:1.0;"/><ellipse cx="316" cy="240.5" fill="#000000" rx="3" ry="3" style="stroke:#000000;stroke-width:1.0;"/><path d="M181,164.5 L194,164.5 C231.8865,164.5 273.9112,180.53 297.1209,190.8932 " fill="none" style="stroke:#000000;stroke-width:1.0;stroke-dasharray:3.0,3.0;"/><path d="M295.8657,193.6314 L299.1745,191.8346 L298.3761,188.155 L303.9663,194.0313 L295.8657,193.6314 " fill="#000000" style="stroke:#000000;stroke-width:1.0;"/><ellipse cx="181" cy="164.5" fill="#000000" rx="3" ry="3" style="stroke:#000000;stroke-width:1.0;"/><!--MD5=[23fc1b01bd66f458d8e22d3c1f084709]
@startjson
{
    "field1": "Name",
    "combination": "Name",
    "null_distribution": {
        "total_null_rows": 0,
        "total_not_null_rows": 5
    },
    "data_distribution": [
        {
            "field_value": "ZY - EXPRESS",
            "row_count": 1,
            "ratio_percent": 20.0
        },
        {
            "field_value": "XRQ - TRUCK GROUND",
            "row_count": 1,
            "ratio_percent": 20.0
        },
        {
            "field_value": "OVERSEAS - DELUXE",
            "row_count": 1,
            "ratio_percent": 20.0
        },
        {
            "field_value": "OVERNIGHT J-FAST",
            "row_count": 1,
            "ratio_percent": 20.0
        },
        {
            "field_value": "CARGO TRANSPORT 5",
            "row_count": 1,
            "ratio_percent": 20.0
        }
    ]
}
@endjson

PlantUML version 1.2022.5(Sat Apr 30 06:55:52 EDT 2022)
(GPL source distribution)
Java Runtime: OpenJDK Runtime Environment
JVM: OpenJDK 64-Bit Server VM
Default Encoding: UTF-8
Language: en
Country: CA
--></g></svg>