<?xml version="1.0" encoding="UTF-8" standalone="no"?><svg xmlns="http://www.w3.org/2000/svg" xmlns:xlink="http://www.w3.org/1999/xlink" contentStyleType="text/css" height="794px" preserveAspectRatio="none" style="width:767px;height:794px;background:#FFFFFF;" version="1.1" viewBox="0 0 767 794" width="767px" zoomAndPan="magnify"><defs/><g><rect fill="#F1F1F1" height="81.9531" rx="5" ry="5" style="stroke:#F1F1F1;stroke-width:1.5;" width="211" x="10" y="264.5"/><text fill="#000000" font-family="sans-serif" font-size="14" font-weight="bold" lengthAdjust="spacing" textLength="42" x="15" y="280.0352">field1</text><text fill="#000000" font-family="sans-serif" font-size="14" lengthAdjust="spacing" textLength="67" x="149" y="280.0352">ProductID</text><line style="stroke:#000000;stroke-width:1.0;" x1="144" x2="144" y1="264.5" y2="284.9883"/><line style="stroke:#000000;stroke-width:1.0;" x1="10" x2="221" y1="284.9883" y2="284.9883"/><text fill="#000000" font-family="sans-serif" font-size="14" font-weight="bold" lengthAdjust="spacing" textLength="90" x="15" y="300.5234">combination</text><text fill="#000000" font-family="sans-serif" font-size="14" lengthAdjust="spacing" textLength="67" x="149" y="300.5234">ProductID</text><line style="stroke:#000000;stroke-width:1.0;" x1="144" x2="144" y1="284.9883" y2="305.4766"/><line style="stroke:#000000;stroke-width:1.0;" x1="10" x2="221" y1="305.4766" y2="305.4766"/><text fill="#000000" font-family="sans-serif" font-size="14" font-weight="bold" lengthAdjust="spacing" textLength="121" x="15" y="321.0117">null_distribution</text><text fill="#000000" font-family="sans-serif" font-size="14" lengthAdjust="spacing" textLength="12" x="149" y="321.0117">   </text><line style="stroke:#000000;stroke-width:1.0;" x1="144" x2="144" y1="305.4766" y2="325.9648"/><line style="stroke:#000000;stroke-width:1.0;" x1="10" x2="221" y1="325.9648" y2="325.9648"/><text fill="#000000" font-family="sans-serif" font-size="14" font-weight="bold" lengthAdjust="spacing" textLength="124" x="15" y="341.5">data_distribution</text><text fill="#000000" font-family="sans-serif" font-size="14" lengthAdjust="spacing" textLength="12" x="149" y="341.5">   </text><line style="stroke:#000000;stroke-width:1.0;" x1="144" x2="144" y1="325.9648" y2="346.4531"/><rect fill="none" height="81.9531" rx="5" ry="5" style="stroke:#000000;stroke-width:1.5;" width="211" x="10" y="264.5"/><rect fill="#F1F1F1" height="40.9766" rx="5" ry="5" style="stroke:#F1F1F1;stroke-width:1.5;" width="189" x="258" y="235"/><text fill="#000000" font-family="sans-serif" font-size="14" font-weight="bold" lengthAdjust="spacing" textLength="111" x="263" y="250.5352">total_null_rows</text><text fill="#000000" font-family="sans-serif" font-size="14" lengthAdjust="spacing" textLength="9" x="415" y="250.5352">0</text><line style="stroke:#000000;stroke-width:1.0;" x1="410" x2="410" y1="235" y2="255.4883"/><line style="stroke:#000000;stroke-width:1.0;" x1="258" x2="447" y1="255.4883" y2="255.4883"/><text fill="#000000" font-family="sans-serif" font-size="14" font-weight="bold" lengthAdjust="spacing" textLength="142" x="263" y="271.0234">total_not_null_rows</text><text fill="#000000" font-family="sans-serif" font-size="14" lengthAdjust="spacing" textLength="27" x="415" y="271.0234">460</text><line style="stroke:#000000;stroke-width:1.0;" x1="410" x2="410" y1="255.4883" y2="275.9766"/><rect fill="none" height="40.9766" rx="5" ry="5" style="stroke:#000000;stroke-width:1.5;" width="189" x="258" y="235"/><rect fill="#F1F1F1" height="204.8828" rx="5" ry="5" style="stroke:#F1F1F1;stroke-width:1.5;" width="22" x="340.5" y="294"/><text fill="#000000" font-family="sans-serif" font-size="14" lengthAdjust="spacing" textLength="12" x="345.5" y="309.5352">   </text><line style="stroke:#000000;stroke-width:1.0;" x1="340.5" x2="362.5" y1="314.4883" y2="314.4883"/><text fill="#000000" font-family="sans-serif" font-size="14" lengthAdjust="spacing" textLength="12" x="345.5" y="330.0234">   </text><line style="stroke:#000000;stroke-width:1.0;" x1="340.5" x2="362.5" y1="334.9766" y2="334.9766"/><text fill="#000000" font-family="sans-serif" font-size="14" lengthAdjust="spacing" textLength="12" x="345.5" y="350.5117">   </text><line style="stroke:#000000;stroke-width:1.0;" x1="340.5" x2="362.5" y1="355.4648" y2="355.4648"/><text fill="#000000" font-family="sans-serif" font-size="14" lengthAdjust="spacing" textLength="12" x="345.5" y="371">   </text><line style="stroke:#000000;stroke-width:1.0;" x1="340.5" x2="362.5" y1="375.9531" y2="375.9531"/><text fill="#000000" font-family="sans-serif" font-size="14" lengthAdjust="spacing" textLength="12" x="345.5" y="391.4883">   </text><line style="stroke:#000000;stroke-width:1.0;" x1="340.5" x2="362.5" y1="396.4414" y2="396.4414"/><text fill="#000000" font-family="sans-serif" font-size="14" lengthAdjust="spacing" textLength="12" x="345.5" y="411.9766">   </text><line style="stroke:#000000;stroke-width:1.0;" x1="340.5" x2="362.5" y1="416.9297" y2="416.9297"/><text fill="#000000" font-family="sans-serif" font-size="14" lengthAdjust="spacing" textLength="12" x="345.5" y="432.4648">   </text><line style="stroke:#000000;stroke-width:1.0;" x1="340.5" x2="362.5" y1="437.418" y2="437.418"/><text fill="#000000" font-family="sans-serif" font-size="14" lengthAdjust="spacing" textLength="12" x="345.5" y="452.9531">   </text><line style="stroke:#000000;stroke-width:1.0;" x1="340.5" x2="362.5" y1="457.9063" y2="457.9063"/><text fill="#000000" font-family="sans-serif" font-size="14" lengthAdjust="spacing" textLength="12" x="345.5" y="473.4414">   </text><line style="stroke:#000000;stroke-width:1.0;" x1="340.5" x2="362.5" y1="478.3945" y2="478.3945"/><text fill="#000000" font-family="sans-serif" font-size="14" lengthAdjust="spacing" textLength="12" x="345.5" y="493.9297">   </text><rect fill="none" height="204.8828" rx="5" ry="5" style="stroke:#000000;stroke-width:1.5;" width="22" x="340.5" y="294"/><rect fill="#F1F1F1" height="61.4648" rx="5" ry="5" style="stroke:#F1F1F1;stroke-width:1.5;" width="271" x="484" y="10"/><text fill="#000000" font-family="sans-serif" font-size="14" font-weight="bold" lengthAdjust="spacing" textLength="78" x="489" y="25.5352">field_value</text><text fill="#000000" font-family="sans-serif" font-size="14" lengthAdjust="spacing" textLength="27" x="593" y="25.5352">322</text><line style="stroke:#000000;stroke-width:1.0;" x1="588" x2="588" y1="10" y2="30.4883"/><line style="stroke:#000000;stroke-width:1.0;" x1="484" x2="755" y1="30.4883" y2="30.4883"/><text fill="#000000" font-family="sans-serif" font-size="14" font-weight="bold" lengthAdjust="spacing" textLength="74" x="489" y="46.0234">row_count</text><text fill="#000000" font-family="sans-serif" font-size="14" lengthAdjust="spacing" textLength="9" x="593" y="46.0234">3</text><line style="stroke:#000000;stroke-width:1.0;" x1="588" x2="588" y1="30.4883" y2="50.9766"/><line style="stroke:#000000;stroke-width:1.0;" x1="484" x2="755" y1="50.9766" y2="50.9766"/><text fill="#000000" font-family="sans-serif" font-size="14" font-weight="bold" lengthAdjust="spacing" textLength="94" x="489" y="66.5117">ratio_percent</text><text fill="#000000" font-family="sans-serif" font-size="14" lengthAdjust="spacing" textLength="157" x="593" y="66.5117">0.6521739130434783</text><line style="stroke:#000000;stroke-width:1.0;" x1="588" x2="588" y1="50.9766" y2="71.4648"/><rect fill="none" height="61.4648" rx="5" ry="5" style="stroke:#000000;stroke-width:1.5;" width="271" x="484" y="10"/><rect fill="#F1F1F1" height="61.4648" rx="5" ry="5" style="stroke:#F1F1F1;stroke-width:1.5;" width="271" x="484" y="89"/><text fill="#000000" font-family="sans-serif" font-size="14" font-weight="bold" lengthAdjust="spacing" textLength="78" x="489" y="104.5352">field_value</text><text fill="#000000" font-family="sans-serif" font-size="14" lengthAdjust="spacing" textLength="27" x="593" y="104.5352">321</text><line style="stroke:#000000;stroke-width:1.0;" x1="588" x2="588" y1="89" y2="109.4883"/><line style="stroke:#000000;stroke-width:1.0;" x1="484" x2="755" y1="109.4883" y2="109.4883"/><text fill="#000000" font-family="sans-serif" font-size="14" font-weight="bold" lengthAdjust="spacing" textLength="74" x="489" y="125.0234">row_count</text><text fill="#000000" font-family="sans-serif" font-size="14" lengthAdjust="spacing" textLength="9" x="593" y="125.0234">3</text><line style="stroke:#000000;stroke-width:1.0;" x1="588" x2="588" y1="109.4883" y2="129.9766"/><line style="stroke:#000000;stroke-width:1.0;" x1="484" x2="755" y1="129.9766" y2="129.9766"/><text fill="#000000" font-family="sans-serif" font-size="14" font-weight="bold" lengthAdjust="spacing" textLength="94" x="489" y="145.5117">ratio_percent</text><text fill="#000000" font-family="sans-serif" font-size="14" lengthAdjust="spacing" textLength="157" x="593" y="145.5117">0.6521739130434783</text><line style="stroke:#000000;stroke-width:1.0;" x1="588" x2="588" y1="129.9766" y2="150.4648"/><rect fill="none" height="61.4648" rx="5" ry="5" style="stroke:#000000;stroke-width:1.5;" width="271" x="484" y="89"/><rect fill="#F1F1F1" height="61.4648" rx="5" ry="5" style="stroke:#F1F1F1;stroke-width:1.5;" width="271" x="484" y="168"/><text fill="#000000" font-family="sans-serif" font-size="14" font-weight="bold" lengthAdjust="spacing" textLength="78" x="489" y="183.5352">field_value</text><text fill="#000000" font-family="sans-serif" font-size="14" lengthAdjust="spacing" textLength="27" x="593" y="183.5352">320</text><line style="stroke:#000000;stroke-width:1.0;" x1="588" x2="588" y1="168" y2="188.4883"/><line style="stroke:#000000;stroke-width:1.0;" x1="484" x2="755" y1="188.4883" y2="188.4883"/><text fill="#000000" font-family="sans-serif" font-size="14" font-weight="bold" lengthAdjust="spacing" textLength="74" x="489" y="204.0234">row_count</text><text fill="#000000" font-family="sans-serif" font-size="14" lengthAdjust="spacing" textLength="9" x="593" y="204.0234">3</text><line style="stroke:#000000;stroke-width:1.0;" x1="588" x2="588" y1="188.4883" y2="208.9766"/><line style="stroke:#000000;stroke-width:1.0;" x1="484" x2="755" y1="208.9766" y2="208.9766"/><text fill="#000000" font-family="sans-serif" font-size="14" font-weight="bold" lengthAdjust="spacing" textLength="94" x="489" y="224.5117">ratio_percent</text><text fill="#000000" font-family="sans-serif" font-size="14" lengthAdjust="spacing" textLength="157" x="593" y="224.5117">0.6521739130434783</text><line style="stroke:#000000;stroke-width:1.0;" x1="588" x2="588" y1="208.9766" y2="229.4648"/><rect fill="none" height="61.4648" rx="5" ry="5" style="stroke:#000000;stroke-width:1.5;" width="271" x="484" y="168"/><rect fill="#F1F1F1" height="61.4648" rx="5" ry="5" style="stroke:#F1F1F1;stroke-width:1.5;" width="271" x="484" y="247"/><text fill="#000000" font-family="sans-serif" font-size="14" font-weight="bold" lengthAdjust="spacing" textLength="78" x="489" y="262.5352">field_value</text><text fill="#000000" font-family="sans-serif" font-size="14" lengthAdjust="spacing" textLength="27" x="593" y="262.5352">319</text><line style="stroke:#000000;stroke-width:1.0;" x1="588" x2="588" y1="247" y2="267.4883"/><line style="stroke:#000000;stroke-width:1.0;" x1="484" x2="755" y1="267.4883" y2="267.4883"/><text fill="#000000" font-family="sans-serif" font-size="14" font-weight="bold" lengthAdjust="spacing" textLength="74" x="489" y="283.0234">row_count</text><text fill="#000000" font-family="sans-serif" font-size="14" lengthAdjust="spacing" textLength="9" x="593" y="283.0234">3</text><line style="stroke:#000000;stroke-width:1.0;" x1="588" x2="588" y1="267.4883" y2="287.9766"/><line style="stroke:#000000;stroke-width:1.0;" x1="484" x2="755" y1="287.9766" y2="287.9766"/><text fill="#000000" font-family="sans-serif" font-size="14" font-weight="bold" lengthAdjust="spacing" textLength="94" x="489" y="303.5117">ratio_percent</text><text fill="#000000" font-family="sans-serif" font-size="14" lengthAdjust="spacing" textLength="157" x="593" y="303.5117">0.6521739130434783</text><line style="stroke:#000000;stroke-width:1.0;" x1="588" x2="588" y1="287.9766" y2="308.4648"/><rect fill="none" height="61.4648" rx="5" ry="5" style="stroke:#000000;stroke-width:1.5;" width="271" x="484" y="247"/><rect fill="#F1F1F1" height="61.4648" rx="5" ry="5" style="stroke:#F1F1F1;stroke-width:1.5;" width="271" x="484" y="326"/><text fill="#000000" font-family="sans-serif" font-size="14" font-weight="bold" lengthAdjust="spacing" textLength="78" x="489" y="341.5352">field_value</text><text fill="#000000" font-family="sans-serif" font-size="14" lengthAdjust="spacing" textLength="27" x="593" y="341.5352">341</text><line style="stroke:#000000;stroke-width:1.0;" x1="588" x2="588" y1="326" y2="346.4883"/><line style="stroke:#000000;stroke-width:1.0;" x1="484" x2="755" y1="346.4883" y2="346.4883"/><text fill="#000000" font-family="sans-serif" font-size="14" font-weight="bold" lengthAdjust="spacing" textLength="74" x="489" y="362.0234">row_count</text><text fill="#000000" font-family="sans-serif" font-size="14" lengthAdjust="spacing" textLength="9" x="593" y="362.0234">3</text><line style="stroke:#000000;stroke-width:1.0;" x1="588" x2="588" y1="346.4883" y2="366.9766"/><line style="stroke:#000000;stroke-width:1.0;" x1="484" x2="755" y1="366.9766" y2="366.9766"/><text fill="#000000" font-family="sans-serif" font-size="14" font-weight="bold" lengthAdjust="spacing" textLength="94" x="489" y="382.5117">ratio_percent</text><text fill="#000000" font-family="sans-serif" font-size="14" lengthAdjust="spacing" textLength="157" x="593" y="382.5117">0.6521739130434783</text><line style="stroke:#000000;stroke-width:1.0;" x1="588" x2="588" y1="366.9766" y2="387.4648"/><rect fill="none" height="61.4648" rx="5" ry="5" style="stroke:#000000;stroke-width:1.5;" width="271" x="484" y="326"/><rect fill="#F1F1F1" height="61.4648" rx="5" ry="5" style="stroke:#F1F1F1;stroke-width:1.5;" width="271" x="484" y="405"/><text fill="#000000" font-family="sans-serif" font-size="14" font-weight="bold" lengthAdjust="spacing" textLength="78" x="489" y="420.5352">field_value</text><text fill="#000000" font-family="sans-serif" font-size="14" lengthAdjust="spacing" textLength="27" x="593" y="420.5352">342</text><line style="stroke:#000000;stroke-width:1.0;" x1="588" x2="588" y1="405" y2="425.4883"/><line style="stroke:#000000;stroke-width:1.0;" x1="484" x2="755" y1="425.4883" y2="425.4883"/><text fill="#000000" font-family="sans-serif" font-size="14" font-weight="bold" lengthAdjust="spacing" textLength="74" x="489" y="441.0234">row_count</text><text fill="#000000" font-family="sans-serif" font-size="14" lengthAdjust="spacing" textLength="9" x="593" y="441.0234">3</text><line style="stroke:#000000;stroke-width:1.0;" x1="588" x2="588" y1="425.4883" y2="445.9766"/><line style="stroke:#000000;stroke-width:1.0;" x1="484" x2="755" y1="445.9766" y2="445.9766"/><text fill="#000000" font-family="sans-serif" font-size="14" font-weight="bold" lengthAdjust="spacing" textLength="94" x="489" y="461.5117">ratio_percent</text><text fill="#000000" font-family="sans-serif" font-size="14" lengthAdjust="spacing" textLength="157" x="593" y="461.5117">0.6521739130434783</text><line style="stroke:#000000;stroke-width:1.0;" x1="588" x2="588" y1="445.9766" y2="466.4648"/><rect fill="none" height="61.4648" rx="5" ry="5" style="stroke:#000000;stroke-width:1.5;" width="271" x="484" y="405"/><rect fill="#F1F1F1" height="61.4648" rx="5" ry="5" style="stroke:#F1F1F1;stroke-width:1.5;" width="271" x="484" y="484"/><text fill="#000000" font-family="sans-serif" font-size="14" font-weight="bold" lengthAdjust="spacing" textLength="78" x="489" y="499.5352">field_value</text><text fill="#000000" font-family="sans-serif" font-size="14" lengthAdjust="spacing" textLength="27" x="593" y="499.5352">343</text><line style="stroke:#000000;stroke-width:1.0;" x1="588" x2="588" y1="484" y2="504.4883"/><line style="stroke:#000000;stroke-width:1.0;" x1="484" x2="755" y1="504.4883" y2="504.4883"/><text fill="#000000" font-family="sans-serif" font-size="14" font-weight="bold" lengthAdjust="spacing" textLength="74" x="489" y="520.0234">row_count</text><text fill="#000000" font-family="sans-serif" font-size="14" lengthAdjust="spacing" textLength="9" x="593" y="520.0234">3</text><line style="stroke:#000000;stroke-width:1.0;" x1="588" x2="588" y1="504.4883" y2="524.9766"/><line style="stroke:#000000;stroke-width:1.0;" x1="484" x2="755" y1="524.9766" y2="524.9766"/><text fill="#000000" font-family="sans-serif" font-size="14" font-weight="bold" lengthAdjust="spacing" textLength="94" x="489" y="540.5117">ratio_percent</text><text fill="#000000" font-family="sans-serif" font-size="14" lengthAdjust="spacing" textLength="157" x="593" y="540.5117">0.6521739130434783</text><line style="stroke:#000000;stroke-width:1.0;" x1="588" x2="588" y1="524.9766" y2="545.4648"/><rect fill="none" height="61.4648" rx="5" ry="5" style="stroke:#000000;stroke-width:1.5;" width="271" x="484" y="484"/><rect fill="#F1F1F1" height="61.4648" rx="5" ry="5" style="stroke:#F1F1F1;stroke-width:1.5;" width="271" x="484" y="563"/><text fill="#000000" font-family="sans-serif" font-size="14" font-weight="bold" lengthAdjust="spacing" textLength="78" x="489" y="578.5352">field_value</text><text fill="#000000" font-family="sans-serif" font-size="14" lengthAdjust="spacing" textLength="27" x="593" y="578.5352">344</text><line style="stroke:#000000;stroke-width:1.0;" x1="588" x2="588" y1="563" y2="583.4883"/><line style="stroke:#000000;stroke-width:1.0;" x1="484" x2="755" y1="583.4883" y2="583.4883"/><text fill="#000000" font-family="sans-serif" font-size="14" font-weight="bold" lengthAdjust="spacing" textLength="74" x="489" y="599.0234">row_count</text><text fill="#000000" font-family="sans-serif" font-size="14" lengthAdjust="spacing" textLength="9" x="593" y="599.0234">3</text><line style="stroke:#000000;stroke-width:1.0;" x1="588" x2="588" y1="583.4883" y2="603.9766"/><line style="stroke:#000000;stroke-width:1.0;" x1="484" x2="755" y1="603.9766" y2="603.9766"/><text fill="#000000" font-family="sans-serif" font-size="14" font-weight="bold" lengthAdjust="spacing" textLength="94" x="489" y="619.5117">ratio_percent</text><text fill="#000000" font-family="sans-serif" font-size="14" lengthAdjust="spacing" textLength="157" x="593" y="619.5117">0.6521739130434783</text><line style="stroke:#000000;stroke-width:1.0;" x1="588" x2="588" y1="603.9766" y2="624.4648"/><rect fill="none" height="61.4648" rx="5" ry="5" style="stroke:#000000;stroke-width:1.5;" width="271" x="484" y="563"/><rect fill="#F1F1F1" height="61.4648" rx="5" ry="5" style="stroke:#F1F1F1;stroke-width:1.5;" width="271" x="484" y="642"/><text fill="#000000" font-family="sans-serif" font-size="14" font-weight="bold" lengthAdjust="spacing" textLength="78" x="489" y="657.5352">field_value</text><text fill="#000000" font-family="sans-serif" font-size="14" lengthAdjust="spacing" textLength="27" x="593" y="657.5352">345</text><line style="stroke:#000000;stroke-width:1.0;" x1="588" x2="588" y1="642" y2="662.4883"/><line style="stroke:#000000;stroke-width:1.0;" x1="484" x2="755" y1="662.4883" y2="662.4883"/><text fill="#000000" font-family="sans-serif" font-size="14" font-weight="bold" lengthAdjust="spacing" textLength="74" x="489" y="678.0234">row_count</text><text fill="#000000" font-family="sans-serif" font-size="14" lengthAdjust="spacing" textLength="9" x="593" y="678.0234">3</text><line style="stroke:#000000;stroke-width:1.0;" x1="588" x2="588" y1="662.4883" y2="682.9766"/><line style="stroke:#000000;stroke-width:1.0;" x1="484" x2="755" y1="682.9766" y2="682.9766"/><text fill="#000000" font-family="sans-serif" font-size="14" font-weight="bold" lengthAdjust="spacing" textLength="94" x="489" y="698.5117">ratio_percent</text><text fill="#000000" font-family="sans-serif" font-size="14" lengthAdjust="spacing" textLength="157" x="593" y="698.5117">0.6521739130434783</text><line style="stroke:#000000;stroke-width:1.0;" x1="588" x2="588" y1="682.9766" y2="703.4648"/><rect fill="none" height="61.4648" rx="5" ry="5" style="stroke:#000000;stroke-width:1.5;" width="271" x="484" y="642"/><rect fill="#F1F1F1" height="61.4648" rx="5" ry="5" style="stroke:#F1F1F1;stroke-width:1.5;" width="271" x="484" y="721"/><text fill="#000000" font-family="sans-serif" font-size="14" font-weight="bold" lengthAdjust="spacing" textLength="78" x="489" y="736.5352">field_value</text><text fill="#000000" font-family="sans-serif" font-size="14" lengthAdjust="spacing" textLength="27" x="593" y="736.5352">346</text><line style="stroke:#000000;stroke-width:1.0;" x1="588" x2="588" y1="721" y2="741.4883"/><line style="stroke:#000000;stroke-width:1.0;" x1="484" x2="755" y1="741.4883" y2="741.4883"/><text fill="#000000" font-family="sans-serif" font-size="14" font-weight="bold" lengthAdjust="spacing" textLength="74" x="489" y="757.0234">row_count</text><text fill="#000000" font-family="sans-serif" font-size="14" lengthAdjust="spacing" textLength="9" x="593" y="757.0234">3</text><line style="stroke:#000000;stroke-width:1.0;" x1="588" x2="588" y1="741.4883" y2="761.9766"/><line style="stroke:#000000;stroke-width:1.0;" x1="484" x2="755" y1="761.9766" y2="761.9766"/><text fill="#000000" font-family="sans-serif" font-size="14" font-weight="bold" lengthAdjust="spacing" textLength="94" x="489" y="777.5117">ratio_percent</text><text fill="#000000" font-family="sans-serif" font-size="14" lengthAdjust="spacing" textLength="157" x="593" y="777.5117">0.6521739130434783</text><line style="stroke:#000000;stroke-width:1.0;" x1="588" x2="588" y1="761.9766" y2="782.4648"/><rect fill="none" height="61.4648" rx="5" ry="5" style="stroke:#000000;stroke-width:1.5;" width="271" x="484" y="721"/><path d="M209,315.5 L222,315.5 C242.8273,315.5 239.7406,295.5187 258,285.5 C262.1394,283.2288 266.4771,281.0988 270.9224,279.1061 " fill="none" style="stroke:#000000;stroke-width:1.0;stroke-dasharray:3.0,3.0;"/><path d="M272.1301,281.9305 L273.0407,278.2004 L269.7148,276.2817 L277.9835,276.0871 L272.1301,281.9305 " fill="#000000" style="stroke:#000000;stroke-width:1.0;"/><ellipse cx="209" cy="315.5" fill="#000000" rx="3" ry="3" style="stroke:#000000;stroke-width:1.0;"/><path d="M353,303.5 L366,303.5 C403.3122,303.5 422.1906,312.4458 448,285.5 C512.2901,218.3792 421.93,148.679 484,79.5 C485.0081,78.3765 486.0463,77.2844 487.1126,76.2231 " fill="none" style="stroke:#000000;stroke-width:1.0;stroke-dasharray:3.0,3.0;"/><path d="M489.1347,78.4455 L488.7795,74.7065 L485.0905,74.0006 L492.6688,71.1678 L489.1347,78.4455 " fill="#000000" style="stroke:#000000;stroke-width:1.0;"/><ellipse cx="353" cy="303.5" fill="#000000" rx="3" ry="3" style="stroke:#000000;stroke-width:1.0;"/><path d="M353,324.5 L366,324.5 C406.3564,324.5 421.9543,316.3264 448,285.5 C485.864,240.686 442.6193,200.0887 484,158.5 C485.2233,157.2705 486.4828,156.0793 487.7755,154.925 " fill="none" style="stroke:#000000;stroke-width:1.0;stroke-dasharray:3.0,3.0;"/><path d="M489.7064,157.2737 L489.537,153.4769 L485.8447,152.5764 L493.6472,150.0978 L489.7064,157.2737 " fill="#000000" style="stroke:#000000;stroke-width:1.0;"/><ellipse cx="353" cy="324.5" fill="#000000" rx="3" ry="3" style="stroke:#000000;stroke-width:1.0;"/><path d="M353,344.5 L366,344.5 C410.8977,344.5 415.9398,316.9316 448,285.5 C467.0419,266.8314 462.0554,252.6508 484,237.5 C486.3464,235.88 488.7599,234.3267 491.2295,232.8373 " fill="none" style="stroke:#000000;stroke-width:1.0;stroke-dasharray:3.0,3.0;"/><path d="M492.7476,235.5016 L493.2277,231.6987 L489.7115,230.173 L497.8903,229.0421 L492.7476,235.5016 " fill="#000000" style="stroke:#000000;stroke-width:1.0;"/><ellipse cx="353" cy="344.5" fill="#000000" rx="3" ry="3" style="stroke:#000000;stroke-width:1.0;"/><path d="M353,365.5 L366,365.5 C422.6174,365.5 430.5709,336.2315 484,317.5 C490.8339,315.1041 497.894,312.7271 505.0365,310.3966 " fill="none" style="stroke:#000000;stroke-width:1.0;stroke-dasharray:3.0,3.0;"/><path d="M505.9621,313.2625 L507.1859,309.7025 L504.1109,307.5308 L512.2011,308.0827 L505.9621,313.2625 " fill="#000000" style="stroke:#000000;stroke-width:1.0;"/><ellipse cx="353" cy="365.5" fill="#000000" rx="3" ry="3" style="stroke:#000000;stroke-width:1.0;"/><path d="M353,385.5 L366,385.5 C402.0127,385.5 440.7224,382.5639 476.7667,378.5603 " fill="none" style="stroke:#000000;stroke-width:1.0;stroke-dasharray:3.0,3.0;"/><path d="M477.1147,381.6199 L479.0615,378.2993 L476.4188,375.5006 L484.4158,377.6904 L477.1147,381.6199 " fill="#000000" style="stroke:#000000;stroke-width:1.0;"/><ellipse cx="353" cy="385.5" fill="#000000" rx="3" ry="3" style="stroke:#000000;stroke-width:1.0;"/><path d="M353,406.5 L366,406.5 C402.0127,406.5 440.7224,409.4361 476.7667,413.4397 " fill="none" style="stroke:#000000;stroke-width:1.0;stroke-dasharray:3.0,3.0;"/><path d="M476.4188,416.4994 L479.0615,413.7007 L477.1147,410.3801 L484.4158,414.3096 L476.4188,416.4994 " fill="#000000" style="stroke:#000000;stroke-width:1.0;"/><ellipse cx="353" cy="406.5" fill="#000000" rx="3" ry="3" style="stroke:#000000;stroke-width:1.0;"/><path d="M353,427.5 L366,427.5 C422.6174,427.5 430.5074,456.9509 484,475.5 C489.9641,477.5681 496.1016,479.6165 502.3168,481.6282 " fill="none" style="stroke:#000000;stroke-width:1.0;stroke-dasharray:3.0,3.0;"/><path d="M501.3793,484.5585 L504.5145,482.3313 L503.2542,478.6979 L509.6426,483.9718 L501.3793,484.5585 " fill="#000000" style="stroke:#000000;stroke-width:1.0;"/><ellipse cx="353" cy="427.5" fill="#000000" rx="3" ry="3" style="stroke:#000000;stroke-width:1.0;"/><path d="M353,447.5 L366,447.5 C436.7951,447.5 422.1756,520.008 484,554.5 C487.2257,556.2996 490.542,558.0227 493.9269,559.6722 " fill="none" style="stroke:#000000;stroke-width:1.0;stroke-dasharray:3.0,3.0;"/><path d="M492.6137,562.4872 L496.0382,560.6571 L495.2402,556.8572 L500.9644,562.9553 L492.6137,562.4872 " fill="#000000" style="stroke:#000000;stroke-width:1.0;"/><ellipse cx="353" cy="447.5" fill="#000000" rx="3" ry="3" style="stroke:#000000;stroke-width:1.0;"/><path d="M353,468.5 L366,468.5 C456.1565,468.5 410.3939,581.439 484,633.5 C486.1411,635.0144 488.3405,636.4704 490.5894,637.8702 " fill="none" style="stroke:#000000;stroke-width:1.0;stroke-dasharray:3.0,3.0;"/><path d="M488.9762,640.6249 L492.6554,639.0801 L492.2026,635.1155 L497.4762,641.9033 L488.9762,640.6249 " fill="#000000" style="stroke:#000000;stroke-width:1.0;"/><ellipse cx="353" cy="468.5" fill="#000000" rx="3" ry="3" style="stroke:#000000;stroke-width:1.0;"/><path d="M353,488.5 L366,488.5 C478.5243,488.5 396.7588,641.4317 484,712.5 C485.7289,713.9084 487.5064,715.2659 489.3269,716.5744 " fill="none" style="stroke:#000000;stroke-width:1.0;stroke-dasharray:3.0,3.0;"/><path d="M487.6218,719.1133 L491.2311,717.8533 L491.032,714.0356 L495.674,720.8372 L487.6218,719.1133 " fill="#000000" style="stroke:#000000;stroke-width:1.0;"/><ellipse cx="353" cy="488.5" fill="#000000" rx="3" ry="3" style="stroke:#000000;stroke-width:1.0;"/><path d="M209,336.5 L222,336.5 C265.8518,336.5 311.0003,364.993 334.8339,382.7089 " fill="none" style="stroke:#000000;stroke-width:1.0;stroke-dasharray:3.0,3.0;"/><path d="M332.9625,385.1642 L336.6753,384.1124 L336.7052,380.2536 L340.9721,387.3873 L332.9625,385.1642 " fill="#000000" style="stroke:#000000;stroke-width:1.0;"/><ellipse cx="209" cy="336.5" fill="#000000" rx="3" ry="3" style="stroke:#000000;stroke-width:1.0;"/><!--MD5=[23f643b5f274abbafa1ce2af5f1b41a7]
@startjson
{
    "field1": "ProductID",
    "combination": "ProductID",
    "null_distribution": {
        "total_null_rows": 0,
        "total_not_null_rows": 460
    },
    "data_distribution": [
        {
            "field_value": "322",
            "row_count": 3,
            "ratio_percent": 0.6521739130434783
        },
        {
            "field_value": "321",
            "row_count": 3,
            "ratio_percent": 0.6521739130434783
        },
        {
            "field_value": "320",
            "row_count": 3,
            "ratio_percent": 0.6521739130434783
        },
        {
            "field_value": "319",
            "row_count": 3,
            "ratio_percent": 0.6521739130434783
        },
        {
            "field_value": "341",
            "row_count": 3,
            "ratio_percent": 0.6521739130434783
        },
        {
            "field_value": "342",
            "row_count": 3,
            "ratio_percent": 0.6521739130434783
        },
        {
            "field_value": "343",
            "row_count": 3,
            "ratio_percent": 0.6521739130434783
        },
        {
            "field_value": "344",
            "row_count": 3,
            "ratio_percent": 0.6521739130434783
        },
        {
            "field_value": "345",
            "row_count": 3,
            "ratio_percent": 0.6521739130434783
        },
        {
            "field_value": "346",
            "row_count": 3,
            "ratio_percent": 0.6521739130434783
        }
    ]
}
@endjson

PlantUML version 1.2022.5(Sat Apr 30 06:55:52 EDT 2022)
(GPL source distribution)
Java Runtime: OpenJDK Runtime Environment
JVM: OpenJDK 64-Bit Server VM
Default Encoding: UTF-8
Language: en
Country: CA
--></g></svg>