<?xml version="1.0" encoding="UTF-8" standalone="no"?><svg xmlns="http://www.w3.org/2000/svg" xmlns:xlink="http://www.w3.org/1999/xlink" contentStyleType="text/css" height="138px" preserveAspectRatio="none" style="width:663px;height:138px;background:#FFFFFF;" version="1.1" viewBox="0 0 663 138" width="663px" zoomAndPan="magnify"><defs/><g><rect fill="#F1F1F1" height="81.9531" rx="5" ry="5" style="stroke:#F1F1F1;stroke-width:1.5;" width="233" x="10" y="10"/><text fill="#000000" font-family="sans-serif" font-size="14" font-weight="bold" lengthAdjust="spacing" textLength="42" x="15" y="25.5352">field1</text><text fill="#000000" font-family="sans-serif" font-size="14" lengthAdjust="spacing" textLength="89" x="149" y="25.5352">CostLastYear</text><line style="stroke:#000000;stroke-width:1.0;" x1="144" x2="144" y1="10" y2="30.4883"/><line style="stroke:#000000;stroke-width:1.0;" x1="10" x2="243" y1="30.4883" y2="30.4883"/><text fill="#000000" font-family="sans-serif" font-size="14" font-weight="bold" lengthAdjust="spacing" textLength="90" x="15" y="46.0234">combination</text><text fill="#000000" font-family="sans-serif" font-size="14" lengthAdjust="spacing" textLength="89" x="149" y="46.0234">CostLastYear</text><line style="stroke:#000000;stroke-width:1.0;" x1="144" x2="144" y1="30.4883" y2="50.9766"/><line style="stroke:#000000;stroke-width:1.0;" x1="10" x2="243" y1="50.9766" y2="50.9766"/><text fill="#000000" font-family="sans-serif" font-size="14" font-weight="bold" lengthAdjust="spacing" textLength="121" x="15" y="66.5117">null_distribution</text><text fill="#000000" font-family="sans-serif" font-size="14" lengthAdjust="spacing" textLength="12" x="149" y="66.5117">   </text><line style="stroke:#000000;stroke-width:1.0;" x1="144" x2="144" y1="50.9766" y2="71.4648"/><line style="stroke:#000000;stroke-width:1.0;" x1="10" x2="243" y1="71.4648" y2="71.4648"/><text fill="#000000" font-family="sans-serif" font-size="14" font-weight="bold" lengthAdjust="spacing" textLength="124" x="15" y="87">data_distribution</text><text fill="#000000" font-family="sans-serif" font-size="14" lengthAdjust="spacing" textLength="12" x="149" y="87">   </text><line style="stroke:#000000;stroke-width:1.0;" x1="144" x2="144" y1="71.4648" y2="91.9531"/><rect fill="none" height="81.9531" rx="5" ry="5" style="stroke:#000000;stroke-width:1.5;" width="233" x="10" y="10"/><rect fill="#F1F1F1" height="40.9766" rx="5" ry="5" style="stroke:#F1F1F1;stroke-width:1.5;" width="180" x="280" y="26.5"/><text fill="#000000" font-family="sans-serif" font-size="14" font-weight="bold" lengthAdjust="spacing" textLength="111" x="285" y="42.0352">total_null_rows</text><text fill="#000000" font-family="sans-serif" font-size="14" lengthAdjust="spacing" textLength="9" x="437" y="42.0352">0</text><line style="stroke:#000000;stroke-width:1.0;" x1="432" x2="432" y1="26.5" y2="46.9883"/><line style="stroke:#000000;stroke-width:1.0;" x1="280" x2="460" y1="46.9883" y2="46.9883"/><text fill="#000000" font-family="sans-serif" font-size="14" font-weight="bold" lengthAdjust="spacing" textLength="142" x="285" y="62.5234">total_not_null_rows</text><text fill="#000000" font-family="sans-serif" font-size="14" lengthAdjust="spacing" textLength="18" x="437" y="62.5234">10</text><line style="stroke:#000000;stroke-width:1.0;" x1="432" x2="432" y1="46.9883" y2="67.4766"/><rect fill="none" height="40.9766" rx="5" ry="5" style="stroke:#000000;stroke-width:1.5;" width="180" x="280" y="26.5"/><rect fill="#F1F1F1" height="20.4883" rx="5" ry="5" style="stroke:#F1F1F1;stroke-width:1.5;" width="22" x="358" y="86"/><text fill="#000000" font-family="sans-serif" font-size="14" lengthAdjust="spacing" textLength="12" x="363" y="101.5352">   </text><rect fill="none" height="20.4883" rx="5" ry="5" style="stroke:#000000;stroke-width:1.5;" width="22" x="358" y="86"/><rect fill="#F1F1F1" height="61.4648" rx="5" ry="5" style="stroke:#F1F1F1;stroke-width:1.5;" width="154" x="497" y="65.5"/><text fill="#000000" font-family="sans-serif" font-size="14" font-weight="bold" lengthAdjust="spacing" textLength="78" x="502" y="81.0352">field_value</text><text fill="#000000" font-family="sans-serif" font-size="14" lengthAdjust="spacing" textLength="31" x="606" y="81.0352">0.00</text><line style="stroke:#000000;stroke-width:1.0;" x1="601" x2="601" y1="65.5" y2="85.9883"/><line style="stroke:#000000;stroke-width:1.0;" x1="497" x2="651" y1="85.9883" y2="85.9883"/><text fill="#000000" font-family="sans-serif" font-size="14" font-weight="bold" lengthAdjust="spacing" textLength="74" x="502" y="101.5234">row_count</text><text fill="#000000" font-family="sans-serif" font-size="14" lengthAdjust="spacing" textLength="18" x="606" y="101.5234">10</text><line style="stroke:#000000;stroke-width:1.0;" x1="601" x2="601" y1="85.9883" y2="106.4766"/><line style="stroke:#000000;stroke-width:1.0;" x1="497" x2="651" y1="106.4766" y2="106.4766"/><text fill="#000000" font-family="sans-serif" font-size="14" font-weight="bold" lengthAdjust="spacing" textLength="94" x="502" y="122.0117">ratio_percent</text><text fill="#000000" font-family="sans-serif" font-size="14" lengthAdjust="spacing" textLength="40" x="606" y="122.0117">100.0</text><line style="stroke:#000000;stroke-width:1.0;" x1="601" x2="601" y1="106.4766" y2="126.9648"/><rect fill="none" height="61.4648" rx="5" ry="5" style="stroke:#000000;stroke-width:1.5;" width="154" x="497" y="65.5"/><path d="M231,61 L244,61 C253.2549,61 262.8702,60.6193 272.4753,59.9835 " fill="none" style="stroke:#000000;stroke-width:1.0;stroke-dasharray:3.0,3.0;"/><path d="M272.7002,63.061 L274.7835,59.8148 L272.2504,56.9059 L280.1692,59.4212 L272.7002,63.061 " fill="#000000" style="stroke:#000000;stroke-width:1.0;"/><ellipse cx="231" cy="61" fill="#000000" rx="3" ry="3" style="stroke:#000000;stroke-width:1.0;"/><path d="M369.5906,96 L382.5906,96 C403.6435,96 448.7167,96 489.7816,96 " fill="none" style="stroke:#000000;stroke-width:1.0;stroke-dasharray:3.0,3.0;"/><path d="M489.7816,99.0458 L492.0659,96 L489.7816,92.9542 L497.3959,96 L489.7816,99.0458 " fill="#000000" style="stroke:#000000;stroke-width:1.0;"/><ellipse cx="369.5906" cy="96" fill="#000000" rx="3" ry="3" style="stroke:#000000;stroke-width:1.0;"/><path d="M231,82 L244,82 C282.2117,82 326.5666,88.4897 350.9864,92.6322 " fill="none" style="stroke:#000000;stroke-width:1.0;stroke-dasharray:3.0,3.0;"/><path d="M350.4656,95.624 L353.2303,93.0228 L351.5073,89.6403 L358.466,93.9343 L350.4656,95.624 " fill="#000000" style="stroke:#000000;stroke-width:1.0;"/><ellipse cx="231" cy="82" fill="#000000" rx="3" ry="3" style="stroke:#000000;stroke-width:1.0;"/><!--MD5=[a1b1ee4703ba3af9d7d2c39c5d8d8164]
@startjson
{
    "field1": "CostLastYear",
    "combination": "CostLastYear",
    "null_distribution": {
        "total_null_rows": 0,
        "total_not_null_rows": 10
    },
    "data_distribution": [
        {
            "field_value": "0.00",
            "row_count": 10,
            "ratio_percent": 100.0
        }
    ]
}
@endjson

PlantUML version 1.2022.5(Sat Apr 30 06:55:52 EDT 2022)
(GPL source distribution)
Java Runtime: OpenJDK Runtime Environment
JVM: OpenJDK 64-Bit Server VM
Default Encoding: UTF-8
Language: en
Country: CA
--></g></svg>