<?xml version="1.0" encoding="UTF-8" standalone="no"?><svg xmlns="http://www.w3.org/2000/svg" xmlns:xlink="http://www.w3.org/1999/xlink" contentStyleType="text/css" height="794px" preserveAspectRatio="none" style="width:918px;height:794px;background:#FFFFFF;" version="1.1" viewBox="0 0 918 794" width="918px" zoomAndPan="magnify"><defs/><g><rect fill="#F1F1F1" height="81.9531" rx="5" ry="5" style="stroke:#F1F1F1;stroke-width:1.5;" width="317" x="10" y="264.5"/><text fill="#000000" font-family="sans-serif" font-size="14" font-weight="bold" lengthAdjust="spacing" textLength="42" x="15" y="280.0352">field1</text><text fill="#000000" font-family="sans-serif" font-size="14" lengthAdjust="spacing" textLength="173" x="149" y="280.0352">CreditCardApprovalCode</text><line style="stroke:#000000;stroke-width:1.0;" x1="144" x2="144" y1="264.5" y2="284.9883"/><line style="stroke:#000000;stroke-width:1.0;" x1="10" x2="327" y1="284.9883" y2="284.9883"/><text fill="#000000" font-family="sans-serif" font-size="14" font-weight="bold" lengthAdjust="spacing" textLength="90" x="15" y="300.5234">combination</text><text fill="#000000" font-family="sans-serif" font-size="14" lengthAdjust="spacing" textLength="173" x="149" y="300.5234">CreditCardApprovalCode</text><line style="stroke:#000000;stroke-width:1.0;" x1="144" x2="144" y1="284.9883" y2="305.4766"/><line style="stroke:#000000;stroke-width:1.0;" x1="10" x2="327" y1="305.4766" y2="305.4766"/><text fill="#000000" font-family="sans-serif" font-size="14" font-weight="bold" lengthAdjust="spacing" textLength="121" x="15" y="321.0117">null_distribution</text><text fill="#000000" font-family="sans-serif" font-size="14" lengthAdjust="spacing" textLength="12" x="149" y="321.0117">   </text><line style="stroke:#000000;stroke-width:1.0;" x1="144" x2="144" y1="305.4766" y2="325.9648"/><line style="stroke:#000000;stroke-width:1.0;" x1="10" x2="327" y1="325.9648" y2="325.9648"/><text fill="#000000" font-family="sans-serif" font-size="14" font-weight="bold" lengthAdjust="spacing" textLength="124" x="15" y="341.5">data_distribution</text><text fill="#000000" font-family="sans-serif" font-size="14" lengthAdjust="spacing" textLength="12" x="149" y="341.5">   </text><line style="stroke:#000000;stroke-width:1.0;" x1="144" x2="144" y1="325.9648" y2="346.4531"/><rect fill="none" height="81.9531" rx="5" ry="5" style="stroke:#000000;stroke-width:1.5;" width="317" x="10" y="264.5"/><rect fill="#F1F1F1" height="40.9766" rx="5" ry="5" style="stroke:#F1F1F1;stroke-width:1.5;" width="207" x="364" y="235"/><text fill="#000000" font-family="sans-serif" font-size="14" font-weight="bold" lengthAdjust="spacing" textLength="111" x="369" y="250.5352">total_null_rows</text><text fill="#000000" font-family="sans-serif" font-size="14" lengthAdjust="spacing" textLength="36" x="521" y="250.5352">1131</text><line style="stroke:#000000;stroke-width:1.0;" x1="516" x2="516" y1="235" y2="255.4883"/><line style="stroke:#000000;stroke-width:1.0;" x1="364" x2="571" y1="255.4883" y2="255.4883"/><text fill="#000000" font-family="sans-serif" font-size="14" font-weight="bold" lengthAdjust="spacing" textLength="142" x="369" y="271.0234">total_not_null_rows</text><text fill="#000000" font-family="sans-serif" font-size="14" lengthAdjust="spacing" textLength="45" x="521" y="271.0234">30334</text><line style="stroke:#000000;stroke-width:1.0;" x1="516" x2="516" y1="255.4883" y2="275.9766"/><rect fill="none" height="40.9766" rx="5" ry="5" style="stroke:#000000;stroke-width:1.5;" width="207" x="364" y="235"/><rect fill="#F1F1F1" height="204.8828" rx="5" ry="5" style="stroke:#F1F1F1;stroke-width:1.5;" width="22" x="455.5" y="294"/><text fill="#000000" font-family="sans-serif" font-size="14" lengthAdjust="spacing" textLength="12" x="460.5" y="309.5352">   </text><line style="stroke:#000000;stroke-width:1.0;" x1="455.5" x2="477.5" y1="314.4883" y2="314.4883"/><text fill="#000000" font-family="sans-serif" font-size="14" lengthAdjust="spacing" textLength="12" x="460.5" y="330.0234">   </text><line style="stroke:#000000;stroke-width:1.0;" x1="455.5" x2="477.5" y1="334.9766" y2="334.9766"/><text fill="#000000" font-family="sans-serif" font-size="14" lengthAdjust="spacing" textLength="12" x="460.5" y="350.5117">   </text><line style="stroke:#000000;stroke-width:1.0;" x1="455.5" x2="477.5" y1="355.4648" y2="355.4648"/><text fill="#000000" font-family="sans-serif" font-size="14" lengthAdjust="spacing" textLength="12" x="460.5" y="371">   </text><line style="stroke:#000000;stroke-width:1.0;" x1="455.5" x2="477.5" y1="375.9531" y2="375.9531"/><text fill="#000000" font-family="sans-serif" font-size="14" lengthAdjust="spacing" textLength="12" x="460.5" y="391.4883">   </text><line style="stroke:#000000;stroke-width:1.0;" x1="455.5" x2="477.5" y1="396.4414" y2="396.4414"/><text fill="#000000" font-family="sans-serif" font-size="14" lengthAdjust="spacing" textLength="12" x="460.5" y="411.9766">   </text><line style="stroke:#000000;stroke-width:1.0;" x1="455.5" x2="477.5" y1="416.9297" y2="416.9297"/><text fill="#000000" font-family="sans-serif" font-size="14" lengthAdjust="spacing" textLength="12" x="460.5" y="432.4648">   </text><line style="stroke:#000000;stroke-width:1.0;" x1="455.5" x2="477.5" y1="437.418" y2="437.418"/><text fill="#000000" font-family="sans-serif" font-size="14" lengthAdjust="spacing" textLength="12" x="460.5" y="452.9531">   </text><line style="stroke:#000000;stroke-width:1.0;" x1="455.5" x2="477.5" y1="457.9063" y2="457.9063"/><text fill="#000000" font-family="sans-serif" font-size="14" lengthAdjust="spacing" textLength="12" x="460.5" y="473.4414">   </text><line style="stroke:#000000;stroke-width:1.0;" x1="455.5" x2="477.5" y1="478.3945" y2="478.3945"/><text fill="#000000" font-family="sans-serif" font-size="14" lengthAdjust="spacing" textLength="12" x="460.5" y="493.9297">   </text><rect fill="none" height="204.8828" rx="5" ry="5" style="stroke:#000000;stroke-width:1.5;" width="22" x="455.5" y="294"/><rect fill="#F1F1F1" height="61.4648" rx="5" ry="5" style="stroke:#F1F1F1;stroke-width:1.5;" width="271" x="621.5" y="10"/><text fill="#000000" font-family="sans-serif" font-size="14" font-weight="bold" lengthAdjust="spacing" textLength="78" x="626.5" y="25.5352">field_value</text><text fill="#000000" font-family="sans-serif" font-size="14" font-weight="bold" lengthAdjust="spacing" textLength="37" x="730.5" y="25.5352">NULL</text><line style="stroke:#000000;stroke-width:1.0;" x1="725.5" x2="725.5" y1="10" y2="30.4883"/><line style="stroke:#000000;stroke-width:1.0;" x1="621.5" x2="892.5" y1="30.4883" y2="30.4883"/><text fill="#000000" font-family="sans-serif" font-size="14" font-weight="bold" lengthAdjust="spacing" textLength="74" x="626.5" y="46.0234">row_count</text><text fill="#000000" font-family="sans-serif" font-size="14" lengthAdjust="spacing" textLength="36" x="730.5" y="46.0234">1131</text><line style="stroke:#000000;stroke-width:1.0;" x1="725.5" x2="725.5" y1="30.4883" y2="50.9766"/><line style="stroke:#000000;stroke-width:1.0;" x1="621.5" x2="892.5" y1="50.9766" y2="50.9766"/><text fill="#000000" font-family="sans-serif" font-size="14" font-weight="bold" lengthAdjust="spacing" textLength="94" x="626.5" y="66.5117">ratio_percent</text><text fill="#000000" font-family="sans-serif" font-size="14" lengthAdjust="spacing" textLength="157" x="730.5" y="66.5117">3.5944700460829493</text><line style="stroke:#000000;stroke-width:1.0;" x1="725.5" x2="725.5" y1="50.9766" y2="71.4648"/><rect fill="none" height="61.4648" rx="5" ry="5" style="stroke:#000000;stroke-width:1.5;" width="271" x="621.5" y="10"/><rect fill="#F1F1F1" height="61.4648" rx="5" ry="5" style="stroke:#F1F1F1;stroke-width:1.5;" width="298" x="608" y="89"/><text fill="#000000" font-family="sans-serif" font-size="14" font-weight="bold" lengthAdjust="spacing" textLength="78" x="613" y="104.5352">field_value</text><text fill="#000000" font-family="sans-serif" font-size="14" lengthAdjust="spacing" textLength="121" x="717" y="104.5352">1016127Vi33896</text><line style="stroke:#000000;stroke-width:1.0;" x1="712" x2="712" y1="89" y2="109.4883"/><line style="stroke:#000000;stroke-width:1.0;" x1="608" x2="906" y1="109.4883" y2="109.4883"/><text fill="#000000" font-family="sans-serif" font-size="14" font-weight="bold" lengthAdjust="spacing" textLength="74" x="613" y="125.0234">row_count</text><text fill="#000000" font-family="sans-serif" font-size="14" lengthAdjust="spacing" textLength="9" x="717" y="125.0234">1</text><line style="stroke:#000000;stroke-width:1.0;" x1="712" x2="712" y1="109.4883" y2="129.9766"/><line style="stroke:#000000;stroke-width:1.0;" x1="608" x2="906" y1="129.9766" y2="129.9766"/><text fill="#000000" font-family="sans-serif" font-size="14" font-weight="bold" lengthAdjust="spacing" textLength="94" x="613" y="145.5117">ratio_percent</text><text fill="#000000" font-family="sans-serif" font-size="14" lengthAdjust="spacing" textLength="184" x="717" y="145.5117">0.0031781344350866043</text><line style="stroke:#000000;stroke-width:1.0;" x1="712" x2="712" y1="129.9766" y2="150.4648"/><rect fill="none" height="61.4648" rx="5" ry="5" style="stroke:#000000;stroke-width:1.5;" width="298" x="608" y="89"/><rect fill="#F1F1F1" height="61.4648" rx="5" ry="5" style="stroke:#F1F1F1;stroke-width:1.5;" width="298" x="608" y="168"/><text fill="#000000" font-family="sans-serif" font-size="14" font-weight="bold" lengthAdjust="spacing" textLength="78" x="613" y="183.5352">field_value</text><text fill="#000000" font-family="sans-serif" font-size="14" lengthAdjust="spacing" textLength="121" x="717" y="183.5352">1016121Vi66589</text><line style="stroke:#000000;stroke-width:1.0;" x1="712" x2="712" y1="168" y2="188.4883"/><line style="stroke:#000000;stroke-width:1.0;" x1="608" x2="906" y1="188.4883" y2="188.4883"/><text fill="#000000" font-family="sans-serif" font-size="14" font-weight="bold" lengthAdjust="spacing" textLength="74" x="613" y="204.0234">row_count</text><text fill="#000000" font-family="sans-serif" font-size="14" lengthAdjust="spacing" textLength="9" x="717" y="204.0234">1</text><line style="stroke:#000000;stroke-width:1.0;" x1="712" x2="712" y1="188.4883" y2="208.9766"/><line style="stroke:#000000;stroke-width:1.0;" x1="608" x2="906" y1="208.9766" y2="208.9766"/><text fill="#000000" font-family="sans-serif" font-size="14" font-weight="bold" lengthAdjust="spacing" textLength="94" x="613" y="224.5117">ratio_percent</text><text fill="#000000" font-family="sans-serif" font-size="14" lengthAdjust="spacing" textLength="184" x="717" y="224.5117">0.0031781344350866043</text><line style="stroke:#000000;stroke-width:1.0;" x1="712" x2="712" y1="208.9766" y2="229.4648"/><rect fill="none" height="61.4648" rx="5" ry="5" style="stroke:#000000;stroke-width:1.5;" width="298" x="608" y="168"/><rect fill="#F1F1F1" height="61.4648" rx="5" ry="5" style="stroke:#F1F1F1;stroke-width:1.5;" width="298" x="608" y="247"/><text fill="#000000" font-family="sans-serif" font-size="14" font-weight="bold" lengthAdjust="spacing" textLength="78" x="613" y="262.5352">field_value</text><text fill="#000000" font-family="sans-serif" font-size="14" lengthAdjust="spacing" textLength="121" x="717" y="262.5352">1016107Vi51017</text><line style="stroke:#000000;stroke-width:1.0;" x1="712" x2="712" y1="247" y2="267.4883"/><line style="stroke:#000000;stroke-width:1.0;" x1="608" x2="906" y1="267.4883" y2="267.4883"/><text fill="#000000" font-family="sans-serif" font-size="14" font-weight="bold" lengthAdjust="spacing" textLength="74" x="613" y="283.0234">row_count</text><text fill="#000000" font-family="sans-serif" font-size="14" lengthAdjust="spacing" textLength="9" x="717" y="283.0234">1</text><line style="stroke:#000000;stroke-width:1.0;" x1="712" x2="712" y1="267.4883" y2="287.9766"/><line style="stroke:#000000;stroke-width:1.0;" x1="608" x2="906" y1="287.9766" y2="287.9766"/><text fill="#000000" font-family="sans-serif" font-size="14" font-weight="bold" lengthAdjust="spacing" textLength="94" x="613" y="303.5117">ratio_percent</text><text fill="#000000" font-family="sans-serif" font-size="14" lengthAdjust="spacing" textLength="184" x="717" y="303.5117">0.0031781344350866043</text><line style="stroke:#000000;stroke-width:1.0;" x1="712" x2="712" y1="287.9766" y2="308.4648"/><rect fill="none" height="61.4648" rx="5" ry="5" style="stroke:#000000;stroke-width:1.5;" width="298" x="608" y="247"/><rect fill="#F1F1F1" height="61.4648" rx="5" ry="5" style="stroke:#F1F1F1;stroke-width:1.5;" width="298" x="608" y="326"/><text fill="#000000" font-family="sans-serif" font-size="14" font-weight="bold" lengthAdjust="spacing" textLength="78" x="613" y="341.5352">field_value</text><text fill="#000000" font-family="sans-serif" font-size="14" lengthAdjust="spacing" textLength="121" x="717" y="341.5352">1016070Vi25308</text><line style="stroke:#000000;stroke-width:1.0;" x1="712" x2="712" y1="326" y2="346.4883"/><line style="stroke:#000000;stroke-width:1.0;" x1="608" x2="906" y1="346.4883" y2="346.4883"/><text fill="#000000" font-family="sans-serif" font-size="14" font-weight="bold" lengthAdjust="spacing" textLength="74" x="613" y="362.0234">row_count</text><text fill="#000000" font-family="sans-serif" font-size="14" lengthAdjust="spacing" textLength="9" x="717" y="362.0234">1</text><line style="stroke:#000000;stroke-width:1.0;" x1="712" x2="712" y1="346.4883" y2="366.9766"/><line style="stroke:#000000;stroke-width:1.0;" x1="608" x2="906" y1="366.9766" y2="366.9766"/><text fill="#000000" font-family="sans-serif" font-size="14" font-weight="bold" lengthAdjust="spacing" textLength="94" x="613" y="382.5117">ratio_percent</text><text fill="#000000" font-family="sans-serif" font-size="14" lengthAdjust="spacing" textLength="184" x="717" y="382.5117">0.0031781344350866043</text><line style="stroke:#000000;stroke-width:1.0;" x1="712" x2="712" y1="366.9766" y2="387.4648"/><rect fill="none" height="61.4648" rx="5" ry="5" style="stroke:#000000;stroke-width:1.5;" width="298" x="608" y="326"/><rect fill="#F1F1F1" height="61.4648" rx="5" ry="5" style="stroke:#F1F1F1;stroke-width:1.5;" width="298" x="608" y="405"/><text fill="#000000" font-family="sans-serif" font-size="14" font-weight="bold" lengthAdjust="spacing" textLength="78" x="613" y="420.5352">field_value</text><text fill="#000000" font-family="sans-serif" font-size="14" lengthAdjust="spacing" textLength="121" x="717" y="420.5352">1016054Vi11926</text><line style="stroke:#000000;stroke-width:1.0;" x1="712" x2="712" y1="405" y2="425.4883"/><line style="stroke:#000000;stroke-width:1.0;" x1="608" x2="906" y1="425.4883" y2="425.4883"/><text fill="#000000" font-family="sans-serif" font-size="14" font-weight="bold" lengthAdjust="spacing" textLength="74" x="613" y="441.0234">row_count</text><text fill="#000000" font-family="sans-serif" font-size="14" lengthAdjust="spacing" textLength="9" x="717" y="441.0234">1</text><line style="stroke:#000000;stroke-width:1.0;" x1="712" x2="712" y1="425.4883" y2="445.9766"/><line style="stroke:#000000;stroke-width:1.0;" x1="608" x2="906" y1="445.9766" y2="445.9766"/><text fill="#000000" font-family="sans-serif" font-size="14" font-weight="bold" lengthAdjust="spacing" textLength="94" x="613" y="461.5117">ratio_percent</text><text fill="#000000" font-family="sans-serif" font-size="14" lengthAdjust="spacing" textLength="184" x="717" y="461.5117">0.0031781344350866043</text><line style="stroke:#000000;stroke-width:1.0;" x1="712" x2="712" y1="445.9766" y2="466.4648"/><rect fill="none" height="61.4648" rx="5" ry="5" style="stroke:#000000;stroke-width:1.5;" width="298" x="608" y="405"/><rect fill="#F1F1F1" height="61.4648" rx="5" ry="5" style="stroke:#F1F1F1;stroke-width:1.5;" width="298" x="608" y="484"/><text fill="#000000" font-family="sans-serif" font-size="14" font-weight="bold" lengthAdjust="spacing" textLength="78" x="613" y="499.5352">field_value</text><text fill="#000000" font-family="sans-serif" font-size="14" lengthAdjust="spacing" textLength="112" x="717" y="499.5352">1016050Vi6608</text><line style="stroke:#000000;stroke-width:1.0;" x1="712" x2="712" y1="484" y2="504.4883"/><line style="stroke:#000000;stroke-width:1.0;" x1="608" x2="906" y1="504.4883" y2="504.4883"/><text fill="#000000" font-family="sans-serif" font-size="14" font-weight="bold" lengthAdjust="spacing" textLength="74" x="613" y="520.0234">row_count</text><text fill="#000000" font-family="sans-serif" font-size="14" lengthAdjust="spacing" textLength="9" x="717" y="520.0234">1</text><line style="stroke:#000000;stroke-width:1.0;" x1="712" x2="712" y1="504.4883" y2="524.9766"/><line style="stroke:#000000;stroke-width:1.0;" x1="608" x2="906" y1="524.9766" y2="524.9766"/><text fill="#000000" font-family="sans-serif" font-size="14" font-weight="bold" lengthAdjust="spacing" textLength="94" x="613" y="540.5117">ratio_percent</text><text fill="#000000" font-family="sans-serif" font-size="14" lengthAdjust="spacing" textLength="184" x="717" y="540.5117">0.0031781344350866043</text><line style="stroke:#000000;stroke-width:1.0;" x1="712" x2="712" y1="524.9766" y2="545.4648"/><rect fill="none" height="61.4648" rx="5" ry="5" style="stroke:#000000;stroke-width:1.5;" width="298" x="608" y="484"/><rect fill="#F1F1F1" height="61.4648" rx="5" ry="5" style="stroke:#F1F1F1;stroke-width:1.5;" width="298" x="608" y="563"/><text fill="#000000" font-family="sans-serif" font-size="14" font-weight="bold" lengthAdjust="spacing" textLength="78" x="613" y="578.5352">field_value</text><text fill="#000000" font-family="sans-serif" font-size="14" lengthAdjust="spacing" textLength="121" x="717" y="578.5352">1016033Vi21159</text><line style="stroke:#000000;stroke-width:1.0;" x1="712" x2="712" y1="563" y2="583.4883"/><line style="stroke:#000000;stroke-width:1.0;" x1="608" x2="906" y1="583.4883" y2="583.4883"/><text fill="#000000" font-family="sans-serif" font-size="14" font-weight="bold" lengthAdjust="spacing" textLength="74" x="613" y="599.0234">row_count</text><text fill="#000000" font-family="sans-serif" font-size="14" lengthAdjust="spacing" textLength="9" x="717" y="599.0234">1</text><line style="stroke:#000000;stroke-width:1.0;" x1="712" x2="712" y1="583.4883" y2="603.9766"/><line style="stroke:#000000;stroke-width:1.0;" x1="608" x2="906" y1="603.9766" y2="603.9766"/><text fill="#000000" font-family="sans-serif" font-size="14" font-weight="bold" lengthAdjust="spacing" textLength="94" x="613" y="619.5117">ratio_percent</text><text fill="#000000" font-family="sans-serif" font-size="14" lengthAdjust="spacing" textLength="184" x="717" y="619.5117">0.0031781344350866043</text><line style="stroke:#000000;stroke-width:1.0;" x1="712" x2="712" y1="603.9766" y2="624.4648"/><rect fill="none" height="61.4648" rx="5" ry="5" style="stroke:#000000;stroke-width:1.5;" width="298" x="608" y="563"/><rect fill="#F1F1F1" height="61.4648" rx="5" ry="5" style="stroke:#F1F1F1;stroke-width:1.5;" width="298" x="608" y="642"/><text fill="#000000" font-family="sans-serif" font-size="14" font-weight="bold" lengthAdjust="spacing" textLength="78" x="613" y="657.5352">field_value</text><text fill="#000000" font-family="sans-serif" font-size="14" lengthAdjust="spacing" textLength="121" x="717" y="657.5352">1016029Vi87083</text><line style="stroke:#000000;stroke-width:1.0;" x1="712" x2="712" y1="642" y2="662.4883"/><line style="stroke:#000000;stroke-width:1.0;" x1="608" x2="906" y1="662.4883" y2="662.4883"/><text fill="#000000" font-family="sans-serif" font-size="14" font-weight="bold" lengthAdjust="spacing" textLength="74" x="613" y="678.0234">row_count</text><text fill="#000000" font-family="sans-serif" font-size="14" lengthAdjust="spacing" textLength="9" x="717" y="678.0234">1</text><line style="stroke:#000000;stroke-width:1.0;" x1="712" x2="712" y1="662.4883" y2="682.9766"/><line style="stroke:#000000;stroke-width:1.0;" x1="608" x2="906" y1="682.9766" y2="682.9766"/><text fill="#000000" font-family="sans-serif" font-size="14" font-weight="bold" lengthAdjust="spacing" textLength="94" x="613" y="698.5117">ratio_percent</text><text fill="#000000" font-family="sans-serif" font-size="14" lengthAdjust="spacing" textLength="184" x="717" y="698.5117">0.0031781344350866043</text><line style="stroke:#000000;stroke-width:1.0;" x1="712" x2="712" y1="682.9766" y2="703.4648"/><rect fill="none" height="61.4648" rx="5" ry="5" style="stroke:#000000;stroke-width:1.5;" width="298" x="608" y="642"/><rect fill="#F1F1F1" height="61.4648" rx="5" ry="5" style="stroke:#F1F1F1;stroke-width:1.5;" width="298" x="608" y="721"/><text fill="#000000" font-family="sans-serif" font-size="14" font-weight="bold" lengthAdjust="spacing" textLength="78" x="613" y="736.5352">field_value</text><text fill="#000000" font-family="sans-serif" font-size="14" lengthAdjust="spacing" textLength="121" x="717" y="736.5352">1016019Vi13445</text><line style="stroke:#000000;stroke-width:1.0;" x1="712" x2="712" y1="721" y2="741.4883"/><line style="stroke:#000000;stroke-width:1.0;" x1="608" x2="906" y1="741.4883" y2="741.4883"/><text fill="#000000" font-family="sans-serif" font-size="14" font-weight="bold" lengthAdjust="spacing" textLength="74" x="613" y="757.0234">row_count</text><text fill="#000000" font-family="sans-serif" font-size="14" lengthAdjust="spacing" textLength="9" x="717" y="757.0234">1</text><line style="stroke:#000000;stroke-width:1.0;" x1="712" x2="712" y1="741.4883" y2="761.9766"/><line style="stroke:#000000;stroke-width:1.0;" x1="608" x2="906" y1="761.9766" y2="761.9766"/><text fill="#000000" font-family="sans-serif" font-size="14" font-weight="bold" lengthAdjust="spacing" textLength="94" x="613" y="777.5117">ratio_percent</text><text fill="#000000" font-family="sans-serif" font-size="14" lengthAdjust="spacing" textLength="184" x="717" y="777.5117">0.0031781344350866043</text><line style="stroke:#000000;stroke-width:1.0;" x1="712" x2="712" y1="761.9766" y2="782.4648"/><rect fill="none" height="61.4648" rx="5" ry="5" style="stroke:#000000;stroke-width:1.5;" width="298" x="608" y="721"/><path d="M315,315.5 L328,315.5 C348.8273,315.5 345.6143,295.285 364,285.5 C368.4187,283.1484 373.0447,280.9598 377.7859,278.9261 " fill="none" style="stroke:#000000;stroke-width:1.0;stroke-dasharray:3.0,3.0;"/><path d="M378.9339,281.7334 L379.8914,278.0652 L376.638,276.1189 L384.804,276.0563 L378.9339,281.7334 " fill="#000000" style="stroke:#000000;stroke-width:1.0;"/><ellipse cx="315" cy="315.5" fill="#000000" rx="3" ry="3" style="stroke:#000000;stroke-width:1.0;"/><path d="M468,303.5 L481,303.5 C522.2281,303.5 543.1738,314.9755 572,285.5 C636.9848,219.0516 545.0904,147.9164 608,79.5 C610.3342,76.9615 612.8117,74.5799 615.4122,72.346 " fill="none" style="stroke:#000000;stroke-width:1.0;stroke-dasharray:3.0,3.0;"/><path d="M617.3918,74.8584 L617.2965,70.8612 L613.4325,69.8335 L621.6932,67.3968 L617.3918,74.8584 " fill="#000000" style="stroke:#000000;stroke-width:1.0;"/><ellipse cx="468" cy="303.5" fill="#000000" rx="3" ry="3" style="stroke:#000000;stroke-width:1.0;"/><path d="M468,324.5 L481,324.5 C525.0022,324.5 542.9505,318.5503 572,285.5 C610.7318,241.4339 566.1149,199.5806 608,158.5 C609.237,157.2868 610.5068,156.1101 611.8072,154.9687 " fill="none" style="stroke:#000000;stroke-width:1.0;stroke-dasharray:3.0,3.0;"/><path d="M613.7195,157.3243 L613.5738,153.5345 L609.8948,152.6132 L617.6961,150.1879 L613.7195,157.3243 " fill="#000000" style="stroke:#000000;stroke-width:1.0;"/><ellipse cx="468" cy="324.5" fill="#000000" rx="3" ry="3" style="stroke:#000000;stroke-width:1.0;"/><path d="M468,344.5 L481,344.5 C529.2012,344.5 536.773,318.4001 572,285.5 C591.4889,267.2985 585.8722,252.3819 608,237.5 C610.4088,235.8799 612.8815,234.3271 615.4082,232.8388 " fill="none" style="stroke:#000000;stroke-width:1.0;stroke-dasharray:3.0,3.0;"/><path d="M616.9246,235.5619 L617.4505,231.7015 L613.8917,230.1158 L622.2158,229.0478 L616.9246,235.5619 " fill="#000000" style="stroke:#000000;stroke-width:1.0;"/><ellipse cx="468" cy="344.5" fill="#000000" rx="3" ry="3" style="stroke:#000000;stroke-width:1.0;"/><path d="M468,365.5 L481,365.5 C541.3414,365.5 550.5762,336.0361 608,317.5 C615.587,315.0509 623.4244,312.629 631.3506,310.2612 " fill="none" style="stroke:#000000;stroke-width:1.0;stroke-dasharray:3.0,3.0;"/><path d="M632.214,313.181 L633.5404,309.6137 L630.4872,307.3414 L638.6501,308.1027 L632.214,313.181 " fill="#000000" style="stroke:#000000;stroke-width:1.0;"/><ellipse cx="468" cy="365.5" fill="#000000" rx="3" ry="3" style="stroke:#000000;stroke-width:1.0;"/><path d="M468,385.5 L481,385.5 C519.8886,385.5 561.6962,382.6068 600.699,378.6481 " fill="none" style="stroke:#000000;stroke-width:1.0;stroke-dasharray:3.0,3.0;"/><path d="M601.0211,381.7527 L603.0274,378.4064 L600.3768,375.5435 L608.4605,377.8427 L601.0211,381.7527 " fill="#000000" style="stroke:#000000;stroke-width:1.0;"/><ellipse cx="468" cy="385.5" fill="#000000" rx="3" ry="3" style="stroke:#000000;stroke-width:1.0;"/><path d="M468,406.5 L481,406.5 C519.8886,406.5 561.6962,409.3932 600.699,413.3519 " fill="none" style="stroke:#000000;stroke-width:1.0;stroke-dasharray:3.0,3.0;"/><path d="M600.3768,416.4565 L603.0274,413.5936 L601.0211,410.2473 L608.4605,414.1573 L600.3768,416.4565 " fill="#000000" style="stroke:#000000;stroke-width:1.0;"/><ellipse cx="468" cy="406.5" fill="#000000" rx="3" ry="3" style="stroke:#000000;stroke-width:1.0;"/><path d="M468,427.5 L481,427.5 C541.3414,427.5 550.5181,457.1445 608,475.5 C614.6199,477.6139 621.4315,479.7017 628.3272,481.7468 " fill="none" style="stroke:#000000;stroke-width:1.0;stroke-dasharray:3.0,3.0;"/><path d="M627.4465,484.751 L630.5803,482.4073 L629.2078,478.7426 L635.8376,483.9484 L627.4465,484.751 " fill="#000000" style="stroke:#000000;stroke-width:1.0;"/><ellipse cx="468" cy="427.5" fill="#000000" rx="3" ry="3" style="stroke:#000000;stroke-width:1.0;"/><path d="M468,447.5 L481,447.5 C554.8072,447.5 542.4817,520.5169 608,554.5 C611.6232,556.3793 615.3443,558.1733 619.1386,559.8855 " fill="none" style="stroke:#000000;stroke-width:1.0;stroke-dasharray:3.0,3.0;"/><path d="M617.9409,562.6469 L621.2096,560.7839 L620.3364,557.1242 L626.042,562.8799 L617.9409,562.6469 " fill="#000000" style="stroke:#000000;stroke-width:1.0;"/><ellipse cx="468" cy="447.5" fill="#000000" rx="3" ry="3" style="stroke:#000000;stroke-width:1.0;"/><path d="M468,468.5 L481,468.5 C573.5405,468.5 530.8896,582.3361 608,633.5 C610.4189,635.105 612.9008,636.644 615.4358,638.1197 " fill="none" style="stroke:#000000;stroke-width:1.0;stroke-dasharray:3.0,3.0;"/><path d="M613.9317,640.851 L617.4843,639.2479 L616.94,635.3885 L622.2639,641.8802 L613.9317,640.851 " fill="#000000" style="stroke:#000000;stroke-width:1.0;"/><ellipse cx="468" cy="468.5" fill="#000000" rx="3" ry="3" style="stroke:#000000;stroke-width:1.0;"/><path d="M468,488.5 L481,488.5 C595.4434,488.5 517.3054,642.7019 608,712.5 C609.8319,713.9098 611.71,715.2688 613.6292,716.5789 " fill="none" style="stroke:#000000;stroke-width:1.0;stroke-dasharray:3.0,3.0;"/><path d="M611.9219,719.2493 L615.632,717.8594 L615.3366,713.9085 L620.3051,720.8473 L611.9219,719.2493 " fill="#000000" style="stroke:#000000;stroke-width:1.0;"/><ellipse cx="468" cy="488.5" fill="#000000" rx="3" ry="3" style="stroke:#000000;stroke-width:1.0;"/><path d="M315,336.5 L328,336.5 C375.0497,336.5 424.2629,365.8357 449.6101,383.482 " fill="none" style="stroke:#000000;stroke-width:1.0;stroke-dasharray:3.0,3.0;"/><path d="M447.8416,385.964 L451.4716,384.8085 L451.3787,381.0001 L455.815,387.9035 L447.8416,385.964 " fill="#000000" style="stroke:#000000;stroke-width:1.0;"/><ellipse cx="315" cy="336.5" fill="#000000" rx="3" ry="3" style="stroke:#000000;stroke-width:1.0;"/><!--MD5=[fa4957d455495291f66b9903e5458e99]
@startjson
{
    "field1": "CreditCardApprovalCode",
    "combination": "CreditCardApprovalCode",
    "null_distribution": {
        "total_null_rows": 1131,
        "total_not_null_rows": 30334
    },
    "data_distribution": [
        {
            "field_value": "**NULL**",
            "row_count": 1131,
            "ratio_percent": 3.5944700460829493
        },
        {
            "field_value": "1016127Vi33896",
            "row_count": 1,
            "ratio_percent": 0.0031781344350866043
        },
        {
            "field_value": "1016121Vi66589",
            "row_count": 1,
            "ratio_percent": 0.0031781344350866043
        },
        {
            "field_value": "1016107Vi51017",
            "row_count": 1,
            "ratio_percent": 0.0031781344350866043
        },
        {
            "field_value": "1016070Vi25308",
            "row_count": 1,
            "ratio_percent": 0.0031781344350866043
        },
        {
            "field_value": "1016054Vi11926",
            "row_count": 1,
            "ratio_percent": 0.0031781344350866043
        },
        {
            "field_value": "1016050Vi6608",
            "row_count": 1,
            "ratio_percent": 0.0031781344350866043
        },
        {
            "field_value": "1016033Vi21159",
            "row_count": 1,
            "ratio_percent": 0.0031781344350866043
        },
        {
            "field_value": "1016029Vi87083",
            "row_count": 1,
            "ratio_percent": 0.0031781344350866043
        },
        {
            "field_value": "1016019Vi13445",
            "row_count": 1,
            "ratio_percent": 0.0031781344350866043
        }
    ]
}
@endjson

PlantUML version 1.2022.5(Sat Apr 30 06:55:52 EDT 2022)
(GPL source distribution)
Java Runtime: OpenJDK Runtime Environment
JVM: OpenJDK 64-Bit Server VM
Default Encoding: UTF-8
Language: en
Country: CA
--></g></svg>