<?xml version="1.0" encoding="UTF-8" standalone="no"?><svg xmlns="http://www.w3.org/2000/svg" xmlns:xlink="http://www.w3.org/1999/xlink" contentStyleType="text/css" height="794px" preserveAspectRatio="none" style="width:835px;height:794px;background:#FFFFFF;" version="1.1" viewBox="0 0 835 794" width="835px" zoomAndPan="magnify"><defs/><g><rect fill="#F1F1F1" height="81.9531" rx="5" ry="5" style="stroke:#F1F1F1;stroke-width:1.5;" width="252" x="10" y="264.5"/><text fill="#000000" font-family="sans-serif" font-size="14" font-weight="bold" lengthAdjust="spacing" textLength="42" x="15" y="280.0352">field1</text><text fill="#000000" font-family="sans-serif" font-size="14" lengthAdjust="spacing" textLength="108" x="149" y="280.0352">BillToAddressID</text><line style="stroke:#000000;stroke-width:1.0;" x1="144" x2="144" y1="264.5" y2="284.9883"/><line style="stroke:#000000;stroke-width:1.0;" x1="10" x2="262" y1="284.9883" y2="284.9883"/><text fill="#000000" font-family="sans-serif" font-size="14" font-weight="bold" lengthAdjust="spacing" textLength="90" x="15" y="300.5234">combination</text><text fill="#000000" font-family="sans-serif" font-size="14" lengthAdjust="spacing" textLength="108" x="149" y="300.5234">BillToAddressID</text><line style="stroke:#000000;stroke-width:1.0;" x1="144" x2="144" y1="284.9883" y2="305.4766"/><line style="stroke:#000000;stroke-width:1.0;" x1="10" x2="262" y1="305.4766" y2="305.4766"/><text fill="#000000" font-family="sans-serif" font-size="14" font-weight="bold" lengthAdjust="spacing" textLength="121" x="15" y="321.0117">null_distribution</text><text fill="#000000" font-family="sans-serif" font-size="14" lengthAdjust="spacing" textLength="12" x="149" y="321.0117">   </text><line style="stroke:#000000;stroke-width:1.0;" x1="144" x2="144" y1="305.4766" y2="325.9648"/><line style="stroke:#000000;stroke-width:1.0;" x1="10" x2="262" y1="325.9648" y2="325.9648"/><text fill="#000000" font-family="sans-serif" font-size="14" font-weight="bold" lengthAdjust="spacing" textLength="124" x="15" y="341.5">data_distribution</text><text fill="#000000" font-family="sans-serif" font-size="14" lengthAdjust="spacing" textLength="12" x="149" y="341.5">   </text><line style="stroke:#000000;stroke-width:1.0;" x1="144" x2="144" y1="325.9648" y2="346.4531"/><rect fill="none" height="81.9531" rx="5" ry="5" style="stroke:#000000;stroke-width:1.5;" width="252" x="10" y="264.5"/><rect fill="#F1F1F1" height="40.9766" rx="5" ry="5" style="stroke:#F1F1F1;stroke-width:1.5;" width="207" x="299" y="235"/><text fill="#000000" font-family="sans-serif" font-size="14" font-weight="bold" lengthAdjust="spacing" textLength="111" x="304" y="250.5352">total_null_rows</text><text fill="#000000" font-family="sans-serif" font-size="14" lengthAdjust="spacing" textLength="9" x="456" y="250.5352">0</text><line style="stroke:#000000;stroke-width:1.0;" x1="451" x2="451" y1="235" y2="255.4883"/><line style="stroke:#000000;stroke-width:1.0;" x1="299" x2="506" y1="255.4883" y2="255.4883"/><text fill="#000000" font-family="sans-serif" font-size="14" font-weight="bold" lengthAdjust="spacing" textLength="142" x="304" y="271.0234">total_not_null_rows</text><text fill="#000000" font-family="sans-serif" font-size="14" lengthAdjust="spacing" textLength="45" x="456" y="271.0234">31465</text><line style="stroke:#000000;stroke-width:1.0;" x1="451" x2="451" y1="255.4883" y2="275.9766"/><rect fill="none" height="40.9766" rx="5" ry="5" style="stroke:#000000;stroke-width:1.5;" width="207" x="299" y="235"/><rect fill="#F1F1F1" height="204.8828" rx="5" ry="5" style="stroke:#F1F1F1;stroke-width:1.5;" width="22" x="390.5" y="294"/><text fill="#000000" font-family="sans-serif" font-size="14" lengthAdjust="spacing" textLength="12" x="395.5" y="309.5352">   </text><line style="stroke:#000000;stroke-width:1.0;" x1="390.5" x2="412.5" y1="314.4883" y2="314.4883"/><text fill="#000000" font-family="sans-serif" font-size="14" lengthAdjust="spacing" textLength="12" x="395.5" y="330.0234">   </text><line style="stroke:#000000;stroke-width:1.0;" x1="390.5" x2="412.5" y1="334.9766" y2="334.9766"/><text fill="#000000" font-family="sans-serif" font-size="14" lengthAdjust="spacing" textLength="12" x="395.5" y="350.5117">   </text><line style="stroke:#000000;stroke-width:1.0;" x1="390.5" x2="412.5" y1="355.4648" y2="355.4648"/><text fill="#000000" font-family="sans-serif" font-size="14" lengthAdjust="spacing" textLength="12" x="395.5" y="371">   </text><line style="stroke:#000000;stroke-width:1.0;" x1="390.5" x2="412.5" y1="375.9531" y2="375.9531"/><text fill="#000000" font-family="sans-serif" font-size="14" lengthAdjust="spacing" textLength="12" x="395.5" y="391.4883">   </text><line style="stroke:#000000;stroke-width:1.0;" x1="390.5" x2="412.5" y1="396.4414" y2="396.4414"/><text fill="#000000" font-family="sans-serif" font-size="14" lengthAdjust="spacing" textLength="12" x="395.5" y="411.9766">   </text><line style="stroke:#000000;stroke-width:1.0;" x1="390.5" x2="412.5" y1="416.9297" y2="416.9297"/><text fill="#000000" font-family="sans-serif" font-size="14" lengthAdjust="spacing" textLength="12" x="395.5" y="432.4648">   </text><line style="stroke:#000000;stroke-width:1.0;" x1="390.5" x2="412.5" y1="437.418" y2="437.418"/><text fill="#000000" font-family="sans-serif" font-size="14" lengthAdjust="spacing" textLength="12" x="395.5" y="452.9531">   </text><line style="stroke:#000000;stroke-width:1.0;" x1="390.5" x2="412.5" y1="457.9063" y2="457.9063"/><text fill="#000000" font-family="sans-serif" font-size="14" lengthAdjust="spacing" textLength="12" x="395.5" y="473.4414">   </text><line style="stroke:#000000;stroke-width:1.0;" x1="390.5" x2="412.5" y1="478.3945" y2="478.3945"/><text fill="#000000" font-family="sans-serif" font-size="14" lengthAdjust="spacing" textLength="12" x="395.5" y="493.9297">   </text><rect fill="none" height="204.8828" rx="5" ry="5" style="stroke:#000000;stroke-width:1.5;" width="22" x="390.5" y="294"/><rect fill="#F1F1F1" height="61.4648" rx="5" ry="5" style="stroke:#F1F1F1;stroke-width:1.5;" width="280" x="543" y="10"/><text fill="#000000" font-family="sans-serif" font-size="14" font-weight="bold" lengthAdjust="spacing" textLength="78" x="548" y="25.5352">field_value</text><text fill="#000000" font-family="sans-serif" font-size="14" lengthAdjust="spacing" textLength="45" x="652" y="25.5352">13550</text><line style="stroke:#000000;stroke-width:1.0;" x1="647" x2="647" y1="10" y2="30.4883"/><line style="stroke:#000000;stroke-width:1.0;" x1="543" x2="823" y1="30.4883" y2="30.4883"/><text fill="#000000" font-family="sans-serif" font-size="14" font-weight="bold" lengthAdjust="spacing" textLength="74" x="548" y="46.0234">row_count</text><text fill="#000000" font-family="sans-serif" font-size="14" lengthAdjust="spacing" textLength="18" x="652" y="46.0234">28</text><line style="stroke:#000000;stroke-width:1.0;" x1="647" x2="647" y1="30.4883" y2="50.9766"/><line style="stroke:#000000;stroke-width:1.0;" x1="543" x2="823" y1="50.9766" y2="50.9766"/><text fill="#000000" font-family="sans-serif" font-size="14" font-weight="bold" lengthAdjust="spacing" textLength="94" x="548" y="66.5117">ratio_percent</text><text fill="#000000" font-family="sans-serif" font-size="14" lengthAdjust="spacing" textLength="166" x="652" y="66.5117">0.08898776418242492</text><line style="stroke:#000000;stroke-width:1.0;" x1="647" x2="647" y1="50.9766" y2="71.4648"/><rect fill="none" height="61.4648" rx="5" ry="5" style="stroke:#000000;stroke-width:1.5;" width="280" x="543" y="10"/><rect fill="#F1F1F1" height="61.4648" rx="5" ry="5" style="stroke:#F1F1F1;stroke-width:1.5;" width="280" x="543" y="89"/><text fill="#000000" font-family="sans-serif" font-size="14" font-weight="bold" lengthAdjust="spacing" textLength="78" x="548" y="104.5352">field_value</text><text fill="#000000" font-family="sans-serif" font-size="14" lengthAdjust="spacing" textLength="45" x="652" y="104.5352">25073</text><line style="stroke:#000000;stroke-width:1.0;" x1="647" x2="647" y1="89" y2="109.4883"/><line style="stroke:#000000;stroke-width:1.0;" x1="543" x2="823" y1="109.4883" y2="109.4883"/><text fill="#000000" font-family="sans-serif" font-size="14" font-weight="bold" lengthAdjust="spacing" textLength="74" x="548" y="125.0234">row_count</text><text fill="#000000" font-family="sans-serif" font-size="14" lengthAdjust="spacing" textLength="18" x="652" y="125.0234">28</text><line style="stroke:#000000;stroke-width:1.0;" x1="647" x2="647" y1="109.4883" y2="129.9766"/><line style="stroke:#000000;stroke-width:1.0;" x1="543" x2="823" y1="129.9766" y2="129.9766"/><text fill="#000000" font-family="sans-serif" font-size="14" font-weight="bold" lengthAdjust="spacing" textLength="94" x="548" y="145.5117">ratio_percent</text><text fill="#000000" font-family="sans-serif" font-size="14" lengthAdjust="spacing" textLength="166" x="652" y="145.5117">0.08898776418242492</text><line style="stroke:#000000;stroke-width:1.0;" x1="647" x2="647" y1="129.9766" y2="150.4648"/><rect fill="none" height="61.4648" rx="5" ry="5" style="stroke:#000000;stroke-width:1.5;" width="280" x="543" y="89"/><rect fill="#F1F1F1" height="61.4648" rx="5" ry="5" style="stroke:#F1F1F1;stroke-width:1.5;" width="280" x="543" y="168"/><text fill="#000000" font-family="sans-serif" font-size="14" font-weight="bold" lengthAdjust="spacing" textLength="78" x="548" y="183.5352">field_value</text><text fill="#000000" font-family="sans-serif" font-size="14" lengthAdjust="spacing" textLength="45" x="652" y="183.5352">12222</text><line style="stroke:#000000;stroke-width:1.0;" x1="647" x2="647" y1="168" y2="188.4883"/><line style="stroke:#000000;stroke-width:1.0;" x1="543" x2="823" y1="188.4883" y2="188.4883"/><text fill="#000000" font-family="sans-serif" font-size="14" font-weight="bold" lengthAdjust="spacing" textLength="74" x="548" y="204.0234">row_count</text><text fill="#000000" font-family="sans-serif" font-size="14" lengthAdjust="spacing" textLength="18" x="652" y="204.0234">27</text><line style="stroke:#000000;stroke-width:1.0;" x1="647" x2="647" y1="188.4883" y2="208.9766"/><line style="stroke:#000000;stroke-width:1.0;" x1="543" x2="823" y1="208.9766" y2="208.9766"/><text fill="#000000" font-family="sans-serif" font-size="14" font-weight="bold" lengthAdjust="spacing" textLength="94" x="548" y="224.5117">ratio_percent</text><text fill="#000000" font-family="sans-serif" font-size="14" lengthAdjust="spacing" textLength="166" x="652" y="224.5117">0.08580962974733831</text><line style="stroke:#000000;stroke-width:1.0;" x1="647" x2="647" y1="208.9766" y2="229.4648"/><rect fill="none" height="61.4648" rx="5" ry="5" style="stroke:#000000;stroke-width:1.5;" width="280" x="543" y="168"/><rect fill="#F1F1F1" height="61.4648" rx="5" ry="5" style="stroke:#F1F1F1;stroke-width:1.5;" width="280" x="543" y="247"/><text fill="#000000" font-family="sans-serif" font-size="14" font-weight="bold" lengthAdjust="spacing" textLength="78" x="548" y="262.5352">field_value</text><text fill="#000000" font-family="sans-serif" font-size="14" lengthAdjust="spacing" textLength="45" x="652" y="262.5352">13890</text><line style="stroke:#000000;stroke-width:1.0;" x1="647" x2="647" y1="247" y2="267.4883"/><line style="stroke:#000000;stroke-width:1.0;" x1="543" x2="823" y1="267.4883" y2="267.4883"/><text fill="#000000" font-family="sans-serif" font-size="14" font-weight="bold" lengthAdjust="spacing" textLength="74" x="548" y="283.0234">row_count</text><text fill="#000000" font-family="sans-serif" font-size="14" lengthAdjust="spacing" textLength="18" x="652" y="283.0234">27</text><line style="stroke:#000000;stroke-width:1.0;" x1="647" x2="647" y1="267.4883" y2="287.9766"/><line style="stroke:#000000;stroke-width:1.0;" x1="543" x2="823" y1="287.9766" y2="287.9766"/><text fill="#000000" font-family="sans-serif" font-size="14" font-weight="bold" lengthAdjust="spacing" textLength="94" x="548" y="303.5117">ratio_percent</text><text fill="#000000" font-family="sans-serif" font-size="14" lengthAdjust="spacing" textLength="166" x="652" y="303.5117">0.08580962974733831</text><line style="stroke:#000000;stroke-width:1.0;" x1="647" x2="647" y1="287.9766" y2="308.4648"/><rect fill="none" height="61.4648" rx="5" ry="5" style="stroke:#000000;stroke-width:1.5;" width="280" x="543" y="247"/><rect fill="#F1F1F1" height="61.4648" rx="5" ry="5" style="stroke:#F1F1F1;stroke-width:1.5;" width="280" x="543" y="326"/><text fill="#000000" font-family="sans-serif" font-size="14" font-weight="bold" lengthAdjust="spacing" textLength="78" x="548" y="341.5352">field_value</text><text fill="#000000" font-family="sans-serif" font-size="14" lengthAdjust="spacing" textLength="45" x="652" y="341.5352">14444</text><line style="stroke:#000000;stroke-width:1.0;" x1="647" x2="647" y1="326" y2="346.4883"/><line style="stroke:#000000;stroke-width:1.0;" x1="543" x2="823" y1="346.4883" y2="346.4883"/><text fill="#000000" font-family="sans-serif" font-size="14" font-weight="bold" lengthAdjust="spacing" textLength="74" x="548" y="362.0234">row_count</text><text fill="#000000" font-family="sans-serif" font-size="14" lengthAdjust="spacing" textLength="18" x="652" y="362.0234">27</text><line style="stroke:#000000;stroke-width:1.0;" x1="647" x2="647" y1="346.4883" y2="366.9766"/><line style="stroke:#000000;stroke-width:1.0;" x1="543" x2="823" y1="366.9766" y2="366.9766"/><text fill="#000000" font-family="sans-serif" font-size="14" font-weight="bold" lengthAdjust="spacing" textLength="94" x="548" y="382.5117">ratio_percent</text><text fill="#000000" font-family="sans-serif" font-size="14" lengthAdjust="spacing" textLength="166" x="652" y="382.5117">0.08580962974733831</text><line style="stroke:#000000;stroke-width:1.0;" x1="647" x2="647" y1="366.9766" y2="387.4648"/><rect fill="none" height="61.4648" rx="5" ry="5" style="stroke:#000000;stroke-width:1.5;" width="280" x="543" y="326"/><rect fill="#F1F1F1" height="61.4648" rx="5" ry="5" style="stroke:#F1F1F1;stroke-width:1.5;" width="280" x="543" y="405"/><text fill="#000000" font-family="sans-serif" font-size="14" font-weight="bold" lengthAdjust="spacing" textLength="78" x="548" y="420.5352">field_value</text><text fill="#000000" font-family="sans-serif" font-size="14" lengthAdjust="spacing" textLength="45" x="652" y="420.5352">21596</text><line style="stroke:#000000;stroke-width:1.0;" x1="647" x2="647" y1="405" y2="425.4883"/><line style="stroke:#000000;stroke-width:1.0;" x1="543" x2="823" y1="425.4883" y2="425.4883"/><text fill="#000000" font-family="sans-serif" font-size="14" font-weight="bold" lengthAdjust="spacing" textLength="74" x="548" y="441.0234">row_count</text><text fill="#000000" font-family="sans-serif" font-size="14" lengthAdjust="spacing" textLength="18" x="652" y="441.0234">27</text><line style="stroke:#000000;stroke-width:1.0;" x1="647" x2="647" y1="425.4883" y2="445.9766"/><line style="stroke:#000000;stroke-width:1.0;" x1="543" x2="823" y1="445.9766" y2="445.9766"/><text fill="#000000" font-family="sans-serif" font-size="14" font-weight="bold" lengthAdjust="spacing" textLength="94" x="548" y="461.5117">ratio_percent</text><text fill="#000000" font-family="sans-serif" font-size="14" lengthAdjust="spacing" textLength="166" x="652" y="461.5117">0.08580962974733831</text><line style="stroke:#000000;stroke-width:1.0;" x1="647" x2="647" y1="445.9766" y2="466.4648"/><rect fill="none" height="61.4648" rx="5" ry="5" style="stroke:#000000;stroke-width:1.5;" width="280" x="543" y="405"/><rect fill="#F1F1F1" height="61.4648" rx="5" ry="5" style="stroke:#F1F1F1;stroke-width:1.5;" width="280" x="543" y="484"/><text fill="#000000" font-family="sans-serif" font-size="14" font-weight="bold" lengthAdjust="spacing" textLength="78" x="548" y="499.5352">field_value</text><text fill="#000000" font-family="sans-serif" font-size="14" lengthAdjust="spacing" textLength="45" x="652" y="499.5352">21639</text><line style="stroke:#000000;stroke-width:1.0;" x1="647" x2="647" y1="484" y2="504.4883"/><line style="stroke:#000000;stroke-width:1.0;" x1="543" x2="823" y1="504.4883" y2="504.4883"/><text fill="#000000" font-family="sans-serif" font-size="14" font-weight="bold" lengthAdjust="spacing" textLength="74" x="548" y="520.0234">row_count</text><text fill="#000000" font-family="sans-serif" font-size="14" lengthAdjust="spacing" textLength="18" x="652" y="520.0234">27</text><line style="stroke:#000000;stroke-width:1.0;" x1="647" x2="647" y1="504.4883" y2="524.9766"/><line style="stroke:#000000;stroke-width:1.0;" x1="543" x2="823" y1="524.9766" y2="524.9766"/><text fill="#000000" font-family="sans-serif" font-size="14" font-weight="bold" lengthAdjust="spacing" textLength="94" x="548" y="540.5117">ratio_percent</text><text fill="#000000" font-family="sans-serif" font-size="14" lengthAdjust="spacing" textLength="166" x="652" y="540.5117">0.08580962974733831</text><line style="stroke:#000000;stroke-width:1.0;" x1="647" x2="647" y1="524.9766" y2="545.4648"/><rect fill="none" height="61.4648" rx="5" ry="5" style="stroke:#000000;stroke-width:1.5;" width="280" x="543" y="484"/><rect fill="#F1F1F1" height="61.4648" rx="5" ry="5" style="stroke:#F1F1F1;stroke-width:1.5;" width="280" x="543" y="563"/><text fill="#000000" font-family="sans-serif" font-size="14" font-weight="bold" lengthAdjust="spacing" textLength="78" x="548" y="578.5352">field_value</text><text fill="#000000" font-family="sans-serif" font-size="14" lengthAdjust="spacing" textLength="45" x="652" y="578.5352">22168</text><line style="stroke:#000000;stroke-width:1.0;" x1="647" x2="647" y1="563" y2="583.4883"/><line style="stroke:#000000;stroke-width:1.0;" x1="543" x2="823" y1="583.4883" y2="583.4883"/><text fill="#000000" font-family="sans-serif" font-size="14" font-weight="bold" lengthAdjust="spacing" textLength="74" x="548" y="599.0234">row_count</text><text fill="#000000" font-family="sans-serif" font-size="14" lengthAdjust="spacing" textLength="18" x="652" y="599.0234">27</text><line style="stroke:#000000;stroke-width:1.0;" x1="647" x2="647" y1="583.4883" y2="603.9766"/><line style="stroke:#000000;stroke-width:1.0;" x1="543" x2="823" y1="603.9766" y2="603.9766"/><text fill="#000000" font-family="sans-serif" font-size="14" font-weight="bold" lengthAdjust="spacing" textLength="94" x="548" y="619.5117">ratio_percent</text><text fill="#000000" font-family="sans-serif" font-size="14" lengthAdjust="spacing" textLength="166" x="652" y="619.5117">0.08580962974733831</text><line style="stroke:#000000;stroke-width:1.0;" x1="647" x2="647" y1="603.9766" y2="624.4648"/><rect fill="none" height="61.4648" rx="5" ry="5" style="stroke:#000000;stroke-width:1.5;" width="280" x="543" y="563"/><rect fill="#F1F1F1" height="61.4648" rx="5" ry="5" style="stroke:#F1F1F1;stroke-width:1.5;" width="280" x="543" y="642"/><text fill="#000000" font-family="sans-serif" font-size="14" font-weight="bold" lengthAdjust="spacing" textLength="78" x="548" y="657.5352">field_value</text><text fill="#000000" font-family="sans-serif" font-size="14" lengthAdjust="spacing" textLength="45" x="652" y="657.5352">24521</text><line style="stroke:#000000;stroke-width:1.0;" x1="647" x2="647" y1="642" y2="662.4883"/><line style="stroke:#000000;stroke-width:1.0;" x1="543" x2="823" y1="662.4883" y2="662.4883"/><text fill="#000000" font-family="sans-serif" font-size="14" font-weight="bold" lengthAdjust="spacing" textLength="74" x="548" y="678.0234">row_count</text><text fill="#000000" font-family="sans-serif" font-size="14" lengthAdjust="spacing" textLength="18" x="652" y="678.0234">27</text><line style="stroke:#000000;stroke-width:1.0;" x1="647" x2="647" y1="662.4883" y2="682.9766"/><line style="stroke:#000000;stroke-width:1.0;" x1="543" x2="823" y1="682.9766" y2="682.9766"/><text fill="#000000" font-family="sans-serif" font-size="14" font-weight="bold" lengthAdjust="spacing" textLength="94" x="548" y="698.5117">ratio_percent</text><text fill="#000000" font-family="sans-serif" font-size="14" lengthAdjust="spacing" textLength="166" x="652" y="698.5117">0.08580962974733831</text><line style="stroke:#000000;stroke-width:1.0;" x1="647" x2="647" y1="682.9766" y2="703.4648"/><rect fill="none" height="61.4648" rx="5" ry="5" style="stroke:#000000;stroke-width:1.5;" width="280" x="543" y="642"/><rect fill="#F1F1F1" height="61.4648" rx="5" ry="5" style="stroke:#F1F1F1;stroke-width:1.5;" width="280" x="543" y="721"/><text fill="#000000" font-family="sans-serif" font-size="14" font-weight="bold" lengthAdjust="spacing" textLength="78" x="548" y="736.5352">field_value</text><text fill="#000000" font-family="sans-serif" font-size="14" lengthAdjust="spacing" textLength="45" x="652" y="736.5352">25057</text><line style="stroke:#000000;stroke-width:1.0;" x1="647" x2="647" y1="721" y2="741.4883"/><line style="stroke:#000000;stroke-width:1.0;" x1="543" x2="823" y1="741.4883" y2="741.4883"/><text fill="#000000" font-family="sans-serif" font-size="14" font-weight="bold" lengthAdjust="spacing" textLength="74" x="548" y="757.0234">row_count</text><text fill="#000000" font-family="sans-serif" font-size="14" lengthAdjust="spacing" textLength="18" x="652" y="757.0234">27</text><line style="stroke:#000000;stroke-width:1.0;" x1="647" x2="647" y1="741.4883" y2="761.9766"/><line style="stroke:#000000;stroke-width:1.0;" x1="543" x2="823" y1="761.9766" y2="761.9766"/><text fill="#000000" font-family="sans-serif" font-size="14" font-weight="bold" lengthAdjust="spacing" textLength="94" x="548" y="777.5117">ratio_percent</text><text fill="#000000" font-family="sans-serif" font-size="14" lengthAdjust="spacing" textLength="166" x="652" y="777.5117">0.08580962974733831</text><line style="stroke:#000000;stroke-width:1.0;" x1="647" x2="647" y1="761.9766" y2="782.4648"/><rect fill="none" height="61.4648" rx="5" ry="5" style="stroke:#000000;stroke-width:1.5;" width="280" x="543" y="721"/><path d="M250,315.5 L263,315.5 C283.8273,315.5 280.6143,295.285 299,285.5 C303.4187,283.1484 308.0447,280.9598 312.7859,278.9261 " fill="none" style="stroke:#000000;stroke-width:1.0;stroke-dasharray:3.0,3.0;"/><path d="M313.9339,281.7334 L314.8914,278.0652 L311.638,276.1189 L319.804,276.0563 L313.9339,281.7334 " fill="#000000" style="stroke:#000000;stroke-width:1.0;"/><ellipse cx="250" cy="315.5" fill="#000000" rx="3" ry="3" style="stroke:#000000;stroke-width:1.0;"/><path d="M403,303.5 L416,303.5 C457.2281,303.5 478.1738,314.9755 507,285.5 C571.9848,219.0516 480.6323,148.4107 543,79.5 C544.0125,78.3813 545.0541,77.2936 546.123,76.2361 " fill="none" style="stroke:#000000;stroke-width:1.0;stroke-dasharray:3.0,3.0;"/><path d="M548.139,78.4612 L547.7918,74.7241 L544.107,74.0111 L551.6857,71.1961 L548.139,78.4612 " fill="#000000" style="stroke:#000000;stroke-width:1.0;"/><ellipse cx="403" cy="303.5" fill="#000000" rx="3" ry="3" style="stroke:#000000;stroke-width:1.0;"/><path d="M403,324.5 L416,324.5 C460.0022,324.5 477.9505,318.5503 507,285.5 C545.7318,241.4339 501.4404,199.9099 543,158.5 C544.2303,157.2742 545.4957,156.0861 546.7935,154.9346 " fill="none" style="stroke:#000000;stroke-width:1.0;stroke-dasharray:3.0,3.0;"/><path d="M548.7206,157.2901 L548.5601,153.4893 L544.8664,152.579 L552.6824,150.1169 L548.7206,157.2901 " fill="#000000" style="stroke:#000000;stroke-width:1.0;"/><ellipse cx="403" cy="324.5" fill="#000000" rx="3" ry="3" style="stroke:#000000;stroke-width:1.0;"/><path d="M403,344.5 L416,344.5 C464.2012,344.5 471.773,318.4001 507,285.5 C526.4889,267.2985 520.9903,252.5561 543,237.5 C545.3707,235.8783 547.8075,234.3236 550.2999,232.8333 " fill="none" style="stroke:#000000;stroke-width:1.0;stroke-dasharray:3.0,3.0;"/><path d="M551.8186,235.5213 L552.3159,231.6943 L548.7813,230.1454 L557.0198,229.0367 L551.8186,235.5213 " fill="#000000" style="stroke:#000000;stroke-width:1.0;"/><ellipse cx="403" cy="344.5" fill="#000000" rx="3" ry="3" style="stroke:#000000;stroke-width:1.0;"/><path d="M403,365.5 L416,365.5 C476.3414,365.5 485.7275,336.4987 543,317.5 C550.174,315.1202 557.5823,312.7489 565.0715,310.4167 " fill="none" style="stroke:#000000;stroke-width:1.0;stroke-dasharray:3.0,3.0;"/><path d="M565.9988,313.4209 L567.3247,309.7213 L564.1443,307.4125 L572.5821,308.0987 L565.9988,313.4209 " fill="#000000" style="stroke:#000000;stroke-width:1.0;"/><ellipse cx="403" cy="365.5" fill="#000000" rx="3" ry="3" style="stroke:#000000;stroke-width:1.0;"/><path d="M403,385.5 L416,385.5 C454.9413,385.5 496.8965,382.402 535.7354,378.2312 " fill="none" style="stroke:#000000;stroke-width:1.0;stroke-dasharray:3.0,3.0;"/><path d="M536.0746,381.321 L538.0527,377.9768 L535.3963,375.1414 L543.4598,377.3833 L536.0746,381.321 " fill="#000000" style="stroke:#000000;stroke-width:1.0;"/><ellipse cx="403" cy="385.5" fill="#000000" rx="3" ry="3" style="stroke:#000000;stroke-width:1.0;"/><path d="M403,406.5 L416,406.5 C454.9413,406.5 496.8965,409.598 535.7354,413.7688 " fill="none" style="stroke:#000000;stroke-width:1.0;stroke-dasharray:3.0,3.0;"/><path d="M535.3963,416.8586 L538.0527,414.0232 L536.0746,410.679 L543.4598,414.6167 L535.3963,416.8586 " fill="#000000" style="stroke:#000000;stroke-width:1.0;"/><ellipse cx="403" cy="406.5" fill="#000000" rx="3" ry="3" style="stroke:#000000;stroke-width:1.0;"/><path d="M403,427.5 L416,427.5 C476.3414,427.5 485.6648,456.6915 543,475.5 C549.4049,477.6011 555.9979,479.6897 562.6694,481.7455 " fill="none" style="stroke:#000000;stroke-width:1.0;stroke-dasharray:3.0,3.0;"/><path d="M561.7826,484.6515 L564.8488,482.4106 L563.5561,478.8396 L569.9343,483.9625 L561.7826,484.6515 " fill="#000000" style="stroke:#000000;stroke-width:1.0;"/><ellipse cx="403" cy="427.5" fill="#000000" rx="3" ry="3" style="stroke:#000000;stroke-width:1.0;"/><path d="M403,447.5 L416,447.5 C489.8072,447.5 477.7519,520.0009 543,554.5 C546.4545,556.3265 550.0036,558.075 553.6231,559.7482 " fill="none" style="stroke:#000000;stroke-width:1.0;stroke-dasharray:3.0,3.0;"/><path d="M552.3729,562.5646 L555.7354,560.6859 L554.8734,556.9318 L560.6641,562.8738 L552.3729,562.5646 " fill="#000000" style="stroke:#000000;stroke-width:1.0;"/><ellipse cx="403" cy="447.5" fill="#000000" rx="3" ry="3" style="stroke:#000000;stroke-width:1.0;"/><path d="M403,468.5 L416,468.5 C508.5405,468.5 466.2958,581.7292 543,633.5 C545.3808,635.1069 547.8268,636.648 550.3275,638.1261 " fill="none" style="stroke:#000000;stroke-width:1.0;stroke-dasharray:3.0,3.0;"/><path d="M548.8207,640.8221 L552.3495,639.2561 L551.8343,635.43 L557.0675,641.893 L548.8207,640.8221 " fill="#000000" style="stroke:#000000;stroke-width:1.0;"/><ellipse cx="403" cy="468.5" fill="#000000" rx="3" ry="3" style="stroke:#000000;stroke-width:1.0;"/><path d="M403,488.5 L416,488.5 C530.4434,488.5 452.859,641.9884 543,712.5 C544.8105,713.9162 546.6696,715.2811 548.5714,716.5964 " fill="none" style="stroke:#000000;stroke-width:1.0;stroke-dasharray:3.0,3.0;"/><path d="M546.8579,719.2455 L550.5582,717.8815 L550.2849,713.9473 L555.1941,720.8801 L546.8579,719.2455 " fill="#000000" style="stroke:#000000;stroke-width:1.0;"/><ellipse cx="403" cy="488.5" fill="#000000" rx="3" ry="3" style="stroke:#000000;stroke-width:1.0;"/><path d="M250,336.5 L263,336.5 C310.0497,336.5 359.2629,365.8357 384.6101,383.482 " fill="none" style="stroke:#000000;stroke-width:1.0;stroke-dasharray:3.0,3.0;"/><path d="M382.8416,385.964 L386.4716,384.8085 L386.3787,381.0001 L390.815,387.9035 L382.8416,385.964 " fill="#000000" style="stroke:#000000;stroke-width:1.0;"/><ellipse cx="250" cy="336.5" fill="#000000" rx="3" ry="3" style="stroke:#000000;stroke-width:1.0;"/><!--MD5=[ed8fd2402d20f709572f42f611b49c96]
@startjson
{
    "field1": "BillToAddressID",
    "combination": "BillToAddressID",
    "null_distribution": {
        "total_null_rows": 0,
        "total_not_null_rows": 31465
    },
    "data_distribution": [
        {
            "field_value": "13550",
            "row_count": 28,
            "ratio_percent": 0.08898776418242492
        },
        {
            "field_value": "25073",
            "row_count": 28,
            "ratio_percent": 0.08898776418242492
        },
        {
            "field_value": "12222",
            "row_count": 27,
            "ratio_percent": 0.08580962974733831
        },
        {
            "field_value": "13890",
            "row_count": 27,
            "ratio_percent": 0.08580962974733831
        },
        {
            "field_value": "14444",
            "row_count": 27,
            "ratio_percent": 0.08580962974733831
        },
        {
            "field_value": "21596",
            "row_count": 27,
            "ratio_percent": 0.08580962974733831
        },
        {
            "field_value": "21639",
            "row_count": 27,
            "ratio_percent": 0.08580962974733831
        },
        {
            "field_value": "22168",
            "row_count": 27,
            "ratio_percent": 0.08580962974733831
        },
        {
            "field_value": "24521",
            "row_count": 27,
            "ratio_percent": 0.08580962974733831
        },
        {
            "field_value": "25057",
            "row_count": 27,
            "ratio_percent": 0.08580962974733831
        }
    ]
}
@endjson

PlantUML version 1.2022.5(Sat Apr 30 06:55:52 EDT 2022)
(GPL source distribution)
Java Runtime: OpenJDK Runtime Environment
JVM: OpenJDK 64-Bit Server VM
Default Encoding: UTF-8
Language: en
Country: CA
--></g></svg>