<?xml version="1.0" encoding="UTF-8" standalone="no"?><svg xmlns="http://www.w3.org/2000/svg" xmlns:xlink="http://www.w3.org/1999/xlink" contentStyleType="text/css" height="794px" preserveAspectRatio="none" style="width:745px;height:794px;background:#FFFFFF;" version="1.1" viewBox="0 0 745 794" width="745px" zoomAndPan="magnify"><defs/><g><rect fill="#F1F1F1" height="81.9531" rx="5" ry="5" style="stroke:#F1F1F1;stroke-width:1.5;" width="207" x="10" y="264.5"/><text fill="#000000" font-family="sans-serif" font-size="14" font-weight="bold" lengthAdjust="spacing" textLength="42" x="15" y="280.0352">field1</text><text fill="#000000" font-family="sans-serif" font-size="14" lengthAdjust="spacing" textLength="63" x="149" y="280.0352">SalesYTD</text><line style="stroke:#000000;stroke-width:1.0;" x1="144" x2="144" y1="264.5" y2="284.9883"/><line style="stroke:#000000;stroke-width:1.0;" x1="10" x2="217" y1="284.9883" y2="284.9883"/><text fill="#000000" font-family="sans-serif" font-size="14" font-weight="bold" lengthAdjust="spacing" textLength="90" x="15" y="300.5234">combination</text><text fill="#000000" font-family="sans-serif" font-size="14" lengthAdjust="spacing" textLength="63" x="149" y="300.5234">SalesYTD</text><line style="stroke:#000000;stroke-width:1.0;" x1="144" x2="144" y1="284.9883" y2="305.4766"/><line style="stroke:#000000;stroke-width:1.0;" x1="10" x2="217" y1="305.4766" y2="305.4766"/><text fill="#000000" font-family="sans-serif" font-size="14" font-weight="bold" lengthAdjust="spacing" textLength="121" x="15" y="321.0117">null_distribution</text><text fill="#000000" font-family="sans-serif" font-size="14" lengthAdjust="spacing" textLength="12" x="149" y="321.0117">   </text><line style="stroke:#000000;stroke-width:1.0;" x1="144" x2="144" y1="305.4766" y2="325.9648"/><line style="stroke:#000000;stroke-width:1.0;" x1="10" x2="217" y1="325.9648" y2="325.9648"/><text fill="#000000" font-family="sans-serif" font-size="14" font-weight="bold" lengthAdjust="spacing" textLength="124" x="15" y="341.5">data_distribution</text><text fill="#000000" font-family="sans-serif" font-size="14" lengthAdjust="spacing" textLength="12" x="149" y="341.5">   </text><line style="stroke:#000000;stroke-width:1.0;" x1="144" x2="144" y1="325.9648" y2="346.4531"/><rect fill="none" height="81.9531" rx="5" ry="5" style="stroke:#000000;stroke-width:1.5;" width="207" x="10" y="264.5"/><rect fill="#F1F1F1" height="40.9766" rx="5" ry="5" style="stroke:#F1F1F1;stroke-width:1.5;" width="180" x="254" y="235"/><text fill="#000000" font-family="sans-serif" font-size="14" font-weight="bold" lengthAdjust="spacing" textLength="111" x="259" y="250.5352">total_null_rows</text><text fill="#000000" font-family="sans-serif" font-size="14" lengthAdjust="spacing" textLength="9" x="411" y="250.5352">0</text><line style="stroke:#000000;stroke-width:1.0;" x1="406" x2="406" y1="235" y2="255.4883"/><line style="stroke:#000000;stroke-width:1.0;" x1="254" x2="434" y1="255.4883" y2="255.4883"/><text fill="#000000" font-family="sans-serif" font-size="14" font-weight="bold" lengthAdjust="spacing" textLength="142" x="259" y="271.0234">total_not_null_rows</text><text fill="#000000" font-family="sans-serif" font-size="14" lengthAdjust="spacing" textLength="18" x="411" y="271.0234">17</text><line style="stroke:#000000;stroke-width:1.0;" x1="406" x2="406" y1="255.4883" y2="275.9766"/><rect fill="none" height="40.9766" rx="5" ry="5" style="stroke:#000000;stroke-width:1.5;" width="180" x="254" y="235"/><rect fill="#F1F1F1" height="204.8828" rx="5" ry="5" style="stroke:#F1F1F1;stroke-width:1.5;" width="22" x="332" y="294"/><text fill="#000000" font-family="sans-serif" font-size="14" lengthAdjust="spacing" textLength="12" x="337" y="309.5352">   </text><line style="stroke:#000000;stroke-width:1.0;" x1="332" x2="354" y1="314.4883" y2="314.4883"/><text fill="#000000" font-family="sans-serif" font-size="14" lengthAdjust="spacing" textLength="12" x="337" y="330.0234">   </text><line style="stroke:#000000;stroke-width:1.0;" x1="332" x2="354" y1="334.9766" y2="334.9766"/><text fill="#000000" font-family="sans-serif" font-size="14" lengthAdjust="spacing" textLength="12" x="337" y="350.5117">   </text><line style="stroke:#000000;stroke-width:1.0;" x1="332" x2="354" y1="355.4648" y2="355.4648"/><text fill="#000000" font-family="sans-serif" font-size="14" lengthAdjust="spacing" textLength="12" x="337" y="371">   </text><line style="stroke:#000000;stroke-width:1.0;" x1="332" x2="354" y1="375.9531" y2="375.9531"/><text fill="#000000" font-family="sans-serif" font-size="14" lengthAdjust="spacing" textLength="12" x="337" y="391.4883">   </text><line style="stroke:#000000;stroke-width:1.0;" x1="332" x2="354" y1="396.4414" y2="396.4414"/><text fill="#000000" font-family="sans-serif" font-size="14" lengthAdjust="spacing" textLength="12" x="337" y="411.9766">   </text><line style="stroke:#000000;stroke-width:1.0;" x1="332" x2="354" y1="416.9297" y2="416.9297"/><text fill="#000000" font-family="sans-serif" font-size="14" lengthAdjust="spacing" textLength="12" x="337" y="432.4648">   </text><line style="stroke:#000000;stroke-width:1.0;" x1="332" x2="354" y1="437.418" y2="437.418"/><text fill="#000000" font-family="sans-serif" font-size="14" lengthAdjust="spacing" textLength="12" x="337" y="452.9531">   </text><line style="stroke:#000000;stroke-width:1.0;" x1="332" x2="354" y1="457.9063" y2="457.9063"/><text fill="#000000" font-family="sans-serif" font-size="14" lengthAdjust="spacing" textLength="12" x="337" y="473.4414">   </text><line style="stroke:#000000;stroke-width:1.0;" x1="332" x2="354" y1="478.3945" y2="478.3945"/><text fill="#000000" font-family="sans-serif" font-size="14" lengthAdjust="spacing" textLength="12" x="337" y="493.9297">   </text><rect fill="none" height="204.8828" rx="5" ry="5" style="stroke:#000000;stroke-width:1.5;" width="22" x="332" y="294"/><rect fill="#F1F1F1" height="61.4648" rx="5" ry="5" style="stroke:#F1F1F1;stroke-width:1.5;" width="262" x="471" y="10"/><text fill="#000000" font-family="sans-serif" font-size="14" font-weight="bold" lengthAdjust="spacing" textLength="78" x="476" y="25.5352">field_value</text><text fill="#000000" font-family="sans-serif" font-size="14" lengthAdjust="spacing" textLength="85" x="580" y="25.5352">3121616.32</text><line style="stroke:#000000;stroke-width:1.0;" x1="575" x2="575" y1="10" y2="30.4883"/><line style="stroke:#000000;stroke-width:1.0;" x1="471" x2="733" y1="30.4883" y2="30.4883"/><text fill="#000000" font-family="sans-serif" font-size="14" font-weight="bold" lengthAdjust="spacing" textLength="74" x="476" y="46.0234">row_count</text><text fill="#000000" font-family="sans-serif" font-size="14" lengthAdjust="spacing" textLength="9" x="580" y="46.0234">1</text><line style="stroke:#000000;stroke-width:1.0;" x1="575" x2="575" y1="30.4883" y2="50.9766"/><line style="stroke:#000000;stroke-width:1.0;" x1="471" x2="733" y1="50.9766" y2="50.9766"/><text fill="#000000" font-family="sans-serif" font-size="14" font-weight="bold" lengthAdjust="spacing" textLength="94" x="476" y="66.5117">ratio_percent</text><text fill="#000000" font-family="sans-serif" font-size="14" lengthAdjust="spacing" textLength="148" x="580" y="66.5117">5.882352941176471</text><line style="stroke:#000000;stroke-width:1.0;" x1="575" x2="575" y1="50.9766" y2="71.4648"/><rect fill="none" height="61.4648" rx="5" ry="5" style="stroke:#000000;stroke-width:1.5;" width="262" x="471" y="10"/><rect fill="#F1F1F1" height="61.4648" rx="5" ry="5" style="stroke:#F1F1F1;stroke-width:1.5;" width="262" x="471" y="89"/><text fill="#000000" font-family="sans-serif" font-size="14" font-weight="bold" lengthAdjust="spacing" textLength="78" x="476" y="104.5352">field_value</text><text fill="#000000" font-family="sans-serif" font-size="14" lengthAdjust="spacing" textLength="85" x="580" y="104.5352">2604540.72</text><line style="stroke:#000000;stroke-width:1.0;" x1="575" x2="575" y1="89" y2="109.4883"/><line style="stroke:#000000;stroke-width:1.0;" x1="471" x2="733" y1="109.4883" y2="109.4883"/><text fill="#000000" font-family="sans-serif" font-size="14" font-weight="bold" lengthAdjust="spacing" textLength="74" x="476" y="125.0234">row_count</text><text fill="#000000" font-family="sans-serif" font-size="14" lengthAdjust="spacing" textLength="9" x="580" y="125.0234">1</text><line style="stroke:#000000;stroke-width:1.0;" x1="575" x2="575" y1="109.4883" y2="129.9766"/><line style="stroke:#000000;stroke-width:1.0;" x1="471" x2="733" y1="129.9766" y2="129.9766"/><text fill="#000000" font-family="sans-serif" font-size="14" font-weight="bold" lengthAdjust="spacing" textLength="94" x="476" y="145.5117">ratio_percent</text><text fill="#000000" font-family="sans-serif" font-size="14" lengthAdjust="spacing" textLength="148" x="580" y="145.5117">5.882352941176471</text><line style="stroke:#000000;stroke-width:1.0;" x1="575" x2="575" y1="129.9766" y2="150.4648"/><rect fill="none" height="61.4648" rx="5" ry="5" style="stroke:#000000;stroke-width:1.5;" width="262" x="471" y="89"/><rect fill="#F1F1F1" height="61.4648" rx="5" ry="5" style="stroke:#F1F1F1;stroke-width:1.5;" width="262" x="471" y="168"/><text fill="#000000" font-family="sans-serif" font-size="14" font-weight="bold" lengthAdjust="spacing" textLength="78" x="476" y="183.5352">field_value</text><text fill="#000000" font-family="sans-serif" font-size="14" lengthAdjust="spacing" textLength="85" x="580" y="183.5352">2458535.62</text><line style="stroke:#000000;stroke-width:1.0;" x1="575" x2="575" y1="168" y2="188.4883"/><line style="stroke:#000000;stroke-width:1.0;" x1="471" x2="733" y1="188.4883" y2="188.4883"/><text fill="#000000" font-family="sans-serif" font-size="14" font-weight="bold" lengthAdjust="spacing" textLength="74" x="476" y="204.0234">row_count</text><text fill="#000000" font-family="sans-serif" font-size="14" lengthAdjust="spacing" textLength="9" x="580" y="204.0234">1</text><line style="stroke:#000000;stroke-width:1.0;" x1="575" x2="575" y1="188.4883" y2="208.9766"/><line style="stroke:#000000;stroke-width:1.0;" x1="471" x2="733" y1="208.9766" y2="208.9766"/><text fill="#000000" font-family="sans-serif" font-size="14" font-weight="bold" lengthAdjust="spacing" textLength="94" x="476" y="224.5117">ratio_percent</text><text fill="#000000" font-family="sans-serif" font-size="14" lengthAdjust="spacing" textLength="148" x="580" y="224.5117">5.882352941176471</text><line style="stroke:#000000;stroke-width:1.0;" x1="575" x2="575" y1="208.9766" y2="229.4648"/><rect fill="none" height="61.4648" rx="5" ry="5" style="stroke:#000000;stroke-width:1.5;" width="262" x="471" y="168"/><rect fill="#F1F1F1" height="61.4648" rx="5" ry="5" style="stroke:#F1F1F1;stroke-width:1.5;" width="262" x="471" y="247"/><text fill="#000000" font-family="sans-serif" font-size="14" font-weight="bold" lengthAdjust="spacing" textLength="78" x="476" y="262.5352">field_value</text><text fill="#000000" font-family="sans-serif" font-size="14" lengthAdjust="spacing" textLength="85" x="580" y="262.5352">2315185.61</text><line style="stroke:#000000;stroke-width:1.0;" x1="575" x2="575" y1="247" y2="267.4883"/><line style="stroke:#000000;stroke-width:1.0;" x1="471" x2="733" y1="267.4883" y2="267.4883"/><text fill="#000000" font-family="sans-serif" font-size="14" font-weight="bold" lengthAdjust="spacing" textLength="74" x="476" y="283.0234">row_count</text><text fill="#000000" font-family="sans-serif" font-size="14" lengthAdjust="spacing" textLength="9" x="580" y="283.0234">1</text><line style="stroke:#000000;stroke-width:1.0;" x1="575" x2="575" y1="267.4883" y2="287.9766"/><line style="stroke:#000000;stroke-width:1.0;" x1="471" x2="733" y1="287.9766" y2="287.9766"/><text fill="#000000" font-family="sans-serif" font-size="14" font-weight="bold" lengthAdjust="spacing" textLength="94" x="476" y="303.5117">ratio_percent</text><text fill="#000000" font-family="sans-serif" font-size="14" lengthAdjust="spacing" textLength="148" x="580" y="303.5117">5.882352941176471</text><line style="stroke:#000000;stroke-width:1.0;" x1="575" x2="575" y1="287.9766" y2="308.4648"/><rect fill="none" height="61.4648" rx="5" ry="5" style="stroke:#000000;stroke-width:1.5;" width="262" x="471" y="247"/><rect fill="#F1F1F1" height="61.4648" rx="5" ry="5" style="stroke:#F1F1F1;stroke-width:1.5;" width="262" x="471" y="326"/><text fill="#000000" font-family="sans-serif" font-size="14" font-weight="bold" lengthAdjust="spacing" textLength="78" x="476" y="341.5352">field_value</text><text fill="#000000" font-family="sans-serif" font-size="14" lengthAdjust="spacing" textLength="85" x="580" y="341.5352">1827066.71</text><line style="stroke:#000000;stroke-width:1.0;" x1="575" x2="575" y1="326" y2="346.4883"/><line style="stroke:#000000;stroke-width:1.0;" x1="471" x2="733" y1="346.4883" y2="346.4883"/><text fill="#000000" font-family="sans-serif" font-size="14" font-weight="bold" lengthAdjust="spacing" textLength="74" x="476" y="362.0234">row_count</text><text fill="#000000" font-family="sans-serif" font-size="14" lengthAdjust="spacing" textLength="9" x="580" y="362.0234">1</text><line style="stroke:#000000;stroke-width:1.0;" x1="575" x2="575" y1="346.4883" y2="366.9766"/><line style="stroke:#000000;stroke-width:1.0;" x1="471" x2="733" y1="366.9766" y2="366.9766"/><text fill="#000000" font-family="sans-serif" font-size="14" font-weight="bold" lengthAdjust="spacing" textLength="94" x="476" y="382.5117">ratio_percent</text><text fill="#000000" font-family="sans-serif" font-size="14" lengthAdjust="spacing" textLength="148" x="580" y="382.5117">5.882352941176471</text><line style="stroke:#000000;stroke-width:1.0;" x1="575" x2="575" y1="366.9766" y2="387.4648"/><rect fill="none" height="61.4648" rx="5" ry="5" style="stroke:#000000;stroke-width:1.5;" width="262" x="471" y="326"/><rect fill="#F1F1F1" height="61.4648" rx="5" ry="5" style="stroke:#F1F1F1;stroke-width:1.5;" width="262" x="471" y="405"/><text fill="#000000" font-family="sans-serif" font-size="14" font-weight="bold" lengthAdjust="spacing" textLength="78" x="476" y="420.5352">field_value</text><text fill="#000000" font-family="sans-serif" font-size="14" lengthAdjust="spacing" textLength="76" x="580" y="420.5352">172524.45</text><line style="stroke:#000000;stroke-width:1.0;" x1="575" x2="575" y1="405" y2="425.4883"/><line style="stroke:#000000;stroke-width:1.0;" x1="471" x2="733" y1="425.4883" y2="425.4883"/><text fill="#000000" font-family="sans-serif" font-size="14" font-weight="bold" lengthAdjust="spacing" textLength="74" x="476" y="441.0234">row_count</text><text fill="#000000" font-family="sans-serif" font-size="14" lengthAdjust="spacing" textLength="9" x="580" y="441.0234">1</text><line style="stroke:#000000;stroke-width:1.0;" x1="575" x2="575" y1="425.4883" y2="445.9766"/><line style="stroke:#000000;stroke-width:1.0;" x1="471" x2="733" y1="445.9766" y2="445.9766"/><text fill="#000000" font-family="sans-serif" font-size="14" font-weight="bold" lengthAdjust="spacing" textLength="94" x="476" y="461.5117">ratio_percent</text><text fill="#000000" font-family="sans-serif" font-size="14" lengthAdjust="spacing" textLength="148" x="580" y="461.5117">5.882352941176471</text><line style="stroke:#000000;stroke-width:1.0;" x1="575" x2="575" y1="445.9766" y2="466.4648"/><rect fill="none" height="61.4648" rx="5" ry="5" style="stroke:#000000;stroke-width:1.5;" width="262" x="471" y="405"/><rect fill="#F1F1F1" height="61.4648" rx="5" ry="5" style="stroke:#F1F1F1;stroke-width:1.5;" width="262" x="471" y="484"/><text fill="#000000" font-family="sans-serif" font-size="14" font-weight="bold" lengthAdjust="spacing" textLength="78" x="476" y="499.5352">field_value</text><text fill="#000000" font-family="sans-serif" font-size="14" lengthAdjust="spacing" textLength="85" x="580" y="499.5352">1576562.20</text><line style="stroke:#000000;stroke-width:1.0;" x1="575" x2="575" y1="484" y2="504.4883"/><line style="stroke:#000000;stroke-width:1.0;" x1="471" x2="733" y1="504.4883" y2="504.4883"/><text fill="#000000" font-family="sans-serif" font-size="14" font-weight="bold" lengthAdjust="spacing" textLength="74" x="476" y="520.0234">row_count</text><text fill="#000000" font-family="sans-serif" font-size="14" lengthAdjust="spacing" textLength="9" x="580" y="520.0234">1</text><line style="stroke:#000000;stroke-width:1.0;" x1="575" x2="575" y1="504.4883" y2="524.9766"/><line style="stroke:#000000;stroke-width:1.0;" x1="471" x2="733" y1="524.9766" y2="524.9766"/><text fill="#000000" font-family="sans-serif" font-size="14" font-weight="bold" lengthAdjust="spacing" textLength="94" x="476" y="540.5117">ratio_percent</text><text fill="#000000" font-family="sans-serif" font-size="14" lengthAdjust="spacing" textLength="148" x="580" y="540.5117">5.882352941176471</text><line style="stroke:#000000;stroke-width:1.0;" x1="575" x2="575" y1="524.9766" y2="545.4648"/><rect fill="none" height="61.4648" rx="5" ry="5" style="stroke:#000000;stroke-width:1.5;" width="262" x="471" y="484"/><rect fill="#F1F1F1" height="61.4648" rx="5" ry="5" style="stroke:#F1F1F1;stroke-width:1.5;" width="262" x="471" y="563"/><text fill="#000000" font-family="sans-serif" font-size="14" font-weight="bold" lengthAdjust="spacing" textLength="78" x="476" y="578.5352">field_value</text><text fill="#000000" font-family="sans-serif" font-size="14" lengthAdjust="spacing" textLength="85" x="580" y="578.5352">1573012.94</text><line style="stroke:#000000;stroke-width:1.0;" x1="575" x2="575" y1="563" y2="583.4883"/><line style="stroke:#000000;stroke-width:1.0;" x1="471" x2="733" y1="583.4883" y2="583.4883"/><text fill="#000000" font-family="sans-serif" font-size="14" font-weight="bold" lengthAdjust="spacing" textLength="74" x="476" y="599.0234">row_count</text><text fill="#000000" font-family="sans-serif" font-size="14" lengthAdjust="spacing" textLength="9" x="580" y="599.0234">1</text><line style="stroke:#000000;stroke-width:1.0;" x1="575" x2="575" y1="583.4883" y2="603.9766"/><line style="stroke:#000000;stroke-width:1.0;" x1="471" x2="733" y1="603.9766" y2="603.9766"/><text fill="#000000" font-family="sans-serif" font-size="14" font-weight="bold" lengthAdjust="spacing" textLength="94" x="476" y="619.5117">ratio_percent</text><text fill="#000000" font-family="sans-serif" font-size="14" lengthAdjust="spacing" textLength="148" x="580" y="619.5117">5.882352941176471</text><line style="stroke:#000000;stroke-width:1.0;" x1="575" x2="575" y1="603.9766" y2="624.4648"/><rect fill="none" height="61.4648" rx="5" ry="5" style="stroke:#000000;stroke-width:1.5;" width="262" x="471" y="563"/><rect fill="#F1F1F1" height="61.4648" rx="5" ry="5" style="stroke:#F1F1F1;stroke-width:1.5;" width="262" x="471" y="642"/><text fill="#000000" font-family="sans-serif" font-size="14" font-weight="bold" lengthAdjust="spacing" textLength="78" x="476" y="657.5352">field_value</text><text fill="#000000" font-family="sans-serif" font-size="14" lengthAdjust="spacing" textLength="85" x="580" y="657.5352">1453719.47</text><line style="stroke:#000000;stroke-width:1.0;" x1="575" x2="575" y1="642" y2="662.4883"/><line style="stroke:#000000;stroke-width:1.0;" x1="471" x2="733" y1="662.4883" y2="662.4883"/><text fill="#000000" font-family="sans-serif" font-size="14" font-weight="bold" lengthAdjust="spacing" textLength="74" x="476" y="678.0234">row_count</text><text fill="#000000" font-family="sans-serif" font-size="14" lengthAdjust="spacing" textLength="9" x="580" y="678.0234">1</text><line style="stroke:#000000;stroke-width:1.0;" x1="575" x2="575" y1="662.4883" y2="682.9766"/><line style="stroke:#000000;stroke-width:1.0;" x1="471" x2="733" y1="682.9766" y2="682.9766"/><text fill="#000000" font-family="sans-serif" font-size="14" font-weight="bold" lengthAdjust="spacing" textLength="94" x="476" y="698.5117">ratio_percent</text><text fill="#000000" font-family="sans-serif" font-size="14" lengthAdjust="spacing" textLength="148" x="580" y="698.5117">5.882352941176471</text><line style="stroke:#000000;stroke-width:1.0;" x1="575" x2="575" y1="682.9766" y2="703.4648"/><rect fill="none" height="61.4648" rx="5" ry="5" style="stroke:#000000;stroke-width:1.5;" width="262" x="471" y="642"/><rect fill="#F1F1F1" height="61.4648" rx="5" ry="5" style="stroke:#F1F1F1;stroke-width:1.5;" width="262" x="471" y="721"/><text fill="#000000" font-family="sans-serif" font-size="14" font-weight="bold" lengthAdjust="spacing" textLength="78" x="476" y="736.5352">field_value</text><text fill="#000000" font-family="sans-serif" font-size="14" lengthAdjust="spacing" textLength="85" x="580" y="736.5352">1421810.92</text><line style="stroke:#000000;stroke-width:1.0;" x1="575" x2="575" y1="721" y2="741.4883"/><line style="stroke:#000000;stroke-width:1.0;" x1="471" x2="733" y1="741.4883" y2="741.4883"/><text fill="#000000" font-family="sans-serif" font-size="14" font-weight="bold" lengthAdjust="spacing" textLength="74" x="476" y="757.0234">row_count</text><text fill="#000000" font-family="sans-serif" font-size="14" lengthAdjust="spacing" textLength="9" x="580" y="757.0234">1</text><line style="stroke:#000000;stroke-width:1.0;" x1="575" x2="575" y1="741.4883" y2="761.9766"/><line style="stroke:#000000;stroke-width:1.0;" x1="471" x2="733" y1="761.9766" y2="761.9766"/><text fill="#000000" font-family="sans-serif" font-size="14" font-weight="bold" lengthAdjust="spacing" textLength="94" x="476" y="777.5117">ratio_percent</text><text fill="#000000" font-family="sans-serif" font-size="14" lengthAdjust="spacing" textLength="148" x="580" y="777.5117">5.882352941176471</text><line style="stroke:#000000;stroke-width:1.0;" x1="575" x2="575" y1="761.9766" y2="782.4648"/><rect fill="none" height="61.4648" rx="5" ry="5" style="stroke:#000000;stroke-width:1.5;" width="262" x="471" y="721"/><path d="M205,315.5 L218,315.5 C238.8273,315.5 235.8137,295.6507 254,285.5 C258.038,283.2462 262.2733,281.1247 266.6133,279.1338 " fill="none" style="stroke:#000000;stroke-width:1.0;stroke-dasharray:3.0,3.0;"/><path d="M267.8219,281.8909 L268.6812,278.2274 L265.4048,276.3766 L273.5062,276.1124 L267.8219,281.8909 " fill="#000000" style="stroke:#000000;stroke-width:1.0;"/><ellipse cx="205" cy="315.5" fill="#000000" rx="3" ry="3" style="stroke:#000000;stroke-width:1.0;"/><path d="M344.5,303.5 L357.5,303.5 C392.8613,303.5 410.6954,311.1847 435,285.5 C498.8819,217.9906 409.2478,148.9628 471,79.5 C472.0016,78.3734 473.0342,77.2787 474.0957,76.215 " fill="none" style="stroke:#000000;stroke-width:1.0;stroke-dasharray:3.0,3.0;"/><path d="M476.1212,78.4302 L475.7571,74.6959 L472.0701,73.9998 L479.6337,71.1512 L476.1212,78.4302 " fill="#000000" style="stroke:#000000;stroke-width:1.0;"/><ellipse cx="344.5" cy="303.5" fill="#000000" rx="3" ry="3" style="stroke:#000000;stroke-width:1.0;"/><path d="M344.5,324.5 L357.5,324.5 C396.0599,324.5 410.4435,315.2295 435,285.5 C472.3625,240.267 429.8105,200.2779 471,158.5 C472.214,157.2687 473.4651,156.0759 474.7502,154.9204 " fill="none" style="stroke:#000000;stroke-width:1.0;stroke-dasharray:3.0,3.0;"/><path d="M476.6826,157.2576 L476.5031,153.4711 L472.8179,152.5832 L480.5932,150.0895 L476.6826,157.2576 " fill="#000000" style="stroke:#000000;stroke-width:1.0;"/><ellipse cx="344.5" cy="324.5" fill="#000000" rx="3" ry="3" style="stroke:#000000;stroke-width:1.0;"/><path d="M344.5,344.5 L357.5,344.5 C400.79,344.5 404.4995,316.2205 435,285.5 C453.7883,266.5762 449.1251,252.7513 471,237.5 C473.3186,235.8835 475.7051,234.3329 478.1483,232.8456 " fill="none" style="stroke:#000000;stroke-width:1.0;stroke-dasharray:3.0,3.0;"/><path d="M479.6647,235.4822 L480.1258,231.7083 L476.6319,230.209 L484.7398,229.0547 L479.6647,235.4822 " fill="#000000" style="stroke:#000000;stroke-width:1.0;"/><ellipse cx="344.5" cy="344.5" fill="#000000" rx="3" ry="3" style="stroke:#000000;stroke-width:1.0;"/><path d="M344.5,365.5 L357.5,365.5 C412.27,365.5 419.5273,336.2167 471,317.5 C477.4601,315.151 484.1317,312.8207 490.884,310.5351 " fill="none" style="stroke:#000000;stroke-width:1.0;stroke-dasharray:3.0,3.0;"/><path d="M491.8685,313.4761 L493.0897,309.7967 L489.8994,307.5942 L498.2364,308.0738 L491.8685,313.4761 " fill="#000000" style="stroke:#000000;stroke-width:1.0;"/><ellipse cx="344.5" cy="365.5" fill="#000000" rx="3" ry="3" style="stroke:#000000;stroke-width:1.0;"/><path d="M344.5,385.5 L357.5,385.5 C392.004,385.5 429.062,382.6051 463.6157,378.6446 " fill="none" style="stroke:#000000;stroke-width:1.0;stroke-dasharray:3.0,3.0;"/><path d="M463.9821,381.7625 L465.9541,378.3698 L463.2493,375.5267 L471.4105,377.7285 L463.9821,381.7625 " fill="#000000" style="stroke:#000000;stroke-width:1.0;"/><ellipse cx="344.5" cy="385.5" fill="#000000" rx="3" ry="3" style="stroke:#000000;stroke-width:1.0;"/><path d="M344.5,406.5 L357.5,406.5 C392.004,406.5 429.062,409.3949 463.6157,413.3554 " fill="none" style="stroke:#000000;stroke-width:1.0;stroke-dasharray:3.0,3.0;"/><path d="M463.2493,416.4733 L465.9541,413.6302 L463.9821,410.2375 L471.4105,414.2715 L463.2493,416.4733 " fill="#000000" style="stroke:#000000;stroke-width:1.0;"/><ellipse cx="344.5" cy="406.5" fill="#000000" rx="3" ry="3" style="stroke:#000000;stroke-width:1.0;"/><path d="M344.5,427.5 L357.5,427.5 C412.27,427.5 419.4619,456.9641 471,475.5 C476.6323,477.5257 482.4266,479.5321 488.2959,481.5031 " fill="none" style="stroke:#000000;stroke-width:1.0;stroke-dasharray:3.0,3.0;"/><path d="M487.3052,484.4903 L490.5363,482.2461 L489.2865,478.516 L495.7638,483.9798 L487.3052,484.4903 " fill="#000000" style="stroke:#000000;stroke-width:1.0;"/><ellipse cx="344.5" cy="427.5" fill="#000000" rx="3" ry="3" style="stroke:#000000;stroke-width:1.0;"/><path d="M344.5,447.5 L357.5,447.5 C426.8266,447.5 410.9464,519.8628 471,554.5 C474.1013,556.2888 477.2923,558.0023 480.5514,559.6434 " fill="none" style="stroke:#000000;stroke-width:1.0;stroke-dasharray:3.0,3.0;"/><path d="M479.2444,562.3549 L482.585,560.6236 L481.8584,556.9319 L487.3301,562.9109 L479.2444,562.3549 " fill="#000000" style="stroke:#000000;stroke-width:1.0;"/><ellipse cx="344.5" cy="447.5" fill="#000000" rx="3" ry="3" style="stroke:#000000;stroke-width:1.0;"/><path d="M344.5,468.5 L357.5,468.5 C446.508,468.5 399.0438,581.1098 471,633.5 C473.1028,635.031 475.2658,636.5025 477.48,637.9166 " fill="none" style="stroke:#000000;stroke-width:1.0;stroke-dasharray:3.0,3.0;"/><path d="M475.8508,640.6315 L479.5161,639.1385 L479.1092,635.2018 L484.2671,641.9896 L475.8508,640.6315 " fill="#000000" style="stroke:#000000;stroke-width:1.0;"/><ellipse cx="344.5" cy="468.5" fill="#000000" rx="3" ry="3" style="stroke:#000000;stroke-width:1.0;"/><path d="M344.5,488.5 L357.5,488.5 C469.1062,488.5 385.3594,640.9344 471,712.5 C472.7011,713.9215 474.4526,715.2912 476.2486,716.611 " fill="none" style="stroke:#000000;stroke-width:1.0;stroke-dasharray:3.0,3.0;"/><path d="M474.5295,719.1185 L478.1292,717.9003 L477.9676,714.1035 L482.5174,720.9086 L474.5295,719.1185 " fill="#000000" style="stroke:#000000;stroke-width:1.0;"/><ellipse cx="344.5" cy="488.5" fill="#000000" rx="3" ry="3" style="stroke:#000000;stroke-width:1.0;"/><path d="M205,336.5 L218,336.5 C260.1629,336.5 303.1866,364.4055 326.2874,382.1547 " fill="none" style="stroke:#000000;stroke-width:1.0;stroke-dasharray:3.0,3.0;"/><path d="M324.4053,384.5427 L328.0784,383.5663 L328.1695,379.7667 L332.2574,386.86 L324.4053,384.5427 " fill="#000000" style="stroke:#000000;stroke-width:1.0;"/><ellipse cx="205" cy="336.5" fill="#000000" rx="3" ry="3" style="stroke:#000000;stroke-width:1.0;"/><!--MD5=[8fa3a0a016112cec0bf9a98d46fe7093]
@startjson
{
    "field1": "SalesYTD",
    "combination": "SalesYTD",
    "null_distribution": {
        "total_null_rows": 0,
        "total_not_null_rows": 17
    },
    "data_distribution": [
        {
            "field_value": "3121616.32",
            "row_count": 1,
            "ratio_percent": 5.882352941176471
        },
        {
            "field_value": "2604540.72",
            "row_count": 1,
            "ratio_percent": 5.882352941176471
        },
        {
            "field_value": "2458535.62",
            "row_count": 1,
            "ratio_percent": 5.882352941176471
        },
        {
            "field_value": "2315185.61",
            "row_count": 1,
            "ratio_percent": 5.882352941176471
        },
        {
            "field_value": "1827066.71",
            "row_count": 1,
            "ratio_percent": 5.882352941176471
        },
        {
            "field_value": "172524.45",
            "row_count": 1,
            "ratio_percent": 5.882352941176471
        },
        {
            "field_value": "1576562.20",
            "row_count": 1,
            "ratio_percent": 5.882352941176471
        },
        {
            "field_value": "1573012.94",
            "row_count": 1,
            "ratio_percent": 5.882352941176471
        },
        {
            "field_value": "1453719.47",
            "row_count": 1,
            "ratio_percent": 5.882352941176471
        },
        {
            "field_value": "1421810.92",
            "row_count": 1,
            "ratio_percent": 5.882352941176471
        }
    ]
}
@endjson

PlantUML version 1.2022.5(Sat Apr 30 06:55:52 EDT 2022)
(GPL source distribution)
Java Runtime: OpenJDK Runtime Environment
JVM: OpenJDK 64-Bit Server VM
Default Encoding: UTF-8
Language: en
Country: CA
--></g></svg>