<?xml version="1.0" encoding="UTF-8" standalone="no"?><svg xmlns="http://www.w3.org/2000/svg" xmlns:xlink="http://www.w3.org/1999/xlink" contentStyleType="text/css" height="794px" preserveAspectRatio="none" style="width:790px;height:794px;background:#FFFFFF;" version="1.1" viewBox="0 0 790 794" width="790px" zoomAndPan="magnify"><defs/><g><rect fill="#F1F1F1" height="81.9531" rx="5" ry="5" style="stroke:#F1F1F1;stroke-width:1.5;" width="207" x="10" y="264.5"/><text fill="#000000" font-family="sans-serif" font-size="14" font-weight="bold" lengthAdjust="spacing" textLength="42" x="15" y="280.0352">field1</text><text fill="#000000" font-family="sans-serif" font-size="14" lengthAdjust="spacing" textLength="63" x="149" y="280.0352">OrderQty</text><line style="stroke:#000000;stroke-width:1.0;" x1="144" x2="144" y1="264.5" y2="284.9883"/><line style="stroke:#000000;stroke-width:1.0;" x1="10" x2="217" y1="284.9883" y2="284.9883"/><text fill="#000000" font-family="sans-serif" font-size="14" font-weight="bold" lengthAdjust="spacing" textLength="90" x="15" y="300.5234">combination</text><text fill="#000000" font-family="sans-serif" font-size="14" lengthAdjust="spacing" textLength="63" x="149" y="300.5234">OrderQty</text><line style="stroke:#000000;stroke-width:1.0;" x1="144" x2="144" y1="284.9883" y2="305.4766"/><line style="stroke:#000000;stroke-width:1.0;" x1="10" x2="217" y1="305.4766" y2="305.4766"/><text fill="#000000" font-family="sans-serif" font-size="14" font-weight="bold" lengthAdjust="spacing" textLength="121" x="15" y="321.0117">null_distribution</text><text fill="#000000" font-family="sans-serif" font-size="14" lengthAdjust="spacing" textLength="12" x="149" y="321.0117">   </text><line style="stroke:#000000;stroke-width:1.0;" x1="144" x2="144" y1="305.4766" y2="325.9648"/><line style="stroke:#000000;stroke-width:1.0;" x1="10" x2="217" y1="325.9648" y2="325.9648"/><text fill="#000000" font-family="sans-serif" font-size="14" font-weight="bold" lengthAdjust="spacing" textLength="124" x="15" y="341.5">data_distribution</text><text fill="#000000" font-family="sans-serif" font-size="14" lengthAdjust="spacing" textLength="12" x="149" y="341.5">   </text><line style="stroke:#000000;stroke-width:1.0;" x1="144" x2="144" y1="325.9648" y2="346.4531"/><rect fill="none" height="81.9531" rx="5" ry="5" style="stroke:#000000;stroke-width:1.5;" width="207" x="10" y="264.5"/><rect fill="#F1F1F1" height="40.9766" rx="5" ry="5" style="stroke:#F1F1F1;stroke-width:1.5;" width="216" x="254" y="235"/><text fill="#000000" font-family="sans-serif" font-size="14" font-weight="bold" lengthAdjust="spacing" textLength="111" x="259" y="250.5352">total_null_rows</text><text fill="#000000" font-family="sans-serif" font-size="14" lengthAdjust="spacing" textLength="9" x="411" y="250.5352">0</text><line style="stroke:#000000;stroke-width:1.0;" x1="406" x2="406" y1="235" y2="255.4883"/><line style="stroke:#000000;stroke-width:1.0;" x1="254" x2="470" y1="255.4883" y2="255.4883"/><text fill="#000000" font-family="sans-serif" font-size="14" font-weight="bold" lengthAdjust="spacing" textLength="142" x="259" y="271.0234">total_not_null_rows</text><text fill="#000000" font-family="sans-serif" font-size="14" lengthAdjust="spacing" textLength="54" x="411" y="271.0234">121317</text><line style="stroke:#000000;stroke-width:1.0;" x1="406" x2="406" y1="255.4883" y2="275.9766"/><rect fill="none" height="40.9766" rx="5" ry="5" style="stroke:#000000;stroke-width:1.5;" width="216" x="254" y="235"/><rect fill="#F1F1F1" height="204.8828" rx="5" ry="5" style="stroke:#F1F1F1;stroke-width:1.5;" width="22" x="350" y="294"/><text fill="#000000" font-family="sans-serif" font-size="14" lengthAdjust="spacing" textLength="12" x="355" y="309.5352">   </text><line style="stroke:#000000;stroke-width:1.0;" x1="350" x2="372" y1="314.4883" y2="314.4883"/><text fill="#000000" font-family="sans-serif" font-size="14" lengthAdjust="spacing" textLength="12" x="355" y="330.0234">   </text><line style="stroke:#000000;stroke-width:1.0;" x1="350" x2="372" y1="334.9766" y2="334.9766"/><text fill="#000000" font-family="sans-serif" font-size="14" lengthAdjust="spacing" textLength="12" x="355" y="350.5117">   </text><line style="stroke:#000000;stroke-width:1.0;" x1="350" x2="372" y1="355.4648" y2="355.4648"/><text fill="#000000" font-family="sans-serif" font-size="14" lengthAdjust="spacing" textLength="12" x="355" y="371">   </text><line style="stroke:#000000;stroke-width:1.0;" x1="350" x2="372" y1="375.9531" y2="375.9531"/><text fill="#000000" font-family="sans-serif" font-size="14" lengthAdjust="spacing" textLength="12" x="355" y="391.4883">   </text><line style="stroke:#000000;stroke-width:1.0;" x1="350" x2="372" y1="396.4414" y2="396.4414"/><text fill="#000000" font-family="sans-serif" font-size="14" lengthAdjust="spacing" textLength="12" x="355" y="411.9766">   </text><line style="stroke:#000000;stroke-width:1.0;" x1="350" x2="372" y1="416.9297" y2="416.9297"/><text fill="#000000" font-family="sans-serif" font-size="14" lengthAdjust="spacing" textLength="12" x="355" y="432.4648">   </text><line style="stroke:#000000;stroke-width:1.0;" x1="350" x2="372" y1="437.418" y2="437.418"/><text fill="#000000" font-family="sans-serif" font-size="14" lengthAdjust="spacing" textLength="12" x="355" y="452.9531">   </text><line style="stroke:#000000;stroke-width:1.0;" x1="350" x2="372" y1="457.9063" y2="457.9063"/><text fill="#000000" font-family="sans-serif" font-size="14" lengthAdjust="spacing" textLength="12" x="355" y="473.4414">   </text><line style="stroke:#000000;stroke-width:1.0;" x1="350" x2="372" y1="478.3945" y2="478.3945"/><text fill="#000000" font-family="sans-serif" font-size="14" lengthAdjust="spacing" textLength="12" x="355" y="493.9297">   </text><rect fill="none" height="204.8828" rx="5" ry="5" style="stroke:#000000;stroke-width:1.5;" width="22" x="350" y="294"/><rect fill="#F1F1F1" height="61.4648" rx="5" ry="5" style="stroke:#F1F1F1;stroke-width:1.5;" width="253" x="516" y="10"/><text fill="#000000" font-family="sans-serif" font-size="14" font-weight="bold" lengthAdjust="spacing" textLength="78" x="521" y="25.5352">field_value</text><text fill="#000000" font-family="sans-serif" font-size="14" lengthAdjust="spacing" textLength="9" x="625" y="25.5352">1</text><line style="stroke:#000000;stroke-width:1.0;" x1="620" x2="620" y1="10" y2="30.4883"/><line style="stroke:#000000;stroke-width:1.0;" x1="516" x2="769" y1="30.4883" y2="30.4883"/><text fill="#000000" font-family="sans-serif" font-size="14" font-weight="bold" lengthAdjust="spacing" textLength="74" x="521" y="46.0234">row_count</text><text fill="#000000" font-family="sans-serif" font-size="14" lengthAdjust="spacing" textLength="45" x="625" y="46.0234">74954</text><line style="stroke:#000000;stroke-width:1.0;" x1="620" x2="620" y1="30.4883" y2="50.9766"/><line style="stroke:#000000;stroke-width:1.0;" x1="516" x2="769" y1="50.9766" y2="50.9766"/><text fill="#000000" font-family="sans-serif" font-size="14" font-weight="bold" lengthAdjust="spacing" textLength="94" x="521" y="66.5117">ratio_percent</text><text fill="#000000" font-family="sans-serif" font-size="14" lengthAdjust="spacing" textLength="139" x="625" y="66.5117">61.7835917472407</text><line style="stroke:#000000;stroke-width:1.0;" x1="620" x2="620" y1="50.9766" y2="71.4648"/><rect fill="none" height="61.4648" rx="5" ry="5" style="stroke:#000000;stroke-width:1.5;" width="253" x="516" y="10"/><rect fill="#F1F1F1" height="61.4648" rx="5" ry="5" style="stroke:#F1F1F1;stroke-width:1.5;" width="262" x="511.5" y="89"/><text fill="#000000" font-family="sans-serif" font-size="14" font-weight="bold" lengthAdjust="spacing" textLength="78" x="516.5" y="104.5352">field_value</text><text fill="#000000" font-family="sans-serif" font-size="14" lengthAdjust="spacing" textLength="9" x="620.5" y="104.5352">2</text><line style="stroke:#000000;stroke-width:1.0;" x1="615.5" x2="615.5" y1="89" y2="109.4883"/><line style="stroke:#000000;stroke-width:1.0;" x1="511.5" x2="773.5" y1="109.4883" y2="109.4883"/><text fill="#000000" font-family="sans-serif" font-size="14" font-weight="bold" lengthAdjust="spacing" textLength="74" x="516.5" y="125.0234">row_count</text><text fill="#000000" font-family="sans-serif" font-size="14" lengthAdjust="spacing" textLength="45" x="620.5" y="125.0234">14200</text><line style="stroke:#000000;stroke-width:1.0;" x1="615.5" x2="615.5" y1="109.4883" y2="129.9766"/><line style="stroke:#000000;stroke-width:1.0;" x1="511.5" x2="773.5" y1="129.9766" y2="129.9766"/><text fill="#000000" font-family="sans-serif" font-size="14" font-weight="bold" lengthAdjust="spacing" textLength="94" x="516.5" y="145.5117">ratio_percent</text><text fill="#000000" font-family="sans-serif" font-size="14" lengthAdjust="spacing" textLength="148" x="620.5" y="145.5117">11.70487235919121</text><line style="stroke:#000000;stroke-width:1.0;" x1="615.5" x2="615.5" y1="129.9766" y2="150.4648"/><rect fill="none" height="61.4648" rx="5" ry="5" style="stroke:#000000;stroke-width:1.5;" width="262" x="511.5" y="89"/><rect fill="#F1F1F1" height="61.4648" rx="5" ry="5" style="stroke:#F1F1F1;stroke-width:1.5;" width="262" x="511.5" y="168"/><text fill="#000000" font-family="sans-serif" font-size="14" font-weight="bold" lengthAdjust="spacing" textLength="78" x="516.5" y="183.5352">field_value</text><text fill="#000000" font-family="sans-serif" font-size="14" lengthAdjust="spacing" textLength="9" x="620.5" y="183.5352">3</text><line style="stroke:#000000;stroke-width:1.0;" x1="615.5" x2="615.5" y1="168" y2="188.4883"/><line style="stroke:#000000;stroke-width:1.0;" x1="511.5" x2="773.5" y1="188.4883" y2="188.4883"/><text fill="#000000" font-family="sans-serif" font-size="14" font-weight="bold" lengthAdjust="spacing" textLength="74" x="516.5" y="204.0234">row_count</text><text fill="#000000" font-family="sans-serif" font-size="14" lengthAdjust="spacing" textLength="45" x="620.5" y="204.0234">10058</text><line style="stroke:#000000;stroke-width:1.0;" x1="615.5" x2="615.5" y1="188.4883" y2="208.9766"/><line style="stroke:#000000;stroke-width:1.0;" x1="511.5" x2="773.5" y1="208.9766" y2="208.9766"/><text fill="#000000" font-family="sans-serif" font-size="14" font-weight="bold" lengthAdjust="spacing" textLength="94" x="516.5" y="224.5117">ratio_percent</text><text fill="#000000" font-family="sans-serif" font-size="14" lengthAdjust="spacing" textLength="148" x="620.5" y="224.5117">8.290676492165154</text><line style="stroke:#000000;stroke-width:1.0;" x1="615.5" x2="615.5" y1="208.9766" y2="229.4648"/><rect fill="none" height="61.4648" rx="5" ry="5" style="stroke:#000000;stroke-width:1.5;" width="262" x="511.5" y="168"/><rect fill="#F1F1F1" height="61.4648" rx="5" ry="5" style="stroke:#F1F1F1;stroke-width:1.5;" width="262" x="511.5" y="247"/><text fill="#000000" font-family="sans-serif" font-size="14" font-weight="bold" lengthAdjust="spacing" textLength="78" x="516.5" y="262.5352">field_value</text><text fill="#000000" font-family="sans-serif" font-size="14" lengthAdjust="spacing" textLength="9" x="620.5" y="262.5352">4</text><line style="stroke:#000000;stroke-width:1.0;" x1="615.5" x2="615.5" y1="247" y2="267.4883"/><line style="stroke:#000000;stroke-width:1.0;" x1="511.5" x2="773.5" y1="267.4883" y2="267.4883"/><text fill="#000000" font-family="sans-serif" font-size="14" font-weight="bold" lengthAdjust="spacing" textLength="74" x="516.5" y="283.0234">row_count</text><text fill="#000000" font-family="sans-serif" font-size="14" lengthAdjust="spacing" textLength="36" x="620.5" y="283.0234">7494</text><line style="stroke:#000000;stroke-width:1.0;" x1="615.5" x2="615.5" y1="267.4883" y2="287.9766"/><line style="stroke:#000000;stroke-width:1.0;" x1="511.5" x2="773.5" y1="287.9766" y2="287.9766"/><text fill="#000000" font-family="sans-serif" font-size="14" font-weight="bold" lengthAdjust="spacing" textLength="94" x="516.5" y="303.5117">ratio_percent</text><text fill="#000000" font-family="sans-serif" font-size="14" lengthAdjust="spacing" textLength="148" x="620.5" y="303.5117">6.177205173223868</text><line style="stroke:#000000;stroke-width:1.0;" x1="615.5" x2="615.5" y1="287.9766" y2="308.4648"/><rect fill="none" height="61.4648" rx="5" ry="5" style="stroke:#000000;stroke-width:1.5;" width="262" x="511.5" y="247"/><rect fill="#F1F1F1" height="61.4648" rx="5" ry="5" style="stroke:#F1F1F1;stroke-width:1.5;" width="271" x="507" y="326"/><text fill="#000000" font-family="sans-serif" font-size="14" font-weight="bold" lengthAdjust="spacing" textLength="78" x="512" y="341.5352">field_value</text><text fill="#000000" font-family="sans-serif" font-size="14" lengthAdjust="spacing" textLength="9" x="616" y="341.5352">5</text><line style="stroke:#000000;stroke-width:1.0;" x1="611" x2="611" y1="326" y2="346.4883"/><line style="stroke:#000000;stroke-width:1.0;" x1="507" x2="778" y1="346.4883" y2="346.4883"/><text fill="#000000" font-family="sans-serif" font-size="14" font-weight="bold" lengthAdjust="spacing" textLength="74" x="512" y="362.0234">row_count</text><text fill="#000000" font-family="sans-serif" font-size="14" lengthAdjust="spacing" textLength="36" x="616" y="362.0234">4386</text><line style="stroke:#000000;stroke-width:1.0;" x1="611" x2="611" y1="346.4883" y2="366.9766"/><line style="stroke:#000000;stroke-width:1.0;" x1="507" x2="778" y1="366.9766" y2="366.9766"/><text fill="#000000" font-family="sans-serif" font-size="14" font-weight="bold" lengthAdjust="spacing" textLength="94" x="512" y="382.5117">ratio_percent</text><text fill="#000000" font-family="sans-serif" font-size="14" lengthAdjust="spacing" textLength="157" x="616" y="382.5117">3.6153218427755385</text><line style="stroke:#000000;stroke-width:1.0;" x1="611" x2="611" y1="366.9766" y2="387.4648"/><rect fill="none" height="61.4648" rx="5" ry="5" style="stroke:#000000;stroke-width:1.5;" width="271" x="507" y="326"/><rect fill="#F1F1F1" height="61.4648" rx="5" ry="5" style="stroke:#F1F1F1;stroke-width:1.5;" width="271" x="507" y="405"/><text fill="#000000" font-family="sans-serif" font-size="14" font-weight="bold" lengthAdjust="spacing" textLength="78" x="512" y="420.5352">field_value</text><text fill="#000000" font-family="sans-serif" font-size="14" lengthAdjust="spacing" textLength="9" x="616" y="420.5352">6</text><line style="stroke:#000000;stroke-width:1.0;" x1="611" x2="611" y1="405" y2="425.4883"/><line style="stroke:#000000;stroke-width:1.0;" x1="507" x2="778" y1="425.4883" y2="425.4883"/><text fill="#000000" font-family="sans-serif" font-size="14" font-weight="bold" lengthAdjust="spacing" textLength="74" x="512" y="441.0234">row_count</text><text fill="#000000" font-family="sans-serif" font-size="14" lengthAdjust="spacing" textLength="36" x="616" y="441.0234">3298</text><line style="stroke:#000000;stroke-width:1.0;" x1="611" x2="611" y1="425.4883" y2="445.9766"/><line style="stroke:#000000;stroke-width:1.0;" x1="507" x2="778" y1="445.9766" y2="445.9766"/><text fill="#000000" font-family="sans-serif" font-size="14" font-weight="bold" lengthAdjust="spacing" textLength="94" x="512" y="461.5117">ratio_percent</text><text fill="#000000" font-family="sans-serif" font-size="14" lengthAdjust="spacing" textLength="157" x="616" y="461.5117">2.7184978197614513</text><line style="stroke:#000000;stroke-width:1.0;" x1="611" x2="611" y1="445.9766" y2="466.4648"/><rect fill="none" height="61.4648" rx="5" ry="5" style="stroke:#000000;stroke-width:1.5;" width="271" x="507" y="405"/><rect fill="#F1F1F1" height="61.4648" rx="5" ry="5" style="stroke:#F1F1F1;stroke-width:1.5;" width="271" x="507" y="484"/><text fill="#000000" font-family="sans-serif" font-size="14" font-weight="bold" lengthAdjust="spacing" textLength="78" x="512" y="499.5352">field_value</text><text fill="#000000" font-family="sans-serif" font-size="14" lengthAdjust="spacing" textLength="9" x="616" y="499.5352">7</text><line style="stroke:#000000;stroke-width:1.0;" x1="611" x2="611" y1="484" y2="504.4883"/><line style="stroke:#000000;stroke-width:1.0;" x1="507" x2="778" y1="504.4883" y2="504.4883"/><text fill="#000000" font-family="sans-serif" font-size="14" font-weight="bold" lengthAdjust="spacing" textLength="74" x="512" y="520.0234">row_count</text><text fill="#000000" font-family="sans-serif" font-size="14" lengthAdjust="spacing" textLength="36" x="616" y="520.0234">1735</text><line style="stroke:#000000;stroke-width:1.0;" x1="611" x2="611" y1="504.4883" y2="524.9766"/><line style="stroke:#000000;stroke-width:1.0;" x1="507" x2="778" y1="524.9766" y2="524.9766"/><text fill="#000000" font-family="sans-serif" font-size="14" font-weight="bold" lengthAdjust="spacing" textLength="94" x="512" y="540.5117">ratio_percent</text><text fill="#000000" font-family="sans-serif" font-size="14" lengthAdjust="spacing" textLength="157" x="616" y="540.5117">1.4301375734645598</text><line style="stroke:#000000;stroke-width:1.0;" x1="611" x2="611" y1="524.9766" y2="545.4648"/><rect fill="none" height="61.4648" rx="5" ry="5" style="stroke:#000000;stroke-width:1.5;" width="271" x="507" y="484"/><rect fill="#F1F1F1" height="61.4648" rx="5" ry="5" style="stroke:#F1F1F1;stroke-width:1.5;" width="271" x="507" y="563"/><text fill="#000000" font-family="sans-serif" font-size="14" font-weight="bold" lengthAdjust="spacing" textLength="78" x="512" y="578.5352">field_value</text><text fill="#000000" font-family="sans-serif" font-size="14" lengthAdjust="spacing" textLength="9" x="616" y="578.5352">8</text><line style="stroke:#000000;stroke-width:1.0;" x1="611" x2="611" y1="563" y2="583.4883"/><line style="stroke:#000000;stroke-width:1.0;" x1="507" x2="778" y1="583.4883" y2="583.4883"/><text fill="#000000" font-family="sans-serif" font-size="14" font-weight="bold" lengthAdjust="spacing" textLength="74" x="512" y="599.0234">row_count</text><text fill="#000000" font-family="sans-serif" font-size="14" lengthAdjust="spacing" textLength="36" x="616" y="599.0234">1521</text><line style="stroke:#000000;stroke-width:1.0;" x1="611" x2="611" y1="583.4883" y2="603.9766"/><line style="stroke:#000000;stroke-width:1.0;" x1="507" x2="778" y1="603.9766" y2="603.9766"/><text fill="#000000" font-family="sans-serif" font-size="14" font-weight="bold" lengthAdjust="spacing" textLength="94" x="512" y="619.5117">ratio_percent</text><text fill="#000000" font-family="sans-serif" font-size="14" lengthAdjust="spacing" textLength="157" x="616" y="619.5117">1.2537402012908332</text><line style="stroke:#000000;stroke-width:1.0;" x1="611" x2="611" y1="603.9766" y2="624.4648"/><rect fill="none" height="61.4648" rx="5" ry="5" style="stroke:#000000;stroke-width:1.5;" width="271" x="507" y="563"/><rect fill="#F1F1F1" height="61.4648" rx="5" ry="5" style="stroke:#F1F1F1;stroke-width:1.5;" width="271" x="507" y="642"/><text fill="#000000" font-family="sans-serif" font-size="14" font-weight="bold" lengthAdjust="spacing" textLength="78" x="512" y="657.5352">field_value</text><text fill="#000000" font-family="sans-serif" font-size="14" lengthAdjust="spacing" textLength="9" x="616" y="657.5352">9</text><line style="stroke:#000000;stroke-width:1.0;" x1="611" x2="611" y1="642" y2="662.4883"/><line style="stroke:#000000;stroke-width:1.0;" x1="507" x2="778" y1="662.4883" y2="662.4883"/><text fill="#000000" font-family="sans-serif" font-size="14" font-weight="bold" lengthAdjust="spacing" textLength="74" x="512" y="678.0234">row_count</text><text fill="#000000" font-family="sans-serif" font-size="14" lengthAdjust="spacing" textLength="27" x="616" y="678.0234">837</text><line style="stroke:#000000;stroke-width:1.0;" x1="611" x2="611" y1="662.4883" y2="682.9766"/><line style="stroke:#000000;stroke-width:1.0;" x1="507" x2="778" y1="682.9766" y2="682.9766"/><text fill="#000000" font-family="sans-serif" font-size="14" font-weight="bold" lengthAdjust="spacing" textLength="94" x="512" y="698.5117">ratio_percent</text><text fill="#000000" font-family="sans-serif" font-size="14" lengthAdjust="spacing" textLength="157" x="616" y="698.5117">0.6899280397635945</text><line style="stroke:#000000;stroke-width:1.0;" x1="611" x2="611" y1="682.9766" y2="703.4648"/><rect fill="none" height="61.4648" rx="5" ry="5" style="stroke:#000000;stroke-width:1.5;" width="271" x="507" y="642"/><rect fill="#F1F1F1" height="61.4648" rx="5" ry="5" style="stroke:#F1F1F1;stroke-width:1.5;" width="271" x="507" y="721"/><text fill="#000000" font-family="sans-serif" font-size="14" font-weight="bold" lengthAdjust="spacing" textLength="78" x="512" y="736.5352">field_value</text><text fill="#000000" font-family="sans-serif" font-size="14" lengthAdjust="spacing" textLength="18" x="616" y="736.5352">10</text><line style="stroke:#000000;stroke-width:1.0;" x1="611" x2="611" y1="721" y2="741.4883"/><line style="stroke:#000000;stroke-width:1.0;" x1="507" x2="778" y1="741.4883" y2="741.4883"/><text fill="#000000" font-family="sans-serif" font-size="14" font-weight="bold" lengthAdjust="spacing" textLength="74" x="512" y="757.0234">row_count</text><text fill="#000000" font-family="sans-serif" font-size="14" lengthAdjust="spacing" textLength="27" x="616" y="757.0234">768</text><line style="stroke:#000000;stroke-width:1.0;" x1="611" x2="611" y1="741.4883" y2="761.9766"/><line style="stroke:#000000;stroke-width:1.0;" x1="507" x2="778" y1="761.9766" y2="761.9766"/><text fill="#000000" font-family="sans-serif" font-size="14" font-weight="bold" lengthAdjust="spacing" textLength="94" x="512" y="777.5117">ratio_percent</text><text fill="#000000" font-family="sans-serif" font-size="14" lengthAdjust="spacing" textLength="157" x="616" y="777.5117">0.6330522515393556</text><line style="stroke:#000000;stroke-width:1.0;" x1="611" x2="611" y1="761.9766" y2="782.4648"/><rect fill="none" height="61.4648" rx="5" ry="5" style="stroke:#000000;stroke-width:1.5;" width="271" x="507" y="721"/><path d="M205,315.5 L218,315.5 C238.8273,315.5 235.5595,295.1812 254,285.5 C258.4954,283.14 263.1967,280.9488 268.0148,278.9165 " fill="none" style="stroke:#000000;stroke-width:1.0;stroke-dasharray:3.0,3.0;"/><path d="M269.1607,281.7694 L270.1544,278.0571 L266.8689,276.0637 L275.147,276.0517 L269.1607,281.7694 " fill="#000000" style="stroke:#000000;stroke-width:1.0;"/><ellipse cx="205" cy="315.5" fill="#000000" rx="3" ry="3" style="stroke:#000000;stroke-width:1.0;"/><path d="M362.5,303.5 L375.5,303.5 C418.6918,303.5 440.6623,316.2434 471,285.5 C536.2827,219.3442 444.93,148.679 507,79.5 C508.1583,78.2091 509.3563,76.9597 510.5911,75.7507 " fill="none" style="stroke:#000000;stroke-width:1.0;stroke-dasharray:3.0,3.0;"/><path d="M512.6098,78.0064 L512.2829,74.2367 L508.5723,73.495 L516.2303,70.7039 L512.6098,78.0064 " fill="#000000" style="stroke:#000000;stroke-width:1.0;"/><ellipse cx="362.5" cy="303.5" fill="#000000" rx="3" ry="3" style="stroke:#000000;stroke-width:1.0;"/><path d="M362.5,324.5 L375.5,324.5 C421.3473,324.5 440.4377,319.6748 471,285.5 C510.109,241.7683 465.6193,200.0887 507,158.5 C508.2233,157.2705 509.4828,156.0793 510.7755,154.925 " fill="none" style="stroke:#000000;stroke-width:1.0;stroke-dasharray:3.0,3.0;"/><path d="M512.7064,157.2737 L512.537,153.4769 L508.8447,152.5764 L516.6472,150.0978 L512.7064,157.2737 " fill="#000000" style="stroke:#000000;stroke-width:1.0;"/><ellipse cx="362.5" cy="324.5" fill="#000000" rx="3" ry="3" style="stroke:#000000;stroke-width:1.0;"/><path d="M362.5,344.5 L375.5,344.5 C425.3912,344.5 434.1687,319.154 471,285.5 C490.6862,267.5121 485.0554,252.6508 507,237.5 C509.3464,235.88 511.7599,234.3267 514.2295,232.8373 " fill="none" style="stroke:#000000;stroke-width:1.0;stroke-dasharray:3.0,3.0;"/><path d="M515.7476,235.5016 L516.2277,231.6987 L512.7115,230.173 L520.8903,229.0421 L515.7476,235.5016 " fill="#000000" style="stroke:#000000;stroke-width:1.0;"/><ellipse cx="362.5" cy="344.5" fill="#000000" rx="3" ry="3" style="stroke:#000000;stroke-width:1.0;"/><path d="M362.5,365.5 L375.5,365.5 C437.7163,365.5 447.923,337.0135 507,317.5 C514.1375,315.1425 521.508,312.7741 528.9528,310.4317 " fill="none" style="stroke:#000000;stroke-width:1.0;stroke-dasharray:3.0,3.0;"/><path d="M529.8858,313.4171 L531.1919,309.7319 L528.0198,307.4463 L536.4164,308.0992 L529.8858,313.4171 " fill="#000000" style="stroke:#000000;stroke-width:1.0;"/><ellipse cx="362.5" cy="365.5" fill="#000000" rx="3" ry="3" style="stroke:#000000;stroke-width:1.0;"/><path d="M362.5,385.5 L375.5,385.5 C415.8593,385.5 459.456,382.1723 499.4656,377.7714 " fill="none" style="stroke:#000000;stroke-width:1.0;stroke-dasharray:3.0,3.0;"/><path d="M499.8232,380.9522 L501.8512,377.5032 L499.1081,374.5906 L507.4177,376.8776 L499.8232,380.9522 " fill="#000000" style="stroke:#000000;stroke-width:1.0;"/><ellipse cx="362.5" cy="385.5" fill="#000000" rx="3" ry="3" style="stroke:#000000;stroke-width:1.0;"/><path d="M362.5,406.5 L375.5,406.5 C415.8593,406.5 459.456,409.8277 499.4656,414.2286 " fill="none" style="stroke:#000000;stroke-width:1.0;stroke-dasharray:3.0,3.0;"/><path d="M499.1081,417.4094 L501.8512,414.4968 L499.8232,411.0478 L507.4177,415.1224 L499.1081,417.4094 " fill="#000000" style="stroke:#000000;stroke-width:1.0;"/><ellipse cx="362.5" cy="406.5" fill="#000000" rx="3" ry="3" style="stroke:#000000;stroke-width:1.0;"/><path d="M362.5,427.5 L375.5,427.5 C437.7163,427.5 447.8568,456.1882 507,475.5 C513.3866,477.5854 519.9613,479.6734 526.6099,481.7394 " fill="none" style="stroke:#000000;stroke-width:1.0;stroke-dasharray:3.0,3.0;"/><path d="M525.7171,484.6346 L528.7812,482.409 L527.5027,478.8442 L533.8478,483.9714 L525.7171,484.6346 " fill="#000000" style="stroke:#000000;stroke-width:1.0;"/><ellipse cx="362.5" cy="427.5" fill="#000000" rx="3" ry="3" style="stroke:#000000;stroke-width:1.0;"/><path d="M362.5,447.5 L375.5,447.5 C450.8478,447.5 440.2413,519.5636 507,554.5 C510.4905,556.3267 514.0778,558.078 517.7358,559.7564 " fill="none" style="stroke:#000000;stroke-width:1.0;stroke-dasharray:3.0,3.0;"/><path d="M516.4805,562.6024 L519.8703,560.6978 L518.991,556.9104 L524.8507,562.8945 L516.4805,562.6024 " fill="#000000" style="stroke:#000000;stroke-width:1.0;"/><ellipse cx="362.5" cy="447.5" fill="#000000" rx="3" ry="3" style="stroke:#000000;stroke-width:1.0;"/><path d="M362.5,468.5 L375.5,468.5 C469.2738,468.5 429.057,581.3615 507,633.5 C509.4238,635.1213 511.9155,636.6763 514.4636,638.1676 " fill="none" style="stroke:#000000;stroke-width:1.0;stroke-dasharray:3.0,3.0;"/><path d="M512.9435,640.915 L516.5242,639.3077 L515.9838,635.4201 L521.3322,641.968 L512.9435,640.915 " fill="#000000" style="stroke:#000000;stroke-width:1.0;"/><ellipse cx="362.5" cy="468.5" fill="#000000" rx="3" ry="3" style="stroke:#000000;stroke-width:1.0;"/><path d="M362.5,488.5 L375.5,488.5 C490.9429,488.5 415.8429,641.6661 507,712.5 C508.806,713.9033 510.6607,715.2562 512.5583,716.5604 " fill="none" style="stroke:#000000;stroke-width:1.0;stroke-dasharray:3.0,3.0;"/><path d="M510.8585,719.2035 L514.5406,717.8352 L514.258,713.9173 L519.166,720.8098 L510.8585,719.2035 " fill="#000000" style="stroke:#000000;stroke-width:1.0;"/><ellipse cx="362.5" cy="488.5" fill="#000000" rx="3" ry="3" style="stroke:#000000;stroke-width:1.0;"/><path d="M205,336.5 L218,336.5 C266.5847,336.5 317.7595,366.1373 343.8849,383.7526 " fill="none" style="stroke:#000000;stroke-width:1.0;stroke-dasharray:3.0,3.0;"/><path d="M342.123,386.3062 L345.8001,385.074 L345.6468,381.199 L350.2689,388.1573 L342.123,386.3062 " fill="#000000" style="stroke:#000000;stroke-width:1.0;"/><ellipse cx="205" cy="336.5" fill="#000000" rx="3" ry="3" style="stroke:#000000;stroke-width:1.0;"/><!--MD5=[b359dfccc643c587688011b4c8540d2a]
@startjson
{
    "field1": "OrderQty",
    "combination": "OrderQty",
    "null_distribution": {
        "total_null_rows": 0,
        "total_not_null_rows": 121317
    },
    "data_distribution": [
        {
            "field_value": "1",
            "row_count": 74954,
            "ratio_percent": 61.7835917472407
        },
        {
            "field_value": "2",
            "row_count": 14200,
            "ratio_percent": 11.70487235919121
        },
        {
            "field_value": "3",
            "row_count": 10058,
            "ratio_percent": 8.290676492165154
        },
        {
            "field_value": "4",
            "row_count": 7494,
            "ratio_percent": 6.177205173223868
        },
        {
            "field_value": "5",
            "row_count": 4386,
            "ratio_percent": 3.6153218427755385
        },
        {
            "field_value": "6",
            "row_count": 3298,
            "ratio_percent": 2.7184978197614513
        },
        {
            "field_value": "7",
            "row_count": 1735,
            "ratio_percent": 1.4301375734645598
        },
        {
            "field_value": "8",
            "row_count": 1521,
            "ratio_percent": 1.2537402012908332
        },
        {
            "field_value": "9",
            "row_count": 837,
            "ratio_percent": 0.6899280397635945
        },
        {
            "field_value": "10",
            "row_count": 768,
            "ratio_percent": 0.6330522515393556
        }
    ]
}
@endjson

PlantUML version 1.2022.5(Sat Apr 30 06:55:52 EDT 2022)
(GPL source distribution)
Java Runtime: OpenJDK Runtime Environment
JVM: OpenJDK 64-Bit Server VM
Default Encoding: UTF-8
Language: en
Country: CA
--></g></svg>