<?xml version="1.0" encoding="UTF-8" standalone="no"?><svg xmlns="http://www.w3.org/2000/svg" xmlns:xlink="http://www.w3.org/1999/xlink" contentStyleType="text/css" height="636px" preserveAspectRatio="none" style="width:752px;height:636px;background:#FFFFFF;" version="1.1" viewBox="0 0 752 636" width="752px" zoomAndPan="magnify"><defs/><g><rect fill="#F1F1F1" height="81.9531" rx="5" ry="5" style="stroke:#F1F1F1;stroke-width:1.5;" width="207" x="10" y="195.5"/><text fill="#000000" font-family="sans-serif" font-size="14" font-weight="bold" lengthAdjust="spacing" textLength="42" x="15" y="211.0352">field1</text><text fill="#000000" font-family="sans-serif" font-size="14" lengthAdjust="spacing" textLength="63" x="149" y="211.0352">StartDate</text><line style="stroke:#000000;stroke-width:1.0;" x1="144" x2="144" y1="195.5" y2="215.9883"/><line style="stroke:#000000;stroke-width:1.0;" x1="10" x2="217" y1="215.9883" y2="215.9883"/><text fill="#000000" font-family="sans-serif" font-size="14" font-weight="bold" lengthAdjust="spacing" textLength="90" x="15" y="231.5234">combination</text><text fill="#000000" font-family="sans-serif" font-size="14" lengthAdjust="spacing" textLength="63" x="149" y="231.5234">StartDate</text><line style="stroke:#000000;stroke-width:1.0;" x1="144" x2="144" y1="215.9883" y2="236.4766"/><line style="stroke:#000000;stroke-width:1.0;" x1="10" x2="217" y1="236.4766" y2="236.4766"/><text fill="#000000" font-family="sans-serif" font-size="14" font-weight="bold" lengthAdjust="spacing" textLength="121" x="15" y="252.0117">null_distribution</text><text fill="#000000" font-family="sans-serif" font-size="14" lengthAdjust="spacing" textLength="12" x="149" y="252.0117">   </text><line style="stroke:#000000;stroke-width:1.0;" x1="144" x2="144" y1="236.4766" y2="256.9648"/><line style="stroke:#000000;stroke-width:1.0;" x1="10" x2="217" y1="256.9648" y2="256.9648"/><text fill="#000000" font-family="sans-serif" font-size="14" font-weight="bold" lengthAdjust="spacing" textLength="124" x="15" y="272.5">data_distribution</text><text fill="#000000" font-family="sans-serif" font-size="14" lengthAdjust="spacing" textLength="12" x="149" y="272.5">   </text><line style="stroke:#000000;stroke-width:1.0;" x1="144" x2="144" y1="256.9648" y2="277.4531"/><rect fill="none" height="81.9531" rx="5" ry="5" style="stroke:#000000;stroke-width:1.5;" width="207" x="10" y="195.5"/><rect fill="#F1F1F1" height="40.9766" rx="5" ry="5" style="stroke:#F1F1F1;stroke-width:1.5;" width="180" x="254" y="176"/><text fill="#000000" font-family="sans-serif" font-size="14" font-weight="bold" lengthAdjust="spacing" textLength="111" x="259" y="191.5352">total_null_rows</text><text fill="#000000" font-family="sans-serif" font-size="14" lengthAdjust="spacing" textLength="9" x="411" y="191.5352">0</text><line style="stroke:#000000;stroke-width:1.0;" x1="406" x2="406" y1="176" y2="196.4883"/><line style="stroke:#000000;stroke-width:1.0;" x1="254" x2="434" y1="196.4883" y2="196.4883"/><text fill="#000000" font-family="sans-serif" font-size="14" font-weight="bold" lengthAdjust="spacing" textLength="142" x="259" y="212.0234">total_not_null_rows</text><text fill="#000000" font-family="sans-serif" font-size="14" lengthAdjust="spacing" textLength="18" x="411" y="212.0234">16</text><line style="stroke:#000000;stroke-width:1.0;" x1="406" x2="406" y1="196.4883" y2="216.9766"/><rect fill="none" height="40.9766" rx="5" ry="5" style="stroke:#000000;stroke-width:1.5;" width="180" x="254" y="176"/><rect fill="#F1F1F1" height="163.9063" rx="5" ry="5" style="stroke:#F1F1F1;stroke-width:1.5;" width="22" x="332" y="235.5"/><text fill="#000000" font-family="sans-serif" font-size="14" lengthAdjust="spacing" textLength="12" x="337" y="251.0352">   </text><line style="stroke:#000000;stroke-width:1.0;" x1="332" x2="354" y1="255.9883" y2="255.9883"/><text fill="#000000" font-family="sans-serif" font-size="14" lengthAdjust="spacing" textLength="12" x="337" y="271.5234">   </text><line style="stroke:#000000;stroke-width:1.0;" x1="332" x2="354" y1="276.4766" y2="276.4766"/><text fill="#000000" font-family="sans-serif" font-size="14" lengthAdjust="spacing" textLength="12" x="337" y="292.0117">   </text><line style="stroke:#000000;stroke-width:1.0;" x1="332" x2="354" y1="296.9648" y2="296.9648"/><text fill="#000000" font-family="sans-serif" font-size="14" lengthAdjust="spacing" textLength="12" x="337" y="312.5">   </text><line style="stroke:#000000;stroke-width:1.0;" x1="332" x2="354" y1="317.4531" y2="317.4531"/><text fill="#000000" font-family="sans-serif" font-size="14" lengthAdjust="spacing" textLength="12" x="337" y="332.9883">   </text><line style="stroke:#000000;stroke-width:1.0;" x1="332" x2="354" y1="337.9414" y2="337.9414"/><text fill="#000000" font-family="sans-serif" font-size="14" lengthAdjust="spacing" textLength="12" x="337" y="353.4766">   </text><line style="stroke:#000000;stroke-width:1.0;" x1="332" x2="354" y1="358.4297" y2="358.4297"/><text fill="#000000" font-family="sans-serif" font-size="14" lengthAdjust="spacing" textLength="12" x="337" y="373.9648">   </text><line style="stroke:#000000;stroke-width:1.0;" x1="332" x2="354" y1="378.918" y2="378.918"/><text fill="#000000" font-family="sans-serif" font-size="14" lengthAdjust="spacing" textLength="12" x="337" y="394.4531">   </text><rect fill="none" height="163.9063" rx="5" ry="5" style="stroke:#000000;stroke-width:1.5;" width="22" x="332" y="235.5"/><rect fill="#F1F1F1" height="61.4648" rx="5" ry="5" style="stroke:#F1F1F1;stroke-width:1.5;" width="269" x="471" y="10"/><text fill="#000000" font-family="sans-serif" font-size="14" font-weight="bold" lengthAdjust="spacing" textLength="78" x="476" y="25.5352">field_value</text><text fill="#000000" font-family="sans-serif" font-size="14" lengthAdjust="spacing" textLength="155" x="580" y="25.5352">May 31 2011 12:00AM</text><line style="stroke:#000000;stroke-width:1.0;" x1="575" x2="575" y1="10" y2="30.4883"/><line style="stroke:#000000;stroke-width:1.0;" x1="471" x2="740" y1="30.4883" y2="30.4883"/><text fill="#000000" font-family="sans-serif" font-size="14" font-weight="bold" lengthAdjust="spacing" textLength="74" x="476" y="46.0234">row_count</text><text fill="#000000" font-family="sans-serif" font-size="14" lengthAdjust="spacing" textLength="9" x="580" y="46.0234">5</text><line style="stroke:#000000;stroke-width:1.0;" x1="575" x2="575" y1="30.4883" y2="50.9766"/><line style="stroke:#000000;stroke-width:1.0;" x1="471" x2="740" y1="50.9766" y2="50.9766"/><text fill="#000000" font-family="sans-serif" font-size="14" font-weight="bold" lengthAdjust="spacing" textLength="94" x="476" y="66.5117">ratio_percent</text><text fill="#000000" font-family="sans-serif" font-size="14" lengthAdjust="spacing" textLength="40" x="580" y="66.5117">31.25</text><line style="stroke:#000000;stroke-width:1.0;" x1="575" x2="575" y1="50.9766" y2="71.4648"/><rect fill="none" height="61.4648" rx="5" ry="5" style="stroke:#000000;stroke-width:1.5;" width="269" x="471" y="10"/><rect fill="#F1F1F1" height="61.4648" rx="5" ry="5" style="stroke:#F1F1F1;stroke-width:1.5;" width="269" x="471" y="89"/><text fill="#000000" font-family="sans-serif" font-size="14" font-weight="bold" lengthAdjust="spacing" textLength="78" x="476" y="104.5352">field_value</text><text fill="#000000" font-family="sans-serif" font-size="14" lengthAdjust="spacing" textLength="155" x="580" y="104.5352">May 30 2013 12:00AM</text><line style="stroke:#000000;stroke-width:1.0;" x1="575" x2="575" y1="89" y2="109.4883"/><line style="stroke:#000000;stroke-width:1.0;" x1="471" x2="740" y1="109.4883" y2="109.4883"/><text fill="#000000" font-family="sans-serif" font-size="14" font-weight="bold" lengthAdjust="spacing" textLength="74" x="476" y="125.0234">row_count</text><text fill="#000000" font-family="sans-serif" font-size="14" lengthAdjust="spacing" textLength="9" x="580" y="125.0234">4</text><line style="stroke:#000000;stroke-width:1.0;" x1="575" x2="575" y1="109.4883" y2="129.9766"/><line style="stroke:#000000;stroke-width:1.0;" x1="471" x2="740" y1="129.9766" y2="129.9766"/><text fill="#000000" font-family="sans-serif" font-size="14" font-weight="bold" lengthAdjust="spacing" textLength="94" x="476" y="145.5117">ratio_percent</text><text fill="#000000" font-family="sans-serif" font-size="14" lengthAdjust="spacing" textLength="31" x="580" y="145.5117">25.0</text><line style="stroke:#000000;stroke-width:1.0;" x1="575" x2="575" y1="129.9766" y2="150.4648"/><rect fill="none" height="61.4648" rx="5" ry="5" style="stroke:#000000;stroke-width:1.5;" width="269" x="471" y="89"/><rect fill="#F1F1F1" height="61.4648" rx="5" ry="5" style="stroke:#F1F1F1;stroke-width:1.5;" width="269" x="471" y="168"/><text fill="#000000" font-family="sans-serif" font-size="14" font-weight="bold" lengthAdjust="spacing" textLength="78" x="476" y="183.5352">field_value</text><text fill="#000000" font-family="sans-serif" font-size="14" lengthAdjust="spacing" textLength="155" x="580" y="183.5352">May 30 2012 12:00AM</text><line style="stroke:#000000;stroke-width:1.0;" x1="575" x2="575" y1="168" y2="188.4883"/><line style="stroke:#000000;stroke-width:1.0;" x1="471" x2="740" y1="188.4883" y2="188.4883"/><text fill="#000000" font-family="sans-serif" font-size="14" font-weight="bold" lengthAdjust="spacing" textLength="74" x="476" y="204.0234">row_count</text><text fill="#000000" font-family="sans-serif" font-size="14" lengthAdjust="spacing" textLength="9" x="580" y="204.0234">2</text><line style="stroke:#000000;stroke-width:1.0;" x1="575" x2="575" y1="188.4883" y2="208.9766"/><line style="stroke:#000000;stroke-width:1.0;" x1="471" x2="740" y1="208.9766" y2="208.9766"/><text fill="#000000" font-family="sans-serif" font-size="14" font-weight="bold" lengthAdjust="spacing" textLength="94" x="476" y="224.5117">ratio_percent</text><text fill="#000000" font-family="sans-serif" font-size="14" lengthAdjust="spacing" textLength="31" x="580" y="224.5117">12.5</text><line style="stroke:#000000;stroke-width:1.0;" x1="575" x2="575" y1="208.9766" y2="229.4648"/><rect fill="none" height="61.4648" rx="5" ry="5" style="stroke:#000000;stroke-width:1.5;" width="269" x="471" y="168"/><rect fill="#F1F1F1" height="61.4648" rx="5" ry="5" style="stroke:#F1F1F1;stroke-width:1.5;" width="269" x="471" y="247"/><text fill="#000000" font-family="sans-serif" font-size="14" font-weight="bold" lengthAdjust="spacing" textLength="78" x="476" y="262.5352">field_value</text><text fill="#000000" font-family="sans-serif" font-size="14" lengthAdjust="spacing" textLength="155" x="580" y="262.5352">May 14 2013 12:00AM</text><line style="stroke:#000000;stroke-width:1.0;" x1="575" x2="575" y1="247" y2="267.4883"/><line style="stroke:#000000;stroke-width:1.0;" x1="471" x2="740" y1="267.4883" y2="267.4883"/><text fill="#000000" font-family="sans-serif" font-size="14" font-weight="bold" lengthAdjust="spacing" textLength="74" x="476" y="283.0234">row_count</text><text fill="#000000" font-family="sans-serif" font-size="14" lengthAdjust="spacing" textLength="9" x="580" y="283.0234">1</text><line style="stroke:#000000;stroke-width:1.0;" x1="575" x2="575" y1="267.4883" y2="287.9766"/><line style="stroke:#000000;stroke-width:1.0;" x1="471" x2="740" y1="287.9766" y2="287.9766"/><text fill="#000000" font-family="sans-serif" font-size="14" font-weight="bold" lengthAdjust="spacing" textLength="94" x="476" y="303.5117">ratio_percent</text><text fill="#000000" font-family="sans-serif" font-size="14" lengthAdjust="spacing" textLength="31" x="580" y="303.5117">6.25</text><line style="stroke:#000000;stroke-width:1.0;" x1="575" x2="575" y1="287.9766" y2="308.4648"/><rect fill="none" height="61.4648" rx="5" ry="5" style="stroke:#000000;stroke-width:1.5;" width="269" x="471" y="247"/><rect fill="#F1F1F1" height="61.4648" rx="5" ry="5" style="stroke:#F1F1F1;stroke-width:1.5;" width="264" x="473.5" y="326"/><text fill="#000000" font-family="sans-serif" font-size="14" font-weight="bold" lengthAdjust="spacing" textLength="78" x="478.5" y="341.5352">field_value</text><text fill="#000000" font-family="sans-serif" font-size="14" lengthAdjust="spacing" textLength="150" x="582.5" y="341.5352">May  1 2011 12:00AM</text><line style="stroke:#000000;stroke-width:1.0;" x1="577.5" x2="577.5" y1="326" y2="346.4883"/><line style="stroke:#000000;stroke-width:1.0;" x1="473.5" x2="737.5" y1="346.4883" y2="346.4883"/><text fill="#000000" font-family="sans-serif" font-size="14" font-weight="bold" lengthAdjust="spacing" textLength="74" x="478.5" y="362.0234">row_count</text><text fill="#000000" font-family="sans-serif" font-size="14" lengthAdjust="spacing" textLength="9" x="582.5" y="362.0234">1</text><line style="stroke:#000000;stroke-width:1.0;" x1="577.5" x2="577.5" y1="346.4883" y2="366.9766"/><line style="stroke:#000000;stroke-width:1.0;" x1="473.5" x2="737.5" y1="366.9766" y2="366.9766"/><text fill="#000000" font-family="sans-serif" font-size="14" font-weight="bold" lengthAdjust="spacing" textLength="94" x="478.5" y="382.5117">ratio_percent</text><text fill="#000000" font-family="sans-serif" font-size="14" lengthAdjust="spacing" textLength="31" x="582.5" y="382.5117">6.25</text><line style="stroke:#000000;stroke-width:1.0;" x1="577.5" x2="577.5" y1="366.9766" y2="387.4648"/><rect fill="none" height="61.4648" rx="5" ry="5" style="stroke:#000000;stroke-width:1.5;" width="264" x="473.5" y="326"/><rect fill="#F1F1F1" height="61.4648" rx="5" ry="5" style="stroke:#F1F1F1;stroke-width:1.5;" width="268" x="471.5" y="405"/><text fill="#000000" font-family="sans-serif" font-size="14" font-weight="bold" lengthAdjust="spacing" textLength="78" x="476.5" y="420.5352">field_value</text><text fill="#000000" font-family="sans-serif" font-size="14" lengthAdjust="spacing" textLength="154" x="580.5" y="420.5352">Mar 31 2014 12:00AM</text><line style="stroke:#000000;stroke-width:1.0;" x1="575.5" x2="575.5" y1="405" y2="425.4883"/><line style="stroke:#000000;stroke-width:1.0;" x1="471.5" x2="739.5" y1="425.4883" y2="425.4883"/><text fill="#000000" font-family="sans-serif" font-size="14" font-weight="bold" lengthAdjust="spacing" textLength="74" x="476.5" y="441.0234">row_count</text><text fill="#000000" font-family="sans-serif" font-size="14" lengthAdjust="spacing" textLength="9" x="580.5" y="441.0234">1</text><line style="stroke:#000000;stroke-width:1.0;" x1="575.5" x2="575.5" y1="425.4883" y2="445.9766"/><line style="stroke:#000000;stroke-width:1.0;" x1="471.5" x2="739.5" y1="445.9766" y2="445.9766"/><text fill="#000000" font-family="sans-serif" font-size="14" font-weight="bold" lengthAdjust="spacing" textLength="94" x="476.5" y="461.5117">ratio_percent</text><text fill="#000000" font-family="sans-serif" font-size="14" lengthAdjust="spacing" textLength="31" x="580.5" y="461.5117">6.25</text><line style="stroke:#000000;stroke-width:1.0;" x1="575.5" x2="575.5" y1="445.9766" y2="466.4648"/><rect fill="none" height="61.4648" rx="5" ry="5" style="stroke:#000000;stroke-width:1.5;" width="268" x="471.5" y="405"/><rect fill="#F1F1F1" height="61.4648" rx="5" ry="5" style="stroke:#F1F1F1;stroke-width:1.5;" width="259" x="476" y="484"/><text fill="#000000" font-family="sans-serif" font-size="14" font-weight="bold" lengthAdjust="spacing" textLength="78" x="481" y="499.5352">field_value</text><text fill="#000000" font-family="sans-serif" font-size="14" lengthAdjust="spacing" textLength="145" x="585" y="499.5352">Jul 14 2013 12:00AM</text><line style="stroke:#000000;stroke-width:1.0;" x1="580" x2="580" y1="484" y2="504.4883"/><line style="stroke:#000000;stroke-width:1.0;" x1="476" x2="735" y1="504.4883" y2="504.4883"/><text fill="#000000" font-family="sans-serif" font-size="14" font-weight="bold" lengthAdjust="spacing" textLength="74" x="481" y="520.0234">row_count</text><text fill="#000000" font-family="sans-serif" font-size="14" lengthAdjust="spacing" textLength="9" x="585" y="520.0234">1</text><line style="stroke:#000000;stroke-width:1.0;" x1="580" x2="580" y1="504.4883" y2="524.9766"/><line style="stroke:#000000;stroke-width:1.0;" x1="476" x2="735" y1="524.9766" y2="524.9766"/><text fill="#000000" font-family="sans-serif" font-size="14" font-weight="bold" lengthAdjust="spacing" textLength="94" x="481" y="540.5117">ratio_percent</text><text fill="#000000" font-family="sans-serif" font-size="14" lengthAdjust="spacing" textLength="31" x="585" y="540.5117">6.25</text><line style="stroke:#000000;stroke-width:1.0;" x1="580" x2="580" y1="524.9766" y2="545.4648"/><rect fill="none" height="61.4648" rx="5" ry="5" style="stroke:#000000;stroke-width:1.5;" width="259" x="476" y="484"/><rect fill="#F1F1F1" height="61.4648" rx="5" ry="5" style="stroke:#F1F1F1;stroke-width:1.5;" width="267" x="472" y="563"/><text fill="#000000" font-family="sans-serif" font-size="14" font-weight="bold" lengthAdjust="spacing" textLength="78" x="477" y="578.5352">field_value</text><text fill="#000000" font-family="sans-serif" font-size="14" lengthAdjust="spacing" textLength="153" x="581" y="578.5352">Apr 13 2012 12:00AM</text><line style="stroke:#000000;stroke-width:1.0;" x1="576" x2="576" y1="563" y2="583.4883"/><line style="stroke:#000000;stroke-width:1.0;" x1="472" x2="739" y1="583.4883" y2="583.4883"/><text fill="#000000" font-family="sans-serif" font-size="14" font-weight="bold" lengthAdjust="spacing" textLength="74" x="477" y="599.0234">row_count</text><text fill="#000000" font-family="sans-serif" font-size="14" lengthAdjust="spacing" textLength="9" x="581" y="599.0234">1</text><line style="stroke:#000000;stroke-width:1.0;" x1="576" x2="576" y1="583.4883" y2="603.9766"/><line style="stroke:#000000;stroke-width:1.0;" x1="472" x2="739" y1="603.9766" y2="603.9766"/><text fill="#000000" font-family="sans-serif" font-size="14" font-weight="bold" lengthAdjust="spacing" textLength="94" x="477" y="619.5117">ratio_percent</text><text fill="#000000" font-family="sans-serif" font-size="14" lengthAdjust="spacing" textLength="31" x="581" y="619.5117">6.25</text><line style="stroke:#000000;stroke-width:1.0;" x1="576" x2="576" y1="603.9766" y2="624.4648"/><rect fill="none" height="61.4648" rx="5" ry="5" style="stroke:#000000;stroke-width:1.5;" width="267" x="472" y="563"/><path d="M205,246.5 L218,246.5 C236.3033,246.5 237.2522,233.8841 254,226.5 C259.2717,224.1757 264.7834,221.924 270.3697,219.7688 " fill="none" style="stroke:#000000;stroke-width:1.0;stroke-dasharray:3.0,3.0;"/><path d="M271.4403,222.6102 L272.5008,218.9659 L269.2991,216.9274 L277.4733,217.0923 L271.4403,222.6102 " fill="#000000" style="stroke:#000000;stroke-width:1.0;"/><ellipse cx="205" cy="246.5" fill="#000000" rx="3" ry="3" style="stroke:#000000;stroke-width:1.0;"/><path d="M344.5,245.5 L357.5,245.5 C393.0729,245.5 409.9824,250.7893 435,225.5 C482.0017,177.9878 424.7323,127.7272 471,79.5 C472.1925,78.257 473.4221,77.0529 474.6859,75.8866 " fill="none" style="stroke:#000000;stroke-width:1.0;stroke-dasharray:3.0,3.0;"/><path d="M476.6361,78.1868 L476.411,74.424 L472.7356,73.5865 L480.4363,71.0111 L476.6361,78.1868 " fill="#000000" style="stroke:#000000;stroke-width:1.0;"/><ellipse cx="344.5" cy="245.5" fill="#000000" rx="3" ry="3" style="stroke:#000000;stroke-width:1.0;"/><path d="M344.5,265.5 L357.5,265.5 C396.2617,265.5 407.365,252.6805 435,225.5 C459.1005,201.7959 444.7251,179.7685 471,158.5 C472.7656,157.0709 474.5815,155.6941 476.4418,154.3678 " fill="none" style="stroke:#000000;stroke-width:1.0;stroke-dasharray:3.0,3.0;"/><path d="M478.1689,156.9625 L478.3879,153.0724 L474.7146,151.773 L482.9288,150.0499 L478.1689,156.9625 " fill="#000000" style="stroke:#000000;stroke-width:1.0;"/><ellipse cx="344.5" cy="265.5" fill="#000000" rx="3" ry="3" style="stroke:#000000;stroke-width:1.0;"/><path d="M344.5,286.5 L357.5,286.5 C412.4446,286.5 419.3001,256.1019 471,237.5 C476.6105,235.4813 482.3807,233.4903 488.2279,231.5404 " fill="none" style="stroke:#000000;stroke-width:1.0;stroke-dasharray:3.0,3.0;"/><path d="M489.2067,234.517 L490.4603,230.8063 L487.2491,228.5638 L495.6694,229.0934 L489.2067,234.517 " fill="#000000" style="stroke:#000000;stroke-width:1.0;"/><ellipse cx="344.5" cy="286.5" fill="#000000" rx="3" ry="3" style="stroke:#000000;stroke-width:1.0;"/><path d="M344.5,306.5 L357.5,306.5 C391.9893,306.5 428.9995,303.6877 463.616,299.8147 " fill="none" style="stroke:#000000;stroke-width:1.0;stroke-dasharray:3.0,3.0;"/><path d="M463.9744,302.939 L465.9592,299.5458 L463.2575,296.6903 L471.4269,298.9185 L463.9744,302.939 " fill="#000000" style="stroke:#000000;stroke-width:1.0;"/><ellipse cx="344.5" cy="306.5" fill="#000000" rx="3" ry="3" style="stroke:#000000;stroke-width:1.0;"/><path d="M344.5,327.5 L357.5,327.5 C392.942,327.5 431.0462,330.4698 466.479,334.5087 " fill="none" style="stroke:#000000;stroke-width:1.0;stroke-dasharray:3.0,3.0;"/><path d="M466.1281,337.5161 L468.7346,334.7719 L466.83,331.5013 L473.9976,335.3861 L466.1281,337.5161 " fill="#000000" style="stroke:#000000;stroke-width:1.0;"/><ellipse cx="344.5" cy="327.5" fill="#000000" rx="3" ry="3" style="stroke:#000000;stroke-width:1.0;"/><path d="M344.5,348.5 L357.5,348.5 C412.27,348.5 419.3957,378.1493 471,396.5 C476.8249,398.5714 482.8198,400.6172 488.893,402.6222 " fill="none" style="stroke:#000000;stroke-width:1.0;stroke-dasharray:3.0,3.0;"/><path d="M487.9595,405.4861 L491.041,403.3223 L489.8266,399.7582 L496.0529,404.956 L487.9595,405.4861 " fill="#000000" style="stroke:#000000;stroke-width:1.0;"/><ellipse cx="344.5" cy="348.5" fill="#000000" rx="3" ry="3" style="stroke:#000000;stroke-width:1.0;"/><path d="M344.5,368.5 L357.5,368.5 C426.8266,368.5 410.8224,441.0786 471,475.5 C474.1219,477.2857 477.3323,478.9955 480.6104,480.632 " fill="none" style="stroke:#000000;stroke-width:1.0;stroke-dasharray:3.0,3.0;"/><path d="M479.3074,483.3589 L482.6555,481.6093 L481.9133,477.9052 L487.4275,483.8895 L479.3074,483.3589 " fill="#000000" style="stroke:#000000;stroke-width:1.0;"/><ellipse cx="344.5" cy="368.5" fill="#000000" rx="3" ry="3" style="stroke:#000000;stroke-width:1.0;"/><path d="M344.5,389.5 L357.5,389.5 C446.508,389.5 398.8562,502.3685 471,554.5 C473.1111,556.0255 475.2813,557.4917 477.5017,558.9008 " fill="none" style="stroke:#000000;stroke-width:1.0;stroke-dasharray:3.0,3.0;"/><path d="M475.8783,561.6222 L479.5428,560.1183 L479.1251,556.1794 L484.3053,562.9593 L475.8783,561.6222 " fill="#000000" style="stroke:#000000;stroke-width:1.0;"/><ellipse cx="344.5" cy="389.5" fill="#000000" rx="3" ry="3" style="stroke:#000000;stroke-width:1.0;"/><path d="M205,267.5 L218,267.5 C258.9854,267.5 302.4949,290.7983 325.9847,305.5873 " fill="none" style="stroke:#000000;stroke-width:1.0;stroke-dasharray:3.0,3.0;"/><path d="M324.3446,308.127 L327.8895,306.8173 L327.6248,303.0476 L332.334,309.6875 L324.3446,308.127 " fill="#000000" style="stroke:#000000;stroke-width:1.0;"/><ellipse cx="205" cy="267.5" fill="#000000" rx="3" ry="3" style="stroke:#000000;stroke-width:1.0;"/><!--MD5=[fc1e3bd187daf55e8fd1055e3520f904]
@startjson
{
    "field1": "StartDate",
    "combination": "StartDate",
    "null_distribution": {
        "total_null_rows": 0,
        "total_not_null_rows": 16
    },
    "data_distribution": [
        {
            "field_value": "May 31 2011 12:00AM",
            "row_count": 5,
            "ratio_percent": 31.25
        },
        {
            "field_value": "May 30 2013 12:00AM",
            "row_count": 4,
            "ratio_percent": 25.0
        },
        {
            "field_value": "May 30 2012 12:00AM",
            "row_count": 2,
            "ratio_percent": 12.5
        },
        {
            "field_value": "May 14 2013 12:00AM",
            "row_count": 1,
            "ratio_percent": 6.25
        },
        {
            "field_value": "May  1 2011 12:00AM",
            "row_count": 1,
            "ratio_percent": 6.25
        },
        {
            "field_value": "Mar 31 2014 12:00AM",
            "row_count": 1,
            "ratio_percent": 6.25
        },
        {
            "field_value": "Jul 14 2013 12:00AM",
            "row_count": 1,
            "ratio_percent": 6.25
        },
        {
            "field_value": "Apr 13 2012 12:00AM",
            "row_count": 1,
            "ratio_percent": 6.25
        }
    ]
}
@endjson

PlantUML version 1.2022.5(Sat Apr 30 06:55:52 EDT 2022)
(GPL source distribution)
Java Runtime: OpenJDK Runtime Environment
JVM: OpenJDK 64-Bit Server VM
Default Encoding: UTF-8
Language: en
Country: CA
--></g></svg>