<?xml version="1.0" encoding="UTF-8" standalone="no"?><svg xmlns="http://www.w3.org/2000/svg" xmlns:xlink="http://www.w3.org/1999/xlink" contentStyleType="text/css" height="715px" preserveAspectRatio="none" style="width:857px;height:715px;background:#FFFFFF;" version="1.1" viewBox="0 0 857 715" width="857px" zoomAndPan="magnify"><defs/><g><rect fill="#F1F1F1" height="81.9531" rx="5" ry="5" style="stroke:#F1F1F1;stroke-width:1.5;" width="265" x="10" y="230.5"/><text fill="#000000" font-family="sans-serif" font-size="14" font-weight="bold" lengthAdjust="spacing" textLength="42" x="15" y="246.0352">field1</text><text fill="#000000" font-family="sans-serif" font-size="14" lengthAdjust="spacing" textLength="121" x="149" y="246.0352">UnitPriceDiscount</text><line style="stroke:#000000;stroke-width:1.0;" x1="144" x2="144" y1="230.5" y2="250.9883"/><line style="stroke:#000000;stroke-width:1.0;" x1="10" x2="275" y1="250.9883" y2="250.9883"/><text fill="#000000" font-family="sans-serif" font-size="14" font-weight="bold" lengthAdjust="spacing" textLength="90" x="15" y="266.5234">combination</text><text fill="#000000" font-family="sans-serif" font-size="14" lengthAdjust="spacing" textLength="121" x="149" y="266.5234">UnitPriceDiscount</text><line style="stroke:#000000;stroke-width:1.0;" x1="144" x2="144" y1="250.9883" y2="271.4766"/><line style="stroke:#000000;stroke-width:1.0;" x1="10" x2="275" y1="271.4766" y2="271.4766"/><text fill="#000000" font-family="sans-serif" font-size="14" font-weight="bold" lengthAdjust="spacing" textLength="121" x="15" y="287.0117">null_distribution</text><text fill="#000000" font-family="sans-serif" font-size="14" lengthAdjust="spacing" textLength="12" x="149" y="287.0117">   </text><line style="stroke:#000000;stroke-width:1.0;" x1="144" x2="144" y1="271.4766" y2="291.9648"/><line style="stroke:#000000;stroke-width:1.0;" x1="10" x2="275" y1="291.9648" y2="291.9648"/><text fill="#000000" font-family="sans-serif" font-size="14" font-weight="bold" lengthAdjust="spacing" textLength="124" x="15" y="307.5">data_distribution</text><text fill="#000000" font-family="sans-serif" font-size="14" lengthAdjust="spacing" textLength="12" x="149" y="307.5">   </text><line style="stroke:#000000;stroke-width:1.0;" x1="144" x2="144" y1="291.9648" y2="312.4531"/><rect fill="none" height="81.9531" rx="5" ry="5" style="stroke:#000000;stroke-width:1.5;" width="265" x="10" y="230.5"/><rect fill="#F1F1F1" height="40.9766" rx="5" ry="5" style="stroke:#F1F1F1;stroke-width:1.5;" width="216" x="312" y="206"/><text fill="#000000" font-family="sans-serif" font-size="14" font-weight="bold" lengthAdjust="spacing" textLength="111" x="317" y="221.5352">total_null_rows</text><text fill="#000000" font-family="sans-serif" font-size="14" lengthAdjust="spacing" textLength="9" x="469" y="221.5352">0</text><line style="stroke:#000000;stroke-width:1.0;" x1="464" x2="464" y1="206" y2="226.4883"/><line style="stroke:#000000;stroke-width:1.0;" x1="312" x2="528" y1="226.4883" y2="226.4883"/><text fill="#000000" font-family="sans-serif" font-size="14" font-weight="bold" lengthAdjust="spacing" textLength="142" x="317" y="242.0234">total_not_null_rows</text><text fill="#000000" font-family="sans-serif" font-size="14" lengthAdjust="spacing" textLength="54" x="469" y="242.0234">121317</text><line style="stroke:#000000;stroke-width:1.0;" x1="464" x2="464" y1="226.4883" y2="246.9766"/><rect fill="none" height="40.9766" rx="5" ry="5" style="stroke:#000000;stroke-width:1.5;" width="216" x="312" y="206"/><rect fill="#F1F1F1" height="184.3945" rx="5" ry="5" style="stroke:#F1F1F1;stroke-width:1.5;" width="22" x="408" y="265.5"/><text fill="#000000" font-family="sans-serif" font-size="14" lengthAdjust="spacing" textLength="12" x="413" y="281.0352">   </text><line style="stroke:#000000;stroke-width:1.0;" x1="408" x2="430" y1="285.9883" y2="285.9883"/><text fill="#000000" font-family="sans-serif" font-size="14" lengthAdjust="spacing" textLength="12" x="413" y="301.5234">   </text><line style="stroke:#000000;stroke-width:1.0;" x1="408" x2="430" y1="306.4766" y2="306.4766"/><text fill="#000000" font-family="sans-serif" font-size="14" lengthAdjust="spacing" textLength="12" x="413" y="322.0117">   </text><line style="stroke:#000000;stroke-width:1.0;" x1="408" x2="430" y1="326.9648" y2="326.9648"/><text fill="#000000" font-family="sans-serif" font-size="14" lengthAdjust="spacing" textLength="12" x="413" y="342.5">   </text><line style="stroke:#000000;stroke-width:1.0;" x1="408" x2="430" y1="347.4531" y2="347.4531"/><text fill="#000000" font-family="sans-serif" font-size="14" lengthAdjust="spacing" textLength="12" x="413" y="362.9883">   </text><line style="stroke:#000000;stroke-width:1.0;" x1="408" x2="430" y1="367.9414" y2="367.9414"/><text fill="#000000" font-family="sans-serif" font-size="14" lengthAdjust="spacing" textLength="12" x="413" y="383.4766">   </text><line style="stroke:#000000;stroke-width:1.0;" x1="408" x2="430" y1="388.4297" y2="388.4297"/><text fill="#000000" font-family="sans-serif" font-size="14" lengthAdjust="spacing" textLength="12" x="413" y="403.9648">   </text><line style="stroke:#000000;stroke-width:1.0;" x1="408" x2="430" y1="408.918" y2="408.918"/><text fill="#000000" font-family="sans-serif" font-size="14" lengthAdjust="spacing" textLength="12" x="413" y="424.4531">   </text><line style="stroke:#000000;stroke-width:1.0;" x1="408" x2="430" y1="429.4063" y2="429.4063"/><text fill="#000000" font-family="sans-serif" font-size="14" lengthAdjust="spacing" textLength="12" x="413" y="444.9414">   </text><rect fill="none" height="184.3945" rx="5" ry="5" style="stroke:#000000;stroke-width:1.5;" width="22" x="408" y="265.5"/><rect fill="#F1F1F1" height="61.4648" rx="5" ry="5" style="stroke:#F1F1F1;stroke-width:1.5;" width="262" x="574" y="10"/><text fill="#000000" font-family="sans-serif" font-size="14" font-weight="bold" lengthAdjust="spacing" textLength="78" x="579" y="25.5352">field_value</text><text fill="#000000" font-family="sans-serif" font-size="14" lengthAdjust="spacing" textLength="31" x="683" y="25.5352">0.00</text><line style="stroke:#000000;stroke-width:1.0;" x1="678" x2="678" y1="10" y2="30.4883"/><line style="stroke:#000000;stroke-width:1.0;" x1="574" x2="836" y1="30.4883" y2="30.4883"/><text fill="#000000" font-family="sans-serif" font-size="14" font-weight="bold" lengthAdjust="spacing" textLength="74" x="579" y="46.0234">row_count</text><text fill="#000000" font-family="sans-serif" font-size="14" lengthAdjust="spacing" textLength="54" x="683" y="46.0234">118035</text><line style="stroke:#000000;stroke-width:1.0;" x1="678" x2="678" y1="30.4883" y2="50.9766"/><line style="stroke:#000000;stroke-width:1.0;" x1="574" x2="836" y1="50.9766" y2="50.9766"/><text fill="#000000" font-family="sans-serif" font-size="14" font-weight="bold" lengthAdjust="spacing" textLength="94" x="579" y="66.5117">ratio_percent</text><text fill="#000000" font-family="sans-serif" font-size="14" lengthAdjust="spacing" textLength="148" x="683" y="66.5117">97.29469076881229</text><line style="stroke:#000000;stroke-width:1.0;" x1="678" x2="678" y1="50.9766" y2="71.4648"/><rect fill="none" height="61.4648" rx="5" ry="5" style="stroke:#000000;stroke-width:1.5;" width="262" x="574" y="10"/><rect fill="#F1F1F1" height="61.4648" rx="5" ry="5" style="stroke:#F1F1F1;stroke-width:1.5;" width="262" x="574" y="89"/><text fill="#000000" font-family="sans-serif" font-size="14" font-weight="bold" lengthAdjust="spacing" textLength="78" x="579" y="104.5352">field_value</text><text fill="#000000" font-family="sans-serif" font-size="14" lengthAdjust="spacing" textLength="31" x="683" y="104.5352">0.02</text><line style="stroke:#000000;stroke-width:1.0;" x1="678" x2="678" y1="89" y2="109.4883"/><line style="stroke:#000000;stroke-width:1.0;" x1="574" x2="836" y1="109.4883" y2="109.4883"/><text fill="#000000" font-family="sans-serif" font-size="14" font-weight="bold" lengthAdjust="spacing" textLength="74" x="579" y="125.0234">row_count</text><text fill="#000000" font-family="sans-serif" font-size="14" lengthAdjust="spacing" textLength="36" x="683" y="125.0234">1310</text><line style="stroke:#000000;stroke-width:1.0;" x1="678" x2="678" y1="109.4883" y2="129.9766"/><line style="stroke:#000000;stroke-width:1.0;" x1="574" x2="836" y1="129.9766" y2="129.9766"/><text fill="#000000" font-family="sans-serif" font-size="14" font-weight="bold" lengthAdjust="spacing" textLength="94" x="579" y="145.5117">ratio_percent</text><text fill="#000000" font-family="sans-serif" font-size="14" lengthAdjust="spacing" textLength="148" x="683" y="145.5117">1.079815689474682</text><line style="stroke:#000000;stroke-width:1.0;" x1="678" x2="678" y1="129.9766" y2="150.4648"/><rect fill="none" height="61.4648" rx="5" ry="5" style="stroke:#000000;stroke-width:1.5;" width="262" x="574" y="89"/><rect fill="#F1F1F1" height="61.4648" rx="5" ry="5" style="stroke:#F1F1F1;stroke-width:1.5;" width="280" x="565" y="168"/><text fill="#000000" font-family="sans-serif" font-size="14" font-weight="bold" lengthAdjust="spacing" textLength="78" x="570" y="183.5352">field_value</text><text fill="#000000" font-family="sans-serif" font-size="14" lengthAdjust="spacing" textLength="31" x="674" y="183.5352">0.05</text><line style="stroke:#000000;stroke-width:1.0;" x1="669" x2="669" y1="168" y2="188.4883"/><line style="stroke:#000000;stroke-width:1.0;" x1="565" x2="845" y1="188.4883" y2="188.4883"/><text fill="#000000" font-family="sans-serif" font-size="14" font-weight="bold" lengthAdjust="spacing" textLength="74" x="570" y="204.0234">row_count</text><text fill="#000000" font-family="sans-serif" font-size="14" lengthAdjust="spacing" textLength="27" x="674" y="204.0234">606</text><line style="stroke:#000000;stroke-width:1.0;" x1="669" x2="669" y1="188.4883" y2="208.9766"/><line style="stroke:#000000;stroke-width:1.0;" x1="565" x2="845" y1="208.9766" y2="208.9766"/><text fill="#000000" font-family="sans-serif" font-size="14" font-weight="bold" lengthAdjust="spacing" textLength="94" x="570" y="224.5117">ratio_percent</text><text fill="#000000" font-family="sans-serif" font-size="14" lengthAdjust="spacing" textLength="166" x="674" y="224.5117">0.49951779223027276</text><line style="stroke:#000000;stroke-width:1.0;" x1="669" x2="669" y1="208.9766" y2="229.4648"/><rect fill="none" height="61.4648" rx="5" ry="5" style="stroke:#000000;stroke-width:1.5;" width="280" x="565" y="168"/><rect fill="#F1F1F1" height="61.4648" rx="5" ry="5" style="stroke:#F1F1F1;stroke-width:1.5;" width="271" x="569.5" y="247"/><text fill="#000000" font-family="sans-serif" font-size="14" font-weight="bold" lengthAdjust="spacing" textLength="78" x="574.5" y="262.5352">field_value</text><text fill="#000000" font-family="sans-serif" font-size="14" lengthAdjust="spacing" textLength="31" x="678.5" y="262.5352">0.15</text><line style="stroke:#000000;stroke-width:1.0;" x1="673.5" x2="673.5" y1="247" y2="267.4883"/><line style="stroke:#000000;stroke-width:1.0;" x1="569.5" x2="840.5" y1="267.4883" y2="267.4883"/><text fill="#000000" font-family="sans-serif" font-size="14" font-weight="bold" lengthAdjust="spacing" textLength="74" x="574.5" y="283.0234">row_count</text><text fill="#000000" font-family="sans-serif" font-size="14" lengthAdjust="spacing" textLength="27" x="678.5" y="283.0234">590</text><line style="stroke:#000000;stroke-width:1.0;" x1="673.5" x2="673.5" y1="267.4883" y2="287.9766"/><line style="stroke:#000000;stroke-width:1.0;" x1="569.5" x2="840.5" y1="287.9766" y2="287.9766"/><text fill="#000000" font-family="sans-serif" font-size="14" font-weight="bold" lengthAdjust="spacing" textLength="94" x="574.5" y="303.5117">ratio_percent</text><text fill="#000000" font-family="sans-serif" font-size="14" lengthAdjust="spacing" textLength="157" x="678.5" y="303.5117">0.4863292036565362</text><line style="stroke:#000000;stroke-width:1.0;" x1="673.5" x2="673.5" y1="287.9766" y2="308.4648"/><rect fill="none" height="61.4648" rx="5" ry="5" style="stroke:#000000;stroke-width:1.5;" width="271" x="569.5" y="247"/><rect fill="#F1F1F1" height="61.4648" rx="5" ry="5" style="stroke:#F1F1F1;stroke-width:1.5;" width="280" x="565" y="326"/><text fill="#000000" font-family="sans-serif" font-size="14" font-weight="bold" lengthAdjust="spacing" textLength="78" x="570" y="341.5352">field_value</text><text fill="#000000" font-family="sans-serif" font-size="14" lengthAdjust="spacing" textLength="31" x="674" y="341.5352">0.20</text><line style="stroke:#000000;stroke-width:1.0;" x1="669" x2="669" y1="326" y2="346.4883"/><line style="stroke:#000000;stroke-width:1.0;" x1="565" x2="845" y1="346.4883" y2="346.4883"/><text fill="#000000" font-family="sans-serif" font-size="14" font-weight="bold" lengthAdjust="spacing" textLength="74" x="570" y="362.0234">row_count</text><text fill="#000000" font-family="sans-serif" font-size="14" lengthAdjust="spacing" textLength="27" x="674" y="362.0234">231</text><line style="stroke:#000000;stroke-width:1.0;" x1="669" x2="669" y1="346.4883" y2="366.9766"/><line style="stroke:#000000;stroke-width:1.0;" x1="565" x2="845" y1="366.9766" y2="366.9766"/><text fill="#000000" font-family="sans-serif" font-size="14" font-weight="bold" lengthAdjust="spacing" textLength="94" x="570" y="382.5117">ratio_percent</text><text fill="#000000" font-family="sans-serif" font-size="14" lengthAdjust="spacing" textLength="166" x="674" y="382.5117">0.19041024753332178</text><line style="stroke:#000000;stroke-width:1.0;" x1="669" x2="669" y1="366.9766" y2="387.4648"/><rect fill="none" height="61.4648" rx="5" ry="5" style="stroke:#000000;stroke-width:1.5;" width="280" x="565" y="326"/><rect fill="#F1F1F1" height="61.4648" rx="5" ry="5" style="stroke:#F1F1F1;stroke-width:1.5;" width="271" x="569.5" y="405"/><text fill="#000000" font-family="sans-serif" font-size="14" font-weight="bold" lengthAdjust="spacing" textLength="78" x="574.5" y="420.5352">field_value</text><text fill="#000000" font-family="sans-serif" font-size="14" lengthAdjust="spacing" textLength="31" x="678.5" y="420.5352">0.10</text><line style="stroke:#000000;stroke-width:1.0;" x1="673.5" x2="673.5" y1="405" y2="425.4883"/><line style="stroke:#000000;stroke-width:1.0;" x1="569.5" x2="840.5" y1="425.4883" y2="425.4883"/><text fill="#000000" font-family="sans-serif" font-size="14" font-weight="bold" lengthAdjust="spacing" textLength="74" x="574.5" y="441.0234">row_count</text><text fill="#000000" font-family="sans-serif" font-size="14" lengthAdjust="spacing" textLength="27" x="678.5" y="441.0234">178</text><line style="stroke:#000000;stroke-width:1.0;" x1="673.5" x2="673.5" y1="425.4883" y2="445.9766"/><line style="stroke:#000000;stroke-width:1.0;" x1="569.5" x2="840.5" y1="445.9766" y2="445.9766"/><text fill="#000000" font-family="sans-serif" font-size="14" font-weight="bold" lengthAdjust="spacing" textLength="94" x="574.5" y="461.5117">ratio_percent</text><text fill="#000000" font-family="sans-serif" font-size="14" lengthAdjust="spacing" textLength="157" x="678.5" y="461.5117">0.1467230478828194</text><line style="stroke:#000000;stroke-width:1.0;" x1="673.5" x2="673.5" y1="445.9766" y2="466.4648"/><rect fill="none" height="61.4648" rx="5" ry="5" style="stroke:#000000;stroke-width:1.5;" width="271" x="569.5" y="405"/><rect fill="#F1F1F1" height="61.4648" rx="5" ry="5" style="stroke:#F1F1F1;stroke-width:1.5;" width="280" x="565" y="484"/><text fill="#000000" font-family="sans-serif" font-size="14" font-weight="bold" lengthAdjust="spacing" textLength="78" x="570" y="499.5352">field_value</text><text fill="#000000" font-family="sans-serif" font-size="14" lengthAdjust="spacing" textLength="31" x="674" y="499.5352">0.40</text><line style="stroke:#000000;stroke-width:1.0;" x1="669" x2="669" y1="484" y2="504.4883"/><line style="stroke:#000000;stroke-width:1.0;" x1="565" x2="845" y1="504.4883" y2="504.4883"/><text fill="#000000" font-family="sans-serif" font-size="14" font-weight="bold" lengthAdjust="spacing" textLength="74" x="570" y="520.0234">row_count</text><text fill="#000000" font-family="sans-serif" font-size="14" lengthAdjust="spacing" textLength="27" x="674" y="520.0234">169</text><line style="stroke:#000000;stroke-width:1.0;" x1="669" x2="669" y1="504.4883" y2="524.9766"/><line style="stroke:#000000;stroke-width:1.0;" x1="565" x2="845" y1="524.9766" y2="524.9766"/><text fill="#000000" font-family="sans-serif" font-size="14" font-weight="bold" lengthAdjust="spacing" textLength="94" x="570" y="540.5117">ratio_percent</text><text fill="#000000" font-family="sans-serif" font-size="14" lengthAdjust="spacing" textLength="166" x="674" y="540.5117">0.13930446681009256</text><line style="stroke:#000000;stroke-width:1.0;" x1="669" x2="669" y1="524.9766" y2="545.4648"/><rect fill="none" height="61.4648" rx="5" ry="5" style="stroke:#000000;stroke-width:1.5;" width="280" x="565" y="484"/><rect fill="#F1F1F1" height="61.4648" rx="5" ry="5" style="stroke:#F1F1F1;stroke-width:1.5;" width="280" x="565" y="563"/><text fill="#000000" font-family="sans-serif" font-size="14" font-weight="bold" lengthAdjust="spacing" textLength="78" x="570" y="578.5352">field_value</text><text fill="#000000" font-family="sans-serif" font-size="14" lengthAdjust="spacing" textLength="31" x="674" y="578.5352">0.35</text><line style="stroke:#000000;stroke-width:1.0;" x1="669" x2="669" y1="563" y2="583.4883"/><line style="stroke:#000000;stroke-width:1.0;" x1="565" x2="845" y1="583.4883" y2="583.4883"/><text fill="#000000" font-family="sans-serif" font-size="14" font-weight="bold" lengthAdjust="spacing" textLength="74" x="570" y="599.0234">row_count</text><text fill="#000000" font-family="sans-serif" font-size="14" lengthAdjust="spacing" textLength="27" x="674" y="599.0234">137</text><line style="stroke:#000000;stroke-width:1.0;" x1="669" x2="669" y1="583.4883" y2="603.9766"/><line style="stroke:#000000;stroke-width:1.0;" x1="565" x2="845" y1="603.9766" y2="603.9766"/><text fill="#000000" font-family="sans-serif" font-size="14" font-weight="bold" lengthAdjust="spacing" textLength="94" x="570" y="619.5117">ratio_percent</text><text fill="#000000" font-family="sans-serif" font-size="14" lengthAdjust="spacing" textLength="166" x="674" y="619.5117">0.11292728966261942</text><line style="stroke:#000000;stroke-width:1.0;" x1="669" x2="669" y1="603.9766" y2="624.4648"/><rect fill="none" height="61.4648" rx="5" ry="5" style="stroke:#000000;stroke-width:1.5;" width="280" x="565" y="563"/><rect fill="#F1F1F1" height="61.4648" rx="5" ry="5" style="stroke:#F1F1F1;stroke-width:1.5;" width="280" x="565" y="642"/><text fill="#000000" font-family="sans-serif" font-size="14" font-weight="bold" lengthAdjust="spacing" textLength="78" x="570" y="657.5352">field_value</text><text fill="#000000" font-family="sans-serif" font-size="14" lengthAdjust="spacing" textLength="31" x="674" y="657.5352">0.30</text><line style="stroke:#000000;stroke-width:1.0;" x1="669" x2="669" y1="642" y2="662.4883"/><line style="stroke:#000000;stroke-width:1.0;" x1="565" x2="845" y1="662.4883" y2="662.4883"/><text fill="#000000" font-family="sans-serif" font-size="14" font-weight="bold" lengthAdjust="spacing" textLength="74" x="570" y="678.0234">row_count</text><text fill="#000000" font-family="sans-serif" font-size="14" lengthAdjust="spacing" textLength="18" x="674" y="678.0234">61</text><line style="stroke:#000000;stroke-width:1.0;" x1="669" x2="669" y1="662.4883" y2="682.9766"/><line style="stroke:#000000;stroke-width:1.0;" x1="565" x2="845" y1="682.9766" y2="682.9766"/><text fill="#000000" font-family="sans-serif" font-size="14" font-weight="bold" lengthAdjust="spacing" textLength="94" x="570" y="698.5117">ratio_percent</text><text fill="#000000" font-family="sans-serif" font-size="14" lengthAdjust="spacing" textLength="166" x="674" y="698.5117">0.05028149393737069</text><line style="stroke:#000000;stroke-width:1.0;" x1="669" x2="669" y1="682.9766" y2="703.4648"/><rect fill="none" height="61.4648" rx="5" ry="5" style="stroke:#000000;stroke-width:1.5;" width="280" x="565" y="642"/><path d="M263,281.5 L276,281.5 C295.4797,281.5 294.3722,264.7895 312,256.5 C317.1781,254.065 322.5921,251.7926 328.1186,249.6776 " fill="none" style="stroke:#000000;stroke-width:1.0;stroke-dasharray:3.0,3.0;"/><path d="M329.1566,252.498 L330.2339,248.899 L327.0805,246.8571 L335.1697,247.0825 L329.1566,252.498 " fill="#000000" style="stroke:#000000;stroke-width:1.0;"/><ellipse cx="263" cy="281.5" fill="#000000" rx="3" ry="3" style="stroke:#000000;stroke-width:1.0;"/><path d="M420.5,275.5 L433.5,275.5 C476.8652,275.5 498.408,286.2355 529,255.5 C585.3245,198.9114 510.5782,137.9208 565,79.5 C566.1838,78.2292 567.4053,76.9986 568.6615,75.8069 " fill="none" style="stroke:#000000;stroke-width:1.0;stroke-dasharray:3.0,3.0;"/><path d="M570.6532,78.0956 L570.378,74.3131 L566.6697,73.5182 L574.3832,70.8276 L570.6532,78.0956 " fill="#000000" style="stroke:#000000;stroke-width:1.0;"/><ellipse cx="420.5" cy="275.5" fill="#000000" rx="3" ry="3" style="stroke:#000000;stroke-width:1.0;"/><path d="M420.5,295.5 L433.5,295.5 C479.5172,295.5 497.1393,288.7035 529,255.5 C560.838,222.3201 531.1667,189.6428 565,158.5 C566.3154,157.2892 567.6653,156.1156 569.0469,154.978 " fill="none" style="stroke:#000000;stroke-width:1.0;stroke-dasharray:3.0,3.0;"/><path d="M570.951,157.4783 L570.9221,153.5499 L567.1427,152.4777 L575.2976,150.2176 L570.951,157.4783 " fill="#000000" style="stroke:#000000;stroke-width:1.0;"/><ellipse cx="420.5" cy="295.5" fill="#000000" rx="3" ry="3" style="stroke:#000000;stroke-width:1.0;"/><path d="M420.5,315.5 L433.5,315.5 C501.4524,315.5 502.5178,264.2115 565,237.5 C569.6607,235.5075 574.4523,233.587 579.3253,231.7395 " fill="none" style="stroke:#000000;stroke-width:1.0;stroke-dasharray:3.0,3.0;"/><path d="M580.3871,234.6163 L581.4829,230.9432 L578.2635,228.8627 L586.5172,229.0851 L580.3871,234.6163 " fill="#000000" style="stroke:#000000;stroke-width:1.0;"/><ellipse cx="420.5" cy="315.5" fill="#000000" rx="3" ry="3" style="stroke:#000000;stroke-width:1.0;"/><path d="M420.5,336.5 L433.5,336.5 C462.3011,336.5 523.3628,323.6162 580.2451,309.8898 " fill="none" style="stroke:#000000;stroke-width:1.0;stroke-dasharray:3.0,3.0;"/><path d="M580.9863,312.943 L582.5351,309.3339 L579.504,306.8365 L587.8782,308.0369 L580.9863,312.943 " fill="#000000" style="stroke:#000000;stroke-width:1.0;"/><ellipse cx="420.5" cy="336.5" fill="#000000" rx="3" ry="3" style="stroke:#000000;stroke-width:1.0;"/><path d="M420.5,356.5 L433.5,356.5 C473.722,356.5 517.3019,356.5 557.5115,356.5 " fill="none" style="stroke:#000000;stroke-width:1.0;stroke-dasharray:3.0,3.0;"/><path d="M557.5115,359.5922 L559.8307,356.5 L557.5115,353.4078 L565.2422,356.5 L557.5115,359.5922 " fill="#000000" style="stroke:#000000;stroke-width:1.0;"/><ellipse cx="420.5" cy="356.5" fill="#000000" rx="3" ry="3" style="stroke:#000000;stroke-width:1.0;"/><path d="M420.5,377.5 L433.5,377.5 C461.9338,377.5 521.8787,389.8633 578.1768,403.1738 " fill="none" style="stroke:#000000;stroke-width:1.0;stroke-dasharray:3.0,3.0;"/><path d="M577.4578,406.1969 L580.4441,403.7131 L578.8958,400.1507 L585.7346,404.9713 L577.4578,406.1969 " fill="#000000" style="stroke:#000000;stroke-width:1.0;"/><ellipse cx="420.5" cy="377.5" fill="#000000" rx="3" ry="3" style="stroke:#000000;stroke-width:1.0;"/><path d="M420.5,398.5 L433.5,398.5 C501.2268,398.5 502.6504,449.0531 565,475.5 C569.6663,477.4793 574.4627,479.3887 579.3396,481.227 " fill="none" style="stroke:#000000;stroke-width:1.0;stroke-dasharray:3.0,3.0;"/><path d="M578.2827,484.1058 L581.4987,482.0196 L580.3964,478.3481 L586.5367,483.8691 L578.2827,484.1058 " fill="#000000" style="stroke:#000000;stroke-width:1.0;"/><ellipse cx="420.5" cy="398.5" fill="#000000" rx="3" ry="3" style="stroke:#000000;stroke-width:1.0;"/><path d="M420.5,418.5 L433.5,418.5 C517.579,418.5 492.7732,511.4585 565,554.5 C567.8556,556.2017 570.7882,557.8316 573.7823,559.3927 " fill="none" style="stroke:#000000;stroke-width:1.0;stroke-dasharray:3.0,3.0;"/><path d="M572.3748,562.2289 L575.9094,560.4484 L575.1898,556.5565 L580.8728,562.9115 L572.3748,562.2289 " fill="#000000" style="stroke:#000000;stroke-width:1.0;"/><ellipse cx="420.5" cy="418.5" fill="#000000" rx="3" ry="3" style="stroke:#000000;stroke-width:1.0;"/><path d="M420.5,439.5 L433.5,439.5 C537.6635,439.5 480.4576,572.651 565,633.5 C567.0921,635.0058 569.2402,636.4535 571.4367,637.8453 " fill="none" style="stroke:#000000;stroke-width:1.0;stroke-dasharray:3.0,3.0;"/><path d="M569.8325,640.5358 L573.4546,639.0485 L573.0409,635.1548 L578.1629,641.8558 L569.8325,640.5358 " fill="#000000" style="stroke:#000000;stroke-width:1.0;"/><ellipse cx="420.5" cy="439.5" fill="#000000" rx="3" ry="3" style="stroke:#000000;stroke-width:1.0;"/><path d="M263,302.5 L276,302.5 C324.0039,302.5 375.4142,329.6676 401.731,345.8149 " fill="none" style="stroke:#000000;stroke-width:1.0;stroke-dasharray:3.0,3.0;"/><path d="M400.116,348.3883 L403.6611,347.0262 L403.3461,343.2414 L408.1647,349.8525 L400.116,348.3883 " fill="#000000" style="stroke:#000000;stroke-width:1.0;"/><ellipse cx="263" cy="302.5" fill="#000000" rx="3" ry="3" style="stroke:#000000;stroke-width:1.0;"/><!--MD5=[7087878fa8613bf5e916082b3652443d]
@startjson
{
    "field1": "UnitPriceDiscount",
    "combination": "UnitPriceDiscount",
    "null_distribution": {
        "total_null_rows": 0,
        "total_not_null_rows": 121317
    },
    "data_distribution": [
        {
            "field_value": "0.00",
            "row_count": 118035,
            "ratio_percent": 97.29469076881229
        },
        {
            "field_value": "0.02",
            "row_count": 1310,
            "ratio_percent": 1.079815689474682
        },
        {
            "field_value": "0.05",
            "row_count": 606,
            "ratio_percent": 0.49951779223027276
        },
        {
            "field_value": "0.15",
            "row_count": 590,
            "ratio_percent": 0.4863292036565362
        },
        {
            "field_value": "0.20",
            "row_count": 231,
            "ratio_percent": 0.19041024753332178
        },
        {
            "field_value": "0.10",
            "row_count": 178,
            "ratio_percent": 0.1467230478828194
        },
        {
            "field_value": "0.40",
            "row_count": 169,
            "ratio_percent": 0.13930446681009256
        },
        {
            "field_value": "0.35",
            "row_count": 137,
            "ratio_percent": 0.11292728966261942
        },
        {
            "field_value": "0.30",
            "row_count": 61,
            "ratio_percent": 0.05028149393737069
        }
    ]
}
@endjson

PlantUML version 1.2022.5(Sat Apr 30 06:55:52 EDT 2022)
(GPL source distribution)
Java Runtime: OpenJDK Runtime Environment
JVM: OpenJDK 64-Bit Server VM
Default Encoding: UTF-8
Language: en
Country: CA
--></g></svg>