<?xml version="1.0" encoding="UTF-8" standalone="no"?><svg xmlns="http://www.w3.org/2000/svg" xmlns:xlink="http://www.w3.org/1999/xlink" contentStyleType="text/css" height="794px" preserveAspectRatio="none" style="width:684px;height:794px;background:#FFFFFF;" version="1.1" viewBox="0 0 684 794" width="684px" zoomAndPan="magnify"><defs/><g><rect fill="#F1F1F1" height="81.9531" rx="5" ry="5" style="stroke:#F1F1F1;stroke-width:1.5;" width="183" x="10" y="264.5"/><text fill="#000000" font-family="sans-serif" font-size="14" font-weight="bold" lengthAdjust="spacing" textLength="42" x="15" y="280.0352">field1</text><text fill="#000000" font-family="sans-serif" font-size="14" lengthAdjust="spacing" textLength="39" x="149" y="280.0352">Name</text><line style="stroke:#000000;stroke-width:1.0;" x1="144" x2="144" y1="264.5" y2="284.9883"/><line style="stroke:#000000;stroke-width:1.0;" x1="10" x2="193" y1="284.9883" y2="284.9883"/><text fill="#000000" font-family="sans-serif" font-size="14" font-weight="bold" lengthAdjust="spacing" textLength="90" x="15" y="300.5234">combination</text><text fill="#000000" font-family="sans-serif" font-size="14" lengthAdjust="spacing" textLength="39" x="149" y="300.5234">Name</text><line style="stroke:#000000;stroke-width:1.0;" x1="144" x2="144" y1="284.9883" y2="305.4766"/><line style="stroke:#000000;stroke-width:1.0;" x1="10" x2="193" y1="305.4766" y2="305.4766"/><text fill="#000000" font-family="sans-serif" font-size="14" font-weight="bold" lengthAdjust="spacing" textLength="121" x="15" y="321.0117">null_distribution</text><text fill="#000000" font-family="sans-serif" font-size="14" lengthAdjust="spacing" textLength="12" x="149" y="321.0117">   </text><line style="stroke:#000000;stroke-width:1.0;" x1="144" x2="144" y1="305.4766" y2="325.9648"/><line style="stroke:#000000;stroke-width:1.0;" x1="10" x2="193" y1="325.9648" y2="325.9648"/><text fill="#000000" font-family="sans-serif" font-size="14" font-weight="bold" lengthAdjust="spacing" textLength="124" x="15" y="341.5">data_distribution</text><text fill="#000000" font-family="sans-serif" font-size="14" lengthAdjust="spacing" textLength="12" x="149" y="341.5">   </text><line style="stroke:#000000;stroke-width:1.0;" x1="144" x2="144" y1="325.9648" y2="346.4531"/><rect fill="none" height="81.9531" rx="5" ry="5" style="stroke:#000000;stroke-width:1.5;" width="183" x="10" y="264.5"/><rect fill="#F1F1F1" height="40.9766" rx="5" ry="5" style="stroke:#F1F1F1;stroke-width:1.5;" width="180" x="230" y="235"/><text fill="#000000" font-family="sans-serif" font-size="14" font-weight="bold" lengthAdjust="spacing" textLength="111" x="235" y="250.5352">total_null_rows</text><text fill="#000000" font-family="sans-serif" font-size="14" lengthAdjust="spacing" textLength="9" x="387" y="250.5352">0</text><line style="stroke:#000000;stroke-width:1.0;" x1="382" x2="382" y1="235" y2="255.4883"/><line style="stroke:#000000;stroke-width:1.0;" x1="230" x2="410" y1="255.4883" y2="255.4883"/><text fill="#000000" font-family="sans-serif" font-size="14" font-weight="bold" lengthAdjust="spacing" textLength="142" x="235" y="271.0234">total_not_null_rows</text><text fill="#000000" font-family="sans-serif" font-size="14" lengthAdjust="spacing" textLength="18" x="387" y="271.0234">10</text><line style="stroke:#000000;stroke-width:1.0;" x1="382" x2="382" y1="255.4883" y2="275.9766"/><rect fill="none" height="40.9766" rx="5" ry="5" style="stroke:#000000;stroke-width:1.5;" width="180" x="230" y="235"/><rect fill="#F1F1F1" height="204.8828" rx="5" ry="5" style="stroke:#F1F1F1;stroke-width:1.5;" width="22" x="308" y="294"/><text fill="#000000" font-family="sans-serif" font-size="14" lengthAdjust="spacing" textLength="12" x="313" y="309.5352">   </text><line style="stroke:#000000;stroke-width:1.0;" x1="308" x2="330" y1="314.4883" y2="314.4883"/><text fill="#000000" font-family="sans-serif" font-size="14" lengthAdjust="spacing" textLength="12" x="313" y="330.0234">   </text><line style="stroke:#000000;stroke-width:1.0;" x1="308" x2="330" y1="334.9766" y2="334.9766"/><text fill="#000000" font-family="sans-serif" font-size="14" lengthAdjust="spacing" textLength="12" x="313" y="350.5117">   </text><line style="stroke:#000000;stroke-width:1.0;" x1="308" x2="330" y1="355.4648" y2="355.4648"/><text fill="#000000" font-family="sans-serif" font-size="14" lengthAdjust="spacing" textLength="12" x="313" y="371">   </text><line style="stroke:#000000;stroke-width:1.0;" x1="308" x2="330" y1="375.9531" y2="375.9531"/><text fill="#000000" font-family="sans-serif" font-size="14" lengthAdjust="spacing" textLength="12" x="313" y="391.4883">   </text><line style="stroke:#000000;stroke-width:1.0;" x1="308" x2="330" y1="396.4414" y2="396.4414"/><text fill="#000000" font-family="sans-serif" font-size="14" lengthAdjust="spacing" textLength="12" x="313" y="411.9766">   </text><line style="stroke:#000000;stroke-width:1.0;" x1="308" x2="330" y1="416.9297" y2="416.9297"/><text fill="#000000" font-family="sans-serif" font-size="14" lengthAdjust="spacing" textLength="12" x="313" y="432.4648">   </text><line style="stroke:#000000;stroke-width:1.0;" x1="308" x2="330" y1="437.418" y2="437.418"/><text fill="#000000" font-family="sans-serif" font-size="14" lengthAdjust="spacing" textLength="12" x="313" y="452.9531">   </text><line style="stroke:#000000;stroke-width:1.0;" x1="308" x2="330" y1="457.9063" y2="457.9063"/><text fill="#000000" font-family="sans-serif" font-size="14" lengthAdjust="spacing" textLength="12" x="313" y="473.4414">   </text><line style="stroke:#000000;stroke-width:1.0;" x1="308" x2="330" y1="478.3945" y2="478.3945"/><text fill="#000000" font-family="sans-serif" font-size="14" lengthAdjust="spacing" textLength="12" x="313" y="493.9297">   </text><rect fill="none" height="204.8828" rx="5" ry="5" style="stroke:#000000;stroke-width:1.5;" width="22" x="308" y="294"/><rect fill="#F1F1F1" height="61.4648" rx="5" ry="5" style="stroke:#F1F1F1;stroke-width:1.5;" width="225" x="447" y="10"/><text fill="#000000" font-family="sans-serif" font-size="14" font-weight="bold" lengthAdjust="spacing" textLength="78" x="452" y="25.5352">field_value</text><text fill="#000000" font-family="sans-serif" font-size="14" lengthAdjust="spacing" textLength="111" x="556" y="25.5352">United Kingdom</text><line style="stroke:#000000;stroke-width:1.0;" x1="551" x2="551" y1="10" y2="30.4883"/><line style="stroke:#000000;stroke-width:1.0;" x1="447" x2="672" y1="30.4883" y2="30.4883"/><text fill="#000000" font-family="sans-serif" font-size="14" font-weight="bold" lengthAdjust="spacing" textLength="74" x="452" y="46.0234">row_count</text><text fill="#000000" font-family="sans-serif" font-size="14" lengthAdjust="spacing" textLength="9" x="556" y="46.0234">1</text><line style="stroke:#000000;stroke-width:1.0;" x1="551" x2="551" y1="30.4883" y2="50.9766"/><line style="stroke:#000000;stroke-width:1.0;" x1="447" x2="672" y1="50.9766" y2="50.9766"/><text fill="#000000" font-family="sans-serif" font-size="14" font-weight="bold" lengthAdjust="spacing" textLength="94" x="452" y="66.5117">ratio_percent</text><text fill="#000000" font-family="sans-serif" font-size="14" lengthAdjust="spacing" textLength="31" x="556" y="66.5117">10.0</text><line style="stroke:#000000;stroke-width:1.0;" x1="551" x2="551" y1="50.9766" y2="71.4648"/><rect fill="none" height="61.4648" rx="5" ry="5" style="stroke:#000000;stroke-width:1.5;" width="225" x="447" y="10"/><rect fill="#F1F1F1" height="61.4648" rx="5" ry="5" style="stroke:#F1F1F1;stroke-width:1.5;" width="185" x="467" y="89"/><text fill="#000000" font-family="sans-serif" font-size="14" font-weight="bold" lengthAdjust="spacing" textLength="78" x="472" y="104.5352">field_value</text><text fill="#000000" font-family="sans-serif" font-size="14" lengthAdjust="spacing" textLength="71" x="576" y="104.5352">Southwest</text><line style="stroke:#000000;stroke-width:1.0;" x1="571" x2="571" y1="89" y2="109.4883"/><line style="stroke:#000000;stroke-width:1.0;" x1="467" x2="652" y1="109.4883" y2="109.4883"/><text fill="#000000" font-family="sans-serif" font-size="14" font-weight="bold" lengthAdjust="spacing" textLength="74" x="472" y="125.0234">row_count</text><text fill="#000000" font-family="sans-serif" font-size="14" lengthAdjust="spacing" textLength="9" x="576" y="125.0234">1</text><line style="stroke:#000000;stroke-width:1.0;" x1="571" x2="571" y1="109.4883" y2="129.9766"/><line style="stroke:#000000;stroke-width:1.0;" x1="467" x2="652" y1="129.9766" y2="129.9766"/><text fill="#000000" font-family="sans-serif" font-size="14" font-weight="bold" lengthAdjust="spacing" textLength="94" x="472" y="145.5117">ratio_percent</text><text fill="#000000" font-family="sans-serif" font-size="14" lengthAdjust="spacing" textLength="31" x="576" y="145.5117">10.0</text><line style="stroke:#000000;stroke-width:1.0;" x1="571" x2="571" y1="129.9766" y2="150.4648"/><rect fill="none" height="61.4648" rx="5" ry="5" style="stroke:#000000;stroke-width:1.5;" width="185" x="467" y="89"/><rect fill="#F1F1F1" height="61.4648" rx="5" ry="5" style="stroke:#F1F1F1;stroke-width:1.5;" width="182" x="468.5" y="168"/><text fill="#000000" font-family="sans-serif" font-size="14" font-weight="bold" lengthAdjust="spacing" textLength="78" x="473.5" y="183.5352">field_value</text><text fill="#000000" font-family="sans-serif" font-size="14" lengthAdjust="spacing" textLength="68" x="577.5" y="183.5352">Southeast</text><line style="stroke:#000000;stroke-width:1.0;" x1="572.5" x2="572.5" y1="168" y2="188.4883"/><line style="stroke:#000000;stroke-width:1.0;" x1="468.5" x2="650.5" y1="188.4883" y2="188.4883"/><text fill="#000000" font-family="sans-serif" font-size="14" font-weight="bold" lengthAdjust="spacing" textLength="74" x="473.5" y="204.0234">row_count</text><text fill="#000000" font-family="sans-serif" font-size="14" lengthAdjust="spacing" textLength="9" x="577.5" y="204.0234">1</text><line style="stroke:#000000;stroke-width:1.0;" x1="572.5" x2="572.5" y1="188.4883" y2="208.9766"/><line style="stroke:#000000;stroke-width:1.0;" x1="468.5" x2="650.5" y1="208.9766" y2="208.9766"/><text fill="#000000" font-family="sans-serif" font-size="14" font-weight="bold" lengthAdjust="spacing" textLength="94" x="473.5" y="224.5117">ratio_percent</text><text fill="#000000" font-family="sans-serif" font-size="14" lengthAdjust="spacing" textLength="31" x="577.5" y="224.5117">10.0</text><line style="stroke:#000000;stroke-width:1.0;" x1="572.5" x2="572.5" y1="208.9766" y2="229.4648"/><rect fill="none" height="61.4648" rx="5" ry="5" style="stroke:#000000;stroke-width:1.5;" width="182" x="468.5" y="168"/><rect fill="#F1F1F1" height="61.4648" rx="5" ry="5" style="stroke:#F1F1F1;stroke-width:1.5;" width="184" x="467.5" y="247"/><text fill="#000000" font-family="sans-serif" font-size="14" font-weight="bold" lengthAdjust="spacing" textLength="78" x="472.5" y="262.5352">field_value</text><text fill="#000000" font-family="sans-serif" font-size="14" lengthAdjust="spacing" textLength="70" x="576.5" y="262.5352">Northwest</text><line style="stroke:#000000;stroke-width:1.0;" x1="571.5" x2="571.5" y1="247" y2="267.4883"/><line style="stroke:#000000;stroke-width:1.0;" x1="467.5" x2="651.5" y1="267.4883" y2="267.4883"/><text fill="#000000" font-family="sans-serif" font-size="14" font-weight="bold" lengthAdjust="spacing" textLength="74" x="472.5" y="283.0234">row_count</text><text fill="#000000" font-family="sans-serif" font-size="14" lengthAdjust="spacing" textLength="9" x="576.5" y="283.0234">1</text><line style="stroke:#000000;stroke-width:1.0;" x1="571.5" x2="571.5" y1="267.4883" y2="287.9766"/><line style="stroke:#000000;stroke-width:1.0;" x1="467.5" x2="651.5" y1="287.9766" y2="287.9766"/><text fill="#000000" font-family="sans-serif" font-size="14" font-weight="bold" lengthAdjust="spacing" textLength="94" x="472.5" y="303.5117">ratio_percent</text><text fill="#000000" font-family="sans-serif" font-size="14" lengthAdjust="spacing" textLength="31" x="576.5" y="303.5117">10.0</text><line style="stroke:#000000;stroke-width:1.0;" x1="571.5" x2="571.5" y1="287.9766" y2="308.4648"/><rect fill="none" height="61.4648" rx="5" ry="5" style="stroke:#000000;stroke-width:1.5;" width="184" x="467.5" y="247"/><rect fill="#F1F1F1" height="61.4648" rx="5" ry="5" style="stroke:#F1F1F1;stroke-width:1.5;" width="181" x="469" y="326"/><text fill="#000000" font-family="sans-serif" font-size="14" font-weight="bold" lengthAdjust="spacing" textLength="78" x="474" y="341.5352">field_value</text><text fill="#000000" font-family="sans-serif" font-size="14" lengthAdjust="spacing" textLength="67" x="578" y="341.5352">Northeast</text><line style="stroke:#000000;stroke-width:1.0;" x1="573" x2="573" y1="326" y2="346.4883"/><line style="stroke:#000000;stroke-width:1.0;" x1="469" x2="650" y1="346.4883" y2="346.4883"/><text fill="#000000" font-family="sans-serif" font-size="14" font-weight="bold" lengthAdjust="spacing" textLength="74" x="474" y="362.0234">row_count</text><text fill="#000000" font-family="sans-serif" font-size="14" lengthAdjust="spacing" textLength="9" x="578" y="362.0234">1</text><line style="stroke:#000000;stroke-width:1.0;" x1="573" x2="573" y1="346.4883" y2="366.9766"/><line style="stroke:#000000;stroke-width:1.0;" x1="469" x2="650" y1="366.9766" y2="366.9766"/><text fill="#000000" font-family="sans-serif" font-size="14" font-weight="bold" lengthAdjust="spacing" textLength="94" x="474" y="382.5117">ratio_percent</text><text fill="#000000" font-family="sans-serif" font-size="14" lengthAdjust="spacing" textLength="31" x="578" y="382.5117">10.0</text><line style="stroke:#000000;stroke-width:1.0;" x1="573" x2="573" y1="366.9766" y2="387.4648"/><rect fill="none" height="61.4648" rx="5" ry="5" style="stroke:#000000;stroke-width:1.5;" width="181" x="469" y="326"/><rect fill="#F1F1F1" height="61.4648" rx="5" ry="5" style="stroke:#F1F1F1;stroke-width:1.5;" width="175" x="472" y="405"/><text fill="#000000" font-family="sans-serif" font-size="14" font-weight="bold" lengthAdjust="spacing" textLength="78" x="477" y="420.5352">field_value</text><text fill="#000000" font-family="sans-serif" font-size="14" lengthAdjust="spacing" textLength="61" x="581" y="420.5352">Germany</text><line style="stroke:#000000;stroke-width:1.0;" x1="576" x2="576" y1="405" y2="425.4883"/><line style="stroke:#000000;stroke-width:1.0;" x1="472" x2="647" y1="425.4883" y2="425.4883"/><text fill="#000000" font-family="sans-serif" font-size="14" font-weight="bold" lengthAdjust="spacing" textLength="74" x="477" y="441.0234">row_count</text><text fill="#000000" font-family="sans-serif" font-size="14" lengthAdjust="spacing" textLength="9" x="581" y="441.0234">1</text><line style="stroke:#000000;stroke-width:1.0;" x1="576" x2="576" y1="425.4883" y2="445.9766"/><line style="stroke:#000000;stroke-width:1.0;" x1="472" x2="647" y1="445.9766" y2="445.9766"/><text fill="#000000" font-family="sans-serif" font-size="14" font-weight="bold" lengthAdjust="spacing" textLength="94" x="477" y="461.5117">ratio_percent</text><text fill="#000000" font-family="sans-serif" font-size="14" lengthAdjust="spacing" textLength="31" x="581" y="461.5117">10.0</text><line style="stroke:#000000;stroke-width:1.0;" x1="576" x2="576" y1="445.9766" y2="466.4648"/><rect fill="none" height="61.4648" rx="5" ry="5" style="stroke:#000000;stroke-width:1.5;" width="175" x="472" y="405"/><rect fill="#F1F1F1" height="61.4648" rx="5" ry="5" style="stroke:#F1F1F1;stroke-width:1.5;" width="160" x="479.5" y="484"/><text fill="#000000" font-family="sans-serif" font-size="14" font-weight="bold" lengthAdjust="spacing" textLength="78" x="484.5" y="499.5352">field_value</text><text fill="#000000" font-family="sans-serif" font-size="14" lengthAdjust="spacing" textLength="46" x="588.5" y="499.5352">France</text><line style="stroke:#000000;stroke-width:1.0;" x1="583.5" x2="583.5" y1="484" y2="504.4883"/><line style="stroke:#000000;stroke-width:1.0;" x1="479.5" x2="639.5" y1="504.4883" y2="504.4883"/><text fill="#000000" font-family="sans-serif" font-size="14" font-weight="bold" lengthAdjust="spacing" textLength="74" x="484.5" y="520.0234">row_count</text><text fill="#000000" font-family="sans-serif" font-size="14" lengthAdjust="spacing" textLength="9" x="588.5" y="520.0234">1</text><line style="stroke:#000000;stroke-width:1.0;" x1="583.5" x2="583.5" y1="504.4883" y2="524.9766"/><line style="stroke:#000000;stroke-width:1.0;" x1="479.5" x2="639.5" y1="524.9766" y2="524.9766"/><text fill="#000000" font-family="sans-serif" font-size="14" font-weight="bold" lengthAdjust="spacing" textLength="94" x="484.5" y="540.5117">ratio_percent</text><text fill="#000000" font-family="sans-serif" font-size="14" lengthAdjust="spacing" textLength="31" x="588.5" y="540.5117">10.0</text><line style="stroke:#000000;stroke-width:1.0;" x1="583.5" x2="583.5" y1="524.9766" y2="545.4648"/><rect fill="none" height="61.4648" rx="5" ry="5" style="stroke:#000000;stroke-width:1.5;" width="160" x="479.5" y="484"/><rect fill="#F1F1F1" height="61.4648" rx="5" ry="5" style="stroke:#F1F1F1;stroke-width:1.5;" width="164" x="477.5" y="563"/><text fill="#000000" font-family="sans-serif" font-size="14" font-weight="bold" lengthAdjust="spacing" textLength="78" x="482.5" y="578.5352">field_value</text><text fill="#000000" font-family="sans-serif" font-size="14" lengthAdjust="spacing" textLength="50" x="586.5" y="578.5352">Central</text><line style="stroke:#000000;stroke-width:1.0;" x1="581.5" x2="581.5" y1="563" y2="583.4883"/><line style="stroke:#000000;stroke-width:1.0;" x1="477.5" x2="641.5" y1="583.4883" y2="583.4883"/><text fill="#000000" font-family="sans-serif" font-size="14" font-weight="bold" lengthAdjust="spacing" textLength="74" x="482.5" y="599.0234">row_count</text><text fill="#000000" font-family="sans-serif" font-size="14" lengthAdjust="spacing" textLength="9" x="586.5" y="599.0234">1</text><line style="stroke:#000000;stroke-width:1.0;" x1="581.5" x2="581.5" y1="583.4883" y2="603.9766"/><line style="stroke:#000000;stroke-width:1.0;" x1="477.5" x2="641.5" y1="603.9766" y2="603.9766"/><text fill="#000000" font-family="sans-serif" font-size="14" font-weight="bold" lengthAdjust="spacing" textLength="94" x="482.5" y="619.5117">ratio_percent</text><text fill="#000000" font-family="sans-serif" font-size="14" lengthAdjust="spacing" textLength="31" x="586.5" y="619.5117">10.0</text><line style="stroke:#000000;stroke-width:1.0;" x1="581.5" x2="581.5" y1="603.9766" y2="624.4648"/><rect fill="none" height="61.4648" rx="5" ry="5" style="stroke:#000000;stroke-width:1.5;" width="164" x="477.5" y="563"/><rect fill="#F1F1F1" height="61.4648" rx="5" ry="5" style="stroke:#F1F1F1;stroke-width:1.5;" width="166" x="476.5" y="642"/><text fill="#000000" font-family="sans-serif" font-size="14" font-weight="bold" lengthAdjust="spacing" textLength="78" x="481.5" y="657.5352">field_value</text><text fill="#000000" font-family="sans-serif" font-size="14" lengthAdjust="spacing" textLength="52" x="585.5" y="657.5352">Canada</text><line style="stroke:#000000;stroke-width:1.0;" x1="580.5" x2="580.5" y1="642" y2="662.4883"/><line style="stroke:#000000;stroke-width:1.0;" x1="476.5" x2="642.5" y1="662.4883" y2="662.4883"/><text fill="#000000" font-family="sans-serif" font-size="14" font-weight="bold" lengthAdjust="spacing" textLength="74" x="481.5" y="678.0234">row_count</text><text fill="#000000" font-family="sans-serif" font-size="14" lengthAdjust="spacing" textLength="9" x="585.5" y="678.0234">1</text><line style="stroke:#000000;stroke-width:1.0;" x1="580.5" x2="580.5" y1="662.4883" y2="682.9766"/><line style="stroke:#000000;stroke-width:1.0;" x1="476.5" x2="642.5" y1="682.9766" y2="682.9766"/><text fill="#000000" font-family="sans-serif" font-size="14" font-weight="bold" lengthAdjust="spacing" textLength="94" x="481.5" y="698.5117">ratio_percent</text><text fill="#000000" font-family="sans-serif" font-size="14" lengthAdjust="spacing" textLength="31" x="585.5" y="698.5117">10.0</text><line style="stroke:#000000;stroke-width:1.0;" x1="580.5" x2="580.5" y1="682.9766" y2="703.4648"/><rect fill="none" height="61.4648" rx="5" ry="5" style="stroke:#000000;stroke-width:1.5;" width="166" x="476.5" y="642"/><rect fill="#F1F1F1" height="61.4648" rx="5" ry="5" style="stroke:#F1F1F1;stroke-width:1.5;" width="175" x="472" y="721"/><text fill="#000000" font-family="sans-serif" font-size="14" font-weight="bold" lengthAdjust="spacing" textLength="78" x="477" y="736.5352">field_value</text><text fill="#000000" font-family="sans-serif" font-size="14" lengthAdjust="spacing" textLength="61" x="581" y="736.5352">Australia</text><line style="stroke:#000000;stroke-width:1.0;" x1="576" x2="576" y1="721" y2="741.4883"/><line style="stroke:#000000;stroke-width:1.0;" x1="472" x2="647" y1="741.4883" y2="741.4883"/><text fill="#000000" font-family="sans-serif" font-size="14" font-weight="bold" lengthAdjust="spacing" textLength="74" x="477" y="757.0234">row_count</text><text fill="#000000" font-family="sans-serif" font-size="14" lengthAdjust="spacing" textLength="9" x="581" y="757.0234">1</text><line style="stroke:#000000;stroke-width:1.0;" x1="576" x2="576" y1="741.4883" y2="761.9766"/><line style="stroke:#000000;stroke-width:1.0;" x1="472" x2="647" y1="761.9766" y2="761.9766"/><text fill="#000000" font-family="sans-serif" font-size="14" font-weight="bold" lengthAdjust="spacing" textLength="94" x="477" y="777.5117">ratio_percent</text><text fill="#000000" font-family="sans-serif" font-size="14" lengthAdjust="spacing" textLength="31" x="581" y="777.5117">10.0</text><line style="stroke:#000000;stroke-width:1.0;" x1="576" x2="576" y1="761.9766" y2="782.4648"/><rect fill="none" height="61.4648" rx="5" ry="5" style="stroke:#000000;stroke-width:1.5;" width="175" x="472" y="721"/><path d="M181,315.5 L194,315.5 C214.8273,315.5 211.8137,295.6507 230,285.5 C234.038,283.2462 238.2733,281.1247 242.6133,279.1338 " fill="none" style="stroke:#000000;stroke-width:1.0;stroke-dasharray:3.0,3.0;"/><path d="M243.8219,281.8909 L244.6812,278.2274 L241.4048,276.3766 L249.5062,276.1124 L243.8219,281.8909 " fill="#000000" style="stroke:#000000;stroke-width:1.0;"/><ellipse cx="181" cy="315.5" fill="#000000" rx="3" ry="3" style="stroke:#000000;stroke-width:1.0;"/><path d="M320.5,303.5 L333.5,303.5 C368.8613,303.5 386.6954,311.1847 411,285.5 C474.8819,217.9906 386.8149,150.325 447,79.5 C447.8708,78.4753 448.7701,77.4774 449.6958,76.5058 " fill="none" style="stroke:#000000;stroke-width:1.0;stroke-dasharray:3.0,3.0;"/><path d="M451.8091,78.7366 L451.3688,74.9208 L447.5824,74.275 L455.2727,71.2225 L451.8091,78.7366 " fill="#000000" style="stroke:#000000;stroke-width:1.0;"/><ellipse cx="320.5" cy="303.5" fill="#000000" rx="3" ry="3" style="stroke:#000000;stroke-width:1.0;"/><path d="M320.5,324.5 L333.5,324.5 C372.0599,324.5 386.4435,315.2295 411,285.5 C448.3625,240.267 406.754,201.1876 447,158.5 C451.1711,154.0759 455.8702,150.1535 460.9201,146.6759 " fill="none" style="stroke:#000000;stroke-width:1.0;stroke-dasharray:3.0,3.0;"/><path d="M462.5886,149.3042 L462.8913,145.4245 L459.2516,144.0476 L467.4909,142.5046 L462.5886,149.3042 " fill="#000000" style="stroke:#000000;stroke-width:1.0;"/><ellipse cx="320.5" cy="324.5" fill="#000000" rx="3" ry="3" style="stroke:#000000;stroke-width:1.0;"/><path d="M320.5,344.5 L333.5,344.5 C376.79,344.5 380.4995,316.2205 411,285.5 C429.7883,266.5762 425.4713,253.2361 447,237.5 C451.7335,234.0401 456.7998,230.8674 462.0662,227.9607 " fill="none" style="stroke:#000000;stroke-width:1.0;stroke-dasharray:3.0,3.0;"/><path d="M463.4826,230.6679 L464.0966,226.8984 L460.6498,225.2535 L468.8341,224.4197 L463.4826,230.6679 " fill="#000000" style="stroke:#000000;stroke-width:1.0;"/><ellipse cx="320.5" cy="344.5" fill="#000000" rx="3" ry="3" style="stroke:#000000;stroke-width:1.0;"/><path d="M320.5,365.5 L333.5,365.5 C388.27,365.5 395.9674,337.3853 447,317.5 C452.8076,315.237 458.8029,312.9515 464.8609,310.6803 " fill="none" style="stroke:#000000;stroke-width:1.0;stroke-dasharray:3.0,3.0;"/><path d="M465.9239,313.5335 L467.0007,309.8831 L463.7979,307.8272 L471.9937,308.0229 L465.9239,313.5335 " fill="#000000" style="stroke:#000000;stroke-width:1.0;"/><ellipse cx="320.5" cy="365.5" fill="#000000" rx="3" ry="3" style="stroke:#000000;stroke-width:1.0;"/><path d="M320.5,385.5 L333.5,385.5 C375.6854,385.5 421.95,380.4456 461.5354,374.557 " fill="none" style="stroke:#000000;stroke-width:1.0;stroke-dasharray:3.0,3.0;"/><path d="M462.0104,377.6869 L463.8828,374.2007 L461.0603,371.4271 L469.3602,373.3694 L462.0104,377.6869 " fill="#000000" style="stroke:#000000;stroke-width:1.0;"/><ellipse cx="320.5" cy="385.5" fill="#000000" rx="3" ry="3" style="stroke:#000000;stroke-width:1.0;"/><path d="M320.5,406.5 L333.5,406.5 C376.883,406.5 424.5802,411.8455 464.8905,417.9464 " fill="none" style="stroke:#000000;stroke-width:1.0;stroke-dasharray:3.0,3.0;"/><path d="M464.4317,420.9217 L467.1219,418.2905 L465.3492,414.9712 L472.3286,419.0933 L464.4317,420.9217 " fill="#000000" style="stroke:#000000;stroke-width:1.0;"/><ellipse cx="320.5" cy="406.5" fill="#000000" rx="3" ry="3" style="stroke:#000000;stroke-width:1.0;"/><path d="M320.5,427.5 L333.5,427.5 C388.27,427.5 395.8888,455.8174 447,475.5 C455.2561,478.6794 463.8959,481.8901 472.5582,485.0323 " fill="none" style="stroke:#000000;stroke-width:1.0;stroke-dasharray:3.0,3.0;"/><path d="M471.5098,487.9417 L474.7403,485.8186 L473.6066,482.1228 L479.8318,487.6533 L471.5098,487.9417 " fill="#000000" style="stroke:#000000;stroke-width:1.0;"/><ellipse cx="320.5" cy="427.5" fill="#000000" rx="3" ry="3" style="stroke:#000000;stroke-width:1.0;"/><path d="M320.5,447.5 L333.5,447.5 C402.8266,447.5 387.7351,518.5299 447,554.5 C454.4943,559.0486 462.5939,563.163 470.8901,566.8617 " fill="none" style="stroke:#000000;stroke-width:1.0;stroke-dasharray:3.0,3.0;"/><path d="M469.6863,569.6642 L472.992,567.7646 L472.094,564.0593 L477.8963,569.8714 L469.6863,569.6642 " fill="#000000" style="stroke:#000000;stroke-width:1.0;"/><ellipse cx="320.5" cy="447.5" fill="#000000" rx="3" ry="3" style="stroke:#000000;stroke-width:1.0;"/><path d="M320.5,468.5 L333.5,468.5 C422.508,468.5 376.2321,579.5155 447,633.5 C454.0341,638.8659 461.8622,643.5292 470.0196,647.5746 " fill="none" style="stroke:#000000;stroke-width:1.0;stroke-dasharray:3.0,3.0;"/><path d="M468.7177,650.3424 L472.0955,648.551 L471.3215,644.8068 L476.9391,650.8293 L468.7177,650.3424 " fill="#000000" style="stroke:#000000;stroke-width:1.0;"/><ellipse cx="320.5" cy="468.5" fill="#000000" rx="3" ry="3" style="stroke:#000000;stroke-width:1.0;"/><path d="M320.5,488.5 L333.5,488.5 C445.1062,488.5 362.9794,639.0392 447,712.5 C452.6383,717.4297 458.9355,721.7458 465.5906,725.5233 " fill="none" style="stroke:#000000;stroke-width:1.0;stroke-dasharray:3.0,3.0;"/><path d="M464.1503,728.2286 L467.6196,726.6035 L467.0309,722.818 L472.3538,729.1239 L464.1503,728.2286 " fill="#000000" style="stroke:#000000;stroke-width:1.0;"/><ellipse cx="320.5" cy="488.5" fill="#000000" rx="3" ry="3" style="stroke:#000000;stroke-width:1.0;"/><path d="M181,336.5 L194,336.5 C236.1629,336.5 279.1866,364.4055 302.2874,382.1547 " fill="none" style="stroke:#000000;stroke-width:1.0;stroke-dasharray:3.0,3.0;"/><path d="M300.4053,384.5427 L304.0784,383.5663 L304.1695,379.7667 L308.2574,386.86 L300.4053,384.5427 " fill="#000000" style="stroke:#000000;stroke-width:1.0;"/><ellipse cx="181" cy="336.5" fill="#000000" rx="3" ry="3" style="stroke:#000000;stroke-width:1.0;"/><!--MD5=[d1e4bec00a7644bdb04ac1d1e998f30c]
@startjson
{
    "field1": "Name",
    "combination": "Name",
    "null_distribution": {
        "total_null_rows": 0,
        "total_not_null_rows": 10
    },
    "data_distribution": [
        {
            "field_value": "United Kingdom",
            "row_count": 1,
            "ratio_percent": 10.0
        },
        {
            "field_value": "Southwest",
            "row_count": 1,
            "ratio_percent": 10.0
        },
        {
            "field_value": "Southeast",
            "row_count": 1,
            "ratio_percent": 10.0
        },
        {
            "field_value": "Northwest",
            "row_count": 1,
            "ratio_percent": 10.0
        },
        {
            "field_value": "Northeast",
            "row_count": 1,
            "ratio_percent": 10.0
        },
        {
            "field_value": "Germany",
            "row_count": 1,
            "ratio_percent": 10.0
        },
        {
            "field_value": "France",
            "row_count": 1,
            "ratio_percent": 10.0
        },
        {
            "field_value": "Central",
            "row_count": 1,
            "ratio_percent": 10.0
        },
        {
            "field_value": "Canada",
            "row_count": 1,
            "ratio_percent": 10.0
        },
        {
            "field_value": "Australia",
            "row_count": 1,
            "ratio_percent": 10.0
        }
    ]
}
@endjson

PlantUML version 1.2022.5(Sat Apr 30 06:55:52 EDT 2022)
(GPL source distribution)
Java Runtime: OpenJDK Runtime Environment
JVM: OpenJDK 64-Bit Server VM
Default Encoding: UTF-8
Language: en
Country: CA
--></g></svg>