<?xml version="1.0" encoding="UTF-8" standalone="no"?><svg xmlns="http://www.w3.org/2000/svg" xmlns:xlink="http://www.w3.org/1999/xlink" contentStyleType="text/css" height="794px" preserveAspectRatio="none" style="width:902px;height:794px;background:#FFFFFF;" version="1.1" viewBox="0 0 902 794" width="902px" zoomAndPan="magnify"><defs/><g><rect fill="#F1F1F1" height="81.9531" rx="5" ry="5" style="stroke:#F1F1F1;stroke-width:1.5;" width="301" x="10" y="264.5"/><text fill="#000000" font-family="sans-serif" font-size="14" font-weight="bold" lengthAdjust="spacing" textLength="42" x="15" y="280.0352">field1</text><text fill="#000000" font-family="sans-serif" font-size="14" lengthAdjust="spacing" textLength="157" x="149" y="280.0352">PurchaseOrderNumber</text><line style="stroke:#000000;stroke-width:1.0;" x1="144" x2="144" y1="264.5" y2="284.9883"/><line style="stroke:#000000;stroke-width:1.0;" x1="10" x2="311" y1="284.9883" y2="284.9883"/><text fill="#000000" font-family="sans-serif" font-size="14" font-weight="bold" lengthAdjust="spacing" textLength="90" x="15" y="300.5234">combination</text><text fill="#000000" font-family="sans-serif" font-size="14" lengthAdjust="spacing" textLength="157" x="149" y="300.5234">PurchaseOrderNumber</text><line style="stroke:#000000;stroke-width:1.0;" x1="144" x2="144" y1="284.9883" y2="305.4766"/><line style="stroke:#000000;stroke-width:1.0;" x1="10" x2="311" y1="305.4766" y2="305.4766"/><text fill="#000000" font-family="sans-serif" font-size="14" font-weight="bold" lengthAdjust="spacing" textLength="121" x="15" y="321.0117">null_distribution</text><text fill="#000000" font-family="sans-serif" font-size="14" lengthAdjust="spacing" textLength="12" x="149" y="321.0117">   </text><line style="stroke:#000000;stroke-width:1.0;" x1="144" x2="144" y1="305.4766" y2="325.9648"/><line style="stroke:#000000;stroke-width:1.0;" x1="10" x2="311" y1="325.9648" y2="325.9648"/><text fill="#000000" font-family="sans-serif" font-size="14" font-weight="bold" lengthAdjust="spacing" textLength="124" x="15" y="341.5">data_distribution</text><text fill="#000000" font-family="sans-serif" font-size="14" lengthAdjust="spacing" textLength="12" x="149" y="341.5">   </text><line style="stroke:#000000;stroke-width:1.0;" x1="144" x2="144" y1="325.9648" y2="346.4531"/><rect fill="none" height="81.9531" rx="5" ry="5" style="stroke:#000000;stroke-width:1.5;" width="301" x="10" y="264.5"/><rect fill="#F1F1F1" height="40.9766" rx="5" ry="5" style="stroke:#F1F1F1;stroke-width:1.5;" width="207" x="348" y="235"/><text fill="#000000" font-family="sans-serif" font-size="14" font-weight="bold" lengthAdjust="spacing" textLength="111" x="353" y="250.5352">total_null_rows</text><text fill="#000000" font-family="sans-serif" font-size="14" lengthAdjust="spacing" textLength="45" x="505" y="250.5352">27659</text><line style="stroke:#000000;stroke-width:1.0;" x1="500" x2="500" y1="235" y2="255.4883"/><line style="stroke:#000000;stroke-width:1.0;" x1="348" x2="555" y1="255.4883" y2="255.4883"/><text fill="#000000" font-family="sans-serif" font-size="14" font-weight="bold" lengthAdjust="spacing" textLength="142" x="353" y="271.0234">total_not_null_rows</text><text fill="#000000" font-family="sans-serif" font-size="14" lengthAdjust="spacing" textLength="36" x="505" y="271.0234">3806</text><line style="stroke:#000000;stroke-width:1.0;" x1="500" x2="500" y1="255.4883" y2="275.9766"/><rect fill="none" height="40.9766" rx="5" ry="5" style="stroke:#000000;stroke-width:1.5;" width="207" x="348" y="235"/><rect fill="#F1F1F1" height="204.8828" rx="5" ry="5" style="stroke:#F1F1F1;stroke-width:1.5;" width="22" x="439.5" y="294"/><text fill="#000000" font-family="sans-serif" font-size="14" lengthAdjust="spacing" textLength="12" x="444.5" y="309.5352">   </text><line style="stroke:#000000;stroke-width:1.0;" x1="439.5" x2="461.5" y1="314.4883" y2="314.4883"/><text fill="#000000" font-family="sans-serif" font-size="14" lengthAdjust="spacing" textLength="12" x="444.5" y="330.0234">   </text><line style="stroke:#000000;stroke-width:1.0;" x1="439.5" x2="461.5" y1="334.9766" y2="334.9766"/><text fill="#000000" font-family="sans-serif" font-size="14" lengthAdjust="spacing" textLength="12" x="444.5" y="350.5117">   </text><line style="stroke:#000000;stroke-width:1.0;" x1="439.5" x2="461.5" y1="355.4648" y2="355.4648"/><text fill="#000000" font-family="sans-serif" font-size="14" lengthAdjust="spacing" textLength="12" x="444.5" y="371">   </text><line style="stroke:#000000;stroke-width:1.0;" x1="439.5" x2="461.5" y1="375.9531" y2="375.9531"/><text fill="#000000" font-family="sans-serif" font-size="14" lengthAdjust="spacing" textLength="12" x="444.5" y="391.4883">   </text><line style="stroke:#000000;stroke-width:1.0;" x1="439.5" x2="461.5" y1="396.4414" y2="396.4414"/><text fill="#000000" font-family="sans-serif" font-size="14" lengthAdjust="spacing" textLength="12" x="444.5" y="411.9766">   </text><line style="stroke:#000000;stroke-width:1.0;" x1="439.5" x2="461.5" y1="416.9297" y2="416.9297"/><text fill="#000000" font-family="sans-serif" font-size="14" lengthAdjust="spacing" textLength="12" x="444.5" y="432.4648">   </text><line style="stroke:#000000;stroke-width:1.0;" x1="439.5" x2="461.5" y1="437.418" y2="437.418"/><text fill="#000000" font-family="sans-serif" font-size="14" lengthAdjust="spacing" textLength="12" x="444.5" y="452.9531">   </text><line style="stroke:#000000;stroke-width:1.0;" x1="439.5" x2="461.5" y1="457.9063" y2="457.9063"/><text fill="#000000" font-family="sans-serif" font-size="14" lengthAdjust="spacing" textLength="12" x="444.5" y="473.4414">   </text><line style="stroke:#000000;stroke-width:1.0;" x1="439.5" x2="461.5" y1="478.3945" y2="478.3945"/><text fill="#000000" font-family="sans-serif" font-size="14" lengthAdjust="spacing" textLength="12" x="444.5" y="493.9297">   </text><rect fill="none" height="204.8828" rx="5" ry="5" style="stroke:#000000;stroke-width:1.5;" width="22" x="439.5" y="294"/><rect fill="#F1F1F1" height="61.4648" rx="5" ry="5" style="stroke:#F1F1F1;stroke-width:1.5;" width="262" x="610" y="10"/><text fill="#000000" font-family="sans-serif" font-size="14" font-weight="bold" lengthAdjust="spacing" textLength="78" x="615" y="25.5352">field_value</text><text fill="#000000" font-family="sans-serif" font-size="14" font-weight="bold" lengthAdjust="spacing" textLength="37" x="719" y="25.5352">NULL</text><line style="stroke:#000000;stroke-width:1.0;" x1="714" x2="714" y1="10" y2="30.4883"/><line style="stroke:#000000;stroke-width:1.0;" x1="610" x2="872" y1="30.4883" y2="30.4883"/><text fill="#000000" font-family="sans-serif" font-size="14" font-weight="bold" lengthAdjust="spacing" textLength="74" x="615" y="46.0234">row_count</text><text fill="#000000" font-family="sans-serif" font-size="14" lengthAdjust="spacing" textLength="45" x="719" y="46.0234">27659</text><line style="stroke:#000000;stroke-width:1.0;" x1="714" x2="714" y1="30.4883" y2="50.9766"/><line style="stroke:#000000;stroke-width:1.0;" x1="610" x2="872" y1="50.9766" y2="50.9766"/><text fill="#000000" font-family="sans-serif" font-size="14" font-weight="bold" lengthAdjust="spacing" textLength="94" x="615" y="66.5117">ratio_percent</text><text fill="#000000" font-family="sans-serif" font-size="14" lengthAdjust="spacing" textLength="148" x="719" y="66.5117">87.90402034006038</text><line style="stroke:#000000;stroke-width:1.0;" x1="714" x2="714" y1="50.9766" y2="71.4648"/><rect fill="none" height="61.4648" rx="5" ry="5" style="stroke:#000000;stroke-width:1.5;" width="262" x="610" y="10"/><rect fill="#F1F1F1" height="61.4648" rx="5" ry="5" style="stroke:#F1F1F1;stroke-width:1.5;" width="298" x="592" y="89"/><text fill="#000000" font-family="sans-serif" font-size="14" font-weight="bold" lengthAdjust="spacing" textLength="78" x="597" y="104.5352">field_value</text><text fill="#000000" font-family="sans-serif" font-size="14" lengthAdjust="spacing" textLength="118" x="701" y="104.5352">PO10092115747</text><line style="stroke:#000000;stroke-width:1.0;" x1="696" x2="696" y1="89" y2="109.4883"/><line style="stroke:#000000;stroke-width:1.0;" x1="592" x2="890" y1="109.4883" y2="109.4883"/><text fill="#000000" font-family="sans-serif" font-size="14" font-weight="bold" lengthAdjust="spacing" textLength="74" x="597" y="125.0234">row_count</text><text fill="#000000" font-family="sans-serif" font-size="14" lengthAdjust="spacing" textLength="9" x="701" y="125.0234">1</text><line style="stroke:#000000;stroke-width:1.0;" x1="696" x2="696" y1="109.4883" y2="129.9766"/><line style="stroke:#000000;stroke-width:1.0;" x1="592" x2="890" y1="129.9766" y2="129.9766"/><text fill="#000000" font-family="sans-serif" font-size="14" font-weight="bold" lengthAdjust="spacing" textLength="94" x="597" y="145.5117">ratio_percent</text><text fill="#000000" font-family="sans-serif" font-size="14" lengthAdjust="spacing" textLength="184" x="701" y="145.5117">0.0031781344350866043</text><line style="stroke:#000000;stroke-width:1.0;" x1="696" x2="696" y1="129.9766" y2="150.4648"/><rect fill="none" height="61.4648" rx="5" ry="5" style="stroke:#000000;stroke-width:1.5;" width="298" x="592" y="89"/><rect fill="#F1F1F1" height="61.4648" rx="5" ry="5" style="stroke:#F1F1F1;stroke-width:1.5;" width="298" x="592" y="168"/><text fill="#000000" font-family="sans-serif" font-size="14" font-weight="bold" lengthAdjust="spacing" textLength="78" x="597" y="183.5352">field_value</text><text fill="#000000" font-family="sans-serif" font-size="14" lengthAdjust="spacing" textLength="118" x="701" y="183.5352">PO10063194196</text><line style="stroke:#000000;stroke-width:1.0;" x1="696" x2="696" y1="168" y2="188.4883"/><line style="stroke:#000000;stroke-width:1.0;" x1="592" x2="890" y1="188.4883" y2="188.4883"/><text fill="#000000" font-family="sans-serif" font-size="14" font-weight="bold" lengthAdjust="spacing" textLength="74" x="597" y="204.0234">row_count</text><text fill="#000000" font-family="sans-serif" font-size="14" lengthAdjust="spacing" textLength="9" x="701" y="204.0234">1</text><line style="stroke:#000000;stroke-width:1.0;" x1="696" x2="696" y1="188.4883" y2="208.9766"/><line style="stroke:#000000;stroke-width:1.0;" x1="592" x2="890" y1="208.9766" y2="208.9766"/><text fill="#000000" font-family="sans-serif" font-size="14" font-weight="bold" lengthAdjust="spacing" textLength="94" x="597" y="224.5117">ratio_percent</text><text fill="#000000" font-family="sans-serif" font-size="14" lengthAdjust="spacing" textLength="184" x="701" y="224.5117">0.0031781344350866043</text><line style="stroke:#000000;stroke-width:1.0;" x1="696" x2="696" y1="208.9766" y2="229.4648"/><rect fill="none" height="61.4648" rx="5" ry="5" style="stroke:#000000;stroke-width:1.5;" width="298" x="592" y="168"/><rect fill="#F1F1F1" height="61.4648" rx="5" ry="5" style="stroke:#F1F1F1;stroke-width:1.5;" width="298" x="592" y="247"/><text fill="#000000" font-family="sans-serif" font-size="14" font-weight="bold" lengthAdjust="spacing" textLength="78" x="597" y="262.5352">field_value</text><text fill="#000000" font-family="sans-serif" font-size="14" lengthAdjust="spacing" textLength="118" x="701" y="262.5352">PO10063170594</text><line style="stroke:#000000;stroke-width:1.0;" x1="696" x2="696" y1="247" y2="267.4883"/><line style="stroke:#000000;stroke-width:1.0;" x1="592" x2="890" y1="267.4883" y2="267.4883"/><text fill="#000000" font-family="sans-serif" font-size="14" font-weight="bold" lengthAdjust="spacing" textLength="74" x="597" y="283.0234">row_count</text><text fill="#000000" font-family="sans-serif" font-size="14" lengthAdjust="spacing" textLength="9" x="701" y="283.0234">1</text><line style="stroke:#000000;stroke-width:1.0;" x1="696" x2="696" y1="267.4883" y2="287.9766"/><line style="stroke:#000000;stroke-width:1.0;" x1="592" x2="890" y1="287.9766" y2="287.9766"/><text fill="#000000" font-family="sans-serif" font-size="14" font-weight="bold" lengthAdjust="spacing" textLength="94" x="597" y="303.5117">ratio_percent</text><text fill="#000000" font-family="sans-serif" font-size="14" lengthAdjust="spacing" textLength="184" x="701" y="303.5117">0.0031781344350866043</text><line style="stroke:#000000;stroke-width:1.0;" x1="696" x2="696" y1="287.9766" y2="308.4648"/><rect fill="none" height="61.4648" rx="5" ry="5" style="stroke:#000000;stroke-width:1.5;" width="298" x="592" y="247"/><rect fill="#F1F1F1" height="61.4648" rx="5" ry="5" style="stroke:#F1F1F1;stroke-width:1.5;" width="298" x="592" y="326"/><text fill="#000000" font-family="sans-serif" font-size="14" font-weight="bold" lengthAdjust="spacing" textLength="78" x="597" y="341.5352">field_value</text><text fill="#000000" font-family="sans-serif" font-size="14" lengthAdjust="spacing" textLength="118" x="701" y="341.5352">PO10063115282</text><line style="stroke:#000000;stroke-width:1.0;" x1="696" x2="696" y1="326" y2="346.4883"/><line style="stroke:#000000;stroke-width:1.0;" x1="592" x2="890" y1="346.4883" y2="346.4883"/><text fill="#000000" font-family="sans-serif" font-size="14" font-weight="bold" lengthAdjust="spacing" textLength="74" x="597" y="362.0234">row_count</text><text fill="#000000" font-family="sans-serif" font-size="14" lengthAdjust="spacing" textLength="9" x="701" y="362.0234">1</text><line style="stroke:#000000;stroke-width:1.0;" x1="696" x2="696" y1="346.4883" y2="366.9766"/><line style="stroke:#000000;stroke-width:1.0;" x1="592" x2="890" y1="366.9766" y2="366.9766"/><text fill="#000000" font-family="sans-serif" font-size="14" font-weight="bold" lengthAdjust="spacing" textLength="94" x="597" y="382.5117">ratio_percent</text><text fill="#000000" font-family="sans-serif" font-size="14" lengthAdjust="spacing" textLength="184" x="701" y="382.5117">0.0031781344350866043</text><line style="stroke:#000000;stroke-width:1.0;" x1="696" x2="696" y1="366.9766" y2="387.4648"/><rect fill="none" height="61.4648" rx="5" ry="5" style="stroke:#000000;stroke-width:1.5;" width="298" x="592" y="326"/><rect fill="#F1F1F1" height="61.4648" rx="5" ry="5" style="stroke:#F1F1F1;stroke-width:1.5;" width="298" x="592" y="405"/><text fill="#000000" font-family="sans-serif" font-size="14" font-weight="bold" lengthAdjust="spacing" textLength="78" x="597" y="420.5352">field_value</text><text fill="#000000" font-family="sans-serif" font-size="14" lengthAdjust="spacing" textLength="118" x="701" y="420.5352">PO10034199265</text><line style="stroke:#000000;stroke-width:1.0;" x1="696" x2="696" y1="405" y2="425.4883"/><line style="stroke:#000000;stroke-width:1.0;" x1="592" x2="890" y1="425.4883" y2="425.4883"/><text fill="#000000" font-family="sans-serif" font-size="14" font-weight="bold" lengthAdjust="spacing" textLength="74" x="597" y="441.0234">row_count</text><text fill="#000000" font-family="sans-serif" font-size="14" lengthAdjust="spacing" textLength="9" x="701" y="441.0234">1</text><line style="stroke:#000000;stroke-width:1.0;" x1="696" x2="696" y1="425.4883" y2="445.9766"/><line style="stroke:#000000;stroke-width:1.0;" x1="592" x2="890" y1="445.9766" y2="445.9766"/><text fill="#000000" font-family="sans-serif" font-size="14" font-weight="bold" lengthAdjust="spacing" textLength="94" x="597" y="461.5117">ratio_percent</text><text fill="#000000" font-family="sans-serif" font-size="14" lengthAdjust="spacing" textLength="184" x="701" y="461.5117">0.0031781344350866043</text><line style="stroke:#000000;stroke-width:1.0;" x1="696" x2="696" y1="445.9766" y2="466.4648"/><rect fill="none" height="61.4648" rx="5" ry="5" style="stroke:#000000;stroke-width:1.5;" width="298" x="592" y="405"/><rect fill="#F1F1F1" height="61.4648" rx="5" ry="5" style="stroke:#F1F1F1;stroke-width:1.5;" width="298" x="592" y="484"/><text fill="#000000" font-family="sans-serif" font-size="14" font-weight="bold" lengthAdjust="spacing" textLength="78" x="597" y="499.5352">field_value</text><text fill="#000000" font-family="sans-serif" font-size="14" lengthAdjust="spacing" textLength="118" x="701" y="499.5352">PO10034147207</text><line style="stroke:#000000;stroke-width:1.0;" x1="696" x2="696" y1="484" y2="504.4883"/><line style="stroke:#000000;stroke-width:1.0;" x1="592" x2="890" y1="504.4883" y2="504.4883"/><text fill="#000000" font-family="sans-serif" font-size="14" font-weight="bold" lengthAdjust="spacing" textLength="74" x="597" y="520.0234">row_count</text><text fill="#000000" font-family="sans-serif" font-size="14" lengthAdjust="spacing" textLength="9" x="701" y="520.0234">1</text><line style="stroke:#000000;stroke-width:1.0;" x1="696" x2="696" y1="504.4883" y2="524.9766"/><line style="stroke:#000000;stroke-width:1.0;" x1="592" x2="890" y1="524.9766" y2="524.9766"/><text fill="#000000" font-family="sans-serif" font-size="14" font-weight="bold" lengthAdjust="spacing" textLength="94" x="597" y="540.5117">ratio_percent</text><text fill="#000000" font-family="sans-serif" font-size="14" lengthAdjust="spacing" textLength="184" x="701" y="540.5117">0.0031781344350866043</text><line style="stroke:#000000;stroke-width:1.0;" x1="696" x2="696" y1="524.9766" y2="545.4648"/><rect fill="none" height="61.4648" rx="5" ry="5" style="stroke:#000000;stroke-width:1.5;" width="298" x="592" y="484"/><rect fill="#F1F1F1" height="61.4648" rx="5" ry="5" style="stroke:#F1F1F1;stroke-width:1.5;" width="298" x="592" y="563"/><text fill="#000000" font-family="sans-serif" font-size="14" font-weight="bold" lengthAdjust="spacing" textLength="78" x="597" y="578.5352">field_value</text><text fill="#000000" font-family="sans-serif" font-size="14" lengthAdjust="spacing" textLength="118" x="701" y="578.5352">PO10034135364</text><line style="stroke:#000000;stroke-width:1.0;" x1="696" x2="696" y1="563" y2="583.4883"/><line style="stroke:#000000;stroke-width:1.0;" x1="592" x2="890" y1="583.4883" y2="583.4883"/><text fill="#000000" font-family="sans-serif" font-size="14" font-weight="bold" lengthAdjust="spacing" textLength="74" x="597" y="599.0234">row_count</text><text fill="#000000" font-family="sans-serif" font-size="14" lengthAdjust="spacing" textLength="9" x="701" y="599.0234">1</text><line style="stroke:#000000;stroke-width:1.0;" x1="696" x2="696" y1="583.4883" y2="603.9766"/><line style="stroke:#000000;stroke-width:1.0;" x1="592" x2="890" y1="603.9766" y2="603.9766"/><text fill="#000000" font-family="sans-serif" font-size="14" font-weight="bold" lengthAdjust="spacing" textLength="94" x="597" y="619.5117">ratio_percent</text><text fill="#000000" font-family="sans-serif" font-size="14" lengthAdjust="spacing" textLength="184" x="701" y="619.5117">0.0031781344350866043</text><line style="stroke:#000000;stroke-width:1.0;" x1="696" x2="696" y1="603.9766" y2="624.4648"/><rect fill="none" height="61.4648" rx="5" ry="5" style="stroke:#000000;stroke-width:1.5;" width="298" x="592" y="563"/><rect fill="#F1F1F1" height="61.4648" rx="5" ry="5" style="stroke:#F1F1F1;stroke-width:1.5;" width="298" x="592" y="642"/><text fill="#000000" font-family="sans-serif" font-size="14" font-weight="bold" lengthAdjust="spacing" textLength="78" x="597" y="657.5352">field_value</text><text fill="#000000" font-family="sans-serif" font-size="14" lengthAdjust="spacing" textLength="118" x="701" y="657.5352">PO10034131333</text><line style="stroke:#000000;stroke-width:1.0;" x1="696" x2="696" y1="642" y2="662.4883"/><line style="stroke:#000000;stroke-width:1.0;" x1="592" x2="890" y1="662.4883" y2="662.4883"/><text fill="#000000" font-family="sans-serif" font-size="14" font-weight="bold" lengthAdjust="spacing" textLength="74" x="597" y="678.0234">row_count</text><text fill="#000000" font-family="sans-serif" font-size="14" lengthAdjust="spacing" textLength="9" x="701" y="678.0234">1</text><line style="stroke:#000000;stroke-width:1.0;" x1="696" x2="696" y1="662.4883" y2="682.9766"/><line style="stroke:#000000;stroke-width:1.0;" x1="592" x2="890" y1="682.9766" y2="682.9766"/><text fill="#000000" font-family="sans-serif" font-size="14" font-weight="bold" lengthAdjust="spacing" textLength="94" x="597" y="698.5117">ratio_percent</text><text fill="#000000" font-family="sans-serif" font-size="14" lengthAdjust="spacing" textLength="184" x="701" y="698.5117">0.0031781344350866043</text><line style="stroke:#000000;stroke-width:1.0;" x1="696" x2="696" y1="682.9766" y2="703.4648"/><rect fill="none" height="61.4648" rx="5" ry="5" style="stroke:#000000;stroke-width:1.5;" width="298" x="592" y="642"/><rect fill="#F1F1F1" height="61.4648" rx="5" ry="5" style="stroke:#F1F1F1;stroke-width:1.5;" width="298" x="592" y="721"/><text fill="#000000" font-family="sans-serif" font-size="14" font-weight="bold" lengthAdjust="spacing" textLength="78" x="597" y="736.5352">field_value</text><text fill="#000000" font-family="sans-serif" font-size="14" lengthAdjust="spacing" textLength="118" x="701" y="736.5352">PO10005156366</text><line style="stroke:#000000;stroke-width:1.0;" x1="696" x2="696" y1="721" y2="741.4883"/><line style="stroke:#000000;stroke-width:1.0;" x1="592" x2="890" y1="741.4883" y2="741.4883"/><text fill="#000000" font-family="sans-serif" font-size="14" font-weight="bold" lengthAdjust="spacing" textLength="74" x="597" y="757.0234">row_count</text><text fill="#000000" font-family="sans-serif" font-size="14" lengthAdjust="spacing" textLength="9" x="701" y="757.0234">1</text><line style="stroke:#000000;stroke-width:1.0;" x1="696" x2="696" y1="741.4883" y2="761.9766"/><line style="stroke:#000000;stroke-width:1.0;" x1="592" x2="890" y1="761.9766" y2="761.9766"/><text fill="#000000" font-family="sans-serif" font-size="14" font-weight="bold" lengthAdjust="spacing" textLength="94" x="597" y="777.5117">ratio_percent</text><text fill="#000000" font-family="sans-serif" font-size="14" lengthAdjust="spacing" textLength="184" x="701" y="777.5117">0.0031781344350866043</text><line style="stroke:#000000;stroke-width:1.0;" x1="696" x2="696" y1="761.9766" y2="782.4648"/><rect fill="none" height="61.4648" rx="5" ry="5" style="stroke:#000000;stroke-width:1.5;" width="298" x="592" y="721"/><path d="M299,315.5 L312,315.5 C332.8273,315.5 329.6143,295.285 348,285.5 C352.4187,283.1484 357.0447,280.9598 361.7859,278.9261 " fill="none" style="stroke:#000000;stroke-width:1.0;stroke-dasharray:3.0,3.0;"/><path d="M362.9339,281.7334 L363.8914,278.0652 L360.638,276.1189 L368.804,276.0563 L362.9339,281.7334 " fill="#000000" style="stroke:#000000;stroke-width:1.0;"/><ellipse cx="299" cy="315.5" fill="#000000" rx="3" ry="3" style="stroke:#000000;stroke-width:1.0;"/><path d="M452,303.5 L465,303.5 C506.2281,303.5 527.1738,314.9755 556,285.5 C620.9848,219.0516 529.0904,147.9164 592,79.5 C595.6366,75.5451 599.6211,71.9711 603.8763,68.7427 " fill="none" style="stroke:#000000;stroke-width:1.0;stroke-dasharray:3.0,3.0;"/><path d="M605.671,71.3103 L605.8019,67.3967 L602.0815,66.1752 L610.2952,64.2559 L605.671,71.3103 " fill="#000000" style="stroke:#000000;stroke-width:1.0;"/><ellipse cx="452" cy="303.5" fill="#000000" rx="3" ry="3" style="stroke:#000000;stroke-width:1.0;"/><path d="M452,324.5 L465,324.5 C509.0022,324.5 526.9505,318.5503 556,285.5 C594.7318,241.4339 550.1149,199.5806 592,158.5 C593.237,157.2868 594.5068,156.1101 595.8072,154.9687 " fill="none" style="stroke:#000000;stroke-width:1.0;stroke-dasharray:3.0,3.0;"/><path d="M597.7195,157.3243 L597.5738,153.5345 L593.8948,152.6132 L601.6961,150.1879 L597.7195,157.3243 " fill="#000000" style="stroke:#000000;stroke-width:1.0;"/><ellipse cx="452" cy="324.5" fill="#000000" rx="3" ry="3" style="stroke:#000000;stroke-width:1.0;"/><path d="M452,344.5 L465,344.5 C513.2012,344.5 520.773,318.4001 556,285.5 C575.4889,267.2985 569.8722,252.3819 592,237.5 C594.4088,235.8799 596.8815,234.3271 599.4082,232.8388 " fill="none" style="stroke:#000000;stroke-width:1.0;stroke-dasharray:3.0,3.0;"/><path d="M600.9246,235.5619 L601.4505,231.7015 L597.8917,230.1158 L606.2158,229.0478 L600.9246,235.5619 " fill="#000000" style="stroke:#000000;stroke-width:1.0;"/><ellipse cx="452" cy="344.5" fill="#000000" rx="3" ry="3" style="stroke:#000000;stroke-width:1.0;"/><path d="M452,365.5 L465,365.5 C525.3414,365.5 534.5762,336.0361 592,317.5 C599.587,315.0509 607.4244,312.629 615.3506,310.2612 " fill="none" style="stroke:#000000;stroke-width:1.0;stroke-dasharray:3.0,3.0;"/><path d="M616.214,313.181 L617.5404,309.6137 L614.4872,307.3414 L622.6501,308.1027 L616.214,313.181 " fill="#000000" style="stroke:#000000;stroke-width:1.0;"/><ellipse cx="452" cy="365.5" fill="#000000" rx="3" ry="3" style="stroke:#000000;stroke-width:1.0;"/><path d="M452,385.5 L465,385.5 C503.8886,385.5 545.6962,382.6068 584.699,378.6481 " fill="none" style="stroke:#000000;stroke-width:1.0;stroke-dasharray:3.0,3.0;"/><path d="M585.0211,381.7527 L587.0274,378.4064 L584.3768,375.5435 L592.4605,377.8427 L585.0211,381.7527 " fill="#000000" style="stroke:#000000;stroke-width:1.0;"/><ellipse cx="452" cy="385.5" fill="#000000" rx="3" ry="3" style="stroke:#000000;stroke-width:1.0;"/><path d="M452,406.5 L465,406.5 C503.8886,406.5 545.6962,409.3932 584.699,413.3519 " fill="none" style="stroke:#000000;stroke-width:1.0;stroke-dasharray:3.0,3.0;"/><path d="M584.3768,416.4565 L587.0274,413.5936 L585.0211,410.2473 L592.4605,414.1573 L584.3768,416.4565 " fill="#000000" style="stroke:#000000;stroke-width:1.0;"/><ellipse cx="452" cy="406.5" fill="#000000" rx="3" ry="3" style="stroke:#000000;stroke-width:1.0;"/><path d="M452,427.5 L465,427.5 C525.3414,427.5 534.5181,457.1445 592,475.5 C598.6199,477.6139 605.4315,479.7017 612.3272,481.7468 " fill="none" style="stroke:#000000;stroke-width:1.0;stroke-dasharray:3.0,3.0;"/><path d="M611.4465,484.751 L614.5803,482.4073 L613.2078,478.7426 L619.8376,483.9484 L611.4465,484.751 " fill="#000000" style="stroke:#000000;stroke-width:1.0;"/><ellipse cx="452" cy="427.5" fill="#000000" rx="3" ry="3" style="stroke:#000000;stroke-width:1.0;"/><path d="M452,447.5 L465,447.5 C538.8072,447.5 526.4817,520.5169 592,554.5 C595.6232,556.3793 599.3443,558.1733 603.1386,559.8855 " fill="none" style="stroke:#000000;stroke-width:1.0;stroke-dasharray:3.0,3.0;"/><path d="M601.9409,562.6469 L605.2096,560.7839 L604.3364,557.1242 L610.042,562.8799 L601.9409,562.6469 " fill="#000000" style="stroke:#000000;stroke-width:1.0;"/><ellipse cx="452" cy="447.5" fill="#000000" rx="3" ry="3" style="stroke:#000000;stroke-width:1.0;"/><path d="M452,468.5 L465,468.5 C557.5405,468.5 514.8896,582.3361 592,633.5 C594.4189,635.105 596.9008,636.644 599.4358,638.1197 " fill="none" style="stroke:#000000;stroke-width:1.0;stroke-dasharray:3.0,3.0;"/><path d="M597.9317,640.851 L601.4843,639.2479 L600.94,635.3885 L606.2639,641.8802 L597.9317,640.851 " fill="#000000" style="stroke:#000000;stroke-width:1.0;"/><ellipse cx="452" cy="468.5" fill="#000000" rx="3" ry="3" style="stroke:#000000;stroke-width:1.0;"/><path d="M452,488.5 L465,488.5 C579.4434,488.5 501.3054,642.7019 592,712.5 C593.8319,713.9098 595.71,715.2688 597.6292,716.5789 " fill="none" style="stroke:#000000;stroke-width:1.0;stroke-dasharray:3.0,3.0;"/><path d="M595.9219,719.2493 L599.632,717.8594 L599.3366,713.9085 L604.3051,720.8473 L595.9219,719.2493 " fill="#000000" style="stroke:#000000;stroke-width:1.0;"/><ellipse cx="452" cy="488.5" fill="#000000" rx="3" ry="3" style="stroke:#000000;stroke-width:1.0;"/><path d="M299,336.5 L312,336.5 C359.0497,336.5 408.2629,365.8357 433.6101,383.482 " fill="none" style="stroke:#000000;stroke-width:1.0;stroke-dasharray:3.0,3.0;"/><path d="M431.8416,385.964 L435.4716,384.8085 L435.3787,381.0001 L439.815,387.9035 L431.8416,385.964 " fill="#000000" style="stroke:#000000;stroke-width:1.0;"/><ellipse cx="299" cy="336.5" fill="#000000" rx="3" ry="3" style="stroke:#000000;stroke-width:1.0;"/><!--MD5=[13b47002ffc9495de19fef6849bd314e]
@startjson
{
    "field1": "PurchaseOrderNumber",
    "combination": "PurchaseOrderNumber",
    "null_distribution": {
        "total_null_rows": 27659,
        "total_not_null_rows": 3806
    },
    "data_distribution": [
        {
            "field_value": "**NULL**",
            "row_count": 27659,
            "ratio_percent": 87.90402034006038
        },
        {
            "field_value": "PO10092115747",
            "row_count": 1,
            "ratio_percent": 0.0031781344350866043
        },
        {
            "field_value": "PO10063194196",
            "row_count": 1,
            "ratio_percent": 0.0031781344350866043
        },
        {
            "field_value": "PO10063170594",
            "row_count": 1,
            "ratio_percent": 0.0031781344350866043
        },
        {
            "field_value": "PO10063115282",
            "row_count": 1,
            "ratio_percent": 0.0031781344350866043
        },
        {
            "field_value": "PO10034199265",
            "row_count": 1,
            "ratio_percent": 0.0031781344350866043
        },
        {
            "field_value": "PO10034147207",
            "row_count": 1,
            "ratio_percent": 0.0031781344350866043
        },
        {
            "field_value": "PO10034135364",
            "row_count": 1,
            "ratio_percent": 0.0031781344350866043
        },
        {
            "field_value": "PO10034131333",
            "row_count": 1,
            "ratio_percent": 0.0031781344350866043
        },
        {
            "field_value": "PO10005156366",
            "row_count": 1,
            "ratio_percent": 0.0031781344350866043
        }
    ]
}
@endjson

PlantUML version 1.2022.5(Sat Apr 30 06:55:52 EDT 2022)
(GPL source distribution)
Java Runtime: OpenJDK Runtime Environment
JVM: OpenJDK 64-Bit Server VM
Default Encoding: UTF-8
Language: en
Country: CA
--></g></svg>