<?xml version="1.0" encoding="UTF-8" standalone="no"?><svg xmlns="http://www.w3.org/2000/svg" xmlns:xlink="http://www.w3.org/1999/xlink" contentStyleType="text/css" height="557px" preserveAspectRatio="none" style="width:782px;height:557px;background:#FFFFFF;" version="1.1" viewBox="0 0 782 557" width="782px" zoomAndPan="magnify"><defs/><g><rect fill="#F1F1F1" height="81.9531" rx="5" ry="5" style="stroke:#F1F1F1;stroke-width:1.5;" width="235" x="10" y="161.5"/><text fill="#000000" font-family="sans-serif" font-size="14" font-weight="bold" lengthAdjust="spacing" textLength="42" x="15" y="177.0352">field1</text><text fill="#000000" font-family="sans-serif" font-size="14" lengthAdjust="spacing" textLength="91" x="149" y="177.0352">ModifiedDate</text><line style="stroke:#000000;stroke-width:1.0;" x1="144" x2="144" y1="161.5" y2="181.9883"/><line style="stroke:#000000;stroke-width:1.0;" x1="10" x2="245" y1="181.9883" y2="181.9883"/><text fill="#000000" font-family="sans-serif" font-size="14" font-weight="bold" lengthAdjust="spacing" textLength="90" x="15" y="197.5234">combination</text><text fill="#000000" font-family="sans-serif" font-size="14" lengthAdjust="spacing" textLength="91" x="149" y="197.5234">ModifiedDate</text><line style="stroke:#000000;stroke-width:1.0;" x1="144" x2="144" y1="181.9883" y2="202.4766"/><line style="stroke:#000000;stroke-width:1.0;" x1="10" x2="245" y1="202.4766" y2="202.4766"/><text fill="#000000" font-family="sans-serif" font-size="14" font-weight="bold" lengthAdjust="spacing" textLength="121" x="15" y="218.0117">null_distribution</text><text fill="#000000" font-family="sans-serif" font-size="14" lengthAdjust="spacing" textLength="12" x="149" y="218.0117">   </text><line style="stroke:#000000;stroke-width:1.0;" x1="144" x2="144" y1="202.4766" y2="222.9648"/><line style="stroke:#000000;stroke-width:1.0;" x1="10" x2="245" y1="222.9648" y2="222.9648"/><text fill="#000000" font-family="sans-serif" font-size="14" font-weight="bold" lengthAdjust="spacing" textLength="124" x="15" y="238.5">data_distribution</text><text fill="#000000" font-family="sans-serif" font-size="14" lengthAdjust="spacing" textLength="12" x="149" y="238.5">   </text><line style="stroke:#000000;stroke-width:1.0;" x1="144" x2="144" y1="222.9648" y2="243.4531"/><rect fill="none" height="81.9531" rx="5" ry="5" style="stroke:#000000;stroke-width:1.5;" width="235" x="10" y="161.5"/><rect fill="#F1F1F1" height="40.9766" rx="5" ry="5" style="stroke:#F1F1F1;stroke-width:1.5;" width="180" x="282" y="148"/><text fill="#000000" font-family="sans-serif" font-size="14" font-weight="bold" lengthAdjust="spacing" textLength="111" x="287" y="163.5352">total_null_rows</text><text fill="#000000" font-family="sans-serif" font-size="14" lengthAdjust="spacing" textLength="9" x="439" y="163.5352">0</text><line style="stroke:#000000;stroke-width:1.0;" x1="434" x2="434" y1="148" y2="168.4883"/><line style="stroke:#000000;stroke-width:1.0;" x1="282" x2="462" y1="168.4883" y2="168.4883"/><text fill="#000000" font-family="sans-serif" font-size="14" font-weight="bold" lengthAdjust="spacing" textLength="142" x="287" y="184.0234">total_not_null_rows</text><text fill="#000000" font-family="sans-serif" font-size="14" lengthAdjust="spacing" textLength="18" x="439" y="184.0234">17</text><line style="stroke:#000000;stroke-width:1.0;" x1="434" x2="434" y1="168.4883" y2="188.9766"/><rect fill="none" height="40.9766" rx="5" ry="5" style="stroke:#000000;stroke-width:1.5;" width="180" x="282" y="148"/><rect fill="#F1F1F1" height="143.418" rx="5" ry="5" style="stroke:#F1F1F1;stroke-width:1.5;" width="22" x="360" y="207"/><text fill="#000000" font-family="sans-serif" font-size="14" lengthAdjust="spacing" textLength="12" x="365" y="222.5352">   </text><line style="stroke:#000000;stroke-width:1.0;" x1="360" x2="382" y1="227.4883" y2="227.4883"/><text fill="#000000" font-family="sans-serif" font-size="14" lengthAdjust="spacing" textLength="12" x="365" y="243.0234">   </text><line style="stroke:#000000;stroke-width:1.0;" x1="360" x2="382" y1="247.9766" y2="247.9766"/><text fill="#000000" font-family="sans-serif" font-size="14" lengthAdjust="spacing" textLength="12" x="365" y="263.5117">   </text><line style="stroke:#000000;stroke-width:1.0;" x1="360" x2="382" y1="268.4648" y2="268.4648"/><text fill="#000000" font-family="sans-serif" font-size="14" lengthAdjust="spacing" textLength="12" x="365" y="284">   </text><line style="stroke:#000000;stroke-width:1.0;" x1="360" x2="382" y1="288.9531" y2="288.9531"/><text fill="#000000" font-family="sans-serif" font-size="14" lengthAdjust="spacing" textLength="12" x="365" y="304.4883">   </text><line style="stroke:#000000;stroke-width:1.0;" x1="360" x2="382" y1="309.4414" y2="309.4414"/><text fill="#000000" font-family="sans-serif" font-size="14" lengthAdjust="spacing" textLength="12" x="365" y="324.9766">   </text><line style="stroke:#000000;stroke-width:1.0;" x1="360" x2="382" y1="329.9297" y2="329.9297"/><text fill="#000000" font-family="sans-serif" font-size="14" lengthAdjust="spacing" textLength="12" x="365" y="345.4648">   </text><rect fill="none" height="143.418" rx="5" ry="5" style="stroke:#000000;stroke-width:1.5;" width="22" x="360" y="207"/><rect fill="#F1F1F1" height="61.4648" rx="5" ry="5" style="stroke:#F1F1F1;stroke-width:1.5;" width="269" x="500" y="10"/><text fill="#000000" font-family="sans-serif" font-size="14" font-weight="bold" lengthAdjust="spacing" textLength="78" x="505" y="25.5352">field_value</text><text fill="#000000" font-family="sans-serif" font-size="14" lengthAdjust="spacing" textLength="155" x="609" y="25.5352">May 24 2011 12:00AM</text><line style="stroke:#000000;stroke-width:1.0;" x1="604" x2="604" y1="10" y2="30.4883"/><line style="stroke:#000000;stroke-width:1.0;" x1="500" x2="769" y1="30.4883" y2="30.4883"/><text fill="#000000" font-family="sans-serif" font-size="14" font-weight="bold" lengthAdjust="spacing" textLength="74" x="505" y="46.0234">row_count</text><text fill="#000000" font-family="sans-serif" font-size="14" lengthAdjust="spacing" textLength="9" x="609" y="46.0234">9</text><line style="stroke:#000000;stroke-width:1.0;" x1="604" x2="604" y1="30.4883" y2="50.9766"/><line style="stroke:#000000;stroke-width:1.0;" x1="500" x2="769" y1="50.9766" y2="50.9766"/><text fill="#000000" font-family="sans-serif" font-size="14" font-weight="bold" lengthAdjust="spacing" textLength="94" x="505" y="66.5117">ratio_percent</text><text fill="#000000" font-family="sans-serif" font-size="14" lengthAdjust="spacing" textLength="148" x="609" y="66.5117">52.94117647058823</text><line style="stroke:#000000;stroke-width:1.0;" x1="604" x2="604" y1="50.9766" y2="71.4648"/><rect fill="none" height="61.4648" rx="5" ry="5" style="stroke:#000000;stroke-width:1.5;" width="269" x="500" y="10"/><rect fill="#F1F1F1" height="61.4648" rx="5" ry="5" style="stroke:#F1F1F1;stroke-width:1.5;" width="271" x="499" y="89"/><text fill="#000000" font-family="sans-serif" font-size="14" font-weight="bold" lengthAdjust="spacing" textLength="78" x="504" y="104.5352">field_value</text><text fill="#000000" font-family="sans-serif" font-size="14" lengthAdjust="spacing" textLength="155" x="608" y="104.5352">May 23 2013 12:00AM</text><line style="stroke:#000000;stroke-width:1.0;" x1="603" x2="603" y1="89" y2="109.4883"/><line style="stroke:#000000;stroke-width:1.0;" x1="499" x2="770" y1="109.4883" y2="109.4883"/><text fill="#000000" font-family="sans-serif" font-size="14" font-weight="bold" lengthAdjust="spacing" textLength="74" x="504" y="125.0234">row_count</text><text fill="#000000" font-family="sans-serif" font-size="14" lengthAdjust="spacing" textLength="9" x="608" y="125.0234">2</text><line style="stroke:#000000;stroke-width:1.0;" x1="603" x2="603" y1="109.4883" y2="129.9766"/><line style="stroke:#000000;stroke-width:1.0;" x1="499" x2="770" y1="129.9766" y2="129.9766"/><text fill="#000000" font-family="sans-serif" font-size="14" font-weight="bold" lengthAdjust="spacing" textLength="94" x="504" y="145.5117">ratio_percent</text><text fill="#000000" font-family="sans-serif" font-size="14" lengthAdjust="spacing" textLength="157" x="608" y="145.5117">11.764705882352942</text><line style="stroke:#000000;stroke-width:1.0;" x1="603" x2="603" y1="129.9766" y2="150.4648"/><rect fill="none" height="61.4648" rx="5" ry="5" style="stroke:#000000;stroke-width:1.5;" width="271" x="499" y="89"/><rect fill="#F1F1F1" height="61.4648" rx="5" ry="5" style="stroke:#F1F1F1;stroke-width:1.5;" width="271" x="499" y="168"/><text fill="#000000" font-family="sans-serif" font-size="14" font-weight="bold" lengthAdjust="spacing" textLength="78" x="504" y="183.5352">field_value</text><text fill="#000000" font-family="sans-serif" font-size="14" lengthAdjust="spacing" textLength="155" x="608" y="183.5352">May 23 2012 12:00AM</text><line style="stroke:#000000;stroke-width:1.0;" x1="603" x2="603" y1="168" y2="188.4883"/><line style="stroke:#000000;stroke-width:1.0;" x1="499" x2="770" y1="188.4883" y2="188.4883"/><text fill="#000000" font-family="sans-serif" font-size="14" font-weight="bold" lengthAdjust="spacing" textLength="74" x="504" y="204.0234">row_count</text><text fill="#000000" font-family="sans-serif" font-size="14" lengthAdjust="spacing" textLength="9" x="608" y="204.0234">2</text><line style="stroke:#000000;stroke-width:1.0;" x1="603" x2="603" y1="188.4883" y2="208.9766"/><line style="stroke:#000000;stroke-width:1.0;" x1="499" x2="770" y1="208.9766" y2="208.9766"/><text fill="#000000" font-family="sans-serif" font-size="14" font-weight="bold" lengthAdjust="spacing" textLength="94" x="504" y="224.5117">ratio_percent</text><text fill="#000000" font-family="sans-serif" font-size="14" lengthAdjust="spacing" textLength="157" x="608" y="224.5117">11.764705882352942</text><line style="stroke:#000000;stroke-width:1.0;" x1="603" x2="603" y1="208.9766" y2="229.4648"/><rect fill="none" height="61.4648" rx="5" ry="5" style="stroke:#000000;stroke-width:1.5;" width="271" x="499" y="168"/><rect fill="#F1F1F1" height="61.4648" rx="5" ry="5" style="stroke:#F1F1F1;stroke-width:1.5;" width="267" x="501" y="247"/><text fill="#000000" font-family="sans-serif" font-size="14" font-weight="bold" lengthAdjust="spacing" textLength="78" x="506" y="262.5352">field_value</text><text fill="#000000" font-family="sans-serif" font-size="14" lengthAdjust="spacing" textLength="153" x="610" y="262.5352">Sep 23 2012 12:00AM</text><line style="stroke:#000000;stroke-width:1.0;" x1="605" x2="605" y1="247" y2="267.4883"/><line style="stroke:#000000;stroke-width:1.0;" x1="501" x2="768" y1="267.4883" y2="267.4883"/><text fill="#000000" font-family="sans-serif" font-size="14" font-weight="bold" lengthAdjust="spacing" textLength="74" x="506" y="283.0234">row_count</text><text fill="#000000" font-family="sans-serif" font-size="14" lengthAdjust="spacing" textLength="9" x="610" y="283.0234">1</text><line style="stroke:#000000;stroke-width:1.0;" x1="605" x2="605" y1="267.4883" y2="287.9766"/><line style="stroke:#000000;stroke-width:1.0;" x1="501" x2="768" y1="287.9766" y2="287.9766"/><text fill="#000000" font-family="sans-serif" font-size="14" font-weight="bold" lengthAdjust="spacing" textLength="94" x="506" y="303.5117">ratio_percent</text><text fill="#000000" font-family="sans-serif" font-size="14" lengthAdjust="spacing" textLength="148" x="610" y="303.5117">5.882352941176471</text><line style="stroke:#000000;stroke-width:1.0;" x1="605" x2="605" y1="287.9766" y2="308.4648"/><rect fill="none" height="61.4648" rx="5" ry="5" style="stroke:#000000;stroke-width:1.5;" width="267" x="501" y="247"/><rect fill="#F1F1F1" height="61.4648" rx="5" ry="5" style="stroke:#F1F1F1;stroke-width:1.5;" width="263" x="503" y="326"/><text fill="#000000" font-family="sans-serif" font-size="14" font-weight="bold" lengthAdjust="spacing" textLength="78" x="508" y="341.5352">field_value</text><text fill="#000000" font-family="sans-serif" font-size="14" lengthAdjust="spacing" textLength="149" x="612" y="341.5352">Mar  7 2013 12:00AM</text><line style="stroke:#000000;stroke-width:1.0;" x1="607" x2="607" y1="326" y2="346.4883"/><line style="stroke:#000000;stroke-width:1.0;" x1="503" x2="766" y1="346.4883" y2="346.4883"/><text fill="#000000" font-family="sans-serif" font-size="14" font-weight="bold" lengthAdjust="spacing" textLength="74" x="508" y="362.0234">row_count</text><text fill="#000000" font-family="sans-serif" font-size="14" lengthAdjust="spacing" textLength="9" x="612" y="362.0234">1</text><line style="stroke:#000000;stroke-width:1.0;" x1="607" x2="607" y1="346.4883" y2="366.9766"/><line style="stroke:#000000;stroke-width:1.0;" x1="503" x2="766" y1="366.9766" y2="366.9766"/><text fill="#000000" font-family="sans-serif" font-size="14" font-weight="bold" lengthAdjust="spacing" textLength="94" x="508" y="382.5117">ratio_percent</text><text fill="#000000" font-family="sans-serif" font-size="14" lengthAdjust="spacing" textLength="148" x="612" y="382.5117">5.882352941176471</text><line style="stroke:#000000;stroke-width:1.0;" x1="607" x2="607" y1="366.9766" y2="387.4648"/><rect fill="none" height="61.4648" rx="5" ry="5" style="stroke:#000000;stroke-width:1.5;" width="263" x="503" y="326"/><rect fill="#F1F1F1" height="61.4648" rx="5" ry="5" style="stroke:#F1F1F1;stroke-width:1.5;" width="267" x="501" y="405"/><text fill="#000000" font-family="sans-serif" font-size="14" font-weight="bold" lengthAdjust="spacing" textLength="78" x="506" y="420.5352">field_value</text><text fill="#000000" font-family="sans-serif" font-size="14" lengthAdjust="spacing" textLength="153" x="610" y="420.5352">Dec 28 2010 12:00AM</text><line style="stroke:#000000;stroke-width:1.0;" x1="605" x2="605" y1="405" y2="425.4883"/><line style="stroke:#000000;stroke-width:1.0;" x1="501" x2="768" y1="425.4883" y2="425.4883"/><text fill="#000000" font-family="sans-serif" font-size="14" font-weight="bold" lengthAdjust="spacing" textLength="74" x="506" y="441.0234">row_count</text><text fill="#000000" font-family="sans-serif" font-size="14" lengthAdjust="spacing" textLength="9" x="610" y="441.0234">1</text><line style="stroke:#000000;stroke-width:1.0;" x1="605" x2="605" y1="425.4883" y2="445.9766"/><line style="stroke:#000000;stroke-width:1.0;" x1="501" x2="768" y1="445.9766" y2="445.9766"/><text fill="#000000" font-family="sans-serif" font-size="14" font-weight="bold" lengthAdjust="spacing" textLength="94" x="506" y="461.5117">ratio_percent</text><text fill="#000000" font-family="sans-serif" font-size="14" lengthAdjust="spacing" textLength="148" x="610" y="461.5117">5.882352941176471</text><line style="stroke:#000000;stroke-width:1.0;" x1="605" x2="605" y1="445.9766" y2="466.4648"/><rect fill="none" height="61.4648" rx="5" ry="5" style="stroke:#000000;stroke-width:1.5;" width="267" x="501" y="405"/><rect fill="#F1F1F1" height="61.4648" rx="5" ry="5" style="stroke:#F1F1F1;stroke-width:1.5;" width="262" x="503.5" y="484"/><text fill="#000000" font-family="sans-serif" font-size="14" font-weight="bold" lengthAdjust="spacing" textLength="78" x="508.5" y="499.5352">field_value</text><text fill="#000000" font-family="sans-serif" font-size="14" lengthAdjust="spacing" textLength="148" x="612.5" y="499.5352">Apr  9 2012 12:00AM</text><line style="stroke:#000000;stroke-width:1.0;" x1="607.5" x2="607.5" y1="484" y2="504.4883"/><line style="stroke:#000000;stroke-width:1.0;" x1="503.5" x2="765.5" y1="504.4883" y2="504.4883"/><text fill="#000000" font-family="sans-serif" font-size="14" font-weight="bold" lengthAdjust="spacing" textLength="74" x="508.5" y="520.0234">row_count</text><text fill="#000000" font-family="sans-serif" font-size="14" lengthAdjust="spacing" textLength="9" x="612.5" y="520.0234">1</text><line style="stroke:#000000;stroke-width:1.0;" x1="607.5" x2="607.5" y1="504.4883" y2="524.9766"/><line style="stroke:#000000;stroke-width:1.0;" x1="503.5" x2="765.5" y1="524.9766" y2="524.9766"/><text fill="#000000" font-family="sans-serif" font-size="14" font-weight="bold" lengthAdjust="spacing" textLength="94" x="508.5" y="540.5117">ratio_percent</text><text fill="#000000" font-family="sans-serif" font-size="14" lengthAdjust="spacing" textLength="148" x="612.5" y="540.5117">5.882352941176471</text><line style="stroke:#000000;stroke-width:1.0;" x1="607.5" x2="607.5" y1="524.9766" y2="545.4648"/><rect fill="none" height="61.4648" rx="5" ry="5" style="stroke:#000000;stroke-width:1.5;" width="262" x="503.5" y="484"/><path d="M233,212.5 L246,212.5 C263.1673,212.5 265.8568,204.3408 282,198.5 C288.3375,196.207 294.9484,193.8766 301.5816,191.5798 " fill="none" style="stroke:#000000;stroke-width:1.0;stroke-dasharray:3.0,3.0;"/><path d="M302.5718,194.4576 L303.7399,190.8372 L300.5913,188.7021 L308.776,189.1042 L302.5718,194.4576 " fill="#000000" style="stroke:#000000;stroke-width:1.0;"/><ellipse cx="233" cy="212.5" fill="#000000" rx="3" ry="3" style="stroke:#000000;stroke-width:1.0;"/><path d="M372.5,216.5 L385.5,216.5 C420.8613,216.5 437.1898,222.6713 463,198.5 C503.3314,160.7295 459.6839,118.3263 499,79.5 C500.2341,78.2813 501.5037,77.1002 502.806,75.9556 " fill="none" style="stroke:#000000;stroke-width:1.0;stroke-dasharray:3.0,3.0;"/><path d="M504.7215,78.3196 L504.579,74.519 L500.8905,73.5916 L508.7161,71.167 L504.7215,78.3196 " fill="#000000" style="stroke:#000000;stroke-width:1.0;"/><ellipse cx="372.5" cy="216.5" fill="#000000" rx="3" ry="3" style="stroke:#000000;stroke-width:1.0;"/><path d="M372.5,236.5 L385.5,236.5 C423.8621,236.5 432.2442,221.429 463,198.5 C481.9119,184.4009 478.973,171.9645 499,159.5 C502.3513,157.4142 505.8171,155.4323 509.3694,153.5497 " fill="none" style="stroke:#000000;stroke-width:1.0;stroke-dasharray:3.0,3.0;"/><path d="M510.7692,156.322 L511.4486,152.4998 L507.9696,150.7773 L516.3002,150.0501 L510.7692,156.322 " fill="#000000" style="stroke:#000000;stroke-width:1.0;"/><ellipse cx="372.5" cy="236.5" fill="#000000" rx="3" ry="3" style="stroke:#000000;stroke-width:1.0;"/><path d="M372.5,257.5 L385.5,257.5 C411.9686,257.5 467.7937,244.6687 519.8383,230.9738 " fill="none" style="stroke:#000000;stroke-width:1.0;stroke-dasharray:3.0,3.0;"/><path d="M520.6131,233.8999 L522.0329,230.3927 L519.0636,228.0477 L527.1535,229.0369 L520.6131,233.8999 " fill="#000000" style="stroke:#000000;stroke-width:1.0;"/><ellipse cx="372.5" cy="257.5" fill="#000000" rx="3" ry="3" style="stroke:#000000;stroke-width:1.0;"/><path d="M372.5,277.5 L385.5,277.5 C420.6421,277.5 458.5796,277.5 493.9757,277.5 " fill="none" style="stroke:#000000;stroke-width:1.0;stroke-dasharray:3.0,3.0;"/><path d="M493.9757,280.5051 L496.2295,277.5 L493.9757,274.4949 L501.4883,277.5 L493.9757,280.5051 " fill="#000000" style="stroke:#000000;stroke-width:1.0;"/><ellipse cx="372.5" cy="277.5" fill="#000000" rx="3" ry="3" style="stroke:#000000;stroke-width:1.0;"/><path d="M372.5,298.5 L385.5,298.5 C411.5741,298.5 466.2088,310.7626 517.6266,324.0109 " fill="none" style="stroke:#000000;stroke-width:1.0;stroke-dasharray:3.0,3.0;"/><path d="M516.8424,327.0345 L519.8944,324.599 L518.4108,320.9872 L525.1857,325.9713 L516.8424,327.0345 " fill="#000000" style="stroke:#000000;stroke-width:1.0;"/><ellipse cx="372.5" cy="298.5" fill="#000000" rx="3" ry="3" style="stroke:#000000;stroke-width:1.0;"/><path d="M372.5,319.5 L385.5,319.5 C446.4574,319.5 443.814,370.6097 499,396.5 C503.2033,398.4719 507.5277,400.3662 511.932,402.1835 " fill="none" style="stroke:#000000;stroke-width:1.0;stroke-dasharray:3.0,3.0;"/><path d="M510.815,404.9759 L514.0262,403.0213 L513.0489,399.3912 L518.9128,404.976 L510.815,404.9759 " fill="#000000" style="stroke:#000000;stroke-width:1.0;"/><ellipse cx="372.5" cy="319.5" fill="#000000" rx="3" ry="3" style="stroke:#000000;stroke-width:1.0;"/><path d="M372.5,339.5 L385.5,339.5 C464.2285,339.5 433.0726,432.468 499,475.5 C501.4419,477.0939 503.9501,478.624 506.5131,480.0927 " fill="none" style="stroke:#000000;stroke-width:1.0;stroke-dasharray:3.0,3.0;"/><path d="M505.0146,482.8544 L508.5844,481.2166 L508.0116,477.331 L513.4175,483.839 L505.0146,482.8544 " fill="#000000" style="stroke:#000000;stroke-width:1.0;"/><ellipse cx="372.5" cy="339.5" fill="#000000" rx="3" ry="3" style="stroke:#000000;stroke-width:1.0;"/><path d="M233,233.5 L246,233.5 C286.2749,233.5 329.779,254.2889 353.5166,267.6068 " fill="none" style="stroke:#000000;stroke-width:1.0;stroke-dasharray:3.0,3.0;"/><path d="M351.9718,270.2895 L355.5286,268.7654 L355.0614,264.924 L360.2234,271.4688 L351.9718,270.2895 " fill="#000000" style="stroke:#000000;stroke-width:1.0;"/><ellipse cx="233" cy="233.5" fill="#000000" rx="3" ry="3" style="stroke:#000000;stroke-width:1.0;"/><!--MD5=[3016006518c7866c732ab21e20b4766c]
@startjson
{
    "field1": "ModifiedDate",
    "combination": "ModifiedDate",
    "null_distribution": {
        "total_null_rows": 0,
        "total_not_null_rows": 17
    },
    "data_distribution": [
        {
            "field_value": "May 24 2011 12:00AM",
            "row_count": 9,
            "ratio_percent": 52.94117647058823
        },
        {
            "field_value": "May 23 2013 12:00AM",
            "row_count": 2,
            "ratio_percent": 11.764705882352942
        },
        {
            "field_value": "May 23 2012 12:00AM",
            "row_count": 2,
            "ratio_percent": 11.764705882352942
        },
        {
            "field_value": "Sep 23 2012 12:00AM",
            "row_count": 1,
            "ratio_percent": 5.882352941176471
        },
        {
            "field_value": "Mar  7 2013 12:00AM",
            "row_count": 1,
            "ratio_percent": 5.882352941176471
        },
        {
            "field_value": "Dec 28 2010 12:00AM",
            "row_count": 1,
            "ratio_percent": 5.882352941176471
        },
        {
            "field_value": "Apr  9 2012 12:00AM",
            "row_count": 1,
            "ratio_percent": 5.882352941176471
        }
    ]
}
@endjson

PlantUML version 1.2022.5(Sat Apr 30 06:55:52 EDT 2022)
(GPL source distribution)
Java Runtime: OpenJDK Runtime Environment
JVM: OpenJDK 64-Bit Server VM
Default Encoding: UTF-8
Language: en
Country: CA
--></g></svg>