<?xml version="1.0" encoding="UTF-8" standalone="no"?><svg xmlns="http://www.w3.org/2000/svg" xmlns:xlink="http://www.w3.org/1999/xlink" contentStyleType="text/css" height="794px" preserveAspectRatio="none" style="width:817px;height:794px;background:#FFFFFF;" version="1.1" viewBox="0 0 817 794" width="817px" zoomAndPan="magnify"><defs/><g><rect fill="#F1F1F1" height="81.9531" rx="5" ry="5" style="stroke:#F1F1F1;stroke-width:1.5;" width="259" x="10" y="264.5"/><text fill="#000000" font-family="sans-serif" font-size="14" font-weight="bold" lengthAdjust="spacing" textLength="42" x="15" y="280.0352">field1</text><text fill="#000000" font-family="sans-serif" font-size="14" lengthAdjust="spacing" textLength="115" x="149" y="280.0352">COUNTRY_NAME</text><line style="stroke:#000000;stroke-width:1.0;" x1="144" x2="144" y1="264.5" y2="284.9883"/><line style="stroke:#000000;stroke-width:1.0;" x1="10" x2="269" y1="284.9883" y2="284.9883"/><text fill="#000000" font-family="sans-serif" font-size="14" font-weight="bold" lengthAdjust="spacing" textLength="90" x="15" y="300.5234">combination</text><text fill="#000000" font-family="sans-serif" font-size="14" lengthAdjust="spacing" textLength="115" x="149" y="300.5234">COUNTRY_NAME</text><line style="stroke:#000000;stroke-width:1.0;" x1="144" x2="144" y1="284.9883" y2="305.4766"/><line style="stroke:#000000;stroke-width:1.0;" x1="10" x2="269" y1="305.4766" y2="305.4766"/><text fill="#000000" font-family="sans-serif" font-size="14" font-weight="bold" lengthAdjust="spacing" textLength="121" x="15" y="321.0117">null_distribution</text><text fill="#000000" font-family="sans-serif" font-size="14" lengthAdjust="spacing" textLength="12" x="149" y="321.0117">   </text><line style="stroke:#000000;stroke-width:1.0;" x1="144" x2="144" y1="305.4766" y2="325.9648"/><line style="stroke:#000000;stroke-width:1.0;" x1="10" x2="269" y1="325.9648" y2="325.9648"/><text fill="#000000" font-family="sans-serif" font-size="14" font-weight="bold" lengthAdjust="spacing" textLength="124" x="15" y="341.5">data_distribution</text><text fill="#000000" font-family="sans-serif" font-size="14" lengthAdjust="spacing" textLength="12" x="149" y="341.5">   </text><line style="stroke:#000000;stroke-width:1.0;" x1="144" x2="144" y1="325.9648" y2="346.4531"/><rect fill="none" height="81.9531" rx="5" ry="5" style="stroke:#000000;stroke-width:1.5;" width="259" x="10" y="264.5"/><rect fill="#F1F1F1" height="40.9766" rx="5" ry="5" style="stroke:#F1F1F1;stroke-width:1.5;" width="180" x="306" y="235"/><text fill="#000000" font-family="sans-serif" font-size="14" font-weight="bold" lengthAdjust="spacing" textLength="111" x="311" y="250.5352">total_null_rows</text><text fill="#000000" font-family="sans-serif" font-size="14" lengthAdjust="spacing" textLength="9" x="463" y="250.5352">0</text><line style="stroke:#000000;stroke-width:1.0;" x1="458" x2="458" y1="235" y2="255.4883"/><line style="stroke:#000000;stroke-width:1.0;" x1="306" x2="486" y1="255.4883" y2="255.4883"/><text fill="#000000" font-family="sans-serif" font-size="14" font-weight="bold" lengthAdjust="spacing" textLength="142" x="311" y="271.0234">total_not_null_rows</text><text fill="#000000" font-family="sans-serif" font-size="14" lengthAdjust="spacing" textLength="18" x="463" y="271.0234">25</text><line style="stroke:#000000;stroke-width:1.0;" x1="458" x2="458" y1="255.4883" y2="275.9766"/><rect fill="none" height="40.9766" rx="5" ry="5" style="stroke:#000000;stroke-width:1.5;" width="180" x="306" y="235"/><rect fill="#F1F1F1" height="204.8828" rx="5" ry="5" style="stroke:#F1F1F1;stroke-width:1.5;" width="22" x="384" y="294"/><text fill="#000000" font-family="sans-serif" font-size="14" lengthAdjust="spacing" textLength="12" x="389" y="309.5352">   </text><line style="stroke:#000000;stroke-width:1.0;" x1="384" x2="406" y1="314.4883" y2="314.4883"/><text fill="#000000" font-family="sans-serif" font-size="14" lengthAdjust="spacing" textLength="12" x="389" y="330.0234">   </text><line style="stroke:#000000;stroke-width:1.0;" x1="384" x2="406" y1="334.9766" y2="334.9766"/><text fill="#000000" font-family="sans-serif" font-size="14" lengthAdjust="spacing" textLength="12" x="389" y="350.5117">   </text><line style="stroke:#000000;stroke-width:1.0;" x1="384" x2="406" y1="355.4648" y2="355.4648"/><text fill="#000000" font-family="sans-serif" font-size="14" lengthAdjust="spacing" textLength="12" x="389" y="371">   </text><line style="stroke:#000000;stroke-width:1.0;" x1="384" x2="406" y1="375.9531" y2="375.9531"/><text fill="#000000" font-family="sans-serif" font-size="14" lengthAdjust="spacing" textLength="12" x="389" y="391.4883">   </text><line style="stroke:#000000;stroke-width:1.0;" x1="384" x2="406" y1="396.4414" y2="396.4414"/><text fill="#000000" font-family="sans-serif" font-size="14" lengthAdjust="spacing" textLength="12" x="389" y="411.9766">   </text><line style="stroke:#000000;stroke-width:1.0;" x1="384" x2="406" y1="416.9297" y2="416.9297"/><text fill="#000000" font-family="sans-serif" font-size="14" lengthAdjust="spacing" textLength="12" x="389" y="432.4648">   </text><line style="stroke:#000000;stroke-width:1.0;" x1="384" x2="406" y1="437.418" y2="437.418"/><text fill="#000000" font-family="sans-serif" font-size="14" lengthAdjust="spacing" textLength="12" x="389" y="452.9531">   </text><line style="stroke:#000000;stroke-width:1.0;" x1="384" x2="406" y1="457.9063" y2="457.9063"/><text fill="#000000" font-family="sans-serif" font-size="14" lengthAdjust="spacing" textLength="12" x="389" y="473.4414">   </text><line style="stroke:#000000;stroke-width:1.0;" x1="384" x2="406" y1="478.3945" y2="478.3945"/><text fill="#000000" font-family="sans-serif" font-size="14" lengthAdjust="spacing" textLength="12" x="389" y="493.9297">   </text><rect fill="none" height="204.8828" rx="5" ry="5" style="stroke:#000000;stroke-width:1.5;" width="22" x="384" y="294"/><rect fill="#F1F1F1" height="61.4648" rx="5" ry="5" style="stroke:#F1F1F1;stroke-width:1.5;" width="152" x="588" y="10"/><text fill="#000000" font-family="sans-serif" font-size="14" font-weight="bold" lengthAdjust="spacing" textLength="78" x="593" y="25.5352">field_value</text><text fill="#000000" font-family="sans-serif" font-size="14" lengthAdjust="spacing" textLength="38" x="697" y="25.5352">Brazil</text><line style="stroke:#000000;stroke-width:1.0;" x1="692" x2="692" y1="10" y2="30.4883"/><line style="stroke:#000000;stroke-width:1.0;" x1="588" x2="740" y1="30.4883" y2="30.4883"/><text fill="#000000" font-family="sans-serif" font-size="14" font-weight="bold" lengthAdjust="spacing" textLength="74" x="593" y="46.0234">row_count</text><text fill="#000000" font-family="sans-serif" font-size="14" lengthAdjust="spacing" textLength="9" x="697" y="46.0234">1</text><line style="stroke:#000000;stroke-width:1.0;" x1="692" x2="692" y1="30.4883" y2="50.9766"/><line style="stroke:#000000;stroke-width:1.0;" x1="588" x2="740" y1="50.9766" y2="50.9766"/><text fill="#000000" font-family="sans-serif" font-size="14" font-weight="bold" lengthAdjust="spacing" textLength="94" x="593" y="66.5117">ratio_percent</text><text fill="#000000" font-family="sans-serif" font-size="14" lengthAdjust="spacing" textLength="22" x="697" y="66.5117">4.0</text><line style="stroke:#000000;stroke-width:1.0;" x1="692" x2="692" y1="50.9766" y2="71.4648"/><rect fill="none" height="61.4648" rx="5" ry="5" style="stroke:#000000;stroke-width:1.5;" width="152" x="588" y="10"/><rect fill="#F1F1F1" height="61.4648" rx="5" ry="5" style="stroke:#F1F1F1;stroke-width:1.5;" width="176" x="576" y="89"/><text fill="#000000" font-family="sans-serif" font-size="14" font-weight="bold" lengthAdjust="spacing" textLength="78" x="581" y="104.5352">field_value</text><text fill="#000000" font-family="sans-serif" font-size="14" lengthAdjust="spacing" textLength="62" x="685" y="104.5352">Denmark</text><line style="stroke:#000000;stroke-width:1.0;" x1="680" x2="680" y1="89" y2="109.4883"/><line style="stroke:#000000;stroke-width:1.0;" x1="576" x2="752" y1="109.4883" y2="109.4883"/><text fill="#000000" font-family="sans-serif" font-size="14" font-weight="bold" lengthAdjust="spacing" textLength="74" x="581" y="125.0234">row_count</text><text fill="#000000" font-family="sans-serif" font-size="14" lengthAdjust="spacing" textLength="9" x="685" y="125.0234">1</text><line style="stroke:#000000;stroke-width:1.0;" x1="680" x2="680" y1="109.4883" y2="129.9766"/><line style="stroke:#000000;stroke-width:1.0;" x1="576" x2="752" y1="129.9766" y2="129.9766"/><text fill="#000000" font-family="sans-serif" font-size="14" font-weight="bold" lengthAdjust="spacing" textLength="94" x="581" y="145.5117">ratio_percent</text><text fill="#000000" font-family="sans-serif" font-size="14" lengthAdjust="spacing" textLength="22" x="685" y="145.5117">4.0</text><line style="stroke:#000000;stroke-width:1.0;" x1="680" x2="680" y1="129.9766" y2="150.4648"/><rect fill="none" height="61.4648" rx="5" ry="5" style="stroke:#000000;stroke-width:1.5;" width="176" x="576" y="89"/><rect fill="#F1F1F1" height="61.4648" rx="5" ry="5" style="stroke:#F1F1F1;stroke-width:1.5;" width="164" x="582" y="168"/><text fill="#000000" font-family="sans-serif" font-size="14" font-weight="bold" lengthAdjust="spacing" textLength="78" x="587" y="183.5352">field_value</text><text fill="#000000" font-family="sans-serif" font-size="14" lengthAdjust="spacing" textLength="50" x="691" y="183.5352">Zambia</text><line style="stroke:#000000;stroke-width:1.0;" x1="686" x2="686" y1="168" y2="188.4883"/><line style="stroke:#000000;stroke-width:1.0;" x1="582" x2="746" y1="188.4883" y2="188.4883"/><text fill="#000000" font-family="sans-serif" font-size="14" font-weight="bold" lengthAdjust="spacing" textLength="74" x="587" y="204.0234">row_count</text><text fill="#000000" font-family="sans-serif" font-size="14" lengthAdjust="spacing" textLength="9" x="691" y="204.0234">1</text><line style="stroke:#000000;stroke-width:1.0;" x1="686" x2="686" y1="188.4883" y2="208.9766"/><line style="stroke:#000000;stroke-width:1.0;" x1="582" x2="746" y1="208.9766" y2="208.9766"/><text fill="#000000" font-family="sans-serif" font-size="14" font-weight="bold" lengthAdjust="spacing" textLength="94" x="587" y="224.5117">ratio_percent</text><text fill="#000000" font-family="sans-serif" font-size="14" lengthAdjust="spacing" textLength="22" x="691" y="224.5117">4.0</text><line style="stroke:#000000;stroke-width:1.0;" x1="686" x2="686" y1="208.9766" y2="229.4648"/><rect fill="none" height="61.4648" rx="5" ry="5" style="stroke:#000000;stroke-width:1.5;" width="164" x="582" y="168"/><rect fill="#F1F1F1" height="61.4648" rx="5" ry="5" style="stroke:#F1F1F1;stroke-width:1.5;" width="184" x="572" y="247"/><text fill="#000000" font-family="sans-serif" font-size="14" font-weight="bold" lengthAdjust="spacing" textLength="78" x="577" y="262.5352">field_value</text><text fill="#000000" font-family="sans-serif" font-size="14" lengthAdjust="spacing" textLength="70" x="681" y="262.5352">Zimbabwe</text><line style="stroke:#000000;stroke-width:1.0;" x1="676" x2="676" y1="247" y2="267.4883"/><line style="stroke:#000000;stroke-width:1.0;" x1="572" x2="756" y1="267.4883" y2="267.4883"/><text fill="#000000" font-family="sans-serif" font-size="14" font-weight="bold" lengthAdjust="spacing" textLength="74" x="577" y="283.0234">row_count</text><text fill="#000000" font-family="sans-serif" font-size="14" lengthAdjust="spacing" textLength="9" x="681" y="283.0234">1</text><line style="stroke:#000000;stroke-width:1.0;" x1="676" x2="676" y1="267.4883" y2="287.9766"/><line style="stroke:#000000;stroke-width:1.0;" x1="572" x2="756" y1="287.9766" y2="287.9766"/><text fill="#000000" font-family="sans-serif" font-size="14" font-weight="bold" lengthAdjust="spacing" textLength="94" x="577" y="303.5117">ratio_percent</text><text fill="#000000" font-family="sans-serif" font-size="14" lengthAdjust="spacing" textLength="22" x="681" y="303.5117">4.0</text><line style="stroke:#000000;stroke-width:1.0;" x1="676" x2="676" y1="287.9766" y2="308.4648"/><rect fill="none" height="61.4648" rx="5" ry="5" style="stroke:#000000;stroke-width:1.5;" width="184" x="572" y="247"/><rect fill="#F1F1F1" height="61.4648" rx="5" ry="5" style="stroke:#F1F1F1;stroke-width:1.5;" width="160" x="584" y="326"/><text fill="#000000" font-family="sans-serif" font-size="14" font-weight="bold" lengthAdjust="spacing" textLength="78" x="589" y="341.5352">field_value</text><text fill="#000000" font-family="sans-serif" font-size="14" lengthAdjust="spacing" textLength="46" x="693" y="341.5352">France</text><line style="stroke:#000000;stroke-width:1.0;" x1="688" x2="688" y1="326" y2="346.4883"/><line style="stroke:#000000;stroke-width:1.0;" x1="584" x2="744" y1="346.4883" y2="346.4883"/><text fill="#000000" font-family="sans-serif" font-size="14" font-weight="bold" lengthAdjust="spacing" textLength="74" x="589" y="362.0234">row_count</text><text fill="#000000" font-family="sans-serif" font-size="14" lengthAdjust="spacing" textLength="9" x="693" y="362.0234">1</text><line style="stroke:#000000;stroke-width:1.0;" x1="688" x2="688" y1="346.4883" y2="366.9766"/><line style="stroke:#000000;stroke-width:1.0;" x1="584" x2="744" y1="366.9766" y2="366.9766"/><text fill="#000000" font-family="sans-serif" font-size="14" font-weight="bold" lengthAdjust="spacing" textLength="94" x="589" y="382.5117">ratio_percent</text><text fill="#000000" font-family="sans-serif" font-size="14" lengthAdjust="spacing" textLength="22" x="693" y="382.5117">4.0</text><line style="stroke:#000000;stroke-width:1.0;" x1="688" x2="688" y1="366.9766" y2="387.4648"/><rect fill="none" height="61.4648" rx="5" ry="5" style="stroke:#000000;stroke-width:1.5;" width="160" x="584" y="326"/><rect fill="#F1F1F1" height="61.4648" rx="5" ry="5" style="stroke:#F1F1F1;stroke-width:1.5;" width="172" x="578" y="405"/><text fill="#000000" font-family="sans-serif" font-size="14" font-weight="bold" lengthAdjust="spacing" textLength="78" x="583" y="420.5352">field_value</text><text fill="#000000" font-family="sans-serif" font-size="14" lengthAdjust="spacing" textLength="58" x="687" y="420.5352">Malaysia</text><line style="stroke:#000000;stroke-width:1.0;" x1="682" x2="682" y1="405" y2="425.4883"/><line style="stroke:#000000;stroke-width:1.0;" x1="578" x2="750" y1="425.4883" y2="425.4883"/><text fill="#000000" font-family="sans-serif" font-size="14" font-weight="bold" lengthAdjust="spacing" textLength="74" x="583" y="441.0234">row_count</text><text fill="#000000" font-family="sans-serif" font-size="14" lengthAdjust="spacing" textLength="9" x="687" y="441.0234">1</text><line style="stroke:#000000;stroke-width:1.0;" x1="682" x2="682" y1="425.4883" y2="445.9766"/><line style="stroke:#000000;stroke-width:1.0;" x1="578" x2="750" y1="445.9766" y2="445.9766"/><text fill="#000000" font-family="sans-serif" font-size="14" font-weight="bold" lengthAdjust="spacing" textLength="94" x="583" y="461.5117">ratio_percent</text><text fill="#000000" font-family="sans-serif" font-size="14" lengthAdjust="spacing" textLength="22" x="687" y="461.5117">4.0</text><line style="stroke:#000000;stroke-width:1.0;" x1="682" x2="682" y1="445.9766" y2="466.4648"/><rect fill="none" height="61.4648" rx="5" ry="5" style="stroke:#000000;stroke-width:1.5;" width="172" x="578" y="405"/><rect fill="#F1F1F1" height="61.4648" rx="5" ry="5" style="stroke:#F1F1F1;stroke-width:1.5;" width="225" x="551.5" y="484"/><text fill="#000000" font-family="sans-serif" font-size="14" font-weight="bold" lengthAdjust="spacing" textLength="78" x="556.5" y="499.5352">field_value</text><text fill="#000000" font-family="sans-serif" font-size="14" lengthAdjust="spacing" textLength="111" x="660.5" y="499.5352">United Kingdom</text><line style="stroke:#000000;stroke-width:1.0;" x1="655.5" x2="655.5" y1="484" y2="504.4883"/><line style="stroke:#000000;stroke-width:1.0;" x1="551.5" x2="776.5" y1="504.4883" y2="504.4883"/><text fill="#000000" font-family="sans-serif" font-size="14" font-weight="bold" lengthAdjust="spacing" textLength="74" x="556.5" y="520.0234">row_count</text><text fill="#000000" font-family="sans-serif" font-size="14" lengthAdjust="spacing" textLength="9" x="660.5" y="520.0234">1</text><line style="stroke:#000000;stroke-width:1.0;" x1="655.5" x2="655.5" y1="504.4883" y2="524.9766"/><line style="stroke:#000000;stroke-width:1.0;" x1="551.5" x2="776.5" y1="524.9766" y2="524.9766"/><text fill="#000000" font-family="sans-serif" font-size="14" font-weight="bold" lengthAdjust="spacing" textLength="94" x="556.5" y="540.5117">ratio_percent</text><text fill="#000000" font-family="sans-serif" font-size="14" lengthAdjust="spacing" textLength="22" x="660.5" y="540.5117">4.0</text><line style="stroke:#000000;stroke-width:1.0;" x1="655.5" x2="655.5" y1="524.9766" y2="545.4648"/><rect fill="none" height="61.4648" rx="5" ry="5" style="stroke:#000000;stroke-width:1.5;" width="225" x="551.5" y="484"/><rect fill="#F1F1F1" height="61.4648" rx="5" ry="5" style="stroke:#F1F1F1;stroke-width:1.5;" width="282" x="523" y="563"/><text fill="#000000" font-family="sans-serif" font-size="14" font-weight="bold" lengthAdjust="spacing" textLength="78" x="528" y="578.5352">field_value</text><text fill="#000000" font-family="sans-serif" font-size="14" lengthAdjust="spacing" textLength="168" x="632" y="578.5352">United States of America</text><line style="stroke:#000000;stroke-width:1.0;" x1="627" x2="627" y1="563" y2="583.4883"/><line style="stroke:#000000;stroke-width:1.0;" x1="523" x2="805" y1="583.4883" y2="583.4883"/><text fill="#000000" font-family="sans-serif" font-size="14" font-weight="bold" lengthAdjust="spacing" textLength="74" x="528" y="599.0234">row_count</text><text fill="#000000" font-family="sans-serif" font-size="14" lengthAdjust="spacing" textLength="9" x="632" y="599.0234">1</text><line style="stroke:#000000;stroke-width:1.0;" x1="627" x2="627" y1="583.4883" y2="603.9766"/><line style="stroke:#000000;stroke-width:1.0;" x1="523" x2="805" y1="603.9766" y2="603.9766"/><text fill="#000000" font-family="sans-serif" font-size="14" font-weight="bold" lengthAdjust="spacing" textLength="94" x="528" y="619.5117">ratio_percent</text><text fill="#000000" font-family="sans-serif" font-size="14" lengthAdjust="spacing" textLength="22" x="632" y="619.5117">4.0</text><line style="stroke:#000000;stroke-width:1.0;" x1="627" x2="627" y1="603.9766" y2="624.4648"/><rect fill="none" height="61.4648" rx="5" ry="5" style="stroke:#000000;stroke-width:1.5;" width="282" x="523" y="563"/><rect fill="#F1F1F1" height="61.4648" rx="5" ry="5" style="stroke:#F1F1F1;stroke-width:1.5;" width="175" x="576.5" y="642"/><text fill="#000000" font-family="sans-serif" font-size="14" font-weight="bold" lengthAdjust="spacing" textLength="78" x="581.5" y="657.5352">field_value</text><text fill="#000000" font-family="sans-serif" font-size="14" lengthAdjust="spacing" textLength="61" x="685.5" y="657.5352">Germany</text><line style="stroke:#000000;stroke-width:1.0;" x1="680.5" x2="680.5" y1="642" y2="662.4883"/><line style="stroke:#000000;stroke-width:1.0;" x1="576.5" x2="751.5" y1="662.4883" y2="662.4883"/><text fill="#000000" font-family="sans-serif" font-size="14" font-weight="bold" lengthAdjust="spacing" textLength="74" x="581.5" y="678.0234">row_count</text><text fill="#000000" font-family="sans-serif" font-size="14" lengthAdjust="spacing" textLength="9" x="685.5" y="678.0234">1</text><line style="stroke:#000000;stroke-width:1.0;" x1="680.5" x2="680.5" y1="662.4883" y2="682.9766"/><line style="stroke:#000000;stroke-width:1.0;" x1="576.5" x2="751.5" y1="682.9766" y2="682.9766"/><text fill="#000000" font-family="sans-serif" font-size="14" font-weight="bold" lengthAdjust="spacing" textLength="94" x="581.5" y="698.5117">ratio_percent</text><text fill="#000000" font-family="sans-serif" font-size="14" lengthAdjust="spacing" textLength="22" x="685.5" y="698.5117">4.0</text><line style="stroke:#000000;stroke-width:1.0;" x1="680.5" x2="680.5" y1="682.9766" y2="703.4648"/><rect fill="none" height="61.4648" rx="5" ry="5" style="stroke:#000000;stroke-width:1.5;" width="175" x="576.5" y="642"/><rect fill="#F1F1F1" height="61.4648" rx="5" ry="5" style="stroke:#F1F1F1;stroke-width:1.5;" width="154" x="587" y="721"/><text fill="#000000" font-family="sans-serif" font-size="14" font-weight="bold" lengthAdjust="spacing" textLength="78" x="592" y="736.5352">field_value</text><text fill="#000000" font-family="sans-serif" font-size="14" lengthAdjust="spacing" textLength="40" x="696" y="736.5352">China</text><line style="stroke:#000000;stroke-width:1.0;" x1="691" x2="691" y1="721" y2="741.4883"/><line style="stroke:#000000;stroke-width:1.0;" x1="587" x2="741" y1="741.4883" y2="741.4883"/><text fill="#000000" font-family="sans-serif" font-size="14" font-weight="bold" lengthAdjust="spacing" textLength="74" x="592" y="757.0234">row_count</text><text fill="#000000" font-family="sans-serif" font-size="14" lengthAdjust="spacing" textLength="9" x="696" y="757.0234">1</text><line style="stroke:#000000;stroke-width:1.0;" x1="691" x2="691" y1="741.4883" y2="761.9766"/><line style="stroke:#000000;stroke-width:1.0;" x1="587" x2="741" y1="761.9766" y2="761.9766"/><text fill="#000000" font-family="sans-serif" font-size="14" font-weight="bold" lengthAdjust="spacing" textLength="94" x="592" y="777.5117">ratio_percent</text><text fill="#000000" font-family="sans-serif" font-size="14" lengthAdjust="spacing" textLength="22" x="696" y="777.5117">4.0</text><line style="stroke:#000000;stroke-width:1.0;" x1="691" x2="691" y1="761.9766" y2="782.4648"/><rect fill="none" height="61.4648" rx="5" ry="5" style="stroke:#000000;stroke-width:1.5;" width="154" x="587" y="721"/><path d="M257,315.5 L270,315.5 C290.8273,315.5 287.8137,295.6507 306,285.5 C310.038,283.2462 314.2733,281.1247 318.6133,279.1338 " fill="none" style="stroke:#000000;stroke-width:1.0;stroke-dasharray:3.0,3.0;"/><path d="M319.8219,281.8909 L320.6812,278.2274 L317.4048,276.3766 L325.5062,276.1124 L319.8219,281.8909 " fill="#000000" style="stroke:#000000;stroke-width:1.0;"/><ellipse cx="257" cy="315.5" fill="#000000" rx="3" ry="3" style="stroke:#000000;stroke-width:1.0;"/><path d="M396.5,303.5 L409.5,303.5 C444.8613,303.5 462.6954,311.1847 487,285.5 C550.8819,217.9906 460.5687,148.3531 523,79.5 C538.0481,62.904 559.482,53.1216 581.0886,47.4252 " fill="none" style="stroke:#000000;stroke-width:1.0;stroke-dasharray:3.0,3.0;"/><path d="M581.8003,50.3553 L583.2861,46.8915 L580.377,44.4952 L588.4137,45.6461 L581.8003,50.3553 " fill="#000000" style="stroke:#000000;stroke-width:1.0;"/><ellipse cx="396.5" cy="303.5" fill="#000000" rx="3" ry="3" style="stroke:#000000;stroke-width:1.0;"/><path d="M396.5,324.5 L409.5,324.5 C448.0599,324.5 462.4435,315.2295 487,285.5 C524.3625,240.267 481.4022,199.8715 523,158.5 C535.6428,145.926 551.9649,137.3189 568.9847,131.4476 " fill="none" style="stroke:#000000;stroke-width:1.0;stroke-dasharray:3.0,3.0;"/><path d="M569.9256,134.3789 L571.1831,130.7419 L568.0437,128.5163 L576.3128,129.0952 L569.9256,134.3789 " fill="#000000" style="stroke:#000000;stroke-width:1.0;"/><ellipse cx="396.5" cy="324.5" fill="#000000" rx="3" ry="3" style="stroke:#000000;stroke-width:1.0;"/><path d="M396.5,344.5 L409.5,344.5 C452.79,344.5 456.4995,316.2205 487,285.5 C505.7883,266.5762 500.9764,252.5358 523,237.5 C538.5038,226.9154 556.815,219.1904 575.0061,213.5565 " fill="none" style="stroke:#000000;stroke-width:1.0;stroke-dasharray:3.0,3.0;"/><path d="M575.86,216.4489 L577.1754,212.916 L574.1522,210.6641 L582.2372,211.4216 L575.86,216.4489 " fill="#000000" style="stroke:#000000;stroke-width:1.0;"/><ellipse cx="396.5" cy="344.5" fill="#000000" rx="3" ry="3" style="stroke:#000000;stroke-width:1.0;"/><path d="M396.5,365.5 L409.5,365.5 C464.27,365.5 471.3421,335.6994 523,317.5 C536.4441,312.7636 550.7571,308.1789 564.9094,303.9076 " fill="none" style="stroke:#000000;stroke-width:1.0;stroke-dasharray:3.0,3.0;"/><path d="M565.7911,306.8598 L567.1236,303.2463 L564.0277,300.9553 L572.2901,301.7034 L565.7911,306.8598 " fill="#000000" style="stroke:#000000;stroke-width:1.0;"/><ellipse cx="396.5" cy="365.5" fill="#000000" rx="3" ry="3" style="stroke:#000000;stroke-width:1.0;"/><path d="M396.5,385.5 L409.5,385.5 C465.4369,385.5 527.8584,378.4714 576.8225,371.3347 " fill="none" style="stroke:#000000;stroke-width:1.0;stroke-dasharray:3.0,3.0;"/><path d="M577.2621,374.3073 L579.052,371.005 L576.3829,368.362 L584.2541,370.2357 L577.2621,374.3073 " fill="#000000" style="stroke:#000000;stroke-width:1.0;"/><ellipse cx="396.5" cy="385.5" fill="#000000" rx="3" ry="3" style="stroke:#000000;stroke-width:1.0;"/><path d="M396.5,406.5 L409.5,406.5 C463.1102,406.5 522.6768,412.956 570.6442,419.7758 " fill="none" style="stroke:#000000;stroke-width:1.0;stroke-dasharray:3.0,3.0;"/><path d="M570.2055,422.8143 L572.923,420.1049 L571.0829,416.7374 L578.2403,420.8726 L570.2055,422.8143 " fill="#000000" style="stroke:#000000;stroke-width:1.0;"/><ellipse cx="396.5" cy="406.5" fill="#000000" rx="3" ry="3" style="stroke:#000000;stroke-width:1.0;"/><path d="M396.5,427.5 L409.5,427.5 C464.27,427.5 471.2824,457.4711 523,475.5 C529.9919,477.9374 537.2202,480.3269 544.5397,482.6478 " fill="none" style="stroke:#000000;stroke-width:1.0;stroke-dasharray:3.0,3.0;"/><path d="M543.6208,485.5855 L546.743,483.3369 L545.4585,479.71 L551.8841,484.9449 L543.6208,485.5855 " fill="#000000" style="stroke:#000000;stroke-width:1.0;"/><ellipse cx="396.5" cy="427.5" fill="#000000" rx="3" ry="3" style="stroke:#000000;stroke-width:1.0;"/><path d="M396.5,447.5 L409.5,447.5 C478.8266,447.5 462.6092,520.4541 523,554.5 C526.2078,556.3085 529.5048,558.0373 532.8703,559.6898 " fill="none" style="stroke:#000000;stroke-width:1.0;stroke-dasharray:3.0,3.0;"/><path d="M531.5561,562.489 L534.9698,560.6755 L534.1846,556.8905 L539.8684,562.9754 L531.5561,562.489 " fill="#000000" style="stroke:#000000;stroke-width:1.0;"/><ellipse cx="396.5" cy="447.5" fill="#000000" rx="3" ry="3" style="stroke:#000000;stroke-width:1.0;"/><path d="M396.5,468.5 L409.5,468.5 C498.508,468.5 450.5329,581.8189 523,633.5 C536.7622,643.3147 552.9039,650.6628 569.2475,656.1632 " fill="none" style="stroke:#000000;stroke-width:1.0;stroke-dasharray:3.0,3.0;"/><path d="M568.2878,659.1694 L571.5022,656.883 L570.2073,653.1569 L576.7631,658.5626 L568.2878,659.1694 " fill="#000000" style="stroke:#000000;stroke-width:1.0;"/><ellipse cx="396.5" cy="468.5" fill="#000000" rx="3" ry="3" style="stroke:#000000;stroke-width:1.0;"/><path d="M396.5,488.5 L409.5,488.5 C521.1062,488.5 436.6608,641.7788 523,712.5 C539.2207,725.7865 559.653,734.558 579.8736,740.3453 " fill="none" style="stroke:#000000;stroke-width:1.0;stroke-dasharray:3.0,3.0;"/><path d="M579.0736,743.3181 L582.1032,740.9453 L580.6736,737.3725 L587.3055,742.3453 L579.0736,743.3181 " fill="#000000" style="stroke:#000000;stroke-width:1.0;"/><ellipse cx="396.5" cy="488.5" fill="#000000" rx="3" ry="3" style="stroke:#000000;stroke-width:1.0;"/><path d="M257,336.5 L270,336.5 C312.1629,336.5 355.1866,364.4055 378.2874,382.1547 " fill="none" style="stroke:#000000;stroke-width:1.0;stroke-dasharray:3.0,3.0;"/><path d="M376.4053,384.5427 L380.0784,383.5663 L380.1695,379.7667 L384.2574,386.86 L376.4053,384.5427 " fill="#000000" style="stroke:#000000;stroke-width:1.0;"/><ellipse cx="257" cy="336.5" fill="#000000" rx="3" ry="3" style="stroke:#000000;stroke-width:1.0;"/><!--MD5=[59674d352d40be4f84a554dca95fb9f1]
@startjson
{
    "field1": "COUNTRY_NAME",
    "combination": "COUNTRY_NAME",
    "null_distribution": {
        "total_null_rows": 0,
        "total_not_null_rows": 25
    },
    "data_distribution": [
        {
            "field_value": "Brazil",
            "row_count": 1,
            "ratio_percent": 4.0
        },
        {
            "field_value": "Denmark",
            "row_count": 1,
            "ratio_percent": 4.0
        },
        {
            "field_value": "Zambia",
            "row_count": 1,
            "ratio_percent": 4.0
        },
        {
            "field_value": "Zimbabwe",
            "row_count": 1,
            "ratio_percent": 4.0
        },
        {
            "field_value": "France",
            "row_count": 1,
            "ratio_percent": 4.0
        },
        {
            "field_value": "Malaysia",
            "row_count": 1,
            "ratio_percent": 4.0
        },
        {
            "field_value": "United Kingdom",
            "row_count": 1,
            "ratio_percent": 4.0
        },
        {
            "field_value": "United States of America",
            "row_count": 1,
            "ratio_percent": 4.0
        },
        {
            "field_value": "Germany",
            "row_count": 1,
            "ratio_percent": 4.0
        },
        {
            "field_value": "China",
            "row_count": 1,
            "ratio_percent": 4.0
        }
    ]
}
@endjson

PlantUML version 1.2022.12(Sun Oct 23 14:12:26 EDT 2022)
(GPL source distribution)
Java Runtime: OpenJDK Runtime Environment
JVM: OpenJDK 64-Bit Server VM
Default Encoding: UTF-8
Language: en
Country: CA
--></g></svg>