<?xml version="1.0" encoding="UTF-8" standalone="no"?><svg xmlns="http://www.w3.org/2000/svg" xmlns:xlink="http://www.w3.org/1999/xlink" contentStyleType="text/css" height="794px" preserveAspectRatio="none" style="width:799px;height:794px;background:#FFFFFF;" version="1.1" viewBox="0 0 799 794" width="799px" zoomAndPan="magnify"><defs/><g><rect fill="#F1F1F1" height="81.9531" rx="5" ry="5" style="stroke:#F1F1F1;stroke-width:1.5;" width="234" x="10" y="264.5"/><text fill="#000000" font-family="sans-serif" font-size="14" font-weight="bold" lengthAdjust="spacing" textLength="42" x="15" y="280.0352">field1</text><text fill="#000000" font-family="sans-serif" font-size="14" lengthAdjust="spacing" textLength="90" x="149" y="280.0352">CONTACT_ID</text><line style="stroke:#000000;stroke-width:1.0;" x1="144" x2="144" y1="264.5" y2="284.9883"/><line style="stroke:#000000;stroke-width:1.0;" x1="10" x2="244" y1="284.9883" y2="284.9883"/><text fill="#000000" font-family="sans-serif" font-size="14" font-weight="bold" lengthAdjust="spacing" textLength="90" x="15" y="300.5234">combination</text><text fill="#000000" font-family="sans-serif" font-size="14" lengthAdjust="spacing" textLength="90" x="149" y="300.5234">CONTACT_ID</text><line style="stroke:#000000;stroke-width:1.0;" x1="144" x2="144" y1="284.9883" y2="305.4766"/><line style="stroke:#000000;stroke-width:1.0;" x1="10" x2="244" y1="305.4766" y2="305.4766"/><text fill="#000000" font-family="sans-serif" font-size="14" font-weight="bold" lengthAdjust="spacing" textLength="121" x="15" y="321.0117">null_distribution</text><text fill="#000000" font-family="sans-serif" font-size="14" lengthAdjust="spacing" textLength="12" x="149" y="321.0117">   </text><line style="stroke:#000000;stroke-width:1.0;" x1="144" x2="144" y1="305.4766" y2="325.9648"/><line style="stroke:#000000;stroke-width:1.0;" x1="10" x2="244" y1="325.9648" y2="325.9648"/><text fill="#000000" font-family="sans-serif" font-size="14" font-weight="bold" lengthAdjust="spacing" textLength="124" x="15" y="341.5">data_distribution</text><text fill="#000000" font-family="sans-serif" font-size="14" lengthAdjust="spacing" textLength="12" x="149" y="341.5">   </text><line style="stroke:#000000;stroke-width:1.0;" x1="144" x2="144" y1="325.9648" y2="346.4531"/><rect fill="none" height="81.9531" rx="5" ry="5" style="stroke:#000000;stroke-width:1.5;" width="234" x="10" y="264.5"/><rect fill="#F1F1F1" height="40.9766" rx="5" ry="5" style="stroke:#F1F1F1;stroke-width:1.5;" width="189" x="281" y="235"/><text fill="#000000" font-family="sans-serif" font-size="14" font-weight="bold" lengthAdjust="spacing" textLength="111" x="286" y="250.5352">total_null_rows</text><text fill="#000000" font-family="sans-serif" font-size="14" lengthAdjust="spacing" textLength="9" x="438" y="250.5352">0</text><line style="stroke:#000000;stroke-width:1.0;" x1="433" x2="433" y1="235" y2="255.4883"/><line style="stroke:#000000;stroke-width:1.0;" x1="281" x2="470" y1="255.4883" y2="255.4883"/><text fill="#000000" font-family="sans-serif" font-size="14" font-weight="bold" lengthAdjust="spacing" textLength="142" x="286" y="271.0234">total_not_null_rows</text><text fill="#000000" font-family="sans-serif" font-size="14" lengthAdjust="spacing" textLength="27" x="438" y="271.0234">319</text><line style="stroke:#000000;stroke-width:1.0;" x1="433" x2="433" y1="255.4883" y2="275.9766"/><rect fill="none" height="40.9766" rx="5" ry="5" style="stroke:#000000;stroke-width:1.5;" width="189" x="281" y="235"/><rect fill="#F1F1F1" height="204.8828" rx="5" ry="5" style="stroke:#F1F1F1;stroke-width:1.5;" width="22" x="363.5" y="294"/><text fill="#000000" font-family="sans-serif" font-size="14" lengthAdjust="spacing" textLength="12" x="368.5" y="309.5352">   </text><line style="stroke:#000000;stroke-width:1.0;" x1="363.5" x2="385.5" y1="314.4883" y2="314.4883"/><text fill="#000000" font-family="sans-serif" font-size="14" lengthAdjust="spacing" textLength="12" x="368.5" y="330.0234">   </text><line style="stroke:#000000;stroke-width:1.0;" x1="363.5" x2="385.5" y1="334.9766" y2="334.9766"/><text fill="#000000" font-family="sans-serif" font-size="14" lengthAdjust="spacing" textLength="12" x="368.5" y="350.5117">   </text><line style="stroke:#000000;stroke-width:1.0;" x1="363.5" x2="385.5" y1="355.4648" y2="355.4648"/><text fill="#000000" font-family="sans-serif" font-size="14" lengthAdjust="spacing" textLength="12" x="368.5" y="371">   </text><line style="stroke:#000000;stroke-width:1.0;" x1="363.5" x2="385.5" y1="375.9531" y2="375.9531"/><text fill="#000000" font-family="sans-serif" font-size="14" lengthAdjust="spacing" textLength="12" x="368.5" y="391.4883">   </text><line style="stroke:#000000;stroke-width:1.0;" x1="363.5" x2="385.5" y1="396.4414" y2="396.4414"/><text fill="#000000" font-family="sans-serif" font-size="14" lengthAdjust="spacing" textLength="12" x="368.5" y="411.9766">   </text><line style="stroke:#000000;stroke-width:1.0;" x1="363.5" x2="385.5" y1="416.9297" y2="416.9297"/><text fill="#000000" font-family="sans-serif" font-size="14" lengthAdjust="spacing" textLength="12" x="368.5" y="432.4648">   </text><line style="stroke:#000000;stroke-width:1.0;" x1="363.5" x2="385.5" y1="437.418" y2="437.418"/><text fill="#000000" font-family="sans-serif" font-size="14" lengthAdjust="spacing" textLength="12" x="368.5" y="452.9531">   </text><line style="stroke:#000000;stroke-width:1.0;" x1="363.5" x2="385.5" y1="457.9063" y2="457.9063"/><text fill="#000000" font-family="sans-serif" font-size="14" lengthAdjust="spacing" textLength="12" x="368.5" y="473.4414">   </text><line style="stroke:#000000;stroke-width:1.0;" x1="363.5" x2="385.5" y1="478.3945" y2="478.3945"/><text fill="#000000" font-family="sans-serif" font-size="14" lengthAdjust="spacing" textLength="12" x="368.5" y="493.9297">   </text><rect fill="none" height="204.8828" rx="5" ry="5" style="stroke:#000000;stroke-width:1.5;" width="22" x="363.5" y="294"/><rect fill="#F1F1F1" height="61.4648" rx="5" ry="5" style="stroke:#F1F1F1;stroke-width:1.5;" width="280" x="507" y="10"/><text fill="#000000" font-family="sans-serif" font-size="14" font-weight="bold" lengthAdjust="spacing" textLength="78" x="512" y="25.5352">field_value</text><text fill="#000000" font-family="sans-serif" font-size="14" lengthAdjust="spacing" textLength="9" x="616" y="25.5352">1</text><line style="stroke:#000000;stroke-width:1.0;" x1="611" x2="611" y1="10" y2="30.4883"/><line style="stroke:#000000;stroke-width:1.0;" x1="507" x2="787" y1="30.4883" y2="30.4883"/><text fill="#000000" font-family="sans-serif" font-size="14" font-weight="bold" lengthAdjust="spacing" textLength="74" x="512" y="46.0234">row_count</text><text fill="#000000" font-family="sans-serif" font-size="14" lengthAdjust="spacing" textLength="9" x="616" y="46.0234">1</text><line style="stroke:#000000;stroke-width:1.0;" x1="611" x2="611" y1="30.4883" y2="50.9766"/><line style="stroke:#000000;stroke-width:1.0;" x1="507" x2="787" y1="50.9766" y2="50.9766"/><text fill="#000000" font-family="sans-serif" font-size="14" font-weight="bold" lengthAdjust="spacing" textLength="94" x="512" y="66.5117">ratio_percent</text><text fill="#000000" font-family="sans-serif" font-size="14" lengthAdjust="spacing" textLength="166" x="616" y="66.5117">0.31347962382445144</text><line style="stroke:#000000;stroke-width:1.0;" x1="611" x2="611" y1="50.9766" y2="71.4648"/><rect fill="none" height="61.4648" rx="5" ry="5" style="stroke:#000000;stroke-width:1.5;" width="280" x="507" y="10"/><rect fill="#F1F1F1" height="61.4648" rx="5" ry="5" style="stroke:#F1F1F1;stroke-width:1.5;" width="280" x="507" y="89"/><text fill="#000000" font-family="sans-serif" font-size="14" font-weight="bold" lengthAdjust="spacing" textLength="78" x="512" y="104.5352">field_value</text><text fill="#000000" font-family="sans-serif" font-size="14" lengthAdjust="spacing" textLength="9" x="616" y="104.5352">2</text><line style="stroke:#000000;stroke-width:1.0;" x1="611" x2="611" y1="89" y2="109.4883"/><line style="stroke:#000000;stroke-width:1.0;" x1="507" x2="787" y1="109.4883" y2="109.4883"/><text fill="#000000" font-family="sans-serif" font-size="14" font-weight="bold" lengthAdjust="spacing" textLength="74" x="512" y="125.0234">row_count</text><text fill="#000000" font-family="sans-serif" font-size="14" lengthAdjust="spacing" textLength="9" x="616" y="125.0234">1</text><line style="stroke:#000000;stroke-width:1.0;" x1="611" x2="611" y1="109.4883" y2="129.9766"/><line style="stroke:#000000;stroke-width:1.0;" x1="507" x2="787" y1="129.9766" y2="129.9766"/><text fill="#000000" font-family="sans-serif" font-size="14" font-weight="bold" lengthAdjust="spacing" textLength="94" x="512" y="145.5117">ratio_percent</text><text fill="#000000" font-family="sans-serif" font-size="14" lengthAdjust="spacing" textLength="166" x="616" y="145.5117">0.31347962382445144</text><line style="stroke:#000000;stroke-width:1.0;" x1="611" x2="611" y1="129.9766" y2="150.4648"/><rect fill="none" height="61.4648" rx="5" ry="5" style="stroke:#000000;stroke-width:1.5;" width="280" x="507" y="89"/><rect fill="#F1F1F1" height="61.4648" rx="5" ry="5" style="stroke:#F1F1F1;stroke-width:1.5;" width="280" x="507" y="168"/><text fill="#000000" font-family="sans-serif" font-size="14" font-weight="bold" lengthAdjust="spacing" textLength="78" x="512" y="183.5352">field_value</text><text fill="#000000" font-family="sans-serif" font-size="14" lengthAdjust="spacing" textLength="9" x="616" y="183.5352">3</text><line style="stroke:#000000;stroke-width:1.0;" x1="611" x2="611" y1="168" y2="188.4883"/><line style="stroke:#000000;stroke-width:1.0;" x1="507" x2="787" y1="188.4883" y2="188.4883"/><text fill="#000000" font-family="sans-serif" font-size="14" font-weight="bold" lengthAdjust="spacing" textLength="74" x="512" y="204.0234">row_count</text><text fill="#000000" font-family="sans-serif" font-size="14" lengthAdjust="spacing" textLength="9" x="616" y="204.0234">1</text><line style="stroke:#000000;stroke-width:1.0;" x1="611" x2="611" y1="188.4883" y2="208.9766"/><line style="stroke:#000000;stroke-width:1.0;" x1="507" x2="787" y1="208.9766" y2="208.9766"/><text fill="#000000" font-family="sans-serif" font-size="14" font-weight="bold" lengthAdjust="spacing" textLength="94" x="512" y="224.5117">ratio_percent</text><text fill="#000000" font-family="sans-serif" font-size="14" lengthAdjust="spacing" textLength="166" x="616" y="224.5117">0.31347962382445144</text><line style="stroke:#000000;stroke-width:1.0;" x1="611" x2="611" y1="208.9766" y2="229.4648"/><rect fill="none" height="61.4648" rx="5" ry="5" style="stroke:#000000;stroke-width:1.5;" width="280" x="507" y="168"/><rect fill="#F1F1F1" height="61.4648" rx="5" ry="5" style="stroke:#F1F1F1;stroke-width:1.5;" width="280" x="507" y="247"/><text fill="#000000" font-family="sans-serif" font-size="14" font-weight="bold" lengthAdjust="spacing" textLength="78" x="512" y="262.5352">field_value</text><text fill="#000000" font-family="sans-serif" font-size="14" lengthAdjust="spacing" textLength="9" x="616" y="262.5352">4</text><line style="stroke:#000000;stroke-width:1.0;" x1="611" x2="611" y1="247" y2="267.4883"/><line style="stroke:#000000;stroke-width:1.0;" x1="507" x2="787" y1="267.4883" y2="267.4883"/><text fill="#000000" font-family="sans-serif" font-size="14" font-weight="bold" lengthAdjust="spacing" textLength="74" x="512" y="283.0234">row_count</text><text fill="#000000" font-family="sans-serif" font-size="14" lengthAdjust="spacing" textLength="9" x="616" y="283.0234">1</text><line style="stroke:#000000;stroke-width:1.0;" x1="611" x2="611" y1="267.4883" y2="287.9766"/><line style="stroke:#000000;stroke-width:1.0;" x1="507" x2="787" y1="287.9766" y2="287.9766"/><text fill="#000000" font-family="sans-serif" font-size="14" font-weight="bold" lengthAdjust="spacing" textLength="94" x="512" y="303.5117">ratio_percent</text><text fill="#000000" font-family="sans-serif" font-size="14" lengthAdjust="spacing" textLength="166" x="616" y="303.5117">0.31347962382445144</text><line style="stroke:#000000;stroke-width:1.0;" x1="611" x2="611" y1="287.9766" y2="308.4648"/><rect fill="none" height="61.4648" rx="5" ry="5" style="stroke:#000000;stroke-width:1.5;" width="280" x="507" y="247"/><rect fill="#F1F1F1" height="61.4648" rx="5" ry="5" style="stroke:#F1F1F1;stroke-width:1.5;" width="280" x="507" y="326"/><text fill="#000000" font-family="sans-serif" font-size="14" font-weight="bold" lengthAdjust="spacing" textLength="78" x="512" y="341.5352">field_value</text><text fill="#000000" font-family="sans-serif" font-size="14" lengthAdjust="spacing" textLength="18" x="616" y="341.5352">10</text><line style="stroke:#000000;stroke-width:1.0;" x1="611" x2="611" y1="326" y2="346.4883"/><line style="stroke:#000000;stroke-width:1.0;" x1="507" x2="787" y1="346.4883" y2="346.4883"/><text fill="#000000" font-family="sans-serif" font-size="14" font-weight="bold" lengthAdjust="spacing" textLength="74" x="512" y="362.0234">row_count</text><text fill="#000000" font-family="sans-serif" font-size="14" lengthAdjust="spacing" textLength="9" x="616" y="362.0234">1</text><line style="stroke:#000000;stroke-width:1.0;" x1="611" x2="611" y1="346.4883" y2="366.9766"/><line style="stroke:#000000;stroke-width:1.0;" x1="507" x2="787" y1="366.9766" y2="366.9766"/><text fill="#000000" font-family="sans-serif" font-size="14" font-weight="bold" lengthAdjust="spacing" textLength="94" x="512" y="382.5117">ratio_percent</text><text fill="#000000" font-family="sans-serif" font-size="14" lengthAdjust="spacing" textLength="166" x="616" y="382.5117">0.31347962382445144</text><line style="stroke:#000000;stroke-width:1.0;" x1="611" x2="611" y1="366.9766" y2="387.4648"/><rect fill="none" height="61.4648" rx="5" ry="5" style="stroke:#000000;stroke-width:1.5;" width="280" x="507" y="326"/><rect fill="#F1F1F1" height="61.4648" rx="5" ry="5" style="stroke:#F1F1F1;stroke-width:1.5;" width="280" x="507" y="405"/><text fill="#000000" font-family="sans-serif" font-size="14" font-weight="bold" lengthAdjust="spacing" textLength="78" x="512" y="420.5352">field_value</text><text fill="#000000" font-family="sans-serif" font-size="14" lengthAdjust="spacing" textLength="9" x="616" y="420.5352">6</text><line style="stroke:#000000;stroke-width:1.0;" x1="611" x2="611" y1="405" y2="425.4883"/><line style="stroke:#000000;stroke-width:1.0;" x1="507" x2="787" y1="425.4883" y2="425.4883"/><text fill="#000000" font-family="sans-serif" font-size="14" font-weight="bold" lengthAdjust="spacing" textLength="74" x="512" y="441.0234">row_count</text><text fill="#000000" font-family="sans-serif" font-size="14" lengthAdjust="spacing" textLength="9" x="616" y="441.0234">1</text><line style="stroke:#000000;stroke-width:1.0;" x1="611" x2="611" y1="425.4883" y2="445.9766"/><line style="stroke:#000000;stroke-width:1.0;" x1="507" x2="787" y1="445.9766" y2="445.9766"/><text fill="#000000" font-family="sans-serif" font-size="14" font-weight="bold" lengthAdjust="spacing" textLength="94" x="512" y="461.5117">ratio_percent</text><text fill="#000000" font-family="sans-serif" font-size="14" lengthAdjust="spacing" textLength="166" x="616" y="461.5117">0.31347962382445144</text><line style="stroke:#000000;stroke-width:1.0;" x1="611" x2="611" y1="445.9766" y2="466.4648"/><rect fill="none" height="61.4648" rx="5" ry="5" style="stroke:#000000;stroke-width:1.5;" width="280" x="507" y="405"/><rect fill="#F1F1F1" height="61.4648" rx="5" ry="5" style="stroke:#F1F1F1;stroke-width:1.5;" width="280" x="507" y="484"/><text fill="#000000" font-family="sans-serif" font-size="14" font-weight="bold" lengthAdjust="spacing" textLength="78" x="512" y="499.5352">field_value</text><text fill="#000000" font-family="sans-serif" font-size="14" lengthAdjust="spacing" textLength="9" x="616" y="499.5352">7</text><line style="stroke:#000000;stroke-width:1.0;" x1="611" x2="611" y1="484" y2="504.4883"/><line style="stroke:#000000;stroke-width:1.0;" x1="507" x2="787" y1="504.4883" y2="504.4883"/><text fill="#000000" font-family="sans-serif" font-size="14" font-weight="bold" lengthAdjust="spacing" textLength="74" x="512" y="520.0234">row_count</text><text fill="#000000" font-family="sans-serif" font-size="14" lengthAdjust="spacing" textLength="9" x="616" y="520.0234">1</text><line style="stroke:#000000;stroke-width:1.0;" x1="611" x2="611" y1="504.4883" y2="524.9766"/><line style="stroke:#000000;stroke-width:1.0;" x1="507" x2="787" y1="524.9766" y2="524.9766"/><text fill="#000000" font-family="sans-serif" font-size="14" font-weight="bold" lengthAdjust="spacing" textLength="94" x="512" y="540.5117">ratio_percent</text><text fill="#000000" font-family="sans-serif" font-size="14" lengthAdjust="spacing" textLength="166" x="616" y="540.5117">0.31347962382445144</text><line style="stroke:#000000;stroke-width:1.0;" x1="611" x2="611" y1="524.9766" y2="545.4648"/><rect fill="none" height="61.4648" rx="5" ry="5" style="stroke:#000000;stroke-width:1.5;" width="280" x="507" y="484"/><rect fill="#F1F1F1" height="61.4648" rx="5" ry="5" style="stroke:#F1F1F1;stroke-width:1.5;" width="280" x="507" y="563"/><text fill="#000000" font-family="sans-serif" font-size="14" font-weight="bold" lengthAdjust="spacing" textLength="78" x="512" y="578.5352">field_value</text><text fill="#000000" font-family="sans-serif" font-size="14" lengthAdjust="spacing" textLength="9" x="616" y="578.5352">8</text><line style="stroke:#000000;stroke-width:1.0;" x1="611" x2="611" y1="563" y2="583.4883"/><line style="stroke:#000000;stroke-width:1.0;" x1="507" x2="787" y1="583.4883" y2="583.4883"/><text fill="#000000" font-family="sans-serif" font-size="14" font-weight="bold" lengthAdjust="spacing" textLength="74" x="512" y="599.0234">row_count</text><text fill="#000000" font-family="sans-serif" font-size="14" lengthAdjust="spacing" textLength="9" x="616" y="599.0234">1</text><line style="stroke:#000000;stroke-width:1.0;" x1="611" x2="611" y1="583.4883" y2="603.9766"/><line style="stroke:#000000;stroke-width:1.0;" x1="507" x2="787" y1="603.9766" y2="603.9766"/><text fill="#000000" font-family="sans-serif" font-size="14" font-weight="bold" lengthAdjust="spacing" textLength="94" x="512" y="619.5117">ratio_percent</text><text fill="#000000" font-family="sans-serif" font-size="14" lengthAdjust="spacing" textLength="166" x="616" y="619.5117">0.31347962382445144</text><line style="stroke:#000000;stroke-width:1.0;" x1="611" x2="611" y1="603.9766" y2="624.4648"/><rect fill="none" height="61.4648" rx="5" ry="5" style="stroke:#000000;stroke-width:1.5;" width="280" x="507" y="563"/><rect fill="#F1F1F1" height="61.4648" rx="5" ry="5" style="stroke:#F1F1F1;stroke-width:1.5;" width="280" x="507" y="642"/><text fill="#000000" font-family="sans-serif" font-size="14" font-weight="bold" lengthAdjust="spacing" textLength="78" x="512" y="657.5352">field_value</text><text fill="#000000" font-family="sans-serif" font-size="14" lengthAdjust="spacing" textLength="9" x="616" y="657.5352">9</text><line style="stroke:#000000;stroke-width:1.0;" x1="611" x2="611" y1="642" y2="662.4883"/><line style="stroke:#000000;stroke-width:1.0;" x1="507" x2="787" y1="662.4883" y2="662.4883"/><text fill="#000000" font-family="sans-serif" font-size="14" font-weight="bold" lengthAdjust="spacing" textLength="74" x="512" y="678.0234">row_count</text><text fill="#000000" font-family="sans-serif" font-size="14" lengthAdjust="spacing" textLength="9" x="616" y="678.0234">1</text><line style="stroke:#000000;stroke-width:1.0;" x1="611" x2="611" y1="662.4883" y2="682.9766"/><line style="stroke:#000000;stroke-width:1.0;" x1="507" x2="787" y1="682.9766" y2="682.9766"/><text fill="#000000" font-family="sans-serif" font-size="14" font-weight="bold" lengthAdjust="spacing" textLength="94" x="512" y="698.5117">ratio_percent</text><text fill="#000000" font-family="sans-serif" font-size="14" lengthAdjust="spacing" textLength="166" x="616" y="698.5117">0.31347962382445144</text><line style="stroke:#000000;stroke-width:1.0;" x1="611" x2="611" y1="682.9766" y2="703.4648"/><rect fill="none" height="61.4648" rx="5" ry="5" style="stroke:#000000;stroke-width:1.5;" width="280" x="507" y="642"/><rect fill="#F1F1F1" height="61.4648" rx="5" ry="5" style="stroke:#F1F1F1;stroke-width:1.5;" width="280" x="507" y="721"/><text fill="#000000" font-family="sans-serif" font-size="14" font-weight="bold" lengthAdjust="spacing" textLength="78" x="512" y="736.5352">field_value</text><text fill="#000000" font-family="sans-serif" font-size="14" lengthAdjust="spacing" textLength="9" x="616" y="736.5352">5</text><line style="stroke:#000000;stroke-width:1.0;" x1="611" x2="611" y1="721" y2="741.4883"/><line style="stroke:#000000;stroke-width:1.0;" x1="507" x2="787" y1="741.4883" y2="741.4883"/><text fill="#000000" font-family="sans-serif" font-size="14" font-weight="bold" lengthAdjust="spacing" textLength="74" x="512" y="757.0234">row_count</text><text fill="#000000" font-family="sans-serif" font-size="14" lengthAdjust="spacing" textLength="9" x="616" y="757.0234">1</text><line style="stroke:#000000;stroke-width:1.0;" x1="611" x2="611" y1="741.4883" y2="761.9766"/><line style="stroke:#000000;stroke-width:1.0;" x1="507" x2="787" y1="761.9766" y2="761.9766"/><text fill="#000000" font-family="sans-serif" font-size="14" font-weight="bold" lengthAdjust="spacing" textLength="94" x="512" y="777.5117">ratio_percent</text><text fill="#000000" font-family="sans-serif" font-size="14" lengthAdjust="spacing" textLength="166" x="616" y="777.5117">0.31347962382445144</text><line style="stroke:#000000;stroke-width:1.0;" x1="611" x2="611" y1="761.9766" y2="782.4648"/><rect fill="none" height="61.4648" rx="5" ry="5" style="stroke:#000000;stroke-width:1.5;" width="280" x="507" y="721"/><path d="M232,315.5 L245,315.5 C265.8273,315.5 262.7406,295.5187 281,285.5 C285.1394,283.2288 289.4771,281.0988 293.9224,279.1061 " fill="none" style="stroke:#000000;stroke-width:1.0;stroke-dasharray:3.0,3.0;"/><path d="M295.1301,281.9305 L296.0407,278.2004 L292.7148,276.2817 L300.9835,276.0871 L295.1301,281.9305 " fill="#000000" style="stroke:#000000;stroke-width:1.0;"/><ellipse cx="232" cy="315.5" fill="#000000" rx="3" ry="3" style="stroke:#000000;stroke-width:1.0;"/><path d="M376,303.5 L389,303.5 C426.3122,303.5 445.1906,312.4458 471,285.5 C535.2901,218.3792 444.6323,148.4107 507,79.5 C508.0125,78.3813 509.0541,77.2936 510.123,76.2361 " fill="none" style="stroke:#000000;stroke-width:1.0;stroke-dasharray:3.0,3.0;"/><path d="M512.139,78.4612 L511.7918,74.7241 L508.107,74.0111 L515.6857,71.1961 L512.139,78.4612 " fill="#000000" style="stroke:#000000;stroke-width:1.0;"/><ellipse cx="376" cy="303.5" fill="#000000" rx="3" ry="3" style="stroke:#000000;stroke-width:1.0;"/><path d="M376,324.5 L389,324.5 C429.3564,324.5 444.9543,316.3264 471,285.5 C508.864,240.686 465.4404,199.9099 507,158.5 C508.2303,157.2742 509.4957,156.0861 510.7935,154.9346 " fill="none" style="stroke:#000000;stroke-width:1.0;stroke-dasharray:3.0,3.0;"/><path d="M512.7206,157.2901 L512.5601,153.4893 L508.8664,152.579 L516.6824,150.1169 L512.7206,157.2901 " fill="#000000" style="stroke:#000000;stroke-width:1.0;"/><ellipse cx="376" cy="324.5" fill="#000000" rx="3" ry="3" style="stroke:#000000;stroke-width:1.0;"/><path d="M376,344.5 L389,344.5 C433.8977,344.5 438.9398,316.9316 471,285.5 C490.0419,266.8314 484.9903,252.5561 507,237.5 C509.3707,235.8783 511.8075,234.3236 514.2999,232.8333 " fill="none" style="stroke:#000000;stroke-width:1.0;stroke-dasharray:3.0,3.0;"/><path d="M515.8186,235.5213 L516.3159,231.6943 L512.7813,230.1454 L521.0198,229.0367 L515.8186,235.5213 " fill="#000000" style="stroke:#000000;stroke-width:1.0;"/><ellipse cx="376" cy="344.5" fill="#000000" rx="3" ry="3" style="stroke:#000000;stroke-width:1.0;"/><path d="M376,365.5 L389,365.5 C445.6174,365.5 453.489,335.9959 507,317.5 C513.9651,315.0925 521.1598,312.713 528.4405,310.3865 " fill="none" style="stroke:#000000;stroke-width:1.0;stroke-dasharray:3.0,3.0;"/><path d="M529.3637,313.3081 L530.6318,309.6941 L527.5173,307.4648 L535.7447,308.0785 L529.3637,313.3081 " fill="#000000" style="stroke:#000000;stroke-width:1.0;"/><ellipse cx="376" cy="365.5" fill="#000000" rx="3" ry="3" style="stroke:#000000;stroke-width:1.0;"/><path d="M376,385.5 L389,385.5 C424.91,385.5 463.461,382.6805 499.5148,378.7999 " fill="none" style="stroke:#000000;stroke-width:1.0;stroke-dasharray:3.0,3.0;"/><path d="M499.8522,381.8614 L501.8109,378.5468 L499.1773,375.7384 L507.1685,377.9563 L499.8522,381.8614 " fill="#000000" style="stroke:#000000;stroke-width:1.0;"/><ellipse cx="376" cy="385.5" fill="#000000" rx="3" ry="3" style="stroke:#000000;stroke-width:1.0;"/><path d="M376,406.5 L389,406.5 C424.91,406.5 463.461,409.3195 499.5148,413.2001 " fill="none" style="stroke:#000000;stroke-width:1.0;stroke-dasharray:3.0,3.0;"/><path d="M499.1773,416.2616 L501.8109,413.4532 L499.8522,410.1386 L507.1685,414.0437 L499.1773,416.2616 " fill="#000000" style="stroke:#000000;stroke-width:1.0;"/><ellipse cx="376" cy="406.5" fill="#000000" rx="3" ry="3" style="stroke:#000000;stroke-width:1.0;"/><path d="M376,427.5 L389,427.5 C445.6174,427.5 453.4279,457.1817 507,475.5 C513.0714,477.576 519.3183,479.6257 525.6455,481.6335 " fill="none" style="stroke:#000000;stroke-width:1.0;stroke-dasharray:3.0,3.0;"/><path d="M524.7107,484.617 L527.8831,482.3346 L526.5803,478.65 L533.1042,483.9705 L524.7107,484.617 " fill="#000000" style="stroke:#000000;stroke-width:1.0;"/><ellipse cx="376" cy="427.5" fill="#000000" rx="3" ry="3" style="stroke:#000000;stroke-width:1.0;"/><path d="M376,447.5 L389,447.5 C459.7951,447.5 445.0275,520.2749 507,554.5 C510.3536,556.3521 513.8021,558.1218 517.3223,559.8125 " fill="none" style="stroke:#000000;stroke-width:1.0;stroke-dasharray:3.0,3.0;"/><path d="M516.0604,562.5533 L519.3779,560.7589 L518.5842,557.0718 L524.1742,562.9672 L516.0604,562.5533 " fill="#000000" style="stroke:#000000;stroke-width:1.0;"/><ellipse cx="376" cy="447.5" fill="#000000" rx="3" ry="3" style="stroke:#000000;stroke-width:1.0;"/><path d="M376,468.5 L389,468.5 C479.1565,468.5 433.1702,581.7568 507,633.5 C509.2975,635.1102 511.6596,636.654 514.0764,638.1344 " fill="none" style="stroke:#000000;stroke-width:1.0;stroke-dasharray:3.0,3.0;"/><path d="M512.5676,640.7417 L516.0319,639.2659 L515.5852,635.527 L520.5948,641.9063 L512.5676,640.7417 " fill="#000000" style="stroke:#000000;stroke-width:1.0;"/><ellipse cx="376" cy="468.5" fill="#000000" rx="3" ry="3" style="stroke:#000000;stroke-width:1.0;"/><path d="M376,488.5 L389,488.5 C501.5243,488.5 419.4532,641.8085 507,712.5 C508.7425,713.907 510.5327,715.2634 512.365,716.5709 " fill="none" style="stroke:#000000;stroke-width:1.0;stroke-dasharray:3.0,3.0;"/><path d="M510.6611,719.1247 L514.2803,717.8488 L514.0689,714.0171 L518.7495,720.8306 L510.6611,719.1247 " fill="#000000" style="stroke:#000000;stroke-width:1.0;"/><ellipse cx="376" cy="488.5" fill="#000000" rx="3" ry="3" style="stroke:#000000;stroke-width:1.0;"/><path d="M232,336.5 L245,336.5 C288.8518,336.5 334.0003,364.993 357.8339,382.7089 " fill="none" style="stroke:#000000;stroke-width:1.0;stroke-dasharray:3.0,3.0;"/><path d="M355.9625,385.1642 L359.6753,384.1124 L359.7052,380.2536 L363.9721,387.3873 L355.9625,385.1642 " fill="#000000" style="stroke:#000000;stroke-width:1.0;"/><ellipse cx="232" cy="336.5" fill="#000000" rx="3" ry="3" style="stroke:#000000;stroke-width:1.0;"/><!--MD5=[8086d0d74e032e3a966f1054e1164df6]
@startjson
{
    "field1": "CONTACT_ID",
    "combination": "CONTACT_ID",
    "null_distribution": {
        "total_null_rows": 0,
        "total_not_null_rows": 319
    },
    "data_distribution": [
        {
            "field_value": "1",
            "row_count": 1,
            "ratio_percent": 0.31347962382445144
        },
        {
            "field_value": "2",
            "row_count": 1,
            "ratio_percent": 0.31347962382445144
        },
        {
            "field_value": "3",
            "row_count": 1,
            "ratio_percent": 0.31347962382445144
        },
        {
            "field_value": "4",
            "row_count": 1,
            "ratio_percent": 0.31347962382445144
        },
        {
            "field_value": "10",
            "row_count": 1,
            "ratio_percent": 0.31347962382445144
        },
        {
            "field_value": "6",
            "row_count": 1,
            "ratio_percent": 0.31347962382445144
        },
        {
            "field_value": "7",
            "row_count": 1,
            "ratio_percent": 0.31347962382445144
        },
        {
            "field_value": "8",
            "row_count": 1,
            "ratio_percent": 0.31347962382445144
        },
        {
            "field_value": "9",
            "row_count": 1,
            "ratio_percent": 0.31347962382445144
        },
        {
            "field_value": "5",
            "row_count": 1,
            "ratio_percent": 0.31347962382445144
        }
    ]
}
@endjson

PlantUML version 1.2022.12(Sun Oct 23 14:12:26 EDT 2022)
(GPL source distribution)
Java Runtime: OpenJDK Runtime Environment
JVM: OpenJDK 64-Bit Server VM
Default Encoding: UTF-8
Language: en
Country: CA
--></g></svg>