<?xml version="1.0" encoding="UTF-8" standalone="no"?><svg xmlns="http://www.w3.org/2000/svg" xmlns:xlink="http://www.w3.org/1999/xlink" contentStyleType="text/css" height="794px" preserveAspectRatio="none" style="width:785px;height:794px;background:#FFFFFF;" version="1.1" viewBox="0 0 785 794" width="785px" zoomAndPan="magnify"><defs/><g><rect fill="#F1F1F1" height="81.9531" rx="5" ry="5" style="stroke:#F1F1F1;stroke-width:1.5;" width="229" x="10" y="264.5"/><text fill="#000000" font-family="sans-serif" font-size="14" font-weight="bold" lengthAdjust="spacing" textLength="42" x="15" y="280.0352">field1</text><text fill="#000000" font-family="sans-serif" font-size="14" lengthAdjust="spacing" textLength="85" x="149" y="280.0352">FIRST_NAME</text><line style="stroke:#000000;stroke-width:1.0;" x1="144" x2="144" y1="264.5" y2="284.9883"/><line style="stroke:#000000;stroke-width:1.0;" x1="10" x2="239" y1="284.9883" y2="284.9883"/><text fill="#000000" font-family="sans-serif" font-size="14" font-weight="bold" lengthAdjust="spacing" textLength="90" x="15" y="300.5234">combination</text><text fill="#000000" font-family="sans-serif" font-size="14" lengthAdjust="spacing" textLength="85" x="149" y="300.5234">FIRST_NAME</text><line style="stroke:#000000;stroke-width:1.0;" x1="144" x2="144" y1="284.9883" y2="305.4766"/><line style="stroke:#000000;stroke-width:1.0;" x1="10" x2="239" y1="305.4766" y2="305.4766"/><text fill="#000000" font-family="sans-serif" font-size="14" font-weight="bold" lengthAdjust="spacing" textLength="121" x="15" y="321.0117">null_distribution</text><text fill="#000000" font-family="sans-serif" font-size="14" lengthAdjust="spacing" textLength="12" x="149" y="321.0117">   </text><line style="stroke:#000000;stroke-width:1.0;" x1="144" x2="144" y1="305.4766" y2="325.9648"/><line style="stroke:#000000;stroke-width:1.0;" x1="10" x2="239" y1="325.9648" y2="325.9648"/><text fill="#000000" font-family="sans-serif" font-size="14" font-weight="bold" lengthAdjust="spacing" textLength="124" x="15" y="341.5">data_distribution</text><text fill="#000000" font-family="sans-serif" font-size="14" lengthAdjust="spacing" textLength="12" x="149" y="341.5">   </text><line style="stroke:#000000;stroke-width:1.0;" x1="144" x2="144" y1="325.9648" y2="346.4531"/><rect fill="none" height="81.9531" rx="5" ry="5" style="stroke:#000000;stroke-width:1.5;" width="229" x="10" y="264.5"/><rect fill="#F1F1F1" height="40.9766" rx="5" ry="5" style="stroke:#F1F1F1;stroke-width:1.5;" width="189" x="276" y="235"/><text fill="#000000" font-family="sans-serif" font-size="14" font-weight="bold" lengthAdjust="spacing" textLength="111" x="281" y="250.5352">total_null_rows</text><text fill="#000000" font-family="sans-serif" font-size="14" lengthAdjust="spacing" textLength="9" x="433" y="250.5352">0</text><line style="stroke:#000000;stroke-width:1.0;" x1="428" x2="428" y1="235" y2="255.4883"/><line style="stroke:#000000;stroke-width:1.0;" x1="276" x2="465" y1="255.4883" y2="255.4883"/><text fill="#000000" font-family="sans-serif" font-size="14" font-weight="bold" lengthAdjust="spacing" textLength="142" x="281" y="271.0234">total_not_null_rows</text><text fill="#000000" font-family="sans-serif" font-size="14" lengthAdjust="spacing" textLength="27" x="433" y="271.0234">319</text><line style="stroke:#000000;stroke-width:1.0;" x1="428" x2="428" y1="255.4883" y2="275.9766"/><rect fill="none" height="40.9766" rx="5" ry="5" style="stroke:#000000;stroke-width:1.5;" width="189" x="276" y="235"/><rect fill="#F1F1F1" height="204.8828" rx="5" ry="5" style="stroke:#F1F1F1;stroke-width:1.5;" width="22" x="358.5" y="294"/><text fill="#000000" font-family="sans-serif" font-size="14" lengthAdjust="spacing" textLength="12" x="363.5" y="309.5352">   </text><line style="stroke:#000000;stroke-width:1.0;" x1="358.5" x2="380.5" y1="314.4883" y2="314.4883"/><text fill="#000000" font-family="sans-serif" font-size="14" lengthAdjust="spacing" textLength="12" x="363.5" y="330.0234">   </text><line style="stroke:#000000;stroke-width:1.0;" x1="358.5" x2="380.5" y1="334.9766" y2="334.9766"/><text fill="#000000" font-family="sans-serif" font-size="14" lengthAdjust="spacing" textLength="12" x="363.5" y="350.5117">   </text><line style="stroke:#000000;stroke-width:1.0;" x1="358.5" x2="380.5" y1="355.4648" y2="355.4648"/><text fill="#000000" font-family="sans-serif" font-size="14" lengthAdjust="spacing" textLength="12" x="363.5" y="371">   </text><line style="stroke:#000000;stroke-width:1.0;" x1="358.5" x2="380.5" y1="375.9531" y2="375.9531"/><text fill="#000000" font-family="sans-serif" font-size="14" lengthAdjust="spacing" textLength="12" x="363.5" y="391.4883">   </text><line style="stroke:#000000;stroke-width:1.0;" x1="358.5" x2="380.5" y1="396.4414" y2="396.4414"/><text fill="#000000" font-family="sans-serif" font-size="14" lengthAdjust="spacing" textLength="12" x="363.5" y="411.9766">   </text><line style="stroke:#000000;stroke-width:1.0;" x1="358.5" x2="380.5" y1="416.9297" y2="416.9297"/><text fill="#000000" font-family="sans-serif" font-size="14" lengthAdjust="spacing" textLength="12" x="363.5" y="432.4648">   </text><line style="stroke:#000000;stroke-width:1.0;" x1="358.5" x2="380.5" y1="437.418" y2="437.418"/><text fill="#000000" font-family="sans-serif" font-size="14" lengthAdjust="spacing" textLength="12" x="363.5" y="452.9531">   </text><line style="stroke:#000000;stroke-width:1.0;" x1="358.5" x2="380.5" y1="457.9063" y2="457.9063"/><text fill="#000000" font-family="sans-serif" font-size="14" lengthAdjust="spacing" textLength="12" x="363.5" y="473.4414">   </text><line style="stroke:#000000;stroke-width:1.0;" x1="358.5" x2="380.5" y1="478.3945" y2="478.3945"/><text fill="#000000" font-family="sans-serif" font-size="14" lengthAdjust="spacing" textLength="12" x="363.5" y="493.9297">   </text><rect fill="none" height="204.8828" rx="5" ry="5" style="stroke:#000000;stroke-width:1.5;" width="22" x="358.5" y="294"/><rect fill="#F1F1F1" height="61.4648" rx="5" ry="5" style="stroke:#F1F1F1;stroke-width:1.5;" width="271" x="502" y="10"/><text fill="#000000" font-family="sans-serif" font-size="14" font-weight="bold" lengthAdjust="spacing" textLength="78" x="507" y="25.5352">field_value</text><text fill="#000000" font-family="sans-serif" font-size="14" lengthAdjust="spacing" textLength="54" x="611" y="25.5352">Maurice</text><line style="stroke:#000000;stroke-width:1.0;" x1="606" x2="606" y1="10" y2="30.4883"/><line style="stroke:#000000;stroke-width:1.0;" x1="502" x2="773" y1="30.4883" y2="30.4883"/><text fill="#000000" font-family="sans-serif" font-size="14" font-weight="bold" lengthAdjust="spacing" textLength="74" x="507" y="46.0234">row_count</text><text fill="#000000" font-family="sans-serif" font-size="14" lengthAdjust="spacing" textLength="9" x="611" y="46.0234">3</text><line style="stroke:#000000;stroke-width:1.0;" x1="606" x2="606" y1="30.4883" y2="50.9766"/><line style="stroke:#000000;stroke-width:1.0;" x1="502" x2="773" y1="50.9766" y2="50.9766"/><text fill="#000000" font-family="sans-serif" font-size="14" font-weight="bold" lengthAdjust="spacing" textLength="94" x="507" y="66.5117">ratio_percent</text><text fill="#000000" font-family="sans-serif" font-size="14" lengthAdjust="spacing" textLength="157" x="611" y="66.5117">0.9404388714733543</text><line style="stroke:#000000;stroke-width:1.0;" x1="606" x2="606" y1="50.9766" y2="71.4648"/><rect fill="none" height="61.4648" rx="5" ry="5" style="stroke:#000000;stroke-width:1.5;" width="271" x="502" y="10"/><rect fill="#F1F1F1" height="61.4648" rx="5" ry="5" style="stroke:#F1F1F1;stroke-width:1.5;" width="271" x="502" y="89"/><text fill="#000000" font-family="sans-serif" font-size="14" font-weight="bold" lengthAdjust="spacing" textLength="78" x="507" y="104.5352">field_value</text><text fill="#000000" font-family="sans-serif" font-size="14" lengthAdjust="spacing" textLength="66" x="611" y="104.5352">Geraldine</text><line style="stroke:#000000;stroke-width:1.0;" x1="606" x2="606" y1="89" y2="109.4883"/><line style="stroke:#000000;stroke-width:1.0;" x1="502" x2="773" y1="109.4883" y2="109.4883"/><text fill="#000000" font-family="sans-serif" font-size="14" font-weight="bold" lengthAdjust="spacing" textLength="74" x="507" y="125.0234">row_count</text><text fill="#000000" font-family="sans-serif" font-size="14" lengthAdjust="spacing" textLength="9" x="611" y="125.0234">2</text><line style="stroke:#000000;stroke-width:1.0;" x1="606" x2="606" y1="109.4883" y2="129.9766"/><line style="stroke:#000000;stroke-width:1.0;" x1="502" x2="773" y1="129.9766" y2="129.9766"/><text fill="#000000" font-family="sans-serif" font-size="14" font-weight="bold" lengthAdjust="spacing" textLength="94" x="507" y="145.5117">ratio_percent</text><text fill="#000000" font-family="sans-serif" font-size="14" lengthAdjust="spacing" textLength="157" x="611" y="145.5117">0.6269592476489029</text><line style="stroke:#000000;stroke-width:1.0;" x1="606" x2="606" y1="129.9766" y2="150.4648"/><rect fill="none" height="61.4648" rx="5" ry="5" style="stroke:#000000;stroke-width:1.5;" width="271" x="502" y="89"/><rect fill="#F1F1F1" height="61.4648" rx="5" ry="5" style="stroke:#F1F1F1;stroke-width:1.5;" width="271" x="502" y="168"/><text fill="#000000" font-family="sans-serif" font-size="14" font-weight="bold" lengthAdjust="spacing" textLength="78" x="507" y="183.5352">field_value</text><text fill="#000000" font-family="sans-serif" font-size="14" lengthAdjust="spacing" textLength="55" x="611" y="183.5352">Sherron</text><line style="stroke:#000000;stroke-width:1.0;" x1="606" x2="606" y1="168" y2="188.4883"/><line style="stroke:#000000;stroke-width:1.0;" x1="502" x2="773" y1="188.4883" y2="188.4883"/><text fill="#000000" font-family="sans-serif" font-size="14" font-weight="bold" lengthAdjust="spacing" textLength="74" x="507" y="204.0234">row_count</text><text fill="#000000" font-family="sans-serif" font-size="14" lengthAdjust="spacing" textLength="9" x="611" y="204.0234">2</text><line style="stroke:#000000;stroke-width:1.0;" x1="606" x2="606" y1="188.4883" y2="208.9766"/><line style="stroke:#000000;stroke-width:1.0;" x1="502" x2="773" y1="208.9766" y2="208.9766"/><text fill="#000000" font-family="sans-serif" font-size="14" font-weight="bold" lengthAdjust="spacing" textLength="94" x="507" y="224.5117">ratio_percent</text><text fill="#000000" font-family="sans-serif" font-size="14" lengthAdjust="spacing" textLength="157" x="611" y="224.5117">0.6269592476489029</text><line style="stroke:#000000;stroke-width:1.0;" x1="606" x2="606" y1="208.9766" y2="229.4648"/><rect fill="none" height="61.4648" rx="5" ry="5" style="stroke:#000000;stroke-width:1.5;" width="271" x="502" y="168"/><rect fill="#F1F1F1" height="61.4648" rx="5" ry="5" style="stroke:#F1F1F1;stroke-width:1.5;" width="271" x="502" y="247"/><text fill="#000000" font-family="sans-serif" font-size="14" font-weight="bold" lengthAdjust="spacing" textLength="78" x="507" y="262.5352">field_value</text><text fill="#000000" font-family="sans-serif" font-size="14" lengthAdjust="spacing" textLength="42" x="611" y="262.5352">Tandy</text><line style="stroke:#000000;stroke-width:1.0;" x1="606" x2="606" y1="247" y2="267.4883"/><line style="stroke:#000000;stroke-width:1.0;" x1="502" x2="773" y1="267.4883" y2="267.4883"/><text fill="#000000" font-family="sans-serif" font-size="14" font-weight="bold" lengthAdjust="spacing" textLength="74" x="507" y="283.0234">row_count</text><text fill="#000000" font-family="sans-serif" font-size="14" lengthAdjust="spacing" textLength="9" x="611" y="283.0234">2</text><line style="stroke:#000000;stroke-width:1.0;" x1="606" x2="606" y1="267.4883" y2="287.9766"/><line style="stroke:#000000;stroke-width:1.0;" x1="502" x2="773" y1="287.9766" y2="287.9766"/><text fill="#000000" font-family="sans-serif" font-size="14" font-weight="bold" lengthAdjust="spacing" textLength="94" x="507" y="303.5117">ratio_percent</text><text fill="#000000" font-family="sans-serif" font-size="14" lengthAdjust="spacing" textLength="157" x="611" y="303.5117">0.6269592476489029</text><line style="stroke:#000000;stroke-width:1.0;" x1="606" x2="606" y1="287.9766" y2="308.4648"/><rect fill="none" height="61.4648" rx="5" ry="5" style="stroke:#000000;stroke-width:1.5;" width="271" x="502" y="247"/><rect fill="#F1F1F1" height="61.4648" rx="5" ry="5" style="stroke:#F1F1F1;stroke-width:1.5;" width="271" x="502" y="326"/><text fill="#000000" font-family="sans-serif" font-size="14" font-weight="bold" lengthAdjust="spacing" textLength="78" x="507" y="341.5352">field_value</text><text fill="#000000" font-family="sans-serif" font-size="14" lengthAdjust="spacing" textLength="49" x="611" y="341.5352">Keesha</text><line style="stroke:#000000;stroke-width:1.0;" x1="606" x2="606" y1="326" y2="346.4883"/><line style="stroke:#000000;stroke-width:1.0;" x1="502" x2="773" y1="346.4883" y2="346.4883"/><text fill="#000000" font-family="sans-serif" font-size="14" font-weight="bold" lengthAdjust="spacing" textLength="74" x="507" y="362.0234">row_count</text><text fill="#000000" font-family="sans-serif" font-size="14" lengthAdjust="spacing" textLength="9" x="611" y="362.0234">2</text><line style="stroke:#000000;stroke-width:1.0;" x1="606" x2="606" y1="346.4883" y2="366.9766"/><line style="stroke:#000000;stroke-width:1.0;" x1="502" x2="773" y1="366.9766" y2="366.9766"/><text fill="#000000" font-family="sans-serif" font-size="14" font-weight="bold" lengthAdjust="spacing" textLength="94" x="507" y="382.5117">ratio_percent</text><text fill="#000000" font-family="sans-serif" font-size="14" lengthAdjust="spacing" textLength="157" x="611" y="382.5117">0.6269592476489029</text><line style="stroke:#000000;stroke-width:1.0;" x1="606" x2="606" y1="366.9766" y2="387.4648"/><rect fill="none" height="61.4648" rx="5" ry="5" style="stroke:#000000;stroke-width:1.5;" width="271" x="502" y="326"/><rect fill="#F1F1F1" height="61.4648" rx="5" ry="5" style="stroke:#F1F1F1;stroke-width:1.5;" width="271" x="502" y="405"/><text fill="#000000" font-family="sans-serif" font-size="14" font-weight="bold" lengthAdjust="spacing" textLength="78" x="507" y="420.5352">field_value</text><text fill="#000000" font-family="sans-serif" font-size="14" lengthAdjust="spacing" textLength="58" x="611" y="420.5352">Matthias</text><line style="stroke:#000000;stroke-width:1.0;" x1="606" x2="606" y1="405" y2="425.4883"/><line style="stroke:#000000;stroke-width:1.0;" x1="502" x2="773" y1="425.4883" y2="425.4883"/><text fill="#000000" font-family="sans-serif" font-size="14" font-weight="bold" lengthAdjust="spacing" textLength="74" x="507" y="441.0234">row_count</text><text fill="#000000" font-family="sans-serif" font-size="14" lengthAdjust="spacing" textLength="9" x="611" y="441.0234">2</text><line style="stroke:#000000;stroke-width:1.0;" x1="606" x2="606" y1="425.4883" y2="445.9766"/><line style="stroke:#000000;stroke-width:1.0;" x1="502" x2="773" y1="445.9766" y2="445.9766"/><text fill="#000000" font-family="sans-serif" font-size="14" font-weight="bold" lengthAdjust="spacing" textLength="94" x="507" y="461.5117">ratio_percent</text><text fill="#000000" font-family="sans-serif" font-size="14" lengthAdjust="spacing" textLength="157" x="611" y="461.5117">0.6269592476489029</text><line style="stroke:#000000;stroke-width:1.0;" x1="606" x2="606" y1="445.9766" y2="466.4648"/><rect fill="none" height="61.4648" rx="5" ry="5" style="stroke:#000000;stroke-width:1.5;" width="271" x="502" y="405"/><rect fill="#F1F1F1" height="61.4648" rx="5" ry="5" style="stroke:#F1F1F1;stroke-width:1.5;" width="271" x="502" y="484"/><text fill="#000000" font-family="sans-serif" font-size="14" font-weight="bold" lengthAdjust="spacing" textLength="78" x="507" y="499.5352">field_value</text><text fill="#000000" font-family="sans-serif" font-size="14" lengthAdjust="spacing" textLength="63" x="611" y="499.5352">Maryrose</text><line style="stroke:#000000;stroke-width:1.0;" x1="606" x2="606" y1="484" y2="504.4883"/><line style="stroke:#000000;stroke-width:1.0;" x1="502" x2="773" y1="504.4883" y2="504.4883"/><text fill="#000000" font-family="sans-serif" font-size="14" font-weight="bold" lengthAdjust="spacing" textLength="74" x="507" y="520.0234">row_count</text><text fill="#000000" font-family="sans-serif" font-size="14" lengthAdjust="spacing" textLength="9" x="611" y="520.0234">2</text><line style="stroke:#000000;stroke-width:1.0;" x1="606" x2="606" y1="504.4883" y2="524.9766"/><line style="stroke:#000000;stroke-width:1.0;" x1="502" x2="773" y1="524.9766" y2="524.9766"/><text fill="#000000" font-family="sans-serif" font-size="14" font-weight="bold" lengthAdjust="spacing" textLength="94" x="507" y="540.5117">ratio_percent</text><text fill="#000000" font-family="sans-serif" font-size="14" lengthAdjust="spacing" textLength="157" x="611" y="540.5117">0.6269592476489029</text><line style="stroke:#000000;stroke-width:1.0;" x1="606" x2="606" y1="524.9766" y2="545.4648"/><rect fill="none" height="61.4648" rx="5" ry="5" style="stroke:#000000;stroke-width:1.5;" width="271" x="502" y="484"/><rect fill="#F1F1F1" height="61.4648" rx="5" ry="5" style="stroke:#F1F1F1;stroke-width:1.5;" width="271" x="502" y="563"/><text fill="#000000" font-family="sans-serif" font-size="14" font-weight="bold" lengthAdjust="spacing" textLength="78" x="507" y="578.5352">field_value</text><text fill="#000000" font-family="sans-serif" font-size="14" lengthAdjust="spacing" textLength="33" x="611" y="578.5352">Jame</text><line style="stroke:#000000;stroke-width:1.0;" x1="606" x2="606" y1="563" y2="583.4883"/><line style="stroke:#000000;stroke-width:1.0;" x1="502" x2="773" y1="583.4883" y2="583.4883"/><text fill="#000000" font-family="sans-serif" font-size="14" font-weight="bold" lengthAdjust="spacing" textLength="74" x="507" y="599.0234">row_count</text><text fill="#000000" font-family="sans-serif" font-size="14" lengthAdjust="spacing" textLength="9" x="611" y="599.0234">2</text><line style="stroke:#000000;stroke-width:1.0;" x1="606" x2="606" y1="583.4883" y2="603.9766"/><line style="stroke:#000000;stroke-width:1.0;" x1="502" x2="773" y1="603.9766" y2="603.9766"/><text fill="#000000" font-family="sans-serif" font-size="14" font-weight="bold" lengthAdjust="spacing" textLength="94" x="507" y="619.5117">ratio_percent</text><text fill="#000000" font-family="sans-serif" font-size="14" lengthAdjust="spacing" textLength="157" x="611" y="619.5117">0.6269592476489029</text><line style="stroke:#000000;stroke-width:1.0;" x1="606" x2="606" y1="603.9766" y2="624.4648"/><rect fill="none" height="61.4648" rx="5" ry="5" style="stroke:#000000;stroke-width:1.5;" width="271" x="502" y="563"/><rect fill="#F1F1F1" height="61.4648" rx="5" ry="5" style="stroke:#F1F1F1;stroke-width:1.5;" width="271" x="502" y="642"/><text fill="#000000" font-family="sans-serif" font-size="14" font-weight="bold" lengthAdjust="spacing" textLength="78" x="507" y="657.5352">field_value</text><text fill="#000000" font-family="sans-serif" font-size="14" lengthAdjust="spacing" textLength="56" x="611" y="657.5352">Princess</text><line style="stroke:#000000;stroke-width:1.0;" x1="606" x2="606" y1="642" y2="662.4883"/><line style="stroke:#000000;stroke-width:1.0;" x1="502" x2="773" y1="662.4883" y2="662.4883"/><text fill="#000000" font-family="sans-serif" font-size="14" font-weight="bold" lengthAdjust="spacing" textLength="74" x="507" y="678.0234">row_count</text><text fill="#000000" font-family="sans-serif" font-size="14" lengthAdjust="spacing" textLength="9" x="611" y="678.0234">2</text><line style="stroke:#000000;stroke-width:1.0;" x1="606" x2="606" y1="662.4883" y2="682.9766"/><line style="stroke:#000000;stroke-width:1.0;" x1="502" x2="773" y1="682.9766" y2="682.9766"/><text fill="#000000" font-family="sans-serif" font-size="14" font-weight="bold" lengthAdjust="spacing" textLength="94" x="507" y="698.5117">ratio_percent</text><text fill="#000000" font-family="sans-serif" font-size="14" lengthAdjust="spacing" textLength="157" x="611" y="698.5117">0.6269592476489029</text><line style="stroke:#000000;stroke-width:1.0;" x1="606" x2="606" y1="682.9766" y2="703.4648"/><rect fill="none" height="61.4648" rx="5" ry="5" style="stroke:#000000;stroke-width:1.5;" width="271" x="502" y="642"/><rect fill="#F1F1F1" height="61.4648" rx="5" ry="5" style="stroke:#F1F1F1;stroke-width:1.5;" width="271" x="502" y="721"/><text fill="#000000" font-family="sans-serif" font-size="14" font-weight="bold" lengthAdjust="spacing" textLength="78" x="507" y="736.5352">field_value</text><text fill="#000000" font-family="sans-serif" font-size="14" lengthAdjust="spacing" textLength="41" x="611" y="736.5352">Shelia</text><line style="stroke:#000000;stroke-width:1.0;" x1="606" x2="606" y1="721" y2="741.4883"/><line style="stroke:#000000;stroke-width:1.0;" x1="502" x2="773" y1="741.4883" y2="741.4883"/><text fill="#000000" font-family="sans-serif" font-size="14" font-weight="bold" lengthAdjust="spacing" textLength="74" x="507" y="757.0234">row_count</text><text fill="#000000" font-family="sans-serif" font-size="14" lengthAdjust="spacing" textLength="9" x="611" y="757.0234">2</text><line style="stroke:#000000;stroke-width:1.0;" x1="606" x2="606" y1="741.4883" y2="761.9766"/><line style="stroke:#000000;stroke-width:1.0;" x1="502" x2="773" y1="761.9766" y2="761.9766"/><text fill="#000000" font-family="sans-serif" font-size="14" font-weight="bold" lengthAdjust="spacing" textLength="94" x="507" y="777.5117">ratio_percent</text><text fill="#000000" font-family="sans-serif" font-size="14" lengthAdjust="spacing" textLength="157" x="611" y="777.5117">0.6269592476489029</text><line style="stroke:#000000;stroke-width:1.0;" x1="606" x2="606" y1="761.9766" y2="782.4648"/><rect fill="none" height="61.4648" rx="5" ry="5" style="stroke:#000000;stroke-width:1.5;" width="271" x="502" y="721"/><path d="M227,315.5 L240,315.5 C260.8273,315.5 257.7406,295.5187 276,285.5 C280.1394,283.2288 284.4771,281.0988 288.9224,279.1061 " fill="none" style="stroke:#000000;stroke-width:1.0;stroke-dasharray:3.0,3.0;"/><path d="M290.1301,281.9305 L291.0407,278.2004 L287.7148,276.2817 L295.9835,276.0871 L290.1301,281.9305 " fill="#000000" style="stroke:#000000;stroke-width:1.0;"/><ellipse cx="227" cy="315.5" fill="#000000" rx="3" ry="3" style="stroke:#000000;stroke-width:1.0;"/><path d="M371,303.5 L384,303.5 C421.3122,303.5 440.1906,312.4458 466,285.5 C530.2901,218.3792 439.93,148.679 502,79.5 C503.0081,78.3765 504.0463,77.2844 505.1126,76.2231 " fill="none" style="stroke:#000000;stroke-width:1.0;stroke-dasharray:3.0,3.0;"/><path d="M507.1347,78.4455 L506.7795,74.7065 L503.0905,74.0006 L510.6688,71.1678 L507.1347,78.4455 " fill="#000000" style="stroke:#000000;stroke-width:1.0;"/><ellipse cx="371" cy="303.5" fill="#000000" rx="3" ry="3" style="stroke:#000000;stroke-width:1.0;"/><path d="M371,324.5 L384,324.5 C424.3564,324.5 439.9543,316.3264 466,285.5 C503.864,240.686 460.6193,200.0887 502,158.5 C503.2233,157.2705 504.4828,156.0793 505.7755,154.925 " fill="none" style="stroke:#000000;stroke-width:1.0;stroke-dasharray:3.0,3.0;"/><path d="M507.7064,157.2737 L507.537,153.4769 L503.8447,152.5764 L511.6472,150.0978 L507.7064,157.2737 " fill="#000000" style="stroke:#000000;stroke-width:1.0;"/><ellipse cx="371" cy="324.5" fill="#000000" rx="3" ry="3" style="stroke:#000000;stroke-width:1.0;"/><path d="M371,344.5 L384,344.5 C428.8977,344.5 433.9398,316.9316 466,285.5 C485.0419,266.8314 480.0554,252.6508 502,237.5 C504.3464,235.88 506.7599,234.3267 509.2295,232.8373 " fill="none" style="stroke:#000000;stroke-width:1.0;stroke-dasharray:3.0,3.0;"/><path d="M510.7476,235.5016 L511.2277,231.6987 L507.7115,230.173 L515.8903,229.0421 L510.7476,235.5016 " fill="#000000" style="stroke:#000000;stroke-width:1.0;"/><ellipse cx="371" cy="344.5" fill="#000000" rx="3" ry="3" style="stroke:#000000;stroke-width:1.0;"/><path d="M371,365.5 L384,365.5 C440.6174,365.5 448.5709,336.2315 502,317.5 C508.8339,315.1041 515.894,312.7271 523.0365,310.3966 " fill="none" style="stroke:#000000;stroke-width:1.0;stroke-dasharray:3.0,3.0;"/><path d="M523.9621,313.2625 L525.1859,309.7025 L522.1109,307.5308 L530.2011,308.0827 L523.9621,313.2625 " fill="#000000" style="stroke:#000000;stroke-width:1.0;"/><ellipse cx="371" cy="365.5" fill="#000000" rx="3" ry="3" style="stroke:#000000;stroke-width:1.0;"/><path d="M371,385.5 L384,385.5 C420.0127,385.5 458.7224,382.5639 494.7667,378.5603 " fill="none" style="stroke:#000000;stroke-width:1.0;stroke-dasharray:3.0,3.0;"/><path d="M495.1147,381.6199 L497.0615,378.2993 L494.4188,375.5006 L502.4158,377.6904 L495.1147,381.6199 " fill="#000000" style="stroke:#000000;stroke-width:1.0;"/><ellipse cx="371" cy="385.5" fill="#000000" rx="3" ry="3" style="stroke:#000000;stroke-width:1.0;"/><path d="M371,406.5 L384,406.5 C420.0127,406.5 458.7224,409.4361 494.7667,413.4397 " fill="none" style="stroke:#000000;stroke-width:1.0;stroke-dasharray:3.0,3.0;"/><path d="M494.4188,416.4994 L497.0615,413.7007 L495.1147,410.3801 L502.4158,414.3096 L494.4188,416.4994 " fill="#000000" style="stroke:#000000;stroke-width:1.0;"/><ellipse cx="371" cy="406.5" fill="#000000" rx="3" ry="3" style="stroke:#000000;stroke-width:1.0;"/><path d="M371,427.5 L384,427.5 C440.6174,427.5 448.5074,456.9509 502,475.5 C507.9641,477.5681 514.1016,479.6165 520.3168,481.6282 " fill="none" style="stroke:#000000;stroke-width:1.0;stroke-dasharray:3.0,3.0;"/><path d="M519.3793,484.5585 L522.5145,482.3313 L521.2542,478.6979 L527.6426,483.9718 L519.3793,484.5585 " fill="#000000" style="stroke:#000000;stroke-width:1.0;"/><ellipse cx="371" cy="427.5" fill="#000000" rx="3" ry="3" style="stroke:#000000;stroke-width:1.0;"/><path d="M371,447.5 L384,447.5 C454.7951,447.5 440.1756,520.008 502,554.5 C505.2257,556.2996 508.542,558.0227 511.9269,559.6722 " fill="none" style="stroke:#000000;stroke-width:1.0;stroke-dasharray:3.0,3.0;"/><path d="M510.6137,562.4872 L514.0382,560.6571 L513.2402,556.8572 L518.9644,562.9553 L510.6137,562.4872 " fill="#000000" style="stroke:#000000;stroke-width:1.0;"/><ellipse cx="371" cy="447.5" fill="#000000" rx="3" ry="3" style="stroke:#000000;stroke-width:1.0;"/><path d="M371,468.5 L384,468.5 C474.1565,468.5 428.3939,581.439 502,633.5 C504.1411,635.0144 506.3405,636.4704 508.5894,637.8702 " fill="none" style="stroke:#000000;stroke-width:1.0;stroke-dasharray:3.0,3.0;"/><path d="M506.9762,640.6249 L510.6554,639.0801 L510.2026,635.1155 L515.4762,641.9033 L506.9762,640.6249 " fill="#000000" style="stroke:#000000;stroke-width:1.0;"/><ellipse cx="371" cy="468.5" fill="#000000" rx="3" ry="3" style="stroke:#000000;stroke-width:1.0;"/><path d="M371,488.5 L384,488.5 C496.5243,488.5 414.7588,641.4317 502,712.5 C503.7289,713.9084 505.5064,715.2659 507.3269,716.5744 " fill="none" style="stroke:#000000;stroke-width:1.0;stroke-dasharray:3.0,3.0;"/><path d="M505.6218,719.1133 L509.2311,717.8533 L509.032,714.0356 L513.674,720.8372 L505.6218,719.1133 " fill="#000000" style="stroke:#000000;stroke-width:1.0;"/><ellipse cx="371" cy="488.5" fill="#000000" rx="3" ry="3" style="stroke:#000000;stroke-width:1.0;"/><path d="M227,336.5 L240,336.5 C283.8518,336.5 329.0003,364.993 352.8339,382.7089 " fill="none" style="stroke:#000000;stroke-width:1.0;stroke-dasharray:3.0,3.0;"/><path d="M350.9625,385.1642 L354.6753,384.1124 L354.7052,380.2536 L358.9721,387.3873 L350.9625,385.1642 " fill="#000000" style="stroke:#000000;stroke-width:1.0;"/><ellipse cx="227" cy="336.5" fill="#000000" rx="3" ry="3" style="stroke:#000000;stroke-width:1.0;"/><!--MD5=[8720cd61def7c1195913a404b3206d84]
@startjson
{
    "field1": "FIRST_NAME",
    "combination": "FIRST_NAME",
    "null_distribution": {
        "total_null_rows": 0,
        "total_not_null_rows": 319
    },
    "data_distribution": [
        {
            "field_value": "Maurice",
            "row_count": 3,
            "ratio_percent": 0.9404388714733543
        },
        {
            "field_value": "Geraldine",
            "row_count": 2,
            "ratio_percent": 0.6269592476489029
        },
        {
            "field_value": "Sherron",
            "row_count": 2,
            "ratio_percent": 0.6269592476489029
        },
        {
            "field_value": "Tandy",
            "row_count": 2,
            "ratio_percent": 0.6269592476489029
        },
        {
            "field_value": "Keesha",
            "row_count": 2,
            "ratio_percent": 0.6269592476489029
        },
        {
            "field_value": "Matthias",
            "row_count": 2,
            "ratio_percent": 0.6269592476489029
        },
        {
            "field_value": "Maryrose",
            "row_count": 2,
            "ratio_percent": 0.6269592476489029
        },
        {
            "field_value": "Jame",
            "row_count": 2,
            "ratio_percent": 0.6269592476489029
        },
        {
            "field_value": "Princess",
            "row_count": 2,
            "ratio_percent": 0.6269592476489029
        },
        {
            "field_value": "Shelia",
            "row_count": 2,
            "ratio_percent": 0.6269592476489029
        }
    ]
}
@endjson

PlantUML version 1.2022.12(Sun Oct 23 14:12:26 EDT 2022)
(GPL source distribution)
Java Runtime: OpenJDK Runtime Environment
JVM: OpenJDK 64-Bit Server VM
Default Encoding: UTF-8
Language: en
Country: CA
--></g></svg>