<?xml version="1.0" encoding="UTF-8" standalone="no"?><svg xmlns="http://www.w3.org/2000/svg" xmlns:xlink="http://www.w3.org/1999/xlink" contentStyleType="text/css" height="794px" preserveAspectRatio="none" style="width:812px;height:794px;background:#FFFFFF;" version="1.1" viewBox="0 0 812 794" width="812px" zoomAndPan="magnify"><defs/><g><rect fill="#F1F1F1" height="81.9531" rx="5" ry="5" style="stroke:#F1F1F1;stroke-width:1.5;" width="211" x="10" y="264.5"/><text fill="#000000" font-family="sans-serif" font-size="14" font-weight="bold" lengthAdjust="spacing" textLength="42" x="15" y="280.0352">field1</text><text fill="#000000" font-family="sans-serif" font-size="14" lengthAdjust="spacing" textLength="67" x="149" y="280.0352">JOB_TITLE</text><line style="stroke:#000000;stroke-width:1.0;" x1="144" x2="144" y1="264.5" y2="284.9883"/><line style="stroke:#000000;stroke-width:1.0;" x1="10" x2="221" y1="284.9883" y2="284.9883"/><text fill="#000000" font-family="sans-serif" font-size="14" font-weight="bold" lengthAdjust="spacing" textLength="90" x="15" y="300.5234">combination</text><text fill="#000000" font-family="sans-serif" font-size="14" lengthAdjust="spacing" textLength="67" x="149" y="300.5234">JOB_TITLE</text><line style="stroke:#000000;stroke-width:1.0;" x1="144" x2="144" y1="284.9883" y2="305.4766"/><line style="stroke:#000000;stroke-width:1.0;" x1="10" x2="221" y1="305.4766" y2="305.4766"/><text fill="#000000" font-family="sans-serif" font-size="14" font-weight="bold" lengthAdjust="spacing" textLength="121" x="15" y="321.0117">null_distribution</text><text fill="#000000" font-family="sans-serif" font-size="14" lengthAdjust="spacing" textLength="12" x="149" y="321.0117">   </text><line style="stroke:#000000;stroke-width:1.0;" x1="144" x2="144" y1="305.4766" y2="325.9648"/><line style="stroke:#000000;stroke-width:1.0;" x1="10" x2="221" y1="325.9648" y2="325.9648"/><text fill="#000000" font-family="sans-serif" font-size="14" font-weight="bold" lengthAdjust="spacing" textLength="124" x="15" y="341.5">data_distribution</text><text fill="#000000" font-family="sans-serif" font-size="14" lengthAdjust="spacing" textLength="12" x="149" y="341.5">   </text><line style="stroke:#000000;stroke-width:1.0;" x1="144" x2="144" y1="325.9648" y2="346.4531"/><rect fill="none" height="81.9531" rx="5" ry="5" style="stroke:#000000;stroke-width:1.5;" width="211" x="10" y="264.5"/><rect fill="#F1F1F1" height="40.9766" rx="5" ry="5" style="stroke:#F1F1F1;stroke-width:1.5;" width="189" x="258" y="235"/><text fill="#000000" font-family="sans-serif" font-size="14" font-weight="bold" lengthAdjust="spacing" textLength="111" x="263" y="250.5352">total_null_rows</text><text fill="#000000" font-family="sans-serif" font-size="14" lengthAdjust="spacing" textLength="9" x="415" y="250.5352">0</text><line style="stroke:#000000;stroke-width:1.0;" x1="410" x2="410" y1="235" y2="255.4883"/><line style="stroke:#000000;stroke-width:1.0;" x1="258" x2="447" y1="255.4883" y2="255.4883"/><text fill="#000000" font-family="sans-serif" font-size="14" font-weight="bold" lengthAdjust="spacing" textLength="142" x="263" y="271.0234">total_not_null_rows</text><text fill="#000000" font-family="sans-serif" font-size="14" lengthAdjust="spacing" textLength="27" x="415" y="271.0234">107</text><line style="stroke:#000000;stroke-width:1.0;" x1="410" x2="410" y1="255.4883" y2="275.9766"/><rect fill="none" height="40.9766" rx="5" ry="5" style="stroke:#000000;stroke-width:1.5;" width="189" x="258" y="235"/><rect fill="#F1F1F1" height="204.8828" rx="5" ry="5" style="stroke:#F1F1F1;stroke-width:1.5;" width="22" x="340.5" y="294"/><text fill="#000000" font-family="sans-serif" font-size="14" lengthAdjust="spacing" textLength="12" x="345.5" y="309.5352">   </text><line style="stroke:#000000;stroke-width:1.0;" x1="340.5" x2="362.5" y1="314.4883" y2="314.4883"/><text fill="#000000" font-family="sans-serif" font-size="14" lengthAdjust="spacing" textLength="12" x="345.5" y="330.0234">   </text><line style="stroke:#000000;stroke-width:1.0;" x1="340.5" x2="362.5" y1="334.9766" y2="334.9766"/><text fill="#000000" font-family="sans-serif" font-size="14" lengthAdjust="spacing" textLength="12" x="345.5" y="350.5117">   </text><line style="stroke:#000000;stroke-width:1.0;" x1="340.5" x2="362.5" y1="355.4648" y2="355.4648"/><text fill="#000000" font-family="sans-serif" font-size="14" lengthAdjust="spacing" textLength="12" x="345.5" y="371">   </text><line style="stroke:#000000;stroke-width:1.0;" x1="340.5" x2="362.5" y1="375.9531" y2="375.9531"/><text fill="#000000" font-family="sans-serif" font-size="14" lengthAdjust="spacing" textLength="12" x="345.5" y="391.4883">   </text><line style="stroke:#000000;stroke-width:1.0;" x1="340.5" x2="362.5" y1="396.4414" y2="396.4414"/><text fill="#000000" font-family="sans-serif" font-size="14" lengthAdjust="spacing" textLength="12" x="345.5" y="411.9766">   </text><line style="stroke:#000000;stroke-width:1.0;" x1="340.5" x2="362.5" y1="416.9297" y2="416.9297"/><text fill="#000000" font-family="sans-serif" font-size="14" lengthAdjust="spacing" textLength="12" x="345.5" y="432.4648">   </text><line style="stroke:#000000;stroke-width:1.0;" x1="340.5" x2="362.5" y1="437.418" y2="437.418"/><text fill="#000000" font-family="sans-serif" font-size="14" lengthAdjust="spacing" textLength="12" x="345.5" y="452.9531">   </text><line style="stroke:#000000;stroke-width:1.0;" x1="340.5" x2="362.5" y1="457.9063" y2="457.9063"/><text fill="#000000" font-family="sans-serif" font-size="14" lengthAdjust="spacing" textLength="12" x="345.5" y="473.4414">   </text><line style="stroke:#000000;stroke-width:1.0;" x1="340.5" x2="362.5" y1="478.3945" y2="478.3945"/><text fill="#000000" font-family="sans-serif" font-size="14" lengthAdjust="spacing" textLength="12" x="345.5" y="493.9297">   </text><rect fill="none" height="204.8828" rx="5" ry="5" style="stroke:#000000;stroke-width:1.5;" width="22" x="340.5" y="294"/><rect fill="#F1F1F1" height="61.4648" rx="5" ry="5" style="stroke:#F1F1F1;stroke-width:1.5;" width="271" x="506.5" y="10"/><text fill="#000000" font-family="sans-serif" font-size="14" font-weight="bold" lengthAdjust="spacing" textLength="78" x="511.5" y="25.5352">field_value</text><text fill="#000000" font-family="sans-serif" font-size="14" lengthAdjust="spacing" textLength="140" x="615.5" y="25.5352">Sales Representative</text><line style="stroke:#000000;stroke-width:1.0;" x1="610.5" x2="610.5" y1="10" y2="30.4883"/><line style="stroke:#000000;stroke-width:1.0;" x1="506.5" x2="777.5" y1="30.4883" y2="30.4883"/><text fill="#000000" font-family="sans-serif" font-size="14" font-weight="bold" lengthAdjust="spacing" textLength="74" x="511.5" y="46.0234">row_count</text><text fill="#000000" font-family="sans-serif" font-size="14" lengthAdjust="spacing" textLength="18" x="615.5" y="46.0234">30</text><line style="stroke:#000000;stroke-width:1.0;" x1="610.5" x2="610.5" y1="30.4883" y2="50.9766"/><line style="stroke:#000000;stroke-width:1.0;" x1="506.5" x2="777.5" y1="50.9766" y2="50.9766"/><text fill="#000000" font-family="sans-serif" font-size="14" font-weight="bold" lengthAdjust="spacing" textLength="94" x="511.5" y="66.5117">ratio_percent</text><text fill="#000000" font-family="sans-serif" font-size="14" lengthAdjust="spacing" textLength="157" x="615.5" y="66.5117">28.037383177570092</text><line style="stroke:#000000;stroke-width:1.0;" x1="610.5" x2="610.5" y1="50.9766" y2="71.4648"/><rect fill="none" height="61.4648" rx="5" ry="5" style="stroke:#000000;stroke-width:1.5;" width="271" x="506.5" y="10"/><rect fill="#F1F1F1" height="61.4648" rx="5" ry="5" style="stroke:#F1F1F1;stroke-width:1.5;" width="262" x="511" y="89"/><text fill="#000000" font-family="sans-serif" font-size="14" font-weight="bold" lengthAdjust="spacing" textLength="78" x="516" y="104.5352">field_value</text><text fill="#000000" font-family="sans-serif" font-size="14" lengthAdjust="spacing" textLength="101" x="620" y="104.5352">Shipping Clerk</text><line style="stroke:#000000;stroke-width:1.0;" x1="615" x2="615" y1="89" y2="109.4883"/><line style="stroke:#000000;stroke-width:1.0;" x1="511" x2="773" y1="109.4883" y2="109.4883"/><text fill="#000000" font-family="sans-serif" font-size="14" font-weight="bold" lengthAdjust="spacing" textLength="74" x="516" y="125.0234">row_count</text><text fill="#000000" font-family="sans-serif" font-size="14" lengthAdjust="spacing" textLength="18" x="620" y="125.0234">20</text><line style="stroke:#000000;stroke-width:1.0;" x1="615" x2="615" y1="109.4883" y2="129.9766"/><line style="stroke:#000000;stroke-width:1.0;" x1="511" x2="773" y1="129.9766" y2="129.9766"/><text fill="#000000" font-family="sans-serif" font-size="14" font-weight="bold" lengthAdjust="spacing" textLength="94" x="516" y="145.5117">ratio_percent</text><text fill="#000000" font-family="sans-serif" font-size="14" lengthAdjust="spacing" textLength="148" x="620" y="145.5117">18.69158878504673</text><line style="stroke:#000000;stroke-width:1.0;" x1="615" x2="615" y1="129.9766" y2="150.4648"/><rect fill="none" height="61.4648" rx="5" ry="5" style="stroke:#000000;stroke-width:1.5;" width="262" x="511" y="89"/><rect fill="#F1F1F1" height="61.4648" rx="5" ry="5" style="stroke:#F1F1F1;stroke-width:1.5;" width="262" x="511" y="168"/><text fill="#000000" font-family="sans-serif" font-size="14" font-weight="bold" lengthAdjust="spacing" textLength="78" x="516" y="183.5352">field_value</text><text fill="#000000" font-family="sans-serif" font-size="14" lengthAdjust="spacing" textLength="77" x="620" y="183.5352">Stock Clerk</text><line style="stroke:#000000;stroke-width:1.0;" x1="615" x2="615" y1="168" y2="188.4883"/><line style="stroke:#000000;stroke-width:1.0;" x1="511" x2="773" y1="188.4883" y2="188.4883"/><text fill="#000000" font-family="sans-serif" font-size="14" font-weight="bold" lengthAdjust="spacing" textLength="74" x="516" y="204.0234">row_count</text><text fill="#000000" font-family="sans-serif" font-size="14" lengthAdjust="spacing" textLength="18" x="620" y="204.0234">20</text><line style="stroke:#000000;stroke-width:1.0;" x1="615" x2="615" y1="188.4883" y2="208.9766"/><line style="stroke:#000000;stroke-width:1.0;" x1="511" x2="773" y1="208.9766" y2="208.9766"/><text fill="#000000" font-family="sans-serif" font-size="14" font-weight="bold" lengthAdjust="spacing" textLength="94" x="516" y="224.5117">ratio_percent</text><text fill="#000000" font-family="sans-serif" font-size="14" lengthAdjust="spacing" textLength="148" x="620" y="224.5117">18.69158878504673</text><line style="stroke:#000000;stroke-width:1.0;" x1="615" x2="615" y1="208.9766" y2="229.4648"/><rect fill="none" height="61.4648" rx="5" ry="5" style="stroke:#000000;stroke-width:1.5;" width="262" x="511" y="168"/><rect fill="#F1F1F1" height="61.4648" rx="5" ry="5" style="stroke:#F1F1F1;stroke-width:1.5;" width="262" x="511" y="247"/><text fill="#000000" font-family="sans-serif" font-size="14" font-weight="bold" lengthAdjust="spacing" textLength="78" x="516" y="262.5352">field_value</text><text fill="#000000" font-family="sans-serif" font-size="14" lengthAdjust="spacing" textLength="86" x="620" y="262.5352">Programmer</text><line style="stroke:#000000;stroke-width:1.0;" x1="615" x2="615" y1="247" y2="267.4883"/><line style="stroke:#000000;stroke-width:1.0;" x1="511" x2="773" y1="267.4883" y2="267.4883"/><text fill="#000000" font-family="sans-serif" font-size="14" font-weight="bold" lengthAdjust="spacing" textLength="74" x="516" y="283.0234">row_count</text><text fill="#000000" font-family="sans-serif" font-size="14" lengthAdjust="spacing" textLength="9" x="620" y="283.0234">5</text><line style="stroke:#000000;stroke-width:1.0;" x1="615" x2="615" y1="267.4883" y2="287.9766"/><line style="stroke:#000000;stroke-width:1.0;" x1="511" x2="773" y1="287.9766" y2="287.9766"/><text fill="#000000" font-family="sans-serif" font-size="14" font-weight="bold" lengthAdjust="spacing" textLength="94" x="516" y="303.5117">ratio_percent</text><text fill="#000000" font-family="sans-serif" font-size="14" lengthAdjust="spacing" textLength="148" x="620" y="303.5117">4.672897196261682</text><line style="stroke:#000000;stroke-width:1.0;" x1="615" x2="615" y1="287.9766" y2="308.4648"/><rect fill="none" height="61.4648" rx="5" ry="5" style="stroke:#000000;stroke-width:1.5;" width="262" x="511" y="247"/><rect fill="#F1F1F1" height="61.4648" rx="5" ry="5" style="stroke:#F1F1F1;stroke-width:1.5;" width="262" x="511" y="326"/><text fill="#000000" font-family="sans-serif" font-size="14" font-weight="bold" lengthAdjust="spacing" textLength="78" x="516" y="341.5352">field_value</text><text fill="#000000" font-family="sans-serif" font-size="14" lengthAdjust="spacing" textLength="99" x="620" y="341.5352">Sales Manager</text><line style="stroke:#000000;stroke-width:1.0;" x1="615" x2="615" y1="326" y2="346.4883"/><line style="stroke:#000000;stroke-width:1.0;" x1="511" x2="773" y1="346.4883" y2="346.4883"/><text fill="#000000" font-family="sans-serif" font-size="14" font-weight="bold" lengthAdjust="spacing" textLength="74" x="516" y="362.0234">row_count</text><text fill="#000000" font-family="sans-serif" font-size="14" lengthAdjust="spacing" textLength="9" x="620" y="362.0234">5</text><line style="stroke:#000000;stroke-width:1.0;" x1="615" x2="615" y1="346.4883" y2="366.9766"/><line style="stroke:#000000;stroke-width:1.0;" x1="511" x2="773" y1="366.9766" y2="366.9766"/><text fill="#000000" font-family="sans-serif" font-size="14" font-weight="bold" lengthAdjust="spacing" textLength="94" x="516" y="382.5117">ratio_percent</text><text fill="#000000" font-family="sans-serif" font-size="14" lengthAdjust="spacing" textLength="148" x="620" y="382.5117">4.672897196261682</text><line style="stroke:#000000;stroke-width:1.0;" x1="615" x2="615" y1="366.9766" y2="387.4648"/><rect fill="none" height="61.4648" rx="5" ry="5" style="stroke:#000000;stroke-width:1.5;" width="262" x="511" y="326"/><rect fill="#F1F1F1" height="61.4648" rx="5" ry="5" style="stroke:#F1F1F1;stroke-width:1.5;" width="262" x="511" y="405"/><text fill="#000000" font-family="sans-serif" font-size="14" font-weight="bold" lengthAdjust="spacing" textLength="78" x="516" y="420.5352">field_value</text><text fill="#000000" font-family="sans-serif" font-size="14" lengthAdjust="spacing" textLength="116" x="620" y="420.5352">Purchasing Clerk</text><line style="stroke:#000000;stroke-width:1.0;" x1="615" x2="615" y1="405" y2="425.4883"/><line style="stroke:#000000;stroke-width:1.0;" x1="511" x2="773" y1="425.4883" y2="425.4883"/><text fill="#000000" font-family="sans-serif" font-size="14" font-weight="bold" lengthAdjust="spacing" textLength="74" x="516" y="441.0234">row_count</text><text fill="#000000" font-family="sans-serif" font-size="14" lengthAdjust="spacing" textLength="9" x="620" y="441.0234">5</text><line style="stroke:#000000;stroke-width:1.0;" x1="615" x2="615" y1="425.4883" y2="445.9766"/><line style="stroke:#000000;stroke-width:1.0;" x1="511" x2="773" y1="445.9766" y2="445.9766"/><text fill="#000000" font-family="sans-serif" font-size="14" font-weight="bold" lengthAdjust="spacing" textLength="94" x="516" y="461.5117">ratio_percent</text><text fill="#000000" font-family="sans-serif" font-size="14" lengthAdjust="spacing" textLength="148" x="620" y="461.5117">4.672897196261682</text><line style="stroke:#000000;stroke-width:1.0;" x1="615" x2="615" y1="445.9766" y2="466.4648"/><rect fill="none" height="61.4648" rx="5" ry="5" style="stroke:#000000;stroke-width:1.5;" width="262" x="511" y="405"/><rect fill="#F1F1F1" height="61.4648" rx="5" ry="5" style="stroke:#F1F1F1;stroke-width:1.5;" width="262" x="511" y="484"/><text fill="#000000" font-family="sans-serif" font-size="14" font-weight="bold" lengthAdjust="spacing" textLength="78" x="516" y="499.5352">field_value</text><text fill="#000000" font-family="sans-serif" font-size="14" lengthAdjust="spacing" textLength="78" x="620" y="499.5352">Accountant</text><line style="stroke:#000000;stroke-width:1.0;" x1="615" x2="615" y1="484" y2="504.4883"/><line style="stroke:#000000;stroke-width:1.0;" x1="511" x2="773" y1="504.4883" y2="504.4883"/><text fill="#000000" font-family="sans-serif" font-size="14" font-weight="bold" lengthAdjust="spacing" textLength="74" x="516" y="520.0234">row_count</text><text fill="#000000" font-family="sans-serif" font-size="14" lengthAdjust="spacing" textLength="9" x="620" y="520.0234">5</text><line style="stroke:#000000;stroke-width:1.0;" x1="615" x2="615" y1="504.4883" y2="524.9766"/><line style="stroke:#000000;stroke-width:1.0;" x1="511" x2="773" y1="524.9766" y2="524.9766"/><text fill="#000000" font-family="sans-serif" font-size="14" font-weight="bold" lengthAdjust="spacing" textLength="94" x="516" y="540.5117">ratio_percent</text><text fill="#000000" font-family="sans-serif" font-size="14" lengthAdjust="spacing" textLength="148" x="620" y="540.5117">4.672897196261682</text><line style="stroke:#000000;stroke-width:1.0;" x1="615" x2="615" y1="524.9766" y2="545.4648"/><rect fill="none" height="61.4648" rx="5" ry="5" style="stroke:#000000;stroke-width:1.5;" width="262" x="511" y="484"/><rect fill="#F1F1F1" height="61.4648" rx="5" ry="5" style="stroke:#F1F1F1;stroke-width:1.5;" width="262" x="511" y="563"/><text fill="#000000" font-family="sans-serif" font-size="14" font-weight="bold" lengthAdjust="spacing" textLength="78" x="516" y="578.5352">field_value</text><text fill="#000000" font-family="sans-serif" font-size="14" lengthAdjust="spacing" textLength="101" x="620" y="578.5352">Stock Manager</text><line style="stroke:#000000;stroke-width:1.0;" x1="615" x2="615" y1="563" y2="583.4883"/><line style="stroke:#000000;stroke-width:1.0;" x1="511" x2="773" y1="583.4883" y2="583.4883"/><text fill="#000000" font-family="sans-serif" font-size="14" font-weight="bold" lengthAdjust="spacing" textLength="74" x="516" y="599.0234">row_count</text><text fill="#000000" font-family="sans-serif" font-size="14" lengthAdjust="spacing" textLength="9" x="620" y="599.0234">5</text><line style="stroke:#000000;stroke-width:1.0;" x1="615" x2="615" y1="583.4883" y2="603.9766"/><line style="stroke:#000000;stroke-width:1.0;" x1="511" x2="773" y1="603.9766" y2="603.9766"/><text fill="#000000" font-family="sans-serif" font-size="14" font-weight="bold" lengthAdjust="spacing" textLength="94" x="516" y="619.5117">ratio_percent</text><text fill="#000000" font-family="sans-serif" font-size="14" lengthAdjust="spacing" textLength="148" x="620" y="619.5117">4.672897196261682</text><line style="stroke:#000000;stroke-width:1.0;" x1="615" x2="615" y1="603.9766" y2="624.4648"/><rect fill="none" height="61.4648" rx="5" ry="5" style="stroke:#000000;stroke-width:1.5;" width="262" x="511" y="563"/><rect fill="#F1F1F1" height="61.4648" rx="5" ry="5" style="stroke:#F1F1F1;stroke-width:1.5;" width="316" x="484" y="642"/><text fill="#000000" font-family="sans-serif" font-size="14" font-weight="bold" lengthAdjust="spacing" textLength="78" x="489" y="657.5352">field_value</text><text fill="#000000" font-family="sans-serif" font-size="14" lengthAdjust="spacing" textLength="202" x="593" y="657.5352">Administration Vice President</text><line style="stroke:#000000;stroke-width:1.0;" x1="588" x2="588" y1="642" y2="662.4883"/><line style="stroke:#000000;stroke-width:1.0;" x1="484" x2="800" y1="662.4883" y2="662.4883"/><text fill="#000000" font-family="sans-serif" font-size="14" font-weight="bold" lengthAdjust="spacing" textLength="74" x="489" y="678.0234">row_count</text><text fill="#000000" font-family="sans-serif" font-size="14" lengthAdjust="spacing" textLength="9" x="593" y="678.0234">2</text><line style="stroke:#000000;stroke-width:1.0;" x1="588" x2="588" y1="662.4883" y2="682.9766"/><line style="stroke:#000000;stroke-width:1.0;" x1="484" x2="800" y1="682.9766" y2="682.9766"/><text fill="#000000" font-family="sans-serif" font-size="14" font-weight="bold" lengthAdjust="spacing" textLength="94" x="489" y="698.5117">ratio_percent</text><text fill="#000000" font-family="sans-serif" font-size="14" lengthAdjust="spacing" textLength="157" x="593" y="698.5117">1.8691588785046729</text><line style="stroke:#000000;stroke-width:1.0;" x1="588" x2="588" y1="682.9766" y2="703.4648"/><rect fill="none" height="61.4648" rx="5" ry="5" style="stroke:#000000;stroke-width:1.5;" width="316" x="484" y="642"/><rect fill="#F1F1F1" height="61.4648" rx="5" ry="5" style="stroke:#F1F1F1;stroke-width:1.5;" width="271" x="506.5" y="721"/><text fill="#000000" font-family="sans-serif" font-size="14" font-weight="bold" lengthAdjust="spacing" textLength="78" x="511.5" y="736.5352">field_value</text><text fill="#000000" font-family="sans-serif" font-size="14" lengthAdjust="spacing" textLength="142" x="615.5" y="736.5352">Accounting Manager</text><line style="stroke:#000000;stroke-width:1.0;" x1="610.5" x2="610.5" y1="721" y2="741.4883"/><line style="stroke:#000000;stroke-width:1.0;" x1="506.5" x2="777.5" y1="741.4883" y2="741.4883"/><text fill="#000000" font-family="sans-serif" font-size="14" font-weight="bold" lengthAdjust="spacing" textLength="74" x="511.5" y="757.0234">row_count</text><text fill="#000000" font-family="sans-serif" font-size="14" lengthAdjust="spacing" textLength="9" x="615.5" y="757.0234">1</text><line style="stroke:#000000;stroke-width:1.0;" x1="610.5" x2="610.5" y1="741.4883" y2="761.9766"/><line style="stroke:#000000;stroke-width:1.0;" x1="506.5" x2="777.5" y1="761.9766" y2="761.9766"/><text fill="#000000" font-family="sans-serif" font-size="14" font-weight="bold" lengthAdjust="spacing" textLength="94" x="511.5" y="777.5117">ratio_percent</text><text fill="#000000" font-family="sans-serif" font-size="14" lengthAdjust="spacing" textLength="157" x="615.5" y="777.5117">0.9345794392523364</text><line style="stroke:#000000;stroke-width:1.0;" x1="610.5" x2="610.5" y1="761.9766" y2="782.4648"/><rect fill="none" height="61.4648" rx="5" ry="5" style="stroke:#000000;stroke-width:1.5;" width="271" x="506.5" y="721"/><path d="M209,315.5 L222,315.5 C242.8273,315.5 239.7406,295.5187 258,285.5 C262.1394,283.2288 266.4771,281.0988 270.9224,279.1061 " fill="none" style="stroke:#000000;stroke-width:1.0;stroke-dasharray:3.0,3.0;"/><path d="M272.1301,281.9305 L273.0407,278.2004 L269.7148,276.2817 L277.9835,276.0871 L272.1301,281.9305 " fill="#000000" style="stroke:#000000;stroke-width:1.0;"/><ellipse cx="209" cy="315.5" fill="#000000" rx="3" ry="3" style="stroke:#000000;stroke-width:1.0;"/><path d="M353,303.5 L366,303.5 C403.3122,303.5 422.1906,312.4458 448,285.5 C512.2901,218.3792 420.61,147.4715 484,79.5 C488.8677,74.2805 494.3145,69.7122 500.1782,65.7172 " fill="none" style="stroke:#000000;stroke-width:1.0;stroke-dasharray:3.0,3.0;"/><path d="M501.8237,68.3247 L502.1338,64.4831 L498.5328,63.1097 L506.6969,61.6036 L501.8237,68.3247 " fill="#000000" style="stroke:#000000;stroke-width:1.0;"/><ellipse cx="353" cy="303.5" fill="#000000" rx="3" ry="3" style="stroke:#000000;stroke-width:1.0;"/><path d="M353,324.5 L366,324.5 C406.3564,324.5 421.9543,316.3264 448,285.5 C485.864,240.686 441.8266,199.2845 484,158.5 C490.1239,152.5778 496.9989,147.5105 504.3622,143.1789 " fill="none" style="stroke:#000000;stroke-width:1.0;stroke-dasharray:3.0,3.0;"/><path d="M505.872,145.9356 L506.4297,142.0465 L502.8523,140.4221 L511.254,139.4042 L505.872,145.9356 " fill="#000000" style="stroke:#000000;stroke-width:1.0;"/><ellipse cx="353" cy="324.5" fill="#000000" rx="3" ry="3" style="stroke:#000000;stroke-width:1.0;"/><path d="M353,344.5 L366,344.5 C410.8977,344.5 415.9398,316.9316 448,285.5 C467.0419,266.8314 461.7679,252.2257 484,237.5 C490.341,233.3 497.0964,229.5521 504.1082,226.2077 " fill="none" style="stroke:#000000;stroke-width:1.0;stroke-dasharray:3.0,3.0;"/><path d="M505.3929,229.0443 L506.2357,225.2442 L502.8235,223.3711 L511.1997,222.9959 L505.3929,229.0443 " fill="#000000" style="stroke:#000000;stroke-width:1.0;"/><ellipse cx="353" cy="344.5" fill="#000000" rx="3" ry="3" style="stroke:#000000;stroke-width:1.0;"/><path d="M353,365.5 L366,365.5 C422.6174,365.5 430.2128,335.1768 484,317.5 C491.5924,315.0048 499.433,312.5721 507.374,310.2185 " fill="none" style="stroke:#000000;stroke-width:1.0;stroke-dasharray:3.0,3.0;"/><path d="M508.2295,313.1452 L509.5691,309.5768 L506.5185,307.2918 L514.6908,308.0797 L508.2295,313.1452 " fill="#000000" style="stroke:#000000;stroke-width:1.0;"/><ellipse cx="353" cy="365.5" fill="#000000" rx="3" ry="3" style="stroke:#000000;stroke-width:1.0;"/><path d="M353,385.5 L366,385.5 C411.0093,385.5 459.9288,381.6244 503.8843,376.7068 " fill="none" style="stroke:#000000;stroke-width:1.0;stroke-dasharray:3.0,3.0;"/><path d="M504.2297,379.7376 L506.1575,376.4478 L503.539,373.676 L511.4614,375.8434 L504.2297,379.7376 " fill="#000000" style="stroke:#000000;stroke-width:1.0;"/><ellipse cx="353" cy="385.5" fill="#000000" rx="3" ry="3" style="stroke:#000000;stroke-width:1.0;"/><path d="M353,406.5 L366,406.5 C411.0093,406.5 459.9288,410.3756 503.8843,415.2932 " fill="none" style="stroke:#000000;stroke-width:1.0;stroke-dasharray:3.0,3.0;"/><path d="M503.539,418.324 L506.1575,415.5522 L504.2297,412.2624 L511.4614,416.1566 L503.539,418.324 " fill="#000000" style="stroke:#000000;stroke-width:1.0;"/><ellipse cx="353" cy="406.5" fill="#000000" rx="3" ry="3" style="stroke:#000000;stroke-width:1.0;"/><path d="M353,427.5 L366,427.5 C422.6174,427.5 430.1603,457.9839 484,475.5 C490.5902,477.644 497.3682,479.7361 504.2372,481.7665 " fill="none" style="stroke:#000000;stroke-width:1.0;stroke-dasharray:3.0,3.0;"/><path d="M503.3658,484.7604 L506.4827,482.4201 L505.1086,478.7726 L511.722,483.945 L503.3658,484.7604 " fill="#000000" style="stroke:#000000;stroke-width:1.0;"/><ellipse cx="353" cy="427.5" fill="#000000" rx="3" ry="3" style="stroke:#000000;stroke-width:1.0;"/><path d="M353,447.5 L366,447.5 C436.7951,447.5 421.5232,521.2043 484,554.5 C490.5257,557.9777 497.3691,561.1523 504.3964,564.0493 " fill="none" style="stroke:#000000;stroke-width:1.0;stroke-dasharray:3.0,3.0;"/><path d="M503.2742,566.8828 L506.5215,564.8909 L505.5186,561.2158 L511.4801,566.8548 L503.2742,566.8828 " fill="#000000" style="stroke:#000000;stroke-width:1.0;"/><ellipse cx="353" cy="447.5" fill="#000000" rx="3" ry="3" style="stroke:#000000;stroke-width:1.0;"/><path d="M353,468.5 L366,468.5 C456.1565,468.5 409.4056,582.8654 484,633.5 C486.3526,635.0969 488.7645,636.6285 491.2274,638.0975 " fill="none" style="stroke:#000000;stroke-width:1.0;stroke-dasharray:3.0,3.0;"/><path d="M489.7298,640.7507 L493.2172,639.2207 L492.725,635.4444 L497.8602,641.8416 L489.7298,640.7507 " fill="#000000" style="stroke:#000000;stroke-width:1.0;"/><ellipse cx="353" cy="468.5" fill="#000000" rx="3" ry="3" style="stroke:#000000;stroke-width:1.0;"/><path d="M353,488.5 L366,488.5 C478.5243,488.5 395.4071,643.124 484,712.5 C489.0214,716.4322 494.3864,719.9739 499.9952,723.1634 " fill="none" style="stroke:#000000;stroke-width:1.0;stroke-dasharray:3.0,3.0;"/><path d="M498.5613,725.8394 L502.0022,724.2388 L501.4291,720.4873 L506.6853,726.7481 L498.5613,725.8394 " fill="#000000" style="stroke:#000000;stroke-width:1.0;"/><ellipse cx="353" cy="488.5" fill="#000000" rx="3" ry="3" style="stroke:#000000;stroke-width:1.0;"/><path d="M209,336.5 L222,336.5 C265.8518,336.5 311.0003,364.993 334.8339,382.7089 " fill="none" style="stroke:#000000;stroke-width:1.0;stroke-dasharray:3.0,3.0;"/><path d="M332.9625,385.1642 L336.6753,384.1124 L336.7052,380.2536 L340.9721,387.3873 L332.9625,385.1642 " fill="#000000" style="stroke:#000000;stroke-width:1.0;"/><ellipse cx="209" cy="336.5" fill="#000000" rx="3" ry="3" style="stroke:#000000;stroke-width:1.0;"/><!--MD5=[a6ae8679873acc0aff1058a9d059274e]
@startjson
{
    "field1": "JOB_TITLE",
    "combination": "JOB_TITLE",
    "null_distribution": {
        "total_null_rows": 0,
        "total_not_null_rows": 107
    },
    "data_distribution": [
        {
            "field_value": "Sales Representative",
            "row_count": 30,
            "ratio_percent": 28.037383177570092
        },
        {
            "field_value": "Shipping Clerk",
            "row_count": 20,
            "ratio_percent": 18.69158878504673
        },
        {
            "field_value": "Stock Clerk",
            "row_count": 20,
            "ratio_percent": 18.69158878504673
        },
        {
            "field_value": "Programmer",
            "row_count": 5,
            "ratio_percent": 4.672897196261682
        },
        {
            "field_value": "Sales Manager",
            "row_count": 5,
            "ratio_percent": 4.672897196261682
        },
        {
            "field_value": "Purchasing Clerk",
            "row_count": 5,
            "ratio_percent": 4.672897196261682
        },
        {
            "field_value": "Accountant",
            "row_count": 5,
            "ratio_percent": 4.672897196261682
        },
        {
            "field_value": "Stock Manager",
            "row_count": 5,
            "ratio_percent": 4.672897196261682
        },
        {
            "field_value": "Administration Vice President",
            "row_count": 2,
            "ratio_percent": 1.8691588785046729
        },
        {
            "field_value": "Accounting Manager",
            "row_count": 1,
            "ratio_percent": 0.9345794392523364
        }
    ]
}
@endjson

PlantUML version 1.2022.12(Sun Oct 23 14:12:26 EDT 2022)
(GPL source distribution)
Java Runtime: OpenJDK Runtime Environment
JVM: OpenJDK 64-Bit Server VM
Default Encoding: UTF-8
Language: en
Country: CA
--></g></svg>