<?xml version="1.0" encoding="UTF-8" standalone="no"?><svg xmlns="http://www.w3.org/2000/svg" xmlns:xlink="http://www.w3.org/1999/xlink" contentStyleType="text/css" height="794px" preserveAspectRatio="none" style="width:790px;height:794px;background:#FFFFFF;" version="1.1" viewBox="0 0 790 794" width="790px" zoomAndPan="magnify"><defs/><g><rect fill="#F1F1F1" height="81.9531" rx="5" ry="5" style="stroke:#F1F1F1;stroke-width:1.5;" width="243" x="10" y="264.5"/><text fill="#000000" font-family="sans-serif" font-size="14" font-weight="bold" lengthAdjust="spacing" textLength="42" x="15" y="280.0352">field1</text><text fill="#000000" font-family="sans-serif" font-size="14" lengthAdjust="spacing" textLength="99" x="149" y="280.0352">POSTAL_CODE</text><line style="stroke:#000000;stroke-width:1.0;" x1="144" x2="144" y1="264.5" y2="284.9883"/><line style="stroke:#000000;stroke-width:1.0;" x1="10" x2="253" y1="284.9883" y2="284.9883"/><text fill="#000000" font-family="sans-serif" font-size="14" font-weight="bold" lengthAdjust="spacing" textLength="90" x="15" y="300.5234">combination</text><text fill="#000000" font-family="sans-serif" font-size="14" lengthAdjust="spacing" textLength="99" x="149" y="300.5234">POSTAL_CODE</text><line style="stroke:#000000;stroke-width:1.0;" x1="144" x2="144" y1="284.9883" y2="305.4766"/><line style="stroke:#000000;stroke-width:1.0;" x1="10" x2="253" y1="305.4766" y2="305.4766"/><text fill="#000000" font-family="sans-serif" font-size="14" font-weight="bold" lengthAdjust="spacing" textLength="121" x="15" y="321.0117">null_distribution</text><text fill="#000000" font-family="sans-serif" font-size="14" lengthAdjust="spacing" textLength="12" x="149" y="321.0117">   </text><line style="stroke:#000000;stroke-width:1.0;" x1="144" x2="144" y1="305.4766" y2="325.9648"/><line style="stroke:#000000;stroke-width:1.0;" x1="10" x2="253" y1="325.9648" y2="325.9648"/><text fill="#000000" font-family="sans-serif" font-size="14" font-weight="bold" lengthAdjust="spacing" textLength="124" x="15" y="341.5">data_distribution</text><text fill="#000000" font-family="sans-serif" font-size="14" lengthAdjust="spacing" textLength="12" x="149" y="341.5">   </text><line style="stroke:#000000;stroke-width:1.0;" x1="144" x2="144" y1="325.9648" y2="346.4531"/><rect fill="none" height="81.9531" rx="5" ry="5" style="stroke:#000000;stroke-width:1.5;" width="243" x="10" y="264.5"/><rect fill="#F1F1F1" height="40.9766" rx="5" ry="5" style="stroke:#F1F1F1;stroke-width:1.5;" width="180" x="290" y="235"/><text fill="#000000" font-family="sans-serif" font-size="14" font-weight="bold" lengthAdjust="spacing" textLength="111" x="295" y="250.5352">total_null_rows</text><text fill="#000000" font-family="sans-serif" font-size="14" lengthAdjust="spacing" textLength="9" x="447" y="250.5352">1</text><line style="stroke:#000000;stroke-width:1.0;" x1="442" x2="442" y1="235" y2="255.4883"/><line style="stroke:#000000;stroke-width:1.0;" x1="290" x2="470" y1="255.4883" y2="255.4883"/><text fill="#000000" font-family="sans-serif" font-size="14" font-weight="bold" lengthAdjust="spacing" textLength="142" x="295" y="271.0234">total_not_null_rows</text><text fill="#000000" font-family="sans-serif" font-size="14" lengthAdjust="spacing" textLength="18" x="447" y="271.0234">22</text><line style="stroke:#000000;stroke-width:1.0;" x1="442" x2="442" y1="255.4883" y2="275.9766"/><rect fill="none" height="40.9766" rx="5" ry="5" style="stroke:#000000;stroke-width:1.5;" width="180" x="290" y="235"/><rect fill="#F1F1F1" height="204.8828" rx="5" ry="5" style="stroke:#F1F1F1;stroke-width:1.5;" width="22" x="368" y="294"/><text fill="#000000" font-family="sans-serif" font-size="14" lengthAdjust="spacing" textLength="12" x="373" y="309.5352">   </text><line style="stroke:#000000;stroke-width:1.0;" x1="368" x2="390" y1="314.4883" y2="314.4883"/><text fill="#000000" font-family="sans-serif" font-size="14" lengthAdjust="spacing" textLength="12" x="373" y="330.0234">   </text><line style="stroke:#000000;stroke-width:1.0;" x1="368" x2="390" y1="334.9766" y2="334.9766"/><text fill="#000000" font-family="sans-serif" font-size="14" lengthAdjust="spacing" textLength="12" x="373" y="350.5117">   </text><line style="stroke:#000000;stroke-width:1.0;" x1="368" x2="390" y1="355.4648" y2="355.4648"/><text fill="#000000" font-family="sans-serif" font-size="14" lengthAdjust="spacing" textLength="12" x="373" y="371">   </text><line style="stroke:#000000;stroke-width:1.0;" x1="368" x2="390" y1="375.9531" y2="375.9531"/><text fill="#000000" font-family="sans-serif" font-size="14" lengthAdjust="spacing" textLength="12" x="373" y="391.4883">   </text><line style="stroke:#000000;stroke-width:1.0;" x1="368" x2="390" y1="396.4414" y2="396.4414"/><text fill="#000000" font-family="sans-serif" font-size="14" lengthAdjust="spacing" textLength="12" x="373" y="411.9766">   </text><line style="stroke:#000000;stroke-width:1.0;" x1="368" x2="390" y1="416.9297" y2="416.9297"/><text fill="#000000" font-family="sans-serif" font-size="14" lengthAdjust="spacing" textLength="12" x="373" y="432.4648">   </text><line style="stroke:#000000;stroke-width:1.0;" x1="368" x2="390" y1="437.418" y2="437.418"/><text fill="#000000" font-family="sans-serif" font-size="14" lengthAdjust="spacing" textLength="12" x="373" y="452.9531">   </text><line style="stroke:#000000;stroke-width:1.0;" x1="368" x2="390" y1="457.9063" y2="457.9063"/><text fill="#000000" font-family="sans-serif" font-size="14" lengthAdjust="spacing" textLength="12" x="373" y="473.4414">   </text><line style="stroke:#000000;stroke-width:1.0;" x1="368" x2="390" y1="478.3945" y2="478.3945"/><text fill="#000000" font-family="sans-serif" font-size="14" lengthAdjust="spacing" textLength="12" x="373" y="493.9297">   </text><rect fill="none" height="204.8828" rx="5" ry="5" style="stroke:#000000;stroke-width:1.5;" width="22" x="368" y="294"/><rect fill="#F1F1F1" height="61.4648" rx="5" ry="5" style="stroke:#F1F1F1;stroke-width:1.5;" width="271" x="507" y="10"/><text fill="#000000" font-family="sans-serif" font-size="14" font-weight="bold" lengthAdjust="spacing" textLength="78" x="512" y="25.5352">field_value</text><text fill="#000000" font-family="sans-serif" font-size="14" lengthAdjust="spacing" textLength="45" x="616" y="25.5352">10934</text><line style="stroke:#000000;stroke-width:1.0;" x1="611" x2="611" y1="10" y2="30.4883"/><line style="stroke:#000000;stroke-width:1.0;" x1="507" x2="778" y1="30.4883" y2="30.4883"/><text fill="#000000" font-family="sans-serif" font-size="14" font-weight="bold" lengthAdjust="spacing" textLength="74" x="512" y="46.0234">row_count</text><text fill="#000000" font-family="sans-serif" font-size="14" lengthAdjust="spacing" textLength="9" x="616" y="46.0234">1</text><line style="stroke:#000000;stroke-width:1.0;" x1="611" x2="611" y1="30.4883" y2="50.9766"/><line style="stroke:#000000;stroke-width:1.0;" x1="507" x2="778" y1="50.9766" y2="50.9766"/><text fill="#000000" font-family="sans-serif" font-size="14" font-weight="bold" lengthAdjust="spacing" textLength="94" x="512" y="66.5117">ratio_percent</text><text fill="#000000" font-family="sans-serif" font-size="14" lengthAdjust="spacing" textLength="157" x="616" y="66.5117">4.3478260869565215</text><line style="stroke:#000000;stroke-width:1.0;" x1="611" x2="611" y1="50.9766" y2="71.4648"/><rect fill="none" height="61.4648" rx="5" ry="5" style="stroke:#000000;stroke-width:1.5;" width="271" x="507" y="10"/><rect fill="#F1F1F1" height="61.4648" rx="5" ry="5" style="stroke:#F1F1F1;stroke-width:1.5;" width="271" x="507" y="89"/><text fill="#000000" font-family="sans-serif" font-size="14" font-weight="bold" lengthAdjust="spacing" textLength="78" x="512" y="104.5352">field_value</text><text fill="#000000" font-family="sans-serif" font-size="14" lengthAdjust="spacing" textLength="60" x="616" y="104.5352">YSW 9T2</text><line style="stroke:#000000;stroke-width:1.0;" x1="611" x2="611" y1="89" y2="109.4883"/><line style="stroke:#000000;stroke-width:1.0;" x1="507" x2="778" y1="109.4883" y2="109.4883"/><text fill="#000000" font-family="sans-serif" font-size="14" font-weight="bold" lengthAdjust="spacing" textLength="74" x="512" y="125.0234">row_count</text><text fill="#000000" font-family="sans-serif" font-size="14" lengthAdjust="spacing" textLength="9" x="616" y="125.0234">1</text><line style="stroke:#000000;stroke-width:1.0;" x1="611" x2="611" y1="109.4883" y2="129.9766"/><line style="stroke:#000000;stroke-width:1.0;" x1="507" x2="778" y1="129.9766" y2="129.9766"/><text fill="#000000" font-family="sans-serif" font-size="14" font-weight="bold" lengthAdjust="spacing" textLength="94" x="512" y="145.5117">ratio_percent</text><text fill="#000000" font-family="sans-serif" font-size="14" lengthAdjust="spacing" textLength="157" x="616" y="145.5117">4.3478260869565215</text><line style="stroke:#000000;stroke-width:1.0;" x1="611" x2="611" y1="129.9766" y2="150.4648"/><rect fill="none" height="61.4648" rx="5" ry="5" style="stroke:#000000;stroke-width:1.5;" width="271" x="507" y="89"/><rect fill="#F1F1F1" height="61.4648" rx="5" ry="5" style="stroke:#F1F1F1;stroke-width:1.5;" width="271" x="507" y="168"/><text fill="#000000" font-family="sans-serif" font-size="14" font-weight="bold" lengthAdjust="spacing" textLength="78" x="512" y="183.5352">field_value</text><text fill="#000000" font-family="sans-serif" font-size="14" font-weight="bold" lengthAdjust="spacing" textLength="37" x="616" y="183.5352">NULL</text><line style="stroke:#000000;stroke-width:1.0;" x1="611" x2="611" y1="168" y2="188.4883"/><line style="stroke:#000000;stroke-width:1.0;" x1="507" x2="778" y1="188.4883" y2="188.4883"/><text fill="#000000" font-family="sans-serif" font-size="14" font-weight="bold" lengthAdjust="spacing" textLength="74" x="512" y="204.0234">row_count</text><text fill="#000000" font-family="sans-serif" font-size="14" lengthAdjust="spacing" textLength="9" x="616" y="204.0234">1</text><line style="stroke:#000000;stroke-width:1.0;" x1="611" x2="611" y1="188.4883" y2="208.9766"/><line style="stroke:#000000;stroke-width:1.0;" x1="507" x2="778" y1="208.9766" y2="208.9766"/><text fill="#000000" font-family="sans-serif" font-size="14" font-weight="bold" lengthAdjust="spacing" textLength="94" x="512" y="224.5117">ratio_percent</text><text fill="#000000" font-family="sans-serif" font-size="14" lengthAdjust="spacing" textLength="157" x="616" y="224.5117">4.3478260869565215</text><line style="stroke:#000000;stroke-width:1.0;" x1="611" x2="611" y1="208.9766" y2="229.4648"/><rect fill="none" height="61.4648" rx="5" ry="5" style="stroke:#000000;stroke-width:1.5;" width="271" x="507" y="168"/><rect fill="#F1F1F1" height="61.4648" rx="5" ry="5" style="stroke:#F1F1F1;stroke-width:1.5;" width="271" x="507" y="247"/><text fill="#000000" font-family="sans-serif" font-size="14" font-weight="bold" lengthAdjust="spacing" textLength="78" x="512" y="262.5352">field_value</text><text fill="#000000" font-family="sans-serif" font-size="14" lengthAdjust="spacing" textLength="36" x="616" y="262.5352">2901</text><line style="stroke:#000000;stroke-width:1.0;" x1="611" x2="611" y1="247" y2="267.4883"/><line style="stroke:#000000;stroke-width:1.0;" x1="507" x2="778" y1="267.4883" y2="267.4883"/><text fill="#000000" font-family="sans-serif" font-size="14" font-weight="bold" lengthAdjust="spacing" textLength="74" x="512" y="283.0234">row_count</text><text fill="#000000" font-family="sans-serif" font-size="14" lengthAdjust="spacing" textLength="9" x="616" y="283.0234">1</text><line style="stroke:#000000;stroke-width:1.0;" x1="611" x2="611" y1="267.4883" y2="287.9766"/><line style="stroke:#000000;stroke-width:1.0;" x1="507" x2="778" y1="287.9766" y2="287.9766"/><text fill="#000000" font-family="sans-serif" font-size="14" font-weight="bold" lengthAdjust="spacing" textLength="94" x="512" y="303.5117">ratio_percent</text><text fill="#000000" font-family="sans-serif" font-size="14" lengthAdjust="spacing" textLength="157" x="616" y="303.5117">4.3478260869565215</text><line style="stroke:#000000;stroke-width:1.0;" x1="611" x2="611" y1="287.9766" y2="308.4648"/><rect fill="none" height="61.4648" rx="5" ry="5" style="stroke:#000000;stroke-width:1.5;" width="271" x="507" y="247"/><rect fill="#F1F1F1" height="61.4648" rx="5" ry="5" style="stroke:#F1F1F1;stroke-width:1.5;" width="271" x="507" y="326"/><text fill="#000000" font-family="sans-serif" font-size="14" font-weight="bold" lengthAdjust="spacing" textLength="78" x="512" y="341.5352">field_value</text><text fill="#000000" font-family="sans-serif" font-size="14" lengthAdjust="spacing" textLength="45" x="616" y="341.5352">98199</text><line style="stroke:#000000;stroke-width:1.0;" x1="611" x2="611" y1="326" y2="346.4883"/><line style="stroke:#000000;stroke-width:1.0;" x1="507" x2="778" y1="346.4883" y2="346.4883"/><text fill="#000000" font-family="sans-serif" font-size="14" font-weight="bold" lengthAdjust="spacing" textLength="74" x="512" y="362.0234">row_count</text><text fill="#000000" font-family="sans-serif" font-size="14" lengthAdjust="spacing" textLength="9" x="616" y="362.0234">1</text><line style="stroke:#000000;stroke-width:1.0;" x1="611" x2="611" y1="346.4883" y2="366.9766"/><line style="stroke:#000000;stroke-width:1.0;" x1="507" x2="778" y1="366.9766" y2="366.9766"/><text fill="#000000" font-family="sans-serif" font-size="14" font-weight="bold" lengthAdjust="spacing" textLength="94" x="512" y="382.5117">ratio_percent</text><text fill="#000000" font-family="sans-serif" font-size="14" lengthAdjust="spacing" textLength="157" x="616" y="382.5117">4.3478260869565215</text><line style="stroke:#000000;stroke-width:1.0;" x1="611" x2="611" y1="366.9766" y2="387.4648"/><rect fill="none" height="61.4648" rx="5" ry="5" style="stroke:#000000;stroke-width:1.5;" width="271" x="507" y="326"/><rect fill="#F1F1F1" height="61.4648" rx="5" ry="5" style="stroke:#F1F1F1;stroke-width:1.5;" width="271" x="507" y="405"/><text fill="#000000" font-family="sans-serif" font-size="14" font-weight="bold" lengthAdjust="spacing" textLength="78" x="512" y="420.5352">field_value</text><text fill="#000000" font-family="sans-serif" font-size="14" lengthAdjust="spacing" textLength="59" x="616" y="420.5352">M5V 2L7</text><line style="stroke:#000000;stroke-width:1.0;" x1="611" x2="611" y1="405" y2="425.4883"/><line style="stroke:#000000;stroke-width:1.0;" x1="507" x2="778" y1="425.4883" y2="425.4883"/><text fill="#000000" font-family="sans-serif" font-size="14" font-weight="bold" lengthAdjust="spacing" textLength="74" x="512" y="441.0234">row_count</text><text fill="#000000" font-family="sans-serif" font-size="14" lengthAdjust="spacing" textLength="9" x="616" y="441.0234">1</text><line style="stroke:#000000;stroke-width:1.0;" x1="611" x2="611" y1="425.4883" y2="445.9766"/><line style="stroke:#000000;stroke-width:1.0;" x1="507" x2="778" y1="445.9766" y2="445.9766"/><text fill="#000000" font-family="sans-serif" font-size="14" font-weight="bold" lengthAdjust="spacing" textLength="94" x="512" y="461.5117">ratio_percent</text><text fill="#000000" font-family="sans-serif" font-size="14" lengthAdjust="spacing" textLength="157" x="616" y="461.5117">4.3478260869565215</text><line style="stroke:#000000;stroke-width:1.0;" x1="611" x2="611" y1="445.9766" y2="466.4648"/><rect fill="none" height="61.4648" rx="5" ry="5" style="stroke:#000000;stroke-width:1.5;" width="271" x="507" y="405"/><rect fill="#F1F1F1" height="61.4648" rx="5" ry="5" style="stroke:#F1F1F1;stroke-width:1.5;" width="271" x="507" y="484"/><text fill="#000000" font-family="sans-serif" font-size="14" font-weight="bold" lengthAdjust="spacing" textLength="78" x="512" y="499.5352">field_value</text><text fill="#000000" font-family="sans-serif" font-size="14" lengthAdjust="spacing" textLength="80" x="616" y="499.5352">01307-002</text><line style="stroke:#000000;stroke-width:1.0;" x1="611" x2="611" y1="484" y2="504.4883"/><line style="stroke:#000000;stroke-width:1.0;" x1="507" x2="778" y1="504.4883" y2="504.4883"/><text fill="#000000" font-family="sans-serif" font-size="14" font-weight="bold" lengthAdjust="spacing" textLength="74" x="512" y="520.0234">row_count</text><text fill="#000000" font-family="sans-serif" font-size="14" lengthAdjust="spacing" textLength="9" x="616" y="520.0234">1</text><line style="stroke:#000000;stroke-width:1.0;" x1="611" x2="611" y1="504.4883" y2="524.9766"/><line style="stroke:#000000;stroke-width:1.0;" x1="507" x2="778" y1="524.9766" y2="524.9766"/><text fill="#000000" font-family="sans-serif" font-size="14" font-weight="bold" lengthAdjust="spacing" textLength="94" x="512" y="540.5117">ratio_percent</text><text fill="#000000" font-family="sans-serif" font-size="14" lengthAdjust="spacing" textLength="157" x="616" y="540.5117">4.3478260869565215</text><line style="stroke:#000000;stroke-width:1.0;" x1="611" x2="611" y1="524.9766" y2="545.4648"/><rect fill="none" height="61.4648" rx="5" ry="5" style="stroke:#000000;stroke-width:1.5;" width="271" x="507" y="484"/><rect fill="#F1F1F1" height="61.4648" rx="5" ry="5" style="stroke:#F1F1F1;stroke-width:1.5;" width="271" x="507" y="563"/><text fill="#000000" font-family="sans-serif" font-size="14" font-weight="bold" lengthAdjust="spacing" textLength="78" x="512" y="578.5352">field_value</text><text fill="#000000" font-family="sans-serif" font-size="14" lengthAdjust="spacing" textLength="45" x="616" y="578.5352">11932</text><line style="stroke:#000000;stroke-width:1.0;" x1="611" x2="611" y1="563" y2="583.4883"/><line style="stroke:#000000;stroke-width:1.0;" x1="507" x2="778" y1="583.4883" y2="583.4883"/><text fill="#000000" font-family="sans-serif" font-size="14" font-weight="bold" lengthAdjust="spacing" textLength="74" x="512" y="599.0234">row_count</text><text fill="#000000" font-family="sans-serif" font-size="14" lengthAdjust="spacing" textLength="9" x="616" y="599.0234">1</text><line style="stroke:#000000;stroke-width:1.0;" x1="611" x2="611" y1="583.4883" y2="603.9766"/><line style="stroke:#000000;stroke-width:1.0;" x1="507" x2="778" y1="603.9766" y2="603.9766"/><text fill="#000000" font-family="sans-serif" font-size="14" font-weight="bold" lengthAdjust="spacing" textLength="94" x="512" y="619.5117">ratio_percent</text><text fill="#000000" font-family="sans-serif" font-size="14" lengthAdjust="spacing" textLength="157" x="616" y="619.5117">4.3478260869565215</text><line style="stroke:#000000;stroke-width:1.0;" x1="611" x2="611" y1="603.9766" y2="624.4648"/><rect fill="none" height="61.4648" rx="5" ry="5" style="stroke:#000000;stroke-width:1.5;" width="271" x="507" y="563"/><rect fill="#F1F1F1" height="61.4648" rx="5" ry="5" style="stroke:#F1F1F1;stroke-width:1.5;" width="271" x="507" y="642"/><text fill="#000000" font-family="sans-serif" font-size="14" font-weight="bold" lengthAdjust="spacing" textLength="78" x="512" y="657.5352">field_value</text><text fill="#000000" font-family="sans-serif" font-size="14" lengthAdjust="spacing" textLength="45" x="616" y="657.5352">00989</text><line style="stroke:#000000;stroke-width:1.0;" x1="611" x2="611" y1="642" y2="662.4883"/><line style="stroke:#000000;stroke-width:1.0;" x1="507" x2="778" y1="662.4883" y2="662.4883"/><text fill="#000000" font-family="sans-serif" font-size="14" font-weight="bold" lengthAdjust="spacing" textLength="74" x="512" y="678.0234">row_count</text><text fill="#000000" font-family="sans-serif" font-size="14" lengthAdjust="spacing" textLength="9" x="616" y="678.0234">1</text><line style="stroke:#000000;stroke-width:1.0;" x1="611" x2="611" y1="662.4883" y2="682.9766"/><line style="stroke:#000000;stroke-width:1.0;" x1="507" x2="778" y1="682.9766" y2="682.9766"/><text fill="#000000" font-family="sans-serif" font-size="14" font-weight="bold" lengthAdjust="spacing" textLength="94" x="512" y="698.5117">ratio_percent</text><text fill="#000000" font-family="sans-serif" font-size="14" lengthAdjust="spacing" textLength="157" x="616" y="698.5117">4.3478260869565215</text><line style="stroke:#000000;stroke-width:1.0;" x1="611" x2="611" y1="682.9766" y2="703.4648"/><rect fill="none" height="61.4648" rx="5" ry="5" style="stroke:#000000;stroke-width:1.5;" width="271" x="507" y="642"/><rect fill="#F1F1F1" height="61.4648" rx="5" ry="5" style="stroke:#F1F1F1;stroke-width:1.5;" width="271" x="507" y="721"/><text fill="#000000" font-family="sans-serif" font-size="14" font-weight="bold" lengthAdjust="spacing" textLength="78" x="512" y="736.5352">field_value</text><text fill="#000000" font-family="sans-serif" font-size="14" lengthAdjust="spacing" textLength="45" x="616" y="736.5352">26192</text><line style="stroke:#000000;stroke-width:1.0;" x1="611" x2="611" y1="721" y2="741.4883"/><line style="stroke:#000000;stroke-width:1.0;" x1="507" x2="778" y1="741.4883" y2="741.4883"/><text fill="#000000" font-family="sans-serif" font-size="14" font-weight="bold" lengthAdjust="spacing" textLength="74" x="512" y="757.0234">row_count</text><text fill="#000000" font-family="sans-serif" font-size="14" lengthAdjust="spacing" textLength="9" x="616" y="757.0234">1</text><line style="stroke:#000000;stroke-width:1.0;" x1="611" x2="611" y1="741.4883" y2="761.9766"/><line style="stroke:#000000;stroke-width:1.0;" x1="507" x2="778" y1="761.9766" y2="761.9766"/><text fill="#000000" font-family="sans-serif" font-size="14" font-weight="bold" lengthAdjust="spacing" textLength="94" x="512" y="777.5117">ratio_percent</text><text fill="#000000" font-family="sans-serif" font-size="14" lengthAdjust="spacing" textLength="157" x="616" y="777.5117">4.3478260869565215</text><line style="stroke:#000000;stroke-width:1.0;" x1="611" x2="611" y1="761.9766" y2="782.4648"/><rect fill="none" height="61.4648" rx="5" ry="5" style="stroke:#000000;stroke-width:1.5;" width="271" x="507" y="721"/><path d="M241,315.5 L254,315.5 C274.8273,315.5 271.8137,295.6507 290,285.5 C294.038,283.2462 298.2733,281.1247 302.6133,279.1338 " fill="none" style="stroke:#000000;stroke-width:1.0;stroke-dasharray:3.0,3.0;"/><path d="M303.8219,281.8909 L304.6812,278.2274 L301.4048,276.3766 L309.5062,276.1124 L303.8219,281.8909 " fill="#000000" style="stroke:#000000;stroke-width:1.0;"/><ellipse cx="241" cy="315.5" fill="#000000" rx="3" ry="3" style="stroke:#000000;stroke-width:1.0;"/><path d="M380.5,303.5 L393.5,303.5 C428.8613,303.5 446.6954,311.1847 471,285.5 C534.8819,217.9906 444.93,148.679 507,79.5 C508.0081,78.3765 509.0463,77.2844 510.1126,76.2231 " fill="none" style="stroke:#000000;stroke-width:1.0;stroke-dasharray:3.0,3.0;"/><path d="M512.1347,78.4455 L511.7795,74.7065 L508.0905,74.0006 L515.6688,71.1678 L512.1347,78.4455 " fill="#000000" style="stroke:#000000;stroke-width:1.0;"/><ellipse cx="380.5" cy="303.5" fill="#000000" rx="3" ry="3" style="stroke:#000000;stroke-width:1.0;"/><path d="M380.5,324.5 L393.5,324.5 C432.0599,324.5 446.4435,315.2295 471,285.5 C508.3625,240.267 465.6193,200.0887 507,158.5 C508.2233,157.2705 509.4828,156.0793 510.7755,154.925 " fill="none" style="stroke:#000000;stroke-width:1.0;stroke-dasharray:3.0,3.0;"/><path d="M512.7064,157.2737 L512.537,153.4769 L508.8447,152.5764 L516.6472,150.0978 L512.7064,157.2737 " fill="#000000" style="stroke:#000000;stroke-width:1.0;"/><ellipse cx="380.5" cy="324.5" fill="#000000" rx="3" ry="3" style="stroke:#000000;stroke-width:1.0;"/><path d="M380.5,344.5 L393.5,344.5 C436.79,344.5 440.4995,316.2205 471,285.5 C489.7883,266.5762 485.0554,252.6508 507,237.5 C509.3464,235.88 511.7599,234.3267 514.2295,232.8373 " fill="none" style="stroke:#000000;stroke-width:1.0;stroke-dasharray:3.0,3.0;"/><path d="M515.7476,235.5016 L516.2277,231.6987 L512.7115,230.173 L520.8903,229.0421 L515.7476,235.5016 " fill="#000000" style="stroke:#000000;stroke-width:1.0;"/><ellipse cx="380.5" cy="344.5" fill="#000000" rx="3" ry="3" style="stroke:#000000;stroke-width:1.0;"/><path d="M380.5,365.5 L393.5,365.5 C448.27,365.5 455.4402,335.9754 507,317.5 C513.5908,315.1383 520.3965,312.8044 527.2867,310.5217 " fill="none" style="stroke:#000000;stroke-width:1.0;stroke-dasharray:3.0,3.0;"/><path d="M528.2691,313.5231 L529.5378,309.7849 L526.3044,307.5203 L534.7903,308.0658 L528.2691,313.5231 " fill="#000000" style="stroke:#000000;stroke-width:1.0;"/><ellipse cx="380.5" cy="365.5" fill="#000000" rx="3" ry="3" style="stroke:#000000;stroke-width:1.0;"/><path d="M380.5,385.5 L393.5,385.5 C427.9249,385.5 464.8526,382.7204 499.4338,378.8823 " fill="none" style="stroke:#000000;stroke-width:1.0;stroke-dasharray:3.0,3.0;"/><path d="M499.7891,382.0038 L501.7749,378.6158 L499.0785,375.7608 L507.2376,377.9941 L499.7891,382.0038 " fill="#000000" style="stroke:#000000;stroke-width:1.0;"/><ellipse cx="380.5" cy="385.5" fill="#000000" rx="3" ry="3" style="stroke:#000000;stroke-width:1.0;"/><path d="M380.5,406.5 L393.5,406.5 C427.9249,406.5 464.8526,409.2796 499.4338,413.1177 " fill="none" style="stroke:#000000;stroke-width:1.0;stroke-dasharray:3.0,3.0;"/><path d="M499.0785,416.2392 L501.7749,413.3842 L499.7891,409.9962 L507.2376,414.0059 L499.0785,416.2392 " fill="#000000" style="stroke:#000000;stroke-width:1.0;"/><ellipse cx="380.5" cy="406.5" fill="#000000" rx="3" ry="3" style="stroke:#000000;stroke-width:1.0;"/><path d="M380.5,427.5 L393.5,427.5 C448.27,427.5 455.3775,457.2006 507,475.5 C512.867,477.5798 518.9057,479.6324 525.0234,481.6426 " fill="none" style="stroke:#000000;stroke-width:1.0;stroke-dasharray:3.0,3.0;"/><path d="M524.0876,484.5276 L527.1871,482.3445 L525.9592,478.7577 L532.2358,483.9821 L524.0876,484.5276 " fill="#000000" style="stroke:#000000;stroke-width:1.0;"/><ellipse cx="380.5" cy="427.5" fill="#000000" rx="3" ry="3" style="stroke:#000000;stroke-width:1.0;"/><path d="M380.5,447.5 L393.5,447.5 C462.8266,447.5 446.7882,520.1385 507,554.5 C510.1452,556.2949 513.3795,558.0127 516.682,559.6564 " fill="none" style="stroke:#000000;stroke-width:1.0;stroke-dasharray:3.0,3.0;"/><path d="M515.3737,562.4037 L518.7424,560.6377 L517.9903,556.9092 L523.55,562.9272 L515.3737,562.4037 " fill="#000000" style="stroke:#000000;stroke-width:1.0;"/><ellipse cx="380.5" cy="447.5" fill="#000000" rx="3" ry="3" style="stroke:#000000;stroke-width:1.0;"/><path d="M380.5,468.5 L393.5,468.5 C482.508,468.5 434.8044,581.4403 507,633.5 C509.0777,634.9982 511.2121,636.4392 513.395,637.825 " fill="none" style="stroke:#000000;stroke-width:1.0;stroke-dasharray:3.0,3.0;"/><path d="M511.7973,640.4995 L515.4009,639.0233 L514.9928,635.1505 L520.0812,641.8193 L511.7973,640.4995 " fill="#000000" style="stroke:#000000;stroke-width:1.0;"/><ellipse cx="380.5" cy="468.5" fill="#000000" rx="3" ry="3" style="stroke:#000000;stroke-width:1.0;"/><path d="M380.5,488.5 L393.5,488.5 C505.1062,488.5 421.0322,641.3278 507,712.5 C508.7177,713.922 510.4848,715.2923 512.2956,716.6125 " fill="none" style="stroke:#000000;stroke-width:1.0;stroke-dasharray:3.0,3.0;"/><path d="M510.5759,719.1394 L514.1908,717.9023 L514.0153,714.0857 L518.6127,720.9118 L510.5759,719.1394 " fill="#000000" style="stroke:#000000;stroke-width:1.0;"/><ellipse cx="380.5" cy="488.5" fill="#000000" rx="3" ry="3" style="stroke:#000000;stroke-width:1.0;"/><path d="M241,336.5 L254,336.5 C296.1629,336.5 339.1866,364.4055 362.2874,382.1547 " fill="none" style="stroke:#000000;stroke-width:1.0;stroke-dasharray:3.0,3.0;"/><path d="M360.4053,384.5427 L364.0784,383.5663 L364.1695,379.7667 L368.2574,386.86 L360.4053,384.5427 " fill="#000000" style="stroke:#000000;stroke-width:1.0;"/><ellipse cx="241" cy="336.5" fill="#000000" rx="3" ry="3" style="stroke:#000000;stroke-width:1.0;"/><!--MD5=[6f0acfc3df7e9fa126867f3e2e4816c6]
@startjson
{
    "field1": "POSTAL_CODE",
    "combination": "POSTAL_CODE",
    "null_distribution": {
        "total_null_rows": 1,
        "total_not_null_rows": 22
    },
    "data_distribution": [
        {
            "field_value": "10934",
            "row_count": 1,
            "ratio_percent": 4.3478260869565215
        },
        {
            "field_value": "YSW 9T2",
            "row_count": 1,
            "ratio_percent": 4.3478260869565215
        },
        {
            "field_value": "**NULL**",
            "row_count": 1,
            "ratio_percent": 4.3478260869565215
        },
        {
            "field_value": "2901",
            "row_count": 1,
            "ratio_percent": 4.3478260869565215
        },
        {
            "field_value": "98199",
            "row_count": 1,
            "ratio_percent": 4.3478260869565215
        },
        {
            "field_value": "M5V 2L7",
            "row_count": 1,
            "ratio_percent": 4.3478260869565215
        },
        {
            "field_value": "01307-002",
            "row_count": 1,
            "ratio_percent": 4.3478260869565215
        },
        {
            "field_value": "11932",
            "row_count": 1,
            "ratio_percent": 4.3478260869565215
        },
        {
            "field_value": "00989",
            "row_count": 1,
            "ratio_percent": 4.3478260869565215
        },
        {
            "field_value": "26192",
            "row_count": 1,
            "ratio_percent": 4.3478260869565215
        }
    ]
}
@endjson

PlantUML version 1.2022.12(Sun Oct 23 14:12:26 EDT 2022)
(GPL source distribution)
Java Runtime: OpenJDK Runtime Environment
JVM: OpenJDK 64-Bit Server VM
Default Encoding: UTF-8
Language: en
Country: CA
--></g></svg>