<?xml version="1.0" encoding="UTF-8" standalone="no"?><svg xmlns="http://www.w3.org/2000/svg" xmlns:xlink="http://www.w3.org/1999/xlink" contentStyleType="text/css" height="809px" preserveAspectRatio="none" style="width:411px;height:809px;background:#FFFFFF;" version="1.1" viewBox="0 0 411 809" width="411px" zoomAndPan="magnify"><defs/><g><rect fill="#F1F1F1" height="102.4414" rx="5" ry="5" style="stroke:#F1F1F1;stroke-width:1.5;" width="22" x="10" y="353.5"/><text fill="#000000" font-family="sans-serif" font-size="14" lengthAdjust="spacing" textLength="12" x="15" y="369.0352">   </text><line style="stroke:#000000;stroke-width:1.0;" x1="10" x2="32" y1="373.9883" y2="373.9883"/><text fill="#000000" font-family="sans-serif" font-size="14" lengthAdjust="spacing" textLength="12" x="15" y="389.5234">   </text><line style="stroke:#000000;stroke-width:1.0;" x1="10" x2="32" y1="394.4766" y2="394.4766"/><text fill="#000000" font-family="sans-serif" font-size="14" lengthAdjust="spacing" textLength="12" x="15" y="410.0117">   </text><line style="stroke:#000000;stroke-width:1.0;" x1="10" x2="32" y1="414.9648" y2="414.9648"/><text fill="#000000" font-family="sans-serif" font-size="14" lengthAdjust="spacing" textLength="12" x="15" y="430.5">   </text><line style="stroke:#000000;stroke-width:1.0;" x1="10" x2="32" y1="435.4531" y2="435.4531"/><text fill="#000000" font-family="sans-serif" font-size="14" lengthAdjust="spacing" textLength="12" x="15" y="450.9883">   </text><rect fill="none" height="102.4414" rx="5" ry="5" style="stroke:#000000;stroke-width:1.5;" width="22" x="10" y="353.5"/><rect fill="#F1F1F1" height="143.418" rx="5" ry="5" style="stroke:#F1F1F1;stroke-width:1.5;" width="328" x="71" y="10"/><text fill="#000000" font-family="sans-serif" font-size="14" font-weight="bold" lengthAdjust="spacing" textLength="122" x="76" y="25.5352">BusinessEntityID</text><text fill="#000000" font-family="sans-serif" font-size="14" lengthAdjust="spacing" textLength="9" x="240" y="25.5352">1</text><line style="stroke:#000000;stroke-width:1.0;" x1="235" x2="235" y1="10" y2="30.4883"/><line style="stroke:#000000;stroke-width:1.0;" x1="71" x2="399" y1="30.4883" y2="30.4883"/><text fill="#000000" font-family="sans-serif" font-size="14" font-weight="bold" lengthAdjust="spacing" textLength="101" x="76" y="46.0234">DepartmentID</text><text fill="#000000" font-family="sans-serif" font-size="14" lengthAdjust="spacing" textLength="18" x="240" y="46.0234">16</text><line style="stroke:#000000;stroke-width:1.0;" x1="235" x2="235" y1="30.4883" y2="50.9766"/><line style="stroke:#000000;stroke-width:1.0;" x1="71" x2="399" y1="50.9766" y2="50.9766"/><text fill="#000000" font-family="sans-serif" font-size="14" font-weight="bold" lengthAdjust="spacing" textLength="50" x="76" y="66.5117">ShiftID</text><text fill="#000000" font-family="sans-serif" font-size="14" lengthAdjust="spacing" textLength="9" x="240" y="66.5117">1</text><line style="stroke:#000000;stroke-width:1.0;" x1="235" x2="235" y1="50.9766" y2="71.4648"/><line style="stroke:#000000;stroke-width:1.0;" x1="71" x2="399" y1="71.4648" y2="71.4648"/><text fill="#000000" font-family="sans-serif" font-size="14" font-weight="bold" lengthAdjust="spacing" textLength="67" x="76" y="87">StartDate</text><text fill="#000000" font-family="sans-serif" font-size="14" lengthAdjust="spacing" textLength="88" x="240" y="87">2009-01-14</text><line style="stroke:#000000;stroke-width:1.0;" x1="235" x2="235" y1="71.4648" y2="91.9531"/><line style="stroke:#000000;stroke-width:1.0;" x1="71" x2="399" y1="91.9531" y2="91.9531"/><text fill="#000000" font-family="sans-serif" font-size="14" font-weight="bold" lengthAdjust="spacing" textLength="59" x="76" y="107.4883">EndDate</text><text fill="#000000" font-family="sans-serif" font-size="14" lengthAdjust="spacing" textLength="14" x="240" y="107.4883">␀</text><line style="stroke:#000000;stroke-width:1.0;" x1="235" x2="235" y1="91.9531" y2="112.4414"/><line style="stroke:#000000;stroke-width:1.0;" x1="71" x2="399" y1="112.4414" y2="112.4414"/><text fill="#000000" font-family="sans-serif" font-size="14" font-weight="bold" lengthAdjust="spacing" textLength="97" x="76" y="127.9766">ModifiedDate</text><text fill="#000000" font-family="sans-serif" font-size="14" lengthAdjust="spacing" textLength="154" x="240" y="127.9766">2009-01-13 00:00:00</text><line style="stroke:#000000;stroke-width:1.0;" x1="235" x2="235" y1="112.4414" y2="132.9297"/><line style="stroke:#000000;stroke-width:1.0;" x1="71" x2="399" y1="132.9297" y2="132.9297"/><text fill="#000000" font-family="sans-serif" font-size="14" font-weight="bold" lengthAdjust="spacing" textLength="154" x="76" y="148.4648">SYS_EXEC_DURATION</text><text fill="#000000" font-family="sans-serif" font-size="14" lengthAdjust="spacing" textLength="67" x="240" y="148.4648">0.183551</text><line style="stroke:#000000;stroke-width:1.0;" x1="235" x2="235" y1="132.9297" y2="153.418"/><rect fill="none" height="143.418" rx="5" ry="5" style="stroke:#000000;stroke-width:1.5;" width="328" x="71" y="10"/><rect fill="#F1F1F1" height="143.418" rx="5" ry="5" style="stroke:#F1F1F1;stroke-width:1.5;" width="328" x="71" y="171"/><text fill="#000000" font-family="sans-serif" font-size="14" font-weight="bold" lengthAdjust="spacing" textLength="122" x="76" y="186.5352">BusinessEntityID</text><text fill="#000000" font-family="sans-serif" font-size="14" lengthAdjust="spacing" textLength="9" x="240" y="186.5352">2</text><line style="stroke:#000000;stroke-width:1.0;" x1="235" x2="235" y1="171" y2="191.4883"/><line style="stroke:#000000;stroke-width:1.0;" x1="71" x2="399" y1="191.4883" y2="191.4883"/><text fill="#000000" font-family="sans-serif" font-size="14" font-weight="bold" lengthAdjust="spacing" textLength="101" x="76" y="207.0234">DepartmentID</text><text fill="#000000" font-family="sans-serif" font-size="14" lengthAdjust="spacing" textLength="9" x="240" y="207.0234">1</text><line style="stroke:#000000;stroke-width:1.0;" x1="235" x2="235" y1="191.4883" y2="211.9766"/><line style="stroke:#000000;stroke-width:1.0;" x1="71" x2="399" y1="211.9766" y2="211.9766"/><text fill="#000000" font-family="sans-serif" font-size="14" font-weight="bold" lengthAdjust="spacing" textLength="50" x="76" y="227.5117">ShiftID</text><text fill="#000000" font-family="sans-serif" font-size="14" lengthAdjust="spacing" textLength="9" x="240" y="227.5117">1</text><line style="stroke:#000000;stroke-width:1.0;" x1="235" x2="235" y1="211.9766" y2="232.4648"/><line style="stroke:#000000;stroke-width:1.0;" x1="71" x2="399" y1="232.4648" y2="232.4648"/><text fill="#000000" font-family="sans-serif" font-size="14" font-weight="bold" lengthAdjust="spacing" textLength="67" x="76" y="248">StartDate</text><text fill="#000000" font-family="sans-serif" font-size="14" lengthAdjust="spacing" textLength="88" x="240" y="248">2008-01-31</text><line style="stroke:#000000;stroke-width:1.0;" x1="235" x2="235" y1="232.4648" y2="252.9531"/><line style="stroke:#000000;stroke-width:1.0;" x1="71" x2="399" y1="252.9531" y2="252.9531"/><text fill="#000000" font-family="sans-serif" font-size="14" font-weight="bold" lengthAdjust="spacing" textLength="59" x="76" y="268.4883">EndDate</text><text fill="#000000" font-family="sans-serif" font-size="14" lengthAdjust="spacing" textLength="14" x="240" y="268.4883">␀</text><line style="stroke:#000000;stroke-width:1.0;" x1="235" x2="235" y1="252.9531" y2="273.4414"/><line style="stroke:#000000;stroke-width:1.0;" x1="71" x2="399" y1="273.4414" y2="273.4414"/><text fill="#000000" font-family="sans-serif" font-size="14" font-weight="bold" lengthAdjust="spacing" textLength="97" x="76" y="288.9766">ModifiedDate</text><text fill="#000000" font-family="sans-serif" font-size="14" lengthAdjust="spacing" textLength="154" x="240" y="288.9766">2008-01-30 00:00:00</text><line style="stroke:#000000;stroke-width:1.0;" x1="235" x2="235" y1="273.4414" y2="293.9297"/><line style="stroke:#000000;stroke-width:1.0;" x1="71" x2="399" y1="293.9297" y2="293.9297"/><text fill="#000000" font-family="sans-serif" font-size="14" font-weight="bold" lengthAdjust="spacing" textLength="154" x="76" y="309.4648">SYS_EXEC_DURATION</text><text fill="#000000" font-family="sans-serif" font-size="14" lengthAdjust="spacing" textLength="67" x="240" y="309.4648">0.183679</text><line style="stroke:#000000;stroke-width:1.0;" x1="235" x2="235" y1="293.9297" y2="314.418"/><rect fill="none" height="143.418" rx="5" ry="5" style="stroke:#000000;stroke-width:1.5;" width="328" x="71" y="171"/><rect fill="#F1F1F1" height="143.418" rx="5" ry="5" style="stroke:#F1F1F1;stroke-width:1.5;" width="328" x="71" y="332"/><text fill="#000000" font-family="sans-serif" font-size="14" font-weight="bold" lengthAdjust="spacing" textLength="122" x="76" y="347.5352">BusinessEntityID</text><text fill="#000000" font-family="sans-serif" font-size="14" lengthAdjust="spacing" textLength="9" x="240" y="347.5352">3</text><line style="stroke:#000000;stroke-width:1.0;" x1="235" x2="235" y1="332" y2="352.4883"/><line style="stroke:#000000;stroke-width:1.0;" x1="71" x2="399" y1="352.4883" y2="352.4883"/><text fill="#000000" font-family="sans-serif" font-size="14" font-weight="bold" lengthAdjust="spacing" textLength="101" x="76" y="368.0234">DepartmentID</text><text fill="#000000" font-family="sans-serif" font-size="14" lengthAdjust="spacing" textLength="9" x="240" y="368.0234">1</text><line style="stroke:#000000;stroke-width:1.0;" x1="235" x2="235" y1="352.4883" y2="372.9766"/><line style="stroke:#000000;stroke-width:1.0;" x1="71" x2="399" y1="372.9766" y2="372.9766"/><text fill="#000000" font-family="sans-serif" font-size="14" font-weight="bold" lengthAdjust="spacing" textLength="50" x="76" y="388.5117">ShiftID</text><text fill="#000000" font-family="sans-serif" font-size="14" lengthAdjust="spacing" textLength="9" x="240" y="388.5117">1</text><line style="stroke:#000000;stroke-width:1.0;" x1="235" x2="235" y1="372.9766" y2="393.4648"/><line style="stroke:#000000;stroke-width:1.0;" x1="71" x2="399" y1="393.4648" y2="393.4648"/><text fill="#000000" font-family="sans-serif" font-size="14" font-weight="bold" lengthAdjust="spacing" textLength="67" x="76" y="409">StartDate</text><text fill="#000000" font-family="sans-serif" font-size="14" lengthAdjust="spacing" textLength="88" x="240" y="409">2007-11-11</text><line style="stroke:#000000;stroke-width:1.0;" x1="235" x2="235" y1="393.4648" y2="413.9531"/><line style="stroke:#000000;stroke-width:1.0;" x1="71" x2="399" y1="413.9531" y2="413.9531"/><text fill="#000000" font-family="sans-serif" font-size="14" font-weight="bold" lengthAdjust="spacing" textLength="59" x="76" y="429.4883">EndDate</text><text fill="#000000" font-family="sans-serif" font-size="14" lengthAdjust="spacing" textLength="14" x="240" y="429.4883">␀</text><line style="stroke:#000000;stroke-width:1.0;" x1="235" x2="235" y1="413.9531" y2="434.4414"/><line style="stroke:#000000;stroke-width:1.0;" x1="71" x2="399" y1="434.4414" y2="434.4414"/><text fill="#000000" font-family="sans-serif" font-size="14" font-weight="bold" lengthAdjust="spacing" textLength="97" x="76" y="449.9766">ModifiedDate</text><text fill="#000000" font-family="sans-serif" font-size="14" lengthAdjust="spacing" textLength="154" x="240" y="449.9766">2007-11-10 00:00:00</text><line style="stroke:#000000;stroke-width:1.0;" x1="235" x2="235" y1="434.4414" y2="454.9297"/><line style="stroke:#000000;stroke-width:1.0;" x1="71" x2="399" y1="454.9297" y2="454.9297"/><text fill="#000000" font-family="sans-serif" font-size="14" font-weight="bold" lengthAdjust="spacing" textLength="154" x="76" y="470.4648">SYS_EXEC_DURATION</text><text fill="#000000" font-family="sans-serif" font-size="14" lengthAdjust="spacing" textLength="67" x="240" y="470.4648">0.183731</text><line style="stroke:#000000;stroke-width:1.0;" x1="235" x2="235" y1="454.9297" y2="475.418"/><rect fill="none" height="143.418" rx="5" ry="5" style="stroke:#000000;stroke-width:1.5;" width="328" x="71" y="332"/><rect fill="#F1F1F1" height="143.418" rx="5" ry="5" style="stroke:#F1F1F1;stroke-width:1.5;" width="328" x="71" y="493"/><text fill="#000000" font-family="sans-serif" font-size="14" font-weight="bold" lengthAdjust="spacing" textLength="122" x="76" y="508.5352">BusinessEntityID</text><text fill="#000000" font-family="sans-serif" font-size="14" lengthAdjust="spacing" textLength="9" x="240" y="508.5352">4</text><line style="stroke:#000000;stroke-width:1.0;" x1="235" x2="235" y1="493" y2="513.4883"/><line style="stroke:#000000;stroke-width:1.0;" x1="71" x2="399" y1="513.4883" y2="513.4883"/><text fill="#000000" font-family="sans-serif" font-size="14" font-weight="bold" lengthAdjust="spacing" textLength="101" x="76" y="529.0234">DepartmentID</text><text fill="#000000" font-family="sans-serif" font-size="14" lengthAdjust="spacing" textLength="9" x="240" y="529.0234">1</text><line style="stroke:#000000;stroke-width:1.0;" x1="235" x2="235" y1="513.4883" y2="533.9766"/><line style="stroke:#000000;stroke-width:1.0;" x1="71" x2="399" y1="533.9766" y2="533.9766"/><text fill="#000000" font-family="sans-serif" font-size="14" font-weight="bold" lengthAdjust="spacing" textLength="50" x="76" y="549.5117">ShiftID</text><text fill="#000000" font-family="sans-serif" font-size="14" lengthAdjust="spacing" textLength="9" x="240" y="549.5117">1</text><line style="stroke:#000000;stroke-width:1.0;" x1="235" x2="235" y1="533.9766" y2="554.4648"/><line style="stroke:#000000;stroke-width:1.0;" x1="71" x2="399" y1="554.4648" y2="554.4648"/><text fill="#000000" font-family="sans-serif" font-size="14" font-weight="bold" lengthAdjust="spacing" textLength="67" x="76" y="570">StartDate</text><text fill="#000000" font-family="sans-serif" font-size="14" lengthAdjust="spacing" textLength="88" x="240" y="570">2007-12-05</text><line style="stroke:#000000;stroke-width:1.0;" x1="235" x2="235" y1="554.4648" y2="574.9531"/><line style="stroke:#000000;stroke-width:1.0;" x1="71" x2="399" y1="574.9531" y2="574.9531"/><text fill="#000000" font-family="sans-serif" font-size="14" font-weight="bold" lengthAdjust="spacing" textLength="59" x="76" y="590.4883">EndDate</text><text fill="#000000" font-family="sans-serif" font-size="14" lengthAdjust="spacing" textLength="88" x="240" y="590.4883">2010-05-30</text><line style="stroke:#000000;stroke-width:1.0;" x1="235" x2="235" y1="574.9531" y2="595.4414"/><line style="stroke:#000000;stroke-width:1.0;" x1="71" x2="399" y1="595.4414" y2="595.4414"/><text fill="#000000" font-family="sans-serif" font-size="14" font-weight="bold" lengthAdjust="spacing" textLength="97" x="76" y="610.9766">ModifiedDate</text><text fill="#000000" font-family="sans-serif" font-size="14" lengthAdjust="spacing" textLength="154" x="240" y="610.9766">2010-05-28 00:00:00</text><line style="stroke:#000000;stroke-width:1.0;" x1="235" x2="235" y1="595.4414" y2="615.9297"/><line style="stroke:#000000;stroke-width:1.0;" x1="71" x2="399" y1="615.9297" y2="615.9297"/><text fill="#000000" font-family="sans-serif" font-size="14" font-weight="bold" lengthAdjust="spacing" textLength="154" x="76" y="631.4648">SYS_EXEC_DURATION</text><text fill="#000000" font-family="sans-serif" font-size="14" lengthAdjust="spacing" textLength="67" x="240" y="631.4648">0.183777</text><line style="stroke:#000000;stroke-width:1.0;" x1="235" x2="235" y1="615.9297" y2="636.418"/><rect fill="none" height="143.418" rx="5" ry="5" style="stroke:#000000;stroke-width:1.5;" width="328" x="71" y="493"/><rect fill="#F1F1F1" height="143.418" rx="5" ry="5" style="stroke:#F1F1F1;stroke-width:1.5;" width="328" x="71" y="654"/><text fill="#000000" font-family="sans-serif" font-size="14" font-weight="bold" lengthAdjust="spacing" textLength="122" x="76" y="669.5352">BusinessEntityID</text><text fill="#000000" font-family="sans-serif" font-size="14" lengthAdjust="spacing" textLength="9" x="240" y="669.5352">4</text><line style="stroke:#000000;stroke-width:1.0;" x1="235" x2="235" y1="654" y2="674.4883"/><line style="stroke:#000000;stroke-width:1.0;" x1="71" x2="399" y1="674.4883" y2="674.4883"/><text fill="#000000" font-family="sans-serif" font-size="14" font-weight="bold" lengthAdjust="spacing" textLength="101" x="76" y="690.0234">DepartmentID</text><text fill="#000000" font-family="sans-serif" font-size="14" lengthAdjust="spacing" textLength="9" x="240" y="690.0234">2</text><line style="stroke:#000000;stroke-width:1.0;" x1="235" x2="235" y1="674.4883" y2="694.9766"/><line style="stroke:#000000;stroke-width:1.0;" x1="71" x2="399" y1="694.9766" y2="694.9766"/><text fill="#000000" font-family="sans-serif" font-size="14" font-weight="bold" lengthAdjust="spacing" textLength="50" x="76" y="710.5117">ShiftID</text><text fill="#000000" font-family="sans-serif" font-size="14" lengthAdjust="spacing" textLength="9" x="240" y="710.5117">1</text><line style="stroke:#000000;stroke-width:1.0;" x1="235" x2="235" y1="694.9766" y2="715.4648"/><line style="stroke:#000000;stroke-width:1.0;" x1="71" x2="399" y1="715.4648" y2="715.4648"/><text fill="#000000" font-family="sans-serif" font-size="14" font-weight="bold" lengthAdjust="spacing" textLength="67" x="76" y="731">StartDate</text><text fill="#000000" font-family="sans-serif" font-size="14" lengthAdjust="spacing" textLength="88" x="240" y="731">2010-05-31</text><line style="stroke:#000000;stroke-width:1.0;" x1="235" x2="235" y1="715.4648" y2="735.9531"/><line style="stroke:#000000;stroke-width:1.0;" x1="71" x2="399" y1="735.9531" y2="735.9531"/><text fill="#000000" font-family="sans-serif" font-size="14" font-weight="bold" lengthAdjust="spacing" textLength="59" x="76" y="751.4883">EndDate</text><text fill="#000000" font-family="sans-serif" font-size="14" lengthAdjust="spacing" textLength="14" x="240" y="751.4883">␀</text><line style="stroke:#000000;stroke-width:1.0;" x1="235" x2="235" y1="735.9531" y2="756.4414"/><line style="stroke:#000000;stroke-width:1.0;" x1="71" x2="399" y1="756.4414" y2="756.4414"/><text fill="#000000" font-family="sans-serif" font-size="14" font-weight="bold" lengthAdjust="spacing" textLength="97" x="76" y="771.9766">ModifiedDate</text><text fill="#000000" font-family="sans-serif" font-size="14" lengthAdjust="spacing" textLength="154" x="240" y="771.9766">2010-05-30 00:00:00</text><line style="stroke:#000000;stroke-width:1.0;" x1="235" x2="235" y1="756.4414" y2="776.9297"/><line style="stroke:#000000;stroke-width:1.0;" x1="71" x2="399" y1="776.9297" y2="776.9297"/><text fill="#000000" font-family="sans-serif" font-size="14" font-weight="bold" lengthAdjust="spacing" textLength="154" x="76" y="792.4648">SYS_EXEC_DURATION</text><text fill="#000000" font-family="sans-serif" font-size="14" lengthAdjust="spacing" textLength="67" x="240" y="792.4648">0.183832</text><line style="stroke:#000000;stroke-width:1.0;" x1="235" x2="235" y1="776.9297" y2="797.418"/><rect fill="none" height="143.418" rx="5" ry="5" style="stroke:#000000;stroke-width:1.5;" width="328" x="71" y="654"/><path d="M22.5,365.5 L22.5,352.5 C22.5,308.7085 43.3891,195.4901 71,161.5 C71.716,160.6185 72.4442,159.746 73.184,158.8824 " fill="none" style="stroke:#000000;stroke-width:1.0;stroke-dasharray:3.0,3.0;"/><path d="M75.4125,160.901 L74.698,157.211 L70.9555,156.8638 L78.2305,153.3112 L75.4125,160.901 " fill="#000000" style="stroke:#000000;stroke-width:1.0;"/><ellipse cx="22.5" cy="365.5" fill="#000000" rx="3" ry="3" style="stroke:#000000;stroke-width:1.0;"/><path d="M22,383.5 L35,383.5 C66.4803,383.5 47.8879,343.8739 71,322.5 C72.2724,321.3233 73.5654,320.1603 74.8774,319.0109 " fill="none" style="stroke:#000000;stroke-width:1.0;stroke-dasharray:3.0,3.0;"/><path d="M76.8582,321.359 L76.6384,317.5252 L72.8965,316.6628 L80.7475,314.0587 L76.8582,321.359 " fill="#000000" style="stroke:#000000;stroke-width:1.0;"/><ellipse cx="22" cy="383.5" fill="#000000" rx="3" ry="3" style="stroke:#000000;stroke-width:1.0;"/><path d="M22,403.5 L35,403.5 C44.453,403.5 54.158,403.5 63.9538,403.5 " fill="none" style="stroke:#000000;stroke-width:1.0;stroke-dasharray:3.0,3.0;"/><path d="M63.9538,406.5024 L66.2056,403.5 L63.9538,400.4976 L71.4597,403.5 L63.9538,406.5024 " fill="#000000" style="stroke:#000000;stroke-width:1.0;"/><ellipse cx="22" cy="403.5" fill="#000000" rx="3" ry="3" style="stroke:#000000;stroke-width:1.0;"/><path d="M22,424.5 L35,424.5 C66.0984,424.5 48.0918,463.4685 71,484.5 C72.2767,485.6721 73.5737,486.8307 74.8896,487.9758 " fill="none" style="stroke:#000000;stroke-width:1.0;stroke-dasharray:3.0,3.0;"/><path d="M72.9157,490.3303 L76.6555,489.4562 L76.8635,485.6213 L80.7758,492.9106 L72.9157,490.3303 " fill="#000000" style="stroke:#000000;stroke-width:1.0;"/><ellipse cx="22" cy="424.5" fill="#000000" rx="3" ry="3" style="stroke:#000000;stroke-width:1.0;"/><path d="M22.5,443.5 L22.5,456.5 C22.5,499.8608 43.6182,611.8786 71,645.5 C71.7172,646.3806 72.4464,647.2522 73.1873,648.1149 " fill="none" style="stroke:#000000;stroke-width:1.0;stroke-dasharray:3.0,3.0;"/><path d="M70.9609,650.1361 L74.7032,649.7847 L75.4137,646.0937 L78.2403,653.6809 L70.9609,650.1361 " fill="#000000" style="stroke:#000000;stroke-width:1.0;"/><ellipse cx="22.5" cy="443.5" fill="#000000" rx="3" ry="3" style="stroke:#000000;stroke-width:1.0;"/><!--MD5=[00bb2fc1c8a07f58c8322c02603f91b0]
@startjson
[
    {
        "BusinessEntityID": 1,
        "DepartmentID": 16,
        "ShiftID": 1,
        "StartDate": "2009-01-14",
        "EndDate": null,
        "ModifiedDate": "2009-01-13 00:00:00",
        "SYS_EXEC_DURATION": "0.183551"
    },
    {
        "BusinessEntityID": 2,
        "DepartmentID": 1,
        "ShiftID": 1,
        "StartDate": "2008-01-31",
        "EndDate": null,
        "ModifiedDate": "2008-01-30 00:00:00",
        "SYS_EXEC_DURATION": "0.183679"
    },
    {
        "BusinessEntityID": 3,
        "DepartmentID": 1,
        "ShiftID": 1,
        "StartDate": "2007-11-11",
        "EndDate": null,
        "ModifiedDate": "2007-11-10 00:00:00",
        "SYS_EXEC_DURATION": "0.183731"
    },
    {
        "BusinessEntityID": 4,
        "DepartmentID": 1,
        "ShiftID": 1,
        "StartDate": "2007-12-05",
        "EndDate": "2010-05-30",
        "ModifiedDate": "2010-05-28 00:00:00",
        "SYS_EXEC_DURATION": "0.183777"
    },
    {
        "BusinessEntityID": 4,
        "DepartmentID": 2,
        "ShiftID": 1,
        "StartDate": "2010-05-31",
        "EndDate": null,
        "ModifiedDate": "2010-05-30 00:00:00",
        "SYS_EXEC_DURATION": "0.183832"
    }
]
@endjson

PlantUML version 1.2022.5(Sat Apr 30 06:55:52 EDT 2022)
(GPL source distribution)
Java Runtime: OpenJDK Runtime Environment
JVM: OpenJDK 64-Bit Server VM
Default Encoding: UTF-8
Language: en
Country: CA
--></g></svg>