<?xml version="1.0" encoding="UTF-8" standalone="no"?><svg xmlns="http://www.w3.org/2000/svg" xmlns:xlink="http://www.w3.org/1999/xlink" contentStyleType="text/css" height="708px" preserveAspectRatio="none" style="width:646px;height:708px;background:#FFFFFF;" version="1.1" viewBox="0 0 646 708" width="646px" zoomAndPan="magnify"><defs/><g><rect fill="#F1F1F1" height="102.4414" rx="5" ry="5" style="stroke:#F1F1F1;stroke-width:1.5;" width="22" x="10" y="303.5"/><text fill="#000000" font-family="sans-serif" font-size="14" lengthAdjust="spacing" textLength="12" x="15" y="319.0352">   </text><line style="stroke:#000000;stroke-width:1.0;" x1="10" x2="32" y1="323.9883" y2="323.9883"/><text fill="#000000" font-family="sans-serif" font-size="14" lengthAdjust="spacing" textLength="12" x="15" y="339.5234">   </text><line style="stroke:#000000;stroke-width:1.0;" x1="10" x2="32" y1="344.4766" y2="344.4766"/><text fill="#000000" font-family="sans-serif" font-size="14" lengthAdjust="spacing" textLength="12" x="15" y="360.0117">   </text><line style="stroke:#000000;stroke-width:1.0;" x1="10" x2="32" y1="364.9648" y2="364.9648"/><text fill="#000000" font-family="sans-serif" font-size="14" lengthAdjust="spacing" textLength="12" x="15" y="380.5">   </text><line style="stroke:#000000;stroke-width:1.0;" x1="10" x2="32" y1="385.4531" y2="385.4531"/><text fill="#000000" font-family="sans-serif" font-size="14" lengthAdjust="spacing" textLength="12" x="15" y="400.9883">   </text><rect fill="none" height="102.4414" rx="5" ry="5" style="stroke:#000000;stroke-width:1.5;" width="22" x="10" y="303.5"/><rect fill="#F1F1F1" height="122.9297" rx="5" ry="5" style="stroke:#F1F1F1;stroke-width:1.5;" width="550" x="77.5" y="10"/><text fill="#000000" font-family="sans-serif" font-size="14" font-weight="bold" lengthAdjust="spacing" textLength="122" x="82.5" y="25.5352">BusinessEntityID</text><text fill="#000000" font-family="sans-serif" font-size="14" lengthAdjust="spacing" textLength="9" x="246.5" y="25.5352">1</text><line style="stroke:#000000;stroke-width:1.0;" x1="241.5" x2="241.5" y1="10" y2="30.4883"/><line style="stroke:#000000;stroke-width:1.0;" x1="77.5" x2="627.5" y1="30.4883" y2="30.4883"/><text fill="#000000" font-family="sans-serif" font-size="14" font-weight="bold" lengthAdjust="spacing" textLength="105" x="82.5" y="46.0234">PasswordHash</text><text fill="#000000" font-family="sans-serif" font-size="14" lengthAdjust="spacing" textLength="376" x="246.5" y="46.0234">pbFwXWE99vobT6g+vPWFy93NtUU/orrIWafF01hccfM=</text><line style="stroke:#000000;stroke-width:1.0;" x1="241.5" x2="241.5" y1="30.4883" y2="50.9766"/><line style="stroke:#000000;stroke-width:1.0;" x1="77.5" x2="627.5" y1="50.9766" y2="50.9766"/><text fill="#000000" font-family="sans-serif" font-size="14" font-weight="bold" lengthAdjust="spacing" textLength="96" x="82.5" y="66.5117">PasswordSalt</text><text fill="#000000" font-family="sans-serif" font-size="14" lengthAdjust="spacing" textLength="73" x="246.5" y="66.5117">bE3XiWw=</text><line style="stroke:#000000;stroke-width:1.0;" x1="241.5" x2="241.5" y1="50.9766" y2="71.4648"/><line style="stroke:#000000;stroke-width:1.0;" x1="77.5" x2="627.5" y1="71.4648" y2="71.4648"/><text fill="#000000" font-family="sans-serif" font-size="14" font-weight="bold" lengthAdjust="spacing" textLength="59" x="82.5" y="87">rowguid</text><text fill="#000000" font-family="sans-serif" font-size="14" lengthAdjust="spacing" textLength="315" x="246.5" y="87">329EACBE-C883-4F48-B8B6-17AA4627EFFF</text><line style="stroke:#000000;stroke-width:1.0;" x1="241.5" x2="241.5" y1="71.4648" y2="91.9531"/><line style="stroke:#000000;stroke-width:1.0;" x1="77.5" x2="627.5" y1="91.9531" y2="91.9531"/><text fill="#000000" font-family="sans-serif" font-size="14" font-weight="bold" lengthAdjust="spacing" textLength="97" x="82.5" y="107.4883">ModifiedDate</text><text fill="#000000" font-family="sans-serif" font-size="14" lengthAdjust="spacing" textLength="154" x="246.5" y="107.4883">2009-01-07 00:00:00</text><line style="stroke:#000000;stroke-width:1.0;" x1="241.5" x2="241.5" y1="91.9531" y2="112.4414"/><line style="stroke:#000000;stroke-width:1.0;" x1="77.5" x2="627.5" y1="112.4414" y2="112.4414"/><text fill="#000000" font-family="sans-serif" font-size="14" font-weight="bold" lengthAdjust="spacing" textLength="154" x="82.5" y="127.9766">SYS_EXEC_DURATION</text><text fill="#000000" font-family="sans-serif" font-size="14" lengthAdjust="spacing" textLength="58" x="246.5" y="127.9766">0.18274</text><line style="stroke:#000000;stroke-width:1.0;" x1="241.5" x2="241.5" y1="112.4414" y2="132.9297"/><rect fill="none" height="122.9297" rx="5" ry="5" style="stroke:#000000;stroke-width:1.5;" width="550" x="77.5" y="10"/><rect fill="#F1F1F1" height="122.9297" rx="5" ry="5" style="stroke:#F1F1F1;stroke-width:1.5;" width="559" x="73" y="151"/><text fill="#000000" font-family="sans-serif" font-size="14" font-weight="bold" lengthAdjust="spacing" textLength="122" x="78" y="166.5352">BusinessEntityID</text><text fill="#000000" font-family="sans-serif" font-size="14" lengthAdjust="spacing" textLength="9" x="242" y="166.5352">2</text><line style="stroke:#000000;stroke-width:1.0;" x1="237" x2="237" y1="151" y2="171.4883"/><line style="stroke:#000000;stroke-width:1.0;" x1="73" x2="632" y1="171.4883" y2="171.4883"/><text fill="#000000" font-family="sans-serif" font-size="14" font-weight="bold" lengthAdjust="spacing" textLength="105" x="78" y="187.0234">PasswordHash</text><text fill="#000000" font-family="sans-serif" font-size="14" lengthAdjust="spacing" textLength="385" x="242" y="187.0234">bawRVNrZQYQ05qF05Gz6VLilnviZmrqBReTTAGAudm0=</text><line style="stroke:#000000;stroke-width:1.0;" x1="237" x2="237" y1="171.4883" y2="191.9766"/><line style="stroke:#000000;stroke-width:1.0;" x1="73" x2="632" y1="191.9766" y2="191.9766"/><text fill="#000000" font-family="sans-serif" font-size="14" font-weight="bold" lengthAdjust="spacing" textLength="96" x="78" y="207.5117">PasswordSalt</text><text fill="#000000" font-family="sans-serif" font-size="14" lengthAdjust="spacing" textLength="64" x="242" y="207.5117">EjJaC3U=</text><line style="stroke:#000000;stroke-width:1.0;" x1="237" x2="237" y1="191.9766" y2="212.4648"/><line style="stroke:#000000;stroke-width:1.0;" x1="73" x2="632" y1="212.4648" y2="212.4648"/><text fill="#000000" font-family="sans-serif" font-size="14" font-weight="bold" lengthAdjust="spacing" textLength="59" x="78" y="228">rowguid</text><text fill="#000000" font-family="sans-serif" font-size="14" lengthAdjust="spacing" textLength="318" x="242" y="228">A4C82398-7466-4FE6-B9EE-CEC34D116F68</text><line style="stroke:#000000;stroke-width:1.0;" x1="237" x2="237" y1="212.4648" y2="232.9531"/><line style="stroke:#000000;stroke-width:1.0;" x1="73" x2="632" y1="232.9531" y2="232.9531"/><text fill="#000000" font-family="sans-serif" font-size="14" font-weight="bold" lengthAdjust="spacing" textLength="97" x="78" y="248.4883">ModifiedDate</text><text fill="#000000" font-family="sans-serif" font-size="14" lengthAdjust="spacing" textLength="154" x="242" y="248.4883">2008-01-24 00:00:00</text><line style="stroke:#000000;stroke-width:1.0;" x1="237" x2="237" y1="232.9531" y2="253.4414"/><line style="stroke:#000000;stroke-width:1.0;" x1="73" x2="632" y1="253.4414" y2="253.4414"/><text fill="#000000" font-family="sans-serif" font-size="14" font-weight="bold" lengthAdjust="spacing" textLength="154" x="78" y="268.9766">SYS_EXEC_DURATION</text><text fill="#000000" font-family="sans-serif" font-size="14" lengthAdjust="spacing" textLength="67" x="242" y="268.9766">0.182898</text><line style="stroke:#000000;stroke-width:1.0;" x1="237" x2="237" y1="253.4414" y2="273.9297"/><rect fill="none" height="122.9297" rx="5" ry="5" style="stroke:#000000;stroke-width:1.5;" width="559" x="73" y="151"/><rect fill="#F1F1F1" height="122.9297" rx="5" ry="5" style="stroke:#F1F1F1;stroke-width:1.5;" width="563" x="71" y="292"/><text fill="#000000" font-family="sans-serif" font-size="14" font-weight="bold" lengthAdjust="spacing" textLength="122" x="76" y="307.5352">BusinessEntityID</text><text fill="#000000" font-family="sans-serif" font-size="14" lengthAdjust="spacing" textLength="9" x="240" y="307.5352">3</text><line style="stroke:#000000;stroke-width:1.0;" x1="235" x2="235" y1="292" y2="312.4883"/><line style="stroke:#000000;stroke-width:1.0;" x1="71" x2="634" y1="312.4883" y2="312.4883"/><text fill="#000000" font-family="sans-serif" font-size="14" font-weight="bold" lengthAdjust="spacing" textLength="105" x="76" y="328.0234">PasswordHash</text><text fill="#000000" font-family="sans-serif" font-size="14" lengthAdjust="spacing" textLength="389" x="240" y="328.0234">8BUXrZfDqO1IyHCWOYzYmqN1IhTUn3CJMpdx/UCQ3iY=</text><line style="stroke:#000000;stroke-width:1.0;" x1="235" x2="235" y1="312.4883" y2="332.9766"/><line style="stroke:#000000;stroke-width:1.0;" x1="71" x2="634" y1="332.9766" y2="332.9766"/><text fill="#000000" font-family="sans-serif" font-size="14" font-weight="bold" lengthAdjust="spacing" textLength="96" x="76" y="348.5117">PasswordSalt</text><text fill="#000000" font-family="sans-serif" font-size="14" lengthAdjust="spacing" textLength="79" x="240" y="348.5117">wbPZqMw=</text><line style="stroke:#000000;stroke-width:1.0;" x1="235" x2="235" y1="332.9766" y2="353.4648"/><line style="stroke:#000000;stroke-width:1.0;" x1="71" x2="634" y1="353.4648" y2="353.4648"/><text fill="#000000" font-family="sans-serif" font-size="14" font-weight="bold" lengthAdjust="spacing" textLength="59" x="76" y="369">rowguid</text><text fill="#000000" font-family="sans-serif" font-size="14" lengthAdjust="spacing" textLength="318" x="240" y="369">AC3F4536-BB2E-41C5-B70D-454BE460C1BD</text><line style="stroke:#000000;stroke-width:1.0;" x1="235" x2="235" y1="353.4648" y2="373.9531"/><line style="stroke:#000000;stroke-width:1.0;" x1="71" x2="634" y1="373.9531" y2="373.9531"/><text fill="#000000" font-family="sans-serif" font-size="14" font-weight="bold" lengthAdjust="spacing" textLength="97" x="76" y="389.4883">ModifiedDate</text><text fill="#000000" font-family="sans-serif" font-size="14" lengthAdjust="spacing" textLength="154" x="240" y="389.4883">2007-11-04 00:00:00</text><line style="stroke:#000000;stroke-width:1.0;" x1="235" x2="235" y1="373.9531" y2="394.4414"/><line style="stroke:#000000;stroke-width:1.0;" x1="71" x2="634" y1="394.4414" y2="394.4414"/><text fill="#000000" font-family="sans-serif" font-size="14" font-weight="bold" lengthAdjust="spacing" textLength="154" x="76" y="409.9766">SYS_EXEC_DURATION</text><text fill="#000000" font-family="sans-serif" font-size="14" lengthAdjust="spacing" textLength="67" x="240" y="409.9766">0.182967</text><line style="stroke:#000000;stroke-width:1.0;" x1="235" x2="235" y1="394.4414" y2="414.9297"/><rect fill="none" height="122.9297" rx="5" ry="5" style="stroke:#000000;stroke-width:1.5;" width="563" x="71" y="292"/><rect fill="#F1F1F1" height="122.9297" rx="5" ry="5" style="stroke:#F1F1F1;stroke-width:1.5;" width="534" x="85.5" y="433"/><text fill="#000000" font-family="sans-serif" font-size="14" font-weight="bold" lengthAdjust="spacing" textLength="122" x="90.5" y="448.5352">BusinessEntityID</text><text fill="#000000" font-family="sans-serif" font-size="14" lengthAdjust="spacing" textLength="9" x="254.5" y="448.5352">4</text><line style="stroke:#000000;stroke-width:1.0;" x1="249.5" x2="249.5" y1="433" y2="453.4883"/><line style="stroke:#000000;stroke-width:1.0;" x1="85.5" x2="619.5" y1="453.4883" y2="453.4883"/><text fill="#000000" font-family="sans-serif" font-size="14" font-weight="bold" lengthAdjust="spacing" textLength="105" x="90.5" y="469.0234">PasswordHash</text><text fill="#000000" font-family="sans-serif" font-size="14" lengthAdjust="spacing" textLength="360" x="254.5" y="469.0234">SjLXpiarHSlz+6AG+H+4QpB/IPRzras/+9q/5Wr7tf8=</text><line style="stroke:#000000;stroke-width:1.0;" x1="249.5" x2="249.5" y1="453.4883" y2="473.9766"/><line style="stroke:#000000;stroke-width:1.0;" x1="85.5" x2="619.5" y1="473.9766" y2="473.9766"/><text fill="#000000" font-family="sans-serif" font-size="14" font-weight="bold" lengthAdjust="spacing" textLength="96" x="90.5" y="489.5117">PasswordSalt</text><text fill="#000000" font-family="sans-serif" font-size="14" lengthAdjust="spacing" textLength="77" x="254.5" y="489.5117">PwSunQU=</text><line style="stroke:#000000;stroke-width:1.0;" x1="249.5" x2="249.5" y1="473.9766" y2="494.4648"/><line style="stroke:#000000;stroke-width:1.0;" x1="85.5" x2="619.5" y1="494.4648" y2="494.4648"/><text fill="#000000" font-family="sans-serif" font-size="14" font-weight="bold" lengthAdjust="spacing" textLength="59" x="90.5" y="510">rowguid</text><text fill="#000000" font-family="sans-serif" font-size="14" lengthAdjust="spacing" textLength="321" x="254.5" y="510">B3FA4C24-2E96-477C-A923-0CB0F6FA5C80</text><line style="stroke:#000000;stroke-width:1.0;" x1="249.5" x2="249.5" y1="494.4648" y2="514.9531"/><line style="stroke:#000000;stroke-width:1.0;" x1="85.5" x2="619.5" y1="514.9531" y2="514.9531"/><text fill="#000000" font-family="sans-serif" font-size="14" font-weight="bold" lengthAdjust="spacing" textLength="97" x="90.5" y="530.4883">ModifiedDate</text><text fill="#000000" font-family="sans-serif" font-size="14" lengthAdjust="spacing" textLength="154" x="254.5" y="530.4883">2007-11-28 00:00:00</text><line style="stroke:#000000;stroke-width:1.0;" x1="249.5" x2="249.5" y1="514.9531" y2="535.4414"/><line style="stroke:#000000;stroke-width:1.0;" x1="85.5" x2="619.5" y1="535.4414" y2="535.4414"/><text fill="#000000" font-family="sans-serif" font-size="14" font-weight="bold" lengthAdjust="spacing" textLength="154" x="90.5" y="550.9766">SYS_EXEC_DURATION</text><text fill="#000000" font-family="sans-serif" font-size="14" lengthAdjust="spacing" textLength="67" x="254.5" y="550.9766">0.183028</text><line style="stroke:#000000;stroke-width:1.0;" x1="249.5" x2="249.5" y1="535.4414" y2="555.9297"/><rect fill="none" height="122.9297" rx="5" ry="5" style="stroke:#000000;stroke-width:1.5;" width="534" x="85.5" y="433"/><rect fill="#F1F1F1" height="122.9297" rx="5" ry="5" style="stroke:#F1F1F1;stroke-width:1.5;" width="546" x="79.5" y="574"/><text fill="#000000" font-family="sans-serif" font-size="14" font-weight="bold" lengthAdjust="spacing" textLength="122" x="84.5" y="589.5352">BusinessEntityID</text><text fill="#000000" font-family="sans-serif" font-size="14" lengthAdjust="spacing" textLength="9" x="248.5" y="589.5352">5</text><line style="stroke:#000000;stroke-width:1.0;" x1="243.5" x2="243.5" y1="574" y2="594.4883"/><line style="stroke:#000000;stroke-width:1.0;" x1="79.5" x2="625.5" y1="594.4883" y2="594.4883"/><text fill="#000000" font-family="sans-serif" font-size="14" font-weight="bold" lengthAdjust="spacing" textLength="105" x="84.5" y="610.0234">PasswordHash</text><text fill="#000000" font-family="sans-serif" font-size="14" lengthAdjust="spacing" textLength="372" x="248.5" y="610.0234">8FYdAiY6gWuBsgjCFdg0UibtsqOcWHf9TyaHIP7+paA=</text><line style="stroke:#000000;stroke-width:1.0;" x1="243.5" x2="243.5" y1="594.4883" y2="614.9766"/><line style="stroke:#000000;stroke-width:1.0;" x1="79.5" x2="625.5" y1="614.9766" y2="614.9766"/><text fill="#000000" font-family="sans-serif" font-size="14" font-weight="bold" lengthAdjust="spacing" textLength="96" x="84.5" y="630.5117">PasswordSalt</text><text fill="#000000" font-family="sans-serif" font-size="14" lengthAdjust="spacing" textLength="71" x="248.5" y="630.5117">qYhZRiM=</text><line style="stroke:#000000;stroke-width:1.0;" x1="243.5" x2="243.5" y1="614.9766" y2="635.4648"/><line style="stroke:#000000;stroke-width:1.0;" x1="79.5" x2="625.5" y1="635.4648" y2="635.4648"/><text fill="#000000" font-family="sans-serif" font-size="14" font-weight="bold" lengthAdjust="spacing" textLength="59" x="84.5" y="651">rowguid</text><text fill="#000000" font-family="sans-serif" font-size="14" lengthAdjust="spacing" textLength="323" x="248.5" y="651">C4D13BCF-0209-44C7-AC67-6F817FDD7F16</text><line style="stroke:#000000;stroke-width:1.0;" x1="243.5" x2="243.5" y1="635.4648" y2="655.9531"/><line style="stroke:#000000;stroke-width:1.0;" x1="79.5" x2="625.5" y1="655.9531" y2="655.9531"/><text fill="#000000" font-family="sans-serif" font-size="14" font-weight="bold" lengthAdjust="spacing" textLength="97" x="84.5" y="671.4883">ModifiedDate</text><text fill="#000000" font-family="sans-serif" font-size="14" lengthAdjust="spacing" textLength="154" x="248.5" y="671.4883">2007-12-30 00:00:00</text><line style="stroke:#000000;stroke-width:1.0;" x1="243.5" x2="243.5" y1="655.9531" y2="676.4414"/><line style="stroke:#000000;stroke-width:1.0;" x1="79.5" x2="625.5" y1="676.4414" y2="676.4414"/><text fill="#000000" font-family="sans-serif" font-size="14" font-weight="bold" lengthAdjust="spacing" textLength="154" x="84.5" y="691.9766">SYS_EXEC_DURATION</text><text fill="#000000" font-family="sans-serif" font-size="14" lengthAdjust="spacing" textLength="67" x="248.5" y="691.9766">0.183101</text><line style="stroke:#000000;stroke-width:1.0;" x1="243.5" x2="243.5" y1="676.4414" y2="696.9297"/><rect fill="none" height="122.9297" rx="5" ry="5" style="stroke:#000000;stroke-width:1.5;" width="546" x="79.5" y="574"/><path d="M22,313.5 L35,313.5 C113.1009,313.5 16.8284,197.76 71,141.5 C72.0462,140.4135 73.1064,139.3429 74.1802,138.2879 " fill="none" style="stroke:#000000;stroke-width:1.0;stroke-dasharray:3.0,3.0;"/><path d="M76.2385,140.48 L75.8243,136.7441 L72.1219,136.0958 L79.6604,133.1421 L76.2385,140.48 " fill="#000000" style="stroke:#000000;stroke-width:1.0;"/><ellipse cx="22" cy="313.5" fill="#000000" rx="3" ry="3" style="stroke:#000000;stroke-width:1.0;"/><path d="M22,333.5 L35,333.5 C62.7449,333.5 48.1033,298.1691 71,282.5 C73.1264,281.0448 75.2802,279.6199 77.4596,278.2245 " fill="none" style="stroke:#000000;stroke-width:1.0;stroke-dasharray:3.0,3.0;"/><path d="M79.0988,280.8696 L79.4435,276.9951 L75.8204,275.5794 L84.0724,274.1265 L79.0988,280.8696 " fill="#000000" style="stroke:#000000;stroke-width:1.0;"/><ellipse cx="22" cy="333.5" fill="#000000" rx="3" ry="3" style="stroke:#000000;stroke-width:1.0;"/><path d="M22,353.5 L35,353.5 C44.3366,353.5 53.8278,353.5 63.4122,353.5 " fill="none" style="stroke:#000000;stroke-width:1.0;stroke-dasharray:3.0,3.0;"/><path d="M63.4122,356.5821 L65.7238,353.5 L63.4122,350.4179 L71.1175,353.5 L63.4122,356.5821 " fill="#000000" style="stroke:#000000;stroke-width:1.0;"/><ellipse cx="22" cy="353.5" fill="#000000" rx="3" ry="3" style="stroke:#000000;stroke-width:1.0;"/><path d="M22,374.5 L35,374.5 C62.383,374.5 48.3299,409.1412 71,424.5 C73.6925,426.3241 76.4283,428.1008 79.2036,429.8311 " fill="none" style="stroke:#000000;stroke-width:1.0;stroke-dasharray:3.0,3.0;"/><path d="M77.6219,432.4493 L81.1672,431.0174 L80.7852,427.213 L85.7489,433.7853 L77.6219,432.4493 " fill="#000000" style="stroke:#000000;stroke-width:1.0;"/><ellipse cx="22" cy="374.5" fill="#000000" rx="3" ry="3" style="stroke:#000000;stroke-width:1.0;"/><path d="M22,395.5 L35,395.5 C112.2311,395.5 17.3661,509.9298 71,565.5 C72.0802,566.6192 73.1753,567.7215 74.2848,568.8072 " fill="none" style="stroke:#000000;stroke-width:1.0;stroke-dasharray:3.0,3.0;"/><path d="M72.1681,571.0733 L75.9843,570.3948 L76.4014,566.5411 L79.95,574.0989 L72.1681,571.0733 " fill="#000000" style="stroke:#000000;stroke-width:1.0;"/><ellipse cx="22" cy="395.5" fill="#000000" rx="3" ry="3" style="stroke:#000000;stroke-width:1.0;"/><!--MD5=[9c45cdb618156bc0323aa6a52059a1f3]
@startjson
[
    {
        "BusinessEntityID": 1,
        "PasswordHash": "pbFwXWE99vobT6g+vPWFy93NtUU/orrIWafF01hccfM=",
        "PasswordSalt": "bE3XiWw=",
        "rowguid": "329EACBE-C883-4F48-B8B6-17AA4627EFFF",
        "ModifiedDate": "2009-01-07 00:00:00",
        "SYS_EXEC_DURATION": "0.18274"
    },
    {
        "BusinessEntityID": 2,
        "PasswordHash": "bawRVNrZQYQ05qF05Gz6VLilnviZmrqBReTTAGAudm0=",
        "PasswordSalt": "EjJaC3U=",
        "rowguid": "A4C82398-7466-4FE6-B9EE-CEC34D116F68",
        "ModifiedDate": "2008-01-24 00:00:00",
        "SYS_EXEC_DURATION": "0.182898"
    },
    {
        "BusinessEntityID": 3,
        "PasswordHash": "8BUXrZfDqO1IyHCWOYzYmqN1IhTUn3CJMpdx/UCQ3iY=",
        "PasswordSalt": "wbPZqMw=",
        "rowguid": "AC3F4536-BB2E-41C5-B70D-454BE460C1BD",
        "ModifiedDate": "2007-11-04 00:00:00",
        "SYS_EXEC_DURATION": "0.182967"
    },
    {
        "BusinessEntityID": 4,
        "PasswordHash": "SjLXpiarHSlz+6AG+H+4QpB/IPRzras/+9q/5Wr7tf8=",
        "PasswordSalt": "PwSunQU=",
        "rowguid": "B3FA4C24-2E96-477C-A923-0CB0F6FA5C80",
        "ModifiedDate": "2007-11-28 00:00:00",
        "SYS_EXEC_DURATION": "0.183028"
    },
    {
        "BusinessEntityID": 5,
        "PasswordHash": "8FYdAiY6gWuBsgjCFdg0UibtsqOcWHf9TyaHIP7+paA=",
        "PasswordSalt": "qYhZRiM=",
        "rowguid": "C4D13BCF-0209-44C7-AC67-6F817FDD7F16",
        "ModifiedDate": "2007-12-30 00:00:00",
        "SYS_EXEC_DURATION": "0.183101"
    }
]
@endjson

PlantUML version 1.2022.5(Sat Apr 30 06:55:52 EDT 2022)
(GPL source distribution)
Java Runtime: OpenJDK Runtime Environment
JVM: OpenJDK 64-Bit Server VM
Default Encoding: UTF-8
Language: en
Country: CA
--></g></svg>