<?xml version="1.0" encoding="UTF-8" standalone="no"?><svg xmlns="http://www.w3.org/2000/svg" xmlns:xlink="http://www.w3.org/1999/xlink" contentStyleType="text/css" height="503px" preserveAspectRatio="none" style="width:583px;height:503px;background:#FFFFFF;" version="1.1" viewBox="0 0 583 503" width="583px" zoomAndPan="magnify"><defs/><g><rect fill="#F1F1F1" height="102.4414" rx="5" ry="5" style="stroke:#F1F1F1;stroke-width:1.5;" width="22" x="10" y="201"/><text fill="#000000" font-family="sans-serif" font-size="14" lengthAdjust="spacing" textLength="12" x="15" y="216.5352">   </text><line style="stroke:#000000;stroke-width:1.0;" x1="10" x2="32" y1="221.4883" y2="221.4883"/><text fill="#000000" font-family="sans-serif" font-size="14" lengthAdjust="spacing" textLength="12" x="15" y="237.0234">   </text><line style="stroke:#000000;stroke-width:1.0;" x1="10" x2="32" y1="241.9766" y2="241.9766"/><text fill="#000000" font-family="sans-serif" font-size="14" lengthAdjust="spacing" textLength="12" x="15" y="257.5117">   </text><line style="stroke:#000000;stroke-width:1.0;" x1="10" x2="32" y1="262.4648" y2="262.4648"/><text fill="#000000" font-family="sans-serif" font-size="14" lengthAdjust="spacing" textLength="12" x="15" y="278">   </text><line style="stroke:#000000;stroke-width:1.0;" x1="10" x2="32" y1="282.9531" y2="282.9531"/><text fill="#000000" font-family="sans-serif" font-size="14" lengthAdjust="spacing" textLength="12" x="15" y="298.4883">   </text><rect fill="none" height="102.4414" rx="5" ry="5" style="stroke:#000000;stroke-width:1.5;" width="22" x="10" y="201"/><rect fill="#F1F1F1" height="81.9531" rx="5" ry="5" style="stroke:#F1F1F1;stroke-width:1.5;" width="497" x="72.5" y="10"/><text fill="#000000" font-family="sans-serif" font-size="14" font-weight="bold" lengthAdjust="spacing" textLength="122" x="77.5" y="25.5352">BusinessEntityID</text><text fill="#000000" font-family="sans-serif" font-size="14" lengthAdjust="spacing" textLength="9" x="241.5" y="25.5352">1</text><line style="stroke:#000000;stroke-width:1.0;" x1="236.5" x2="236.5" y1="10" y2="30.4883"/><line style="stroke:#000000;stroke-width:1.0;" x1="72.5" x2="569.5" y1="30.4883" y2="30.4883"/><text fill="#000000" font-family="sans-serif" font-size="14" font-weight="bold" lengthAdjust="spacing" textLength="59" x="77.5" y="46.0234">rowguid</text><text fill="#000000" font-family="sans-serif" font-size="14" lengthAdjust="spacing" textLength="323" x="241.5" y="46.0234">0C7D8F81-D7B1-4CF0-9C0A-4CD8B6B50087</text><line style="stroke:#000000;stroke-width:1.0;" x1="236.5" x2="236.5" y1="30.4883" y2="50.9766"/><line style="stroke:#000000;stroke-width:1.0;" x1="72.5" x2="569.5" y1="50.9766" y2="50.9766"/><text fill="#000000" font-family="sans-serif" font-size="14" font-weight="bold" lengthAdjust="spacing" textLength="97" x="77.5" y="66.5117">ModifiedDate</text><text fill="#000000" font-family="sans-serif" font-size="14" lengthAdjust="spacing" textLength="212" x="241.5" y="66.5117">2017-12-13 13:20:24.150000</text><line style="stroke:#000000;stroke-width:1.0;" x1="236.5" x2="236.5" y1="50.9766" y2="71.4648"/><line style="stroke:#000000;stroke-width:1.0;" x1="72.5" x2="569.5" y1="71.4648" y2="71.4648"/><text fill="#000000" font-family="sans-serif" font-size="14" font-weight="bold" lengthAdjust="spacing" textLength="154" x="77.5" y="87">SYS_EXEC_DURATION</text><text fill="#000000" font-family="sans-serif" font-size="14" lengthAdjust="spacing" textLength="67" x="241.5" y="87">0.183724</text><line style="stroke:#000000;stroke-width:1.0;" x1="236.5" x2="236.5" y1="71.4648" y2="91.9531"/><rect fill="none" height="81.9531" rx="5" ry="5" style="stroke:#000000;stroke-width:1.5;" width="497" x="72.5" y="10"/><rect fill="#F1F1F1" height="81.9531" rx="5" ry="5" style="stroke:#F1F1F1;stroke-width:1.5;" width="493" x="74.5" y="110"/><text fill="#000000" font-family="sans-serif" font-size="14" font-weight="bold" lengthAdjust="spacing" textLength="122" x="79.5" y="125.5352">BusinessEntityID</text><text fill="#000000" font-family="sans-serif" font-size="14" lengthAdjust="spacing" textLength="9" x="243.5" y="125.5352">2</text><line style="stroke:#000000;stroke-width:1.0;" x1="238.5" x2="238.5" y1="110" y2="130.4883"/><line style="stroke:#000000;stroke-width:1.0;" x1="74.5" x2="567.5" y1="130.4883" y2="130.4883"/><text fill="#000000" font-family="sans-serif" font-size="14" font-weight="bold" lengthAdjust="spacing" textLength="59" x="79.5" y="146.0234">rowguid</text><text fill="#000000" font-family="sans-serif" font-size="14" lengthAdjust="spacing" textLength="319" x="243.5" y="146.0234">6648747F-7843-4002-B317-65389684C398</text><line style="stroke:#000000;stroke-width:1.0;" x1="238.5" x2="238.5" y1="130.4883" y2="150.9766"/><line style="stroke:#000000;stroke-width:1.0;" x1="74.5" x2="567.5" y1="150.9766" y2="150.9766"/><text fill="#000000" font-family="sans-serif" font-size="14" font-weight="bold" lengthAdjust="spacing" textLength="97" x="79.5" y="166.5117">ModifiedDate</text><text fill="#000000" font-family="sans-serif" font-size="14" lengthAdjust="spacing" textLength="212" x="243.5" y="166.5117">2017-12-13 13:20:24.430000</text><line style="stroke:#000000;stroke-width:1.0;" x1="238.5" x2="238.5" y1="150.9766" y2="171.4648"/><line style="stroke:#000000;stroke-width:1.0;" x1="74.5" x2="567.5" y1="171.4648" y2="171.4648"/><text fill="#000000" font-family="sans-serif" font-size="14" font-weight="bold" lengthAdjust="spacing" textLength="154" x="79.5" y="187">SYS_EXEC_DURATION</text><text fill="#000000" font-family="sans-serif" font-size="14" lengthAdjust="spacing" textLength="67" x="243.5" y="187">0.183885</text><line style="stroke:#000000;stroke-width:1.0;" x1="238.5" x2="238.5" y1="171.4648" y2="191.9531"/><rect fill="none" height="81.9531" rx="5" ry="5" style="stroke:#000000;stroke-width:1.5;" width="493" x="74.5" y="110"/><rect fill="#F1F1F1" height="81.9531" rx="5" ry="5" style="stroke:#F1F1F1;stroke-width:1.5;" width="500" x="71" y="210"/><text fill="#000000" font-family="sans-serif" font-size="14" font-weight="bold" lengthAdjust="spacing" textLength="122" x="76" y="225.5352">BusinessEntityID</text><text fill="#000000" font-family="sans-serif" font-size="14" lengthAdjust="spacing" textLength="9" x="240" y="225.5352">3</text><line style="stroke:#000000;stroke-width:1.0;" x1="235" x2="235" y1="210" y2="230.4883"/><line style="stroke:#000000;stroke-width:1.0;" x1="71" x2="571" y1="230.4883" y2="230.4883"/><text fill="#000000" font-family="sans-serif" font-size="14" font-weight="bold" lengthAdjust="spacing" textLength="59" x="76" y="246.0234">rowguid</text><text fill="#000000" font-family="sans-serif" font-size="14" lengthAdjust="spacing" textLength="326" x="240" y="246.0234">568204DA-93D7-42F4-8A7A-4446A144277D</text><line style="stroke:#000000;stroke-width:1.0;" x1="235" x2="235" y1="230.4883" y2="250.9766"/><line style="stroke:#000000;stroke-width:1.0;" x1="71" x2="571" y1="250.9766" y2="250.9766"/><text fill="#000000" font-family="sans-serif" font-size="14" font-weight="bold" lengthAdjust="spacing" textLength="97" x="76" y="266.5117">ModifiedDate</text><text fill="#000000" font-family="sans-serif" font-size="14" lengthAdjust="spacing" textLength="212" x="240" y="266.5117">2017-12-13 13:20:24.540000</text><line style="stroke:#000000;stroke-width:1.0;" x1="235" x2="235" y1="250.9766" y2="271.4648"/><line style="stroke:#000000;stroke-width:1.0;" x1="71" x2="571" y1="271.4648" y2="271.4648"/><text fill="#000000" font-family="sans-serif" font-size="14" font-weight="bold" lengthAdjust="spacing" textLength="154" x="76" y="287">SYS_EXEC_DURATION</text><text fill="#000000" font-family="sans-serif" font-size="14" lengthAdjust="spacing" textLength="67" x="240" y="287">0.183948</text><line style="stroke:#000000;stroke-width:1.0;" x1="235" x2="235" y1="271.4648" y2="291.9531"/><rect fill="none" height="81.9531" rx="5" ry="5" style="stroke:#000000;stroke-width:1.5;" width="500" x="71" y="210"/><rect fill="#F1F1F1" height="81.9531" rx="5" ry="5" style="stroke:#F1F1F1;stroke-width:1.5;" width="491" x="75.5" y="310"/><text fill="#000000" font-family="sans-serif" font-size="14" font-weight="bold" lengthAdjust="spacing" textLength="122" x="80.5" y="325.5352">BusinessEntityID</text><text fill="#000000" font-family="sans-serif" font-size="14" lengthAdjust="spacing" textLength="9" x="244.5" y="325.5352">4</text><line style="stroke:#000000;stroke-width:1.0;" x1="239.5" x2="239.5" y1="310" y2="330.4883"/><line style="stroke:#000000;stroke-width:1.0;" x1="75.5" x2="566.5" y1="330.4883" y2="330.4883"/><text fill="#000000" font-family="sans-serif" font-size="14" font-weight="bold" lengthAdjust="spacing" textLength="59" x="80.5" y="346.0234">rowguid</text><text fill="#000000" font-family="sans-serif" font-size="14" lengthAdjust="spacing" textLength="317" x="244.5" y="346.0234">0EFF57B9-4F4F-41A6-8867-658C199A5FC0</text><line style="stroke:#000000;stroke-width:1.0;" x1="239.5" x2="239.5" y1="330.4883" y2="350.9766"/><line style="stroke:#000000;stroke-width:1.0;" x1="75.5" x2="566.5" y1="350.9766" y2="350.9766"/><text fill="#000000" font-family="sans-serif" font-size="14" font-weight="bold" lengthAdjust="spacing" textLength="97" x="80.5" y="366.5117">ModifiedDate</text><text fill="#000000" font-family="sans-serif" font-size="14" lengthAdjust="spacing" textLength="212" x="244.5" y="366.5117">2017-12-13 13:20:24.570000</text><line style="stroke:#000000;stroke-width:1.0;" x1="239.5" x2="239.5" y1="350.9766" y2="371.4648"/><line style="stroke:#000000;stroke-width:1.0;" x1="75.5" x2="566.5" y1="371.4648" y2="371.4648"/><text fill="#000000" font-family="sans-serif" font-size="14" font-weight="bold" lengthAdjust="spacing" textLength="154" x="80.5" y="387">SYS_EXEC_DURATION</text><text fill="#000000" font-family="sans-serif" font-size="14" lengthAdjust="spacing" textLength="67" x="244.5" y="387">0.184004</text><line style="stroke:#000000;stroke-width:1.0;" x1="239.5" x2="239.5" y1="371.4648" y2="391.9531"/><rect fill="none" height="81.9531" rx="5" ry="5" style="stroke:#000000;stroke-width:1.5;" width="491" x="75.5" y="310"/><rect fill="#F1F1F1" height="81.9531" rx="5" ry="5" style="stroke:#F1F1F1;stroke-width:1.5;" width="493" x="74.5" y="410"/><text fill="#000000" font-family="sans-serif" font-size="14" font-weight="bold" lengthAdjust="spacing" textLength="122" x="79.5" y="425.5352">BusinessEntityID</text><text fill="#000000" font-family="sans-serif" font-size="14" lengthAdjust="spacing" textLength="9" x="243.5" y="425.5352">5</text><line style="stroke:#000000;stroke-width:1.0;" x1="238.5" x2="238.5" y1="410" y2="430.4883"/><line style="stroke:#000000;stroke-width:1.0;" x1="74.5" x2="567.5" y1="430.4883" y2="430.4883"/><text fill="#000000" font-family="sans-serif" font-size="14" font-weight="bold" lengthAdjust="spacing" textLength="59" x="79.5" y="446.0234">rowguid</text><text fill="#000000" font-family="sans-serif" font-size="14" lengthAdjust="spacing" textLength="319" x="243.5" y="446.0234">B82F88D1-FF79-4FD9-8C54-9D24C140F647</text><line style="stroke:#000000;stroke-width:1.0;" x1="238.5" x2="238.5" y1="430.4883" y2="450.9766"/><line style="stroke:#000000;stroke-width:1.0;" x1="74.5" x2="567.5" y1="450.9766" y2="450.9766"/><text fill="#000000" font-family="sans-serif" font-size="14" font-weight="bold" lengthAdjust="spacing" textLength="97" x="79.5" y="466.5117">ModifiedDate</text><text fill="#000000" font-family="sans-serif" font-size="14" lengthAdjust="spacing" textLength="212" x="243.5" y="466.5117">2017-12-13 13:20:24.633000</text><line style="stroke:#000000;stroke-width:1.0;" x1="238.5" x2="238.5" y1="450.9766" y2="471.4648"/><line style="stroke:#000000;stroke-width:1.0;" x1="74.5" x2="567.5" y1="471.4648" y2="471.4648"/><text fill="#000000" font-family="sans-serif" font-size="14" font-weight="bold" lengthAdjust="spacing" textLength="154" x="79.5" y="487">SYS_EXEC_DURATION</text><text fill="#000000" font-family="sans-serif" font-size="14" lengthAdjust="spacing" textLength="67" x="243.5" y="487">0.184069</text><line style="stroke:#000000;stroke-width:1.0;" x1="238.5" x2="238.5" y1="471.4648" y2="491.9531"/><rect fill="none" height="81.9531" rx="5" ry="5" style="stroke:#000000;stroke-width:1.5;" width="493" x="74.5" y="410"/><path d="M22,211 L35,211 C86.4405,211 32.5359,135.1561 71,101 C72.6646,99.5219 74.3603,98.0826 76.0852,96.6811 " fill="none" style="stroke:#000000;stroke-width:1.0;stroke-dasharray:3.0,3.0;"/><path d="M77.9334,99.0711 L77.8777,95.295 L74.2371,94.2911 L82.0602,92.0607 L77.9334,99.0711 " fill="#000000" style="stroke:#000000;stroke-width:1.0;"/><ellipse cx="22" cy="211" fill="#000000" rx="3" ry="3" style="stroke:#000000;stroke-width:1.0;"/><path d="M22,231 L35,231 C55.8273,231 52.2123,209.989 71,201 C75.3805,198.9042 79.8448,196.8961 84.3776,194.9722 " fill="none" style="stroke:#000000;stroke-width:1.0;stroke-dasharray:3.0,3.0;"/><path d="M85.5595,197.8431 L86.5308,194.0858 L83.1958,192.1013 L91.5549,192.0176 L85.5595,197.8431 " fill="#000000" style="stroke:#000000;stroke-width:1.0;"/><ellipse cx="22" cy="231" fill="#000000" rx="3" ry="3" style="stroke:#000000;stroke-width:1.0;"/><path d="M22,251 L35,251 C44.3866,251 53.9467,251 63.6034,251 " fill="none" style="stroke:#000000;stroke-width:1.0;stroke-dasharray:3.0,3.0;"/><path d="M63.6034,254.1055 L65.9325,251 L63.6034,247.8945 L71.3671,251 L63.6034,254.1055 " fill="#000000" style="stroke:#000000;stroke-width:1.0;"/><ellipse cx="22" cy="251" fill="#000000" rx="3" ry="3" style="stroke:#000000;stroke-width:1.0;"/><path d="M22,272 L35,272 C55.5456,272 52.3934,292.2869 71,301 C75.5697,303.1399 80.2282,305.1883 84.9586,307.1493 " fill="none" style="stroke:#000000;stroke-width:1.0;stroke-dasharray:3.0,3.0;"/><path d="M83.8343,309.9413 L87.0526,307.9925 L86.083,304.3572 L91.9387,309.9601 L83.8343,309.9413 " fill="#000000" style="stroke:#000000;stroke-width:1.0;"/><ellipse cx="22" cy="272" fill="#000000" rx="3" ry="3" style="stroke:#000000;stroke-width:1.0;"/><path d="M22,293 L35,293 C85.5964,293 33.0754,367.5078 71,401 C72.6686,402.4736 74.3682,403.9085 76.0968,405.3057 " fill="none" style="stroke:#000000;stroke-width:1.0;stroke-dasharray:3.0,3.0;"/><path d="M74.2541,407.7005 L77.8929,406.6878 L77.9396,402.911 L82.0838,409.9125 L74.2541,407.7005 " fill="#000000" style="stroke:#000000;stroke-width:1.0;"/><ellipse cx="22" cy="293" fill="#000000" rx="3" ry="3" style="stroke:#000000;stroke-width:1.0;"/><!--MD5=[6bdea024beddbdaaa27a39ecbfbbda26]
@startjson
[
    {
        "BusinessEntityID": 1,
        "rowguid": "0C7D8F81-D7B1-4CF0-9C0A-4CD8B6B50087",
        "ModifiedDate": "2017-12-13 13:20:24.150000",
        "SYS_EXEC_DURATION": "0.183724"
    },
    {
        "BusinessEntityID": 2,
        "rowguid": "6648747F-7843-4002-B317-65389684C398",
        "ModifiedDate": "2017-12-13 13:20:24.430000",
        "SYS_EXEC_DURATION": "0.183885"
    },
    {
        "BusinessEntityID": 3,
        "rowguid": "568204DA-93D7-42F4-8A7A-4446A144277D",
        "ModifiedDate": "2017-12-13 13:20:24.540000",
        "SYS_EXEC_DURATION": "0.183948"
    },
    {
        "BusinessEntityID": 4,
        "rowguid": "0EFF57B9-4F4F-41A6-8867-658C199A5FC0",
        "ModifiedDate": "2017-12-13 13:20:24.570000",
        "SYS_EXEC_DURATION": "0.184004"
    },
    {
        "BusinessEntityID": 5,
        "rowguid": "B82F88D1-FF79-4FD9-8C54-9D24C140F647",
        "ModifiedDate": "2017-12-13 13:20:24.633000",
        "SYS_EXEC_DURATION": "0.184069"
    }
]
@endjson

PlantUML version 1.2022.5(Sat Apr 30 06:55:52 EDT 2022)
(GPL source distribution)
Java Runtime: OpenJDK Runtime Environment
JVM: OpenJDK 64-Bit Server VM
Default Encoding: UTF-8
Language: en
Country: CA
--></g></svg>