<?xml version="1.0" encoding="UTF-8" standalone="no"?><svg xmlns="http://www.w3.org/2000/svg" xmlns:xlink="http://www.w3.org/1999/xlink" contentStyleType="text/css" height="1118px" preserveAspectRatio="none" style="width:414px;height:1118px;background:#FFFFFF;" version="1.1" viewBox="0 0 414 1118" width="414px" zoomAndPan="magnify"><defs/><g><rect fill="#F1F1F1" height="102.4414" rx="5" ry="5" style="stroke:#F1F1F1;stroke-width:1.5;" width="22" x="10" y="508.5"/><text fill="#000000" font-family="sans-serif" font-size="14" lengthAdjust="spacing" textLength="12" x="15" y="524.0352">   </text><line style="stroke:#000000;stroke-width:1.0;" x1="10" x2="32" y1="528.9883" y2="528.9883"/><text fill="#000000" font-family="sans-serif" font-size="14" lengthAdjust="spacing" textLength="12" x="15" y="544.5234">   </text><line style="stroke:#000000;stroke-width:1.0;" x1="10" x2="32" y1="549.4766" y2="549.4766"/><text fill="#000000" font-family="sans-serif" font-size="14" lengthAdjust="spacing" textLength="12" x="15" y="565.0117">   </text><line style="stroke:#000000;stroke-width:1.0;" x1="10" x2="32" y1="569.9648" y2="569.9648"/><text fill="#000000" font-family="sans-serif" font-size="14" lengthAdjust="spacing" textLength="12" x="15" y="585.5">   </text><line style="stroke:#000000;stroke-width:1.0;" x1="10" x2="32" y1="590.4531" y2="590.4531"/><text fill="#000000" font-family="sans-serif" font-size="14" lengthAdjust="spacing" textLength="12" x="15" y="605.9883">   </text><rect fill="none" height="102.4414" rx="5" ry="5" style="stroke:#000000;stroke-width:1.5;" width="22" x="10" y="508.5"/><rect fill="#F1F1F1" height="204.8828" rx="5" ry="5" style="stroke:#F1F1F1;stroke-width:1.5;" width="331" x="71" y="10"/><text fill="#000000" font-family="sans-serif" font-size="14" font-weight="bold" lengthAdjust="spacing" textLength="101" x="76" y="25.5352">TransactionID</text><text fill="#000000" font-family="sans-serif" font-size="14" lengthAdjust="spacing" textLength="54" x="243" y="25.5352">100000</text><line style="stroke:#000000;stroke-width:1.0;" x1="238" x2="238" y1="10" y2="30.4883"/><line style="stroke:#000000;stroke-width:1.0;" x1="71" x2="402" y1="30.4883" y2="30.4883"/><text fill="#000000" font-family="sans-serif" font-size="14" font-weight="bold" lengthAdjust="spacing" textLength="127" x="76" y="46.0234">ReferenceOrderID</text><text fill="#000000" font-family="sans-serif" font-size="14" lengthAdjust="spacing" textLength="45" x="243" y="46.0234">41590</text><line style="stroke:#000000;stroke-width:1.0;" x1="238" x2="238" y1="30.4883" y2="50.9766"/><line style="stroke:#000000;stroke-width:1.0;" x1="71" x2="402" y1="50.9766" y2="50.9766"/><text fill="#000000" font-family="sans-serif" font-size="14" font-weight="bold" lengthAdjust="spacing" textLength="157" x="76" y="66.5117">ReferenceOrderLineID</text><text fill="#000000" font-family="sans-serif" font-size="14" lengthAdjust="spacing" textLength="9" x="243" y="66.5117">0</text><line style="stroke:#000000;stroke-width:1.0;" x1="238" x2="238" y1="50.9766" y2="71.4648"/><line style="stroke:#000000;stroke-width:1.0;" x1="71" x2="402" y1="71.4648" y2="71.4648"/><text fill="#000000" font-family="sans-serif" font-size="14" font-weight="bold" lengthAdjust="spacing" textLength="118" x="76" y="87">TransactionDate</text><text fill="#000000" font-family="sans-serif" font-size="14" lengthAdjust="spacing" textLength="154" x="243" y="87">2013-07-31 00:00:00</text><line style="stroke:#000000;stroke-width:1.0;" x1="238" x2="238" y1="71.4648" y2="91.9531"/><line style="stroke:#000000;stroke-width:1.0;" x1="71" x2="402" y1="91.9531" y2="91.9531"/><text fill="#000000" font-family="sans-serif" font-size="14" font-weight="bold" lengthAdjust="spacing" textLength="120" x="76" y="107.4883">TransactionType</text><text fill="#000000" font-family="sans-serif" font-size="14" lengthAdjust="spacing" textLength="12" x="243" y="107.4883">W</text><line style="stroke:#000000;stroke-width:1.0;" x1="238" x2="238" y1="91.9531" y2="112.4414"/><line style="stroke:#000000;stroke-width:1.0;" x1="71" x2="402" y1="112.4414" y2="112.4414"/><text fill="#000000" font-family="sans-serif" font-size="14" font-weight="bold" lengthAdjust="spacing" textLength="63" x="76" y="127.9766">Quantity</text><text fill="#000000" font-family="sans-serif" font-size="14" lengthAdjust="spacing" textLength="9" x="243" y="127.9766">2</text><line style="stroke:#000000;stroke-width:1.0;" x1="238" x2="238" y1="112.4414" y2="132.9297"/><line style="stroke:#000000;stroke-width:1.0;" x1="71" x2="402" y1="132.9297" y2="132.9297"/><text fill="#000000" font-family="sans-serif" font-size="14" font-weight="bold" lengthAdjust="spacing" textLength="78" x="76" y="148.4648">ActualCost</text><text fill="#000000" font-family="sans-serif" font-size="14" lengthAdjust="spacing" textLength="49" x="243" y="148.4648">0.0000</text><line style="stroke:#000000;stroke-width:1.0;" x1="238" x2="238" y1="132.9297" y2="153.418"/><line style="stroke:#000000;stroke-width:1.0;" x1="71" x2="402" y1="153.418" y2="153.418"/><text fill="#000000" font-family="sans-serif" font-size="14" font-weight="bold" lengthAdjust="spacing" textLength="97" x="76" y="168.9531">ModifiedDate</text><text fill="#000000" font-family="sans-serif" font-size="14" lengthAdjust="spacing" textLength="154" x="243" y="168.9531">2013-07-31 00:00:00</text><line style="stroke:#000000;stroke-width:1.0;" x1="238" x2="238" y1="153.418" y2="173.9063"/><line style="stroke:#000000;stroke-width:1.0;" x1="71" x2="402" y1="173.9063" y2="173.9063"/><text fill="#000000" font-family="sans-serif" font-size="14" font-weight="bold" lengthAdjust="spacing" textLength="71" x="76" y="189.4414">ProductID</text><text fill="#000000" font-family="sans-serif" font-size="14" lengthAdjust="spacing" textLength="27" x="243" y="189.4414">784</text><line style="stroke:#000000;stroke-width:1.0;" x1="238" x2="238" y1="173.9063" y2="194.3945"/><line style="stroke:#000000;stroke-width:1.0;" x1="71" x2="402" y1="194.3945" y2="194.3945"/><text fill="#000000" font-family="sans-serif" font-size="14" font-weight="bold" lengthAdjust="spacing" textLength="154" x="76" y="209.9297">SYS_EXEC_DURATION</text><text fill="#000000" font-family="sans-serif" font-size="14" lengthAdjust="spacing" textLength="67" x="243" y="209.9297">0.184339</text><line style="stroke:#000000;stroke-width:1.0;" x1="238" x2="238" y1="194.3945" y2="214.8828"/><rect fill="none" height="204.8828" rx="5" ry="5" style="stroke:#000000;stroke-width:1.5;" width="331" x="71" y="10"/><rect fill="#F1F1F1" height="204.8828" rx="5" ry="5" style="stroke:#F1F1F1;stroke-width:1.5;" width="331" x="71" y="233"/><text fill="#000000" font-family="sans-serif" font-size="14" font-weight="bold" lengthAdjust="spacing" textLength="101" x="76" y="248.5352">TransactionID</text><text fill="#000000" font-family="sans-serif" font-size="14" lengthAdjust="spacing" textLength="54" x="243" y="248.5352">100001</text><line style="stroke:#000000;stroke-width:1.0;" x1="238" x2="238" y1="233" y2="253.4883"/><line style="stroke:#000000;stroke-width:1.0;" x1="71" x2="402" y1="253.4883" y2="253.4883"/><text fill="#000000" font-family="sans-serif" font-size="14" font-weight="bold" lengthAdjust="spacing" textLength="127" x="76" y="269.0234">ReferenceOrderID</text><text fill="#000000" font-family="sans-serif" font-size="14" lengthAdjust="spacing" textLength="45" x="243" y="269.0234">41591</text><line style="stroke:#000000;stroke-width:1.0;" x1="238" x2="238" y1="253.4883" y2="273.9766"/><line style="stroke:#000000;stroke-width:1.0;" x1="71" x2="402" y1="273.9766" y2="273.9766"/><text fill="#000000" font-family="sans-serif" font-size="14" font-weight="bold" lengthAdjust="spacing" textLength="157" x="76" y="289.5117">ReferenceOrderLineID</text><text fill="#000000" font-family="sans-serif" font-size="14" lengthAdjust="spacing" textLength="9" x="243" y="289.5117">0</text><line style="stroke:#000000;stroke-width:1.0;" x1="238" x2="238" y1="273.9766" y2="294.4648"/><line style="stroke:#000000;stroke-width:1.0;" x1="71" x2="402" y1="294.4648" y2="294.4648"/><text fill="#000000" font-family="sans-serif" font-size="14" font-weight="bold" lengthAdjust="spacing" textLength="118" x="76" y="310">TransactionDate</text><text fill="#000000" font-family="sans-serif" font-size="14" lengthAdjust="spacing" textLength="154" x="243" y="310">2013-07-31 00:00:00</text><line style="stroke:#000000;stroke-width:1.0;" x1="238" x2="238" y1="294.4648" y2="314.9531"/><line style="stroke:#000000;stroke-width:1.0;" x1="71" x2="402" y1="314.9531" y2="314.9531"/><text fill="#000000" font-family="sans-serif" font-size="14" font-weight="bold" lengthAdjust="spacing" textLength="120" x="76" y="330.4883">TransactionType</text><text fill="#000000" font-family="sans-serif" font-size="14" lengthAdjust="spacing" textLength="12" x="243" y="330.4883">W</text><line style="stroke:#000000;stroke-width:1.0;" x1="238" x2="238" y1="314.9531" y2="335.4414"/><line style="stroke:#000000;stroke-width:1.0;" x1="71" x2="402" y1="335.4414" y2="335.4414"/><text fill="#000000" font-family="sans-serif" font-size="14" font-weight="bold" lengthAdjust="spacing" textLength="63" x="76" y="350.9766">Quantity</text><text fill="#000000" font-family="sans-serif" font-size="14" lengthAdjust="spacing" textLength="9" x="243" y="350.9766">1</text><line style="stroke:#000000;stroke-width:1.0;" x1="238" x2="238" y1="335.4414" y2="355.9297"/><line style="stroke:#000000;stroke-width:1.0;" x1="71" x2="402" y1="355.9297" y2="355.9297"/><text fill="#000000" font-family="sans-serif" font-size="14" font-weight="bold" lengthAdjust="spacing" textLength="78" x="76" y="371.4648">ActualCost</text><text fill="#000000" font-family="sans-serif" font-size="14" lengthAdjust="spacing" textLength="49" x="243" y="371.4648">0.0000</text><line style="stroke:#000000;stroke-width:1.0;" x1="238" x2="238" y1="355.9297" y2="376.418"/><line style="stroke:#000000;stroke-width:1.0;" x1="71" x2="402" y1="376.418" y2="376.418"/><text fill="#000000" font-family="sans-serif" font-size="14" font-weight="bold" lengthAdjust="spacing" textLength="97" x="76" y="391.9531">ModifiedDate</text><text fill="#000000" font-family="sans-serif" font-size="14" lengthAdjust="spacing" textLength="154" x="243" y="391.9531">2013-07-31 00:00:00</text><line style="stroke:#000000;stroke-width:1.0;" x1="238" x2="238" y1="376.418" y2="396.9063"/><line style="stroke:#000000;stroke-width:1.0;" x1="71" x2="402" y1="396.9063" y2="396.9063"/><text fill="#000000" font-family="sans-serif" font-size="14" font-weight="bold" lengthAdjust="spacing" textLength="71" x="76" y="412.4414">ProductID</text><text fill="#000000" font-family="sans-serif" font-size="14" lengthAdjust="spacing" textLength="27" x="243" y="412.4414">794</text><line style="stroke:#000000;stroke-width:1.0;" x1="238" x2="238" y1="396.9063" y2="417.3945"/><line style="stroke:#000000;stroke-width:1.0;" x1="71" x2="402" y1="417.3945" y2="417.3945"/><text fill="#000000" font-family="sans-serif" font-size="14" font-weight="bold" lengthAdjust="spacing" textLength="154" x="76" y="432.9297">SYS_EXEC_DURATION</text><text fill="#000000" font-family="sans-serif" font-size="14" lengthAdjust="spacing" textLength="67" x="243" y="432.9297">0.184545</text><line style="stroke:#000000;stroke-width:1.0;" x1="238" x2="238" y1="417.3945" y2="437.8828"/><rect fill="none" height="204.8828" rx="5" ry="5" style="stroke:#000000;stroke-width:1.5;" width="331" x="71" y="233"/><rect fill="#F1F1F1" height="204.8828" rx="5" ry="5" style="stroke:#F1F1F1;stroke-width:1.5;" width="331" x="71" y="456"/><text fill="#000000" font-family="sans-serif" font-size="14" font-weight="bold" lengthAdjust="spacing" textLength="101" x="76" y="471.5352">TransactionID</text><text fill="#000000" font-family="sans-serif" font-size="14" lengthAdjust="spacing" textLength="54" x="243" y="471.5352">100002</text><line style="stroke:#000000;stroke-width:1.0;" x1="238" x2="238" y1="456" y2="476.4883"/><line style="stroke:#000000;stroke-width:1.0;" x1="71" x2="402" y1="476.4883" y2="476.4883"/><text fill="#000000" font-family="sans-serif" font-size="14" font-weight="bold" lengthAdjust="spacing" textLength="127" x="76" y="492.0234">ReferenceOrderID</text><text fill="#000000" font-family="sans-serif" font-size="14" lengthAdjust="spacing" textLength="45" x="243" y="492.0234">41592</text><line style="stroke:#000000;stroke-width:1.0;" x1="238" x2="238" y1="476.4883" y2="496.9766"/><line style="stroke:#000000;stroke-width:1.0;" x1="71" x2="402" y1="496.9766" y2="496.9766"/><text fill="#000000" font-family="sans-serif" font-size="14" font-weight="bold" lengthAdjust="spacing" textLength="157" x="76" y="512.5117">ReferenceOrderLineID</text><text fill="#000000" font-family="sans-serif" font-size="14" lengthAdjust="spacing" textLength="9" x="243" y="512.5117">0</text><line style="stroke:#000000;stroke-width:1.0;" x1="238" x2="238" y1="496.9766" y2="517.4648"/><line style="stroke:#000000;stroke-width:1.0;" x1="71" x2="402" y1="517.4648" y2="517.4648"/><text fill="#000000" font-family="sans-serif" font-size="14" font-weight="bold" lengthAdjust="spacing" textLength="118" x="76" y="533">TransactionDate</text><text fill="#000000" font-family="sans-serif" font-size="14" lengthAdjust="spacing" textLength="154" x="243" y="533">2013-07-31 00:00:00</text><line style="stroke:#000000;stroke-width:1.0;" x1="238" x2="238" y1="517.4648" y2="537.9531"/><line style="stroke:#000000;stroke-width:1.0;" x1="71" x2="402" y1="537.9531" y2="537.9531"/><text fill="#000000" font-family="sans-serif" font-size="14" font-weight="bold" lengthAdjust="spacing" textLength="120" x="76" y="553.4883">TransactionType</text><text fill="#000000" font-family="sans-serif" font-size="14" lengthAdjust="spacing" textLength="12" x="243" y="553.4883">W</text><line style="stroke:#000000;stroke-width:1.0;" x1="238" x2="238" y1="537.9531" y2="558.4414"/><line style="stroke:#000000;stroke-width:1.0;" x1="71" x2="402" y1="558.4414" y2="558.4414"/><text fill="#000000" font-family="sans-serif" font-size="14" font-weight="bold" lengthAdjust="spacing" textLength="63" x="76" y="573.9766">Quantity</text><text fill="#000000" font-family="sans-serif" font-size="14" lengthAdjust="spacing" textLength="9" x="243" y="573.9766">1</text><line style="stroke:#000000;stroke-width:1.0;" x1="238" x2="238" y1="558.4414" y2="578.9297"/><line style="stroke:#000000;stroke-width:1.0;" x1="71" x2="402" y1="578.9297" y2="578.9297"/><text fill="#000000" font-family="sans-serif" font-size="14" font-weight="bold" lengthAdjust="spacing" textLength="78" x="76" y="594.4648">ActualCost</text><text fill="#000000" font-family="sans-serif" font-size="14" lengthAdjust="spacing" textLength="49" x="243" y="594.4648">0.0000</text><line style="stroke:#000000;stroke-width:1.0;" x1="238" x2="238" y1="578.9297" y2="599.418"/><line style="stroke:#000000;stroke-width:1.0;" x1="71" x2="402" y1="599.418" y2="599.418"/><text fill="#000000" font-family="sans-serif" font-size="14" font-weight="bold" lengthAdjust="spacing" textLength="97" x="76" y="614.9531">ModifiedDate</text><text fill="#000000" font-family="sans-serif" font-size="14" lengthAdjust="spacing" textLength="154" x="243" y="614.9531">2013-07-31 00:00:00</text><line style="stroke:#000000;stroke-width:1.0;" x1="238" x2="238" y1="599.418" y2="619.9063"/><line style="stroke:#000000;stroke-width:1.0;" x1="71" x2="402" y1="619.9063" y2="619.9063"/><text fill="#000000" font-family="sans-serif" font-size="14" font-weight="bold" lengthAdjust="spacing" textLength="71" x="76" y="635.4414">ProductID</text><text fill="#000000" font-family="sans-serif" font-size="14" lengthAdjust="spacing" textLength="27" x="243" y="635.4414">797</text><line style="stroke:#000000;stroke-width:1.0;" x1="238" x2="238" y1="619.9063" y2="640.3945"/><line style="stroke:#000000;stroke-width:1.0;" x1="71" x2="402" y1="640.3945" y2="640.3945"/><text fill="#000000" font-family="sans-serif" font-size="14" font-weight="bold" lengthAdjust="spacing" textLength="154" x="76" y="655.9297">SYS_EXEC_DURATION</text><text fill="#000000" font-family="sans-serif" font-size="14" lengthAdjust="spacing" textLength="67" x="243" y="655.9297">0.184622</text><line style="stroke:#000000;stroke-width:1.0;" x1="238" x2="238" y1="640.3945" y2="660.8828"/><rect fill="none" height="204.8828" rx="5" ry="5" style="stroke:#000000;stroke-width:1.5;" width="331" x="71" y="456"/><rect fill="#F1F1F1" height="204.8828" rx="5" ry="5" style="stroke:#F1F1F1;stroke-width:1.5;" width="331" x="71" y="679"/><text fill="#000000" font-family="sans-serif" font-size="14" font-weight="bold" lengthAdjust="spacing" textLength="101" x="76" y="694.5352">TransactionID</text><text fill="#000000" font-family="sans-serif" font-size="14" lengthAdjust="spacing" textLength="54" x="243" y="694.5352">100003</text><line style="stroke:#000000;stroke-width:1.0;" x1="238" x2="238" y1="679" y2="699.4883"/><line style="stroke:#000000;stroke-width:1.0;" x1="71" x2="402" y1="699.4883" y2="699.4883"/><text fill="#000000" font-family="sans-serif" font-size="14" font-weight="bold" lengthAdjust="spacing" textLength="127" x="76" y="715.0234">ReferenceOrderID</text><text fill="#000000" font-family="sans-serif" font-size="14" lengthAdjust="spacing" textLength="45" x="243" y="715.0234">41593</text><line style="stroke:#000000;stroke-width:1.0;" x1="238" x2="238" y1="699.4883" y2="719.9766"/><line style="stroke:#000000;stroke-width:1.0;" x1="71" x2="402" y1="719.9766" y2="719.9766"/><text fill="#000000" font-family="sans-serif" font-size="14" font-weight="bold" lengthAdjust="spacing" textLength="157" x="76" y="735.5117">ReferenceOrderLineID</text><text fill="#000000" font-family="sans-serif" font-size="14" lengthAdjust="spacing" textLength="9" x="243" y="735.5117">0</text><line style="stroke:#000000;stroke-width:1.0;" x1="238" x2="238" y1="719.9766" y2="740.4648"/><line style="stroke:#000000;stroke-width:1.0;" x1="71" x2="402" y1="740.4648" y2="740.4648"/><text fill="#000000" font-family="sans-serif" font-size="14" font-weight="bold" lengthAdjust="spacing" textLength="118" x="76" y="756">TransactionDate</text><text fill="#000000" font-family="sans-serif" font-size="14" lengthAdjust="spacing" textLength="154" x="243" y="756">2013-07-31 00:00:00</text><line style="stroke:#000000;stroke-width:1.0;" x1="238" x2="238" y1="740.4648" y2="760.9531"/><line style="stroke:#000000;stroke-width:1.0;" x1="71" x2="402" y1="760.9531" y2="760.9531"/><text fill="#000000" font-family="sans-serif" font-size="14" font-weight="bold" lengthAdjust="spacing" textLength="120" x="76" y="776.4883">TransactionType</text><text fill="#000000" font-family="sans-serif" font-size="14" lengthAdjust="spacing" textLength="12" x="243" y="776.4883">W</text><line style="stroke:#000000;stroke-width:1.0;" x1="238" x2="238" y1="760.9531" y2="781.4414"/><line style="stroke:#000000;stroke-width:1.0;" x1="71" x2="402" y1="781.4414" y2="781.4414"/><text fill="#000000" font-family="sans-serif" font-size="14" font-weight="bold" lengthAdjust="spacing" textLength="63" x="76" y="796.9766">Quantity</text><text fill="#000000" font-family="sans-serif" font-size="14" lengthAdjust="spacing" textLength="9" x="243" y="796.9766">1</text><line style="stroke:#000000;stroke-width:1.0;" x1="238" x2="238" y1="781.4414" y2="801.9297"/><line style="stroke:#000000;stroke-width:1.0;" x1="71" x2="402" y1="801.9297" y2="801.9297"/><text fill="#000000" font-family="sans-serif" font-size="14" font-weight="bold" lengthAdjust="spacing" textLength="78" x="76" y="817.4648">ActualCost</text><text fill="#000000" font-family="sans-serif" font-size="14" lengthAdjust="spacing" textLength="49" x="243" y="817.4648">0.0000</text><line style="stroke:#000000;stroke-width:1.0;" x1="238" x2="238" y1="801.9297" y2="822.418"/><line style="stroke:#000000;stroke-width:1.0;" x1="71" x2="402" y1="822.418" y2="822.418"/><text fill="#000000" font-family="sans-serif" font-size="14" font-weight="bold" lengthAdjust="spacing" textLength="97" x="76" y="837.9531">ModifiedDate</text><text fill="#000000" font-family="sans-serif" font-size="14" lengthAdjust="spacing" textLength="154" x="243" y="837.9531">2013-07-31 00:00:00</text><line style="stroke:#000000;stroke-width:1.0;" x1="238" x2="238" y1="822.418" y2="842.9063"/><line style="stroke:#000000;stroke-width:1.0;" x1="71" x2="402" y1="842.9063" y2="842.9063"/><text fill="#000000" font-family="sans-serif" font-size="14" font-weight="bold" lengthAdjust="spacing" textLength="71" x="76" y="858.4414">ProductID</text><text fill="#000000" font-family="sans-serif" font-size="14" lengthAdjust="spacing" textLength="27" x="243" y="858.4414">798</text><line style="stroke:#000000;stroke-width:1.0;" x1="238" x2="238" y1="842.9063" y2="863.3945"/><line style="stroke:#000000;stroke-width:1.0;" x1="71" x2="402" y1="863.3945" y2="863.3945"/><text fill="#000000" font-family="sans-serif" font-size="14" font-weight="bold" lengthAdjust="spacing" textLength="154" x="76" y="878.9297">SYS_EXEC_DURATION</text><text fill="#000000" font-family="sans-serif" font-size="14" lengthAdjust="spacing" textLength="67" x="243" y="878.9297">0.184694</text><line style="stroke:#000000;stroke-width:1.0;" x1="238" x2="238" y1="863.3945" y2="883.8828"/><rect fill="none" height="204.8828" rx="5" ry="5" style="stroke:#000000;stroke-width:1.5;" width="331" x="71" y="679"/><rect fill="#F1F1F1" height="204.8828" rx="5" ry="5" style="stroke:#F1F1F1;stroke-width:1.5;" width="331" x="71" y="902"/><text fill="#000000" font-family="sans-serif" font-size="14" font-weight="bold" lengthAdjust="spacing" textLength="101" x="76" y="917.5352">TransactionID</text><text fill="#000000" font-family="sans-serif" font-size="14" lengthAdjust="spacing" textLength="54" x="243" y="917.5352">100004</text><line style="stroke:#000000;stroke-width:1.0;" x1="238" x2="238" y1="902" y2="922.4883"/><line style="stroke:#000000;stroke-width:1.0;" x1="71" x2="402" y1="922.4883" y2="922.4883"/><text fill="#000000" font-family="sans-serif" font-size="14" font-weight="bold" lengthAdjust="spacing" textLength="127" x="76" y="938.0234">ReferenceOrderID</text><text fill="#000000" font-family="sans-serif" font-size="14" lengthAdjust="spacing" textLength="45" x="243" y="938.0234">41594</text><line style="stroke:#000000;stroke-width:1.0;" x1="238" x2="238" y1="922.4883" y2="942.9766"/><line style="stroke:#000000;stroke-width:1.0;" x1="71" x2="402" y1="942.9766" y2="942.9766"/><text fill="#000000" font-family="sans-serif" font-size="14" font-weight="bold" lengthAdjust="spacing" textLength="157" x="76" y="958.5117">ReferenceOrderLineID</text><text fill="#000000" font-family="sans-serif" font-size="14" lengthAdjust="spacing" textLength="9" x="243" y="958.5117">0</text><line style="stroke:#000000;stroke-width:1.0;" x1="238" x2="238" y1="942.9766" y2="963.4648"/><line style="stroke:#000000;stroke-width:1.0;" x1="71" x2="402" y1="963.4648" y2="963.4648"/><text fill="#000000" font-family="sans-serif" font-size="14" font-weight="bold" lengthAdjust="spacing" textLength="118" x="76" y="979">TransactionDate</text><text fill="#000000" font-family="sans-serif" font-size="14" lengthAdjust="spacing" textLength="154" x="243" y="979">2013-07-31 00:00:00</text><line style="stroke:#000000;stroke-width:1.0;" x1="238" x2="238" y1="963.4648" y2="983.9531"/><line style="stroke:#000000;stroke-width:1.0;" x1="71" x2="402" y1="983.9531" y2="983.9531"/><text fill="#000000" font-family="sans-serif" font-size="14" font-weight="bold" lengthAdjust="spacing" textLength="120" x="76" y="999.4883">TransactionType</text><text fill="#000000" font-family="sans-serif" font-size="14" lengthAdjust="spacing" textLength="12" x="243" y="999.4883">W</text><line style="stroke:#000000;stroke-width:1.0;" x1="238" x2="238" y1="983.9531" y2="1004.4414"/><line style="stroke:#000000;stroke-width:1.0;" x1="71" x2="402" y1="1004.4414" y2="1004.4414"/><text fill="#000000" font-family="sans-serif" font-size="14" font-weight="bold" lengthAdjust="spacing" textLength="63" x="76" y="1019.9766">Quantity</text><text fill="#000000" font-family="sans-serif" font-size="14" lengthAdjust="spacing" textLength="9" x="243" y="1019.9766">1</text><line style="stroke:#000000;stroke-width:1.0;" x1="238" x2="238" y1="1004.4414" y2="1024.9297"/><line style="stroke:#000000;stroke-width:1.0;" x1="71" x2="402" y1="1024.9297" y2="1024.9297"/><text fill="#000000" font-family="sans-serif" font-size="14" font-weight="bold" lengthAdjust="spacing" textLength="78" x="76" y="1040.4648">ActualCost</text><text fill="#000000" font-family="sans-serif" font-size="14" lengthAdjust="spacing" textLength="49" x="243" y="1040.4648">0.0000</text><line style="stroke:#000000;stroke-width:1.0;" x1="238" x2="238" y1="1024.9297" y2="1045.418"/><line style="stroke:#000000;stroke-width:1.0;" x1="71" x2="402" y1="1045.418" y2="1045.418"/><text fill="#000000" font-family="sans-serif" font-size="14" font-weight="bold" lengthAdjust="spacing" textLength="97" x="76" y="1060.9531">ModifiedDate</text><text fill="#000000" font-family="sans-serif" font-size="14" lengthAdjust="spacing" textLength="154" x="243" y="1060.9531">2013-07-31 00:00:00</text><line style="stroke:#000000;stroke-width:1.0;" x1="238" x2="238" y1="1045.418" y2="1065.9063"/><line style="stroke:#000000;stroke-width:1.0;" x1="71" x2="402" y1="1065.9063" y2="1065.9063"/><text fill="#000000" font-family="sans-serif" font-size="14" font-weight="bold" lengthAdjust="spacing" textLength="71" x="76" y="1081.4414">ProductID</text><text fill="#000000" font-family="sans-serif" font-size="14" lengthAdjust="spacing" textLength="27" x="243" y="1081.4414">799</text><line style="stroke:#000000;stroke-width:1.0;" x1="238" x2="238" y1="1065.9063" y2="1086.3945"/><line style="stroke:#000000;stroke-width:1.0;" x1="71" x2="402" y1="1086.3945" y2="1086.3945"/><text fill="#000000" font-family="sans-serif" font-size="14" font-weight="bold" lengthAdjust="spacing" textLength="154" x="76" y="1101.9297">SYS_EXEC_DURATION</text><text fill="#000000" font-family="sans-serif" font-size="14" lengthAdjust="spacing" textLength="67" x="243" y="1101.9297">0.184777</text><line style="stroke:#000000;stroke-width:1.0;" x1="238" x2="238" y1="1086.3945" y2="1106.8828"/><rect fill="none" height="204.8828" rx="5" ry="5" style="stroke:#000000;stroke-width:1.5;" width="331" x="71" y="902"/><path d="M22.5,520.5 L22.5,507.5 C22.5,443.4752 36.2415,277.2682 71,223.5 C71.3895,222.8975 71.7836,222.2974 72.1821,221.6998 " fill="none" style="stroke:#000000;stroke-width:1.0;stroke-dasharray:3.0,3.0;"/><path d="M74.7054,223.474 L73.5127,219.8073 L69.6587,219.9256 L76.6175,215.3914 L74.7054,223.474 " fill="#000000" style="stroke:#000000;stroke-width:1.0;"/><ellipse cx="22.5" cy="520.5" fill="#000000" rx="3" ry="3" style="stroke:#000000;stroke-width:1.0;"/><path d="M22,538.5 L35,538.5 C78.9079,538.5 43.5347,480.7573 71,446.5 C71.7086,445.6162 72.4262,444.7367 73.1523,443.8617 " fill="none" style="stroke:#000000;stroke-width:1.0;stroke-dasharray:3.0,3.0;"/><path d="M75.4363,445.8272 L74.6264,442.1488 L70.8684,441.8963 L78.0661,438.1519 L75.4363,445.8272 " fill="#000000" style="stroke:#000000;stroke-width:1.0;"/><ellipse cx="22" cy="538.5" fill="#000000" rx="3" ry="3" style="stroke:#000000;stroke-width:1.0;"/><path d="M22,558.5 L35,558.5 C44.4546,558.5 54.1593,558.5 63.9554,558.5 " fill="none" style="stroke:#000000;stroke-width:1.0;stroke-dasharray:3.0,3.0;"/><path d="M63.9554,561.5025 L66.2073,558.5 L63.9554,555.4975 L71.4617,558.5 L63.9554,561.5025 " fill="#000000" style="stroke:#000000;stroke-width:1.0;"/><ellipse cx="22" cy="558.5" fill="#000000" rx="3" ry="3" style="stroke:#000000;stroke-width:1.0;"/><path d="M22,579.5 L35,579.5 C78.4943,579.5 43.7303,636.6161 71,670.5 C71.7103,671.3825 72.4294,672.2607 73.1571,673.1344 " fill="none" style="stroke:#000000;stroke-width:1.0;stroke-dasharray:3.0,3.0;"/><path d="M70.8763,675.1038 L74.6342,674.845 L75.4379,671.165 L78.0806,678.8364 L70.8763,675.1038 " fill="#000000" style="stroke:#000000;stroke-width:1.0;"/><ellipse cx="22" cy="579.5" fill="#000000" rx="3" ry="3" style="stroke:#000000;stroke-width:1.0;"/><path d="M22.5,598.5 L22.5,611.5 C22.5,675.0867 36.4479,840.12 71,893.5 C71.3899,894.1023 71.7843,894.7021 72.1831,895.2995 " fill="none" style="stroke:#000000;stroke-width:1.0;stroke-dasharray:3.0,3.0;"/><path d="M69.6606,897.0751 L73.5148,897.1914 L74.7056,893.524 L76.622,901.6057 L69.6606,897.0751 " fill="#000000" style="stroke:#000000;stroke-width:1.0;"/><ellipse cx="22.5" cy="598.5" fill="#000000" rx="3" ry="3" style="stroke:#000000;stroke-width:1.0;"/><!--MD5=[4ae426d5468b47c2f545d008d41b2df1]
@startjson
[
    {
        "TransactionID": 100000,
        "ReferenceOrderID": 41590,
        "ReferenceOrderLineID": 0,
        "TransactionDate": "2013-07-31 00:00:00",
        "TransactionType": "W",
        "Quantity": 2,
        "ActualCost": "0.0000",
        "ModifiedDate": "2013-07-31 00:00:00",
        "ProductID": 784,
        "SYS_EXEC_DURATION": "0.184339"
    },
    {
        "TransactionID": 100001,
        "ReferenceOrderID": 41591,
        "ReferenceOrderLineID": 0,
        "TransactionDate": "2013-07-31 00:00:00",
        "TransactionType": "W",
        "Quantity": 1,
        "ActualCost": "0.0000",
        "ModifiedDate": "2013-07-31 00:00:00",
        "ProductID": 794,
        "SYS_EXEC_DURATION": "0.184545"
    },
    {
        "TransactionID": 100002,
        "ReferenceOrderID": 41592,
        "ReferenceOrderLineID": 0,
        "TransactionDate": "2013-07-31 00:00:00",
        "TransactionType": "W",
        "Quantity": 1,
        "ActualCost": "0.0000",
        "ModifiedDate": "2013-07-31 00:00:00",
        "ProductID": 797,
        "SYS_EXEC_DURATION": "0.184622"
    },
    {
        "TransactionID": 100003,
        "ReferenceOrderID": 41593,
        "ReferenceOrderLineID": 0,
        "TransactionDate": "2013-07-31 00:00:00",
        "TransactionType": "W",
        "Quantity": 1,
        "ActualCost": "0.0000",
        "ModifiedDate": "2013-07-31 00:00:00",
        "ProductID": 798,
        "SYS_EXEC_DURATION": "0.184694"
    },
    {
        "TransactionID": 100004,
        "ReferenceOrderID": 41594,
        "ReferenceOrderLineID": 0,
        "TransactionDate": "2013-07-31 00:00:00",
        "TransactionType": "W",
        "Quantity": 1,
        "ActualCost": "0.0000",
        "ModifiedDate": "2013-07-31 00:00:00",
        "ProductID": 799,
        "SYS_EXEC_DURATION": "0.184777"
    }
]
@endjson

PlantUML version 1.2022.5(Sat Apr 30 06:55:52 EDT 2022)
(GPL source distribution)
Java Runtime: OpenJDK Runtime Environment
JVM: OpenJDK 64-Bit Server VM
Default Encoding: UTF-8
Language: en
Country: CA
--></g></svg>