<?xml version="1.0" encoding="UTF-8" standalone="no"?><svg xmlns="http://www.w3.org/2000/svg" xmlns:xlink="http://www.w3.org/1999/xlink" contentStyleType="text/css" height="604px" preserveAspectRatio="none" style="width:502px;height:604px;background:#FFFFFF;" version="1.1" viewBox="0 0 502 604" width="502px" zoomAndPan="magnify"><defs/><g><rect fill="#F1F1F1" height="102.4414" rx="5" ry="5" style="stroke:#F1F1F1;stroke-width:1.5;" width="22" x="10" y="251"/><text fill="#000000" font-family="sans-serif" font-size="14" lengthAdjust="spacing" textLength="12" x="15" y="266.5352">   </text><line style="stroke:#000000;stroke-width:1.0;" x1="10" x2="32" y1="271.4883" y2="271.4883"/><text fill="#000000" font-family="sans-serif" font-size="14" lengthAdjust="spacing" textLength="12" x="15" y="287.0234">   </text><line style="stroke:#000000;stroke-width:1.0;" x1="10" x2="32" y1="291.9766" y2="291.9766"/><text fill="#000000" font-family="sans-serif" font-size="14" lengthAdjust="spacing" textLength="12" x="15" y="307.5117">   </text><line style="stroke:#000000;stroke-width:1.0;" x1="10" x2="32" y1="312.4648" y2="312.4648"/><text fill="#000000" font-family="sans-serif" font-size="14" lengthAdjust="spacing" textLength="12" x="15" y="328">   </text><line style="stroke:#000000;stroke-width:1.0;" x1="10" x2="32" y1="332.9531" y2="332.9531"/><text fill="#000000" font-family="sans-serif" font-size="14" lengthAdjust="spacing" textLength="12" x="15" y="348.4883">   </text><rect fill="none" height="102.4414" rx="5" ry="5" style="stroke:#000000;stroke-width:1.5;" width="22" x="10" y="251"/><rect fill="#F1F1F1" height="102.4414" rx="5" ry="5" style="stroke:#F1F1F1;stroke-width:1.5;" width="406" x="77.5" y="10"/><text fill="#000000" font-family="sans-serif" font-size="14" font-weight="bold" lengthAdjust="spacing" textLength="113" x="82.5" y="25.5352">ProductPhotoID</text><text fill="#000000" font-family="sans-serif" font-size="14" lengthAdjust="spacing" textLength="9" x="279.5" y="25.5352">1</text><line style="stroke:#000000;stroke-width:1.0;" x1="274.5" x2="274.5" y1="10" y2="30.4883"/><line style="stroke:#000000;stroke-width:1.0;" x1="77.5" x2="483.5" y1="30.4883" y2="30.4883"/><text fill="#000000" font-family="sans-serif" font-size="14" font-weight="bold" lengthAdjust="spacing" textLength="187" x="82.5" y="46.0234">ThumbnailPhotoFileName</text><text fill="#000000" font-family="sans-serif" font-size="14" lengthAdjust="spacing" textLength="199" x="279.5" y="46.0234">no_image_available_small.gif</text><line style="stroke:#000000;stroke-width:1.0;" x1="274.5" x2="274.5" y1="30.4883" y2="50.9766"/><line style="stroke:#000000;stroke-width:1.0;" x1="77.5" x2="483.5" y1="50.9766" y2="50.9766"/><text fill="#000000" font-family="sans-serif" font-size="14" font-weight="bold" lengthAdjust="spacing" textLength="148" x="82.5" y="66.5117">LargePhotoFileName</text><text fill="#000000" font-family="sans-serif" font-size="14" lengthAdjust="spacing" textLength="198" x="279.5" y="66.5117">no_image_available_large.gif</text><line style="stroke:#000000;stroke-width:1.0;" x1="274.5" x2="274.5" y1="50.9766" y2="71.4648"/><line style="stroke:#000000;stroke-width:1.0;" x1="77.5" x2="483.5" y1="71.4648" y2="71.4648"/><text fill="#000000" font-family="sans-serif" font-size="14" font-weight="bold" lengthAdjust="spacing" textLength="97" x="82.5" y="87">ModifiedDate</text><text fill="#000000" font-family="sans-serif" font-size="14" lengthAdjust="spacing" textLength="154" x="279.5" y="87">2008-04-30 00:00:00</text><line style="stroke:#000000;stroke-width:1.0;" x1="274.5" x2="274.5" y1="71.4648" y2="91.9531"/><line style="stroke:#000000;stroke-width:1.0;" x1="77.5" x2="483.5" y1="91.9531" y2="91.9531"/><text fill="#000000" font-family="sans-serif" font-size="14" font-weight="bold" lengthAdjust="spacing" textLength="154" x="82.5" y="107.4883">SYS_EXEC_DURATION</text><text fill="#000000" font-family="sans-serif" font-size="14" lengthAdjust="spacing" textLength="67" x="279.5" y="107.4883">0.187097</text><line style="stroke:#000000;stroke-width:1.0;" x1="274.5" x2="274.5" y1="91.9531" y2="112.4414"/><rect fill="none" height="102.4414" rx="5" ry="5" style="stroke:#000000;stroke-width:1.5;" width="406" x="77.5" y="10"/><rect fill="#F1F1F1" height="102.4414" rx="5" ry="5" style="stroke:#F1F1F1;stroke-width:1.5;" width="380" x="90.5" y="130"/><text fill="#000000" font-family="sans-serif" font-size="14" font-weight="bold" lengthAdjust="spacing" textLength="113" x="95.5" y="145.5352">ProductPhotoID</text><text fill="#000000" font-family="sans-serif" font-size="14" lengthAdjust="spacing" textLength="18" x="292.5" y="145.5352">69</text><line style="stroke:#000000;stroke-width:1.0;" x1="287.5" x2="287.5" y1="130" y2="150.4883"/><line style="stroke:#000000;stroke-width:1.0;" x1="90.5" x2="470.5" y1="150.4883" y2="150.4883"/><text fill="#000000" font-family="sans-serif" font-size="14" font-weight="bold" lengthAdjust="spacing" textLength="187" x="95.5" y="166.0234">ThumbnailPhotoFileName</text><text fill="#000000" font-family="sans-serif" font-size="14" lengthAdjust="spacing" textLength="173" x="292.5" y="166.0234">racer02_black_f_small.gif</text><line style="stroke:#000000;stroke-width:1.0;" x1="287.5" x2="287.5" y1="150.4883" y2="170.9766"/><line style="stroke:#000000;stroke-width:1.0;" x1="90.5" x2="470.5" y1="170.9766" y2="170.9766"/><text fill="#000000" font-family="sans-serif" font-size="14" font-weight="bold" lengthAdjust="spacing" textLength="148" x="95.5" y="186.5117">LargePhotoFileName</text><text fill="#000000" font-family="sans-serif" font-size="14" lengthAdjust="spacing" textLength="172" x="292.5" y="186.5117">racer02_black_f_large.gif</text><line style="stroke:#000000;stroke-width:1.0;" x1="287.5" x2="287.5" y1="170.9766" y2="191.4648"/><line style="stroke:#000000;stroke-width:1.0;" x1="90.5" x2="470.5" y1="191.4648" y2="191.4648"/><text fill="#000000" font-family="sans-serif" font-size="14" font-weight="bold" lengthAdjust="spacing" textLength="97" x="95.5" y="207">ModifiedDate</text><text fill="#000000" font-family="sans-serif" font-size="14" lengthAdjust="spacing" textLength="154" x="292.5" y="207">2008-04-30 00:00:00</text><line style="stroke:#000000;stroke-width:1.0;" x1="287.5" x2="287.5" y1="191.4648" y2="211.9531"/><line style="stroke:#000000;stroke-width:1.0;" x1="90.5" x2="470.5" y1="211.9531" y2="211.9531"/><text fill="#000000" font-family="sans-serif" font-size="14" font-weight="bold" lengthAdjust="spacing" textLength="154" x="95.5" y="227.4883">SYS_EXEC_DURATION</text><text fill="#000000" font-family="sans-serif" font-size="14" lengthAdjust="spacing" textLength="67" x="292.5" y="227.4883">0.187239</text><line style="stroke:#000000;stroke-width:1.0;" x1="287.5" x2="287.5" y1="211.9531" y2="232.4414"/><rect fill="none" height="102.4414" rx="5" ry="5" style="stroke:#000000;stroke-width:1.5;" width="380" x="90.5" y="130"/><rect fill="#F1F1F1" height="102.4414" rx="5" ry="5" style="stroke:#F1F1F1;stroke-width:1.5;" width="419" x="71" y="250"/><text fill="#000000" font-family="sans-serif" font-size="14" font-weight="bold" lengthAdjust="spacing" textLength="113" x="76" y="265.5352">ProductPhotoID</text><text fill="#000000" font-family="sans-serif" font-size="14" lengthAdjust="spacing" textLength="18" x="273" y="265.5352">70</text><line style="stroke:#000000;stroke-width:1.0;" x1="268" x2="268" y1="250" y2="270.4883"/><line style="stroke:#000000;stroke-width:1.0;" x1="71" x2="490" y1="270.4883" y2="270.4883"/><text fill="#000000" font-family="sans-serif" font-size="14" font-weight="bold" lengthAdjust="spacing" textLength="187" x="76" y="286.0234">ThumbnailPhotoFileName</text><text fill="#000000" font-family="sans-serif" font-size="14" lengthAdjust="spacing" textLength="161" x="273" y="286.0234">racer02_black_small.gif</text><line style="stroke:#000000;stroke-width:1.0;" x1="268" x2="268" y1="270.4883" y2="290.9766"/><line style="stroke:#000000;stroke-width:1.0;" x1="71" x2="490" y1="290.9766" y2="290.9766"/><text fill="#000000" font-family="sans-serif" font-size="14" font-weight="bold" lengthAdjust="spacing" textLength="148" x="76" y="306.5117">LargePhotoFileName</text><text fill="#000000" font-family="sans-serif" font-size="14" lengthAdjust="spacing" textLength="160" x="273" y="306.5117">racer02_black_large.gif</text><line style="stroke:#000000;stroke-width:1.0;" x1="268" x2="268" y1="290.9766" y2="311.4648"/><line style="stroke:#000000;stroke-width:1.0;" x1="71" x2="490" y1="311.4648" y2="311.4648"/><text fill="#000000" font-family="sans-serif" font-size="14" font-weight="bold" lengthAdjust="spacing" textLength="97" x="76" y="327">ModifiedDate</text><text fill="#000000" font-family="sans-serif" font-size="14" lengthAdjust="spacing" textLength="212" x="273" y="327">2012-10-19 09:56:38.273000</text><line style="stroke:#000000;stroke-width:1.0;" x1="268" x2="268" y1="311.4648" y2="331.9531"/><line style="stroke:#000000;stroke-width:1.0;" x1="71" x2="490" y1="331.9531" y2="331.9531"/><text fill="#000000" font-family="sans-serif" font-size="14" font-weight="bold" lengthAdjust="spacing" textLength="154" x="76" y="347.4883">SYS_EXEC_DURATION</text><text fill="#000000" font-family="sans-serif" font-size="14" lengthAdjust="spacing" textLength="67" x="273" y="347.4883">0.187286</text><line style="stroke:#000000;stroke-width:1.0;" x1="268" x2="268" y1="331.9531" y2="352.4414"/><rect fill="none" height="102.4414" rx="5" ry="5" style="stroke:#000000;stroke-width:1.5;" width="419" x="71" y="250"/><rect fill="#F1F1F1" height="102.4414" rx="5" ry="5" style="stroke:#F1F1F1;stroke-width:1.5;" width="419" x="71" y="370"/><text fill="#000000" font-family="sans-serif" font-size="14" font-weight="bold" lengthAdjust="spacing" textLength="113" x="76" y="385.5352">ProductPhotoID</text><text fill="#000000" font-family="sans-serif" font-size="14" lengthAdjust="spacing" textLength="18" x="273" y="385.5352">72</text><line style="stroke:#000000;stroke-width:1.0;" x1="268" x2="268" y1="370" y2="390.4883"/><line style="stroke:#000000;stroke-width:1.0;" x1="71" x2="490" y1="390.4883" y2="390.4883"/><text fill="#000000" font-family="sans-serif" font-size="14" font-weight="bold" lengthAdjust="spacing" textLength="187" x="76" y="406.0234">ThumbnailPhotoFileName</text><text fill="#000000" font-family="sans-serif" font-size="14" lengthAdjust="spacing" textLength="167" x="273" y="406.0234">racer02_blue_f_small.gif</text><line style="stroke:#000000;stroke-width:1.0;" x1="268" x2="268" y1="390.4883" y2="410.9766"/><line style="stroke:#000000;stroke-width:1.0;" x1="71" x2="490" y1="410.9766" y2="410.9766"/><text fill="#000000" font-family="sans-serif" font-size="14" font-weight="bold" lengthAdjust="spacing" textLength="148" x="76" y="426.5117">LargePhotoFileName</text><text fill="#000000" font-family="sans-serif" font-size="14" lengthAdjust="spacing" textLength="166" x="273" y="426.5117">racer02_blue_f_large.gif</text><line style="stroke:#000000;stroke-width:1.0;" x1="268" x2="268" y1="410.9766" y2="431.4648"/><line style="stroke:#000000;stroke-width:1.0;" x1="71" x2="490" y1="431.4648" y2="431.4648"/><text fill="#000000" font-family="sans-serif" font-size="14" font-weight="bold" lengthAdjust="spacing" textLength="97" x="76" y="447">ModifiedDate</text><text fill="#000000" font-family="sans-serif" font-size="14" lengthAdjust="spacing" textLength="212" x="273" y="447">2012-10-19 09:56:38.273000</text><line style="stroke:#000000;stroke-width:1.0;" x1="268" x2="268" y1="431.4648" y2="451.9531"/><line style="stroke:#000000;stroke-width:1.0;" x1="71" x2="490" y1="451.9531" y2="451.9531"/><text fill="#000000" font-family="sans-serif" font-size="14" font-weight="bold" lengthAdjust="spacing" textLength="154" x="76" y="467.4883">SYS_EXEC_DURATION</text><text fill="#000000" font-family="sans-serif" font-size="14" lengthAdjust="spacing" textLength="67" x="273" y="467.4883">0.187328</text><line style="stroke:#000000;stroke-width:1.0;" x1="268" x2="268" y1="451.9531" y2="472.4414"/><rect fill="none" height="102.4414" rx="5" ry="5" style="stroke:#000000;stroke-width:1.5;" width="419" x="71" y="370"/><rect fill="#F1F1F1" height="102.4414" rx="5" ry="5" style="stroke:#F1F1F1;stroke-width:1.5;" width="419" x="71" y="490"/><text fill="#000000" font-family="sans-serif" font-size="14" font-weight="bold" lengthAdjust="spacing" textLength="113" x="76" y="505.5352">ProductPhotoID</text><text fill="#000000" font-family="sans-serif" font-size="14" lengthAdjust="spacing" textLength="18" x="273" y="505.5352">73</text><line style="stroke:#000000;stroke-width:1.0;" x1="268" x2="268" y1="490" y2="510.4883"/><line style="stroke:#000000;stroke-width:1.0;" x1="71" x2="490" y1="510.4883" y2="510.4883"/><text fill="#000000" font-family="sans-serif" font-size="14" font-weight="bold" lengthAdjust="spacing" textLength="187" x="76" y="526.0234">ThumbnailPhotoFileName</text><text fill="#000000" font-family="sans-serif" font-size="14" lengthAdjust="spacing" textLength="155" x="273" y="526.0234">racer02_blue_small.gif</text><line style="stroke:#000000;stroke-width:1.0;" x1="268" x2="268" y1="510.4883" y2="530.9766"/><line style="stroke:#000000;stroke-width:1.0;" x1="71" x2="490" y1="530.9766" y2="530.9766"/><text fill="#000000" font-family="sans-serif" font-size="14" font-weight="bold" lengthAdjust="spacing" textLength="148" x="76" y="546.5117">LargePhotoFileName</text><text fill="#000000" font-family="sans-serif" font-size="14" lengthAdjust="spacing" textLength="154" x="273" y="546.5117">racer02_blue_large.gif</text><line style="stroke:#000000;stroke-width:1.0;" x1="268" x2="268" y1="530.9766" y2="551.4648"/><line style="stroke:#000000;stroke-width:1.0;" x1="71" x2="490" y1="551.4648" y2="551.4648"/><text fill="#000000" font-family="sans-serif" font-size="14" font-weight="bold" lengthAdjust="spacing" textLength="97" x="76" y="567">ModifiedDate</text><text fill="#000000" font-family="sans-serif" font-size="14" lengthAdjust="spacing" textLength="212" x="273" y="567">2012-10-19 09:56:38.273000</text><line style="stroke:#000000;stroke-width:1.0;" x1="268" x2="268" y1="551.4648" y2="571.9531"/><line style="stroke:#000000;stroke-width:1.0;" x1="71" x2="490" y1="571.9531" y2="571.9531"/><text fill="#000000" font-family="sans-serif" font-size="14" font-weight="bold" lengthAdjust="spacing" textLength="154" x="76" y="587.4883">SYS_EXEC_DURATION</text><text fill="#000000" font-family="sans-serif" font-size="14" lengthAdjust="spacing" textLength="58" x="273" y="587.4883">0.18738</text><line style="stroke:#000000;stroke-width:1.0;" x1="268" x2="268" y1="571.9531" y2="592.4414"/><rect fill="none" height="102.4414" rx="5" ry="5" style="stroke:#000000;stroke-width:1.5;" width="419" x="71" y="490"/><path d="M22,261 L35,261 C99.2464,261 26.2084,167.0578 71,121 C72.2296,119.7357 73.4839,118.4975 74.7616,117.2849 " fill="none" style="stroke:#000000;stroke-width:1.0;stroke-dasharray:3.0,3.0;"/><path d="M76.8232,119.5842 L76.4861,115.7387 L72.7,114.9856 L80.5099,112.1309 L76.8232,119.5842 " fill="#000000" style="stroke:#000000;stroke-width:1.0;"/><ellipse cx="22" cy="261" fill="#000000" rx="3" ry="3" style="stroke:#000000;stroke-width:1.0;"/><path d="M22,281 L35,281 C58.9176,281 50.7201,253.6798 71,241 C75.3012,238.3107 79.7267,235.7385 84.2515,233.2783 " fill="none" style="stroke:#000000;stroke-width:1.0;stroke-dasharray:3.0,3.0;"/><path d="M85.6614,235.9574 L86.2609,232.2209 L82.8417,230.5993 L90.9492,229.7536 L85.6614,235.9574 " fill="#000000" style="stroke:#000000;stroke-width:1.0;"/><ellipse cx="22" cy="281" fill="#000000" rx="3" ry="3" style="stroke:#000000;stroke-width:1.0;"/><path d="M22,301 L35,301 C44.4906,301 54.1879,301 63.9839,301 " fill="none" style="stroke:#000000;stroke-width:1.0;stroke-dasharray:3.0,3.0;"/><path d="M63.9839,304.0034 L66.2365,301 L63.9839,297.9966 L71.4924,301 L63.9839,304.0034 " fill="#000000" style="stroke:#000000;stroke-width:1.0;"/><ellipse cx="22" cy="301" fill="#000000" rx="3" ry="3" style="stroke:#000000;stroke-width:1.0;"/><path d="M22,322 L35,322 C58.5891,322 50.9203,348.6207 71,361 C73.8469,362.7551 76.7471,364.4606 79.6934,366.1179 " fill="none" style="stroke:#000000;stroke-width:1.0;stroke-dasharray:3.0,3.0;"/><path d="M78.1814,368.9 L81.7799,367.2518 L81.2053,363.3358 L86.6486,369.8977 L78.1814,368.9 " fill="#000000" style="stroke:#000000;stroke-width:1.0;"/><ellipse cx="22" cy="322" fill="#000000" rx="3" ry="3" style="stroke:#000000;stroke-width:1.0;"/><path d="M22,343 L35,343 C98.3859,343 26.7291,435.6363 71,481 C72.2318,482.2622 73.4882,483.4983 74.768,484.7089 " fill="none" style="stroke:#000000;stroke-width:1.0;stroke-dasharray:3.0,3.0;"/><path d="M72.7097,487.0116 L76.495,486.2526 L76.8263,482.4061 L80.5248,489.8546 L72.7097,487.0116 " fill="#000000" style="stroke:#000000;stroke-width:1.0;"/><ellipse cx="22" cy="343" fill="#000000" rx="3" ry="3" style="stroke:#000000;stroke-width:1.0;"/><!--MD5=[594dd679cd77c2dc872879489306bf6a]
@startjson
[
    {
        "ProductPhotoID": 1,
        "ThumbnailPhotoFileName": "no_image_available_small.gif",
        "LargePhotoFileName": "no_image_available_large.gif",
        "ModifiedDate": "2008-04-30 00:00:00",
        "SYS_EXEC_DURATION": "0.187097"
    },
    {
        "ProductPhotoID": 69,
        "ThumbnailPhotoFileName": "racer02_black_f_small.gif",
        "LargePhotoFileName": "racer02_black_f_large.gif",
        "ModifiedDate": "2008-04-30 00:00:00",
        "SYS_EXEC_DURATION": "0.187239"
    },
    {
        "ProductPhotoID": 70,
        "ThumbnailPhotoFileName": "racer02_black_small.gif",
        "LargePhotoFileName": "racer02_black_large.gif",
        "ModifiedDate": "2012-10-19 09:56:38.273000",
        "SYS_EXEC_DURATION": "0.187286"
    },
    {
        "ProductPhotoID": 72,
        "ThumbnailPhotoFileName": "racer02_blue_f_small.gif",
        "LargePhotoFileName": "racer02_blue_f_large.gif",
        "ModifiedDate": "2012-10-19 09:56:38.273000",
        "SYS_EXEC_DURATION": "0.187328"
    },
    {
        "ProductPhotoID": 73,
        "ThumbnailPhotoFileName": "racer02_blue_small.gif",
        "LargePhotoFileName": "racer02_blue_large.gif",
        "ModifiedDate": "2012-10-19 09:56:38.273000",
        "SYS_EXEC_DURATION": "0.18738"
    }
]
@endjson

PlantUML version 1.2022.5(Sat Apr 30 06:55:52 EDT 2022)
(GPL source distribution)
Java Runtime: OpenJDK Runtime Environment
JVM: OpenJDK 64-Bit Server VM
Default Encoding: UTF-8
Language: en
Country: CA
--></g></svg>