<?xml version="1.0" encoding="UTF-8" standalone="no"?><svg xmlns="http://www.w3.org/2000/svg" xmlns:xlink="http://www.w3.org/1999/xlink" contentStyleType="text/css" height="708px" preserveAspectRatio="none" style="width:411px;height:708px;background:#FFFFFF;" version="1.1" viewBox="0 0 411 708" width="411px" zoomAndPan="magnify"><defs/><g><rect fill="#F1F1F1" height="102.4414" rx="5" ry="5" style="stroke:#F1F1F1;stroke-width:1.5;" width="22" x="10" y="303.5"/><text fill="#000000" font-family="sans-serif" font-size="14" lengthAdjust="spacing" textLength="12" x="15" y="319.0352">   </text><line style="stroke:#000000;stroke-width:1.0;" x1="10" x2="32" y1="323.9883" y2="323.9883"/><text fill="#000000" font-family="sans-serif" font-size="14" lengthAdjust="spacing" textLength="12" x="15" y="339.5234">   </text><line style="stroke:#000000;stroke-width:1.0;" x1="10" x2="32" y1="344.4766" y2="344.4766"/><text fill="#000000" font-family="sans-serif" font-size="14" lengthAdjust="spacing" textLength="12" x="15" y="360.0117">   </text><line style="stroke:#000000;stroke-width:1.0;" x1="10" x2="32" y1="364.9648" y2="364.9648"/><text fill="#000000" font-family="sans-serif" font-size="14" lengthAdjust="spacing" textLength="12" x="15" y="380.5">   </text><line style="stroke:#000000;stroke-width:1.0;" x1="10" x2="32" y1="385.4531" y2="385.4531"/><text fill="#000000" font-family="sans-serif" font-size="14" lengthAdjust="spacing" textLength="12" x="15" y="400.9883">   </text><rect fill="none" height="102.4414" rx="5" ry="5" style="stroke:#000000;stroke-width:1.5;" width="22" x="10" y="303.5"/><rect fill="#F1F1F1" height="122.9297" rx="5" ry="5" style="stroke:#F1F1F1;stroke-width:1.5;" width="328" x="71" y="10"/><text fill="#000000" font-family="sans-serif" font-size="14" font-weight="bold" lengthAdjust="spacing" textLength="77" x="76" y="25.5352">LocationID</text><text fill="#000000" font-family="sans-serif" font-size="14" lengthAdjust="spacing" textLength="9" x="240" y="25.5352">1</text><line style="stroke:#000000;stroke-width:1.0;" x1="235" x2="235" y1="10" y2="30.4883"/><line style="stroke:#000000;stroke-width:1.0;" x1="71" x2="399" y1="30.4883" y2="30.4883"/><text fill="#000000" font-family="sans-serif" font-size="14" font-weight="bold" lengthAdjust="spacing" textLength="41" x="76" y="46.0234">Name</text><text fill="#000000" font-family="sans-serif" font-size="14" lengthAdjust="spacing" textLength="64" x="240" y="46.0234">Tool Crib</text><line style="stroke:#000000;stroke-width:1.0;" x1="235" x2="235" y1="30.4883" y2="50.9766"/><line style="stroke:#000000;stroke-width:1.0;" x1="71" x2="399" y1="50.9766" y2="50.9766"/><text fill="#000000" font-family="sans-serif" font-size="14" font-weight="bold" lengthAdjust="spacing" textLength="65" x="76" y="66.5117">CostRate</text><text fill="#000000" font-family="sans-serif" font-size="14" lengthAdjust="spacing" textLength="49" x="240" y="66.5117">0.0000</text><line style="stroke:#000000;stroke-width:1.0;" x1="235" x2="235" y1="50.9766" y2="71.4648"/><line style="stroke:#000000;stroke-width:1.0;" x1="71" x2="399" y1="71.4648" y2="71.4648"/><text fill="#000000" font-family="sans-serif" font-size="14" font-weight="bold" lengthAdjust="spacing" textLength="82" x="76" y="87">Availability</text><text fill="#000000" font-family="sans-serif" font-size="14" lengthAdjust="spacing" textLength="31" x="240" y="87">0.00</text><line style="stroke:#000000;stroke-width:1.0;" x1="235" x2="235" y1="71.4648" y2="91.9531"/><line style="stroke:#000000;stroke-width:1.0;" x1="71" x2="399" y1="91.9531" y2="91.9531"/><text fill="#000000" font-family="sans-serif" font-size="14" font-weight="bold" lengthAdjust="spacing" textLength="97" x="76" y="107.4883">ModifiedDate</text><text fill="#000000" font-family="sans-serif" font-size="14" lengthAdjust="spacing" textLength="154" x="240" y="107.4883">2008-04-30 00:00:00</text><line style="stroke:#000000;stroke-width:1.0;" x1="235" x2="235" y1="91.9531" y2="112.4414"/><line style="stroke:#000000;stroke-width:1.0;" x1="71" x2="399" y1="112.4414" y2="112.4414"/><text fill="#000000" font-family="sans-serif" font-size="14" font-weight="bold" lengthAdjust="spacing" textLength="154" x="76" y="127.9766">SYS_EXEC_DURATION</text><text fill="#000000" font-family="sans-serif" font-size="14" lengthAdjust="spacing" textLength="67" x="240" y="127.9766">0.181257</text><line style="stroke:#000000;stroke-width:1.0;" x1="235" x2="235" y1="112.4414" y2="132.9297"/><rect fill="none" height="122.9297" rx="5" ry="5" style="stroke:#000000;stroke-width:1.5;" width="328" x="71" y="10"/><rect fill="#F1F1F1" height="122.9297" rx="5" ry="5" style="stroke:#F1F1F1;stroke-width:1.5;" width="328" x="71" y="151"/><text fill="#000000" font-family="sans-serif" font-size="14" font-weight="bold" lengthAdjust="spacing" textLength="77" x="76" y="166.5352">LocationID</text><text fill="#000000" font-family="sans-serif" font-size="14" lengthAdjust="spacing" textLength="9" x="240" y="166.5352">2</text><line style="stroke:#000000;stroke-width:1.0;" x1="235" x2="235" y1="151" y2="171.4883"/><line style="stroke:#000000;stroke-width:1.0;" x1="71" x2="399" y1="171.4883" y2="171.4883"/><text fill="#000000" font-family="sans-serif" font-size="14" font-weight="bold" lengthAdjust="spacing" textLength="41" x="76" y="187.0234">Name</text><text fill="#000000" font-family="sans-serif" font-size="14" lengthAdjust="spacing" textLength="122" x="240" y="187.0234">Sheet Metal Racks</text><line style="stroke:#000000;stroke-width:1.0;" x1="235" x2="235" y1="171.4883" y2="191.9766"/><line style="stroke:#000000;stroke-width:1.0;" x1="71" x2="399" y1="191.9766" y2="191.9766"/><text fill="#000000" font-family="sans-serif" font-size="14" font-weight="bold" lengthAdjust="spacing" textLength="65" x="76" y="207.5117">CostRate</text><text fill="#000000" font-family="sans-serif" font-size="14" lengthAdjust="spacing" textLength="49" x="240" y="207.5117">0.0000</text><line style="stroke:#000000;stroke-width:1.0;" x1="235" x2="235" y1="191.9766" y2="212.4648"/><line style="stroke:#000000;stroke-width:1.0;" x1="71" x2="399" y1="212.4648" y2="212.4648"/><text fill="#000000" font-family="sans-serif" font-size="14" font-weight="bold" lengthAdjust="spacing" textLength="82" x="76" y="228">Availability</text><text fill="#000000" font-family="sans-serif" font-size="14" lengthAdjust="spacing" textLength="31" x="240" y="228">0.00</text><line style="stroke:#000000;stroke-width:1.0;" x1="235" x2="235" y1="212.4648" y2="232.9531"/><line style="stroke:#000000;stroke-width:1.0;" x1="71" x2="399" y1="232.9531" y2="232.9531"/><text fill="#000000" font-family="sans-serif" font-size="14" font-weight="bold" lengthAdjust="spacing" textLength="97" x="76" y="248.4883">ModifiedDate</text><text fill="#000000" font-family="sans-serif" font-size="14" lengthAdjust="spacing" textLength="154" x="240" y="248.4883">2008-04-30 00:00:00</text><line style="stroke:#000000;stroke-width:1.0;" x1="235" x2="235" y1="232.9531" y2="253.4414"/><line style="stroke:#000000;stroke-width:1.0;" x1="71" x2="399" y1="253.4414" y2="253.4414"/><text fill="#000000" font-family="sans-serif" font-size="14" font-weight="bold" lengthAdjust="spacing" textLength="154" x="76" y="268.9766">SYS_EXEC_DURATION</text><text fill="#000000" font-family="sans-serif" font-size="14" lengthAdjust="spacing" textLength="67" x="240" y="268.9766">0.181411</text><line style="stroke:#000000;stroke-width:1.0;" x1="235" x2="235" y1="253.4414" y2="273.9297"/><rect fill="none" height="122.9297" rx="5" ry="5" style="stroke:#000000;stroke-width:1.5;" width="328" x="71" y="151"/><rect fill="#F1F1F1" height="122.9297" rx="5" ry="5" style="stroke:#F1F1F1;stroke-width:1.5;" width="328" x="71" y="292"/><text fill="#000000" font-family="sans-serif" font-size="14" font-weight="bold" lengthAdjust="spacing" textLength="77" x="76" y="307.5352">LocationID</text><text fill="#000000" font-family="sans-serif" font-size="14" lengthAdjust="spacing" textLength="9" x="240" y="307.5352">3</text><line style="stroke:#000000;stroke-width:1.0;" x1="235" x2="235" y1="292" y2="312.4883"/><line style="stroke:#000000;stroke-width:1.0;" x1="71" x2="399" y1="312.4883" y2="312.4883"/><text fill="#000000" font-family="sans-serif" font-size="14" font-weight="bold" lengthAdjust="spacing" textLength="41" x="76" y="328.0234">Name</text><text fill="#000000" font-family="sans-serif" font-size="14" lengthAdjust="spacing" textLength="73" x="240" y="328.0234">Paint Shop</text><line style="stroke:#000000;stroke-width:1.0;" x1="235" x2="235" y1="312.4883" y2="332.9766"/><line style="stroke:#000000;stroke-width:1.0;" x1="71" x2="399" y1="332.9766" y2="332.9766"/><text fill="#000000" font-family="sans-serif" font-size="14" font-weight="bold" lengthAdjust="spacing" textLength="65" x="76" y="348.5117">CostRate</text><text fill="#000000" font-family="sans-serif" font-size="14" lengthAdjust="spacing" textLength="49" x="240" y="348.5117">0.0000</text><line style="stroke:#000000;stroke-width:1.0;" x1="235" x2="235" y1="332.9766" y2="353.4648"/><line style="stroke:#000000;stroke-width:1.0;" x1="71" x2="399" y1="353.4648" y2="353.4648"/><text fill="#000000" font-family="sans-serif" font-size="14" font-weight="bold" lengthAdjust="spacing" textLength="82" x="76" y="369">Availability</text><text fill="#000000" font-family="sans-serif" font-size="14" lengthAdjust="spacing" textLength="31" x="240" y="369">0.00</text><line style="stroke:#000000;stroke-width:1.0;" x1="235" x2="235" y1="353.4648" y2="373.9531"/><line style="stroke:#000000;stroke-width:1.0;" x1="71" x2="399" y1="373.9531" y2="373.9531"/><text fill="#000000" font-family="sans-serif" font-size="14" font-weight="bold" lengthAdjust="spacing" textLength="97" x="76" y="389.4883">ModifiedDate</text><text fill="#000000" font-family="sans-serif" font-size="14" lengthAdjust="spacing" textLength="154" x="240" y="389.4883">2008-04-30 00:00:00</text><line style="stroke:#000000;stroke-width:1.0;" x1="235" x2="235" y1="373.9531" y2="394.4414"/><line style="stroke:#000000;stroke-width:1.0;" x1="71" x2="399" y1="394.4414" y2="394.4414"/><text fill="#000000" font-family="sans-serif" font-size="14" font-weight="bold" lengthAdjust="spacing" textLength="154" x="76" y="409.9766">SYS_EXEC_DURATION</text><text fill="#000000" font-family="sans-serif" font-size="14" lengthAdjust="spacing" textLength="67" x="240" y="409.9766">0.181483</text><line style="stroke:#000000;stroke-width:1.0;" x1="235" x2="235" y1="394.4414" y2="414.9297"/><rect fill="none" height="122.9297" rx="5" ry="5" style="stroke:#000000;stroke-width:1.5;" width="328" x="71" y="292"/><rect fill="#F1F1F1" height="122.9297" rx="5" ry="5" style="stroke:#F1F1F1;stroke-width:1.5;" width="328" x="71" y="433"/><text fill="#000000" font-family="sans-serif" font-size="14" font-weight="bold" lengthAdjust="spacing" textLength="77" x="76" y="448.5352">LocationID</text><text fill="#000000" font-family="sans-serif" font-size="14" lengthAdjust="spacing" textLength="9" x="240" y="448.5352">4</text><line style="stroke:#000000;stroke-width:1.0;" x1="235" x2="235" y1="433" y2="453.4883"/><line style="stroke:#000000;stroke-width:1.0;" x1="71" x2="399" y1="453.4883" y2="453.4883"/><text fill="#000000" font-family="sans-serif" font-size="14" font-weight="bold" lengthAdjust="spacing" textLength="41" x="76" y="469.0234">Name</text><text fill="#000000" font-family="sans-serif" font-size="14" lengthAdjust="spacing" textLength="91" x="240" y="469.0234">Paint Storage</text><line style="stroke:#000000;stroke-width:1.0;" x1="235" x2="235" y1="453.4883" y2="473.9766"/><line style="stroke:#000000;stroke-width:1.0;" x1="71" x2="399" y1="473.9766" y2="473.9766"/><text fill="#000000" font-family="sans-serif" font-size="14" font-weight="bold" lengthAdjust="spacing" textLength="65" x="76" y="489.5117">CostRate</text><text fill="#000000" font-family="sans-serif" font-size="14" lengthAdjust="spacing" textLength="49" x="240" y="489.5117">0.0000</text><line style="stroke:#000000;stroke-width:1.0;" x1="235" x2="235" y1="473.9766" y2="494.4648"/><line style="stroke:#000000;stroke-width:1.0;" x1="71" x2="399" y1="494.4648" y2="494.4648"/><text fill="#000000" font-family="sans-serif" font-size="14" font-weight="bold" lengthAdjust="spacing" textLength="82" x="76" y="510">Availability</text><text fill="#000000" font-family="sans-serif" font-size="14" lengthAdjust="spacing" textLength="31" x="240" y="510">0.00</text><line style="stroke:#000000;stroke-width:1.0;" x1="235" x2="235" y1="494.4648" y2="514.9531"/><line style="stroke:#000000;stroke-width:1.0;" x1="71" x2="399" y1="514.9531" y2="514.9531"/><text fill="#000000" font-family="sans-serif" font-size="14" font-weight="bold" lengthAdjust="spacing" textLength="97" x="76" y="530.4883">ModifiedDate</text><text fill="#000000" font-family="sans-serif" font-size="14" lengthAdjust="spacing" textLength="154" x="240" y="530.4883">2008-04-30 00:00:00</text><line style="stroke:#000000;stroke-width:1.0;" x1="235" x2="235" y1="514.9531" y2="535.4414"/><line style="stroke:#000000;stroke-width:1.0;" x1="71" x2="399" y1="535.4414" y2="535.4414"/><text fill="#000000" font-family="sans-serif" font-size="14" font-weight="bold" lengthAdjust="spacing" textLength="154" x="76" y="550.9766">SYS_EXEC_DURATION</text><text fill="#000000" font-family="sans-serif" font-size="14" lengthAdjust="spacing" textLength="67" x="240" y="550.9766">0.181549</text><line style="stroke:#000000;stroke-width:1.0;" x1="235" x2="235" y1="535.4414" y2="555.9297"/><rect fill="none" height="122.9297" rx="5" ry="5" style="stroke:#000000;stroke-width:1.5;" width="328" x="71" y="433"/><rect fill="#F1F1F1" height="122.9297" rx="5" ry="5" style="stroke:#F1F1F1;stroke-width:1.5;" width="328" x="71" y="574"/><text fill="#000000" font-family="sans-serif" font-size="14" font-weight="bold" lengthAdjust="spacing" textLength="77" x="76" y="589.5352">LocationID</text><text fill="#000000" font-family="sans-serif" font-size="14" lengthAdjust="spacing" textLength="9" x="240" y="589.5352">5</text><line style="stroke:#000000;stroke-width:1.0;" x1="235" x2="235" y1="574" y2="594.4883"/><line style="stroke:#000000;stroke-width:1.0;" x1="71" x2="399" y1="594.4883" y2="594.4883"/><text fill="#000000" font-family="sans-serif" font-size="14" font-weight="bold" lengthAdjust="spacing" textLength="41" x="76" y="610.0234">Name</text><text fill="#000000" font-family="sans-serif" font-size="14" lengthAdjust="spacing" textLength="94" x="240" y="610.0234">Metal Storage</text><line style="stroke:#000000;stroke-width:1.0;" x1="235" x2="235" y1="594.4883" y2="614.9766"/><line style="stroke:#000000;stroke-width:1.0;" x1="71" x2="399" y1="614.9766" y2="614.9766"/><text fill="#000000" font-family="sans-serif" font-size="14" font-weight="bold" lengthAdjust="spacing" textLength="65" x="76" y="630.5117">CostRate</text><text fill="#000000" font-family="sans-serif" font-size="14" lengthAdjust="spacing" textLength="49" x="240" y="630.5117">0.0000</text><line style="stroke:#000000;stroke-width:1.0;" x1="235" x2="235" y1="614.9766" y2="635.4648"/><line style="stroke:#000000;stroke-width:1.0;" x1="71" x2="399" y1="635.4648" y2="635.4648"/><text fill="#000000" font-family="sans-serif" font-size="14" font-weight="bold" lengthAdjust="spacing" textLength="82" x="76" y="651">Availability</text><text fill="#000000" font-family="sans-serif" font-size="14" lengthAdjust="spacing" textLength="31" x="240" y="651">0.00</text><line style="stroke:#000000;stroke-width:1.0;" x1="235" x2="235" y1="635.4648" y2="655.9531"/><line style="stroke:#000000;stroke-width:1.0;" x1="71" x2="399" y1="655.9531" y2="655.9531"/><text fill="#000000" font-family="sans-serif" font-size="14" font-weight="bold" lengthAdjust="spacing" textLength="97" x="76" y="671.4883">ModifiedDate</text><text fill="#000000" font-family="sans-serif" font-size="14" lengthAdjust="spacing" textLength="154" x="240" y="671.4883">2008-04-30 00:00:00</text><line style="stroke:#000000;stroke-width:1.0;" x1="235" x2="235" y1="655.9531" y2="676.4414"/><line style="stroke:#000000;stroke-width:1.0;" x1="71" x2="399" y1="676.4414" y2="676.4414"/><text fill="#000000" font-family="sans-serif" font-size="14" font-weight="bold" lengthAdjust="spacing" textLength="154" x="76" y="691.9766">SYS_EXEC_DURATION</text><text fill="#000000" font-family="sans-serif" font-size="14" lengthAdjust="spacing" textLength="67" x="240" y="691.9766">0.181622</text><line style="stroke:#000000;stroke-width:1.0;" x1="235" x2="235" y1="676.4414" y2="696.9297"/><rect fill="none" height="122.9297" rx="5" ry="5" style="stroke:#000000;stroke-width:1.5;" width="328" x="71" y="574"/><path d="M22,313.5 L35,313.5 C113.1009,313.5 21.5091,201.9186 71,141.5 C71.7337,140.6042 72.4811,139.7197 73.2414,138.8463 " fill="none" style="stroke:#000000;stroke-width:1.0;stroke-dasharray:3.0,3.0;"/><path d="M75.4835,140.9269 L74.8019,137.1647 L70.9993,136.7656 L78.4431,133.241 L75.4835,140.9269 " fill="#000000" style="stroke:#000000;stroke-width:1.0;"/><ellipse cx="22" cy="313.5" fill="#000000" rx="3" ry="3" style="stroke:#000000;stroke-width:1.0;"/><path d="M22,333.5 L35,333.5 C62.7449,333.5 49.4321,299.9529 71,282.5 C72.5752,281.2253 74.1771,279.97 75.8033,278.7339 " fill="none" style="stroke:#000000;stroke-width:1.0;stroke-dasharray:3.0,3.0;"/><path d="M77.6725,281.289 L77.7196,277.332 L73.9341,276.1788 L82.1909,274.0609 L77.6725,281.289 " fill="#000000" style="stroke:#000000;stroke-width:1.0;"/><ellipse cx="22" cy="333.5" fill="#000000" rx="3" ry="3" style="stroke:#000000;stroke-width:1.0;"/><path d="M22,353.5 L35,353.5 C44.453,353.5 54.158,353.5 63.9538,353.5 " fill="none" style="stroke:#000000;stroke-width:1.0;stroke-dasharray:3.0,3.0;"/><path d="M63.9538,356.5024 L66.2056,353.5 L63.9538,350.4976 L71.4597,353.5 L63.9538,356.5024 " fill="#000000" style="stroke:#000000;stroke-width:1.0;"/><ellipse cx="22" cy="353.5" fill="#000000" rx="3" ry="3" style="stroke:#000000;stroke-width:1.0;"/><path d="M22,374.5 L35,374.5 C62.383,374.5 49.633,407.3746 71,424.5 C72.5812,425.7673 74.1887,427.0156 75.8202,428.2451 " fill="none" style="stroke:#000000;stroke-width:1.0;stroke-dasharray:3.0,3.0;"/><path d="M73.9605,430.8078 L77.7423,429.6398 L77.6799,425.6823 L82.2271,432.8942 L73.9605,430.8078 " fill="#000000" style="stroke:#000000;stroke-width:1.0;"/><ellipse cx="22" cy="374.5" fill="#000000" rx="3" ry="3" style="stroke:#000000;stroke-width:1.0;"/><path d="M22.5,393.5 L22.5,406.5 C22.5,443.4406 46.3333,538.0017 71,565.5 C71.8859,566.4876 72.7882,567.4618 73.706,568.4228 " fill="none" style="stroke:#000000;stroke-width:1.0;stroke-dasharray:3.0,3.0;"/><path d="M71.5621,570.591 L75.3322,570.0307 L75.8499,566.2546 L79.1266,573.7826 L71.5621,570.591 " fill="#000000" style="stroke:#000000;stroke-width:1.0;"/><ellipse cx="22.5" cy="393.5" fill="#000000" rx="3" ry="3" style="stroke:#000000;stroke-width:1.0;"/><!--MD5=[e6d9bb1c8c0cba30c7cdcf74b8cba924]
@startjson
[
    {
        "LocationID": 1,
        "Name": "Tool Crib",
        "CostRate": "0.0000",
        "Availability": "0.00",
        "ModifiedDate": "2008-04-30 00:00:00",
        "SYS_EXEC_DURATION": "0.181257"
    },
    {
        "LocationID": 2,
        "Name": "Sheet Metal Racks",
        "CostRate": "0.0000",
        "Availability": "0.00",
        "ModifiedDate": "2008-04-30 00:00:00",
        "SYS_EXEC_DURATION": "0.181411"
    },
    {
        "LocationID": 3,
        "Name": "Paint Shop",
        "CostRate": "0.0000",
        "Availability": "0.00",
        "ModifiedDate": "2008-04-30 00:00:00",
        "SYS_EXEC_DURATION": "0.181483"
    },
    {
        "LocationID": 4,
        "Name": "Paint Storage",
        "CostRate": "0.0000",
        "Availability": "0.00",
        "ModifiedDate": "2008-04-30 00:00:00",
        "SYS_EXEC_DURATION": "0.181549"
    },
    {
        "LocationID": 5,
        "Name": "Metal Storage",
        "CostRate": "0.0000",
        "Availability": "0.00",
        "ModifiedDate": "2008-04-30 00:00:00",
        "SYS_EXEC_DURATION": "0.181622"
    }
]
@endjson

PlantUML version 1.2022.5(Sat Apr 30 06:55:52 EDT 2022)
(GPL source distribution)
Java Runtime: OpenJDK Runtime Environment
JVM: OpenJDK 64-Bit Server VM
Default Encoding: UTF-8
Language: en
Country: CA
--></g></svg>