<?xml version="1.0" encoding="UTF-8" standalone="no"?><svg xmlns="http://www.w3.org/2000/svg" xmlns:xlink="http://www.w3.org/1999/xlink" contentStyleType="text/css" height="1528px" preserveAspectRatio="none" style="width:411px;height:1528px;background:#FFFFFF;" version="1.1" viewBox="0 0 411 1528" width="411px" zoomAndPan="magnify"><defs/><g><rect fill="#F1F1F1" height="102.4414" rx="5" ry="5" style="stroke:#F1F1F1;stroke-width:1.5;" width="22" x="10" y="713.5"/><text fill="#000000" font-family="sans-serif" font-size="14" lengthAdjust="spacing" textLength="12" x="15" y="729.0352">   </text><line style="stroke:#000000;stroke-width:1.0;" x1="10" x2="32" y1="733.9883" y2="733.9883"/><text fill="#000000" font-family="sans-serif" font-size="14" lengthAdjust="spacing" textLength="12" x="15" y="749.5234">   </text><line style="stroke:#000000;stroke-width:1.0;" x1="10" x2="32" y1="754.4766" y2="754.4766"/><text fill="#000000" font-family="sans-serif" font-size="14" lengthAdjust="spacing" textLength="12" x="15" y="770.0117">   </text><line style="stroke:#000000;stroke-width:1.0;" x1="10" x2="32" y1="774.9648" y2="774.9648"/><text fill="#000000" font-family="sans-serif" font-size="14" lengthAdjust="spacing" textLength="12" x="15" y="790.5">   </text><line style="stroke:#000000;stroke-width:1.0;" x1="10" x2="32" y1="795.4531" y2="795.4531"/><text fill="#000000" font-family="sans-serif" font-size="14" lengthAdjust="spacing" textLength="12" x="15" y="810.9883">   </text><rect fill="none" height="102.4414" rx="5" ry="5" style="stroke:#000000;stroke-width:1.5;" width="22" x="10" y="713.5"/><rect fill="#F1F1F1" height="286.8359" rx="5" ry="5" style="stroke:#F1F1F1;stroke-width:1.5;" width="328" x="71" y="10"/><text fill="#000000" font-family="sans-serif" font-size="14" font-weight="bold" lengthAdjust="spacing" textLength="121" x="76" y="25.5352">PurchaseOrderID</text><text fill="#000000" font-family="sans-serif" font-size="14" lengthAdjust="spacing" textLength="9" x="240" y="25.5352">1</text><line style="stroke:#000000;stroke-width:1.0;" x1="235" x2="235" y1="10" y2="30.4883"/><line style="stroke:#000000;stroke-width:1.0;" x1="71" x2="399" y1="30.4883" y2="30.4883"/><text fill="#000000" font-family="sans-serif" font-size="14" font-weight="bold" lengthAdjust="spacing" textLength="119" x="76" y="46.0234">RevisionNumber</text><text fill="#000000" font-family="sans-serif" font-size="14" lengthAdjust="spacing" textLength="9" x="240" y="46.0234">4</text><line style="stroke:#000000;stroke-width:1.0;" x1="235" x2="235" y1="30.4883" y2="50.9766"/><line style="stroke:#000000;stroke-width:1.0;" x1="71" x2="399" y1="50.9766" y2="50.9766"/><text fill="#000000" font-family="sans-serif" font-size="14" font-weight="bold" lengthAdjust="spacing" textLength="45" x="76" y="66.5117">Status</text><text fill="#000000" font-family="sans-serif" font-size="14" lengthAdjust="spacing" textLength="9" x="240" y="66.5117">4</text><line style="stroke:#000000;stroke-width:1.0;" x1="235" x2="235" y1="50.9766" y2="71.4648"/><line style="stroke:#000000;stroke-width:1.0;" x1="71" x2="399" y1="71.4648" y2="71.4648"/><text fill="#000000" font-family="sans-serif" font-size="14" font-weight="bold" lengthAdjust="spacing" textLength="74" x="76" y="87">OrderDate</text><text fill="#000000" font-family="sans-serif" font-size="14" lengthAdjust="spacing" textLength="154" x="240" y="87">2011-04-16 00:00:00</text><line style="stroke:#000000;stroke-width:1.0;" x1="235" x2="235" y1="71.4648" y2="91.9531"/><line style="stroke:#000000;stroke-width:1.0;" x1="71" x2="399" y1="91.9531" y2="91.9531"/><text fill="#000000" font-family="sans-serif" font-size="14" font-weight="bold" lengthAdjust="spacing" textLength="64" x="76" y="107.4883">ShipDate</text><text fill="#000000" font-family="sans-serif" font-size="14" lengthAdjust="spacing" textLength="154" x="240" y="107.4883">2011-04-25 00:00:00</text><line style="stroke:#000000;stroke-width:1.0;" x1="235" x2="235" y1="91.9531" y2="112.4414"/><line style="stroke:#000000;stroke-width:1.0;" x1="71" x2="399" y1="112.4414" y2="112.4414"/><text fill="#000000" font-family="sans-serif" font-size="14" font-weight="bold" lengthAdjust="spacing" textLength="64" x="76" y="127.9766">SubTotal</text><text fill="#000000" font-family="sans-serif" font-size="14" lengthAdjust="spacing" textLength="67" x="240" y="127.9766">201.0400</text><line style="stroke:#000000;stroke-width:1.0;" x1="235" x2="235" y1="112.4414" y2="132.9297"/><line style="stroke:#000000;stroke-width:1.0;" x1="71" x2="399" y1="132.9297" y2="132.9297"/><text fill="#000000" font-family="sans-serif" font-size="14" font-weight="bold" lengthAdjust="spacing" textLength="56" x="76" y="148.4648">TaxAmt</text><text fill="#000000" font-family="sans-serif" font-size="14" lengthAdjust="spacing" textLength="58" x="240" y="148.4648">16.0832</text><line style="stroke:#000000;stroke-width:1.0;" x1="235" x2="235" y1="132.9297" y2="153.418"/><line style="stroke:#000000;stroke-width:1.0;" x1="71" x2="399" y1="153.418" y2="153.418"/><text fill="#000000" font-family="sans-serif" font-size="14" font-weight="bold" lengthAdjust="spacing" textLength="51" x="76" y="168.9531">Freight</text><text fill="#000000" font-family="sans-serif" font-size="14" lengthAdjust="spacing" textLength="49" x="240" y="168.9531">5.0260</text><line style="stroke:#000000;stroke-width:1.0;" x1="235" x2="235" y1="153.418" y2="173.9063"/><line style="stroke:#000000;stroke-width:1.0;" x1="71" x2="399" y1="173.9063" y2="173.9063"/><text fill="#000000" font-family="sans-serif" font-size="14" font-weight="bold" lengthAdjust="spacing" textLength="66" x="76" y="189.4414">TotalDue</text><text fill="#000000" font-family="sans-serif" font-size="14" lengthAdjust="spacing" textLength="67" x="240" y="189.4414">222.1492</text><line style="stroke:#000000;stroke-width:1.0;" x1="235" x2="235" y1="173.9063" y2="194.3945"/><line style="stroke:#000000;stroke-width:1.0;" x1="71" x2="399" y1="194.3945" y2="194.3945"/><text fill="#000000" font-family="sans-serif" font-size="14" font-weight="bold" lengthAdjust="spacing" textLength="97" x="76" y="209.9297">ModifiedDate</text><text fill="#000000" font-family="sans-serif" font-size="14" lengthAdjust="spacing" textLength="154" x="240" y="209.9297">2011-04-25 00:00:00</text><line style="stroke:#000000;stroke-width:1.0;" x1="235" x2="235" y1="194.3945" y2="214.8828"/><line style="stroke:#000000;stroke-width:1.0;" x1="71" x2="399" y1="214.8828" y2="214.8828"/><text fill="#000000" font-family="sans-serif" font-size="14" font-weight="bold" lengthAdjust="spacing" textLength="85" x="76" y="230.418">EmployeeID</text><text fill="#000000" font-family="sans-serif" font-size="14" lengthAdjust="spacing" textLength="27" x="240" y="230.418">258</text><line style="stroke:#000000;stroke-width:1.0;" x1="235" x2="235" y1="214.8828" y2="235.3711"/><line style="stroke:#000000;stroke-width:1.0;" x1="71" x2="399" y1="235.3711" y2="235.3711"/><text fill="#000000" font-family="sans-serif" font-size="14" font-weight="bold" lengthAdjust="spacing" textLength="67" x="76" y="250.9063">VendorID</text><text fill="#000000" font-family="sans-serif" font-size="14" lengthAdjust="spacing" textLength="36" x="240" y="250.9063">1580</text><line style="stroke:#000000;stroke-width:1.0;" x1="235" x2="235" y1="235.3711" y2="255.8594"/><line style="stroke:#000000;stroke-width:1.0;" x1="71" x2="399" y1="255.8594" y2="255.8594"/><text fill="#000000" font-family="sans-serif" font-size="14" font-weight="bold" lengthAdjust="spacing" textLength="101" x="76" y="271.3945">ShipMethodID</text><text fill="#000000" font-family="sans-serif" font-size="14" lengthAdjust="spacing" textLength="9" x="240" y="271.3945">3</text><line style="stroke:#000000;stroke-width:1.0;" x1="235" x2="235" y1="255.8594" y2="276.3477"/><line style="stroke:#000000;stroke-width:1.0;" x1="71" x2="399" y1="276.3477" y2="276.3477"/><text fill="#000000" font-family="sans-serif" font-size="14" font-weight="bold" lengthAdjust="spacing" textLength="154" x="76" y="291.8828">SYS_EXEC_DURATION</text><text fill="#000000" font-family="sans-serif" font-size="14" lengthAdjust="spacing" textLength="67" x="240" y="291.8828">0.188533</text><line style="stroke:#000000;stroke-width:1.0;" x1="235" x2="235" y1="276.3477" y2="296.8359"/><rect fill="none" height="286.8359" rx="5" ry="5" style="stroke:#000000;stroke-width:1.5;" width="328" x="71" y="10"/><rect fill="#F1F1F1" height="286.8359" rx="5" ry="5" style="stroke:#F1F1F1;stroke-width:1.5;" width="328" x="71" y="315"/><text fill="#000000" font-family="sans-serif" font-size="14" font-weight="bold" lengthAdjust="spacing" textLength="121" x="76" y="330.5352">PurchaseOrderID</text><text fill="#000000" font-family="sans-serif" font-size="14" lengthAdjust="spacing" textLength="9" x="240" y="330.5352">2</text><line style="stroke:#000000;stroke-width:1.0;" x1="235" x2="235" y1="315" y2="335.4883"/><line style="stroke:#000000;stroke-width:1.0;" x1="71" x2="399" y1="335.4883" y2="335.4883"/><text fill="#000000" font-family="sans-serif" font-size="14" font-weight="bold" lengthAdjust="spacing" textLength="119" x="76" y="351.0234">RevisionNumber</text><text fill="#000000" font-family="sans-serif" font-size="14" lengthAdjust="spacing" textLength="9" x="240" y="351.0234">4</text><line style="stroke:#000000;stroke-width:1.0;" x1="235" x2="235" y1="335.4883" y2="355.9766"/><line style="stroke:#000000;stroke-width:1.0;" x1="71" x2="399" y1="355.9766" y2="355.9766"/><text fill="#000000" font-family="sans-serif" font-size="14" font-weight="bold" lengthAdjust="spacing" textLength="45" x="76" y="371.5117">Status</text><text fill="#000000" font-family="sans-serif" font-size="14" lengthAdjust="spacing" textLength="9" x="240" y="371.5117">1</text><line style="stroke:#000000;stroke-width:1.0;" x1="235" x2="235" y1="355.9766" y2="376.4648"/><line style="stroke:#000000;stroke-width:1.0;" x1="71" x2="399" y1="376.4648" y2="376.4648"/><text fill="#000000" font-family="sans-serif" font-size="14" font-weight="bold" lengthAdjust="spacing" textLength="74" x="76" y="392">OrderDate</text><text fill="#000000" font-family="sans-serif" font-size="14" lengthAdjust="spacing" textLength="154" x="240" y="392">2011-04-16 00:00:00</text><line style="stroke:#000000;stroke-width:1.0;" x1="235" x2="235" y1="376.4648" y2="396.9531"/><line style="stroke:#000000;stroke-width:1.0;" x1="71" x2="399" y1="396.9531" y2="396.9531"/><text fill="#000000" font-family="sans-serif" font-size="14" font-weight="bold" lengthAdjust="spacing" textLength="64" x="76" y="412.4883">ShipDate</text><text fill="#000000" font-family="sans-serif" font-size="14" lengthAdjust="spacing" textLength="154" x="240" y="412.4883">2011-04-25 00:00:00</text><line style="stroke:#000000;stroke-width:1.0;" x1="235" x2="235" y1="396.9531" y2="417.4414"/><line style="stroke:#000000;stroke-width:1.0;" x1="71" x2="399" y1="417.4414" y2="417.4414"/><text fill="#000000" font-family="sans-serif" font-size="14" font-weight="bold" lengthAdjust="spacing" textLength="64" x="76" y="432.9766">SubTotal</text><text fill="#000000" font-family="sans-serif" font-size="14" lengthAdjust="spacing" textLength="67" x="240" y="432.9766">272.1015</text><line style="stroke:#000000;stroke-width:1.0;" x1="235" x2="235" y1="417.4414" y2="437.9297"/><line style="stroke:#000000;stroke-width:1.0;" x1="71" x2="399" y1="437.9297" y2="437.9297"/><text fill="#000000" font-family="sans-serif" font-size="14" font-weight="bold" lengthAdjust="spacing" textLength="56" x="76" y="453.4648">TaxAmt</text><text fill="#000000" font-family="sans-serif" font-size="14" lengthAdjust="spacing" textLength="58" x="240" y="453.4648">21.7681</text><line style="stroke:#000000;stroke-width:1.0;" x1="235" x2="235" y1="437.9297" y2="458.418"/><line style="stroke:#000000;stroke-width:1.0;" x1="71" x2="399" y1="458.418" y2="458.418"/><text fill="#000000" font-family="sans-serif" font-size="14" font-weight="bold" lengthAdjust="spacing" textLength="51" x="76" y="473.9531">Freight</text><text fill="#000000" font-family="sans-serif" font-size="14" lengthAdjust="spacing" textLength="49" x="240" y="473.9531">6.8025</text><line style="stroke:#000000;stroke-width:1.0;" x1="235" x2="235" y1="458.418" y2="478.9063"/><line style="stroke:#000000;stroke-width:1.0;" x1="71" x2="399" y1="478.9063" y2="478.9063"/><text fill="#000000" font-family="sans-serif" font-size="14" font-weight="bold" lengthAdjust="spacing" textLength="66" x="76" y="494.4414">TotalDue</text><text fill="#000000" font-family="sans-serif" font-size="14" lengthAdjust="spacing" textLength="67" x="240" y="494.4414">300.6721</text><line style="stroke:#000000;stroke-width:1.0;" x1="235" x2="235" y1="478.9063" y2="499.3945"/><line style="stroke:#000000;stroke-width:1.0;" x1="71" x2="399" y1="499.3945" y2="499.3945"/><text fill="#000000" font-family="sans-serif" font-size="14" font-weight="bold" lengthAdjust="spacing" textLength="97" x="76" y="514.9297">ModifiedDate</text><text fill="#000000" font-family="sans-serif" font-size="14" lengthAdjust="spacing" textLength="154" x="240" y="514.9297">2011-04-25 00:00:00</text><line style="stroke:#000000;stroke-width:1.0;" x1="235" x2="235" y1="499.3945" y2="519.8828"/><line style="stroke:#000000;stroke-width:1.0;" x1="71" x2="399" y1="519.8828" y2="519.8828"/><text fill="#000000" font-family="sans-serif" font-size="14" font-weight="bold" lengthAdjust="spacing" textLength="85" x="76" y="535.418">EmployeeID</text><text fill="#000000" font-family="sans-serif" font-size="14" lengthAdjust="spacing" textLength="27" x="240" y="535.418">254</text><line style="stroke:#000000;stroke-width:1.0;" x1="235" x2="235" y1="519.8828" y2="540.3711"/><line style="stroke:#000000;stroke-width:1.0;" x1="71" x2="399" y1="540.3711" y2="540.3711"/><text fill="#000000" font-family="sans-serif" font-size="14" font-weight="bold" lengthAdjust="spacing" textLength="67" x="76" y="555.9063">VendorID</text><text fill="#000000" font-family="sans-serif" font-size="14" lengthAdjust="spacing" textLength="36" x="240" y="555.9063">1496</text><line style="stroke:#000000;stroke-width:1.0;" x1="235" x2="235" y1="540.3711" y2="560.8594"/><line style="stroke:#000000;stroke-width:1.0;" x1="71" x2="399" y1="560.8594" y2="560.8594"/><text fill="#000000" font-family="sans-serif" font-size="14" font-weight="bold" lengthAdjust="spacing" textLength="101" x="76" y="576.3945">ShipMethodID</text><text fill="#000000" font-family="sans-serif" font-size="14" lengthAdjust="spacing" textLength="9" x="240" y="576.3945">5</text><line style="stroke:#000000;stroke-width:1.0;" x1="235" x2="235" y1="560.8594" y2="581.3477"/><line style="stroke:#000000;stroke-width:1.0;" x1="71" x2="399" y1="581.3477" y2="581.3477"/><text fill="#000000" font-family="sans-serif" font-size="14" font-weight="bold" lengthAdjust="spacing" textLength="154" x="76" y="596.8828">SYS_EXEC_DURATION</text><text fill="#000000" font-family="sans-serif" font-size="14" lengthAdjust="spacing" textLength="67" x="240" y="596.8828">0.188739</text><line style="stroke:#000000;stroke-width:1.0;" x1="235" x2="235" y1="581.3477" y2="601.8359"/><rect fill="none" height="286.8359" rx="5" ry="5" style="stroke:#000000;stroke-width:1.5;" width="328" x="71" y="315"/><rect fill="#F1F1F1" height="286.8359" rx="5" ry="5" style="stroke:#F1F1F1;stroke-width:1.5;" width="328" x="71" y="620"/><text fill="#000000" font-family="sans-serif" font-size="14" font-weight="bold" lengthAdjust="spacing" textLength="121" x="76" y="635.5352">PurchaseOrderID</text><text fill="#000000" font-family="sans-serif" font-size="14" lengthAdjust="spacing" textLength="9" x="240" y="635.5352">3</text><line style="stroke:#000000;stroke-width:1.0;" x1="235" x2="235" y1="620" y2="640.4883"/><line style="stroke:#000000;stroke-width:1.0;" x1="71" x2="399" y1="640.4883" y2="640.4883"/><text fill="#000000" font-family="sans-serif" font-size="14" font-weight="bold" lengthAdjust="spacing" textLength="119" x="76" y="656.0234">RevisionNumber</text><text fill="#000000" font-family="sans-serif" font-size="14" lengthAdjust="spacing" textLength="9" x="240" y="656.0234">4</text><line style="stroke:#000000;stroke-width:1.0;" x1="235" x2="235" y1="640.4883" y2="660.9766"/><line style="stroke:#000000;stroke-width:1.0;" x1="71" x2="399" y1="660.9766" y2="660.9766"/><text fill="#000000" font-family="sans-serif" font-size="14" font-weight="bold" lengthAdjust="spacing" textLength="45" x="76" y="676.5117">Status</text><text fill="#000000" font-family="sans-serif" font-size="14" lengthAdjust="spacing" textLength="9" x="240" y="676.5117">4</text><line style="stroke:#000000;stroke-width:1.0;" x1="235" x2="235" y1="660.9766" y2="681.4648"/><line style="stroke:#000000;stroke-width:1.0;" x1="71" x2="399" y1="681.4648" y2="681.4648"/><text fill="#000000" font-family="sans-serif" font-size="14" font-weight="bold" lengthAdjust="spacing" textLength="74" x="76" y="697">OrderDate</text><text fill="#000000" font-family="sans-serif" font-size="14" lengthAdjust="spacing" textLength="154" x="240" y="697">2011-04-16 00:00:00</text><line style="stroke:#000000;stroke-width:1.0;" x1="235" x2="235" y1="681.4648" y2="701.9531"/><line style="stroke:#000000;stroke-width:1.0;" x1="71" x2="399" y1="701.9531" y2="701.9531"/><text fill="#000000" font-family="sans-serif" font-size="14" font-weight="bold" lengthAdjust="spacing" textLength="64" x="76" y="717.4883">ShipDate</text><text fill="#000000" font-family="sans-serif" font-size="14" lengthAdjust="spacing" textLength="154" x="240" y="717.4883">2011-04-25 00:00:00</text><line style="stroke:#000000;stroke-width:1.0;" x1="235" x2="235" y1="701.9531" y2="722.4414"/><line style="stroke:#000000;stroke-width:1.0;" x1="71" x2="399" y1="722.4414" y2="722.4414"/><text fill="#000000" font-family="sans-serif" font-size="14" font-weight="bold" lengthAdjust="spacing" textLength="64" x="76" y="737.9766">SubTotal</text><text fill="#000000" font-family="sans-serif" font-size="14" lengthAdjust="spacing" textLength="76" x="240" y="737.9766">8847.3000</text><line style="stroke:#000000;stroke-width:1.0;" x1="235" x2="235" y1="722.4414" y2="742.9297"/><line style="stroke:#000000;stroke-width:1.0;" x1="71" x2="399" y1="742.9297" y2="742.9297"/><text fill="#000000" font-family="sans-serif" font-size="14" font-weight="bold" lengthAdjust="spacing" textLength="56" x="76" y="758.4648">TaxAmt</text><text fill="#000000" font-family="sans-serif" font-size="14" lengthAdjust="spacing" textLength="67" x="240" y="758.4648">707.7840</text><line style="stroke:#000000;stroke-width:1.0;" x1="235" x2="235" y1="742.9297" y2="763.418"/><line style="stroke:#000000;stroke-width:1.0;" x1="71" x2="399" y1="763.418" y2="763.418"/><text fill="#000000" font-family="sans-serif" font-size="14" font-weight="bold" lengthAdjust="spacing" textLength="51" x="76" y="778.9531">Freight</text><text fill="#000000" font-family="sans-serif" font-size="14" lengthAdjust="spacing" textLength="67" x="240" y="778.9531">221.1825</text><line style="stroke:#000000;stroke-width:1.0;" x1="235" x2="235" y1="763.418" y2="783.9063"/><line style="stroke:#000000;stroke-width:1.0;" x1="71" x2="399" y1="783.9063" y2="783.9063"/><text fill="#000000" font-family="sans-serif" font-size="14" font-weight="bold" lengthAdjust="spacing" textLength="66" x="76" y="799.4414">TotalDue</text><text fill="#000000" font-family="sans-serif" font-size="14" lengthAdjust="spacing" textLength="76" x="240" y="799.4414">9776.2665</text><line style="stroke:#000000;stroke-width:1.0;" x1="235" x2="235" y1="783.9063" y2="804.3945"/><line style="stroke:#000000;stroke-width:1.0;" x1="71" x2="399" y1="804.3945" y2="804.3945"/><text fill="#000000" font-family="sans-serif" font-size="14" font-weight="bold" lengthAdjust="spacing" textLength="97" x="76" y="819.9297">ModifiedDate</text><text fill="#000000" font-family="sans-serif" font-size="14" lengthAdjust="spacing" textLength="154" x="240" y="819.9297">2011-04-25 00:00:00</text><line style="stroke:#000000;stroke-width:1.0;" x1="235" x2="235" y1="804.3945" y2="824.8828"/><line style="stroke:#000000;stroke-width:1.0;" x1="71" x2="399" y1="824.8828" y2="824.8828"/><text fill="#000000" font-family="sans-serif" font-size="14" font-weight="bold" lengthAdjust="spacing" textLength="85" x="76" y="840.418">EmployeeID</text><text fill="#000000" font-family="sans-serif" font-size="14" lengthAdjust="spacing" textLength="27" x="240" y="840.418">257</text><line style="stroke:#000000;stroke-width:1.0;" x1="235" x2="235" y1="824.8828" y2="845.3711"/><line style="stroke:#000000;stroke-width:1.0;" x1="71" x2="399" y1="845.3711" y2="845.3711"/><text fill="#000000" font-family="sans-serif" font-size="14" font-weight="bold" lengthAdjust="spacing" textLength="67" x="76" y="860.9063">VendorID</text><text fill="#000000" font-family="sans-serif" font-size="14" lengthAdjust="spacing" textLength="36" x="240" y="860.9063">1494</text><line style="stroke:#000000;stroke-width:1.0;" x1="235" x2="235" y1="845.3711" y2="865.8594"/><line style="stroke:#000000;stroke-width:1.0;" x1="71" x2="399" y1="865.8594" y2="865.8594"/><text fill="#000000" font-family="sans-serif" font-size="14" font-weight="bold" lengthAdjust="spacing" textLength="101" x="76" y="881.3945">ShipMethodID</text><text fill="#000000" font-family="sans-serif" font-size="14" lengthAdjust="spacing" textLength="9" x="240" y="881.3945">2</text><line style="stroke:#000000;stroke-width:1.0;" x1="235" x2="235" y1="865.8594" y2="886.3477"/><line style="stroke:#000000;stroke-width:1.0;" x1="71" x2="399" y1="886.3477" y2="886.3477"/><text fill="#000000" font-family="sans-serif" font-size="14" font-weight="bold" lengthAdjust="spacing" textLength="154" x="76" y="901.8828">SYS_EXEC_DURATION</text><text fill="#000000" font-family="sans-serif" font-size="14" lengthAdjust="spacing" textLength="67" x="240" y="901.8828">0.188856</text><line style="stroke:#000000;stroke-width:1.0;" x1="235" x2="235" y1="886.3477" y2="906.8359"/><rect fill="none" height="286.8359" rx="5" ry="5" style="stroke:#000000;stroke-width:1.5;" width="328" x="71" y="620"/><rect fill="#F1F1F1" height="286.8359" rx="5" ry="5" style="stroke:#F1F1F1;stroke-width:1.5;" width="328" x="71" y="925"/><text fill="#000000" font-family="sans-serif" font-size="14" font-weight="bold" lengthAdjust="spacing" textLength="121" x="76" y="940.5352">PurchaseOrderID</text><text fill="#000000" font-family="sans-serif" font-size="14" lengthAdjust="spacing" textLength="9" x="240" y="940.5352">4</text><line style="stroke:#000000;stroke-width:1.0;" x1="235" x2="235" y1="925" y2="945.4883"/><line style="stroke:#000000;stroke-width:1.0;" x1="71" x2="399" y1="945.4883" y2="945.4883"/><text fill="#000000" font-family="sans-serif" font-size="14" font-weight="bold" lengthAdjust="spacing" textLength="119" x="76" y="961.0234">RevisionNumber</text><text fill="#000000" font-family="sans-serif" font-size="14" lengthAdjust="spacing" textLength="9" x="240" y="961.0234">4</text><line style="stroke:#000000;stroke-width:1.0;" x1="235" x2="235" y1="945.4883" y2="965.9766"/><line style="stroke:#000000;stroke-width:1.0;" x1="71" x2="399" y1="965.9766" y2="965.9766"/><text fill="#000000" font-family="sans-serif" font-size="14" font-weight="bold" lengthAdjust="spacing" textLength="45" x="76" y="981.5117">Status</text><text fill="#000000" font-family="sans-serif" font-size="14" lengthAdjust="spacing" textLength="9" x="240" y="981.5117">3</text><line style="stroke:#000000;stroke-width:1.0;" x1="235" x2="235" y1="965.9766" y2="986.4648"/><line style="stroke:#000000;stroke-width:1.0;" x1="71" x2="399" y1="986.4648" y2="986.4648"/><text fill="#000000" font-family="sans-serif" font-size="14" font-weight="bold" lengthAdjust="spacing" textLength="74" x="76" y="1002">OrderDate</text><text fill="#000000" font-family="sans-serif" font-size="14" lengthAdjust="spacing" textLength="154" x="240" y="1002">2011-04-16 00:00:00</text><line style="stroke:#000000;stroke-width:1.0;" x1="235" x2="235" y1="986.4648" y2="1006.9531"/><line style="stroke:#000000;stroke-width:1.0;" x1="71" x2="399" y1="1006.9531" y2="1006.9531"/><text fill="#000000" font-family="sans-serif" font-size="14" font-weight="bold" lengthAdjust="spacing" textLength="64" x="76" y="1022.4883">ShipDate</text><text fill="#000000" font-family="sans-serif" font-size="14" lengthAdjust="spacing" textLength="154" x="240" y="1022.4883">2011-04-25 00:00:00</text><line style="stroke:#000000;stroke-width:1.0;" x1="235" x2="235" y1="1006.9531" y2="1027.4414"/><line style="stroke:#000000;stroke-width:1.0;" x1="71" x2="399" y1="1027.4414" y2="1027.4414"/><text fill="#000000" font-family="sans-serif" font-size="14" font-weight="bold" lengthAdjust="spacing" textLength="64" x="76" y="1042.9766">SubTotal</text><text fill="#000000" font-family="sans-serif" font-size="14" lengthAdjust="spacing" textLength="67" x="240" y="1042.9766">171.0765</text><line style="stroke:#000000;stroke-width:1.0;" x1="235" x2="235" y1="1027.4414" y2="1047.9297"/><line style="stroke:#000000;stroke-width:1.0;" x1="71" x2="399" y1="1047.9297" y2="1047.9297"/><text fill="#000000" font-family="sans-serif" font-size="14" font-weight="bold" lengthAdjust="spacing" textLength="56" x="76" y="1063.4648">TaxAmt</text><text fill="#000000" font-family="sans-serif" font-size="14" lengthAdjust="spacing" textLength="58" x="240" y="1063.4648">13.6861</text><line style="stroke:#000000;stroke-width:1.0;" x1="235" x2="235" y1="1047.9297" y2="1068.418"/><line style="stroke:#000000;stroke-width:1.0;" x1="71" x2="399" y1="1068.418" y2="1068.418"/><text fill="#000000" font-family="sans-serif" font-size="14" font-weight="bold" lengthAdjust="spacing" textLength="51" x="76" y="1083.9531">Freight</text><text fill="#000000" font-family="sans-serif" font-size="14" lengthAdjust="spacing" textLength="49" x="240" y="1083.9531">4.2769</text><line style="stroke:#000000;stroke-width:1.0;" x1="235" x2="235" y1="1068.418" y2="1088.9063"/><line style="stroke:#000000;stroke-width:1.0;" x1="71" x2="399" y1="1088.9063" y2="1088.9063"/><text fill="#000000" font-family="sans-serif" font-size="14" font-weight="bold" lengthAdjust="spacing" textLength="66" x="76" y="1104.4414">TotalDue</text><text fill="#000000" font-family="sans-serif" font-size="14" lengthAdjust="spacing" textLength="67" x="240" y="1104.4414">189.0395</text><line style="stroke:#000000;stroke-width:1.0;" x1="235" x2="235" y1="1088.9063" y2="1109.3945"/><line style="stroke:#000000;stroke-width:1.0;" x1="71" x2="399" y1="1109.3945" y2="1109.3945"/><text fill="#000000" font-family="sans-serif" font-size="14" font-weight="bold" lengthAdjust="spacing" textLength="97" x="76" y="1124.9297">ModifiedDate</text><text fill="#000000" font-family="sans-serif" font-size="14" lengthAdjust="spacing" textLength="154" x="240" y="1124.9297">2011-04-25 00:00:00</text><line style="stroke:#000000;stroke-width:1.0;" x1="235" x2="235" y1="1109.3945" y2="1129.8828"/><line style="stroke:#000000;stroke-width:1.0;" x1="71" x2="399" y1="1129.8828" y2="1129.8828"/><text fill="#000000" font-family="sans-serif" font-size="14" font-weight="bold" lengthAdjust="spacing" textLength="85" x="76" y="1145.418">EmployeeID</text><text fill="#000000" font-family="sans-serif" font-size="14" lengthAdjust="spacing" textLength="27" x="240" y="1145.418">261</text><line style="stroke:#000000;stroke-width:1.0;" x1="235" x2="235" y1="1129.8828" y2="1150.3711"/><line style="stroke:#000000;stroke-width:1.0;" x1="71" x2="399" y1="1150.3711" y2="1150.3711"/><text fill="#000000" font-family="sans-serif" font-size="14" font-weight="bold" lengthAdjust="spacing" textLength="67" x="76" y="1165.9063">VendorID</text><text fill="#000000" font-family="sans-serif" font-size="14" lengthAdjust="spacing" textLength="36" x="240" y="1165.9063">1650</text><line style="stroke:#000000;stroke-width:1.0;" x1="235" x2="235" y1="1150.3711" y2="1170.8594"/><line style="stroke:#000000;stroke-width:1.0;" x1="71" x2="399" y1="1170.8594" y2="1170.8594"/><text fill="#000000" font-family="sans-serif" font-size="14" font-weight="bold" lengthAdjust="spacing" textLength="101" x="76" y="1186.3945">ShipMethodID</text><text fill="#000000" font-family="sans-serif" font-size="14" lengthAdjust="spacing" textLength="9" x="240" y="1186.3945">5</text><line style="stroke:#000000;stroke-width:1.0;" x1="235" x2="235" y1="1170.8594" y2="1191.3477"/><line style="stroke:#000000;stroke-width:1.0;" x1="71" x2="399" y1="1191.3477" y2="1191.3477"/><text fill="#000000" font-family="sans-serif" font-size="14" font-weight="bold" lengthAdjust="spacing" textLength="154" x="76" y="1206.8828">SYS_EXEC_DURATION</text><text fill="#000000" font-family="sans-serif" font-size="14" lengthAdjust="spacing" textLength="67" x="240" y="1206.8828">0.188967</text><line style="stroke:#000000;stroke-width:1.0;" x1="235" x2="235" y1="1191.3477" y2="1211.8359"/><rect fill="none" height="286.8359" rx="5" ry="5" style="stroke:#000000;stroke-width:1.5;" width="328" x="71" y="925"/><rect fill="#F1F1F1" height="286.8359" rx="5" ry="5" style="stroke:#F1F1F1;stroke-width:1.5;" width="328" x="71" y="1230"/><text fill="#000000" font-family="sans-serif" font-size="14" font-weight="bold" lengthAdjust="spacing" textLength="121" x="76" y="1245.5352">PurchaseOrderID</text><text fill="#000000" font-family="sans-serif" font-size="14" lengthAdjust="spacing" textLength="9" x="240" y="1245.5352">5</text><line style="stroke:#000000;stroke-width:1.0;" x1="235" x2="235" y1="1230" y2="1250.4883"/><line style="stroke:#000000;stroke-width:1.0;" x1="71" x2="399" y1="1250.4883" y2="1250.4883"/><text fill="#000000" font-family="sans-serif" font-size="14" font-weight="bold" lengthAdjust="spacing" textLength="119" x="76" y="1266.0234">RevisionNumber</text><text fill="#000000" font-family="sans-serif" font-size="14" lengthAdjust="spacing" textLength="9" x="240" y="1266.0234">4</text><line style="stroke:#000000;stroke-width:1.0;" x1="235" x2="235" y1="1250.4883" y2="1270.9766"/><line style="stroke:#000000;stroke-width:1.0;" x1="71" x2="399" y1="1270.9766" y2="1270.9766"/><text fill="#000000" font-family="sans-serif" font-size="14" font-weight="bold" lengthAdjust="spacing" textLength="45" x="76" y="1286.5117">Status</text><text fill="#000000" font-family="sans-serif" font-size="14" lengthAdjust="spacing" textLength="9" x="240" y="1286.5117">4</text><line style="stroke:#000000;stroke-width:1.0;" x1="235" x2="235" y1="1270.9766" y2="1291.4648"/><line style="stroke:#000000;stroke-width:1.0;" x1="71" x2="399" y1="1291.4648" y2="1291.4648"/><text fill="#000000" font-family="sans-serif" font-size="14" font-weight="bold" lengthAdjust="spacing" textLength="74" x="76" y="1307">OrderDate</text><text fill="#000000" font-family="sans-serif" font-size="14" lengthAdjust="spacing" textLength="154" x="240" y="1307">2011-04-30 00:00:00</text><line style="stroke:#000000;stroke-width:1.0;" x1="235" x2="235" y1="1291.4648" y2="1311.9531"/><line style="stroke:#000000;stroke-width:1.0;" x1="71" x2="399" y1="1311.9531" y2="1311.9531"/><text fill="#000000" font-family="sans-serif" font-size="14" font-weight="bold" lengthAdjust="spacing" textLength="64" x="76" y="1327.4883">ShipDate</text><text fill="#000000" font-family="sans-serif" font-size="14" lengthAdjust="spacing" textLength="154" x="240" y="1327.4883">2011-05-09 00:00:00</text><line style="stroke:#000000;stroke-width:1.0;" x1="235" x2="235" y1="1311.9531" y2="1332.4414"/><line style="stroke:#000000;stroke-width:1.0;" x1="71" x2="399" y1="1332.4414" y2="1332.4414"/><text fill="#000000" font-family="sans-serif" font-size="14" font-weight="bold" lengthAdjust="spacing" textLength="64" x="76" y="1347.9766">SubTotal</text><text fill="#000000" font-family="sans-serif" font-size="14" lengthAdjust="spacing" textLength="85" x="240" y="1347.9766">20397.3000</text><line style="stroke:#000000;stroke-width:1.0;" x1="235" x2="235" y1="1332.4414" y2="1352.9297"/><line style="stroke:#000000;stroke-width:1.0;" x1="71" x2="399" y1="1352.9297" y2="1352.9297"/><text fill="#000000" font-family="sans-serif" font-size="14" font-weight="bold" lengthAdjust="spacing" textLength="56" x="76" y="1368.4648">TaxAmt</text><text fill="#000000" font-family="sans-serif" font-size="14" lengthAdjust="spacing" textLength="76" x="240" y="1368.4648">1631.7840</text><line style="stroke:#000000;stroke-width:1.0;" x1="235" x2="235" y1="1352.9297" y2="1373.418"/><line style="stroke:#000000;stroke-width:1.0;" x1="71" x2="399" y1="1373.418" y2="1373.418"/><text fill="#000000" font-family="sans-serif" font-size="14" font-weight="bold" lengthAdjust="spacing" textLength="51" x="76" y="1388.9531">Freight</text><text fill="#000000" font-family="sans-serif" font-size="14" lengthAdjust="spacing" textLength="67" x="240" y="1388.9531">509.9325</text><line style="stroke:#000000;stroke-width:1.0;" x1="235" x2="235" y1="1373.418" y2="1393.9063"/><line style="stroke:#000000;stroke-width:1.0;" x1="71" x2="399" y1="1393.9063" y2="1393.9063"/><text fill="#000000" font-family="sans-serif" font-size="14" font-weight="bold" lengthAdjust="spacing" textLength="66" x="76" y="1409.4414">TotalDue</text><text fill="#000000" font-family="sans-serif" font-size="14" lengthAdjust="spacing" textLength="85" x="240" y="1409.4414">22539.0165</text><line style="stroke:#000000;stroke-width:1.0;" x1="235" x2="235" y1="1393.9063" y2="1414.3945"/><line style="stroke:#000000;stroke-width:1.0;" x1="71" x2="399" y1="1414.3945" y2="1414.3945"/><text fill="#000000" font-family="sans-serif" font-size="14" font-weight="bold" lengthAdjust="spacing" textLength="97" x="76" y="1429.9297">ModifiedDate</text><text fill="#000000" font-family="sans-serif" font-size="14" lengthAdjust="spacing" textLength="154" x="240" y="1429.9297">2011-05-09 00:00:00</text><line style="stroke:#000000;stroke-width:1.0;" x1="235" x2="235" y1="1414.3945" y2="1434.8828"/><line style="stroke:#000000;stroke-width:1.0;" x1="71" x2="399" y1="1434.8828" y2="1434.8828"/><text fill="#000000" font-family="sans-serif" font-size="14" font-weight="bold" lengthAdjust="spacing" textLength="85" x="76" y="1450.418">EmployeeID</text><text fill="#000000" font-family="sans-serif" font-size="14" lengthAdjust="spacing" textLength="27" x="240" y="1450.418">251</text><line style="stroke:#000000;stroke-width:1.0;" x1="235" x2="235" y1="1434.8828" y2="1455.3711"/><line style="stroke:#000000;stroke-width:1.0;" x1="71" x2="399" y1="1455.3711" y2="1455.3711"/><text fill="#000000" font-family="sans-serif" font-size="14" font-weight="bold" lengthAdjust="spacing" textLength="67" x="76" y="1470.9063">VendorID</text><text fill="#000000" font-family="sans-serif" font-size="14" lengthAdjust="spacing" textLength="36" x="240" y="1470.9063">1654</text><line style="stroke:#000000;stroke-width:1.0;" x1="235" x2="235" y1="1455.3711" y2="1475.8594"/><line style="stroke:#000000;stroke-width:1.0;" x1="71" x2="399" y1="1475.8594" y2="1475.8594"/><text fill="#000000" font-family="sans-serif" font-size="14" font-weight="bold" lengthAdjust="spacing" textLength="101" x="76" y="1491.3945">ShipMethodID</text><text fill="#000000" font-family="sans-serif" font-size="14" lengthAdjust="spacing" textLength="9" x="240" y="1491.3945">4</text><line style="stroke:#000000;stroke-width:1.0;" x1="235" x2="235" y1="1475.8594" y2="1496.3477"/><line style="stroke:#000000;stroke-width:1.0;" x1="71" x2="399" y1="1496.3477" y2="1496.3477"/><text fill="#000000" font-family="sans-serif" font-size="14" font-weight="bold" lengthAdjust="spacing" textLength="154" x="76" y="1511.8828">SYS_EXEC_DURATION</text><text fill="#000000" font-family="sans-serif" font-size="14" lengthAdjust="spacing" textLength="67" x="240" y="1511.8828">0.189112</text><line style="stroke:#000000;stroke-width:1.0;" x1="235" x2="235" y1="1496.3477" y2="1516.8359"/><rect fill="none" height="286.8359" rx="5" ry="5" style="stroke:#000000;stroke-width:1.5;" width="328" x="71" y="1230"/><path d="M22.5,725.5 L22.5,712.5 C22.5,621.4157 29.7314,386.6989 71,305.5 C71.3169,304.8765 71.6375,304.2542 71.9616,303.6331 " fill="none" style="stroke:#000000;stroke-width:1.0;stroke-dasharray:3.0,3.0;"/><path d="M74.6038,305.0761 L73.0438,301.6515 L69.3194,302.1902 L75.569,297.0276 L74.6038,305.0761 " fill="#000000" style="stroke:#000000;stroke-width:1.0;"/><ellipse cx="22.5" cy="725.5" fill="#000000" rx="3" ry="3" style="stroke:#000000;stroke-width:1.0;"/><path d="M22,743.5 L35,743.5 C96.2383,743.5 39.3532,662.9271 71,610.5 C71.3724,609.883 71.748,609.267 72.1268,608.652 " fill="none" style="stroke:#000000;stroke-width:1.0;stroke-dasharray:3.0,3.0;"/><path d="M74.7477,610.3223 L73.3796,606.6864 L69.506,606.9817 L76.3026,602.0999 L74.7477,610.3223 " fill="#000000" style="stroke:#000000;stroke-width:1.0;"/><ellipse cx="22" cy="743.5" fill="#000000" rx="3" ry="3" style="stroke:#000000;stroke-width:1.0;"/><path d="M22,763.5 L35,763.5 C44.453,763.5 54.158,763.5 63.9538,763.5 " fill="none" style="stroke:#000000;stroke-width:1.0;stroke-dasharray:3.0,3.0;"/><path d="M63.9538,766.5024 L66.2056,763.5 L63.9538,760.4976 L71.4597,763.5 L63.9538,766.5024 " fill="#000000" style="stroke:#000000;stroke-width:1.0;"/><ellipse cx="22" cy="763.5" fill="#000000" rx="3" ry="3" style="stroke:#000000;stroke-width:1.0;"/><path d="M22,784.5 L35,784.5 C95.8094,784.5 39.5252,864.4701 71,916.5 C71.373,917.1166 71.7492,917.7323 72.1286,918.347 " fill="none" style="stroke:#000000;stroke-width:1.0;stroke-dasharray:3.0,3.0;"/><path d="M69.5091,920.0196 L73.383,920.3115 L74.748,916.6743 L76.3102,924.8955 L69.5091,920.0196 " fill="#000000" style="stroke:#000000;stroke-width:1.0;"/><ellipse cx="22" cy="784.5" fill="#000000" rx="3" ry="3" style="stroke:#000000;stroke-width:1.0;"/><path d="M22.5,803.5 L22.5,816.5 C22.5,907.143 29.9079,1140.7064 71,1221.5 C71.3171,1222.1234 71.6378,1222.7456 71.9622,1223.3666 " fill="none" style="stroke:#000000;stroke-width:1.0;stroke-dasharray:3.0,3.0;"/><path d="M69.3203,1224.8103 L73.0449,1225.348 L74.604,1221.9229 L75.5713,1229.9712 L69.3203,1224.8103 " fill="#000000" style="stroke:#000000;stroke-width:1.0;"/><ellipse cx="22.5" cy="803.5" fill="#000000" rx="3" ry="3" style="stroke:#000000;stroke-width:1.0;"/><!--MD5=[8176454d6fa24c07bc296195aba7b686]
@startjson
[
    {
        "PurchaseOrderID": 1,
        "RevisionNumber": 4,
        "Status": 4,
        "OrderDate": "2011-04-16 00:00:00",
        "ShipDate": "2011-04-25 00:00:00",
        "SubTotal": "201.0400",
        "TaxAmt": "16.0832",
        "Freight": "5.0260",
        "TotalDue": "222.1492",
        "ModifiedDate": "2011-04-25 00:00:00",
        "EmployeeID": 258,
        "VendorID": 1580,
        "ShipMethodID": 3,
        "SYS_EXEC_DURATION": "0.188533"
    },
    {
        "PurchaseOrderID": 2,
        "RevisionNumber": 4,
        "Status": 1,
        "OrderDate": "2011-04-16 00:00:00",
        "ShipDate": "2011-04-25 00:00:00",
        "SubTotal": "272.1015",
        "TaxAmt": "21.7681",
        "Freight": "6.8025",
        "TotalDue": "300.6721",
        "ModifiedDate": "2011-04-25 00:00:00",
        "EmployeeID": 254,
        "VendorID": 1496,
        "ShipMethodID": 5,
        "SYS_EXEC_DURATION": "0.188739"
    },
    {
        "PurchaseOrderID": 3,
        "RevisionNumber": 4,
        "Status": 4,
        "OrderDate": "2011-04-16 00:00:00",
        "ShipDate": "2011-04-25 00:00:00",
        "SubTotal": "8847.3000",
        "TaxAmt": "707.7840",
        "Freight": "221.1825",
        "TotalDue": "9776.2665",
        "ModifiedDate": "2011-04-25 00:00:00",
        "EmployeeID": 257,
        "VendorID": 1494,
        "ShipMethodID": 2,
        "SYS_EXEC_DURATION": "0.188856"
    },
    {
        "PurchaseOrderID": 4,
        "RevisionNumber": 4,
        "Status": 3,
        "OrderDate": "2011-04-16 00:00:00",
        "ShipDate": "2011-04-25 00:00:00",
        "SubTotal": "171.0765",
        "TaxAmt": "13.6861",
        "Freight": "4.2769",
        "TotalDue": "189.0395",
        "ModifiedDate": "2011-04-25 00:00:00",
        "EmployeeID": 261,
        "VendorID": 1650,
        "ShipMethodID": 5,
        "SYS_EXEC_DURATION": "0.188967"
    },
    {
        "PurchaseOrderID": 5,
        "RevisionNumber": 4,
        "Status": 4,
        "OrderDate": "2011-04-30 00:00:00",
        "ShipDate": "2011-05-09 00:00:00",
        "SubTotal": "20397.3000",
        "TaxAmt": "1631.7840",
        "Freight": "509.9325",
        "TotalDue": "22539.0165",
        "ModifiedDate": "2011-05-09 00:00:00",
        "EmployeeID": 251,
        "VendorID": 1654,
        "ShipMethodID": 4,
        "SYS_EXEC_DURATION": "0.189112"
    }
]
@endjson

PlantUML version 1.2022.5(Sat Apr 30 06:55:52 EDT 2022)
(GPL source distribution)
Java Runtime: OpenJDK Runtime Environment
JVM: OpenJDK 64-Bit Server VM
Default Encoding: UTF-8
Language: en
Country: CA
--></g></svg>