<?xml version="1.0" encoding="UTF-8" standalone="no"?><svg xmlns="http://www.w3.org/2000/svg" xmlns:xlink="http://www.w3.org/1999/xlink" contentStyleType="text/css" height="1323px" preserveAspectRatio="none" style="width:579px;height:1323px;background:#FFFFFF;" version="1.1" viewBox="0 0 579 1323" width="579px" zoomAndPan="magnify"><defs/><g><rect fill="#F1F1F1" height="102.4414" rx="5" ry="5" style="stroke:#F1F1F1;stroke-width:1.5;" width="22" x="10" y="611"/><text fill="#000000" font-family="sans-serif" font-size="14" lengthAdjust="spacing" textLength="12" x="15" y="626.5352">   </text><line style="stroke:#000000;stroke-width:1.0;" x1="10" x2="32" y1="631.4883" y2="631.4883"/><text fill="#000000" font-family="sans-serif" font-size="14" lengthAdjust="spacing" textLength="12" x="15" y="647.0234">   </text><line style="stroke:#000000;stroke-width:1.0;" x1="10" x2="32" y1="651.9766" y2="651.9766"/><text fill="#000000" font-family="sans-serif" font-size="14" lengthAdjust="spacing" textLength="12" x="15" y="667.5117">   </text><line style="stroke:#000000;stroke-width:1.0;" x1="10" x2="32" y1="672.4648" y2="672.4648"/><text fill="#000000" font-family="sans-serif" font-size="14" lengthAdjust="spacing" textLength="12" x="15" y="688">   </text><line style="stroke:#000000;stroke-width:1.0;" x1="10" x2="32" y1="692.9531" y2="692.9531"/><text fill="#000000" font-family="sans-serif" font-size="14" lengthAdjust="spacing" textLength="12" x="15" y="708.4883">   </text><rect fill="none" height="102.4414" rx="5" ry="5" style="stroke:#000000;stroke-width:1.5;" width="22" x="10" y="611"/><rect fill="#F1F1F1" height="245.8594" rx="5" ry="5" style="stroke:#F1F1F1;stroke-width:1.5;" width="493" x="72.5" y="10"/><text fill="#000000" font-family="sans-serif" font-size="14" font-weight="bold" lengthAdjust="spacing" textLength="104" x="77.5" y="25.5352">SpecialOfferID</text><text fill="#000000" font-family="sans-serif" font-size="14" lengthAdjust="spacing" textLength="9" x="241.5" y="25.5352">1</text><line style="stroke:#000000;stroke-width:1.0;" x1="236.5" x2="236.5" y1="10" y2="30.4883"/><line style="stroke:#000000;stroke-width:1.0;" x1="72.5" x2="565.5" y1="30.4883" y2="30.4883"/><text fill="#000000" font-family="sans-serif" font-size="14" font-weight="bold" lengthAdjust="spacing" textLength="83" x="77.5" y="46.0234">Description</text><text fill="#000000" font-family="sans-serif" font-size="14" lengthAdjust="spacing" textLength="83" x="241.5" y="46.0234">No Discount</text><line style="stroke:#000000;stroke-width:1.0;" x1="236.5" x2="236.5" y1="30.4883" y2="50.9766"/><line style="stroke:#000000;stroke-width:1.0;" x1="72.5" x2="565.5" y1="50.9766" y2="50.9766"/><text fill="#000000" font-family="sans-serif" font-size="14" font-weight="bold" lengthAdjust="spacing" textLength="86" x="77.5" y="66.5117">DiscountPct</text><text fill="#000000" font-family="sans-serif" font-size="14" lengthAdjust="spacing" textLength="49" x="241.5" y="66.5117">0.0000</text><line style="stroke:#000000;stroke-width:1.0;" x1="236.5" x2="236.5" y1="50.9766" y2="71.4648"/><line style="stroke:#000000;stroke-width:1.0;" x1="72.5" x2="565.5" y1="71.4648" y2="71.4648"/><text fill="#000000" font-family="sans-serif" font-size="14" font-weight="bold" lengthAdjust="spacing" textLength="35" x="77.5" y="87">Type</text><text fill="#000000" font-family="sans-serif" font-size="14" lengthAdjust="spacing" textLength="83" x="241.5" y="87">No Discount</text><line style="stroke:#000000;stroke-width:1.0;" x1="236.5" x2="236.5" y1="71.4648" y2="91.9531"/><line style="stroke:#000000;stroke-width:1.0;" x1="72.5" x2="565.5" y1="91.9531" y2="91.9531"/><text fill="#000000" font-family="sans-serif" font-size="14" font-weight="bold" lengthAdjust="spacing" textLength="64" x="77.5" y="107.4883">Category</text><text fill="#000000" font-family="sans-serif" font-size="14" lengthAdjust="spacing" textLength="83" x="241.5" y="107.4883">No Discount</text><line style="stroke:#000000;stroke-width:1.0;" x1="236.5" x2="236.5" y1="91.9531" y2="112.4414"/><line style="stroke:#000000;stroke-width:1.0;" x1="72.5" x2="565.5" y1="112.4414" y2="112.4414"/><text fill="#000000" font-family="sans-serif" font-size="14" font-weight="bold" lengthAdjust="spacing" textLength="67" x="77.5" y="127.9766">StartDate</text><text fill="#000000" font-family="sans-serif" font-size="14" lengthAdjust="spacing" textLength="154" x="241.5" y="127.9766">2011-05-01 00:00:00</text><line style="stroke:#000000;stroke-width:1.0;" x1="236.5" x2="236.5" y1="112.4414" y2="132.9297"/><line style="stroke:#000000;stroke-width:1.0;" x1="72.5" x2="565.5" y1="132.9297" y2="132.9297"/><text fill="#000000" font-family="sans-serif" font-size="14" font-weight="bold" lengthAdjust="spacing" textLength="59" x="77.5" y="148.4648">EndDate</text><text fill="#000000" font-family="sans-serif" font-size="14" lengthAdjust="spacing" textLength="154" x="241.5" y="148.4648">2014-11-30 00:00:00</text><line style="stroke:#000000;stroke-width:1.0;" x1="236.5" x2="236.5" y1="132.9297" y2="153.418"/><line style="stroke:#000000;stroke-width:1.0;" x1="72.5" x2="565.5" y1="153.418" y2="153.418"/><text fill="#000000" font-family="sans-serif" font-size="14" font-weight="bold" lengthAdjust="spacing" textLength="53" x="77.5" y="168.9531">MinQty</text><text fill="#000000" font-family="sans-serif" font-size="14" lengthAdjust="spacing" textLength="9" x="241.5" y="168.9531">0</text><line style="stroke:#000000;stroke-width:1.0;" x1="236.5" x2="236.5" y1="153.418" y2="173.9063"/><line style="stroke:#000000;stroke-width:1.0;" x1="72.5" x2="565.5" y1="173.9063" y2="173.9063"/><text fill="#000000" font-family="sans-serif" font-size="14" font-weight="bold" lengthAdjust="spacing" textLength="55" x="77.5" y="189.4414">MaxQty</text><text fill="#000000" font-family="sans-serif" font-size="14" lengthAdjust="spacing" textLength="14" x="241.5" y="189.4414">␀</text><line style="stroke:#000000;stroke-width:1.0;" x1="236.5" x2="236.5" y1="173.9063" y2="194.3945"/><line style="stroke:#000000;stroke-width:1.0;" x1="72.5" x2="565.5" y1="194.3945" y2="194.3945"/><text fill="#000000" font-family="sans-serif" font-size="14" font-weight="bold" lengthAdjust="spacing" textLength="59" x="77.5" y="209.9297">rowguid</text><text fill="#000000" font-family="sans-serif" font-size="14" lengthAdjust="spacing" textLength="319" x="241.5" y="209.9297">0290C4F5-191F-4337-AB6B-0A2DDE03CBF9</text><line style="stroke:#000000;stroke-width:1.0;" x1="236.5" x2="236.5" y1="194.3945" y2="214.8828"/><line style="stroke:#000000;stroke-width:1.0;" x1="72.5" x2="565.5" y1="214.8828" y2="214.8828"/><text fill="#000000" font-family="sans-serif" font-size="14" font-weight="bold" lengthAdjust="spacing" textLength="97" x="77.5" y="230.418">ModifiedDate</text><text fill="#000000" font-family="sans-serif" font-size="14" lengthAdjust="spacing" textLength="154" x="241.5" y="230.418">2011-04-01 00:00:00</text><line style="stroke:#000000;stroke-width:1.0;" x1="236.5" x2="236.5" y1="214.8828" y2="235.3711"/><line style="stroke:#000000;stroke-width:1.0;" x1="72.5" x2="565.5" y1="235.3711" y2="235.3711"/><text fill="#000000" font-family="sans-serif" font-size="14" font-weight="bold" lengthAdjust="spacing" textLength="154" x="77.5" y="250.9063">SYS_EXEC_DURATION</text><text fill="#000000" font-family="sans-serif" font-size="14" lengthAdjust="spacing" textLength="58" x="241.5" y="250.9063">0.21374</text><line style="stroke:#000000;stroke-width:1.0;" x1="236.5" x2="236.5" y1="235.3711" y2="255.8594"/><rect fill="none" height="245.8594" rx="5" ry="5" style="stroke:#000000;stroke-width:1.5;" width="493" x="72.5" y="10"/><rect fill="#F1F1F1" height="245.8594" rx="5" ry="5" style="stroke:#F1F1F1;stroke-width:1.5;" width="496" x="71" y="274"/><text fill="#000000" font-family="sans-serif" font-size="14" font-weight="bold" lengthAdjust="spacing" textLength="104" x="76" y="289.5352">SpecialOfferID</text><text fill="#000000" font-family="sans-serif" font-size="14" lengthAdjust="spacing" textLength="9" x="240" y="289.5352">2</text><line style="stroke:#000000;stroke-width:1.0;" x1="235" x2="235" y1="274" y2="294.4883"/><line style="stroke:#000000;stroke-width:1.0;" x1="71" x2="567" y1="294.4883" y2="294.4883"/><text fill="#000000" font-family="sans-serif" font-size="14" font-weight="bold" lengthAdjust="spacing" textLength="83" x="76" y="310.0234">Description</text><text fill="#000000" font-family="sans-serif" font-size="14" lengthAdjust="spacing" textLength="178" x="240" y="310.0234">Volume Discount 11 to 14</text><line style="stroke:#000000;stroke-width:1.0;" x1="235" x2="235" y1="294.4883" y2="314.9766"/><line style="stroke:#000000;stroke-width:1.0;" x1="71" x2="567" y1="314.9766" y2="314.9766"/><text fill="#000000" font-family="sans-serif" font-size="14" font-weight="bold" lengthAdjust="spacing" textLength="86" x="76" y="330.5117">DiscountPct</text><text fill="#000000" font-family="sans-serif" font-size="14" lengthAdjust="spacing" textLength="49" x="240" y="330.5117">0.0200</text><line style="stroke:#000000;stroke-width:1.0;" x1="235" x2="235" y1="314.9766" y2="335.4648"/><line style="stroke:#000000;stroke-width:1.0;" x1="71" x2="567" y1="335.4648" y2="335.4648"/><text fill="#000000" font-family="sans-serif" font-size="14" font-weight="bold" lengthAdjust="spacing" textLength="35" x="76" y="351">Type</text><text fill="#000000" font-family="sans-serif" font-size="14" lengthAdjust="spacing" textLength="116" x="240" y="351">Volume Discount</text><line style="stroke:#000000;stroke-width:1.0;" x1="235" x2="235" y1="335.4648" y2="355.9531"/><line style="stroke:#000000;stroke-width:1.0;" x1="71" x2="567" y1="355.9531" y2="355.9531"/><text fill="#000000" font-family="sans-serif" font-size="14" font-weight="bold" lengthAdjust="spacing" textLength="64" x="76" y="371.4883">Category</text><text fill="#000000" font-family="sans-serif" font-size="14" lengthAdjust="spacing" textLength="54" x="240" y="371.4883">Reseller</text><line style="stroke:#000000;stroke-width:1.0;" x1="235" x2="235" y1="355.9531" y2="376.4414"/><line style="stroke:#000000;stroke-width:1.0;" x1="71" x2="567" y1="376.4414" y2="376.4414"/><text fill="#000000" font-family="sans-serif" font-size="14" font-weight="bold" lengthAdjust="spacing" textLength="67" x="76" y="391.9766">StartDate</text><text fill="#000000" font-family="sans-serif" font-size="14" lengthAdjust="spacing" textLength="154" x="240" y="391.9766">2011-05-31 00:00:00</text><line style="stroke:#000000;stroke-width:1.0;" x1="235" x2="235" y1="376.4414" y2="396.9297"/><line style="stroke:#000000;stroke-width:1.0;" x1="71" x2="567" y1="396.9297" y2="396.9297"/><text fill="#000000" font-family="sans-serif" font-size="14" font-weight="bold" lengthAdjust="spacing" textLength="59" x="76" y="412.4648">EndDate</text><text fill="#000000" font-family="sans-serif" font-size="14" lengthAdjust="spacing" textLength="154" x="240" y="412.4648">2014-05-30 00:00:00</text><line style="stroke:#000000;stroke-width:1.0;" x1="235" x2="235" y1="396.9297" y2="417.418"/><line style="stroke:#000000;stroke-width:1.0;" x1="71" x2="567" y1="417.418" y2="417.418"/><text fill="#000000" font-family="sans-serif" font-size="14" font-weight="bold" lengthAdjust="spacing" textLength="53" x="76" y="432.9531">MinQty</text><text fill="#000000" font-family="sans-serif" font-size="14" lengthAdjust="spacing" textLength="18" x="240" y="432.9531">11</text><line style="stroke:#000000;stroke-width:1.0;" x1="235" x2="235" y1="417.418" y2="437.9063"/><line style="stroke:#000000;stroke-width:1.0;" x1="71" x2="567" y1="437.9063" y2="437.9063"/><text fill="#000000" font-family="sans-serif" font-size="14" font-weight="bold" lengthAdjust="spacing" textLength="55" x="76" y="453.4414">MaxQty</text><text fill="#000000" font-family="sans-serif" font-size="14" lengthAdjust="spacing" textLength="18" x="240" y="453.4414">14</text><line style="stroke:#000000;stroke-width:1.0;" x1="235" x2="235" y1="437.9063" y2="458.3945"/><line style="stroke:#000000;stroke-width:1.0;" x1="71" x2="567" y1="458.3945" y2="458.3945"/><text fill="#000000" font-family="sans-serif" font-size="14" font-weight="bold" lengthAdjust="spacing" textLength="59" x="76" y="473.9297">rowguid</text><text fill="#000000" font-family="sans-serif" font-size="14" lengthAdjust="spacing" textLength="322" x="240" y="473.9297">D7542EE7-15DB-4541-985C-5CC27AEF26D6</text><line style="stroke:#000000;stroke-width:1.0;" x1="235" x2="235" y1="458.3945" y2="478.8828"/><line style="stroke:#000000;stroke-width:1.0;" x1="71" x2="567" y1="478.8828" y2="478.8828"/><text fill="#000000" font-family="sans-serif" font-size="14" font-weight="bold" lengthAdjust="spacing" textLength="97" x="76" y="494.418">ModifiedDate</text><text fill="#000000" font-family="sans-serif" font-size="14" lengthAdjust="spacing" textLength="154" x="240" y="494.418">2011-05-01 00:00:00</text><line style="stroke:#000000;stroke-width:1.0;" x1="235" x2="235" y1="478.8828" y2="499.3711"/><line style="stroke:#000000;stroke-width:1.0;" x1="71" x2="567" y1="499.3711" y2="499.3711"/><text fill="#000000" font-family="sans-serif" font-size="14" font-weight="bold" lengthAdjust="spacing" textLength="154" x="76" y="514.9063">SYS_EXEC_DURATION</text><text fill="#000000" font-family="sans-serif" font-size="14" lengthAdjust="spacing" textLength="67" x="240" y="514.9063">0.213958</text><line style="stroke:#000000;stroke-width:1.0;" x1="235" x2="235" y1="499.3711" y2="519.8594"/><rect fill="none" height="245.8594" rx="5" ry="5" style="stroke:#000000;stroke-width:1.5;" width="496" x="71" y="274"/><rect fill="#F1F1F1" height="245.8594" rx="5" ry="5" style="stroke:#F1F1F1;stroke-width:1.5;" width="494" x="72" y="538"/><text fill="#000000" font-family="sans-serif" font-size="14" font-weight="bold" lengthAdjust="spacing" textLength="104" x="77" y="553.5352">SpecialOfferID</text><text fill="#000000" font-family="sans-serif" font-size="14" lengthAdjust="spacing" textLength="9" x="241" y="553.5352">3</text><line style="stroke:#000000;stroke-width:1.0;" x1="236" x2="236" y1="538" y2="558.4883"/><line style="stroke:#000000;stroke-width:1.0;" x1="72" x2="566" y1="558.4883" y2="558.4883"/><text fill="#000000" font-family="sans-serif" font-size="14" font-weight="bold" lengthAdjust="spacing" textLength="83" x="77" y="574.0234">Description</text><text fill="#000000" font-family="sans-serif" font-size="14" lengthAdjust="spacing" textLength="178" x="241" y="574.0234">Volume Discount 15 to 24</text><line style="stroke:#000000;stroke-width:1.0;" x1="236" x2="236" y1="558.4883" y2="578.9766"/><line style="stroke:#000000;stroke-width:1.0;" x1="72" x2="566" y1="578.9766" y2="578.9766"/><text fill="#000000" font-family="sans-serif" font-size="14" font-weight="bold" lengthAdjust="spacing" textLength="86" x="77" y="594.5117">DiscountPct</text><text fill="#000000" font-family="sans-serif" font-size="14" lengthAdjust="spacing" textLength="49" x="241" y="594.5117">0.0500</text><line style="stroke:#000000;stroke-width:1.0;" x1="236" x2="236" y1="578.9766" y2="599.4648"/><line style="stroke:#000000;stroke-width:1.0;" x1="72" x2="566" y1="599.4648" y2="599.4648"/><text fill="#000000" font-family="sans-serif" font-size="14" font-weight="bold" lengthAdjust="spacing" textLength="35" x="77" y="615">Type</text><text fill="#000000" font-family="sans-serif" font-size="14" lengthAdjust="spacing" textLength="116" x="241" y="615">Volume Discount</text><line style="stroke:#000000;stroke-width:1.0;" x1="236" x2="236" y1="599.4648" y2="619.9531"/><line style="stroke:#000000;stroke-width:1.0;" x1="72" x2="566" y1="619.9531" y2="619.9531"/><text fill="#000000" font-family="sans-serif" font-size="14" font-weight="bold" lengthAdjust="spacing" textLength="64" x="77" y="635.4883">Category</text><text fill="#000000" font-family="sans-serif" font-size="14" lengthAdjust="spacing" textLength="54" x="241" y="635.4883">Reseller</text><line style="stroke:#000000;stroke-width:1.0;" x1="236" x2="236" y1="619.9531" y2="640.4414"/><line style="stroke:#000000;stroke-width:1.0;" x1="72" x2="566" y1="640.4414" y2="640.4414"/><text fill="#000000" font-family="sans-serif" font-size="14" font-weight="bold" lengthAdjust="spacing" textLength="67" x="77" y="655.9766">StartDate</text><text fill="#000000" font-family="sans-serif" font-size="14" lengthAdjust="spacing" textLength="154" x="241" y="655.9766">2011-05-31 00:00:00</text><line style="stroke:#000000;stroke-width:1.0;" x1="236" x2="236" y1="640.4414" y2="660.9297"/><line style="stroke:#000000;stroke-width:1.0;" x1="72" x2="566" y1="660.9297" y2="660.9297"/><text fill="#000000" font-family="sans-serif" font-size="14" font-weight="bold" lengthAdjust="spacing" textLength="59" x="77" y="676.4648">EndDate</text><text fill="#000000" font-family="sans-serif" font-size="14" lengthAdjust="spacing" textLength="154" x="241" y="676.4648">2014-05-30 00:00:00</text><line style="stroke:#000000;stroke-width:1.0;" x1="236" x2="236" y1="660.9297" y2="681.418"/><line style="stroke:#000000;stroke-width:1.0;" x1="72" x2="566" y1="681.418" y2="681.418"/><text fill="#000000" font-family="sans-serif" font-size="14" font-weight="bold" lengthAdjust="spacing" textLength="53" x="77" y="696.9531">MinQty</text><text fill="#000000" font-family="sans-serif" font-size="14" lengthAdjust="spacing" textLength="18" x="241" y="696.9531">15</text><line style="stroke:#000000;stroke-width:1.0;" x1="236" x2="236" y1="681.418" y2="701.9063"/><line style="stroke:#000000;stroke-width:1.0;" x1="72" x2="566" y1="701.9063" y2="701.9063"/><text fill="#000000" font-family="sans-serif" font-size="14" font-weight="bold" lengthAdjust="spacing" textLength="55" x="77" y="717.4414">MaxQty</text><text fill="#000000" font-family="sans-serif" font-size="14" lengthAdjust="spacing" textLength="18" x="241" y="717.4414">24</text><line style="stroke:#000000;stroke-width:1.0;" x1="236" x2="236" y1="701.9063" y2="722.3945"/><line style="stroke:#000000;stroke-width:1.0;" x1="72" x2="566" y1="722.3945" y2="722.3945"/><text fill="#000000" font-family="sans-serif" font-size="14" font-weight="bold" lengthAdjust="spacing" textLength="59" x="77" y="737.9297">rowguid</text><text fill="#000000" font-family="sans-serif" font-size="14" lengthAdjust="spacing" textLength="320" x="241" y="737.9297">4BDBCC01-8CF7-40A9-B643-40EC5B717491</text><line style="stroke:#000000;stroke-width:1.0;" x1="236" x2="236" y1="722.3945" y2="742.8828"/><line style="stroke:#000000;stroke-width:1.0;" x1="72" x2="566" y1="742.8828" y2="742.8828"/><text fill="#000000" font-family="sans-serif" font-size="14" font-weight="bold" lengthAdjust="spacing" textLength="97" x="77" y="758.418">ModifiedDate</text><text fill="#000000" font-family="sans-serif" font-size="14" lengthAdjust="spacing" textLength="154" x="241" y="758.418">2011-05-01 00:00:00</text><line style="stroke:#000000;stroke-width:1.0;" x1="236" x2="236" y1="742.8828" y2="763.3711"/><line style="stroke:#000000;stroke-width:1.0;" x1="72" x2="566" y1="763.3711" y2="763.3711"/><text fill="#000000" font-family="sans-serif" font-size="14" font-weight="bold" lengthAdjust="spacing" textLength="154" x="77" y="778.9063">SYS_EXEC_DURATION</text><text fill="#000000" font-family="sans-serif" font-size="14" lengthAdjust="spacing" textLength="67" x="241" y="778.9063">0.214056</text><line style="stroke:#000000;stroke-width:1.0;" x1="236" x2="236" y1="763.3711" y2="783.8594"/><rect fill="none" height="245.8594" rx="5" ry="5" style="stroke:#000000;stroke-width:1.5;" width="494" x="72" y="538"/><rect fill="#F1F1F1" height="245.8594" rx="5" ry="5" style="stroke:#F1F1F1;stroke-width:1.5;" width="493" x="72.5" y="802"/><text fill="#000000" font-family="sans-serif" font-size="14" font-weight="bold" lengthAdjust="spacing" textLength="104" x="77.5" y="817.5352">SpecialOfferID</text><text fill="#000000" font-family="sans-serif" font-size="14" lengthAdjust="spacing" textLength="9" x="241.5" y="817.5352">4</text><line style="stroke:#000000;stroke-width:1.0;" x1="236.5" x2="236.5" y1="802" y2="822.4883"/><line style="stroke:#000000;stroke-width:1.0;" x1="72.5" x2="565.5" y1="822.4883" y2="822.4883"/><text fill="#000000" font-family="sans-serif" font-size="14" font-weight="bold" lengthAdjust="spacing" textLength="83" x="77.5" y="838.0234">Description</text><text fill="#000000" font-family="sans-serif" font-size="14" lengthAdjust="spacing" textLength="178" x="241.5" y="838.0234">Volume Discount 25 to 40</text><line style="stroke:#000000;stroke-width:1.0;" x1="236.5" x2="236.5" y1="822.4883" y2="842.9766"/><line style="stroke:#000000;stroke-width:1.0;" x1="72.5" x2="565.5" y1="842.9766" y2="842.9766"/><text fill="#000000" font-family="sans-serif" font-size="14" font-weight="bold" lengthAdjust="spacing" textLength="86" x="77.5" y="858.5117">DiscountPct</text><text fill="#000000" font-family="sans-serif" font-size="14" lengthAdjust="spacing" textLength="49" x="241.5" y="858.5117">0.1000</text><line style="stroke:#000000;stroke-width:1.0;" x1="236.5" x2="236.5" y1="842.9766" y2="863.4648"/><line style="stroke:#000000;stroke-width:1.0;" x1="72.5" x2="565.5" y1="863.4648" y2="863.4648"/><text fill="#000000" font-family="sans-serif" font-size="14" font-weight="bold" lengthAdjust="spacing" textLength="35" x="77.5" y="879">Type</text><text fill="#000000" font-family="sans-serif" font-size="14" lengthAdjust="spacing" textLength="116" x="241.5" y="879">Volume Discount</text><line style="stroke:#000000;stroke-width:1.0;" x1="236.5" x2="236.5" y1="863.4648" y2="883.9531"/><line style="stroke:#000000;stroke-width:1.0;" x1="72.5" x2="565.5" y1="883.9531" y2="883.9531"/><text fill="#000000" font-family="sans-serif" font-size="14" font-weight="bold" lengthAdjust="spacing" textLength="64" x="77.5" y="899.4883">Category</text><text fill="#000000" font-family="sans-serif" font-size="14" lengthAdjust="spacing" textLength="54" x="241.5" y="899.4883">Reseller</text><line style="stroke:#000000;stroke-width:1.0;" x1="236.5" x2="236.5" y1="883.9531" y2="904.4414"/><line style="stroke:#000000;stroke-width:1.0;" x1="72.5" x2="565.5" y1="904.4414" y2="904.4414"/><text fill="#000000" font-family="sans-serif" font-size="14" font-weight="bold" lengthAdjust="spacing" textLength="67" x="77.5" y="919.9766">StartDate</text><text fill="#000000" font-family="sans-serif" font-size="14" lengthAdjust="spacing" textLength="154" x="241.5" y="919.9766">2011-05-31 00:00:00</text><line style="stroke:#000000;stroke-width:1.0;" x1="236.5" x2="236.5" y1="904.4414" y2="924.9297"/><line style="stroke:#000000;stroke-width:1.0;" x1="72.5" x2="565.5" y1="924.9297" y2="924.9297"/><text fill="#000000" font-family="sans-serif" font-size="14" font-weight="bold" lengthAdjust="spacing" textLength="59" x="77.5" y="940.4648">EndDate</text><text fill="#000000" font-family="sans-serif" font-size="14" lengthAdjust="spacing" textLength="154" x="241.5" y="940.4648">2014-05-30 00:00:00</text><line style="stroke:#000000;stroke-width:1.0;" x1="236.5" x2="236.5" y1="924.9297" y2="945.418"/><line style="stroke:#000000;stroke-width:1.0;" x1="72.5" x2="565.5" y1="945.418" y2="945.418"/><text fill="#000000" font-family="sans-serif" font-size="14" font-weight="bold" lengthAdjust="spacing" textLength="53" x="77.5" y="960.9531">MinQty</text><text fill="#000000" font-family="sans-serif" font-size="14" lengthAdjust="spacing" textLength="18" x="241.5" y="960.9531">25</text><line style="stroke:#000000;stroke-width:1.0;" x1="236.5" x2="236.5" y1="945.418" y2="965.9063"/><line style="stroke:#000000;stroke-width:1.0;" x1="72.5" x2="565.5" y1="965.9063" y2="965.9063"/><text fill="#000000" font-family="sans-serif" font-size="14" font-weight="bold" lengthAdjust="spacing" textLength="55" x="77.5" y="981.4414">MaxQty</text><text fill="#000000" font-family="sans-serif" font-size="14" lengthAdjust="spacing" textLength="18" x="241.5" y="981.4414">40</text><line style="stroke:#000000;stroke-width:1.0;" x1="236.5" x2="236.5" y1="965.9063" y2="986.3945"/><line style="stroke:#000000;stroke-width:1.0;" x1="72.5" x2="565.5" y1="986.3945" y2="986.3945"/><text fill="#000000" font-family="sans-serif" font-size="14" font-weight="bold" lengthAdjust="spacing" textLength="59" x="77.5" y="1001.9297">rowguid</text><text fill="#000000" font-family="sans-serif" font-size="14" lengthAdjust="spacing" textLength="319" x="241.5" y="1001.9297">504B5E85-8F3F-4EBC-9E1D-C1BC5DEA9AA8</text><line style="stroke:#000000;stroke-width:1.0;" x1="236.5" x2="236.5" y1="986.3945" y2="1006.8828"/><line style="stroke:#000000;stroke-width:1.0;" x1="72.5" x2="565.5" y1="1006.8828" y2="1006.8828"/><text fill="#000000" font-family="sans-serif" font-size="14" font-weight="bold" lengthAdjust="spacing" textLength="97" x="77.5" y="1022.418">ModifiedDate</text><text fill="#000000" font-family="sans-serif" font-size="14" lengthAdjust="spacing" textLength="154" x="241.5" y="1022.418">2011-05-01 00:00:00</text><line style="stroke:#000000;stroke-width:1.0;" x1="236.5" x2="236.5" y1="1006.8828" y2="1027.3711"/><line style="stroke:#000000;stroke-width:1.0;" x1="72.5" x2="565.5" y1="1027.3711" y2="1027.3711"/><text fill="#000000" font-family="sans-serif" font-size="14" font-weight="bold" lengthAdjust="spacing" textLength="154" x="77.5" y="1042.9063">SYS_EXEC_DURATION</text><text fill="#000000" font-family="sans-serif" font-size="14" lengthAdjust="spacing" textLength="67" x="241.5" y="1042.9063">0.214148</text><line style="stroke:#000000;stroke-width:1.0;" x1="236.5" x2="236.5" y1="1027.3711" y2="1047.8594"/><rect fill="none" height="245.8594" rx="5" ry="5" style="stroke:#000000;stroke-width:1.5;" width="493" x="72.5" y="802"/><rect fill="#F1F1F1" height="245.8594" rx="5" ry="5" style="stroke:#F1F1F1;stroke-width:1.5;" width="493" x="72.5" y="1066"/><text fill="#000000" font-family="sans-serif" font-size="14" font-weight="bold" lengthAdjust="spacing" textLength="104" x="77.5" y="1081.5352">SpecialOfferID</text><text fill="#000000" font-family="sans-serif" font-size="14" lengthAdjust="spacing" textLength="9" x="241.5" y="1081.5352">5</text><line style="stroke:#000000;stroke-width:1.0;" x1="236.5" x2="236.5" y1="1066" y2="1086.4883"/><line style="stroke:#000000;stroke-width:1.0;" x1="72.5" x2="565.5" y1="1086.4883" y2="1086.4883"/><text fill="#000000" font-family="sans-serif" font-size="14" font-weight="bold" lengthAdjust="spacing" textLength="83" x="77.5" y="1102.0234">Description</text><text fill="#000000" font-family="sans-serif" font-size="14" lengthAdjust="spacing" textLength="178" x="241.5" y="1102.0234">Volume Discount 41 to 60</text><line style="stroke:#000000;stroke-width:1.0;" x1="236.5" x2="236.5" y1="1086.4883" y2="1106.9766"/><line style="stroke:#000000;stroke-width:1.0;" x1="72.5" x2="565.5" y1="1106.9766" y2="1106.9766"/><text fill="#000000" font-family="sans-serif" font-size="14" font-weight="bold" lengthAdjust="spacing" textLength="86" x="77.5" y="1122.5117">DiscountPct</text><text fill="#000000" font-family="sans-serif" font-size="14" lengthAdjust="spacing" textLength="49" x="241.5" y="1122.5117">0.1500</text><line style="stroke:#000000;stroke-width:1.0;" x1="236.5" x2="236.5" y1="1106.9766" y2="1127.4648"/><line style="stroke:#000000;stroke-width:1.0;" x1="72.5" x2="565.5" y1="1127.4648" y2="1127.4648"/><text fill="#000000" font-family="sans-serif" font-size="14" font-weight="bold" lengthAdjust="spacing" textLength="35" x="77.5" y="1143">Type</text><text fill="#000000" font-family="sans-serif" font-size="14" lengthAdjust="spacing" textLength="116" x="241.5" y="1143">Volume Discount</text><line style="stroke:#000000;stroke-width:1.0;" x1="236.5" x2="236.5" y1="1127.4648" y2="1147.9531"/><line style="stroke:#000000;stroke-width:1.0;" x1="72.5" x2="565.5" y1="1147.9531" y2="1147.9531"/><text fill="#000000" font-family="sans-serif" font-size="14" font-weight="bold" lengthAdjust="spacing" textLength="64" x="77.5" y="1163.4883">Category</text><text fill="#000000" font-family="sans-serif" font-size="14" lengthAdjust="spacing" textLength="54" x="241.5" y="1163.4883">Reseller</text><line style="stroke:#000000;stroke-width:1.0;" x1="236.5" x2="236.5" y1="1147.9531" y2="1168.4414"/><line style="stroke:#000000;stroke-width:1.0;" x1="72.5" x2="565.5" y1="1168.4414" y2="1168.4414"/><text fill="#000000" font-family="sans-serif" font-size="14" font-weight="bold" lengthAdjust="spacing" textLength="67" x="77.5" y="1183.9766">StartDate</text><text fill="#000000" font-family="sans-serif" font-size="14" lengthAdjust="spacing" textLength="154" x="241.5" y="1183.9766">2011-05-31 00:00:00</text><line style="stroke:#000000;stroke-width:1.0;" x1="236.5" x2="236.5" y1="1168.4414" y2="1188.9297"/><line style="stroke:#000000;stroke-width:1.0;" x1="72.5" x2="565.5" y1="1188.9297" y2="1188.9297"/><text fill="#000000" font-family="sans-serif" font-size="14" font-weight="bold" lengthAdjust="spacing" textLength="59" x="77.5" y="1204.4648">EndDate</text><text fill="#000000" font-family="sans-serif" font-size="14" lengthAdjust="spacing" textLength="154" x="241.5" y="1204.4648">2014-05-30 00:00:00</text><line style="stroke:#000000;stroke-width:1.0;" x1="236.5" x2="236.5" y1="1188.9297" y2="1209.418"/><line style="stroke:#000000;stroke-width:1.0;" x1="72.5" x2="565.5" y1="1209.418" y2="1209.418"/><text fill="#000000" font-family="sans-serif" font-size="14" font-weight="bold" lengthAdjust="spacing" textLength="53" x="77.5" y="1224.9531">MinQty</text><text fill="#000000" font-family="sans-serif" font-size="14" lengthAdjust="spacing" textLength="18" x="241.5" y="1224.9531">41</text><line style="stroke:#000000;stroke-width:1.0;" x1="236.5" x2="236.5" y1="1209.418" y2="1229.9063"/><line style="stroke:#000000;stroke-width:1.0;" x1="72.5" x2="565.5" y1="1229.9063" y2="1229.9063"/><text fill="#000000" font-family="sans-serif" font-size="14" font-weight="bold" lengthAdjust="spacing" textLength="55" x="77.5" y="1245.4414">MaxQty</text><text fill="#000000" font-family="sans-serif" font-size="14" lengthAdjust="spacing" textLength="18" x="241.5" y="1245.4414">60</text><line style="stroke:#000000;stroke-width:1.0;" x1="236.5" x2="236.5" y1="1229.9063" y2="1250.3945"/><line style="stroke:#000000;stroke-width:1.0;" x1="72.5" x2="565.5" y1="1250.3945" y2="1250.3945"/><text fill="#000000" font-family="sans-serif" font-size="14" font-weight="bold" lengthAdjust="spacing" textLength="59" x="77.5" y="1265.9297">rowguid</text><text fill="#000000" font-family="sans-serif" font-size="14" lengthAdjust="spacing" textLength="319" x="241.5" y="1265.9297">677E1D9D-944F-4E81-90E8-47EB0A82D48C</text><line style="stroke:#000000;stroke-width:1.0;" x1="236.5" x2="236.5" y1="1250.3945" y2="1270.8828"/><line style="stroke:#000000;stroke-width:1.0;" x1="72.5" x2="565.5" y1="1270.8828" y2="1270.8828"/><text fill="#000000" font-family="sans-serif" font-size="14" font-weight="bold" lengthAdjust="spacing" textLength="97" x="77.5" y="1286.418">ModifiedDate</text><text fill="#000000" font-family="sans-serif" font-size="14" lengthAdjust="spacing" textLength="154" x="241.5" y="1286.418">2011-05-01 00:00:00</text><line style="stroke:#000000;stroke-width:1.0;" x1="236.5" x2="236.5" y1="1270.8828" y2="1291.3711"/><line style="stroke:#000000;stroke-width:1.0;" x1="72.5" x2="565.5" y1="1291.3711" y2="1291.3711"/><text fill="#000000" font-family="sans-serif" font-size="14" font-weight="bold" lengthAdjust="spacing" textLength="154" x="77.5" y="1306.9063">SYS_EXEC_DURATION</text><text fill="#000000" font-family="sans-serif" font-size="14" lengthAdjust="spacing" textLength="67" x="241.5" y="1306.9063">0.214252</text><line style="stroke:#000000;stroke-width:1.0;" x1="236.5" x2="236.5" y1="1291.3711" y2="1311.8594"/><rect fill="none" height="245.8594" rx="5" ry="5" style="stroke:#000000;stroke-width:1.5;" width="493" x="72.5" y="1066"/><path d="M22.5,623 L22.5,610 C22.5,532.5795 26.6323,328.4464 71,265 C71.6541,264.0647 72.3169,263.1354 72.9883,262.2121 " fill="none" style="stroke:#000000;stroke-width:1.0;stroke-dasharray:3.0,3.0;"/><path d="M75.3908,264.0334 L74.3543,260.4102 L70.5858,260.3908 L77.5415,256.2058 L75.3908,264.0334 " fill="#000000" style="stroke:#000000;stroke-width:1.0;"/><ellipse cx="22.5" cy="623" fill="#000000" rx="3" ry="3" style="stroke:#000000;stroke-width:1.0;"/><path d="M22,641 L35,641 C87.286,641 37.4799,569.1277 71,529 C71.8585,527.9722 72.7272,526.9513 73.6057,525.9372 " fill="none" style="stroke:#000000;stroke-width:1.0;stroke-dasharray:3.0,3.0;"/><path d="M75.8992,527.9916 L75.1465,524.217 L71.3122,523.8827 L78.7418,520.2034 L75.8992,527.9916 " fill="#000000" style="stroke:#000000;stroke-width:1.0;"/><ellipse cx="22" cy="641" fill="#000000" rx="3" ry="3" style="stroke:#000000;stroke-width:1.0;"/><path d="M22,661 L35,661 C44.7072,661 54.6015,661 64.5962,661 " fill="none" style="stroke:#000000;stroke-width:1.0;stroke-dasharray:3.0,3.0;"/><path d="M64.5962,664.0645 L66.8946,661 L64.5962,657.9355 L72.2574,661 L64.5962,664.0645 " fill="#000000" style="stroke:#000000;stroke-width:1.0;"/><ellipse cx="22" cy="661" fill="#000000" rx="3" ry="3" style="stroke:#000000;stroke-width:1.0;"/><path d="M22,682 L35,682 C86.8631,682 37.6989,753.2405 71,793 C71.8599,794.0267 72.7299,795.0465 73.6096,796.0595 " fill="none" style="stroke:#000000;stroke-width:1.0;stroke-dasharray:3.0,3.0;"/><path d="M71.3185,798.1168 L75.1526,797.7779 L75.9007,794.0023 L78.7528,801.7873 L71.3185,798.1168 " fill="#000000" style="stroke:#000000;stroke-width:1.0;"/><ellipse cx="22" cy="682" fill="#000000" rx="3" ry="3" style="stroke:#000000;stroke-width:1.0;"/><path d="M22.5,701 L22.5,714 C22.5,790.9804 26.8592,993.932 71,1057 C71.6545,1057.9351 72.3177,1058.8641 72.9894,1059.7871 " fill="none" style="stroke:#000000;stroke-width:1.0;stroke-dasharray:3.0,3.0;"/><path d="M70.5876,1061.6093 L74.3561,1061.5885 L75.3913,1057.9649 L77.5449,1065.7918 L70.5876,1061.6093 " fill="#000000" style="stroke:#000000;stroke-width:1.0;"/><ellipse cx="22.5" cy="701" fill="#000000" rx="3" ry="3" style="stroke:#000000;stroke-width:1.0;"/><!--MD5=[47d29b532216fbd9cd37bed36b2aa17f]
@startjson
[
    {
        "SpecialOfferID": 1,
        "Description": "No Discount",
        "DiscountPct": "0.0000",
        "Type": "No Discount",
        "Category": "No Discount",
        "StartDate": "2011-05-01 00:00:00",
        "EndDate": "2014-11-30 00:00:00",
        "MinQty": 0,
        "MaxQty": null,
        "rowguid": "0290C4F5-191F-4337-AB6B-0A2DDE03CBF9",
        "ModifiedDate": "2011-04-01 00:00:00",
        "SYS_EXEC_DURATION": "0.21374"
    },
    {
        "SpecialOfferID": 2,
        "Description": "Volume Discount 11 to 14",
        "DiscountPct": "0.0200",
        "Type": "Volume Discount",
        "Category": "Reseller",
        "StartDate": "2011-05-31 00:00:00",
        "EndDate": "2014-05-30 00:00:00",
        "MinQty": 11,
        "MaxQty": 14,
        "rowguid": "D7542EE7-15DB-4541-985C-5CC27AEF26D6",
        "ModifiedDate": "2011-05-01 00:00:00",
        "SYS_EXEC_DURATION": "0.213958"
    },
    {
        "SpecialOfferID": 3,
        "Description": "Volume Discount 15 to 24",
        "DiscountPct": "0.0500",
        "Type": "Volume Discount",
        "Category": "Reseller",
        "StartDate": "2011-05-31 00:00:00",
        "EndDate": "2014-05-30 00:00:00",
        "MinQty": 15,
        "MaxQty": 24,
        "rowguid": "4BDBCC01-8CF7-40A9-B643-40EC5B717491",
        "ModifiedDate": "2011-05-01 00:00:00",
        "SYS_EXEC_DURATION": "0.214056"
    },
    {
        "SpecialOfferID": 4,
        "Description": "Volume Discount 25 to 40",
        "DiscountPct": "0.1000",
        "Type": "Volume Discount",
        "Category": "Reseller",
        "StartDate": "2011-05-31 00:00:00",
        "EndDate": "2014-05-30 00:00:00",
        "MinQty": 25,
        "MaxQty": 40,
        "rowguid": "504B5E85-8F3F-4EBC-9E1D-C1BC5DEA9AA8",
        "ModifiedDate": "2011-05-01 00:00:00",
        "SYS_EXEC_DURATION": "0.214148"
    },
    {
        "SpecialOfferID": 5,
        "Description": "Volume Discount 41 to 60",
        "DiscountPct": "0.1500",
        "Type": "Volume Discount",
        "Category": "Reseller",
        "StartDate": "2011-05-31 00:00:00",
        "EndDate": "2014-05-30 00:00:00",
        "MinQty": 41,
        "MaxQty": 60,
        "rowguid": "677E1D9D-944F-4E81-90E8-47EB0A82D48C",
        "ModifiedDate": "2011-05-01 00:00:00",
        "SYS_EXEC_DURATION": "0.214252"
    }
]
@endjson

PlantUML version 1.2022.5(Sat Apr 30 06:55:52 EDT 2022)
(GPL source distribution)
Java Runtime: OpenJDK Runtime Environment
JVM: OpenJDK 64-Bit Server VM
Default Encoding: UTF-8
Language: en
Country: CA
--></g></svg>