<?xml version="1.0" encoding="UTF-8" standalone="no"?><svg xmlns="http://www.w3.org/2000/svg" xmlns:xlink="http://www.w3.org/1999/xlink" contentStyleType="text/css" height="604px" preserveAspectRatio="none" style="width:433px;height:604px;background:#FFFFFF;" version="1.1" viewBox="0 0 433 604" width="433px" zoomAndPan="magnify"><defs/><g><rect fill="#F1F1F1" height="102.4414" rx="5" ry="5" style="stroke:#F1F1F1;stroke-width:1.5;" width="22" x="10" y="251"/><text fill="#000000" font-family="sans-serif" font-size="14" lengthAdjust="spacing" textLength="12" x="15" y="266.5352">   </text><line style="stroke:#000000;stroke-width:1.0;" x1="10" x2="32" y1="271.4883" y2="271.4883"/><text fill="#000000" font-family="sans-serif" font-size="14" lengthAdjust="spacing" textLength="12" x="15" y="287.0234">   </text><line style="stroke:#000000;stroke-width:1.0;" x1="10" x2="32" y1="291.9766" y2="291.9766"/><text fill="#000000" font-family="sans-serif" font-size="14" lengthAdjust="spacing" textLength="12" x="15" y="307.5117">   </text><line style="stroke:#000000;stroke-width:1.0;" x1="10" x2="32" y1="312.4648" y2="312.4648"/><text fill="#000000" font-family="sans-serif" font-size="14" lengthAdjust="spacing" textLength="12" x="15" y="328">   </text><line style="stroke:#000000;stroke-width:1.0;" x1="10" x2="32" y1="332.9531" y2="332.9531"/><text fill="#000000" font-family="sans-serif" font-size="14" lengthAdjust="spacing" textLength="12" x="15" y="348.4883">   </text><rect fill="none" height="102.4414" rx="5" ry="5" style="stroke:#000000;stroke-width:1.5;" width="22" x="10" y="251"/><rect fill="#F1F1F1" height="102.4414" rx="5" ry="5" style="stroke:#F1F1F1;stroke-width:1.5;" width="328" x="82" y="10"/><text fill="#000000" font-family="sans-serif" font-size="14" font-weight="bold" lengthAdjust="spacing" textLength="105" x="87" y="25.5352">SalesReasonID</text><text fill="#000000" font-family="sans-serif" font-size="14" lengthAdjust="spacing" textLength="9" x="251" y="25.5352">1</text><line style="stroke:#000000;stroke-width:1.0;" x1="246" x2="246" y1="10" y2="30.4883"/><line style="stroke:#000000;stroke-width:1.0;" x1="82" x2="410" y1="30.4883" y2="30.4883"/><text fill="#000000" font-family="sans-serif" font-size="14" font-weight="bold" lengthAdjust="spacing" textLength="41" x="87" y="46.0234">Name</text><text fill="#000000" font-family="sans-serif" font-size="14" lengthAdjust="spacing" textLength="33" x="251" y="46.0234">Price</text><line style="stroke:#000000;stroke-width:1.0;" x1="246" x2="246" y1="30.4883" y2="50.9766"/><line style="stroke:#000000;stroke-width:1.0;" x1="82" x2="410" y1="50.9766" y2="50.9766"/><text fill="#000000" font-family="sans-serif" font-size="14" font-weight="bold" lengthAdjust="spacing" textLength="87" x="87" y="66.5117">ReasonType</text><text fill="#000000" font-family="sans-serif" font-size="14" lengthAdjust="spacing" textLength="39" x="251" y="66.5117">Other</text><line style="stroke:#000000;stroke-width:1.0;" x1="246" x2="246" y1="50.9766" y2="71.4648"/><line style="stroke:#000000;stroke-width:1.0;" x1="82" x2="410" y1="71.4648" y2="71.4648"/><text fill="#000000" font-family="sans-serif" font-size="14" font-weight="bold" lengthAdjust="spacing" textLength="97" x="87" y="87">ModifiedDate</text><text fill="#000000" font-family="sans-serif" font-size="14" lengthAdjust="spacing" textLength="154" x="251" y="87">2008-04-30 00:00:00</text><line style="stroke:#000000;stroke-width:1.0;" x1="246" x2="246" y1="71.4648" y2="91.9531"/><line style="stroke:#000000;stroke-width:1.0;" x1="82" x2="410" y1="91.9531" y2="91.9531"/><text fill="#000000" font-family="sans-serif" font-size="14" font-weight="bold" lengthAdjust="spacing" textLength="154" x="87" y="107.4883">SYS_EXEC_DURATION</text><text fill="#000000" font-family="sans-serif" font-size="14" lengthAdjust="spacing" textLength="67" x="251" y="107.4883">0.196115</text><line style="stroke:#000000;stroke-width:1.0;" x1="246" x2="246" y1="91.9531" y2="112.4414"/><rect fill="none" height="102.4414" rx="5" ry="5" style="stroke:#000000;stroke-width:1.5;" width="328" x="82" y="10"/><rect fill="#F1F1F1" height="102.4414" rx="5" ry="5" style="stroke:#F1F1F1;stroke-width:1.5;" width="328" x="82" y="130"/><text fill="#000000" font-family="sans-serif" font-size="14" font-weight="bold" lengthAdjust="spacing" textLength="105" x="87" y="145.5352">SalesReasonID</text><text fill="#000000" font-family="sans-serif" font-size="14" lengthAdjust="spacing" textLength="9" x="251" y="145.5352">2</text><line style="stroke:#000000;stroke-width:1.0;" x1="246" x2="246" y1="130" y2="150.4883"/><line style="stroke:#000000;stroke-width:1.0;" x1="82" x2="410" y1="150.4883" y2="150.4883"/><text fill="#000000" font-family="sans-serif" font-size="14" font-weight="bold" lengthAdjust="spacing" textLength="41" x="87" y="166.0234">Name</text><text fill="#000000" font-family="sans-serif" font-size="14" lengthAdjust="spacing" textLength="96" x="251" y="166.0234">On Promotion</text><line style="stroke:#000000;stroke-width:1.0;" x1="246" x2="246" y1="150.4883" y2="170.9766"/><line style="stroke:#000000;stroke-width:1.0;" x1="82" x2="410" y1="170.9766" y2="170.9766"/><text fill="#000000" font-family="sans-serif" font-size="14" font-weight="bold" lengthAdjust="spacing" textLength="87" x="87" y="186.5117">ReasonType</text><text fill="#000000" font-family="sans-serif" font-size="14" lengthAdjust="spacing" textLength="72" x="251" y="186.5117">Promotion</text><line style="stroke:#000000;stroke-width:1.0;" x1="246" x2="246" y1="170.9766" y2="191.4648"/><line style="stroke:#000000;stroke-width:1.0;" x1="82" x2="410" y1="191.4648" y2="191.4648"/><text fill="#000000" font-family="sans-serif" font-size="14" font-weight="bold" lengthAdjust="spacing" textLength="97" x="87" y="207">ModifiedDate</text><text fill="#000000" font-family="sans-serif" font-size="14" lengthAdjust="spacing" textLength="154" x="251" y="207">2008-04-30 00:00:00</text><line style="stroke:#000000;stroke-width:1.0;" x1="246" x2="246" y1="191.4648" y2="211.9531"/><line style="stroke:#000000;stroke-width:1.0;" x1="82" x2="410" y1="211.9531" y2="211.9531"/><text fill="#000000" font-family="sans-serif" font-size="14" font-weight="bold" lengthAdjust="spacing" textLength="154" x="87" y="227.4883">SYS_EXEC_DURATION</text><text fill="#000000" font-family="sans-serif" font-size="14" lengthAdjust="spacing" textLength="58" x="251" y="227.4883">0.19626</text><line style="stroke:#000000;stroke-width:1.0;" x1="246" x2="246" y1="211.9531" y2="232.4414"/><rect fill="none" height="102.4414" rx="5" ry="5" style="stroke:#000000;stroke-width:1.5;" width="328" x="82" y="130"/><rect fill="#F1F1F1" height="102.4414" rx="5" ry="5" style="stroke:#F1F1F1;stroke-width:1.5;" width="343" x="74.5" y="250"/><text fill="#000000" font-family="sans-serif" font-size="14" font-weight="bold" lengthAdjust="spacing" textLength="105" x="79.5" y="265.5352">SalesReasonID</text><text fill="#000000" font-family="sans-serif" font-size="14" lengthAdjust="spacing" textLength="9" x="243.5" y="265.5352">3</text><line style="stroke:#000000;stroke-width:1.0;" x1="238.5" x2="238.5" y1="250" y2="270.4883"/><line style="stroke:#000000;stroke-width:1.0;" x1="74.5" x2="417.5" y1="270.4883" y2="270.4883"/><text fill="#000000" font-family="sans-serif" font-size="14" font-weight="bold" lengthAdjust="spacing" textLength="41" x="79.5" y="286.0234">Name</text><text fill="#000000" font-family="sans-serif" font-size="14" lengthAdjust="spacing" textLength="169" x="243.5" y="286.0234">Magazine Advertisement</text><line style="stroke:#000000;stroke-width:1.0;" x1="238.5" x2="238.5" y1="270.4883" y2="290.9766"/><line style="stroke:#000000;stroke-width:1.0;" x1="74.5" x2="417.5" y1="290.9766" y2="290.9766"/><text fill="#000000" font-family="sans-serif" font-size="14" font-weight="bold" lengthAdjust="spacing" textLength="87" x="79.5" y="306.5117">ReasonType</text><text fill="#000000" font-family="sans-serif" font-size="14" lengthAdjust="spacing" textLength="69" x="243.5" y="306.5117">Marketing</text><line style="stroke:#000000;stroke-width:1.0;" x1="238.5" x2="238.5" y1="290.9766" y2="311.4648"/><line style="stroke:#000000;stroke-width:1.0;" x1="74.5" x2="417.5" y1="311.4648" y2="311.4648"/><text fill="#000000" font-family="sans-serif" font-size="14" font-weight="bold" lengthAdjust="spacing" textLength="97" x="79.5" y="327">ModifiedDate</text><text fill="#000000" font-family="sans-serif" font-size="14" lengthAdjust="spacing" textLength="154" x="243.5" y="327">2008-04-30 00:00:00</text><line style="stroke:#000000;stroke-width:1.0;" x1="238.5" x2="238.5" y1="311.4648" y2="331.9531"/><line style="stroke:#000000;stroke-width:1.0;" x1="74.5" x2="417.5" y1="331.9531" y2="331.9531"/><text fill="#000000" font-family="sans-serif" font-size="14" font-weight="bold" lengthAdjust="spacing" textLength="154" x="79.5" y="347.4883">SYS_EXEC_DURATION</text><text fill="#000000" font-family="sans-serif" font-size="14" lengthAdjust="spacing" textLength="67" x="243.5" y="347.4883">0.196308</text><line style="stroke:#000000;stroke-width:1.0;" x1="238.5" x2="238.5" y1="331.9531" y2="352.4414"/><rect fill="none" height="102.4414" rx="5" ry="5" style="stroke:#000000;stroke-width:1.5;" width="343" x="74.5" y="250"/><rect fill="#F1F1F1" height="102.4414" rx="5" ry="5" style="stroke:#F1F1F1;stroke-width:1.5;" width="350" x="71" y="370"/><text fill="#000000" font-family="sans-serif" font-size="14" font-weight="bold" lengthAdjust="spacing" textLength="105" x="76" y="385.5352">SalesReasonID</text><text fill="#000000" font-family="sans-serif" font-size="14" lengthAdjust="spacing" textLength="9" x="240" y="385.5352">4</text><line style="stroke:#000000;stroke-width:1.0;" x1="235" x2="235" y1="370" y2="390.4883"/><line style="stroke:#000000;stroke-width:1.0;" x1="71" x2="421" y1="390.4883" y2="390.4883"/><text fill="#000000" font-family="sans-serif" font-size="14" font-weight="bold" lengthAdjust="spacing" textLength="41" x="76" y="406.0234">Name</text><text fill="#000000" font-family="sans-serif" font-size="14" lengthAdjust="spacing" textLength="176" x="240" y="406.0234">Television  Advertisement</text><line style="stroke:#000000;stroke-width:1.0;" x1="235" x2="235" y1="390.4883" y2="410.9766"/><line style="stroke:#000000;stroke-width:1.0;" x1="71" x2="421" y1="410.9766" y2="410.9766"/><text fill="#000000" font-family="sans-serif" font-size="14" font-weight="bold" lengthAdjust="spacing" textLength="87" x="76" y="426.5117">ReasonType</text><text fill="#000000" font-family="sans-serif" font-size="14" lengthAdjust="spacing" textLength="69" x="240" y="426.5117">Marketing</text><line style="stroke:#000000;stroke-width:1.0;" x1="235" x2="235" y1="410.9766" y2="431.4648"/><line style="stroke:#000000;stroke-width:1.0;" x1="71" x2="421" y1="431.4648" y2="431.4648"/><text fill="#000000" font-family="sans-serif" font-size="14" font-weight="bold" lengthAdjust="spacing" textLength="97" x="76" y="447">ModifiedDate</text><text fill="#000000" font-family="sans-serif" font-size="14" lengthAdjust="spacing" textLength="154" x="240" y="447">2008-04-30 00:00:00</text><line style="stroke:#000000;stroke-width:1.0;" x1="235" x2="235" y1="431.4648" y2="451.9531"/><line style="stroke:#000000;stroke-width:1.0;" x1="71" x2="421" y1="451.9531" y2="451.9531"/><text fill="#000000" font-family="sans-serif" font-size="14" font-weight="bold" lengthAdjust="spacing" textLength="154" x="76" y="467.4883">SYS_EXEC_DURATION</text><text fill="#000000" font-family="sans-serif" font-size="14" lengthAdjust="spacing" textLength="58" x="240" y="467.4883">0.19635</text><line style="stroke:#000000;stroke-width:1.0;" x1="235" x2="235" y1="451.9531" y2="472.4414"/><rect fill="none" height="102.4414" rx="5" ry="5" style="stroke:#000000;stroke-width:1.5;" width="350" x="71" y="370"/><rect fill="#F1F1F1" height="102.4414" rx="5" ry="5" style="stroke:#F1F1F1;stroke-width:1.5;" width="328" x="82" y="490"/><text fill="#000000" font-family="sans-serif" font-size="14" font-weight="bold" lengthAdjust="spacing" textLength="105" x="87" y="505.5352">SalesReasonID</text><text fill="#000000" font-family="sans-serif" font-size="14" lengthAdjust="spacing" textLength="9" x="251" y="505.5352">5</text><line style="stroke:#000000;stroke-width:1.0;" x1="246" x2="246" y1="490" y2="510.4883"/><line style="stroke:#000000;stroke-width:1.0;" x1="82" x2="410" y1="510.4883" y2="510.4883"/><text fill="#000000" font-family="sans-serif" font-size="14" font-weight="bold" lengthAdjust="spacing" textLength="41" x="87" y="526.0234">Name</text><text fill="#000000" font-family="sans-serif" font-size="14" lengthAdjust="spacing" textLength="92" x="251" y="526.0234">Manufacturer</text><line style="stroke:#000000;stroke-width:1.0;" x1="246" x2="246" y1="510.4883" y2="530.9766"/><line style="stroke:#000000;stroke-width:1.0;" x1="82" x2="410" y1="530.9766" y2="530.9766"/><text fill="#000000" font-family="sans-serif" font-size="14" font-weight="bold" lengthAdjust="spacing" textLength="87" x="87" y="546.5117">ReasonType</text><text fill="#000000" font-family="sans-serif" font-size="14" lengthAdjust="spacing" textLength="39" x="251" y="546.5117">Other</text><line style="stroke:#000000;stroke-width:1.0;" x1="246" x2="246" y1="530.9766" y2="551.4648"/><line style="stroke:#000000;stroke-width:1.0;" x1="82" x2="410" y1="551.4648" y2="551.4648"/><text fill="#000000" font-family="sans-serif" font-size="14" font-weight="bold" lengthAdjust="spacing" textLength="97" x="87" y="567">ModifiedDate</text><text fill="#000000" font-family="sans-serif" font-size="14" lengthAdjust="spacing" textLength="154" x="251" y="567">2008-04-30 00:00:00</text><line style="stroke:#000000;stroke-width:1.0;" x1="246" x2="246" y1="551.4648" y2="571.9531"/><line style="stroke:#000000;stroke-width:1.0;" x1="82" x2="410" y1="571.9531" y2="571.9531"/><text fill="#000000" font-family="sans-serif" font-size="14" font-weight="bold" lengthAdjust="spacing" textLength="154" x="87" y="587.4883">SYS_EXEC_DURATION</text><text fill="#000000" font-family="sans-serif" font-size="14" lengthAdjust="spacing" textLength="67" x="251" y="587.4883">0.196403</text><line style="stroke:#000000;stroke-width:1.0;" x1="246" x2="246" y1="571.9531" y2="592.4414"/><rect fill="none" height="102.4414" rx="5" ry="5" style="stroke:#000000;stroke-width:1.5;" width="328" x="82" y="490"/><path d="M22,261 L35,261 C99.2464,261 27.4118,168.1982 71,121 C72.7931,119.0584 74.6519,117.1796 76.5703,115.3615 " fill="none" style="stroke:#000000;stroke-width:1.0;stroke-dasharray:3.0,3.0;"/><path d="M78.6797,117.7326 L78.3485,113.7794 L74.4608,112.9905 L82.4979,110.0879 L78.6797,117.7326 " fill="#000000" style="stroke:#000000;stroke-width:1.0;"/><ellipse cx="22" cy="261" fill="#000000" rx="3" ry="3" style="stroke:#000000;stroke-width:1.0;"/><path d="M22,281 L35,281 C58.9176,281 51.0541,254.1989 71,241 C73.4838,239.3564 76.0173,237.7531 78.5936,236.1892 " fill="none" style="stroke:#000000;stroke-width:1.0;stroke-dasharray:3.0,3.0;"/><path d="M80.2128,238.9553 L80.6682,234.9748 L76.9745,233.4232 L85.5088,232.1413 L80.2128,238.9553 " fill="#000000" style="stroke:#000000;stroke-width:1.0;"/><ellipse cx="22" cy="281" fill="#000000" rx="3" ry="3" style="stroke:#000000;stroke-width:1.0;"/><path d="M22,301 L35,301 C45.541,301 56.3789,301 67.313,301 " fill="none" style="stroke:#000000;stroke-width:1.0;stroke-dasharray:3.0,3.0;"/><path d="M67.313,304.0331 L69.5878,301 L67.313,297.9669 L74.8957,301 L67.313,304.0331 " fill="#000000" style="stroke:#000000;stroke-width:1.0;"/><ellipse cx="22" cy="301" fill="#000000" rx="3" ry="3" style="stroke:#000000;stroke-width:1.0;"/><path d="M22,322 L35,322 C58.5891,322 51.2464,348.1066 71,361 C73.4941,362.6279 76.0372,364.2167 78.6224,365.7671 " fill="none" style="stroke:#000000;stroke-width:1.0;stroke-dasharray:3.0,3.0;"/><path d="M77.0165,368.5419 L80.7034,366.9715 L80.2283,362.9923 L85.5593,369.7818 L77.0165,368.5419 " fill="#000000" style="stroke:#000000;stroke-width:1.0;"/><ellipse cx="22" cy="322" fill="#000000" rx="3" ry="3" style="stroke:#000000;stroke-width:1.0;"/><path d="M22,343 L35,343 C98.3859,343 27.9144,434.5091 71,481 C72.7421,482.8798 74.5457,484.7006 76.4053,486.4645 " fill="none" style="stroke:#000000;stroke-width:1.0;stroke-dasharray:3.0,3.0;"/><path d="M74.3564,488.7609 L78.1276,488.0011 L78.4541,484.168 L82.1464,491.5866 L74.3564,488.7609 " fill="#000000" style="stroke:#000000;stroke-width:1.0;"/><ellipse cx="22" cy="343" fill="#000000" rx="3" ry="3" style="stroke:#000000;stroke-width:1.0;"/><!--MD5=[355cdd709d4671301a3e49f5ed1f17d8]
@startjson
[
    {
        "SalesReasonID": 1,
        "Name": "Price",
        "ReasonType": "Other",
        "ModifiedDate": "2008-04-30 00:00:00",
        "SYS_EXEC_DURATION": "0.196115"
    },
    {
        "SalesReasonID": 2,
        "Name": "On Promotion",
        "ReasonType": "Promotion",
        "ModifiedDate": "2008-04-30 00:00:00",
        "SYS_EXEC_DURATION": "0.19626"
    },
    {
        "SalesReasonID": 3,
        "Name": "Magazine Advertisement",
        "ReasonType": "Marketing",
        "ModifiedDate": "2008-04-30 00:00:00",
        "SYS_EXEC_DURATION": "0.196308"
    },
    {
        "SalesReasonID": 4,
        "Name": "Television  Advertisement",
        "ReasonType": "Marketing",
        "ModifiedDate": "2008-04-30 00:00:00",
        "SYS_EXEC_DURATION": "0.19635"
    },
    {
        "SalesReasonID": 5,
        "Name": "Manufacturer",
        "ReasonType": "Other",
        "ModifiedDate": "2008-04-30 00:00:00",
        "SYS_EXEC_DURATION": "0.196403"
    }
]
@endjson

PlantUML version 1.2022.5(Sat Apr 30 06:55:52 EDT 2022)
(GPL source distribution)
Java Runtime: OpenJDK Runtime Environment
JVM: OpenJDK 64-Bit Server VM
Default Encoding: UTF-8
Language: en
Country: CA
--></g></svg>