<?xml version="1.0" encoding="UTF-8" standalone="no"?><svg xmlns="http://www.w3.org/2000/svg" xmlns:xlink="http://www.w3.org/1999/xlink" contentStyleType="text/css" height="182px" preserveAspectRatio="none" style="width:782px;height:182px;background:#FFFFFF;" version="1.1" viewBox="0 0 782 182" width="782px" zoomAndPan="magnify"><defs/><g><rect fill="#F1F1F1" height="81.9531" rx="5" ry="5" style="stroke:#F1F1F1;stroke-width:1.5;" width="235" x="10" y="10"/><text fill="#000000" font-family="sans-serif" font-size="14" font-weight="bold" lengthAdjust="spacing" textLength="42" x="15" y="25.5352">field1</text><text fill="#000000" font-family="sans-serif" font-size="14" lengthAdjust="spacing" textLength="91" x="149" y="25.5352">ModifiedDate</text><line style="stroke:#000000;stroke-width:1.0;" x1="144" x2="144" y1="10" y2="30.4883"/><line style="stroke:#000000;stroke-width:1.0;" x1="10" x2="245" y1="30.4883" y2="30.4883"/><text fill="#000000" font-family="sans-serif" font-size="14" font-weight="bold" lengthAdjust="spacing" textLength="90" x="15" y="46.0234">combination</text><text fill="#000000" font-family="sans-serif" font-size="14" lengthAdjust="spacing" textLength="91" x="149" y="46.0234">ModifiedDate</text><line style="stroke:#000000;stroke-width:1.0;" x1="144" x2="144" y1="30.4883" y2="50.9766"/><line style="stroke:#000000;stroke-width:1.0;" x1="10" x2="245" y1="50.9766" y2="50.9766"/><text fill="#000000" font-family="sans-serif" font-size="14" font-weight="bold" lengthAdjust="spacing" textLength="121" x="15" y="66.5117">null_distribution</text><text fill="#000000" font-family="sans-serif" font-size="14" lengthAdjust="spacing" textLength="12" x="149" y="66.5117">   </text><line style="stroke:#000000;stroke-width:1.0;" x1="144" x2="144" y1="50.9766" y2="71.4648"/><line style="stroke:#000000;stroke-width:1.0;" x1="10" x2="245" y1="71.4648" y2="71.4648"/><text fill="#000000" font-family="sans-serif" font-size="14" font-weight="bold" lengthAdjust="spacing" textLength="124" x="15" y="87">data_distribution</text><text fill="#000000" font-family="sans-serif" font-size="14" lengthAdjust="spacing" textLength="12" x="149" y="87">   </text><line style="stroke:#000000;stroke-width:1.0;" x1="144" x2="144" y1="71.4648" y2="91.9531"/><rect fill="none" height="81.9531" rx="5" ry="5" style="stroke:#000000;stroke-width:1.5;" width="235" x="10" y="10"/><rect fill="#F1F1F1" height="40.9766" rx="5" ry="5" style="stroke:#F1F1F1;stroke-width:1.5;" width="180" x="282" y="21.5"/><text fill="#000000" font-family="sans-serif" font-size="14" font-weight="bold" lengthAdjust="spacing" textLength="111" x="287" y="37.0352">total_null_rows</text><text fill="#000000" font-family="sans-serif" font-size="14" lengthAdjust="spacing" textLength="9" x="439" y="37.0352">0</text><line style="stroke:#000000;stroke-width:1.0;" x1="434" x2="434" y1="21.5" y2="41.9883"/><line style="stroke:#000000;stroke-width:1.0;" x1="282" x2="462" y1="41.9883" y2="41.9883"/><text fill="#000000" font-family="sans-serif" font-size="14" font-weight="bold" lengthAdjust="spacing" textLength="142" x="287" y="57.5234">total_not_null_rows</text><text fill="#000000" font-family="sans-serif" font-size="14" lengthAdjust="spacing" textLength="18" x="439" y="57.5234">13</text><line style="stroke:#000000;stroke-width:1.0;" x1="434" x2="434" y1="41.9883" y2="62.4766"/><rect fill="none" height="40.9766" rx="5" ry="5" style="stroke:#000000;stroke-width:1.5;" width="180" x="282" y="21.5"/><rect fill="#F1F1F1" height="40.9766" rx="5" ry="5" style="stroke:#F1F1F1;stroke-width:1.5;" width="22" x="360" y="80.5"/><text fill="#000000" font-family="sans-serif" font-size="14" lengthAdjust="spacing" textLength="12" x="365" y="96.0352">   </text><line style="stroke:#000000;stroke-width:1.0;" x1="360" x2="382" y1="100.9883" y2="100.9883"/><text fill="#000000" font-family="sans-serif" font-size="14" lengthAdjust="spacing" textLength="12" x="365" y="116.5234">   </text><rect fill="none" height="40.9766" rx="5" ry="5" style="stroke:#000000;stroke-width:1.5;" width="22" x="360" y="80.5"/><rect fill="#F1F1F1" height="61.4648" rx="5" ry="5" style="stroke:#F1F1F1;stroke-width:1.5;" width="264" x="502.5" y="30.5"/><text fill="#000000" font-family="sans-serif" font-size="14" font-weight="bold" lengthAdjust="spacing" textLength="78" x="507.5" y="46.0352">field_value</text><text fill="#000000" font-family="sans-serif" font-size="14" lengthAdjust="spacing" textLength="150" x="611.5" y="46.0352">Jun 23 2007 12:00AM</text><line style="stroke:#000000;stroke-width:1.0;" x1="606.5" x2="606.5" y1="30.5" y2="50.9883"/><line style="stroke:#000000;stroke-width:1.0;" x1="502.5" x2="766.5" y1="50.9883" y2="50.9883"/><text fill="#000000" font-family="sans-serif" font-size="14" font-weight="bold" lengthAdjust="spacing" textLength="74" x="507.5" y="66.5234">row_count</text><text fill="#000000" font-family="sans-serif" font-size="14" lengthAdjust="spacing" textLength="18" x="611.5" y="66.5234">11</text><line style="stroke:#000000;stroke-width:1.0;" x1="606.5" x2="606.5" y1="50.9883" y2="71.4766"/><line style="stroke:#000000;stroke-width:1.0;" x1="502.5" x2="766.5" y1="71.4766" y2="71.4766"/><text fill="#000000" font-family="sans-serif" font-size="14" font-weight="bold" lengthAdjust="spacing" textLength="94" x="507.5" y="87.0117">ratio_percent</text><text fill="#000000" font-family="sans-serif" font-size="14" lengthAdjust="spacing" textLength="148" x="611.5" y="87.0117">84.61538461538461</text><line style="stroke:#000000;stroke-width:1.0;" x1="606.5" x2="606.5" y1="71.4766" y2="91.9648"/><rect fill="none" height="61.4648" rx="5" ry="5" style="stroke:#000000;stroke-width:1.5;" width="264" x="502.5" y="30.5"/><rect fill="#F1F1F1" height="61.4648" rx="5" ry="5" style="stroke:#F1F1F1;stroke-width:1.5;" width="271" x="499" y="109.5"/><text fill="#000000" font-family="sans-serif" font-size="14" font-weight="bold" lengthAdjust="spacing" textLength="78" x="504" y="125.0352">field_value</text><text fill="#000000" font-family="sans-serif" font-size="14" lengthAdjust="spacing" textLength="146" x="608" y="125.0352">Dec 22 2013  6:32PM</text><line style="stroke:#000000;stroke-width:1.0;" x1="603" x2="603" y1="109.5" y2="129.9883"/><line style="stroke:#000000;stroke-width:1.0;" x1="499" x2="770" y1="129.9883" y2="129.9883"/><text fill="#000000" font-family="sans-serif" font-size="14" font-weight="bold" lengthAdjust="spacing" textLength="74" x="504" y="145.5234">row_count</text><text fill="#000000" font-family="sans-serif" font-size="14" lengthAdjust="spacing" textLength="9" x="608" y="145.5234">2</text><line style="stroke:#000000;stroke-width:1.0;" x1="603" x2="603" y1="129.9883" y2="150.4766"/><line style="stroke:#000000;stroke-width:1.0;" x1="499" x2="770" y1="150.4766" y2="150.4766"/><text fill="#000000" font-family="sans-serif" font-size="14" font-weight="bold" lengthAdjust="spacing" textLength="94" x="504" y="166.0117">ratio_percent</text><text fill="#000000" font-family="sans-serif" font-size="14" lengthAdjust="spacing" textLength="157" x="608" y="166.0117">15.384615384615385</text><line style="stroke:#000000;stroke-width:1.0;" x1="603" x2="603" y1="150.4766" y2="170.9648"/><rect fill="none" height="61.4648" rx="5" ry="5" style="stroke:#000000;stroke-width:1.5;" width="271" x="499" y="109.5"/><path d="M233,61 L246,61 C255.3027,61 264.9499,60.4833 274.5752,59.6204 " fill="none" style="stroke:#000000;stroke-width:1.0;stroke-dasharray:3.0,3.0;"/><path d="M274.8804,62.7034 L276.8875,59.3915 L274.27,56.5374 L282.2828,58.8574 L274.8804,62.7034 " fill="#000000" style="stroke:#000000;stroke-width:1.0;"/><ellipse cx="233" cy="61" fill="#000000" rx="3" ry="3" style="stroke:#000000;stroke-width:1.0;"/><path d="M372.5,90 L385.5,90 C421.1847,90 459.5587,87.0132 495.2207,82.9568 " fill="none" style="stroke:#000000;stroke-width:1.0;stroke-dasharray:3.0,3.0;"/><path d="M495.5731,85.9835 L497.4907,82.6924 L494.8682,79.9301 L502.7874,82.0756 L495.5731,85.9835 " fill="#000000" style="stroke:#000000;stroke-width:1.0;"/><ellipse cx="372.5" cy="90" fill="#000000" rx="3" ry="3" style="stroke:#000000;stroke-width:1.0;"/><path d="M372.5,111 L385.5,111 C419.9249,111 456.8526,113.7796 491.4338,117.6177 " fill="none" style="stroke:#000000;stroke-width:1.0;stroke-dasharray:3.0,3.0;"/><path d="M491.0785,120.7392 L493.7749,117.8842 L491.7891,114.4962 L499.2376,118.5059 L491.0785,120.7392 " fill="#000000" style="stroke:#000000;stroke-width:1.0;"/><ellipse cx="372.5" cy="111" fill="#000000" rx="3" ry="3" style="stroke:#000000;stroke-width:1.0;"/><path d="M233,82 L246,82 C284.2109,82 328.2361,90.7169 352.6685,96.3422 " fill="none" style="stroke:#000000;stroke-width:1.0;stroke-dasharray:3.0,3.0;"/><path d="M351.9597,99.3414 L354.9179,96.8738 L353.3773,93.343 L360.1664,98.1143 L351.9597,99.3414 " fill="#000000" style="stroke:#000000;stroke-width:1.0;"/><ellipse cx="233" cy="82" fill="#000000" rx="3" ry="3" style="stroke:#000000;stroke-width:1.0;"/><!--MD5=[a49ee7182ff5ead046dd6d0288b68831]
@startjson
{
    "field1": "ModifiedDate",
    "combination": "ModifiedDate",
    "null_distribution": {
        "total_null_rows": 0,
        "total_not_null_rows": 13
    },
    "data_distribution": [
        {
            "field_value": "Jun 23 2007 12:00AM",
            "row_count": 11,
            "ratio_percent": 84.61538461538461
        },
        {
            "field_value": "Dec 22 2013  6:32PM",
            "row_count": 2,
            "ratio_percent": 15.384615384615385
        }
    ]
}
@endjson

PlantUML version 1.2022.5(Sat Apr 30 06:55:52 EDT 2022)
(GPL source distribution)
Java Runtime: OpenJDK Runtime Environment
JVM: OpenJDK 64-Bit Server VM
Default Encoding: UTF-8
Language: en
Country: CA
--></g></svg>