<?xml version="1.0" encoding="UTF-8" standalone="no"?><svg xmlns="http://www.w3.org/2000/svg" xmlns:xlink="http://www.w3.org/1999/xlink" contentStyleType="text/css" height="794px" preserveAspectRatio="none" style="width:826px;height:794px;background:#FFFFFF;" version="1.1" viewBox="0 0 826 794" width="826px" zoomAndPan="magnify"><defs/><g><rect fill="#F1F1F1" height="81.9531" rx="5" ry="5" style="stroke:#F1F1F1;stroke-width:1.5;" width="270" x="10" y="264.5"/><text fill="#000000" font-family="sans-serif" font-size="14" font-weight="bold" lengthAdjust="spacing" textLength="42" x="15" y="280.0352">field1</text><text fill="#000000" font-family="sans-serif" font-size="14" lengthAdjust="spacing" textLength="126" x="149" y="280.0352">NationalIDNumber</text><line style="stroke:#000000;stroke-width:1.0;" x1="144" x2="144" y1="264.5" y2="284.9883"/><line style="stroke:#000000;stroke-width:1.0;" x1="10" x2="280" y1="284.9883" y2="284.9883"/><text fill="#000000" font-family="sans-serif" font-size="14" font-weight="bold" lengthAdjust="spacing" textLength="90" x="15" y="300.5234">combination</text><text fill="#000000" font-family="sans-serif" font-size="14" lengthAdjust="spacing" textLength="126" x="149" y="300.5234">NationalIDNumber</text><line style="stroke:#000000;stroke-width:1.0;" x1="144" x2="144" y1="284.9883" y2="305.4766"/><line style="stroke:#000000;stroke-width:1.0;" x1="10" x2="280" y1="305.4766" y2="305.4766"/><text fill="#000000" font-family="sans-serif" font-size="14" font-weight="bold" lengthAdjust="spacing" textLength="121" x="15" y="321.0117">null_distribution</text><text fill="#000000" font-family="sans-serif" font-size="14" lengthAdjust="spacing" textLength="12" x="149" y="321.0117">   </text><line style="stroke:#000000;stroke-width:1.0;" x1="144" x2="144" y1="305.4766" y2="325.9648"/><line style="stroke:#000000;stroke-width:1.0;" x1="10" x2="280" y1="325.9648" y2="325.9648"/><text fill="#000000" font-family="sans-serif" font-size="14" font-weight="bold" lengthAdjust="spacing" textLength="124" x="15" y="341.5">data_distribution</text><text fill="#000000" font-family="sans-serif" font-size="14" lengthAdjust="spacing" textLength="12" x="149" y="341.5">   </text><line style="stroke:#000000;stroke-width:1.0;" x1="144" x2="144" y1="325.9648" y2="346.4531"/><rect fill="none" height="81.9531" rx="5" ry="5" style="stroke:#000000;stroke-width:1.5;" width="270" x="10" y="264.5"/><rect fill="#F1F1F1" height="40.9766" rx="5" ry="5" style="stroke:#F1F1F1;stroke-width:1.5;" width="189" x="317" y="235"/><text fill="#000000" font-family="sans-serif" font-size="14" font-weight="bold" lengthAdjust="spacing" textLength="111" x="322" y="250.5352">total_null_rows</text><text fill="#000000" font-family="sans-serif" font-size="14" lengthAdjust="spacing" textLength="9" x="474" y="250.5352">0</text><line style="stroke:#000000;stroke-width:1.0;" x1="469" x2="469" y1="235" y2="255.4883"/><line style="stroke:#000000;stroke-width:1.0;" x1="317" x2="506" y1="255.4883" y2="255.4883"/><text fill="#000000" font-family="sans-serif" font-size="14" font-weight="bold" lengthAdjust="spacing" textLength="142" x="322" y="271.0234">total_not_null_rows</text><text fill="#000000" font-family="sans-serif" font-size="14" lengthAdjust="spacing" textLength="27" x="474" y="271.0234">290</text><line style="stroke:#000000;stroke-width:1.0;" x1="469" x2="469" y1="255.4883" y2="275.9766"/><rect fill="none" height="40.9766" rx="5" ry="5" style="stroke:#000000;stroke-width:1.5;" width="189" x="317" y="235"/><rect fill="#F1F1F1" height="204.8828" rx="5" ry="5" style="stroke:#F1F1F1;stroke-width:1.5;" width="22" x="399.5" y="294"/><text fill="#000000" font-family="sans-serif" font-size="14" lengthAdjust="spacing" textLength="12" x="404.5" y="309.5352">   </text><line style="stroke:#000000;stroke-width:1.0;" x1="399.5" x2="421.5" y1="314.4883" y2="314.4883"/><text fill="#000000" font-family="sans-serif" font-size="14" lengthAdjust="spacing" textLength="12" x="404.5" y="330.0234">   </text><line style="stroke:#000000;stroke-width:1.0;" x1="399.5" x2="421.5" y1="334.9766" y2="334.9766"/><text fill="#000000" font-family="sans-serif" font-size="14" lengthAdjust="spacing" textLength="12" x="404.5" y="350.5117">   </text><line style="stroke:#000000;stroke-width:1.0;" x1="399.5" x2="421.5" y1="355.4648" y2="355.4648"/><text fill="#000000" font-family="sans-serif" font-size="14" lengthAdjust="spacing" textLength="12" x="404.5" y="371">   </text><line style="stroke:#000000;stroke-width:1.0;" x1="399.5" x2="421.5" y1="375.9531" y2="375.9531"/><text fill="#000000" font-family="sans-serif" font-size="14" lengthAdjust="spacing" textLength="12" x="404.5" y="391.4883">   </text><line style="stroke:#000000;stroke-width:1.0;" x1="399.5" x2="421.5" y1="396.4414" y2="396.4414"/><text fill="#000000" font-family="sans-serif" font-size="14" lengthAdjust="spacing" textLength="12" x="404.5" y="411.9766">   </text><line style="stroke:#000000;stroke-width:1.0;" x1="399.5" x2="421.5" y1="416.9297" y2="416.9297"/><text fill="#000000" font-family="sans-serif" font-size="14" lengthAdjust="spacing" textLength="12" x="404.5" y="432.4648">   </text><line style="stroke:#000000;stroke-width:1.0;" x1="399.5" x2="421.5" y1="437.418" y2="437.418"/><text fill="#000000" font-family="sans-serif" font-size="14" lengthAdjust="spacing" textLength="12" x="404.5" y="452.9531">   </text><line style="stroke:#000000;stroke-width:1.0;" x1="399.5" x2="421.5" y1="457.9063" y2="457.9063"/><text fill="#000000" font-family="sans-serif" font-size="14" lengthAdjust="spacing" textLength="12" x="404.5" y="473.4414">   </text><line style="stroke:#000000;stroke-width:1.0;" x1="399.5" x2="421.5" y1="478.3945" y2="478.3945"/><text fill="#000000" font-family="sans-serif" font-size="14" lengthAdjust="spacing" textLength="12" x="404.5" y="493.9297">   </text><rect fill="none" height="204.8828" rx="5" ry="5" style="stroke:#000000;stroke-width:1.5;" width="22" x="399.5" y="294"/><rect fill="#F1F1F1" height="61.4648" rx="5" ry="5" style="stroke:#F1F1F1;stroke-width:1.5;" width="271" x="543" y="10"/><text fill="#000000" font-family="sans-serif" font-size="14" font-weight="bold" lengthAdjust="spacing" textLength="78" x="548" y="25.5352">field_value</text><text fill="#000000" font-family="sans-serif" font-size="14" lengthAdjust="spacing" textLength="81" x="652" y="25.5352">134219713</text><line style="stroke:#000000;stroke-width:1.0;" x1="647" x2="647" y1="10" y2="30.4883"/><line style="stroke:#000000;stroke-width:1.0;" x1="543" x2="814" y1="30.4883" y2="30.4883"/><text fill="#000000" font-family="sans-serif" font-size="14" font-weight="bold" lengthAdjust="spacing" textLength="74" x="548" y="46.0234">row_count</text><text fill="#000000" font-family="sans-serif" font-size="14" lengthAdjust="spacing" textLength="9" x="652" y="46.0234">1</text><line style="stroke:#000000;stroke-width:1.0;" x1="647" x2="647" y1="30.4883" y2="50.9766"/><line style="stroke:#000000;stroke-width:1.0;" x1="543" x2="814" y1="50.9766" y2="50.9766"/><text fill="#000000" font-family="sans-serif" font-size="14" font-weight="bold" lengthAdjust="spacing" textLength="94" x="548" y="66.5117">ratio_percent</text><text fill="#000000" font-family="sans-serif" font-size="14" lengthAdjust="spacing" textLength="157" x="652" y="66.5117">0.3448275862068966</text><line style="stroke:#000000;stroke-width:1.0;" x1="647" x2="647" y1="50.9766" y2="71.4648"/><rect fill="none" height="61.4648" rx="5" ry="5" style="stroke:#000000;stroke-width:1.5;" width="271" x="543" y="10"/><rect fill="#F1F1F1" height="61.4648" rx="5" ry="5" style="stroke:#F1F1F1;stroke-width:1.5;" width="271" x="543" y="89"/><text fill="#000000" font-family="sans-serif" font-size="14" font-weight="bold" lengthAdjust="spacing" textLength="78" x="548" y="104.5352">field_value</text><text fill="#000000" font-family="sans-serif" font-size="14" lengthAdjust="spacing" textLength="81" x="652" y="104.5352">132674823</text><line style="stroke:#000000;stroke-width:1.0;" x1="647" x2="647" y1="89" y2="109.4883"/><line style="stroke:#000000;stroke-width:1.0;" x1="543" x2="814" y1="109.4883" y2="109.4883"/><text fill="#000000" font-family="sans-serif" font-size="14" font-weight="bold" lengthAdjust="spacing" textLength="74" x="548" y="125.0234">row_count</text><text fill="#000000" font-family="sans-serif" font-size="14" lengthAdjust="spacing" textLength="9" x="652" y="125.0234">1</text><line style="stroke:#000000;stroke-width:1.0;" x1="647" x2="647" y1="109.4883" y2="129.9766"/><line style="stroke:#000000;stroke-width:1.0;" x1="543" x2="814" y1="129.9766" y2="129.9766"/><text fill="#000000" font-family="sans-serif" font-size="14" font-weight="bold" lengthAdjust="spacing" textLength="94" x="548" y="145.5117">ratio_percent</text><text fill="#000000" font-family="sans-serif" font-size="14" lengthAdjust="spacing" textLength="157" x="652" y="145.5117">0.3448275862068966</text><line style="stroke:#000000;stroke-width:1.0;" x1="647" x2="647" y1="129.9766" y2="150.4648"/><rect fill="none" height="61.4648" rx="5" ry="5" style="stroke:#000000;stroke-width:1.5;" width="271" x="543" y="89"/><rect fill="#F1F1F1" height="61.4648" rx="5" ry="5" style="stroke:#F1F1F1;stroke-width:1.5;" width="271" x="543" y="168"/><text fill="#000000" font-family="sans-serif" font-size="14" font-weight="bold" lengthAdjust="spacing" textLength="78" x="548" y="183.5352">field_value</text><text fill="#000000" font-family="sans-serif" font-size="14" lengthAdjust="spacing" textLength="81" x="652" y="183.5352">131471224</text><line style="stroke:#000000;stroke-width:1.0;" x1="647" x2="647" y1="168" y2="188.4883"/><line style="stroke:#000000;stroke-width:1.0;" x1="543" x2="814" y1="188.4883" y2="188.4883"/><text fill="#000000" font-family="sans-serif" font-size="14" font-weight="bold" lengthAdjust="spacing" textLength="74" x="548" y="204.0234">row_count</text><text fill="#000000" font-family="sans-serif" font-size="14" lengthAdjust="spacing" textLength="9" x="652" y="204.0234">1</text><line style="stroke:#000000;stroke-width:1.0;" x1="647" x2="647" y1="188.4883" y2="208.9766"/><line style="stroke:#000000;stroke-width:1.0;" x1="543" x2="814" y1="208.9766" y2="208.9766"/><text fill="#000000" font-family="sans-serif" font-size="14" font-weight="bold" lengthAdjust="spacing" textLength="94" x="548" y="224.5117">ratio_percent</text><text fill="#000000" font-family="sans-serif" font-size="14" lengthAdjust="spacing" textLength="157" x="652" y="224.5117">0.3448275862068966</text><line style="stroke:#000000;stroke-width:1.0;" x1="647" x2="647" y1="208.9766" y2="229.4648"/><rect fill="none" height="61.4648" rx="5" ry="5" style="stroke:#000000;stroke-width:1.5;" width="271" x="543" y="168"/><rect fill="#F1F1F1" height="61.4648" rx="5" ry="5" style="stroke:#F1F1F1;stroke-width:1.5;" width="271" x="543" y="247"/><text fill="#000000" font-family="sans-serif" font-size="14" font-weight="bold" lengthAdjust="spacing" textLength="78" x="548" y="262.5352">field_value</text><text fill="#000000" font-family="sans-serif" font-size="14" lengthAdjust="spacing" textLength="63" x="652" y="262.5352">1300049</text><line style="stroke:#000000;stroke-width:1.0;" x1="647" x2="647" y1="247" y2="267.4883"/><line style="stroke:#000000;stroke-width:1.0;" x1="543" x2="814" y1="267.4883" y2="267.4883"/><text fill="#000000" font-family="sans-serif" font-size="14" font-weight="bold" lengthAdjust="spacing" textLength="74" x="548" y="283.0234">row_count</text><text fill="#000000" font-family="sans-serif" font-size="14" lengthAdjust="spacing" textLength="9" x="652" y="283.0234">1</text><line style="stroke:#000000;stroke-width:1.0;" x1="647" x2="647" y1="267.4883" y2="287.9766"/><line style="stroke:#000000;stroke-width:1.0;" x1="543" x2="814" y1="287.9766" y2="287.9766"/><text fill="#000000" font-family="sans-serif" font-size="14" font-weight="bold" lengthAdjust="spacing" textLength="94" x="548" y="303.5117">ratio_percent</text><text fill="#000000" font-family="sans-serif" font-size="14" lengthAdjust="spacing" textLength="157" x="652" y="303.5117">0.3448275862068966</text><line style="stroke:#000000;stroke-width:1.0;" x1="647" x2="647" y1="287.9766" y2="308.4648"/><rect fill="none" height="61.4648" rx="5" ry="5" style="stroke:#000000;stroke-width:1.5;" width="271" x="543" y="247"/><rect fill="#F1F1F1" height="61.4648" rx="5" ry="5" style="stroke:#F1F1F1;stroke-width:1.5;" width="271" x="543" y="326"/><text fill="#000000" font-family="sans-serif" font-size="14" font-weight="bold" lengthAdjust="spacing" textLength="78" x="548" y="341.5352">field_value</text><text fill="#000000" font-family="sans-serif" font-size="14" lengthAdjust="spacing" textLength="81" x="652" y="341.5352">121491555</text><line style="stroke:#000000;stroke-width:1.0;" x1="647" x2="647" y1="326" y2="346.4883"/><line style="stroke:#000000;stroke-width:1.0;" x1="543" x2="814" y1="346.4883" y2="346.4883"/><text fill="#000000" font-family="sans-serif" font-size="14" font-weight="bold" lengthAdjust="spacing" textLength="74" x="548" y="362.0234">row_count</text><text fill="#000000" font-family="sans-serif" font-size="14" lengthAdjust="spacing" textLength="9" x="652" y="362.0234">1</text><line style="stroke:#000000;stroke-width:1.0;" x1="647" x2="647" y1="346.4883" y2="366.9766"/><line style="stroke:#000000;stroke-width:1.0;" x1="543" x2="814" y1="366.9766" y2="366.9766"/><text fill="#000000" font-family="sans-serif" font-size="14" font-weight="bold" lengthAdjust="spacing" textLength="94" x="548" y="382.5117">ratio_percent</text><text fill="#000000" font-family="sans-serif" font-size="14" lengthAdjust="spacing" textLength="157" x="652" y="382.5117">0.3448275862068966</text><line style="stroke:#000000;stroke-width:1.0;" x1="647" x2="647" y1="366.9766" y2="387.4648"/><rect fill="none" height="61.4648" rx="5" ry="5" style="stroke:#000000;stroke-width:1.5;" width="271" x="543" y="326"/><rect fill="#F1F1F1" height="61.4648" rx="5" ry="5" style="stroke:#F1F1F1;stroke-width:1.5;" width="271" x="543" y="405"/><text fill="#000000" font-family="sans-serif" font-size="14" font-weight="bold" lengthAdjust="spacing" textLength="78" x="548" y="420.5352">field_value</text><text fill="#000000" font-family="sans-serif" font-size="14" lengthAdjust="spacing" textLength="81" x="652" y="420.5352">113695504</text><line style="stroke:#000000;stroke-width:1.0;" x1="647" x2="647" y1="405" y2="425.4883"/><line style="stroke:#000000;stroke-width:1.0;" x1="543" x2="814" y1="425.4883" y2="425.4883"/><text fill="#000000" font-family="sans-serif" font-size="14" font-weight="bold" lengthAdjust="spacing" textLength="74" x="548" y="441.0234">row_count</text><text fill="#000000" font-family="sans-serif" font-size="14" lengthAdjust="spacing" textLength="9" x="652" y="441.0234">1</text><line style="stroke:#000000;stroke-width:1.0;" x1="647" x2="647" y1="425.4883" y2="445.9766"/><line style="stroke:#000000;stroke-width:1.0;" x1="543" x2="814" y1="445.9766" y2="445.9766"/><text fill="#000000" font-family="sans-serif" font-size="14" font-weight="bold" lengthAdjust="spacing" textLength="94" x="548" y="461.5117">ratio_percent</text><text fill="#000000" font-family="sans-serif" font-size="14" lengthAdjust="spacing" textLength="157" x="652" y="461.5117">0.3448275862068966</text><line style="stroke:#000000;stroke-width:1.0;" x1="647" x2="647" y1="445.9766" y2="466.4648"/><rect fill="none" height="61.4648" rx="5" ry="5" style="stroke:#000000;stroke-width:1.5;" width="271" x="543" y="405"/><rect fill="#F1F1F1" height="61.4648" rx="5" ry="5" style="stroke:#F1F1F1;stroke-width:1.5;" width="271" x="543" y="484"/><text fill="#000000" font-family="sans-serif" font-size="14" font-weight="bold" lengthAdjust="spacing" textLength="78" x="548" y="499.5352">field_value</text><text fill="#000000" font-family="sans-serif" font-size="14" lengthAdjust="spacing" textLength="81" x="652" y="499.5352">113393530</text><line style="stroke:#000000;stroke-width:1.0;" x1="647" x2="647" y1="484" y2="504.4883"/><line style="stroke:#000000;stroke-width:1.0;" x1="543" x2="814" y1="504.4883" y2="504.4883"/><text fill="#000000" font-family="sans-serif" font-size="14" font-weight="bold" lengthAdjust="spacing" textLength="74" x="548" y="520.0234">row_count</text><text fill="#000000" font-family="sans-serif" font-size="14" lengthAdjust="spacing" textLength="9" x="652" y="520.0234">1</text><line style="stroke:#000000;stroke-width:1.0;" x1="647" x2="647" y1="504.4883" y2="524.9766"/><line style="stroke:#000000;stroke-width:1.0;" x1="543" x2="814" y1="524.9766" y2="524.9766"/><text fill="#000000" font-family="sans-serif" font-size="14" font-weight="bold" lengthAdjust="spacing" textLength="94" x="548" y="540.5117">ratio_percent</text><text fill="#000000" font-family="sans-serif" font-size="14" lengthAdjust="spacing" textLength="157" x="652" y="540.5117">0.3448275862068966</text><line style="stroke:#000000;stroke-width:1.0;" x1="647" x2="647" y1="524.9766" y2="545.4648"/><rect fill="none" height="61.4648" rx="5" ry="5" style="stroke:#000000;stroke-width:1.5;" width="271" x="543" y="484"/><rect fill="#F1F1F1" height="61.4648" rx="5" ry="5" style="stroke:#F1F1F1;stroke-width:1.5;" width="271" x="543" y="563"/><text fill="#000000" font-family="sans-serif" font-size="14" font-weight="bold" lengthAdjust="spacing" textLength="78" x="548" y="578.5352">field_value</text><text fill="#000000" font-family="sans-serif" font-size="14" lengthAdjust="spacing" textLength="81" x="652" y="578.5352">112457891</text><line style="stroke:#000000;stroke-width:1.0;" x1="647" x2="647" y1="563" y2="583.4883"/><line style="stroke:#000000;stroke-width:1.0;" x1="543" x2="814" y1="583.4883" y2="583.4883"/><text fill="#000000" font-family="sans-serif" font-size="14" font-weight="bold" lengthAdjust="spacing" textLength="74" x="548" y="599.0234">row_count</text><text fill="#000000" font-family="sans-serif" font-size="14" lengthAdjust="spacing" textLength="9" x="652" y="599.0234">1</text><line style="stroke:#000000;stroke-width:1.0;" x1="647" x2="647" y1="583.4883" y2="603.9766"/><line style="stroke:#000000;stroke-width:1.0;" x1="543" x2="814" y1="603.9766" y2="603.9766"/><text fill="#000000" font-family="sans-serif" font-size="14" font-weight="bold" lengthAdjust="spacing" textLength="94" x="548" y="619.5117">ratio_percent</text><text fill="#000000" font-family="sans-serif" font-size="14" lengthAdjust="spacing" textLength="157" x="652" y="619.5117">0.3448275862068966</text><line style="stroke:#000000;stroke-width:1.0;" x1="647" x2="647" y1="603.9766" y2="624.4648"/><rect fill="none" height="61.4648" rx="5" ry="5" style="stroke:#000000;stroke-width:1.5;" width="271" x="543" y="563"/><rect fill="#F1F1F1" height="61.4648" rx="5" ry="5" style="stroke:#F1F1F1;stroke-width:1.5;" width="271" x="543" y="642"/><text fill="#000000" font-family="sans-serif" font-size="14" font-weight="bold" lengthAdjust="spacing" textLength="78" x="548" y="657.5352">field_value</text><text fill="#000000" font-family="sans-serif" font-size="14" lengthAdjust="spacing" textLength="81" x="652" y="657.5352">112432117</text><line style="stroke:#000000;stroke-width:1.0;" x1="647" x2="647" y1="642" y2="662.4883"/><line style="stroke:#000000;stroke-width:1.0;" x1="543" x2="814" y1="662.4883" y2="662.4883"/><text fill="#000000" font-family="sans-serif" font-size="14" font-weight="bold" lengthAdjust="spacing" textLength="74" x="548" y="678.0234">row_count</text><text fill="#000000" font-family="sans-serif" font-size="14" lengthAdjust="spacing" textLength="9" x="652" y="678.0234">1</text><line style="stroke:#000000;stroke-width:1.0;" x1="647" x2="647" y1="662.4883" y2="682.9766"/><line style="stroke:#000000;stroke-width:1.0;" x1="543" x2="814" y1="682.9766" y2="682.9766"/><text fill="#000000" font-family="sans-serif" font-size="14" font-weight="bold" lengthAdjust="spacing" textLength="94" x="548" y="698.5117">ratio_percent</text><text fill="#000000" font-family="sans-serif" font-size="14" lengthAdjust="spacing" textLength="157" x="652" y="698.5117">0.3448275862068966</text><line style="stroke:#000000;stroke-width:1.0;" x1="647" x2="647" y1="682.9766" y2="703.4648"/><rect fill="none" height="61.4648" rx="5" ry="5" style="stroke:#000000;stroke-width:1.5;" width="271" x="543" y="642"/><rect fill="#F1F1F1" height="61.4648" rx="5" ry="5" style="stroke:#F1F1F1;stroke-width:1.5;" width="271" x="543" y="721"/><text fill="#000000" font-family="sans-serif" font-size="14" font-weight="bold" lengthAdjust="spacing" textLength="78" x="548" y="736.5352">field_value</text><text fill="#000000" font-family="sans-serif" font-size="14" lengthAdjust="spacing" textLength="81" x="652" y="736.5352">109272464</text><line style="stroke:#000000;stroke-width:1.0;" x1="647" x2="647" y1="721" y2="741.4883"/><line style="stroke:#000000;stroke-width:1.0;" x1="543" x2="814" y1="741.4883" y2="741.4883"/><text fill="#000000" font-family="sans-serif" font-size="14" font-weight="bold" lengthAdjust="spacing" textLength="74" x="548" y="757.0234">row_count</text><text fill="#000000" font-family="sans-serif" font-size="14" lengthAdjust="spacing" textLength="9" x="652" y="757.0234">1</text><line style="stroke:#000000;stroke-width:1.0;" x1="647" x2="647" y1="741.4883" y2="761.9766"/><line style="stroke:#000000;stroke-width:1.0;" x1="543" x2="814" y1="761.9766" y2="761.9766"/><text fill="#000000" font-family="sans-serif" font-size="14" font-weight="bold" lengthAdjust="spacing" textLength="94" x="548" y="777.5117">ratio_percent</text><text fill="#000000" font-family="sans-serif" font-size="14" lengthAdjust="spacing" textLength="157" x="652" y="777.5117">0.3448275862068966</text><line style="stroke:#000000;stroke-width:1.0;" x1="647" x2="647" y1="761.9766" y2="782.4648"/><rect fill="none" height="61.4648" rx="5" ry="5" style="stroke:#000000;stroke-width:1.5;" width="271" x="543" y="721"/><path d="M268,315.5 L281,315.5 C301.8273,315.5 298.7406,295.5187 317,285.5 C321.1394,283.2288 325.4771,281.0988 329.9224,279.1061 " fill="none" style="stroke:#000000;stroke-width:1.0;stroke-dasharray:3.0,3.0;"/><path d="M331.1301,281.9305 L332.0407,278.2004 L328.7148,276.2817 L336.9835,276.0871 L331.1301,281.9305 " fill="#000000" style="stroke:#000000;stroke-width:1.0;"/><ellipse cx="268" cy="315.5" fill="#000000" rx="3" ry="3" style="stroke:#000000;stroke-width:1.0;"/><path d="M412,303.5 L425,303.5 C462.3122,303.5 481.1906,312.4458 507,285.5 C571.2901,218.3792 480.93,148.679 543,79.5 C544.0081,78.3765 545.0463,77.2844 546.1126,76.2231 " fill="none" style="stroke:#000000;stroke-width:1.0;stroke-dasharray:3.0,3.0;"/><path d="M548.1347,78.4455 L547.7795,74.7065 L544.0905,74.0006 L551.6688,71.1678 L548.1347,78.4455 " fill="#000000" style="stroke:#000000;stroke-width:1.0;"/><ellipse cx="412" cy="303.5" fill="#000000" rx="3" ry="3" style="stroke:#000000;stroke-width:1.0;"/><path d="M412,324.5 L425,324.5 C465.3564,324.5 480.9543,316.3264 507,285.5 C544.864,240.686 501.6193,200.0887 543,158.5 C544.2233,157.2705 545.4828,156.0793 546.7755,154.925 " fill="none" style="stroke:#000000;stroke-width:1.0;stroke-dasharray:3.0,3.0;"/><path d="M548.7064,157.2737 L548.537,153.4769 L544.8447,152.5764 L552.6472,150.0978 L548.7064,157.2737 " fill="#000000" style="stroke:#000000;stroke-width:1.0;"/><ellipse cx="412" cy="324.5" fill="#000000" rx="3" ry="3" style="stroke:#000000;stroke-width:1.0;"/><path d="M412,344.5 L425,344.5 C469.8977,344.5 474.9398,316.9316 507,285.5 C526.0419,266.8314 521.0554,252.6508 543,237.5 C545.3464,235.88 547.7599,234.3267 550.2295,232.8373 " fill="none" style="stroke:#000000;stroke-width:1.0;stroke-dasharray:3.0,3.0;"/><path d="M551.7476,235.5016 L552.2277,231.6987 L548.7115,230.173 L556.8903,229.0421 L551.7476,235.5016 " fill="#000000" style="stroke:#000000;stroke-width:1.0;"/><ellipse cx="412" cy="344.5" fill="#000000" rx="3" ry="3" style="stroke:#000000;stroke-width:1.0;"/><path d="M412,365.5 L425,365.5 C481.6174,365.5 489.5709,336.2315 543,317.5 C549.8339,315.1041 556.894,312.7271 564.0365,310.3966 " fill="none" style="stroke:#000000;stroke-width:1.0;stroke-dasharray:3.0,3.0;"/><path d="M564.9621,313.2625 L566.1859,309.7025 L563.1109,307.5308 L571.2011,308.0827 L564.9621,313.2625 " fill="#000000" style="stroke:#000000;stroke-width:1.0;"/><ellipse cx="412" cy="365.5" fill="#000000" rx="3" ry="3" style="stroke:#000000;stroke-width:1.0;"/><path d="M412,385.5 L425,385.5 C461.0127,385.5 499.7224,382.5639 535.7667,378.5603 " fill="none" style="stroke:#000000;stroke-width:1.0;stroke-dasharray:3.0,3.0;"/><path d="M536.1147,381.6199 L538.0615,378.2993 L535.4188,375.5006 L543.4158,377.6904 L536.1147,381.6199 " fill="#000000" style="stroke:#000000;stroke-width:1.0;"/><ellipse cx="412" cy="385.5" fill="#000000" rx="3" ry="3" style="stroke:#000000;stroke-width:1.0;"/><path d="M412,406.5 L425,406.5 C461.0127,406.5 499.7224,409.4361 535.7667,413.4397 " fill="none" style="stroke:#000000;stroke-width:1.0;stroke-dasharray:3.0,3.0;"/><path d="M535.4188,416.4994 L538.0615,413.7007 L536.1147,410.3801 L543.4158,414.3096 L535.4188,416.4994 " fill="#000000" style="stroke:#000000;stroke-width:1.0;"/><ellipse cx="412" cy="406.5" fill="#000000" rx="3" ry="3" style="stroke:#000000;stroke-width:1.0;"/><path d="M412,427.5 L425,427.5 C481.6174,427.5 489.5074,456.9509 543,475.5 C548.9641,477.5681 555.1016,479.6165 561.3168,481.6282 " fill="none" style="stroke:#000000;stroke-width:1.0;stroke-dasharray:3.0,3.0;"/><path d="M560.3793,484.5585 L563.5145,482.3313 L562.2542,478.6979 L568.6426,483.9718 L560.3793,484.5585 " fill="#000000" style="stroke:#000000;stroke-width:1.0;"/><ellipse cx="412" cy="427.5" fill="#000000" rx="3" ry="3" style="stroke:#000000;stroke-width:1.0;"/><path d="M412,447.5 L425,447.5 C495.7951,447.5 481.1756,520.008 543,554.5 C546.2257,556.2996 549.542,558.0227 552.9269,559.6722 " fill="none" style="stroke:#000000;stroke-width:1.0;stroke-dasharray:3.0,3.0;"/><path d="M551.6137,562.4872 L555.0382,560.6571 L554.2402,556.8572 L559.9644,562.9553 L551.6137,562.4872 " fill="#000000" style="stroke:#000000;stroke-width:1.0;"/><ellipse cx="412" cy="447.5" fill="#000000" rx="3" ry="3" style="stroke:#000000;stroke-width:1.0;"/><path d="M412,468.5 L425,468.5 C515.1565,468.5 469.3939,581.439 543,633.5 C545.1411,635.0144 547.3405,636.4704 549.5894,637.8702 " fill="none" style="stroke:#000000;stroke-width:1.0;stroke-dasharray:3.0,3.0;"/><path d="M547.9762,640.6249 L551.6554,639.0801 L551.2026,635.1155 L556.4762,641.9033 L547.9762,640.6249 " fill="#000000" style="stroke:#000000;stroke-width:1.0;"/><ellipse cx="412" cy="468.5" fill="#000000" rx="3" ry="3" style="stroke:#000000;stroke-width:1.0;"/><path d="M412,488.5 L425,488.5 C537.5243,488.5 455.7588,641.4317 543,712.5 C544.7289,713.9084 546.5064,715.2659 548.3269,716.5744 " fill="none" style="stroke:#000000;stroke-width:1.0;stroke-dasharray:3.0,3.0;"/><path d="M546.6218,719.1133 L550.2311,717.8533 L550.032,714.0356 L554.674,720.8372 L546.6218,719.1133 " fill="#000000" style="stroke:#000000;stroke-width:1.0;"/><ellipse cx="412" cy="488.5" fill="#000000" rx="3" ry="3" style="stroke:#000000;stroke-width:1.0;"/><path d="M268,336.5 L281,336.5 C324.8518,336.5 370.0003,364.993 393.8339,382.7089 " fill="none" style="stroke:#000000;stroke-width:1.0;stroke-dasharray:3.0,3.0;"/><path d="M391.9625,385.1642 L395.6753,384.1124 L395.7052,380.2536 L399.9721,387.3873 L391.9625,385.1642 " fill="#000000" style="stroke:#000000;stroke-width:1.0;"/><ellipse cx="268" cy="336.5" fill="#000000" rx="3" ry="3" style="stroke:#000000;stroke-width:1.0;"/><!--MD5=[ca815be0e10f5fc5ddd9ff5f4da061b3]
@startjson
{
    "field1": "NationalIDNumber",
    "combination": "NationalIDNumber",
    "null_distribution": {
        "total_null_rows": 0,
        "total_not_null_rows": 290
    },
    "data_distribution": [
        {
            "field_value": "134219713",
            "row_count": 1,
            "ratio_percent": 0.3448275862068966
        },
        {
            "field_value": "132674823",
            "row_count": 1,
            "ratio_percent": 0.3448275862068966
        },
        {
            "field_value": "131471224",
            "row_count": 1,
            "ratio_percent": 0.3448275862068966
        },
        {
            "field_value": "1300049",
            "row_count": 1,
            "ratio_percent": 0.3448275862068966
        },
        {
            "field_value": "121491555",
            "row_count": 1,
            "ratio_percent": 0.3448275862068966
        },
        {
            "field_value": "113695504",
            "row_count": 1,
            "ratio_percent": 0.3448275862068966
        },
        {
            "field_value": "113393530",
            "row_count": 1,
            "ratio_percent": 0.3448275862068966
        },
        {
            "field_value": "112457891",
            "row_count": 1,
            "ratio_percent": 0.3448275862068966
        },
        {
            "field_value": "112432117",
            "row_count": 1,
            "ratio_percent": 0.3448275862068966
        },
        {
            "field_value": "109272464",
            "row_count": 1,
            "ratio_percent": 0.3448275862068966
        }
    ]
}
@endjson

PlantUML version 1.2022.5(Sat Apr 30 06:55:52 EDT 2022)
(GPL source distribution)
Java Runtime: OpenJDK Runtime Environment
JVM: OpenJDK 64-Bit Server VM
Default Encoding: UTF-8
Language: en
Country: CA
--></g></svg>