<?xml version="1.0" encoding="UTF-8" standalone="no"?><svg xmlns="http://www.w3.org/2000/svg" xmlns:xlink="http://www.w3.org/1999/xlink" contentStyleType="text/css" height="241px" preserveAspectRatio="none" style="width:742px;height:241px;background:#FFFFFF;" version="1.1" viewBox="0 0 742 241" width="742px" zoomAndPan="magnify"><defs/><g><rect fill="#F1F1F1" height="81.9531" rx="5" ry="5" style="stroke:#F1F1F1;stroke-width:1.5;" width="204" x="10" y="24.5"/><text fill="#000000" font-family="sans-serif" font-size="14" font-weight="bold" lengthAdjust="spacing" textLength="42" x="15" y="40.0352">field1</text><text fill="#000000" font-family="sans-serif" font-size="14" lengthAdjust="spacing" textLength="60" x="149" y="40.0352">EndTime</text><line style="stroke:#000000;stroke-width:1.0;" x1="144" x2="144" y1="24.5" y2="44.9883"/><line style="stroke:#000000;stroke-width:1.0;" x1="10" x2="214" y1="44.9883" y2="44.9883"/><text fill="#000000" font-family="sans-serif" font-size="14" font-weight="bold" lengthAdjust="spacing" textLength="90" x="15" y="60.5234">combination</text><text fill="#000000" font-family="sans-serif" font-size="14" lengthAdjust="spacing" textLength="60" x="149" y="60.5234">EndTime</text><line style="stroke:#000000;stroke-width:1.0;" x1="144" x2="144" y1="44.9883" y2="65.4766"/><line style="stroke:#000000;stroke-width:1.0;" x1="10" x2="214" y1="65.4766" y2="65.4766"/><text fill="#000000" font-family="sans-serif" font-size="14" font-weight="bold" lengthAdjust="spacing" textLength="121" x="15" y="81.0117">null_distribution</text><text fill="#000000" font-family="sans-serif" font-size="14" lengthAdjust="spacing" textLength="12" x="149" y="81.0117">   </text><line style="stroke:#000000;stroke-width:1.0;" x1="144" x2="144" y1="65.4766" y2="85.9648"/><line style="stroke:#000000;stroke-width:1.0;" x1="10" x2="214" y1="85.9648" y2="85.9648"/><text fill="#000000" font-family="sans-serif" font-size="14" font-weight="bold" lengthAdjust="spacing" textLength="124" x="15" y="101.5">data_distribution</text><text fill="#000000" font-family="sans-serif" font-size="14" lengthAdjust="spacing" textLength="12" x="149" y="101.5">   </text><line style="stroke:#000000;stroke-width:1.0;" x1="144" x2="144" y1="85.9648" y2="106.4531"/><rect fill="none" height="81.9531" rx="5" ry="5" style="stroke:#000000;stroke-width:1.5;" width="204" x="10" y="24.5"/><rect fill="#F1F1F1" height="40.9766" rx="5" ry="5" style="stroke:#F1F1F1;stroke-width:1.5;" width="171" x="251" y="31"/><text fill="#000000" font-family="sans-serif" font-size="14" font-weight="bold" lengthAdjust="spacing" textLength="111" x="256" y="46.5352">total_null_rows</text><text fill="#000000" font-family="sans-serif" font-size="14" lengthAdjust="spacing" textLength="9" x="408" y="46.5352">0</text><line style="stroke:#000000;stroke-width:1.0;" x1="403" x2="403" y1="31" y2="51.4883"/><line style="stroke:#000000;stroke-width:1.0;" x1="251" x2="422" y1="51.4883" y2="51.4883"/><text fill="#000000" font-family="sans-serif" font-size="14" font-weight="bold" lengthAdjust="spacing" textLength="142" x="256" y="67.0234">total_not_null_rows</text><text fill="#000000" font-family="sans-serif" font-size="14" lengthAdjust="spacing" textLength="9" x="408" y="67.0234">3</text><line style="stroke:#000000;stroke-width:1.0;" x1="403" x2="403" y1="51.4883" y2="71.9766"/><rect fill="none" height="40.9766" rx="5" ry="5" style="stroke:#000000;stroke-width:1.5;" width="171" x="251" y="31"/><rect fill="#F1F1F1" height="61.4648" rx="5" ry="5" style="stroke:#F1F1F1;stroke-width:1.5;" width="22" x="324.5" y="90"/><text fill="#000000" font-family="sans-serif" font-size="14" lengthAdjust="spacing" textLength="12" x="329.5" y="105.5352">   </text><line style="stroke:#000000;stroke-width:1.0;" x1="324.5" x2="346.5" y1="110.4883" y2="110.4883"/><text fill="#000000" font-family="sans-serif" font-size="14" lengthAdjust="spacing" textLength="12" x="329.5" y="126.0234">   </text><line style="stroke:#000000;stroke-width:1.0;" x1="324.5" x2="346.5" y1="130.9766" y2="130.9766"/><text fill="#000000" font-family="sans-serif" font-size="14" lengthAdjust="spacing" textLength="12" x="329.5" y="146.5117">   </text><rect fill="none" height="61.4648" rx="5" ry="5" style="stroke:#000000;stroke-width:1.5;" width="22" x="324.5" y="90"/><rect fill="#F1F1F1" height="61.4648" rx="5" ry="5" style="stroke:#F1F1F1;stroke-width:1.5;" width="271" x="459" y="10"/><text fill="#000000" font-family="sans-serif" font-size="14" font-weight="bold" lengthAdjust="spacing" textLength="78" x="464" y="25.5352">field_value</text><text fill="#000000" font-family="sans-serif" font-size="14" lengthAdjust="spacing" textLength="129" x="568" y="25.5352">23:00:00.0000000</text><line style="stroke:#000000;stroke-width:1.0;" x1="563" x2="563" y1="10" y2="30.4883"/><line style="stroke:#000000;stroke-width:1.0;" x1="459" x2="730" y1="30.4883" y2="30.4883"/><text fill="#000000" font-family="sans-serif" font-size="14" font-weight="bold" lengthAdjust="spacing" textLength="74" x="464" y="46.0234">row_count</text><text fill="#000000" font-family="sans-serif" font-size="14" lengthAdjust="spacing" textLength="9" x="568" y="46.0234">1</text><line style="stroke:#000000;stroke-width:1.0;" x1="563" x2="563" y1="30.4883" y2="50.9766"/><line style="stroke:#000000;stroke-width:1.0;" x1="459" x2="730" y1="50.9766" y2="50.9766"/><text fill="#000000" font-family="sans-serif" font-size="14" font-weight="bold" lengthAdjust="spacing" textLength="94" x="464" y="66.5117">ratio_percent</text><text fill="#000000" font-family="sans-serif" font-size="14" lengthAdjust="spacing" textLength="157" x="568" y="66.5117">33.333333333333336</text><line style="stroke:#000000;stroke-width:1.0;" x1="563" x2="563" y1="50.9766" y2="71.4648"/><rect fill="none" height="61.4648" rx="5" ry="5" style="stroke:#000000;stroke-width:1.5;" width="271" x="459" y="10"/><rect fill="#F1F1F1" height="61.4648" rx="5" ry="5" style="stroke:#F1F1F1;stroke-width:1.5;" width="271" x="459" y="89"/><text fill="#000000" font-family="sans-serif" font-size="14" font-weight="bold" lengthAdjust="spacing" textLength="78" x="464" y="104.5352">field_value</text><text fill="#000000" font-family="sans-serif" font-size="14" lengthAdjust="spacing" textLength="129" x="568" y="104.5352">15:00:00.0000000</text><line style="stroke:#000000;stroke-width:1.0;" x1="563" x2="563" y1="89" y2="109.4883"/><line style="stroke:#000000;stroke-width:1.0;" x1="459" x2="730" y1="109.4883" y2="109.4883"/><text fill="#000000" font-family="sans-serif" font-size="14" font-weight="bold" lengthAdjust="spacing" textLength="74" x="464" y="125.0234">row_count</text><text fill="#000000" font-family="sans-serif" font-size="14" lengthAdjust="spacing" textLength="9" x="568" y="125.0234">1</text><line style="stroke:#000000;stroke-width:1.0;" x1="563" x2="563" y1="109.4883" y2="129.9766"/><line style="stroke:#000000;stroke-width:1.0;" x1="459" x2="730" y1="129.9766" y2="129.9766"/><text fill="#000000" font-family="sans-serif" font-size="14" font-weight="bold" lengthAdjust="spacing" textLength="94" x="464" y="145.5117">ratio_percent</text><text fill="#000000" font-family="sans-serif" font-size="14" lengthAdjust="spacing" textLength="157" x="568" y="145.5117">33.333333333333336</text><line style="stroke:#000000;stroke-width:1.0;" x1="563" x2="563" y1="129.9766" y2="150.4648"/><rect fill="none" height="61.4648" rx="5" ry="5" style="stroke:#000000;stroke-width:1.5;" width="271" x="459" y="89"/><rect fill="#F1F1F1" height="61.4648" rx="5" ry="5" style="stroke:#F1F1F1;stroke-width:1.5;" width="271" x="459" y="168"/><text fill="#000000" font-family="sans-serif" font-size="14" font-weight="bold" lengthAdjust="spacing" textLength="78" x="464" y="183.5352">field_value</text><text fill="#000000" font-family="sans-serif" font-size="14" lengthAdjust="spacing" textLength="129" x="568" y="183.5352">07:00:00.0000000</text><line style="stroke:#000000;stroke-width:1.0;" x1="563" x2="563" y1="168" y2="188.4883"/><line style="stroke:#000000;stroke-width:1.0;" x1="459" x2="730" y1="188.4883" y2="188.4883"/><text fill="#000000" font-family="sans-serif" font-size="14" font-weight="bold" lengthAdjust="spacing" textLength="74" x="464" y="204.0234">row_count</text><text fill="#000000" font-family="sans-serif" font-size="14" lengthAdjust="spacing" textLength="9" x="568" y="204.0234">1</text><line style="stroke:#000000;stroke-width:1.0;" x1="563" x2="563" y1="188.4883" y2="208.9766"/><line style="stroke:#000000;stroke-width:1.0;" x1="459" x2="730" y1="208.9766" y2="208.9766"/><text fill="#000000" font-family="sans-serif" font-size="14" font-weight="bold" lengthAdjust="spacing" textLength="94" x="464" y="224.5117">ratio_percent</text><text fill="#000000" font-family="sans-serif" font-size="14" lengthAdjust="spacing" textLength="157" x="568" y="224.5117">33.333333333333336</text><line style="stroke:#000000;stroke-width:1.0;" x1="563" x2="563" y1="208.9766" y2="229.4648"/><rect fill="none" height="61.4648" rx="5" ry="5" style="stroke:#000000;stroke-width:1.5;" width="271" x="459" y="168"/><path d="M202,75.5 L215,75.5 C225.7014,75.5 236.8352,74.5856 247.8249,73.1138 " fill="none" style="stroke:#000000;stroke-width:1.0;stroke-dasharray:3.0,3.0;"/><path d="M248.2663,76.1451 L250.0983,72.7827 L247.3834,70.0826 L255.403,72.0102 L248.2663,76.1451 " fill="#000000" style="stroke:#000000;stroke-width:1.0;"/><ellipse cx="202" cy="75.5" fill="#000000" rx="3" ry="3" style="stroke:#000000;stroke-width:1.0;"/><path d="M337,99.5 L350,99.5 C375.9619,99.5 430.6069,86.7211 481.6142,73.0578 " fill="none" style="stroke:#000000;stroke-width:1.0;stroke-dasharray:3.0,3.0;"/><path d="M482.4225,76.056 L483.8628,72.4516 L480.8058,70.0597 L489.1096,71.0369 L482.4225,76.056 " fill="#000000" style="stroke:#000000;stroke-width:1.0;"/><ellipse cx="337" cy="99.5" fill="#000000" rx="3" ry="3" style="stroke:#000000;stroke-width:1.0;"/><path d="M337,119.5 L350,119.5 C382.9829,119.5 418.4738,119.5 451.8959,119.5 " fill="none" style="stroke:#000000;stroke-width:1.0;stroke-dasharray:3.0,3.0;"/><path d="M451.8959,122.5183 L454.1596,119.5 L451.8959,116.4817 L459.4416,119.5 L451.8959,122.5183 " fill="#000000" style="stroke:#000000;stroke-width:1.0;"/><ellipse cx="337" cy="119.5" fill="#000000" rx="3" ry="3" style="stroke:#000000;stroke-width:1.0;"/><path d="M337,140.5 L350,140.5 C375.6265,140.5 429.2739,152.7626 479.7555,166.0109 " fill="none" style="stroke:#000000;stroke-width:1.0;stroke-dasharray:3.0,3.0;"/><path d="M478.9713,168.9794 L481.982,166.599 L480.5397,163.0423 L487.177,167.9713 L478.9713,168.9794 " fill="#000000" style="stroke:#000000;stroke-width:1.0;"/><ellipse cx="337" cy="140.5" fill="#000000" rx="3" ry="3" style="stroke:#000000;stroke-width:1.0;"/><path d="M202,96.5 L215,96.5 C251.9429,96.5 294.0388,107.3971 317.5696,114.5057 " fill="none" style="stroke:#000000;stroke-width:1.0;stroke-dasharray:3.0,3.0;"/><path d="M316.6719,117.3993 L319.7398,115.179 L318.4673,111.6121 L324.8036,116.75 L316.6719,117.3993 " fill="#000000" style="stroke:#000000;stroke-width:1.0;"/><ellipse cx="202" cy="96.5" fill="#000000" rx="3" ry="3" style="stroke:#000000;stroke-width:1.0;"/><!--MD5=[f1b3b0546add7bbe13e7b98679ca6b28]
@startjson
{
    "field1": "EndTime",
    "combination": "EndTime",
    "null_distribution": {
        "total_null_rows": 0,
        "total_not_null_rows": 3
    },
    "data_distribution": [
        {
            "field_value": "23:00:00.0000000",
            "row_count": 1,
            "ratio_percent": 33.333333333333336
        },
        {
            "field_value": "15:00:00.0000000",
            "row_count": 1,
            "ratio_percent": 33.333333333333336
        },
        {
            "field_value": "07:00:00.0000000",
            "row_count": 1,
            "ratio_percent": 33.333333333333336
        }
    ]
}
@endjson

PlantUML version 1.2022.5(Sat Apr 30 06:55:52 EDT 2022)
(GPL source distribution)
Java Runtime: OpenJDK Runtime Environment
JVM: OpenJDK 64-Bit Server VM
Default Encoding: UTF-8
Language: en
Country: CA
--></g></svg>