<?xml version="1.0" encoding="UTF-8" standalone="no"?><svg xmlns="http://www.w3.org/2000/svg" xmlns:xlink="http://www.w3.org/1999/xlink" contentStyleType="text/css" height="794px" preserveAspectRatio="none" style="width:794px;height:794px;background:#FFFFFF;" version="1.1" viewBox="0 0 794 794" width="794px" zoomAndPan="magnify"><defs/><g><rect fill="#F1F1F1" height="81.9531" rx="5" ry="5" style="stroke:#F1F1F1;stroke-width:1.5;" width="196" x="10" y="264.5"/><text fill="#000000" font-family="sans-serif" font-size="14" font-weight="bold" lengthAdjust="spacing" textLength="42" x="15" y="280.0352">field1</text><text fill="#000000" font-family="sans-serif" font-size="14" lengthAdjust="spacing" textLength="52" x="149" y="280.0352">LoginID</text><line style="stroke:#000000;stroke-width:1.0;" x1="144" x2="144" y1="264.5" y2="284.9883"/><line style="stroke:#000000;stroke-width:1.0;" x1="10" x2="206" y1="284.9883" y2="284.9883"/><text fill="#000000" font-family="sans-serif" font-size="14" font-weight="bold" lengthAdjust="spacing" textLength="90" x="15" y="300.5234">combination</text><text fill="#000000" font-family="sans-serif" font-size="14" lengthAdjust="spacing" textLength="52" x="149" y="300.5234">LoginID</text><line style="stroke:#000000;stroke-width:1.0;" x1="144" x2="144" y1="284.9883" y2="305.4766"/><line style="stroke:#000000;stroke-width:1.0;" x1="10" x2="206" y1="305.4766" y2="305.4766"/><text fill="#000000" font-family="sans-serif" font-size="14" font-weight="bold" lengthAdjust="spacing" textLength="121" x="15" y="321.0117">null_distribution</text><text fill="#000000" font-family="sans-serif" font-size="14" lengthAdjust="spacing" textLength="12" x="149" y="321.0117">   </text><line style="stroke:#000000;stroke-width:1.0;" x1="144" x2="144" y1="305.4766" y2="325.9648"/><line style="stroke:#000000;stroke-width:1.0;" x1="10" x2="206" y1="325.9648" y2="325.9648"/><text fill="#000000" font-family="sans-serif" font-size="14" font-weight="bold" lengthAdjust="spacing" textLength="124" x="15" y="341.5">data_distribution</text><text fill="#000000" font-family="sans-serif" font-size="14" lengthAdjust="spacing" textLength="12" x="149" y="341.5">   </text><line style="stroke:#000000;stroke-width:1.0;" x1="144" x2="144" y1="325.9648" y2="346.4531"/><rect fill="none" height="81.9531" rx="5" ry="5" style="stroke:#000000;stroke-width:1.5;" width="196" x="10" y="264.5"/><rect fill="#F1F1F1" height="40.9766" rx="5" ry="5" style="stroke:#F1F1F1;stroke-width:1.5;" width="189" x="243" y="235"/><text fill="#000000" font-family="sans-serif" font-size="14" font-weight="bold" lengthAdjust="spacing" textLength="111" x="248" y="250.5352">total_null_rows</text><text fill="#000000" font-family="sans-serif" font-size="14" lengthAdjust="spacing" textLength="9" x="400" y="250.5352">0</text><line style="stroke:#000000;stroke-width:1.0;" x1="395" x2="395" y1="235" y2="255.4883"/><line style="stroke:#000000;stroke-width:1.0;" x1="243" x2="432" y1="255.4883" y2="255.4883"/><text fill="#000000" font-family="sans-serif" font-size="14" font-weight="bold" lengthAdjust="spacing" textLength="142" x="248" y="271.0234">total_not_null_rows</text><text fill="#000000" font-family="sans-serif" font-size="14" lengthAdjust="spacing" textLength="27" x="400" y="271.0234">290</text><line style="stroke:#000000;stroke-width:1.0;" x1="395" x2="395" y1="255.4883" y2="275.9766"/><rect fill="none" height="40.9766" rx="5" ry="5" style="stroke:#000000;stroke-width:1.5;" width="189" x="243" y="235"/><rect fill="#F1F1F1" height="204.8828" rx="5" ry="5" style="stroke:#F1F1F1;stroke-width:1.5;" width="22" x="325.5" y="294"/><text fill="#000000" font-family="sans-serif" font-size="14" lengthAdjust="spacing" textLength="12" x="330.5" y="309.5352">   </text><line style="stroke:#000000;stroke-width:1.0;" x1="325.5" x2="347.5" y1="314.4883" y2="314.4883"/><text fill="#000000" font-family="sans-serif" font-size="14" lengthAdjust="spacing" textLength="12" x="330.5" y="330.0234">   </text><line style="stroke:#000000;stroke-width:1.0;" x1="325.5" x2="347.5" y1="334.9766" y2="334.9766"/><text fill="#000000" font-family="sans-serif" font-size="14" lengthAdjust="spacing" textLength="12" x="330.5" y="350.5117">   </text><line style="stroke:#000000;stroke-width:1.0;" x1="325.5" x2="347.5" y1="355.4648" y2="355.4648"/><text fill="#000000" font-family="sans-serif" font-size="14" lengthAdjust="spacing" textLength="12" x="330.5" y="371">   </text><line style="stroke:#000000;stroke-width:1.0;" x1="325.5" x2="347.5" y1="375.9531" y2="375.9531"/><text fill="#000000" font-family="sans-serif" font-size="14" lengthAdjust="spacing" textLength="12" x="330.5" y="391.4883">   </text><line style="stroke:#000000;stroke-width:1.0;" x1="325.5" x2="347.5" y1="396.4414" y2="396.4414"/><text fill="#000000" font-family="sans-serif" font-size="14" lengthAdjust="spacing" textLength="12" x="330.5" y="411.9766">   </text><line style="stroke:#000000;stroke-width:1.0;" x1="325.5" x2="347.5" y1="416.9297" y2="416.9297"/><text fill="#000000" font-family="sans-serif" font-size="14" lengthAdjust="spacing" textLength="12" x="330.5" y="432.4648">   </text><line style="stroke:#000000;stroke-width:1.0;" x1="325.5" x2="347.5" y1="437.418" y2="437.418"/><text fill="#000000" font-family="sans-serif" font-size="14" lengthAdjust="spacing" textLength="12" x="330.5" y="452.9531">   </text><line style="stroke:#000000;stroke-width:1.0;" x1="325.5" x2="347.5" y1="457.9063" y2="457.9063"/><text fill="#000000" font-family="sans-serif" font-size="14" lengthAdjust="spacing" textLength="12" x="330.5" y="473.4414">   </text><line style="stroke:#000000;stroke-width:1.0;" x1="325.5" x2="347.5" y1="478.3945" y2="478.3945"/><text fill="#000000" font-family="sans-serif" font-size="14" lengthAdjust="spacing" textLength="12" x="330.5" y="493.9297">   </text><rect fill="none" height="204.8828" rx="5" ry="5" style="stroke:#000000;stroke-width:1.5;" width="22" x="325.5" y="294"/><rect fill="#F1F1F1" height="61.4648" rx="5" ry="5" style="stroke:#F1F1F1;stroke-width:1.5;" width="290" x="480.5" y="10"/><text fill="#000000" font-family="sans-serif" font-size="14" font-weight="bold" lengthAdjust="spacing" textLength="78" x="485.5" y="25.5352">field_value</text><text fill="#000000" font-family="sans-serif" font-size="14" lengthAdjust="spacing" textLength="176" x="589.5" y="25.5352">adventure-works\anibal0</text><line style="stroke:#000000;stroke-width:1.0;" x1="584.5" x2="584.5" y1="10" y2="30.4883"/><line style="stroke:#000000;stroke-width:1.0;" x1="480.5" x2="770.5" y1="30.4883" y2="30.4883"/><text fill="#000000" font-family="sans-serif" font-size="14" font-weight="bold" lengthAdjust="spacing" textLength="74" x="485.5" y="46.0234">row_count</text><text fill="#000000" font-family="sans-serif" font-size="14" lengthAdjust="spacing" textLength="9" x="589.5" y="46.0234">1</text><line style="stroke:#000000;stroke-width:1.0;" x1="584.5" x2="584.5" y1="30.4883" y2="50.9766"/><line style="stroke:#000000;stroke-width:1.0;" x1="480.5" x2="770.5" y1="50.9766" y2="50.9766"/><text fill="#000000" font-family="sans-serif" font-size="14" font-weight="bold" lengthAdjust="spacing" textLength="94" x="485.5" y="66.5117">ratio_percent</text><text fill="#000000" font-family="sans-serif" font-size="14" lengthAdjust="spacing" textLength="157" x="589.5" y="66.5117">0.3448275862068966</text><line style="stroke:#000000;stroke-width:1.0;" x1="584.5" x2="584.5" y1="50.9766" y2="71.4648"/><rect fill="none" height="61.4648" rx="5" ry="5" style="stroke:#000000;stroke-width:1.5;" width="290" x="480.5" y="10"/><rect fill="#F1F1F1" height="61.4648" rx="5" ry="5" style="stroke:#F1F1F1;stroke-width:1.5;" width="294" x="478.5" y="89"/><text fill="#000000" font-family="sans-serif" font-size="14" font-weight="bold" lengthAdjust="spacing" textLength="78" x="483.5" y="104.5352">field_value</text><text fill="#000000" font-family="sans-serif" font-size="14" lengthAdjust="spacing" textLength="180" x="587.5" y="104.5352">adventure-works\angela0</text><line style="stroke:#000000;stroke-width:1.0;" x1="582.5" x2="582.5" y1="89" y2="109.4883"/><line style="stroke:#000000;stroke-width:1.0;" x1="478.5" x2="772.5" y1="109.4883" y2="109.4883"/><text fill="#000000" font-family="sans-serif" font-size="14" font-weight="bold" lengthAdjust="spacing" textLength="74" x="483.5" y="125.0234">row_count</text><text fill="#000000" font-family="sans-serif" font-size="14" lengthAdjust="spacing" textLength="9" x="587.5" y="125.0234">1</text><line style="stroke:#000000;stroke-width:1.0;" x1="582.5" x2="582.5" y1="109.4883" y2="129.9766"/><line style="stroke:#000000;stroke-width:1.0;" x1="478.5" x2="772.5" y1="129.9766" y2="129.9766"/><text fill="#000000" font-family="sans-serif" font-size="14" font-weight="bold" lengthAdjust="spacing" textLength="94" x="483.5" y="145.5117">ratio_percent</text><text fill="#000000" font-family="sans-serif" font-size="14" lengthAdjust="spacing" textLength="157" x="587.5" y="145.5117">0.3448275862068966</text><line style="stroke:#000000;stroke-width:1.0;" x1="582.5" x2="582.5" y1="129.9766" y2="150.4648"/><rect fill="none" height="61.4648" rx="5" ry="5" style="stroke:#000000;stroke-width:1.5;" width="294" x="478.5" y="89"/><rect fill="#F1F1F1" height="61.4648" rx="5" ry="5" style="stroke:#F1F1F1;stroke-width:1.5;" width="281" x="485" y="168"/><text fill="#000000" font-family="sans-serif" font-size="14" font-weight="bold" lengthAdjust="spacing" textLength="78" x="490" y="183.5352">field_value</text><text fill="#000000" font-family="sans-serif" font-size="14" lengthAdjust="spacing" textLength="167" x="594" y="183.5352">adventure-works\andy0</text><line style="stroke:#000000;stroke-width:1.0;" x1="589" x2="589" y1="168" y2="188.4883"/><line style="stroke:#000000;stroke-width:1.0;" x1="485" x2="766" y1="188.4883" y2="188.4883"/><text fill="#000000" font-family="sans-serif" font-size="14" font-weight="bold" lengthAdjust="spacing" textLength="74" x="490" y="204.0234">row_count</text><text fill="#000000" font-family="sans-serif" font-size="14" lengthAdjust="spacing" textLength="9" x="594" y="204.0234">1</text><line style="stroke:#000000;stroke-width:1.0;" x1="589" x2="589" y1="188.4883" y2="208.9766"/><line style="stroke:#000000;stroke-width:1.0;" x1="485" x2="766" y1="208.9766" y2="208.9766"/><text fill="#000000" font-family="sans-serif" font-size="14" font-weight="bold" lengthAdjust="spacing" textLength="94" x="490" y="224.5117">ratio_percent</text><text fill="#000000" font-family="sans-serif" font-size="14" lengthAdjust="spacing" textLength="157" x="594" y="224.5117">0.3448275862068966</text><line style="stroke:#000000;stroke-width:1.0;" x1="589" x2="589" y1="208.9766" y2="229.4648"/><rect fill="none" height="61.4648" rx="5" ry="5" style="stroke:#000000;stroke-width:1.5;" width="281" x="485" y="168"/><rect fill="#F1F1F1" height="61.4648" rx="5" ry="5" style="stroke:#F1F1F1;stroke-width:1.5;" width="299" x="476" y="247"/><text fill="#000000" font-family="sans-serif" font-size="14" font-weight="bold" lengthAdjust="spacing" textLength="78" x="481" y="262.5352">field_value</text><text fill="#000000" font-family="sans-serif" font-size="14" lengthAdjust="spacing" textLength="185" x="585" y="262.5352">adventure-works\andrew1</text><line style="stroke:#000000;stroke-width:1.0;" x1="580" x2="580" y1="247" y2="267.4883"/><line style="stroke:#000000;stroke-width:1.0;" x1="476" x2="775" y1="267.4883" y2="267.4883"/><text fill="#000000" font-family="sans-serif" font-size="14" font-weight="bold" lengthAdjust="spacing" textLength="74" x="481" y="283.0234">row_count</text><text fill="#000000" font-family="sans-serif" font-size="14" lengthAdjust="spacing" textLength="9" x="585" y="283.0234">1</text><line style="stroke:#000000;stroke-width:1.0;" x1="580" x2="580" y1="267.4883" y2="287.9766"/><line style="stroke:#000000;stroke-width:1.0;" x1="476" x2="775" y1="287.9766" y2="287.9766"/><text fill="#000000" font-family="sans-serif" font-size="14" font-weight="bold" lengthAdjust="spacing" textLength="94" x="481" y="303.5117">ratio_percent</text><text fill="#000000" font-family="sans-serif" font-size="14" lengthAdjust="spacing" textLength="157" x="585" y="303.5117">0.3448275862068966</text><line style="stroke:#000000;stroke-width:1.0;" x1="580" x2="580" y1="287.9766" y2="308.4648"/><rect fill="none" height="61.4648" rx="5" ry="5" style="stroke:#000000;stroke-width:1.5;" width="299" x="476" y="247"/><rect fill="#F1F1F1" height="61.4648" rx="5" ry="5" style="stroke:#F1F1F1;stroke-width:1.5;" width="299" x="476" y="326"/><text fill="#000000" font-family="sans-serif" font-size="14" font-weight="bold" lengthAdjust="spacing" textLength="78" x="481" y="341.5352">field_value</text><text fill="#000000" font-family="sans-serif" font-size="14" lengthAdjust="spacing" textLength="185" x="585" y="341.5352">adventure-works\andrew0</text><line style="stroke:#000000;stroke-width:1.0;" x1="580" x2="580" y1="326" y2="346.4883"/><line style="stroke:#000000;stroke-width:1.0;" x1="476" x2="775" y1="346.4883" y2="346.4883"/><text fill="#000000" font-family="sans-serif" font-size="14" font-weight="bold" lengthAdjust="spacing" textLength="74" x="481" y="362.0234">row_count</text><text fill="#000000" font-family="sans-serif" font-size="14" lengthAdjust="spacing" textLength="9" x="585" y="362.0234">1</text><line style="stroke:#000000;stroke-width:1.0;" x1="580" x2="580" y1="346.4883" y2="366.9766"/><line style="stroke:#000000;stroke-width:1.0;" x1="476" x2="775" y1="366.9766" y2="366.9766"/><text fill="#000000" font-family="sans-serif" font-size="14" font-weight="bold" lengthAdjust="spacing" textLength="94" x="481" y="382.5117">ratio_percent</text><text fill="#000000" font-family="sans-serif" font-size="14" lengthAdjust="spacing" textLength="157" x="585" y="382.5117">0.3448275862068966</text><line style="stroke:#000000;stroke-width:1.0;" x1="580" x2="580" y1="366.9766" y2="387.4648"/><rect fill="none" height="61.4648" rx="5" ry="5" style="stroke:#000000;stroke-width:1.5;" width="299" x="476" y="326"/><rect fill="#F1F1F1" height="61.4648" rx="5" ry="5" style="stroke:#F1F1F1;stroke-width:1.5;" width="303" x="474" y="405"/><text fill="#000000" font-family="sans-serif" font-size="14" font-weight="bold" lengthAdjust="spacing" textLength="78" x="479" y="420.5352">field_value</text><text fill="#000000" font-family="sans-serif" font-size="14" lengthAdjust="spacing" textLength="189" x="583" y="420.5352">adventure-works\andreas0</text><line style="stroke:#000000;stroke-width:1.0;" x1="578" x2="578" y1="405" y2="425.4883"/><line style="stroke:#000000;stroke-width:1.0;" x1="474" x2="777" y1="425.4883" y2="425.4883"/><text fill="#000000" font-family="sans-serif" font-size="14" font-weight="bold" lengthAdjust="spacing" textLength="74" x="479" y="441.0234">row_count</text><text fill="#000000" font-family="sans-serif" font-size="14" lengthAdjust="spacing" textLength="9" x="583" y="441.0234">1</text><line style="stroke:#000000;stroke-width:1.0;" x1="578" x2="578" y1="425.4883" y2="445.9766"/><line style="stroke:#000000;stroke-width:1.0;" x1="474" x2="777" y1="445.9766" y2="445.9766"/><text fill="#000000" font-family="sans-serif" font-size="14" font-weight="bold" lengthAdjust="spacing" textLength="94" x="479" y="461.5117">ratio_percent</text><text fill="#000000" font-family="sans-serif" font-size="14" lengthAdjust="spacing" textLength="157" x="583" y="461.5117">0.3448275862068966</text><line style="stroke:#000000;stroke-width:1.0;" x1="578" x2="578" y1="445.9766" y2="466.4648"/><rect fill="none" height="61.4648" rx="5" ry="5" style="stroke:#000000;stroke-width:1.5;" width="303" x="474" y="405"/><rect fill="#F1F1F1" height="61.4648" rx="5" ry="5" style="stroke:#F1F1F1;stroke-width:1.5;" width="276" x="487.5" y="484"/><text fill="#000000" font-family="sans-serif" font-size="14" font-weight="bold" lengthAdjust="spacing" textLength="78" x="492.5" y="499.5352">field_value</text><text fill="#000000" font-family="sans-serif" font-size="14" lengthAdjust="spacing" textLength="162" x="596.5" y="499.5352">adventure-works\amy0</text><line style="stroke:#000000;stroke-width:1.0;" x1="591.5" x2="591.5" y1="484" y2="504.4883"/><line style="stroke:#000000;stroke-width:1.0;" x1="487.5" x2="763.5" y1="504.4883" y2="504.4883"/><text fill="#000000" font-family="sans-serif" font-size="14" font-weight="bold" lengthAdjust="spacing" textLength="74" x="492.5" y="520.0234">row_count</text><text fill="#000000" font-family="sans-serif" font-size="14" lengthAdjust="spacing" textLength="9" x="596.5" y="520.0234">1</text><line style="stroke:#000000;stroke-width:1.0;" x1="591.5" x2="591.5" y1="504.4883" y2="524.9766"/><line style="stroke:#000000;stroke-width:1.0;" x1="487.5" x2="763.5" y1="524.9766" y2="524.9766"/><text fill="#000000" font-family="sans-serif" font-size="14" font-weight="bold" lengthAdjust="spacing" textLength="94" x="492.5" y="540.5117">ratio_percent</text><text fill="#000000" font-family="sans-serif" font-size="14" lengthAdjust="spacing" textLength="157" x="596.5" y="540.5117">0.3448275862068966</text><line style="stroke:#000000;stroke-width:1.0;" x1="591.5" x2="591.5" y1="524.9766" y2="545.4648"/><rect fill="none" height="61.4648" rx="5" ry="5" style="stroke:#000000;stroke-width:1.5;" width="276" x="487.5" y="484"/><rect fill="#F1F1F1" height="61.4648" rx="5" ry="5" style="stroke:#F1F1F1;stroke-width:1.5;" width="279" x="486" y="563"/><text fill="#000000" font-family="sans-serif" font-size="14" font-weight="bold" lengthAdjust="spacing" textLength="78" x="491" y="578.5352">field_value</text><text fill="#000000" font-family="sans-serif" font-size="14" lengthAdjust="spacing" textLength="165" x="595" y="578.5352">adventure-works\alice0</text><line style="stroke:#000000;stroke-width:1.0;" x1="590" x2="590" y1="563" y2="583.4883"/><line style="stroke:#000000;stroke-width:1.0;" x1="486" x2="765" y1="583.4883" y2="583.4883"/><text fill="#000000" font-family="sans-serif" font-size="14" font-weight="bold" lengthAdjust="spacing" textLength="74" x="491" y="599.0234">row_count</text><text fill="#000000" font-family="sans-serif" font-size="14" lengthAdjust="spacing" textLength="9" x="595" y="599.0234">1</text><line style="stroke:#000000;stroke-width:1.0;" x1="590" x2="590" y1="583.4883" y2="603.9766"/><line style="stroke:#000000;stroke-width:1.0;" x1="486" x2="765" y1="603.9766" y2="603.9766"/><text fill="#000000" font-family="sans-serif" font-size="14" font-weight="bold" lengthAdjust="spacing" textLength="94" x="491" y="619.5117">ratio_percent</text><text fill="#000000" font-family="sans-serif" font-size="14" lengthAdjust="spacing" textLength="157" x="595" y="619.5117">0.3448275862068966</text><line style="stroke:#000000;stroke-width:1.0;" x1="590" x2="590" y1="603.9766" y2="624.4648"/><rect fill="none" height="61.4648" rx="5" ry="5" style="stroke:#000000;stroke-width:1.5;" width="279" x="486" y="563"/><rect fill="#F1F1F1" height="61.4648" rx="5" ry="5" style="stroke:#F1F1F1;stroke-width:1.5;" width="277" x="487" y="642"/><text fill="#000000" font-family="sans-serif" font-size="14" font-weight="bold" lengthAdjust="spacing" textLength="78" x="492" y="657.5352">field_value</text><text fill="#000000" font-family="sans-serif" font-size="14" lengthAdjust="spacing" textLength="163" x="596" y="657.5352">adventure-works\alex0</text><line style="stroke:#000000;stroke-width:1.0;" x1="591" x2="591" y1="642" y2="662.4883"/><line style="stroke:#000000;stroke-width:1.0;" x1="487" x2="764" y1="662.4883" y2="662.4883"/><text fill="#000000" font-family="sans-serif" font-size="14" font-weight="bold" lengthAdjust="spacing" textLength="74" x="492" y="678.0234">row_count</text><text fill="#000000" font-family="sans-serif" font-size="14" lengthAdjust="spacing" textLength="9" x="596" y="678.0234">1</text><line style="stroke:#000000;stroke-width:1.0;" x1="591" x2="591" y1="662.4883" y2="682.9766"/><line style="stroke:#000000;stroke-width:1.0;" x1="487" x2="764" y1="682.9766" y2="682.9766"/><text fill="#000000" font-family="sans-serif" font-size="14" font-weight="bold" lengthAdjust="spacing" textLength="94" x="492" y="698.5117">ratio_percent</text><text fill="#000000" font-family="sans-serif" font-size="14" lengthAdjust="spacing" textLength="157" x="596" y="698.5117">0.3448275862068966</text><line style="stroke:#000000;stroke-width:1.0;" x1="591" x2="591" y1="682.9766" y2="703.4648"/><rect fill="none" height="61.4648" rx="5" ry="5" style="stroke:#000000;stroke-width:1.5;" width="277" x="487" y="642"/><rect fill="#F1F1F1" height="61.4648" rx="5" ry="5" style="stroke:#F1F1F1;stroke-width:1.5;" width="313" x="469" y="721"/><text fill="#000000" font-family="sans-serif" font-size="14" font-weight="bold" lengthAdjust="spacing" textLength="78" x="474" y="736.5352">field_value</text><text fill="#000000" font-family="sans-serif" font-size="14" lengthAdjust="spacing" textLength="199" x="578" y="736.5352">adventure-works\alejandro0</text><line style="stroke:#000000;stroke-width:1.0;" x1="573" x2="573" y1="721" y2="741.4883"/><line style="stroke:#000000;stroke-width:1.0;" x1="469" x2="782" y1="741.4883" y2="741.4883"/><text fill="#000000" font-family="sans-serif" font-size="14" font-weight="bold" lengthAdjust="spacing" textLength="74" x="474" y="757.0234">row_count</text><text fill="#000000" font-family="sans-serif" font-size="14" lengthAdjust="spacing" textLength="9" x="578" y="757.0234">1</text><line style="stroke:#000000;stroke-width:1.0;" x1="573" x2="573" y1="741.4883" y2="761.9766"/><line style="stroke:#000000;stroke-width:1.0;" x1="469" x2="782" y1="761.9766" y2="761.9766"/><text fill="#000000" font-family="sans-serif" font-size="14" font-weight="bold" lengthAdjust="spacing" textLength="94" x="474" y="777.5117">ratio_percent</text><text fill="#000000" font-family="sans-serif" font-size="14" lengthAdjust="spacing" textLength="157" x="578" y="777.5117">0.3448275862068966</text><line style="stroke:#000000;stroke-width:1.0;" x1="573" x2="573" y1="761.9766" y2="782.4648"/><rect fill="none" height="61.4648" rx="5" ry="5" style="stroke:#000000;stroke-width:1.5;" width="313" x="469" y="721"/><path d="M194,315.5 L207,315.5 C227.8273,315.5 224.7406,295.5187 243,285.5 C247.1394,283.2288 251.4771,281.0988 255.9224,279.1061 " fill="none" style="stroke:#000000;stroke-width:1.0;stroke-dasharray:3.0,3.0;"/><path d="M257.1301,281.9305 L258.0407,278.2004 L254.7148,276.2817 L262.9835,276.0871 L257.1301,281.9305 " fill="#000000" style="stroke:#000000;stroke-width:1.0;"/><ellipse cx="194" cy="315.5" fill="#000000" rx="3" ry="3" style="stroke:#000000;stroke-width:1.0;"/><path d="M338,303.5 L351,303.5 C388.3122,303.5 407.1906,312.4458 433,285.5 C497.2901,218.3792 405.6862,147.5426 469,79.5 C470.8066,77.5584 472.694,75.7072 474.6537,73.9424 " fill="none" style="stroke:#000000;stroke-width:1.0;stroke-dasharray:3.0,3.0;"/><path d="M476.6694,76.3773 L476.4798,72.4306 L472.6379,71.5075 L480.7409,68.903 L476.6694,76.3773 " fill="#000000" style="stroke:#000000;stroke-width:1.0;"/><ellipse cx="338" cy="303.5" fill="#000000" rx="3" ry="3" style="stroke:#000000;stroke-width:1.0;"/><path d="M338,324.5 L351,324.5 C391.3564,324.5 406.9543,316.3264 433,285.5 C470.864,240.686 426.8723,199.3318 469,158.5 C470.2623,157.2766 471.5568,156.0897 472.8813,154.9384 " fill="none" style="stroke:#000000;stroke-width:1.0;stroke-dasharray:3.0,3.0;"/><path d="M474.8108,157.3351 L474.6789,153.4912 L470.9518,152.5416 L478.8733,150.1146 L474.8108,157.3351 " fill="#000000" style="stroke:#000000;stroke-width:1.0;"/><ellipse cx="338" cy="324.5" fill="#000000" rx="3" ry="3" style="stroke:#000000;stroke-width:1.0;"/><path d="M338,344.5 L351,344.5 C395.8977,344.5 400.9398,316.9316 433,285.5 C452.0419,266.8314 446.7844,252.2506 469,237.5 C472.107,235.437 475.3146,233.4832 478.6037,231.6326 " fill="none" style="stroke:#000000;stroke-width:1.0;stroke-dasharray:3.0,3.0;"/><path d="M480.0658,234.3766 L480.6617,230.5361 L477.1416,228.8887 L485.4637,227.9775 L480.0658,234.3766 " fill="#000000" style="stroke:#000000;stroke-width:1.0;"/><ellipse cx="338" cy="344.5" fill="#000000" rx="3" ry="3" style="stroke:#000000;stroke-width:1.0;"/><path d="M338,365.5 L351,365.5 C407.6174,365.5 415.2331,335.2384 469,317.5 C476.5216,315.0185 484.2888,312.5964 492.1551,310.2509 " fill="none" style="stroke:#000000;stroke-width:1.0;stroke-dasharray:3.0,3.0;"/><path d="M493.0079,313.1501 L494.3295,309.6114 L491.3024,307.3518 L499.403,308.119 L493.0079,313.1501 " fill="#000000" style="stroke:#000000;stroke-width:1.0;"/><ellipse cx="338" cy="365.5" fill="#000000" rx="3" ry="3" style="stroke:#000000;stroke-width:1.0;"/><path d="M338,385.5 L351,385.5 C389.2307,385.5 430.2962,382.6735 468.7002,378.7853 " fill="none" style="stroke:#000000;stroke-width:1.0;stroke-dasharray:3.0,3.0;"/><path d="M469.0167,381.8428 L470.9933,378.548 L468.3837,375.7279 L476.3439,377.9941 L469.0167,381.8428 " fill="#000000" style="stroke:#000000;stroke-width:1.0;"/><ellipse cx="338" cy="385.5" fill="#000000" rx="3" ry="3" style="stroke:#000000;stroke-width:1.0;"/><path d="M338,406.5 L351,406.5 C388.5581,406.5 428.8519,409.2279 466.6705,413.0104 " fill="none" style="stroke:#000000;stroke-width:1.0;stroke-dasharray:3.0,3.0;"/><path d="M466.3625,416.0221 L468.9293,413.2414 L466.9786,409.9988 L474.1997,413.7805 L466.3625,416.0221 " fill="#000000" style="stroke:#000000;stroke-width:1.0;"/><ellipse cx="338" cy="406.5" fill="#000000" rx="3" ry="3" style="stroke:#000000;stroke-width:1.0;"/><path d="M338,427.5 L351,427.5 C407.6174,427.5 415.1799,457.9236 469,475.5 C475.5287,477.6321 482.2432,479.7146 489.0476,481.7373 " fill="none" style="stroke:#000000;stroke-width:1.0;stroke-dasharray:3.0,3.0;"/><path d="M488.1792,484.703 L491.2719,482.3886 L489.916,478.7716 L496.4618,483.9082 L488.1792,484.703 " fill="#000000" style="stroke:#000000;stroke-width:1.0;"/><ellipse cx="338" cy="427.5" fill="#000000" rx="3" ry="3" style="stroke:#000000;stroke-width:1.0;"/><path d="M338,447.5 L351,447.5 C421.7951,447.5 406.5606,521.1343 469,554.5 C472.4509,556.3441 475.9916,558.1031 479.6018,559.7809 " fill="none" style="stroke:#000000;stroke-width:1.0;stroke-dasharray:3.0,3.0;"/><path d="M478.3508,562.5902 L481.7087,560.7191 L480.8527,556.9717 L486.6249,562.9083 L478.3508,562.5902 " fill="#000000" style="stroke:#000000;stroke-width:1.0;"/><ellipse cx="338" cy="447.5" fill="#000000" rx="3" ry="3" style="stroke:#000000;stroke-width:1.0;"/><path d="M338,468.5 L351,468.5 C441.1565,468.5 394.4624,582.7818 469,633.5 C472.6965,636.0152 476.541,638.3684 480.5006,640.5699 " fill="none" style="stroke:#000000;stroke-width:1.0;stroke-dasharray:3.0,3.0;"/><path d="M479.0751,643.2765 L482.5306,641.639 L481.9261,637.8633 L487.2671,644.1336 L479.0751,643.2765 " fill="#000000" style="stroke:#000000;stroke-width:1.0;"/><ellipse cx="338" cy="468.5" fill="#000000" rx="3" ry="3" style="stroke:#000000;stroke-width:1.0;"/><path d="M338,488.5 L351,488.5 C463.5243,488.5 380.485,643.0247 469,712.5 C470.8014,713.9139 472.6476,715.2773 474.5338,716.5919 " fill="none" style="stroke:#000000;stroke-width:1.0;stroke-dasharray:3.0,3.0;"/><path d="M472.8201,719.216 L476.5018,717.8772 L476.2474,713.9678 L481.0941,720.8761 L472.8201,719.216 " fill="#000000" style="stroke:#000000;stroke-width:1.0;"/><ellipse cx="338" cy="488.5" fill="#000000" rx="3" ry="3" style="stroke:#000000;stroke-width:1.0;"/><path d="M194,336.5 L207,336.5 C250.8518,336.5 296.0003,364.993 319.8339,382.7089 " fill="none" style="stroke:#000000;stroke-width:1.0;stroke-dasharray:3.0,3.0;"/><path d="M317.9625,385.1642 L321.6753,384.1124 L321.7052,380.2536 L325.9721,387.3873 L317.9625,385.1642 " fill="#000000" style="stroke:#000000;stroke-width:1.0;"/><ellipse cx="194" cy="336.5" fill="#000000" rx="3" ry="3" style="stroke:#000000;stroke-width:1.0;"/><!--MD5=[2ec847778b2f4b7712d384f2beae4951]
@startjson
{
    "field1": "LoginID",
    "combination": "LoginID",
    "null_distribution": {
        "total_null_rows": 0,
        "total_not_null_rows": 290
    },
    "data_distribution": [
        {
            "field_value": "adventure-works\\anibal0",
            "row_count": 1,
            "ratio_percent": 0.3448275862068966
        },
        {
            "field_value": "adventure-works\\angela0",
            "row_count": 1,
            "ratio_percent": 0.3448275862068966
        },
        {
            "field_value": "adventure-works\\andy0",
            "row_count": 1,
            "ratio_percent": 0.3448275862068966
        },
        {
            "field_value": "adventure-works\\andrew1",
            "row_count": 1,
            "ratio_percent": 0.3448275862068966
        },
        {
            "field_value": "adventure-works\\andrew0",
            "row_count": 1,
            "ratio_percent": 0.3448275862068966
        },
        {
            "field_value": "adventure-works\\andreas0",
            "row_count": 1,
            "ratio_percent": 0.3448275862068966
        },
        {
            "field_value": "adventure-works\\amy0",
            "row_count": 1,
            "ratio_percent": 0.3448275862068966
        },
        {
            "field_value": "adventure-works\\alice0",
            "row_count": 1,
            "ratio_percent": 0.3448275862068966
        },
        {
            "field_value": "adventure-works\\alex0",
            "row_count": 1,
            "ratio_percent": 0.3448275862068966
        },
        {
            "field_value": "adventure-works\\alejandro0",
            "row_count": 1,
            "ratio_percent": 0.3448275862068966
        }
    ]
}
@endjson

PlantUML version 1.2022.5(Sat Apr 30 06:55:52 EDT 2022)
(GPL source distribution)
Java Runtime: OpenJDK Runtime Environment
JVM: OpenJDK 64-Bit Server VM
Default Encoding: UTF-8
Language: en
Country: CA
--></g></svg>