<?xml version="1.0" encoding="UTF-8" standalone="no"?><svg xmlns="http://www.w3.org/2000/svg" xmlns:xlink="http://www.w3.org/1999/xlink" contentStyleType="text/css" height="794px" preserveAspectRatio="none" style="width:816px;height:794px;background:#FFFFFF;" version="1.1" viewBox="0 0 816 794" width="816px" zoomAndPan="magnify"><defs/><g><rect fill="#F1F1F1" height="81.9531" rx="5" ry="5" style="stroke:#F1F1F1;stroke-width:1.5;" width="242" x="10" y="264.5"/><text fill="#000000" font-family="sans-serif" font-size="14" font-weight="bold" lengthAdjust="spacing" textLength="42" x="15" y="280.0352">field1</text><text fill="#000000" font-family="sans-serif" font-size="14" lengthAdjust="spacing" textLength="98" x="149" y="280.0352">PhoneNumber</text><line style="stroke:#000000;stroke-width:1.0;" x1="144" x2="144" y1="264.5" y2="284.9883"/><line style="stroke:#000000;stroke-width:1.0;" x1="10" x2="252" y1="284.9883" y2="284.9883"/><text fill="#000000" font-family="sans-serif" font-size="14" font-weight="bold" lengthAdjust="spacing" textLength="90" x="15" y="300.5234">combination</text><text fill="#000000" font-family="sans-serif" font-size="14" lengthAdjust="spacing" textLength="98" x="149" y="300.5234">PhoneNumber</text><line style="stroke:#000000;stroke-width:1.0;" x1="144" x2="144" y1="284.9883" y2="305.4766"/><line style="stroke:#000000;stroke-width:1.0;" x1="10" x2="252" y1="305.4766" y2="305.4766"/><text fill="#000000" font-family="sans-serif" font-size="14" font-weight="bold" lengthAdjust="spacing" textLength="121" x="15" y="321.0117">null_distribution</text><text fill="#000000" font-family="sans-serif" font-size="14" lengthAdjust="spacing" textLength="12" x="149" y="321.0117">   </text><line style="stroke:#000000;stroke-width:1.0;" x1="144" x2="144" y1="305.4766" y2="325.9648"/><line style="stroke:#000000;stroke-width:1.0;" x1="10" x2="252" y1="325.9648" y2="325.9648"/><text fill="#000000" font-family="sans-serif" font-size="14" font-weight="bold" lengthAdjust="spacing" textLength="124" x="15" y="341.5">data_distribution</text><text fill="#000000" font-family="sans-serif" font-size="14" lengthAdjust="spacing" textLength="12" x="149" y="341.5">   </text><line style="stroke:#000000;stroke-width:1.0;" x1="144" x2="144" y1="325.9648" y2="346.4531"/><rect fill="none" height="81.9531" rx="5" ry="5" style="stroke:#000000;stroke-width:1.5;" width="242" x="10" y="264.5"/><rect fill="#F1F1F1" height="40.9766" rx="5" ry="5" style="stroke:#F1F1F1;stroke-width:1.5;" width="207" x="289" y="235"/><text fill="#000000" font-family="sans-serif" font-size="14" font-weight="bold" lengthAdjust="spacing" textLength="111" x="294" y="250.5352">total_null_rows</text><text fill="#000000" font-family="sans-serif" font-size="14" lengthAdjust="spacing" textLength="9" x="446" y="250.5352">0</text><line style="stroke:#000000;stroke-width:1.0;" x1="441" x2="441" y1="235" y2="255.4883"/><line style="stroke:#000000;stroke-width:1.0;" x1="289" x2="496" y1="255.4883" y2="255.4883"/><text fill="#000000" font-family="sans-serif" font-size="14" font-weight="bold" lengthAdjust="spacing" textLength="142" x="294" y="271.0234">total_not_null_rows</text><text fill="#000000" font-family="sans-serif" font-size="14" lengthAdjust="spacing" textLength="45" x="446" y="271.0234">19972</text><line style="stroke:#000000;stroke-width:1.0;" x1="441" x2="441" y1="255.4883" y2="275.9766"/><rect fill="none" height="40.9766" rx="5" ry="5" style="stroke:#000000;stroke-width:1.5;" width="207" x="289" y="235"/><rect fill="#F1F1F1" height="204.8828" rx="5" ry="5" style="stroke:#F1F1F1;stroke-width:1.5;" width="22" x="380.5" y="294"/><text fill="#000000" font-family="sans-serif" font-size="14" lengthAdjust="spacing" textLength="12" x="385.5" y="309.5352">   </text><line style="stroke:#000000;stroke-width:1.0;" x1="380.5" x2="402.5" y1="314.4883" y2="314.4883"/><text fill="#000000" font-family="sans-serif" font-size="14" lengthAdjust="spacing" textLength="12" x="385.5" y="330.0234">   </text><line style="stroke:#000000;stroke-width:1.0;" x1="380.5" x2="402.5" y1="334.9766" y2="334.9766"/><text fill="#000000" font-family="sans-serif" font-size="14" lengthAdjust="spacing" textLength="12" x="385.5" y="350.5117">   </text><line style="stroke:#000000;stroke-width:1.0;" x1="380.5" x2="402.5" y1="355.4648" y2="355.4648"/><text fill="#000000" font-family="sans-serif" font-size="14" lengthAdjust="spacing" textLength="12" x="385.5" y="371">   </text><line style="stroke:#000000;stroke-width:1.0;" x1="380.5" x2="402.5" y1="375.9531" y2="375.9531"/><text fill="#000000" font-family="sans-serif" font-size="14" lengthAdjust="spacing" textLength="12" x="385.5" y="391.4883">   </text><line style="stroke:#000000;stroke-width:1.0;" x1="380.5" x2="402.5" y1="396.4414" y2="396.4414"/><text fill="#000000" font-family="sans-serif" font-size="14" lengthAdjust="spacing" textLength="12" x="385.5" y="411.9766">   </text><line style="stroke:#000000;stroke-width:1.0;" x1="380.5" x2="402.5" y1="416.9297" y2="416.9297"/><text fill="#000000" font-family="sans-serif" font-size="14" lengthAdjust="spacing" textLength="12" x="385.5" y="432.4648">   </text><line style="stroke:#000000;stroke-width:1.0;" x1="380.5" x2="402.5" y1="437.418" y2="437.418"/><text fill="#000000" font-family="sans-serif" font-size="14" lengthAdjust="spacing" textLength="12" x="385.5" y="452.9531">   </text><line style="stroke:#000000;stroke-width:1.0;" x1="380.5" x2="402.5" y1="457.9063" y2="457.9063"/><text fill="#000000" font-family="sans-serif" font-size="14" lengthAdjust="spacing" textLength="12" x="385.5" y="473.4414">   </text><line style="stroke:#000000;stroke-width:1.0;" x1="380.5" x2="402.5" y1="478.3945" y2="478.3945"/><text fill="#000000" font-family="sans-serif" font-size="14" lengthAdjust="spacing" textLength="12" x="385.5" y="493.9297">   </text><rect fill="none" height="204.8828" rx="5" ry="5" style="stroke:#000000;stroke-width:1.5;" width="22" x="380.5" y="294"/><rect fill="#F1F1F1" height="61.4648" rx="5" ry="5" style="stroke:#F1F1F1;stroke-width:1.5;" width="271" x="533" y="10"/><text fill="#000000" font-family="sans-serif" font-size="14" font-weight="bold" lengthAdjust="spacing" textLength="78" x="538" y="25.5352">field_value</text><text fill="#000000" font-family="sans-serif" font-size="14" lengthAdjust="spacing" textLength="147" x="642" y="25.5352">1 (11) 500 555-0118</text><line style="stroke:#000000;stroke-width:1.0;" x1="637" x2="637" y1="10" y2="30.4883"/><line style="stroke:#000000;stroke-width:1.0;" x1="533" x2="804" y1="30.4883" y2="30.4883"/><text fill="#000000" font-family="sans-serif" font-size="14" font-weight="bold" lengthAdjust="spacing" textLength="74" x="538" y="46.0234">row_count</text><text fill="#000000" font-family="sans-serif" font-size="14" lengthAdjust="spacing" textLength="27" x="642" y="46.0234">209</text><line style="stroke:#000000;stroke-width:1.0;" x1="637" x2="637" y1="30.4883" y2="50.9766"/><line style="stroke:#000000;stroke-width:1.0;" x1="533" x2="804" y1="50.9766" y2="50.9766"/><text fill="#000000" font-family="sans-serif" font-size="14" font-weight="bold" lengthAdjust="spacing" textLength="94" x="538" y="66.5117">ratio_percent</text><text fill="#000000" font-family="sans-serif" font-size="14" lengthAdjust="spacing" textLength="157" x="642" y="66.5117">1.0464650510715001</text><line style="stroke:#000000;stroke-width:1.0;" x1="637" x2="637" y1="50.9766" y2="71.4648"/><rect fill="none" height="61.4648" rx="5" ry="5" style="stroke:#000000;stroke-width:1.5;" width="271" x="533" y="10"/><rect fill="#F1F1F1" height="61.4648" rx="5" ry="5" style="stroke:#F1F1F1;stroke-width:1.5;" width="271" x="533" y="89"/><text fill="#000000" font-family="sans-serif" font-size="14" font-weight="bold" lengthAdjust="spacing" textLength="78" x="538" y="104.5352">field_value</text><text fill="#000000" font-family="sans-serif" font-size="14" lengthAdjust="spacing" textLength="147" x="642" y="104.5352">1 (11) 500 555-0113</text><line style="stroke:#000000;stroke-width:1.0;" x1="637" x2="637" y1="89" y2="109.4883"/><line style="stroke:#000000;stroke-width:1.0;" x1="533" x2="804" y1="109.4883" y2="109.4883"/><text fill="#000000" font-family="sans-serif" font-size="14" font-weight="bold" lengthAdjust="spacing" textLength="74" x="538" y="125.0234">row_count</text><text fill="#000000" font-family="sans-serif" font-size="14" lengthAdjust="spacing" textLength="27" x="642" y="125.0234">192</text><line style="stroke:#000000;stroke-width:1.0;" x1="637" x2="637" y1="109.4883" y2="129.9766"/><line style="stroke:#000000;stroke-width:1.0;" x1="533" x2="804" y1="129.9766" y2="129.9766"/><text fill="#000000" font-family="sans-serif" font-size="14" font-weight="bold" lengthAdjust="spacing" textLength="94" x="538" y="145.5117">ratio_percent</text><text fill="#000000" font-family="sans-serif" font-size="14" lengthAdjust="spacing" textLength="157" x="642" y="145.5117">0.9613458842379331</text><line style="stroke:#000000;stroke-width:1.0;" x1="637" x2="637" y1="129.9766" y2="150.4648"/><rect fill="none" height="61.4648" rx="5" ry="5" style="stroke:#000000;stroke-width:1.5;" width="271" x="533" y="89"/><rect fill="#F1F1F1" height="61.4648" rx="5" ry="5" style="stroke:#F1F1F1;stroke-width:1.5;" width="271" x="533" y="168"/><text fill="#000000" font-family="sans-serif" font-size="14" font-weight="bold" lengthAdjust="spacing" textLength="78" x="538" y="183.5352">field_value</text><text fill="#000000" font-family="sans-serif" font-size="14" lengthAdjust="spacing" textLength="147" x="642" y="183.5352">1 (11) 500 555-0116</text><line style="stroke:#000000;stroke-width:1.0;" x1="637" x2="637" y1="168" y2="188.4883"/><line style="stroke:#000000;stroke-width:1.0;" x1="533" x2="804" y1="188.4883" y2="188.4883"/><text fill="#000000" font-family="sans-serif" font-size="14" font-weight="bold" lengthAdjust="spacing" textLength="74" x="538" y="204.0234">row_count</text><text fill="#000000" font-family="sans-serif" font-size="14" lengthAdjust="spacing" textLength="27" x="642" y="204.0234">192</text><line style="stroke:#000000;stroke-width:1.0;" x1="637" x2="637" y1="188.4883" y2="208.9766"/><line style="stroke:#000000;stroke-width:1.0;" x1="533" x2="804" y1="208.9766" y2="208.9766"/><text fill="#000000" font-family="sans-serif" font-size="14" font-weight="bold" lengthAdjust="spacing" textLength="94" x="538" y="224.5117">ratio_percent</text><text fill="#000000" font-family="sans-serif" font-size="14" lengthAdjust="spacing" textLength="157" x="642" y="224.5117">0.9613458842379331</text><line style="stroke:#000000;stroke-width:1.0;" x1="637" x2="637" y1="208.9766" y2="229.4648"/><rect fill="none" height="61.4648" rx="5" ry="5" style="stroke:#000000;stroke-width:1.5;" width="271" x="533" y="168"/><rect fill="#F1F1F1" height="61.4648" rx="5" ry="5" style="stroke:#F1F1F1;stroke-width:1.5;" width="262" x="537.5" y="247"/><text fill="#000000" font-family="sans-serif" font-size="14" font-weight="bold" lengthAdjust="spacing" textLength="78" x="542.5" y="262.5352">field_value</text><text fill="#000000" font-family="sans-serif" font-size="14" lengthAdjust="spacing" textLength="147" x="646.5" y="262.5352">1 (11) 500 555-0115</text><line style="stroke:#000000;stroke-width:1.0;" x1="641.5" x2="641.5" y1="247" y2="267.4883"/><line style="stroke:#000000;stroke-width:1.0;" x1="537.5" x2="799.5" y1="267.4883" y2="267.4883"/><text fill="#000000" font-family="sans-serif" font-size="14" font-weight="bold" lengthAdjust="spacing" textLength="74" x="542.5" y="283.0234">row_count</text><text fill="#000000" font-family="sans-serif" font-size="14" lengthAdjust="spacing" textLength="27" x="646.5" y="283.0234">187</text><line style="stroke:#000000;stroke-width:1.0;" x1="641.5" x2="641.5" y1="267.4883" y2="287.9766"/><line style="stroke:#000000;stroke-width:1.0;" x1="537.5" x2="799.5" y1="287.9766" y2="287.9766"/><text fill="#000000" font-family="sans-serif" font-size="14" font-weight="bold" lengthAdjust="spacing" textLength="94" x="542.5" y="303.5117">ratio_percent</text><text fill="#000000" font-family="sans-serif" font-size="14" lengthAdjust="spacing" textLength="148" x="646.5" y="303.5117">0.936310835169237</text><line style="stroke:#000000;stroke-width:1.0;" x1="641.5" x2="641.5" y1="287.9766" y2="308.4648"/><rect fill="none" height="61.4648" rx="5" ry="5" style="stroke:#000000;stroke-width:1.5;" width="262" x="537.5" y="247"/><rect fill="#F1F1F1" height="61.4648" rx="5" ry="5" style="stroke:#F1F1F1;stroke-width:1.5;" width="271" x="533" y="326"/><text fill="#000000" font-family="sans-serif" font-size="14" font-weight="bold" lengthAdjust="spacing" textLength="78" x="538" y="341.5352">field_value</text><text fill="#000000" font-family="sans-serif" font-size="14" lengthAdjust="spacing" textLength="147" x="642" y="341.5352">1 (11) 500 555-0114</text><line style="stroke:#000000;stroke-width:1.0;" x1="637" x2="637" y1="326" y2="346.4883"/><line style="stroke:#000000;stroke-width:1.0;" x1="533" x2="804" y1="346.4883" y2="346.4883"/><text fill="#000000" font-family="sans-serif" font-size="14" font-weight="bold" lengthAdjust="spacing" textLength="74" x="538" y="362.0234">row_count</text><text fill="#000000" font-family="sans-serif" font-size="14" lengthAdjust="spacing" textLength="27" x="642" y="362.0234">186</text><line style="stroke:#000000;stroke-width:1.0;" x1="637" x2="637" y1="346.4883" y2="366.9766"/><line style="stroke:#000000;stroke-width:1.0;" x1="533" x2="804" y1="366.9766" y2="366.9766"/><text fill="#000000" font-family="sans-serif" font-size="14" font-weight="bold" lengthAdjust="spacing" textLength="94" x="538" y="382.5117">ratio_percent</text><text fill="#000000" font-family="sans-serif" font-size="14" lengthAdjust="spacing" textLength="157" x="642" y="382.5117">0.9313038253554977</text><line style="stroke:#000000;stroke-width:1.0;" x1="637" x2="637" y1="366.9766" y2="387.4648"/><rect fill="none" height="61.4648" rx="5" ry="5" style="stroke:#000000;stroke-width:1.5;" width="271" x="533" y="326"/><rect fill="#F1F1F1" height="61.4648" rx="5" ry="5" style="stroke:#F1F1F1;stroke-width:1.5;" width="271" x="533" y="405"/><text fill="#000000" font-family="sans-serif" font-size="14" font-weight="bold" lengthAdjust="spacing" textLength="78" x="538" y="420.5352">field_value</text><text fill="#000000" font-family="sans-serif" font-size="14" lengthAdjust="spacing" textLength="147" x="642" y="420.5352">1 (11) 500 555-0112</text><line style="stroke:#000000;stroke-width:1.0;" x1="637" x2="637" y1="405" y2="425.4883"/><line style="stroke:#000000;stroke-width:1.0;" x1="533" x2="804" y1="425.4883" y2="425.4883"/><text fill="#000000" font-family="sans-serif" font-size="14" font-weight="bold" lengthAdjust="spacing" textLength="74" x="538" y="441.0234">row_count</text><text fill="#000000" font-family="sans-serif" font-size="14" lengthAdjust="spacing" textLength="27" x="642" y="441.0234">185</text><line style="stroke:#000000;stroke-width:1.0;" x1="637" x2="637" y1="425.4883" y2="445.9766"/><line style="stroke:#000000;stroke-width:1.0;" x1="533" x2="804" y1="445.9766" y2="445.9766"/><text fill="#000000" font-family="sans-serif" font-size="14" font-weight="bold" lengthAdjust="spacing" textLength="94" x="538" y="461.5117">ratio_percent</text><text fill="#000000" font-family="sans-serif" font-size="14" lengthAdjust="spacing" textLength="157" x="642" y="461.5117">0.9262968155417585</text><line style="stroke:#000000;stroke-width:1.0;" x1="637" x2="637" y1="445.9766" y2="466.4648"/><rect fill="none" height="61.4648" rx="5" ry="5" style="stroke:#000000;stroke-width:1.5;" width="271" x="533" y="405"/><rect fill="#F1F1F1" height="61.4648" rx="5" ry="5" style="stroke:#F1F1F1;stroke-width:1.5;" width="271" x="533" y="484"/><text fill="#000000" font-family="sans-serif" font-size="14" font-weight="bold" lengthAdjust="spacing" textLength="78" x="538" y="499.5352">field_value</text><text fill="#000000" font-family="sans-serif" font-size="14" lengthAdjust="spacing" textLength="147" x="642" y="499.5352">1 (11) 500 555-0119</text><line style="stroke:#000000;stroke-width:1.0;" x1="637" x2="637" y1="484" y2="504.4883"/><line style="stroke:#000000;stroke-width:1.0;" x1="533" x2="804" y1="504.4883" y2="504.4883"/><text fill="#000000" font-family="sans-serif" font-size="14" font-weight="bold" lengthAdjust="spacing" textLength="74" x="538" y="520.0234">row_count</text><text fill="#000000" font-family="sans-serif" font-size="14" lengthAdjust="spacing" textLength="27" x="642" y="520.0234">182</text><line style="stroke:#000000;stroke-width:1.0;" x1="637" x2="637" y1="504.4883" y2="524.9766"/><line style="stroke:#000000;stroke-width:1.0;" x1="533" x2="804" y1="524.9766" y2="524.9766"/><text fill="#000000" font-family="sans-serif" font-size="14" font-weight="bold" lengthAdjust="spacing" textLength="94" x="538" y="540.5117">ratio_percent</text><text fill="#000000" font-family="sans-serif" font-size="14" lengthAdjust="spacing" textLength="157" x="642" y="540.5117">0.9112757861005407</text><line style="stroke:#000000;stroke-width:1.0;" x1="637" x2="637" y1="524.9766" y2="545.4648"/><rect fill="none" height="61.4648" rx="5" ry="5" style="stroke:#000000;stroke-width:1.5;" width="271" x="533" y="484"/><rect fill="#F1F1F1" height="61.4648" rx="5" ry="5" style="stroke:#F1F1F1;stroke-width:1.5;" width="271" x="533" y="563"/><text fill="#000000" font-family="sans-serif" font-size="14" font-weight="bold" lengthAdjust="spacing" textLength="78" x="538" y="578.5352">field_value</text><text fill="#000000" font-family="sans-serif" font-size="14" lengthAdjust="spacing" textLength="147" x="642" y="578.5352">1 (11) 500 555-0117</text><line style="stroke:#000000;stroke-width:1.0;" x1="637" x2="637" y1="563" y2="583.4883"/><line style="stroke:#000000;stroke-width:1.0;" x1="533" x2="804" y1="583.4883" y2="583.4883"/><text fill="#000000" font-family="sans-serif" font-size="14" font-weight="bold" lengthAdjust="spacing" textLength="74" x="538" y="599.0234">row_count</text><text fill="#000000" font-family="sans-serif" font-size="14" lengthAdjust="spacing" textLength="27" x="642" y="599.0234">182</text><line style="stroke:#000000;stroke-width:1.0;" x1="637" x2="637" y1="583.4883" y2="603.9766"/><line style="stroke:#000000;stroke-width:1.0;" x1="533" x2="804" y1="603.9766" y2="603.9766"/><text fill="#000000" font-family="sans-serif" font-size="14" font-weight="bold" lengthAdjust="spacing" textLength="94" x="538" y="619.5117">ratio_percent</text><text fill="#000000" font-family="sans-serif" font-size="14" lengthAdjust="spacing" textLength="157" x="642" y="619.5117">0.9112757861005407</text><line style="stroke:#000000;stroke-width:1.0;" x1="637" x2="637" y1="603.9766" y2="624.4648"/><rect fill="none" height="61.4648" rx="5" ry="5" style="stroke:#000000;stroke-width:1.5;" width="271" x="533" y="563"/><rect fill="#F1F1F1" height="61.4648" rx="5" ry="5" style="stroke:#F1F1F1;stroke-width:1.5;" width="271" x="533" y="642"/><text fill="#000000" font-family="sans-serif" font-size="14" font-weight="bold" lengthAdjust="spacing" textLength="78" x="538" y="657.5352">field_value</text><text fill="#000000" font-family="sans-serif" font-size="14" lengthAdjust="spacing" textLength="147" x="642" y="657.5352">1 (11) 500 555-0111</text><line style="stroke:#000000;stroke-width:1.0;" x1="637" x2="637" y1="642" y2="662.4883"/><line style="stroke:#000000;stroke-width:1.0;" x1="533" x2="804" y1="662.4883" y2="662.4883"/><text fill="#000000" font-family="sans-serif" font-size="14" font-weight="bold" lengthAdjust="spacing" textLength="74" x="538" y="678.0234">row_count</text><text fill="#000000" font-family="sans-serif" font-size="14" lengthAdjust="spacing" textLength="27" x="642" y="678.0234">180</text><line style="stroke:#000000;stroke-width:1.0;" x1="637" x2="637" y1="662.4883" y2="682.9766"/><line style="stroke:#000000;stroke-width:1.0;" x1="533" x2="804" y1="682.9766" y2="682.9766"/><text fill="#000000" font-family="sans-serif" font-size="14" font-weight="bold" lengthAdjust="spacing" textLength="94" x="538" y="698.5117">ratio_percent</text><text fill="#000000" font-family="sans-serif" font-size="14" lengthAdjust="spacing" textLength="157" x="642" y="698.5117">0.9012617664730623</text><line style="stroke:#000000;stroke-width:1.0;" x1="637" x2="637" y1="682.9766" y2="703.4648"/><rect fill="none" height="61.4648" rx="5" ry="5" style="stroke:#000000;stroke-width:1.5;" width="271" x="533" y="642"/><rect fill="#F1F1F1" height="61.4648" rx="5" ry="5" style="stroke:#F1F1F1;stroke-width:1.5;" width="271" x="533" y="721"/><text fill="#000000" font-family="sans-serif" font-size="14" font-weight="bold" lengthAdjust="spacing" textLength="78" x="538" y="736.5352">field_value</text><text fill="#000000" font-family="sans-serif" font-size="14" lengthAdjust="spacing" textLength="147" x="642" y="736.5352">1 (11) 500 555-0110</text><line style="stroke:#000000;stroke-width:1.0;" x1="637" x2="637" y1="721" y2="741.4883"/><line style="stroke:#000000;stroke-width:1.0;" x1="533" x2="804" y1="741.4883" y2="741.4883"/><text fill="#000000" font-family="sans-serif" font-size="14" font-weight="bold" lengthAdjust="spacing" textLength="74" x="538" y="757.0234">row_count</text><text fill="#000000" font-family="sans-serif" font-size="14" lengthAdjust="spacing" textLength="27" x="642" y="757.0234">135</text><line style="stroke:#000000;stroke-width:1.0;" x1="637" x2="637" y1="741.4883" y2="761.9766"/><line style="stroke:#000000;stroke-width:1.0;" x1="533" x2="804" y1="761.9766" y2="761.9766"/><text fill="#000000" font-family="sans-serif" font-size="14" font-weight="bold" lengthAdjust="spacing" textLength="94" x="538" y="777.5117">ratio_percent</text><text fill="#000000" font-family="sans-serif" font-size="14" lengthAdjust="spacing" textLength="157" x="642" y="777.5117">0.6759463248547967</text><line style="stroke:#000000;stroke-width:1.0;" x1="637" x2="637" y1="761.9766" y2="782.4648"/><rect fill="none" height="61.4648" rx="5" ry="5" style="stroke:#000000;stroke-width:1.5;" width="271" x="533" y="721"/><path d="M240,315.5 L253,315.5 C273.8273,315.5 270.6143,295.285 289,285.5 C293.4187,283.1484 298.0447,280.9598 302.7859,278.9261 " fill="none" style="stroke:#000000;stroke-width:1.0;stroke-dasharray:3.0,3.0;"/><path d="M303.9339,281.7334 L304.8914,278.0652 L301.638,276.1189 L309.804,276.0563 L303.9339,281.7334 " fill="#000000" style="stroke:#000000;stroke-width:1.0;"/><ellipse cx="240" cy="315.5" fill="#000000" rx="3" ry="3" style="stroke:#000000;stroke-width:1.0;"/><path d="M393,303.5 L406,303.5 C447.2281,303.5 468.1738,314.9755 497,285.5 C561.9848,219.0516 470.93,148.679 533,79.5 C534.0081,78.3765 535.0463,77.2844 536.1126,76.2231 " fill="none" style="stroke:#000000;stroke-width:1.0;stroke-dasharray:3.0,3.0;"/><path d="M538.1347,78.4455 L537.7795,74.7065 L534.0905,74.0006 L541.6688,71.1678 L538.1347,78.4455 " fill="#000000" style="stroke:#000000;stroke-width:1.0;"/><ellipse cx="393" cy="303.5" fill="#000000" rx="3" ry="3" style="stroke:#000000;stroke-width:1.0;"/><path d="M393,324.5 L406,324.5 C450.0022,324.5 467.9505,318.5503 497,285.5 C535.7318,241.4339 491.6193,200.0887 533,158.5 C534.2233,157.2705 535.4828,156.0793 536.7755,154.925 " fill="none" style="stroke:#000000;stroke-width:1.0;stroke-dasharray:3.0,3.0;"/><path d="M538.7064,157.2737 L538.537,153.4769 L534.8447,152.5764 L542.6472,150.0978 L538.7064,157.2737 " fill="#000000" style="stroke:#000000;stroke-width:1.0;"/><ellipse cx="393" cy="324.5" fill="#000000" rx="3" ry="3" style="stroke:#000000;stroke-width:1.0;"/><path d="M393,344.5 L406,344.5 C454.2012,344.5 461.773,318.4001 497,285.5 C516.4889,267.2985 511.0554,252.6508 533,237.5 C535.3464,235.88 537.7599,234.3267 540.2295,232.8373 " fill="none" style="stroke:#000000;stroke-width:1.0;stroke-dasharray:3.0,3.0;"/><path d="M541.7476,235.5016 L542.2277,231.6987 L538.7115,230.173 L546.8903,229.0421 L541.7476,235.5016 " fill="#000000" style="stroke:#000000;stroke-width:1.0;"/><ellipse cx="393" cy="344.5" fill="#000000" rx="3" ry="3" style="stroke:#000000;stroke-width:1.0;"/><path d="M393,365.5 L406,365.5 C466.3414,365.5 475.8118,336.7507 533,317.5 C540.0371,315.1312 547.3048,312.7614 554.6494,310.4241 " fill="none" style="stroke:#000000;stroke-width:1.0;stroke-dasharray:3.0,3.0;"/><path d="M555.5794,313.3699 L556.8587,309.7266 L553.7193,307.4783 L562.0138,308.099 L555.5794,313.3699 " fill="#000000" style="stroke:#000000;stroke-width:1.0;"/><ellipse cx="393" cy="365.5" fill="#000000" rx="3" ry="3" style="stroke:#000000;stroke-width:1.0;"/><path d="M393,385.5 L406,385.5 C444.9351,385.5 486.9283,382.297 525.6467,378.02 " fill="none" style="stroke:#000000;stroke-width:1.0;stroke-dasharray:3.0,3.0;"/><path d="M525.9944,381.0993 L527.9562,377.7593 L525.2991,374.9407 L533.3449,377.1509 L525.9944,381.0993 " fill="#000000" style="stroke:#000000;stroke-width:1.0;"/><ellipse cx="393" cy="385.5" fill="#000000" rx="3" ry="3" style="stroke:#000000;stroke-width:1.0;"/><path d="M393,406.5 L406,406.5 C444.9351,406.5 486.9283,409.703 525.6467,413.98 " fill="none" style="stroke:#000000;stroke-width:1.0;stroke-dasharray:3.0,3.0;"/><path d="M525.2991,417.0593 L527.9562,414.2407 L525.9944,410.9007 L533.3449,414.8491 L525.2991,417.0593 " fill="#000000" style="stroke:#000000;stroke-width:1.0;"/><ellipse cx="393" cy="406.5" fill="#000000" rx="3" ry="3" style="stroke:#000000;stroke-width:1.0;"/><path d="M393,427.5 L406,427.5 C466.3414,427.5 475.7464,456.4445 533,475.5 C539.1558,477.5488 545.4895,479.5928 551.8977,481.6109 " fill="none" style="stroke:#000000;stroke-width:1.0;stroke-dasharray:3.0,3.0;"/><path d="M550.9553,484.6312 L554.1629,482.3177 L552.84,478.5906 L559.4484,483.9668 L550.9553,484.6312 " fill="#000000" style="stroke:#000000;stroke-width:1.0;"/><ellipse cx="393" cy="427.5" fill="#000000" rx="3" ry="3" style="stroke:#000000;stroke-width:1.0;"/><path d="M393,447.5 L406,447.5 C479.8072,447.5 467.9012,519.7199 533,554.5 C536.4092,556.3214 539.9135,558.0667 543.488,559.7385 " fill="none" style="stroke:#000000;stroke-width:1.0;stroke-dasharray:3.0,3.0;"/><path d="M542.2381,562.5202 L545.5743,560.6759 L544.7379,556.9568 L550.4423,562.8631 L542.2381,562.5202 " fill="#000000" style="stroke:#000000;stroke-width:1.0;"/><ellipse cx="393" cy="447.5" fill="#000000" rx="3" ry="3" style="stroke:#000000;stroke-width:1.0;"/><path d="M393,468.5 L406,468.5 C498.5405,468.5 456.5197,581.399 533,633.5 C535.3564,635.1053 537.7791,636.6453 540.257,638.1226 " fill="none" style="stroke:#000000;stroke-width:1.0;stroke-dasharray:3.0,3.0;"/><path d="M538.7506,640.7949 L542.2612,639.2524 L541.7634,635.4503 L546.9378,641.8886 L538.7506,640.7949 " fill="#000000" style="stroke:#000000;stroke-width:1.0;"/><ellipse cx="393" cy="468.5" fill="#000000" rx="3" ry="3" style="stroke:#000000;stroke-width:1.0;"/><path d="M393,488.5 L406,488.5 C520.4434,488.5 443.1639,641.6004 533,712.5 C534.7953,713.9169 536.6403,715.2823 538.5287,716.5982 " fill="none" style="stroke:#000000;stroke-width:1.0;stroke-dasharray:3.0,3.0;"/><path d="M536.8145,719.23 L540.5025,717.8838 L540.2428,713.9664 L545.1082,720.8836 L536.8145,719.23 " fill="#000000" style="stroke:#000000;stroke-width:1.0;"/><ellipse cx="393" cy="488.5" fill="#000000" rx="3" ry="3" style="stroke:#000000;stroke-width:1.0;"/><path d="M240,336.5 L253,336.5 C300.0497,336.5 349.2629,365.8357 374.6101,383.482 " fill="none" style="stroke:#000000;stroke-width:1.0;stroke-dasharray:3.0,3.0;"/><path d="M372.8416,385.964 L376.4716,384.8085 L376.3787,381.0001 L380.815,387.9035 L372.8416,385.964 " fill="#000000" style="stroke:#000000;stroke-width:1.0;"/><ellipse cx="240" cy="336.5" fill="#000000" rx="3" ry="3" style="stroke:#000000;stroke-width:1.0;"/><!--MD5=[af9783b568d5c38fb0001fb095e75029]
@startjson
{
    "field1": "PhoneNumber",
    "combination": "PhoneNumber",
    "null_distribution": {
        "total_null_rows": 0,
        "total_not_null_rows": 19972
    },
    "data_distribution": [
        {
            "field_value": "1 (11) 500 555-0118",
            "row_count": 209,
            "ratio_percent": 1.0464650510715001
        },
        {
            "field_value": "1 (11) 500 555-0113",
            "row_count": 192,
            "ratio_percent": 0.9613458842379331
        },
        {
            "field_value": "1 (11) 500 555-0116",
            "row_count": 192,
            "ratio_percent": 0.9613458842379331
        },
        {
            "field_value": "1 (11) 500 555-0115",
            "row_count": 187,
            "ratio_percent": 0.936310835169237
        },
        {
            "field_value": "1 (11) 500 555-0114",
            "row_count": 186,
            "ratio_percent": 0.9313038253554977
        },
        {
            "field_value": "1 (11) 500 555-0112",
            "row_count": 185,
            "ratio_percent": 0.9262968155417585
        },
        {
            "field_value": "1 (11) 500 555-0119",
            "row_count": 182,
            "ratio_percent": 0.9112757861005407
        },
        {
            "field_value": "1 (11) 500 555-0117",
            "row_count": 182,
            "ratio_percent": 0.9112757861005407
        },
        {
            "field_value": "1 (11) 500 555-0111",
            "row_count": 180,
            "ratio_percent": 0.9012617664730623
        },
        {
            "field_value": "1 (11) 500 555-0110",
            "row_count": 135,
            "ratio_percent": 0.6759463248547967
        }
    ]
}
@endjson

PlantUML version 1.2022.5(Sat Apr 30 06:55:52 EDT 2022)
(GPL source distribution)
Java Runtime: OpenJDK Runtime Environment
JVM: OpenJDK 64-Bit Server VM
Default Encoding: UTF-8
Language: en
Country: CA
--></g></svg>