<?xml version="1.0" encoding="UTF-8" standalone="no"?><svg xmlns="http://www.w3.org/2000/svg" xmlns:xlink="http://www.w3.org/1999/xlink" contentStyleType="text/css" height="794px" preserveAspectRatio="none" style="width:826px;height:794px;background:#FFFFFF;" version="1.1" viewBox="0 0 826 794" width="826px" zoomAndPan="magnify"><defs/><g><rect fill="#F1F1F1" height="81.9531" rx="5" ry="5" style="stroke:#F1F1F1;stroke-width:1.5;" width="234" x="10" y="264.5"/><text fill="#000000" font-family="sans-serif" font-size="14" font-weight="bold" lengthAdjust="spacing" textLength="42" x="15" y="280.0352">field1</text><text fill="#000000" font-family="sans-serif" font-size="14" lengthAdjust="spacing" textLength="90" x="149" y="280.0352">PasswordSalt</text><line style="stroke:#000000;stroke-width:1.0;" x1="144" x2="144" y1="264.5" y2="284.9883"/><line style="stroke:#000000;stroke-width:1.0;" x1="10" x2="244" y1="284.9883" y2="284.9883"/><text fill="#000000" font-family="sans-serif" font-size="14" font-weight="bold" lengthAdjust="spacing" textLength="90" x="15" y="300.5234">combination</text><text fill="#000000" font-family="sans-serif" font-size="14" lengthAdjust="spacing" textLength="90" x="149" y="300.5234">PasswordSalt</text><line style="stroke:#000000;stroke-width:1.0;" x1="144" x2="144" y1="284.9883" y2="305.4766"/><line style="stroke:#000000;stroke-width:1.0;" x1="10" x2="244" y1="305.4766" y2="305.4766"/><text fill="#000000" font-family="sans-serif" font-size="14" font-weight="bold" lengthAdjust="spacing" textLength="121" x="15" y="321.0117">null_distribution</text><text fill="#000000" font-family="sans-serif" font-size="14" lengthAdjust="spacing" textLength="12" x="149" y="321.0117">   </text><line style="stroke:#000000;stroke-width:1.0;" x1="144" x2="144" y1="305.4766" y2="325.9648"/><line style="stroke:#000000;stroke-width:1.0;" x1="10" x2="244" y1="325.9648" y2="325.9648"/><text fill="#000000" font-family="sans-serif" font-size="14" font-weight="bold" lengthAdjust="spacing" textLength="124" x="15" y="341.5">data_distribution</text><text fill="#000000" font-family="sans-serif" font-size="14" lengthAdjust="spacing" textLength="12" x="149" y="341.5">   </text><line style="stroke:#000000;stroke-width:1.0;" x1="144" x2="144" y1="325.9648" y2="346.4531"/><rect fill="none" height="81.9531" rx="5" ry="5" style="stroke:#000000;stroke-width:1.5;" width="234" x="10" y="264.5"/><rect fill="#F1F1F1" height="40.9766" rx="5" ry="5" style="stroke:#F1F1F1;stroke-width:1.5;" width="207" x="281" y="235"/><text fill="#000000" font-family="sans-serif" font-size="14" font-weight="bold" lengthAdjust="spacing" textLength="111" x="286" y="250.5352">total_null_rows</text><text fill="#000000" font-family="sans-serif" font-size="14" lengthAdjust="spacing" textLength="9" x="438" y="250.5352">0</text><line style="stroke:#000000;stroke-width:1.0;" x1="433" x2="433" y1="235" y2="255.4883"/><line style="stroke:#000000;stroke-width:1.0;" x1="281" x2="488" y1="255.4883" y2="255.4883"/><text fill="#000000" font-family="sans-serif" font-size="14" font-weight="bold" lengthAdjust="spacing" textLength="142" x="286" y="271.0234">total_not_null_rows</text><text fill="#000000" font-family="sans-serif" font-size="14" lengthAdjust="spacing" textLength="45" x="438" y="271.0234">19972</text><line style="stroke:#000000;stroke-width:1.0;" x1="433" x2="433" y1="255.4883" y2="275.9766"/><rect fill="none" height="40.9766" rx="5" ry="5" style="stroke:#000000;stroke-width:1.5;" width="207" x="281" y="235"/><rect fill="#F1F1F1" height="204.8828" rx="5" ry="5" style="stroke:#F1F1F1;stroke-width:1.5;" width="22" x="372.5" y="294"/><text fill="#000000" font-family="sans-serif" font-size="14" lengthAdjust="spacing" textLength="12" x="377.5" y="309.5352">   </text><line style="stroke:#000000;stroke-width:1.0;" x1="372.5" x2="394.5" y1="314.4883" y2="314.4883"/><text fill="#000000" font-family="sans-serif" font-size="14" lengthAdjust="spacing" textLength="12" x="377.5" y="330.0234">   </text><line style="stroke:#000000;stroke-width:1.0;" x1="372.5" x2="394.5" y1="334.9766" y2="334.9766"/><text fill="#000000" font-family="sans-serif" font-size="14" lengthAdjust="spacing" textLength="12" x="377.5" y="350.5117">   </text><line style="stroke:#000000;stroke-width:1.0;" x1="372.5" x2="394.5" y1="355.4648" y2="355.4648"/><text fill="#000000" font-family="sans-serif" font-size="14" lengthAdjust="spacing" textLength="12" x="377.5" y="371">   </text><line style="stroke:#000000;stroke-width:1.0;" x1="372.5" x2="394.5" y1="375.9531" y2="375.9531"/><text fill="#000000" font-family="sans-serif" font-size="14" lengthAdjust="spacing" textLength="12" x="377.5" y="391.4883">   </text><line style="stroke:#000000;stroke-width:1.0;" x1="372.5" x2="394.5" y1="396.4414" y2="396.4414"/><text fill="#000000" font-family="sans-serif" font-size="14" lengthAdjust="spacing" textLength="12" x="377.5" y="411.9766">   </text><line style="stroke:#000000;stroke-width:1.0;" x1="372.5" x2="394.5" y1="416.9297" y2="416.9297"/><text fill="#000000" font-family="sans-serif" font-size="14" lengthAdjust="spacing" textLength="12" x="377.5" y="432.4648">   </text><line style="stroke:#000000;stroke-width:1.0;" x1="372.5" x2="394.5" y1="437.418" y2="437.418"/><text fill="#000000" font-family="sans-serif" font-size="14" lengthAdjust="spacing" textLength="12" x="377.5" y="452.9531">   </text><line style="stroke:#000000;stroke-width:1.0;" x1="372.5" x2="394.5" y1="457.9063" y2="457.9063"/><text fill="#000000" font-family="sans-serif" font-size="14" lengthAdjust="spacing" textLength="12" x="377.5" y="473.4414">   </text><line style="stroke:#000000;stroke-width:1.0;" x1="372.5" x2="394.5" y1="478.3945" y2="478.3945"/><text fill="#000000" font-family="sans-serif" font-size="14" lengthAdjust="spacing" textLength="12" x="377.5" y="493.9297">   </text><rect fill="none" height="204.8828" rx="5" ry="5" style="stroke:#000000;stroke-width:1.5;" width="22" x="372.5" y="294"/><rect fill="#F1F1F1" height="61.4648" rx="5" ry="5" style="stroke:#F1F1F1;stroke-width:1.5;" width="289" x="525" y="10"/><text fill="#000000" font-family="sans-serif" font-size="14" font-weight="bold" lengthAdjust="spacing" textLength="78" x="530" y="25.5352">field_value</text><text fill="#000000" font-family="sans-serif" font-size="14" lengthAdjust="spacing" textLength="71" x="634" y="25.5352">/0fp1QU=</text><line style="stroke:#000000;stroke-width:1.0;" x1="629" x2="629" y1="10" y2="30.4883"/><line style="stroke:#000000;stroke-width:1.0;" x1="525" x2="814" y1="30.4883" y2="30.4883"/><text fill="#000000" font-family="sans-serif" font-size="14" font-weight="bold" lengthAdjust="spacing" textLength="74" x="530" y="46.0234">row_count</text><text fill="#000000" font-family="sans-serif" font-size="14" lengthAdjust="spacing" textLength="9" x="634" y="46.0234">1</text><line style="stroke:#000000;stroke-width:1.0;" x1="629" x2="629" y1="30.4883" y2="50.9766"/><line style="stroke:#000000;stroke-width:1.0;" x1="525" x2="814" y1="50.9766" y2="50.9766"/><text fill="#000000" font-family="sans-serif" font-size="14" font-weight="bold" lengthAdjust="spacing" textLength="94" x="530" y="66.5117">ratio_percent</text><text fill="#000000" font-family="sans-serif" font-size="14" lengthAdjust="spacing" textLength="175" x="634" y="66.5117">0.005007009813739235</text><line style="stroke:#000000;stroke-width:1.0;" x1="629" x2="629" y1="50.9766" y2="71.4648"/><rect fill="none" height="61.4648" rx="5" ry="5" style="stroke:#000000;stroke-width:1.5;" width="289" x="525" y="10"/><rect fill="#F1F1F1" height="61.4648" rx="5" ry="5" style="stroke:#F1F1F1;stroke-width:1.5;" width="289" x="525" y="89"/><text fill="#000000" font-family="sans-serif" font-size="14" font-weight="bold" lengthAdjust="spacing" textLength="78" x="530" y="104.5352">field_value</text><text fill="#000000" font-family="sans-serif" font-size="14" lengthAdjust="spacing" textLength="76" x="634" y="104.5352">/07hmeA=</text><line style="stroke:#000000;stroke-width:1.0;" x1="629" x2="629" y1="89" y2="109.4883"/><line style="stroke:#000000;stroke-width:1.0;" x1="525" x2="814" y1="109.4883" y2="109.4883"/><text fill="#000000" font-family="sans-serif" font-size="14" font-weight="bold" lengthAdjust="spacing" textLength="74" x="530" y="125.0234">row_count</text><text fill="#000000" font-family="sans-serif" font-size="14" lengthAdjust="spacing" textLength="9" x="634" y="125.0234">1</text><line style="stroke:#000000;stroke-width:1.0;" x1="629" x2="629" y1="109.4883" y2="129.9766"/><line style="stroke:#000000;stroke-width:1.0;" x1="525" x2="814" y1="129.9766" y2="129.9766"/><text fill="#000000" font-family="sans-serif" font-size="14" font-weight="bold" lengthAdjust="spacing" textLength="94" x="530" y="145.5117">ratio_percent</text><text fill="#000000" font-family="sans-serif" font-size="14" lengthAdjust="spacing" textLength="175" x="634" y="145.5117">0.005007009813739235</text><line style="stroke:#000000;stroke-width:1.0;" x1="629" x2="629" y1="129.9766" y2="150.4648"/><rect fill="none" height="61.4648" rx="5" ry="5" style="stroke:#000000;stroke-width:1.5;" width="289" x="525" y="89"/><rect fill="#F1F1F1" height="61.4648" rx="5" ry="5" style="stroke:#F1F1F1;stroke-width:1.5;" width="289" x="525" y="168"/><text fill="#000000" font-family="sans-serif" font-size="14" font-weight="bold" lengthAdjust="spacing" textLength="78" x="530" y="183.5352">field_value</text><text fill="#000000" font-family="sans-serif" font-size="14" lengthAdjust="spacing" textLength="68" x="634" y="183.5352">/+zYvJQ=</text><line style="stroke:#000000;stroke-width:1.0;" x1="629" x2="629" y1="168" y2="188.4883"/><line style="stroke:#000000;stroke-width:1.0;" x1="525" x2="814" y1="188.4883" y2="188.4883"/><text fill="#000000" font-family="sans-serif" font-size="14" font-weight="bold" lengthAdjust="spacing" textLength="74" x="530" y="204.0234">row_count</text><text fill="#000000" font-family="sans-serif" font-size="14" lengthAdjust="spacing" textLength="9" x="634" y="204.0234">1</text><line style="stroke:#000000;stroke-width:1.0;" x1="629" x2="629" y1="188.4883" y2="208.9766"/><line style="stroke:#000000;stroke-width:1.0;" x1="525" x2="814" y1="208.9766" y2="208.9766"/><text fill="#000000" font-family="sans-serif" font-size="14" font-weight="bold" lengthAdjust="spacing" textLength="94" x="530" y="224.5117">ratio_percent</text><text fill="#000000" font-family="sans-serif" font-size="14" lengthAdjust="spacing" textLength="175" x="634" y="224.5117">0.005007009813739235</text><line style="stroke:#000000;stroke-width:1.0;" x1="629" x2="629" y1="208.9766" y2="229.4648"/><rect fill="none" height="61.4648" rx="5" ry="5" style="stroke:#000000;stroke-width:1.5;" width="289" x="525" y="168"/><rect fill="#F1F1F1" height="61.4648" rx="5" ry="5" style="stroke:#F1F1F1;stroke-width:1.5;" width="289" x="525" y="247"/><text fill="#000000" font-family="sans-serif" font-size="14" font-weight="bold" lengthAdjust="spacing" textLength="78" x="530" y="262.5352">field_value</text><text fill="#000000" font-family="sans-serif" font-size="14" lengthAdjust="spacing" textLength="74" x="634" y="262.5352">/+Vcb2w=</text><line style="stroke:#000000;stroke-width:1.0;" x1="629" x2="629" y1="247" y2="267.4883"/><line style="stroke:#000000;stroke-width:1.0;" x1="525" x2="814" y1="267.4883" y2="267.4883"/><text fill="#000000" font-family="sans-serif" font-size="14" font-weight="bold" lengthAdjust="spacing" textLength="74" x="530" y="283.0234">row_count</text><text fill="#000000" font-family="sans-serif" font-size="14" lengthAdjust="spacing" textLength="9" x="634" y="283.0234">1</text><line style="stroke:#000000;stroke-width:1.0;" x1="629" x2="629" y1="267.4883" y2="287.9766"/><line style="stroke:#000000;stroke-width:1.0;" x1="525" x2="814" y1="287.9766" y2="287.9766"/><text fill="#000000" font-family="sans-serif" font-size="14" font-weight="bold" lengthAdjust="spacing" textLength="94" x="530" y="303.5117">ratio_percent</text><text fill="#000000" font-family="sans-serif" font-size="14" lengthAdjust="spacing" textLength="175" x="634" y="303.5117">0.005007009813739235</text><line style="stroke:#000000;stroke-width:1.0;" x1="629" x2="629" y1="287.9766" y2="308.4648"/><rect fill="none" height="61.4648" rx="5" ry="5" style="stroke:#000000;stroke-width:1.5;" width="289" x="525" y="247"/><rect fill="#F1F1F1" height="61.4648" rx="5" ry="5" style="stroke:#F1F1F1;stroke-width:1.5;" width="289" x="525" y="326"/><text fill="#000000" font-family="sans-serif" font-size="14" font-weight="bold" lengthAdjust="spacing" textLength="78" x="530" y="341.5352">field_value</text><text fill="#000000" font-family="sans-serif" font-size="14" lengthAdjust="spacing" textLength="75" x="634" y="341.5352">/+QXtwU=</text><line style="stroke:#000000;stroke-width:1.0;" x1="629" x2="629" y1="326" y2="346.4883"/><line style="stroke:#000000;stroke-width:1.0;" x1="525" x2="814" y1="346.4883" y2="346.4883"/><text fill="#000000" font-family="sans-serif" font-size="14" font-weight="bold" lengthAdjust="spacing" textLength="74" x="530" y="362.0234">row_count</text><text fill="#000000" font-family="sans-serif" font-size="14" lengthAdjust="spacing" textLength="9" x="634" y="362.0234">1</text><line style="stroke:#000000;stroke-width:1.0;" x1="629" x2="629" y1="346.4883" y2="366.9766"/><line style="stroke:#000000;stroke-width:1.0;" x1="525" x2="814" y1="366.9766" y2="366.9766"/><text fill="#000000" font-family="sans-serif" font-size="14" font-weight="bold" lengthAdjust="spacing" textLength="94" x="530" y="382.5117">ratio_percent</text><text fill="#000000" font-family="sans-serif" font-size="14" lengthAdjust="spacing" textLength="175" x="634" y="382.5117">0.005007009813739235</text><line style="stroke:#000000;stroke-width:1.0;" x1="629" x2="629" y1="366.9766" y2="387.4648"/><rect fill="none" height="61.4648" rx="5" ry="5" style="stroke:#000000;stroke-width:1.5;" width="289" x="525" y="326"/><rect fill="#F1F1F1" height="61.4648" rx="5" ry="5" style="stroke:#F1F1F1;stroke-width:1.5;" width="289" x="525" y="405"/><text fill="#000000" font-family="sans-serif" font-size="14" font-weight="bold" lengthAdjust="spacing" textLength="78" x="530" y="420.5352">field_value</text><text fill="#000000" font-family="sans-serif" font-size="14" lengthAdjust="spacing" textLength="70" x="634" y="420.5352">/+QI49k=</text><line style="stroke:#000000;stroke-width:1.0;" x1="629" x2="629" y1="405" y2="425.4883"/><line style="stroke:#000000;stroke-width:1.0;" x1="525" x2="814" y1="425.4883" y2="425.4883"/><text fill="#000000" font-family="sans-serif" font-size="14" font-weight="bold" lengthAdjust="spacing" textLength="74" x="530" y="441.0234">row_count</text><text fill="#000000" font-family="sans-serif" font-size="14" lengthAdjust="spacing" textLength="9" x="634" y="441.0234">1</text><line style="stroke:#000000;stroke-width:1.0;" x1="629" x2="629" y1="425.4883" y2="445.9766"/><line style="stroke:#000000;stroke-width:1.0;" x1="525" x2="814" y1="445.9766" y2="445.9766"/><text fill="#000000" font-family="sans-serif" font-size="14" font-weight="bold" lengthAdjust="spacing" textLength="94" x="530" y="461.5117">ratio_percent</text><text fill="#000000" font-family="sans-serif" font-size="14" lengthAdjust="spacing" textLength="175" x="634" y="461.5117">0.005007009813739235</text><line style="stroke:#000000;stroke-width:1.0;" x1="629" x2="629" y1="445.9766" y2="466.4648"/><rect fill="none" height="61.4648" rx="5" ry="5" style="stroke:#000000;stroke-width:1.5;" width="289" x="525" y="405"/><rect fill="#F1F1F1" height="61.4648" rx="5" ry="5" style="stroke:#F1F1F1;stroke-width:1.5;" width="289" x="525" y="484"/><text fill="#000000" font-family="sans-serif" font-size="14" font-weight="bold" lengthAdjust="spacing" textLength="78" x="530" y="499.5352">field_value</text><text fill="#000000" font-family="sans-serif" font-size="14" lengthAdjust="spacing" textLength="75" x="634" y="499.5352">/+E3gQY=</text><line style="stroke:#000000;stroke-width:1.0;" x1="629" x2="629" y1="484" y2="504.4883"/><line style="stroke:#000000;stroke-width:1.0;" x1="525" x2="814" y1="504.4883" y2="504.4883"/><text fill="#000000" font-family="sans-serif" font-size="14" font-weight="bold" lengthAdjust="spacing" textLength="74" x="530" y="520.0234">row_count</text><text fill="#000000" font-family="sans-serif" font-size="14" lengthAdjust="spacing" textLength="9" x="634" y="520.0234">1</text><line style="stroke:#000000;stroke-width:1.0;" x1="629" x2="629" y1="504.4883" y2="524.9766"/><line style="stroke:#000000;stroke-width:1.0;" x1="525" x2="814" y1="524.9766" y2="524.9766"/><text fill="#000000" font-family="sans-serif" font-size="14" font-weight="bold" lengthAdjust="spacing" textLength="94" x="530" y="540.5117">ratio_percent</text><text fill="#000000" font-family="sans-serif" font-size="14" lengthAdjust="spacing" textLength="175" x="634" y="540.5117">0.005007009813739235</text><line style="stroke:#000000;stroke-width:1.0;" x1="629" x2="629" y1="524.9766" y2="545.4648"/><rect fill="none" height="61.4648" rx="5" ry="5" style="stroke:#000000;stroke-width:1.5;" width="289" x="525" y="484"/><rect fill="#F1F1F1" height="61.4648" rx="5" ry="5" style="stroke:#F1F1F1;stroke-width:1.5;" width="289" x="525" y="563"/><text fill="#000000" font-family="sans-serif" font-size="14" font-weight="bold" lengthAdjust="spacing" textLength="78" x="530" y="578.5352">field_value</text><text fill="#000000" font-family="sans-serif" font-size="14" lengthAdjust="spacing" textLength="65" x="634" y="578.5352">//ujPuA=</text><line style="stroke:#000000;stroke-width:1.0;" x1="629" x2="629" y1="563" y2="583.4883"/><line style="stroke:#000000;stroke-width:1.0;" x1="525" x2="814" y1="583.4883" y2="583.4883"/><text fill="#000000" font-family="sans-serif" font-size="14" font-weight="bold" lengthAdjust="spacing" textLength="74" x="530" y="599.0234">row_count</text><text fill="#000000" font-family="sans-serif" font-size="14" lengthAdjust="spacing" textLength="9" x="634" y="599.0234">1</text><line style="stroke:#000000;stroke-width:1.0;" x1="629" x2="629" y1="583.4883" y2="603.9766"/><line style="stroke:#000000;stroke-width:1.0;" x1="525" x2="814" y1="603.9766" y2="603.9766"/><text fill="#000000" font-family="sans-serif" font-size="14" font-weight="bold" lengthAdjust="spacing" textLength="94" x="530" y="619.5117">ratio_percent</text><text fill="#000000" font-family="sans-serif" font-size="14" lengthAdjust="spacing" textLength="175" x="634" y="619.5117">0.005007009813739235</text><line style="stroke:#000000;stroke-width:1.0;" x1="629" x2="629" y1="603.9766" y2="624.4648"/><rect fill="none" height="61.4648" rx="5" ry="5" style="stroke:#000000;stroke-width:1.5;" width="289" x="525" y="563"/><rect fill="#F1F1F1" height="61.4648" rx="5" ry="5" style="stroke:#F1F1F1;stroke-width:1.5;" width="289" x="525" y="642"/><text fill="#000000" font-family="sans-serif" font-size="14" font-weight="bold" lengthAdjust="spacing" textLength="78" x="530" y="657.5352">field_value</text><text fill="#000000" font-family="sans-serif" font-size="14" lengthAdjust="spacing" textLength="71" x="634" y="657.5352">//PNx7U=</text><line style="stroke:#000000;stroke-width:1.0;" x1="629" x2="629" y1="642" y2="662.4883"/><line style="stroke:#000000;stroke-width:1.0;" x1="525" x2="814" y1="662.4883" y2="662.4883"/><text fill="#000000" font-family="sans-serif" font-size="14" font-weight="bold" lengthAdjust="spacing" textLength="74" x="530" y="678.0234">row_count</text><text fill="#000000" font-family="sans-serif" font-size="14" lengthAdjust="spacing" textLength="9" x="634" y="678.0234">1</text><line style="stroke:#000000;stroke-width:1.0;" x1="629" x2="629" y1="662.4883" y2="682.9766"/><line style="stroke:#000000;stroke-width:1.0;" x1="525" x2="814" y1="682.9766" y2="682.9766"/><text fill="#000000" font-family="sans-serif" font-size="14" font-weight="bold" lengthAdjust="spacing" textLength="94" x="530" y="698.5117">ratio_percent</text><text fill="#000000" font-family="sans-serif" font-size="14" lengthAdjust="spacing" textLength="175" x="634" y="698.5117">0.005007009813739235</text><line style="stroke:#000000;stroke-width:1.0;" x1="629" x2="629" y1="682.9766" y2="703.4648"/><rect fill="none" height="61.4648" rx="5" ry="5" style="stroke:#000000;stroke-width:1.5;" width="289" x="525" y="642"/><rect fill="#F1F1F1" height="61.4648" rx="5" ry="5" style="stroke:#F1F1F1;stroke-width:1.5;" width="289" x="525" y="721"/><text fill="#000000" font-family="sans-serif" font-size="14" font-weight="bold" lengthAdjust="spacing" textLength="78" x="530" y="736.5352">field_value</text><text fill="#000000" font-family="sans-serif" font-size="14" lengthAdjust="spacing" textLength="76" x="634" y="736.5352">//mgCWc=</text><line style="stroke:#000000;stroke-width:1.0;" x1="629" x2="629" y1="721" y2="741.4883"/><line style="stroke:#000000;stroke-width:1.0;" x1="525" x2="814" y1="741.4883" y2="741.4883"/><text fill="#000000" font-family="sans-serif" font-size="14" font-weight="bold" lengthAdjust="spacing" textLength="74" x="530" y="757.0234">row_count</text><text fill="#000000" font-family="sans-serif" font-size="14" lengthAdjust="spacing" textLength="9" x="634" y="757.0234">1</text><line style="stroke:#000000;stroke-width:1.0;" x1="629" x2="629" y1="741.4883" y2="761.9766"/><line style="stroke:#000000;stroke-width:1.0;" x1="525" x2="814" y1="761.9766" y2="761.9766"/><text fill="#000000" font-family="sans-serif" font-size="14" font-weight="bold" lengthAdjust="spacing" textLength="94" x="530" y="777.5117">ratio_percent</text><text fill="#000000" font-family="sans-serif" font-size="14" lengthAdjust="spacing" textLength="175" x="634" y="777.5117">0.005007009813739235</text><line style="stroke:#000000;stroke-width:1.0;" x1="629" x2="629" y1="761.9766" y2="782.4648"/><rect fill="none" height="61.4648" rx="5" ry="5" style="stroke:#000000;stroke-width:1.5;" width="289" x="525" y="721"/><path d="M232,315.5 L245,315.5 C265.8273,315.5 262.6143,295.285 281,285.5 C285.4187,283.1484 290.0447,280.9598 294.7859,278.9261 " fill="none" style="stroke:#000000;stroke-width:1.0;stroke-dasharray:3.0,3.0;"/><path d="M295.9339,281.7334 L296.8914,278.0652 L293.638,276.1189 L301.804,276.0563 L295.9339,281.7334 " fill="#000000" style="stroke:#000000;stroke-width:1.0;"/><ellipse cx="232" cy="315.5" fill="#000000" rx="3" ry="3" style="stroke:#000000;stroke-width:1.0;"/><path d="M385,303.5 L398,303.5 C439.2281,303.5 460.1738,314.9755 489,285.5 C553.9848,219.0516 462.353,148.1569 525,79.5 C525.9302,78.4806 526.884,77.4867 527.8601,76.5177 " fill="none" style="stroke:#000000;stroke-width:1.0;stroke-dasharray:3.0,3.0;"/><path d="M529.9727,78.8475 L529.6074,74.9333 L525.7476,74.188 L533.6844,71.2364 L529.9727,78.8475 " fill="#000000" style="stroke:#000000;stroke-width:1.0;"/><ellipse cx="385" cy="303.5" fill="#000000" rx="3" ry="3" style="stroke:#000000;stroke-width:1.0;"/><path d="M385,324.5 L398,324.5 C442.0022,324.5 459.9505,318.5503 489,285.5 C527.7318,241.4339 483.2726,199.7408 525,158.5 C526.2348,157.2796 527.5037,156.0963 528.804,154.9491 " fill="none" style="stroke:#000000;stroke-width:1.0;stroke-dasharray:3.0,3.0;"/><path d="M530.725,157.307 L530.5724,153.5084 L526.8831,152.5913 L534.6986,150.1468 L530.725,157.307 " fill="#000000" style="stroke:#000000;stroke-width:1.0;"/><ellipse cx="385" cy="324.5" fill="#000000" rx="3" ry="3" style="stroke:#000000;stroke-width:1.0;"/><path d="M385,344.5 L398,344.5 C446.2012,344.5 453.773,318.4001 489,285.5 C508.4889,267.2985 502.9294,252.4666 525,237.5 C527.3915,235.8783 529.8481,234.3238 532.3595,232.8338 " fill="none" style="stroke:#000000;stroke-width:1.0;stroke-dasharray:3.0,3.0;"/><path d="M533.8776,235.5413 L534.3901,231.6952 L530.8413,230.1263 L539.1283,229.0385 L533.8776,235.5413 " fill="#000000" style="stroke:#000000;stroke-width:1.0;"/><ellipse cx="385" cy="344.5" fill="#000000" rx="3" ry="3" style="stroke:#000000;stroke-width:1.0;"/><path d="M385,365.5 L398,365.5 C458.3414,365.5 467.6492,336.2608 525,317.5 C532.3057,315.1101 539.849,312.7377 547.4769,310.4107 " fill="none" style="stroke:#000000;stroke-width:1.0;stroke-dasharray:3.0,3.0;"/><path d="M548.4013,313.4709 L549.7721,309.7175 L546.5526,307.3505 L555.1275,308.0999 L548.4013,313.4709 " fill="#000000" style="stroke:#000000;stroke-width:1.0;"/><ellipse cx="385" cy="365.5" fill="#000000" rx="3" ry="3" style="stroke:#000000;stroke-width:1.0;"/><path d="M385,385.5 L398,385.5 C436.9258,385.5 478.8191,382.5053 517.7528,378.4406 " fill="none" style="stroke:#000000;stroke-width:1.0;stroke-dasharray:3.0,3.0;"/><path d="M518.0835,381.5388 L520.0765,378.1926 L517.4222,375.3424 L525.4984,377.6139 L518.0835,381.5388 " fill="#000000" style="stroke:#000000;stroke-width:1.0;"/><ellipse cx="385" cy="385.5" fill="#000000" rx="3" ry="3" style="stroke:#000000;stroke-width:1.0;"/><path d="M385,406.5 L398,406.5 C436.9258,406.5 478.8191,409.4947 517.7528,413.5594 " fill="none" style="stroke:#000000;stroke-width:1.0;stroke-dasharray:3.0,3.0;"/><path d="M517.4222,416.6576 L520.0765,413.8074 L518.0835,410.4612 L525.4984,414.3861 L517.4222,416.6576 " fill="#000000" style="stroke:#000000;stroke-width:1.0;"/><ellipse cx="385" cy="406.5" fill="#000000" rx="3" ry="3" style="stroke:#000000;stroke-width:1.0;"/><path d="M385,427.5 L398,427.5 C458.3414,427.5 467.5889,456.9245 525,475.5 C531.515,477.6079 538.2201,479.6964 545.0065,481.747 " fill="none" style="stroke:#000000;stroke-width:1.0;stroke-dasharray:3.0,3.0;"/><path d="M544.1228,484.7033 L547.2238,482.4098 L545.8903,478.7907 L552.3974,483.9564 L544.1228,484.7033 " fill="#000000" style="stroke:#000000;stroke-width:1.0;"/><ellipse cx="385" cy="427.5" fill="#000000" rx="3" ry="3" style="stroke:#000000;stroke-width:1.0;"/><path d="M385,447.5 L398,447.5 C471.8072,447.5 459.6123,520.2661 525,554.5 C528.4957,556.3302 532.0853,558.0806 535.7452,559.7544 " fill="none" style="stroke:#000000;stroke-width:1.0;stroke-dasharray:3.0,3.0;"/><path d="M534.4952,562.6019 L537.8809,560.6919 L536.9952,556.9069 L542.8641,562.8794 L534.4952,562.6019 " fill="#000000" style="stroke:#000000;stroke-width:1.0;"/><ellipse cx="385" cy="447.5" fill="#000000" rx="3" ry="3" style="stroke:#000000;stroke-width:1.0;"/><path d="M385,468.5 L398,468.5 C490.5405,468.5 448.0862,582.0411 525,633.5 C527.4016,635.1068 529.8674,636.6476 532.3871,638.1251 " fill="none" style="stroke:#000000;stroke-width:1.0;stroke-dasharray:3.0,3.0;"/><path d="M530.8811,640.8408 L534.4239,639.2547 L533.8932,635.4095 L539.1763,641.8903 L530.8811,640.8408 " fill="#000000" style="stroke:#000000;stroke-width:1.0;"/><ellipse cx="385" cy="468.5" fill="#000000" rx="3" ry="3" style="stroke:#000000;stroke-width:1.0;"/><path d="M385,488.5 L398,488.5 C512.4434,488.5 434.5735,642.355 525,712.5 C526.8227,713.9139 528.6928,715.2766 530.6049,716.59 " fill="none" style="stroke:#000000;stroke-width:1.0;stroke-dasharray:3.0,3.0;"/><path d="M528.8937,719.2519 L532.6014,717.8734 L532.3162,713.928 L537.2598,720.8681 L528.8937,719.2519 " fill="#000000" style="stroke:#000000;stroke-width:1.0;"/><ellipse cx="385" cy="488.5" fill="#000000" rx="3" ry="3" style="stroke:#000000;stroke-width:1.0;"/><path d="M232,336.5 L245,336.5 C292.0497,336.5 341.2629,365.8357 366.6101,383.482 " fill="none" style="stroke:#000000;stroke-width:1.0;stroke-dasharray:3.0,3.0;"/><path d="M364.8416,385.964 L368.4716,384.8085 L368.3787,381.0001 L372.815,387.9035 L364.8416,385.964 " fill="#000000" style="stroke:#000000;stroke-width:1.0;"/><ellipse cx="232" cy="336.5" fill="#000000" rx="3" ry="3" style="stroke:#000000;stroke-width:1.0;"/><!--MD5=[27b63c30c1755b16c9f1e6009cfc635b]
@startjson
{
    "field1": "PasswordSalt",
    "combination": "PasswordSalt",
    "null_distribution": {
        "total_null_rows": 0,
        "total_not_null_rows": 19972
    },
    "data_distribution": [
        {
            "field_value": "/0fp1QU=",
            "row_count": 1,
            "ratio_percent": 0.005007009813739235
        },
        {
            "field_value": "/07hmeA=",
            "row_count": 1,
            "ratio_percent": 0.005007009813739235
        },
        {
            "field_value": "/+zYvJQ=",
            "row_count": 1,
            "ratio_percent": 0.005007009813739235
        },
        {
            "field_value": "/+Vcb2w=",
            "row_count": 1,
            "ratio_percent": 0.005007009813739235
        },
        {
            "field_value": "/+QXtwU=",
            "row_count": 1,
            "ratio_percent": 0.005007009813739235
        },
        {
            "field_value": "/+QI49k=",
            "row_count": 1,
            "ratio_percent": 0.005007009813739235
        },
        {
            "field_value": "/+E3gQY=",
            "row_count": 1,
            "ratio_percent": 0.005007009813739235
        },
        {
            "field_value": "//ujPuA=",
            "row_count": 1,
            "ratio_percent": 0.005007009813739235
        },
        {
            "field_value": "//PNx7U=",
            "row_count": 1,
            "ratio_percent": 0.005007009813739235
        },
        {
            "field_value": "//mgCWc=",
            "row_count": 1,
            "ratio_percent": 0.005007009813739235
        }
    ]
}
@endjson

PlantUML version 1.2022.5(Sat Apr 30 06:55:52 EDT 2022)
(GPL source distribution)
Java Runtime: OpenJDK Runtime Environment
JVM: OpenJDK 64-Bit Server VM
Default Encoding: UTF-8
Language: en
Country: CA
--></g></svg>