<?xml version="1.0" encoding="UTF-8" standalone="no"?><svg xmlns="http://www.w3.org/2000/svg" xmlns:xlink="http://www.w3.org/1999/xlink" contentStyleType="text/css" height="794px" preserveAspectRatio="none" style="width:942px;height:794px;background:#FFFFFF;" version="1.1" viewBox="0 0 942 794" width="942px" zoomAndPan="magnify"><defs/><g><rect fill="#F1F1F1" height="81.9531" rx="5" ry="5" style="stroke:#F1F1F1;stroke-width:1.5;" width="201" x="10" y="264.5"/><text fill="#000000" font-family="sans-serif" font-size="14" font-weight="bold" lengthAdjust="spacing" textLength="42" x="15" y="280.0352">field1</text><text fill="#000000" font-family="sans-serif" font-size="14" lengthAdjust="spacing" textLength="57" x="149" y="280.0352">rowguid</text><line style="stroke:#000000;stroke-width:1.0;" x1="144" x2="144" y1="264.5" y2="284.9883"/><line style="stroke:#000000;stroke-width:1.0;" x1="10" x2="211" y1="284.9883" y2="284.9883"/><text fill="#000000" font-family="sans-serif" font-size="14" font-weight="bold" lengthAdjust="spacing" textLength="90" x="15" y="300.5234">combination</text><text fill="#000000" font-family="sans-serif" font-size="14" lengthAdjust="spacing" textLength="57" x="149" y="300.5234">rowguid</text><line style="stroke:#000000;stroke-width:1.0;" x1="144" x2="144" y1="284.9883" y2="305.4766"/><line style="stroke:#000000;stroke-width:1.0;" x1="10" x2="211" y1="305.4766" y2="305.4766"/><text fill="#000000" font-family="sans-serif" font-size="14" font-weight="bold" lengthAdjust="spacing" textLength="121" x="15" y="321.0117">null_distribution</text><text fill="#000000" font-family="sans-serif" font-size="14" lengthAdjust="spacing" textLength="12" x="149" y="321.0117">   </text><line style="stroke:#000000;stroke-width:1.0;" x1="144" x2="144" y1="305.4766" y2="325.9648"/><line style="stroke:#000000;stroke-width:1.0;" x1="10" x2="211" y1="325.9648" y2="325.9648"/><text fill="#000000" font-family="sans-serif" font-size="14" font-weight="bold" lengthAdjust="spacing" textLength="124" x="15" y="341.5">data_distribution</text><text fill="#000000" font-family="sans-serif" font-size="14" lengthAdjust="spacing" textLength="12" x="149" y="341.5">   </text><line style="stroke:#000000;stroke-width:1.0;" x1="144" x2="144" y1="325.9648" y2="346.4531"/><rect fill="none" height="81.9531" rx="5" ry="5" style="stroke:#000000;stroke-width:1.5;" width="201" x="10" y="264.5"/><rect fill="#F1F1F1" height="40.9766" rx="5" ry="5" style="stroke:#F1F1F1;stroke-width:1.5;" width="207" x="248" y="235"/><text fill="#000000" font-family="sans-serif" font-size="14" font-weight="bold" lengthAdjust="spacing" textLength="111" x="253" y="250.5352">total_null_rows</text><text fill="#000000" font-family="sans-serif" font-size="14" lengthAdjust="spacing" textLength="9" x="405" y="250.5352">0</text><line style="stroke:#000000;stroke-width:1.0;" x1="400" x2="400" y1="235" y2="255.4883"/><line style="stroke:#000000;stroke-width:1.0;" x1="248" x2="455" y1="255.4883" y2="255.4883"/><text fill="#000000" font-family="sans-serif" font-size="14" font-weight="bold" lengthAdjust="spacing" textLength="142" x="253" y="271.0234">total_not_null_rows</text><text fill="#000000" font-family="sans-serif" font-size="14" lengthAdjust="spacing" textLength="45" x="405" y="271.0234">19972</text><line style="stroke:#000000;stroke-width:1.0;" x1="400" x2="400" y1="255.4883" y2="275.9766"/><rect fill="none" height="40.9766" rx="5" ry="5" style="stroke:#000000;stroke-width:1.5;" width="207" x="248" y="235"/><rect fill="#F1F1F1" height="204.8828" rx="5" ry="5" style="stroke:#F1F1F1;stroke-width:1.5;" width="22" x="339.5" y="294"/><text fill="#000000" font-family="sans-serif" font-size="14" lengthAdjust="spacing" textLength="12" x="344.5" y="309.5352">   </text><line style="stroke:#000000;stroke-width:1.0;" x1="339.5" x2="361.5" y1="314.4883" y2="314.4883"/><text fill="#000000" font-family="sans-serif" font-size="14" lengthAdjust="spacing" textLength="12" x="344.5" y="330.0234">   </text><line style="stroke:#000000;stroke-width:1.0;" x1="339.5" x2="361.5" y1="334.9766" y2="334.9766"/><text fill="#000000" font-family="sans-serif" font-size="14" lengthAdjust="spacing" textLength="12" x="344.5" y="350.5117">   </text><line style="stroke:#000000;stroke-width:1.0;" x1="339.5" x2="361.5" y1="355.4648" y2="355.4648"/><text fill="#000000" font-family="sans-serif" font-size="14" lengthAdjust="spacing" textLength="12" x="344.5" y="371">   </text><line style="stroke:#000000;stroke-width:1.0;" x1="339.5" x2="361.5" y1="375.9531" y2="375.9531"/><text fill="#000000" font-family="sans-serif" font-size="14" lengthAdjust="spacing" textLength="12" x="344.5" y="391.4883">   </text><line style="stroke:#000000;stroke-width:1.0;" x1="339.5" x2="361.5" y1="396.4414" y2="396.4414"/><text fill="#000000" font-family="sans-serif" font-size="14" lengthAdjust="spacing" textLength="12" x="344.5" y="411.9766">   </text><line style="stroke:#000000;stroke-width:1.0;" x1="339.5" x2="361.5" y1="416.9297" y2="416.9297"/><text fill="#000000" font-family="sans-serif" font-size="14" lengthAdjust="spacing" textLength="12" x="344.5" y="432.4648">   </text><line style="stroke:#000000;stroke-width:1.0;" x1="339.5" x2="361.5" y1="437.418" y2="437.418"/><text fill="#000000" font-family="sans-serif" font-size="14" lengthAdjust="spacing" textLength="12" x="344.5" y="452.9531">   </text><line style="stroke:#000000;stroke-width:1.0;" x1="339.5" x2="361.5" y1="457.9063" y2="457.9063"/><text fill="#000000" font-family="sans-serif" font-size="14" lengthAdjust="spacing" textLength="12" x="344.5" y="473.4414">   </text><line style="stroke:#000000;stroke-width:1.0;" x1="339.5" x2="361.5" y1="478.3945" y2="478.3945"/><text fill="#000000" font-family="sans-serif" font-size="14" lengthAdjust="spacing" textLength="12" x="344.5" y="493.9297">   </text><rect fill="none" height="204.8828" rx="5" ry="5" style="stroke:#000000;stroke-width:1.5;" width="22" x="339.5" y="294"/><rect fill="#F1F1F1" height="61.4648" rx="5" ry="5" style="stroke:#F1F1F1;stroke-width:1.5;" width="437" x="492.5" y="10"/><text fill="#000000" font-family="sans-serif" font-size="14" font-weight="bold" lengthAdjust="spacing" textLength="78" x="497.5" y="25.5352">field_value</text><text fill="#000000" font-family="sans-serif" font-size="14" lengthAdjust="spacing" textLength="323" x="601.5" y="25.5352">0022D52D-5E13-474A-BD22-146FDC47D6B4</text><line style="stroke:#000000;stroke-width:1.0;" x1="596.5" x2="596.5" y1="10" y2="30.4883"/><line style="stroke:#000000;stroke-width:1.0;" x1="492.5" x2="929.5" y1="30.4883" y2="30.4883"/><text fill="#000000" font-family="sans-serif" font-size="14" font-weight="bold" lengthAdjust="spacing" textLength="74" x="497.5" y="46.0234">row_count</text><text fill="#000000" font-family="sans-serif" font-size="14" lengthAdjust="spacing" textLength="9" x="601.5" y="46.0234">1</text><line style="stroke:#000000;stroke-width:1.0;" x1="596.5" x2="596.5" y1="30.4883" y2="50.9766"/><line style="stroke:#000000;stroke-width:1.0;" x1="492.5" x2="929.5" y1="50.9766" y2="50.9766"/><text fill="#000000" font-family="sans-serif" font-size="14" font-weight="bold" lengthAdjust="spacing" textLength="94" x="497.5" y="66.5117">ratio_percent</text><text fill="#000000" font-family="sans-serif" font-size="14" lengthAdjust="spacing" textLength="175" x="601.5" y="66.5117">0.005007009813739235</text><line style="stroke:#000000;stroke-width:1.0;" x1="596.5" x2="596.5" y1="50.9766" y2="71.4648"/><rect fill="none" height="61.4648" rx="5" ry="5" style="stroke:#000000;stroke-width:1.5;" width="437" x="492.5" y="10"/><rect fill="#F1F1F1" height="61.4648" rx="5" ry="5" style="stroke:#F1F1F1;stroke-width:1.5;" width="433" x="494.5" y="89"/><text fill="#000000" font-family="sans-serif" font-size="14" font-weight="bold" lengthAdjust="spacing" textLength="78" x="499.5" y="104.5352">field_value</text><text fill="#000000" font-family="sans-serif" font-size="14" lengthAdjust="spacing" textLength="319" x="603.5" y="104.5352">0022047A-CCFD-472E-B1F9-C93EDF31F264</text><line style="stroke:#000000;stroke-width:1.0;" x1="598.5" x2="598.5" y1="89" y2="109.4883"/><line style="stroke:#000000;stroke-width:1.0;" x1="494.5" x2="927.5" y1="109.4883" y2="109.4883"/><text fill="#000000" font-family="sans-serif" font-size="14" font-weight="bold" lengthAdjust="spacing" textLength="74" x="499.5" y="125.0234">row_count</text><text fill="#000000" font-family="sans-serif" font-size="14" lengthAdjust="spacing" textLength="9" x="603.5" y="125.0234">1</text><line style="stroke:#000000;stroke-width:1.0;" x1="598.5" x2="598.5" y1="109.4883" y2="129.9766"/><line style="stroke:#000000;stroke-width:1.0;" x1="494.5" x2="927.5" y1="129.9766" y2="129.9766"/><text fill="#000000" font-family="sans-serif" font-size="14" font-weight="bold" lengthAdjust="spacing" textLength="94" x="499.5" y="145.5117">ratio_percent</text><text fill="#000000" font-family="sans-serif" font-size="14" lengthAdjust="spacing" textLength="175" x="603.5" y="145.5117">0.005007009813739235</text><line style="stroke:#000000;stroke-width:1.0;" x1="598.5" x2="598.5" y1="129.9766" y2="150.4648"/><rect fill="none" height="61.4648" rx="5" ry="5" style="stroke:#000000;stroke-width:1.5;" width="433" x="494.5" y="89"/><rect fill="#F1F1F1" height="61.4648" rx="5" ry="5" style="stroke:#F1F1F1;stroke-width:1.5;" width="436" x="493" y="168"/><text fill="#000000" font-family="sans-serif" font-size="14" font-weight="bold" lengthAdjust="spacing" textLength="78" x="498" y="183.5352">field_value</text><text fill="#000000" font-family="sans-serif" font-size="14" lengthAdjust="spacing" textLength="322" x="602" y="183.5352">001BC210-7DA4-433E-AA9F-83205A8F2342</text><line style="stroke:#000000;stroke-width:1.0;" x1="597" x2="597" y1="168" y2="188.4883"/><line style="stroke:#000000;stroke-width:1.0;" x1="493" x2="929" y1="188.4883" y2="188.4883"/><text fill="#000000" font-family="sans-serif" font-size="14" font-weight="bold" lengthAdjust="spacing" textLength="74" x="498" y="204.0234">row_count</text><text fill="#000000" font-family="sans-serif" font-size="14" lengthAdjust="spacing" textLength="9" x="602" y="204.0234">1</text><line style="stroke:#000000;stroke-width:1.0;" x1="597" x2="597" y1="188.4883" y2="208.9766"/><line style="stroke:#000000;stroke-width:1.0;" x1="493" x2="929" y1="208.9766" y2="208.9766"/><text fill="#000000" font-family="sans-serif" font-size="14" font-weight="bold" lengthAdjust="spacing" textLength="94" x="498" y="224.5117">ratio_percent</text><text fill="#000000" font-family="sans-serif" font-size="14" lengthAdjust="spacing" textLength="175" x="602" y="224.5117">0.005007009813739235</text><line style="stroke:#000000;stroke-width:1.0;" x1="597" x2="597" y1="208.9766" y2="229.4648"/><rect fill="none" height="61.4648" rx="5" ry="5" style="stroke:#000000;stroke-width:1.5;" width="436" x="493" y="168"/><rect fill="#F1F1F1" height="61.4648" rx="5" ry="5" style="stroke:#F1F1F1;stroke-width:1.5;" width="435" x="493.5" y="247"/><text fill="#000000" font-family="sans-serif" font-size="14" font-weight="bold" lengthAdjust="spacing" textLength="78" x="498.5" y="262.5352">field_value</text><text fill="#000000" font-family="sans-serif" font-size="14" lengthAdjust="spacing" textLength="321" x="602.5" y="262.5352">0019A5AE-DFE4-46FE-ACBC-67007A383020</text><line style="stroke:#000000;stroke-width:1.0;" x1="597.5" x2="597.5" y1="247" y2="267.4883"/><line style="stroke:#000000;stroke-width:1.0;" x1="493.5" x2="928.5" y1="267.4883" y2="267.4883"/><text fill="#000000" font-family="sans-serif" font-size="14" font-weight="bold" lengthAdjust="spacing" textLength="74" x="498.5" y="283.0234">row_count</text><text fill="#000000" font-family="sans-serif" font-size="14" lengthAdjust="spacing" textLength="9" x="602.5" y="283.0234">1</text><line style="stroke:#000000;stroke-width:1.0;" x1="597.5" x2="597.5" y1="267.4883" y2="287.9766"/><line style="stroke:#000000;stroke-width:1.0;" x1="493.5" x2="928.5" y1="287.9766" y2="287.9766"/><text fill="#000000" font-family="sans-serif" font-size="14" font-weight="bold" lengthAdjust="spacing" textLength="94" x="498.5" y="303.5117">ratio_percent</text><text fill="#000000" font-family="sans-serif" font-size="14" lengthAdjust="spacing" textLength="175" x="602.5" y="303.5117">0.005007009813739235</text><line style="stroke:#000000;stroke-width:1.0;" x1="597.5" x2="597.5" y1="287.9766" y2="308.4648"/><rect fill="none" height="61.4648" rx="5" ry="5" style="stroke:#000000;stroke-width:1.5;" width="435" x="493.5" y="247"/><rect fill="#F1F1F1" height="61.4648" rx="5" ry="5" style="stroke:#F1F1F1;stroke-width:1.5;" width="431" x="495.5" y="326"/><text fill="#000000" font-family="sans-serif" font-size="14" font-weight="bold" lengthAdjust="spacing" textLength="78" x="500.5" y="341.5352">field_value</text><text fill="#000000" font-family="sans-serif" font-size="14" lengthAdjust="spacing" textLength="317" x="604.5" y="341.5352">00150321-A0F2-487F-8809-6A873E7C3EEE</text><line style="stroke:#000000;stroke-width:1.0;" x1="599.5" x2="599.5" y1="326" y2="346.4883"/><line style="stroke:#000000;stroke-width:1.0;" x1="495.5" x2="926.5" y1="346.4883" y2="346.4883"/><text fill="#000000" font-family="sans-serif" font-size="14" font-weight="bold" lengthAdjust="spacing" textLength="74" x="500.5" y="362.0234">row_count</text><text fill="#000000" font-family="sans-serif" font-size="14" lengthAdjust="spacing" textLength="9" x="604.5" y="362.0234">1</text><line style="stroke:#000000;stroke-width:1.0;" x1="599.5" x2="599.5" y1="346.4883" y2="366.9766"/><line style="stroke:#000000;stroke-width:1.0;" x1="495.5" x2="926.5" y1="366.9766" y2="366.9766"/><text fill="#000000" font-family="sans-serif" font-size="14" font-weight="bold" lengthAdjust="spacing" textLength="94" x="500.5" y="382.5117">ratio_percent</text><text fill="#000000" font-family="sans-serif" font-size="14" lengthAdjust="spacing" textLength="175" x="604.5" y="382.5117">0.005007009813739235</text><line style="stroke:#000000;stroke-width:1.0;" x1="599.5" x2="599.5" y1="366.9766" y2="387.4648"/><rect fill="none" height="61.4648" rx="5" ry="5" style="stroke:#000000;stroke-width:1.5;" width="431" x="495.5" y="326"/><rect fill="#F1F1F1" height="61.4648" rx="5" ry="5" style="stroke:#F1F1F1;stroke-width:1.5;" width="435" x="493.5" y="405"/><text fill="#000000" font-family="sans-serif" font-size="14" font-weight="bold" lengthAdjust="spacing" textLength="78" x="498.5" y="420.5352">field_value</text><text fill="#000000" font-family="sans-serif" font-size="14" lengthAdjust="spacing" textLength="321" x="602.5" y="420.5352">0014494A-60B6-47B9-A17C-73D66A3751FE</text><line style="stroke:#000000;stroke-width:1.0;" x1="597.5" x2="597.5" y1="405" y2="425.4883"/><line style="stroke:#000000;stroke-width:1.0;" x1="493.5" x2="928.5" y1="425.4883" y2="425.4883"/><text fill="#000000" font-family="sans-serif" font-size="14" font-weight="bold" lengthAdjust="spacing" textLength="74" x="498.5" y="441.0234">row_count</text><text fill="#000000" font-family="sans-serif" font-size="14" lengthAdjust="spacing" textLength="9" x="602.5" y="441.0234">1</text><line style="stroke:#000000;stroke-width:1.0;" x1="597.5" x2="597.5" y1="425.4883" y2="445.9766"/><line style="stroke:#000000;stroke-width:1.0;" x1="493.5" x2="928.5" y1="445.9766" y2="445.9766"/><text fill="#000000" font-family="sans-serif" font-size="14" font-weight="bold" lengthAdjust="spacing" textLength="94" x="498.5" y="461.5117">ratio_percent</text><text fill="#000000" font-family="sans-serif" font-size="14" lengthAdjust="spacing" textLength="175" x="602.5" y="461.5117">0.005007009813739235</text><line style="stroke:#000000;stroke-width:1.0;" x1="597.5" x2="597.5" y1="445.9766" y2="466.4648"/><rect fill="none" height="61.4648" rx="5" ry="5" style="stroke:#000000;stroke-width:1.5;" width="435" x="493.5" y="405"/><rect fill="#F1F1F1" height="61.4648" rx="5" ry="5" style="stroke:#F1F1F1;stroke-width:1.5;" width="438" x="492" y="484"/><text fill="#000000" font-family="sans-serif" font-size="14" font-weight="bold" lengthAdjust="spacing" textLength="78" x="497" y="499.5352">field_value</text><text fill="#000000" font-family="sans-serif" font-size="14" lengthAdjust="spacing" textLength="324" x="601" y="499.5352">00083CD8-D326-4A31-9980-F40796CB38C1</text><line style="stroke:#000000;stroke-width:1.0;" x1="596" x2="596" y1="484" y2="504.4883"/><line style="stroke:#000000;stroke-width:1.0;" x1="492" x2="930" y1="504.4883" y2="504.4883"/><text fill="#000000" font-family="sans-serif" font-size="14" font-weight="bold" lengthAdjust="spacing" textLength="74" x="497" y="520.0234">row_count</text><text fill="#000000" font-family="sans-serif" font-size="14" lengthAdjust="spacing" textLength="9" x="601" y="520.0234">1</text><line style="stroke:#000000;stroke-width:1.0;" x1="596" x2="596" y1="504.4883" y2="524.9766"/><line style="stroke:#000000;stroke-width:1.0;" x1="492" x2="930" y1="524.9766" y2="524.9766"/><text fill="#000000" font-family="sans-serif" font-size="14" font-weight="bold" lengthAdjust="spacing" textLength="94" x="497" y="540.5117">ratio_percent</text><text fill="#000000" font-family="sans-serif" font-size="14" lengthAdjust="spacing" textLength="175" x="601" y="540.5117">0.005007009813739235</text><line style="stroke:#000000;stroke-width:1.0;" x1="596" x2="596" y1="524.9766" y2="545.4648"/><rect fill="none" height="61.4648" rx="5" ry="5" style="stroke:#000000;stroke-width:1.5;" width="438" x="492" y="484"/><rect fill="#F1F1F1" height="61.4648" rx="5" ry="5" style="stroke:#F1F1F1;stroke-width:1.5;" width="430" x="496" y="563"/><text fill="#000000" font-family="sans-serif" font-size="14" font-weight="bold" lengthAdjust="spacing" textLength="78" x="501" y="578.5352">field_value</text><text fill="#000000" font-family="sans-serif" font-size="14" lengthAdjust="spacing" textLength="316" x="605" y="578.5352">0006B909-E986-4F5D-A180-4E953BBB99D3</text><line style="stroke:#000000;stroke-width:1.0;" x1="600" x2="600" y1="563" y2="583.4883"/><line style="stroke:#000000;stroke-width:1.0;" x1="496" x2="926" y1="583.4883" y2="583.4883"/><text fill="#000000" font-family="sans-serif" font-size="14" font-weight="bold" lengthAdjust="spacing" textLength="74" x="501" y="599.0234">row_count</text><text fill="#000000" font-family="sans-serif" font-size="14" lengthAdjust="spacing" textLength="9" x="605" y="599.0234">1</text><line style="stroke:#000000;stroke-width:1.0;" x1="600" x2="600" y1="583.4883" y2="603.9766"/><line style="stroke:#000000;stroke-width:1.0;" x1="496" x2="926" y1="603.9766" y2="603.9766"/><text fill="#000000" font-family="sans-serif" font-size="14" font-weight="bold" lengthAdjust="spacing" textLength="94" x="501" y="619.5117">ratio_percent</text><text fill="#000000" font-family="sans-serif" font-size="14" lengthAdjust="spacing" textLength="175" x="605" y="619.5117">0.005007009813739235</text><line style="stroke:#000000;stroke-width:1.0;" x1="600" x2="600" y1="603.9766" y2="624.4648"/><rect fill="none" height="61.4648" rx="5" ry="5" style="stroke:#000000;stroke-width:1.5;" width="430" x="496" y="563"/><rect fill="#F1F1F1" height="61.4648" rx="5" ry="5" style="stroke:#F1F1F1;stroke-width:1.5;" width="432" x="495" y="642"/><text fill="#000000" font-family="sans-serif" font-size="14" font-weight="bold" lengthAdjust="spacing" textLength="78" x="500" y="657.5352">field_value</text><text fill="#000000" font-family="sans-serif" font-size="14" lengthAdjust="spacing" textLength="318" x="604" y="657.5352">00061FFE-1635-48C6-88DD-FC1E2127B838</text><line style="stroke:#000000;stroke-width:1.0;" x1="599" x2="599" y1="642" y2="662.4883"/><line style="stroke:#000000;stroke-width:1.0;" x1="495" x2="927" y1="662.4883" y2="662.4883"/><text fill="#000000" font-family="sans-serif" font-size="14" font-weight="bold" lengthAdjust="spacing" textLength="74" x="500" y="678.0234">row_count</text><text fill="#000000" font-family="sans-serif" font-size="14" lengthAdjust="spacing" textLength="9" x="604" y="678.0234">1</text><line style="stroke:#000000;stroke-width:1.0;" x1="599" x2="599" y1="662.4883" y2="682.9766"/><line style="stroke:#000000;stroke-width:1.0;" x1="495" x2="927" y1="682.9766" y2="682.9766"/><text fill="#000000" font-family="sans-serif" font-size="14" font-weight="bold" lengthAdjust="spacing" textLength="94" x="500" y="698.5117">ratio_percent</text><text fill="#000000" font-family="sans-serif" font-size="14" lengthAdjust="spacing" textLength="175" x="604" y="698.5117">0.005007009813739235</text><line style="stroke:#000000;stroke-width:1.0;" x1="599" x2="599" y1="682.9766" y2="703.4648"/><rect fill="none" height="61.4648" rx="5" ry="5" style="stroke:#000000;stroke-width:1.5;" width="432" x="495" y="642"/><rect fill="#F1F1F1" height="61.4648" rx="5" ry="5" style="stroke:#F1F1F1;stroke-width:1.5;" width="437" x="492.5" y="721"/><text fill="#000000" font-family="sans-serif" font-size="14" font-weight="bold" lengthAdjust="spacing" textLength="78" x="497.5" y="736.5352">field_value</text><text fill="#000000" font-family="sans-serif" font-size="14" lengthAdjust="spacing" textLength="323" x="601.5" y="736.5352">00034881-67FA-4CCA-908A-B1D42030979E</text><line style="stroke:#000000;stroke-width:1.0;" x1="596.5" x2="596.5" y1="721" y2="741.4883"/><line style="stroke:#000000;stroke-width:1.0;" x1="492.5" x2="929.5" y1="741.4883" y2="741.4883"/><text fill="#000000" font-family="sans-serif" font-size="14" font-weight="bold" lengthAdjust="spacing" textLength="74" x="497.5" y="757.0234">row_count</text><text fill="#000000" font-family="sans-serif" font-size="14" lengthAdjust="spacing" textLength="9" x="601.5" y="757.0234">1</text><line style="stroke:#000000;stroke-width:1.0;" x1="596.5" x2="596.5" y1="741.4883" y2="761.9766"/><line style="stroke:#000000;stroke-width:1.0;" x1="492.5" x2="929.5" y1="761.9766" y2="761.9766"/><text fill="#000000" font-family="sans-serif" font-size="14" font-weight="bold" lengthAdjust="spacing" textLength="94" x="497.5" y="777.5117">ratio_percent</text><text fill="#000000" font-family="sans-serif" font-size="14" lengthAdjust="spacing" textLength="175" x="601.5" y="777.5117">0.005007009813739235</text><line style="stroke:#000000;stroke-width:1.0;" x1="596.5" x2="596.5" y1="761.9766" y2="782.4648"/><rect fill="none" height="61.4648" rx="5" ry="5" style="stroke:#000000;stroke-width:1.5;" width="437" x="492.5" y="721"/><path d="M199,315.5 L212,315.5 C232.8273,315.5 229.6143,295.285 248,285.5 C252.4187,283.1484 257.0447,280.9598 261.7859,278.9261 " fill="none" style="stroke:#000000;stroke-width:1.0;stroke-dasharray:3.0,3.0;"/><path d="M262.9339,281.7334 L263.8914,278.0652 L260.638,276.1189 L268.804,276.0563 L262.9339,281.7334 " fill="#000000" style="stroke:#000000;stroke-width:1.0;"/><ellipse cx="199" cy="315.5" fill="#000000" rx="3" ry="3" style="stroke:#000000;stroke-width:1.0;"/><path d="M352,303.5 L365,303.5 C406.2281,303.5 427.1738,314.9755 456,285.5 C520.9848,219.0516 426.3983,145.3395 492,79.5 C493.1219,78.374 494.2644,77.2742 495.4265,76.2 " fill="none" style="stroke:#000000;stroke-width:1.0;stroke-dasharray:3.0,3.0;"/><path d="M497.4906,78.5878 L497.2174,74.6519 L493.3624,73.8121 L501.3962,71.0398 L497.4906,78.5878 " fill="#000000" style="stroke:#000000;stroke-width:1.0;"/><ellipse cx="352" cy="303.5" fill="#000000" rx="3" ry="3" style="stroke:#000000;stroke-width:1.0;"/><path d="M352,324.5 L365,324.5 C409.0022,324.5 426.9505,318.5503 456,285.5 C494.7318,241.4339 448.5018,197.8685 492,158.5 C493.3347,157.292 494.6935,156.1151 496.0751,154.9685 " fill="none" style="stroke:#000000;stroke-width:1.0;stroke-dasharray:3.0,3.0;"/><path d="M498.009,157.4481 L497.9348,153.5181 L494.1411,152.4889 L502.2741,150.1337 L498.009,157.4481 " fill="#000000" style="stroke:#000000;stroke-width:1.0;"/><ellipse cx="352" cy="324.5" fill="#000000" rx="3" ry="3" style="stroke:#000000;stroke-width:1.0;"/><path d="M352,344.5 L365,344.5 C413.2012,344.5 420.773,318.4001 456,285.5 C475.4889,267.2985 469.2934,251.4829 492,237.5 C494.7684,235.7952 497.5918,234.1603 500.4633,232.5928 " fill="none" style="stroke:#000000;stroke-width:1.0;stroke-dasharray:3.0,3.0;"/><path d="M501.8781,235.3067 L502.4987,231.5317 L499.0485,229.8789 L507.248,229.0559 L501.8781,235.3067 " fill="#000000" style="stroke:#000000;stroke-width:1.0;"/><ellipse cx="352" cy="344.5" fill="#000000" rx="3" ry="3" style="stroke:#000000;stroke-width:1.0;"/><path d="M352,365.5 L365,365.5 C425.3414,365.5 433.8642,333.6653 492,317.5 C501.7169,314.7981 511.7287,312.2308 521.8739,309.7988 " fill="none" style="stroke:#000000;stroke-width:1.0;stroke-dasharray:3.0,3.0;"/><path d="M522.5727,312.7622 L524.0964,309.2748 L521.1751,306.8354 L529.2824,308.0519 L522.5727,312.7622 " fill="#000000" style="stroke:#000000;stroke-width:1.0;"/><ellipse cx="352" cy="365.5" fill="#000000" rx="3" ry="3" style="stroke:#000000;stroke-width:1.0;"/><path d="M352,385.5 L365,385.5 C404.8083,385.5 447.1065,383.5646 487.9514,380.6938 " fill="none" style="stroke:#000000;stroke-width:1.0;stroke-dasharray:3.0,3.0;"/><path d="M488.1701,383.7374 L490.234,380.5298 L487.7327,377.6503 L495.5602,380.1472 L488.1701,383.7374 " fill="#000000" style="stroke:#000000;stroke-width:1.0;"/><ellipse cx="352" cy="385.5" fill="#000000" rx="3" ry="3" style="stroke:#000000;stroke-width:1.0;"/><path d="M352,406.5 L365,406.5 C404.2416,406.5 445.9027,408.3807 486.2062,411.1841 " fill="none" style="stroke:#000000;stroke-width:1.0;stroke-dasharray:3.0,3.0;"/><path d="M485.9927,414.1877 L488.4589,411.3443 L486.4198,408.1806 L493.7151,411.7181 L485.9927,414.1877 " fill="#000000" style="stroke:#000000;stroke-width:1.0;"/><ellipse cx="352" cy="406.5" fill="#000000" rx="3" ry="3" style="stroke:#000000;stroke-width:1.0;"/><path d="M352,427.5 L365,427.5 C425.3414,427.5 433.8285,459.4636 492,475.5 C500.4889,477.8402 509.2032,480.0733 518.0352,482.1999 " fill="none" style="stroke:#000000;stroke-width:1.0;stroke-dasharray:3.0,3.0;"/><path d="M517.3307,485.1775 L520.2685,482.7282 L518.7398,479.2222 L525.4794,483.9611 L517.3307,485.1775 " fill="#000000" style="stroke:#000000;stroke-width:1.0;"/><ellipse cx="352" cy="427.5" fill="#000000" rx="3" ry="3" style="stroke:#000000;stroke-width:1.0;"/><path d="M352,447.5 L365,447.5 C438.8072,447.5 425.172,523.1706 492,554.5 C496.2931,556.5126 500.6783,558.4219 505.1368,560.233 " fill="none" style="stroke:#000000;stroke-width:1.0;stroke-dasharray:3.0,3.0;"/><path d="M504.0303,563.0586 L507.2559,561.0629 L506.2432,557.4075 L512.2006,562.9992 L504.0303,563.0586 " fill="#000000" style="stroke:#000000;stroke-width:1.0;"/><ellipse cx="352" cy="447.5" fill="#000000" rx="3" ry="3" style="stroke:#000000;stroke-width:1.0;"/><path d="M352,468.5 L365,468.5 C457.5405,468.5 412.9006,585.4684 492,633.5 C494.8254,635.2156 497.7067,636.8601 500.6371,638.4362 " fill="none" style="stroke:#000000;stroke-width:1.0;stroke-dasharray:3.0,3.0;"/><path d="M499.2151,641.2056 L502.7141,639.5027 L502.0591,635.6668 L507.5605,641.9911 L499.2151,641.2056 " fill="#000000" style="stroke:#000000;stroke-width:1.0;"/><ellipse cx="352" cy="468.5" fill="#000000" rx="3" ry="3" style="stroke:#000000;stroke-width:1.0;"/><path d="M352,488.5 L365,488.5 C479.4434,488.5 398.5803,646.3938 492,712.5 C494.1232,714.0024 496.2863,715.4527 498.4858,716.8527 " fill="none" style="stroke:#000000;stroke-width:1.0;stroke-dasharray:3.0,3.0;"/><path d="M496.8658,719.5343 L500.497,718.0677 L500.1059,714.1711 L505.1898,720.9028 L496.8658,719.5343 " fill="#000000" style="stroke:#000000;stroke-width:1.0;"/><ellipse cx="352" cy="488.5" fill="#000000" rx="3" ry="3" style="stroke:#000000;stroke-width:1.0;"/><path d="M199,336.5 L212,336.5 C259.0497,336.5 308.2629,365.8357 333.6101,383.482 " fill="none" style="stroke:#000000;stroke-width:1.0;stroke-dasharray:3.0,3.0;"/><path d="M331.8416,385.964 L335.4716,384.8085 L335.3787,381.0001 L339.815,387.9035 L331.8416,385.964 " fill="#000000" style="stroke:#000000;stroke-width:1.0;"/><ellipse cx="199" cy="336.5" fill="#000000" rx="3" ry="3" style="stroke:#000000;stroke-width:1.0;"/><!--MD5=[e5c0303e129f50bd413aa00645531da0]
@startjson
{
    "field1": "rowguid",
    "combination": "rowguid",
    "null_distribution": {
        "total_null_rows": 0,
        "total_not_null_rows": 19972
    },
    "data_distribution": [
        {
            "field_value": "0022D52D-5E13-474A-BD22-146FDC47D6B4",
            "row_count": 1,
            "ratio_percent": 0.005007009813739235
        },
        {
            "field_value": "0022047A-CCFD-472E-B1F9-C93EDF31F264",
            "row_count": 1,
            "ratio_percent": 0.005007009813739235
        },
        {
            "field_value": "001BC210-7DA4-433E-AA9F-83205A8F2342",
            "row_count": 1,
            "ratio_percent": 0.005007009813739235
        },
        {
            "field_value": "0019A5AE-DFE4-46FE-ACBC-67007A383020",
            "row_count": 1,
            "ratio_percent": 0.005007009813739235
        },
        {
            "field_value": "00150321-A0F2-487F-8809-6A873E7C3EEE",
            "row_count": 1,
            "ratio_percent": 0.005007009813739235
        },
        {
            "field_value": "0014494A-60B6-47B9-A17C-73D66A3751FE",
            "row_count": 1,
            "ratio_percent": 0.005007009813739235
        },
        {
            "field_value": "00083CD8-D326-4A31-9980-F40796CB38C1",
            "row_count": 1,
            "ratio_percent": 0.005007009813739235
        },
        {
            "field_value": "0006B909-E986-4F5D-A180-4E953BBB99D3",
            "row_count": 1,
            "ratio_percent": 0.005007009813739235
        },
        {
            "field_value": "00061FFE-1635-48C6-88DD-FC1E2127B838",
            "row_count": 1,
            "ratio_percent": 0.005007009813739235
        },
        {
            "field_value": "00034881-67FA-4CCA-908A-B1D42030979E",
            "row_count": 1,
            "ratio_percent": 0.005007009813739235
        }
    ]
}
@endjson

PlantUML version 1.2022.5(Sat Apr 30 06:55:52 EDT 2022)
(GPL source distribution)
Java Runtime: OpenJDK Runtime Environment
JVM: OpenJDK 64-Bit Server VM
Default Encoding: UTF-8
Language: en
Country: CA
--></g></svg>