<?xml version="1.0" encoding="UTF-8" standalone="no"?><svg xmlns="http://www.w3.org/2000/svg" xmlns:xlink="http://www.w3.org/1999/xlink" contentStyleType="text/css" height="794px" preserveAspectRatio="none" style="width:1057px;height:794px;background:#FFFFFF;" version="1.1" viewBox="0 0 1057 794" width="1057px" zoomAndPan="magnify"><defs/><g><rect fill="#F1F1F1" height="81.9531" rx="5" ry="5" style="stroke:#F1F1F1;stroke-width:1.5;" width="243" x="10" y="264.5"/><text fill="#000000" font-family="sans-serif" font-size="14" font-weight="bold" lengthAdjust="spacing" textLength="42" x="15" y="280.0352">field1</text><text fill="#000000" font-family="sans-serif" font-size="14" lengthAdjust="spacing" textLength="99" x="149" y="280.0352">PasswordHash</text><line style="stroke:#000000;stroke-width:1.0;" x1="144" x2="144" y1="264.5" y2="284.9883"/><line style="stroke:#000000;stroke-width:1.0;" x1="10" x2="253" y1="284.9883" y2="284.9883"/><text fill="#000000" font-family="sans-serif" font-size="14" font-weight="bold" lengthAdjust="spacing" textLength="90" x="15" y="300.5234">combination</text><text fill="#000000" font-family="sans-serif" font-size="14" lengthAdjust="spacing" textLength="99" x="149" y="300.5234">PasswordHash</text><line style="stroke:#000000;stroke-width:1.0;" x1="144" x2="144" y1="284.9883" y2="305.4766"/><line style="stroke:#000000;stroke-width:1.0;" x1="10" x2="253" y1="305.4766" y2="305.4766"/><text fill="#000000" font-family="sans-serif" font-size="14" font-weight="bold" lengthAdjust="spacing" textLength="121" x="15" y="321.0117">null_distribution</text><text fill="#000000" font-family="sans-serif" font-size="14" lengthAdjust="spacing" textLength="12" x="149" y="321.0117">   </text><line style="stroke:#000000;stroke-width:1.0;" x1="144" x2="144" y1="305.4766" y2="325.9648"/><line style="stroke:#000000;stroke-width:1.0;" x1="10" x2="253" y1="325.9648" y2="325.9648"/><text fill="#000000" font-family="sans-serif" font-size="14" font-weight="bold" lengthAdjust="spacing" textLength="124" x="15" y="341.5">data_distribution</text><text fill="#000000" font-family="sans-serif" font-size="14" lengthAdjust="spacing" textLength="12" x="149" y="341.5">   </text><line style="stroke:#000000;stroke-width:1.0;" x1="144" x2="144" y1="325.9648" y2="346.4531"/><rect fill="none" height="81.9531" rx="5" ry="5" style="stroke:#000000;stroke-width:1.5;" width="243" x="10" y="264.5"/><rect fill="#F1F1F1" height="40.9766" rx="5" ry="5" style="stroke:#F1F1F1;stroke-width:1.5;" width="207" x="290" y="235"/><text fill="#000000" font-family="sans-serif" font-size="14" font-weight="bold" lengthAdjust="spacing" textLength="111" x="295" y="250.5352">total_null_rows</text><text fill="#000000" font-family="sans-serif" font-size="14" lengthAdjust="spacing" textLength="9" x="447" y="250.5352">0</text><line style="stroke:#000000;stroke-width:1.0;" x1="442" x2="442" y1="235" y2="255.4883"/><line style="stroke:#000000;stroke-width:1.0;" x1="290" x2="497" y1="255.4883" y2="255.4883"/><text fill="#000000" font-family="sans-serif" font-size="14" font-weight="bold" lengthAdjust="spacing" textLength="142" x="295" y="271.0234">total_not_null_rows</text><text fill="#000000" font-family="sans-serif" font-size="14" lengthAdjust="spacing" textLength="45" x="447" y="271.0234">19972</text><line style="stroke:#000000;stroke-width:1.0;" x1="442" x2="442" y1="255.4883" y2="275.9766"/><rect fill="none" height="40.9766" rx="5" ry="5" style="stroke:#000000;stroke-width:1.5;" width="207" x="290" y="235"/><rect fill="#F1F1F1" height="204.8828" rx="5" ry="5" style="stroke:#F1F1F1;stroke-width:1.5;" width="22" x="381.5" y="294"/><text fill="#000000" font-family="sans-serif" font-size="14" lengthAdjust="spacing" textLength="12" x="386.5" y="309.5352">   </text><line style="stroke:#000000;stroke-width:1.0;" x1="381.5" x2="403.5" y1="314.4883" y2="314.4883"/><text fill="#000000" font-family="sans-serif" font-size="14" lengthAdjust="spacing" textLength="12" x="386.5" y="330.0234">   </text><line style="stroke:#000000;stroke-width:1.0;" x1="381.5" x2="403.5" y1="334.9766" y2="334.9766"/><text fill="#000000" font-family="sans-serif" font-size="14" lengthAdjust="spacing" textLength="12" x="386.5" y="350.5117">   </text><line style="stroke:#000000;stroke-width:1.0;" x1="381.5" x2="403.5" y1="355.4648" y2="355.4648"/><text fill="#000000" font-family="sans-serif" font-size="14" lengthAdjust="spacing" textLength="12" x="386.5" y="371">   </text><line style="stroke:#000000;stroke-width:1.0;" x1="381.5" x2="403.5" y1="375.9531" y2="375.9531"/><text fill="#000000" font-family="sans-serif" font-size="14" lengthAdjust="spacing" textLength="12" x="386.5" y="391.4883">   </text><line style="stroke:#000000;stroke-width:1.0;" x1="381.5" x2="403.5" y1="396.4414" y2="396.4414"/><text fill="#000000" font-family="sans-serif" font-size="14" lengthAdjust="spacing" textLength="12" x="386.5" y="411.9766">   </text><line style="stroke:#000000;stroke-width:1.0;" x1="381.5" x2="403.5" y1="416.9297" y2="416.9297"/><text fill="#000000" font-family="sans-serif" font-size="14" lengthAdjust="spacing" textLength="12" x="386.5" y="432.4648">   </text><line style="stroke:#000000;stroke-width:1.0;" x1="381.5" x2="403.5" y1="437.418" y2="437.418"/><text fill="#000000" font-family="sans-serif" font-size="14" lengthAdjust="spacing" textLength="12" x="386.5" y="452.9531">   </text><line style="stroke:#000000;stroke-width:1.0;" x1="381.5" x2="403.5" y1="457.9063" y2="457.9063"/><text fill="#000000" font-family="sans-serif" font-size="14" lengthAdjust="spacing" textLength="12" x="386.5" y="473.4414">   </text><line style="stroke:#000000;stroke-width:1.0;" x1="381.5" x2="403.5" y1="478.3945" y2="478.3945"/><text fill="#000000" font-family="sans-serif" font-size="14" lengthAdjust="spacing" textLength="12" x="386.5" y="493.9297">   </text><rect fill="none" height="204.8828" rx="5" ry="5" style="stroke:#000000;stroke-width:1.5;" width="22" x="381.5" y="294"/><rect fill="#F1F1F1" height="61.4648" rx="5" ry="5" style="stroke:#F1F1F1;stroke-width:1.5;" width="460" x="559.5" y="10"/><text fill="#000000" font-family="sans-serif" font-size="14" font-weight="bold" lengthAdjust="spacing" textLength="78" x="564.5" y="25.5352">field_value</text><text fill="#000000" font-family="sans-serif" font-size="14" lengthAdjust="spacing" textLength="346" x="668.5" y="25.5352">/+p/+j1Degf/Rg2eJtnysd4PtiAlhIh+th/jM6cAxUc=</text><line style="stroke:#000000;stroke-width:1.0;" x1="663.5" x2="663.5" y1="10" y2="30.4883"/><line style="stroke:#000000;stroke-width:1.0;" x1="559.5" x2="1019.5" y1="30.4883" y2="30.4883"/><text fill="#000000" font-family="sans-serif" font-size="14" font-weight="bold" lengthAdjust="spacing" textLength="74" x="564.5" y="46.0234">row_count</text><text fill="#000000" font-family="sans-serif" font-size="14" lengthAdjust="spacing" textLength="9" x="668.5" y="46.0234">1</text><line style="stroke:#000000;stroke-width:1.0;" x1="663.5" x2="663.5" y1="30.4883" y2="50.9766"/><line style="stroke:#000000;stroke-width:1.0;" x1="559.5" x2="1019.5" y1="50.9766" y2="50.9766"/><text fill="#000000" font-family="sans-serif" font-size="14" font-weight="bold" lengthAdjust="spacing" textLength="94" x="564.5" y="66.5117">ratio_percent</text><text fill="#000000" font-family="sans-serif" font-size="14" lengthAdjust="spacing" textLength="175" x="668.5" y="66.5117">0.005007009813739235</text><line style="stroke:#000000;stroke-width:1.0;" x1="663.5" x2="663.5" y1="50.9766" y2="71.4648"/><rect fill="none" height="61.4648" rx="5" ry="5" style="stroke:#000000;stroke-width:1.5;" width="460" x="559.5" y="10"/><rect fill="#F1F1F1" height="61.4648" rx="5" ry="5" style="stroke:#F1F1F1;stroke-width:1.5;" width="483" x="548" y="89"/><text fill="#000000" font-family="sans-serif" font-size="14" font-weight="bold" lengthAdjust="spacing" textLength="78" x="553" y="104.5352">field_value</text><text fill="#000000" font-family="sans-serif" font-size="14" lengthAdjust="spacing" textLength="369" x="657" y="104.5352">/+l+AZ0f2kvdIyqTKA4LrgfMY3iG1Q30AvTXCz5jaoQ=</text><line style="stroke:#000000;stroke-width:1.0;" x1="652" x2="652" y1="89" y2="109.4883"/><line style="stroke:#000000;stroke-width:1.0;" x1="548" x2="1031" y1="109.4883" y2="109.4883"/><text fill="#000000" font-family="sans-serif" font-size="14" font-weight="bold" lengthAdjust="spacing" textLength="74" x="553" y="125.0234">row_count</text><text fill="#000000" font-family="sans-serif" font-size="14" lengthAdjust="spacing" textLength="9" x="657" y="125.0234">1</text><line style="stroke:#000000;stroke-width:1.0;" x1="652" x2="652" y1="109.4883" y2="129.9766"/><line style="stroke:#000000;stroke-width:1.0;" x1="548" x2="1031" y1="129.9766" y2="129.9766"/><text fill="#000000" font-family="sans-serif" font-size="14" font-weight="bold" lengthAdjust="spacing" textLength="94" x="553" y="145.5117">ratio_percent</text><text fill="#000000" font-family="sans-serif" font-size="14" lengthAdjust="spacing" textLength="175" x="657" y="145.5117">0.005007009813739235</text><line style="stroke:#000000;stroke-width:1.0;" x1="652" x2="652" y1="129.9766" y2="150.4648"/><rect fill="none" height="61.4648" rx="5" ry="5" style="stroke:#000000;stroke-width:1.5;" width="483" x="548" y="89"/><rect fill="#F1F1F1" height="61.4648" rx="5" ry="5" style="stroke:#F1F1F1;stroke-width:1.5;" width="485" x="547" y="168"/><text fill="#000000" font-family="sans-serif" font-size="14" font-weight="bold" lengthAdjust="spacing" textLength="78" x="552" y="183.5352">field_value</text><text fill="#000000" font-family="sans-serif" font-size="14" lengthAdjust="spacing" textLength="371" x="656" y="183.5352">/+HDSTgz1FizoOlpKtc1IEcgmFej6BuvHFnXHNSW9EY=</text><line style="stroke:#000000;stroke-width:1.0;" x1="651" x2="651" y1="168" y2="188.4883"/><line style="stroke:#000000;stroke-width:1.0;" x1="547" x2="1032" y1="188.4883" y2="188.4883"/><text fill="#000000" font-family="sans-serif" font-size="14" font-weight="bold" lengthAdjust="spacing" textLength="74" x="552" y="204.0234">row_count</text><text fill="#000000" font-family="sans-serif" font-size="14" lengthAdjust="spacing" textLength="9" x="656" y="204.0234">1</text><line style="stroke:#000000;stroke-width:1.0;" x1="651" x2="651" y1="188.4883" y2="208.9766"/><line style="stroke:#000000;stroke-width:1.0;" x1="547" x2="1032" y1="208.9766" y2="208.9766"/><text fill="#000000" font-family="sans-serif" font-size="14" font-weight="bold" lengthAdjust="spacing" textLength="94" x="552" y="224.5117">ratio_percent</text><text fill="#000000" font-family="sans-serif" font-size="14" lengthAdjust="spacing" textLength="175" x="656" y="224.5117">0.005007009813739235</text><line style="stroke:#000000;stroke-width:1.0;" x1="651" x2="651" y1="208.9766" y2="229.4648"/><rect fill="none" height="61.4648" rx="5" ry="5" style="stroke:#000000;stroke-width:1.5;" width="485" x="547" y="168"/><rect fill="#F1F1F1" height="61.4648" rx="5" ry="5" style="stroke:#F1F1F1;stroke-width:1.5;" width="481" x="549" y="247"/><text fill="#000000" font-family="sans-serif" font-size="14" font-weight="bold" lengthAdjust="spacing" textLength="78" x="554" y="262.5352">field_value</text><text fill="#000000" font-family="sans-serif" font-size="14" lengthAdjust="spacing" textLength="367" x="658" y="262.5352">/+aQkMa+cpJJdl8fNzI33KkdJ/MRyKVPHce+WO3krso=</text><line style="stroke:#000000;stroke-width:1.0;" x1="653" x2="653" y1="247" y2="267.4883"/><line style="stroke:#000000;stroke-width:1.0;" x1="549" x2="1030" y1="267.4883" y2="267.4883"/><text fill="#000000" font-family="sans-serif" font-size="14" font-weight="bold" lengthAdjust="spacing" textLength="74" x="554" y="283.0234">row_count</text><text fill="#000000" font-family="sans-serif" font-size="14" lengthAdjust="spacing" textLength="9" x="658" y="283.0234">1</text><line style="stroke:#000000;stroke-width:1.0;" x1="653" x2="653" y1="267.4883" y2="287.9766"/><line style="stroke:#000000;stroke-width:1.0;" x1="549" x2="1030" y1="287.9766" y2="287.9766"/><text fill="#000000" font-family="sans-serif" font-size="14" font-weight="bold" lengthAdjust="spacing" textLength="94" x="554" y="303.5117">ratio_percent</text><text fill="#000000" font-family="sans-serif" font-size="14" lengthAdjust="spacing" textLength="175" x="658" y="303.5117">0.005007009813739235</text><line style="stroke:#000000;stroke-width:1.0;" x1="653" x2="653" y1="287.9766" y2="308.4648"/><rect fill="none" height="61.4648" rx="5" ry="5" style="stroke:#000000;stroke-width:1.5;" width="481" x="549" y="247"/><rect fill="#F1F1F1" height="61.4648" rx="5" ry="5" style="stroke:#F1F1F1;stroke-width:1.5;" width="507" x="536" y="326"/><text fill="#000000" font-family="sans-serif" font-size="14" font-weight="bold" lengthAdjust="spacing" textLength="78" x="541" y="341.5352">field_value</text><text fill="#000000" font-family="sans-serif" font-size="14" lengthAdjust="spacing" textLength="393" x="645" y="341.5352">/+5NdUwojC2/BmlqXZzDMfpABSRzoV9Lbz+2mVbZhgU=</text><line style="stroke:#000000;stroke-width:1.0;" x1="640" x2="640" y1="326" y2="346.4883"/><line style="stroke:#000000;stroke-width:1.0;" x1="536" x2="1043" y1="346.4883" y2="346.4883"/><text fill="#000000" font-family="sans-serif" font-size="14" font-weight="bold" lengthAdjust="spacing" textLength="74" x="541" y="362.0234">row_count</text><text fill="#000000" font-family="sans-serif" font-size="14" lengthAdjust="spacing" textLength="9" x="645" y="362.0234">1</text><line style="stroke:#000000;stroke-width:1.0;" x1="640" x2="640" y1="346.4883" y2="366.9766"/><line style="stroke:#000000;stroke-width:1.0;" x1="536" x2="1043" y1="366.9766" y2="366.9766"/><text fill="#000000" font-family="sans-serif" font-size="14" font-weight="bold" lengthAdjust="spacing" textLength="94" x="541" y="382.5117">ratio_percent</text><text fill="#000000" font-family="sans-serif" font-size="14" lengthAdjust="spacing" textLength="175" x="645" y="382.5117">0.005007009813739235</text><line style="stroke:#000000;stroke-width:1.0;" x1="640" x2="640" y1="366.9766" y2="387.4648"/><rect fill="none" height="61.4648" rx="5" ry="5" style="stroke:#000000;stroke-width:1.5;" width="507" x="536" y="326"/><rect fill="#F1F1F1" height="61.4648" rx="5" ry="5" style="stroke:#F1F1F1;stroke-width:1.5;" width="482" x="548.5" y="405"/><text fill="#000000" font-family="sans-serif" font-size="14" font-weight="bold" lengthAdjust="spacing" textLength="78" x="553.5" y="420.5352">field_value</text><text fill="#000000" font-family="sans-serif" font-size="14" lengthAdjust="spacing" textLength="368" x="657.5" y="420.5352">//VK2ES61iiSEWeaevhdBAs0i942u7QqzMPnKjDnmIk=</text><line style="stroke:#000000;stroke-width:1.0;" x1="652.5" x2="652.5" y1="405" y2="425.4883"/><line style="stroke:#000000;stroke-width:1.0;" x1="548.5" x2="1030.5" y1="425.4883" y2="425.4883"/><text fill="#000000" font-family="sans-serif" font-size="14" font-weight="bold" lengthAdjust="spacing" textLength="74" x="553.5" y="441.0234">row_count</text><text fill="#000000" font-family="sans-serif" font-size="14" lengthAdjust="spacing" textLength="9" x="657.5" y="441.0234">1</text><line style="stroke:#000000;stroke-width:1.0;" x1="652.5" x2="652.5" y1="425.4883" y2="445.9766"/><line style="stroke:#000000;stroke-width:1.0;" x1="548.5" x2="1030.5" y1="445.9766" y2="445.9766"/><text fill="#000000" font-family="sans-serif" font-size="14" font-weight="bold" lengthAdjust="spacing" textLength="94" x="553.5" y="461.5117">ratio_percent</text><text fill="#000000" font-family="sans-serif" font-size="14" lengthAdjust="spacing" textLength="175" x="657.5" y="461.5117">0.005007009813739235</text><line style="stroke:#000000;stroke-width:1.0;" x1="652.5" x2="652.5" y1="445.9766" y2="466.4648"/><rect fill="none" height="61.4648" rx="5" ry="5" style="stroke:#000000;stroke-width:1.5;" width="482" x="548.5" y="405"/><rect fill="#F1F1F1" height="61.4648" rx="5" ry="5" style="stroke:#F1F1F1;stroke-width:1.5;" width="475" x="552" y="484"/><text fill="#000000" font-family="sans-serif" font-size="14" font-weight="bold" lengthAdjust="spacing" textLength="78" x="557" y="499.5352">field_value</text><text fill="#000000" font-family="sans-serif" font-size="14" lengthAdjust="spacing" textLength="361" x="661" y="499.5352">//SkoHD7ary0rUk3UJv6crTuHMrIze1TDNJ2N/Db3t4=</text><line style="stroke:#000000;stroke-width:1.0;" x1="656" x2="656" y1="484" y2="504.4883"/><line style="stroke:#000000;stroke-width:1.0;" x1="552" x2="1027" y1="504.4883" y2="504.4883"/><text fill="#000000" font-family="sans-serif" font-size="14" font-weight="bold" lengthAdjust="spacing" textLength="74" x="557" y="520.0234">row_count</text><text fill="#000000" font-family="sans-serif" font-size="14" lengthAdjust="spacing" textLength="9" x="661" y="520.0234">1</text><line style="stroke:#000000;stroke-width:1.0;" x1="656" x2="656" y1="504.4883" y2="524.9766"/><line style="stroke:#000000;stroke-width:1.0;" x1="552" x2="1027" y1="524.9766" y2="524.9766"/><text fill="#000000" font-family="sans-serif" font-size="14" font-weight="bold" lengthAdjust="spacing" textLength="94" x="557" y="540.5117">ratio_percent</text><text fill="#000000" font-family="sans-serif" font-size="14" lengthAdjust="spacing" textLength="175" x="661" y="540.5117">0.005007009813739235</text><line style="stroke:#000000;stroke-width:1.0;" x1="656" x2="656" y1="524.9766" y2="545.4648"/><rect fill="none" height="61.4648" rx="5" ry="5" style="stroke:#000000;stroke-width:1.5;" width="475" x="552" y="484"/><rect fill="#F1F1F1" height="61.4648" rx="5" ry="5" style="stroke:#F1F1F1;stroke-width:1.5;" width="511" x="534" y="563"/><text fill="#000000" font-family="sans-serif" font-size="14" font-weight="bold" lengthAdjust="spacing" textLength="78" x="539" y="578.5352">field_value</text><text fill="#000000" font-family="sans-serif" font-size="14" lengthAdjust="spacing" textLength="397" x="643" y="578.5352">//Qh/M9/vR/NuGOSOwR+cXXlU/+Xoh2WImK3b7YV6Co=</text><line style="stroke:#000000;stroke-width:1.0;" x1="638" x2="638" y1="563" y2="583.4883"/><line style="stroke:#000000;stroke-width:1.0;" x1="534" x2="1045" y1="583.4883" y2="583.4883"/><text fill="#000000" font-family="sans-serif" font-size="14" font-weight="bold" lengthAdjust="spacing" textLength="74" x="539" y="599.0234">row_count</text><text fill="#000000" font-family="sans-serif" font-size="14" lengthAdjust="spacing" textLength="9" x="643" y="599.0234">1</text><line style="stroke:#000000;stroke-width:1.0;" x1="638" x2="638" y1="583.4883" y2="603.9766"/><line style="stroke:#000000;stroke-width:1.0;" x1="534" x2="1045" y1="603.9766" y2="603.9766"/><text fill="#000000" font-family="sans-serif" font-size="14" font-weight="bold" lengthAdjust="spacing" textLength="94" x="539" y="619.5117">ratio_percent</text><text fill="#000000" font-family="sans-serif" font-size="14" lengthAdjust="spacing" textLength="175" x="643" y="619.5117">0.005007009813739235</text><line style="stroke:#000000;stroke-width:1.0;" x1="638" x2="638" y1="603.9766" y2="624.4648"/><rect fill="none" height="61.4648" rx="5" ry="5" style="stroke:#000000;stroke-width:1.5;" width="511" x="534" y="563"/><rect fill="#F1F1F1" height="61.4648" rx="5" ry="5" style="stroke:#F1F1F1;stroke-width:1.5;" width="485" x="547" y="642"/><text fill="#000000" font-family="sans-serif" font-size="14" font-weight="bold" lengthAdjust="spacing" textLength="78" x="552" y="657.5352">field_value</text><text fill="#000000" font-family="sans-serif" font-size="14" lengthAdjust="spacing" textLength="371" x="656" y="657.5352">//Pc8dh96UpONrxSTHxfiT9D8bVsFoeUvncOJT2JaHw=</text><line style="stroke:#000000;stroke-width:1.0;" x1="651" x2="651" y1="642" y2="662.4883"/><line style="stroke:#000000;stroke-width:1.0;" x1="547" x2="1032" y1="662.4883" y2="662.4883"/><text fill="#000000" font-family="sans-serif" font-size="14" font-weight="bold" lengthAdjust="spacing" textLength="74" x="552" y="678.0234">row_count</text><text fill="#000000" font-family="sans-serif" font-size="14" lengthAdjust="spacing" textLength="9" x="656" y="678.0234">1</text><line style="stroke:#000000;stroke-width:1.0;" x1="651" x2="651" y1="662.4883" y2="682.9766"/><line style="stroke:#000000;stroke-width:1.0;" x1="547" x2="1032" y1="682.9766" y2="682.9766"/><text fill="#000000" font-family="sans-serif" font-size="14" font-weight="bold" lengthAdjust="spacing" textLength="94" x="552" y="698.5117">ratio_percent</text><text fill="#000000" font-family="sans-serif" font-size="14" lengthAdjust="spacing" textLength="175" x="656" y="698.5117">0.005007009813739235</text><line style="stroke:#000000;stroke-width:1.0;" x1="651" x2="651" y1="682.9766" y2="703.4648"/><rect fill="none" height="61.4648" rx="5" ry="5" style="stroke:#000000;stroke-width:1.5;" width="485" x="547" y="642"/><rect fill="#F1F1F1" height="61.4648" rx="5" ry="5" style="stroke:#F1F1F1;stroke-width:1.5;" width="495" x="542" y="721"/><text fill="#000000" font-family="sans-serif" font-size="14" font-weight="bold" lengthAdjust="spacing" textLength="78" x="547" y="736.5352">field_value</text><text fill="#000000" font-family="sans-serif" font-size="14" lengthAdjust="spacing" textLength="381" x="651" y="736.5352">//kKQTezv8z9u5QyqhaRHeSCR+uo8wuzyXsPa9y54Bs=</text><line style="stroke:#000000;stroke-width:1.0;" x1="646" x2="646" y1="721" y2="741.4883"/><line style="stroke:#000000;stroke-width:1.0;" x1="542" x2="1037" y1="741.4883" y2="741.4883"/><text fill="#000000" font-family="sans-serif" font-size="14" font-weight="bold" lengthAdjust="spacing" textLength="74" x="547" y="757.0234">row_count</text><text fill="#000000" font-family="sans-serif" font-size="14" lengthAdjust="spacing" textLength="9" x="651" y="757.0234">1</text><line style="stroke:#000000;stroke-width:1.0;" x1="646" x2="646" y1="741.4883" y2="761.9766"/><line style="stroke:#000000;stroke-width:1.0;" x1="542" x2="1037" y1="761.9766" y2="761.9766"/><text fill="#000000" font-family="sans-serif" font-size="14" font-weight="bold" lengthAdjust="spacing" textLength="94" x="547" y="777.5117">ratio_percent</text><text fill="#000000" font-family="sans-serif" font-size="14" lengthAdjust="spacing" textLength="175" x="651" y="777.5117">0.005007009813739235</text><line style="stroke:#000000;stroke-width:1.0;" x1="646" x2="646" y1="761.9766" y2="782.4648"/><rect fill="none" height="61.4648" rx="5" ry="5" style="stroke:#000000;stroke-width:1.5;" width="495" x="542" y="721"/><path d="M241,315.5 L254,315.5 C274.8273,315.5 271.6143,295.285 290,285.5 C294.4187,283.1484 299.0447,280.9598 303.7859,278.9261 " fill="none" style="stroke:#000000;stroke-width:1.0;stroke-dasharray:3.0,3.0;"/><path d="M304.9339,281.7334 L305.8914,278.0652 L302.638,276.1189 L310.804,276.0563 L304.9339,281.7334 " fill="#000000" style="stroke:#000000;stroke-width:1.0;"/><ellipse cx="241" cy="315.5" fill="#000000" rx="3" ry="3" style="stroke:#000000;stroke-width:1.0;"/><path d="M394,303.5 L407,303.5 C448.2281,303.5 469.1738,314.9755 498,285.5 C562.9848,219.0516 467.5849,144.5189 534,79.5 C540.003,73.6232 546.4954,68.3982 553.3732,63.761 " fill="none" style="stroke:#000000;stroke-width:1.0;stroke-dasharray:3.0,3.0;"/><path d="M555.0113,66.3297 L555.2997,62.5325 L551.7351,61.1924 L559.7949,59.6659 L555.0113,66.3297 " fill="#000000" style="stroke:#000000;stroke-width:1.0;"/><ellipse cx="394" cy="303.5" fill="#000000" rx="3" ry="3" style="stroke:#000000;stroke-width:1.0;"/><path d="M394,324.5 L407,324.5 C451.0022,324.5 468.9505,318.5503 498,285.5 C536.7318,241.4339 490.0157,197.3247 534,158.5 C536.5497,156.2494 539.1725,154.098 541.8618,152.0419 " fill="none" style="stroke:#000000;stroke-width:1.0;stroke-dasharray:3.0,3.0;"/><path d="M543.7124,154.599 L543.7797,150.654 L540.0113,149.4848 L548.2546,147.4154 L543.7124,154.599 " fill="#000000" style="stroke:#000000;stroke-width:1.0;"/><ellipse cx="394" cy="324.5" fill="#000000" rx="3" ry="3" style="stroke:#000000;stroke-width:1.0;"/><path d="M394,344.5 L407,344.5 C455.2012,344.5 462.773,318.4001 498,285.5 C517.4889,267.2985 511.1213,251.1995 534,237.5 C536.8097,235.8176 539.667,234.1994 542.5668,232.6432 " fill="none" style="stroke:#000000;stroke-width:1.0;stroke-dasharray:3.0,3.0;"/><path d="M543.9747,235.3797 L544.6192,231.5874 L541.159,229.9068 L549.4079,229.1236 L543.9747,235.3797 " fill="#000000" style="stroke:#000000;stroke-width:1.0;"/><ellipse cx="394" cy="344.5" fill="#000000" rx="3" ry="3" style="stroke:#000000;stroke-width:1.0;"/><path d="M394,365.5 L407,365.5 C467.3414,365.5 475.6631,332.9237 534,317.5 C544.4721,314.7313 555.2401,312.1288 566.1546,309.6858 " fill="none" style="stroke:#000000;stroke-width:1.0;stroke-dasharray:3.0,3.0;"/><path d="M566.821,312.717 L568.428,309.1861 L565.4883,306.6547 L573.7325,308.02 L566.821,312.717 " fill="#000000" style="stroke:#000000;stroke-width:1.0;"/><ellipse cx="394" cy="365.5" fill="#000000" rx="3" ry="3" style="stroke:#000000;stroke-width:1.0;"/><path d="M394,385.5 L407,385.5 C446.4463,385.5 488.1183,383.9435 528.8675,381.5517 " fill="none" style="stroke:#000000;stroke-width:1.0;stroke-dasharray:3.0,3.0;"/><path d="M529.05,384.5906 L531.1467,381.4148 L528.685,378.5127 L536.4648,381.0955 L529.05,384.5906 " fill="#000000" style="stroke:#000000;stroke-width:1.0;"/><ellipse cx="394" cy="385.5" fill="#000000" rx="3" ry="3" style="stroke:#000000;stroke-width:1.0;"/><path d="M394,406.5 L407,406.5 C450.3824,406.5 496.4567,408.3826 541.035,411.1886 " fill="none" style="stroke:#000000;stroke-width:1.0;stroke-dasharray:3.0,3.0;"/><path d="M540.8366,414.2769 L543.3513,411.3374 L541.2334,408.1002 L548.7559,411.6846 L540.8366,414.2769 " fill="#000000" style="stroke:#000000;stroke-width:1.0;"/><ellipse cx="394" cy="406.5" fill="#000000" rx="3" ry="3" style="stroke:#000000;stroke-width:1.0;"/><path d="M394,427.5 L407,427.5 C467.3414,427.5 475.6337,460.188 534,475.5 C543.0582,477.8764 552.338,480.1247 561.7426,482.2501 " fill="none" style="stroke:#000000;stroke-width:1.0;stroke-dasharray:3.0,3.0;"/><path d="M561.0713,485.277 L564.0128,482.7536 L562.4139,479.2232 L569.3099,483.9284 L561.0713,485.277 " fill="#000000" style="stroke:#000000;stroke-width:1.0;"/><ellipse cx="394" cy="427.5" fill="#000000" rx="3" ry="3" style="stroke:#000000;stroke-width:1.0;"/><path d="M394,447.5 L407,447.5 C480.8072,447.5 466.7877,524.0039 534,554.5 C538.4161,556.5037 542.9149,558.4077 547.4814,560.2168 " fill="none" style="stroke:#000000;stroke-width:1.0;stroke-dasharray:3.0,3.0;"/><path d="M546.3752,563.1086 L549.6502,561.0465 L548.5876,557.325 L554.7109,562.9823 L546.3752,563.1086 " fill="#000000" style="stroke:#000000;stroke-width:1.0;"/><ellipse cx="394" cy="447.5" fill="#000000" rx="3" ry="3" style="stroke:#000000;stroke-width:1.0;"/><path d="M394,468.5 L407,468.5 C499.5405,468.5 454.3095,586.4555 534,633.5 C536.8744,635.1969 539.7976,636.828 542.7643,638.3958 " fill="none" style="stroke:#000000;stroke-width:1.0;stroke-dasharray:3.0,3.0;"/><path d="M541.3466,641.1953 L544.8639,639.4591 L544.182,635.5963 L549.763,641.9401 L541.3466,641.1953 " fill="#000000" style="stroke:#000000;stroke-width:1.0;"/><ellipse cx="394" cy="468.5" fill="#000000" rx="3" ry="3" style="stroke:#000000;stroke-width:1.0;"/><path d="M394,488.5 L407,488.5 C521.4434,488.5 439.7657,647.5602 534,712.5 C536.1665,713.993 538.3679,715.4381 540.6014,716.8365 " fill="none" style="stroke:#000000;stroke-width:1.0;stroke-dasharray:3.0,3.0;"/><path d="M538.9786,719.5542 L542.6397,718.0537 L542.2243,714.1189 L547.3956,720.8936 L538.9786,719.5542 " fill="#000000" style="stroke:#000000;stroke-width:1.0;"/><ellipse cx="394" cy="488.5" fill="#000000" rx="3" ry="3" style="stroke:#000000;stroke-width:1.0;"/><path d="M241,336.5 L254,336.5 C301.0497,336.5 350.2629,365.8357 375.6101,383.482 " fill="none" style="stroke:#000000;stroke-width:1.0;stroke-dasharray:3.0,3.0;"/><path d="M373.8416,385.964 L377.4716,384.8085 L377.3787,381.0001 L381.815,387.9035 L373.8416,385.964 " fill="#000000" style="stroke:#000000;stroke-width:1.0;"/><ellipse cx="241" cy="336.5" fill="#000000" rx="3" ry="3" style="stroke:#000000;stroke-width:1.0;"/><!--MD5=[af1388fcf72e95fa8f71f27c17fd0279]
@startjson
{
    "field1": "PasswordHash",
    "combination": "PasswordHash",
    "null_distribution": {
        "total_null_rows": 0,
        "total_not_null_rows": 19972
    },
    "data_distribution": [
        {
            "field_value": "/+p/+j1Degf/Rg2eJtnysd4PtiAlhIh+th/jM6cAxUc=",
            "row_count": 1,
            "ratio_percent": 0.005007009813739235
        },
        {
            "field_value": "/+l+AZ0f2kvdIyqTKA4LrgfMY3iG1Q30AvTXCz5jaoQ=",
            "row_count": 1,
            "ratio_percent": 0.005007009813739235
        },
        {
            "field_value": "/+HDSTgz1FizoOlpKtc1IEcgmFej6BuvHFnXHNSW9EY=",
            "row_count": 1,
            "ratio_percent": 0.005007009813739235
        },
        {
            "field_value": "/+aQkMa+cpJJdl8fNzI33KkdJ/MRyKVPHce+WO3krso=",
            "row_count": 1,
            "ratio_percent": 0.005007009813739235
        },
        {
            "field_value": "/+5NdUwojC2/BmlqXZzDMfpABSRzoV9Lbz+2mVbZhgU=",
            "row_count": 1,
            "ratio_percent": 0.005007009813739235
        },
        {
            "field_value": "//VK2ES61iiSEWeaevhdBAs0i942u7QqzMPnKjDnmIk=",
            "row_count": 1,
            "ratio_percent": 0.005007009813739235
        },
        {
            "field_value": "//SkoHD7ary0rUk3UJv6crTuHMrIze1TDNJ2N/Db3t4=",
            "row_count": 1,
            "ratio_percent": 0.005007009813739235
        },
        {
            "field_value": "//Qh/M9/vR/NuGOSOwR+cXXlU/+Xoh2WImK3b7YV6Co=",
            "row_count": 1,
            "ratio_percent": 0.005007009813739235
        },
        {
            "field_value": "//Pc8dh96UpONrxSTHxfiT9D8bVsFoeUvncOJT2JaHw=",
            "row_count": 1,
            "ratio_percent": 0.005007009813739235
        },
        {
            "field_value": "//kKQTezv8z9u5QyqhaRHeSCR+uo8wuzyXsPa9y54Bs=",
            "row_count": 1,
            "ratio_percent": 0.005007009813739235
        }
    ]
}
@endjson

PlantUML version 1.2022.5(Sat Apr 30 06:55:52 EDT 2022)
(GPL source distribution)
Java Runtime: OpenJDK Runtime Environment
JVM: OpenJDK 64-Bit Server VM
Default Encoding: UTF-8
Language: en
Country: CA
--></g></svg>