<?xml version="1.0" encoding="UTF-8" standalone="no"?><svg xmlns="http://www.w3.org/2000/svg" xmlns:xlink="http://www.w3.org/1999/xlink" contentStyleType="text/css" height="794px" preserveAspectRatio="none" style="width:874px;height:794px;background:#FFFFFF;" version="1.1" viewBox="0 0 874 794" width="874px" zoomAndPan="magnify"><defs/><g><rect fill="#F1F1F1" height="81.9531" rx="5" ry="5" style="stroke:#F1F1F1;stroke-width:1.5;" width="237" x="10" y="264.5"/><text fill="#000000" font-family="sans-serif" font-size="14" font-weight="bold" lengthAdjust="spacing" textLength="42" x="15" y="280.0352">field1</text><text fill="#000000" font-family="sans-serif" font-size="14" lengthAdjust="spacing" textLength="93" x="149" y="280.0352">AddressLine1</text><line style="stroke:#000000;stroke-width:1.0;" x1="144" x2="144" y1="264.5" y2="284.9883"/><line style="stroke:#000000;stroke-width:1.0;" x1="10" x2="247" y1="284.9883" y2="284.9883"/><text fill="#000000" font-family="sans-serif" font-size="14" font-weight="bold" lengthAdjust="spacing" textLength="90" x="15" y="300.5234">combination</text><text fill="#000000" font-family="sans-serif" font-size="14" lengthAdjust="spacing" textLength="93" x="149" y="300.5234">AddressLine1</text><line style="stroke:#000000;stroke-width:1.0;" x1="144" x2="144" y1="284.9883" y2="305.4766"/><line style="stroke:#000000;stroke-width:1.0;" x1="10" x2="247" y1="305.4766" y2="305.4766"/><text fill="#000000" font-family="sans-serif" font-size="14" font-weight="bold" lengthAdjust="spacing" textLength="121" x="15" y="321.0117">null_distribution</text><text fill="#000000" font-family="sans-serif" font-size="14" lengthAdjust="spacing" textLength="12" x="149" y="321.0117">   </text><line style="stroke:#000000;stroke-width:1.0;" x1="144" x2="144" y1="305.4766" y2="325.9648"/><line style="stroke:#000000;stroke-width:1.0;" x1="10" x2="247" y1="325.9648" y2="325.9648"/><text fill="#000000" font-family="sans-serif" font-size="14" font-weight="bold" lengthAdjust="spacing" textLength="124" x="15" y="341.5">data_distribution</text><text fill="#000000" font-family="sans-serif" font-size="14" lengthAdjust="spacing" textLength="12" x="149" y="341.5">   </text><line style="stroke:#000000;stroke-width:1.0;" x1="144" x2="144" y1="325.9648" y2="346.4531"/><rect fill="none" height="81.9531" rx="5" ry="5" style="stroke:#000000;stroke-width:1.5;" width="237" x="10" y="264.5"/><rect fill="#F1F1F1" height="40.9766" rx="5" ry="5" style="stroke:#F1F1F1;stroke-width:1.5;" width="207" x="284" y="235"/><text fill="#000000" font-family="sans-serif" font-size="14" font-weight="bold" lengthAdjust="spacing" textLength="111" x="289" y="250.5352">total_null_rows</text><text fill="#000000" font-family="sans-serif" font-size="14" lengthAdjust="spacing" textLength="9" x="441" y="250.5352">0</text><line style="stroke:#000000;stroke-width:1.0;" x1="436" x2="436" y1="235" y2="255.4883"/><line style="stroke:#000000;stroke-width:1.0;" x1="284" x2="491" y1="255.4883" y2="255.4883"/><text fill="#000000" font-family="sans-serif" font-size="14" font-weight="bold" lengthAdjust="spacing" textLength="142" x="289" y="271.0234">total_not_null_rows</text><text fill="#000000" font-family="sans-serif" font-size="14" lengthAdjust="spacing" textLength="45" x="441" y="271.0234">19614</text><line style="stroke:#000000;stroke-width:1.0;" x1="436" x2="436" y1="255.4883" y2="275.9766"/><rect fill="none" height="40.9766" rx="5" ry="5" style="stroke:#000000;stroke-width:1.5;" width="207" x="284" y="235"/><rect fill="#F1F1F1" height="204.8828" rx="5" ry="5" style="stroke:#F1F1F1;stroke-width:1.5;" width="22" x="375.5" y="294"/><text fill="#000000" font-family="sans-serif" font-size="14" lengthAdjust="spacing" textLength="12" x="380.5" y="309.5352">   </text><line style="stroke:#000000;stroke-width:1.0;" x1="375.5" x2="397.5" y1="314.4883" y2="314.4883"/><text fill="#000000" font-family="sans-serif" font-size="14" lengthAdjust="spacing" textLength="12" x="380.5" y="330.0234">   </text><line style="stroke:#000000;stroke-width:1.0;" x1="375.5" x2="397.5" y1="334.9766" y2="334.9766"/><text fill="#000000" font-family="sans-serif" font-size="14" lengthAdjust="spacing" textLength="12" x="380.5" y="350.5117">   </text><line style="stroke:#000000;stroke-width:1.0;" x1="375.5" x2="397.5" y1="355.4648" y2="355.4648"/><text fill="#000000" font-family="sans-serif" font-size="14" lengthAdjust="spacing" textLength="12" x="380.5" y="371">   </text><line style="stroke:#000000;stroke-width:1.0;" x1="375.5" x2="397.5" y1="375.9531" y2="375.9531"/><text fill="#000000" font-family="sans-serif" font-size="14" lengthAdjust="spacing" textLength="12" x="380.5" y="391.4883">   </text><line style="stroke:#000000;stroke-width:1.0;" x1="375.5" x2="397.5" y1="396.4414" y2="396.4414"/><text fill="#000000" font-family="sans-serif" font-size="14" lengthAdjust="spacing" textLength="12" x="380.5" y="411.9766">   </text><line style="stroke:#000000;stroke-width:1.0;" x1="375.5" x2="397.5" y1="416.9297" y2="416.9297"/><text fill="#000000" font-family="sans-serif" font-size="14" lengthAdjust="spacing" textLength="12" x="380.5" y="432.4648">   </text><line style="stroke:#000000;stroke-width:1.0;" x1="375.5" x2="397.5" y1="437.418" y2="437.418"/><text fill="#000000" font-family="sans-serif" font-size="14" lengthAdjust="spacing" textLength="12" x="380.5" y="452.9531">   </text><line style="stroke:#000000;stroke-width:1.0;" x1="375.5" x2="397.5" y1="457.9063" y2="457.9063"/><text fill="#000000" font-family="sans-serif" font-size="14" lengthAdjust="spacing" textLength="12" x="380.5" y="473.4414">   </text><line style="stroke:#000000;stroke-width:1.0;" x1="375.5" x2="397.5" y1="478.3945" y2="478.3945"/><text fill="#000000" font-family="sans-serif" font-size="14" lengthAdjust="spacing" textLength="12" x="380.5" y="493.9297">   </text><rect fill="none" height="204.8828" rx="5" ry="5" style="stroke:#000000;stroke-width:1.5;" width="22" x="375.5" y="294"/><rect fill="#F1F1F1" height="61.4648" rx="5" ry="5" style="stroke:#F1F1F1;stroke-width:1.5;" width="280" x="555" y="10"/><text fill="#000000" font-family="sans-serif" font-size="14" font-weight="bold" lengthAdjust="spacing" textLength="78" x="560" y="25.5352">field_value</text><text fill="#000000" font-family="sans-serif" font-size="14" lengthAdjust="spacing" textLength="121" x="664" y="25.5352">Attaché de Presse</text><line style="stroke:#000000;stroke-width:1.0;" x1="659" x2="659" y1="10" y2="30.4883"/><line style="stroke:#000000;stroke-width:1.0;" x1="555" x2="835" y1="30.4883" y2="30.4883"/><text fill="#000000" font-family="sans-serif" font-size="14" font-weight="bold" lengthAdjust="spacing" textLength="74" x="560" y="46.0234">row_count</text><text fill="#000000" font-family="sans-serif" font-size="14" lengthAdjust="spacing" textLength="18" x="664" y="46.0234">17</text><line style="stroke:#000000;stroke-width:1.0;" x1="659" x2="659" y1="30.4883" y2="50.9766"/><line style="stroke:#000000;stroke-width:1.0;" x1="555" x2="835" y1="50.9766" y2="50.9766"/><text fill="#000000" font-family="sans-serif" font-size="14" font-weight="bold" lengthAdjust="spacing" textLength="94" x="560" y="66.5117">ratio_percent</text><text fill="#000000" font-family="sans-serif" font-size="14" lengthAdjust="spacing" textLength="166" x="664" y="66.5117">0.08667278474558988</text><line style="stroke:#000000;stroke-width:1.0;" x1="659" x2="659" y1="50.9766" y2="71.4648"/><rect fill="none" height="61.4648" rx="5" ry="5" style="stroke:#000000;stroke-width:1.5;" width="280" x="555" y="10"/><rect fill="#F1F1F1" height="61.4648" rx="5" ry="5" style="stroke:#F1F1F1;stroke-width:1.5;" width="280" x="555" y="89"/><text fill="#000000" font-family="sans-serif" font-size="14" font-weight="bold" lengthAdjust="spacing" textLength="78" x="560" y="104.5352">field_value</text><text fill="#000000" font-family="sans-serif" font-size="14" lengthAdjust="spacing" textLength="99" x="664" y="104.5352">Midi-Couleurs</text><line style="stroke:#000000;stroke-width:1.0;" x1="659" x2="659" y1="89" y2="109.4883"/><line style="stroke:#000000;stroke-width:1.0;" x1="555" x2="835" y1="109.4883" y2="109.4883"/><text fill="#000000" font-family="sans-serif" font-size="14" font-weight="bold" lengthAdjust="spacing" textLength="74" x="560" y="125.0234">row_count</text><text fill="#000000" font-family="sans-serif" font-size="14" lengthAdjust="spacing" textLength="18" x="664" y="125.0234">15</text><line style="stroke:#000000;stroke-width:1.0;" x1="659" x2="659" y1="109.4883" y2="129.9766"/><line style="stroke:#000000;stroke-width:1.0;" x1="555" x2="835" y1="129.9766" y2="129.9766"/><text fill="#000000" font-family="sans-serif" font-size="14" font-weight="bold" lengthAdjust="spacing" textLength="94" x="560" y="145.5117">ratio_percent</text><text fill="#000000" font-family="sans-serif" font-size="14" lengthAdjust="spacing" textLength="166" x="664" y="145.5117">0.07647598654022637</text><line style="stroke:#000000;stroke-width:1.0;" x1="659" x2="659" y1="129.9766" y2="150.4648"/><rect fill="none" height="61.4648" rx="5" ry="5" style="stroke:#000000;stroke-width:1.5;" width="280" x="555" y="89"/><rect fill="#F1F1F1" height="61.4648" rx="5" ry="5" style="stroke:#F1F1F1;stroke-width:1.5;" width="334" x="528" y="168"/><text fill="#000000" font-family="sans-serif" font-size="14" font-weight="bold" lengthAdjust="spacing" textLength="78" x="533" y="183.5352">field_value</text><text fill="#000000" font-family="sans-serif" font-size="14" lengthAdjust="spacing" textLength="220" x="637" y="183.5352">88, avenue de l´ Union Centrale</text><line style="stroke:#000000;stroke-width:1.0;" x1="632" x2="632" y1="168" y2="188.4883"/><line style="stroke:#000000;stroke-width:1.0;" x1="528" x2="862" y1="188.4883" y2="188.4883"/><text fill="#000000" font-family="sans-serif" font-size="14" font-weight="bold" lengthAdjust="spacing" textLength="74" x="533" y="204.0234">row_count</text><text fill="#000000" font-family="sans-serif" font-size="14" lengthAdjust="spacing" textLength="18" x="637" y="204.0234">13</text><line style="stroke:#000000;stroke-width:1.0;" x1="632" x2="632" y1="188.4883" y2="208.9766"/><line style="stroke:#000000;stroke-width:1.0;" x1="528" x2="862" y1="208.9766" y2="208.9766"/><text fill="#000000" font-family="sans-serif" font-size="14" font-weight="bold" lengthAdjust="spacing" textLength="94" x="533" y="224.5117">ratio_percent</text><text fill="#000000" font-family="sans-serif" font-size="14" lengthAdjust="spacing" textLength="166" x="637" y="224.5117">0.06627918833486285</text><line style="stroke:#000000;stroke-width:1.0;" x1="632" x2="632" y1="208.9766" y2="229.4648"/><rect fill="none" height="61.4648" rx="5" ry="5" style="stroke:#000000;stroke-width:1.5;" width="334" x="528" y="168"/><rect fill="#F1F1F1" height="61.4648" rx="5" ry="5" style="stroke:#F1F1F1;stroke-width:1.5;" width="280" x="555" y="247"/><text fill="#000000" font-family="sans-serif" font-size="14" font-weight="bold" lengthAdjust="spacing" textLength="78" x="560" y="262.5352">field_value</text><text fill="#000000" font-family="sans-serif" font-size="14" lengthAdjust="spacing" textLength="140" x="664" y="262.5352">6, route de Marseille</text><line style="stroke:#000000;stroke-width:1.0;" x1="659" x2="659" y1="247" y2="267.4883"/><line style="stroke:#000000;stroke-width:1.0;" x1="555" x2="835" y1="267.4883" y2="267.4883"/><text fill="#000000" font-family="sans-serif" font-size="14" font-weight="bold" lengthAdjust="spacing" textLength="74" x="560" y="283.0234">row_count</text><text fill="#000000" font-family="sans-serif" font-size="14" lengthAdjust="spacing" textLength="18" x="664" y="283.0234">12</text><line style="stroke:#000000;stroke-width:1.0;" x1="659" x2="659" y1="267.4883" y2="287.9766"/><line style="stroke:#000000;stroke-width:1.0;" x1="555" x2="835" y1="287.9766" y2="287.9766"/><text fill="#000000" font-family="sans-serif" font-size="14" font-weight="bold" lengthAdjust="spacing" textLength="94" x="560" y="303.5117">ratio_percent</text><text fill="#000000" font-family="sans-serif" font-size="14" lengthAdjust="spacing" textLength="166" x="664" y="303.5117">0.06118078923218109</text><line style="stroke:#000000;stroke-width:1.0;" x1="659" x2="659" y1="287.9766" y2="308.4648"/><rect fill="none" height="61.4648" rx="5" ry="5" style="stroke:#000000;stroke-width:1.5;" width="280" x="555" y="247"/><rect fill="#F1F1F1" height="61.4648" rx="5" ry="5" style="stroke:#F1F1F1;stroke-width:1.5;" width="280" x="555" y="326"/><text fill="#000000" font-family="sans-serif" font-size="14" font-weight="bold" lengthAdjust="spacing" textLength="78" x="560" y="341.5352">field_value</text><text fill="#000000" font-family="sans-serif" font-size="14" lengthAdjust="spacing" textLength="135" x="664" y="341.5352">Helsenbergbogen 6</text><line style="stroke:#000000;stroke-width:1.0;" x1="659" x2="659" y1="326" y2="346.4883"/><line style="stroke:#000000;stroke-width:1.0;" x1="555" x2="835" y1="346.4883" y2="346.4883"/><text fill="#000000" font-family="sans-serif" font-size="14" font-weight="bold" lengthAdjust="spacing" textLength="74" x="560" y="362.0234">row_count</text><text fill="#000000" font-family="sans-serif" font-size="14" lengthAdjust="spacing" textLength="18" x="664" y="362.0234">10</text><line style="stroke:#000000;stroke-width:1.0;" x1="659" x2="659" y1="346.4883" y2="366.9766"/><line style="stroke:#000000;stroke-width:1.0;" x1="555" x2="835" y1="366.9766" y2="366.9766"/><text fill="#000000" font-family="sans-serif" font-size="14" font-weight="bold" lengthAdjust="spacing" textLength="94" x="560" y="382.5117">ratio_percent</text><text fill="#000000" font-family="sans-serif" font-size="14" lengthAdjust="spacing" textLength="166" x="664" y="382.5117">0.05098399102681758</text><line style="stroke:#000000;stroke-width:1.0;" x1="659" x2="659" y1="366.9766" y2="387.4648"/><rect fill="none" height="61.4648" rx="5" ry="5" style="stroke:#000000;stroke-width:1.5;" width="280" x="555" y="326"/><rect fill="#F1F1F1" height="61.4648" rx="5" ry="5" style="stroke:#F1F1F1;stroke-width:1.5;" width="280" x="555" y="405"/><text fill="#000000" font-family="sans-serif" font-size="14" font-weight="bold" lengthAdjust="spacing" textLength="78" x="560" y="420.5352">field_value</text><text fill="#000000" font-family="sans-serif" font-size="14" lengthAdjust="spacing" textLength="130" x="664" y="420.5352">Im Himmelsweg 89</text><line style="stroke:#000000;stroke-width:1.0;" x1="659" x2="659" y1="405" y2="425.4883"/><line style="stroke:#000000;stroke-width:1.0;" x1="555" x2="835" y1="425.4883" y2="425.4883"/><text fill="#000000" font-family="sans-serif" font-size="14" font-weight="bold" lengthAdjust="spacing" textLength="74" x="560" y="441.0234">row_count</text><text fill="#000000" font-family="sans-serif" font-size="14" lengthAdjust="spacing" textLength="18" x="664" y="441.0234">10</text><line style="stroke:#000000;stroke-width:1.0;" x1="659" x2="659" y1="425.4883" y2="445.9766"/><line style="stroke:#000000;stroke-width:1.0;" x1="555" x2="835" y1="445.9766" y2="445.9766"/><text fill="#000000" font-family="sans-serif" font-size="14" font-weight="bold" lengthAdjust="spacing" textLength="94" x="560" y="461.5117">ratio_percent</text><text fill="#000000" font-family="sans-serif" font-size="14" lengthAdjust="spacing" textLength="166" x="664" y="461.5117">0.05098399102681758</text><line style="stroke:#000000;stroke-width:1.0;" x1="659" x2="659" y1="445.9766" y2="466.4648"/><rect fill="none" height="61.4648" rx="5" ry="5" style="stroke:#000000;stroke-width:1.5;" width="280" x="555" y="405"/><rect fill="#F1F1F1" height="61.4648" rx="5" ry="5" style="stroke:#F1F1F1;stroke-width:1.5;" width="280" x="555" y="484"/><text fill="#000000" font-family="sans-serif" font-size="14" font-weight="bold" lengthAdjust="spacing" textLength="78" x="560" y="499.5352">field_value</text><text fill="#000000" font-family="sans-serif" font-size="14" lengthAdjust="spacing" textLength="125" x="664" y="499.5352">11, quai de l´ Iton</text><line style="stroke:#000000;stroke-width:1.0;" x1="659" x2="659" y1="484" y2="504.4883"/><line style="stroke:#000000;stroke-width:1.0;" x1="555" x2="835" y1="504.4883" y2="504.4883"/><text fill="#000000" font-family="sans-serif" font-size="14" font-weight="bold" lengthAdjust="spacing" textLength="74" x="560" y="520.0234">row_count</text><text fill="#000000" font-family="sans-serif" font-size="14" lengthAdjust="spacing" textLength="9" x="664" y="520.0234">9</text><line style="stroke:#000000;stroke-width:1.0;" x1="659" x2="659" y1="504.4883" y2="524.9766"/><line style="stroke:#000000;stroke-width:1.0;" x1="555" x2="835" y1="524.9766" y2="524.9766"/><text fill="#000000" font-family="sans-serif" font-size="14" font-weight="bold" lengthAdjust="spacing" textLength="94" x="560" y="540.5117">ratio_percent</text><text fill="#000000" font-family="sans-serif" font-size="14" lengthAdjust="spacing" textLength="166" x="664" y="540.5117">0.04588559192413582</text><line style="stroke:#000000;stroke-width:1.0;" x1="659" x2="659" y1="524.9766" y2="545.4648"/><rect fill="none" height="61.4648" rx="5" ry="5" style="stroke:#000000;stroke-width:1.5;" width="280" x="555" y="484"/><rect fill="#F1F1F1" height="61.4648" rx="5" ry="5" style="stroke:#F1F1F1;stroke-width:1.5;" width="280" x="555" y="563"/><text fill="#000000" font-family="sans-serif" font-size="14" font-weight="bold" lengthAdjust="spacing" textLength="78" x="560" y="578.5352">field_value</text><text fill="#000000" font-family="sans-serif" font-size="14" lengthAdjust="spacing" textLength="124" x="664" y="578.5352">Postfach 22 99 99</text><line style="stroke:#000000;stroke-width:1.0;" x1="659" x2="659" y1="563" y2="583.4883"/><line style="stroke:#000000;stroke-width:1.0;" x1="555" x2="835" y1="583.4883" y2="583.4883"/><text fill="#000000" font-family="sans-serif" font-size="14" font-weight="bold" lengthAdjust="spacing" textLength="74" x="560" y="599.0234">row_count</text><text fill="#000000" font-family="sans-serif" font-size="14" lengthAdjust="spacing" textLength="9" x="664" y="599.0234">9</text><line style="stroke:#000000;stroke-width:1.0;" x1="659" x2="659" y1="583.4883" y2="603.9766"/><line style="stroke:#000000;stroke-width:1.0;" x1="555" x2="835" y1="603.9766" y2="603.9766"/><text fill="#000000" font-family="sans-serif" font-size="14" font-weight="bold" lengthAdjust="spacing" textLength="94" x="560" y="619.5117">ratio_percent</text><text fill="#000000" font-family="sans-serif" font-size="14" lengthAdjust="spacing" textLength="166" x="664" y="619.5117">0.04588559192413582</text><line style="stroke:#000000;stroke-width:1.0;" x1="659" x2="659" y1="603.9766" y2="624.4648"/><rect fill="none" height="61.4648" rx="5" ry="5" style="stroke:#000000;stroke-width:1.5;" width="280" x="555" y="563"/><rect fill="#F1F1F1" height="61.4648" rx="5" ry="5" style="stroke:#F1F1F1;stroke-width:1.5;" width="280" x="555" y="642"/><text fill="#000000" font-family="sans-serif" font-size="14" font-weight="bold" lengthAdjust="spacing" textLength="78" x="560" y="657.5352">field_value</text><text fill="#000000" font-family="sans-serif" font-size="14" lengthAdjust="spacing" textLength="76" x="664" y="657.5352">Werftstr 54</text><line style="stroke:#000000;stroke-width:1.0;" x1="659" x2="659" y1="642" y2="662.4883"/><line style="stroke:#000000;stroke-width:1.0;" x1="555" x2="835" y1="662.4883" y2="662.4883"/><text fill="#000000" font-family="sans-serif" font-size="14" font-weight="bold" lengthAdjust="spacing" textLength="74" x="560" y="678.0234">row_count</text><text fill="#000000" font-family="sans-serif" font-size="14" lengthAdjust="spacing" textLength="9" x="664" y="678.0234">9</text><line style="stroke:#000000;stroke-width:1.0;" x1="659" x2="659" y1="662.4883" y2="682.9766"/><line style="stroke:#000000;stroke-width:1.0;" x1="555" x2="835" y1="682.9766" y2="682.9766"/><text fill="#000000" font-family="sans-serif" font-size="14" font-weight="bold" lengthAdjust="spacing" textLength="94" x="560" y="698.5117">ratio_percent</text><text fill="#000000" font-family="sans-serif" font-size="14" lengthAdjust="spacing" textLength="166" x="664" y="698.5117">0.04588559192413582</text><line style="stroke:#000000;stroke-width:1.0;" x1="659" x2="659" y1="682.9766" y2="703.4648"/><rect fill="none" height="61.4648" rx="5" ry="5" style="stroke:#000000;stroke-width:1.5;" width="280" x="555" y="642"/><rect fill="#F1F1F1" height="61.4648" rx="5" ry="5" style="stroke:#F1F1F1;stroke-width:1.5;" width="289" x="550.5" y="721"/><text fill="#000000" font-family="sans-serif" font-size="14" font-weight="bold" lengthAdjust="spacing" textLength="78" x="555.5" y="736.5352">field_value</text><text fill="#000000" font-family="sans-serif" font-size="14" lengthAdjust="spacing" textLength="140" x="659.5" y="736.5352">2, route de Marseille</text><line style="stroke:#000000;stroke-width:1.0;" x1="654.5" x2="654.5" y1="721" y2="741.4883"/><line style="stroke:#000000;stroke-width:1.0;" x1="550.5" x2="839.5" y1="741.4883" y2="741.4883"/><text fill="#000000" font-family="sans-serif" font-size="14" font-weight="bold" lengthAdjust="spacing" textLength="74" x="555.5" y="757.0234">row_count</text><text fill="#000000" font-family="sans-serif" font-size="14" lengthAdjust="spacing" textLength="9" x="659.5" y="757.0234">8</text><line style="stroke:#000000;stroke-width:1.0;" x1="654.5" x2="654.5" y1="741.4883" y2="761.9766"/><line style="stroke:#000000;stroke-width:1.0;" x1="550.5" x2="839.5" y1="761.9766" y2="761.9766"/><text fill="#000000" font-family="sans-serif" font-size="14" font-weight="bold" lengthAdjust="spacing" textLength="94" x="555.5" y="777.5117">ratio_percent</text><text fill="#000000" font-family="sans-serif" font-size="14" lengthAdjust="spacing" textLength="175" x="659.5" y="777.5117">0.040787192821454064</text><line style="stroke:#000000;stroke-width:1.0;" x1="654.5" x2="654.5" y1="761.9766" y2="782.4648"/><rect fill="none" height="61.4648" rx="5" ry="5" style="stroke:#000000;stroke-width:1.5;" width="289" x="550.5" y="721"/><path d="M235,315.5 L248,315.5 C268.8273,315.5 265.6143,295.285 284,285.5 C288.4187,283.1484 293.0447,280.9598 297.7859,278.9261 " fill="none" style="stroke:#000000;stroke-width:1.0;stroke-dasharray:3.0,3.0;"/><path d="M298.9339,281.7334 L299.8914,278.0652 L296.638,276.1189 L304.804,276.0563 L298.9339,281.7334 " fill="#000000" style="stroke:#000000;stroke-width:1.0;"/><ellipse cx="235" cy="315.5" fill="#000000" rx="3" ry="3" style="stroke:#000000;stroke-width:1.0;"/><path d="M388,303.5 L401,303.5 C442.2281,303.5 463.1738,314.9755 492,285.5 C556.9848,219.0516 464.1813,147.0692 528,79.5 C534.0089,73.1379 540.8415,67.7239 548.2285,63.1239 " fill="none" style="stroke:#000000;stroke-width:1.0;stroke-dasharray:3.0,3.0;"/><path d="M549.8282,65.8967 L550.3081,61.9241 L546.6287,60.3511 L555.1605,59.1245 L549.8282,65.8967 " fill="#000000" style="stroke:#000000;stroke-width:1.0;"/><ellipse cx="388" cy="303.5" fill="#000000" rx="3" ry="3" style="stroke:#000000;stroke-width:1.0;"/><path d="M388,324.5 L401,324.5 C445.0022,324.5 462.9505,318.5503 492,285.5 C530.7318,241.4339 485.5694,199.0169 528,158.5 C534.1647,152.6133 541.0409,147.5565 548.3914,143.2174 " fill="none" style="stroke:#000000;stroke-width:1.0;stroke-dasharray:3.0,3.0;"/><path d="M549.906,145.9683 L550.4546,142.0816 L546.8769,140.4666 L555.2685,139.4312 L549.906,145.9683 " fill="#000000" style="stroke:#000000;stroke-width:1.0;"/><ellipse cx="388" cy="324.5" fill="#000000" rx="3" ry="3" style="stroke:#000000;stroke-width:1.0;"/><path d="M388,344.5 L401,344.5 C449.2012,344.5 456.773,318.4001 492,285.5 C511.4889,267.2985 505.6752,252.0848 528,237.5 C530.4428,235.9042 532.9433,234.3734 535.4937,232.905 " fill="none" style="stroke:#000000;stroke-width:1.0;stroke-dasharray:3.0,3.0;"/><path d="M536.9909,235.6497 L537.5523,231.7821 L533.9966,230.1602 L542.3556,229.162 L536.9909,235.6497 " fill="#000000" style="stroke:#000000;stroke-width:1.0;"/><ellipse cx="388" cy="344.5" fill="#000000" rx="3" ry="3" style="stroke:#000000;stroke-width:1.0;"/><path d="M388,365.5 L401,365.5 C461.3414,365.5 470.3281,335.2493 528,317.5 C536.3243,314.9381 544.9239,312.4387 553.6268,310.021 " fill="none" style="stroke:#000000;stroke-width:1.0;stroke-dasharray:3.0,3.0;"/><path d="M554.4312,312.9534 L555.826,309.4177 L552.8223,307.0887 L560.9577,308.0099 L554.4312,312.9534 " fill="#000000" style="stroke:#000000;stroke-width:1.0;"/><ellipse cx="388" cy="365.5" fill="#000000" rx="3" ry="3" style="stroke:#000000;stroke-width:1.0;"/><path d="M388,385.5 L401,385.5 C448.8738,385.5 500.9281,381.6317 547.7234,376.7207 " fill="none" style="stroke:#000000;stroke-width:1.0;stroke-dasharray:3.0,3.0;"/><path d="M548.0421,379.7062 L549.9626,376.4816 L547.4048,373.7352 L555.1872,375.9239 L548.0421,379.7062 " fill="#000000" style="stroke:#000000;stroke-width:1.0;"/><ellipse cx="388" cy="385.5" fill="#000000" rx="3" ry="3" style="stroke:#000000;stroke-width:1.0;"/><path d="M388,406.5 L401,406.5 C448.8738,406.5 500.9281,410.3683 547.7234,415.2793 " fill="none" style="stroke:#000000;stroke-width:1.0;stroke-dasharray:3.0,3.0;"/><path d="M547.4048,418.2648 L549.9626,415.5184 L548.0421,412.2938 L555.1872,416.0761 L547.4048,418.2648 " fill="#000000" style="stroke:#000000;stroke-width:1.0;"/><ellipse cx="388" cy="406.5" fill="#000000" rx="3" ry="3" style="stroke:#000000;stroke-width:1.0;"/><path d="M388,427.5 L401,427.5 C461.3414,427.5 470.2779,457.9147 528,475.5 C535.1355,477.6739 542.4741,479.7967 549.9073,481.8575 " fill="none" style="stroke:#000000;stroke-width:1.0;stroke-dasharray:3.0,3.0;"/><path d="M549.0914,484.8418 L552.1455,482.4695 L550.7233,478.8732 L557.368,483.8973 L549.0914,484.8418 " fill="#000000" style="stroke:#000000;stroke-width:1.0;"/><ellipse cx="388" cy="427.5" fill="#000000" rx="3" ry="3" style="stroke:#000000;stroke-width:1.0;"/><path d="M388,447.5 L401,447.5 C474.8072,447.5 462.0332,521.3959 528,554.5 C534.3331,557.6782 540.9326,560.6027 547.6937,563.2933 " fill="none" style="stroke:#000000;stroke-width:1.0;stroke-dasharray:3.0,3.0;"/><path d="M546.5622,566.2513 L549.9122,564.1419 L548.8252,560.3353 L555.0887,566.122 L546.5622,566.2513 " fill="#000000" style="stroke:#000000;stroke-width:1.0;"/><ellipse cx="388" cy="447.5" fill="#000000" rx="3" ry="3" style="stroke:#000000;stroke-width:1.0;"/><path d="M388,468.5 L401,468.5 C493.5405,468.5 450.2125,583.3717 528,633.5 C534.3637,637.6009 541.1116,641.2718 548.1041,644.5577 " fill="none" style="stroke:#000000;stroke-width:1.0;stroke-dasharray:3.0,3.0;"/><path d="M546.8404,647.3852 L550.2248,645.5054 L549.3678,641.7301 L555.173,647.7169 L546.8404,647.3852 " fill="#000000" style="stroke:#000000;stroke-width:1.0;"/><ellipse cx="388" cy="468.5" fill="#000000" rx="3" ry="3" style="stroke:#000000;stroke-width:1.0;"/><path d="M388,488.5 L401,488.5 C515.4434,488.5 436.3803,643.9207 528,712.5 C533.1249,716.3361 538.5677,719.8027 544.2386,722.9348 " fill="none" style="stroke:#000000;stroke-width:1.0;stroke-dasharray:3.0,3.0;"/><path d="M542.8285,725.6373 L546.2655,723.9923 L545.6486,720.2322 L550.9949,726.46 L542.8285,725.6373 " fill="#000000" style="stroke:#000000;stroke-width:1.0;"/><ellipse cx="388" cy="488.5" fill="#000000" rx="3" ry="3" style="stroke:#000000;stroke-width:1.0;"/><path d="M235,336.5 L248,336.5 C295.0497,336.5 344.2629,365.8357 369.6101,383.482 " fill="none" style="stroke:#000000;stroke-width:1.0;stroke-dasharray:3.0,3.0;"/><path d="M367.8416,385.964 L371.4716,384.8085 L371.3787,381.0001 L375.815,387.9035 L367.8416,385.964 " fill="#000000" style="stroke:#000000;stroke-width:1.0;"/><ellipse cx="235" cy="336.5" fill="#000000" rx="3" ry="3" style="stroke:#000000;stroke-width:1.0;"/><!--MD5=[968191139ca26d7e1a20d16e4e2a4b1d]
@startjson
{
    "field1": "AddressLine1",
    "combination": "AddressLine1",
    "null_distribution": {
        "total_null_rows": 0,
        "total_not_null_rows": 19614
    },
    "data_distribution": [
        {
            "field_value": "Attach\u00e9 de Presse",
            "row_count": 17,
            "ratio_percent": 0.08667278474558988
        },
        {
            "field_value": "Midi-Couleurs",
            "row_count": 15,
            "ratio_percent": 0.07647598654022637
        },
        {
            "field_value": "88, avenue de l\u00b4 Union Centrale",
            "row_count": 13,
            "ratio_percent": 0.06627918833486285
        },
        {
            "field_value": "6, route de Marseille",
            "row_count": 12,
            "ratio_percent": 0.06118078923218109
        },
        {
            "field_value": "Helsenbergbogen 6",
            "row_count": 10,
            "ratio_percent": 0.05098399102681758
        },
        {
            "field_value": "Im Himmelsweg 89",
            "row_count": 10,
            "ratio_percent": 0.05098399102681758
        },
        {
            "field_value": "11, quai de l\u00b4 Iton",
            "row_count": 9,
            "ratio_percent": 0.04588559192413582
        },
        {
            "field_value": "Postfach 22 99 99",
            "row_count": 9,
            "ratio_percent": 0.04588559192413582
        },
        {
            "field_value": "Werftstr 54",
            "row_count": 9,
            "ratio_percent": 0.04588559192413582
        },
        {
            "field_value": "2, route de Marseille",
            "row_count": 8,
            "ratio_percent": 0.040787192821454064
        }
    ]
}
@endjson

PlantUML version 1.2022.5(Sat Apr 30 06:55:52 EDT 2022)
(GPL source distribution)
Java Runtime: OpenJDK Runtime Environment
JVM: OpenJDK 64-Bit Server VM
Default Encoding: UTF-8
Language: en
Country: CA
--></g></svg>