<?xml version="1.0" encoding="UTF-8" standalone="no"?><svg xmlns="http://www.w3.org/2000/svg" xmlns:xlink="http://www.w3.org/1999/xlink" contentStyleType="text/css" height="794px" preserveAspectRatio="none" style="width:1060px;height:794px;background:#FFFFFF;" version="1.1" viewBox="0 0 1060 794" width="1060px" zoomAndPan="magnify"><defs/><g><rect fill="#F1F1F1" height="81.9531" rx="5" ry="5" style="stroke:#F1F1F1;stroke-width:1.5;" width="222" x="10" y="264.5"/><text fill="#000000" font-family="sans-serif" font-size="14" font-weight="bold" lengthAdjust="spacing" textLength="42" x="15" y="280.0352">field1</text><text fill="#000000" font-family="sans-serif" font-size="14" lengthAdjust="spacing" textLength="78" x="149" y="280.0352">Description</text><line style="stroke:#000000;stroke-width:1.0;" x1="144" x2="144" y1="264.5" y2="284.9883"/><line style="stroke:#000000;stroke-width:1.0;" x1="10" x2="232" y1="284.9883" y2="284.9883"/><text fill="#000000" font-family="sans-serif" font-size="14" font-weight="bold" lengthAdjust="spacing" textLength="90" x="15" y="300.5234">combination</text><text fill="#000000" font-family="sans-serif" font-size="14" lengthAdjust="spacing" textLength="78" x="149" y="300.5234">Description</text><line style="stroke:#000000;stroke-width:1.0;" x1="144" x2="144" y1="284.9883" y2="305.4766"/><line style="stroke:#000000;stroke-width:1.0;" x1="10" x2="232" y1="305.4766" y2="305.4766"/><text fill="#000000" font-family="sans-serif" font-size="14" font-weight="bold" lengthAdjust="spacing" textLength="121" x="15" y="321.0117">null_distribution</text><text fill="#000000" font-family="sans-serif" font-size="14" lengthAdjust="spacing" textLength="12" x="149" y="321.0117">   </text><line style="stroke:#000000;stroke-width:1.0;" x1="144" x2="144" y1="305.4766" y2="325.9648"/><line style="stroke:#000000;stroke-width:1.0;" x1="10" x2="232" y1="325.9648" y2="325.9648"/><text fill="#000000" font-family="sans-serif" font-size="14" font-weight="bold" lengthAdjust="spacing" textLength="124" x="15" y="341.5">data_distribution</text><text fill="#000000" font-family="sans-serif" font-size="14" lengthAdjust="spacing" textLength="12" x="149" y="341.5">   </text><line style="stroke:#000000;stroke-width:1.0;" x1="144" x2="144" y1="325.9648" y2="346.4531"/><rect fill="none" height="81.9531" rx="5" ry="5" style="stroke:#000000;stroke-width:1.5;" width="222" x="10" y="264.5"/><rect fill="#F1F1F1" height="40.9766" rx="5" ry="5" style="stroke:#F1F1F1;stroke-width:1.5;" width="189" x="269" y="235"/><text fill="#000000" font-family="sans-serif" font-size="14" font-weight="bold" lengthAdjust="spacing" textLength="111" x="274" y="250.5352">total_null_rows</text><text fill="#000000" font-family="sans-serif" font-size="14" lengthAdjust="spacing" textLength="9" x="426" y="250.5352">0</text><line style="stroke:#000000;stroke-width:1.0;" x1="421" x2="421" y1="235" y2="255.4883"/><line style="stroke:#000000;stroke-width:1.0;" x1="269" x2="458" y1="255.4883" y2="255.4883"/><text fill="#000000" font-family="sans-serif" font-size="14" font-weight="bold" lengthAdjust="spacing" textLength="142" x="274" y="271.0234">total_not_null_rows</text><text fill="#000000" font-family="sans-serif" font-size="14" lengthAdjust="spacing" textLength="27" x="426" y="271.0234">762</text><line style="stroke:#000000;stroke-width:1.0;" x1="421" x2="421" y1="255.4883" y2="275.9766"/><rect fill="none" height="40.9766" rx="5" ry="5" style="stroke:#000000;stroke-width:1.5;" width="189" x="269" y="235"/><rect fill="#F1F1F1" height="204.8828" rx="5" ry="5" style="stroke:#F1F1F1;stroke-width:1.5;" width="22" x="351.5" y="294"/><text fill="#000000" font-family="sans-serif" font-size="14" lengthAdjust="spacing" textLength="12" x="356.5" y="309.5352">   </text><line style="stroke:#000000;stroke-width:1.0;" x1="351.5" x2="373.5" y1="314.4883" y2="314.4883"/><text fill="#000000" font-family="sans-serif" font-size="14" lengthAdjust="spacing" textLength="12" x="356.5" y="330.0234">   </text><line style="stroke:#000000;stroke-width:1.0;" x1="351.5" x2="373.5" y1="334.9766" y2="334.9766"/><text fill="#000000" font-family="sans-serif" font-size="14" lengthAdjust="spacing" textLength="12" x="356.5" y="350.5117">   </text><line style="stroke:#000000;stroke-width:1.0;" x1="351.5" x2="373.5" y1="355.4648" y2="355.4648"/><text fill="#000000" font-family="sans-serif" font-size="14" lengthAdjust="spacing" textLength="12" x="356.5" y="371">   </text><line style="stroke:#000000;stroke-width:1.0;" x1="351.5" x2="373.5" y1="375.9531" y2="375.9531"/><text fill="#000000" font-family="sans-serif" font-size="14" lengthAdjust="spacing" textLength="12" x="356.5" y="391.4883">   </text><line style="stroke:#000000;stroke-width:1.0;" x1="351.5" x2="373.5" y1="396.4414" y2="396.4414"/><text fill="#000000" font-family="sans-serif" font-size="14" lengthAdjust="spacing" textLength="12" x="356.5" y="411.9766">   </text><line style="stroke:#000000;stroke-width:1.0;" x1="351.5" x2="373.5" y1="416.9297" y2="416.9297"/><text fill="#000000" font-family="sans-serif" font-size="14" lengthAdjust="spacing" textLength="12" x="356.5" y="432.4648">   </text><line style="stroke:#000000;stroke-width:1.0;" x1="351.5" x2="373.5" y1="437.418" y2="437.418"/><text fill="#000000" font-family="sans-serif" font-size="14" lengthAdjust="spacing" textLength="12" x="356.5" y="452.9531">   </text><line style="stroke:#000000;stroke-width:1.0;" x1="351.5" x2="373.5" y1="457.9063" y2="457.9063"/><text fill="#000000" font-family="sans-serif" font-size="14" lengthAdjust="spacing" textLength="12" x="356.5" y="473.4414">   </text><line style="stroke:#000000;stroke-width:1.0;" x1="351.5" x2="373.5" y1="478.3945" y2="478.3945"/><text fill="#000000" font-family="sans-serif" font-size="14" lengthAdjust="spacing" textLength="12" x="356.5" y="493.9297">   </text><rect fill="none" height="204.8828" rx="5" ry="5" style="stroke:#000000;stroke-width:1.5;" width="22" x="351.5" y="294"/><rect fill="#F1F1F1" height="61.4648" rx="5" ry="5" style="stroke:#F1F1F1;stroke-width:1.5;" width="285" x="629" y="10"/><text fill="#000000" font-family="sans-serif" font-size="14" font-weight="bold" lengthAdjust="spacing" textLength="78" x="634" y="25.5352">field_value</text><text fill="#000000" font-family="sans-serif" font-size="14" lengthAdjust="spacing" textLength="171" x="738" y="25.5352">Conception liaison large.</text><line style="stroke:#000000;stroke-width:1.0;" x1="733" x2="733" y1="10" y2="30.4883"/><line style="stroke:#000000;stroke-width:1.0;" x1="629" x2="914" y1="30.4883" y2="30.4883"/><text fill="#000000" font-family="sans-serif" font-size="14" font-weight="bold" lengthAdjust="spacing" textLength="74" x="634" y="46.0234">row_count</text><text fill="#000000" font-family="sans-serif" font-size="14" lengthAdjust="spacing" textLength="9" x="738" y="46.0234">2</text><line style="stroke:#000000;stroke-width:1.0;" x1="733" x2="733" y1="30.4883" y2="50.9766"/><line style="stroke:#000000;stroke-width:1.0;" x1="629" x2="914" y1="50.9766" y2="50.9766"/><text fill="#000000" font-family="sans-serif" font-size="14" font-weight="bold" lengthAdjust="spacing" textLength="94" x="634" y="66.5117">ratio_percent</text><text fill="#000000" font-family="sans-serif" font-size="14" lengthAdjust="spacing" textLength="166" x="738" y="66.5117">0.26246719160104987</text><line style="stroke:#000000;stroke-width:1.0;" x1="733" x2="733" y1="50.9766" y2="71.4648"/><rect fill="none" height="61.4648" rx="5" ry="5" style="stroke:#000000;stroke-width:1.5;" width="285" x="629" y="10"/><rect fill="#F1F1F1" height="61.4648" rx="5" ry="5" style="stroke:#F1F1F1;stroke-width:1.5;" width="449" x="547" y="89"/><text fill="#000000" font-family="sans-serif" font-size="14" font-weight="bold" lengthAdjust="spacing" textLength="78" x="552" y="104.5352">field_value</text><text fill="#000000" font-family="sans-serif" font-size="14" lengthAdjust="spacing" textLength="335" x="656" y="104.5352">High-performance mountain replacement wheel.</text><line style="stroke:#000000;stroke-width:1.0;" x1="651" x2="651" y1="89" y2="109.4883"/><line style="stroke:#000000;stroke-width:1.0;" x1="547" x2="996" y1="109.4883" y2="109.4883"/><text fill="#000000" font-family="sans-serif" font-size="14" font-weight="bold" lengthAdjust="spacing" textLength="74" x="552" y="125.0234">row_count</text><text fill="#000000" font-family="sans-serif" font-size="14" lengthAdjust="spacing" textLength="9" x="656" y="125.0234">2</text><line style="stroke:#000000;stroke-width:1.0;" x1="651" x2="651" y1="109.4883" y2="129.9766"/><line style="stroke:#000000;stroke-width:1.0;" x1="547" x2="996" y1="129.9766" y2="129.9766"/><text fill="#000000" font-family="sans-serif" font-size="14" font-weight="bold" lengthAdjust="spacing" textLength="94" x="552" y="145.5117">ratio_percent</text><text fill="#000000" font-family="sans-serif" font-size="14" lengthAdjust="spacing" textLength="166" x="656" y="145.5117">0.26246719160104987</text><line style="stroke:#000000;stroke-width:1.0;" x1="651" x2="651" y1="129.9766" y2="150.4648"/><rect fill="none" height="61.4648" rx="5" ry="5" style="stroke:#000000;stroke-width:1.5;" width="449" x="547" y="89"/><rect fill="#F1F1F1" height="61.4648" rx="5" ry="5" style="stroke:#F1F1F1;stroke-width:1.5;" width="459" x="542" y="168"/><text fill="#000000" font-family="sans-serif" font-size="14" font-weight="bold" lengthAdjust="spacing" textLength="78" x="547" y="183.5352">field_value</text><text fill="#000000" font-family="sans-serif" font-size="14" lengthAdjust="spacing" textLength="345" x="651" y="183.5352">Replacement mountain wheel for entry-level rider.</text><line style="stroke:#000000;stroke-width:1.0;" x1="646" x2="646" y1="168" y2="188.4883"/><line style="stroke:#000000;stroke-width:1.0;" x1="542" x2="1001" y1="188.4883" y2="188.4883"/><text fill="#000000" font-family="sans-serif" font-size="14" font-weight="bold" lengthAdjust="spacing" textLength="74" x="547" y="204.0234">row_count</text><text fill="#000000" font-family="sans-serif" font-size="14" lengthAdjust="spacing" textLength="9" x="651" y="204.0234">2</text><line style="stroke:#000000;stroke-width:1.0;" x1="646" x2="646" y1="188.4883" y2="208.9766"/><line style="stroke:#000000;stroke-width:1.0;" x1="542" x2="1001" y1="208.9766" y2="208.9766"/><text fill="#000000" font-family="sans-serif" font-size="14" font-weight="bold" lengthAdjust="spacing" textLength="94" x="547" y="224.5117">ratio_percent</text><text fill="#000000" font-family="sans-serif" font-size="14" lengthAdjust="spacing" textLength="166" x="651" y="224.5117">0.26246719160104987</text><line style="stroke:#000000;stroke-width:1.0;" x1="646" x2="646" y1="208.9766" y2="229.4648"/><rect fill="none" height="61.4648" rx="5" ry="5" style="stroke:#000000;stroke-width:1.5;" width="459" x="542" y="168"/><rect fill="#F1F1F1" height="61.4648" rx="5" ry="5" style="stroke:#F1F1F1;stroke-width:1.5;" width="526" x="508.5" y="247"/><text fill="#000000" font-family="sans-serif" font-size="14" font-weight="bold" lengthAdjust="spacing" textLength="78" x="513.5" y="262.5352">field_value</text><text fill="#000000" font-family="sans-serif" font-size="14" lengthAdjust="spacing" textLength="412" x="617.5" y="262.5352">Replacement mountain wheel for the casual to serious rider.</text><line style="stroke:#000000;stroke-width:1.0;" x1="612.5" x2="612.5" y1="247" y2="267.4883"/><line style="stroke:#000000;stroke-width:1.0;" x1="508.5" x2="1034.5" y1="267.4883" y2="267.4883"/><text fill="#000000" font-family="sans-serif" font-size="14" font-weight="bold" lengthAdjust="spacing" textLength="74" x="513.5" y="283.0234">row_count</text><text fill="#000000" font-family="sans-serif" font-size="14" lengthAdjust="spacing" textLength="9" x="617.5" y="283.0234">2</text><line style="stroke:#000000;stroke-width:1.0;" x1="612.5" x2="612.5" y1="267.4883" y2="287.9766"/><line style="stroke:#000000;stroke-width:1.0;" x1="508.5" x2="1034.5" y1="287.9766" y2="287.9766"/><text fill="#000000" font-family="sans-serif" font-size="14" font-weight="bold" lengthAdjust="spacing" textLength="94" x="513.5" y="303.5117">ratio_percent</text><text fill="#000000" font-family="sans-serif" font-size="14" lengthAdjust="spacing" textLength="166" x="617.5" y="303.5117">0.26246719160104987</text><line style="stroke:#000000;stroke-width:1.0;" x1="612.5" x2="612.5" y1="287.9766" y2="308.4648"/><rect fill="none" height="61.4648" rx="5" ry="5" style="stroke:#000000;stroke-width:1.5;" width="526" x="508.5" y="247"/><rect fill="#F1F1F1" height="61.4648" rx="5" ry="5" style="stroke:#F1F1F1;stroke-width:1.5;" width="500" x="521.5" y="326"/><text fill="#000000" font-family="sans-serif" font-size="14" font-weight="bold" lengthAdjust="spacing" textLength="78" x="526.5" y="341.5352">field_value</text><text fill="#000000" font-family="sans-serif" font-size="14" lengthAdjust="spacing" textLength="386" x="630.5" y="341.5352">Roue avant pour vélo de route pour cycliste occasionnel.</text><line style="stroke:#000000;stroke-width:1.0;" x1="625.5" x2="625.5" y1="326" y2="346.4883"/><line style="stroke:#000000;stroke-width:1.0;" x1="521.5" x2="1021.5" y1="346.4883" y2="346.4883"/><text fill="#000000" font-family="sans-serif" font-size="14" font-weight="bold" lengthAdjust="spacing" textLength="74" x="526.5" y="362.0234">row_count</text><text fill="#000000" font-family="sans-serif" font-size="14" lengthAdjust="spacing" textLength="9" x="630.5" y="362.0234">2</text><line style="stroke:#000000;stroke-width:1.0;" x1="625.5" x2="625.5" y1="346.4883" y2="366.9766"/><line style="stroke:#000000;stroke-width:1.0;" x1="521.5" x2="1021.5" y1="366.9766" y2="366.9766"/><text fill="#000000" font-family="sans-serif" font-size="14" font-weight="bold" lengthAdjust="spacing" textLength="94" x="526.5" y="382.5117">ratio_percent</text><text fill="#000000" font-family="sans-serif" font-size="14" lengthAdjust="spacing" textLength="166" x="630.5" y="382.5117">0.26246719160104987</text><line style="stroke:#000000;stroke-width:1.0;" x1="625.5" x2="625.5" y1="366.9766" y2="387.4648"/><rect fill="none" height="61.4648" rx="5" ry="5" style="stroke:#000000;stroke-width:1.5;" width="500" x="521.5" y="326"/><rect fill="#F1F1F1" height="61.4648" rx="5" ry="5" style="stroke:#F1F1F1;stroke-width:1.5;" width="466" x="538.5" y="405"/><text fill="#000000" font-family="sans-serif" font-size="14" font-weight="bold" lengthAdjust="spacing" textLength="78" x="543.5" y="420.5352">field_value</text><text fill="#000000" font-family="sans-serif" font-size="14" lengthAdjust="spacing" textLength="352" x="647.5" y="420.5352">Roue de secours tout-terrain hautes performances.</text><line style="stroke:#000000;stroke-width:1.0;" x1="642.5" x2="642.5" y1="405" y2="425.4883"/><line style="stroke:#000000;stroke-width:1.0;" x1="538.5" x2="1004.5" y1="425.4883" y2="425.4883"/><text fill="#000000" font-family="sans-serif" font-size="14" font-weight="bold" lengthAdjust="spacing" textLength="74" x="543.5" y="441.0234">row_count</text><text fill="#000000" font-family="sans-serif" font-size="14" lengthAdjust="spacing" textLength="9" x="647.5" y="441.0234">2</text><line style="stroke:#000000;stroke-width:1.0;" x1="642.5" x2="642.5" y1="425.4883" y2="445.9766"/><line style="stroke:#000000;stroke-width:1.0;" x1="538.5" x2="1004.5" y1="445.9766" y2="445.9766"/><text fill="#000000" font-family="sans-serif" font-size="14" font-weight="bold" lengthAdjust="spacing" textLength="94" x="543.5" y="461.5117">ratio_percent</text><text fill="#000000" font-family="sans-serif" font-size="14" lengthAdjust="spacing" textLength="166" x="647.5" y="461.5117">0.26246719160104987</text><line style="stroke:#000000;stroke-width:1.0;" x1="642.5" x2="642.5" y1="445.9766" y2="466.4648"/><rect fill="none" height="61.4648" rx="5" ry="5" style="stroke:#000000;stroke-width:1.5;" width="466" x="538.5" y="405"/><rect fill="#F1F1F1" height="61.4648" rx="5" ry="5" style="stroke:#F1F1F1;stroke-width:1.5;" width="553" x="495" y="484"/><text fill="#000000" font-family="sans-serif" font-size="14" font-weight="bold" lengthAdjust="spacing" textLength="78" x="500" y="499.5352">field_value</text><text fill="#000000" font-family="sans-serif" font-size="14" lengthAdjust="spacing" textLength="439" x="604" y="499.5352">Roue de secours tout-terrain pour vététiste amateur à confirmé.</text><line style="stroke:#000000;stroke-width:1.0;" x1="599" x2="599" y1="484" y2="504.4883"/><line style="stroke:#000000;stroke-width:1.0;" x1="495" x2="1048" y1="504.4883" y2="504.4883"/><text fill="#000000" font-family="sans-serif" font-size="14" font-weight="bold" lengthAdjust="spacing" textLength="74" x="500" y="520.0234">row_count</text><text fill="#000000" font-family="sans-serif" font-size="14" lengthAdjust="spacing" textLength="9" x="604" y="520.0234">2</text><line style="stroke:#000000;stroke-width:1.0;" x1="599" x2="599" y1="504.4883" y2="524.9766"/><line style="stroke:#000000;stroke-width:1.0;" x1="495" x2="1048" y1="524.9766" y2="524.9766"/><text fill="#000000" font-family="sans-serif" font-size="14" font-weight="bold" lengthAdjust="spacing" textLength="94" x="500" y="540.5117">ratio_percent</text><text fill="#000000" font-family="sans-serif" font-size="14" lengthAdjust="spacing" textLength="166" x="604" y="540.5117">0.26246719160104987</text><line style="stroke:#000000;stroke-width:1.0;" x1="599" x2="599" y1="524.9766" y2="545.4648"/><rect fill="none" height="61.4648" rx="5" ry="5" style="stroke:#000000;stroke-width:1.5;" width="553" x="495" y="484"/><rect fill="#F1F1F1" height="61.4648" rx="5" ry="5" style="stroke:#F1F1F1;stroke-width:1.5;" width="500" x="521.5" y="563"/><text fill="#000000" font-family="sans-serif" font-size="14" font-weight="bold" lengthAdjust="spacing" textLength="78" x="526.5" y="578.5352">field_value</text><text fill="#000000" font-family="sans-serif" font-size="14" lengthAdjust="spacing" textLength="386" x="630.5" y="578.5352">Roue de secours tout-terrain pour vététiste occasionnel.</text><line style="stroke:#000000;stroke-width:1.0;" x1="625.5" x2="625.5" y1="563" y2="583.4883"/><line style="stroke:#000000;stroke-width:1.0;" x1="521.5" x2="1021.5" y1="583.4883" y2="583.4883"/><text fill="#000000" font-family="sans-serif" font-size="14" font-weight="bold" lengthAdjust="spacing" textLength="74" x="526.5" y="599.0234">row_count</text><text fill="#000000" font-family="sans-serif" font-size="14" lengthAdjust="spacing" textLength="9" x="630.5" y="599.0234">2</text><line style="stroke:#000000;stroke-width:1.0;" x1="625.5" x2="625.5" y1="583.4883" y2="603.9766"/><line style="stroke:#000000;stroke-width:1.0;" x1="521.5" x2="1021.5" y1="603.9766" y2="603.9766"/><text fill="#000000" font-family="sans-serif" font-size="14" font-weight="bold" lengthAdjust="spacing" textLength="94" x="526.5" y="619.5117">ratio_percent</text><text fill="#000000" font-family="sans-serif" font-size="14" lengthAdjust="spacing" textLength="166" x="630.5" y="619.5117">0.26246719160104987</text><line style="stroke:#000000;stroke-width:1.0;" x1="625.5" x2="625.5" y1="603.9766" y2="624.4648"/><rect fill="none" height="61.4648" rx="5" ry="5" style="stroke:#000000;stroke-width:1.5;" width="500" x="521.5" y="563"/><rect fill="#F1F1F1" height="61.4648" rx="5" ry="5" style="stroke:#F1F1F1;stroke-width:1.5;" width="280" x="631.5" y="642"/><text fill="#000000" font-family="sans-serif" font-size="14" font-weight="bold" lengthAdjust="spacing" textLength="78" x="636.5" y="657.5352">field_value</text><text fill="#000000" font-family="sans-serif" font-size="14" lengthAdjust="spacing" textLength="120" x="740.5" y="657.5352">Wide-link design.</text><line style="stroke:#000000;stroke-width:1.0;" x1="735.5" x2="735.5" y1="642" y2="662.4883"/><line style="stroke:#000000;stroke-width:1.0;" x1="631.5" x2="911.5" y1="662.4883" y2="662.4883"/><text fill="#000000" font-family="sans-serif" font-size="14" font-weight="bold" lengthAdjust="spacing" textLength="74" x="636.5" y="678.0234">row_count</text><text fill="#000000" font-family="sans-serif" font-size="14" lengthAdjust="spacing" textLength="9" x="740.5" y="678.0234">2</text><line style="stroke:#000000;stroke-width:1.0;" x1="735.5" x2="735.5" y1="662.4883" y2="682.9766"/><line style="stroke:#000000;stroke-width:1.0;" x1="631.5" x2="911.5" y1="682.9766" y2="682.9766"/><text fill="#000000" font-family="sans-serif" font-size="14" font-weight="bold" lengthAdjust="spacing" textLength="94" x="636.5" y="698.5117">ratio_percent</text><text fill="#000000" font-family="sans-serif" font-size="14" lengthAdjust="spacing" textLength="166" x="740.5" y="698.5117">0.26246719160104987</text><line style="stroke:#000000;stroke-width:1.0;" x1="735.5" x2="735.5" y1="682.9766" y2="703.4648"/><rect fill="none" height="61.4648" rx="5" ry="5" style="stroke:#000000;stroke-width:1.5;" width="280" x="631.5" y="642"/><rect fill="#F1F1F1" height="61.4648" rx="5" ry="5" style="stroke:#F1F1F1;stroke-width:1.5;" width="408.998" x="567" y="721"/><text fill="#000000" font-family="sans-serif" font-size="14" font-weight="bold" lengthAdjust="spacing" textLength="78" x="572" y="736.5352">field_value</text><text fill="#000000" font-family="sans-serif" font-size="14" lengthAdjust="spacing" textLength="294.998" x="676" y="736.5352">גלגל חלופי לרכיבה הררית לרוכב החובב והרציני.</text><line style="stroke:#000000;stroke-width:1.0;" x1="671" x2="671" y1="721" y2="741.4883"/><line style="stroke:#000000;stroke-width:1.0;" x1="567" x2="975.998" y1="741.4883" y2="741.4883"/><text fill="#000000" font-family="sans-serif" font-size="14" font-weight="bold" lengthAdjust="spacing" textLength="74" x="572" y="757.0234">row_count</text><text fill="#000000" font-family="sans-serif" font-size="14" lengthAdjust="spacing" textLength="9" x="676" y="757.0234">2</text><line style="stroke:#000000;stroke-width:1.0;" x1="671" x2="671" y1="741.4883" y2="761.9766"/><line style="stroke:#000000;stroke-width:1.0;" x1="567" x2="975.998" y1="761.9766" y2="761.9766"/><text fill="#000000" font-family="sans-serif" font-size="14" font-weight="bold" lengthAdjust="spacing" textLength="94" x="572" y="777.5117">ratio_percent</text><text fill="#000000" font-family="sans-serif" font-size="14" lengthAdjust="spacing" textLength="166" x="676" y="777.5117">0.26246719160104987</text><line style="stroke:#000000;stroke-width:1.0;" x1="671" x2="671" y1="761.9766" y2="782.4648"/><rect fill="none" height="61.4648" rx="5" ry="5" style="stroke:#000000;stroke-width:1.5;" width="408.998" x="567" y="721"/><path d="M220,315.5 L233,315.5 C253.8273,315.5 250.7406,295.5187 269,285.5 C273.1394,283.2288 277.4771,281.0988 281.9224,279.1061 " fill="none" style="stroke:#000000;stroke-width:1.0;stroke-dasharray:3.0,3.0;"/><path d="M283.1301,281.9305 L284.0407,278.2004 L280.7148,276.2817 L288.9835,276.0871 L283.1301,281.9305 " fill="#000000" style="stroke:#000000;stroke-width:1.0;"/><ellipse cx="220" cy="315.5" fill="#000000" rx="3" ry="3" style="stroke:#000000;stroke-width:1.0;"/><path d="M364,303.5 L377,303.5 C414.3122,303.5 433.1906,312.4458 459,285.5 C523.2901,218.3792 428.2157,144.1396 495,79.5 C528.433,47.1407 575.6845,33.5869 621.6588,29.2774 " fill="none" style="stroke:#000000;stroke-width:1.0;stroke-dasharray:3.0,3.0;"/><path d="M621.913,32.3429 L623.9579,29.0868 L621.4046,26.2119 L629.3225,28.6419 L621.913,32.3429 " fill="#000000" style="stroke:#000000;stroke-width:1.0;"/><ellipse cx="364" cy="303.5" fill="#000000" rx="3" ry="3" style="stroke:#000000;stroke-width:1.0;"/><path d="M364,324.5 L377,324.5 C417.3564,324.5 432.9543,316.3264 459,285.5 C496.864,240.686 450.7953,197.0736 495,158.5 C508.4797,146.7375 523.8218,137.5589 540.2075,130.4632 " fill="none" style="stroke:#000000;stroke-width:1.0;stroke-dasharray:3.0,3.0;"/><path d="M541.3735,133.2968 L542.3327,129.5887 L539.0416,127.6296 L547.2915,127.5483 L541.3735,133.2968 " fill="#000000" style="stroke:#000000;stroke-width:1.0;"/><ellipse cx="364" cy="324.5" fill="#000000" rx="3" ry="3" style="stroke:#000000;stroke-width:1.0;"/><path d="M364,344.5 L377,344.5 C421.8977,344.5 426.9398,316.9316 459,285.5 C478.0419,266.8314 472.0437,251.069 495,237.5 C507.5938,230.056 521.0621,223.8263 535.0225,218.6278 " fill="none" style="stroke:#000000;stroke-width:1.0;stroke-dasharray:3.0,3.0;"/><path d="M536.0727,221.5652 L537.2255,217.8402 L533.9724,215.6905 L542.3658,216.0024 L536.0727,221.5652 " fill="#000000" style="stroke:#000000;stroke-width:1.0;"/><ellipse cx="364" cy="344.5" fill="#000000" rx="3" ry="3" style="stroke:#000000;stroke-width:1.0;"/><path d="M364,365.5 L377,365.5 C433.6174,365.5 440.3609,332.3358 495,317.5 C505.2504,314.7168 515.7708,312.1168 526.4396,309.6892 " fill="none" style="stroke:#000000;stroke-width:1.0;stroke-dasharray:3.0,3.0;"/><path d="M527.1009,312.6525 L528.6621,309.1932 L525.7783,306.7258 L533.8479,308.0359 L527.1009,312.6525 " fill="#000000" style="stroke:#000000;stroke-width:1.0;"/><ellipse cx="364" cy="365.5" fill="#000000" rx="3" ry="3" style="stroke:#000000;stroke-width:1.0;"/><path d="M364,385.5 L377,385.5 C421.4238,385.5 468.5893,383.6437 514.2655,380.8703 " fill="none" style="stroke:#000000;stroke-width:1.0;stroke-dasharray:3.0,3.0;"/><path d="M514.4541,383.9158 L516.5496,380.7289 L514.0769,377.8248 L521.8793,380.3988 L514.4541,383.9158 " fill="#000000" style="stroke:#000000;stroke-width:1.0;"/><ellipse cx="364" cy="385.5" fill="#000000" rx="3" ry="3" style="stroke:#000000;stroke-width:1.0;"/><path d="M364,406.5 L377,406.5 C427.0102,406.5 480.4948,408.8526 531.4179,412.2176 " fill="none" style="stroke:#000000;stroke-width:1.0;stroke-dasharray:3.0,3.0;"/><path d="M531.2164,415.2151 L533.666,412.3687 L531.6193,409.22 L538.9118,412.7212 L531.2164,415.2151 " fill="#000000" style="stroke:#000000;stroke-width:1.0;"/><ellipse cx="364" cy="406.5" fill="#000000" rx="3" ry="3" style="stroke:#000000;stroke-width:1.0;"/><path d="M364,427.5 L377,427.5 C433.6174,427.5 440.3347,460.7612 495,475.5 C503.9406,477.9105 513.0866,480.1786 522.3573,482.3121 " fill="none" style="stroke:#000000;stroke-width:1.0;stroke-dasharray:3.0,3.0;"/><path d="M521.6844,485.2961 L524.5954,482.8167 L523.0303,479.328 L529.8175,483.9943 L521.6844,485.2961 " fill="#000000" style="stroke:#000000;stroke-width:1.0;"/><ellipse cx="364" cy="427.5" fill="#000000" rx="3" ry="3" style="stroke:#000000;stroke-width:1.0;"/><path d="M364,447.5 L377,447.5 C447.7951,447.5 430.9017,524.4441 495,554.5 C501.3549,557.4798 507.8756,560.2472 514.523,562.8166 " fill="none" style="stroke:#000000;stroke-width:1.0;stroke-dasharray:3.0,3.0;"/><path d="M513.4386,565.721 L516.7013,563.6299 L515.6074,559.9122 L521.784,565.5277 L513.4386,565.721 " fill="#000000" style="stroke:#000000;stroke-width:1.0;"/><ellipse cx="364" cy="447.5" fill="#000000" rx="3" ry="3" style="stroke:#000000;stroke-width:1.0;"/><path d="M364,468.5 L377,468.5 C467.1565,468.5 417.9129,586.7478 495,633.5 C533.3324,656.748 580.0652,668.2774 624.0987,673.5252 " fill="none" style="stroke:#000000;stroke-width:1.0;stroke-dasharray:3.0,3.0;"/><path d="M623.7592,676.5704 L626.3826,673.7798 L624.4382,670.48 L631.7117,674.3739 L623.7592,676.5704 " fill="#000000" style="stroke:#000000;stroke-width:1.0;"/><ellipse cx="364" cy="468.5" fill="#000000" rx="3" ry="3" style="stroke:#000000;stroke-width:1.0;"/><path d="M364,488.5 L377,488.5 C489.5243,488.5 402.974,647.7471 495,712.5 C514.5474,726.2543 536.8256,736.1529 560.0533,743.1718 " fill="none" style="stroke:#000000;stroke-width:1.0;stroke-dasharray:3.0,3.0;"/><path d="M559.2186,746.0666 L562.2245,743.7978 L560.8881,740.2769 L567.2905,745.2586 L559.2186,746.0666 " fill="#000000" style="stroke:#000000;stroke-width:1.0;"/><ellipse cx="364" cy="488.5" fill="#000000" rx="3" ry="3" style="stroke:#000000;stroke-width:1.0;"/><path d="M220,336.5 L233,336.5 C276.8518,336.5 322.0003,364.993 345.8339,382.7089 " fill="none" style="stroke:#000000;stroke-width:1.0;stroke-dasharray:3.0,3.0;"/><path d="M343.9625,385.1642 L347.6753,384.1124 L347.7052,380.2536 L351.9721,387.3873 L343.9625,385.1642 " fill="#000000" style="stroke:#000000;stroke-width:1.0;"/><ellipse cx="220" cy="336.5" fill="#000000" rx="3" ry="3" style="stroke:#000000;stroke-width:1.0;"/><!--MD5=[65ab2110df48dfa8b282b7808a378cc8]
@startjson
{
    "field1": "Description",
    "combination": "Description",
    "null_distribution": {
        "total_null_rows": 0,
        "total_not_null_rows": 762
    },
    "data_distribution": [
        {
            "field_value": "Conception liaison large.",
            "row_count": 2,
            "ratio_percent": 0.26246719160104987
        },
        {
            "field_value": "High-performance mountain replacement wheel.",
            "row_count": 2,
            "ratio_percent": 0.26246719160104987
        },
        {
            "field_value": "Replacement mountain wheel for entry-level rider.",
            "row_count": 2,
            "ratio_percent": 0.26246719160104987
        },
        {
            "field_value": "Replacement mountain wheel for the casual to serious rider.",
            "row_count": 2,
            "ratio_percent": 0.26246719160104987
        },
        {
            "field_value": "Roue avant pour v\u00e9lo de route pour cycliste occasionnel.",
            "row_count": 2,
            "ratio_percent": 0.26246719160104987
        },
        {
            "field_value": "Roue de secours tout-terrain hautes performances.",
            "row_count": 2,
            "ratio_percent": 0.26246719160104987
        },
        {
            "field_value": "Roue de secours tout-terrain pour v\u00e9t\u00e9tiste amateur \u00e0 confirm\u00e9.",
            "row_count": 2,
            "ratio_percent": 0.26246719160104987
        },
        {
            "field_value": "Roue de secours tout-terrain pour v\u00e9t\u00e9tiste occasionnel.",
            "row_count": 2,
            "ratio_percent": 0.26246719160104987
        },
        {
            "field_value": "Wide-link design.",
            "row_count": 2,
            "ratio_percent": 0.26246719160104987
        },
        {
            "field_value": "\u05d2\u05dc\u05d2\u05dc \u05d7\u05dc\u05d5\u05e4\u05d9 \u05dc\u05e8\u05db\u05d9\u05d1\u05d4 \u05d4\u05e8\u05e8\u05d9\u05ea \u05dc\u05e8\u05d5\u05db\u05d1 \u05d4\u05d7\u05d5\u05d1\u05d1 \u05d5\u05d4\u05e8\u05e6\u05d9\u05e0\u05d9.",
            "row_count": 2,
            "ratio_percent": 0.26246719160104987
        }
    ]
}
@endjson

PlantUML version 1.2022.5(Sat Apr 30 06:55:52 EDT 2022)
(GPL source distribution)
Java Runtime: OpenJDK Runtime Environment
JVM: OpenJDK 64-Bit Server VM
Default Encoding: UTF-8
Language: en
Country: CA
--></g></svg>