<?xml version="1.0" encoding="UTF-8" standalone="no"?><svg xmlns="http://www.w3.org/2000/svg" xmlns:xlink="http://www.w3.org/1999/xlink" contentStyleType="text/css" height="182px" preserveAspectRatio="none" style="width:822px;height:182px;background:#FFFFFF;" version="1.1" viewBox="0 0 822 182" width="822px" zoomAndPan="magnify"><defs/><g><rect fill="#F1F1F1" height="81.9531" rx="5" ry="5" style="stroke:#F1F1F1;stroke-width:1.5;" width="275" x="10" y="10"/><text fill="#000000" font-family="sans-serif" font-size="14" font-weight="bold" lengthAdjust="spacing" textLength="42" x="15" y="25.5352">field1</text><text fill="#000000" font-family="sans-serif" font-size="14" lengthAdjust="spacing" textLength="131" x="149" y="25.5352">FinishedGoodsFlag</text><line style="stroke:#000000;stroke-width:1.0;" x1="144" x2="144" y1="10" y2="30.4883"/><line style="stroke:#000000;stroke-width:1.0;" x1="10" x2="285" y1="30.4883" y2="30.4883"/><text fill="#000000" font-family="sans-serif" font-size="14" font-weight="bold" lengthAdjust="spacing" textLength="90" x="15" y="46.0234">combination</text><text fill="#000000" font-family="sans-serif" font-size="14" lengthAdjust="spacing" textLength="131" x="149" y="46.0234">FinishedGoodsFlag</text><line style="stroke:#000000;stroke-width:1.0;" x1="144" x2="144" y1="30.4883" y2="50.9766"/><line style="stroke:#000000;stroke-width:1.0;" x1="10" x2="285" y1="50.9766" y2="50.9766"/><text fill="#000000" font-family="sans-serif" font-size="14" font-weight="bold" lengthAdjust="spacing" textLength="121" x="15" y="66.5117">null_distribution</text><text fill="#000000" font-family="sans-serif" font-size="14" lengthAdjust="spacing" textLength="12" x="149" y="66.5117">   </text><line style="stroke:#000000;stroke-width:1.0;" x1="144" x2="144" y1="50.9766" y2="71.4648"/><line style="stroke:#000000;stroke-width:1.0;" x1="10" x2="285" y1="71.4648" y2="71.4648"/><text fill="#000000" font-family="sans-serif" font-size="14" font-weight="bold" lengthAdjust="spacing" textLength="124" x="15" y="87">data_distribution</text><text fill="#000000" font-family="sans-serif" font-size="14" lengthAdjust="spacing" textLength="12" x="149" y="87">   </text><line style="stroke:#000000;stroke-width:1.0;" x1="144" x2="144" y1="71.4648" y2="91.9531"/><rect fill="none" height="81.9531" rx="5" ry="5" style="stroke:#000000;stroke-width:1.5;" width="275" x="10" y="10"/><rect fill="#F1F1F1" height="40.9766" rx="5" ry="5" style="stroke:#F1F1F1;stroke-width:1.5;" width="189" x="322" y="21.5"/><text fill="#000000" font-family="sans-serif" font-size="14" font-weight="bold" lengthAdjust="spacing" textLength="111" x="327" y="37.0352">total_null_rows</text><text fill="#000000" font-family="sans-serif" font-size="14" lengthAdjust="spacing" textLength="9" x="479" y="37.0352">0</text><line style="stroke:#000000;stroke-width:1.0;" x1="474" x2="474" y1="21.5" y2="41.9883"/><line style="stroke:#000000;stroke-width:1.0;" x1="322" x2="511" y1="41.9883" y2="41.9883"/><text fill="#000000" font-family="sans-serif" font-size="14" font-weight="bold" lengthAdjust="spacing" textLength="142" x="327" y="57.5234">total_not_null_rows</text><text fill="#000000" font-family="sans-serif" font-size="14" lengthAdjust="spacing" textLength="27" x="479" y="57.5234">504</text><line style="stroke:#000000;stroke-width:1.0;" x1="474" x2="474" y1="41.9883" y2="62.4766"/><rect fill="none" height="40.9766" rx="5" ry="5" style="stroke:#000000;stroke-width:1.5;" width="189" x="322" y="21.5"/><rect fill="#F1F1F1" height="40.9766" rx="5" ry="5" style="stroke:#F1F1F1;stroke-width:1.5;" width="22" x="404.5" y="80.5"/><text fill="#000000" font-family="sans-serif" font-size="14" lengthAdjust="spacing" textLength="12" x="409.5" y="96.0352">   </text><line style="stroke:#000000;stroke-width:1.0;" x1="404.5" x2="426.5" y1="100.9883" y2="100.9883"/><text fill="#000000" font-family="sans-serif" font-size="14" lengthAdjust="spacing" textLength="12" x="409.5" y="116.5234">   </text><rect fill="none" height="40.9766" rx="5" ry="5" style="stroke:#000000;stroke-width:1.5;" width="22" x="404.5" y="80.5"/><rect fill="#F1F1F1" height="61.4648" rx="5" ry="5" style="stroke:#F1F1F1;stroke-width:1.5;" width="262" x="548" y="30.5"/><text fill="#000000" font-family="sans-serif" font-size="14" font-weight="bold" lengthAdjust="spacing" textLength="78" x="553" y="46.0352">field_value</text><text fill="#000000" font-family="sans-serif" font-size="14" lengthAdjust="spacing" textLength="9" x="657" y="46.0352">1</text><line style="stroke:#000000;stroke-width:1.0;" x1="652" x2="652" y1="30.5" y2="50.9883"/><line style="stroke:#000000;stroke-width:1.0;" x1="548" x2="810" y1="50.9883" y2="50.9883"/><text fill="#000000" font-family="sans-serif" font-size="14" font-weight="bold" lengthAdjust="spacing" textLength="74" x="553" y="66.5234">row_count</text><text fill="#000000" font-family="sans-serif" font-size="14" lengthAdjust="spacing" textLength="27" x="657" y="66.5234">295</text><line style="stroke:#000000;stroke-width:1.0;" x1="652" x2="652" y1="50.9883" y2="71.4766"/><line style="stroke:#000000;stroke-width:1.0;" x1="548" x2="810" y1="71.4766" y2="71.4766"/><text fill="#000000" font-family="sans-serif" font-size="14" font-weight="bold" lengthAdjust="spacing" textLength="94" x="553" y="87.0117">ratio_percent</text><text fill="#000000" font-family="sans-serif" font-size="14" lengthAdjust="spacing" textLength="148" x="657" y="87.0117">58.53174603174603</text><line style="stroke:#000000;stroke-width:1.0;" x1="652" x2="652" y1="71.4766" y2="91.9648"/><rect fill="none" height="61.4648" rx="5" ry="5" style="stroke:#000000;stroke-width:1.5;" width="262" x="548" y="30.5"/><rect fill="#F1F1F1" height="61.4648" rx="5" ry="5" style="stroke:#F1F1F1;stroke-width:1.5;" width="262" x="548" y="109.5"/><text fill="#000000" font-family="sans-serif" font-size="14" font-weight="bold" lengthAdjust="spacing" textLength="78" x="553" y="125.0352">field_value</text><text fill="#000000" font-family="sans-serif" font-size="14" lengthAdjust="spacing" textLength="9" x="657" y="125.0352">0</text><line style="stroke:#000000;stroke-width:1.0;" x1="652" x2="652" y1="109.5" y2="129.9883"/><line style="stroke:#000000;stroke-width:1.0;" x1="548" x2="810" y1="129.9883" y2="129.9883"/><text fill="#000000" font-family="sans-serif" font-size="14" font-weight="bold" lengthAdjust="spacing" textLength="74" x="553" y="145.5234">row_count</text><text fill="#000000" font-family="sans-serif" font-size="14" lengthAdjust="spacing" textLength="27" x="657" y="145.5234">209</text><line style="stroke:#000000;stroke-width:1.0;" x1="652" x2="652" y1="129.9883" y2="150.4766"/><line style="stroke:#000000;stroke-width:1.0;" x1="548" x2="810" y1="150.4766" y2="150.4766"/><text fill="#000000" font-family="sans-serif" font-size="14" font-weight="bold" lengthAdjust="spacing" textLength="94" x="553" y="166.0117">ratio_percent</text><text fill="#000000" font-family="sans-serif" font-size="14" lengthAdjust="spacing" textLength="148" x="657" y="166.0117">41.46825396825397</text><line style="stroke:#000000;stroke-width:1.0;" x1="652" x2="652" y1="150.4766" y2="170.9648"/><rect fill="none" height="61.4648" rx="5" ry="5" style="stroke:#000000;stroke-width:1.5;" width="262" x="548" y="109.5"/><path d="M273,61 L286,61 C295.2689,61 304.8709,60.5212 314.4666,59.7157 " fill="none" style="stroke:#000000;stroke-width:1.0;stroke-dasharray:3.0,3.0;"/><path d="M314.7518,62.7908 L316.7729,59.5018 L314.1813,56.6406 L322.1543,59.0026 L314.7518,62.7908 " fill="#000000" style="stroke:#000000;stroke-width:1.0;"/><ellipse cx="273" cy="61" fill="#000000" rx="3" ry="3" style="stroke:#000000;stroke-width:1.0;"/><path d="M417,90 L430,90 C465.9888,90 504.713,86.9621 540.6319,82.8528 " fill="none" style="stroke:#000000;stroke-width:1.0;stroke-dasharray:3.0,3.0;"/><path d="M540.9889,85.9009 L542.9179,82.5851 L540.2749,79.8048 L548.252,81.9604 L540.9889,85.9009 " fill="#000000" style="stroke:#000000;stroke-width:1.0;"/><ellipse cx="417" cy="90" fill="#000000" rx="3" ry="3" style="stroke:#000000;stroke-width:1.0;"/><path d="M417,111 L430,111 C465.9888,111 504.713,114.0379 540.6319,118.1472 " fill="none" style="stroke:#000000;stroke-width:1.0;stroke-dasharray:3.0,3.0;"/><path d="M540.2749,121.1952 L542.9179,118.4149 L540.9889,115.0991 L548.252,119.0396 L540.2749,121.1952 " fill="#000000" style="stroke:#000000;stroke-width:1.0;"/><ellipse cx="417" cy="111" fill="#000000" rx="3" ry="3" style="stroke:#000000;stroke-width:1.0;"/><path d="M273,82 L286,82 C326.1344,82 372.5128,90.9761 397.5913,96.5892 " fill="none" style="stroke:#000000;stroke-width:1.0;stroke-dasharray:3.0,3.0;"/><path d="M396.9158,99.5328 L399.799,97.0957 L398.2667,93.6455 L404.9503,98.2778 L396.9158,99.5328 " fill="#000000" style="stroke:#000000;stroke-width:1.0;"/><ellipse cx="273" cy="82" fill="#000000" rx="3" ry="3" style="stroke:#000000;stroke-width:1.0;"/><!--MD5=[e9c05331484ca0059374a511d46e7508]
@startjson
{
    "field1": "FinishedGoodsFlag",
    "combination": "FinishedGoodsFlag",
    "null_distribution": {
        "total_null_rows": 0,
        "total_not_null_rows": 504
    },
    "data_distribution": [
        {
            "field_value": "1",
            "row_count": 295,
            "ratio_percent": 58.53174603174603
        },
        {
            "field_value": "0",
            "row_count": 209,
            "ratio_percent": 41.46825396825397
        }
    ]
}
@endjson

PlantUML version 1.2022.5(Sat Apr 30 06:55:52 EDT 2022)
(GPL source distribution)
Java Runtime: OpenJDK Runtime Environment
JVM: OpenJDK 64-Bit Server VM
Default Encoding: UTF-8
Language: en
Country: CA
--></g></svg>