<?xml version="1.0" encoding="UTF-8" standalone="no"?><svg xmlns="http://www.w3.org/2000/svg" xmlns:xlink="http://www.w3.org/1999/xlink" contentStyleType="text/css" height="794px" preserveAspectRatio="none" style="width:790px;height:794px;background:#FFFFFF;" version="1.1" viewBox="0 0 790 794" width="790px" zoomAndPan="magnify"><defs/><g><rect fill="#F1F1F1" height="81.9531" rx="5" ry="5" style="stroke:#F1F1F1;stroke-width:1.5;" width="207" x="10" y="264.5"/><text fill="#000000" font-family="sans-serif" font-size="14" font-weight="bold" lengthAdjust="spacing" textLength="42" x="15" y="280.0352">field1</text><text fill="#000000" font-family="sans-serif" font-size="14" lengthAdjust="spacing" textLength="63" x="149" y="280.0352">StartDate</text><line style="stroke:#000000;stroke-width:1.0;" x1="144" x2="144" y1="264.5" y2="284.9883"/><line style="stroke:#000000;stroke-width:1.0;" x1="10" x2="217" y1="284.9883" y2="284.9883"/><text fill="#000000" font-family="sans-serif" font-size="14" font-weight="bold" lengthAdjust="spacing" textLength="90" x="15" y="300.5234">combination</text><text fill="#000000" font-family="sans-serif" font-size="14" lengthAdjust="spacing" textLength="63" x="149" y="300.5234">StartDate</text><line style="stroke:#000000;stroke-width:1.0;" x1="144" x2="144" y1="284.9883" y2="305.4766"/><line style="stroke:#000000;stroke-width:1.0;" x1="10" x2="217" y1="305.4766" y2="305.4766"/><text fill="#000000" font-family="sans-serif" font-size="14" font-weight="bold" lengthAdjust="spacing" textLength="121" x="15" y="321.0117">null_distribution</text><text fill="#000000" font-family="sans-serif" font-size="14" lengthAdjust="spacing" textLength="12" x="149" y="321.0117">   </text><line style="stroke:#000000;stroke-width:1.0;" x1="144" x2="144" y1="305.4766" y2="325.9648"/><line style="stroke:#000000;stroke-width:1.0;" x1="10" x2="217" y1="325.9648" y2="325.9648"/><text fill="#000000" font-family="sans-serif" font-size="14" font-weight="bold" lengthAdjust="spacing" textLength="124" x="15" y="341.5">data_distribution</text><text fill="#000000" font-family="sans-serif" font-size="14" lengthAdjust="spacing" textLength="12" x="149" y="341.5">   </text><line style="stroke:#000000;stroke-width:1.0;" x1="144" x2="144" y1="325.9648" y2="346.4531"/><rect fill="none" height="81.9531" rx="5" ry="5" style="stroke:#000000;stroke-width:1.5;" width="207" x="10" y="264.5"/><rect fill="#F1F1F1" height="40.9766" rx="5" ry="5" style="stroke:#F1F1F1;stroke-width:1.5;" width="207" x="254" y="235"/><text fill="#000000" font-family="sans-serif" font-size="14" font-weight="bold" lengthAdjust="spacing" textLength="111" x="259" y="250.5352">total_null_rows</text><text fill="#000000" font-family="sans-serif" font-size="14" lengthAdjust="spacing" textLength="9" x="411" y="250.5352">0</text><line style="stroke:#000000;stroke-width:1.0;" x1="406" x2="406" y1="235" y2="255.4883"/><line style="stroke:#000000;stroke-width:1.0;" x1="254" x2="461" y1="255.4883" y2="255.4883"/><text fill="#000000" font-family="sans-serif" font-size="14" font-weight="bold" lengthAdjust="spacing" textLength="142" x="259" y="271.0234">total_not_null_rows</text><text fill="#000000" font-family="sans-serif" font-size="14" lengthAdjust="spacing" textLength="45" x="411" y="271.0234">72591</text><line style="stroke:#000000;stroke-width:1.0;" x1="406" x2="406" y1="255.4883" y2="275.9766"/><rect fill="none" height="40.9766" rx="5" ry="5" style="stroke:#000000;stroke-width:1.5;" width="207" x="254" y="235"/><rect fill="#F1F1F1" height="204.8828" rx="5" ry="5" style="stroke:#F1F1F1;stroke-width:1.5;" width="22" x="345.5" y="294"/><text fill="#000000" font-family="sans-serif" font-size="14" lengthAdjust="spacing" textLength="12" x="350.5" y="309.5352">   </text><line style="stroke:#000000;stroke-width:1.0;" x1="345.5" x2="367.5" y1="314.4883" y2="314.4883"/><text fill="#000000" font-family="sans-serif" font-size="14" lengthAdjust="spacing" textLength="12" x="350.5" y="330.0234">   </text><line style="stroke:#000000;stroke-width:1.0;" x1="345.5" x2="367.5" y1="334.9766" y2="334.9766"/><text fill="#000000" font-family="sans-serif" font-size="14" lengthAdjust="spacing" textLength="12" x="350.5" y="350.5117">   </text><line style="stroke:#000000;stroke-width:1.0;" x1="345.5" x2="367.5" y1="355.4648" y2="355.4648"/><text fill="#000000" font-family="sans-serif" font-size="14" lengthAdjust="spacing" textLength="12" x="350.5" y="371">   </text><line style="stroke:#000000;stroke-width:1.0;" x1="345.5" x2="367.5" y1="375.9531" y2="375.9531"/><text fill="#000000" font-family="sans-serif" font-size="14" lengthAdjust="spacing" textLength="12" x="350.5" y="391.4883">   </text><line style="stroke:#000000;stroke-width:1.0;" x1="345.5" x2="367.5" y1="396.4414" y2="396.4414"/><text fill="#000000" font-family="sans-serif" font-size="14" lengthAdjust="spacing" textLength="12" x="350.5" y="411.9766">   </text><line style="stroke:#000000;stroke-width:1.0;" x1="345.5" x2="367.5" y1="416.9297" y2="416.9297"/><text fill="#000000" font-family="sans-serif" font-size="14" lengthAdjust="spacing" textLength="12" x="350.5" y="432.4648">   </text><line style="stroke:#000000;stroke-width:1.0;" x1="345.5" x2="367.5" y1="437.418" y2="437.418"/><text fill="#000000" font-family="sans-serif" font-size="14" lengthAdjust="spacing" textLength="12" x="350.5" y="452.9531">   </text><line style="stroke:#000000;stroke-width:1.0;" x1="345.5" x2="367.5" y1="457.9063" y2="457.9063"/><text fill="#000000" font-family="sans-serif" font-size="14" lengthAdjust="spacing" textLength="12" x="350.5" y="473.4414">   </text><line style="stroke:#000000;stroke-width:1.0;" x1="345.5" x2="367.5" y1="478.3945" y2="478.3945"/><text fill="#000000" font-family="sans-serif" font-size="14" lengthAdjust="spacing" textLength="12" x="350.5" y="493.9297">   </text><rect fill="none" height="204.8828" rx="5" ry="5" style="stroke:#000000;stroke-width:1.5;" width="22" x="345.5" y="294"/><rect fill="#F1F1F1" height="61.4648" rx="5" ry="5" style="stroke:#F1F1F1;stroke-width:1.5;" width="280" x="498" y="10"/><text fill="#000000" font-family="sans-serif" font-size="14" font-weight="bold" lengthAdjust="spacing" textLength="78" x="503" y="25.5352">field_value</text><text fill="#000000" font-family="sans-serif" font-size="14" lengthAdjust="spacing" textLength="140" x="607" y="25.5352">Jul  3 2013 12:00AM</text><line style="stroke:#000000;stroke-width:1.0;" x1="602" x2="602" y1="10" y2="30.4883"/><line style="stroke:#000000;stroke-width:1.0;" x1="498" x2="778" y1="30.4883" y2="30.4883"/><text fill="#000000" font-family="sans-serif" font-size="14" font-weight="bold" lengthAdjust="spacing" textLength="74" x="503" y="46.0234">row_count</text><text fill="#000000" font-family="sans-serif" font-size="14" lengthAdjust="spacing" textLength="27" x="607" y="46.0234">246</text><line style="stroke:#000000;stroke-width:1.0;" x1="602" x2="602" y1="30.4883" y2="50.9766"/><line style="stroke:#000000;stroke-width:1.0;" x1="498" x2="778" y1="50.9766" y2="50.9766"/><text fill="#000000" font-family="sans-serif" font-size="14" font-weight="bold" lengthAdjust="spacing" textLength="94" x="503" y="66.5117">ratio_percent</text><text fill="#000000" font-family="sans-serif" font-size="14" lengthAdjust="spacing" textLength="166" x="607" y="66.5117">0.33888498574203413</text><line style="stroke:#000000;stroke-width:1.0;" x1="602" x2="602" y1="50.9766" y2="71.4648"/><rect fill="none" height="61.4648" rx="5" ry="5" style="stroke:#000000;stroke-width:1.5;" width="280" x="498" y="10"/><rect fill="#F1F1F1" height="61.4648" rx="5" ry="5" style="stroke:#F1F1F1;stroke-width:1.5;" width="280" x="498" y="89"/><text fill="#000000" font-family="sans-serif" font-size="14" font-weight="bold" lengthAdjust="spacing" textLength="78" x="503" y="104.5352">field_value</text><text fill="#000000" font-family="sans-serif" font-size="14" lengthAdjust="spacing" textLength="145" x="607" y="104.5352">Jun  2 2013 12:00AM</text><line style="stroke:#000000;stroke-width:1.0;" x1="602" x2="602" y1="89" y2="109.4883"/><line style="stroke:#000000;stroke-width:1.0;" x1="498" x2="778" y1="109.4883" y2="109.4883"/><text fill="#000000" font-family="sans-serif" font-size="14" font-weight="bold" lengthAdjust="spacing" textLength="74" x="503" y="125.0234">row_count</text><text fill="#000000" font-family="sans-serif" font-size="14" lengthAdjust="spacing" textLength="27" x="607" y="125.0234">236</text><line style="stroke:#000000;stroke-width:1.0;" x1="602" x2="602" y1="109.4883" y2="129.9766"/><line style="stroke:#000000;stroke-width:1.0;" x1="498" x2="778" y1="129.9766" y2="129.9766"/><text fill="#000000" font-family="sans-serif" font-size="14" font-weight="bold" lengthAdjust="spacing" textLength="94" x="503" y="145.5117">ratio_percent</text><text fill="#000000" font-family="sans-serif" font-size="14" lengthAdjust="spacing" textLength="166" x="607" y="145.5117">0.32510917331349615</text><line style="stroke:#000000;stroke-width:1.0;" x1="602" x2="602" y1="129.9766" y2="150.4648"/><rect fill="none" height="61.4648" rx="5" ry="5" style="stroke:#000000;stroke-width:1.5;" width="280" x="498" y="89"/><rect fill="#F1F1F1" height="61.4648" rx="5" ry="5" style="stroke:#F1F1F1;stroke-width:1.5;" width="280" x="498" y="168"/><text fill="#000000" font-family="sans-serif" font-size="14" font-weight="bold" lengthAdjust="spacing" textLength="78" x="503" y="183.5352">field_value</text><text fill="#000000" font-family="sans-serif" font-size="14" lengthAdjust="spacing" textLength="151" x="607" y="183.5352">Aug  3 2013 12:00AM</text><line style="stroke:#000000;stroke-width:1.0;" x1="602" x2="602" y1="168" y2="188.4883"/><line style="stroke:#000000;stroke-width:1.0;" x1="498" x2="778" y1="188.4883" y2="188.4883"/><text fill="#000000" font-family="sans-serif" font-size="14" font-weight="bold" lengthAdjust="spacing" textLength="74" x="503" y="204.0234">row_count</text><text fill="#000000" font-family="sans-serif" font-size="14" lengthAdjust="spacing" textLength="27" x="607" y="204.0234">232</text><line style="stroke:#000000;stroke-width:1.0;" x1="602" x2="602" y1="188.4883" y2="208.9766"/><line style="stroke:#000000;stroke-width:1.0;" x1="498" x2="778" y1="208.9766" y2="208.9766"/><text fill="#000000" font-family="sans-serif" font-size="14" font-weight="bold" lengthAdjust="spacing" textLength="94" x="503" y="224.5117">ratio_percent</text><text fill="#000000" font-family="sans-serif" font-size="14" lengthAdjust="spacing" textLength="166" x="607" y="224.5117">0.31959884834208097</text><line style="stroke:#000000;stroke-width:1.0;" x1="602" x2="602" y1="208.9766" y2="229.4648"/><rect fill="none" height="61.4648" rx="5" ry="5" style="stroke:#000000;stroke-width:1.5;" width="280" x="498" y="168"/><rect fill="#F1F1F1" height="61.4648" rx="5" ry="5" style="stroke:#F1F1F1;stroke-width:1.5;" width="271" x="502.5" y="247"/><text fill="#000000" font-family="sans-serif" font-size="14" font-weight="bold" lengthAdjust="spacing" textLength="78" x="507.5" y="262.5352">field_value</text><text fill="#000000" font-family="sans-serif" font-size="14" lengthAdjust="spacing" textLength="146" x="611.5" y="262.5352">Oct  3 2013 12:00AM</text><line style="stroke:#000000;stroke-width:1.0;" x1="606.5" x2="606.5" y1="247" y2="267.4883"/><line style="stroke:#000000;stroke-width:1.0;" x1="502.5" x2="773.5" y1="267.4883" y2="267.4883"/><text fill="#000000" font-family="sans-serif" font-size="14" font-weight="bold" lengthAdjust="spacing" textLength="74" x="507.5" y="283.0234">row_count</text><text fill="#000000" font-family="sans-serif" font-size="14" lengthAdjust="spacing" textLength="27" x="611.5" y="283.0234">225</text><line style="stroke:#000000;stroke-width:1.0;" x1="606.5" x2="606.5" y1="267.4883" y2="287.9766"/><line style="stroke:#000000;stroke-width:1.0;" x1="502.5" x2="773.5" y1="287.9766" y2="287.9766"/><text fill="#000000" font-family="sans-serif" font-size="14" font-weight="bold" lengthAdjust="spacing" textLength="94" x="507.5" y="303.5117">ratio_percent</text><text fill="#000000" font-family="sans-serif" font-size="14" lengthAdjust="spacing" textLength="157" x="611.5" y="303.5117">0.3099557796421044</text><line style="stroke:#000000;stroke-width:1.0;" x1="606.5" x2="606.5" y1="287.9766" y2="308.4648"/><rect fill="none" height="61.4648" rx="5" ry="5" style="stroke:#000000;stroke-width:1.5;" width="271" x="502.5" y="247"/><rect fill="#F1F1F1" height="61.4648" rx="5" ry="5" style="stroke:#F1F1F1;stroke-width:1.5;" width="262" x="507" y="326"/><text fill="#000000" font-family="sans-serif" font-size="14" font-weight="bold" lengthAdjust="spacing" textLength="78" x="512" y="341.5352">field_value</text><text fill="#000000" font-family="sans-serif" font-size="14" lengthAdjust="spacing" textLength="148" x="616" y="341.5352">Sep  2 2013 12:00AM</text><line style="stroke:#000000;stroke-width:1.0;" x1="611" x2="611" y1="326" y2="346.4883"/><line style="stroke:#000000;stroke-width:1.0;" x1="507" x2="769" y1="346.4883" y2="346.4883"/><text fill="#000000" font-family="sans-serif" font-size="14" font-weight="bold" lengthAdjust="spacing" textLength="74" x="512" y="362.0234">row_count</text><text fill="#000000" font-family="sans-serif" font-size="14" lengthAdjust="spacing" textLength="27" x="616" y="362.0234">222</text><line style="stroke:#000000;stroke-width:1.0;" x1="611" x2="611" y1="346.4883" y2="366.9766"/><line style="stroke:#000000;stroke-width:1.0;" x1="507" x2="769" y1="366.9766" y2="366.9766"/><text fill="#000000" font-family="sans-serif" font-size="14" font-weight="bold" lengthAdjust="spacing" textLength="94" x="512" y="382.5117">ratio_percent</text><text fill="#000000" font-family="sans-serif" font-size="14" lengthAdjust="spacing" textLength="148" x="616" y="382.5117">0.305823035913543</text><line style="stroke:#000000;stroke-width:1.0;" x1="611" x2="611" y1="366.9766" y2="387.4648"/><rect fill="none" height="61.4648" rx="5" ry="5" style="stroke:#000000;stroke-width:1.5;" width="262" x="507" y="326"/><rect fill="#F1F1F1" height="61.4648" rx="5" ry="5" style="stroke:#F1F1F1;stroke-width:1.5;" width="271" x="502.5" y="405"/><text fill="#000000" font-family="sans-serif" font-size="14" font-weight="bold" lengthAdjust="spacing" textLength="78" x="507.5" y="420.5352">field_value</text><text fill="#000000" font-family="sans-serif" font-size="14" lengthAdjust="spacing" textLength="149" x="611.5" y="420.5352">Nov  2 2013 12:00AM</text><line style="stroke:#000000;stroke-width:1.0;" x1="606.5" x2="606.5" y1="405" y2="425.4883"/><line style="stroke:#000000;stroke-width:1.0;" x1="502.5" x2="773.5" y1="425.4883" y2="425.4883"/><text fill="#000000" font-family="sans-serif" font-size="14" font-weight="bold" lengthAdjust="spacing" textLength="74" x="507.5" y="441.0234">row_count</text><text fill="#000000" font-family="sans-serif" font-size="14" lengthAdjust="spacing" textLength="27" x="611.5" y="441.0234">220</text><line style="stroke:#000000;stroke-width:1.0;" x1="606.5" x2="606.5" y1="425.4883" y2="445.9766"/><line style="stroke:#000000;stroke-width:1.0;" x1="502.5" x2="773.5" y1="445.9766" y2="445.9766"/><text fill="#000000" font-family="sans-serif" font-size="14" font-weight="bold" lengthAdjust="spacing" textLength="94" x="507.5" y="461.5117">ratio_percent</text><text fill="#000000" font-family="sans-serif" font-size="14" lengthAdjust="spacing" textLength="157" x="611.5" y="461.5117">0.3030678734278354</text><line style="stroke:#000000;stroke-width:1.0;" x1="606.5" x2="606.5" y1="445.9766" y2="466.4648"/><rect fill="none" height="61.4648" rx="5" ry="5" style="stroke:#000000;stroke-width:1.5;" width="271" x="502.5" y="405"/><rect fill="#F1F1F1" height="61.4648" rx="5" ry="5" style="stroke:#F1F1F1;stroke-width:1.5;" width="271" x="502.5" y="484"/><text fill="#000000" font-family="sans-serif" font-size="14" font-weight="bold" lengthAdjust="spacing" textLength="78" x="507.5" y="499.5352">field_value</text><text fill="#000000" font-family="sans-serif" font-size="14" lengthAdjust="spacing" textLength="150" x="611.5" y="499.5352">May  4 2014 12:00AM</text><line style="stroke:#000000;stroke-width:1.0;" x1="606.5" x2="606.5" y1="484" y2="504.4883"/><line style="stroke:#000000;stroke-width:1.0;" x1="502.5" x2="773.5" y1="504.4883" y2="504.4883"/><text fill="#000000" font-family="sans-serif" font-size="14" font-weight="bold" lengthAdjust="spacing" textLength="74" x="507.5" y="520.0234">row_count</text><text fill="#000000" font-family="sans-serif" font-size="14" lengthAdjust="spacing" textLength="27" x="611.5" y="520.0234">219</text><line style="stroke:#000000;stroke-width:1.0;" x1="606.5" x2="606.5" y1="504.4883" y2="524.9766"/><line style="stroke:#000000;stroke-width:1.0;" x1="502.5" x2="773.5" y1="524.9766" y2="524.9766"/><text fill="#000000" font-family="sans-serif" font-size="14" font-weight="bold" lengthAdjust="spacing" textLength="94" x="507.5" y="540.5117">ratio_percent</text><text fill="#000000" font-family="sans-serif" font-size="14" lengthAdjust="spacing" textLength="157" x="611.5" y="540.5117">0.3016902921849816</text><line style="stroke:#000000;stroke-width:1.0;" x1="606.5" x2="606.5" y1="524.9766" y2="545.4648"/><rect fill="none" height="61.4648" rx="5" ry="5" style="stroke:#000000;stroke-width:1.5;" width="271" x="502.5" y="484"/><rect fill="#F1F1F1" height="61.4648" rx="5" ry="5" style="stroke:#F1F1F1;stroke-width:1.5;" width="271" x="502.5" y="563"/><text fill="#000000" font-family="sans-serif" font-size="14" font-weight="bold" lengthAdjust="spacing" textLength="78" x="507.5" y="578.5352">field_value</text><text fill="#000000" font-family="sans-serif" font-size="14" lengthAdjust="spacing" textLength="148" x="611.5" y="578.5352">Apr  3 2014 12:00AM</text><line style="stroke:#000000;stroke-width:1.0;" x1="606.5" x2="606.5" y1="563" y2="583.4883"/><line style="stroke:#000000;stroke-width:1.0;" x1="502.5" x2="773.5" y1="583.4883" y2="583.4883"/><text fill="#000000" font-family="sans-serif" font-size="14" font-weight="bold" lengthAdjust="spacing" textLength="74" x="507.5" y="599.0234">row_count</text><text fill="#000000" font-family="sans-serif" font-size="14" lengthAdjust="spacing" textLength="27" x="611.5" y="599.0234">218</text><line style="stroke:#000000;stroke-width:1.0;" x1="606.5" x2="606.5" y1="583.4883" y2="603.9766"/><line style="stroke:#000000;stroke-width:1.0;" x1="502.5" x2="773.5" y1="603.9766" y2="603.9766"/><text fill="#000000" font-family="sans-serif" font-size="14" font-weight="bold" lengthAdjust="spacing" textLength="94" x="507.5" y="619.5117">ratio_percent</text><text fill="#000000" font-family="sans-serif" font-size="14" lengthAdjust="spacing" textLength="157" x="611.5" y="619.5117">0.3003127109421278</text><line style="stroke:#000000;stroke-width:1.0;" x1="606.5" x2="606.5" y1="603.9766" y2="624.4648"/><rect fill="none" height="61.4648" rx="5" ry="5" style="stroke:#000000;stroke-width:1.5;" width="271" x="502.5" y="563"/><rect fill="#F1F1F1" height="61.4648" rx="5" ry="5" style="stroke:#F1F1F1;stroke-width:1.5;" width="271" x="502.5" y="642"/><text fill="#000000" font-family="sans-serif" font-size="14" font-weight="bold" lengthAdjust="spacing" textLength="78" x="507.5" y="657.5352">field_value</text><text fill="#000000" font-family="sans-serif" font-size="14" lengthAdjust="spacing" textLength="149" x="611.5" y="657.5352">Mar  4 2014 12:00AM</text><line style="stroke:#000000;stroke-width:1.0;" x1="606.5" x2="606.5" y1="642" y2="662.4883"/><line style="stroke:#000000;stroke-width:1.0;" x1="502.5" x2="773.5" y1="662.4883" y2="662.4883"/><text fill="#000000" font-family="sans-serif" font-size="14" font-weight="bold" lengthAdjust="spacing" textLength="74" x="507.5" y="678.0234">row_count</text><text fill="#000000" font-family="sans-serif" font-size="14" lengthAdjust="spacing" textLength="27" x="611.5" y="678.0234">218</text><line style="stroke:#000000;stroke-width:1.0;" x1="606.5" x2="606.5" y1="662.4883" y2="682.9766"/><line style="stroke:#000000;stroke-width:1.0;" x1="502.5" x2="773.5" y1="682.9766" y2="682.9766"/><text fill="#000000" font-family="sans-serif" font-size="14" font-weight="bold" lengthAdjust="spacing" textLength="94" x="507.5" y="698.5117">ratio_percent</text><text fill="#000000" font-family="sans-serif" font-size="14" lengthAdjust="spacing" textLength="157" x="611.5" y="698.5117">0.3003127109421278</text><line style="stroke:#000000;stroke-width:1.0;" x1="606.5" x2="606.5" y1="682.9766" y2="703.4648"/><rect fill="none" height="61.4648" rx="5" ry="5" style="stroke:#000000;stroke-width:1.5;" width="271" x="502.5" y="642"/><rect fill="#F1F1F1" height="61.4648" rx="5" ry="5" style="stroke:#F1F1F1;stroke-width:1.5;" width="262" x="507" y="721"/><text fill="#000000" font-family="sans-serif" font-size="14" font-weight="bold" lengthAdjust="spacing" textLength="78" x="512" y="736.5352">field_value</text><text fill="#000000" font-family="sans-serif" font-size="14" lengthAdjust="spacing" textLength="144" x="616" y="736.5352">Jan  3 2014 12:00AM</text><line style="stroke:#000000;stroke-width:1.0;" x1="611" x2="611" y1="721" y2="741.4883"/><line style="stroke:#000000;stroke-width:1.0;" x1="507" x2="769" y1="741.4883" y2="741.4883"/><text fill="#000000" font-family="sans-serif" font-size="14" font-weight="bold" lengthAdjust="spacing" textLength="74" x="512" y="757.0234">row_count</text><text fill="#000000" font-family="sans-serif" font-size="14" lengthAdjust="spacing" textLength="27" x="616" y="757.0234">212</text><line style="stroke:#000000;stroke-width:1.0;" x1="611" x2="611" y1="741.4883" y2="761.9766"/><line style="stroke:#000000;stroke-width:1.0;" x1="507" x2="769" y1="761.9766" y2="761.9766"/><text fill="#000000" font-family="sans-serif" font-size="14" font-weight="bold" lengthAdjust="spacing" textLength="94" x="512" y="777.5117">ratio_percent</text><text fill="#000000" font-family="sans-serif" font-size="14" lengthAdjust="spacing" textLength="148" x="616" y="777.5117">0.292047223485005</text><line style="stroke:#000000;stroke-width:1.0;" x1="611" x2="611" y1="761.9766" y2="782.4648"/><rect fill="none" height="61.4648" rx="5" ry="5" style="stroke:#000000;stroke-width:1.5;" width="262" x="507" y="721"/><path d="M205,315.5 L218,315.5 C238.8273,315.5 235.6143,295.285 254,285.5 C258.4187,283.1484 263.0447,280.9598 267.7859,278.9261 " fill="none" style="stroke:#000000;stroke-width:1.0;stroke-dasharray:3.0,3.0;"/><path d="M268.9339,281.7334 L269.8914,278.0652 L266.638,276.1189 L274.804,276.0563 L268.9339,281.7334 " fill="#000000" style="stroke:#000000;stroke-width:1.0;"/><ellipse cx="205" cy="315.5" fill="#000000" rx="3" ry="3" style="stroke:#000000;stroke-width:1.0;"/><path d="M358,303.5 L371,303.5 C412.2281,303.5 433.1738,314.9755 462,285.5 C526.9848,219.0516 435.6323,148.4107 498,79.5 C499.0125,78.3813 500.0541,77.2936 501.123,76.2361 " fill="none" style="stroke:#000000;stroke-width:1.0;stroke-dasharray:3.0,3.0;"/><path d="M503.139,78.4612 L502.7918,74.7241 L499.107,74.0111 L506.6857,71.1961 L503.139,78.4612 " fill="#000000" style="stroke:#000000;stroke-width:1.0;"/><ellipse cx="358" cy="303.5" fill="#000000" rx="3" ry="3" style="stroke:#000000;stroke-width:1.0;"/><path d="M358,324.5 L371,324.5 C415.0022,324.5 432.9505,318.5503 462,285.5 C500.7318,241.4339 456.4404,199.9099 498,158.5 C499.2303,157.2742 500.4957,156.0861 501.7935,154.9346 " fill="none" style="stroke:#000000;stroke-width:1.0;stroke-dasharray:3.0,3.0;"/><path d="M503.7206,157.2901 L503.5601,153.4893 L499.8664,152.579 L507.6824,150.1169 L503.7206,157.2901 " fill="#000000" style="stroke:#000000;stroke-width:1.0;"/><ellipse cx="358" cy="324.5" fill="#000000" rx="3" ry="3" style="stroke:#000000;stroke-width:1.0;"/><path d="M358,344.5 L371,344.5 C419.2012,344.5 426.773,318.4001 462,285.5 C481.4889,267.2985 475.9903,252.5561 498,237.5 C500.3707,235.8783 502.8075,234.3236 505.2999,232.8333 " fill="none" style="stroke:#000000;stroke-width:1.0;stroke-dasharray:3.0,3.0;"/><path d="M506.8186,235.5213 L507.3159,231.6943 L503.7813,230.1454 L512.0198,229.0367 L506.8186,235.5213 " fill="#000000" style="stroke:#000000;stroke-width:1.0;"/><ellipse cx="358" cy="344.5" fill="#000000" rx="3" ry="3" style="stroke:#000000;stroke-width:1.0;"/><path d="M358,365.5 L371,365.5 C431.3414,365.5 440.7275,336.4987 498,317.5 C505.174,315.1202 512.5823,312.7489 520.0715,310.4167 " fill="none" style="stroke:#000000;stroke-width:1.0;stroke-dasharray:3.0,3.0;"/><path d="M520.9988,313.4209 L522.3247,309.7213 L519.1443,307.4125 L527.5821,308.0987 L520.9988,313.4209 " fill="#000000" style="stroke:#000000;stroke-width:1.0;"/><ellipse cx="358" cy="365.5" fill="#000000" rx="3" ry="3" style="stroke:#000000;stroke-width:1.0;"/><path d="M358,385.5 L371,385.5 C412.9514,385.5 458.4007,381.9046 499.6834,377.2457 " fill="none" style="stroke:#000000;stroke-width:1.0;stroke-dasharray:3.0,3.0;"/><path d="M500.036,380.3089 L501.9808,376.9812 L499.3307,374.1824 L507.3415,376.364 L500.036,380.3089 " fill="#000000" style="stroke:#000000;stroke-width:1.0;"/><ellipse cx="358" cy="385.5" fill="#000000" rx="3" ry="3" style="stroke:#000000;stroke-width:1.0;"/><path d="M358,406.5 L371,406.5 C411.3593,406.5 454.956,409.8277 494.9656,414.2286 " fill="none" style="stroke:#000000;stroke-width:1.0;stroke-dasharray:3.0,3.0;"/><path d="M494.6081,417.4094 L497.3512,414.4968 L495.3232,411.0478 L502.9177,415.1224 L494.6081,417.4094 " fill="#000000" style="stroke:#000000;stroke-width:1.0;"/><ellipse cx="358" cy="406.5" fill="#000000" rx="3" ry="3" style="stroke:#000000;stroke-width:1.0;"/><path d="M358,427.5 L371,427.5 C431.3414,427.5 440.6648,456.6915 498,475.5 C504.4049,477.6011 510.9979,479.6897 517.6694,481.7455 " fill="none" style="stroke:#000000;stroke-width:1.0;stroke-dasharray:3.0,3.0;"/><path d="M516.7826,484.6515 L519.8488,482.4106 L518.5561,478.8396 L524.9343,483.9625 L516.7826,484.6515 " fill="#000000" style="stroke:#000000;stroke-width:1.0;"/><ellipse cx="358" cy="427.5" fill="#000000" rx="3" ry="3" style="stroke:#000000;stroke-width:1.0;"/><path d="M358,447.5 L371,447.5 C444.8072,447.5 432.7519,520.0009 498,554.5 C501.4545,556.3265 505.0036,558.075 508.6231,559.7482 " fill="none" style="stroke:#000000;stroke-width:1.0;stroke-dasharray:3.0,3.0;"/><path d="M507.3729,562.5646 L510.7354,560.6859 L509.8734,556.9318 L515.6641,562.8738 L507.3729,562.5646 " fill="#000000" style="stroke:#000000;stroke-width:1.0;"/><ellipse cx="358" cy="447.5" fill="#000000" rx="3" ry="3" style="stroke:#000000;stroke-width:1.0;"/><path d="M358,468.5 L371,468.5 C463.5405,468.5 421.2958,581.7292 498,633.5 C500.3808,635.1069 502.8268,636.648 505.3275,638.1261 " fill="none" style="stroke:#000000;stroke-width:1.0;stroke-dasharray:3.0,3.0;"/><path d="M503.8207,640.8221 L507.3495,639.2561 L506.8343,635.43 L512.0675,641.893 L503.8207,640.8221 " fill="#000000" style="stroke:#000000;stroke-width:1.0;"/><ellipse cx="358" cy="468.5" fill="#000000" rx="3" ry="3" style="stroke:#000000;stroke-width:1.0;"/><path d="M358,488.5 L371,488.5 C485.4434,488.5 407.859,641.9884 498,712.5 C499.8105,713.9162 501.6696,715.2811 503.5714,716.5964 " fill="none" style="stroke:#000000;stroke-width:1.0;stroke-dasharray:3.0,3.0;"/><path d="M501.8579,719.2455 L505.5582,717.8815 L505.2849,713.9473 L510.1941,720.8801 L501.8579,719.2455 " fill="#000000" style="stroke:#000000;stroke-width:1.0;"/><ellipse cx="358" cy="488.5" fill="#000000" rx="3" ry="3" style="stroke:#000000;stroke-width:1.0;"/><path d="M205,336.5 L218,336.5 C265.0497,336.5 314.2629,365.8357 339.6101,383.482 " fill="none" style="stroke:#000000;stroke-width:1.0;stroke-dasharray:3.0,3.0;"/><path d="M337.8416,385.964 L341.4716,384.8085 L341.3787,381.0001 L345.815,387.9035 L337.8416,385.964 " fill="#000000" style="stroke:#000000;stroke-width:1.0;"/><ellipse cx="205" cy="336.5" fill="#000000" rx="3" ry="3" style="stroke:#000000;stroke-width:1.0;"/><!--MD5=[08b79d96a7b3dfec9e838bd773ae1874]
@startjson
{
    "field1": "StartDate",
    "combination": "StartDate",
    "null_distribution": {
        "total_null_rows": 0,
        "total_not_null_rows": 72591
    },
    "data_distribution": [
        {
            "field_value": "Jul  3 2013 12:00AM",
            "row_count": 246,
            "ratio_percent": 0.33888498574203413
        },
        {
            "field_value": "Jun  2 2013 12:00AM",
            "row_count": 236,
            "ratio_percent": 0.32510917331349615
        },
        {
            "field_value": "Aug  3 2013 12:00AM",
            "row_count": 232,
            "ratio_percent": 0.31959884834208097
        },
        {
            "field_value": "Oct  3 2013 12:00AM",
            "row_count": 225,
            "ratio_percent": 0.3099557796421044
        },
        {
            "field_value": "Sep  2 2013 12:00AM",
            "row_count": 222,
            "ratio_percent": 0.305823035913543
        },
        {
            "field_value": "Nov  2 2013 12:00AM",
            "row_count": 220,
            "ratio_percent": 0.3030678734278354
        },
        {
            "field_value": "May  4 2014 12:00AM",
            "row_count": 219,
            "ratio_percent": 0.3016902921849816
        },
        {
            "field_value": "Apr  3 2014 12:00AM",
            "row_count": 218,
            "ratio_percent": 0.3003127109421278
        },
        {
            "field_value": "Mar  4 2014 12:00AM",
            "row_count": 218,
            "ratio_percent": 0.3003127109421278
        },
        {
            "field_value": "Jan  3 2014 12:00AM",
            "row_count": 212,
            "ratio_percent": 0.292047223485005
        }
    ]
}
@endjson

PlantUML version 1.2022.5(Sat Apr 30 06:55:52 EDT 2022)
(GPL source distribution)
Java Runtime: OpenJDK Runtime Environment
JVM: OpenJDK 64-Bit Server VM
Default Encoding: UTF-8
Language: en
Country: CA
--></g></svg>