<?xml version="1.0" encoding="UTF-8" standalone="no"?><svg xmlns="http://www.w3.org/2000/svg" xmlns:xlink="http://www.w3.org/1999/xlink" contentStyleType="text/css" height="794px" preserveAspectRatio="none" style="width:839px;height:794px;background:#FFFFFF;" version="1.1" viewBox="0 0 839 794" width="839px" zoomAndPan="magnify"><defs/><g><rect fill="#F1F1F1" height="81.9531" rx="5" ry="5" style="stroke:#F1F1F1;stroke-width:1.5;" width="256" x="10" y="264.5"/><text fill="#000000" font-family="sans-serif" font-size="14" font-weight="bold" lengthAdjust="spacing" textLength="42" x="15" y="280.0352">field1</text><text fill="#000000" font-family="sans-serif" font-size="14" lengthAdjust="spacing" textLength="112" x="149" y="280.0352">TransactionDate</text><line style="stroke:#000000;stroke-width:1.0;" x1="144" x2="144" y1="264.5" y2="284.9883"/><line style="stroke:#000000;stroke-width:1.0;" x1="10" x2="266" y1="284.9883" y2="284.9883"/><text fill="#000000" font-family="sans-serif" font-size="14" font-weight="bold" lengthAdjust="spacing" textLength="90" x="15" y="300.5234">combination</text><text fill="#000000" font-family="sans-serif" font-size="14" lengthAdjust="spacing" textLength="112" x="149" y="300.5234">TransactionDate</text><line style="stroke:#000000;stroke-width:1.0;" x1="144" x2="144" y1="284.9883" y2="305.4766"/><line style="stroke:#000000;stroke-width:1.0;" x1="10" x2="266" y1="305.4766" y2="305.4766"/><text fill="#000000" font-family="sans-serif" font-size="14" font-weight="bold" lengthAdjust="spacing" textLength="121" x="15" y="321.0117">null_distribution</text><text fill="#000000" font-family="sans-serif" font-size="14" lengthAdjust="spacing" textLength="12" x="149" y="321.0117">   </text><line style="stroke:#000000;stroke-width:1.0;" x1="144" x2="144" y1="305.4766" y2="325.9648"/><line style="stroke:#000000;stroke-width:1.0;" x1="10" x2="266" y1="325.9648" y2="325.9648"/><text fill="#000000" font-family="sans-serif" font-size="14" font-weight="bold" lengthAdjust="spacing" textLength="124" x="15" y="341.5">data_distribution</text><text fill="#000000" font-family="sans-serif" font-size="14" lengthAdjust="spacing" textLength="12" x="149" y="341.5">   </text><line style="stroke:#000000;stroke-width:1.0;" x1="144" x2="144" y1="325.9648" y2="346.4531"/><rect fill="none" height="81.9531" rx="5" ry="5" style="stroke:#000000;stroke-width:1.5;" width="256" x="10" y="264.5"/><rect fill="#F1F1F1" height="40.9766" rx="5" ry="5" style="stroke:#F1F1F1;stroke-width:1.5;" width="216" x="303" y="235"/><text fill="#000000" font-family="sans-serif" font-size="14" font-weight="bold" lengthAdjust="spacing" textLength="111" x="308" y="250.5352">total_null_rows</text><text fill="#000000" font-family="sans-serif" font-size="14" lengthAdjust="spacing" textLength="9" x="460" y="250.5352">0</text><line style="stroke:#000000;stroke-width:1.0;" x1="455" x2="455" y1="235" y2="255.4883"/><line style="stroke:#000000;stroke-width:1.0;" x1="303" x2="519" y1="255.4883" y2="255.4883"/><text fill="#000000" font-family="sans-serif" font-size="14" font-weight="bold" lengthAdjust="spacing" textLength="142" x="308" y="271.0234">total_not_null_rows</text><text fill="#000000" font-family="sans-serif" font-size="14" lengthAdjust="spacing" textLength="54" x="460" y="271.0234">113443</text><line style="stroke:#000000;stroke-width:1.0;" x1="455" x2="455" y1="255.4883" y2="275.9766"/><rect fill="none" height="40.9766" rx="5" ry="5" style="stroke:#000000;stroke-width:1.5;" width="216" x="303" y="235"/><rect fill="#F1F1F1" height="204.8828" rx="5" ry="5" style="stroke:#F1F1F1;stroke-width:1.5;" width="22" x="399" y="294"/><text fill="#000000" font-family="sans-serif" font-size="14" lengthAdjust="spacing" textLength="12" x="404" y="309.5352">   </text><line style="stroke:#000000;stroke-width:1.0;" x1="399" x2="421" y1="314.4883" y2="314.4883"/><text fill="#000000" font-family="sans-serif" font-size="14" lengthAdjust="spacing" textLength="12" x="404" y="330.0234">   </text><line style="stroke:#000000;stroke-width:1.0;" x1="399" x2="421" y1="334.9766" y2="334.9766"/><text fill="#000000" font-family="sans-serif" font-size="14" lengthAdjust="spacing" textLength="12" x="404" y="350.5117">   </text><line style="stroke:#000000;stroke-width:1.0;" x1="399" x2="421" y1="355.4648" y2="355.4648"/><text fill="#000000" font-family="sans-serif" font-size="14" lengthAdjust="spacing" textLength="12" x="404" y="371">   </text><line style="stroke:#000000;stroke-width:1.0;" x1="399" x2="421" y1="375.9531" y2="375.9531"/><text fill="#000000" font-family="sans-serif" font-size="14" lengthAdjust="spacing" textLength="12" x="404" y="391.4883">   </text><line style="stroke:#000000;stroke-width:1.0;" x1="399" x2="421" y1="396.4414" y2="396.4414"/><text fill="#000000" font-family="sans-serif" font-size="14" lengthAdjust="spacing" textLength="12" x="404" y="411.9766">   </text><line style="stroke:#000000;stroke-width:1.0;" x1="399" x2="421" y1="416.9297" y2="416.9297"/><text fill="#000000" font-family="sans-serif" font-size="14" lengthAdjust="spacing" textLength="12" x="404" y="432.4648">   </text><line style="stroke:#000000;stroke-width:1.0;" x1="399" x2="421" y1="437.418" y2="437.418"/><text fill="#000000" font-family="sans-serif" font-size="14" lengthAdjust="spacing" textLength="12" x="404" y="452.9531">   </text><line style="stroke:#000000;stroke-width:1.0;" x1="399" x2="421" y1="457.9063" y2="457.9063"/><text fill="#000000" font-family="sans-serif" font-size="14" lengthAdjust="spacing" textLength="12" x="404" y="473.4414">   </text><line style="stroke:#000000;stroke-width:1.0;" x1="399" x2="421" y1="478.3945" y2="478.3945"/><text fill="#000000" font-family="sans-serif" font-size="14" lengthAdjust="spacing" textLength="12" x="404" y="493.9297">   </text><rect fill="none" height="204.8828" rx="5" ry="5" style="stroke:#000000;stroke-width:1.5;" width="22" x="399" y="294"/><rect fill="#F1F1F1" height="61.4648" rx="5" ry="5" style="stroke:#F1F1F1;stroke-width:1.5;" width="262" x="560.5" y="10"/><text fill="#000000" font-family="sans-serif" font-size="14" font-weight="bold" lengthAdjust="spacing" textLength="78" x="565.5" y="25.5352">field_value</text><text fill="#000000" font-family="sans-serif" font-size="14" lengthAdjust="spacing" textLength="145" x="669.5" y="25.5352">Jul 31 2013 12:00AM</text><line style="stroke:#000000;stroke-width:1.0;" x1="664.5" x2="664.5" y1="10" y2="30.4883"/><line style="stroke:#000000;stroke-width:1.0;" x1="560.5" x2="822.5" y1="30.4883" y2="30.4883"/><text fill="#000000" font-family="sans-serif" font-size="14" font-weight="bold" lengthAdjust="spacing" textLength="74" x="565.5" y="46.0234">row_count</text><text fill="#000000" font-family="sans-serif" font-size="14" lengthAdjust="spacing" textLength="36" x="669.5" y="46.0234">3944</text><line style="stroke:#000000;stroke-width:1.0;" x1="664.5" x2="664.5" y1="30.4883" y2="50.9766"/><line style="stroke:#000000;stroke-width:1.0;" x1="560.5" x2="822.5" y1="50.9766" y2="50.9766"/><text fill="#000000" font-family="sans-serif" font-size="14" font-weight="bold" lengthAdjust="spacing" textLength="94" x="565.5" y="66.5117">ratio_percent</text><text fill="#000000" font-family="sans-serif" font-size="14" lengthAdjust="spacing" textLength="148" x="669.5" y="66.5117">3.476635843551387</text><line style="stroke:#000000;stroke-width:1.0;" x1="664.5" x2="664.5" y1="50.9766" y2="71.4648"/><rect fill="none" height="61.4648" rx="5" ry="5" style="stroke:#000000;stroke-width:1.5;" width="262" x="560.5" y="10"/><rect fill="#F1F1F1" height="61.4648" rx="5" ry="5" style="stroke:#F1F1F1;stroke-width:1.5;" width="271" x="556" y="89"/><text fill="#000000" font-family="sans-serif" font-size="14" font-weight="bold" lengthAdjust="spacing" textLength="78" x="561" y="104.5352">field_value</text><text fill="#000000" font-family="sans-serif" font-size="14" lengthAdjust="spacing" textLength="151" x="665" y="104.5352">Oct 30 2013 12:00AM</text><line style="stroke:#000000;stroke-width:1.0;" x1="660" x2="660" y1="89" y2="109.4883"/><line style="stroke:#000000;stroke-width:1.0;" x1="556" x2="827" y1="109.4883" y2="109.4883"/><text fill="#000000" font-family="sans-serif" font-size="14" font-weight="bold" lengthAdjust="spacing" textLength="74" x="561" y="125.0234">row_count</text><text fill="#000000" font-family="sans-serif" font-size="14" lengthAdjust="spacing" textLength="36" x="665" y="125.0234">3319</text><line style="stroke:#000000;stroke-width:1.0;" x1="660" x2="660" y1="109.4883" y2="129.9766"/><line style="stroke:#000000;stroke-width:1.0;" x1="556" x2="827" y1="129.9766" y2="129.9766"/><text fill="#000000" font-family="sans-serif" font-size="14" font-weight="bold" lengthAdjust="spacing" textLength="94" x="561" y="145.5117">ratio_percent</text><text fill="#000000" font-family="sans-serif" font-size="14" lengthAdjust="spacing" textLength="157" x="665" y="145.5117">2.9256983683435736</text><line style="stroke:#000000;stroke-width:1.0;" x1="660" x2="660" y1="129.9766" y2="150.4648"/><rect fill="none" height="61.4648" rx="5" ry="5" style="stroke:#000000;stroke-width:1.5;" width="271" x="556" y="89"/><rect fill="#F1F1F1" height="61.4648" rx="5" ry="5" style="stroke:#F1F1F1;stroke-width:1.5;" width="271" x="556" y="168"/><text fill="#000000" font-family="sans-serif" font-size="14" font-weight="bold" lengthAdjust="spacing" textLength="78" x="561" y="183.5352">field_value</text><text fill="#000000" font-family="sans-serif" font-size="14" lengthAdjust="spacing" textLength="150" x="665" y="183.5352">May  1 2014 12:00AM</text><line style="stroke:#000000;stroke-width:1.0;" x1="660" x2="660" y1="168" y2="188.4883"/><line style="stroke:#000000;stroke-width:1.0;" x1="556" x2="827" y1="188.4883" y2="188.4883"/><text fill="#000000" font-family="sans-serif" font-size="14" font-weight="bold" lengthAdjust="spacing" textLength="74" x="561" y="204.0234">row_count</text><text fill="#000000" font-family="sans-serif" font-size="14" lengthAdjust="spacing" textLength="36" x="665" y="204.0234">3271</text><line style="stroke:#000000;stroke-width:1.0;" x1="660" x2="660" y1="188.4883" y2="208.9766"/><line style="stroke:#000000;stroke-width:1.0;" x1="556" x2="827" y1="208.9766" y2="208.9766"/><text fill="#000000" font-family="sans-serif" font-size="14" font-weight="bold" lengthAdjust="spacing" textLength="94" x="561" y="224.5117">ratio_percent</text><text fill="#000000" font-family="sans-serif" font-size="14" lengthAdjust="spacing" textLength="157" x="665" y="224.5117">2.8833863702476132</text><line style="stroke:#000000;stroke-width:1.0;" x1="660" x2="660" y1="208.9766" y2="229.4648"/><rect fill="none" height="61.4648" rx="5" ry="5" style="stroke:#000000;stroke-width:1.5;" width="271" x="556" y="168"/><rect fill="#F1F1F1" height="61.4648" rx="5" ry="5" style="stroke:#F1F1F1;stroke-width:1.5;" width="271" x="556" y="247"/><text fill="#000000" font-family="sans-serif" font-size="14" font-weight="bold" lengthAdjust="spacing" textLength="78" x="561" y="262.5352">field_value</text><text fill="#000000" font-family="sans-serif" font-size="14" lengthAdjust="spacing" textLength="154" x="665" y="262.5352">Mar 31 2014 12:00AM</text><line style="stroke:#000000;stroke-width:1.0;" x1="660" x2="660" y1="247" y2="267.4883"/><line style="stroke:#000000;stroke-width:1.0;" x1="556" x2="827" y1="267.4883" y2="267.4883"/><text fill="#000000" font-family="sans-serif" font-size="14" font-weight="bold" lengthAdjust="spacing" textLength="74" x="561" y="283.0234">row_count</text><text fill="#000000" font-family="sans-serif" font-size="14" lengthAdjust="spacing" textLength="36" x="665" y="283.0234">3213</text><line style="stroke:#000000;stroke-width:1.0;" x1="660" x2="660" y1="267.4883" y2="287.9766"/><line style="stroke:#000000;stroke-width:1.0;" x1="556" x2="827" y1="287.9766" y2="287.9766"/><text fill="#000000" font-family="sans-serif" font-size="14" font-weight="bold" lengthAdjust="spacing" textLength="94" x="561" y="303.5117">ratio_percent</text><text fill="#000000" font-family="sans-serif" font-size="14" lengthAdjust="spacing" textLength="157" x="665" y="303.5117">2.8322593725483283</text><line style="stroke:#000000;stroke-width:1.0;" x1="660" x2="660" y1="287.9766" y2="308.4648"/><rect fill="none" height="61.4648" rx="5" ry="5" style="stroke:#000000;stroke-width:1.5;" width="271" x="556" y="247"/><rect fill="#F1F1F1" height="61.4648" rx="5" ry="5" style="stroke:#F1F1F1;stroke-width:1.5;" width="267" x="558" y="326"/><text fill="#000000" font-family="sans-serif" font-size="14" font-weight="bold" lengthAdjust="spacing" textLength="78" x="563" y="341.5352">field_value</text><text fill="#000000" font-family="sans-serif" font-size="14" lengthAdjust="spacing" textLength="153" x="667" y="341.5352">Sep 30 2013 12:00AM</text><line style="stroke:#000000;stroke-width:1.0;" x1="662" x2="662" y1="326" y2="346.4883"/><line style="stroke:#000000;stroke-width:1.0;" x1="558" x2="825" y1="346.4883" y2="346.4883"/><text fill="#000000" font-family="sans-serif" font-size="14" font-weight="bold" lengthAdjust="spacing" textLength="74" x="563" y="362.0234">row_count</text><text fill="#000000" font-family="sans-serif" font-size="14" lengthAdjust="spacing" textLength="36" x="667" y="362.0234">3121</text><line style="stroke:#000000;stroke-width:1.0;" x1="662" x2="662" y1="346.4883" y2="366.9766"/><line style="stroke:#000000;stroke-width:1.0;" x1="558" x2="825" y1="366.9766" y2="366.9766"/><text fill="#000000" font-family="sans-serif" font-size="14" font-weight="bold" lengthAdjust="spacing" textLength="94" x="563" y="382.5117">ratio_percent</text><text fill="#000000" font-family="sans-serif" font-size="14" lengthAdjust="spacing" textLength="148" x="667" y="382.5117">2.751161376197738</text><line style="stroke:#000000;stroke-width:1.0;" x1="662" x2="662" y1="366.9766" y2="387.4648"/><rect fill="none" height="61.4648" rx="5" ry="5" style="stroke:#000000;stroke-width:1.5;" width="267" x="558" y="326"/><rect fill="#F1F1F1" height="61.4648" rx="5" ry="5" style="stroke:#F1F1F1;stroke-width:1.5;" width="271" x="556" y="405"/><text fill="#000000" font-family="sans-serif" font-size="14" font-weight="bold" lengthAdjust="spacing" textLength="78" x="561" y="420.5352">field_value</text><text fill="#000000" font-family="sans-serif" font-size="14" lengthAdjust="spacing" textLength="149" x="665" y="420.5352">Jan 29 2014 12:00AM</text><line style="stroke:#000000;stroke-width:1.0;" x1="660" x2="660" y1="405" y2="425.4883"/><line style="stroke:#000000;stroke-width:1.0;" x1="556" x2="827" y1="425.4883" y2="425.4883"/><text fill="#000000" font-family="sans-serif" font-size="14" font-weight="bold" lengthAdjust="spacing" textLength="74" x="561" y="441.0234">row_count</text><text fill="#000000" font-family="sans-serif" font-size="14" lengthAdjust="spacing" textLength="36" x="665" y="441.0234">2489</text><line style="stroke:#000000;stroke-width:1.0;" x1="660" x2="660" y1="425.4883" y2="445.9766"/><line style="stroke:#000000;stroke-width:1.0;" x1="556" x2="827" y1="445.9766" y2="445.9766"/><text fill="#000000" font-family="sans-serif" font-size="14" font-weight="bold" lengthAdjust="spacing" textLength="94" x="561" y="461.5117">ratio_percent</text><text fill="#000000" font-family="sans-serif" font-size="14" lengthAdjust="spacing" textLength="157" x="665" y="461.5117">2.1940534012675967</text><line style="stroke:#000000;stroke-width:1.0;" x1="660" x2="660" y1="445.9766" y2="466.4648"/><rect fill="none" height="61.4648" rx="5" ry="5" style="stroke:#000000;stroke-width:1.5;" width="271" x="556" y="405"/><rect fill="#F1F1F1" height="61.4648" rx="5" ry="5" style="stroke:#F1F1F1;stroke-width:1.5;" width="267" x="558" y="484"/><text fill="#000000" font-family="sans-serif" font-size="14" font-weight="bold" lengthAdjust="spacing" textLength="78" x="563" y="499.5352">field_value</text><text fill="#000000" font-family="sans-serif" font-size="14" lengthAdjust="spacing" textLength="153" x="667" y="499.5352">Dec 31 2013 12:00AM</text><line style="stroke:#000000;stroke-width:1.0;" x1="662" x2="662" y1="484" y2="504.4883"/><line style="stroke:#000000;stroke-width:1.0;" x1="558" x2="825" y1="504.4883" y2="504.4883"/><text fill="#000000" font-family="sans-serif" font-size="14" font-weight="bold" lengthAdjust="spacing" textLength="74" x="563" y="520.0234">row_count</text><text fill="#000000" font-family="sans-serif" font-size="14" lengthAdjust="spacing" textLength="36" x="667" y="520.0234">2383</text><line style="stroke:#000000;stroke-width:1.0;" x1="662" x2="662" y1="504.4883" y2="524.9766"/><line style="stroke:#000000;stroke-width:1.0;" x1="558" x2="825" y1="524.9766" y2="524.9766"/><text fill="#000000" font-family="sans-serif" font-size="14" font-weight="bold" lengthAdjust="spacing" textLength="94" x="563" y="540.5117">ratio_percent</text><text fill="#000000" font-family="sans-serif" font-size="14" lengthAdjust="spacing" textLength="148" x="667" y="540.5117">2.100614405472352</text><line style="stroke:#000000;stroke-width:1.0;" x1="662" x2="662" y1="524.9766" y2="545.4648"/><rect fill="none" height="61.4648" rx="5" ry="5" style="stroke:#000000;stroke-width:1.5;" width="267" x="558" y="484"/><rect fill="#F1F1F1" height="61.4648" rx="5" ry="5" style="stroke:#F1F1F1;stroke-width:1.5;" width="271" x="556" y="563"/><text fill="#000000" font-family="sans-serif" font-size="14" font-weight="bold" lengthAdjust="spacing" textLength="78" x="561" y="578.5352">field_value</text><text fill="#000000" font-family="sans-serif" font-size="14" lengthAdjust="spacing" textLength="149" x="665" y="578.5352">Mar  1 2014 12:00AM</text><line style="stroke:#000000;stroke-width:1.0;" x1="660" x2="660" y1="563" y2="583.4883"/><line style="stroke:#000000;stroke-width:1.0;" x1="556" x2="827" y1="583.4883" y2="583.4883"/><text fill="#000000" font-family="sans-serif" font-size="14" font-weight="bold" lengthAdjust="spacing" textLength="74" x="561" y="599.0234">row_count</text><text fill="#000000" font-family="sans-serif" font-size="14" lengthAdjust="spacing" textLength="36" x="665" y="599.0234">2078</text><line style="stroke:#000000;stroke-width:1.0;" x1="660" x2="660" y1="583.4883" y2="603.9766"/><line style="stroke:#000000;stroke-width:1.0;" x1="556" x2="827" y1="603.9766" y2="603.9766"/><text fill="#000000" font-family="sans-serif" font-size="14" font-weight="bold" lengthAdjust="spacing" textLength="94" x="561" y="619.5117">ratio_percent</text><text fill="#000000" font-family="sans-serif" font-size="14" lengthAdjust="spacing" textLength="157" x="665" y="619.5117">1.8317569175709387</text><line style="stroke:#000000;stroke-width:1.0;" x1="660" x2="660" y1="603.9766" y2="624.4648"/><rect fill="none" height="61.4648" rx="5" ry="5" style="stroke:#000000;stroke-width:1.5;" width="271" x="556" y="563"/><rect fill="#F1F1F1" height="61.4648" rx="5" ry="5" style="stroke:#F1F1F1;stroke-width:1.5;" width="270" x="556.5" y="642"/><text fill="#000000" font-family="sans-serif" font-size="14" font-weight="bold" lengthAdjust="spacing" textLength="78" x="561.5" y="657.5352">field_value</text><text fill="#000000" font-family="sans-serif" font-size="14" lengthAdjust="spacing" textLength="156" x="665.5" y="657.5352">Aug 30 2013 12:00AM</text><line style="stroke:#000000;stroke-width:1.0;" x1="660.5" x2="660.5" y1="642" y2="662.4883"/><line style="stroke:#000000;stroke-width:1.0;" x1="556.5" x2="826.5" y1="662.4883" y2="662.4883"/><text fill="#000000" font-family="sans-serif" font-size="14" font-weight="bold" lengthAdjust="spacing" textLength="74" x="561.5" y="678.0234">row_count</text><text fill="#000000" font-family="sans-serif" font-size="14" lengthAdjust="spacing" textLength="36" x="665.5" y="678.0234">2029</text><line style="stroke:#000000;stroke-width:1.0;" x1="660.5" x2="660.5" y1="662.4883" y2="682.9766"/><line style="stroke:#000000;stroke-width:1.0;" x1="556.5" x2="826.5" y1="682.9766" y2="682.9766"/><text fill="#000000" font-family="sans-serif" font-size="14" font-weight="bold" lengthAdjust="spacing" textLength="94" x="561.5" y="698.5117">ratio_percent</text><text fill="#000000" font-family="sans-serif" font-size="14" lengthAdjust="spacing" textLength="148" x="665.5" y="698.5117">1.788563419514646</text><line style="stroke:#000000;stroke-width:1.0;" x1="660.5" x2="660.5" y1="682.9766" y2="703.4648"/><rect fill="none" height="61.4648" rx="5" ry="5" style="stroke:#000000;stroke-width:1.5;" width="270" x="556.5" y="642"/><rect fill="#F1F1F1" height="61.4648" rx="5" ry="5" style="stroke:#F1F1F1;stroke-width:1.5;" width="271" x="556" y="721"/><text fill="#000000" font-family="sans-serif" font-size="14" font-weight="bold" lengthAdjust="spacing" textLength="78" x="561" y="736.5352">field_value</text><text fill="#000000" font-family="sans-serif" font-size="14" lengthAdjust="spacing" textLength="154" x="665" y="736.5352">Nov 30 2013 12:00AM</text><line style="stroke:#000000;stroke-width:1.0;" x1="660" x2="660" y1="721" y2="741.4883"/><line style="stroke:#000000;stroke-width:1.0;" x1="556" x2="827" y1="741.4883" y2="741.4883"/><text fill="#000000" font-family="sans-serif" font-size="14" font-weight="bold" lengthAdjust="spacing" textLength="74" x="561" y="757.0234">row_count</text><text fill="#000000" font-family="sans-serif" font-size="14" lengthAdjust="spacing" textLength="36" x="665" y="757.0234">1586</text><line style="stroke:#000000;stroke-width:1.0;" x1="660" x2="660" y1="741.4883" y2="761.9766"/><line style="stroke:#000000;stroke-width:1.0;" x1="556" x2="827" y1="761.9766" y2="761.9766"/><text fill="#000000" font-family="sans-serif" font-size="14" font-weight="bold" lengthAdjust="spacing" textLength="94" x="561" y="777.5117">ratio_percent</text><text fill="#000000" font-family="sans-serif" font-size="14" lengthAdjust="spacing" textLength="157" x="665" y="777.5117">1.3980589370873477</text><line style="stroke:#000000;stroke-width:1.0;" x1="660" x2="660" y1="761.9766" y2="782.4648"/><rect fill="none" height="61.4648" rx="5" ry="5" style="stroke:#000000;stroke-width:1.5;" width="271" x="556" y="721"/><path d="M254,315.5 L267,315.5 C287.8273,315.5 284.5595,295.1812 303,285.5 C307.4954,283.14 312.1967,280.9488 317.0148,278.9165 " fill="none" style="stroke:#000000;stroke-width:1.0;stroke-dasharray:3.0,3.0;"/><path d="M318.1607,281.7694 L319.1544,278.0571 L315.8689,276.0637 L324.147,276.0517 L318.1607,281.7694 " fill="#000000" style="stroke:#000000;stroke-width:1.0;"/><ellipse cx="254" cy="315.5" fill="#000000" rx="3" ry="3" style="stroke:#000000;stroke-width:1.0;"/><path d="M411.5,303.5 L424.5,303.5 C467.6918,303.5 489.6623,316.2434 520,285.5 C585.2827,219.3442 493.93,148.679 556,79.5 C557.0081,78.3765 558.0463,77.2844 559.1126,76.2231 " fill="none" style="stroke:#000000;stroke-width:1.0;stroke-dasharray:3.0,3.0;"/><path d="M561.1347,78.4455 L560.7795,74.7065 L557.0905,74.0006 L564.6688,71.1678 L561.1347,78.4455 " fill="#000000" style="stroke:#000000;stroke-width:1.0;"/><ellipse cx="411.5" cy="303.5" fill="#000000" rx="3" ry="3" style="stroke:#000000;stroke-width:1.0;"/><path d="M411.5,324.5 L424.5,324.5 C470.3473,324.5 489.4377,319.6748 520,285.5 C559.109,241.7683 514.6193,200.0887 556,158.5 C557.2233,157.2705 558.4828,156.0793 559.7755,154.925 " fill="none" style="stroke:#000000;stroke-width:1.0;stroke-dasharray:3.0,3.0;"/><path d="M561.7064,157.2737 L561.537,153.4769 L557.8447,152.5764 L565.6472,150.0978 L561.7064,157.2737 " fill="#000000" style="stroke:#000000;stroke-width:1.0;"/><ellipse cx="411.5" cy="324.5" fill="#000000" rx="3" ry="3" style="stroke:#000000;stroke-width:1.0;"/><path d="M411.5,344.5 L424.5,344.5 C474.3912,344.5 483.1687,319.154 520,285.5 C539.6862,267.5121 534.0554,252.6508 556,237.5 C558.3464,235.88 560.7599,234.3267 563.2295,232.8373 " fill="none" style="stroke:#000000;stroke-width:1.0;stroke-dasharray:3.0,3.0;"/><path d="M564.7476,235.5016 L565.2277,231.6987 L561.7115,230.173 L569.8903,229.0421 L564.7476,235.5016 " fill="#000000" style="stroke:#000000;stroke-width:1.0;"/><ellipse cx="411.5" cy="344.5" fill="#000000" rx="3" ry="3" style="stroke:#000000;stroke-width:1.0;"/><path d="M411.5,365.5 L424.5,365.5 C486.7163,365.5 496.923,337.0135 556,317.5 C563.1375,315.1425 570.508,312.7741 577.9528,310.4317 " fill="none" style="stroke:#000000;stroke-width:1.0;stroke-dasharray:3.0,3.0;"/><path d="M578.8858,313.4171 L580.1919,309.7319 L577.0198,307.4463 L585.4164,308.0992 L578.8858,313.4171 " fill="#000000" style="stroke:#000000;stroke-width:1.0;"/><ellipse cx="411.5" cy="365.5" fill="#000000" rx="3" ry="3" style="stroke:#000000;stroke-width:1.0;"/><path d="M411.5,385.5 L424.5,385.5 C465.6847,385.5 510.2405,382.0348 550.9157,377.5001 " fill="none" style="stroke:#000000;stroke-width:1.0;stroke-dasharray:3.0,3.0;"/><path d="M551.2591,380.5193 L553.1801,377.2425 L550.5723,374.4808 L558.4638,376.6415 L551.2591,380.5193 " fill="#000000" style="stroke:#000000;stroke-width:1.0;"/><ellipse cx="411.5" cy="385.5" fill="#000000" rx="3" ry="3" style="stroke:#000000;stroke-width:1.0;"/><path d="M411.5,406.5 L424.5,406.5 C464.8593,406.5 508.456,409.8277 548.4656,414.2286 " fill="none" style="stroke:#000000;stroke-width:1.0;stroke-dasharray:3.0,3.0;"/><path d="M548.1081,417.4094 L550.8512,414.4968 L548.8232,411.0478 L556.4177,415.1224 L548.1081,417.4094 " fill="#000000" style="stroke:#000000;stroke-width:1.0;"/><ellipse cx="411.5" cy="406.5" fill="#000000" rx="3" ry="3" style="stroke:#000000;stroke-width:1.0;"/><path d="M411.5,427.5 L424.5,427.5 C486.7163,427.5 496.8568,456.1882 556,475.5 C562.3866,477.5854 568.9613,479.6734 575.6099,481.7394 " fill="none" style="stroke:#000000;stroke-width:1.0;stroke-dasharray:3.0,3.0;"/><path d="M574.7171,484.6346 L577.7812,482.409 L576.5027,478.8442 L582.8478,483.9714 L574.7171,484.6346 " fill="#000000" style="stroke:#000000;stroke-width:1.0;"/><ellipse cx="411.5" cy="427.5" fill="#000000" rx="3" ry="3" style="stroke:#000000;stroke-width:1.0;"/><path d="M411.5,447.5 L424.5,447.5 C499.8478,447.5 489.2413,519.5636 556,554.5 C559.4905,556.3267 563.0778,558.078 566.7358,559.7564 " fill="none" style="stroke:#000000;stroke-width:1.0;stroke-dasharray:3.0,3.0;"/><path d="M565.4805,562.6024 L568.8703,560.6978 L567.991,556.9104 L573.8507,562.8945 L565.4805,562.6024 " fill="#000000" style="stroke:#000000;stroke-width:1.0;"/><ellipse cx="411.5" cy="447.5" fill="#000000" rx="3" ry="3" style="stroke:#000000;stroke-width:1.0;"/><path d="M411.5,468.5 L424.5,468.5 C518.2738,468.5 478.057,581.3615 556,633.5 C558.4238,635.1213 560.9155,636.6763 563.4636,638.1676 " fill="none" style="stroke:#000000;stroke-width:1.0;stroke-dasharray:3.0,3.0;"/><path d="M561.9435,640.915 L565.5242,639.3077 L564.9838,635.4201 L570.3322,641.968 L561.9435,640.915 " fill="#000000" style="stroke:#000000;stroke-width:1.0;"/><ellipse cx="411.5" cy="468.5" fill="#000000" rx="3" ry="3" style="stroke:#000000;stroke-width:1.0;"/><path d="M411.5,488.5 L424.5,488.5 C539.9429,488.5 464.8429,641.6661 556,712.5 C557.806,713.9033 559.6607,715.2562 561.5583,716.5604 " fill="none" style="stroke:#000000;stroke-width:1.0;stroke-dasharray:3.0,3.0;"/><path d="M559.8585,719.2035 L563.5406,717.8352 L563.258,713.9173 L568.166,720.8098 L559.8585,719.2035 " fill="#000000" style="stroke:#000000;stroke-width:1.0;"/><ellipse cx="411.5" cy="488.5" fill="#000000" rx="3" ry="3" style="stroke:#000000;stroke-width:1.0;"/><path d="M254,336.5 L267,336.5 C315.5847,336.5 366.7595,366.1373 392.8849,383.7526 " fill="none" style="stroke:#000000;stroke-width:1.0;stroke-dasharray:3.0,3.0;"/><path d="M391.123,386.3062 L394.8001,385.074 L394.6468,381.199 L399.2689,388.1573 L391.123,386.3062 " fill="#000000" style="stroke:#000000;stroke-width:1.0;"/><ellipse cx="254" cy="336.5" fill="#000000" rx="3" ry="3" style="stroke:#000000;stroke-width:1.0;"/><!--MD5=[932cd40386d8d9bcf0636fbd93a172aa]
@startjson
{
    "field1": "TransactionDate",
    "combination": "TransactionDate",
    "null_distribution": {
        "total_null_rows": 0,
        "total_not_null_rows": 113443
    },
    "data_distribution": [
        {
            "field_value": "Jul 31 2013 12:00AM",
            "row_count": 3944,
            "ratio_percent": 3.476635843551387
        },
        {
            "field_value": "Oct 30 2013 12:00AM",
            "row_count": 3319,
            "ratio_percent": 2.9256983683435736
        },
        {
            "field_value": "May  1 2014 12:00AM",
            "row_count": 3271,
            "ratio_percent": 2.8833863702476132
        },
        {
            "field_value": "Mar 31 2014 12:00AM",
            "row_count": 3213,
            "ratio_percent": 2.8322593725483283
        },
        {
            "field_value": "Sep 30 2013 12:00AM",
            "row_count": 3121,
            "ratio_percent": 2.751161376197738
        },
        {
            "field_value": "Jan 29 2014 12:00AM",
            "row_count": 2489,
            "ratio_percent": 2.1940534012675967
        },
        {
            "field_value": "Dec 31 2013 12:00AM",
            "row_count": 2383,
            "ratio_percent": 2.100614405472352
        },
        {
            "field_value": "Mar  1 2014 12:00AM",
            "row_count": 2078,
            "ratio_percent": 1.8317569175709387
        },
        {
            "field_value": "Aug 30 2013 12:00AM",
            "row_count": 2029,
            "ratio_percent": 1.788563419514646
        },
        {
            "field_value": "Nov 30 2013 12:00AM",
            "row_count": 1586,
            "ratio_percent": 1.3980589370873477
        }
    ]
}
@endjson

PlantUML version 1.2022.5(Sat Apr 30 06:55:52 EDT 2022)
(GPL source distribution)
Java Runtime: OpenJDK Runtime Environment
JVM: OpenJDK 64-Bit Server VM
Default Encoding: UTF-8
Language: en
Country: CA
--></g></svg>