<?xml version="1.0" encoding="UTF-8" standalone="no"?><svg xmlns="http://www.w3.org/2000/svg" xmlns:xlink="http://www.w3.org/1999/xlink" contentStyleType="text/css" height="794px" preserveAspectRatio="none" style="width:795px;height:794px;background:#FFFFFF;" version="1.1" viewBox="0 0 795 794" width="795px" zoomAndPan="magnify"><defs/><g><rect fill="#F1F1F1" height="81.9531" rx="5" ry="5" style="stroke:#F1F1F1;stroke-width:1.5;" width="221" x="10" y="264.5"/><text fill="#000000" font-family="sans-serif" font-size="14" font-weight="bold" lengthAdjust="spacing" textLength="42" x="15" y="280.0352">field1</text><text fill="#000000" font-family="sans-serif" font-size="14" lengthAdjust="spacing" textLength="77" x="149" y="280.0352">StockedQty</text><line style="stroke:#000000;stroke-width:1.0;" x1="144" x2="144" y1="264.5" y2="284.9883"/><line style="stroke:#000000;stroke-width:1.0;" x1="10" x2="231" y1="284.9883" y2="284.9883"/><text fill="#000000" font-family="sans-serif" font-size="14" font-weight="bold" lengthAdjust="spacing" textLength="90" x="15" y="300.5234">combination</text><text fill="#000000" font-family="sans-serif" font-size="14" lengthAdjust="spacing" textLength="77" x="149" y="300.5234">StockedQty</text><line style="stroke:#000000;stroke-width:1.0;" x1="144" x2="144" y1="284.9883" y2="305.4766"/><line style="stroke:#000000;stroke-width:1.0;" x1="10" x2="231" y1="305.4766" y2="305.4766"/><text fill="#000000" font-family="sans-serif" font-size="14" font-weight="bold" lengthAdjust="spacing" textLength="121" x="15" y="321.0117">null_distribution</text><text fill="#000000" font-family="sans-serif" font-size="14" lengthAdjust="spacing" textLength="12" x="149" y="321.0117">   </text><line style="stroke:#000000;stroke-width:1.0;" x1="144" x2="144" y1="305.4766" y2="325.9648"/><line style="stroke:#000000;stroke-width:1.0;" x1="10" x2="231" y1="325.9648" y2="325.9648"/><text fill="#000000" font-family="sans-serif" font-size="14" font-weight="bold" lengthAdjust="spacing" textLength="124" x="15" y="341.5">data_distribution</text><text fill="#000000" font-family="sans-serif" font-size="14" lengthAdjust="spacing" textLength="12" x="149" y="341.5">   </text><line style="stroke:#000000;stroke-width:1.0;" x1="144" x2="144" y1="325.9648" y2="346.4531"/><rect fill="none" height="81.9531" rx="5" ry="5" style="stroke:#000000;stroke-width:1.5;" width="221" x="10" y="264.5"/><rect fill="#F1F1F1" height="40.9766" rx="5" ry="5" style="stroke:#F1F1F1;stroke-width:1.5;" width="207" x="268" y="235"/><text fill="#000000" font-family="sans-serif" font-size="14" font-weight="bold" lengthAdjust="spacing" textLength="111" x="273" y="250.5352">total_null_rows</text><text fill="#000000" font-family="sans-serif" font-size="14" lengthAdjust="spacing" textLength="9" x="425" y="250.5352">0</text><line style="stroke:#000000;stroke-width:1.0;" x1="420" x2="420" y1="235" y2="255.4883"/><line style="stroke:#000000;stroke-width:1.0;" x1="268" x2="475" y1="255.4883" y2="255.4883"/><text fill="#000000" font-family="sans-serif" font-size="14" font-weight="bold" lengthAdjust="spacing" textLength="142" x="273" y="271.0234">total_not_null_rows</text><text fill="#000000" font-family="sans-serif" font-size="14" lengthAdjust="spacing" textLength="45" x="425" y="271.0234">72591</text><line style="stroke:#000000;stroke-width:1.0;" x1="420" x2="420" y1="255.4883" y2="275.9766"/><rect fill="none" height="40.9766" rx="5" ry="5" style="stroke:#000000;stroke-width:1.5;" width="207" x="268" y="235"/><rect fill="#F1F1F1" height="204.8828" rx="5" ry="5" style="stroke:#F1F1F1;stroke-width:1.5;" width="22" x="359.5" y="294"/><text fill="#000000" font-family="sans-serif" font-size="14" lengthAdjust="spacing" textLength="12" x="364.5" y="309.5352">   </text><line style="stroke:#000000;stroke-width:1.0;" x1="359.5" x2="381.5" y1="314.4883" y2="314.4883"/><text fill="#000000" font-family="sans-serif" font-size="14" lengthAdjust="spacing" textLength="12" x="364.5" y="330.0234">   </text><line style="stroke:#000000;stroke-width:1.0;" x1="359.5" x2="381.5" y1="334.9766" y2="334.9766"/><text fill="#000000" font-family="sans-serif" font-size="14" lengthAdjust="spacing" textLength="12" x="364.5" y="350.5117">   </text><line style="stroke:#000000;stroke-width:1.0;" x1="359.5" x2="381.5" y1="355.4648" y2="355.4648"/><text fill="#000000" font-family="sans-serif" font-size="14" lengthAdjust="spacing" textLength="12" x="364.5" y="371">   </text><line style="stroke:#000000;stroke-width:1.0;" x1="359.5" x2="381.5" y1="375.9531" y2="375.9531"/><text fill="#000000" font-family="sans-serif" font-size="14" lengthAdjust="spacing" textLength="12" x="364.5" y="391.4883">   </text><line style="stroke:#000000;stroke-width:1.0;" x1="359.5" x2="381.5" y1="396.4414" y2="396.4414"/><text fill="#000000" font-family="sans-serif" font-size="14" lengthAdjust="spacing" textLength="12" x="364.5" y="411.9766">   </text><line style="stroke:#000000;stroke-width:1.0;" x1="359.5" x2="381.5" y1="416.9297" y2="416.9297"/><text fill="#000000" font-family="sans-serif" font-size="14" lengthAdjust="spacing" textLength="12" x="364.5" y="432.4648">   </text><line style="stroke:#000000;stroke-width:1.0;" x1="359.5" x2="381.5" y1="437.418" y2="437.418"/><text fill="#000000" font-family="sans-serif" font-size="14" lengthAdjust="spacing" textLength="12" x="364.5" y="452.9531">   </text><line style="stroke:#000000;stroke-width:1.0;" x1="359.5" x2="381.5" y1="457.9063" y2="457.9063"/><text fill="#000000" font-family="sans-serif" font-size="14" lengthAdjust="spacing" textLength="12" x="364.5" y="473.4414">   </text><line style="stroke:#000000;stroke-width:1.0;" x1="359.5" x2="381.5" y1="478.3945" y2="478.3945"/><text fill="#000000" font-family="sans-serif" font-size="14" lengthAdjust="spacing" textLength="12" x="364.5" y="493.9297">   </text><rect fill="none" height="204.8828" rx="5" ry="5" style="stroke:#000000;stroke-width:1.5;" width="22" x="359.5" y="294"/><rect fill="#F1F1F1" height="61.4648" rx="5" ry="5" style="stroke:#F1F1F1;stroke-width:1.5;" width="271" x="512" y="10"/><text fill="#000000" font-family="sans-serif" font-size="14" font-weight="bold" lengthAdjust="spacing" textLength="78" x="517" y="25.5352">field_value</text><text fill="#000000" font-family="sans-serif" font-size="14" lengthAdjust="spacing" textLength="9" x="621" y="25.5352">1</text><line style="stroke:#000000;stroke-width:1.0;" x1="616" x2="616" y1="10" y2="30.4883"/><line style="stroke:#000000;stroke-width:1.0;" x1="512" x2="783" y1="30.4883" y2="30.4883"/><text fill="#000000" font-family="sans-serif" font-size="14" font-weight="bold" lengthAdjust="spacing" textLength="74" x="517" y="46.0234">row_count</text><text fill="#000000" font-family="sans-serif" font-size="14" lengthAdjust="spacing" textLength="45" x="621" y="46.0234">20830</text><line style="stroke:#000000;stroke-width:1.0;" x1="616" x2="616" y1="30.4883" y2="50.9766"/><line style="stroke:#000000;stroke-width:1.0;" x1="512" x2="783" y1="50.9766" y2="50.9766"/><text fill="#000000" font-family="sans-serif" font-size="14" font-weight="bold" lengthAdjust="spacing" textLength="94" x="517" y="66.5117">ratio_percent</text><text fill="#000000" font-family="sans-serif" font-size="14" lengthAdjust="spacing" textLength="157" x="621" y="66.5117">28.695017288644596</text><line style="stroke:#000000;stroke-width:1.0;" x1="616" x2="616" y1="50.9766" y2="71.4648"/><rect fill="none" height="61.4648" rx="5" ry="5" style="stroke:#000000;stroke-width:1.5;" width="271" x="512" y="10"/><rect fill="#F1F1F1" height="61.4648" rx="5" ry="5" style="stroke:#F1F1F1;stroke-width:1.5;" width="262" x="516.5" y="89"/><text fill="#000000" font-family="sans-serif" font-size="14" font-weight="bold" lengthAdjust="spacing" textLength="78" x="521.5" y="104.5352">field_value</text><text fill="#000000" font-family="sans-serif" font-size="14" lengthAdjust="spacing" textLength="9" x="625.5" y="104.5352">2</text><line style="stroke:#000000;stroke-width:1.0;" x1="620.5" x2="620.5" y1="89" y2="109.4883"/><line style="stroke:#000000;stroke-width:1.0;" x1="516.5" x2="778.5" y1="109.4883" y2="109.4883"/><text fill="#000000" font-family="sans-serif" font-size="14" font-weight="bold" lengthAdjust="spacing" textLength="74" x="521.5" y="125.0234">row_count</text><text fill="#000000" font-family="sans-serif" font-size="14" lengthAdjust="spacing" textLength="36" x="625.5" y="125.0234">9001</text><line style="stroke:#000000;stroke-width:1.0;" x1="620.5" x2="620.5" y1="109.4883" y2="129.9766"/><line style="stroke:#000000;stroke-width:1.0;" x1="516.5" x2="778.5" y1="129.9766" y2="129.9766"/><text fill="#000000" font-family="sans-serif" font-size="14" font-weight="bold" lengthAdjust="spacing" textLength="94" x="521.5" y="145.5117">ratio_percent</text><text fill="#000000" font-family="sans-serif" font-size="14" lengthAdjust="spacing" textLength="148" x="625.5" y="145.5117">12.39960876692703</text><line style="stroke:#000000;stroke-width:1.0;" x1="620.5" x2="620.5" y1="129.9766" y2="150.4648"/><rect fill="none" height="61.4648" rx="5" ry="5" style="stroke:#000000;stroke-width:1.5;" width="262" x="516.5" y="89"/><rect fill="#F1F1F1" height="61.4648" rx="5" ry="5" style="stroke:#F1F1F1;stroke-width:1.5;" width="262" x="516.5" y="168"/><text fill="#000000" font-family="sans-serif" font-size="14" font-weight="bold" lengthAdjust="spacing" textLength="78" x="521.5" y="183.5352">field_value</text><text fill="#000000" font-family="sans-serif" font-size="14" lengthAdjust="spacing" textLength="9" x="625.5" y="183.5352">3</text><line style="stroke:#000000;stroke-width:1.0;" x1="620.5" x2="620.5" y1="168" y2="188.4883"/><line style="stroke:#000000;stroke-width:1.0;" x1="516.5" x2="778.5" y1="188.4883" y2="188.4883"/><text fill="#000000" font-family="sans-serif" font-size="14" font-weight="bold" lengthAdjust="spacing" textLength="74" x="521.5" y="204.0234">row_count</text><text fill="#000000" font-family="sans-serif" font-size="14" lengthAdjust="spacing" textLength="36" x="625.5" y="204.0234">5047</text><line style="stroke:#000000;stroke-width:1.0;" x1="620.5" x2="620.5" y1="188.4883" y2="208.9766"/><line style="stroke:#000000;stroke-width:1.0;" x1="516.5" x2="778.5" y1="208.9766" y2="208.9766"/><text fill="#000000" font-family="sans-serif" font-size="14" font-weight="bold" lengthAdjust="spacing" textLength="94" x="521.5" y="224.5117">ratio_percent</text><text fill="#000000" font-family="sans-serif" font-size="14" lengthAdjust="spacing" textLength="148" x="625.5" y="224.5117">6.952652532683115</text><line style="stroke:#000000;stroke-width:1.0;" x1="620.5" x2="620.5" y1="208.9766" y2="229.4648"/><rect fill="none" height="61.4648" rx="5" ry="5" style="stroke:#000000;stroke-width:1.5;" width="262" x="516.5" y="168"/><rect fill="#F1F1F1" height="61.4648" rx="5" ry="5" style="stroke:#F1F1F1;stroke-width:1.5;" width="262" x="516.5" y="247"/><text fill="#000000" font-family="sans-serif" font-size="14" font-weight="bold" lengthAdjust="spacing" textLength="78" x="521.5" y="262.5352">field_value</text><text fill="#000000" font-family="sans-serif" font-size="14" lengthAdjust="spacing" textLength="9" x="625.5" y="262.5352">4</text><line style="stroke:#000000;stroke-width:1.0;" x1="620.5" x2="620.5" y1="247" y2="267.4883"/><line style="stroke:#000000;stroke-width:1.0;" x1="516.5" x2="778.5" y1="267.4883" y2="267.4883"/><text fill="#000000" font-family="sans-serif" font-size="14" font-weight="bold" lengthAdjust="spacing" textLength="74" x="521.5" y="283.0234">row_count</text><text fill="#000000" font-family="sans-serif" font-size="14" lengthAdjust="spacing" textLength="36" x="625.5" y="283.0234">4333</text><line style="stroke:#000000;stroke-width:1.0;" x1="620.5" x2="620.5" y1="267.4883" y2="287.9766"/><line style="stroke:#000000;stroke-width:1.0;" x1="516.5" x2="778.5" y1="287.9766" y2="287.9766"/><text fill="#000000" font-family="sans-serif" font-size="14" font-weight="bold" lengthAdjust="spacing" textLength="94" x="521.5" y="303.5117">ratio_percent</text><text fill="#000000" font-family="sans-serif" font-size="14" lengthAdjust="spacing" textLength="148" x="625.5" y="303.5117">5.969059525285504</text><line style="stroke:#000000;stroke-width:1.0;" x1="620.5" x2="620.5" y1="287.9766" y2="308.4648"/><rect fill="none" height="61.4648" rx="5" ry="5" style="stroke:#000000;stroke-width:1.5;" width="262" x="516.5" y="247"/><rect fill="#F1F1F1" height="61.4648" rx="5" ry="5" style="stroke:#F1F1F1;stroke-width:1.5;" width="262" x="516.5" y="326"/><text fill="#000000" font-family="sans-serif" font-size="14" font-weight="bold" lengthAdjust="spacing" textLength="78" x="521.5" y="341.5352">field_value</text><text fill="#000000" font-family="sans-serif" font-size="14" lengthAdjust="spacing" textLength="9" x="625.5" y="341.5352">5</text><line style="stroke:#000000;stroke-width:1.0;" x1="620.5" x2="620.5" y1="326" y2="346.4883"/><line style="stroke:#000000;stroke-width:1.0;" x1="516.5" x2="778.5" y1="346.4883" y2="346.4883"/><text fill="#000000" font-family="sans-serif" font-size="14" font-weight="bold" lengthAdjust="spacing" textLength="74" x="521.5" y="362.0234">row_count</text><text fill="#000000" font-family="sans-serif" font-size="14" lengthAdjust="spacing" textLength="36" x="625.5" y="362.0234">3214</text><line style="stroke:#000000;stroke-width:1.0;" x1="620.5" x2="620.5" y1="346.4883" y2="366.9766"/><line style="stroke:#000000;stroke-width:1.0;" x1="516.5" x2="778.5" y1="366.9766" y2="366.9766"/><text fill="#000000" font-family="sans-serif" font-size="14" font-weight="bold" lengthAdjust="spacing" textLength="94" x="521.5" y="382.5117">ratio_percent</text><text fill="#000000" font-family="sans-serif" font-size="14" lengthAdjust="spacing" textLength="148" x="625.5" y="382.5117">4.427546114532104</text><line style="stroke:#000000;stroke-width:1.0;" x1="620.5" x2="620.5" y1="366.9766" y2="387.4648"/><rect fill="none" height="61.4648" rx="5" ry="5" style="stroke:#000000;stroke-width:1.5;" width="262" x="516.5" y="326"/><rect fill="#F1F1F1" height="61.4648" rx="5" ry="5" style="stroke:#F1F1F1;stroke-width:1.5;" width="262" x="516.5" y="405"/><text fill="#000000" font-family="sans-serif" font-size="14" font-weight="bold" lengthAdjust="spacing" textLength="78" x="521.5" y="420.5352">field_value</text><text fill="#000000" font-family="sans-serif" font-size="14" lengthAdjust="spacing" textLength="9" x="625.5" y="420.5352">6</text><line style="stroke:#000000;stroke-width:1.0;" x1="620.5" x2="620.5" y1="405" y2="425.4883"/><line style="stroke:#000000;stroke-width:1.0;" x1="516.5" x2="778.5" y1="425.4883" y2="425.4883"/><text fill="#000000" font-family="sans-serif" font-size="14" font-weight="bold" lengthAdjust="spacing" textLength="74" x="521.5" y="441.0234">row_count</text><text fill="#000000" font-family="sans-serif" font-size="14" lengthAdjust="spacing" textLength="36" x="625.5" y="441.0234">3198</text><line style="stroke:#000000;stroke-width:1.0;" x1="620.5" x2="620.5" y1="425.4883" y2="445.9766"/><line style="stroke:#000000;stroke-width:1.0;" x1="516.5" x2="778.5" y1="445.9766" y2="445.9766"/><text fill="#000000" font-family="sans-serif" font-size="14" font-weight="bold" lengthAdjust="spacing" textLength="94" x="521.5" y="461.5117">ratio_percent</text><text fill="#000000" font-family="sans-serif" font-size="14" lengthAdjust="spacing" textLength="148" x="625.5" y="461.5117">4.405504814646444</text><line style="stroke:#000000;stroke-width:1.0;" x1="620.5" x2="620.5" y1="445.9766" y2="466.4648"/><rect fill="none" height="61.4648" rx="5" ry="5" style="stroke:#000000;stroke-width:1.5;" width="262" x="516.5" y="405"/><rect fill="#F1F1F1" height="61.4648" rx="5" ry="5" style="stroke:#F1F1F1;stroke-width:1.5;" width="262" x="516.5" y="484"/><text fill="#000000" font-family="sans-serif" font-size="14" font-weight="bold" lengthAdjust="spacing" textLength="78" x="521.5" y="499.5352">field_value</text><text fill="#000000" font-family="sans-serif" font-size="14" lengthAdjust="spacing" textLength="9" x="625.5" y="499.5352">7</text><line style="stroke:#000000;stroke-width:1.0;" x1="620.5" x2="620.5" y1="484" y2="504.4883"/><line style="stroke:#000000;stroke-width:1.0;" x1="516.5" x2="778.5" y1="504.4883" y2="504.4883"/><text fill="#000000" font-family="sans-serif" font-size="14" font-weight="bold" lengthAdjust="spacing" textLength="74" x="521.5" y="520.0234">row_count</text><text fill="#000000" font-family="sans-serif" font-size="14" lengthAdjust="spacing" textLength="36" x="625.5" y="520.0234">2261</text><line style="stroke:#000000;stroke-width:1.0;" x1="620.5" x2="620.5" y1="504.4883" y2="524.9766"/><line style="stroke:#000000;stroke-width:1.0;" x1="516.5" x2="778.5" y1="524.9766" y2="524.9766"/><text fill="#000000" font-family="sans-serif" font-size="14" font-weight="bold" lengthAdjust="spacing" textLength="94" x="521.5" y="540.5117">ratio_percent</text><text fill="#000000" font-family="sans-serif" font-size="14" lengthAdjust="spacing" textLength="148" x="625.5" y="540.5117">3.114711190092436</text><line style="stroke:#000000;stroke-width:1.0;" x1="620.5" x2="620.5" y1="524.9766" y2="545.4648"/><rect fill="none" height="61.4648" rx="5" ry="5" style="stroke:#000000;stroke-width:1.5;" width="262" x="516.5" y="484"/><rect fill="#F1F1F1" height="61.4648" rx="5" ry="5" style="stroke:#F1F1F1;stroke-width:1.5;" width="271" x="512" y="563"/><text fill="#000000" font-family="sans-serif" font-size="14" font-weight="bold" lengthAdjust="spacing" textLength="78" x="517" y="578.5352">field_value</text><text fill="#000000" font-family="sans-serif" font-size="14" lengthAdjust="spacing" textLength="9" x="621" y="578.5352">8</text><line style="stroke:#000000;stroke-width:1.0;" x1="616" x2="616" y1="563" y2="583.4883"/><line style="stroke:#000000;stroke-width:1.0;" x1="512" x2="783" y1="583.4883" y2="583.4883"/><text fill="#000000" font-family="sans-serif" font-size="14" font-weight="bold" lengthAdjust="spacing" textLength="74" x="517" y="599.0234">row_count</text><text fill="#000000" font-family="sans-serif" font-size="14" lengthAdjust="spacing" textLength="36" x="621" y="599.0234">2253</text><line style="stroke:#000000;stroke-width:1.0;" x1="616" x2="616" y1="583.4883" y2="603.9766"/><line style="stroke:#000000;stroke-width:1.0;" x1="512" x2="783" y1="603.9766" y2="603.9766"/><text fill="#000000" font-family="sans-serif" font-size="14" font-weight="bold" lengthAdjust="spacing" textLength="94" x="517" y="619.5117">ratio_percent</text><text fill="#000000" font-family="sans-serif" font-size="14" lengthAdjust="spacing" textLength="157" x="621" y="619.5117">3.1036905401496053</text><line style="stroke:#000000;stroke-width:1.0;" x1="616" x2="616" y1="603.9766" y2="624.4648"/><rect fill="none" height="61.4648" rx="5" ry="5" style="stroke:#000000;stroke-width:1.5;" width="271" x="512" y="563"/><rect fill="#F1F1F1" height="61.4648" rx="5" ry="5" style="stroke:#F1F1F1;stroke-width:1.5;" width="262" x="516.5" y="642"/><text fill="#000000" font-family="sans-serif" font-size="14" font-weight="bold" lengthAdjust="spacing" textLength="78" x="521.5" y="657.5352">field_value</text><text fill="#000000" font-family="sans-serif" font-size="14" lengthAdjust="spacing" textLength="18" x="625.5" y="657.5352">10</text><line style="stroke:#000000;stroke-width:1.0;" x1="620.5" x2="620.5" y1="642" y2="662.4883"/><line style="stroke:#000000;stroke-width:1.0;" x1="516.5" x2="778.5" y1="662.4883" y2="662.4883"/><text fill="#000000" font-family="sans-serif" font-size="14" font-weight="bold" lengthAdjust="spacing" textLength="74" x="521.5" y="678.0234">row_count</text><text fill="#000000" font-family="sans-serif" font-size="14" lengthAdjust="spacing" textLength="36" x="625.5" y="678.0234">1842</text><line style="stroke:#000000;stroke-width:1.0;" x1="620.5" x2="620.5" y1="662.4883" y2="682.9766"/><line style="stroke:#000000;stroke-width:1.0;" x1="516.5" x2="778.5" y1="682.9766" y2="682.9766"/><text fill="#000000" font-family="sans-serif" font-size="14" font-weight="bold" lengthAdjust="spacing" textLength="94" x="521.5" y="698.5117">ratio_percent</text><text fill="#000000" font-family="sans-serif" font-size="14" lengthAdjust="spacing" textLength="148" x="625.5" y="698.5117">2.537504649336695</text><line style="stroke:#000000;stroke-width:1.0;" x1="620.5" x2="620.5" y1="682.9766" y2="703.4648"/><rect fill="none" height="61.4648" rx="5" ry="5" style="stroke:#000000;stroke-width:1.5;" width="262" x="516.5" y="642"/><rect fill="#F1F1F1" height="61.4648" rx="5" ry="5" style="stroke:#F1F1F1;stroke-width:1.5;" width="271" x="512" y="721"/><text fill="#000000" font-family="sans-serif" font-size="14" font-weight="bold" lengthAdjust="spacing" textLength="78" x="517" y="736.5352">field_value</text><text fill="#000000" font-family="sans-serif" font-size="14" lengthAdjust="spacing" textLength="9" x="621" y="736.5352">9</text><line style="stroke:#000000;stroke-width:1.0;" x1="616" x2="616" y1="721" y2="741.4883"/><line style="stroke:#000000;stroke-width:1.0;" x1="512" x2="783" y1="741.4883" y2="741.4883"/><text fill="#000000" font-family="sans-serif" font-size="14" font-weight="bold" lengthAdjust="spacing" textLength="74" x="517" y="757.0234">row_count</text><text fill="#000000" font-family="sans-serif" font-size="14" lengthAdjust="spacing" textLength="36" x="621" y="757.0234">1491</text><line style="stroke:#000000;stroke-width:1.0;" x1="616" x2="616" y1="741.4883" y2="761.9766"/><line style="stroke:#000000;stroke-width:1.0;" x1="512" x2="783" y1="761.9766" y2="761.9766"/><text fill="#000000" font-family="sans-serif" font-size="14" font-weight="bold" lengthAdjust="spacing" textLength="94" x="517" y="777.5117">ratio_percent</text><text fill="#000000" font-family="sans-serif" font-size="14" lengthAdjust="spacing" textLength="157" x="621" y="777.5117">2.0539736330950116</text><line style="stroke:#000000;stroke-width:1.0;" x1="616" x2="616" y1="761.9766" y2="782.4648"/><rect fill="none" height="61.4648" rx="5" ry="5" style="stroke:#000000;stroke-width:1.5;" width="271" x="512" y="721"/><path d="M219,315.5 L232,315.5 C252.8273,315.5 249.6143,295.285 268,285.5 C272.4187,283.1484 277.0447,280.9598 281.7859,278.9261 " fill="none" style="stroke:#000000;stroke-width:1.0;stroke-dasharray:3.0,3.0;"/><path d="M282.9339,281.7334 L283.8914,278.0652 L280.638,276.1189 L288.804,276.0563 L282.9339,281.7334 " fill="#000000" style="stroke:#000000;stroke-width:1.0;"/><ellipse cx="219" cy="315.5" fill="#000000" rx="3" ry="3" style="stroke:#000000;stroke-width:1.0;"/><path d="M372,303.5 L385,303.5 C426.2281,303.5 447.1738,314.9755 476,285.5 C540.9848,219.0516 449.93,148.679 512,79.5 C513.0081,78.3765 514.0463,77.2844 515.1126,76.2231 " fill="none" style="stroke:#000000;stroke-width:1.0;stroke-dasharray:3.0,3.0;"/><path d="M517.1347,78.4455 L516.7795,74.7065 L513.0905,74.0006 L520.6688,71.1678 L517.1347,78.4455 " fill="#000000" style="stroke:#000000;stroke-width:1.0;"/><ellipse cx="372" cy="303.5" fill="#000000" rx="3" ry="3" style="stroke:#000000;stroke-width:1.0;"/><path d="M372,324.5 L385,324.5 C429.0022,324.5 446.9505,318.5503 476,285.5 C514.7318,241.4339 470.6193,200.0887 512,158.5 C513.2233,157.2705 514.4828,156.0793 515.7755,154.925 " fill="none" style="stroke:#000000;stroke-width:1.0;stroke-dasharray:3.0,3.0;"/><path d="M517.7064,157.2737 L517.537,153.4769 L513.8447,152.5764 L521.6472,150.0978 L517.7064,157.2737 " fill="#000000" style="stroke:#000000;stroke-width:1.0;"/><ellipse cx="372" cy="324.5" fill="#000000" rx="3" ry="3" style="stroke:#000000;stroke-width:1.0;"/><path d="M372,344.5 L385,344.5 C433.2012,344.5 440.773,318.4001 476,285.5 C495.4889,267.2985 490.0554,252.6508 512,237.5 C514.3464,235.88 516.7599,234.3267 519.2295,232.8373 " fill="none" style="stroke:#000000;stroke-width:1.0;stroke-dasharray:3.0,3.0;"/><path d="M520.7476,235.5016 L521.2277,231.6987 L517.7115,230.173 L525.8903,229.0421 L520.7476,235.5016 " fill="#000000" style="stroke:#000000;stroke-width:1.0;"/><ellipse cx="372" cy="344.5" fill="#000000" rx="3" ry="3" style="stroke:#000000;stroke-width:1.0;"/><path d="M372,365.5 L385,365.5 C445.3414,365.5 454.8118,336.7507 512,317.5 C519.0371,315.1312 526.3048,312.7614 533.6494,310.4241 " fill="none" style="stroke:#000000;stroke-width:1.0;stroke-dasharray:3.0,3.0;"/><path d="M534.5794,313.3699 L535.8587,309.7266 L532.7193,307.4783 L541.0138,308.099 L534.5794,313.3699 " fill="#000000" style="stroke:#000000;stroke-width:1.0;"/><ellipse cx="372" cy="365.5" fill="#000000" rx="3" ry="3" style="stroke:#000000;stroke-width:1.0;"/><path d="M372,385.5 L385,385.5 C425.3294,385.5 468.94,382.0635 508.7937,377.5565 " fill="none" style="stroke:#000000;stroke-width:1.0;stroke-dasharray:3.0,3.0;"/><path d="M509.1597,380.7239 L511.1692,377.282 L508.4277,374.389 L516.7122,376.6415 L509.1597,380.7239 " fill="#000000" style="stroke:#000000;stroke-width:1.0;"/><ellipse cx="372" cy="385.5" fill="#000000" rx="3" ry="3" style="stroke:#000000;stroke-width:1.0;"/><path d="M372,406.5 L385,406.5 C425.3294,406.5 468.94,409.9365 508.7937,414.4435 " fill="none" style="stroke:#000000;stroke-width:1.0;stroke-dasharray:3.0,3.0;"/><path d="M508.4277,417.611 L511.1692,414.718 L509.1597,411.2761 L516.7122,415.3585 L508.4277,417.611 " fill="#000000" style="stroke:#000000;stroke-width:1.0;"/><ellipse cx="372" cy="406.5" fill="#000000" rx="3" ry="3" style="stroke:#000000;stroke-width:1.0;"/><path d="M372,427.5 L385,427.5 C445.3414,427.5 454.7464,456.4445 512,475.5 C518.1558,477.5488 524.4895,479.5928 530.8977,481.6109 " fill="none" style="stroke:#000000;stroke-width:1.0;stroke-dasharray:3.0,3.0;"/><path d="M529.9553,484.6312 L533.1629,482.3177 L531.84,478.5906 L538.4484,483.9668 L529.9553,484.6312 " fill="#000000" style="stroke:#000000;stroke-width:1.0;"/><ellipse cx="372" cy="427.5" fill="#000000" rx="3" ry="3" style="stroke:#000000;stroke-width:1.0;"/><path d="M372,447.5 L385,447.5 C458.8072,447.5 446.9012,519.7199 512,554.5 C515.4092,556.3214 518.9135,558.0667 522.488,559.7385 " fill="none" style="stroke:#000000;stroke-width:1.0;stroke-dasharray:3.0,3.0;"/><path d="M521.2381,562.5202 L524.5743,560.6759 L523.7379,556.9568 L529.4423,562.8631 L521.2381,562.5202 " fill="#000000" style="stroke:#000000;stroke-width:1.0;"/><ellipse cx="372" cy="447.5" fill="#000000" rx="3" ry="3" style="stroke:#000000;stroke-width:1.0;"/><path d="M372,468.5 L385,468.5 C477.5405,468.5 435.5197,581.399 512,633.5 C514.3564,635.1053 516.7791,636.6453 519.257,638.1226 " fill="none" style="stroke:#000000;stroke-width:1.0;stroke-dasharray:3.0,3.0;"/><path d="M517.7506,640.7949 L521.2612,639.2524 L520.7634,635.4503 L525.9378,641.8886 L517.7506,640.7949 " fill="#000000" style="stroke:#000000;stroke-width:1.0;"/><ellipse cx="372" cy="468.5" fill="#000000" rx="3" ry="3" style="stroke:#000000;stroke-width:1.0;"/><path d="M372,488.5 L385,488.5 C499.4434,488.5 422.1639,641.6004 512,712.5 C513.7953,713.9169 515.6403,715.2823 517.5287,716.5982 " fill="none" style="stroke:#000000;stroke-width:1.0;stroke-dasharray:3.0,3.0;"/><path d="M515.8145,719.23 L519.5025,717.8838 L519.2428,713.9664 L524.1082,720.8836 L515.8145,719.23 " fill="#000000" style="stroke:#000000;stroke-width:1.0;"/><ellipse cx="372" cy="488.5" fill="#000000" rx="3" ry="3" style="stroke:#000000;stroke-width:1.0;"/><path d="M219,336.5 L232,336.5 C279.0497,336.5 328.2629,365.8357 353.6101,383.482 " fill="none" style="stroke:#000000;stroke-width:1.0;stroke-dasharray:3.0,3.0;"/><path d="M351.8416,385.964 L355.4716,384.8085 L355.3787,381.0001 L359.815,387.9035 L351.8416,385.964 " fill="#000000" style="stroke:#000000;stroke-width:1.0;"/><ellipse cx="219" cy="336.5" fill="#000000" rx="3" ry="3" style="stroke:#000000;stroke-width:1.0;"/><!--MD5=[55bb0795dba9d574898ff4d7d92702c3]
@startjson
{
    "field1": "StockedQty",
    "combination": "StockedQty",
    "null_distribution": {
        "total_null_rows": 0,
        "total_not_null_rows": 72591
    },
    "data_distribution": [
        {
            "field_value": "1",
            "row_count": 20830,
            "ratio_percent": 28.695017288644596
        },
        {
            "field_value": "2",
            "row_count": 9001,
            "ratio_percent": 12.39960876692703
        },
        {
            "field_value": "3",
            "row_count": 5047,
            "ratio_percent": 6.952652532683115
        },
        {
            "field_value": "4",
            "row_count": 4333,
            "ratio_percent": 5.969059525285504
        },
        {
            "field_value": "5",
            "row_count": 3214,
            "ratio_percent": 4.427546114532104
        },
        {
            "field_value": "6",
            "row_count": 3198,
            "ratio_percent": 4.405504814646444
        },
        {
            "field_value": "7",
            "row_count": 2261,
            "ratio_percent": 3.114711190092436
        },
        {
            "field_value": "8",
            "row_count": 2253,
            "ratio_percent": 3.1036905401496053
        },
        {
            "field_value": "10",
            "row_count": 1842,
            "ratio_percent": 2.537504649336695
        },
        {
            "field_value": "9",
            "row_count": 1491,
            "ratio_percent": 2.0539736330950116
        }
    ]
}
@endjson

PlantUML version 1.2022.5(Sat Apr 30 06:55:52 EDT 2022)
(GPL source distribution)
Java Runtime: OpenJDK Runtime Environment
JVM: OpenJDK 64-Bit Server VM
Default Encoding: UTF-8
Language: en
Country: CA
--></g></svg>