<?xml version="1.0" encoding="UTF-8" standalone="no"?><svg xmlns="http://www.w3.org/2000/svg" xmlns:xlink="http://www.w3.org/1999/xlink" contentStyleType="text/css" height="241px" preserveAspectRatio="none" style="width:779px;height:241px;background:#FFFFFF;" version="1.1" viewBox="0 0 779 241" width="779px" zoomAndPan="magnify"><defs/><g><rect fill="#F1F1F1" height="81.9531" rx="5" ry="5" style="stroke:#F1F1F1;stroke-width:1.5;" width="225" x="10" y="24.5"/><text fill="#000000" font-family="sans-serif" font-size="14" font-weight="bold" lengthAdjust="spacing" textLength="42" x="15" y="40.0352">field1</text><text fill="#000000" font-family="sans-serif" font-size="14" lengthAdjust="spacing" textLength="81" x="149" y="40.0352">SellEndDate</text><line style="stroke:#000000;stroke-width:1.0;" x1="144" x2="144" y1="24.5" y2="44.9883"/><line style="stroke:#000000;stroke-width:1.0;" x1="10" x2="235" y1="44.9883" y2="44.9883"/><text fill="#000000" font-family="sans-serif" font-size="14" font-weight="bold" lengthAdjust="spacing" textLength="90" x="15" y="60.5234">combination</text><text fill="#000000" font-family="sans-serif" font-size="14" lengthAdjust="spacing" textLength="81" x="149" y="60.5234">SellEndDate</text><line style="stroke:#000000;stroke-width:1.0;" x1="144" x2="144" y1="44.9883" y2="65.4766"/><line style="stroke:#000000;stroke-width:1.0;" x1="10" x2="235" y1="65.4766" y2="65.4766"/><text fill="#000000" font-family="sans-serif" font-size="14" font-weight="bold" lengthAdjust="spacing" textLength="121" x="15" y="81.0117">null_distribution</text><text fill="#000000" font-family="sans-serif" font-size="14" lengthAdjust="spacing" textLength="12" x="149" y="81.0117">   </text><line style="stroke:#000000;stroke-width:1.0;" x1="144" x2="144" y1="65.4766" y2="85.9648"/><line style="stroke:#000000;stroke-width:1.0;" x1="10" x2="235" y1="85.9648" y2="85.9648"/><text fill="#000000" font-family="sans-serif" font-size="14" font-weight="bold" lengthAdjust="spacing" textLength="124" x="15" y="101.5">data_distribution</text><text fill="#000000" font-family="sans-serif" font-size="14" lengthAdjust="spacing" textLength="12" x="149" y="101.5">   </text><line style="stroke:#000000;stroke-width:1.0;" x1="144" x2="144" y1="85.9648" y2="106.4531"/><rect fill="none" height="81.9531" rx="5" ry="5" style="stroke:#000000;stroke-width:1.5;" width="225" x="10" y="24.5"/><rect fill="#F1F1F1" height="40.9766" rx="5" ry="5" style="stroke:#F1F1F1;stroke-width:1.5;" width="189" x="272" y="31"/><text fill="#000000" font-family="sans-serif" font-size="14" font-weight="bold" lengthAdjust="spacing" textLength="111" x="277" y="46.5352">total_null_rows</text><text fill="#000000" font-family="sans-serif" font-size="14" lengthAdjust="spacing" textLength="27" x="429" y="46.5352">406</text><line style="stroke:#000000;stroke-width:1.0;" x1="424" x2="424" y1="31" y2="51.4883"/><line style="stroke:#000000;stroke-width:1.0;" x1="272" x2="461" y1="51.4883" y2="51.4883"/><text fill="#000000" font-family="sans-serif" font-size="14" font-weight="bold" lengthAdjust="spacing" textLength="142" x="277" y="67.0234">total_not_null_rows</text><text fill="#000000" font-family="sans-serif" font-size="14" lengthAdjust="spacing" textLength="18" x="429" y="67.0234">98</text><line style="stroke:#000000;stroke-width:1.0;" x1="424" x2="424" y1="51.4883" y2="71.9766"/><rect fill="none" height="40.9766" rx="5" ry="5" style="stroke:#000000;stroke-width:1.5;" width="189" x="272" y="31"/><rect fill="#F1F1F1" height="61.4648" rx="5" ry="5" style="stroke:#F1F1F1;stroke-width:1.5;" width="22" x="354.5" y="90"/><text fill="#000000" font-family="sans-serif" font-size="14" lengthAdjust="spacing" textLength="12" x="359.5" y="105.5352">   </text><line style="stroke:#000000;stroke-width:1.0;" x1="354.5" x2="376.5" y1="110.4883" y2="110.4883"/><text fill="#000000" font-family="sans-serif" font-size="14" lengthAdjust="spacing" textLength="12" x="359.5" y="126.0234">   </text><line style="stroke:#000000;stroke-width:1.0;" x1="354.5" x2="376.5" y1="130.9766" y2="130.9766"/><text fill="#000000" font-family="sans-serif" font-size="14" lengthAdjust="spacing" textLength="12" x="359.5" y="146.5117">   </text><rect fill="none" height="61.4648" rx="5" ry="5" style="stroke:#000000;stroke-width:1.5;" width="22" x="354.5" y="90"/><rect fill="#F1F1F1" height="61.4648" rx="5" ry="5" style="stroke:#F1F1F1;stroke-width:1.5;" width="262" x="501.5" y="10"/><text fill="#000000" font-family="sans-serif" font-size="14" font-weight="bold" lengthAdjust="spacing" textLength="78" x="506.5" y="25.5352">field_value</text><text fill="#000000" font-family="sans-serif" font-size="14" font-weight="bold" lengthAdjust="spacing" textLength="37" x="610.5" y="25.5352">NULL</text><line style="stroke:#000000;stroke-width:1.0;" x1="605.5" x2="605.5" y1="10" y2="30.4883"/><line style="stroke:#000000;stroke-width:1.0;" x1="501.5" x2="763.5" y1="30.4883" y2="30.4883"/><text fill="#000000" font-family="sans-serif" font-size="14" font-weight="bold" lengthAdjust="spacing" textLength="74" x="506.5" y="46.0234">row_count</text><text fill="#000000" font-family="sans-serif" font-size="14" lengthAdjust="spacing" textLength="27" x="610.5" y="46.0234">406</text><line style="stroke:#000000;stroke-width:1.0;" x1="605.5" x2="605.5" y1="30.4883" y2="50.9766"/><line style="stroke:#000000;stroke-width:1.0;" x1="501.5" x2="763.5" y1="50.9766" y2="50.9766"/><text fill="#000000" font-family="sans-serif" font-size="14" font-weight="bold" lengthAdjust="spacing" textLength="94" x="506.5" y="66.5117">ratio_percent</text><text fill="#000000" font-family="sans-serif" font-size="14" lengthAdjust="spacing" textLength="148" x="610.5" y="66.5117">80.55555555555556</text><line style="stroke:#000000;stroke-width:1.0;" x1="605.5" x2="605.5" y1="50.9766" y2="71.4648"/><rect fill="none" height="61.4648" rx="5" ry="5" style="stroke:#000000;stroke-width:1.5;" width="262" x="501.5" y="10"/><rect fill="#F1F1F1" height="61.4648" rx="5" ry="5" style="stroke:#F1F1F1;stroke-width:1.5;" width="269" x="498" y="89"/><text fill="#000000" font-family="sans-serif" font-size="14" font-weight="bold" lengthAdjust="spacing" textLength="78" x="503" y="104.5352">field_value</text><text fill="#000000" font-family="sans-serif" font-size="14" lengthAdjust="spacing" textLength="155" x="607" y="104.5352">May 29 2013 12:00AM</text><line style="stroke:#000000;stroke-width:1.0;" x1="602" x2="602" y1="89" y2="109.4883"/><line style="stroke:#000000;stroke-width:1.0;" x1="498" x2="767" y1="109.4883" y2="109.4883"/><text fill="#000000" font-family="sans-serif" font-size="14" font-weight="bold" lengthAdjust="spacing" textLength="74" x="503" y="125.0234">row_count</text><text fill="#000000" font-family="sans-serif" font-size="14" lengthAdjust="spacing" textLength="18" x="607" y="125.0234">69</text><line style="stroke:#000000;stroke-width:1.0;" x1="602" x2="602" y1="109.4883" y2="129.9766"/><line style="stroke:#000000;stroke-width:1.0;" x1="498" x2="767" y1="129.9766" y2="129.9766"/><text fill="#000000" font-family="sans-serif" font-size="14" font-weight="bold" lengthAdjust="spacing" textLength="94" x="503" y="145.5117">ratio_percent</text><text fill="#000000" font-family="sans-serif" font-size="14" lengthAdjust="spacing" textLength="148" x="607" y="145.5117">13.69047619047619</text><line style="stroke:#000000;stroke-width:1.0;" x1="602" x2="602" y1="129.9766" y2="150.4648"/><rect fill="none" height="61.4648" rx="5" ry="5" style="stroke:#000000;stroke-width:1.5;" width="269" x="498" y="89"/><rect fill="#F1F1F1" height="61.4648" rx="5" ry="5" style="stroke:#F1F1F1;stroke-width:1.5;" width="269" x="498" y="168"/><text fill="#000000" font-family="sans-serif" font-size="14" font-weight="bold" lengthAdjust="spacing" textLength="78" x="503" y="183.5352">field_value</text><text fill="#000000" font-family="sans-serif" font-size="14" lengthAdjust="spacing" textLength="155" x="607" y="183.5352">May 29 2012 12:00AM</text><line style="stroke:#000000;stroke-width:1.0;" x1="602" x2="602" y1="168" y2="188.4883"/><line style="stroke:#000000;stroke-width:1.0;" x1="498" x2="767" y1="188.4883" y2="188.4883"/><text fill="#000000" font-family="sans-serif" font-size="14" font-weight="bold" lengthAdjust="spacing" textLength="74" x="503" y="204.0234">row_count</text><text fill="#000000" font-family="sans-serif" font-size="14" lengthAdjust="spacing" textLength="18" x="607" y="204.0234">29</text><line style="stroke:#000000;stroke-width:1.0;" x1="602" x2="602" y1="188.4883" y2="208.9766"/><line style="stroke:#000000;stroke-width:1.0;" x1="498" x2="767" y1="208.9766" y2="208.9766"/><text fill="#000000" font-family="sans-serif" font-size="14" font-weight="bold" lengthAdjust="spacing" textLength="94" x="503" y="224.5117">ratio_percent</text><text fill="#000000" font-family="sans-serif" font-size="14" lengthAdjust="spacing" textLength="148" x="607" y="224.5117">5.753968253968254</text><line style="stroke:#000000;stroke-width:1.0;" x1="602" x2="602" y1="208.9766" y2="229.4648"/><rect fill="none" height="61.4648" rx="5" ry="5" style="stroke:#000000;stroke-width:1.5;" width="269" x="498" y="168"/><path d="M223,75.5 L236,75.5 C247.6888,75.5 259.872,74.5501 271.8902,73.0283 " fill="none" style="stroke:#000000;stroke-width:1.0;stroke-dasharray:3.0,3.0;"/><path d="M272.2975,76.0106 L274.127,72.7229 L271.483,70.0459 L279.3461,72.0102 L272.2975,76.0106 " fill="#000000" style="stroke:#000000;stroke-width:1.0;"/><ellipse cx="223" cy="75.5" fill="#000000" rx="3" ry="3" style="stroke:#000000;stroke-width:1.0;"/><path d="M367,99.5 L380,99.5 C406.8216,99.5 463.4317,86.6687 516.2135,72.9738 " fill="none" style="stroke:#000000;stroke-width:1.0;stroke-dasharray:3.0,3.0;"/><path d="M516.9883,75.9414 L518.4392,72.3927 L515.4388,70.0063 L523.6324,71.0369 L516.9883,75.9414 " fill="#000000" style="stroke:#000000;stroke-width:1.0;"/><ellipse cx="367" cy="99.5" fill="#000000" rx="3" ry="3" style="stroke:#000000;stroke-width:1.0;"/><path d="M367,119.5 L380,119.5 C415.8412,119.5 454.5499,119.5 490.6203,119.5 " fill="none" style="stroke:#000000;stroke-width:1.0;stroke-dasharray:3.0,3.0;"/><path d="M490.6203,122.562 L492.9168,119.5 L490.6203,116.438 L498.2754,119.5 L490.6203,122.562 " fill="#000000" style="stroke:#000000;stroke-width:1.0;"/><ellipse cx="367" cy="119.5" fill="#000000" rx="3" ry="3" style="stroke:#000000;stroke-width:1.0;"/><path d="M367,140.5 L380,140.5 C406.4766,140.5 462.0524,152.8129 514.2916,166.0923 " fill="none" style="stroke:#000000;stroke-width:1.0;stroke-dasharray:3.0,3.0;"/><path d="M513.54,169.0306 L516.4953,166.656 L515.0432,163.154 L521.6373,167.9713 L513.54,169.0306 " fill="#000000" style="stroke:#000000;stroke-width:1.0;"/><ellipse cx="367" cy="140.5" fill="#000000" rx="3" ry="3" style="stroke:#000000;stroke-width:1.0;"/><path d="M223,96.5 L236,96.5 C276.3836,96.5 322.6686,107.8382 347.6644,114.9284 " fill="none" style="stroke:#000000;stroke-width:1.0;stroke-dasharray:3.0,3.0;"/><path d="M346.8112,117.8616 L349.8642,115.5683 L348.5175,111.9952 L354.9973,117.0614 L346.8112,117.8616 " fill="#000000" style="stroke:#000000;stroke-width:1.0;"/><ellipse cx="223" cy="96.5" fill="#000000" rx="3" ry="3" style="stroke:#000000;stroke-width:1.0;"/><!--MD5=[e82ae04986c6f741be0e2d3340275d1b]
@startjson
{
    "field1": "SellEndDate",
    "combination": "SellEndDate",
    "null_distribution": {
        "total_null_rows": 406,
        "total_not_null_rows": 98
    },
    "data_distribution": [
        {
            "field_value": "**NULL**",
            "row_count": 406,
            "ratio_percent": 80.55555555555556
        },
        {
            "field_value": "May 29 2013 12:00AM",
            "row_count": 69,
            "ratio_percent": 13.69047619047619
        },
        {
            "field_value": "May 29 2012 12:00AM",
            "row_count": 29,
            "ratio_percent": 5.753968253968254
        }
    ]
}
@endjson

PlantUML version 1.2022.5(Sat Apr 30 06:55:52 EDT 2022)
(GPL source distribution)
Java Runtime: OpenJDK Runtime Environment
JVM: OpenJDK 64-Bit Server VM
Default Encoding: UTF-8
Language: en
Country: CA
--></g></svg>