<?xml version="1.0" encoding="UTF-8" standalone="no"?><svg xmlns="http://www.w3.org/2000/svg" xmlns:xlink="http://www.w3.org/1999/xlink" contentStyleType="text/css" height="138px" preserveAspectRatio="none" style="width:771px;height:138px;background:#FFFFFF;" version="1.1" viewBox="0 0 771 138" width="771px" zoomAndPan="magnify"><defs/><g><rect fill="#F1F1F1" height="81.9531" rx="5" ry="5" style="stroke:#F1F1F1;stroke-width:1.5;" width="235" x="10" y="10"/><text fill="#000000" font-family="sans-serif" font-size="14" font-weight="bold" lengthAdjust="spacing" textLength="42" x="15" y="25.5352">field1</text><text fill="#000000" font-family="sans-serif" font-size="14" lengthAdjust="spacing" textLength="91" x="149" y="25.5352">ModifiedDate</text><line style="stroke:#000000;stroke-width:1.0;" x1="144" x2="144" y1="10" y2="30.4883"/><line style="stroke:#000000;stroke-width:1.0;" x1="10" x2="245" y1="30.4883" y2="30.4883"/><text fill="#000000" font-family="sans-serif" font-size="14" font-weight="bold" lengthAdjust="spacing" textLength="90" x="15" y="46.0234">combination</text><text fill="#000000" font-family="sans-serif" font-size="14" lengthAdjust="spacing" textLength="91" x="149" y="46.0234">ModifiedDate</text><line style="stroke:#000000;stroke-width:1.0;" x1="144" x2="144" y1="30.4883" y2="50.9766"/><line style="stroke:#000000;stroke-width:1.0;" x1="10" x2="245" y1="50.9766" y2="50.9766"/><text fill="#000000" font-family="sans-serif" font-size="14" font-weight="bold" lengthAdjust="spacing" textLength="121" x="15" y="66.5117">null_distribution</text><text fill="#000000" font-family="sans-serif" font-size="14" lengthAdjust="spacing" textLength="12" x="149" y="66.5117">   </text><line style="stroke:#000000;stroke-width:1.0;" x1="144" x2="144" y1="50.9766" y2="71.4648"/><line style="stroke:#000000;stroke-width:1.0;" x1="10" x2="245" y1="71.4648" y2="71.4648"/><text fill="#000000" font-family="sans-serif" font-size="14" font-weight="bold" lengthAdjust="spacing" textLength="124" x="15" y="87">data_distribution</text><text fill="#000000" font-family="sans-serif" font-size="14" lengthAdjust="spacing" textLength="12" x="149" y="87">   </text><line style="stroke:#000000;stroke-width:1.0;" x1="144" x2="144" y1="71.4648" y2="91.9531"/><rect fill="none" height="81.9531" rx="5" ry="5" style="stroke:#000000;stroke-width:1.5;" width="235" x="10" y="10"/><rect fill="#F1F1F1" height="40.9766" rx="5" ry="5" style="stroke:#F1F1F1;stroke-width:1.5;" width="180" x="282" y="26.5"/><text fill="#000000" font-family="sans-serif" font-size="14" font-weight="bold" lengthAdjust="spacing" textLength="111" x="287" y="42.0352">total_null_rows</text><text fill="#000000" font-family="sans-serif" font-size="14" lengthAdjust="spacing" textLength="9" x="439" y="42.0352">0</text><line style="stroke:#000000;stroke-width:1.0;" x1="434" x2="434" y1="26.5" y2="46.9883"/><line style="stroke:#000000;stroke-width:1.0;" x1="282" x2="462" y1="46.9883" y2="46.9883"/><text fill="#000000" font-family="sans-serif" font-size="14" font-weight="bold" lengthAdjust="spacing" textLength="142" x="287" y="62.5234">total_not_null_rows</text><text fill="#000000" font-family="sans-serif" font-size="14" lengthAdjust="spacing" textLength="18" x="439" y="62.5234">32</text><line style="stroke:#000000;stroke-width:1.0;" x1="434" x2="434" y1="46.9883" y2="67.4766"/><rect fill="none" height="40.9766" rx="5" ry="5" style="stroke:#000000;stroke-width:1.5;" width="180" x="282" y="26.5"/><rect fill="#F1F1F1" height="20.4883" rx="5" ry="5" style="stroke:#F1F1F1;stroke-width:1.5;" width="22" x="360" y="86"/><text fill="#000000" font-family="sans-serif" font-size="14" lengthAdjust="spacing" textLength="12" x="365" y="101.5352">   </text><rect fill="none" height="20.4883" rx="5" ry="5" style="stroke:#000000;stroke-width:1.5;" width="22" x="360" y="86"/><rect fill="#F1F1F1" height="61.4648" rx="5" ry="5" style="stroke:#F1F1F1;stroke-width:1.5;" width="260" x="499" y="65.5"/><text fill="#000000" font-family="sans-serif" font-size="14" font-weight="bold" lengthAdjust="spacing" textLength="78" x="504" y="81.0352">field_value</text><text fill="#000000" font-family="sans-serif" font-size="14" lengthAdjust="spacing" textLength="146" x="608" y="81.0352">Dec 29 2013  1:51PM</text><line style="stroke:#000000;stroke-width:1.0;" x1="603" x2="603" y1="65.5" y2="85.9883"/><line style="stroke:#000000;stroke-width:1.0;" x1="499" x2="759" y1="85.9883" y2="85.9883"/><text fill="#000000" font-family="sans-serif" font-size="14" font-weight="bold" lengthAdjust="spacing" textLength="74" x="504" y="101.5234">row_count</text><text fill="#000000" font-family="sans-serif" font-size="14" lengthAdjust="spacing" textLength="18" x="608" y="101.5234">32</text><line style="stroke:#000000;stroke-width:1.0;" x1="603" x2="603" y1="85.9883" y2="106.4766"/><line style="stroke:#000000;stroke-width:1.0;" x1="499" x2="759" y1="106.4766" y2="106.4766"/><text fill="#000000" font-family="sans-serif" font-size="14" font-weight="bold" lengthAdjust="spacing" textLength="94" x="504" y="122.0117">ratio_percent</text><text fill="#000000" font-family="sans-serif" font-size="14" lengthAdjust="spacing" textLength="40" x="608" y="122.0117">100.0</text><line style="stroke:#000000;stroke-width:1.0;" x1="603" x2="603" y1="106.4766" y2="126.9648"/><rect fill="none" height="61.4648" rx="5" ry="5" style="stroke:#000000;stroke-width:1.5;" width="260" x="499" y="65.5"/><path d="M233,61 L246,61 C255.2549,61 264.8702,60.6193 274.4753,59.9835 " fill="none" style="stroke:#000000;stroke-width:1.0;stroke-dasharray:3.0,3.0;"/><path d="M274.7002,63.061 L276.7835,59.8148 L274.2504,56.9059 L282.1692,59.4212 L274.7002,63.061 " fill="#000000" style="stroke:#000000;stroke-width:1.0;"/><ellipse cx="233" cy="61" fill="#000000" rx="3" ry="3" style="stroke:#000000;stroke-width:1.0;"/><path d="M371.504,96 L384.504,96 C404.6416,96 447.3813,96 491.5491,96 " fill="none" style="stroke:#000000;stroke-width:1.0;stroke-dasharray:3.0,3.0;"/><path d="M491.5491,99.0703 L493.8519,96 L491.5491,92.9297 L499.2249,96 L491.5491,99.0703 " fill="#000000" style="stroke:#000000;stroke-width:1.0;"/><ellipse cx="371.504" cy="96" fill="#000000" rx="3" ry="3" style="stroke:#000000;stroke-width:1.0;"/><path d="M233,82 L246,82 C284.2117,82 328.5666,88.4897 352.9864,92.6322 " fill="none" style="stroke:#000000;stroke-width:1.0;stroke-dasharray:3.0,3.0;"/><path d="M352.4656,95.624 L355.2303,93.0228 L353.5073,89.6403 L360.466,93.9343 L352.4656,95.624 " fill="#000000" style="stroke:#000000;stroke-width:1.0;"/><ellipse cx="233" cy="82" fill="#000000" rx="3" ry="3" style="stroke:#000000;stroke-width:1.0;"/><!--MD5=[3124fdaedbc5432962df852b16768447]
@startjson
{
    "field1": "ModifiedDate",
    "combination": "ModifiedDate",
    "null_distribution": {
        "total_null_rows": 0,
        "total_not_null_rows": 32
    },
    "data_distribution": [
        {
            "field_value": "Dec 29 2013  1:51PM",
            "row_count": 32,
            "ratio_percent": 100.0
        }
    ]
}
@endjson

PlantUML version 1.2022.5(Sat Apr 30 06:55:52 EDT 2022)
(GPL source distribution)
Java Runtime: OpenJDK Runtime Environment
JVM: OpenJDK 64-Bit Server VM
Default Encoding: UTF-8
Language: en
Country: CA
--></g></svg>