<?xml version="1.0" encoding="UTF-8" standalone="no"?><svg xmlns="http://www.w3.org/2000/svg" xmlns:xlink="http://www.w3.org/1999/xlink" contentStyleType="text/css" height="794px" preserveAspectRatio="none" style="width:774px;height:794px;background:#FFFFFF;" version="1.1" viewBox="0 0 774 794" width="774px" zoomAndPan="magnify"><defs/><g><rect fill="#F1F1F1" height="81.9531" rx="5" ry="5" style="stroke:#F1F1F1;stroke-width:1.5;" width="183" x="10" y="264.5"/><text fill="#000000" font-family="sans-serif" font-size="14" font-weight="bold" lengthAdjust="spacing" textLength="42" x="15" y="280.0352">field1</text><text fill="#000000" font-family="sans-serif" font-size="14" lengthAdjust="spacing" textLength="39" x="149" y="280.0352">Name</text><line style="stroke:#000000;stroke-width:1.0;" x1="144" x2="144" y1="264.5" y2="284.9883"/><line style="stroke:#000000;stroke-width:1.0;" x1="10" x2="193" y1="284.9883" y2="284.9883"/><text fill="#000000" font-family="sans-serif" font-size="14" font-weight="bold" lengthAdjust="spacing" textLength="90" x="15" y="300.5234">combination</text><text fill="#000000" font-family="sans-serif" font-size="14" lengthAdjust="spacing" textLength="39" x="149" y="300.5234">Name</text><line style="stroke:#000000;stroke-width:1.0;" x1="144" x2="144" y1="284.9883" y2="305.4766"/><line style="stroke:#000000;stroke-width:1.0;" x1="10" x2="193" y1="305.4766" y2="305.4766"/><text fill="#000000" font-family="sans-serif" font-size="14" font-weight="bold" lengthAdjust="spacing" textLength="121" x="15" y="321.0117">null_distribution</text><text fill="#000000" font-family="sans-serif" font-size="14" lengthAdjust="spacing" textLength="12" x="149" y="321.0117">   </text><line style="stroke:#000000;stroke-width:1.0;" x1="144" x2="144" y1="305.4766" y2="325.9648"/><line style="stroke:#000000;stroke-width:1.0;" x1="10" x2="193" y1="325.9648" y2="325.9648"/><text fill="#000000" font-family="sans-serif" font-size="14" font-weight="bold" lengthAdjust="spacing" textLength="124" x="15" y="341.5">data_distribution</text><text fill="#000000" font-family="sans-serif" font-size="14" lengthAdjust="spacing" textLength="12" x="149" y="341.5">   </text><line style="stroke:#000000;stroke-width:1.0;" x1="144" x2="144" y1="325.9648" y2="346.4531"/><rect fill="none" height="81.9531" rx="5" ry="5" style="stroke:#000000;stroke-width:1.5;" width="183" x="10" y="264.5"/><rect fill="#F1F1F1" height="40.9766" rx="5" ry="5" style="stroke:#F1F1F1;stroke-width:1.5;" width="180" x="230" y="235"/><text fill="#000000" font-family="sans-serif" font-size="14" font-weight="bold" lengthAdjust="spacing" textLength="111" x="235" y="250.5352">total_null_rows</text><text fill="#000000" font-family="sans-serif" font-size="14" lengthAdjust="spacing" textLength="9" x="387" y="250.5352">0</text><line style="stroke:#000000;stroke-width:1.0;" x1="382" x2="382" y1="235" y2="255.4883"/><line style="stroke:#000000;stroke-width:1.0;" x1="230" x2="410" y1="255.4883" y2="255.4883"/><text fill="#000000" font-family="sans-serif" font-size="14" font-weight="bold" lengthAdjust="spacing" textLength="142" x="235" y="271.0234">total_not_null_rows</text><text fill="#000000" font-family="sans-serif" font-size="14" lengthAdjust="spacing" textLength="18" x="387" y="271.0234">16</text><line style="stroke:#000000;stroke-width:1.0;" x1="382" x2="382" y1="255.4883" y2="275.9766"/><rect fill="none" height="40.9766" rx="5" ry="5" style="stroke:#000000;stroke-width:1.5;" width="180" x="230" y="235"/><rect fill="#F1F1F1" height="204.8828" rx="5" ry="5" style="stroke:#F1F1F1;stroke-width:1.5;" width="22" x="308" y="294"/><text fill="#000000" font-family="sans-serif" font-size="14" lengthAdjust="spacing" textLength="12" x="313" y="309.5352">   </text><line style="stroke:#000000;stroke-width:1.0;" x1="308" x2="330" y1="314.4883" y2="314.4883"/><text fill="#000000" font-family="sans-serif" font-size="14" lengthAdjust="spacing" textLength="12" x="313" y="330.0234">   </text><line style="stroke:#000000;stroke-width:1.0;" x1="308" x2="330" y1="334.9766" y2="334.9766"/><text fill="#000000" font-family="sans-serif" font-size="14" lengthAdjust="spacing" textLength="12" x="313" y="350.5117">   </text><line style="stroke:#000000;stroke-width:1.0;" x1="308" x2="330" y1="355.4648" y2="355.4648"/><text fill="#000000" font-family="sans-serif" font-size="14" lengthAdjust="spacing" textLength="12" x="313" y="371">   </text><line style="stroke:#000000;stroke-width:1.0;" x1="308" x2="330" y1="375.9531" y2="375.9531"/><text fill="#000000" font-family="sans-serif" font-size="14" lengthAdjust="spacing" textLength="12" x="313" y="391.4883">   </text><line style="stroke:#000000;stroke-width:1.0;" x1="308" x2="330" y1="396.4414" y2="396.4414"/><text fill="#000000" font-family="sans-serif" font-size="14" lengthAdjust="spacing" textLength="12" x="313" y="411.9766">   </text><line style="stroke:#000000;stroke-width:1.0;" x1="308" x2="330" y1="416.9297" y2="416.9297"/><text fill="#000000" font-family="sans-serif" font-size="14" lengthAdjust="spacing" textLength="12" x="313" y="432.4648">   </text><line style="stroke:#000000;stroke-width:1.0;" x1="308" x2="330" y1="437.418" y2="437.418"/><text fill="#000000" font-family="sans-serif" font-size="14" lengthAdjust="spacing" textLength="12" x="313" y="452.9531">   </text><line style="stroke:#000000;stroke-width:1.0;" x1="308" x2="330" y1="457.9063" y2="457.9063"/><text fill="#000000" font-family="sans-serif" font-size="14" lengthAdjust="spacing" textLength="12" x="313" y="473.4414">   </text><line style="stroke:#000000;stroke-width:1.0;" x1="308" x2="330" y1="478.3945" y2="478.3945"/><text fill="#000000" font-family="sans-serif" font-size="14" lengthAdjust="spacing" textLength="12" x="313" y="493.9297">   </text><rect fill="none" height="204.8828" rx="5" ry="5" style="stroke:#000000;stroke-width:1.5;" width="22" x="308" y="294"/><rect fill="#F1F1F1" height="61.4648" rx="5" ry="5" style="stroke:#F1F1F1;stroke-width:1.5;" width="226" x="491.5" y="10"/><text fill="#000000" font-family="sans-serif" font-size="14" font-weight="bold" lengthAdjust="spacing" textLength="78" x="496.5" y="25.5352">field_value</text><text fill="#000000" font-family="sans-serif" font-size="14" lengthAdjust="spacing" textLength="112" x="600.5" y="25.5352">Stress test failed</text><line style="stroke:#000000;stroke-width:1.0;" x1="595.5" x2="595.5" y1="10" y2="30.4883"/><line style="stroke:#000000;stroke-width:1.0;" x1="491.5" x2="717.5" y1="30.4883" y2="30.4883"/><text fill="#000000" font-family="sans-serif" font-size="14" font-weight="bold" lengthAdjust="spacing" textLength="74" x="496.5" y="46.0234">row_count</text><text fill="#000000" font-family="sans-serif" font-size="14" lengthAdjust="spacing" textLength="9" x="600.5" y="46.0234">1</text><line style="stroke:#000000;stroke-width:1.0;" x1="595.5" x2="595.5" y1="30.4883" y2="50.9766"/><line style="stroke:#000000;stroke-width:1.0;" x1="491.5" x2="717.5" y1="50.9766" y2="50.9766"/><text fill="#000000" font-family="sans-serif" font-size="14" font-weight="bold" lengthAdjust="spacing" textLength="94" x="496.5" y="66.5117">ratio_percent</text><text fill="#000000" font-family="sans-serif" font-size="14" lengthAdjust="spacing" textLength="31" x="600.5" y="66.5117">6.25</text><line style="stroke:#000000;stroke-width:1.0;" x1="595.5" x2="595.5" y1="50.9766" y2="71.4648"/><rect fill="none" height="61.4648" rx="5" ry="5" style="stroke:#000000;stroke-width:1.5;" width="226" x="491.5" y="10"/><rect fill="#F1F1F1" height="61.4648" rx="5" ry="5" style="stroke:#F1F1F1;stroke-width:1.5;" width="315" x="447" y="89"/><text fill="#000000" font-family="sans-serif" font-size="14" font-weight="bold" lengthAdjust="spacing" textLength="78" x="452" y="104.5352">field_value</text><text fill="#000000" font-family="sans-serif" font-size="14" lengthAdjust="spacing" textLength="201" x="556" y="104.5352">Seat assembly not as ordered</text><line style="stroke:#000000;stroke-width:1.0;" x1="551" x2="551" y1="89" y2="109.4883"/><line style="stroke:#000000;stroke-width:1.0;" x1="447" x2="762" y1="109.4883" y2="109.4883"/><text fill="#000000" font-family="sans-serif" font-size="14" font-weight="bold" lengthAdjust="spacing" textLength="74" x="452" y="125.0234">row_count</text><text fill="#000000" font-family="sans-serif" font-size="14" lengthAdjust="spacing" textLength="9" x="556" y="125.0234">1</text><line style="stroke:#000000;stroke-width:1.0;" x1="551" x2="551" y1="109.4883" y2="129.9766"/><line style="stroke:#000000;stroke-width:1.0;" x1="447" x2="762" y1="129.9766" y2="129.9766"/><text fill="#000000" font-family="sans-serif" font-size="14" font-weight="bold" lengthAdjust="spacing" textLength="94" x="452" y="145.5117">ratio_percent</text><text fill="#000000" font-family="sans-serif" font-size="14" lengthAdjust="spacing" textLength="31" x="556" y="145.5117">6.25</text><line style="stroke:#000000;stroke-width:1.0;" x1="551" x2="551" y1="129.9766" y2="150.4648"/><rect fill="none" height="61.4648" rx="5" ry="5" style="stroke:#000000;stroke-width:1.5;" width="315" x="447" y="89"/><rect fill="#F1F1F1" height="61.4648" rx="5" ry="5" style="stroke:#F1F1F1;stroke-width:1.5;" width="258" x="475.5" y="168"/><text fill="#000000" font-family="sans-serif" font-size="14" font-weight="bold" lengthAdjust="spacing" textLength="78" x="480.5" y="183.5352">field_value</text><text fill="#000000" font-family="sans-serif" font-size="14" lengthAdjust="spacing" textLength="144" x="584.5" y="183.5352">Primer process failed</text><line style="stroke:#000000;stroke-width:1.0;" x1="579.5" x2="579.5" y1="168" y2="188.4883"/><line style="stroke:#000000;stroke-width:1.0;" x1="475.5" x2="733.5" y1="188.4883" y2="188.4883"/><text fill="#000000" font-family="sans-serif" font-size="14" font-weight="bold" lengthAdjust="spacing" textLength="74" x="480.5" y="204.0234">row_count</text><text fill="#000000" font-family="sans-serif" font-size="14" lengthAdjust="spacing" textLength="9" x="584.5" y="204.0234">1</text><line style="stroke:#000000;stroke-width:1.0;" x1="579.5" x2="579.5" y1="188.4883" y2="208.9766"/><line style="stroke:#000000;stroke-width:1.0;" x1="475.5" x2="733.5" y1="208.9766" y2="208.9766"/><text fill="#000000" font-family="sans-serif" font-size="14" font-weight="bold" lengthAdjust="spacing" textLength="94" x="480.5" y="224.5117">ratio_percent</text><text fill="#000000" font-family="sans-serif" font-size="14" lengthAdjust="spacing" textLength="31" x="584.5" y="224.5117">6.25</text><line style="stroke:#000000;stroke-width:1.0;" x1="579.5" x2="579.5" y1="208.9766" y2="229.4648"/><rect fill="none" height="61.4648" rx="5" ry="5" style="stroke:#000000;stroke-width:1.5;" width="258" x="475.5" y="168"/><rect fill="#F1F1F1" height="61.4648" rx="5" ry="5" style="stroke:#F1F1F1;stroke-width:1.5;" width="247" x="481" y="247"/><text fill="#000000" font-family="sans-serif" font-size="14" font-weight="bold" lengthAdjust="spacing" textLength="78" x="486" y="262.5352">field_value</text><text fill="#000000" font-family="sans-serif" font-size="14" lengthAdjust="spacing" textLength="133" x="590" y="262.5352">Paint process failed</text><line style="stroke:#000000;stroke-width:1.0;" x1="585" x2="585" y1="247" y2="267.4883"/><line style="stroke:#000000;stroke-width:1.0;" x1="481" x2="728" y1="267.4883" y2="267.4883"/><text fill="#000000" font-family="sans-serif" font-size="14" font-weight="bold" lengthAdjust="spacing" textLength="74" x="486" y="283.0234">row_count</text><text fill="#000000" font-family="sans-serif" font-size="14" lengthAdjust="spacing" textLength="9" x="590" y="283.0234">1</text><line style="stroke:#000000;stroke-width:1.0;" x1="585" x2="585" y1="267.4883" y2="287.9766"/><line style="stroke:#000000;stroke-width:1.0;" x1="481" x2="728" y1="287.9766" y2="287.9766"/><text fill="#000000" font-family="sans-serif" font-size="14" font-weight="bold" lengthAdjust="spacing" textLength="94" x="486" y="303.5117">ratio_percent</text><text fill="#000000" font-family="sans-serif" font-size="14" lengthAdjust="spacing" textLength="31" x="590" y="303.5117">6.25</text><line style="stroke:#000000;stroke-width:1.0;" x1="585" x2="585" y1="287.9766" y2="308.4648"/><rect fill="none" height="61.4648" rx="5" ry="5" style="stroke:#000000;stroke-width:1.5;" width="247" x="481" y="247"/><rect fill="#F1F1F1" height="61.4648" rx="5" ry="5" style="stroke:#F1F1F1;stroke-width:1.5;" width="235" x="487" y="326"/><text fill="#000000" font-family="sans-serif" font-size="14" font-weight="bold" lengthAdjust="spacing" textLength="78" x="492" y="341.5352">field_value</text><text fill="#000000" font-family="sans-serif" font-size="14" lengthAdjust="spacing" textLength="121" x="596" y="341.5352">Handling damage</text><line style="stroke:#000000;stroke-width:1.0;" x1="591" x2="591" y1="326" y2="346.4883"/><line style="stroke:#000000;stroke-width:1.0;" x1="487" x2="722" y1="346.4883" y2="346.4883"/><text fill="#000000" font-family="sans-serif" font-size="14" font-weight="bold" lengthAdjust="spacing" textLength="74" x="492" y="362.0234">row_count</text><text fill="#000000" font-family="sans-serif" font-size="14" lengthAdjust="spacing" textLength="9" x="596" y="362.0234">1</text><line style="stroke:#000000;stroke-width:1.0;" x1="591" x2="591" y1="346.4883" y2="366.9766"/><line style="stroke:#000000;stroke-width:1.0;" x1="487" x2="722" y1="366.9766" y2="366.9766"/><text fill="#000000" font-family="sans-serif" font-size="14" font-weight="bold" lengthAdjust="spacing" textLength="94" x="492" y="382.5117">ratio_percent</text><text fill="#000000" font-family="sans-serif" font-size="14" lengthAdjust="spacing" textLength="31" x="596" y="382.5117">6.25</text><line style="stroke:#000000;stroke-width:1.0;" x1="591" x2="591" y1="366.9766" y2="387.4648"/><rect fill="none" height="61.4648" rx="5" ry="5" style="stroke:#000000;stroke-width:1.5;" width="235" x="487" y="326"/><rect fill="#F1F1F1" height="61.4648" rx="5" ry="5" style="stroke:#F1F1F1;stroke-width:1.5;" width="218" x="495.5" y="405"/><text fill="#000000" font-family="sans-serif" font-size="14" font-weight="bold" lengthAdjust="spacing" textLength="78" x="500.5" y="420.5352">field_value</text><text fill="#000000" font-family="sans-serif" font-size="14" lengthAdjust="spacing" textLength="104" x="604.5" y="420.5352">Gouge in metal</text><line style="stroke:#000000;stroke-width:1.0;" x1="599.5" x2="599.5" y1="405" y2="425.4883"/><line style="stroke:#000000;stroke-width:1.0;" x1="495.5" x2="713.5" y1="425.4883" y2="425.4883"/><text fill="#000000" font-family="sans-serif" font-size="14" font-weight="bold" lengthAdjust="spacing" textLength="74" x="500.5" y="441.0234">row_count</text><text fill="#000000" font-family="sans-serif" font-size="14" lengthAdjust="spacing" textLength="9" x="604.5" y="441.0234">1</text><line style="stroke:#000000;stroke-width:1.0;" x1="599.5" x2="599.5" y1="425.4883" y2="445.9766"/><line style="stroke:#000000;stroke-width:1.0;" x1="495.5" x2="713.5" y1="445.9766" y2="445.9766"/><text fill="#000000" font-family="sans-serif" font-size="14" font-weight="bold" lengthAdjust="spacing" textLength="94" x="500.5" y="461.5117">ratio_percent</text><text fill="#000000" font-family="sans-serif" font-size="14" lengthAdjust="spacing" textLength="31" x="604.5" y="461.5117">6.25</text><line style="stroke:#000000;stroke-width:1.0;" x1="599.5" x2="599.5" y1="445.9766" y2="466.4648"/><rect fill="none" height="61.4648" rx="5" ry="5" style="stroke:#000000;stroke-width:1.5;" width="218" x="495.5" y="405"/><rect fill="#F1F1F1" height="61.4648" rx="5" ry="5" style="stroke:#F1F1F1;stroke-width:1.5;" width="240" x="484.5" y="484"/><text fill="#000000" font-family="sans-serif" font-size="14" font-weight="bold" lengthAdjust="spacing" textLength="78" x="489.5" y="499.5352">field_value</text><text fill="#000000" font-family="sans-serif" font-size="14" lengthAdjust="spacing" textLength="126" x="593.5" y="499.5352">Drill size too small</text><line style="stroke:#000000;stroke-width:1.0;" x1="588.5" x2="588.5" y1="484" y2="504.4883"/><line style="stroke:#000000;stroke-width:1.0;" x1="484.5" x2="724.5" y1="504.4883" y2="504.4883"/><text fill="#000000" font-family="sans-serif" font-size="14" font-weight="bold" lengthAdjust="spacing" textLength="74" x="489.5" y="520.0234">row_count</text><text fill="#000000" font-family="sans-serif" font-size="14" lengthAdjust="spacing" textLength="9" x="593.5" y="520.0234">1</text><line style="stroke:#000000;stroke-width:1.0;" x1="588.5" x2="588.5" y1="504.4883" y2="524.9766"/><line style="stroke:#000000;stroke-width:1.0;" x1="484.5" x2="724.5" y1="524.9766" y2="524.9766"/><text fill="#000000" font-family="sans-serif" font-size="14" font-weight="bold" lengthAdjust="spacing" textLength="94" x="489.5" y="540.5117">ratio_percent</text><text fill="#000000" font-family="sans-serif" font-size="14" lengthAdjust="spacing" textLength="31" x="593.5" y="540.5117">6.25</text><line style="stroke:#000000;stroke-width:1.0;" x1="588.5" x2="588.5" y1="524.9766" y2="545.4648"/><rect fill="none" height="61.4648" rx="5" ry="5" style="stroke:#000000;stroke-width:1.5;" width="240" x="484.5" y="484"/><rect fill="#F1F1F1" height="61.4648" rx="5" ry="5" style="stroke:#F1F1F1;stroke-width:1.5;" width="239" x="485" y="563"/><text fill="#000000" font-family="sans-serif" font-size="14" font-weight="bold" lengthAdjust="spacing" textLength="78" x="490" y="578.5352">field_value</text><text fill="#000000" font-family="sans-serif" font-size="14" lengthAdjust="spacing" textLength="125" x="594" y="578.5352">Drill size too large</text><line style="stroke:#000000;stroke-width:1.0;" x1="589" x2="589" y1="563" y2="583.4883"/><line style="stroke:#000000;stroke-width:1.0;" x1="485" x2="724" y1="583.4883" y2="583.4883"/><text fill="#000000" font-family="sans-serif" font-size="14" font-weight="bold" lengthAdjust="spacing" textLength="74" x="490" y="599.0234">row_count</text><text fill="#000000" font-family="sans-serif" font-size="14" lengthAdjust="spacing" textLength="9" x="594" y="599.0234">1</text><line style="stroke:#000000;stroke-width:1.0;" x1="589" x2="589" y1="583.4883" y2="603.9766"/><line style="stroke:#000000;stroke-width:1.0;" x1="485" x2="724" y1="603.9766" y2="603.9766"/><text fill="#000000" font-family="sans-serif" font-size="14" font-weight="bold" lengthAdjust="spacing" textLength="94" x="490" y="619.5117">ratio_percent</text><text fill="#000000" font-family="sans-serif" font-size="14" lengthAdjust="spacing" textLength="31" x="594" y="619.5117">6.25</text><line style="stroke:#000000;stroke-width:1.0;" x1="589" x2="589" y1="603.9766" y2="624.4648"/><rect fill="none" height="61.4648" rx="5" ry="5" style="stroke:#000000;stroke-width:1.5;" width="239" x="485" y="563"/><rect fill="#F1F1F1" height="61.4648" rx="5" ry="5" style="stroke:#F1F1F1;stroke-width:1.5;" width="261" x="474" y="642"/><text fill="#000000" font-family="sans-serif" font-size="14" font-weight="bold" lengthAdjust="spacing" textLength="78" x="479" y="657.5352">field_value</text><text fill="#000000" font-family="sans-serif" font-size="14" lengthAdjust="spacing" textLength="147" x="583" y="657.5352">Drill pattern incorrect</text><line style="stroke:#000000;stroke-width:1.0;" x1="578" x2="578" y1="642" y2="662.4883"/><line style="stroke:#000000;stroke-width:1.0;" x1="474" x2="735" y1="662.4883" y2="662.4883"/><text fill="#000000" font-family="sans-serif" font-size="14" font-weight="bold" lengthAdjust="spacing" textLength="74" x="479" y="678.0234">row_count</text><text fill="#000000" font-family="sans-serif" font-size="14" lengthAdjust="spacing" textLength="9" x="583" y="678.0234">1</text><line style="stroke:#000000;stroke-width:1.0;" x1="578" x2="578" y1="662.4883" y2="682.9766"/><line style="stroke:#000000;stroke-width:1.0;" x1="474" x2="735" y1="682.9766" y2="682.9766"/><text fill="#000000" font-family="sans-serif" font-size="14" font-weight="bold" lengthAdjust="spacing" textLength="94" x="479" y="698.5117">ratio_percent</text><text fill="#000000" font-family="sans-serif" font-size="14" lengthAdjust="spacing" textLength="31" x="583" y="698.5117">6.25</text><line style="stroke:#000000;stroke-width:1.0;" x1="578" x2="578" y1="682.9766" y2="703.4648"/><rect fill="none" height="61.4648" rx="5" ry="5" style="stroke:#000000;stroke-width:1.5;" width="261" x="474" y="642"/><rect fill="#F1F1F1" height="61.4648" rx="5" ry="5" style="stroke:#F1F1F1;stroke-width:1.5;" width="217" x="496" y="721"/><text fill="#000000" font-family="sans-serif" font-size="14" font-weight="bold" lengthAdjust="spacing" textLength="78" x="501" y="736.5352">field_value</text><text fill="#000000" font-family="sans-serif" font-size="14" lengthAdjust="spacing" textLength="103" x="605" y="736.5352">Color incorrect</text><line style="stroke:#000000;stroke-width:1.0;" x1="600" x2="600" y1="721" y2="741.4883"/><line style="stroke:#000000;stroke-width:1.0;" x1="496" x2="713" y1="741.4883" y2="741.4883"/><text fill="#000000" font-family="sans-serif" font-size="14" font-weight="bold" lengthAdjust="spacing" textLength="74" x="501" y="757.0234">row_count</text><text fill="#000000" font-family="sans-serif" font-size="14" lengthAdjust="spacing" textLength="9" x="605" y="757.0234">1</text><line style="stroke:#000000;stroke-width:1.0;" x1="600" x2="600" y1="741.4883" y2="761.9766"/><line style="stroke:#000000;stroke-width:1.0;" x1="496" x2="713" y1="761.9766" y2="761.9766"/><text fill="#000000" font-family="sans-serif" font-size="14" font-weight="bold" lengthAdjust="spacing" textLength="94" x="501" y="777.5117">ratio_percent</text><text fill="#000000" font-family="sans-serif" font-size="14" lengthAdjust="spacing" textLength="31" x="605" y="777.5117">6.25</text><line style="stroke:#000000;stroke-width:1.0;" x1="600" x2="600" y1="761.9766" y2="782.4648"/><rect fill="none" height="61.4648" rx="5" ry="5" style="stroke:#000000;stroke-width:1.5;" width="217" x="496" y="721"/><path d="M181,315.5 L194,315.5 C214.8273,315.5 211.8137,295.6507 230,285.5 C234.038,283.2462 238.2733,281.1247 242.6133,279.1338 " fill="none" style="stroke:#000000;stroke-width:1.0;stroke-dasharray:3.0,3.0;"/><path d="M243.8219,281.8909 L244.6812,278.2274 L241.4048,276.3766 L249.5062,276.1124 L243.8219,281.8909 " fill="#000000" style="stroke:#000000;stroke-width:1.0;"/><ellipse cx="181" cy="315.5" fill="#000000" rx="3" ry="3" style="stroke:#000000;stroke-width:1.0;"/><path d="M320.5,303.5 L333.5,303.5 C368.8613,303.5 386.6954,311.1847 411,285.5 C474.8819,217.9906 383.6353,147.4951 447,79.5 C457.4488,68.2877 470.5769,60.0834 484.7674,54.1141 " fill="none" style="stroke:#000000;stroke-width:1.0;stroke-dasharray:3.0,3.0;"/><path d="M485.869,56.9319 L486.8807,53.2879 L483.6657,51.2964 L491.8118,51.3599 L485.869,56.9319 " fill="#000000" style="stroke:#000000;stroke-width:1.0;"/><ellipse cx="320.5" cy="303.5" fill="#000000" rx="3" ry="3" style="stroke:#000000;stroke-width:1.0;"/><path d="M320.5,324.5 L333.5,324.5 C372.0599,324.5 386.4435,315.2295 411,285.5 C448.3625,240.267 404.8417,199.3002 447,158.5 C448.2708,157.2701 449.5741,156.0771 450.9075,154.92 " fill="none" style="stroke:#000000;stroke-width:1.0;stroke-dasharray:3.0,3.0;"/><path d="M452.8464,157.3328 L452.7171,153.4658 L448.9686,152.5072 L456.9395,150.0727 L452.8464,157.3328 " fill="#000000" style="stroke:#000000;stroke-width:1.0;"/><ellipse cx="320.5" cy="324.5" fill="#000000" rx="3" ry="3" style="stroke:#000000;stroke-width:1.0;"/><path d="M320.5,344.5 L333.5,344.5 C376.79,344.5 380.4995,316.2205 411,285.5 C429.7883,266.5762 424.7734,252.2339 447,237.5 C453.8106,232.9853 461.1009,228.9931 468.674,225.4628 " fill="none" style="stroke:#000000;stroke-width:1.0;stroke-dasharray:3.0,3.0;"/><path d="M469.9196,228.2743 L470.7826,224.5287 L467.4284,222.6513 L475.7027,222.3489 L469.9196,228.2743 " fill="#000000" style="stroke:#000000;stroke-width:1.0;"/><ellipse cx="320.5" cy="344.5" fill="#000000" rx="3" ry="3" style="stroke:#000000;stroke-width:1.0;"/><path d="M320.5,365.5 L333.5,365.5 C388.27,365.5 395.0934,334.9773 447,317.5 C455.7292,314.5608 464.794,311.7191 473.9659,308.998 " fill="none" style="stroke:#000000;stroke-width:1.0;stroke-dasharray:3.0,3.0;"/><path d="M474.8283,311.9476 L476.1781,308.3512 L473.1035,306.0483 L481.34,306.842 L474.8283,311.9476 " fill="#000000" style="stroke:#000000;stroke-width:1.0;"/><ellipse cx="320.5" cy="365.5" fill="#000000" rx="3" ry="3" style="stroke:#000000;stroke-width:1.0;"/><path d="M320.5,385.5 L333.5,385.5 C381.4839,385.5 433.9843,380.9327 479.8593,375.4233 " fill="none" style="stroke:#000000;stroke-width:1.0;stroke-dasharray:3.0,3.0;"/><path d="M480.2307,378.4625 L482.1388,375.1448 L479.488,372.384 L487.4574,374.495 L480.2307,378.4625 " fill="#000000" style="stroke:#000000;stroke-width:1.0;"/><ellipse cx="320.5" cy="385.5" fill="#000000" rx="3" ry="3" style="stroke:#000000;stroke-width:1.0;"/><path d="M320.5,406.5 L333.5,406.5 C384.3849,406.5 440.3488,411.6362 488.1046,417.5855 " fill="none" style="stroke:#000000;stroke-width:1.0;stroke-dasharray:3.0,3.0;"/><path d="M487.7202,420.6223 L490.3822,417.8739 L488.4891,414.5487 L495.6966,418.5467 L487.7202,420.6223 " fill="#000000" style="stroke:#000000;stroke-width:1.0;"/><ellipse cx="320.5" cy="406.5" fill="#000000" rx="3" ry="3" style="stroke:#000000;stroke-width:1.0;"/><path d="M320.5,427.5 L333.5,427.5 C388.27,427.5 395.0413,458.1782 447,475.5 C456.7551,478.7521 466.9313,481.8717 477.2086,484.8302 " fill="none" style="stroke:#000000;stroke-width:1.0;stroke-dasharray:3.0,3.0;"/><path d="M476.3585,487.8289 L479.4576,485.4679 L478.0587,481.8316 L484.7053,486.9556 L476.3585,487.8289 " fill="#000000" style="stroke:#000000;stroke-width:1.0;"/><ellipse cx="320.5" cy="427.5" fill="#000000" rx="3" ry="3" style="stroke:#000000;stroke-width:1.0;"/><path d="M320.5,447.5 L333.5,447.5 C402.8266,447.5 386.1504,521.2811 447,554.5 C456.8075,559.8541 467.3586,564.486 478.1852,568.4908 " fill="none" style="stroke:#000000;stroke-width:1.0;stroke-dasharray:3.0,3.0;"/><path d="M477.1682,571.3505 L480.33,569.2535 L479.2022,565.631 L485.3346,571.0333 L477.1682,571.3505 " fill="#000000" style="stroke:#000000;stroke-width:1.0;"/><ellipse cx="320.5" cy="447.5" fill="#000000" rx="3" ry="3" style="stroke:#000000;stroke-width:1.0;"/><path d="M320.5,468.5 L333.5,468.5 C422.508,468.5 373.8346,582.8123 447,633.5 C453.3199,637.8783 460.0834,641.7662 467.1235,645.2185 " fill="none" style="stroke:#000000;stroke-width:1.0;stroke-dasharray:3.0,3.0;"/><path d="M465.7998,648.0689 L469.2613,646.2112 L468.4471,642.3681 L474.2495,648.5276 L465.7998,648.0689 " fill="#000000" style="stroke:#000000;stroke-width:1.0;"/><ellipse cx="320.5" cy="468.5" fill="#000000" rx="3" ry="3" style="stroke:#000000;stroke-width:1.0;"/><path d="M320.5,488.5 L333.5,488.5 C445.1062,488.5 359.7041,642.9632 447,712.5 C459.3654,722.3499 473.8835,729.7537 489.0098,735.3109 " fill="none" style="stroke:#000000;stroke-width:1.0;stroke-dasharray:3.0,3.0;"/><path d="M487.9768,738.298 L491.2501,736.0857 L490.0427,732.3239 L496.4775,737.8933 L487.9768,738.298 " fill="#000000" style="stroke:#000000;stroke-width:1.0;"/><ellipse cx="320.5" cy="488.5" fill="#000000" rx="3" ry="3" style="stroke:#000000;stroke-width:1.0;"/><path d="M181,336.5 L194,336.5 C236.1629,336.5 279.1866,364.4055 302.2874,382.1547 " fill="none" style="stroke:#000000;stroke-width:1.0;stroke-dasharray:3.0,3.0;"/><path d="M300.4053,384.5427 L304.0784,383.5663 L304.1695,379.7667 L308.2574,386.86 L300.4053,384.5427 " fill="#000000" style="stroke:#000000;stroke-width:1.0;"/><ellipse cx="181" cy="336.5" fill="#000000" rx="3" ry="3" style="stroke:#000000;stroke-width:1.0;"/><!--MD5=[cba2092025843a1cb07b7b660026a84e]
@startjson
{
    "field1": "Name",
    "combination": "Name",
    "null_distribution": {
        "total_null_rows": 0,
        "total_not_null_rows": 16
    },
    "data_distribution": [
        {
            "field_value": "Stress test failed",
            "row_count": 1,
            "ratio_percent": 6.25
        },
        {
            "field_value": "Seat assembly not as ordered",
            "row_count": 1,
            "ratio_percent": 6.25
        },
        {
            "field_value": "Primer process failed",
            "row_count": 1,
            "ratio_percent": 6.25
        },
        {
            "field_value": "Paint process failed",
            "row_count": 1,
            "ratio_percent": 6.25
        },
        {
            "field_value": "Handling damage",
            "row_count": 1,
            "ratio_percent": 6.25
        },
        {
            "field_value": "Gouge in metal",
            "row_count": 1,
            "ratio_percent": 6.25
        },
        {
            "field_value": "Drill size too small",
            "row_count": 1,
            "ratio_percent": 6.25
        },
        {
            "field_value": "Drill size too large",
            "row_count": 1,
            "ratio_percent": 6.25
        },
        {
            "field_value": "Drill pattern incorrect",
            "row_count": 1,
            "ratio_percent": 6.25
        },
        {
            "field_value": "Color incorrect",
            "row_count": 1,
            "ratio_percent": 6.25
        }
    ]
}
@endjson

PlantUML version 1.2022.5(Sat Apr 30 06:55:52 EDT 2022)
(GPL source distribution)
Java Runtime: OpenJDK Runtime Environment
JVM: OpenJDK 64-Bit Server VM
Default Encoding: UTF-8
Language: en
Country: CA
--></g></svg>