<?xml version="1.0" encoding="UTF-8" standalone="no"?><svg xmlns="http://www.w3.org/2000/svg" xmlns:xlink="http://www.w3.org/1999/xlink" contentStyleType="text/css" height="794px" preserveAspectRatio="none" style="width:781px;height:794px;background:#FFFFFF;" version="1.1" viewBox="0 0 781 794" width="781px" zoomAndPan="magnify"><defs/><g><rect fill="#F1F1F1" height="81.9531" rx="5" ry="5" style="stroke:#F1F1F1;stroke-width:1.5;" width="207" x="10" y="264.5"/><text fill="#000000" font-family="sans-serif" font-size="14" font-weight="bold" lengthAdjust="spacing" textLength="42" x="15" y="280.0352">field1</text><text fill="#000000" font-family="sans-serif" font-size="14" lengthAdjust="spacing" textLength="63" x="149" y="280.0352">OrderQty</text><line style="stroke:#000000;stroke-width:1.0;" x1="144" x2="144" y1="264.5" y2="284.9883"/><line style="stroke:#000000;stroke-width:1.0;" x1="10" x2="217" y1="284.9883" y2="284.9883"/><text fill="#000000" font-family="sans-serif" font-size="14" font-weight="bold" lengthAdjust="spacing" textLength="90" x="15" y="300.5234">combination</text><text fill="#000000" font-family="sans-serif" font-size="14" lengthAdjust="spacing" textLength="63" x="149" y="300.5234">OrderQty</text><line style="stroke:#000000;stroke-width:1.0;" x1="144" x2="144" y1="284.9883" y2="305.4766"/><line style="stroke:#000000;stroke-width:1.0;" x1="10" x2="217" y1="305.4766" y2="305.4766"/><text fill="#000000" font-family="sans-serif" font-size="14" font-weight="bold" lengthAdjust="spacing" textLength="121" x="15" y="321.0117">null_distribution</text><text fill="#000000" font-family="sans-serif" font-size="14" lengthAdjust="spacing" textLength="12" x="149" y="321.0117">   </text><line style="stroke:#000000;stroke-width:1.0;" x1="144" x2="144" y1="305.4766" y2="325.9648"/><line style="stroke:#000000;stroke-width:1.0;" x1="10" x2="217" y1="325.9648" y2="325.9648"/><text fill="#000000" font-family="sans-serif" font-size="14" font-weight="bold" lengthAdjust="spacing" textLength="124" x="15" y="341.5">data_distribution</text><text fill="#000000" font-family="sans-serif" font-size="14" lengthAdjust="spacing" textLength="12" x="149" y="341.5">   </text><line style="stroke:#000000;stroke-width:1.0;" x1="144" x2="144" y1="325.9648" y2="346.4531"/><rect fill="none" height="81.9531" rx="5" ry="5" style="stroke:#000000;stroke-width:1.5;" width="207" x="10" y="264.5"/><rect fill="#F1F1F1" height="40.9766" rx="5" ry="5" style="stroke:#F1F1F1;stroke-width:1.5;" width="207" x="254" y="235"/><text fill="#000000" font-family="sans-serif" font-size="14" font-weight="bold" lengthAdjust="spacing" textLength="111" x="259" y="250.5352">total_null_rows</text><text fill="#000000" font-family="sans-serif" font-size="14" lengthAdjust="spacing" textLength="9" x="411" y="250.5352">0</text><line style="stroke:#000000;stroke-width:1.0;" x1="406" x2="406" y1="235" y2="255.4883"/><line style="stroke:#000000;stroke-width:1.0;" x1="254" x2="461" y1="255.4883" y2="255.4883"/><text fill="#000000" font-family="sans-serif" font-size="14" font-weight="bold" lengthAdjust="spacing" textLength="142" x="259" y="271.0234">total_not_null_rows</text><text fill="#000000" font-family="sans-serif" font-size="14" lengthAdjust="spacing" textLength="45" x="411" y="271.0234">72591</text><line style="stroke:#000000;stroke-width:1.0;" x1="406" x2="406" y1="255.4883" y2="275.9766"/><rect fill="none" height="40.9766" rx="5" ry="5" style="stroke:#000000;stroke-width:1.5;" width="207" x="254" y="235"/><rect fill="#F1F1F1" height="204.8828" rx="5" ry="5" style="stroke:#F1F1F1;stroke-width:1.5;" width="22" x="345.5" y="294"/><text fill="#000000" font-family="sans-serif" font-size="14" lengthAdjust="spacing" textLength="12" x="350.5" y="309.5352">   </text><line style="stroke:#000000;stroke-width:1.0;" x1="345.5" x2="367.5" y1="314.4883" y2="314.4883"/><text fill="#000000" font-family="sans-serif" font-size="14" lengthAdjust="spacing" textLength="12" x="350.5" y="330.0234">   </text><line style="stroke:#000000;stroke-width:1.0;" x1="345.5" x2="367.5" y1="334.9766" y2="334.9766"/><text fill="#000000" font-family="sans-serif" font-size="14" lengthAdjust="spacing" textLength="12" x="350.5" y="350.5117">   </text><line style="stroke:#000000;stroke-width:1.0;" x1="345.5" x2="367.5" y1="355.4648" y2="355.4648"/><text fill="#000000" font-family="sans-serif" font-size="14" lengthAdjust="spacing" textLength="12" x="350.5" y="371">   </text><line style="stroke:#000000;stroke-width:1.0;" x1="345.5" x2="367.5" y1="375.9531" y2="375.9531"/><text fill="#000000" font-family="sans-serif" font-size="14" lengthAdjust="spacing" textLength="12" x="350.5" y="391.4883">   </text><line style="stroke:#000000;stroke-width:1.0;" x1="345.5" x2="367.5" y1="396.4414" y2="396.4414"/><text fill="#000000" font-family="sans-serif" font-size="14" lengthAdjust="spacing" textLength="12" x="350.5" y="411.9766">   </text><line style="stroke:#000000;stroke-width:1.0;" x1="345.5" x2="367.5" y1="416.9297" y2="416.9297"/><text fill="#000000" font-family="sans-serif" font-size="14" lengthAdjust="spacing" textLength="12" x="350.5" y="432.4648">   </text><line style="stroke:#000000;stroke-width:1.0;" x1="345.5" x2="367.5" y1="437.418" y2="437.418"/><text fill="#000000" font-family="sans-serif" font-size="14" lengthAdjust="spacing" textLength="12" x="350.5" y="452.9531">   </text><line style="stroke:#000000;stroke-width:1.0;" x1="345.5" x2="367.5" y1="457.9063" y2="457.9063"/><text fill="#000000" font-family="sans-serif" font-size="14" lengthAdjust="spacing" textLength="12" x="350.5" y="473.4414">   </text><line style="stroke:#000000;stroke-width:1.0;" x1="345.5" x2="367.5" y1="478.3945" y2="478.3945"/><text fill="#000000" font-family="sans-serif" font-size="14" lengthAdjust="spacing" textLength="12" x="350.5" y="493.9297">   </text><rect fill="none" height="204.8828" rx="5" ry="5" style="stroke:#000000;stroke-width:1.5;" width="22" x="345.5" y="294"/><rect fill="#F1F1F1" height="61.4648" rx="5" ry="5" style="stroke:#F1F1F1;stroke-width:1.5;" width="271" x="498" y="10"/><text fill="#000000" font-family="sans-serif" font-size="14" font-weight="bold" lengthAdjust="spacing" textLength="78" x="503" y="25.5352">field_value</text><text fill="#000000" font-family="sans-serif" font-size="14" lengthAdjust="spacing" textLength="9" x="607" y="25.5352">1</text><line style="stroke:#000000;stroke-width:1.0;" x1="602" x2="602" y1="10" y2="30.4883"/><line style="stroke:#000000;stroke-width:1.0;" x1="498" x2="769" y1="30.4883" y2="30.4883"/><text fill="#000000" font-family="sans-serif" font-size="14" font-weight="bold" lengthAdjust="spacing" textLength="74" x="503" y="46.0234">row_count</text><text fill="#000000" font-family="sans-serif" font-size="14" lengthAdjust="spacing" textLength="45" x="607" y="46.0234">20830</text><line style="stroke:#000000;stroke-width:1.0;" x1="602" x2="602" y1="30.4883" y2="50.9766"/><line style="stroke:#000000;stroke-width:1.0;" x1="498" x2="769" y1="50.9766" y2="50.9766"/><text fill="#000000" font-family="sans-serif" font-size="14" font-weight="bold" lengthAdjust="spacing" textLength="94" x="503" y="66.5117">ratio_percent</text><text fill="#000000" font-family="sans-serif" font-size="14" lengthAdjust="spacing" textLength="157" x="607" y="66.5117">28.695017288644596</text><line style="stroke:#000000;stroke-width:1.0;" x1="602" x2="602" y1="50.9766" y2="71.4648"/><rect fill="none" height="61.4648" rx="5" ry="5" style="stroke:#000000;stroke-width:1.5;" width="271" x="498" y="10"/><rect fill="#F1F1F1" height="61.4648" rx="5" ry="5" style="stroke:#F1F1F1;stroke-width:1.5;" width="262" x="502.5" y="89"/><text fill="#000000" font-family="sans-serif" font-size="14" font-weight="bold" lengthAdjust="spacing" textLength="78" x="507.5" y="104.5352">field_value</text><text fill="#000000" font-family="sans-serif" font-size="14" lengthAdjust="spacing" textLength="9" x="611.5" y="104.5352">2</text><line style="stroke:#000000;stroke-width:1.0;" x1="606.5" x2="606.5" y1="89" y2="109.4883"/><line style="stroke:#000000;stroke-width:1.0;" x1="502.5" x2="764.5" y1="109.4883" y2="109.4883"/><text fill="#000000" font-family="sans-serif" font-size="14" font-weight="bold" lengthAdjust="spacing" textLength="74" x="507.5" y="125.0234">row_count</text><text fill="#000000" font-family="sans-serif" font-size="14" lengthAdjust="spacing" textLength="36" x="611.5" y="125.0234">9001</text><line style="stroke:#000000;stroke-width:1.0;" x1="606.5" x2="606.5" y1="109.4883" y2="129.9766"/><line style="stroke:#000000;stroke-width:1.0;" x1="502.5" x2="764.5" y1="129.9766" y2="129.9766"/><text fill="#000000" font-family="sans-serif" font-size="14" font-weight="bold" lengthAdjust="spacing" textLength="94" x="507.5" y="145.5117">ratio_percent</text><text fill="#000000" font-family="sans-serif" font-size="14" lengthAdjust="spacing" textLength="148" x="611.5" y="145.5117">12.39960876692703</text><line style="stroke:#000000;stroke-width:1.0;" x1="606.5" x2="606.5" y1="129.9766" y2="150.4648"/><rect fill="none" height="61.4648" rx="5" ry="5" style="stroke:#000000;stroke-width:1.5;" width="262" x="502.5" y="89"/><rect fill="#F1F1F1" height="61.4648" rx="5" ry="5" style="stroke:#F1F1F1;stroke-width:1.5;" width="262" x="502.5" y="168"/><text fill="#000000" font-family="sans-serif" font-size="14" font-weight="bold" lengthAdjust="spacing" textLength="78" x="507.5" y="183.5352">field_value</text><text fill="#000000" font-family="sans-serif" font-size="14" lengthAdjust="spacing" textLength="9" x="611.5" y="183.5352">3</text><line style="stroke:#000000;stroke-width:1.0;" x1="606.5" x2="606.5" y1="168" y2="188.4883"/><line style="stroke:#000000;stroke-width:1.0;" x1="502.5" x2="764.5" y1="188.4883" y2="188.4883"/><text fill="#000000" font-family="sans-serif" font-size="14" font-weight="bold" lengthAdjust="spacing" textLength="74" x="507.5" y="204.0234">row_count</text><text fill="#000000" font-family="sans-serif" font-size="14" lengthAdjust="spacing" textLength="36" x="611.5" y="204.0234">5047</text><line style="stroke:#000000;stroke-width:1.0;" x1="606.5" x2="606.5" y1="188.4883" y2="208.9766"/><line style="stroke:#000000;stroke-width:1.0;" x1="502.5" x2="764.5" y1="208.9766" y2="208.9766"/><text fill="#000000" font-family="sans-serif" font-size="14" font-weight="bold" lengthAdjust="spacing" textLength="94" x="507.5" y="224.5117">ratio_percent</text><text fill="#000000" font-family="sans-serif" font-size="14" lengthAdjust="spacing" textLength="148" x="611.5" y="224.5117">6.952652532683115</text><line style="stroke:#000000;stroke-width:1.0;" x1="606.5" x2="606.5" y1="208.9766" y2="229.4648"/><rect fill="none" height="61.4648" rx="5" ry="5" style="stroke:#000000;stroke-width:1.5;" width="262" x="502.5" y="168"/><rect fill="#F1F1F1" height="61.4648" rx="5" ry="5" style="stroke:#F1F1F1;stroke-width:1.5;" width="262" x="502.5" y="247"/><text fill="#000000" font-family="sans-serif" font-size="14" font-weight="bold" lengthAdjust="spacing" textLength="78" x="507.5" y="262.5352">field_value</text><text fill="#000000" font-family="sans-serif" font-size="14" lengthAdjust="spacing" textLength="9" x="611.5" y="262.5352">4</text><line style="stroke:#000000;stroke-width:1.0;" x1="606.5" x2="606.5" y1="247" y2="267.4883"/><line style="stroke:#000000;stroke-width:1.0;" x1="502.5" x2="764.5" y1="267.4883" y2="267.4883"/><text fill="#000000" font-family="sans-serif" font-size="14" font-weight="bold" lengthAdjust="spacing" textLength="74" x="507.5" y="283.0234">row_count</text><text fill="#000000" font-family="sans-serif" font-size="14" lengthAdjust="spacing" textLength="36" x="611.5" y="283.0234">4333</text><line style="stroke:#000000;stroke-width:1.0;" x1="606.5" x2="606.5" y1="267.4883" y2="287.9766"/><line style="stroke:#000000;stroke-width:1.0;" x1="502.5" x2="764.5" y1="287.9766" y2="287.9766"/><text fill="#000000" font-family="sans-serif" font-size="14" font-weight="bold" lengthAdjust="spacing" textLength="94" x="507.5" y="303.5117">ratio_percent</text><text fill="#000000" font-family="sans-serif" font-size="14" lengthAdjust="spacing" textLength="148" x="611.5" y="303.5117">5.969059525285504</text><line style="stroke:#000000;stroke-width:1.0;" x1="606.5" x2="606.5" y1="287.9766" y2="308.4648"/><rect fill="none" height="61.4648" rx="5" ry="5" style="stroke:#000000;stroke-width:1.5;" width="262" x="502.5" y="247"/><rect fill="#F1F1F1" height="61.4648" rx="5" ry="5" style="stroke:#F1F1F1;stroke-width:1.5;" width="262" x="502.5" y="326"/><text fill="#000000" font-family="sans-serif" font-size="14" font-weight="bold" lengthAdjust="spacing" textLength="78" x="507.5" y="341.5352">field_value</text><text fill="#000000" font-family="sans-serif" font-size="14" lengthAdjust="spacing" textLength="9" x="611.5" y="341.5352">5</text><line style="stroke:#000000;stroke-width:1.0;" x1="606.5" x2="606.5" y1="326" y2="346.4883"/><line style="stroke:#000000;stroke-width:1.0;" x1="502.5" x2="764.5" y1="346.4883" y2="346.4883"/><text fill="#000000" font-family="sans-serif" font-size="14" font-weight="bold" lengthAdjust="spacing" textLength="74" x="507.5" y="362.0234">row_count</text><text fill="#000000" font-family="sans-serif" font-size="14" lengthAdjust="spacing" textLength="36" x="611.5" y="362.0234">3214</text><line style="stroke:#000000;stroke-width:1.0;" x1="606.5" x2="606.5" y1="346.4883" y2="366.9766"/><line style="stroke:#000000;stroke-width:1.0;" x1="502.5" x2="764.5" y1="366.9766" y2="366.9766"/><text fill="#000000" font-family="sans-serif" font-size="14" font-weight="bold" lengthAdjust="spacing" textLength="94" x="507.5" y="382.5117">ratio_percent</text><text fill="#000000" font-family="sans-serif" font-size="14" lengthAdjust="spacing" textLength="148" x="611.5" y="382.5117">4.427546114532104</text><line style="stroke:#000000;stroke-width:1.0;" x1="606.5" x2="606.5" y1="366.9766" y2="387.4648"/><rect fill="none" height="61.4648" rx="5" ry="5" style="stroke:#000000;stroke-width:1.5;" width="262" x="502.5" y="326"/><rect fill="#F1F1F1" height="61.4648" rx="5" ry="5" style="stroke:#F1F1F1;stroke-width:1.5;" width="262" x="502.5" y="405"/><text fill="#000000" font-family="sans-serif" font-size="14" font-weight="bold" lengthAdjust="spacing" textLength="78" x="507.5" y="420.5352">field_value</text><text fill="#000000" font-family="sans-serif" font-size="14" lengthAdjust="spacing" textLength="9" x="611.5" y="420.5352">6</text><line style="stroke:#000000;stroke-width:1.0;" x1="606.5" x2="606.5" y1="405" y2="425.4883"/><line style="stroke:#000000;stroke-width:1.0;" x1="502.5" x2="764.5" y1="425.4883" y2="425.4883"/><text fill="#000000" font-family="sans-serif" font-size="14" font-weight="bold" lengthAdjust="spacing" textLength="74" x="507.5" y="441.0234">row_count</text><text fill="#000000" font-family="sans-serif" font-size="14" lengthAdjust="spacing" textLength="36" x="611.5" y="441.0234">3198</text><line style="stroke:#000000;stroke-width:1.0;" x1="606.5" x2="606.5" y1="425.4883" y2="445.9766"/><line style="stroke:#000000;stroke-width:1.0;" x1="502.5" x2="764.5" y1="445.9766" y2="445.9766"/><text fill="#000000" font-family="sans-serif" font-size="14" font-weight="bold" lengthAdjust="spacing" textLength="94" x="507.5" y="461.5117">ratio_percent</text><text fill="#000000" font-family="sans-serif" font-size="14" lengthAdjust="spacing" textLength="148" x="611.5" y="461.5117">4.405504814646444</text><line style="stroke:#000000;stroke-width:1.0;" x1="606.5" x2="606.5" y1="445.9766" y2="466.4648"/><rect fill="none" height="61.4648" rx="5" ry="5" style="stroke:#000000;stroke-width:1.5;" width="262" x="502.5" y="405"/><rect fill="#F1F1F1" height="61.4648" rx="5" ry="5" style="stroke:#F1F1F1;stroke-width:1.5;" width="262" x="502.5" y="484"/><text fill="#000000" font-family="sans-serif" font-size="14" font-weight="bold" lengthAdjust="spacing" textLength="78" x="507.5" y="499.5352">field_value</text><text fill="#000000" font-family="sans-serif" font-size="14" lengthAdjust="spacing" textLength="9" x="611.5" y="499.5352">7</text><line style="stroke:#000000;stroke-width:1.0;" x1="606.5" x2="606.5" y1="484" y2="504.4883"/><line style="stroke:#000000;stroke-width:1.0;" x1="502.5" x2="764.5" y1="504.4883" y2="504.4883"/><text fill="#000000" font-family="sans-serif" font-size="14" font-weight="bold" lengthAdjust="spacing" textLength="74" x="507.5" y="520.0234">row_count</text><text fill="#000000" font-family="sans-serif" font-size="14" lengthAdjust="spacing" textLength="36" x="611.5" y="520.0234">2261</text><line style="stroke:#000000;stroke-width:1.0;" x1="606.5" x2="606.5" y1="504.4883" y2="524.9766"/><line style="stroke:#000000;stroke-width:1.0;" x1="502.5" x2="764.5" y1="524.9766" y2="524.9766"/><text fill="#000000" font-family="sans-serif" font-size="14" font-weight="bold" lengthAdjust="spacing" textLength="94" x="507.5" y="540.5117">ratio_percent</text><text fill="#000000" font-family="sans-serif" font-size="14" lengthAdjust="spacing" textLength="148" x="611.5" y="540.5117">3.114711190092436</text><line style="stroke:#000000;stroke-width:1.0;" x1="606.5" x2="606.5" y1="524.9766" y2="545.4648"/><rect fill="none" height="61.4648" rx="5" ry="5" style="stroke:#000000;stroke-width:1.5;" width="262" x="502.5" y="484"/><rect fill="#F1F1F1" height="61.4648" rx="5" ry="5" style="stroke:#F1F1F1;stroke-width:1.5;" width="271" x="498" y="563"/><text fill="#000000" font-family="sans-serif" font-size="14" font-weight="bold" lengthAdjust="spacing" textLength="78" x="503" y="578.5352">field_value</text><text fill="#000000" font-family="sans-serif" font-size="14" lengthAdjust="spacing" textLength="9" x="607" y="578.5352">8</text><line style="stroke:#000000;stroke-width:1.0;" x1="602" x2="602" y1="563" y2="583.4883"/><line style="stroke:#000000;stroke-width:1.0;" x1="498" x2="769" y1="583.4883" y2="583.4883"/><text fill="#000000" font-family="sans-serif" font-size="14" font-weight="bold" lengthAdjust="spacing" textLength="74" x="503" y="599.0234">row_count</text><text fill="#000000" font-family="sans-serif" font-size="14" lengthAdjust="spacing" textLength="36" x="607" y="599.0234">2253</text><line style="stroke:#000000;stroke-width:1.0;" x1="602" x2="602" y1="583.4883" y2="603.9766"/><line style="stroke:#000000;stroke-width:1.0;" x1="498" x2="769" y1="603.9766" y2="603.9766"/><text fill="#000000" font-family="sans-serif" font-size="14" font-weight="bold" lengthAdjust="spacing" textLength="94" x="503" y="619.5117">ratio_percent</text><text fill="#000000" font-family="sans-serif" font-size="14" lengthAdjust="spacing" textLength="157" x="607" y="619.5117">3.1036905401496053</text><line style="stroke:#000000;stroke-width:1.0;" x1="602" x2="602" y1="603.9766" y2="624.4648"/><rect fill="none" height="61.4648" rx="5" ry="5" style="stroke:#000000;stroke-width:1.5;" width="271" x="498" y="563"/><rect fill="#F1F1F1" height="61.4648" rx="5" ry="5" style="stroke:#F1F1F1;stroke-width:1.5;" width="262" x="502.5" y="642"/><text fill="#000000" font-family="sans-serif" font-size="14" font-weight="bold" lengthAdjust="spacing" textLength="78" x="507.5" y="657.5352">field_value</text><text fill="#000000" font-family="sans-serif" font-size="14" lengthAdjust="spacing" textLength="18" x="611.5" y="657.5352">10</text><line style="stroke:#000000;stroke-width:1.0;" x1="606.5" x2="606.5" y1="642" y2="662.4883"/><line style="stroke:#000000;stroke-width:1.0;" x1="502.5" x2="764.5" y1="662.4883" y2="662.4883"/><text fill="#000000" font-family="sans-serif" font-size="14" font-weight="bold" lengthAdjust="spacing" textLength="74" x="507.5" y="678.0234">row_count</text><text fill="#000000" font-family="sans-serif" font-size="14" lengthAdjust="spacing" textLength="36" x="611.5" y="678.0234">1842</text><line style="stroke:#000000;stroke-width:1.0;" x1="606.5" x2="606.5" y1="662.4883" y2="682.9766"/><line style="stroke:#000000;stroke-width:1.0;" x1="502.5" x2="764.5" y1="682.9766" y2="682.9766"/><text fill="#000000" font-family="sans-serif" font-size="14" font-weight="bold" lengthAdjust="spacing" textLength="94" x="507.5" y="698.5117">ratio_percent</text><text fill="#000000" font-family="sans-serif" font-size="14" lengthAdjust="spacing" textLength="148" x="611.5" y="698.5117">2.537504649336695</text><line style="stroke:#000000;stroke-width:1.0;" x1="606.5" x2="606.5" y1="682.9766" y2="703.4648"/><rect fill="none" height="61.4648" rx="5" ry="5" style="stroke:#000000;stroke-width:1.5;" width="262" x="502.5" y="642"/><rect fill="#F1F1F1" height="61.4648" rx="5" ry="5" style="stroke:#F1F1F1;stroke-width:1.5;" width="271" x="498" y="721"/><text fill="#000000" font-family="sans-serif" font-size="14" font-weight="bold" lengthAdjust="spacing" textLength="78" x="503" y="736.5352">field_value</text><text fill="#000000" font-family="sans-serif" font-size="14" lengthAdjust="spacing" textLength="9" x="607" y="736.5352">9</text><line style="stroke:#000000;stroke-width:1.0;" x1="602" x2="602" y1="721" y2="741.4883"/><line style="stroke:#000000;stroke-width:1.0;" x1="498" x2="769" y1="741.4883" y2="741.4883"/><text fill="#000000" font-family="sans-serif" font-size="14" font-weight="bold" lengthAdjust="spacing" textLength="74" x="503" y="757.0234">row_count</text><text fill="#000000" font-family="sans-serif" font-size="14" lengthAdjust="spacing" textLength="36" x="607" y="757.0234">1491</text><line style="stroke:#000000;stroke-width:1.0;" x1="602" x2="602" y1="741.4883" y2="761.9766"/><line style="stroke:#000000;stroke-width:1.0;" x1="498" x2="769" y1="761.9766" y2="761.9766"/><text fill="#000000" font-family="sans-serif" font-size="14" font-weight="bold" lengthAdjust="spacing" textLength="94" x="503" y="777.5117">ratio_percent</text><text fill="#000000" font-family="sans-serif" font-size="14" lengthAdjust="spacing" textLength="157" x="607" y="777.5117">2.0539736330950116</text><line style="stroke:#000000;stroke-width:1.0;" x1="602" x2="602" y1="761.9766" y2="782.4648"/><rect fill="none" height="61.4648" rx="5" ry="5" style="stroke:#000000;stroke-width:1.5;" width="271" x="498" y="721"/><path d="M205,315.5 L218,315.5 C238.8273,315.5 235.6143,295.285 254,285.5 C258.4187,283.1484 263.0447,280.9598 267.7859,278.9261 " fill="none" style="stroke:#000000;stroke-width:1.0;stroke-dasharray:3.0,3.0;"/><path d="M268.9339,281.7334 L269.8914,278.0652 L266.638,276.1189 L274.804,276.0563 L268.9339,281.7334 " fill="#000000" style="stroke:#000000;stroke-width:1.0;"/><ellipse cx="205" cy="315.5" fill="#000000" rx="3" ry="3" style="stroke:#000000;stroke-width:1.0;"/><path d="M358,303.5 L371,303.5 C412.2281,303.5 433.1738,314.9755 462,285.5 C526.9848,219.0516 435.93,148.679 498,79.5 C499.0081,78.3765 500.0463,77.2844 501.1126,76.2231 " fill="none" style="stroke:#000000;stroke-width:1.0;stroke-dasharray:3.0,3.0;"/><path d="M503.1347,78.4455 L502.7795,74.7065 L499.0905,74.0006 L506.6688,71.1678 L503.1347,78.4455 " fill="#000000" style="stroke:#000000;stroke-width:1.0;"/><ellipse cx="358" cy="303.5" fill="#000000" rx="3" ry="3" style="stroke:#000000;stroke-width:1.0;"/><path d="M358,324.5 L371,324.5 C415.0022,324.5 432.9505,318.5503 462,285.5 C500.7318,241.4339 456.6193,200.0887 498,158.5 C499.2233,157.2705 500.4828,156.0793 501.7755,154.925 " fill="none" style="stroke:#000000;stroke-width:1.0;stroke-dasharray:3.0,3.0;"/><path d="M503.7064,157.2737 L503.537,153.4769 L499.8447,152.5764 L507.6472,150.0978 L503.7064,157.2737 " fill="#000000" style="stroke:#000000;stroke-width:1.0;"/><ellipse cx="358" cy="324.5" fill="#000000" rx="3" ry="3" style="stroke:#000000;stroke-width:1.0;"/><path d="M358,344.5 L371,344.5 C419.2012,344.5 426.773,318.4001 462,285.5 C481.4889,267.2985 476.0554,252.6508 498,237.5 C500.3464,235.88 502.7599,234.3267 505.2295,232.8373 " fill="none" style="stroke:#000000;stroke-width:1.0;stroke-dasharray:3.0,3.0;"/><path d="M506.7476,235.5016 L507.2277,231.6987 L503.7115,230.173 L511.8903,229.0421 L506.7476,235.5016 " fill="#000000" style="stroke:#000000;stroke-width:1.0;"/><ellipse cx="358" cy="344.5" fill="#000000" rx="3" ry="3" style="stroke:#000000;stroke-width:1.0;"/><path d="M358,365.5 L371,365.5 C431.3414,365.5 440.8118,336.7507 498,317.5 C505.0371,315.1312 512.3048,312.7614 519.6494,310.4241 " fill="none" style="stroke:#000000;stroke-width:1.0;stroke-dasharray:3.0,3.0;"/><path d="M520.5794,313.3699 L521.8587,309.7266 L518.7193,307.4783 L527.0138,308.099 L520.5794,313.3699 " fill="#000000" style="stroke:#000000;stroke-width:1.0;"/><ellipse cx="358" cy="365.5" fill="#000000" rx="3" ry="3" style="stroke:#000000;stroke-width:1.0;"/><path d="M358,385.5 L371,385.5 C411.3294,385.5 454.94,382.0635 494.7937,377.5565 " fill="none" style="stroke:#000000;stroke-width:1.0;stroke-dasharray:3.0,3.0;"/><path d="M495.1597,380.7239 L497.1692,377.282 L494.4277,374.389 L502.7122,376.6415 L495.1597,380.7239 " fill="#000000" style="stroke:#000000;stroke-width:1.0;"/><ellipse cx="358" cy="385.5" fill="#000000" rx="3" ry="3" style="stroke:#000000;stroke-width:1.0;"/><path d="M358,406.5 L371,406.5 C411.3294,406.5 454.94,409.9365 494.7937,414.4435 " fill="none" style="stroke:#000000;stroke-width:1.0;stroke-dasharray:3.0,3.0;"/><path d="M494.4277,417.611 L497.1692,414.718 L495.1597,411.2761 L502.7122,415.3585 L494.4277,417.611 " fill="#000000" style="stroke:#000000;stroke-width:1.0;"/><ellipse cx="358" cy="406.5" fill="#000000" rx="3" ry="3" style="stroke:#000000;stroke-width:1.0;"/><path d="M358,427.5 L371,427.5 C431.3414,427.5 440.7464,456.4445 498,475.5 C504.1558,477.5488 510.4895,479.5928 516.8977,481.6109 " fill="none" style="stroke:#000000;stroke-width:1.0;stroke-dasharray:3.0,3.0;"/><path d="M515.9553,484.6312 L519.1629,482.3177 L517.84,478.5906 L524.4484,483.9668 L515.9553,484.6312 " fill="#000000" style="stroke:#000000;stroke-width:1.0;"/><ellipse cx="358" cy="427.5" fill="#000000" rx="3" ry="3" style="stroke:#000000;stroke-width:1.0;"/><path d="M358,447.5 L371,447.5 C444.8072,447.5 432.9012,519.7199 498,554.5 C501.4092,556.3214 504.9135,558.0667 508.488,559.7385 " fill="none" style="stroke:#000000;stroke-width:1.0;stroke-dasharray:3.0,3.0;"/><path d="M507.2381,562.5202 L510.5743,560.6759 L509.7379,556.9568 L515.4423,562.8631 L507.2381,562.5202 " fill="#000000" style="stroke:#000000;stroke-width:1.0;"/><ellipse cx="358" cy="447.5" fill="#000000" rx="3" ry="3" style="stroke:#000000;stroke-width:1.0;"/><path d="M358,468.5 L371,468.5 C463.5405,468.5 421.5197,581.399 498,633.5 C500.3564,635.1053 502.7791,636.6453 505.257,638.1226 " fill="none" style="stroke:#000000;stroke-width:1.0;stroke-dasharray:3.0,3.0;"/><path d="M503.7506,640.7949 L507.2612,639.2524 L506.7634,635.4503 L511.9378,641.8886 L503.7506,640.7949 " fill="#000000" style="stroke:#000000;stroke-width:1.0;"/><ellipse cx="358" cy="468.5" fill="#000000" rx="3" ry="3" style="stroke:#000000;stroke-width:1.0;"/><path d="M358,488.5 L371,488.5 C485.4434,488.5 408.1639,641.6004 498,712.5 C499.7953,713.9169 501.6403,715.2823 503.5287,716.5982 " fill="none" style="stroke:#000000;stroke-width:1.0;stroke-dasharray:3.0,3.0;"/><path d="M501.8145,719.23 L505.5025,717.8838 L505.2428,713.9664 L510.1082,720.8836 L501.8145,719.23 " fill="#000000" style="stroke:#000000;stroke-width:1.0;"/><ellipse cx="358" cy="488.5" fill="#000000" rx="3" ry="3" style="stroke:#000000;stroke-width:1.0;"/><path d="M205,336.5 L218,336.5 C265.0497,336.5 314.2629,365.8357 339.6101,383.482 " fill="none" style="stroke:#000000;stroke-width:1.0;stroke-dasharray:3.0,3.0;"/><path d="M337.8416,385.964 L341.4716,384.8085 L341.3787,381.0001 L345.815,387.9035 L337.8416,385.964 " fill="#000000" style="stroke:#000000;stroke-width:1.0;"/><ellipse cx="205" cy="336.5" fill="#000000" rx="3" ry="3" style="stroke:#000000;stroke-width:1.0;"/><!--MD5=[17594b66149a7794a306d39389ac9c27]
@startjson
{
    "field1": "OrderQty",
    "combination": "OrderQty",
    "null_distribution": {
        "total_null_rows": 0,
        "total_not_null_rows": 72591
    },
    "data_distribution": [
        {
            "field_value": "1",
            "row_count": 20830,
            "ratio_percent": 28.695017288644596
        },
        {
            "field_value": "2",
            "row_count": 9001,
            "ratio_percent": 12.39960876692703
        },
        {
            "field_value": "3",
            "row_count": 5047,
            "ratio_percent": 6.952652532683115
        },
        {
            "field_value": "4",
            "row_count": 4333,
            "ratio_percent": 5.969059525285504
        },
        {
            "field_value": "5",
            "row_count": 3214,
            "ratio_percent": 4.427546114532104
        },
        {
            "field_value": "6",
            "row_count": 3198,
            "ratio_percent": 4.405504814646444
        },
        {
            "field_value": "7",
            "row_count": 2261,
            "ratio_percent": 3.114711190092436
        },
        {
            "field_value": "8",
            "row_count": 2253,
            "ratio_percent": 3.1036905401496053
        },
        {
            "field_value": "10",
            "row_count": 1842,
            "ratio_percent": 2.537504649336695
        },
        {
            "field_value": "9",
            "row_count": 1491,
            "ratio_percent": 2.0539736330950116
        }
    ]
}
@endjson

PlantUML version 1.2022.5(Sat Apr 30 06:55:52 EDT 2022)
(GPL source distribution)
Java Runtime: OpenJDK Runtime Environment
JVM: OpenJDK 64-Bit Server VM
Default Encoding: UTF-8
Language: en
Country: CA
--></g></svg>