<?xml version="1.0" encoding="UTF-8" standalone="no"?><svg xmlns="http://www.w3.org/2000/svg" xmlns:xlink="http://www.w3.org/1999/xlink" contentStyleType="text/css" height="320px" preserveAspectRatio="none" style="width:722px;height:320px;background:#FFFFFF;" version="1.1" viewBox="0 0 722 320" width="722px" zoomAndPan="magnify"><defs/><g><rect fill="#F1F1F1" height="81.9531" rx="5" ry="5" style="stroke:#F1F1F1;stroke-width:1.5;" width="244" x="10" y="57.5"/><text fill="#000000" font-family="sans-serif" font-size="14" font-weight="bold" lengthAdjust="spacing" textLength="42" x="15" y="73.0352">field1</text><text fill="#000000" font-family="sans-serif" font-size="14" lengthAdjust="spacing" textLength="100" x="149" y="73.0352">ReviewerName</text><line style="stroke:#000000;stroke-width:1.0;" x1="144" x2="144" y1="57.5" y2="77.9883"/><line style="stroke:#000000;stroke-width:1.0;" x1="10" x2="254" y1="77.9883" y2="77.9883"/><text fill="#000000" font-family="sans-serif" font-size="14" font-weight="bold" lengthAdjust="spacing" textLength="90" x="15" y="93.5234">combination</text><text fill="#000000" font-family="sans-serif" font-size="14" lengthAdjust="spacing" textLength="100" x="149" y="93.5234">ReviewerName</text><line style="stroke:#000000;stroke-width:1.0;" x1="144" x2="144" y1="77.9883" y2="98.4766"/><line style="stroke:#000000;stroke-width:1.0;" x1="10" x2="254" y1="98.4766" y2="98.4766"/><text fill="#000000" font-family="sans-serif" font-size="14" font-weight="bold" lengthAdjust="spacing" textLength="121" x="15" y="114.0117">null_distribution</text><text fill="#000000" font-family="sans-serif" font-size="14" lengthAdjust="spacing" textLength="12" x="149" y="114.0117">   </text><line style="stroke:#000000;stroke-width:1.0;" x1="144" x2="144" y1="98.4766" y2="118.9648"/><line style="stroke:#000000;stroke-width:1.0;" x1="10" x2="254" y1="118.9648" y2="118.9648"/><text fill="#000000" font-family="sans-serif" font-size="14" font-weight="bold" lengthAdjust="spacing" textLength="124" x="15" y="134.5">data_distribution</text><text fill="#000000" font-family="sans-serif" font-size="14" lengthAdjust="spacing" textLength="12" x="149" y="134.5">   </text><line style="stroke:#000000;stroke-width:1.0;" x1="144" x2="144" y1="118.9648" y2="139.4531"/><rect fill="none" height="81.9531" rx="5" ry="5" style="stroke:#000000;stroke-width:1.5;" width="244" x="10" y="57.5"/><rect fill="#F1F1F1" height="40.9766" rx="5" ry="5" style="stroke:#F1F1F1;stroke-width:1.5;" width="171" x="291" y="59"/><text fill="#000000" font-family="sans-serif" font-size="14" font-weight="bold" lengthAdjust="spacing" textLength="111" x="296" y="74.5352">total_null_rows</text><text fill="#000000" font-family="sans-serif" font-size="14" lengthAdjust="spacing" textLength="9" x="448" y="74.5352">0</text><line style="stroke:#000000;stroke-width:1.0;" x1="443" x2="443" y1="59" y2="79.4883"/><line style="stroke:#000000;stroke-width:1.0;" x1="291" x2="462" y1="79.4883" y2="79.4883"/><text fill="#000000" font-family="sans-serif" font-size="14" font-weight="bold" lengthAdjust="spacing" textLength="142" x="296" y="95.0234">total_not_null_rows</text><text fill="#000000" font-family="sans-serif" font-size="14" lengthAdjust="spacing" textLength="9" x="448" y="95.0234">4</text><line style="stroke:#000000;stroke-width:1.0;" x1="443" x2="443" y1="79.4883" y2="99.9766"/><rect fill="none" height="40.9766" rx="5" ry="5" style="stroke:#000000;stroke-width:1.5;" width="171" x="291" y="59"/><rect fill="#F1F1F1" height="81.9531" rx="5" ry="5" style="stroke:#F1F1F1;stroke-width:1.5;" width="22" x="364.5" y="118.5"/><text fill="#000000" font-family="sans-serif" font-size="14" lengthAdjust="spacing" textLength="12" x="369.5" y="134.0352">   </text><line style="stroke:#000000;stroke-width:1.0;" x1="364.5" x2="386.5" y1="138.9883" y2="138.9883"/><text fill="#000000" font-family="sans-serif" font-size="14" lengthAdjust="spacing" textLength="12" x="369.5" y="154.5234">   </text><line style="stroke:#000000;stroke-width:1.0;" x1="364.5" x2="386.5" y1="159.4766" y2="159.4766"/><text fill="#000000" font-family="sans-serif" font-size="14" lengthAdjust="spacing" textLength="12" x="369.5" y="175.0117">   </text><line style="stroke:#000000;stroke-width:1.0;" x1="364.5" x2="386.5" y1="179.9648" y2="179.9648"/><text fill="#000000" font-family="sans-serif" font-size="14" lengthAdjust="spacing" textLength="12" x="369.5" y="195.5">   </text><rect fill="none" height="81.9531" rx="5" ry="5" style="stroke:#000000;stroke-width:1.5;" width="22" x="364.5" y="118.5"/><rect fill="#F1F1F1" height="61.4648" rx="5" ry="5" style="stroke:#F1F1F1;stroke-width:1.5;" width="211" x="499" y="10"/><text fill="#000000" font-family="sans-serif" font-size="14" font-weight="bold" lengthAdjust="spacing" textLength="78" x="504" y="25.5352">field_value</text><text fill="#000000" font-family="sans-serif" font-size="14" lengthAdjust="spacing" textLength="97" x="608" y="25.5352">Laura Norman</text><line style="stroke:#000000;stroke-width:1.0;" x1="603" x2="603" y1="10" y2="30.4883"/><line style="stroke:#000000;stroke-width:1.0;" x1="499" x2="710" y1="30.4883" y2="30.4883"/><text fill="#000000" font-family="sans-serif" font-size="14" font-weight="bold" lengthAdjust="spacing" textLength="74" x="504" y="46.0234">row_count</text><text fill="#000000" font-family="sans-serif" font-size="14" lengthAdjust="spacing" textLength="9" x="608" y="46.0234">1</text><line style="stroke:#000000;stroke-width:1.0;" x1="603" x2="603" y1="30.4883" y2="50.9766"/><line style="stroke:#000000;stroke-width:1.0;" x1="499" x2="710" y1="50.9766" y2="50.9766"/><text fill="#000000" font-family="sans-serif" font-size="14" font-weight="bold" lengthAdjust="spacing" textLength="94" x="504" y="66.5117">ratio_percent</text><text fill="#000000" font-family="sans-serif" font-size="14" lengthAdjust="spacing" textLength="31" x="608" y="66.5117">25.0</text><line style="stroke:#000000;stroke-width:1.0;" x1="603" x2="603" y1="50.9766" y2="71.4648"/><rect fill="none" height="61.4648" rx="5" ry="5" style="stroke:#000000;stroke-width:1.5;" width="211" x="499" y="10"/><rect fill="#F1F1F1" height="61.4648" rx="5" ry="5" style="stroke:#F1F1F1;stroke-width:1.5;" width="188" x="510.5" y="89"/><text fill="#000000" font-family="sans-serif" font-size="14" font-weight="bold" lengthAdjust="spacing" textLength="78" x="515.5" y="104.5352">field_value</text><text fill="#000000" font-family="sans-serif" font-size="14" lengthAdjust="spacing" textLength="74" x="619.5" y="104.5352">John Smith</text><line style="stroke:#000000;stroke-width:1.0;" x1="614.5" x2="614.5" y1="89" y2="109.4883"/><line style="stroke:#000000;stroke-width:1.0;" x1="510.5" x2="698.5" y1="109.4883" y2="109.4883"/><text fill="#000000" font-family="sans-serif" font-size="14" font-weight="bold" lengthAdjust="spacing" textLength="74" x="515.5" y="125.0234">row_count</text><text fill="#000000" font-family="sans-serif" font-size="14" lengthAdjust="spacing" textLength="9" x="619.5" y="125.0234">1</text><line style="stroke:#000000;stroke-width:1.0;" x1="614.5" x2="614.5" y1="109.4883" y2="129.9766"/><line style="stroke:#000000;stroke-width:1.0;" x1="510.5" x2="698.5" y1="129.9766" y2="129.9766"/><text fill="#000000" font-family="sans-serif" font-size="14" font-weight="bold" lengthAdjust="spacing" textLength="94" x="515.5" y="145.5117">ratio_percent</text><text fill="#000000" font-family="sans-serif" font-size="14" lengthAdjust="spacing" textLength="31" x="619.5" y="145.5117">25.0</text><line style="stroke:#000000;stroke-width:1.0;" x1="614.5" x2="614.5" y1="129.9766" y2="150.4648"/><rect fill="none" height="61.4648" rx="5" ry="5" style="stroke:#000000;stroke-width:1.5;" width="188" x="510.5" y="89"/><rect fill="#F1F1F1" height="61.4648" rx="5" ry="5" style="stroke:#F1F1F1;stroke-width:1.5;" width="145" x="532" y="168"/><text fill="#000000" font-family="sans-serif" font-size="14" font-weight="bold" lengthAdjust="spacing" textLength="78" x="537" y="183.5352">field_value</text><text fill="#000000" font-family="sans-serif" font-size="14" lengthAdjust="spacing" textLength="16" x="641" y="183.5352">Jill</text><line style="stroke:#000000;stroke-width:1.0;" x1="636" x2="636" y1="168" y2="188.4883"/><line style="stroke:#000000;stroke-width:1.0;" x1="532" x2="677" y1="188.4883" y2="188.4883"/><text fill="#000000" font-family="sans-serif" font-size="14" font-weight="bold" lengthAdjust="spacing" textLength="74" x="537" y="204.0234">row_count</text><text fill="#000000" font-family="sans-serif" font-size="14" lengthAdjust="spacing" textLength="9" x="641" y="204.0234">1</text><line style="stroke:#000000;stroke-width:1.0;" x1="636" x2="636" y1="188.4883" y2="208.9766"/><line style="stroke:#000000;stroke-width:1.0;" x1="532" x2="677" y1="208.9766" y2="208.9766"/><text fill="#000000" font-family="sans-serif" font-size="14" font-weight="bold" lengthAdjust="spacing" textLength="94" x="537" y="224.5117">ratio_percent</text><text fill="#000000" font-family="sans-serif" font-size="14" lengthAdjust="spacing" textLength="31" x="641" y="224.5117">25.0</text><line style="stroke:#000000;stroke-width:1.0;" x1="636" x2="636" y1="208.9766" y2="229.4648"/><rect fill="none" height="61.4648" rx="5" ry="5" style="stroke:#000000;stroke-width:1.5;" width="145" x="532" y="168"/><rect fill="#F1F1F1" height="61.4648" rx="5" ry="5" style="stroke:#F1F1F1;stroke-width:1.5;" width="152" x="528.5" y="247"/><text fill="#000000" font-family="sans-serif" font-size="14" font-weight="bold" lengthAdjust="spacing" textLength="78" x="533.5" y="262.5352">field_value</text><text fill="#000000" font-family="sans-serif" font-size="14" lengthAdjust="spacing" textLength="38" x="637.5" y="262.5352">David</text><line style="stroke:#000000;stroke-width:1.0;" x1="632.5" x2="632.5" y1="247" y2="267.4883"/><line style="stroke:#000000;stroke-width:1.0;" x1="528.5" x2="680.5" y1="267.4883" y2="267.4883"/><text fill="#000000" font-family="sans-serif" font-size="14" font-weight="bold" lengthAdjust="spacing" textLength="74" x="533.5" y="283.0234">row_count</text><text fill="#000000" font-family="sans-serif" font-size="14" lengthAdjust="spacing" textLength="9" x="637.5" y="283.0234">1</text><line style="stroke:#000000;stroke-width:1.0;" x1="632.5" x2="632.5" y1="267.4883" y2="287.9766"/><line style="stroke:#000000;stroke-width:1.0;" x1="528.5" x2="680.5" y1="287.9766" y2="287.9766"/><text fill="#000000" font-family="sans-serif" font-size="14" font-weight="bold" lengthAdjust="spacing" textLength="94" x="533.5" y="303.5117">ratio_percent</text><text fill="#000000" font-family="sans-serif" font-size="14" lengthAdjust="spacing" textLength="31" x="637.5" y="303.5117">25.0</text><line style="stroke:#000000;stroke-width:1.0;" x1="632.5" x2="632.5" y1="287.9766" y2="308.4648"/><rect fill="none" height="61.4648" rx="5" ry="5" style="stroke:#000000;stroke-width:1.5;" width="152" x="528.5" y="247"/><path d="M242,108.5 L255,108.5 C272.1406,108.5 290.2801,105.714 307.1527,101.869 " fill="none" style="stroke:#000000;stroke-width:1.0;stroke-dasharray:3.0,3.0;"/><path d="M307.8867,104.931 L309.4492,101.3185 L306.4187,98.807 L314.8076,100.034 L307.8867,104.931 " fill="#000000" style="stroke:#000000;stroke-width:1.0;"/><ellipse cx="242" cy="108.5" fill="#000000" rx="3" ry="3" style="stroke:#000000;stroke-width:1.0;"/><path d="M377,128.5 L390,128.5 C423.6401,128.5 433.0498,123.818 463,108.5 C481.292,99.1445 481.1383,89.653 499,79.5 C502.1117,77.7312 505.3187,76.0152 508.5913,74.3535 " fill="none" style="stroke:#000000;stroke-width:1.0;stroke-dasharray:3.0,3.0;"/><path d="M509.925,77.0734 L510.6313,73.3532 L507.2577,71.6335 L515.3913,71.0193 L509.925,77.0734 " fill="#000000" style="stroke:#000000;stroke-width:1.0;"/><ellipse cx="377" cy="128.5" fill="#000000" rx="3" ry="3" style="stroke:#000000;stroke-width:1.0;"/><path d="M377,148.5 L390,148.5 C427.1903,148.5 467.6895,144.146 503.3497,138.8121 " fill="none" style="stroke:#000000;stroke-width:1.0;stroke-dasharray:3.0,3.0;"/><path d="M503.8104,141.8253 L505.6096,138.4665 L502.889,135.7988 L510.8828,137.6602 L503.8104,141.8253 " fill="#000000" style="stroke:#000000;stroke-width:1.0;"/><ellipse cx="377" cy="148.5" fill="#000000" rx="3" ry="3" style="stroke:#000000;stroke-width:1.0;"/><path d="M377,169.5 L390,169.5 C434.6393,169.5 484.0459,175.7729 524.1295,182.4838 " fill="none" style="stroke:#000000;stroke-width:1.0;stroke-dasharray:3.0,3.0;"/><path d="M523.591,185.6391 L526.496,182.8877 L524.668,179.3285 L532.0178,183.8301 L523.591,185.6391 " fill="#000000" style="stroke:#000000;stroke-width:1.0;"/><ellipse cx="377" cy="169.5" fill="#000000" rx="3" ry="3" style="stroke:#000000;stroke-width:1.0;"/><path d="M377,190.5 L390,190.5 C442.9337,190.5 449.9456,218.6092 499,238.5 C506.3815,241.4931 514.089,244.5268 521.8292,247.5115 " fill="none" style="stroke:#000000;stroke-width:1.0;stroke-dasharray:3.0,3.0;"/><path d="M520.7393,250.3552 L523.9619,248.329 L522.9191,244.6679 L528.9383,250.2363 L520.7393,250.3552 " fill="#000000" style="stroke:#000000;stroke-width:1.0;"/><ellipse cx="377" cy="190.5" fill="#000000" rx="3" ry="3" style="stroke:#000000;stroke-width:1.0;"/><path d="M242,129.5 L255,129.5 C292.3341,129.5 334.2941,143.1213 357.6944,152.0071 " fill="none" style="stroke:#000000;stroke-width:1.0;stroke-dasharray:3.0,3.0;"/><path d="M356.5723,154.8834 L359.8517,152.8487 L358.8166,149.1308 L364.8852,154.8125 L356.5723,154.8834 " fill="#000000" style="stroke:#000000;stroke-width:1.0;"/><ellipse cx="242" cy="129.5" fill="#000000" rx="3" ry="3" style="stroke:#000000;stroke-width:1.0;"/><!--MD5=[bc66b36f90ec53535bb6b4814c7137e2]
@startjson
{
    "field1": "ReviewerName",
    "combination": "ReviewerName",
    "null_distribution": {
        "total_null_rows": 0,
        "total_not_null_rows": 4
    },
    "data_distribution": [
        {
            "field_value": "Laura Norman",
            "row_count": 1,
            "ratio_percent": 25.0
        },
        {
            "field_value": "John Smith",
            "row_count": 1,
            "ratio_percent": 25.0
        },
        {
            "field_value": "Jill",
            "row_count": 1,
            "ratio_percent": 25.0
        },
        {
            "field_value": "David",
            "row_count": 1,
            "ratio_percent": 25.0
        }
    ]
}
@endjson

PlantUML version 1.2022.5(Sat Apr 30 06:55:52 EDT 2022)
(GPL source distribution)
Java Runtime: OpenJDK Runtime Environment
JVM: OpenJDK 64-Bit Server VM
Default Encoding: UTF-8
Language: en
Country: CA
--></g></svg>