<?xml version="1.0" encoding="UTF-8" standalone="no"?><svg xmlns="http://www.w3.org/2000/svg" xmlns:xlink="http://www.w3.org/1999/xlink" contentStyleType="text/css" height="399px" preserveAspectRatio="none" style="width:765px;height:399px;background:#FFFFFF;" version="1.1" viewBox="0 0 765 399" width="765px" zoomAndPan="magnify"><defs/><g><rect fill="#F1F1F1" height="81.9531" rx="5" ry="5" style="stroke:#F1F1F1;stroke-width:1.5;" width="218" x="10" y="92.5"/><text fill="#000000" font-family="sans-serif" font-size="14" font-weight="bold" lengthAdjust="spacing" textLength="42" x="15" y="108.0352">field1</text><text fill="#000000" font-family="sans-serif" font-size="14" lengthAdjust="spacing" textLength="74" x="149" y="108.0352">Availability</text><line style="stroke:#000000;stroke-width:1.0;" x1="144" x2="144" y1="92.5" y2="112.9883"/><line style="stroke:#000000;stroke-width:1.0;" x1="10" x2="228" y1="112.9883" y2="112.9883"/><text fill="#000000" font-family="sans-serif" font-size="14" font-weight="bold" lengthAdjust="spacing" textLength="90" x="15" y="128.5234">combination</text><text fill="#000000" font-family="sans-serif" font-size="14" lengthAdjust="spacing" textLength="74" x="149" y="128.5234">Availability</text><line style="stroke:#000000;stroke-width:1.0;" x1="144" x2="144" y1="112.9883" y2="133.4766"/><line style="stroke:#000000;stroke-width:1.0;" x1="10" x2="228" y1="133.4766" y2="133.4766"/><text fill="#000000" font-family="sans-serif" font-size="14" font-weight="bold" lengthAdjust="spacing" textLength="121" x="15" y="149.0117">null_distribution</text><text fill="#000000" font-family="sans-serif" font-size="14" lengthAdjust="spacing" textLength="12" x="149" y="149.0117">   </text><line style="stroke:#000000;stroke-width:1.0;" x1="144" x2="144" y1="133.4766" y2="153.9648"/><line style="stroke:#000000;stroke-width:1.0;" x1="10" x2="228" y1="153.9648" y2="153.9648"/><text fill="#000000" font-family="sans-serif" font-size="14" font-weight="bold" lengthAdjust="spacing" textLength="124" x="15" y="169.5">data_distribution</text><text fill="#000000" font-family="sans-serif" font-size="14" lengthAdjust="spacing" textLength="12" x="149" y="169.5">   </text><line style="stroke:#000000;stroke-width:1.0;" x1="144" x2="144" y1="153.9648" y2="174.4531"/><rect fill="none" height="81.9531" rx="5" ry="5" style="stroke:#000000;stroke-width:1.5;" width="218" x="10" y="92.5"/><rect fill="#F1F1F1" height="40.9766" rx="5" ry="5" style="stroke:#F1F1F1;stroke-width:1.5;" width="180" x="265" y="89"/><text fill="#000000" font-family="sans-serif" font-size="14" font-weight="bold" lengthAdjust="spacing" textLength="111" x="270" y="104.5352">total_null_rows</text><text fill="#000000" font-family="sans-serif" font-size="14" lengthAdjust="spacing" textLength="9" x="422" y="104.5352">0</text><line style="stroke:#000000;stroke-width:1.0;" x1="417" x2="417" y1="89" y2="109.4883"/><line style="stroke:#000000;stroke-width:1.0;" x1="265" x2="445" y1="109.4883" y2="109.4883"/><text fill="#000000" font-family="sans-serif" font-size="14" font-weight="bold" lengthAdjust="spacing" textLength="142" x="270" y="125.0234">total_not_null_rows</text><text fill="#000000" font-family="sans-serif" font-size="14" lengthAdjust="spacing" textLength="18" x="422" y="125.0234">14</text><line style="stroke:#000000;stroke-width:1.0;" x1="417" x2="417" y1="109.4883" y2="129.9766"/><rect fill="none" height="40.9766" rx="5" ry="5" style="stroke:#000000;stroke-width:1.5;" width="180" x="265" y="89"/><rect fill="#F1F1F1" height="102.4414" rx="5" ry="5" style="stroke:#F1F1F1;stroke-width:1.5;" width="22" x="343" y="148.5"/><text fill="#000000" font-family="sans-serif" font-size="14" lengthAdjust="spacing" textLength="12" x="348" y="164.0352">   </text><line style="stroke:#000000;stroke-width:1.0;" x1="343" x2="365" y1="168.9883" y2="168.9883"/><text fill="#000000" font-family="sans-serif" font-size="14" lengthAdjust="spacing" textLength="12" x="348" y="184.5234">   </text><line style="stroke:#000000;stroke-width:1.0;" x1="343" x2="365" y1="189.4766" y2="189.4766"/><text fill="#000000" font-family="sans-serif" font-size="14" lengthAdjust="spacing" textLength="12" x="348" y="205.0117">   </text><line style="stroke:#000000;stroke-width:1.0;" x1="343" x2="365" y1="209.9648" y2="209.9648"/><text fill="#000000" font-family="sans-serif" font-size="14" lengthAdjust="spacing" textLength="12" x="348" y="225.5">   </text><line style="stroke:#000000;stroke-width:1.0;" x1="343" x2="365" y1="230.4531" y2="230.4531"/><text fill="#000000" font-family="sans-serif" font-size="14" lengthAdjust="spacing" textLength="12" x="348" y="245.9883">   </text><rect fill="none" height="102.4414" rx="5" ry="5" style="stroke:#000000;stroke-width:1.5;" width="22" x="343" y="148.5"/><rect fill="#F1F1F1" height="61.4648" rx="5" ry="5" style="stroke:#F1F1F1;stroke-width:1.5;" width="145" x="545" y="10"/><text fill="#000000" font-family="sans-serif" font-size="14" font-weight="bold" lengthAdjust="spacing" textLength="78" x="550" y="25.5352">field_value</text><text fill="#000000" font-family="sans-serif" font-size="14" lengthAdjust="spacing" textLength="31" x="654" y="25.5352">0.00</text><line style="stroke:#000000;stroke-width:1.0;" x1="649" x2="649" y1="10" y2="30.4883"/><line style="stroke:#000000;stroke-width:1.0;" x1="545" x2="690" y1="30.4883" y2="30.4883"/><text fill="#000000" font-family="sans-serif" font-size="14" font-weight="bold" lengthAdjust="spacing" textLength="74" x="550" y="46.0234">row_count</text><text fill="#000000" font-family="sans-serif" font-size="14" lengthAdjust="spacing" textLength="9" x="654" y="46.0234">7</text><line style="stroke:#000000;stroke-width:1.0;" x1="649" x2="649" y1="30.4883" y2="50.9766"/><line style="stroke:#000000;stroke-width:1.0;" x1="545" x2="690" y1="50.9766" y2="50.9766"/><text fill="#000000" font-family="sans-serif" font-size="14" font-weight="bold" lengthAdjust="spacing" textLength="94" x="550" y="66.5117">ratio_percent</text><text fill="#000000" font-family="sans-serif" font-size="14" lengthAdjust="spacing" textLength="31" x="654" y="66.5117">50.0</text><line style="stroke:#000000;stroke-width:1.0;" x1="649" x2="649" y1="50.9766" y2="71.4648"/><rect fill="none" height="61.4648" rx="5" ry="5" style="stroke:#000000;stroke-width:1.5;" width="145" x="545" y="10"/><rect fill="#F1F1F1" height="61.4648" rx="5" ry="5" style="stroke:#F1F1F1;stroke-width:1.5;" width="271" x="482" y="89"/><text fill="#000000" font-family="sans-serif" font-size="14" font-weight="bold" lengthAdjust="spacing" textLength="78" x="487" y="104.5352">field_value</text><text fill="#000000" font-family="sans-serif" font-size="14" lengthAdjust="spacing" textLength="49" x="591" y="104.5352">120.00</text><line style="stroke:#000000;stroke-width:1.0;" x1="586" x2="586" y1="89" y2="109.4883"/><line style="stroke:#000000;stroke-width:1.0;" x1="482" x2="753" y1="109.4883" y2="109.4883"/><text fill="#000000" font-family="sans-serif" font-size="14" font-weight="bold" lengthAdjust="spacing" textLength="74" x="487" y="125.0234">row_count</text><text fill="#000000" font-family="sans-serif" font-size="14" lengthAdjust="spacing" textLength="9" x="591" y="125.0234">4</text><line style="stroke:#000000;stroke-width:1.0;" x1="586" x2="586" y1="109.4883" y2="129.9766"/><line style="stroke:#000000;stroke-width:1.0;" x1="482" x2="753" y1="129.9766" y2="129.9766"/><text fill="#000000" font-family="sans-serif" font-size="14" font-weight="bold" lengthAdjust="spacing" textLength="94" x="487" y="145.5117">ratio_percent</text><text fill="#000000" font-family="sans-serif" font-size="14" lengthAdjust="spacing" textLength="157" x="591" y="145.5117">28.571428571428573</text><line style="stroke:#000000;stroke-width:1.0;" x1="586" x2="586" y1="129.9766" y2="150.4648"/><rect fill="none" height="61.4648" rx="5" ry="5" style="stroke:#000000;stroke-width:1.5;" width="271" x="482" y="89"/><rect fill="#F1F1F1" height="61.4648" rx="5" ry="5" style="stroke:#F1F1F1;stroke-width:1.5;" width="262" x="486.5" y="168"/><text fill="#000000" font-family="sans-serif" font-size="14" font-weight="bold" lengthAdjust="spacing" textLength="78" x="491.5" y="183.5352">field_value</text><text fill="#000000" font-family="sans-serif" font-size="14" lengthAdjust="spacing" textLength="40" x="595.5" y="183.5352">96.00</text><line style="stroke:#000000;stroke-width:1.0;" x1="590.5" x2="590.5" y1="168" y2="188.4883"/><line style="stroke:#000000;stroke-width:1.0;" x1="486.5" x2="748.5" y1="188.4883" y2="188.4883"/><text fill="#000000" font-family="sans-serif" font-size="14" font-weight="bold" lengthAdjust="spacing" textLength="74" x="491.5" y="204.0234">row_count</text><text fill="#000000" font-family="sans-serif" font-size="14" lengthAdjust="spacing" textLength="9" x="595.5" y="204.0234">1</text><line style="stroke:#000000;stroke-width:1.0;" x1="590.5" x2="590.5" y1="188.4883" y2="208.9766"/><line style="stroke:#000000;stroke-width:1.0;" x1="486.5" x2="748.5" y1="208.9766" y2="208.9766"/><text fill="#000000" font-family="sans-serif" font-size="14" font-weight="bold" lengthAdjust="spacing" textLength="94" x="491.5" y="224.5117">ratio_percent</text><text fill="#000000" font-family="sans-serif" font-size="14" lengthAdjust="spacing" textLength="148" x="595.5" y="224.5117">7.142857142857143</text><line style="stroke:#000000;stroke-width:1.0;" x1="590.5" x2="590.5" y1="208.9766" y2="229.4648"/><rect fill="none" height="61.4648" rx="5" ry="5" style="stroke:#000000;stroke-width:1.5;" width="262" x="486.5" y="168"/><rect fill="#F1F1F1" height="61.4648" rx="5" ry="5" style="stroke:#F1F1F1;stroke-width:1.5;" width="262" x="486.5" y="247"/><text fill="#000000" font-family="sans-serif" font-size="14" font-weight="bold" lengthAdjust="spacing" textLength="78" x="491.5" y="262.5352">field_value</text><text fill="#000000" font-family="sans-serif" font-size="14" lengthAdjust="spacing" textLength="40" x="595.5" y="262.5352">80.00</text><line style="stroke:#000000;stroke-width:1.0;" x1="590.5" x2="590.5" y1="247" y2="267.4883"/><line style="stroke:#000000;stroke-width:1.0;" x1="486.5" x2="748.5" y1="267.4883" y2="267.4883"/><text fill="#000000" font-family="sans-serif" font-size="14" font-weight="bold" lengthAdjust="spacing" textLength="74" x="491.5" y="283.0234">row_count</text><text fill="#000000" font-family="sans-serif" font-size="14" lengthAdjust="spacing" textLength="9" x="595.5" y="283.0234">1</text><line style="stroke:#000000;stroke-width:1.0;" x1="590.5" x2="590.5" y1="267.4883" y2="287.9766"/><line style="stroke:#000000;stroke-width:1.0;" x1="486.5" x2="748.5" y1="287.9766" y2="287.9766"/><text fill="#000000" font-family="sans-serif" font-size="14" font-weight="bold" lengthAdjust="spacing" textLength="94" x="491.5" y="303.5117">ratio_percent</text><text fill="#000000" font-family="sans-serif" font-size="14" lengthAdjust="spacing" textLength="148" x="595.5" y="303.5117">7.142857142857143</text><line style="stroke:#000000;stroke-width:1.0;" x1="590.5" x2="590.5" y1="287.9766" y2="308.4648"/><rect fill="none" height="61.4648" rx="5" ry="5" style="stroke:#000000;stroke-width:1.5;" width="262" x="486.5" y="247"/><rect fill="#F1F1F1" height="61.4648" rx="5" ry="5" style="stroke:#F1F1F1;stroke-width:1.5;" width="262" x="486.5" y="326"/><text fill="#000000" font-family="sans-serif" font-size="14" font-weight="bold" lengthAdjust="spacing" textLength="78" x="491.5" y="341.5352">field_value</text><text fill="#000000" font-family="sans-serif" font-size="14" lengthAdjust="spacing" textLength="49" x="595.5" y="341.5352">108.00</text><line style="stroke:#000000;stroke-width:1.0;" x1="590.5" x2="590.5" y1="326" y2="346.4883"/><line style="stroke:#000000;stroke-width:1.0;" x1="486.5" x2="748.5" y1="346.4883" y2="346.4883"/><text fill="#000000" font-family="sans-serif" font-size="14" font-weight="bold" lengthAdjust="spacing" textLength="74" x="491.5" y="362.0234">row_count</text><text fill="#000000" font-family="sans-serif" font-size="14" lengthAdjust="spacing" textLength="9" x="595.5" y="362.0234">1</text><line style="stroke:#000000;stroke-width:1.0;" x1="590.5" x2="590.5" y1="346.4883" y2="366.9766"/><line style="stroke:#000000;stroke-width:1.0;" x1="486.5" x2="748.5" y1="366.9766" y2="366.9766"/><text fill="#000000" font-family="sans-serif" font-size="14" font-weight="bold" lengthAdjust="spacing" textLength="94" x="491.5" y="382.5117">ratio_percent</text><text fill="#000000" font-family="sans-serif" font-size="14" lengthAdjust="spacing" textLength="148" x="595.5" y="382.5117">7.142857142857143</text><line style="stroke:#000000;stroke-width:1.0;" x1="590.5" x2="590.5" y1="366.9766" y2="387.4648"/><rect fill="none" height="61.4648" rx="5" ry="5" style="stroke:#000000;stroke-width:1.5;" width="262" x="486.5" y="326"/><path d="M216,143.5 L229,143.5 C240.1545,143.5 261.4003,138.4329 283.2835,132.211 " fill="none" style="stroke:#000000;stroke-width:1.0;stroke-dasharray:3.0,3.0;"/><path d="M284.143,135.1838 L285.5131,131.5664 L282.4241,129.2381 L290.7156,130.0623 L284.143,135.1838 " fill="#000000" style="stroke:#000000;stroke-width:1.0;"/><ellipse cx="216" cy="143.5" fill="#000000" rx="3" ry="3" style="stroke:#000000;stroke-width:1.0;"/><path d="M355.5,158.5 L368.5,158.5 C404.0729,158.5 417.4193,159.6795 446,138.5 C470.6802,120.2109 457.5845,98.1411 482,79.5 C498.3198,67.0399 518.5005,58.5574 538.2395,52.7837 " fill="none" style="stroke:#000000;stroke-width:1.0;stroke-dasharray:3.0,3.0;"/><path d="M539.0423,55.6815 L540.4128,52.1817 L537.4368,49.886 L545.4839,50.7768 L539.0423,55.6815 " fill="#000000" style="stroke:#000000;stroke-width:1.0;"/><ellipse cx="355.5" cy="158.5" fill="#000000" rx="3" ry="3" style="stroke:#000000;stroke-width:1.0;"/><path d="M355.5,178.5 L368.5,178.5 C394.9686,178.5 450.7937,165.6687 502.8383,151.9738 " fill="none" style="stroke:#000000;stroke-width:1.0;stroke-dasharray:3.0,3.0;"/><path d="M503.6131,154.8999 L505.0329,151.3927 L502.0636,149.0477 L510.1535,150.0369 L503.6131,154.8999 " fill="#000000" style="stroke:#000000;stroke-width:1.0;"/><ellipse cx="355.5" cy="178.5" fill="#000000" rx="3" ry="3" style="stroke:#000000;stroke-width:1.0;"/><path d="M355.5,198.5 L368.5,198.5 C404.3469,198.5 443.1025,198.5 479.1024,198.5 " fill="none" style="stroke:#000000;stroke-width:1.0;stroke-dasharray:3.0,3.0;"/><path d="M479.1024,201.5552 L481.3938,198.5 L479.1024,195.4448 L486.7405,198.5 L479.1024,201.5552 " fill="#000000" style="stroke:#000000;stroke-width:1.0;"/><ellipse cx="355.5" cy="198.5" fill="#000000" rx="3" ry="3" style="stroke:#000000;stroke-width:1.0;"/><path d="M355.5,219.5 L368.5,219.5 C394.5741,219.5 449.2088,231.7626 500.6266,245.0109 " fill="none" style="stroke:#000000;stroke-width:1.0;stroke-dasharray:3.0,3.0;"/><path d="M499.8424,248.0345 L502.8944,245.599 L501.4108,241.9872 L508.1857,246.9713 L499.8424,248.0345 " fill="#000000" style="stroke:#000000;stroke-width:1.0;"/><ellipse cx="355.5" cy="219.5" fill="#000000" rx="3" ry="3" style="stroke:#000000;stroke-width:1.0;"/><path d="M355.5,240.5 L368.5,240.5 C429.4574,240.5 426.814,291.6097 482,317.5 C486.2033,319.4719 490.5277,321.3662 494.932,323.1835 " fill="none" style="stroke:#000000;stroke-width:1.0;stroke-dasharray:3.0,3.0;"/><path d="M493.815,325.9759 L497.0262,324.0213 L496.0489,320.3912 L501.9128,325.976 L493.815,325.9759 " fill="#000000" style="stroke:#000000;stroke-width:1.0;"/><ellipse cx="355.5" cy="240.5" fill="#000000" rx="3" ry="3" style="stroke:#000000;stroke-width:1.0;"/><path d="M216,164.5 L229,164.5 C268.3926,164.5 312.2685,180.6975 336.2975,191.0547 " fill="none" style="stroke:#000000;stroke-width:1.0;stroke-dasharray:3.0,3.0;"/><path d="M335.0457,193.884 L338.4195,191.9935 L337.5493,188.2253 L343.3709,194.1843 L335.0457,193.884 " fill="#000000" style="stroke:#000000;stroke-width:1.0;"/><ellipse cx="216" cy="164.5" fill="#000000" rx="3" ry="3" style="stroke:#000000;stroke-width:1.0;"/><!--MD5=[0b05a773f31392939090af34f4da77ec]
@startjson
{
    "field1": "Availability",
    "combination": "Availability",
    "null_distribution": {
        "total_null_rows": 0,
        "total_not_null_rows": 14
    },
    "data_distribution": [
        {
            "field_value": "0.00",
            "row_count": 7,
            "ratio_percent": 50.0
        },
        {
            "field_value": "120.00",
            "row_count": 4,
            "ratio_percent": 28.571428571428573
        },
        {
            "field_value": "96.00",
            "row_count": 1,
            "ratio_percent": 7.142857142857143
        },
        {
            "field_value": "80.00",
            "row_count": 1,
            "ratio_percent": 7.142857142857143
        },
        {
            "field_value": "108.00",
            "row_count": 1,
            "ratio_percent": 7.142857142857143
        }
    ]
}
@endjson

PlantUML version 1.2022.5(Sat Apr 30 06:55:52 EDT 2022)
(GPL source distribution)
Java Runtime: OpenJDK Runtime Environment
JVM: OpenJDK 64-Bit Server VM
Default Encoding: UTF-8
Language: en
Country: CA
--></g></svg>