<?xml version="1.0" encoding="UTF-8" standalone="no"?><svg xmlns="http://www.w3.org/2000/svg" xmlns:xlink="http://www.w3.org/1999/xlink" contentStyleType="text/css" height="320px" preserveAspectRatio="none" style="width:854px;height:320px;background:#FFFFFF;" version="1.1" viewBox="0 0 854 320" width="854px" zoomAndPan="magnify"><defs/><g><rect fill="#F1F1F1" height="81.9531" rx="5" ry="5" style="stroke:#F1F1F1;stroke-width:1.5;" width="237" x="10" y="57.5"/><text fill="#000000" font-family="sans-serif" font-size="14" font-weight="bold" lengthAdjust="spacing" textLength="42" x="15" y="73.0352">field1</text><text fill="#000000" font-family="sans-serif" font-size="14" lengthAdjust="spacing" textLength="93" x="149" y="73.0352">EmailAddress</text><line style="stroke:#000000;stroke-width:1.0;" x1="144" x2="144" y1="57.5" y2="77.9883"/><line style="stroke:#000000;stroke-width:1.0;" x1="10" x2="247" y1="77.9883" y2="77.9883"/><text fill="#000000" font-family="sans-serif" font-size="14" font-weight="bold" lengthAdjust="spacing" textLength="90" x="15" y="93.5234">combination</text><text fill="#000000" font-family="sans-serif" font-size="14" lengthAdjust="spacing" textLength="93" x="149" y="93.5234">EmailAddress</text><line style="stroke:#000000;stroke-width:1.0;" x1="144" x2="144" y1="77.9883" y2="98.4766"/><line style="stroke:#000000;stroke-width:1.0;" x1="10" x2="247" y1="98.4766" y2="98.4766"/><text fill="#000000" font-family="sans-serif" font-size="14" font-weight="bold" lengthAdjust="spacing" textLength="121" x="15" y="114.0117">null_distribution</text><text fill="#000000" font-family="sans-serif" font-size="14" lengthAdjust="spacing" textLength="12" x="149" y="114.0117">   </text><line style="stroke:#000000;stroke-width:1.0;" x1="144" x2="144" y1="98.4766" y2="118.9648"/><line style="stroke:#000000;stroke-width:1.0;" x1="10" x2="247" y1="118.9648" y2="118.9648"/><text fill="#000000" font-family="sans-serif" font-size="14" font-weight="bold" lengthAdjust="spacing" textLength="124" x="15" y="134.5">data_distribution</text><text fill="#000000" font-family="sans-serif" font-size="14" lengthAdjust="spacing" textLength="12" x="149" y="134.5">   </text><line style="stroke:#000000;stroke-width:1.0;" x1="144" x2="144" y1="118.9648" y2="139.4531"/><rect fill="none" height="81.9531" rx="5" ry="5" style="stroke:#000000;stroke-width:1.5;" width="237" x="10" y="57.5"/><rect fill="#F1F1F1" height="40.9766" rx="5" ry="5" style="stroke:#F1F1F1;stroke-width:1.5;" width="171" x="284" y="59"/><text fill="#000000" font-family="sans-serif" font-size="14" font-weight="bold" lengthAdjust="spacing" textLength="111" x="289" y="74.5352">total_null_rows</text><text fill="#000000" font-family="sans-serif" font-size="14" lengthAdjust="spacing" textLength="9" x="441" y="74.5352">0</text><line style="stroke:#000000;stroke-width:1.0;" x1="436" x2="436" y1="59" y2="79.4883"/><line style="stroke:#000000;stroke-width:1.0;" x1="284" x2="455" y1="79.4883" y2="79.4883"/><text fill="#000000" font-family="sans-serif" font-size="14" font-weight="bold" lengthAdjust="spacing" textLength="142" x="289" y="95.0234">total_not_null_rows</text><text fill="#000000" font-family="sans-serif" font-size="14" lengthAdjust="spacing" textLength="9" x="441" y="95.0234">4</text><line style="stroke:#000000;stroke-width:1.0;" x1="436" x2="436" y1="79.4883" y2="99.9766"/><rect fill="none" height="40.9766" rx="5" ry="5" style="stroke:#000000;stroke-width:1.5;" width="171" x="284" y="59"/><rect fill="#F1F1F1" height="81.9531" rx="5" ry="5" style="stroke:#F1F1F1;stroke-width:1.5;" width="22" x="357.5" y="118.5"/><text fill="#000000" font-family="sans-serif" font-size="14" lengthAdjust="spacing" textLength="12" x="362.5" y="134.0352">   </text><line style="stroke:#000000;stroke-width:1.0;" x1="357.5" x2="379.5" y1="138.9883" y2="138.9883"/><text fill="#000000" font-family="sans-serif" font-size="14" lengthAdjust="spacing" textLength="12" x="362.5" y="154.5234">   </text><line style="stroke:#000000;stroke-width:1.0;" x1="357.5" x2="379.5" y1="159.4766" y2="159.4766"/><text fill="#000000" font-family="sans-serif" font-size="14" lengthAdjust="spacing" textLength="12" x="362.5" y="175.0117">   </text><line style="stroke:#000000;stroke-width:1.0;" x1="357.5" x2="379.5" y1="179.9648" y2="179.9648"/><text fill="#000000" font-family="sans-serif" font-size="14" lengthAdjust="spacing" textLength="12" x="362.5" y="195.5">   </text><rect fill="none" height="81.9531" rx="5" ry="5" style="stroke:#000000;stroke-width:1.5;" width="22" x="357.5" y="118.5"/><rect fill="#F1F1F1" height="61.4648" rx="5" ry="5" style="stroke:#F1F1F1;stroke-width:1.5;" width="272" x="531" y="10"/><text fill="#000000" font-family="sans-serif" font-size="14" font-weight="bold" lengthAdjust="spacing" textLength="78" x="536" y="25.5352">field_value</text><text fill="#000000" font-family="sans-serif" font-size="14" lengthAdjust="spacing" textLength="158" x="640" y="25.5352">laura@treyresearch.net</text><line style="stroke:#000000;stroke-width:1.0;" x1="635" x2="635" y1="10" y2="30.4883"/><line style="stroke:#000000;stroke-width:1.0;" x1="531" x2="803" y1="30.4883" y2="30.4883"/><text fill="#000000" font-family="sans-serif" font-size="14" font-weight="bold" lengthAdjust="spacing" textLength="74" x="536" y="46.0234">row_count</text><text fill="#000000" font-family="sans-serif" font-size="14" lengthAdjust="spacing" textLength="9" x="640" y="46.0234">1</text><line style="stroke:#000000;stroke-width:1.0;" x1="635" x2="635" y1="30.4883" y2="50.9766"/><line style="stroke:#000000;stroke-width:1.0;" x1="531" x2="803" y1="50.9766" y2="50.9766"/><text fill="#000000" font-family="sans-serif" font-size="14" font-weight="bold" lengthAdjust="spacing" textLength="94" x="536" y="66.5117">ratio_percent</text><text fill="#000000" font-family="sans-serif" font-size="14" lengthAdjust="spacing" textLength="31" x="640" y="66.5117">25.0</text><line style="stroke:#000000;stroke-width:1.0;" x1="635" x2="635" y1="50.9766" y2="71.4648"/><rect fill="none" height="61.4648" rx="5" ry="5" style="stroke:#000000;stroke-width:1.5;" width="272" x="531" y="10"/><rect fill="#F1F1F1" height="61.4648" rx="5" ry="5" style="stroke:#F1F1F1;stroke-width:1.5;" width="275" x="529.5" y="89"/><text fill="#000000" font-family="sans-serif" font-size="14" font-weight="bold" lengthAdjust="spacing" textLength="78" x="534.5" y="104.5352">field_value</text><text fill="#000000" font-family="sans-serif" font-size="14" lengthAdjust="spacing" textLength="161" x="638.5" y="104.5352">john@fourthcoffee.com</text><line style="stroke:#000000;stroke-width:1.0;" x1="633.5" x2="633.5" y1="89" y2="109.4883"/><line style="stroke:#000000;stroke-width:1.0;" x1="529.5" x2="804.5" y1="109.4883" y2="109.4883"/><text fill="#000000" font-family="sans-serif" font-size="14" font-weight="bold" lengthAdjust="spacing" textLength="74" x="534.5" y="125.0234">row_count</text><text fill="#000000" font-family="sans-serif" font-size="14" lengthAdjust="spacing" textLength="9" x="638.5" y="125.0234">1</text><line style="stroke:#000000;stroke-width:1.0;" x1="633.5" x2="633.5" y1="109.4883" y2="129.9766"/><line style="stroke:#000000;stroke-width:1.0;" x1="529.5" x2="804.5" y1="129.9766" y2="129.9766"/><text fill="#000000" font-family="sans-serif" font-size="14" font-weight="bold" lengthAdjust="spacing" textLength="94" x="534.5" y="145.5117">ratio_percent</text><text fill="#000000" font-family="sans-serif" font-size="14" lengthAdjust="spacing" textLength="31" x="638.5" y="145.5117">25.0</text><line style="stroke:#000000;stroke-width:1.0;" x1="633.5" x2="633.5" y1="129.9766" y2="150.4648"/><rect fill="none" height="61.4648" rx="5" ry="5" style="stroke:#000000;stroke-width:1.5;" width="275" x="529.5" y="89"/><rect fill="#F1F1F1" height="61.4648" rx="5" ry="5" style="stroke:#F1F1F1;stroke-width:1.5;" width="268" x="533" y="168"/><text fill="#000000" font-family="sans-serif" font-size="14" font-weight="bold" lengthAdjust="spacing" textLength="78" x="538" y="183.5352">field_value</text><text fill="#000000" font-family="sans-serif" font-size="14" lengthAdjust="spacing" textLength="154" x="642" y="183.5352">jill@margiestravel.com</text><line style="stroke:#000000;stroke-width:1.0;" x1="637" x2="637" y1="168" y2="188.4883"/><line style="stroke:#000000;stroke-width:1.0;" x1="533" x2="801" y1="188.4883" y2="188.4883"/><text fill="#000000" font-family="sans-serif" font-size="14" font-weight="bold" lengthAdjust="spacing" textLength="74" x="538" y="204.0234">row_count</text><text fill="#000000" font-family="sans-serif" font-size="14" lengthAdjust="spacing" textLength="9" x="642" y="204.0234">1</text><line style="stroke:#000000;stroke-width:1.0;" x1="637" x2="637" y1="188.4883" y2="208.9766"/><line style="stroke:#000000;stroke-width:1.0;" x1="533" x2="801" y1="208.9766" y2="208.9766"/><text fill="#000000" font-family="sans-serif" font-size="14" font-weight="bold" lengthAdjust="spacing" textLength="94" x="538" y="224.5117">ratio_percent</text><text fill="#000000" font-family="sans-serif" font-size="14" lengthAdjust="spacing" textLength="31" x="642" y="224.5117">25.0</text><line style="stroke:#000000;stroke-width:1.0;" x1="637" x2="637" y1="208.9766" y2="229.4648"/><rect fill="none" height="61.4648" rx="5" ry="5" style="stroke:#000000;stroke-width:1.5;" width="268" x="533" y="168"/><rect fill="#F1F1F1" height="61.4648" rx="5" ry="5" style="stroke:#F1F1F1;stroke-width:1.5;" width="350" x="492" y="247"/><text fill="#000000" font-family="sans-serif" font-size="14" font-weight="bold" lengthAdjust="spacing" textLength="78" x="497" y="262.5352">field_value</text><text fill="#000000" font-family="sans-serif" font-size="14" lengthAdjust="spacing" textLength="236" x="601" y="262.5352">david@graphicdesigninstitute.com</text><line style="stroke:#000000;stroke-width:1.0;" x1="596" x2="596" y1="247" y2="267.4883"/><line style="stroke:#000000;stroke-width:1.0;" x1="492" x2="842" y1="267.4883" y2="267.4883"/><text fill="#000000" font-family="sans-serif" font-size="14" font-weight="bold" lengthAdjust="spacing" textLength="74" x="497" y="283.0234">row_count</text><text fill="#000000" font-family="sans-serif" font-size="14" lengthAdjust="spacing" textLength="9" x="601" y="283.0234">1</text><line style="stroke:#000000;stroke-width:1.0;" x1="596" x2="596" y1="267.4883" y2="287.9766"/><line style="stroke:#000000;stroke-width:1.0;" x1="492" x2="842" y1="287.9766" y2="287.9766"/><text fill="#000000" font-family="sans-serif" font-size="14" font-weight="bold" lengthAdjust="spacing" textLength="94" x="497" y="303.5117">ratio_percent</text><text fill="#000000" font-family="sans-serif" font-size="14" lengthAdjust="spacing" textLength="31" x="601" y="303.5117">25.0</text><line style="stroke:#000000;stroke-width:1.0;" x1="596" x2="596" y1="287.9766" y2="308.4648"/><rect fill="none" height="61.4648" rx="5" ry="5" style="stroke:#000000;stroke-width:1.5;" width="350" x="492" y="247"/><path d="M235,108.5 L248,108.5 C265.1406,108.5 283.2801,105.714 300.1527,101.869 " fill="none" style="stroke:#000000;stroke-width:1.0;stroke-dasharray:3.0,3.0;"/><path d="M300.8867,104.931 L302.4492,101.3185 L299.4187,98.807 L307.8076,100.034 L300.8867,104.931 " fill="#000000" style="stroke:#000000;stroke-width:1.0;"/><ellipse cx="235" cy="108.5" fill="#000000" rx="3" ry="3" style="stroke:#000000;stroke-width:1.0;"/><path d="M370,128.5 L383,128.5 C416.6401,128.5 426.0498,123.818 456,108.5 C474.292,99.1445 473.4908,88.4182 492,79.5 C502.2086,74.5813 513.0539,70.2723 524.1467,66.4993 " fill="none" style="stroke:#000000;stroke-width:1.0;stroke-dasharray:3.0,3.0;"/><path d="M525.108,69.4277 L526.3431,65.7783 L523.1855,63.5708 L531.4679,64.0962 L525.108,69.4277 " fill="#000000" style="stroke:#000000;stroke-width:1.0;"/><ellipse cx="370" cy="128.5" fill="#000000" rx="3" ry="3" style="stroke:#000000;stroke-width:1.0;"/><path d="M370,148.5 L383,148.5 C428.3668,148.5 477.6062,144.7794 522.1236,140.0035 " fill="none" style="stroke:#000000;stroke-width:1.0;stroke-dasharray:3.0,3.0;"/><path d="M522.4592,143.0744 L524.4268,139.7519 L521.7881,136.9327 L529.8007,139.1646 L522.4592,143.0744 " fill="#000000" style="stroke:#000000;stroke-width:1.0;"/><ellipse cx="370" cy="148.5" fill="#000000" rx="3" ry="3" style="stroke:#000000;stroke-width:1.0;"/><path d="M370,169.5 L383,169.5 C429.6322,169.5 480.3561,173.431 525.8375,178.3985 " fill="none" style="stroke:#000000;stroke-width:1.0;stroke-dasharray:3.0,3.0;"/><path d="M525.502,181.4167 L528.1012,178.6501 L526.173,175.3803 L533.3831,179.2373 L525.502,181.4167 " fill="#000000" style="stroke:#000000;stroke-width:1.0;"/><ellipse cx="370" cy="169.5" fill="#000000" rx="3" ry="3" style="stroke:#000000;stroke-width:1.0;"/><path d="M370,190.5 L383,190.5 C435.9337,190.5 441.7095,221.9821 492,238.5 C498.6059,240.6697 505.3916,242.7583 512.2752,244.7633 " fill="none" style="stroke:#000000;stroke-width:1.0;stroke-dasharray:3.0,3.0;"/><path d="M511.4181,247.7649 L514.5263,245.4061 L513.1323,241.7617 L519.7791,246.9061 L511.4181,247.7649 " fill="#000000" style="stroke:#000000;stroke-width:1.0;"/><ellipse cx="370" cy="190.5" fill="#000000" rx="3" ry="3" style="stroke:#000000;stroke-width:1.0;"/><path d="M235,129.5 L248,129.5 C285.3341,129.5 327.2941,143.1213 350.6944,152.0071 " fill="none" style="stroke:#000000;stroke-width:1.0;stroke-dasharray:3.0,3.0;"/><path d="M349.5723,154.8834 L352.8517,152.8487 L351.8166,149.1308 L357.8852,154.8125 L349.5723,154.8834 " fill="#000000" style="stroke:#000000;stroke-width:1.0;"/><ellipse cx="235" cy="129.5" fill="#000000" rx="3" ry="3" style="stroke:#000000;stroke-width:1.0;"/><!--MD5=[7da8de5e171282ec6c30d3070495f9a9]
@startjson
{
    "field1": "EmailAddress",
    "combination": "EmailAddress",
    "null_distribution": {
        "total_null_rows": 0,
        "total_not_null_rows": 4
    },
    "data_distribution": [
        {
            "field_value": "laura@treyresearch.net",
            "row_count": 1,
            "ratio_percent": 25.0
        },
        {
            "field_value": "john@fourthcoffee.com",
            "row_count": 1,
            "ratio_percent": 25.0
        },
        {
            "field_value": "jill@margiestravel.com",
            "row_count": 1,
            "ratio_percent": 25.0
        },
        {
            "field_value": "david@graphicdesigninstitute.com",
            "row_count": 1,
            "ratio_percent": 25.0
        }
    ]
}
@endjson

PlantUML version 1.2022.5(Sat Apr 30 06:55:52 EDT 2022)
(GPL source distribution)
Java Runtime: OpenJDK Runtime Environment
JVM: OpenJDK 64-Bit Server VM
Default Encoding: UTF-8
Language: en
Country: CA
--></g></svg>