<?xml version="1.0" encoding="UTF-8" standalone="no"?><svg xmlns="http://www.w3.org/2000/svg" xmlns:xlink="http://www.w3.org/1999/xlink" contentStyleType="text/css" height="636px" preserveAspectRatio="none" style="width:640px;height:636px;background:#FFFFFF;" version="1.1" viewBox="0 0 640 636" width="640px" zoomAndPan="magnify"><defs/><g><rect fill="#F1F1F1" height="81.9531" rx="5" ry="5" style="stroke:#F1F1F1;stroke-width:1.5;" width="209" x="10" y="195.5"/><text fill="#000000" font-family="sans-serif" font-size="14" font-weight="bold" lengthAdjust="spacing" textLength="42" x="15" y="211.0352">field1</text><text fill="#000000" font-family="sans-serif" font-size="14" lengthAdjust="spacing" textLength="65" x="149" y="211.0352">CultureID</text><line style="stroke:#000000;stroke-width:1.0;" x1="144" x2="144" y1="195.5" y2="215.9883"/><line style="stroke:#000000;stroke-width:1.0;" x1="10" x2="219" y1="215.9883" y2="215.9883"/><text fill="#000000" font-family="sans-serif" font-size="14" font-weight="bold" lengthAdjust="spacing" textLength="90" x="15" y="231.5234">combination</text><text fill="#000000" font-family="sans-serif" font-size="14" lengthAdjust="spacing" textLength="65" x="149" y="231.5234">CultureID</text><line style="stroke:#000000;stroke-width:1.0;" x1="144" x2="144" y1="215.9883" y2="236.4766"/><line style="stroke:#000000;stroke-width:1.0;" x1="10" x2="219" y1="236.4766" y2="236.4766"/><text fill="#000000" font-family="sans-serif" font-size="14" font-weight="bold" lengthAdjust="spacing" textLength="121" x="15" y="252.0117">null_distribution</text><text fill="#000000" font-family="sans-serif" font-size="14" lengthAdjust="spacing" textLength="12" x="149" y="252.0117">   </text><line style="stroke:#000000;stroke-width:1.0;" x1="144" x2="144" y1="236.4766" y2="256.9648"/><line style="stroke:#000000;stroke-width:1.0;" x1="10" x2="219" y1="256.9648" y2="256.9648"/><text fill="#000000" font-family="sans-serif" font-size="14" font-weight="bold" lengthAdjust="spacing" textLength="124" x="15" y="272.5">data_distribution</text><text fill="#000000" font-family="sans-serif" font-size="14" lengthAdjust="spacing" textLength="12" x="149" y="272.5">   </text><line style="stroke:#000000;stroke-width:1.0;" x1="144" x2="144" y1="256.9648" y2="277.4531"/><rect fill="none" height="81.9531" rx="5" ry="5" style="stroke:#000000;stroke-width:1.5;" width="209" x="10" y="195.5"/><rect fill="#F1F1F1" height="40.9766" rx="5" ry="5" style="stroke:#F1F1F1;stroke-width:1.5;" width="171" x="256" y="176"/><text fill="#000000" font-family="sans-serif" font-size="14" font-weight="bold" lengthAdjust="spacing" textLength="111" x="261" y="191.5352">total_null_rows</text><text fill="#000000" font-family="sans-serif" font-size="14" lengthAdjust="spacing" textLength="9" x="413" y="191.5352">0</text><line style="stroke:#000000;stroke-width:1.0;" x1="408" x2="408" y1="176" y2="196.4883"/><line style="stroke:#000000;stroke-width:1.0;" x1="256" x2="427" y1="196.4883" y2="196.4883"/><text fill="#000000" font-family="sans-serif" font-size="14" font-weight="bold" lengthAdjust="spacing" textLength="142" x="261" y="212.0234">total_not_null_rows</text><text fill="#000000" font-family="sans-serif" font-size="14" lengthAdjust="spacing" textLength="9" x="413" y="212.0234">8</text><line style="stroke:#000000;stroke-width:1.0;" x1="408" x2="408" y1="196.4883" y2="216.9766"/><rect fill="none" height="40.9766" rx="5" ry="5" style="stroke:#000000;stroke-width:1.5;" width="171" x="256" y="176"/><rect fill="#F1F1F1" height="163.9063" rx="5" ry="5" style="stroke:#F1F1F1;stroke-width:1.5;" width="22" x="329.5" y="235.5"/><text fill="#000000" font-family="sans-serif" font-size="14" lengthAdjust="spacing" textLength="12" x="334.5" y="251.0352">   </text><line style="stroke:#000000;stroke-width:1.0;" x1="329.5" x2="351.5" y1="255.9883" y2="255.9883"/><text fill="#000000" font-family="sans-serif" font-size="14" lengthAdjust="spacing" textLength="12" x="334.5" y="271.5234">   </text><line style="stroke:#000000;stroke-width:1.0;" x1="329.5" x2="351.5" y1="276.4766" y2="276.4766"/><text fill="#000000" font-family="sans-serif" font-size="14" lengthAdjust="spacing" textLength="12" x="334.5" y="292.0117">   </text><line style="stroke:#000000;stroke-width:1.0;" x1="329.5" x2="351.5" y1="296.9648" y2="296.9648"/><text fill="#000000" font-family="sans-serif" font-size="14" lengthAdjust="spacing" textLength="12" x="334.5" y="312.5">   </text><line style="stroke:#000000;stroke-width:1.0;" x1="329.5" x2="351.5" y1="317.4531" y2="317.4531"/><text fill="#000000" font-family="sans-serif" font-size="14" lengthAdjust="spacing" textLength="12" x="334.5" y="332.9883">   </text><line style="stroke:#000000;stroke-width:1.0;" x1="329.5" x2="351.5" y1="337.9414" y2="337.9414"/><text fill="#000000" font-family="sans-serif" font-size="14" lengthAdjust="spacing" textLength="12" x="334.5" y="353.4766">   </text><line style="stroke:#000000;stroke-width:1.0;" x1="329.5" x2="351.5" y1="358.4297" y2="358.4297"/><text fill="#000000" font-family="sans-serif" font-size="14" lengthAdjust="spacing" textLength="12" x="334.5" y="373.9648">   </text><line style="stroke:#000000;stroke-width:1.0;" x1="329.5" x2="351.5" y1="378.918" y2="378.918"/><text fill="#000000" font-family="sans-serif" font-size="14" lengthAdjust="spacing" textLength="12" x="334.5" y="394.4531">   </text><rect fill="none" height="163.9063" rx="5" ry="5" style="stroke:#000000;stroke-width:1.5;" width="22" x="329.5" y="235.5"/><rect fill="#F1F1F1" height="61.4648" rx="5" ry="5" style="stroke:#F1F1F1;stroke-width:1.5;" width="160" x="466" y="10"/><text fill="#000000" font-family="sans-serif" font-size="14" font-weight="bold" lengthAdjust="spacing" textLength="78" x="471" y="25.5352">field_value</text><text fill="#000000" font-family="sans-serif" font-size="14" lengthAdjust="spacing" textLength="46" x="575" y="25.5352">zh-cht</text><line style="stroke:#000000;stroke-width:1.0;" x1="570" x2="570" y1="10" y2="30.4883"/><line style="stroke:#000000;stroke-width:1.0;" x1="466" x2="626" y1="30.4883" y2="30.4883"/><text fill="#000000" font-family="sans-serif" font-size="14" font-weight="bold" lengthAdjust="spacing" textLength="74" x="471" y="46.0234">row_count</text><text fill="#000000" font-family="sans-serif" font-size="14" lengthAdjust="spacing" textLength="9" x="575" y="46.0234">1</text><line style="stroke:#000000;stroke-width:1.0;" x1="570" x2="570" y1="30.4883" y2="50.9766"/><line style="stroke:#000000;stroke-width:1.0;" x1="466" x2="626" y1="50.9766" y2="50.9766"/><text fill="#000000" font-family="sans-serif" font-size="14" font-weight="bold" lengthAdjust="spacing" textLength="94" x="471" y="66.5117">ratio_percent</text><text fill="#000000" font-family="sans-serif" font-size="14" lengthAdjust="spacing" textLength="31" x="575" y="66.5117">12.5</text><line style="stroke:#000000;stroke-width:1.0;" x1="570" x2="570" y1="50.9766" y2="71.4648"/><rect fill="none" height="61.4648" rx="5" ry="5" style="stroke:#000000;stroke-width:1.5;" width="160" x="466" y="10"/><rect fill="#F1F1F1" height="61.4648" rx="5" ry="5" style="stroke:#F1F1F1;stroke-width:1.5;" width="145" x="473.5" y="89"/><text fill="#000000" font-family="sans-serif" font-size="14" font-weight="bold" lengthAdjust="spacing" textLength="78" x="478.5" y="104.5352">field_value</text><text fill="#000000" font-family="sans-serif" font-size="14" lengthAdjust="spacing" textLength="14" x="582.5" y="104.5352">th</text><line style="stroke:#000000;stroke-width:1.0;" x1="577.5" x2="577.5" y1="89" y2="109.4883"/><line style="stroke:#000000;stroke-width:1.0;" x1="473.5" x2="618.5" y1="109.4883" y2="109.4883"/><text fill="#000000" font-family="sans-serif" font-size="14" font-weight="bold" lengthAdjust="spacing" textLength="74" x="478.5" y="125.0234">row_count</text><text fill="#000000" font-family="sans-serif" font-size="14" lengthAdjust="spacing" textLength="9" x="582.5" y="125.0234">1</text><line style="stroke:#000000;stroke-width:1.0;" x1="577.5" x2="577.5" y1="109.4883" y2="129.9766"/><line style="stroke:#000000;stroke-width:1.0;" x1="473.5" x2="618.5" y1="129.9766" y2="129.9766"/><text fill="#000000" font-family="sans-serif" font-size="14" font-weight="bold" lengthAdjust="spacing" textLength="94" x="478.5" y="145.5117">ratio_percent</text><text fill="#000000" font-family="sans-serif" font-size="14" lengthAdjust="spacing" textLength="31" x="582.5" y="145.5117">12.5</text><line style="stroke:#000000;stroke-width:1.0;" x1="577.5" x2="577.5" y1="129.9766" y2="150.4648"/><rect fill="none" height="61.4648" rx="5" ry="5" style="stroke:#000000;stroke-width:1.5;" width="145" x="473.5" y="89"/><rect fill="#F1F1F1" height="61.4648" rx="5" ry="5" style="stroke:#F1F1F1;stroke-width:1.5;" width="145" x="473.5" y="168"/><text fill="#000000" font-family="sans-serif" font-size="14" font-weight="bold" lengthAdjust="spacing" textLength="78" x="478.5" y="183.5352">field_value</text><text fill="#000000" font-family="sans-serif" font-size="14" lengthAdjust="spacing" textLength="17" x="582.5" y="183.5352">he</text><line style="stroke:#000000;stroke-width:1.0;" x1="577.5" x2="577.5" y1="168" y2="188.4883"/><line style="stroke:#000000;stroke-width:1.0;" x1="473.5" x2="618.5" y1="188.4883" y2="188.4883"/><text fill="#000000" font-family="sans-serif" font-size="14" font-weight="bold" lengthAdjust="spacing" textLength="74" x="478.5" y="204.0234">row_count</text><text fill="#000000" font-family="sans-serif" font-size="14" lengthAdjust="spacing" textLength="9" x="582.5" y="204.0234">1</text><line style="stroke:#000000;stroke-width:1.0;" x1="577.5" x2="577.5" y1="188.4883" y2="208.9766"/><line style="stroke:#000000;stroke-width:1.0;" x1="473.5" x2="618.5" y1="208.9766" y2="208.9766"/><text fill="#000000" font-family="sans-serif" font-size="14" font-weight="bold" lengthAdjust="spacing" textLength="94" x="478.5" y="224.5117">ratio_percent</text><text fill="#000000" font-family="sans-serif" font-size="14" lengthAdjust="spacing" textLength="31" x="582.5" y="224.5117">12.5</text><line style="stroke:#000000;stroke-width:1.0;" x1="577.5" x2="577.5" y1="208.9766" y2="229.4648"/><rect fill="none" height="61.4648" rx="5" ry="5" style="stroke:#000000;stroke-width:1.5;" width="145" x="473.5" y="168"/><rect fill="#F1F1F1" height="61.4648" rx="5" ry="5" style="stroke:#F1F1F1;stroke-width:1.5;" width="145" x="473.5" y="247"/><text fill="#000000" font-family="sans-serif" font-size="14" font-weight="bold" lengthAdjust="spacing" textLength="78" x="478.5" y="262.5352">field_value</text><text fill="#000000" font-family="sans-serif" font-size="14" lengthAdjust="spacing" textLength="11" x="582.5" y="262.5352">fr</text><line style="stroke:#000000;stroke-width:1.0;" x1="577.5" x2="577.5" y1="247" y2="267.4883"/><line style="stroke:#000000;stroke-width:1.0;" x1="473.5" x2="618.5" y1="267.4883" y2="267.4883"/><text fill="#000000" font-family="sans-serif" font-size="14" font-weight="bold" lengthAdjust="spacing" textLength="74" x="478.5" y="283.0234">row_count</text><text fill="#000000" font-family="sans-serif" font-size="14" lengthAdjust="spacing" textLength="9" x="582.5" y="283.0234">1</text><line style="stroke:#000000;stroke-width:1.0;" x1="577.5" x2="577.5" y1="267.4883" y2="287.9766"/><line style="stroke:#000000;stroke-width:1.0;" x1="473.5" x2="618.5" y1="287.9766" y2="287.9766"/><text fill="#000000" font-family="sans-serif" font-size="14" font-weight="bold" lengthAdjust="spacing" textLength="94" x="478.5" y="303.5117">ratio_percent</text><text fill="#000000" font-family="sans-serif" font-size="14" lengthAdjust="spacing" textLength="31" x="582.5" y="303.5117">12.5</text><line style="stroke:#000000;stroke-width:1.0;" x1="577.5" x2="577.5" y1="287.9766" y2="308.4648"/><rect fill="none" height="61.4648" rx="5" ry="5" style="stroke:#000000;stroke-width:1.5;" width="145" x="473.5" y="247"/><rect fill="#F1F1F1" height="61.4648" rx="5" ry="5" style="stroke:#F1F1F1;stroke-width:1.5;" width="145" x="473.5" y="326"/><text fill="#000000" font-family="sans-serif" font-size="14" font-weight="bold" lengthAdjust="spacing" textLength="78" x="478.5" y="341.5352">field_value</text><text fill="#000000" font-family="sans-serif" font-size="14" lengthAdjust="spacing" textLength="15" x="582.5" y="341.5352">es</text><line style="stroke:#000000;stroke-width:1.0;" x1="577.5" x2="577.5" y1="326" y2="346.4883"/><line style="stroke:#000000;stroke-width:1.0;" x1="473.5" x2="618.5" y1="346.4883" y2="346.4883"/><text fill="#000000" font-family="sans-serif" font-size="14" font-weight="bold" lengthAdjust="spacing" textLength="74" x="478.5" y="362.0234">row_count</text><text fill="#000000" font-family="sans-serif" font-size="14" lengthAdjust="spacing" textLength="9" x="582.5" y="362.0234">1</text><line style="stroke:#000000;stroke-width:1.0;" x1="577.5" x2="577.5" y1="346.4883" y2="366.9766"/><line style="stroke:#000000;stroke-width:1.0;" x1="473.5" x2="618.5" y1="366.9766" y2="366.9766"/><text fill="#000000" font-family="sans-serif" font-size="14" font-weight="bold" lengthAdjust="spacing" textLength="94" x="478.5" y="382.5117">ratio_percent</text><text fill="#000000" font-family="sans-serif" font-size="14" lengthAdjust="spacing" textLength="31" x="582.5" y="382.5117">12.5</text><line style="stroke:#000000;stroke-width:1.0;" x1="577.5" x2="577.5" y1="366.9766" y2="387.4648"/><rect fill="none" height="61.4648" rx="5" ry="5" style="stroke:#000000;stroke-width:1.5;" width="145" x="473.5" y="326"/><rect fill="#F1F1F1" height="61.4648" rx="5" ry="5" style="stroke:#F1F1F1;stroke-width:1.5;" width="145" x="473.5" y="405"/><text fill="#000000" font-family="sans-serif" font-size="14" font-weight="bold" lengthAdjust="spacing" textLength="78" x="478.5" y="420.5352">field_value</text><text fill="#000000" font-family="sans-serif" font-size="14" lengthAdjust="spacing" textLength="17" x="582.5" y="420.5352">en</text><line style="stroke:#000000;stroke-width:1.0;" x1="577.5" x2="577.5" y1="405" y2="425.4883"/><line style="stroke:#000000;stroke-width:1.0;" x1="473.5" x2="618.5" y1="425.4883" y2="425.4883"/><text fill="#000000" font-family="sans-serif" font-size="14" font-weight="bold" lengthAdjust="spacing" textLength="74" x="478.5" y="441.0234">row_count</text><text fill="#000000" font-family="sans-serif" font-size="14" lengthAdjust="spacing" textLength="9" x="582.5" y="441.0234">1</text><line style="stroke:#000000;stroke-width:1.0;" x1="577.5" x2="577.5" y1="425.4883" y2="445.9766"/><line style="stroke:#000000;stroke-width:1.0;" x1="473.5" x2="618.5" y1="445.9766" y2="445.9766"/><text fill="#000000" font-family="sans-serif" font-size="14" font-weight="bold" lengthAdjust="spacing" textLength="94" x="478.5" y="461.5117">ratio_percent</text><text fill="#000000" font-family="sans-serif" font-size="14" lengthAdjust="spacing" textLength="31" x="582.5" y="461.5117">12.5</text><line style="stroke:#000000;stroke-width:1.0;" x1="577.5" x2="577.5" y1="445.9766" y2="466.4648"/><rect fill="none" height="61.4648" rx="5" ry="5" style="stroke:#000000;stroke-width:1.5;" width="145" x="473.5" y="405"/><rect fill="#F1F1F1" height="61.4648" rx="5" ry="5" style="stroke:#F1F1F1;stroke-width:1.5;" width="145" x="473.5" y="484"/><text fill="#000000" font-family="sans-serif" font-size="14" font-weight="bold" lengthAdjust="spacing" textLength="78" x="478.5" y="499.5352">field_value</text><text fill="#000000" font-family="sans-serif" font-size="14" lengthAdjust="spacing" textLength="14" x="582.5" y="499.5352">ar</text><line style="stroke:#000000;stroke-width:1.0;" x1="577.5" x2="577.5" y1="484" y2="504.4883"/><line style="stroke:#000000;stroke-width:1.0;" x1="473.5" x2="618.5" y1="504.4883" y2="504.4883"/><text fill="#000000" font-family="sans-serif" font-size="14" font-weight="bold" lengthAdjust="spacing" textLength="74" x="478.5" y="520.0234">row_count</text><text fill="#000000" font-family="sans-serif" font-size="14" lengthAdjust="spacing" textLength="9" x="582.5" y="520.0234">1</text><line style="stroke:#000000;stroke-width:1.0;" x1="577.5" x2="577.5" y1="504.4883" y2="524.9766"/><line style="stroke:#000000;stroke-width:1.0;" x1="473.5" x2="618.5" y1="524.9766" y2="524.9766"/><text fill="#000000" font-family="sans-serif" font-size="14" font-weight="bold" lengthAdjust="spacing" textLength="94" x="478.5" y="540.5117">ratio_percent</text><text fill="#000000" font-family="sans-serif" font-size="14" lengthAdjust="spacing" textLength="31" x="582.5" y="540.5117">12.5</text><line style="stroke:#000000;stroke-width:1.0;" x1="577.5" x2="577.5" y1="524.9766" y2="545.4648"/><rect fill="none" height="61.4648" rx="5" ry="5" style="stroke:#000000;stroke-width:1.5;" width="145" x="473.5" y="484"/><rect fill="#F1F1F1" height="61.4648" rx="5" ry="5" style="stroke:#F1F1F1;stroke-width:1.5;" width="164" x="464" y="563"/><text fill="#000000" font-family="sans-serif" font-size="14" font-weight="bold" lengthAdjust="spacing" textLength="78" x="469" y="578.5352">field_value</text><text fill="#000000" font-family="sans-serif" font-size="14" font-weight="bold" lengthAdjust="spacing" textLength="50" x="573" y="578.5352">EMPTY</text><line style="stroke:#000000;stroke-width:1.0;" x1="568" x2="568" y1="563" y2="583.4883"/><line style="stroke:#000000;stroke-width:1.0;" x1="464" x2="628" y1="583.4883" y2="583.4883"/><text fill="#000000" font-family="sans-serif" font-size="14" font-weight="bold" lengthAdjust="spacing" textLength="74" x="469" y="599.0234">row_count</text><text fill="#000000" font-family="sans-serif" font-size="14" lengthAdjust="spacing" textLength="9" x="573" y="599.0234">1</text><line style="stroke:#000000;stroke-width:1.0;" x1="568" x2="568" y1="583.4883" y2="603.9766"/><line style="stroke:#000000;stroke-width:1.0;" x1="464" x2="628" y1="603.9766" y2="603.9766"/><text fill="#000000" font-family="sans-serif" font-size="14" font-weight="bold" lengthAdjust="spacing" textLength="94" x="469" y="619.5117">ratio_percent</text><text fill="#000000" font-family="sans-serif" font-size="14" lengthAdjust="spacing" textLength="31" x="573" y="619.5117">12.5</text><line style="stroke:#000000;stroke-width:1.0;" x1="568" x2="568" y1="603.9766" y2="624.4648"/><rect fill="none" height="61.4648" rx="5" ry="5" style="stroke:#000000;stroke-width:1.5;" width="164" x="464" y="563"/><path d="M207,246.5 L220,246.5 C238.3033,246.5 239.3114,234.0167 256,226.5 C261.0029,224.2466 266.2299,222.0478 271.5257,219.9307 " fill="none" style="stroke:#000000;stroke-width:1.0;stroke-dasharray:3.0,3.0;"/><path d="M272.6592,222.8306 L273.7006,219.0806 L270.3923,217.0308 L278.7754,217.0971 L272.6592,222.8306 " fill="#000000" style="stroke:#000000;stroke-width:1.0;"/><ellipse cx="207" cy="246.5" fill="#000000" rx="3" ry="3" style="stroke:#000000;stroke-width:1.0;"/><path d="M342,245.5 L355,245.5 C388.6401,245.5 404.52,249.5903 428,225.5 C474.6475,177.64 421.8147,131.336 464,79.5 C464.8509,78.4545 465.7365,77.4352 466.6535,76.4416 " fill="none" style="stroke:#000000;stroke-width:1.0;stroke-dasharray:3.0,3.0;"/><path d="M468.8192,78.6707 L468.3253,74.8173 L464.4878,74.2125 L472.2262,71.0274 L468.8192,78.6707 " fill="#000000" style="stroke:#000000;stroke-width:1.0;"/><ellipse cx="342" cy="245.5" fill="#000000" rx="3" ry="3" style="stroke:#000000;stroke-width:1.0;"/><path d="M342,265.5 L355,265.5 C391.9958,265.5 401.9476,251.7672 428,225.5 C451.8047,201.4989 439.545,181.8381 464,158.5 C465.2447,157.3121 466.5324,156.1545 467.857,155.0266 " fill="none" style="stroke:#000000;stroke-width:1.0;stroke-dasharray:3.0,3.0;"/><path d="M469.7593,157.4372 L469.665,153.5999 L465.9547,152.616 L473.8835,150.2709 L469.7593,157.4372 " fill="#000000" style="stroke:#000000;stroke-width:1.0;"/><ellipse cx="342" cy="265.5" fill="#000000" rx="3" ry="3" style="stroke:#000000;stroke-width:1.0;"/><path d="M342,286.5 L355,286.5 C358.3667,286.5 421.3956,257.143 474.0437,232.3412 " fill="none" style="stroke:#000000;stroke-width:1.0;stroke-dasharray:3.0,3.0;"/><path d="M475.3678,235.1501 L476.1504,231.3482 L472.7197,229.5323 L481.066,229.0312 L475.3678,235.1501 " fill="#000000" style="stroke:#000000;stroke-width:1.0;"/><ellipse cx="342" cy="286.5" fill="#000000" rx="3" ry="3" style="stroke:#000000;stroke-width:1.0;"/><path d="M342,306.5 L355,306.5 C391.8555,306.5 432.2697,301.1293 466.3542,295.0104 " fill="none" style="stroke:#000000;stroke-width:1.0;stroke-dasharray:3.0,3.0;"/><path d="M466.9139,298.0587 L468.6404,294.5907 L465.7946,291.9622 L473.9748,293.6113 L466.9139,298.0587 " fill="#000000" style="stroke:#000000;stroke-width:1.0;"/><ellipse cx="342" cy="306.5" fill="#000000" rx="3" ry="3" style="stroke:#000000;stroke-width:1.0;"/><path d="M342,327.5 L355,327.5 C391.8555,327.5 432.2697,332.8707 466.3542,338.9896 " fill="none" style="stroke:#000000;stroke-width:1.0;stroke-dasharray:3.0,3.0;"/><path d="M465.7946,342.0378 L468.6404,339.4093 L466.9139,335.9413 L473.9748,340.3887 L465.7946,342.0378 " fill="#000000" style="stroke:#000000;stroke-width:1.0;"/><ellipse cx="342" cy="327.5" fill="#000000" rx="3" ry="3" style="stroke:#000000;stroke-width:1.0;"/><path d="M342,348.5 L355,348.5 C358.3437,348.5 420.7794,377.2423 473.2727,401.686 " fill="none" style="stroke:#000000;stroke-width:1.0;stroke-dasharray:3.0,3.0;"/><path d="M471.9673,404.4876 L475.3739,402.665 L474.578,398.8843 L480.2768,404.9494 L471.9673,404.4876 " fill="#000000" style="stroke:#000000;stroke-width:1.0;"/><ellipse cx="342" cy="348.5" fill="#000000" rx="3" ry="3" style="stroke:#000000;stroke-width:1.0;"/><path d="M342,368.5 L355,368.5 C422.8852,368.5 408.406,436.5423 464,475.5 C466.0553,476.9403 468.1721,478.3529 470.3346,479.7356 " fill="none" style="stroke:#000000;stroke-width:1.0;stroke-dasharray:3.0,3.0;"/><path d="M468.712,482.3792 L472.3173,480.9525 L471.9572,477.092 L476.9436,483.7921 L468.712,482.3792 " fill="#000000" style="stroke:#000000;stroke-width:1.0;"/><ellipse cx="342" cy="368.5" fill="#000000" rx="3" ry="3" style="stroke:#000000;stroke-width:1.0;"/><path d="M342,389.5 L355,389.5 C442.8899,389.5 397.7308,496.7676 464,554.5 C465.5006,555.8073 467.0526,557.0808 468.6473,558.3206 " fill="none" style="stroke:#000000;stroke-width:1.0;stroke-dasharray:3.0,3.0;"/><path d="M466.801,560.8581 L470.5504,559.7053 L470.4935,555.7831 L474.9911,562.9363 L466.801,560.8581 " fill="#000000" style="stroke:#000000;stroke-width:1.0;"/><ellipse cx="342" cy="389.5" fill="#000000" rx="3" ry="3" style="stroke:#000000;stroke-width:1.0;"/><path d="M207,267.5 L220,267.5 C259.3439,267.5 300.8014,290.3588 323.5273,305.1645 " fill="none" style="stroke:#000000;stroke-width:1.0;stroke-dasharray:3.0,3.0;"/><path d="M321.8065,307.7359 L325.4558,306.4551 L325.2482,302.5931 L329.9557,309.4666 L321.8065,307.7359 " fill="#000000" style="stroke:#000000;stroke-width:1.0;"/><ellipse cx="207" cy="267.5" fill="#000000" rx="3" ry="3" style="stroke:#000000;stroke-width:1.0;"/><!--MD5=[b35867421a42cce952605c1760fd6295]
@startjson
{
    "field1": "CultureID",
    "combination": "CultureID",
    "null_distribution": {
        "total_null_rows": 0,
        "total_not_null_rows": 8
    },
    "data_distribution": [
        {
            "field_value": "zh-cht",
            "row_count": 1,
            "ratio_percent": 12.5
        },
        {
            "field_value": "th",
            "row_count": 1,
            "ratio_percent": 12.5
        },
        {
            "field_value": "he",
            "row_count": 1,
            "ratio_percent": 12.5
        },
        {
            "field_value": "fr",
            "row_count": 1,
            "ratio_percent": 12.5
        },
        {
            "field_value": "es",
            "row_count": 1,
            "ratio_percent": 12.5
        },
        {
            "field_value": "en",
            "row_count": 1,
            "ratio_percent": 12.5
        },
        {
            "field_value": "ar",
            "row_count": 1,
            "ratio_percent": 12.5
        },
        {
            "field_value": "**EMPTY**",
            "row_count": 1,
            "ratio_percent": 12.5
        }
    ]
}
@endjson

PlantUML version 1.2022.5(Sat Apr 30 06:55:52 EDT 2022)
(GPL source distribution)
Java Runtime: OpenJDK Runtime Environment
JVM: OpenJDK 64-Bit Server VM
Default Encoding: UTF-8
Language: en
Country: CA
--></g></svg>