<?xml version="1.0" encoding="UTF-8" standalone="no"?><svg xmlns="http://www.w3.org/2000/svg" xmlns:xlink="http://www.w3.org/1999/xlink" contentStyleType="text/css" height="794px" preserveAspectRatio="none" style="width:785px;height:794px;background:#FFFFFF;" version="1.1" viewBox="0 0 785 794" width="785px" zoomAndPan="magnify"><defs/><g><rect fill="#F1F1F1" height="81.9531" rx="5" ry="5" style="stroke:#F1F1F1;stroke-width:1.5;" width="211" x="10" y="264.5"/><text fill="#000000" font-family="sans-serif" font-size="14" font-weight="bold" lengthAdjust="spacing" textLength="42" x="15" y="280.0352">field1</text><text fill="#000000" font-family="sans-serif" font-size="14" lengthAdjust="spacing" textLength="67" x="149" y="280.0352">ProductID</text><line style="stroke:#000000;stroke-width:1.0;" x1="144" x2="144" y1="264.5" y2="284.9883"/><line style="stroke:#000000;stroke-width:1.0;" x1="10" x2="221" y1="284.9883" y2="284.9883"/><text fill="#000000" font-family="sans-serif" font-size="14" font-weight="bold" lengthAdjust="spacing" textLength="90" x="15" y="300.5234">combination</text><text fill="#000000" font-family="sans-serif" font-size="14" lengthAdjust="spacing" textLength="67" x="149" y="300.5234">ProductID</text><line style="stroke:#000000;stroke-width:1.0;" x1="144" x2="144" y1="284.9883" y2="305.4766"/><line style="stroke:#000000;stroke-width:1.0;" x1="10" x2="221" y1="305.4766" y2="305.4766"/><text fill="#000000" font-family="sans-serif" font-size="14" font-weight="bold" lengthAdjust="spacing" textLength="121" x="15" y="321.0117">null_distribution</text><text fill="#000000" font-family="sans-serif" font-size="14" lengthAdjust="spacing" textLength="12" x="149" y="321.0117">   </text><line style="stroke:#000000;stroke-width:1.0;" x1="144" x2="144" y1="305.4766" y2="325.9648"/><line style="stroke:#000000;stroke-width:1.0;" x1="10" x2="221" y1="325.9648" y2="325.9648"/><text fill="#000000" font-family="sans-serif" font-size="14" font-weight="bold" lengthAdjust="spacing" textLength="124" x="15" y="341.5">data_distribution</text><text fill="#000000" font-family="sans-serif" font-size="14" lengthAdjust="spacing" textLength="12" x="149" y="341.5">   </text><line style="stroke:#000000;stroke-width:1.0;" x1="144" x2="144" y1="325.9648" y2="346.4531"/><rect fill="none" height="81.9531" rx="5" ry="5" style="stroke:#000000;stroke-width:1.5;" width="211" x="10" y="264.5"/><rect fill="#F1F1F1" height="40.9766" rx="5" ry="5" style="stroke:#F1F1F1;stroke-width:1.5;" width="207" x="258" y="235"/><text fill="#000000" font-family="sans-serif" font-size="14" font-weight="bold" lengthAdjust="spacing" textLength="111" x="263" y="250.5352">total_null_rows</text><text fill="#000000" font-family="sans-serif" font-size="14" lengthAdjust="spacing" textLength="9" x="415" y="250.5352">0</text><line style="stroke:#000000;stroke-width:1.0;" x1="410" x2="410" y1="235" y2="255.4883"/><line style="stroke:#000000;stroke-width:1.0;" x1="258" x2="465" y1="255.4883" y2="255.4883"/><text fill="#000000" font-family="sans-serif" font-size="14" font-weight="bold" lengthAdjust="spacing" textLength="142" x="263" y="271.0234">total_not_null_rows</text><text fill="#000000" font-family="sans-serif" font-size="14" lengthAdjust="spacing" textLength="45" x="415" y="271.0234">67131</text><line style="stroke:#000000;stroke-width:1.0;" x1="410" x2="410" y1="255.4883" y2="275.9766"/><rect fill="none" height="40.9766" rx="5" ry="5" style="stroke:#000000;stroke-width:1.5;" width="207" x="258" y="235"/><rect fill="#F1F1F1" height="204.8828" rx="5" ry="5" style="stroke:#F1F1F1;stroke-width:1.5;" width="22" x="349.5" y="294"/><text fill="#000000" font-family="sans-serif" font-size="14" lengthAdjust="spacing" textLength="12" x="354.5" y="309.5352">   </text><line style="stroke:#000000;stroke-width:1.0;" x1="349.5" x2="371.5" y1="314.4883" y2="314.4883"/><text fill="#000000" font-family="sans-serif" font-size="14" lengthAdjust="spacing" textLength="12" x="354.5" y="330.0234">   </text><line style="stroke:#000000;stroke-width:1.0;" x1="349.5" x2="371.5" y1="334.9766" y2="334.9766"/><text fill="#000000" font-family="sans-serif" font-size="14" lengthAdjust="spacing" textLength="12" x="354.5" y="350.5117">   </text><line style="stroke:#000000;stroke-width:1.0;" x1="349.5" x2="371.5" y1="355.4648" y2="355.4648"/><text fill="#000000" font-family="sans-serif" font-size="14" lengthAdjust="spacing" textLength="12" x="354.5" y="371">   </text><line style="stroke:#000000;stroke-width:1.0;" x1="349.5" x2="371.5" y1="375.9531" y2="375.9531"/><text fill="#000000" font-family="sans-serif" font-size="14" lengthAdjust="spacing" textLength="12" x="354.5" y="391.4883">   </text><line style="stroke:#000000;stroke-width:1.0;" x1="349.5" x2="371.5" y1="396.4414" y2="396.4414"/><text fill="#000000" font-family="sans-serif" font-size="14" lengthAdjust="spacing" textLength="12" x="354.5" y="411.9766">   </text><line style="stroke:#000000;stroke-width:1.0;" x1="349.5" x2="371.5" y1="416.9297" y2="416.9297"/><text fill="#000000" font-family="sans-serif" font-size="14" lengthAdjust="spacing" textLength="12" x="354.5" y="432.4648">   </text><line style="stroke:#000000;stroke-width:1.0;" x1="349.5" x2="371.5" y1="437.418" y2="437.418"/><text fill="#000000" font-family="sans-serif" font-size="14" lengthAdjust="spacing" textLength="12" x="354.5" y="452.9531">   </text><line style="stroke:#000000;stroke-width:1.0;" x1="349.5" x2="371.5" y1="457.9063" y2="457.9063"/><text fill="#000000" font-family="sans-serif" font-size="14" lengthAdjust="spacing" textLength="12" x="354.5" y="473.4414">   </text><line style="stroke:#000000;stroke-width:1.0;" x1="349.5" x2="371.5" y1="478.3945" y2="478.3945"/><text fill="#000000" font-family="sans-serif" font-size="14" lengthAdjust="spacing" textLength="12" x="354.5" y="493.9297">   </text><rect fill="none" height="204.8828" rx="5" ry="5" style="stroke:#000000;stroke-width:1.5;" width="22" x="349.5" y="294"/><rect fill="#F1F1F1" height="61.4648" rx="5" ry="5" style="stroke:#F1F1F1;stroke-width:1.5;" width="262" x="506.5" y="10"/><text fill="#000000" font-family="sans-serif" font-size="14" font-weight="bold" lengthAdjust="spacing" textLength="78" x="511.5" y="25.5352">field_value</text><text fill="#000000" font-family="sans-serif" font-size="14" lengthAdjust="spacing" textLength="27" x="615.5" y="25.5352">813</text><line style="stroke:#000000;stroke-width:1.0;" x1="610.5" x2="610.5" y1="10" y2="30.4883"/><line style="stroke:#000000;stroke-width:1.0;" x1="506.5" x2="768.5" y1="30.4883" y2="30.4883"/><text fill="#000000" font-family="sans-serif" font-size="14" font-weight="bold" lengthAdjust="spacing" textLength="74" x="511.5" y="46.0234">row_count</text><text fill="#000000" font-family="sans-serif" font-size="14" lengthAdjust="spacing" textLength="36" x="615.5" y="46.0234">3093</text><line style="stroke:#000000;stroke-width:1.0;" x1="610.5" x2="610.5" y1="30.4883" y2="50.9766"/><line style="stroke:#000000;stroke-width:1.0;" x1="506.5" x2="768.5" y1="50.9766" y2="50.9766"/><text fill="#000000" font-family="sans-serif" font-size="14" font-weight="bold" lengthAdjust="spacing" textLength="94" x="511.5" y="66.5117">ratio_percent</text><text fill="#000000" font-family="sans-serif" font-size="14" lengthAdjust="spacing" textLength="148" x="615.5" y="66.5117">4.607409393573759</text><line style="stroke:#000000;stroke-width:1.0;" x1="610.5" x2="610.5" y1="50.9766" y2="71.4648"/><rect fill="none" height="61.4648" rx="5" ry="5" style="stroke:#000000;stroke-width:1.5;" width="262" x="506.5" y="10"/><rect fill="#F1F1F1" height="61.4648" rx="5" ry="5" style="stroke:#F1F1F1;stroke-width:1.5;" width="262" x="506.5" y="89"/><text fill="#000000" font-family="sans-serif" font-size="14" font-weight="bold" lengthAdjust="spacing" textLength="78" x="511.5" y="104.5352">field_value</text><text fill="#000000" font-family="sans-serif" font-size="14" lengthAdjust="spacing" textLength="27" x="615.5" y="104.5352">748</text><line style="stroke:#000000;stroke-width:1.0;" x1="610.5" x2="610.5" y1="89" y2="109.4883"/><line style="stroke:#000000;stroke-width:1.0;" x1="506.5" x2="768.5" y1="109.4883" y2="109.4883"/><text fill="#000000" font-family="sans-serif" font-size="14" font-weight="bold" lengthAdjust="spacing" textLength="74" x="511.5" y="125.0234">row_count</text><text fill="#000000" font-family="sans-serif" font-size="14" lengthAdjust="spacing" textLength="36" x="615.5" y="125.0234">2874</text><line style="stroke:#000000;stroke-width:1.0;" x1="610.5" x2="610.5" y1="109.4883" y2="129.9766"/><line style="stroke:#000000;stroke-width:1.0;" x1="506.5" x2="768.5" y1="129.9766" y2="129.9766"/><text fill="#000000" font-family="sans-serif" font-size="14" font-weight="bold" lengthAdjust="spacing" textLength="94" x="511.5" y="145.5117">ratio_percent</text><text fill="#000000" font-family="sans-serif" font-size="14" lengthAdjust="spacing" textLength="148" x="615.5" y="145.5117">4.281181570362426</text><line style="stroke:#000000;stroke-width:1.0;" x1="610.5" x2="610.5" y1="129.9766" y2="150.4648"/><rect fill="none" height="61.4648" rx="5" ry="5" style="stroke:#000000;stroke-width:1.5;" width="262" x="506.5" y="89"/><rect fill="#F1F1F1" height="61.4648" rx="5" ry="5" style="stroke:#F1F1F1;stroke-width:1.5;" width="271" x="502" y="168"/><text fill="#000000" font-family="sans-serif" font-size="14" font-weight="bold" lengthAdjust="spacing" textLength="78" x="507" y="183.5352">field_value</text><text fill="#000000" font-family="sans-serif" font-size="14" lengthAdjust="spacing" textLength="27" x="611" y="183.5352">810</text><line style="stroke:#000000;stroke-width:1.0;" x1="606" x2="606" y1="168" y2="188.4883"/><line style="stroke:#000000;stroke-width:1.0;" x1="502" x2="773" y1="188.4883" y2="188.4883"/><text fill="#000000" font-family="sans-serif" font-size="14" font-weight="bold" lengthAdjust="spacing" textLength="74" x="507" y="204.0234">row_count</text><text fill="#000000" font-family="sans-serif" font-size="14" lengthAdjust="spacing" textLength="36" x="611" y="204.0234">2832</text><line style="stroke:#000000;stroke-width:1.0;" x1="606" x2="606" y1="188.4883" y2="208.9766"/><line style="stroke:#000000;stroke-width:1.0;" x1="502" x2="773" y1="208.9766" y2="208.9766"/><text fill="#000000" font-family="sans-serif" font-size="14" font-weight="bold" lengthAdjust="spacing" textLength="94" x="507" y="224.5117">ratio_percent</text><text fill="#000000" font-family="sans-serif" font-size="14" lengthAdjust="spacing" textLength="157" x="611" y="224.5117">4.2186173302944985</text><line style="stroke:#000000;stroke-width:1.0;" x1="606" x2="606" y1="208.9766" y2="229.4648"/><rect fill="none" height="61.4648" rx="5" ry="5" style="stroke:#000000;stroke-width:1.5;" width="271" x="502" y="168"/><rect fill="#F1F1F1" height="61.4648" rx="5" ry="5" style="stroke:#F1F1F1;stroke-width:1.5;" width="262" x="506.5" y="247"/><text fill="#000000" font-family="sans-serif" font-size="14" font-weight="bold" lengthAdjust="spacing" textLength="78" x="511.5" y="262.5352">field_value</text><text fill="#000000" font-family="sans-serif" font-size="14" lengthAdjust="spacing" textLength="27" x="615.5" y="262.5352">747</text><line style="stroke:#000000;stroke-width:1.0;" x1="610.5" x2="610.5" y1="247" y2="267.4883"/><line style="stroke:#000000;stroke-width:1.0;" x1="506.5" x2="768.5" y1="267.4883" y2="267.4883"/><text fill="#000000" font-family="sans-serif" font-size="14" font-weight="bold" lengthAdjust="spacing" textLength="74" x="511.5" y="283.0234">row_count</text><text fill="#000000" font-family="sans-serif" font-size="14" lengthAdjust="spacing" textLength="36" x="615.5" y="283.0234">2802</text><line style="stroke:#000000;stroke-width:1.0;" x1="610.5" x2="610.5" y1="267.4883" y2="287.9766"/><line style="stroke:#000000;stroke-width:1.0;" x1="506.5" x2="768.5" y1="287.9766" y2="287.9766"/><text fill="#000000" font-family="sans-serif" font-size="14" font-weight="bold" lengthAdjust="spacing" textLength="94" x="511.5" y="303.5117">ratio_percent</text><text fill="#000000" font-family="sans-serif" font-size="14" lengthAdjust="spacing" textLength="148" x="615.5" y="303.5117">4.173928587388836</text><line style="stroke:#000000;stroke-width:1.0;" x1="610.5" x2="610.5" y1="287.9766" y2="308.4648"/><rect fill="none" height="61.4648" rx="5" ry="5" style="stroke:#000000;stroke-width:1.5;" width="262" x="506.5" y="247"/><rect fill="#F1F1F1" height="61.4648" rx="5" ry="5" style="stroke:#F1F1F1;stroke-width:1.5;" width="271" x="502" y="326"/><text fill="#000000" font-family="sans-serif" font-size="14" font-weight="bold" lengthAdjust="spacing" textLength="78" x="507" y="341.5352">field_value</text><text fill="#000000" font-family="sans-serif" font-size="14" lengthAdjust="spacing" textLength="27" x="611" y="341.5352">811</text><line style="stroke:#000000;stroke-width:1.0;" x1="606" x2="606" y1="326" y2="346.4883"/><line style="stroke:#000000;stroke-width:1.0;" x1="502" x2="773" y1="346.4883" y2="346.4883"/><text fill="#000000" font-family="sans-serif" font-size="14" font-weight="bold" lengthAdjust="spacing" textLength="74" x="507" y="362.0234">row_count</text><text fill="#000000" font-family="sans-serif" font-size="14" lengthAdjust="spacing" textLength="36" x="611" y="362.0234">2463</text><line style="stroke:#000000;stroke-width:1.0;" x1="606" x2="606" y1="346.4883" y2="366.9766"/><line style="stroke:#000000;stroke-width:1.0;" x1="502" x2="773" y1="366.9766" y2="366.9766"/><text fill="#000000" font-family="sans-serif" font-size="14" font-weight="bold" lengthAdjust="spacing" textLength="94" x="507" y="382.5117">ratio_percent</text><text fill="#000000" font-family="sans-serif" font-size="14" lengthAdjust="spacing" textLength="157" x="611" y="382.5117">3.6689457925548554</text><line style="stroke:#000000;stroke-width:1.0;" x1="606" x2="606" y1="366.9766" y2="387.4648"/><rect fill="none" height="61.4648" rx="5" ry="5" style="stroke:#000000;stroke-width:1.5;" width="271" x="502" y="326"/><rect fill="#F1F1F1" height="61.4648" rx="5" ry="5" style="stroke:#F1F1F1;stroke-width:1.5;" width="262" x="506.5" y="405"/><text fill="#000000" font-family="sans-serif" font-size="14" font-weight="bold" lengthAdjust="spacing" textLength="78" x="511.5" y="420.5352">field_value</text><text fill="#000000" font-family="sans-serif" font-size="14" lengthAdjust="spacing" textLength="27" x="615.5" y="420.5352">945</text><line style="stroke:#000000;stroke-width:1.0;" x1="610.5" x2="610.5" y1="405" y2="425.4883"/><line style="stroke:#000000;stroke-width:1.0;" x1="506.5" x2="768.5" y1="425.4883" y2="425.4883"/><text fill="#000000" font-family="sans-serif" font-size="14" font-weight="bold" lengthAdjust="spacing" textLength="74" x="511.5" y="441.0234">row_count</text><text fill="#000000" font-family="sans-serif" font-size="14" lengthAdjust="spacing" textLength="36" x="615.5" y="441.0234">2210</text><line style="stroke:#000000;stroke-width:1.0;" x1="610.5" x2="610.5" y1="425.4883" y2="445.9766"/><line style="stroke:#000000;stroke-width:1.0;" x1="506.5" x2="768.5" y1="445.9766" y2="445.9766"/><text fill="#000000" font-family="sans-serif" font-size="14" font-weight="bold" lengthAdjust="spacing" textLength="94" x="511.5" y="461.5117">ratio_percent</text><text fill="#000000" font-family="sans-serif" font-size="14" lengthAdjust="spacing" textLength="148" x="615.5" y="461.5117">3.292070727383772</text><line style="stroke:#000000;stroke-width:1.0;" x1="610.5" x2="610.5" y1="445.9766" y2="466.4648"/><rect fill="none" height="61.4648" rx="5" ry="5" style="stroke:#000000;stroke-width:1.5;" width="262" x="506.5" y="405"/><rect fill="#F1F1F1" height="61.4648" rx="5" ry="5" style="stroke:#F1F1F1;stroke-width:1.5;" width="262" x="506.5" y="484"/><text fill="#000000" font-family="sans-serif" font-size="14" font-weight="bold" lengthAdjust="spacing" textLength="78" x="511.5" y="499.5352">field_value</text><text fill="#000000" font-family="sans-serif" font-size="14" lengthAdjust="spacing" textLength="27" x="615.5" y="499.5352">804</text><line style="stroke:#000000;stroke-width:1.0;" x1="610.5" x2="610.5" y1="484" y2="504.4883"/><line style="stroke:#000000;stroke-width:1.0;" x1="506.5" x2="768.5" y1="504.4883" y2="504.4883"/><text fill="#000000" font-family="sans-serif" font-size="14" font-weight="bold" lengthAdjust="spacing" textLength="74" x="511.5" y="520.0234">row_count</text><text fill="#000000" font-family="sans-serif" font-size="14" lengthAdjust="spacing" textLength="36" x="615.5" y="520.0234">2208</text><line style="stroke:#000000;stroke-width:1.0;" x1="610.5" x2="610.5" y1="504.4883" y2="524.9766"/><line style="stroke:#000000;stroke-width:1.0;" x1="506.5" x2="768.5" y1="524.9766" y2="524.9766"/><text fill="#000000" font-family="sans-serif" font-size="14" font-weight="bold" lengthAdjust="spacing" textLength="94" x="511.5" y="540.5117">ratio_percent</text><text fill="#000000" font-family="sans-serif" font-size="14" lengthAdjust="spacing" textLength="148" x="615.5" y="540.5117">3.289091477856728</text><line style="stroke:#000000;stroke-width:1.0;" x1="610.5" x2="610.5" y1="524.9766" y2="545.4648"/><rect fill="none" height="61.4648" rx="5" ry="5" style="stroke:#000000;stroke-width:1.5;" width="262" x="506.5" y="484"/><rect fill="#F1F1F1" height="61.4648" rx="5" ry="5" style="stroke:#F1F1F1;stroke-width:1.5;" width="271" x="502" y="563"/><text fill="#000000" font-family="sans-serif" font-size="14" font-weight="bold" lengthAdjust="spacing" textLength="78" x="507" y="578.5352">field_value</text><text fill="#000000" font-family="sans-serif" font-size="14" lengthAdjust="spacing" textLength="27" x="611" y="578.5352">519</text><line style="stroke:#000000;stroke-width:1.0;" x1="606" x2="606" y1="563" y2="583.4883"/><line style="stroke:#000000;stroke-width:1.0;" x1="502" x2="773" y1="583.4883" y2="583.4883"/><text fill="#000000" font-family="sans-serif" font-size="14" font-weight="bold" lengthAdjust="spacing" textLength="74" x="507" y="599.0234">row_count</text><text fill="#000000" font-family="sans-serif" font-size="14" lengthAdjust="spacing" textLength="36" x="611" y="599.0234">2026</text><line style="stroke:#000000;stroke-width:1.0;" x1="606" x2="606" y1="583.4883" y2="603.9766"/><line style="stroke:#000000;stroke-width:1.0;" x1="502" x2="773" y1="603.9766" y2="603.9766"/><text fill="#000000" font-family="sans-serif" font-size="14" font-weight="bold" lengthAdjust="spacing" textLength="94" x="507" y="619.5117">ratio_percent</text><text fill="#000000" font-family="sans-serif" font-size="14" lengthAdjust="spacing" textLength="157" x="611" y="619.5117">3.0179797708957112</text><line style="stroke:#000000;stroke-width:1.0;" x1="606" x2="606" y1="603.9766" y2="624.4648"/><rect fill="none" height="61.4648" rx="5" ry="5" style="stroke:#000000;stroke-width:1.5;" width="271" x="502" y="563"/><rect fill="#F1F1F1" height="61.4648" rx="5" ry="5" style="stroke:#F1F1F1;stroke-width:1.5;" width="271" x="502" y="642"/><text fill="#000000" font-family="sans-serif" font-size="14" font-weight="bold" lengthAdjust="spacing" textLength="78" x="507" y="657.5352">field_value</text><text fill="#000000" font-family="sans-serif" font-size="14" lengthAdjust="spacing" textLength="27" x="611" y="657.5352">516</text><line style="stroke:#000000;stroke-width:1.0;" x1="606" x2="606" y1="642" y2="662.4883"/><line style="stroke:#000000;stroke-width:1.0;" x1="502" x2="773" y1="662.4883" y2="662.4883"/><text fill="#000000" font-family="sans-serif" font-size="14" font-weight="bold" lengthAdjust="spacing" textLength="74" x="507" y="678.0234">row_count</text><text fill="#000000" font-family="sans-serif" font-size="14" lengthAdjust="spacing" textLength="36" x="611" y="678.0234">1852</text><line style="stroke:#000000;stroke-width:1.0;" x1="606" x2="606" y1="662.4883" y2="682.9766"/><line style="stroke:#000000;stroke-width:1.0;" x1="502" x2="773" y1="682.9766" y2="682.9766"/><text fill="#000000" font-family="sans-serif" font-size="14" font-weight="bold" lengthAdjust="spacing" textLength="94" x="507" y="698.5117">ratio_percent</text><text fill="#000000" font-family="sans-serif" font-size="14" lengthAdjust="spacing" textLength="157" x="611" y="698.5117">2.7587850620428713</text><line style="stroke:#000000;stroke-width:1.0;" x1="606" x2="606" y1="682.9766" y2="703.4648"/><rect fill="none" height="61.4648" rx="5" ry="5" style="stroke:#000000;stroke-width:1.5;" width="271" x="502" y="642"/><rect fill="#F1F1F1" height="61.4648" rx="5" ry="5" style="stroke:#F1F1F1;stroke-width:1.5;" width="271" x="502" y="721"/><text fill="#000000" font-family="sans-serif" font-size="14" font-weight="bold" lengthAdjust="spacing" textLength="78" x="507" y="736.5352">field_value</text><text fill="#000000" font-family="sans-serif" font-size="14" lengthAdjust="spacing" textLength="27" x="611" y="736.5352">812</text><line style="stroke:#000000;stroke-width:1.0;" x1="606" x2="606" y1="721" y2="741.4883"/><line style="stroke:#000000;stroke-width:1.0;" x1="502" x2="773" y1="741.4883" y2="741.4883"/><text fill="#000000" font-family="sans-serif" font-size="14" font-weight="bold" lengthAdjust="spacing" textLength="74" x="507" y="757.0234">row_count</text><text fill="#000000" font-family="sans-serif" font-size="14" lengthAdjust="spacing" textLength="36" x="611" y="757.0234">1806</text><line style="stroke:#000000;stroke-width:1.0;" x1="606" x2="606" y1="741.4883" y2="761.9766"/><line style="stroke:#000000;stroke-width:1.0;" x1="502" x2="773" y1="761.9766" y2="761.9766"/><text fill="#000000" font-family="sans-serif" font-size="14" font-weight="bold" lengthAdjust="spacing" textLength="94" x="507" y="777.5117">ratio_percent</text><text fill="#000000" font-family="sans-serif" font-size="14" lengthAdjust="spacing" textLength="157" x="611" y="777.5117">2.6902623229208564</text><line style="stroke:#000000;stroke-width:1.0;" x1="606" x2="606" y1="761.9766" y2="782.4648"/><rect fill="none" height="61.4648" rx="5" ry="5" style="stroke:#000000;stroke-width:1.5;" width="271" x="502" y="721"/><path d="M209,315.5 L222,315.5 C242.8273,315.5 239.6143,295.285 258,285.5 C262.4187,283.1484 267.0447,280.9598 271.7859,278.9261 " fill="none" style="stroke:#000000;stroke-width:1.0;stroke-dasharray:3.0,3.0;"/><path d="M272.9339,281.7334 L273.8914,278.0652 L270.638,276.1189 L278.804,276.0563 L272.9339,281.7334 " fill="#000000" style="stroke:#000000;stroke-width:1.0;"/><ellipse cx="209" cy="315.5" fill="#000000" rx="3" ry="3" style="stroke:#000000;stroke-width:1.0;"/><path d="M362,303.5 L375,303.5 C416.2281,303.5 437.1738,314.9755 466,285.5 C530.9848,219.0516 439.93,148.679 502,79.5 C503.0081,78.3765 504.0463,77.2844 505.1126,76.2231 " fill="none" style="stroke:#000000;stroke-width:1.0;stroke-dasharray:3.0,3.0;"/><path d="M507.1347,78.4455 L506.7795,74.7065 L503.0905,74.0006 L510.6688,71.1678 L507.1347,78.4455 " fill="#000000" style="stroke:#000000;stroke-width:1.0;"/><ellipse cx="362" cy="303.5" fill="#000000" rx="3" ry="3" style="stroke:#000000;stroke-width:1.0;"/><path d="M362,324.5 L375,324.5 C419.0022,324.5 436.9505,318.5503 466,285.5 C504.7318,241.4339 460.6193,200.0887 502,158.5 C503.2233,157.2705 504.4828,156.0793 505.7755,154.925 " fill="none" style="stroke:#000000;stroke-width:1.0;stroke-dasharray:3.0,3.0;"/><path d="M507.7064,157.2737 L507.537,153.4769 L503.8447,152.5764 L511.6472,150.0978 L507.7064,157.2737 " fill="#000000" style="stroke:#000000;stroke-width:1.0;"/><ellipse cx="362" cy="324.5" fill="#000000" rx="3" ry="3" style="stroke:#000000;stroke-width:1.0;"/><path d="M362,344.5 L375,344.5 C423.2012,344.5 430.773,318.4001 466,285.5 C485.4889,267.2985 480.0554,252.6508 502,237.5 C504.3464,235.88 506.7599,234.3267 509.2295,232.8373 " fill="none" style="stroke:#000000;stroke-width:1.0;stroke-dasharray:3.0,3.0;"/><path d="M510.7476,235.5016 L511.2277,231.6987 L507.7115,230.173 L515.8903,229.0421 L510.7476,235.5016 " fill="#000000" style="stroke:#000000;stroke-width:1.0;"/><ellipse cx="362" cy="344.5" fill="#000000" rx="3" ry="3" style="stroke:#000000;stroke-width:1.0;"/><path d="M362,365.5 L375,365.5 C435.3414,365.5 444.8118,336.7507 502,317.5 C509.0371,315.1312 516.3048,312.7614 523.6494,310.4241 " fill="none" style="stroke:#000000;stroke-width:1.0;stroke-dasharray:3.0,3.0;"/><path d="M524.5794,313.3699 L525.8587,309.7266 L522.7193,307.4783 L531.0138,308.099 L524.5794,313.3699 " fill="#000000" style="stroke:#000000;stroke-width:1.0;"/><ellipse cx="362" cy="365.5" fill="#000000" rx="3" ry="3" style="stroke:#000000;stroke-width:1.0;"/><path d="M362,385.5 L375,385.5 C413.9351,385.5 455.9283,382.297 494.6467,378.02 " fill="none" style="stroke:#000000;stroke-width:1.0;stroke-dasharray:3.0,3.0;"/><path d="M494.9944,381.0993 L496.9562,377.7593 L494.2991,374.9407 L502.3449,377.1509 L494.9944,381.0993 " fill="#000000" style="stroke:#000000;stroke-width:1.0;"/><ellipse cx="362" cy="385.5" fill="#000000" rx="3" ry="3" style="stroke:#000000;stroke-width:1.0;"/><path d="M362,406.5 L375,406.5 C415.3294,406.5 458.94,409.9365 498.7937,414.4435 " fill="none" style="stroke:#000000;stroke-width:1.0;stroke-dasharray:3.0,3.0;"/><path d="M498.4277,417.611 L501.1692,414.718 L499.1597,411.2761 L506.7122,415.3585 L498.4277,417.611 " fill="#000000" style="stroke:#000000;stroke-width:1.0;"/><ellipse cx="362" cy="406.5" fill="#000000" rx="3" ry="3" style="stroke:#000000;stroke-width:1.0;"/><path d="M362,427.5 L375,427.5 C435.3414,427.5 444.7464,456.4445 502,475.5 C508.1558,477.5488 514.4895,479.5928 520.8977,481.6109 " fill="none" style="stroke:#000000;stroke-width:1.0;stroke-dasharray:3.0,3.0;"/><path d="M519.9553,484.6312 L523.1629,482.3177 L521.84,478.5906 L528.4484,483.9668 L519.9553,484.6312 " fill="#000000" style="stroke:#000000;stroke-width:1.0;"/><ellipse cx="362" cy="427.5" fill="#000000" rx="3" ry="3" style="stroke:#000000;stroke-width:1.0;"/><path d="M362,447.5 L375,447.5 C448.8072,447.5 436.9012,519.7199 502,554.5 C505.4092,556.3214 508.9135,558.0667 512.488,559.7385 " fill="none" style="stroke:#000000;stroke-width:1.0;stroke-dasharray:3.0,3.0;"/><path d="M511.2381,562.5202 L514.5743,560.6759 L513.7379,556.9568 L519.4423,562.8631 L511.2381,562.5202 " fill="#000000" style="stroke:#000000;stroke-width:1.0;"/><ellipse cx="362" cy="447.5" fill="#000000" rx="3" ry="3" style="stroke:#000000;stroke-width:1.0;"/><path d="M362,468.5 L375,468.5 C467.5405,468.5 425.5197,581.399 502,633.5 C504.3564,635.1053 506.7791,636.6453 509.257,638.1226 " fill="none" style="stroke:#000000;stroke-width:1.0;stroke-dasharray:3.0,3.0;"/><path d="M507.7506,640.7949 L511.2612,639.2524 L510.7634,635.4503 L515.9378,641.8886 L507.7506,640.7949 " fill="#000000" style="stroke:#000000;stroke-width:1.0;"/><ellipse cx="362" cy="468.5" fill="#000000" rx="3" ry="3" style="stroke:#000000;stroke-width:1.0;"/><path d="M362,488.5 L375,488.5 C489.4434,488.5 412.1639,641.6004 502,712.5 C503.7953,713.9169 505.6403,715.2823 507.5287,716.5982 " fill="none" style="stroke:#000000;stroke-width:1.0;stroke-dasharray:3.0,3.0;"/><path d="M505.8145,719.23 L509.5025,717.8838 L509.2428,713.9664 L514.1082,720.8836 L505.8145,719.23 " fill="#000000" style="stroke:#000000;stroke-width:1.0;"/><ellipse cx="362" cy="488.5" fill="#000000" rx="3" ry="3" style="stroke:#000000;stroke-width:1.0;"/><path d="M209,336.5 L222,336.5 C269.0497,336.5 318.2629,365.8357 343.6101,383.482 " fill="none" style="stroke:#000000;stroke-width:1.0;stroke-dasharray:3.0,3.0;"/><path d="M341.8416,385.964 L345.4716,384.8085 L345.3787,381.0001 L349.815,387.9035 L341.8416,385.964 " fill="#000000" style="stroke:#000000;stroke-width:1.0;"/><ellipse cx="209" cy="336.5" fill="#000000" rx="3" ry="3" style="stroke:#000000;stroke-width:1.0;"/><!--MD5=[3afe9a16fbd15af12d238c850c5e0c84]
@startjson
{
    "field1": "ProductID",
    "combination": "ProductID",
    "null_distribution": {
        "total_null_rows": 0,
        "total_not_null_rows": 67131
    },
    "data_distribution": [
        {
            "field_value": "813",
            "row_count": 3093,
            "ratio_percent": 4.607409393573759
        },
        {
            "field_value": "748",
            "row_count": 2874,
            "ratio_percent": 4.281181570362426
        },
        {
            "field_value": "810",
            "row_count": 2832,
            "ratio_percent": 4.2186173302944985
        },
        {
            "field_value": "747",
            "row_count": 2802,
            "ratio_percent": 4.173928587388836
        },
        {
            "field_value": "811",
            "row_count": 2463,
            "ratio_percent": 3.6689457925548554
        },
        {
            "field_value": "945",
            "row_count": 2210,
            "ratio_percent": 3.292070727383772
        },
        {
            "field_value": "804",
            "row_count": 2208,
            "ratio_percent": 3.289091477856728
        },
        {
            "field_value": "519",
            "row_count": 2026,
            "ratio_percent": 3.0179797708957112
        },
        {
            "field_value": "516",
            "row_count": 1852,
            "ratio_percent": 2.7587850620428713
        },
        {
            "field_value": "812",
            "row_count": 1806,
            "ratio_percent": 2.6902623229208564
        }
    ]
}
@endjson

PlantUML version 1.2022.5(Sat Apr 30 06:55:52 EDT 2022)
(GPL source distribution)
Java Runtime: OpenJDK Runtime Environment
JVM: OpenJDK 64-Bit Server VM
Default Encoding: UTF-8
Language: en
Country: CA
--></g></svg>