<?xml version="1.0" encoding="UTF-8" standalone="no"?><svg xmlns="http://www.w3.org/2000/svg" xmlns:xlink="http://www.w3.org/1999/xlink" contentStyleType="text/css" height="241px" preserveAspectRatio="none" style="width:770px;height:241px;background:#FFFFFF;" version="1.1" viewBox="0 0 770 241" width="770px" zoomAndPan="magnify"><defs/><g><rect fill="#F1F1F1" height="81.9531" rx="5" ry="5" style="stroke:#F1F1F1;stroke-width:1.5;" width="235" x="10" y="24.5"/><text fill="#000000" font-family="sans-serif" font-size="14" font-weight="bold" lengthAdjust="spacing" textLength="42" x="15" y="40.0352">field1</text><text fill="#000000" font-family="sans-serif" font-size="14" lengthAdjust="spacing" textLength="91" x="149" y="40.0352">ModifiedDate</text><line style="stroke:#000000;stroke-width:1.0;" x1="144" x2="144" y1="24.5" y2="44.9883"/><line style="stroke:#000000;stroke-width:1.0;" x1="10" x2="245" y1="44.9883" y2="44.9883"/><text fill="#000000" font-family="sans-serif" font-size="14" font-weight="bold" lengthAdjust="spacing" textLength="90" x="15" y="60.5234">combination</text><text fill="#000000" font-family="sans-serif" font-size="14" lengthAdjust="spacing" textLength="91" x="149" y="60.5234">ModifiedDate</text><line style="stroke:#000000;stroke-width:1.0;" x1="144" x2="144" y1="44.9883" y2="65.4766"/><line style="stroke:#000000;stroke-width:1.0;" x1="10" x2="245" y1="65.4766" y2="65.4766"/><text fill="#000000" font-family="sans-serif" font-size="14" font-weight="bold" lengthAdjust="spacing" textLength="121" x="15" y="81.0117">null_distribution</text><text fill="#000000" font-family="sans-serif" font-size="14" lengthAdjust="spacing" textLength="12" x="149" y="81.0117">   </text><line style="stroke:#000000;stroke-width:1.0;" x1="144" x2="144" y1="65.4766" y2="85.9648"/><line style="stroke:#000000;stroke-width:1.0;" x1="10" x2="245" y1="85.9648" y2="85.9648"/><text fill="#000000" font-family="sans-serif" font-size="14" font-weight="bold" lengthAdjust="spacing" textLength="124" x="15" y="101.5">data_distribution</text><text fill="#000000" font-family="sans-serif" font-size="14" lengthAdjust="spacing" textLength="12" x="149" y="101.5">   </text><line style="stroke:#000000;stroke-width:1.0;" x1="144" x2="144" y1="85.9648" y2="106.4531"/><rect fill="none" height="81.9531" rx="5" ry="5" style="stroke:#000000;stroke-width:1.5;" width="235" x="10" y="24.5"/><rect fill="#F1F1F1" height="40.9766" rx="5" ry="5" style="stroke:#F1F1F1;stroke-width:1.5;" width="171" x="282" y="31"/><text fill="#000000" font-family="sans-serif" font-size="14" font-weight="bold" lengthAdjust="spacing" textLength="111" x="287" y="46.5352">total_null_rows</text><text fill="#000000" font-family="sans-serif" font-size="14" lengthAdjust="spacing" textLength="9" x="439" y="46.5352">0</text><line style="stroke:#000000;stroke-width:1.0;" x1="434" x2="434" y1="31" y2="51.4883"/><line style="stroke:#000000;stroke-width:1.0;" x1="282" x2="453" y1="51.4883" y2="51.4883"/><text fill="#000000" font-family="sans-serif" font-size="14" font-weight="bold" lengthAdjust="spacing" textLength="142" x="287" y="67.0234">total_not_null_rows</text><text fill="#000000" font-family="sans-serif" font-size="14" lengthAdjust="spacing" textLength="9" x="439" y="67.0234">4</text><line style="stroke:#000000;stroke-width:1.0;" x1="434" x2="434" y1="51.4883" y2="71.9766"/><rect fill="none" height="40.9766" rx="5" ry="5" style="stroke:#000000;stroke-width:1.5;" width="171" x="282" y="31"/><rect fill="#F1F1F1" height="61.4648" rx="5" ry="5" style="stroke:#F1F1F1;stroke-width:1.5;" width="22" x="355.5" y="90"/><text fill="#000000" font-family="sans-serif" font-size="14" lengthAdjust="spacing" textLength="12" x="360.5" y="105.5352">   </text><line style="stroke:#000000;stroke-width:1.0;" x1="355.5" x2="377.5" y1="110.4883" y2="110.4883"/><text fill="#000000" font-family="sans-serif" font-size="14" lengthAdjust="spacing" textLength="12" x="360.5" y="126.0234">   </text><line style="stroke:#000000;stroke-width:1.0;" x1="355.5" x2="377.5" y1="130.9766" y2="130.9766"/><text fill="#000000" font-family="sans-serif" font-size="14" lengthAdjust="spacing" textLength="12" x="360.5" y="146.5117">   </text><rect fill="none" height="61.4648" rx="5" ry="5" style="stroke:#000000;stroke-width:1.5;" width="22" x="355.5" y="90"/><rect fill="#F1F1F1" height="61.4648" rx="5" ry="5" style="stroke:#F1F1F1;stroke-width:1.5;" width="268" x="490" y="10"/><text fill="#000000" font-family="sans-serif" font-size="14" font-weight="bold" lengthAdjust="spacing" textLength="78" x="495" y="25.5352">field_value</text><text fill="#000000" font-family="sans-serif" font-size="14" lengthAdjust="spacing" textLength="154" x="599" y="25.5352">Nov 15 2013 12:00AM</text><line style="stroke:#000000;stroke-width:1.0;" x1="594" x2="594" y1="10" y2="30.4883"/><line style="stroke:#000000;stroke-width:1.0;" x1="490" x2="758" y1="30.4883" y2="30.4883"/><text fill="#000000" font-family="sans-serif" font-size="14" font-weight="bold" lengthAdjust="spacing" textLength="74" x="495" y="46.0234">row_count</text><text fill="#000000" font-family="sans-serif" font-size="14" lengthAdjust="spacing" textLength="9" x="599" y="46.0234">2</text><line style="stroke:#000000;stroke-width:1.0;" x1="594" x2="594" y1="30.4883" y2="50.9766"/><line style="stroke:#000000;stroke-width:1.0;" x1="490" x2="758" y1="50.9766" y2="50.9766"/><text fill="#000000" font-family="sans-serif" font-size="14" font-weight="bold" lengthAdjust="spacing" textLength="94" x="495" y="66.5117">ratio_percent</text><text fill="#000000" font-family="sans-serif" font-size="14" lengthAdjust="spacing" textLength="31" x="599" y="66.5117">50.0</text><line style="stroke:#000000;stroke-width:1.0;" x1="594" x2="594" y1="50.9766" y2="71.4648"/><rect fill="none" height="61.4648" rx="5" ry="5" style="stroke:#000000;stroke-width:1.5;" width="268" x="490" y="10"/><rect fill="#F1F1F1" height="61.4648" rx="5" ry="5" style="stroke:#F1F1F1;stroke-width:1.5;" width="267" x="490.5" y="89"/><text fill="#000000" font-family="sans-serif" font-size="14" font-weight="bold" lengthAdjust="spacing" textLength="78" x="495.5" y="104.5352">field_value</text><text fill="#000000" font-family="sans-serif" font-size="14" lengthAdjust="spacing" textLength="153" x="599.5" y="104.5352">Sep 18 2013 12:00AM</text><line style="stroke:#000000;stroke-width:1.0;" x1="594.5" x2="594.5" y1="89" y2="109.4883"/><line style="stroke:#000000;stroke-width:1.0;" x1="490.5" x2="757.5" y1="109.4883" y2="109.4883"/><text fill="#000000" font-family="sans-serif" font-size="14" font-weight="bold" lengthAdjust="spacing" textLength="74" x="495.5" y="125.0234">row_count</text><text fill="#000000" font-family="sans-serif" font-size="14" lengthAdjust="spacing" textLength="9" x="599.5" y="125.0234">1</text><line style="stroke:#000000;stroke-width:1.0;" x1="594.5" x2="594.5" y1="109.4883" y2="129.9766"/><line style="stroke:#000000;stroke-width:1.0;" x1="490.5" x2="757.5" y1="129.9766" y2="129.9766"/><text fill="#000000" font-family="sans-serif" font-size="14" font-weight="bold" lengthAdjust="spacing" textLength="94" x="495.5" y="145.5117">ratio_percent</text><text fill="#000000" font-family="sans-serif" font-size="14" lengthAdjust="spacing" textLength="31" x="599.5" y="145.5117">25.0</text><line style="stroke:#000000;stroke-width:1.0;" x1="594.5" x2="594.5" y1="129.9766" y2="150.4648"/><rect fill="none" height="61.4648" rx="5" ry="5" style="stroke:#000000;stroke-width:1.5;" width="267" x="490.5" y="89"/><rect fill="#F1F1F1" height="61.4648" rx="5" ry="5" style="stroke:#F1F1F1;stroke-width:1.5;" width="268" x="490" y="168"/><text fill="#000000" font-family="sans-serif" font-size="14" font-weight="bold" lengthAdjust="spacing" textLength="78" x="495" y="183.5352">field_value</text><text fill="#000000" font-family="sans-serif" font-size="14" lengthAdjust="spacing" textLength="154" x="599" y="183.5352">Nov 13 2013 12:00AM</text><line style="stroke:#000000;stroke-width:1.0;" x1="594" x2="594" y1="168" y2="188.4883"/><line style="stroke:#000000;stroke-width:1.0;" x1="490" x2="758" y1="188.4883" y2="188.4883"/><text fill="#000000" font-family="sans-serif" font-size="14" font-weight="bold" lengthAdjust="spacing" textLength="74" x="495" y="204.0234">row_count</text><text fill="#000000" font-family="sans-serif" font-size="14" lengthAdjust="spacing" textLength="9" x="599" y="204.0234">1</text><line style="stroke:#000000;stroke-width:1.0;" x1="594" x2="594" y1="188.4883" y2="208.9766"/><line style="stroke:#000000;stroke-width:1.0;" x1="490" x2="758" y1="208.9766" y2="208.9766"/><text fill="#000000" font-family="sans-serif" font-size="14" font-weight="bold" lengthAdjust="spacing" textLength="94" x="495" y="224.5117">ratio_percent</text><text fill="#000000" font-family="sans-serif" font-size="14" lengthAdjust="spacing" textLength="31" x="599" y="224.5117">25.0</text><line style="stroke:#000000;stroke-width:1.0;" x1="594" x2="594" y1="208.9766" y2="229.4648"/><rect fill="none" height="61.4648" rx="5" ry="5" style="stroke:#000000;stroke-width:1.5;" width="268" x="490" y="168"/><path d="M233,75.5 L246,75.5 C256.7014,75.5 267.8352,74.5856 278.8249,73.1138 " fill="none" style="stroke:#000000;stroke-width:1.0;stroke-dasharray:3.0,3.0;"/><path d="M279.2663,76.1451 L281.0983,72.7827 L278.3834,70.0826 L286.403,72.0102 L279.2663,76.1451 " fill="#000000" style="stroke:#000000;stroke-width:1.0;"/><ellipse cx="233" cy="75.5" fill="#000000" rx="3" ry="3" style="stroke:#000000;stroke-width:1.0;"/><path d="M368,99.5 L381,99.5 C406.8111,99.5 461.1209,86.7211 511.8126,73.0578 " fill="none" style="stroke:#000000;stroke-width:1.0;stroke-dasharray:3.0,3.0;"/><path d="M512.621,76.0374 L514.0474,72.4516 L511.0043,70.0782 L519.2617,71.0369 L512.621,76.0374 " fill="#000000" style="stroke:#000000;stroke-width:1.0;"/><ellipse cx="368" cy="99.5" fill="#000000" rx="3" ry="3" style="stroke:#000000;stroke-width:1.0;"/><path d="M368,119.5 L381,119.5 C414.0737,119.5 449.6848,119.5 483.1614,119.5 " fill="none" style="stroke:#000000;stroke-width:1.0;stroke-dasharray:3.0,3.0;"/><path d="M483.1614,122.5228 L485.4284,119.5 L483.1614,116.4772 L490.7182,119.5 L483.1614,122.5228 " fill="#000000" style="stroke:#000000;stroke-width:1.0;"/><ellipse cx="368" cy="119.5" fill="#000000" rx="3" ry="3" style="stroke:#000000;stroke-width:1.0;"/><path d="M368,140.5 L381,140.5 C406.4774,140.5 459.7956,152.7626 509.9653,166.0109 " fill="none" style="stroke:#000000;stroke-width:1.0;stroke-dasharray:3.0,3.0;"/><path d="M509.1811,168.9611 L512.1779,166.599 L510.7494,163.0606 L517.3408,167.9713 L509.1811,168.9611 " fill="#000000" style="stroke:#000000;stroke-width:1.0;"/><ellipse cx="368" cy="140.5" fill="#000000" rx="3" ry="3" style="stroke:#000000;stroke-width:1.0;"/><path d="M233,96.5 L246,96.5 C282.9429,96.5 325.0388,107.3971 348.5696,114.5057 " fill="none" style="stroke:#000000;stroke-width:1.0;stroke-dasharray:3.0,3.0;"/><path d="M347.6719,117.3993 L350.7398,115.179 L349.4673,111.6121 L355.8036,116.75 L347.6719,117.3993 " fill="#000000" style="stroke:#000000;stroke-width:1.0;"/><ellipse cx="233" cy="96.5" fill="#000000" rx="3" ry="3" style="stroke:#000000;stroke-width:1.0;"/><!--MD5=[71c3d7dced4bc680fdaa3b271b351a6e]
@startjson
{
    "field1": "ModifiedDate",
    "combination": "ModifiedDate",
    "null_distribution": {
        "total_null_rows": 0,
        "total_not_null_rows": 4
    },
    "data_distribution": [
        {
            "field_value": "Nov 15 2013 12:00AM",
            "row_count": 2,
            "ratio_percent": 50.0
        },
        {
            "field_value": "Sep 18 2013 12:00AM",
            "row_count": 1,
            "ratio_percent": 25.0
        },
        {
            "field_value": "Nov 13 2013 12:00AM",
            "row_count": 1,
            "ratio_percent": 25.0
        }
    ]
}
@endjson

PlantUML version 1.2022.5(Sat Apr 30 06:55:52 EDT 2022)
(GPL source distribution)
Java Runtime: OpenJDK Runtime Environment
JVM: OpenJDK 64-Bit Server VM
Default Encoding: UTF-8
Language: en
Country: CA
--></g></svg>