<?xml version="1.0" encoding="UTF-8" standalone="no"?><svg xmlns="http://www.w3.org/2000/svg" xmlns:xlink="http://www.w3.org/1999/xlink" contentStyleType="text/css" height="399px" preserveAspectRatio="none" style="width:791px;height:399px;background:#FFFFFF;" version="1.1" viewBox="0 0 791 399" width="791px" zoomAndPan="magnify"><defs/><g><rect fill="#F1F1F1" height="81.9531" rx="5" ry="5" style="stroke:#F1F1F1;stroke-width:1.5;" width="253" x="10" y="92.5"/><text fill="#000000" font-family="sans-serif" font-size="14" font-weight="bold" lengthAdjust="spacing" textLength="42" x="15" y="108.0352">field1</text><text fill="#000000" font-family="sans-serif" font-size="14" lengthAdjust="spacing" textLength="109" x="149" y="108.0352">ProductModelID</text><line style="stroke:#000000;stroke-width:1.0;" x1="144" x2="144" y1="92.5" y2="112.9883"/><line style="stroke:#000000;stroke-width:1.0;" x1="10" x2="263" y1="112.9883" y2="112.9883"/><text fill="#000000" font-family="sans-serif" font-size="14" font-weight="bold" lengthAdjust="spacing" textLength="90" x="15" y="128.5234">combination</text><text fill="#000000" font-family="sans-serif" font-size="14" lengthAdjust="spacing" textLength="109" x="149" y="128.5234">ProductModelID</text><line style="stroke:#000000;stroke-width:1.0;" x1="144" x2="144" y1="112.9883" y2="133.4766"/><line style="stroke:#000000;stroke-width:1.0;" x1="10" x2="263" y1="133.4766" y2="133.4766"/><text fill="#000000" font-family="sans-serif" font-size="14" font-weight="bold" lengthAdjust="spacing" textLength="121" x="15" y="149.0117">null_distribution</text><text fill="#000000" font-family="sans-serif" font-size="14" lengthAdjust="spacing" textLength="12" x="149" y="149.0117">   </text><line style="stroke:#000000;stroke-width:1.0;" x1="144" x2="144" y1="133.4766" y2="153.9648"/><line style="stroke:#000000;stroke-width:1.0;" x1="10" x2="263" y1="153.9648" y2="153.9648"/><text fill="#000000" font-family="sans-serif" font-size="14" font-weight="bold" lengthAdjust="spacing" textLength="124" x="15" y="169.5">data_distribution</text><text fill="#000000" font-family="sans-serif" font-size="14" lengthAdjust="spacing" textLength="12" x="149" y="169.5">   </text><line style="stroke:#000000;stroke-width:1.0;" x1="144" x2="144" y1="153.9648" y2="174.4531"/><rect fill="none" height="81.9531" rx="5" ry="5" style="stroke:#000000;stroke-width:1.5;" width="253" x="10" y="92.5"/><rect fill="#F1F1F1" height="40.9766" rx="5" ry="5" style="stroke:#F1F1F1;stroke-width:1.5;" width="171" x="300" y="89"/><text fill="#000000" font-family="sans-serif" font-size="14" font-weight="bold" lengthAdjust="spacing" textLength="111" x="305" y="104.5352">total_null_rows</text><text fill="#000000" font-family="sans-serif" font-size="14" lengthAdjust="spacing" textLength="9" x="457" y="104.5352">0</text><line style="stroke:#000000;stroke-width:1.0;" x1="452" x2="452" y1="89" y2="109.4883"/><line style="stroke:#000000;stroke-width:1.0;" x1="300" x2="471" y1="109.4883" y2="109.4883"/><text fill="#000000" font-family="sans-serif" font-size="14" font-weight="bold" lengthAdjust="spacing" textLength="142" x="305" y="125.0234">total_not_null_rows</text><text fill="#000000" font-family="sans-serif" font-size="14" lengthAdjust="spacing" textLength="9" x="457" y="125.0234">7</text><line style="stroke:#000000;stroke-width:1.0;" x1="452" x2="452" y1="109.4883" y2="129.9766"/><rect fill="none" height="40.9766" rx="5" ry="5" style="stroke:#000000;stroke-width:1.5;" width="171" x="300" y="89"/><rect fill="#F1F1F1" height="102.4414" rx="5" ry="5" style="stroke:#F1F1F1;stroke-width:1.5;" width="22" x="373.5" y="148.5"/><text fill="#000000" font-family="sans-serif" font-size="14" lengthAdjust="spacing" textLength="12" x="378.5" y="164.0352">   </text><line style="stroke:#000000;stroke-width:1.0;" x1="373.5" x2="395.5" y1="168.9883" y2="168.9883"/><text fill="#000000" font-family="sans-serif" font-size="14" lengthAdjust="spacing" textLength="12" x="378.5" y="184.5234">   </text><line style="stroke:#000000;stroke-width:1.0;" x1="373.5" x2="395.5" y1="189.4766" y2="189.4766"/><text fill="#000000" font-family="sans-serif" font-size="14" lengthAdjust="spacing" textLength="12" x="378.5" y="205.0117">   </text><line style="stroke:#000000;stroke-width:1.0;" x1="373.5" x2="395.5" y1="209.9648" y2="209.9648"/><text fill="#000000" font-family="sans-serif" font-size="14" lengthAdjust="spacing" textLength="12" x="378.5" y="225.5">   </text><line style="stroke:#000000;stroke-width:1.0;" x1="373.5" x2="395.5" y1="230.4531" y2="230.4531"/><text fill="#000000" font-family="sans-serif" font-size="14" lengthAdjust="spacing" textLength="12" x="378.5" y="245.9883">   </text><rect fill="none" height="102.4414" rx="5" ry="5" style="stroke:#000000;stroke-width:1.5;" width="22" x="373.5" y="148.5"/><rect fill="#F1F1F1" height="61.4648" rx="5" ry="5" style="stroke:#F1F1F1;stroke-width:1.5;" width="271" x="508" y="10"/><text fill="#000000" font-family="sans-serif" font-size="14" font-weight="bold" lengthAdjust="spacing" textLength="78" x="513" y="25.5352">field_value</text><text fill="#000000" font-family="sans-serif" font-size="14" lengthAdjust="spacing" textLength="18" x="617" y="25.5352">48</text><line style="stroke:#000000;stroke-width:1.0;" x1="612" x2="612" y1="10" y2="30.4883"/><line style="stroke:#000000;stroke-width:1.0;" x1="508" x2="779" y1="30.4883" y2="30.4883"/><text fill="#000000" font-family="sans-serif" font-size="14" font-weight="bold" lengthAdjust="spacing" textLength="74" x="513" y="46.0234">row_count</text><text fill="#000000" font-family="sans-serif" font-size="14" lengthAdjust="spacing" textLength="9" x="617" y="46.0234">2</text><line style="stroke:#000000;stroke-width:1.0;" x1="612" x2="612" y1="30.4883" y2="50.9766"/><line style="stroke:#000000;stroke-width:1.0;" x1="508" x2="779" y1="50.9766" y2="50.9766"/><text fill="#000000" font-family="sans-serif" font-size="14" font-weight="bold" lengthAdjust="spacing" textLength="94" x="513" y="66.5117">ratio_percent</text><text fill="#000000" font-family="sans-serif" font-size="14" lengthAdjust="spacing" textLength="157" x="617" y="66.5117">28.571428571428573</text><line style="stroke:#000000;stroke-width:1.0;" x1="612" x2="612" y1="50.9766" y2="71.4648"/><rect fill="none" height="61.4648" rx="5" ry="5" style="stroke:#000000;stroke-width:1.5;" width="271" x="508" y="10"/><rect fill="#F1F1F1" height="61.4648" rx="5" ry="5" style="stroke:#F1F1F1;stroke-width:1.5;" width="271" x="508" y="89"/><text fill="#000000" font-family="sans-serif" font-size="14" font-weight="bold" lengthAdjust="spacing" textLength="78" x="513" y="104.5352">field_value</text><text fill="#000000" font-family="sans-serif" font-size="14" lengthAdjust="spacing" textLength="18" x="617" y="104.5352">47</text><line style="stroke:#000000;stroke-width:1.0;" x1="612" x2="612" y1="89" y2="109.4883"/><line style="stroke:#000000;stroke-width:1.0;" x1="508" x2="779" y1="109.4883" y2="109.4883"/><text fill="#000000" font-family="sans-serif" font-size="14" font-weight="bold" lengthAdjust="spacing" textLength="74" x="513" y="125.0234">row_count</text><text fill="#000000" font-family="sans-serif" font-size="14" lengthAdjust="spacing" textLength="9" x="617" y="125.0234">2</text><line style="stroke:#000000;stroke-width:1.0;" x1="612" x2="612" y1="109.4883" y2="129.9766"/><line style="stroke:#000000;stroke-width:1.0;" x1="508" x2="779" y1="129.9766" y2="129.9766"/><text fill="#000000" font-family="sans-serif" font-size="14" font-weight="bold" lengthAdjust="spacing" textLength="94" x="513" y="145.5117">ratio_percent</text><text fill="#000000" font-family="sans-serif" font-size="14" lengthAdjust="spacing" textLength="157" x="617" y="145.5117">28.571428571428573</text><line style="stroke:#000000;stroke-width:1.0;" x1="612" x2="612" y1="129.9766" y2="150.4648"/><rect fill="none" height="61.4648" rx="5" ry="5" style="stroke:#000000;stroke-width:1.5;" width="271" x="508" y="89"/><rect fill="#F1F1F1" height="61.4648" rx="5" ry="5" style="stroke:#F1F1F1;stroke-width:1.5;" width="271" x="508" y="168"/><text fill="#000000" font-family="sans-serif" font-size="14" font-weight="bold" lengthAdjust="spacing" textLength="78" x="513" y="183.5352">field_value</text><text fill="#000000" font-family="sans-serif" font-size="14" lengthAdjust="spacing" textLength="9" x="617" y="183.5352">7</text><line style="stroke:#000000;stroke-width:1.0;" x1="612" x2="612" y1="168" y2="188.4883"/><line style="stroke:#000000;stroke-width:1.0;" x1="508" x2="779" y1="188.4883" y2="188.4883"/><text fill="#000000" font-family="sans-serif" font-size="14" font-weight="bold" lengthAdjust="spacing" textLength="74" x="513" y="204.0234">row_count</text><text fill="#000000" font-family="sans-serif" font-size="14" lengthAdjust="spacing" textLength="9" x="617" y="204.0234">1</text><line style="stroke:#000000;stroke-width:1.0;" x1="612" x2="612" y1="188.4883" y2="208.9766"/><line style="stroke:#000000;stroke-width:1.0;" x1="508" x2="779" y1="208.9766" y2="208.9766"/><text fill="#000000" font-family="sans-serif" font-size="14" font-weight="bold" lengthAdjust="spacing" textLength="94" x="513" y="224.5117">ratio_percent</text><text fill="#000000" font-family="sans-serif" font-size="14" lengthAdjust="spacing" textLength="157" x="617" y="224.5117">14.285714285714286</text><line style="stroke:#000000;stroke-width:1.0;" x1="612" x2="612" y1="208.9766" y2="229.4648"/><rect fill="none" height="61.4648" rx="5" ry="5" style="stroke:#000000;stroke-width:1.5;" width="271" x="508" y="168"/><rect fill="#F1F1F1" height="61.4648" rx="5" ry="5" style="stroke:#F1F1F1;stroke-width:1.5;" width="271" x="508" y="247"/><text fill="#000000" font-family="sans-serif" font-size="14" font-weight="bold" lengthAdjust="spacing" textLength="78" x="513" y="262.5352">field_value</text><text fill="#000000" font-family="sans-serif" font-size="14" lengthAdjust="spacing" textLength="18" x="617" y="262.5352">67</text><line style="stroke:#000000;stroke-width:1.0;" x1="612" x2="612" y1="247" y2="267.4883"/><line style="stroke:#000000;stroke-width:1.0;" x1="508" x2="779" y1="267.4883" y2="267.4883"/><text fill="#000000" font-family="sans-serif" font-size="14" font-weight="bold" lengthAdjust="spacing" textLength="74" x="513" y="283.0234">row_count</text><text fill="#000000" font-family="sans-serif" font-size="14" lengthAdjust="spacing" textLength="9" x="617" y="283.0234">1</text><line style="stroke:#000000;stroke-width:1.0;" x1="612" x2="612" y1="267.4883" y2="287.9766"/><line style="stroke:#000000;stroke-width:1.0;" x1="508" x2="779" y1="287.9766" y2="287.9766"/><text fill="#000000" font-family="sans-serif" font-size="14" font-weight="bold" lengthAdjust="spacing" textLength="94" x="513" y="303.5117">ratio_percent</text><text fill="#000000" font-family="sans-serif" font-size="14" lengthAdjust="spacing" textLength="157" x="617" y="303.5117">14.285714285714286</text><line style="stroke:#000000;stroke-width:1.0;" x1="612" x2="612" y1="287.9766" y2="308.4648"/><rect fill="none" height="61.4648" rx="5" ry="5" style="stroke:#000000;stroke-width:1.5;" width="271" x="508" y="247"/><rect fill="#F1F1F1" height="61.4648" rx="5" ry="5" style="stroke:#F1F1F1;stroke-width:1.5;" width="271" x="508" y="326"/><text fill="#000000" font-family="sans-serif" font-size="14" font-weight="bold" lengthAdjust="spacing" textLength="78" x="513" y="341.5352">field_value</text><text fill="#000000" font-family="sans-serif" font-size="14" lengthAdjust="spacing" textLength="18" x="617" y="341.5352">10</text><line style="stroke:#000000;stroke-width:1.0;" x1="612" x2="612" y1="326" y2="346.4883"/><line style="stroke:#000000;stroke-width:1.0;" x1="508" x2="779" y1="346.4883" y2="346.4883"/><text fill="#000000" font-family="sans-serif" font-size="14" font-weight="bold" lengthAdjust="spacing" textLength="74" x="513" y="362.0234">row_count</text><text fill="#000000" font-family="sans-serif" font-size="14" lengthAdjust="spacing" textLength="9" x="617" y="362.0234">1</text><line style="stroke:#000000;stroke-width:1.0;" x1="612" x2="612" y1="346.4883" y2="366.9766"/><line style="stroke:#000000;stroke-width:1.0;" x1="508" x2="779" y1="366.9766" y2="366.9766"/><text fill="#000000" font-family="sans-serif" font-size="14" font-weight="bold" lengthAdjust="spacing" textLength="94" x="513" y="382.5117">ratio_percent</text><text fill="#000000" font-family="sans-serif" font-size="14" lengthAdjust="spacing" textLength="157" x="617" y="382.5117">14.285714285714286</text><line style="stroke:#000000;stroke-width:1.0;" x1="612" x2="612" y1="366.9766" y2="387.4648"/><rect fill="none" height="61.4648" rx="5" ry="5" style="stroke:#000000;stroke-width:1.5;" width="271" x="508" y="326"/><path d="M251,143.5 L264,143.5 C274.7355,143.5 295.0947,138.4769 316.0934,132.2921 " fill="none" style="stroke:#000000;stroke-width:1.0;stroke-dasharray:3.0,3.0;"/><path d="M316.9853,135.2678 L318.3253,131.6231 L315.2015,129.3163 L323.5329,130.0623 L316.9853,135.2678 " fill="#000000" style="stroke:#000000;stroke-width:1.0;"/><ellipse cx="251" cy="143.5" fill="#000000" rx="3" ry="3" style="stroke:#000000;stroke-width:1.0;"/><path d="M386,158.5 L399,158.5 C432.6401,158.5 445.1217,158.729 472,138.5 C496.5437,120.0281 483.5845,98.1411 508,79.5 C509.9875,77.9825 512.0323,76.5241 514.1266,75.1223 " fill="none" style="stroke:#000000;stroke-width:1.0;stroke-dasharray:3.0,3.0;"/><path d="M515.7416,77.6917 L516.0536,73.9111 L512.5116,72.5529 L520.5501,71.0848 L515.7416,77.6917 " fill="#000000" style="stroke:#000000;stroke-width:1.0;"/><ellipse cx="386" cy="158.5" fill="#000000" rx="3" ry="3" style="stroke:#000000;stroke-width:1.0;"/><path d="M386,178.5 L399,178.5 C424.9619,178.5 479.6069,165.7211 530.6142,152.0578 " fill="none" style="stroke:#000000;stroke-width:1.0;stroke-dasharray:3.0,3.0;"/><path d="M531.4225,155.056 L532.8628,151.4516 L529.8058,149.0597 L538.1096,150.0369 L531.4225,155.056 " fill="#000000" style="stroke:#000000;stroke-width:1.0;"/><ellipse cx="386" cy="178.5" fill="#000000" rx="3" ry="3" style="stroke:#000000;stroke-width:1.0;"/><path d="M386,198.5 L399,198.5 C431.9829,198.5 467.4738,198.5 500.8959,198.5 " fill="none" style="stroke:#000000;stroke-width:1.0;stroke-dasharray:3.0,3.0;"/><path d="M500.8959,201.5183 L503.1596,198.5 L500.8959,195.4817 L508.4416,198.5 L500.8959,201.5183 " fill="#000000" style="stroke:#000000;stroke-width:1.0;"/><ellipse cx="386" cy="198.5" fill="#000000" rx="3" ry="3" style="stroke:#000000;stroke-width:1.0;"/><path d="M386,219.5 L399,219.5 C424.6265,219.5 478.2739,231.7626 528.7555,245.0109 " fill="none" style="stroke:#000000;stroke-width:1.0;stroke-dasharray:3.0,3.0;"/><path d="M527.9713,247.9794 L530.982,245.599 L529.5397,242.0423 L536.177,246.9713 L527.9713,247.9794 " fill="#000000" style="stroke:#000000;stroke-width:1.0;"/><ellipse cx="386" cy="219.5" fill="#000000" rx="3" ry="3" style="stroke:#000000;stroke-width:1.0;"/><path d="M386,240.5 L399,240.5 C458.3129,240.5 454.5436,291.801 508,317.5 C512.0144,319.4299 516.1428,321.2829 520.3486,323.0601 " fill="none" style="stroke:#000000;stroke-width:1.0;stroke-dasharray:3.0,3.0;"/><path d="M519.1807,325.918 L522.492,323.936 L521.5164,320.2023 L527.4932,325.9798 L519.1807,325.918 " fill="#000000" style="stroke:#000000;stroke-width:1.0;"/><ellipse cx="386" cy="240.5" fill="#000000" rx="3" ry="3" style="stroke:#000000;stroke-width:1.0;"/><path d="M251,164.5 L264,164.5 C301.8865,164.5 343.9112,180.53 367.1209,190.8932 " fill="none" style="stroke:#000000;stroke-width:1.0;stroke-dasharray:3.0,3.0;"/><path d="M365.8657,193.6314 L369.1745,191.8346 L368.3761,188.155 L373.9663,194.0313 L365.8657,193.6314 " fill="#000000" style="stroke:#000000;stroke-width:1.0;"/><ellipse cx="251" cy="164.5" fill="#000000" rx="3" ry="3" style="stroke:#000000;stroke-width:1.0;"/><!--MD5=[0e6ebf160d31b2a31fe612b1531d7320]
@startjson
{
    "field1": "ProductModelID",
    "combination": "ProductModelID",
    "null_distribution": {
        "total_null_rows": 0,
        "total_not_null_rows": 7
    },
    "data_distribution": [
        {
            "field_value": "48",
            "row_count": 2,
            "ratio_percent": 28.571428571428573
        },
        {
            "field_value": "47",
            "row_count": 2,
            "ratio_percent": 28.571428571428573
        },
        {
            "field_value": "7",
            "row_count": 1,
            "ratio_percent": 14.285714285714286
        },
        {
            "field_value": "67",
            "row_count": 1,
            "ratio_percent": 14.285714285714286
        },
        {
            "field_value": "10",
            "row_count": 1,
            "ratio_percent": 14.285714285714286
        }
    ]
}
@endjson

PlantUML version 1.2022.5(Sat Apr 30 06:55:52 EDT 2022)
(GPL source distribution)
Java Runtime: OpenJDK Runtime Environment
JVM: OpenJDK 64-Bit Server VM
Default Encoding: UTF-8
Language: en
Country: CA
--></g></svg>