<?xml version="1.0" encoding="UTF-8" standalone="no"?><svg xmlns="http://www.w3.org/2000/svg" xmlns:xlink="http://www.w3.org/1999/xlink" contentStyleType="text/css" height="794px" preserveAspectRatio="none" style="width:840px;height:794px;background:#FFFFFF;" version="1.1" viewBox="0 0 840 794" width="840px" zoomAndPan="magnify"><defs/><g><rect fill="#F1F1F1" height="81.9531" rx="5" ry="5" style="stroke:#F1F1F1;stroke-width:1.5;" width="239" x="10" y="264.5"/><text fill="#000000" font-family="sans-serif" font-size="14" font-weight="bold" lengthAdjust="spacing" textLength="42" x="15" y="280.0352">field1</text><text fill="#000000" font-family="sans-serif" font-size="14" lengthAdjust="spacing" textLength="95" x="149" y="280.0352">TransactionID</text><line style="stroke:#000000;stroke-width:1.0;" x1="144" x2="144" y1="264.5" y2="284.9883"/><line style="stroke:#000000;stroke-width:1.0;" x1="10" x2="249" y1="284.9883" y2="284.9883"/><text fill="#000000" font-family="sans-serif" font-size="14" font-weight="bold" lengthAdjust="spacing" textLength="90" x="15" y="300.5234">combination</text><text fill="#000000" font-family="sans-serif" font-size="14" lengthAdjust="spacing" textLength="95" x="149" y="300.5234">TransactionID</text><line style="stroke:#000000;stroke-width:1.0;" x1="144" x2="144" y1="284.9883" y2="305.4766"/><line style="stroke:#000000;stroke-width:1.0;" x1="10" x2="249" y1="305.4766" y2="305.4766"/><text fill="#000000" font-family="sans-serif" font-size="14" font-weight="bold" lengthAdjust="spacing" textLength="121" x="15" y="321.0117">null_distribution</text><text fill="#000000" font-family="sans-serif" font-size="14" lengthAdjust="spacing" textLength="12" x="149" y="321.0117">   </text><line style="stroke:#000000;stroke-width:1.0;" x1="144" x2="144" y1="305.4766" y2="325.9648"/><line style="stroke:#000000;stroke-width:1.0;" x1="10" x2="249" y1="325.9648" y2="325.9648"/><text fill="#000000" font-family="sans-serif" font-size="14" font-weight="bold" lengthAdjust="spacing" textLength="124" x="15" y="341.5">data_distribution</text><text fill="#000000" font-family="sans-serif" font-size="14" lengthAdjust="spacing" textLength="12" x="149" y="341.5">   </text><line style="stroke:#000000;stroke-width:1.0;" x1="144" x2="144" y1="325.9648" y2="346.4531"/><rect fill="none" height="81.9531" rx="5" ry="5" style="stroke:#000000;stroke-width:1.5;" width="239" x="10" y="264.5"/><rect fill="#F1F1F1" height="40.9766" rx="5" ry="5" style="stroke:#F1F1F1;stroke-width:1.5;" width="207" x="286" y="235"/><text fill="#000000" font-family="sans-serif" font-size="14" font-weight="bold" lengthAdjust="spacing" textLength="111" x="291" y="250.5352">total_null_rows</text><text fill="#000000" font-family="sans-serif" font-size="14" lengthAdjust="spacing" textLength="9" x="443" y="250.5352">0</text><line style="stroke:#000000;stroke-width:1.0;" x1="438" x2="438" y1="235" y2="255.4883"/><line style="stroke:#000000;stroke-width:1.0;" x1="286" x2="493" y1="255.4883" y2="255.4883"/><text fill="#000000" font-family="sans-serif" font-size="14" font-weight="bold" lengthAdjust="spacing" textLength="142" x="291" y="271.0234">total_not_null_rows</text><text fill="#000000" font-family="sans-serif" font-size="14" lengthAdjust="spacing" textLength="45" x="443" y="271.0234">89253</text><line style="stroke:#000000;stroke-width:1.0;" x1="438" x2="438" y1="255.4883" y2="275.9766"/><rect fill="none" height="40.9766" rx="5" ry="5" style="stroke:#000000;stroke-width:1.5;" width="207" x="286" y="235"/><rect fill="#F1F1F1" height="204.8828" rx="5" ry="5" style="stroke:#F1F1F1;stroke-width:1.5;" width="22" x="377.5" y="294"/><text fill="#000000" font-family="sans-serif" font-size="14" lengthAdjust="spacing" textLength="12" x="382.5" y="309.5352">   </text><line style="stroke:#000000;stroke-width:1.0;" x1="377.5" x2="399.5" y1="314.4883" y2="314.4883"/><text fill="#000000" font-family="sans-serif" font-size="14" lengthAdjust="spacing" textLength="12" x="382.5" y="330.0234">   </text><line style="stroke:#000000;stroke-width:1.0;" x1="377.5" x2="399.5" y1="334.9766" y2="334.9766"/><text fill="#000000" font-family="sans-serif" font-size="14" lengthAdjust="spacing" textLength="12" x="382.5" y="350.5117">   </text><line style="stroke:#000000;stroke-width:1.0;" x1="377.5" x2="399.5" y1="355.4648" y2="355.4648"/><text fill="#000000" font-family="sans-serif" font-size="14" lengthAdjust="spacing" textLength="12" x="382.5" y="371">   </text><line style="stroke:#000000;stroke-width:1.0;" x1="377.5" x2="399.5" y1="375.9531" y2="375.9531"/><text fill="#000000" font-family="sans-serif" font-size="14" lengthAdjust="spacing" textLength="12" x="382.5" y="391.4883">   </text><line style="stroke:#000000;stroke-width:1.0;" x1="377.5" x2="399.5" y1="396.4414" y2="396.4414"/><text fill="#000000" font-family="sans-serif" font-size="14" lengthAdjust="spacing" textLength="12" x="382.5" y="411.9766">   </text><line style="stroke:#000000;stroke-width:1.0;" x1="377.5" x2="399.5" y1="416.9297" y2="416.9297"/><text fill="#000000" font-family="sans-serif" font-size="14" lengthAdjust="spacing" textLength="12" x="382.5" y="432.4648">   </text><line style="stroke:#000000;stroke-width:1.0;" x1="377.5" x2="399.5" y1="437.418" y2="437.418"/><text fill="#000000" font-family="sans-serif" font-size="14" lengthAdjust="spacing" textLength="12" x="382.5" y="452.9531">   </text><line style="stroke:#000000;stroke-width:1.0;" x1="377.5" x2="399.5" y1="457.9063" y2="457.9063"/><text fill="#000000" font-family="sans-serif" font-size="14" lengthAdjust="spacing" textLength="12" x="382.5" y="473.4414">   </text><line style="stroke:#000000;stroke-width:1.0;" x1="377.5" x2="399.5" y1="478.3945" y2="478.3945"/><text fill="#000000" font-family="sans-serif" font-size="14" lengthAdjust="spacing" textLength="12" x="382.5" y="493.9297">   </text><rect fill="none" height="204.8828" rx="5" ry="5" style="stroke:#000000;stroke-width:1.5;" width="22" x="377.5" y="294"/><rect fill="#F1F1F1" height="61.4648" rx="5" ry="5" style="stroke:#F1F1F1;stroke-width:1.5;" width="298" x="530" y="10"/><text fill="#000000" font-family="sans-serif" font-size="14" font-weight="bold" lengthAdjust="spacing" textLength="78" x="535" y="25.5352">field_value</text><text fill="#000000" font-family="sans-serif" font-size="14" lengthAdjust="spacing" textLength="36" x="639" y="25.5352">8513</text><line style="stroke:#000000;stroke-width:1.0;" x1="634" x2="634" y1="10" y2="30.4883"/><line style="stroke:#000000;stroke-width:1.0;" x1="530" x2="828" y1="30.4883" y2="30.4883"/><text fill="#000000" font-family="sans-serif" font-size="14" font-weight="bold" lengthAdjust="spacing" textLength="74" x="535" y="46.0234">row_count</text><text fill="#000000" font-family="sans-serif" font-size="14" lengthAdjust="spacing" textLength="9" x="639" y="46.0234">1</text><line style="stroke:#000000;stroke-width:1.0;" x1="634" x2="634" y1="30.4883" y2="50.9766"/><line style="stroke:#000000;stroke-width:1.0;" x1="530" x2="828" y1="50.9766" y2="50.9766"/><text fill="#000000" font-family="sans-serif" font-size="14" font-weight="bold" lengthAdjust="spacing" textLength="94" x="535" y="66.5117">ratio_percent</text><text fill="#000000" font-family="sans-serif" font-size="14" lengthAdjust="spacing" textLength="184" x="639" y="66.5117">0.0011204105184139468</text><line style="stroke:#000000;stroke-width:1.0;" x1="634" x2="634" y1="50.9766" y2="71.4648"/><rect fill="none" height="61.4648" rx="5" ry="5" style="stroke:#000000;stroke-width:1.5;" width="298" x="530" y="10"/><rect fill="#F1F1F1" height="61.4648" rx="5" ry="5" style="stroke:#F1F1F1;stroke-width:1.5;" width="298" x="530" y="89"/><text fill="#000000" font-family="sans-serif" font-size="14" font-weight="bold" lengthAdjust="spacing" textLength="78" x="535" y="104.5352">field_value</text><text fill="#000000" font-family="sans-serif" font-size="14" lengthAdjust="spacing" textLength="45" x="639" y="104.5352">11212</text><line style="stroke:#000000;stroke-width:1.0;" x1="634" x2="634" y1="89" y2="109.4883"/><line style="stroke:#000000;stroke-width:1.0;" x1="530" x2="828" y1="109.4883" y2="109.4883"/><text fill="#000000" font-family="sans-serif" font-size="14" font-weight="bold" lengthAdjust="spacing" textLength="74" x="535" y="125.0234">row_count</text><text fill="#000000" font-family="sans-serif" font-size="14" lengthAdjust="spacing" textLength="9" x="639" y="125.0234">1</text><line style="stroke:#000000;stroke-width:1.0;" x1="634" x2="634" y1="109.4883" y2="129.9766"/><line style="stroke:#000000;stroke-width:1.0;" x1="530" x2="828" y1="129.9766" y2="129.9766"/><text fill="#000000" font-family="sans-serif" font-size="14" font-weight="bold" lengthAdjust="spacing" textLength="94" x="535" y="145.5117">ratio_percent</text><text fill="#000000" font-family="sans-serif" font-size="14" lengthAdjust="spacing" textLength="184" x="639" y="145.5117">0.0011204105184139468</text><line style="stroke:#000000;stroke-width:1.0;" x1="634" x2="634" y1="129.9766" y2="150.4648"/><rect fill="none" height="61.4648" rx="5" ry="5" style="stroke:#000000;stroke-width:1.5;" width="298" x="530" y="89"/><rect fill="#F1F1F1" height="61.4648" rx="5" ry="5" style="stroke:#F1F1F1;stroke-width:1.5;" width="298" x="530" y="168"/><text fill="#000000" font-family="sans-serif" font-size="14" font-weight="bold" lengthAdjust="spacing" textLength="78" x="535" y="183.5352">field_value</text><text fill="#000000" font-family="sans-serif" font-size="14" lengthAdjust="spacing" textLength="45" x="639" y="183.5352">47678</text><line style="stroke:#000000;stroke-width:1.0;" x1="634" x2="634" y1="168" y2="188.4883"/><line style="stroke:#000000;stroke-width:1.0;" x1="530" x2="828" y1="188.4883" y2="188.4883"/><text fill="#000000" font-family="sans-serif" font-size="14" font-weight="bold" lengthAdjust="spacing" textLength="74" x="535" y="204.0234">row_count</text><text fill="#000000" font-family="sans-serif" font-size="14" lengthAdjust="spacing" textLength="9" x="639" y="204.0234">1</text><line style="stroke:#000000;stroke-width:1.0;" x1="634" x2="634" y1="188.4883" y2="208.9766"/><line style="stroke:#000000;stroke-width:1.0;" x1="530" x2="828" y1="208.9766" y2="208.9766"/><text fill="#000000" font-family="sans-serif" font-size="14" font-weight="bold" lengthAdjust="spacing" textLength="94" x="535" y="224.5117">ratio_percent</text><text fill="#000000" font-family="sans-serif" font-size="14" lengthAdjust="spacing" textLength="184" x="639" y="224.5117">0.0011204105184139468</text><line style="stroke:#000000;stroke-width:1.0;" x1="634" x2="634" y1="208.9766" y2="229.4648"/><rect fill="none" height="61.4648" rx="5" ry="5" style="stroke:#000000;stroke-width:1.5;" width="298" x="530" y="168"/><rect fill="#F1F1F1" height="61.4648" rx="5" ry="5" style="stroke:#F1F1F1;stroke-width:1.5;" width="298" x="530" y="247"/><text fill="#000000" font-family="sans-serif" font-size="14" font-weight="bold" lengthAdjust="spacing" textLength="78" x="535" y="262.5352">field_value</text><text fill="#000000" font-family="sans-serif" font-size="14" lengthAdjust="spacing" textLength="45" x="639" y="262.5352">24544</text><line style="stroke:#000000;stroke-width:1.0;" x1="634" x2="634" y1="247" y2="267.4883"/><line style="stroke:#000000;stroke-width:1.0;" x1="530" x2="828" y1="267.4883" y2="267.4883"/><text fill="#000000" font-family="sans-serif" font-size="14" font-weight="bold" lengthAdjust="spacing" textLength="74" x="535" y="283.0234">row_count</text><text fill="#000000" font-family="sans-serif" font-size="14" lengthAdjust="spacing" textLength="9" x="639" y="283.0234">1</text><line style="stroke:#000000;stroke-width:1.0;" x1="634" x2="634" y1="267.4883" y2="287.9766"/><line style="stroke:#000000;stroke-width:1.0;" x1="530" x2="828" y1="287.9766" y2="287.9766"/><text fill="#000000" font-family="sans-serif" font-size="14" font-weight="bold" lengthAdjust="spacing" textLength="94" x="535" y="303.5117">ratio_percent</text><text fill="#000000" font-family="sans-serif" font-size="14" lengthAdjust="spacing" textLength="184" x="639" y="303.5117">0.0011204105184139468</text><line style="stroke:#000000;stroke-width:1.0;" x1="634" x2="634" y1="287.9766" y2="308.4648"/><rect fill="none" height="61.4648" rx="5" ry="5" style="stroke:#000000;stroke-width:1.5;" width="298" x="530" y="247"/><rect fill="#F1F1F1" height="61.4648" rx="5" ry="5" style="stroke:#F1F1F1;stroke-width:1.5;" width="298" x="530" y="326"/><text fill="#000000" font-family="sans-serif" font-size="14" font-weight="bold" lengthAdjust="spacing" textLength="78" x="535" y="341.5352">field_value</text><text fill="#000000" font-family="sans-serif" font-size="14" lengthAdjust="spacing" textLength="45" x="639" y="341.5352">63738</text><line style="stroke:#000000;stroke-width:1.0;" x1="634" x2="634" y1="326" y2="346.4883"/><line style="stroke:#000000;stroke-width:1.0;" x1="530" x2="828" y1="346.4883" y2="346.4883"/><text fill="#000000" font-family="sans-serif" font-size="14" font-weight="bold" lengthAdjust="spacing" textLength="74" x="535" y="362.0234">row_count</text><text fill="#000000" font-family="sans-serif" font-size="14" lengthAdjust="spacing" textLength="9" x="639" y="362.0234">1</text><line style="stroke:#000000;stroke-width:1.0;" x1="634" x2="634" y1="346.4883" y2="366.9766"/><line style="stroke:#000000;stroke-width:1.0;" x1="530" x2="828" y1="366.9766" y2="366.9766"/><text fill="#000000" font-family="sans-serif" font-size="14" font-weight="bold" lengthAdjust="spacing" textLength="94" x="535" y="382.5117">ratio_percent</text><text fill="#000000" font-family="sans-serif" font-size="14" lengthAdjust="spacing" textLength="184" x="639" y="382.5117">0.0011204105184139468</text><line style="stroke:#000000;stroke-width:1.0;" x1="634" x2="634" y1="366.9766" y2="387.4648"/><rect fill="none" height="61.4648" rx="5" ry="5" style="stroke:#000000;stroke-width:1.5;" width="298" x="530" y="326"/><rect fill="#F1F1F1" height="61.4648" rx="5" ry="5" style="stroke:#F1F1F1;stroke-width:1.5;" width="298" x="530" y="405"/><text fill="#000000" font-family="sans-serif" font-size="14" font-weight="bold" lengthAdjust="spacing" textLength="78" x="535" y="420.5352">field_value</text><text fill="#000000" font-family="sans-serif" font-size="14" lengthAdjust="spacing" textLength="45" x="639" y="420.5352">24073</text><line style="stroke:#000000;stroke-width:1.0;" x1="634" x2="634" y1="405" y2="425.4883"/><line style="stroke:#000000;stroke-width:1.0;" x1="530" x2="828" y1="425.4883" y2="425.4883"/><text fill="#000000" font-family="sans-serif" font-size="14" font-weight="bold" lengthAdjust="spacing" textLength="74" x="535" y="441.0234">row_count</text><text fill="#000000" font-family="sans-serif" font-size="14" lengthAdjust="spacing" textLength="9" x="639" y="441.0234">1</text><line style="stroke:#000000;stroke-width:1.0;" x1="634" x2="634" y1="425.4883" y2="445.9766"/><line style="stroke:#000000;stroke-width:1.0;" x1="530" x2="828" y1="445.9766" y2="445.9766"/><text fill="#000000" font-family="sans-serif" font-size="14" font-weight="bold" lengthAdjust="spacing" textLength="94" x="535" y="461.5117">ratio_percent</text><text fill="#000000" font-family="sans-serif" font-size="14" lengthAdjust="spacing" textLength="184" x="639" y="461.5117">0.0011204105184139468</text><line style="stroke:#000000;stroke-width:1.0;" x1="634" x2="634" y1="445.9766" y2="466.4648"/><rect fill="none" height="61.4648" rx="5" ry="5" style="stroke:#000000;stroke-width:1.5;" width="298" x="530" y="405"/><rect fill="#F1F1F1" height="61.4648" rx="5" ry="5" style="stroke:#F1F1F1;stroke-width:1.5;" width="298" x="530" y="484"/><text fill="#000000" font-family="sans-serif" font-size="14" font-weight="bold" lengthAdjust="spacing" textLength="78" x="535" y="499.5352">field_value</text><text fill="#000000" font-family="sans-serif" font-size="14" lengthAdjust="spacing" textLength="45" x="639" y="499.5352">79309</text><line style="stroke:#000000;stroke-width:1.0;" x1="634" x2="634" y1="484" y2="504.4883"/><line style="stroke:#000000;stroke-width:1.0;" x1="530" x2="828" y1="504.4883" y2="504.4883"/><text fill="#000000" font-family="sans-serif" font-size="14" font-weight="bold" lengthAdjust="spacing" textLength="74" x="535" y="520.0234">row_count</text><text fill="#000000" font-family="sans-serif" font-size="14" lengthAdjust="spacing" textLength="9" x="639" y="520.0234">1</text><line style="stroke:#000000;stroke-width:1.0;" x1="634" x2="634" y1="504.4883" y2="524.9766"/><line style="stroke:#000000;stroke-width:1.0;" x1="530" x2="828" y1="524.9766" y2="524.9766"/><text fill="#000000" font-family="sans-serif" font-size="14" font-weight="bold" lengthAdjust="spacing" textLength="94" x="535" y="540.5117">ratio_percent</text><text fill="#000000" font-family="sans-serif" font-size="14" lengthAdjust="spacing" textLength="184" x="639" y="540.5117">0.0011204105184139468</text><line style="stroke:#000000;stroke-width:1.0;" x1="634" x2="634" y1="524.9766" y2="545.4648"/><rect fill="none" height="61.4648" rx="5" ry="5" style="stroke:#000000;stroke-width:1.5;" width="298" x="530" y="484"/><rect fill="#F1F1F1" height="61.4648" rx="5" ry="5" style="stroke:#F1F1F1;stroke-width:1.5;" width="298" x="530" y="563"/><text fill="#000000" font-family="sans-serif" font-size="14" font-weight="bold" lengthAdjust="spacing" textLength="78" x="535" y="578.5352">field_value</text><text fill="#000000" font-family="sans-serif" font-size="14" lengthAdjust="spacing" textLength="45" x="639" y="578.5352">41760</text><line style="stroke:#000000;stroke-width:1.0;" x1="634" x2="634" y1="563" y2="583.4883"/><line style="stroke:#000000;stroke-width:1.0;" x1="530" x2="828" y1="583.4883" y2="583.4883"/><text fill="#000000" font-family="sans-serif" font-size="14" font-weight="bold" lengthAdjust="spacing" textLength="74" x="535" y="599.0234">row_count</text><text fill="#000000" font-family="sans-serif" font-size="14" lengthAdjust="spacing" textLength="9" x="639" y="599.0234">1</text><line style="stroke:#000000;stroke-width:1.0;" x1="634" x2="634" y1="583.4883" y2="603.9766"/><line style="stroke:#000000;stroke-width:1.0;" x1="530" x2="828" y1="603.9766" y2="603.9766"/><text fill="#000000" font-family="sans-serif" font-size="14" font-weight="bold" lengthAdjust="spacing" textLength="94" x="535" y="619.5117">ratio_percent</text><text fill="#000000" font-family="sans-serif" font-size="14" lengthAdjust="spacing" textLength="184" x="639" y="619.5117">0.0011204105184139468</text><line style="stroke:#000000;stroke-width:1.0;" x1="634" x2="634" y1="603.9766" y2="624.4648"/><rect fill="none" height="61.4648" rx="5" ry="5" style="stroke:#000000;stroke-width:1.5;" width="298" x="530" y="563"/><rect fill="#F1F1F1" height="61.4648" rx="5" ry="5" style="stroke:#F1F1F1;stroke-width:1.5;" width="298" x="530" y="642"/><text fill="#000000" font-family="sans-serif" font-size="14" font-weight="bold" lengthAdjust="spacing" textLength="78" x="535" y="657.5352">field_value</text><text fill="#000000" font-family="sans-serif" font-size="14" lengthAdjust="spacing" textLength="45" x="639" y="657.5352">40433</text><line style="stroke:#000000;stroke-width:1.0;" x1="634" x2="634" y1="642" y2="662.4883"/><line style="stroke:#000000;stroke-width:1.0;" x1="530" x2="828" y1="662.4883" y2="662.4883"/><text fill="#000000" font-family="sans-serif" font-size="14" font-weight="bold" lengthAdjust="spacing" textLength="74" x="535" y="678.0234">row_count</text><text fill="#000000" font-family="sans-serif" font-size="14" lengthAdjust="spacing" textLength="9" x="639" y="678.0234">1</text><line style="stroke:#000000;stroke-width:1.0;" x1="634" x2="634" y1="662.4883" y2="682.9766"/><line style="stroke:#000000;stroke-width:1.0;" x1="530" x2="828" y1="682.9766" y2="682.9766"/><text fill="#000000" font-family="sans-serif" font-size="14" font-weight="bold" lengthAdjust="spacing" textLength="94" x="535" y="698.5117">ratio_percent</text><text fill="#000000" font-family="sans-serif" font-size="14" lengthAdjust="spacing" textLength="184" x="639" y="698.5117">0.0011204105184139468</text><line style="stroke:#000000;stroke-width:1.0;" x1="634" x2="634" y1="682.9766" y2="703.4648"/><rect fill="none" height="61.4648" rx="5" ry="5" style="stroke:#000000;stroke-width:1.5;" width="298" x="530" y="642"/><rect fill="#F1F1F1" height="61.4648" rx="5" ry="5" style="stroke:#F1F1F1;stroke-width:1.5;" width="298" x="530" y="721"/><text fill="#000000" font-family="sans-serif" font-size="14" font-weight="bold" lengthAdjust="spacing" textLength="78" x="535" y="736.5352">field_value</text><text fill="#000000" font-family="sans-serif" font-size="14" lengthAdjust="spacing" textLength="45" x="639" y="736.5352">15446</text><line style="stroke:#000000;stroke-width:1.0;" x1="634" x2="634" y1="721" y2="741.4883"/><line style="stroke:#000000;stroke-width:1.0;" x1="530" x2="828" y1="741.4883" y2="741.4883"/><text fill="#000000" font-family="sans-serif" font-size="14" font-weight="bold" lengthAdjust="spacing" textLength="74" x="535" y="757.0234">row_count</text><text fill="#000000" font-family="sans-serif" font-size="14" lengthAdjust="spacing" textLength="9" x="639" y="757.0234">1</text><line style="stroke:#000000;stroke-width:1.0;" x1="634" x2="634" y1="741.4883" y2="761.9766"/><line style="stroke:#000000;stroke-width:1.0;" x1="530" x2="828" y1="761.9766" y2="761.9766"/><text fill="#000000" font-family="sans-serif" font-size="14" font-weight="bold" lengthAdjust="spacing" textLength="94" x="535" y="777.5117">ratio_percent</text><text fill="#000000" font-family="sans-serif" font-size="14" lengthAdjust="spacing" textLength="184" x="639" y="777.5117">0.0011204105184139468</text><line style="stroke:#000000;stroke-width:1.0;" x1="634" x2="634" y1="761.9766" y2="782.4648"/><rect fill="none" height="61.4648" rx="5" ry="5" style="stroke:#000000;stroke-width:1.5;" width="298" x="530" y="721"/><path d="M237,315.5 L250,315.5 C270.8273,315.5 267.6143,295.285 286,285.5 C290.4187,283.1484 295.0447,280.9598 299.7859,278.9261 " fill="none" style="stroke:#000000;stroke-width:1.0;stroke-dasharray:3.0,3.0;"/><path d="M300.9339,281.7334 L301.8914,278.0652 L298.638,276.1189 L306.804,276.0563 L300.9339,281.7334 " fill="#000000" style="stroke:#000000;stroke-width:1.0;"/><ellipse cx="237" cy="315.5" fill="#000000" rx="3" ry="3" style="stroke:#000000;stroke-width:1.0;"/><path d="M390,303.5 L403,303.5 C444.2281,303.5 465.1738,314.9755 494,285.5 C558.9848,219.0516 467.0904,147.9164 530,79.5 C531.0487,78.3595 532.1263,77.2507 533.231,76.1727 " fill="none" style="stroke:#000000;stroke-width:1.0;stroke-dasharray:3.0,3.0;"/><path d="M535.2858,78.469 L534.9532,74.6317 L531.1763,73.8765 L538.9716,71.0358 L535.2858,78.469 " fill="#000000" style="stroke:#000000;stroke-width:1.0;"/><ellipse cx="390" cy="303.5" fill="#000000" rx="3" ry="3" style="stroke:#000000;stroke-width:1.0;"/><path d="M390,324.5 L403,324.5 C447.0022,324.5 464.9505,318.5503 494,285.5 C532.7318,241.4339 488.1149,199.5806 530,158.5 C531.237,157.2868 532.5068,156.1101 533.8072,154.9687 " fill="none" style="stroke:#000000;stroke-width:1.0;stroke-dasharray:3.0,3.0;"/><path d="M535.7195,157.3243 L535.5738,153.5345 L531.8948,152.6132 L539.6961,150.1879 L535.7195,157.3243 " fill="#000000" style="stroke:#000000;stroke-width:1.0;"/><ellipse cx="390" cy="324.5" fill="#000000" rx="3" ry="3" style="stroke:#000000;stroke-width:1.0;"/><path d="M390,344.5 L403,344.5 C451.2012,344.5 458.773,318.4001 494,285.5 C513.4889,267.2985 507.8722,252.3819 530,237.5 C532.4088,235.8799 534.8815,234.3271 537.4082,232.8388 " fill="none" style="stroke:#000000;stroke-width:1.0;stroke-dasharray:3.0,3.0;"/><path d="M538.9246,235.5619 L539.4505,231.7015 L535.8917,230.1158 L544.2158,229.0478 L538.9246,235.5619 " fill="#000000" style="stroke:#000000;stroke-width:1.0;"/><ellipse cx="390" cy="344.5" fill="#000000" rx="3" ry="3" style="stroke:#000000;stroke-width:1.0;"/><path d="M390,365.5 L403,365.5 C463.3414,365.5 472.5762,336.0361 530,317.5 C537.587,315.0509 545.4244,312.629 553.3506,310.2612 " fill="none" style="stroke:#000000;stroke-width:1.0;stroke-dasharray:3.0,3.0;"/><path d="M554.214,313.181 L555.5404,309.6137 L552.4872,307.3414 L560.6501,308.1027 L554.214,313.181 " fill="#000000" style="stroke:#000000;stroke-width:1.0;"/><ellipse cx="390" cy="365.5" fill="#000000" rx="3" ry="3" style="stroke:#000000;stroke-width:1.0;"/><path d="M390,385.5 L403,385.5 C441.8886,385.5 483.6962,382.6068 522.699,378.6481 " fill="none" style="stroke:#000000;stroke-width:1.0;stroke-dasharray:3.0,3.0;"/><path d="M523.0211,381.7527 L525.0274,378.4064 L522.3768,375.5435 L530.4605,377.8427 L523.0211,381.7527 " fill="#000000" style="stroke:#000000;stroke-width:1.0;"/><ellipse cx="390" cy="385.5" fill="#000000" rx="3" ry="3" style="stroke:#000000;stroke-width:1.0;"/><path d="M390,406.5 L403,406.5 C441.8886,406.5 483.6962,409.3932 522.699,413.3519 " fill="none" style="stroke:#000000;stroke-width:1.0;stroke-dasharray:3.0,3.0;"/><path d="M522.3768,416.4565 L525.0274,413.5936 L523.0211,410.2473 L530.4605,414.1573 L522.3768,416.4565 " fill="#000000" style="stroke:#000000;stroke-width:1.0;"/><ellipse cx="390" cy="406.5" fill="#000000" rx="3" ry="3" style="stroke:#000000;stroke-width:1.0;"/><path d="M390,427.5 L403,427.5 C463.3414,427.5 472.5181,457.1445 530,475.5 C536.6199,477.6139 543.4315,479.7017 550.3272,481.7468 " fill="none" style="stroke:#000000;stroke-width:1.0;stroke-dasharray:3.0,3.0;"/><path d="M549.4465,484.751 L552.5803,482.4073 L551.2078,478.7426 L557.8376,483.9484 L549.4465,484.751 " fill="#000000" style="stroke:#000000;stroke-width:1.0;"/><ellipse cx="390" cy="427.5" fill="#000000" rx="3" ry="3" style="stroke:#000000;stroke-width:1.0;"/><path d="M390,447.5 L403,447.5 C476.8072,447.5 464.4817,520.5169 530,554.5 C533.6232,556.3793 537.3443,558.1733 541.1386,559.8855 " fill="none" style="stroke:#000000;stroke-width:1.0;stroke-dasharray:3.0,3.0;"/><path d="M539.9409,562.6469 L543.2096,560.7839 L542.3364,557.1242 L548.042,562.8799 L539.9409,562.6469 " fill="#000000" style="stroke:#000000;stroke-width:1.0;"/><ellipse cx="390" cy="447.5" fill="#000000" rx="3" ry="3" style="stroke:#000000;stroke-width:1.0;"/><path d="M390,468.5 L403,468.5 C495.5405,468.5 452.8896,582.3361 530,633.5 C532.4189,635.105 534.9008,636.644 537.4358,638.1197 " fill="none" style="stroke:#000000;stroke-width:1.0;stroke-dasharray:3.0,3.0;"/><path d="M535.9317,640.851 L539.4843,639.2479 L538.94,635.3885 L544.2639,641.8802 L535.9317,640.851 " fill="#000000" style="stroke:#000000;stroke-width:1.0;"/><ellipse cx="390" cy="468.5" fill="#000000" rx="3" ry="3" style="stroke:#000000;stroke-width:1.0;"/><path d="M390,488.5 L403,488.5 C517.4434,488.5 439.3054,642.7019 530,712.5 C531.8319,713.9098 533.71,715.2688 535.6292,716.5789 " fill="none" style="stroke:#000000;stroke-width:1.0;stroke-dasharray:3.0,3.0;"/><path d="M533.9219,719.2493 L537.632,717.8594 L537.3366,713.9085 L542.3051,720.8473 L533.9219,719.2493 " fill="#000000" style="stroke:#000000;stroke-width:1.0;"/><ellipse cx="390" cy="488.5" fill="#000000" rx="3" ry="3" style="stroke:#000000;stroke-width:1.0;"/><path d="M237,336.5 L250,336.5 C297.0497,336.5 346.2629,365.8357 371.6101,383.482 " fill="none" style="stroke:#000000;stroke-width:1.0;stroke-dasharray:3.0,3.0;"/><path d="M369.8416,385.964 L373.4716,384.8085 L373.3787,381.0001 L377.815,387.9035 L369.8416,385.964 " fill="#000000" style="stroke:#000000;stroke-width:1.0;"/><ellipse cx="237" cy="336.5" fill="#000000" rx="3" ry="3" style="stroke:#000000;stroke-width:1.0;"/><!--MD5=[75e40fe4f50d7df80b399837e0d5c5b7]
@startjson
{
    "field1": "TransactionID",
    "combination": "TransactionID",
    "null_distribution": {
        "total_null_rows": 0,
        "total_not_null_rows": 89253
    },
    "data_distribution": [
        {
            "field_value": "8513",
            "row_count": 1,
            "ratio_percent": 0.0011204105184139468
        },
        {
            "field_value": "11212",
            "row_count": 1,
            "ratio_percent": 0.0011204105184139468
        },
        {
            "field_value": "47678",
            "row_count": 1,
            "ratio_percent": 0.0011204105184139468
        },
        {
            "field_value": "24544",
            "row_count": 1,
            "ratio_percent": 0.0011204105184139468
        },
        {
            "field_value": "63738",
            "row_count": 1,
            "ratio_percent": 0.0011204105184139468
        },
        {
            "field_value": "24073",
            "row_count": 1,
            "ratio_percent": 0.0011204105184139468
        },
        {
            "field_value": "79309",
            "row_count": 1,
            "ratio_percent": 0.0011204105184139468
        },
        {
            "field_value": "41760",
            "row_count": 1,
            "ratio_percent": 0.0011204105184139468
        },
        {
            "field_value": "40433",
            "row_count": 1,
            "ratio_percent": 0.0011204105184139468
        },
        {
            "field_value": "15446",
            "row_count": 1,
            "ratio_percent": 0.0011204105184139468
        }
    ]
}
@endjson

PlantUML version 1.2022.5(Sat Apr 30 06:55:52 EDT 2022)
(GPL source distribution)
Java Runtime: OpenJDK Runtime Environment
JVM: OpenJDK 64-Bit Server VM
Default Encoding: UTF-8
Language: en
Country: CA
--></g></svg>