<?xml version="1.0" encoding="UTF-8" standalone="no"?><svg xmlns="http://www.w3.org/2000/svg" xmlns:xlink="http://www.w3.org/1999/xlink" contentStyleType="text/css" height="399px" preserveAspectRatio="none" style="width:805px;height:399px;background:#FFFFFF;" version="1.1" viewBox="0 0 805 399" width="805px" zoomAndPan="magnify"><defs/><g><rect fill="#F1F1F1" height="81.9531" rx="5" ry="5" style="stroke:#F1F1F1;stroke-width:1.5;" width="240" x="10" y="92.5"/><text fill="#000000" font-family="sans-serif" font-size="14" font-weight="bold" lengthAdjust="spacing" textLength="42" x="15" y="108.0352">field1</text><text fill="#000000" font-family="sans-serif" font-size="14" lengthAdjust="spacing" textLength="96" x="149" y="108.0352">ShipMethodID</text><line style="stroke:#000000;stroke-width:1.0;" x1="144" x2="144" y1="92.5" y2="112.9883"/><line style="stroke:#000000;stroke-width:1.0;" x1="10" x2="250" y1="112.9883" y2="112.9883"/><text fill="#000000" font-family="sans-serif" font-size="14" font-weight="bold" lengthAdjust="spacing" textLength="90" x="15" y="128.5234">combination</text><text fill="#000000" font-family="sans-serif" font-size="14" lengthAdjust="spacing" textLength="96" x="149" y="128.5234">ShipMethodID</text><line style="stroke:#000000;stroke-width:1.0;" x1="144" x2="144" y1="112.9883" y2="133.4766"/><line style="stroke:#000000;stroke-width:1.0;" x1="10" x2="250" y1="133.4766" y2="133.4766"/><text fill="#000000" font-family="sans-serif" font-size="14" font-weight="bold" lengthAdjust="spacing" textLength="121" x="15" y="149.0117">null_distribution</text><text fill="#000000" font-family="sans-serif" font-size="14" lengthAdjust="spacing" textLength="12" x="149" y="149.0117">   </text><line style="stroke:#000000;stroke-width:1.0;" x1="144" x2="144" y1="133.4766" y2="153.9648"/><line style="stroke:#000000;stroke-width:1.0;" x1="10" x2="250" y1="153.9648" y2="153.9648"/><text fill="#000000" font-family="sans-serif" font-size="14" font-weight="bold" lengthAdjust="spacing" textLength="124" x="15" y="169.5">data_distribution</text><text fill="#000000" font-family="sans-serif" font-size="14" lengthAdjust="spacing" textLength="12" x="149" y="169.5">   </text><line style="stroke:#000000;stroke-width:1.0;" x1="144" x2="144" y1="153.9648" y2="174.4531"/><rect fill="none" height="81.9531" rx="5" ry="5" style="stroke:#000000;stroke-width:1.5;" width="240" x="10" y="92.5"/><rect fill="#F1F1F1" height="40.9766" rx="5" ry="5" style="stroke:#F1F1F1;stroke-width:1.5;" width="198" x="287" y="89"/><text fill="#000000" font-family="sans-serif" font-size="14" font-weight="bold" lengthAdjust="spacing" textLength="111" x="292" y="104.5352">total_null_rows</text><text fill="#000000" font-family="sans-serif" font-size="14" lengthAdjust="spacing" textLength="9" x="444" y="104.5352">0</text><line style="stroke:#000000;stroke-width:1.0;" x1="439" x2="439" y1="89" y2="109.4883"/><line style="stroke:#000000;stroke-width:1.0;" x1="287" x2="485" y1="109.4883" y2="109.4883"/><text fill="#000000" font-family="sans-serif" font-size="14" font-weight="bold" lengthAdjust="spacing" textLength="142" x="292" y="125.0234">total_not_null_rows</text><text fill="#000000" font-family="sans-serif" font-size="14" lengthAdjust="spacing" textLength="36" x="444" y="125.0234">4012</text><line style="stroke:#000000;stroke-width:1.0;" x1="439" x2="439" y1="109.4883" y2="129.9766"/><rect fill="none" height="40.9766" rx="5" ry="5" style="stroke:#000000;stroke-width:1.5;" width="198" x="287" y="89"/><rect fill="#F1F1F1" height="102.4414" rx="5" ry="5" style="stroke:#F1F1F1;stroke-width:1.5;" width="22" x="374" y="148.5"/><text fill="#000000" font-family="sans-serif" font-size="14" lengthAdjust="spacing" textLength="12" x="379" y="164.0352">   </text><line style="stroke:#000000;stroke-width:1.0;" x1="374" x2="396" y1="168.9883" y2="168.9883"/><text fill="#000000" font-family="sans-serif" font-size="14" lengthAdjust="spacing" textLength="12" x="379" y="184.5234">   </text><line style="stroke:#000000;stroke-width:1.0;" x1="374" x2="396" y1="189.4766" y2="189.4766"/><text fill="#000000" font-family="sans-serif" font-size="14" lengthAdjust="spacing" textLength="12" x="379" y="205.0117">   </text><line style="stroke:#000000;stroke-width:1.0;" x1="374" x2="396" y1="209.9648" y2="209.9648"/><text fill="#000000" font-family="sans-serif" font-size="14" lengthAdjust="spacing" textLength="12" x="379" y="225.5">   </text><line style="stroke:#000000;stroke-width:1.0;" x1="374" x2="396" y1="230.4531" y2="230.4531"/><text fill="#000000" font-family="sans-serif" font-size="14" lengthAdjust="spacing" textLength="12" x="379" y="245.9883">   </text><rect fill="none" height="102.4414" rx="5" ry="5" style="stroke:#000000;stroke-width:1.5;" width="22" x="374" y="148.5"/><rect fill="#F1F1F1" height="61.4648" rx="5" ry="5" style="stroke:#F1F1F1;stroke-width:1.5;" width="262" x="526.5" y="10"/><text fill="#000000" font-family="sans-serif" font-size="14" font-weight="bold" lengthAdjust="spacing" textLength="78" x="531.5" y="25.5352">field_value</text><text fill="#000000" font-family="sans-serif" font-size="14" lengthAdjust="spacing" textLength="9" x="635.5" y="25.5352">5</text><line style="stroke:#000000;stroke-width:1.0;" x1="630.5" x2="630.5" y1="10" y2="30.4883"/><line style="stroke:#000000;stroke-width:1.0;" x1="526.5" x2="788.5" y1="30.4883" y2="30.4883"/><text fill="#000000" font-family="sans-serif" font-size="14" font-weight="bold" lengthAdjust="spacing" textLength="74" x="531.5" y="46.0234">row_count</text><text fill="#000000" font-family="sans-serif" font-size="14" lengthAdjust="spacing" textLength="36" x="635.5" y="46.0234">1523</text><line style="stroke:#000000;stroke-width:1.0;" x1="630.5" x2="630.5" y1="30.4883" y2="50.9766"/><line style="stroke:#000000;stroke-width:1.0;" x1="526.5" x2="788.5" y1="50.9766" y2="50.9766"/><text fill="#000000" font-family="sans-serif" font-size="14" font-weight="bold" lengthAdjust="spacing" textLength="94" x="531.5" y="66.5117">ratio_percent</text><text fill="#000000" font-family="sans-serif" font-size="14" lengthAdjust="spacing" textLength="148" x="635.5" y="66.5117">37.96111665004985</text><line style="stroke:#000000;stroke-width:1.0;" x1="630.5" x2="630.5" y1="50.9766" y2="71.4648"/><rect fill="none" height="61.4648" rx="5" ry="5" style="stroke:#000000;stroke-width:1.5;" width="262" x="526.5" y="10"/><rect fill="#F1F1F1" height="61.4648" rx="5" ry="5" style="stroke:#F1F1F1;stroke-width:1.5;" width="271" x="522" y="89"/><text fill="#000000" font-family="sans-serif" font-size="14" font-weight="bold" lengthAdjust="spacing" textLength="78" x="527" y="104.5352">field_value</text><text fill="#000000" font-family="sans-serif" font-size="14" lengthAdjust="spacing" textLength="9" x="631" y="104.5352">4</text><line style="stroke:#000000;stroke-width:1.0;" x1="626" x2="626" y1="89" y2="109.4883"/><line style="stroke:#000000;stroke-width:1.0;" x1="522" x2="793" y1="109.4883" y2="109.4883"/><text fill="#000000" font-family="sans-serif" font-size="14" font-weight="bold" lengthAdjust="spacing" textLength="74" x="527" y="125.0234">row_count</text><text fill="#000000" font-family="sans-serif" font-size="14" lengthAdjust="spacing" textLength="36" x="631" y="125.0234">1085</text><line style="stroke:#000000;stroke-width:1.0;" x1="626" x2="626" y1="109.4883" y2="129.9766"/><line style="stroke:#000000;stroke-width:1.0;" x1="522" x2="793" y1="129.9766" y2="129.9766"/><text fill="#000000" font-family="sans-serif" font-size="14" font-weight="bold" lengthAdjust="spacing" textLength="94" x="527" y="145.5117">ratio_percent</text><text fill="#000000" font-family="sans-serif" font-size="14" lengthAdjust="spacing" textLength="157" x="631" y="145.5117">27.043868394815554</text><line style="stroke:#000000;stroke-width:1.0;" x1="626" x2="626" y1="129.9766" y2="150.4648"/><rect fill="none" height="61.4648" rx="5" ry="5" style="stroke:#000000;stroke-width:1.5;" width="271" x="522" y="89"/><rect fill="#F1F1F1" height="61.4648" rx="5" ry="5" style="stroke:#F1F1F1;stroke-width:1.5;" width="271" x="522" y="168"/><text fill="#000000" font-family="sans-serif" font-size="14" font-weight="bold" lengthAdjust="spacing" textLength="78" x="527" y="183.5352">field_value</text><text fill="#000000" font-family="sans-serif" font-size="14" lengthAdjust="spacing" textLength="9" x="631" y="183.5352">2</text><line style="stroke:#000000;stroke-width:1.0;" x1="626" x2="626" y1="168" y2="188.4883"/><line style="stroke:#000000;stroke-width:1.0;" x1="522" x2="793" y1="188.4883" y2="188.4883"/><text fill="#000000" font-family="sans-serif" font-size="14" font-weight="bold" lengthAdjust="spacing" textLength="74" x="527" y="204.0234">row_count</text><text fill="#000000" font-family="sans-serif" font-size="14" lengthAdjust="spacing" textLength="27" x="631" y="204.0234">655</text><line style="stroke:#000000;stroke-width:1.0;" x1="626" x2="626" y1="188.4883" y2="208.9766"/><line style="stroke:#000000;stroke-width:1.0;" x1="522" x2="793" y1="208.9766" y2="208.9766"/><text fill="#000000" font-family="sans-serif" font-size="14" font-weight="bold" lengthAdjust="spacing" textLength="94" x="527" y="224.5117">ratio_percent</text><text fill="#000000" font-family="sans-serif" font-size="14" lengthAdjust="spacing" textLength="157" x="631" y="224.5117">16.326021934197406</text><line style="stroke:#000000;stroke-width:1.0;" x1="626" x2="626" y1="208.9766" y2="229.4648"/><rect fill="none" height="61.4648" rx="5" ry="5" style="stroke:#000000;stroke-width:1.5;" width="271" x="522" y="168"/><rect fill="#F1F1F1" height="61.4648" rx="5" ry="5" style="stroke:#F1F1F1;stroke-width:1.5;" width="271" x="522" y="247"/><text fill="#000000" font-family="sans-serif" font-size="14" font-weight="bold" lengthAdjust="spacing" textLength="78" x="527" y="262.5352">field_value</text><text fill="#000000" font-family="sans-serif" font-size="14" lengthAdjust="spacing" textLength="9" x="631" y="262.5352">1</text><line style="stroke:#000000;stroke-width:1.0;" x1="626" x2="626" y1="247" y2="267.4883"/><line style="stroke:#000000;stroke-width:1.0;" x1="522" x2="793" y1="267.4883" y2="267.4883"/><text fill="#000000" font-family="sans-serif" font-size="14" font-weight="bold" lengthAdjust="spacing" textLength="74" x="527" y="283.0234">row_count</text><text fill="#000000" font-family="sans-serif" font-size="14" lengthAdjust="spacing" textLength="27" x="631" y="283.0234">589</text><line style="stroke:#000000;stroke-width:1.0;" x1="626" x2="626" y1="267.4883" y2="287.9766"/><line style="stroke:#000000;stroke-width:1.0;" x1="522" x2="793" y1="287.9766" y2="287.9766"/><text fill="#000000" font-family="sans-serif" font-size="14" font-weight="bold" lengthAdjust="spacing" textLength="94" x="527" y="303.5117">ratio_percent</text><text fill="#000000" font-family="sans-serif" font-size="14" lengthAdjust="spacing" textLength="157" x="631" y="303.5117">14.680957128614157</text><line style="stroke:#000000;stroke-width:1.0;" x1="626" x2="626" y1="287.9766" y2="308.4648"/><rect fill="none" height="61.4648" rx="5" ry="5" style="stroke:#000000;stroke-width:1.5;" width="271" x="522" y="247"/><rect fill="#F1F1F1" height="61.4648" rx="5" ry="5" style="stroke:#F1F1F1;stroke-width:1.5;" width="262" x="526.5" y="326"/><text fill="#000000" font-family="sans-serif" font-size="14" font-weight="bold" lengthAdjust="spacing" textLength="78" x="531.5" y="341.5352">field_value</text><text fill="#000000" font-family="sans-serif" font-size="14" lengthAdjust="spacing" textLength="9" x="635.5" y="341.5352">3</text><line style="stroke:#000000;stroke-width:1.0;" x1="630.5" x2="630.5" y1="326" y2="346.4883"/><line style="stroke:#000000;stroke-width:1.0;" x1="526.5" x2="788.5" y1="346.4883" y2="346.4883"/><text fill="#000000" font-family="sans-serif" font-size="14" font-weight="bold" lengthAdjust="spacing" textLength="74" x="531.5" y="362.0234">row_count</text><text fill="#000000" font-family="sans-serif" font-size="14" lengthAdjust="spacing" textLength="27" x="635.5" y="362.0234">160</text><line style="stroke:#000000;stroke-width:1.0;" x1="630.5" x2="630.5" y1="346.4883" y2="366.9766"/><line style="stroke:#000000;stroke-width:1.0;" x1="526.5" x2="788.5" y1="366.9766" y2="366.9766"/><text fill="#000000" font-family="sans-serif" font-size="14" font-weight="bold" lengthAdjust="spacing" textLength="94" x="531.5" y="382.5117">ratio_percent</text><text fill="#000000" font-family="sans-serif" font-size="14" lengthAdjust="spacing" textLength="148" x="635.5" y="382.5117">3.988035892323031</text><line style="stroke:#000000;stroke-width:1.0;" x1="630.5" x2="630.5" y1="366.9766" y2="387.4648"/><rect fill="none" height="61.4648" rx="5" ry="5" style="stroke:#000000;stroke-width:1.5;" width="262" x="526.5" y="326"/><path d="M238,143.5 L251,143.5 C263.005,143.5 286.0554,138.3444 309.7285,132.0484 " fill="none" style="stroke:#000000;stroke-width:1.0;stroke-dasharray:3.0,3.0;"/><path d="M310.523,134.9905 L311.9351,131.4526 L308.9341,129.1063 L317.0838,130.0623 L310.523,134.9905 " fill="#000000" style="stroke:#000000;stroke-width:1.0;"/><ellipse cx="238" cy="143.5" fill="#000000" rx="3" ry="3" style="stroke:#000000;stroke-width:1.0;"/><path d="M386.5,158.5 L399.5,158.5 C438.9587,158.5 454.0022,161.5896 486,138.5 C510.9099,120.525 497.5845,98.1411 522,79.5 C523.9875,77.9825 526.0323,76.5241 528.1266,75.1223 " fill="none" style="stroke:#000000;stroke-width:1.0;stroke-dasharray:3.0,3.0;"/><path d="M529.7416,77.6917 L530.0536,73.9111 L526.5116,72.5529 L534.5501,71.0848 L529.7416,77.6917 " fill="#000000" style="stroke:#000000;stroke-width:1.0;"/><ellipse cx="386.5" cy="158.5" fill="#000000" rx="3" ry="3" style="stroke:#000000;stroke-width:1.0;"/><path d="M386.5,178.5 L399.5,178.5 C426.8769,178.5 484.7205,165.6687 538.6607,151.9738 " fill="none" style="stroke:#000000;stroke-width:1.0;stroke-dasharray:3.0,3.0;"/><path d="M539.4355,155.0065 L540.9352,151.3927 L537.886,148.9411 L546.2424,150.0369 L539.4355,155.0065 " fill="#000000" style="stroke:#000000;stroke-width:1.0;"/><ellipse cx="386.5" cy="178.5" fill="#000000" rx="3" ry="3" style="stroke:#000000;stroke-width:1.0;"/><path d="M386.5,198.5 L399.5,198.5 C436.7495,198.5 477.0301,198.5 514.4224,198.5 " fill="none" style="stroke:#000000;stroke-width:1.0;stroke-dasharray:3.0,3.0;"/><path d="M514.4224,201.6733 L516.8024,198.5 L514.4224,195.3267 L522.3556,198.5 L514.4224,201.6733 " fill="#000000" style="stroke:#000000;stroke-width:1.0;"/><ellipse cx="386.5" cy="198.5" fill="#000000" rx="3" ry="3" style="stroke:#000000;stroke-width:1.0;"/><path d="M386.5,219.5 L399.5,219.5 C426.5257,219.5 483.3122,231.8129 536.6975,245.0923 " fill="none" style="stroke:#000000;stroke-width:1.0;stroke-dasharray:3.0,3.0;"/><path d="M535.9459,248.0951 L538.9495,245.656 L537.4491,242.0896 L544.2043,246.9713 L535.9459,248.0951 " fill="#000000" style="stroke:#000000;stroke-width:1.0;"/><ellipse cx="386.5" cy="219.5" fill="#000000" rx="3" ry="3" style="stroke:#000000;stroke-width:1.0;"/><path d="M386.5,240.5 L399.5,240.5 C463.8067,240.5 463.3137,291.2079 522,317.5 C526.3832,319.4637 530.8906,321.356 535.4772,323.1763 " fill="none" style="stroke:#000000;stroke-width:1.0;stroke-dasharray:3.0,3.0;"/><path d="M534.3568,326.0829 L537.6571,324.0167 L536.5977,320.2698 L542.7436,325.9775 L534.3568,326.0829 " fill="#000000" style="stroke:#000000;stroke-width:1.0;"/><ellipse cx="386.5" cy="240.5" fill="#000000" rx="3" ry="3" style="stroke:#000000;stroke-width:1.0;"/><path d="M238,164.5 L251,164.5 C293.6393,164.5 341.5027,181.1784 367.059,191.5087 " fill="none" style="stroke:#000000;stroke-width:1.0;stroke-dasharray:3.0,3.0;"/><path d="M365.8684,194.3825 L369.2144,192.4017 L368.2497,188.6348 L374.2437,194.4854 L365.8684,194.3825 " fill="#000000" style="stroke:#000000;stroke-width:1.0;"/><ellipse cx="238" cy="164.5" fill="#000000" rx="3" ry="3" style="stroke:#000000;stroke-width:1.0;"/><!--MD5=[adf79f683b60528f23c4690ae02aeb3f]
@startjson
{
    "field1": "ShipMethodID",
    "combination": "ShipMethodID",
    "null_distribution": {
        "total_null_rows": 0,
        "total_not_null_rows": 4012
    },
    "data_distribution": [
        {
            "field_value": "5",
            "row_count": 1523,
            "ratio_percent": 37.96111665004985
        },
        {
            "field_value": "4",
            "row_count": 1085,
            "ratio_percent": 27.043868394815554
        },
        {
            "field_value": "2",
            "row_count": 655,
            "ratio_percent": 16.326021934197406
        },
        {
            "field_value": "1",
            "row_count": 589,
            "ratio_percent": 14.680957128614157
        },
        {
            "field_value": "3",
            "row_count": 160,
            "ratio_percent": 3.988035892323031
        }
    ]
}
@endjson

PlantUML version 1.2022.5(Sat Apr 30 06:55:52 EDT 2022)
(GPL source distribution)
Java Runtime: OpenJDK Runtime Environment
JVM: OpenJDK 64-Bit Server VM
Default Encoding: UTF-8
Language: en
Country: CA
--></g></svg>