<?xml version="1.0" encoding="UTF-8" standalone="no"?><svg xmlns="http://www.w3.org/2000/svg" xmlns:xlink="http://www.w3.org/1999/xlink" contentStyleType="text/css" height="794px" preserveAspectRatio="none" style="width:772px;height:794px;background:#FFFFFF;" version="1.1" viewBox="0 0 772 794" width="772px" zoomAndPan="magnify"><defs/><g><rect fill="#F1F1F1" height="81.9531" rx="5" ry="5" style="stroke:#F1F1F1;stroke-width:1.5;" width="207" x="10" y="264.5"/><text fill="#000000" font-family="sans-serif" font-size="14" font-weight="bold" lengthAdjust="spacing" textLength="42" x="15" y="280.0352">field1</text><text fill="#000000" font-family="sans-serif" font-size="14" lengthAdjust="spacing" textLength="63" x="149" y="280.0352">LineTotal</text><line style="stroke:#000000;stroke-width:1.0;" x1="144" x2="144" y1="264.5" y2="284.9883"/><line style="stroke:#000000;stroke-width:1.0;" x1="10" x2="217" y1="284.9883" y2="284.9883"/><text fill="#000000" font-family="sans-serif" font-size="14" font-weight="bold" lengthAdjust="spacing" textLength="90" x="15" y="300.5234">combination</text><text fill="#000000" font-family="sans-serif" font-size="14" lengthAdjust="spacing" textLength="63" x="149" y="300.5234">LineTotal</text><line style="stroke:#000000;stroke-width:1.0;" x1="144" x2="144" y1="284.9883" y2="305.4766"/><line style="stroke:#000000;stroke-width:1.0;" x1="10" x2="217" y1="305.4766" y2="305.4766"/><text fill="#000000" font-family="sans-serif" font-size="14" font-weight="bold" lengthAdjust="spacing" textLength="121" x="15" y="321.0117">null_distribution</text><text fill="#000000" font-family="sans-serif" font-size="14" lengthAdjust="spacing" textLength="12" x="149" y="321.0117">   </text><line style="stroke:#000000;stroke-width:1.0;" x1="144" x2="144" y1="305.4766" y2="325.9648"/><line style="stroke:#000000;stroke-width:1.0;" x1="10" x2="217" y1="325.9648" y2="325.9648"/><text fill="#000000" font-family="sans-serif" font-size="14" font-weight="bold" lengthAdjust="spacing" textLength="124" x="15" y="341.5">data_distribution</text><text fill="#000000" font-family="sans-serif" font-size="14" lengthAdjust="spacing" textLength="12" x="149" y="341.5">   </text><line style="stroke:#000000;stroke-width:1.0;" x1="144" x2="144" y1="325.9648" y2="346.4531"/><rect fill="none" height="81.9531" rx="5" ry="5" style="stroke:#000000;stroke-width:1.5;" width="207" x="10" y="264.5"/><rect fill="#F1F1F1" height="40.9766" rx="5" ry="5" style="stroke:#F1F1F1;stroke-width:1.5;" width="198" x="254" y="235"/><text fill="#000000" font-family="sans-serif" font-size="14" font-weight="bold" lengthAdjust="spacing" textLength="111" x="259" y="250.5352">total_null_rows</text><text fill="#000000" font-family="sans-serif" font-size="14" lengthAdjust="spacing" textLength="9" x="411" y="250.5352">0</text><line style="stroke:#000000;stroke-width:1.0;" x1="406" x2="406" y1="235" y2="255.4883"/><line style="stroke:#000000;stroke-width:1.0;" x1="254" x2="452" y1="255.4883" y2="255.4883"/><text fill="#000000" font-family="sans-serif" font-size="14" font-weight="bold" lengthAdjust="spacing" textLength="142" x="259" y="271.0234">total_not_null_rows</text><text fill="#000000" font-family="sans-serif" font-size="14" lengthAdjust="spacing" textLength="36" x="411" y="271.0234">8845</text><line style="stroke:#000000;stroke-width:1.0;" x1="406" x2="406" y1="255.4883" y2="275.9766"/><rect fill="none" height="40.9766" rx="5" ry="5" style="stroke:#000000;stroke-width:1.5;" width="198" x="254" y="235"/><rect fill="#F1F1F1" height="204.8828" rx="5" ry="5" style="stroke:#F1F1F1;stroke-width:1.5;" width="22" x="341" y="294"/><text fill="#000000" font-family="sans-serif" font-size="14" lengthAdjust="spacing" textLength="12" x="346" y="309.5352">   </text><line style="stroke:#000000;stroke-width:1.0;" x1="341" x2="363" y1="314.4883" y2="314.4883"/><text fill="#000000" font-family="sans-serif" font-size="14" lengthAdjust="spacing" textLength="12" x="346" y="330.0234">   </text><line style="stroke:#000000;stroke-width:1.0;" x1="341" x2="363" y1="334.9766" y2="334.9766"/><text fill="#000000" font-family="sans-serif" font-size="14" lengthAdjust="spacing" textLength="12" x="346" y="350.5117">   </text><line style="stroke:#000000;stroke-width:1.0;" x1="341" x2="363" y1="355.4648" y2="355.4648"/><text fill="#000000" font-family="sans-serif" font-size="14" lengthAdjust="spacing" textLength="12" x="346" y="371">   </text><line style="stroke:#000000;stroke-width:1.0;" x1="341" x2="363" y1="375.9531" y2="375.9531"/><text fill="#000000" font-family="sans-serif" font-size="14" lengthAdjust="spacing" textLength="12" x="346" y="391.4883">   </text><line style="stroke:#000000;stroke-width:1.0;" x1="341" x2="363" y1="396.4414" y2="396.4414"/><text fill="#000000" font-family="sans-serif" font-size="14" lengthAdjust="spacing" textLength="12" x="346" y="411.9766">   </text><line style="stroke:#000000;stroke-width:1.0;" x1="341" x2="363" y1="416.9297" y2="416.9297"/><text fill="#000000" font-family="sans-serif" font-size="14" lengthAdjust="spacing" textLength="12" x="346" y="432.4648">   </text><line style="stroke:#000000;stroke-width:1.0;" x1="341" x2="363" y1="437.418" y2="437.418"/><text fill="#000000" font-family="sans-serif" font-size="14" lengthAdjust="spacing" textLength="12" x="346" y="452.9531">   </text><line style="stroke:#000000;stroke-width:1.0;" x1="341" x2="363" y1="457.9063" y2="457.9063"/><text fill="#000000" font-family="sans-serif" font-size="14" lengthAdjust="spacing" textLength="12" x="346" y="473.4414">   </text><line style="stroke:#000000;stroke-width:1.0;" x1="341" x2="363" y1="478.3945" y2="478.3945"/><text fill="#000000" font-family="sans-serif" font-size="14" lengthAdjust="spacing" textLength="12" x="346" y="493.9297">   </text><rect fill="none" height="204.8828" rx="5" ry="5" style="stroke:#000000;stroke-width:1.5;" width="22" x="341" y="294"/><rect fill="#F1F1F1" height="61.4648" rx="5" ry="5" style="stroke:#F1F1F1;stroke-width:1.5;" width="253" x="498" y="10"/><text fill="#000000" font-family="sans-serif" font-size="14" font-weight="bold" lengthAdjust="spacing" textLength="78" x="503" y="25.5352">field_value</text><text fill="#000000" font-family="sans-serif" font-size="14" lengthAdjust="spacing" textLength="67" x="607" y="25.5352">17319.23</text><line style="stroke:#000000;stroke-width:1.0;" x1="602" x2="602" y1="10" y2="30.4883"/><line style="stroke:#000000;stroke-width:1.0;" x1="498" x2="751" y1="30.4883" y2="30.4883"/><text fill="#000000" font-family="sans-serif" font-size="14" font-weight="bold" lengthAdjust="spacing" textLength="74" x="503" y="46.0234">row_count</text><text fill="#000000" font-family="sans-serif" font-size="14" lengthAdjust="spacing" textLength="27" x="607" y="46.0234">192</text><line style="stroke:#000000;stroke-width:1.0;" x1="602" x2="602" y1="30.4883" y2="50.9766"/><line style="stroke:#000000;stroke-width:1.0;" x1="498" x2="751" y1="50.9766" y2="50.9766"/><text fill="#000000" font-family="sans-serif" font-size="14" font-weight="bold" lengthAdjust="spacing" textLength="94" x="503" y="66.5117">ratio_percent</text><text fill="#000000" font-family="sans-serif" font-size="14" lengthAdjust="spacing" textLength="139" x="607" y="66.5117">2.17071791972866</text><line style="stroke:#000000;stroke-width:1.0;" x1="602" x2="602" y1="50.9766" y2="71.4648"/><rect fill="none" height="61.4648" rx="5" ry="5" style="stroke:#000000;stroke-width:1.5;" width="253" x="498" y="10"/><rect fill="#F1F1F1" height="61.4648" rx="5" ry="5" style="stroke:#F1F1F1;stroke-width:1.5;" width="253" x="498" y="89"/><text fill="#000000" font-family="sans-serif" font-size="14" font-weight="bold" lengthAdjust="spacing" textLength="78" x="503" y="104.5352">field_value</text><text fill="#000000" font-family="sans-serif" font-size="14" lengthAdjust="spacing" textLength="67" x="607" y="104.5352">26559.23</text><line style="stroke:#000000;stroke-width:1.0;" x1="602" x2="602" y1="89" y2="109.4883"/><line style="stroke:#000000;stroke-width:1.0;" x1="498" x2="751" y1="109.4883" y2="109.4883"/><text fill="#000000" font-family="sans-serif" font-size="14" font-weight="bold" lengthAdjust="spacing" textLength="74" x="503" y="125.0234">row_count</text><text fill="#000000" font-family="sans-serif" font-size="14" lengthAdjust="spacing" textLength="27" x="607" y="125.0234">192</text><line style="stroke:#000000;stroke-width:1.0;" x1="602" x2="602" y1="109.4883" y2="129.9766"/><line style="stroke:#000000;stroke-width:1.0;" x1="498" x2="751" y1="129.9766" y2="129.9766"/><text fill="#000000" font-family="sans-serif" font-size="14" font-weight="bold" lengthAdjust="spacing" textLength="94" x="503" y="145.5117">ratio_percent</text><text fill="#000000" font-family="sans-serif" font-size="14" lengthAdjust="spacing" textLength="139" x="607" y="145.5117">2.17071791972866</text><line style="stroke:#000000;stroke-width:1.0;" x1="602" x2="602" y1="129.9766" y2="150.4648"/><rect fill="none" height="61.4648" rx="5" ry="5" style="stroke:#000000;stroke-width:1.5;" width="253" x="498" y="89"/><rect fill="#F1F1F1" height="61.4648" rx="5" ry="5" style="stroke:#F1F1F1;stroke-width:1.5;" width="271" x="489" y="168"/><text fill="#000000" font-family="sans-serif" font-size="14" font-weight="bold" lengthAdjust="spacing" textLength="78" x="494" y="183.5352">field_value</text><text fill="#000000" font-family="sans-serif" font-size="14" lengthAdjust="spacing" textLength="49" x="598" y="183.5352">129.81</text><line style="stroke:#000000;stroke-width:1.0;" x1="593" x2="593" y1="168" y2="188.4883"/><line style="stroke:#000000;stroke-width:1.0;" x1="489" x2="760" y1="188.4883" y2="188.4883"/><text fill="#000000" font-family="sans-serif" font-size="14" font-weight="bold" lengthAdjust="spacing" textLength="74" x="494" y="204.0234">row_count</text><text fill="#000000" font-family="sans-serif" font-size="14" lengthAdjust="spacing" textLength="27" x="598" y="204.0234">181</text><line style="stroke:#000000;stroke-width:1.0;" x1="593" x2="593" y1="188.4883" y2="208.9766"/><line style="stroke:#000000;stroke-width:1.0;" x1="489" x2="760" y1="208.9766" y2="208.9766"/><text fill="#000000" font-family="sans-serif" font-size="14" font-weight="bold" lengthAdjust="spacing" textLength="94" x="494" y="224.5117">ratio_percent</text><text fill="#000000" font-family="sans-serif" font-size="14" lengthAdjust="spacing" textLength="157" x="598" y="224.5117">2.0463538722442056</text><line style="stroke:#000000;stroke-width:1.0;" x1="593" x2="593" y1="208.9766" y2="229.4648"/><rect fill="none" height="61.4648" rx="5" ry="5" style="stroke:#000000;stroke-width:1.5;" width="271" x="489" y="168"/><rect fill="#F1F1F1" height="61.4648" rx="5" ry="5" style="stroke:#F1F1F1;stroke-width:1.5;" width="271" x="489" y="247"/><text fill="#000000" font-family="sans-serif" font-size="14" font-weight="bold" lengthAdjust="spacing" textLength="78" x="494" y="262.5352">field_value</text><text fill="#000000" font-family="sans-serif" font-size="14" lengthAdjust="spacing" textLength="67" x="598" y="262.5352">11601.98</text><line style="stroke:#000000;stroke-width:1.0;" x1="593" x2="593" y1="247" y2="267.4883"/><line style="stroke:#000000;stroke-width:1.0;" x1="489" x2="760" y1="267.4883" y2="267.4883"/><text fill="#000000" font-family="sans-serif" font-size="14" font-weight="bold" lengthAdjust="spacing" textLength="74" x="494" y="283.0234">row_count</text><text fill="#000000" font-family="sans-serif" font-size="14" lengthAdjust="spacing" textLength="27" x="598" y="283.0234">172</text><line style="stroke:#000000;stroke-width:1.0;" x1="593" x2="593" y1="267.4883" y2="287.9766"/><line style="stroke:#000000;stroke-width:1.0;" x1="489" x2="760" y1="287.9766" y2="287.9766"/><text fill="#000000" font-family="sans-serif" font-size="14" font-weight="bold" lengthAdjust="spacing" textLength="94" x="494" y="303.5117">ratio_percent</text><text fill="#000000" font-family="sans-serif" font-size="14" lengthAdjust="spacing" textLength="157" x="598" y="303.5117">1.9446014697569247</text><line style="stroke:#000000;stroke-width:1.0;" x1="593" x2="593" y1="287.9766" y2="308.4648"/><rect fill="none" height="61.4648" rx="5" ry="5" style="stroke:#000000;stroke-width:1.5;" width="271" x="489" y="247"/><rect fill="#F1F1F1" height="61.4648" rx="5" ry="5" style="stroke:#F1F1F1;stroke-width:1.5;" width="271" x="489" y="326"/><text fill="#000000" font-family="sans-serif" font-size="14" font-weight="bold" lengthAdjust="spacing" textLength="78" x="494" y="341.5352">field_value</text><text fill="#000000" font-family="sans-serif" font-size="14" lengthAdjust="spacing" textLength="67" x="598" y="341.5352">16741.73</text><line style="stroke:#000000;stroke-width:1.0;" x1="593" x2="593" y1="326" y2="346.4883"/><line style="stroke:#000000;stroke-width:1.0;" x1="489" x2="760" y1="346.4883" y2="346.4883"/><text fill="#000000" font-family="sans-serif" font-size="14" font-weight="bold" lengthAdjust="spacing" textLength="74" x="494" y="362.0234">row_count</text><text fill="#000000" font-family="sans-serif" font-size="14" lengthAdjust="spacing" textLength="27" x="598" y="362.0234">172</text><line style="stroke:#000000;stroke-width:1.0;" x1="593" x2="593" y1="346.4883" y2="366.9766"/><line style="stroke:#000000;stroke-width:1.0;" x1="489" x2="760" y1="366.9766" y2="366.9766"/><text fill="#000000" font-family="sans-serif" font-size="14" font-weight="bold" lengthAdjust="spacing" textLength="94" x="494" y="382.5117">ratio_percent</text><text fill="#000000" font-family="sans-serif" font-size="14" lengthAdjust="spacing" textLength="157" x="598" y="382.5117">1.9446014697569247</text><line style="stroke:#000000;stroke-width:1.0;" x1="593" x2="593" y1="366.9766" y2="387.4648"/><rect fill="none" height="61.4648" rx="5" ry="5" style="stroke:#000000;stroke-width:1.5;" width="271" x="489" y="326"/><rect fill="#F1F1F1" height="61.4648" rx="5" ry="5" style="stroke:#F1F1F1;stroke-width:1.5;" width="262" x="493.5" y="405"/><text fill="#000000" font-family="sans-serif" font-size="14" font-weight="bold" lengthAdjust="spacing" textLength="78" x="498.5" y="420.5352">field_value</text><text fill="#000000" font-family="sans-serif" font-size="14" lengthAdjust="spacing" textLength="49" x="602.5" y="420.5352">123.51</text><line style="stroke:#000000;stroke-width:1.0;" x1="597.5" x2="597.5" y1="405" y2="425.4883"/><line style="stroke:#000000;stroke-width:1.0;" x1="493.5" x2="755.5" y1="425.4883" y2="425.4883"/><text fill="#000000" font-family="sans-serif" font-size="14" font-weight="bold" lengthAdjust="spacing" textLength="74" x="498.5" y="441.0234">row_count</text><text fill="#000000" font-family="sans-serif" font-size="14" lengthAdjust="spacing" textLength="27" x="602.5" y="441.0234">171</text><line style="stroke:#000000;stroke-width:1.0;" x1="597.5" x2="597.5" y1="425.4883" y2="445.9766"/><line style="stroke:#000000;stroke-width:1.0;" x1="493.5" x2="755.5" y1="445.9766" y2="445.9766"/><text fill="#000000" font-family="sans-serif" font-size="14" font-weight="bold" lengthAdjust="spacing" textLength="94" x="498.5" y="461.5117">ratio_percent</text><text fill="#000000" font-family="sans-serif" font-size="14" lengthAdjust="spacing" textLength="148" x="602.5" y="461.5117">1.933295647258338</text><line style="stroke:#000000;stroke-width:1.0;" x1="597.5" x2="597.5" y1="445.9766" y2="466.4648"/><rect fill="none" height="61.4648" rx="5" ry="5" style="stroke:#000000;stroke-width:1.5;" width="262" x="493.5" y="405"/><rect fill="#F1F1F1" height="61.4648" rx="5" ry="5" style="stroke:#F1F1F1;stroke-width:1.5;" width="262" x="493.5" y="484"/><text fill="#000000" font-family="sans-serif" font-size="14" font-weight="bold" lengthAdjust="spacing" textLength="78" x="498.5" y="499.5352">field_value</text><text fill="#000000" font-family="sans-serif" font-size="14" lengthAdjust="spacing" textLength="67" x="602.5" y="499.5352">22516.73</text><line style="stroke:#000000;stroke-width:1.0;" x1="597.5" x2="597.5" y1="484" y2="504.4883"/><line style="stroke:#000000;stroke-width:1.0;" x1="493.5" x2="755.5" y1="504.4883" y2="504.4883"/><text fill="#000000" font-family="sans-serif" font-size="14" font-weight="bold" lengthAdjust="spacing" textLength="74" x="498.5" y="520.0234">row_count</text><text fill="#000000" font-family="sans-serif" font-size="14" lengthAdjust="spacing" textLength="27" x="602.5" y="520.0234">171</text><line style="stroke:#000000;stroke-width:1.0;" x1="597.5" x2="597.5" y1="504.4883" y2="524.9766"/><line style="stroke:#000000;stroke-width:1.0;" x1="493.5" x2="755.5" y1="524.9766" y2="524.9766"/><text fill="#000000" font-family="sans-serif" font-size="14" font-weight="bold" lengthAdjust="spacing" textLength="94" x="498.5" y="540.5117">ratio_percent</text><text fill="#000000" font-family="sans-serif" font-size="14" lengthAdjust="spacing" textLength="148" x="602.5" y="540.5117">1.933295647258338</text><line style="stroke:#000000;stroke-width:1.0;" x1="597.5" x2="597.5" y1="524.9766" y2="545.4648"/><rect fill="none" height="61.4648" rx="5" ry="5" style="stroke:#000000;stroke-width:1.5;" width="262" x="493.5" y="484"/><rect fill="#F1F1F1" height="61.4648" rx="5" ry="5" style="stroke:#F1F1F1;stroke-width:1.5;" width="271" x="489" y="563"/><text fill="#000000" font-family="sans-serif" font-size="14" font-weight="bold" lengthAdjust="spacing" textLength="78" x="494" y="578.5352">field_value</text><text fill="#000000" font-family="sans-serif" font-size="14" lengthAdjust="spacing" textLength="49" x="598" y="578.5352">117.21</text><line style="stroke:#000000;stroke-width:1.0;" x1="593" x2="593" y1="563" y2="583.4883"/><line style="stroke:#000000;stroke-width:1.0;" x1="489" x2="760" y1="583.4883" y2="583.4883"/><text fill="#000000" font-family="sans-serif" font-size="14" font-weight="bold" lengthAdjust="spacing" textLength="74" x="494" y="599.0234">row_count</text><text fill="#000000" font-family="sans-serif" font-size="14" lengthAdjust="spacing" textLength="27" x="598" y="599.0234">163</text><line style="stroke:#000000;stroke-width:1.0;" x1="593" x2="593" y1="583.4883" y2="603.9766"/><line style="stroke:#000000;stroke-width:1.0;" x1="489" x2="760" y1="603.9766" y2="603.9766"/><text fill="#000000" font-family="sans-serif" font-size="14" font-weight="bold" lengthAdjust="spacing" textLength="94" x="494" y="619.5117">ratio_percent</text><text fill="#000000" font-family="sans-serif" font-size="14" lengthAdjust="spacing" textLength="157" x="598" y="619.5117">1.8428490672696438</text><line style="stroke:#000000;stroke-width:1.0;" x1="593" x2="593" y1="603.9766" y2="624.4648"/><rect fill="none" height="61.4648" rx="5" ry="5" style="stroke:#000000;stroke-width:1.5;" width="271" x="489" y="563"/><rect fill="#F1F1F1" height="61.4648" rx="5" ry="5" style="stroke:#F1F1F1;stroke-width:1.5;" width="271" x="489" y="642"/><text fill="#000000" font-family="sans-serif" font-size="14" font-weight="bold" lengthAdjust="spacing" textLength="78" x="494" y="657.5352">field_value</text><text fill="#000000" font-family="sans-serif" font-size="14" lengthAdjust="spacing" textLength="49" x="598" y="657.5352">110.91</text><line style="stroke:#000000;stroke-width:1.0;" x1="593" x2="593" y1="642" y2="662.4883"/><line style="stroke:#000000;stroke-width:1.0;" x1="489" x2="760" y1="662.4883" y2="662.4883"/><text fill="#000000" font-family="sans-serif" font-size="14" font-weight="bold" lengthAdjust="spacing" textLength="74" x="494" y="678.0234">row_count</text><text fill="#000000" font-family="sans-serif" font-size="14" lengthAdjust="spacing" textLength="27" x="598" y="678.0234">153</text><line style="stroke:#000000;stroke-width:1.0;" x1="593" x2="593" y1="662.4883" y2="682.9766"/><line style="stroke:#000000;stroke-width:1.0;" x1="489" x2="760" y1="682.9766" y2="682.9766"/><text fill="#000000" font-family="sans-serif" font-size="14" font-weight="bold" lengthAdjust="spacing" textLength="94" x="494" y="698.5117">ratio_percent</text><text fill="#000000" font-family="sans-serif" font-size="14" lengthAdjust="spacing" textLength="157" x="598" y="698.5117">1.7297908422837762</text><line style="stroke:#000000;stroke-width:1.0;" x1="593" x2="593" y1="682.9766" y2="703.4648"/><rect fill="none" height="61.4648" rx="5" ry="5" style="stroke:#000000;stroke-width:1.5;" width="271" x="489" y="642"/><rect fill="#F1F1F1" height="61.4648" rx="5" ry="5" style="stroke:#F1F1F1;stroke-width:1.5;" width="271" x="489" y="721"/><text fill="#000000" font-family="sans-serif" font-size="14" font-weight="bold" lengthAdjust="spacing" textLength="78" x="494" y="736.5352">field_value</text><text fill="#000000" font-family="sans-serif" font-size="14" lengthAdjust="spacing" textLength="49" x="598" y="736.5352">136.11</text><line style="stroke:#000000;stroke-width:1.0;" x1="593" x2="593" y1="721" y2="741.4883"/><line style="stroke:#000000;stroke-width:1.0;" x1="489" x2="760" y1="741.4883" y2="741.4883"/><text fill="#000000" font-family="sans-serif" font-size="14" font-weight="bold" lengthAdjust="spacing" textLength="74" x="494" y="757.0234">row_count</text><text fill="#000000" font-family="sans-serif" font-size="14" lengthAdjust="spacing" textLength="27" x="598" y="757.0234">147</text><line style="stroke:#000000;stroke-width:1.0;" x1="593" x2="593" y1="741.4883" y2="761.9766"/><line style="stroke:#000000;stroke-width:1.0;" x1="489" x2="760" y1="761.9766" y2="761.9766"/><text fill="#000000" font-family="sans-serif" font-size="14" font-weight="bold" lengthAdjust="spacing" textLength="94" x="494" y="777.5117">ratio_percent</text><text fill="#000000" font-family="sans-serif" font-size="14" lengthAdjust="spacing" textLength="157" x="598" y="777.5117">1.6619559072922556</text><line style="stroke:#000000;stroke-width:1.0;" x1="593" x2="593" y1="761.9766" y2="782.4648"/><rect fill="none" height="61.4648" rx="5" ry="5" style="stroke:#000000;stroke-width:1.5;" width="271" x="489" y="721"/><path d="M205,315.5 L218,315.5 C238.8273,315.5 235.6745,295.3971 254,285.5 C258.2321,283.2144 262.6626,281.0778 267.2032,279.0842 " fill="none" style="stroke:#000000;stroke-width:1.0;stroke-dasharray:3.0,3.0;"/><path d="M268.4096,281.9694 L269.3671,278.1794 L265.9968,276.199 L274.4162,276.0682 L268.4096,281.9694 " fill="#000000" style="stroke:#000000;stroke-width:1.0;"/><ellipse cx="205" cy="315.5" fill="#000000" rx="3" ry="3" style="stroke:#000000;stroke-width:1.0;"/><path d="M353.5,303.5 L366.5,303.5 C405.768,303.5 425.6833,313.7095 453,285.5 C517.6556,218.7312 426.93,148.679 489,79.5 C490.1583,78.2091 491.3563,76.9597 492.5911,75.7507 " fill="none" style="stroke:#000000;stroke-width:1.0;stroke-dasharray:3.0,3.0;"/><path d="M494.6098,78.0064 L494.2829,74.2367 L490.5723,73.495 L498.2303,70.7039 L494.6098,78.0064 " fill="#000000" style="stroke:#000000;stroke-width:1.0;"/><ellipse cx="353.5" cy="303.5" fill="#000000" rx="3" ry="3" style="stroke:#000000;stroke-width:1.0;"/><path d="M353.5,324.5 L366.5,324.5 C408.6713,324.5 425.4563,317.4338 453,285.5 C491.3185,241.074 447.6193,200.0887 489,158.5 C490.2233,157.2705 491.4828,156.0793 492.7755,154.925 " fill="none" style="stroke:#000000;stroke-width:1.0;stroke-dasharray:3.0,3.0;"/><path d="M494.7064,157.2737 L494.537,153.4769 L490.8447,152.5764 L498.6472,150.0978 L494.7064,157.2737 " fill="#000000" style="stroke:#000000;stroke-width:1.0;"/><ellipse cx="353.5" cy="324.5" fill="#000000" rx="3" ry="3" style="stroke:#000000;stroke-width:1.0;"/><path d="M353.5,344.5 L366.5,344.5 C413.0358,344.5 419.3638,317.6588 453,285.5 C472.2747,267.0719 467.0554,252.6508 489,237.5 C491.3464,235.88 493.7599,234.3267 496.2295,232.8373 " fill="none" style="stroke:#000000;stroke-width:1.0;stroke-dasharray:3.0,3.0;"/><path d="M497.7476,235.5016 L498.2277,231.6987 L494.7115,230.173 L502.8903,229.0421 L497.7476,235.5016 " fill="#000000" style="stroke:#000000;stroke-width:1.0;"/><ellipse cx="353.5" cy="344.5" fill="#000000" rx="3" ry="3" style="stroke:#000000;stroke-width:1.0;"/><path d="M353.5,365.5 L366.5,365.5 C424.9749,365.5 433.6946,336.49 489,317.5 C495.9359,315.1184 503.1002,312.7457 510.344,310.4125 " fill="none" style="stroke:#000000;stroke-width:1.0;stroke-dasharray:3.0,3.0;"/><path d="M511.2716,313.3185 L512.5234,309.7169 L509.4164,307.5066 L517.6088,308.0936 L511.2716,313.3185 " fill="#000000" style="stroke:#000000;stroke-width:1.0;"/><ellipse cx="353.5" cy="365.5" fill="#000000" rx="3" ry="3" style="stroke:#000000;stroke-width:1.0;"/><path d="M353.5,385.5 L366.5,385.5 C403.88,385.5 444.1217,382.445 481.4295,378.3181 " fill="none" style="stroke:#000000;stroke-width:1.0;stroke-dasharray:3.0,3.0;"/><path d="M481.788,381.4839 L483.8039,378.0492 L481.071,375.1523 L489.344,377.4219 L481.788,381.4839 " fill="#000000" style="stroke:#000000;stroke-width:1.0;"/><ellipse cx="353.5" cy="385.5" fill="#000000" rx="3" ry="3" style="stroke:#000000;stroke-width:1.0;"/><path d="M353.5,406.5 L366.5,406.5 C405.5126,406.5 447.6422,409.8277 486.3005,414.2286 " fill="none" style="stroke:#000000;stroke-width:1.0;stroke-dasharray:3.0,3.0;"/><path d="M485.9429,417.302 L488.6055,414.4968 L486.658,411.1552 L493.9839,415.1224 L485.9429,417.302 " fill="#000000" style="stroke:#000000;stroke-width:1.0;"/><ellipse cx="353.5" cy="406.5" fill="#000000" rx="3" ry="3" style="stroke:#000000;stroke-width:1.0;"/><path d="M353.5,427.5 L366.5,427.5 C424.9749,427.5 433.6301,456.6988 489,475.5 C495.0603,477.5578 501.2962,479.6034 507.6081,481.6177 " fill="none" style="stroke:#000000;stroke-width:1.0;stroke-dasharray:3.0,3.0;"/><path d="M506.6685,484.5932 L509.8397,482.3225 L508.5478,478.6423 L515.0467,483.9668 L506.6685,484.5932 " fill="#000000" style="stroke:#000000;stroke-width:1.0;"/><ellipse cx="353.5" cy="427.5" fill="#000000" rx="3" ry="3" style="stroke:#000000;stroke-width:1.0;"/><path d="M353.5,447.5 L366.5,447.5 C438.7892,447.5 425.5463,519.8683 489,554.5 C492.3928,556.3517 495.8827,558.1236 499.4448,559.8185 " fill="none" style="stroke:#000000;stroke-width:1.0;stroke-dasharray:3.0,3.0;"/><path d="M498.1787,562.5915 L501.5245,560.768 L500.7108,557.0455 L506.3772,562.9836 L498.1787,562.5915 " fill="#000000" style="stroke:#000000;stroke-width:1.0;"/><ellipse cx="353.5" cy="447.5" fill="#000000" rx="3" ry="3" style="stroke:#000000;stroke-width:1.0;"/><path d="M353.5,468.5 L366.5,468.5 C457.8344,468.5 413.9655,581.4251 489,633.5 C491.3424,635.1257 493.7523,636.6842 496.2187,638.1783 " fill="none" style="stroke:#000000;stroke-width:1.0;stroke-dasharray:3.0,3.0;"/><path d="M494.6961,640.8395 L498.2146,639.3203 L497.7413,635.5171 L502.8716,641.9848 L494.6961,640.8395 " fill="#000000" style="stroke:#000000;stroke-width:1.0;"/><ellipse cx="353.5" cy="468.5" fill="#000000" rx="3" ry="3" style="stroke:#000000;stroke-width:1.0;"/><path d="M353.5,488.5 L366.5,488.5 C479.9703,488.5 400.4693,641.5224 489,712.5 C490.7844,713.9306 492.6192,715.3088 494.4983,716.6364 " fill="none" style="stroke:#000000;stroke-width:1.0;stroke-dasharray:3.0,3.0;"/><path d="M492.7695,719.2566 L496.4634,717.9329 L496.227,714.0162 L501.0488,720.9582 L492.7695,719.2566 " fill="#000000" style="stroke:#000000;stroke-width:1.0;"/><ellipse cx="353.5" cy="488.5" fill="#000000" rx="3" ry="3" style="stroke:#000000;stroke-width:1.0;"/><path d="M205,336.5 L218,336.5 C263.3406,336.5 310.4028,365.289 335.0463,382.9834 " fill="none" style="stroke:#000000;stroke-width:1.0;stroke-dasharray:3.0,3.0;"/><path d="M333.181,385.5179 L336.9472,384.3824 L336.9117,380.4489 L341.3825,387.6468 L333.181,385.5179 " fill="#000000" style="stroke:#000000;stroke-width:1.0;"/><ellipse cx="205" cy="336.5" fill="#000000" rx="3" ry="3" style="stroke:#000000;stroke-width:1.0;"/><!--MD5=[a5a5146dc4e387c0cbc73226880851e3]
@startjson
{
    "field1": "LineTotal",
    "combination": "LineTotal",
    "null_distribution": {
        "total_null_rows": 0,
        "total_not_null_rows": 8845
    },
    "data_distribution": [
        {
            "field_value": "17319.23",
            "row_count": 192,
            "ratio_percent": 2.17071791972866
        },
        {
            "field_value": "26559.23",
            "row_count": 192,
            "ratio_percent": 2.17071791972866
        },
        {
            "field_value": "129.81",
            "row_count": 181,
            "ratio_percent": 2.0463538722442056
        },
        {
            "field_value": "11601.98",
            "row_count": 172,
            "ratio_percent": 1.9446014697569247
        },
        {
            "field_value": "16741.73",
            "row_count": 172,
            "ratio_percent": 1.9446014697569247
        },
        {
            "field_value": "123.51",
            "row_count": 171,
            "ratio_percent": 1.933295647258338
        },
        {
            "field_value": "22516.73",
            "row_count": 171,
            "ratio_percent": 1.933295647258338
        },
        {
            "field_value": "117.21",
            "row_count": 163,
            "ratio_percent": 1.8428490672696438
        },
        {
            "field_value": "110.91",
            "row_count": 153,
            "ratio_percent": 1.7297908422837762
        },
        {
            "field_value": "136.11",
            "row_count": 147,
            "ratio_percent": 1.6619559072922556
        }
    ]
}
@endjson

PlantUML version 1.2022.5(Sat Apr 30 06:55:52 EDT 2022)
(GPL source distribution)
Java Runtime: OpenJDK Runtime Environment
JVM: OpenJDK 64-Bit Server VM
Default Encoding: UTF-8
Language: en
Country: CA
--></g></svg>