<?xml version="1.0" encoding="UTF-8" standalone="no"?><svg xmlns="http://www.w3.org/2000/svg" xmlns:xlink="http://www.w3.org/1999/xlink" contentStyleType="text/css" height="794px" preserveAspectRatio="none" style="width:763px;height:794px;background:#FFFFFF;" version="1.1" viewBox="0 0 763 794" width="763px" zoomAndPan="magnify"><defs/><g><rect fill="#F1F1F1" height="81.9531" rx="5" ry="5" style="stroke:#F1F1F1;stroke-width:1.5;" width="198" x="10" y="264.5"/><text fill="#000000" font-family="sans-serif" font-size="14" font-weight="bold" lengthAdjust="spacing" textLength="42" x="15" y="280.0352">field1</text><text fill="#000000" font-family="sans-serif" font-size="14" lengthAdjust="spacing" textLength="54" x="149" y="280.0352">TaxAmt</text><line style="stroke:#000000;stroke-width:1.0;" x1="144" x2="144" y1="264.5" y2="284.9883"/><line style="stroke:#000000;stroke-width:1.0;" x1="10" x2="208" y1="284.9883" y2="284.9883"/><text fill="#000000" font-family="sans-serif" font-size="14" font-weight="bold" lengthAdjust="spacing" textLength="90" x="15" y="300.5234">combination</text><text fill="#000000" font-family="sans-serif" font-size="14" lengthAdjust="spacing" textLength="54" x="149" y="300.5234">TaxAmt</text><line style="stroke:#000000;stroke-width:1.0;" x1="144" x2="144" y1="284.9883" y2="305.4766"/><line style="stroke:#000000;stroke-width:1.0;" x1="10" x2="208" y1="305.4766" y2="305.4766"/><text fill="#000000" font-family="sans-serif" font-size="14" font-weight="bold" lengthAdjust="spacing" textLength="121" x="15" y="321.0117">null_distribution</text><text fill="#000000" font-family="sans-serif" font-size="14" lengthAdjust="spacing" textLength="12" x="149" y="321.0117">   </text><line style="stroke:#000000;stroke-width:1.0;" x1="144" x2="144" y1="305.4766" y2="325.9648"/><line style="stroke:#000000;stroke-width:1.0;" x1="10" x2="208" y1="325.9648" y2="325.9648"/><text fill="#000000" font-family="sans-serif" font-size="14" font-weight="bold" lengthAdjust="spacing" textLength="124" x="15" y="341.5">data_distribution</text><text fill="#000000" font-family="sans-serif" font-size="14" lengthAdjust="spacing" textLength="12" x="149" y="341.5">   </text><line style="stroke:#000000;stroke-width:1.0;" x1="144" x2="144" y1="325.9648" y2="346.4531"/><rect fill="none" height="81.9531" rx="5" ry="5" style="stroke:#000000;stroke-width:1.5;" width="198" x="10" y="264.5"/><rect fill="#F1F1F1" height="40.9766" rx="5" ry="5" style="stroke:#F1F1F1;stroke-width:1.5;" width="198" x="245" y="235"/><text fill="#000000" font-family="sans-serif" font-size="14" font-weight="bold" lengthAdjust="spacing" textLength="111" x="250" y="250.5352">total_null_rows</text><text fill="#000000" font-family="sans-serif" font-size="14" lengthAdjust="spacing" textLength="9" x="402" y="250.5352">0</text><line style="stroke:#000000;stroke-width:1.0;" x1="397" x2="397" y1="235" y2="255.4883"/><line style="stroke:#000000;stroke-width:1.0;" x1="245" x2="443" y1="255.4883" y2="255.4883"/><text fill="#000000" font-family="sans-serif" font-size="14" font-weight="bold" lengthAdjust="spacing" textLength="142" x="250" y="271.0234">total_not_null_rows</text><text fill="#000000" font-family="sans-serif" font-size="14" lengthAdjust="spacing" textLength="36" x="402" y="271.0234">4012</text><line style="stroke:#000000;stroke-width:1.0;" x1="397" x2="397" y1="255.4883" y2="275.9766"/><rect fill="none" height="40.9766" rx="5" ry="5" style="stroke:#000000;stroke-width:1.5;" width="198" x="245" y="235"/><rect fill="#F1F1F1" height="204.8828" rx="5" ry="5" style="stroke:#F1F1F1;stroke-width:1.5;" width="22" x="332" y="294"/><text fill="#000000" font-family="sans-serif" font-size="14" lengthAdjust="spacing" textLength="12" x="337" y="309.5352">   </text><line style="stroke:#000000;stroke-width:1.0;" x1="332" x2="354" y1="314.4883" y2="314.4883"/><text fill="#000000" font-family="sans-serif" font-size="14" lengthAdjust="spacing" textLength="12" x="337" y="330.0234">   </text><line style="stroke:#000000;stroke-width:1.0;" x1="332" x2="354" y1="334.9766" y2="334.9766"/><text fill="#000000" font-family="sans-serif" font-size="14" lengthAdjust="spacing" textLength="12" x="337" y="350.5117">   </text><line style="stroke:#000000;stroke-width:1.0;" x1="332" x2="354" y1="355.4648" y2="355.4648"/><text fill="#000000" font-family="sans-serif" font-size="14" lengthAdjust="spacing" textLength="12" x="337" y="371">   </text><line style="stroke:#000000;stroke-width:1.0;" x1="332" x2="354" y1="375.9531" y2="375.9531"/><text fill="#000000" font-family="sans-serif" font-size="14" lengthAdjust="spacing" textLength="12" x="337" y="391.4883">   </text><line style="stroke:#000000;stroke-width:1.0;" x1="332" x2="354" y1="396.4414" y2="396.4414"/><text fill="#000000" font-family="sans-serif" font-size="14" lengthAdjust="spacing" textLength="12" x="337" y="411.9766">   </text><line style="stroke:#000000;stroke-width:1.0;" x1="332" x2="354" y1="416.9297" y2="416.9297"/><text fill="#000000" font-family="sans-serif" font-size="14" lengthAdjust="spacing" textLength="12" x="337" y="432.4648">   </text><line style="stroke:#000000;stroke-width:1.0;" x1="332" x2="354" y1="437.418" y2="437.418"/><text fill="#000000" font-family="sans-serif" font-size="14" lengthAdjust="spacing" textLength="12" x="337" y="452.9531">   </text><line style="stroke:#000000;stroke-width:1.0;" x1="332" x2="354" y1="457.9063" y2="457.9063"/><text fill="#000000" font-family="sans-serif" font-size="14" lengthAdjust="spacing" textLength="12" x="337" y="473.4414">   </text><line style="stroke:#000000;stroke-width:1.0;" x1="332" x2="354" y1="478.3945" y2="478.3945"/><text fill="#000000" font-family="sans-serif" font-size="14" lengthAdjust="spacing" textLength="12" x="337" y="493.9297">   </text><rect fill="none" height="204.8828" rx="5" ry="5" style="stroke:#000000;stroke-width:1.5;" width="22" x="332" y="294"/><rect fill="#F1F1F1" height="61.4648" rx="5" ry="5" style="stroke:#F1F1F1;stroke-width:1.5;" width="262" x="484.5" y="10"/><text fill="#000000" font-family="sans-serif" font-size="14" font-weight="bold" lengthAdjust="spacing" textLength="78" x="489.5" y="25.5352">field_value</text><text fill="#000000" font-family="sans-serif" font-size="14" lengthAdjust="spacing" textLength="58" x="593.5" y="25.5352">3510.28</text><line style="stroke:#000000;stroke-width:1.0;" x1="588.5" x2="588.5" y1="10" y2="30.4883"/><line style="stroke:#000000;stroke-width:1.0;" x1="484.5" x2="746.5" y1="30.4883" y2="30.4883"/><text fill="#000000" font-family="sans-serif" font-size="14" font-weight="bold" lengthAdjust="spacing" textLength="74" x="489.5" y="46.0234">row_count</text><text fill="#000000" font-family="sans-serif" font-size="14" lengthAdjust="spacing" textLength="27" x="593.5" y="46.0234">163</text><line style="stroke:#000000;stroke-width:1.0;" x1="588.5" x2="588.5" y1="30.4883" y2="50.9766"/><line style="stroke:#000000;stroke-width:1.0;" x1="484.5" x2="746.5" y1="50.9766" y2="50.9766"/><text fill="#000000" font-family="sans-serif" font-size="14" font-weight="bold" lengthAdjust="spacing" textLength="94" x="489.5" y="66.5117">ratio_percent</text><text fill="#000000" font-family="sans-serif" font-size="14" lengthAdjust="spacing" textLength="148" x="593.5" y="66.5117">4.062811565304088</text><line style="stroke:#000000;stroke-width:1.0;" x1="588.5" x2="588.5" y1="50.9766" y2="71.4648"/><rect fill="none" height="61.4648" rx="5" ry="5" style="stroke:#000000;stroke-width:1.5;" width="262" x="484.5" y="10"/><rect fill="#F1F1F1" height="61.4648" rx="5" ry="5" style="stroke:#F1F1F1;stroke-width:1.5;" width="262" x="484.5" y="89"/><text fill="#000000" font-family="sans-serif" font-size="14" font-weight="bold" lengthAdjust="spacing" textLength="78" x="489.5" y="104.5352">field_value</text><text fill="#000000" font-family="sans-serif" font-size="14" lengthAdjust="spacing" textLength="58" x="593.5" y="104.5352">2771.54</text><line style="stroke:#000000;stroke-width:1.0;" x1="588.5" x2="588.5" y1="89" y2="109.4883"/><line style="stroke:#000000;stroke-width:1.0;" x1="484.5" x2="746.5" y1="109.4883" y2="109.4883"/><text fill="#000000" font-family="sans-serif" font-size="14" font-weight="bold" lengthAdjust="spacing" textLength="74" x="489.5" y="125.0234">row_count</text><text fill="#000000" font-family="sans-serif" font-size="14" lengthAdjust="spacing" textLength="27" x="593.5" y="125.0234">102</text><line style="stroke:#000000;stroke-width:1.0;" x1="588.5" x2="588.5" y1="109.4883" y2="129.9766"/><line style="stroke:#000000;stroke-width:1.0;" x1="484.5" x2="746.5" y1="129.9766" y2="129.9766"/><text fill="#000000" font-family="sans-serif" font-size="14" font-weight="bold" lengthAdjust="spacing" textLength="94" x="489.5" y="145.5117">ratio_percent</text><text fill="#000000" font-family="sans-serif" font-size="14" lengthAdjust="spacing" textLength="148" x="593.5" y="145.5117">2.542372881355932</text><line style="stroke:#000000;stroke-width:1.0;" x1="588.5" x2="588.5" y1="129.9766" y2="150.4648"/><rect fill="none" height="61.4648" rx="5" ry="5" style="stroke:#000000;stroke-width:1.5;" width="262" x="484.5" y="89"/><rect fill="#F1F1F1" height="61.4648" rx="5" ry="5" style="stroke:#F1F1F1;stroke-width:1.5;" width="271" x="480" y="168"/><text fill="#000000" font-family="sans-serif" font-size="14" font-weight="bold" lengthAdjust="spacing" textLength="78" x="485" y="183.5352">field_value</text><text fill="#000000" font-family="sans-serif" font-size="14" lengthAdjust="spacing" textLength="40" x="589" y="183.5352">12.06</text><line style="stroke:#000000;stroke-width:1.0;" x1="584" x2="584" y1="168" y2="188.4883"/><line style="stroke:#000000;stroke-width:1.0;" x1="480" x2="751" y1="188.4883" y2="188.4883"/><text fill="#000000" font-family="sans-serif" font-size="14" font-weight="bold" lengthAdjust="spacing" textLength="74" x="485" y="204.0234">row_count</text><text fill="#000000" font-family="sans-serif" font-size="14" lengthAdjust="spacing" textLength="27" x="589" y="204.0234">101</text><line style="stroke:#000000;stroke-width:1.0;" x1="584" x2="584" y1="188.4883" y2="208.9766"/><line style="stroke:#000000;stroke-width:1.0;" x1="480" x2="751" y1="208.9766" y2="208.9766"/><text fill="#000000" font-family="sans-serif" font-size="14" font-weight="bold" lengthAdjust="spacing" textLength="94" x="485" y="224.5117">ratio_percent</text><text fill="#000000" font-family="sans-serif" font-size="14" lengthAdjust="spacing" textLength="157" x="589" y="224.5117">2.5174476570289133</text><line style="stroke:#000000;stroke-width:1.0;" x1="584" x2="584" y1="208.9766" y2="229.4648"/><rect fill="none" height="61.4648" rx="5" ry="5" style="stroke:#000000;stroke-width:1.5;" width="271" x="480" y="168"/><rect fill="#F1F1F1" height="61.4648" rx="5" ry="5" style="stroke:#F1F1F1;stroke-width:1.5;" width="271" x="480" y="247"/><text fill="#000000" font-family="sans-serif" font-size="14" font-weight="bold" lengthAdjust="spacing" textLength="78" x="485" y="262.5352">field_value</text><text fill="#000000" font-family="sans-serif" font-size="14" lengthAdjust="spacing" textLength="58" x="589" y="262.5352">2267.50</text><line style="stroke:#000000;stroke-width:1.0;" x1="584" x2="584" y1="247" y2="267.4883"/><line style="stroke:#000000;stroke-width:1.0;" x1="480" x2="751" y1="267.4883" y2="267.4883"/><text fill="#000000" font-family="sans-serif" font-size="14" font-weight="bold" lengthAdjust="spacing" textLength="74" x="485" y="283.0234">row_count</text><text fill="#000000" font-family="sans-serif" font-size="14" lengthAdjust="spacing" textLength="18" x="589" y="283.0234">67</text><line style="stroke:#000000;stroke-width:1.0;" x1="584" x2="584" y1="267.4883" y2="287.9766"/><line style="stroke:#000000;stroke-width:1.0;" x1="480" x2="751" y1="287.9766" y2="287.9766"/><text fill="#000000" font-family="sans-serif" font-size="14" font-weight="bold" lengthAdjust="spacing" textLength="94" x="485" y="303.5117">ratio_percent</text><text fill="#000000" font-family="sans-serif" font-size="14" lengthAdjust="spacing" textLength="157" x="589" y="303.5117">1.6699900299102692</text><line style="stroke:#000000;stroke-width:1.0;" x1="584" x2="584" y1="287.9766" y2="308.4648"/><rect fill="none" height="61.4648" rx="5" ry="5" style="stroke:#000000;stroke-width:1.5;" width="271" x="480" y="247"/><rect fill="#F1F1F1" height="61.4648" rx="5" ry="5" style="stroke:#F1F1F1;stroke-width:1.5;" width="271" x="480" y="326"/><text fill="#000000" font-family="sans-serif" font-size="14" font-weight="bold" lengthAdjust="spacing" textLength="78" x="485" y="341.5352">field_value</text><text fill="#000000" font-family="sans-serif" font-size="14" lengthAdjust="spacing" textLength="58" x="589" y="341.5352">1801.34</text><line style="stroke:#000000;stroke-width:1.0;" x1="584" x2="584" y1="326" y2="346.4883"/><line style="stroke:#000000;stroke-width:1.0;" x1="480" x2="751" y1="346.4883" y2="346.4883"/><text fill="#000000" font-family="sans-serif" font-size="14" font-weight="bold" lengthAdjust="spacing" textLength="74" x="485" y="362.0234">row_count</text><text fill="#000000" font-family="sans-serif" font-size="14" lengthAdjust="spacing" textLength="18" x="589" y="362.0234">66</text><line style="stroke:#000000;stroke-width:1.0;" x1="584" x2="584" y1="346.4883" y2="366.9766"/><line style="stroke:#000000;stroke-width:1.0;" x1="480" x2="751" y1="366.9766" y2="366.9766"/><text fill="#000000" font-family="sans-serif" font-size="14" font-weight="bold" lengthAdjust="spacing" textLength="94" x="485" y="382.5117">ratio_percent</text><text fill="#000000" font-family="sans-serif" font-size="14" lengthAdjust="spacing" textLength="157" x="589" y="382.5117">1.6450648055832502</text><line style="stroke:#000000;stroke-width:1.0;" x1="584" x2="584" y1="366.9766" y2="387.4648"/><rect fill="none" height="61.4648" rx="5" ry="5" style="stroke:#000000;stroke-width:1.5;" width="271" x="480" y="326"/><rect fill="#F1F1F1" height="61.4648" rx="5" ry="5" style="stroke:#F1F1F1;stroke-width:1.5;" width="262" x="484.5" y="405"/><text fill="#000000" font-family="sans-serif" font-size="14" font-weight="bold" lengthAdjust="spacing" textLength="78" x="489.5" y="420.5352">field_value</text><text fill="#000000" font-family="sans-serif" font-size="14" lengthAdjust="spacing" textLength="40" x="593.5" y="420.5352">11.39</text><line style="stroke:#000000;stroke-width:1.0;" x1="588.5" x2="588.5" y1="405" y2="425.4883"/><line style="stroke:#000000;stroke-width:1.0;" x1="484.5" x2="746.5" y1="425.4883" y2="425.4883"/><text fill="#000000" font-family="sans-serif" font-size="14" font-weight="bold" lengthAdjust="spacing" textLength="74" x="489.5" y="441.0234">row_count</text><text fill="#000000" font-family="sans-serif" font-size="14" lengthAdjust="spacing" textLength="18" x="593.5" y="441.0234">51</text><line style="stroke:#000000;stroke-width:1.0;" x1="588.5" x2="588.5" y1="425.4883" y2="445.9766"/><line style="stroke:#000000;stroke-width:1.0;" x1="484.5" x2="746.5" y1="445.9766" y2="445.9766"/><text fill="#000000" font-family="sans-serif" font-size="14" font-weight="bold" lengthAdjust="spacing" textLength="94" x="489.5" y="461.5117">ratio_percent</text><text fill="#000000" font-family="sans-serif" font-size="14" lengthAdjust="spacing" textLength="148" x="593.5" y="461.5117">1.271186440677966</text><line style="stroke:#000000;stroke-width:1.0;" x1="588.5" x2="588.5" y1="445.9766" y2="466.4648"/><rect fill="none" height="61.4648" rx="5" ry="5" style="stroke:#000000;stroke-width:1.5;" width="262" x="484.5" y="405"/><rect fill="#F1F1F1" height="61.4648" rx="5" ry="5" style="stroke:#F1F1F1;stroke-width:1.5;" width="262" x="484.5" y="484"/><text fill="#000000" font-family="sans-serif" font-size="14" font-weight="bold" lengthAdjust="spacing" textLength="78" x="489.5" y="499.5352">field_value</text><text fill="#000000" font-family="sans-serif" font-size="14" lengthAdjust="spacing" textLength="58" x="593.5" y="499.5352">1093.55</text><line style="stroke:#000000;stroke-width:1.0;" x1="588.5" x2="588.5" y1="484" y2="504.4883"/><line style="stroke:#000000;stroke-width:1.0;" x1="484.5" x2="746.5" y1="504.4883" y2="504.4883"/><text fill="#000000" font-family="sans-serif" font-size="14" font-weight="bold" lengthAdjust="spacing" textLength="74" x="489.5" y="520.0234">row_count</text><text fill="#000000" font-family="sans-serif" font-size="14" lengthAdjust="spacing" textLength="18" x="593.5" y="520.0234">51</text><line style="stroke:#000000;stroke-width:1.0;" x1="588.5" x2="588.5" y1="504.4883" y2="524.9766"/><line style="stroke:#000000;stroke-width:1.0;" x1="484.5" x2="746.5" y1="524.9766" y2="524.9766"/><text fill="#000000" font-family="sans-serif" font-size="14" font-weight="bold" lengthAdjust="spacing" textLength="94" x="489.5" y="540.5117">ratio_percent</text><text fill="#000000" font-family="sans-serif" font-size="14" lengthAdjust="spacing" textLength="148" x="593.5" y="540.5117">1.271186440677966</text><line style="stroke:#000000;stroke-width:1.0;" x1="588.5" x2="588.5" y1="524.9766" y2="545.4648"/><rect fill="none" height="61.4648" rx="5" ry="5" style="stroke:#000000;stroke-width:1.5;" width="262" x="484.5" y="484"/><rect fill="#F1F1F1" height="61.4648" rx="5" ry="5" style="stroke:#F1F1F1;stroke-width:1.5;" width="262" x="484.5" y="563"/><text fill="#000000" font-family="sans-serif" font-size="14" font-weight="bold" lengthAdjust="spacing" textLength="78" x="489.5" y="578.5352">field_value</text><text fill="#000000" font-family="sans-serif" font-size="14" lengthAdjust="spacing" textLength="49" x="593.5" y="578.5352">102.10</text><line style="stroke:#000000;stroke-width:1.0;" x1="588.5" x2="588.5" y1="563" y2="583.4883"/><line style="stroke:#000000;stroke-width:1.0;" x1="484.5" x2="746.5" y1="583.4883" y2="583.4883"/><text fill="#000000" font-family="sans-serif" font-size="14" font-weight="bold" lengthAdjust="spacing" textLength="74" x="489.5" y="599.0234">row_count</text><text fill="#000000" font-family="sans-serif" font-size="14" lengthAdjust="spacing" textLength="18" x="593.5" y="599.0234">51</text><line style="stroke:#000000;stroke-width:1.0;" x1="588.5" x2="588.5" y1="583.4883" y2="603.9766"/><line style="stroke:#000000;stroke-width:1.0;" x1="484.5" x2="746.5" y1="603.9766" y2="603.9766"/><text fill="#000000" font-family="sans-serif" font-size="14" font-weight="bold" lengthAdjust="spacing" textLength="94" x="489.5" y="619.5117">ratio_percent</text><text fill="#000000" font-family="sans-serif" font-size="14" lengthAdjust="spacing" textLength="148" x="593.5" y="619.5117">1.271186440677966</text><line style="stroke:#000000;stroke-width:1.0;" x1="588.5" x2="588.5" y1="603.9766" y2="624.4648"/><rect fill="none" height="61.4648" rx="5" ry="5" style="stroke:#000000;stroke-width:1.5;" width="262" x="484.5" y="563"/><rect fill="#F1F1F1" height="61.4648" rx="5" ry="5" style="stroke:#F1F1F1;stroke-width:1.5;" width="262" x="484.5" y="642"/><text fill="#000000" font-family="sans-serif" font-size="14" font-weight="bold" lengthAdjust="spacing" textLength="78" x="489.5" y="657.5352">field_value</text><text fill="#000000" font-family="sans-serif" font-size="14" lengthAdjust="spacing" textLength="40" x="593.5" y="657.5352">11.44</text><line style="stroke:#000000;stroke-width:1.0;" x1="588.5" x2="588.5" y1="642" y2="662.4883"/><line style="stroke:#000000;stroke-width:1.0;" x1="484.5" x2="746.5" y1="662.4883" y2="662.4883"/><text fill="#000000" font-family="sans-serif" font-size="14" font-weight="bold" lengthAdjust="spacing" textLength="74" x="489.5" y="678.0234">row_count</text><text fill="#000000" font-family="sans-serif" font-size="14" lengthAdjust="spacing" textLength="18" x="593.5" y="678.0234">51</text><line style="stroke:#000000;stroke-width:1.0;" x1="588.5" x2="588.5" y1="662.4883" y2="682.9766"/><line style="stroke:#000000;stroke-width:1.0;" x1="484.5" x2="746.5" y1="682.9766" y2="682.9766"/><text fill="#000000" font-family="sans-serif" font-size="14" font-weight="bold" lengthAdjust="spacing" textLength="94" x="489.5" y="698.5117">ratio_percent</text><text fill="#000000" font-family="sans-serif" font-size="14" lengthAdjust="spacing" textLength="148" x="593.5" y="698.5117">1.271186440677966</text><line style="stroke:#000000;stroke-width:1.0;" x1="588.5" x2="588.5" y1="682.9766" y2="703.4648"/><rect fill="none" height="61.4648" rx="5" ry="5" style="stroke:#000000;stroke-width:1.5;" width="262" x="484.5" y="642"/><rect fill="#F1F1F1" height="61.4648" rx="5" ry="5" style="stroke:#F1F1F1;stroke-width:1.5;" width="262" x="484.5" y="721"/><text fill="#000000" font-family="sans-serif" font-size="14" font-weight="bold" lengthAdjust="spacing" textLength="78" x="489.5" y="736.5352">field_value</text><text fill="#000000" font-family="sans-serif" font-size="14" lengthAdjust="spacing" textLength="40" x="593.5" y="736.5352">11.70</text><line style="stroke:#000000;stroke-width:1.0;" x1="588.5" x2="588.5" y1="721" y2="741.4883"/><line style="stroke:#000000;stroke-width:1.0;" x1="484.5" x2="746.5" y1="741.4883" y2="741.4883"/><text fill="#000000" font-family="sans-serif" font-size="14" font-weight="bold" lengthAdjust="spacing" textLength="74" x="489.5" y="757.0234">row_count</text><text fill="#000000" font-family="sans-serif" font-size="14" lengthAdjust="spacing" textLength="18" x="593.5" y="757.0234">51</text><line style="stroke:#000000;stroke-width:1.0;" x1="588.5" x2="588.5" y1="741.4883" y2="761.9766"/><line style="stroke:#000000;stroke-width:1.0;" x1="484.5" x2="746.5" y1="761.9766" y2="761.9766"/><text fill="#000000" font-family="sans-serif" font-size="14" font-weight="bold" lengthAdjust="spacing" textLength="94" x="489.5" y="777.5117">ratio_percent</text><text fill="#000000" font-family="sans-serif" font-size="14" lengthAdjust="spacing" textLength="148" x="593.5" y="777.5117">1.271186440677966</text><line style="stroke:#000000;stroke-width:1.0;" x1="588.5" x2="588.5" y1="761.9766" y2="782.4648"/><rect fill="none" height="61.4648" rx="5" ry="5" style="stroke:#000000;stroke-width:1.5;" width="262" x="484.5" y="721"/><path d="M196,315.5 L209,315.5 C229.8273,315.5 226.6745,295.3971 245,285.5 C249.2321,283.2144 253.6626,281.0778 258.2032,279.0842 " fill="none" style="stroke:#000000;stroke-width:1.0;stroke-dasharray:3.0,3.0;"/><path d="M259.4096,281.9694 L260.3671,278.1794 L256.9968,276.199 L265.4162,276.0682 L259.4096,281.9694 " fill="#000000" style="stroke:#000000;stroke-width:1.0;"/><ellipse cx="196" cy="315.5" fill="#000000" rx="3" ry="3" style="stroke:#000000;stroke-width:1.0;"/><path d="M344.5,303.5 L357.5,303.5 C396.768,303.5 416.6833,313.7095 444,285.5 C508.6556,218.7312 417.93,148.679 480,79.5 C481.0081,78.3765 482.0463,77.2844 483.1126,76.2231 " fill="none" style="stroke:#000000;stroke-width:1.0;stroke-dasharray:3.0,3.0;"/><path d="M485.1347,78.4455 L484.7795,74.7065 L481.0905,74.0006 L488.6688,71.1678 L485.1347,78.4455 " fill="#000000" style="stroke:#000000;stroke-width:1.0;"/><ellipse cx="344.5" cy="303.5" fill="#000000" rx="3" ry="3" style="stroke:#000000;stroke-width:1.0;"/><path d="M344.5,324.5 L357.5,324.5 C399.6713,324.5 416.4563,317.4338 444,285.5 C482.3185,241.074 438.6193,200.0887 480,158.5 C481.2233,157.2705 482.4828,156.0793 483.7755,154.925 " fill="none" style="stroke:#000000;stroke-width:1.0;stroke-dasharray:3.0,3.0;"/><path d="M485.7064,157.2737 L485.537,153.4769 L481.8447,152.5764 L489.6472,150.0978 L485.7064,157.2737 " fill="#000000" style="stroke:#000000;stroke-width:1.0;"/><ellipse cx="344.5" cy="324.5" fill="#000000" rx="3" ry="3" style="stroke:#000000;stroke-width:1.0;"/><path d="M344.5,344.5 L357.5,344.5 C404.0358,344.5 410.3638,317.6588 444,285.5 C463.2747,267.0719 458.0554,252.6508 480,237.5 C482.3464,235.88 484.7599,234.3267 487.2295,232.8373 " fill="none" style="stroke:#000000;stroke-width:1.0;stroke-dasharray:3.0,3.0;"/><path d="M488.7476,235.5016 L489.2277,231.6987 L485.7115,230.173 L493.8903,229.0421 L488.7476,235.5016 " fill="#000000" style="stroke:#000000;stroke-width:1.0;"/><ellipse cx="344.5" cy="344.5" fill="#000000" rx="3" ry="3" style="stroke:#000000;stroke-width:1.0;"/><path d="M344.5,365.5 L357.5,365.5 C415.9749,365.5 424.6946,336.49 480,317.5 C486.9359,315.1184 494.1002,312.7457 501.344,310.4125 " fill="none" style="stroke:#000000;stroke-width:1.0;stroke-dasharray:3.0,3.0;"/><path d="M502.2716,313.3185 L503.5234,309.7169 L500.4164,307.5066 L508.6088,308.0936 L502.2716,313.3185 " fill="#000000" style="stroke:#000000;stroke-width:1.0;"/><ellipse cx="344.5" cy="365.5" fill="#000000" rx="3" ry="3" style="stroke:#000000;stroke-width:1.0;"/><path d="M344.5,385.5 L357.5,385.5 C394.88,385.5 435.1217,382.445 472.4295,378.3181 " fill="none" style="stroke:#000000;stroke-width:1.0;stroke-dasharray:3.0,3.0;"/><path d="M472.788,381.4839 L474.8039,378.0492 L472.071,375.1523 L480.344,377.4219 L472.788,381.4839 " fill="#000000" style="stroke:#000000;stroke-width:1.0;"/><ellipse cx="344.5" cy="385.5" fill="#000000" rx="3" ry="3" style="stroke:#000000;stroke-width:1.0;"/><path d="M344.5,406.5 L357.5,406.5 C396.5126,406.5 438.6422,409.8277 477.3005,414.2286 " fill="none" style="stroke:#000000;stroke-width:1.0;stroke-dasharray:3.0,3.0;"/><path d="M476.9429,417.302 L479.6055,414.4968 L477.658,411.1552 L484.9839,415.1224 L476.9429,417.302 " fill="#000000" style="stroke:#000000;stroke-width:1.0;"/><ellipse cx="344.5" cy="406.5" fill="#000000" rx="3" ry="3" style="stroke:#000000;stroke-width:1.0;"/><path d="M344.5,427.5 L357.5,427.5 C415.9749,427.5 424.6301,456.6988 480,475.5 C486.0603,477.5578 492.2962,479.6034 498.6081,481.6177 " fill="none" style="stroke:#000000;stroke-width:1.0;stroke-dasharray:3.0,3.0;"/><path d="M497.6685,484.5932 L500.8397,482.3225 L499.5478,478.6423 L506.0467,483.9668 L497.6685,484.5932 " fill="#000000" style="stroke:#000000;stroke-width:1.0;"/><ellipse cx="344.5" cy="427.5" fill="#000000" rx="3" ry="3" style="stroke:#000000;stroke-width:1.0;"/><path d="M344.5,447.5 L357.5,447.5 C429.7892,447.5 416.5463,519.8683 480,554.5 C483.3928,556.3517 486.8827,558.1236 490.4448,559.8185 " fill="none" style="stroke:#000000;stroke-width:1.0;stroke-dasharray:3.0,3.0;"/><path d="M489.1787,562.5915 L492.5245,560.768 L491.7108,557.0455 L497.3772,562.9836 L489.1787,562.5915 " fill="#000000" style="stroke:#000000;stroke-width:1.0;"/><ellipse cx="344.5" cy="447.5" fill="#000000" rx="3" ry="3" style="stroke:#000000;stroke-width:1.0;"/><path d="M344.5,468.5 L357.5,468.5 C448.8344,468.5 404.9655,581.4251 480,633.5 C482.3424,635.1257 484.7523,636.6842 487.2187,638.1783 " fill="none" style="stroke:#000000;stroke-width:1.0;stroke-dasharray:3.0,3.0;"/><path d="M485.6961,640.8395 L489.2146,639.3203 L488.7413,635.5171 L493.8716,641.9848 L485.6961,640.8395 " fill="#000000" style="stroke:#000000;stroke-width:1.0;"/><ellipse cx="344.5" cy="468.5" fill="#000000" rx="3" ry="3" style="stroke:#000000;stroke-width:1.0;"/><path d="M344.5,488.5 L357.5,488.5 C470.9703,488.5 391.4693,641.5224 480,712.5 C481.7844,713.9306 483.6192,715.3088 485.4983,716.6364 " fill="none" style="stroke:#000000;stroke-width:1.0;stroke-dasharray:3.0,3.0;"/><path d="M483.7695,719.2566 L487.4634,717.9329 L487.227,714.0162 L492.0488,720.9582 L483.7695,719.2566 " fill="#000000" style="stroke:#000000;stroke-width:1.0;"/><ellipse cx="344.5" cy="488.5" fill="#000000" rx="3" ry="3" style="stroke:#000000;stroke-width:1.0;"/><path d="M196,336.5 L209,336.5 C254.3406,336.5 301.4028,365.289 326.0463,382.9834 " fill="none" style="stroke:#000000;stroke-width:1.0;stroke-dasharray:3.0,3.0;"/><path d="M324.181,385.5179 L327.9472,384.3824 L327.9117,380.4489 L332.3825,387.6468 L324.181,385.5179 " fill="#000000" style="stroke:#000000;stroke-width:1.0;"/><ellipse cx="196" cy="336.5" fill="#000000" rx="3" ry="3" style="stroke:#000000;stroke-width:1.0;"/><!--MD5=[9f90fb654c4bcbeaa7a55960ca47f736]
@startjson
{
    "field1": "TaxAmt",
    "combination": "TaxAmt",
    "null_distribution": {
        "total_null_rows": 0,
        "total_not_null_rows": 4012
    },
    "data_distribution": [
        {
            "field_value": "3510.28",
            "row_count": 163,
            "ratio_percent": 4.062811565304088
        },
        {
            "field_value": "2771.54",
            "row_count": 102,
            "ratio_percent": 2.542372881355932
        },
        {
            "field_value": "12.06",
            "row_count": 101,
            "ratio_percent": 2.5174476570289133
        },
        {
            "field_value": "2267.50",
            "row_count": 67,
            "ratio_percent": 1.6699900299102692
        },
        {
            "field_value": "1801.34",
            "row_count": 66,
            "ratio_percent": 1.6450648055832502
        },
        {
            "field_value": "11.39",
            "row_count": 51,
            "ratio_percent": 1.271186440677966
        },
        {
            "field_value": "1093.55",
            "row_count": 51,
            "ratio_percent": 1.271186440677966
        },
        {
            "field_value": "102.10",
            "row_count": 51,
            "ratio_percent": 1.271186440677966
        },
        {
            "field_value": "11.44",
            "row_count": 51,
            "ratio_percent": 1.271186440677966
        },
        {
            "field_value": "11.70",
            "row_count": 51,
            "ratio_percent": 1.271186440677966
        }
    ]
}
@endjson

PlantUML version 1.2022.5(Sat Apr 30 06:55:52 EDT 2022)
(GPL source distribution)
Java Runtime: OpenJDK Runtime Environment
JVM: OpenJDK 64-Bit Server VM
Default Encoding: UTF-8
Language: en
Country: CA
--></g></svg>