<?xml version="1.0" encoding="UTF-8" standalone="no"?><svg xmlns="http://www.w3.org/2000/svg" xmlns:xlink="http://www.w3.org/1999/xlink" contentStyleType="text/css" height="794px" preserveAspectRatio="none" style="width:899px;height:794px;background:#FFFFFF;" version="1.1" viewBox="0 0 899 794" width="899px" zoomAndPan="magnify"><defs/><g><rect fill="#F1F1F1" height="81.9531" rx="5" ry="5" style="stroke:#F1F1F1;stroke-width:1.5;" width="307" x="10" y="264.5"/><text fill="#000000" font-family="sans-serif" font-size="14" font-weight="bold" lengthAdjust="spacing" textLength="42" x="15" y="280.0352">field1</text><text fill="#000000" font-family="sans-serif" font-size="14" lengthAdjust="spacing" textLength="163" x="149" y="280.0352">CarrierTrackingNumber</text><line style="stroke:#000000;stroke-width:1.0;" x1="144" x2="144" y1="264.5" y2="284.9883"/><line style="stroke:#000000;stroke-width:1.0;" x1="10" x2="317" y1="284.9883" y2="284.9883"/><text fill="#000000" font-family="sans-serif" font-size="14" font-weight="bold" lengthAdjust="spacing" textLength="90" x="15" y="300.5234">combination</text><text fill="#000000" font-family="sans-serif" font-size="14" lengthAdjust="spacing" textLength="163" x="149" y="300.5234">CarrierTrackingNumber</text><line style="stroke:#000000;stroke-width:1.0;" x1="144" x2="144" y1="284.9883" y2="305.4766"/><line style="stroke:#000000;stroke-width:1.0;" x1="10" x2="317" y1="305.4766" y2="305.4766"/><text fill="#000000" font-family="sans-serif" font-size="14" font-weight="bold" lengthAdjust="spacing" textLength="121" x="15" y="321.0117">null_distribution</text><text fill="#000000" font-family="sans-serif" font-size="14" lengthAdjust="spacing" textLength="12" x="149" y="321.0117">   </text><line style="stroke:#000000;stroke-width:1.0;" x1="144" x2="144" y1="305.4766" y2="325.9648"/><line style="stroke:#000000;stroke-width:1.0;" x1="10" x2="317" y1="325.9648" y2="325.9648"/><text fill="#000000" font-family="sans-serif" font-size="14" font-weight="bold" lengthAdjust="spacing" textLength="124" x="15" y="341.5">data_distribution</text><text fill="#000000" font-family="sans-serif" font-size="14" lengthAdjust="spacing" textLength="12" x="149" y="341.5">   </text><line style="stroke:#000000;stroke-width:1.0;" x1="144" x2="144" y1="325.9648" y2="346.4531"/><rect fill="none" height="81.9531" rx="5" ry="5" style="stroke:#000000;stroke-width:1.5;" width="307" x="10" y="264.5"/><rect fill="#F1F1F1" height="40.9766" rx="5" ry="5" style="stroke:#F1F1F1;stroke-width:1.5;" width="207" x="354" y="235"/><text fill="#000000" font-family="sans-serif" font-size="14" font-weight="bold" lengthAdjust="spacing" textLength="111" x="359" y="250.5352">total_null_rows</text><text fill="#000000" font-family="sans-serif" font-size="14" lengthAdjust="spacing" textLength="45" x="511" y="250.5352">60398</text><line style="stroke:#000000;stroke-width:1.0;" x1="506" x2="506" y1="235" y2="255.4883"/><line style="stroke:#000000;stroke-width:1.0;" x1="354" x2="561" y1="255.4883" y2="255.4883"/><text fill="#000000" font-family="sans-serif" font-size="14" font-weight="bold" lengthAdjust="spacing" textLength="142" x="359" y="271.0234">total_not_null_rows</text><text fill="#000000" font-family="sans-serif" font-size="14" lengthAdjust="spacing" textLength="45" x="511" y="271.0234">60919</text><line style="stroke:#000000;stroke-width:1.0;" x1="506" x2="506" y1="255.4883" y2="275.9766"/><rect fill="none" height="40.9766" rx="5" ry="5" style="stroke:#000000;stroke-width:1.5;" width="207" x="354" y="235"/><rect fill="#F1F1F1" height="204.8828" rx="5" ry="5" style="stroke:#F1F1F1;stroke-width:1.5;" width="22" x="445.5" y="294"/><text fill="#000000" font-family="sans-serif" font-size="14" lengthAdjust="spacing" textLength="12" x="450.5" y="309.5352">   </text><line style="stroke:#000000;stroke-width:1.0;" x1="445.5" x2="467.5" y1="314.4883" y2="314.4883"/><text fill="#000000" font-family="sans-serif" font-size="14" lengthAdjust="spacing" textLength="12" x="450.5" y="330.0234">   </text><line style="stroke:#000000;stroke-width:1.0;" x1="445.5" x2="467.5" y1="334.9766" y2="334.9766"/><text fill="#000000" font-family="sans-serif" font-size="14" lengthAdjust="spacing" textLength="12" x="450.5" y="350.5117">   </text><line style="stroke:#000000;stroke-width:1.0;" x1="445.5" x2="467.5" y1="355.4648" y2="355.4648"/><text fill="#000000" font-family="sans-serif" font-size="14" lengthAdjust="spacing" textLength="12" x="450.5" y="371">   </text><line style="stroke:#000000;stroke-width:1.0;" x1="445.5" x2="467.5" y1="375.9531" y2="375.9531"/><text fill="#000000" font-family="sans-serif" font-size="14" lengthAdjust="spacing" textLength="12" x="450.5" y="391.4883">   </text><line style="stroke:#000000;stroke-width:1.0;" x1="445.5" x2="467.5" y1="396.4414" y2="396.4414"/><text fill="#000000" font-family="sans-serif" font-size="14" lengthAdjust="spacing" textLength="12" x="450.5" y="411.9766">   </text><line style="stroke:#000000;stroke-width:1.0;" x1="445.5" x2="467.5" y1="416.9297" y2="416.9297"/><text fill="#000000" font-family="sans-serif" font-size="14" lengthAdjust="spacing" textLength="12" x="450.5" y="432.4648">   </text><line style="stroke:#000000;stroke-width:1.0;" x1="445.5" x2="467.5" y1="437.418" y2="437.418"/><text fill="#000000" font-family="sans-serif" font-size="14" lengthAdjust="spacing" textLength="12" x="450.5" y="452.9531">   </text><line style="stroke:#000000;stroke-width:1.0;" x1="445.5" x2="467.5" y1="457.9063" y2="457.9063"/><text fill="#000000" font-family="sans-serif" font-size="14" lengthAdjust="spacing" textLength="12" x="450.5" y="473.4414">   </text><line style="stroke:#000000;stroke-width:1.0;" x1="445.5" x2="467.5" y1="478.3945" y2="478.3945"/><text fill="#000000" font-family="sans-serif" font-size="14" lengthAdjust="spacing" textLength="12" x="450.5" y="493.9297">   </text><rect fill="none" height="204.8828" rx="5" ry="5" style="stroke:#000000;stroke-width:1.5;" width="22" x="445.5" y="294"/><rect fill="#F1F1F1" height="61.4648" rx="5" ry="5" style="stroke:#F1F1F1;stroke-width:1.5;" width="271" x="607" y="10"/><text fill="#000000" font-family="sans-serif" font-size="14" font-weight="bold" lengthAdjust="spacing" textLength="78" x="612" y="25.5352">field_value</text><text fill="#000000" font-family="sans-serif" font-size="14" font-weight="bold" lengthAdjust="spacing" textLength="37" x="716" y="25.5352">NULL</text><line style="stroke:#000000;stroke-width:1.0;" x1="711" x2="711" y1="10" y2="30.4883"/><line style="stroke:#000000;stroke-width:1.0;" x1="607" x2="878" y1="30.4883" y2="30.4883"/><text fill="#000000" font-family="sans-serif" font-size="14" font-weight="bold" lengthAdjust="spacing" textLength="74" x="612" y="46.0234">row_count</text><text fill="#000000" font-family="sans-serif" font-size="14" lengthAdjust="spacing" textLength="45" x="716" y="46.0234">60398</text><line style="stroke:#000000;stroke-width:1.0;" x1="711" x2="711" y1="30.4883" y2="50.9766"/><line style="stroke:#000000;stroke-width:1.0;" x1="607" x2="878" y1="50.9766" y2="50.9766"/><text fill="#000000" font-family="sans-serif" font-size="14" font-weight="bold" lengthAdjust="spacing" textLength="94" x="612" y="66.5117">ratio_percent</text><text fill="#000000" font-family="sans-serif" font-size="14" lengthAdjust="spacing" textLength="157" x="716" y="66.5117">49.785273292283854</text><line style="stroke:#000000;stroke-width:1.0;" x1="711" x2="711" y1="50.9766" y2="71.4648"/><rect fill="none" height="61.4648" rx="5" ry="5" style="stroke:#000000;stroke-width:1.5;" width="271" x="607" y="10"/><rect fill="#F1F1F1" height="61.4648" rx="5" ry="5" style="stroke:#F1F1F1;stroke-width:1.5;" width="289" x="598" y="89"/><text fill="#000000" font-family="sans-serif" font-size="14" font-weight="bold" lengthAdjust="spacing" textLength="78" x="603" y="104.5352">field_value</text><text fill="#000000" font-family="sans-serif" font-size="14" lengthAdjust="spacing" textLength="107" x="707" y="104.5352">9429-430D-89</text><line style="stroke:#000000;stroke-width:1.0;" x1="702" x2="702" y1="89" y2="109.4883"/><line style="stroke:#000000;stroke-width:1.0;" x1="598" x2="887" y1="109.4883" y2="109.4883"/><text fill="#000000" font-family="sans-serif" font-size="14" font-weight="bold" lengthAdjust="spacing" textLength="74" x="603" y="125.0234">row_count</text><text fill="#000000" font-family="sans-serif" font-size="14" lengthAdjust="spacing" textLength="18" x="707" y="125.0234">72</text><line style="stroke:#000000;stroke-width:1.0;" x1="702" x2="702" y1="109.4883" y2="129.9766"/><line style="stroke:#000000;stroke-width:1.0;" x1="598" x2="887" y1="129.9766" y2="129.9766"/><text fill="#000000" font-family="sans-serif" font-size="14" font-weight="bold" lengthAdjust="spacing" textLength="94" x="603" y="145.5117">ratio_percent</text><text fill="#000000" font-family="sans-serif" font-size="14" lengthAdjust="spacing" textLength="175" x="707" y="145.5117">0.059348648581814586</text><line style="stroke:#000000;stroke-width:1.0;" x1="702" x2="702" y1="129.9766" y2="150.4648"/><rect fill="none" height="61.4648" rx="5" ry="5" style="stroke:#000000;stroke-width:1.5;" width="289" x="598" y="89"/><rect fill="#F1F1F1" height="61.4648" rx="5" ry="5" style="stroke:#F1F1F1;stroke-width:1.5;" width="289" x="598" y="168"/><text fill="#000000" font-family="sans-serif" font-size="14" font-weight="bold" lengthAdjust="spacing" textLength="78" x="603" y="183.5352">field_value</text><text fill="#000000" font-family="sans-serif" font-size="14" lengthAdjust="spacing" textLength="103" x="707" y="183.5352">AF60-4F2F-9B</text><line style="stroke:#000000;stroke-width:1.0;" x1="702" x2="702" y1="168" y2="188.4883"/><line style="stroke:#000000;stroke-width:1.0;" x1="598" x2="887" y1="188.4883" y2="188.4883"/><text fill="#000000" font-family="sans-serif" font-size="14" font-weight="bold" lengthAdjust="spacing" textLength="74" x="603" y="204.0234">row_count</text><text fill="#000000" font-family="sans-serif" font-size="14" lengthAdjust="spacing" textLength="18" x="707" y="204.0234">72</text><line style="stroke:#000000;stroke-width:1.0;" x1="702" x2="702" y1="188.4883" y2="208.9766"/><line style="stroke:#000000;stroke-width:1.0;" x1="598" x2="887" y1="208.9766" y2="208.9766"/><text fill="#000000" font-family="sans-serif" font-size="14" font-weight="bold" lengthAdjust="spacing" textLength="94" x="603" y="224.5117">ratio_percent</text><text fill="#000000" font-family="sans-serif" font-size="14" lengthAdjust="spacing" textLength="175" x="707" y="224.5117">0.059348648581814586</text><line style="stroke:#000000;stroke-width:1.0;" x1="702" x2="702" y1="208.9766" y2="229.4648"/><rect fill="none" height="61.4648" rx="5" ry="5" style="stroke:#000000;stroke-width:1.5;" width="289" x="598" y="168"/><rect fill="#F1F1F1" height="61.4648" rx="5" ry="5" style="stroke:#F1F1F1;stroke-width:1.5;" width="280" x="602.5" y="247"/><text fill="#000000" font-family="sans-serif" font-size="14" font-weight="bold" lengthAdjust="spacing" textLength="78" x="607.5" y="262.5352">field_value</text><text fill="#000000" font-family="sans-serif" font-size="14" lengthAdjust="spacing" textLength="107" x="711.5" y="262.5352">D859-4DF3-84</text><line style="stroke:#000000;stroke-width:1.0;" x1="706.5" x2="706.5" y1="247" y2="267.4883"/><line style="stroke:#000000;stroke-width:1.0;" x1="602.5" x2="882.5" y1="267.4883" y2="267.4883"/><text fill="#000000" font-family="sans-serif" font-size="14" font-weight="bold" lengthAdjust="spacing" textLength="74" x="607.5" y="283.0234">row_count</text><text fill="#000000" font-family="sans-serif" font-size="14" lengthAdjust="spacing" textLength="18" x="711.5" y="283.0234">71</text><line style="stroke:#000000;stroke-width:1.0;" x1="706.5" x2="706.5" y1="267.4883" y2="287.9766"/><line style="stroke:#000000;stroke-width:1.0;" x1="602.5" x2="882.5" y1="287.9766" y2="287.9766"/><text fill="#000000" font-family="sans-serif" font-size="14" font-weight="bold" lengthAdjust="spacing" textLength="94" x="607.5" y="303.5117">ratio_percent</text><text fill="#000000" font-family="sans-serif" font-size="14" lengthAdjust="spacing" textLength="166" x="711.5" y="303.5117">0.05852436179595605</text><line style="stroke:#000000;stroke-width:1.0;" x1="706.5" x2="706.5" y1="287.9766" y2="308.4648"/><rect fill="none" height="61.4648" rx="5" ry="5" style="stroke:#000000;stroke-width:1.5;" width="280" x="602.5" y="247"/><rect fill="#F1F1F1" height="61.4648" rx="5" ry="5" style="stroke:#F1F1F1;stroke-width:1.5;" width="280" x="602.5" y="326"/><text fill="#000000" font-family="sans-serif" font-size="14" font-weight="bold" lengthAdjust="spacing" textLength="78" x="607.5" y="341.5352">field_value</text><text fill="#000000" font-family="sans-serif" font-size="14" lengthAdjust="spacing" textLength="103" x="711.5" y="341.5352">3F3F-4135-B0</text><line style="stroke:#000000;stroke-width:1.0;" x1="706.5" x2="706.5" y1="326" y2="346.4883"/><line style="stroke:#000000;stroke-width:1.0;" x1="602.5" x2="882.5" y1="346.4883" y2="346.4883"/><text fill="#000000" font-family="sans-serif" font-size="14" font-weight="bold" lengthAdjust="spacing" textLength="74" x="607.5" y="362.0234">row_count</text><text fill="#000000" font-family="sans-serif" font-size="14" lengthAdjust="spacing" textLength="18" x="711.5" y="362.0234">71</text><line style="stroke:#000000;stroke-width:1.0;" x1="706.5" x2="706.5" y1="346.4883" y2="366.9766"/><line style="stroke:#000000;stroke-width:1.0;" x1="602.5" x2="882.5" y1="366.9766" y2="366.9766"/><text fill="#000000" font-family="sans-serif" font-size="14" font-weight="bold" lengthAdjust="spacing" textLength="94" x="607.5" y="382.5117">ratio_percent</text><text fill="#000000" font-family="sans-serif" font-size="14" lengthAdjust="spacing" textLength="166" x="711.5" y="382.5117">0.05852436179595605</text><line style="stroke:#000000;stroke-width:1.0;" x1="706.5" x2="706.5" y1="366.9766" y2="387.4648"/><rect fill="none" height="61.4648" rx="5" ry="5" style="stroke:#000000;stroke-width:1.5;" width="280" x="602.5" y="326"/><rect fill="#F1F1F1" height="61.4648" rx="5" ry="5" style="stroke:#F1F1F1;stroke-width:1.5;" width="280" x="602.5" y="405"/><text fill="#000000" font-family="sans-serif" font-size="14" font-weight="bold" lengthAdjust="spacing" textLength="78" x="607.5" y="420.5352">field_value</text><text fill="#000000" font-family="sans-serif" font-size="14" lengthAdjust="spacing" textLength="104" x="711.5" y="420.5352">6B7D-4E47-B5</text><line style="stroke:#000000;stroke-width:1.0;" x1="706.5" x2="706.5" y1="405" y2="425.4883"/><line style="stroke:#000000;stroke-width:1.0;" x1="602.5" x2="882.5" y1="425.4883" y2="425.4883"/><text fill="#000000" font-family="sans-serif" font-size="14" font-weight="bold" lengthAdjust="spacing" textLength="74" x="607.5" y="441.0234">row_count</text><text fill="#000000" font-family="sans-serif" font-size="14" lengthAdjust="spacing" textLength="18" x="711.5" y="441.0234">68</text><line style="stroke:#000000;stroke-width:1.0;" x1="706.5" x2="706.5" y1="425.4883" y2="445.9766"/><line style="stroke:#000000;stroke-width:1.0;" x1="602.5" x2="882.5" y1="445.9766" y2="445.9766"/><text fill="#000000" font-family="sans-serif" font-size="14" font-weight="bold" lengthAdjust="spacing" textLength="94" x="607.5" y="461.5117">ratio_percent</text><text fill="#000000" font-family="sans-serif" font-size="14" lengthAdjust="spacing" textLength="166" x="711.5" y="461.5117">0.05605150143838044</text><line style="stroke:#000000;stroke-width:1.0;" x1="706.5" x2="706.5" y1="445.9766" y2="466.4648"/><rect fill="none" height="61.4648" rx="5" ry="5" style="stroke:#000000;stroke-width:1.5;" width="280" x="602.5" y="405"/><rect fill="#F1F1F1" height="61.4648" rx="5" ry="5" style="stroke:#F1F1F1;stroke-width:1.5;" width="280" x="602.5" y="484"/><text fill="#000000" font-family="sans-serif" font-size="14" font-weight="bold" lengthAdjust="spacing" textLength="78" x="607.5" y="499.5352">field_value</text><text fill="#000000" font-family="sans-serif" font-size="14" lengthAdjust="spacing" textLength="107" x="711.5" y="499.5352">6C2D-4670-B0</text><line style="stroke:#000000;stroke-width:1.0;" x1="706.5" x2="706.5" y1="484" y2="504.4883"/><line style="stroke:#000000;stroke-width:1.0;" x1="602.5" x2="882.5" y1="504.4883" y2="504.4883"/><text fill="#000000" font-family="sans-serif" font-size="14" font-weight="bold" lengthAdjust="spacing" textLength="74" x="607.5" y="520.0234">row_count</text><text fill="#000000" font-family="sans-serif" font-size="14" lengthAdjust="spacing" textLength="18" x="711.5" y="520.0234">67</text><line style="stroke:#000000;stroke-width:1.0;" x1="706.5" x2="706.5" y1="504.4883" y2="524.9766"/><line style="stroke:#000000;stroke-width:1.0;" x1="602.5" x2="882.5" y1="524.9766" y2="524.9766"/><text fill="#000000" font-family="sans-serif" font-size="14" font-weight="bold" lengthAdjust="spacing" textLength="94" x="607.5" y="540.5117">ratio_percent</text><text fill="#000000" font-family="sans-serif" font-size="14" lengthAdjust="spacing" textLength="166" x="711.5" y="540.5117">0.05522721465252191</text><line style="stroke:#000000;stroke-width:1.0;" x1="706.5" x2="706.5" y1="524.9766" y2="545.4648"/><rect fill="none" height="61.4648" rx="5" ry="5" style="stroke:#000000;stroke-width:1.5;" width="280" x="602.5" y="484"/><rect fill="#F1F1F1" height="61.4648" rx="5" ry="5" style="stroke:#F1F1F1;stroke-width:1.5;" width="280" x="602.5" y="563"/><text fill="#000000" font-family="sans-serif" font-size="14" font-weight="bold" lengthAdjust="spacing" textLength="78" x="607.5" y="578.5352">field_value</text><text fill="#000000" font-family="sans-serif" font-size="14" lengthAdjust="spacing" textLength="106" x="711.5" y="578.5352">52CC-460F-B3</text><line style="stroke:#000000;stroke-width:1.0;" x1="706.5" x2="706.5" y1="563" y2="583.4883"/><line style="stroke:#000000;stroke-width:1.0;" x1="602.5" x2="882.5" y1="583.4883" y2="583.4883"/><text fill="#000000" font-family="sans-serif" font-size="14" font-weight="bold" lengthAdjust="spacing" textLength="74" x="607.5" y="599.0234">row_count</text><text fill="#000000" font-family="sans-serif" font-size="14" lengthAdjust="spacing" textLength="18" x="711.5" y="599.0234">67</text><line style="stroke:#000000;stroke-width:1.0;" x1="706.5" x2="706.5" y1="583.4883" y2="603.9766"/><line style="stroke:#000000;stroke-width:1.0;" x1="602.5" x2="882.5" y1="603.9766" y2="603.9766"/><text fill="#000000" font-family="sans-serif" font-size="14" font-weight="bold" lengthAdjust="spacing" textLength="94" x="607.5" y="619.5117">ratio_percent</text><text fill="#000000" font-family="sans-serif" font-size="14" lengthAdjust="spacing" textLength="166" x="711.5" y="619.5117">0.05522721465252191</text><line style="stroke:#000000;stroke-width:1.0;" x1="706.5" x2="706.5" y1="603.9766" y2="624.4648"/><rect fill="none" height="61.4648" rx="5" ry="5" style="stroke:#000000;stroke-width:1.5;" width="280" x="602.5" y="563"/><rect fill="#F1F1F1" height="61.4648" rx="5" ry="5" style="stroke:#F1F1F1;stroke-width:1.5;" width="280" x="602.5" y="642"/><text fill="#000000" font-family="sans-serif" font-size="14" font-weight="bold" lengthAdjust="spacing" textLength="78" x="607.5" y="657.5352">field_value</text><text fill="#000000" font-family="sans-serif" font-size="14" lengthAdjust="spacing" textLength="106" x="711.5" y="657.5352">2455-4B60-A5</text><line style="stroke:#000000;stroke-width:1.0;" x1="706.5" x2="706.5" y1="642" y2="662.4883"/><line style="stroke:#000000;stroke-width:1.0;" x1="602.5" x2="882.5" y1="662.4883" y2="662.4883"/><text fill="#000000" font-family="sans-serif" font-size="14" font-weight="bold" lengthAdjust="spacing" textLength="74" x="607.5" y="678.0234">row_count</text><text fill="#000000" font-family="sans-serif" font-size="14" lengthAdjust="spacing" textLength="18" x="711.5" y="678.0234">66</text><line style="stroke:#000000;stroke-width:1.0;" x1="706.5" x2="706.5" y1="662.4883" y2="682.9766"/><line style="stroke:#000000;stroke-width:1.0;" x1="602.5" x2="882.5" y1="682.9766" y2="682.9766"/><text fill="#000000" font-family="sans-serif" font-size="14" font-weight="bold" lengthAdjust="spacing" textLength="94" x="607.5" y="698.5117">ratio_percent</text><text fill="#000000" font-family="sans-serif" font-size="14" lengthAdjust="spacing" textLength="166" x="711.5" y="698.5117">0.05440292786666337</text><line style="stroke:#000000;stroke-width:1.0;" x1="706.5" x2="706.5" y1="682.9766" y2="703.4648"/><rect fill="none" height="61.4648" rx="5" ry="5" style="stroke:#000000;stroke-width:1.5;" width="280" x="602.5" y="642"/><rect fill="#F1F1F1" height="61.4648" rx="5" ry="5" style="stroke:#F1F1F1;stroke-width:1.5;" width="280" x="602.5" y="721"/><text fill="#000000" font-family="sans-serif" font-size="14" font-weight="bold" lengthAdjust="spacing" textLength="78" x="607.5" y="736.5352">field_value</text><text fill="#000000" font-family="sans-serif" font-size="14" lengthAdjust="spacing" textLength="104" x="711.5" y="736.5352">EBDE-4A71-8E</text><line style="stroke:#000000;stroke-width:1.0;" x1="706.5" x2="706.5" y1="721" y2="741.4883"/><line style="stroke:#000000;stroke-width:1.0;" x1="602.5" x2="882.5" y1="741.4883" y2="741.4883"/><text fill="#000000" font-family="sans-serif" font-size="14" font-weight="bold" lengthAdjust="spacing" textLength="74" x="607.5" y="757.0234">row_count</text><text fill="#000000" font-family="sans-serif" font-size="14" lengthAdjust="spacing" textLength="18" x="711.5" y="757.0234">66</text><line style="stroke:#000000;stroke-width:1.0;" x1="706.5" x2="706.5" y1="741.4883" y2="761.9766"/><line style="stroke:#000000;stroke-width:1.0;" x1="602.5" x2="882.5" y1="761.9766" y2="761.9766"/><text fill="#000000" font-family="sans-serif" font-size="14" font-weight="bold" lengthAdjust="spacing" textLength="94" x="607.5" y="777.5117">ratio_percent</text><text fill="#000000" font-family="sans-serif" font-size="14" lengthAdjust="spacing" textLength="166" x="711.5" y="777.5117">0.05440292786666337</text><line style="stroke:#000000;stroke-width:1.0;" x1="706.5" x2="706.5" y1="761.9766" y2="782.4648"/><rect fill="none" height="61.4648" rx="5" ry="5" style="stroke:#000000;stroke-width:1.5;" width="280" x="602.5" y="721"/><path d="M305,315.5 L318,315.5 C338.8273,315.5 335.6143,295.285 354,285.5 C358.4187,283.1484 363.0447,280.9598 367.7859,278.9261 " fill="none" style="stroke:#000000;stroke-width:1.0;stroke-dasharray:3.0,3.0;"/><path d="M368.9339,281.7334 L369.8914,278.0652 L366.638,276.1189 L374.804,276.0563 L368.9339,281.7334 " fill="#000000" style="stroke:#000000;stroke-width:1.0;"/><ellipse cx="305" cy="315.5" fill="#000000" rx="3" ry="3" style="stroke:#000000;stroke-width:1.0;"/><path d="M458,303.5 L471,303.5 C512.2281,303.5 533.1738,314.9755 562,285.5 C626.9848,219.0516 535.353,148.1569 598,79.5 C599.1702,78.2175 600.3779,76.9754 601.6203,75.7726 " fill="none" style="stroke:#000000;stroke-width:1.0;stroke-dasharray:3.0,3.0;"/><path d="M603.631,78.0369 L603.3185,74.2645 L599.6095,73.5082 L607.2811,70.7456 L603.631,78.0369 " fill="#000000" style="stroke:#000000;stroke-width:1.0;"/><ellipse cx="458" cy="303.5" fill="#000000" rx="3" ry="3" style="stroke:#000000;stroke-width:1.0;"/><path d="M458,324.5 L471,324.5 C515.0022,324.5 532.9505,318.5503 562,285.5 C600.7318,241.4339 556.2726,199.7408 598,158.5 C599.2348,157.2796 600.5037,156.0963 601.804,154.9491 " fill="none" style="stroke:#000000;stroke-width:1.0;stroke-dasharray:3.0,3.0;"/><path d="M603.725,157.307 L603.5724,153.5084 L599.8831,152.5913 L607.6986,150.1468 L603.725,157.307 " fill="#000000" style="stroke:#000000;stroke-width:1.0;"/><ellipse cx="458" cy="324.5" fill="#000000" rx="3" ry="3" style="stroke:#000000;stroke-width:1.0;"/><path d="M458,344.5 L471,344.5 C519.2012,344.5 526.773,318.4001 562,285.5 C581.4889,267.2985 575.9294,252.4666 598,237.5 C600.3915,235.8783 602.8481,234.3238 605.3595,232.8338 " fill="none" style="stroke:#000000;stroke-width:1.0;stroke-dasharray:3.0,3.0;"/><path d="M606.8776,235.5413 L607.3901,231.6952 L603.8413,230.1263 L612.1283,229.0385 L606.8776,235.5413 " fill="#000000" style="stroke:#000000;stroke-width:1.0;"/><ellipse cx="458" cy="344.5" fill="#000000" rx="3" ry="3" style="stroke:#000000;stroke-width:1.0;"/><path d="M458,365.5 L471,365.5 C531.3414,365.5 540.6492,336.2608 598,317.5 C605.3057,315.1101 612.849,312.7377 620.4769,310.4107 " fill="none" style="stroke:#000000;stroke-width:1.0;stroke-dasharray:3.0,3.0;"/><path d="M621.4013,313.4709 L622.7721,309.7175 L619.5526,307.3505 L628.1275,308.0999 L621.4013,313.4709 " fill="#000000" style="stroke:#000000;stroke-width:1.0;"/><ellipse cx="458" cy="365.5" fill="#000000" rx="3" ry="3" style="stroke:#000000;stroke-width:1.0;"/><path d="M458,385.5 L471,385.5 C511.4243,385.5 555.049,382.2703 595.2359,377.9665 " fill="none" style="stroke:#000000;stroke-width:1.0;stroke-dasharray:3.0,3.0;"/><path d="M595.5621,380.9514 L597.4745,377.7218 L594.9096,374.9816 L602.6981,377.1509 L595.5621,380.9514 " fill="#000000" style="stroke:#000000;stroke-width:1.0;"/><ellipse cx="458" cy="385.5" fill="#000000" rx="3" ry="3" style="stroke:#000000;stroke-width:1.0;"/><path d="M458,406.5 L471,406.5 C511.4243,406.5 555.049,409.7297 595.2359,414.0335 " fill="none" style="stroke:#000000;stroke-width:1.0;stroke-dasharray:3.0,3.0;"/><path d="M594.9096,417.0184 L597.4745,414.2782 L595.5621,411.0486 L602.6981,414.8491 L594.9096,417.0184 " fill="#000000" style="stroke:#000000;stroke-width:1.0;"/><ellipse cx="458" cy="406.5" fill="#000000" rx="3" ry="3" style="stroke:#000000;stroke-width:1.0;"/><path d="M458,427.5 L471,427.5 C531.3414,427.5 540.5889,456.9245 598,475.5 C604.515,477.6079 611.2201,479.6964 618.0065,481.747 " fill="none" style="stroke:#000000;stroke-width:1.0;stroke-dasharray:3.0,3.0;"/><path d="M617.1228,484.7033 L620.2238,482.4098 L618.8903,478.7907 L625.3974,483.9564 L617.1228,484.7033 " fill="#000000" style="stroke:#000000;stroke-width:1.0;"/><ellipse cx="458" cy="427.5" fill="#000000" rx="3" ry="3" style="stroke:#000000;stroke-width:1.0;"/><path d="M458,447.5 L471,447.5 C544.8072,447.5 532.6123,520.2661 598,554.5 C601.4957,556.3302 605.0853,558.0806 608.7452,559.7544 " fill="none" style="stroke:#000000;stroke-width:1.0;stroke-dasharray:3.0,3.0;"/><path d="M607.4952,562.6019 L610.8809,560.6919 L609.9952,556.9069 L615.8641,562.8794 L607.4952,562.6019 " fill="#000000" style="stroke:#000000;stroke-width:1.0;"/><ellipse cx="458" cy="447.5" fill="#000000" rx="3" ry="3" style="stroke:#000000;stroke-width:1.0;"/><path d="M458,468.5 L471,468.5 C563.5405,468.5 521.0862,582.0411 598,633.5 C600.4016,635.1068 602.8674,636.6476 605.3871,638.1251 " fill="none" style="stroke:#000000;stroke-width:1.0;stroke-dasharray:3.0,3.0;"/><path d="M603.8811,640.8408 L607.4239,639.2547 L606.8932,635.4095 L612.1763,641.8903 L603.8811,640.8408 " fill="#000000" style="stroke:#000000;stroke-width:1.0;"/><ellipse cx="458" cy="468.5" fill="#000000" rx="3" ry="3" style="stroke:#000000;stroke-width:1.0;"/><path d="M458,488.5 L471,488.5 C585.4434,488.5 507.5735,642.355 598,712.5 C599.8227,713.9139 601.6928,715.2766 603.6049,716.59 " fill="none" style="stroke:#000000;stroke-width:1.0;stroke-dasharray:3.0,3.0;"/><path d="M601.8937,719.2519 L605.6014,717.8734 L605.3162,713.928 L610.2598,720.8681 L601.8937,719.2519 " fill="#000000" style="stroke:#000000;stroke-width:1.0;"/><ellipse cx="458" cy="488.5" fill="#000000" rx="3" ry="3" style="stroke:#000000;stroke-width:1.0;"/><path d="M305,336.5 L318,336.5 C365.0497,336.5 414.2629,365.8357 439.6101,383.482 " fill="none" style="stroke:#000000;stroke-width:1.0;stroke-dasharray:3.0,3.0;"/><path d="M437.8416,385.964 L441.4716,384.8085 L441.3787,381.0001 L445.815,387.9035 L437.8416,385.964 " fill="#000000" style="stroke:#000000;stroke-width:1.0;"/><ellipse cx="305" cy="336.5" fill="#000000" rx="3" ry="3" style="stroke:#000000;stroke-width:1.0;"/><!--MD5=[e220d880c7ce07ec3da5e3f959b9749a]
@startjson
{
    "field1": "CarrierTrackingNumber",
    "combination": "CarrierTrackingNumber",
    "null_distribution": {
        "total_null_rows": 60398,
        "total_not_null_rows": 60919
    },
    "data_distribution": [
        {
            "field_value": "**NULL**",
            "row_count": 60398,
            "ratio_percent": 49.785273292283854
        },
        {
            "field_value": "9429-430D-89",
            "row_count": 72,
            "ratio_percent": 0.059348648581814586
        },
        {
            "field_value": "AF60-4F2F-9B",
            "row_count": 72,
            "ratio_percent": 0.059348648581814586
        },
        {
            "field_value": "D859-4DF3-84",
            "row_count": 71,
            "ratio_percent": 0.05852436179595605
        },
        {
            "field_value": "3F3F-4135-B0",
            "row_count": 71,
            "ratio_percent": 0.05852436179595605
        },
        {
            "field_value": "6B7D-4E47-B5",
            "row_count": 68,
            "ratio_percent": 0.05605150143838044
        },
        {
            "field_value": "6C2D-4670-B0",
            "row_count": 67,
            "ratio_percent": 0.05522721465252191
        },
        {
            "field_value": "52CC-460F-B3",
            "row_count": 67,
            "ratio_percent": 0.05522721465252191
        },
        {
            "field_value": "2455-4B60-A5",
            "row_count": 66,
            "ratio_percent": 0.05440292786666337
        },
        {
            "field_value": "EBDE-4A71-8E",
            "row_count": 66,
            "ratio_percent": 0.05440292786666337
        }
    ]
}
@endjson

PlantUML version 1.2022.5(Sat Apr 30 06:55:52 EDT 2022)
(GPL source distribution)
Java Runtime: OpenJDK Runtime Environment
JVM: OpenJDK 64-Bit Server VM
Default Encoding: UTF-8
Language: en
Country: CA
--></g></svg>