<?xml version="1.0" encoding="UTF-8" standalone="no"?><svg xmlns="http://www.w3.org/2000/svg" xmlns:xlink="http://www.w3.org/1999/xlink" contentStyleType="text/css" height="794px" preserveAspectRatio="none" style="width:749px;height:794px;background:#FFFFFF;" version="1.1" viewBox="0 0 749 794" width="749px" zoomAndPan="magnify"><defs/><g><rect fill="#F1F1F1" height="81.9531" rx="5" ry="5" style="stroke:#F1F1F1;stroke-width:1.5;" width="183" x="10" y="264.5"/><text fill="#000000" font-family="sans-serif" font-size="14" font-weight="bold" lengthAdjust="spacing" textLength="42" x="15" y="280.0352">field1</text><text fill="#000000" font-family="sans-serif" font-size="14" lengthAdjust="spacing" textLength="39" x="149" y="280.0352">Name</text><line style="stroke:#000000;stroke-width:1.0;" x1="144" x2="144" y1="264.5" y2="284.9883"/><line style="stroke:#000000;stroke-width:1.0;" x1="10" x2="193" y1="284.9883" y2="284.9883"/><text fill="#000000" font-family="sans-serif" font-size="14" font-weight="bold" lengthAdjust="spacing" textLength="90" x="15" y="300.5234">combination</text><text fill="#000000" font-family="sans-serif" font-size="14" lengthAdjust="spacing" textLength="39" x="149" y="300.5234">Name</text><line style="stroke:#000000;stroke-width:1.0;" x1="144" x2="144" y1="284.9883" y2="305.4766"/><line style="stroke:#000000;stroke-width:1.0;" x1="10" x2="193" y1="305.4766" y2="305.4766"/><text fill="#000000" font-family="sans-serif" font-size="14" font-weight="bold" lengthAdjust="spacing" textLength="121" x="15" y="321.0117">null_distribution</text><text fill="#000000" font-family="sans-serif" font-size="14" lengthAdjust="spacing" textLength="12" x="149" y="321.0117">   </text><line style="stroke:#000000;stroke-width:1.0;" x1="144" x2="144" y1="305.4766" y2="325.9648"/><line style="stroke:#000000;stroke-width:1.0;" x1="10" x2="193" y1="325.9648" y2="325.9648"/><text fill="#000000" font-family="sans-serif" font-size="14" font-weight="bold" lengthAdjust="spacing" textLength="124" x="15" y="341.5">data_distribution</text><text fill="#000000" font-family="sans-serif" font-size="14" lengthAdjust="spacing" textLength="12" x="149" y="341.5">   </text><line style="stroke:#000000;stroke-width:1.0;" x1="144" x2="144" y1="325.9648" y2="346.4531"/><rect fill="none" height="81.9531" rx="5" ry="5" style="stroke:#000000;stroke-width:1.5;" width="183" x="10" y="264.5"/><rect fill="#F1F1F1" height="40.9766" rx="5" ry="5" style="stroke:#F1F1F1;stroke-width:1.5;" width="180" x="230" y="235"/><text fill="#000000" font-family="sans-serif" font-size="14" font-weight="bold" lengthAdjust="spacing" textLength="111" x="235" y="250.5352">total_null_rows</text><text fill="#000000" font-family="sans-serif" font-size="14" lengthAdjust="spacing" textLength="9" x="387" y="250.5352">0</text><line style="stroke:#000000;stroke-width:1.0;" x1="382" x2="382" y1="235" y2="255.4883"/><line style="stroke:#000000;stroke-width:1.0;" x1="230" x2="410" y1="255.4883" y2="255.4883"/><text fill="#000000" font-family="sans-serif" font-size="14" font-weight="bold" lengthAdjust="spacing" textLength="142" x="235" y="271.0234">total_not_null_rows</text><text fill="#000000" font-family="sans-serif" font-size="14" lengthAdjust="spacing" textLength="18" x="387" y="271.0234">10</text><line style="stroke:#000000;stroke-width:1.0;" x1="382" x2="382" y1="255.4883" y2="275.9766"/><rect fill="none" height="40.9766" rx="5" ry="5" style="stroke:#000000;stroke-width:1.5;" width="180" x="230" y="235"/><rect fill="#F1F1F1" height="204.8828" rx="5" ry="5" style="stroke:#F1F1F1;stroke-width:1.5;" width="22" x="308" y="294"/><text fill="#000000" font-family="sans-serif" font-size="14" lengthAdjust="spacing" textLength="12" x="313" y="309.5352">   </text><line style="stroke:#000000;stroke-width:1.0;" x1="308" x2="330" y1="314.4883" y2="314.4883"/><text fill="#000000" font-family="sans-serif" font-size="14" lengthAdjust="spacing" textLength="12" x="313" y="330.0234">   </text><line style="stroke:#000000;stroke-width:1.0;" x1="308" x2="330" y1="334.9766" y2="334.9766"/><text fill="#000000" font-family="sans-serif" font-size="14" lengthAdjust="spacing" textLength="12" x="313" y="350.5117">   </text><line style="stroke:#000000;stroke-width:1.0;" x1="308" x2="330" y1="355.4648" y2="355.4648"/><text fill="#000000" font-family="sans-serif" font-size="14" lengthAdjust="spacing" textLength="12" x="313" y="371">   </text><line style="stroke:#000000;stroke-width:1.0;" x1="308" x2="330" y1="375.9531" y2="375.9531"/><text fill="#000000" font-family="sans-serif" font-size="14" lengthAdjust="spacing" textLength="12" x="313" y="391.4883">   </text><line style="stroke:#000000;stroke-width:1.0;" x1="308" x2="330" y1="396.4414" y2="396.4414"/><text fill="#000000" font-family="sans-serif" font-size="14" lengthAdjust="spacing" textLength="12" x="313" y="411.9766">   </text><line style="stroke:#000000;stroke-width:1.0;" x1="308" x2="330" y1="416.9297" y2="416.9297"/><text fill="#000000" font-family="sans-serif" font-size="14" lengthAdjust="spacing" textLength="12" x="313" y="432.4648">   </text><line style="stroke:#000000;stroke-width:1.0;" x1="308" x2="330" y1="437.418" y2="437.418"/><text fill="#000000" font-family="sans-serif" font-size="14" lengthAdjust="spacing" textLength="12" x="313" y="452.9531">   </text><line style="stroke:#000000;stroke-width:1.0;" x1="308" x2="330" y1="457.9063" y2="457.9063"/><text fill="#000000" font-family="sans-serif" font-size="14" lengthAdjust="spacing" textLength="12" x="313" y="473.4414">   </text><line style="stroke:#000000;stroke-width:1.0;" x1="308" x2="330" y1="478.3945" y2="478.3945"/><text fill="#000000" font-family="sans-serif" font-size="14" lengthAdjust="spacing" textLength="12" x="313" y="493.9297">   </text><rect fill="none" height="204.8828" rx="5" ry="5" style="stroke:#000000;stroke-width:1.5;" width="22" x="308" y="294"/><rect fill="#F1F1F1" height="61.4648" rx="5" ry="5" style="stroke:#F1F1F1;stroke-width:1.5;" width="290" x="447" y="10"/><text fill="#000000" font-family="sans-serif" font-size="14" font-weight="bold" lengthAdjust="spacing" textLength="78" x="452" y="25.5352">field_value</text><text fill="#000000" font-family="sans-serif" font-size="14" lengthAdjust="spacing" textLength="176" x="556" y="25.5352">Television  Advertisement</text><line style="stroke:#000000;stroke-width:1.0;" x1="551" x2="551" y1="10" y2="30.4883"/><line style="stroke:#000000;stroke-width:1.0;" x1="447" x2="737" y1="30.4883" y2="30.4883"/><text fill="#000000" font-family="sans-serif" font-size="14" font-weight="bold" lengthAdjust="spacing" textLength="74" x="452" y="46.0234">row_count</text><text fill="#000000" font-family="sans-serif" font-size="14" lengthAdjust="spacing" textLength="9" x="556" y="46.0234">1</text><line style="stroke:#000000;stroke-width:1.0;" x1="551" x2="551" y1="30.4883" y2="50.9766"/><line style="stroke:#000000;stroke-width:1.0;" x1="447" x2="737" y1="50.9766" y2="50.9766"/><text fill="#000000" font-family="sans-serif" font-size="14" font-weight="bold" lengthAdjust="spacing" textLength="94" x="452" y="66.5117">ratio_percent</text><text fill="#000000" font-family="sans-serif" font-size="14" lengthAdjust="spacing" textLength="31" x="556" y="66.5117">10.0</text><line style="stroke:#000000;stroke-width:1.0;" x1="551" x2="551" y1="50.9766" y2="71.4648"/><rect fill="none" height="61.4648" rx="5" ry="5" style="stroke:#000000;stroke-width:1.5;" width="290" x="447" y="10"/><rect fill="#F1F1F1" height="61.4648" rx="5" ry="5" style="stroke:#F1F1F1;stroke-width:1.5;" width="200" x="492" y="89"/><text fill="#000000" font-family="sans-serif" font-size="14" font-weight="bold" lengthAdjust="spacing" textLength="78" x="497" y="104.5352">field_value</text><text fill="#000000" font-family="sans-serif" font-size="14" lengthAdjust="spacing" textLength="86" x="601" y="104.5352">Sponsorship</text><line style="stroke:#000000;stroke-width:1.0;" x1="596" x2="596" y1="89" y2="109.4883"/><line style="stroke:#000000;stroke-width:1.0;" x1="492" x2="692" y1="109.4883" y2="109.4883"/><text fill="#000000" font-family="sans-serif" font-size="14" font-weight="bold" lengthAdjust="spacing" textLength="74" x="497" y="125.0234">row_count</text><text fill="#000000" font-family="sans-serif" font-size="14" lengthAdjust="spacing" textLength="9" x="601" y="125.0234">1</text><line style="stroke:#000000;stroke-width:1.0;" x1="596" x2="596" y1="109.4883" y2="129.9766"/><line style="stroke:#000000;stroke-width:1.0;" x1="492" x2="692" y1="129.9766" y2="129.9766"/><text fill="#000000" font-family="sans-serif" font-size="14" font-weight="bold" lengthAdjust="spacing" textLength="94" x="497" y="145.5117">ratio_percent</text><text fill="#000000" font-family="sans-serif" font-size="14" lengthAdjust="spacing" textLength="31" x="601" y="145.5117">10.0</text><line style="stroke:#000000;stroke-width:1.0;" x1="596" x2="596" y1="129.9766" y2="150.4648"/><rect fill="none" height="61.4648" rx="5" ry="5" style="stroke:#000000;stroke-width:1.5;" width="200" x="492" y="89"/><rect fill="#F1F1F1" height="61.4648" rx="5" ry="5" style="stroke:#F1F1F1;stroke-width:1.5;" width="161" x="511.5" y="168"/><text fill="#000000" font-family="sans-serif" font-size="14" font-weight="bold" lengthAdjust="spacing" textLength="78" x="516.5" y="183.5352">field_value</text><text fill="#000000" font-family="sans-serif" font-size="14" lengthAdjust="spacing" textLength="47" x="620.5" y="183.5352">Review</text><line style="stroke:#000000;stroke-width:1.0;" x1="615.5" x2="615.5" y1="168" y2="188.4883"/><line style="stroke:#000000;stroke-width:1.0;" x1="511.5" x2="672.5" y1="188.4883" y2="188.4883"/><text fill="#000000" font-family="sans-serif" font-size="14" font-weight="bold" lengthAdjust="spacing" textLength="74" x="516.5" y="204.0234">row_count</text><text fill="#000000" font-family="sans-serif" font-size="14" lengthAdjust="spacing" textLength="9" x="620.5" y="204.0234">1</text><line style="stroke:#000000;stroke-width:1.0;" x1="615.5" x2="615.5" y1="188.4883" y2="208.9766"/><line style="stroke:#000000;stroke-width:1.0;" x1="511.5" x2="672.5" y1="208.9766" y2="208.9766"/><text fill="#000000" font-family="sans-serif" font-size="14" font-weight="bold" lengthAdjust="spacing" textLength="94" x="516.5" y="224.5117">ratio_percent</text><text fill="#000000" font-family="sans-serif" font-size="14" lengthAdjust="spacing" textLength="31" x="620.5" y="224.5117">10.0</text><line style="stroke:#000000;stroke-width:1.0;" x1="615.5" x2="615.5" y1="208.9766" y2="229.4648"/><rect fill="none" height="61.4648" rx="5" ry="5" style="stroke:#000000;stroke-width:1.5;" width="161" x="511.5" y="168"/><rect fill="#F1F1F1" height="61.4648" rx="5" ry="5" style="stroke:#F1F1F1;stroke-width:1.5;" width="162" x="511" y="247"/><text fill="#000000" font-family="sans-serif" font-size="14" font-weight="bold" lengthAdjust="spacing" textLength="78" x="516" y="262.5352">field_value</text><text fill="#000000" font-family="sans-serif" font-size="14" lengthAdjust="spacing" textLength="48" x="620" y="262.5352">Quality</text><line style="stroke:#000000;stroke-width:1.0;" x1="615" x2="615" y1="247" y2="267.4883"/><line style="stroke:#000000;stroke-width:1.0;" x1="511" x2="673" y1="267.4883" y2="267.4883"/><text fill="#000000" font-family="sans-serif" font-size="14" font-weight="bold" lengthAdjust="spacing" textLength="74" x="516" y="283.0234">row_count</text><text fill="#000000" font-family="sans-serif" font-size="14" lengthAdjust="spacing" textLength="9" x="620" y="283.0234">1</text><line style="stroke:#000000;stroke-width:1.0;" x1="615" x2="615" y1="267.4883" y2="287.9766"/><line style="stroke:#000000;stroke-width:1.0;" x1="511" x2="673" y1="287.9766" y2="287.9766"/><text fill="#000000" font-family="sans-serif" font-size="14" font-weight="bold" lengthAdjust="spacing" textLength="94" x="516" y="303.5117">ratio_percent</text><text fill="#000000" font-family="sans-serif" font-size="14" lengthAdjust="spacing" textLength="31" x="620" y="303.5117">10.0</text><line style="stroke:#000000;stroke-width:1.0;" x1="615" x2="615" y1="287.9766" y2="308.4648"/><rect fill="none" height="61.4648" rx="5" ry="5" style="stroke:#000000;stroke-width:1.5;" width="162" x="511" y="247"/><rect fill="#F1F1F1" height="61.4648" rx="5" ry="5" style="stroke:#F1F1F1;stroke-width:1.5;" width="147" x="518.5" y="326"/><text fill="#000000" font-family="sans-serif" font-size="14" font-weight="bold" lengthAdjust="spacing" textLength="78" x="523.5" y="341.5352">field_value</text><text fill="#000000" font-family="sans-serif" font-size="14" lengthAdjust="spacing" textLength="33" x="627.5" y="341.5352">Price</text><line style="stroke:#000000;stroke-width:1.0;" x1="622.5" x2="622.5" y1="326" y2="346.4883"/><line style="stroke:#000000;stroke-width:1.0;" x1="518.5" x2="665.5" y1="346.4883" y2="346.4883"/><text fill="#000000" font-family="sans-serif" font-size="14" font-weight="bold" lengthAdjust="spacing" textLength="74" x="523.5" y="362.0234">row_count</text><text fill="#000000" font-family="sans-serif" font-size="14" lengthAdjust="spacing" textLength="9" x="627.5" y="362.0234">1</text><line style="stroke:#000000;stroke-width:1.0;" x1="622.5" x2="622.5" y1="346.4883" y2="366.9766"/><line style="stroke:#000000;stroke-width:1.0;" x1="518.5" x2="665.5" y1="366.9766" y2="366.9766"/><text fill="#000000" font-family="sans-serif" font-size="14" font-weight="bold" lengthAdjust="spacing" textLength="94" x="523.5" y="382.5117">ratio_percent</text><text fill="#000000" font-family="sans-serif" font-size="14" lengthAdjust="spacing" textLength="31" x="627.5" y="382.5117">10.0</text><line style="stroke:#000000;stroke-width:1.0;" x1="622.5" x2="622.5" y1="366.9766" y2="387.4648"/><rect fill="none" height="61.4648" rx="5" ry="5" style="stroke:#000000;stroke-width:1.5;" width="147" x="518.5" y="326"/><rect fill="#F1F1F1" height="61.4648" rx="5" ry="5" style="stroke:#F1F1F1;stroke-width:1.5;" width="153" x="515.5" y="405"/><text fill="#000000" font-family="sans-serif" font-size="14" font-weight="bold" lengthAdjust="spacing" textLength="78" x="520.5" y="420.5352">field_value</text><text fill="#000000" font-family="sans-serif" font-size="14" lengthAdjust="spacing" textLength="39" x="624.5" y="420.5352">Other</text><line style="stroke:#000000;stroke-width:1.0;" x1="619.5" x2="619.5" y1="405" y2="425.4883"/><line style="stroke:#000000;stroke-width:1.0;" x1="515.5" x2="668.5" y1="425.4883" y2="425.4883"/><text fill="#000000" font-family="sans-serif" font-size="14" font-weight="bold" lengthAdjust="spacing" textLength="74" x="520.5" y="441.0234">row_count</text><text fill="#000000" font-family="sans-serif" font-size="14" lengthAdjust="spacing" textLength="9" x="624.5" y="441.0234">1</text><line style="stroke:#000000;stroke-width:1.0;" x1="619.5" x2="619.5" y1="425.4883" y2="445.9766"/><line style="stroke:#000000;stroke-width:1.0;" x1="515.5" x2="668.5" y1="445.9766" y2="445.9766"/><text fill="#000000" font-family="sans-serif" font-size="14" font-weight="bold" lengthAdjust="spacing" textLength="94" x="520.5" y="461.5117">ratio_percent</text><text fill="#000000" font-family="sans-serif" font-size="14" lengthAdjust="spacing" textLength="31" x="624.5" y="461.5117">10.0</text><line style="stroke:#000000;stroke-width:1.0;" x1="619.5" x2="619.5" y1="445.9766" y2="466.4648"/><rect fill="none" height="61.4648" rx="5" ry="5" style="stroke:#000000;stroke-width:1.5;" width="153" x="515.5" y="405"/><rect fill="#F1F1F1" height="61.4648" rx="5" ry="5" style="stroke:#F1F1F1;stroke-width:1.5;" width="210" x="487" y="484"/><text fill="#000000" font-family="sans-serif" font-size="14" font-weight="bold" lengthAdjust="spacing" textLength="78" x="492" y="499.5352">field_value</text><text fill="#000000" font-family="sans-serif" font-size="14" lengthAdjust="spacing" textLength="96" x="596" y="499.5352">On Promotion</text><line style="stroke:#000000;stroke-width:1.0;" x1="591" x2="591" y1="484" y2="504.4883"/><line style="stroke:#000000;stroke-width:1.0;" x1="487" x2="697" y1="504.4883" y2="504.4883"/><text fill="#000000" font-family="sans-serif" font-size="14" font-weight="bold" lengthAdjust="spacing" textLength="74" x="492" y="520.0234">row_count</text><text fill="#000000" font-family="sans-serif" font-size="14" lengthAdjust="spacing" textLength="9" x="596" y="520.0234">1</text><line style="stroke:#000000;stroke-width:1.0;" x1="591" x2="591" y1="504.4883" y2="524.9766"/><line style="stroke:#000000;stroke-width:1.0;" x1="487" x2="697" y1="524.9766" y2="524.9766"/><text fill="#000000" font-family="sans-serif" font-size="14" font-weight="bold" lengthAdjust="spacing" textLength="94" x="492" y="540.5117">ratio_percent</text><text fill="#000000" font-family="sans-serif" font-size="14" lengthAdjust="spacing" textLength="31" x="596" y="540.5117">10.0</text><line style="stroke:#000000;stroke-width:1.0;" x1="591" x2="591" y1="524.9766" y2="545.4648"/><rect fill="none" height="61.4648" rx="5" ry="5" style="stroke:#000000;stroke-width:1.5;" width="210" x="487" y="484"/><rect fill="#F1F1F1" height="61.4648" rx="5" ry="5" style="stroke:#F1F1F1;stroke-width:1.5;" width="206" x="489" y="563"/><text fill="#000000" font-family="sans-serif" font-size="14" font-weight="bold" lengthAdjust="spacing" textLength="78" x="494" y="578.5352">field_value</text><text fill="#000000" font-family="sans-serif" font-size="14" lengthAdjust="spacing" textLength="92" x="598" y="578.5352">Manufacturer</text><line style="stroke:#000000;stroke-width:1.0;" x1="593" x2="593" y1="563" y2="583.4883"/><line style="stroke:#000000;stroke-width:1.0;" x1="489" x2="695" y1="583.4883" y2="583.4883"/><text fill="#000000" font-family="sans-serif" font-size="14" font-weight="bold" lengthAdjust="spacing" textLength="74" x="494" y="599.0234">row_count</text><text fill="#000000" font-family="sans-serif" font-size="14" lengthAdjust="spacing" textLength="9" x="598" y="599.0234">1</text><line style="stroke:#000000;stroke-width:1.0;" x1="593" x2="593" y1="583.4883" y2="603.9766"/><line style="stroke:#000000;stroke-width:1.0;" x1="489" x2="695" y1="603.9766" y2="603.9766"/><text fill="#000000" font-family="sans-serif" font-size="14" font-weight="bold" lengthAdjust="spacing" textLength="94" x="494" y="619.5117">ratio_percent</text><text fill="#000000" font-family="sans-serif" font-size="14" lengthAdjust="spacing" textLength="31" x="598" y="619.5117">10.0</text><line style="stroke:#000000;stroke-width:1.0;" x1="593" x2="593" y1="603.9766" y2="624.4648"/><rect fill="none" height="61.4648" rx="5" ry="5" style="stroke:#000000;stroke-width:1.5;" width="206" x="489" y="563"/><rect fill="#F1F1F1" height="61.4648" rx="5" ry="5" style="stroke:#F1F1F1;stroke-width:1.5;" width="283" x="450.5" y="642"/><text fill="#000000" font-family="sans-serif" font-size="14" font-weight="bold" lengthAdjust="spacing" textLength="78" x="455.5" y="657.5352">field_value</text><text fill="#000000" font-family="sans-serif" font-size="14" lengthAdjust="spacing" textLength="169" x="559.5" y="657.5352">Magazine Advertisement</text><line style="stroke:#000000;stroke-width:1.0;" x1="554.5" x2="554.5" y1="642" y2="662.4883"/><line style="stroke:#000000;stroke-width:1.0;" x1="450.5" x2="733.5" y1="662.4883" y2="662.4883"/><text fill="#000000" font-family="sans-serif" font-size="14" font-weight="bold" lengthAdjust="spacing" textLength="74" x="455.5" y="678.0234">row_count</text><text fill="#000000" font-family="sans-serif" font-size="14" lengthAdjust="spacing" textLength="9" x="559.5" y="678.0234">1</text><line style="stroke:#000000;stroke-width:1.0;" x1="554.5" x2="554.5" y1="662.4883" y2="682.9766"/><line style="stroke:#000000;stroke-width:1.0;" x1="450.5" x2="733.5" y1="682.9766" y2="682.9766"/><text fill="#000000" font-family="sans-serif" font-size="14" font-weight="bold" lengthAdjust="spacing" textLength="94" x="455.5" y="698.5117">ratio_percent</text><text fill="#000000" font-family="sans-serif" font-size="14" lengthAdjust="spacing" textLength="31" x="559.5" y="698.5117">10.0</text><line style="stroke:#000000;stroke-width:1.0;" x1="554.5" x2="554.5" y1="682.9766" y2="703.4648"/><rect fill="none" height="61.4648" rx="5" ry="5" style="stroke:#000000;stroke-width:1.5;" width="283" x="450.5" y="642"/><rect fill="#F1F1F1" height="61.4648" rx="5" ry="5" style="stroke:#F1F1F1;stroke-width:1.5;" width="195" x="494.5" y="721"/><text fill="#000000" font-family="sans-serif" font-size="14" font-weight="bold" lengthAdjust="spacing" textLength="78" x="499.5" y="736.5352">field_value</text><text fill="#000000" font-family="sans-serif" font-size="14" lengthAdjust="spacing" textLength="81" x="603.5" y="736.5352">Demo Event</text><line style="stroke:#000000;stroke-width:1.0;" x1="598.5" x2="598.5" y1="721" y2="741.4883"/><line style="stroke:#000000;stroke-width:1.0;" x1="494.5" x2="689.5" y1="741.4883" y2="741.4883"/><text fill="#000000" font-family="sans-serif" font-size="14" font-weight="bold" lengthAdjust="spacing" textLength="74" x="499.5" y="757.0234">row_count</text><text fill="#000000" font-family="sans-serif" font-size="14" lengthAdjust="spacing" textLength="9" x="603.5" y="757.0234">1</text><line style="stroke:#000000;stroke-width:1.0;" x1="598.5" x2="598.5" y1="741.4883" y2="761.9766"/><line style="stroke:#000000;stroke-width:1.0;" x1="494.5" x2="689.5" y1="761.9766" y2="761.9766"/><text fill="#000000" font-family="sans-serif" font-size="14" font-weight="bold" lengthAdjust="spacing" textLength="94" x="499.5" y="777.5117">ratio_percent</text><text fill="#000000" font-family="sans-serif" font-size="14" lengthAdjust="spacing" textLength="31" x="603.5" y="777.5117">10.0</text><line style="stroke:#000000;stroke-width:1.0;" x1="598.5" x2="598.5" y1="761.9766" y2="782.4648"/><rect fill="none" height="61.4648" rx="5" ry="5" style="stroke:#000000;stroke-width:1.5;" width="195" x="494.5" y="721"/><path d="M181,315.5 L194,315.5 C214.8273,315.5 211.8137,295.6507 230,285.5 C234.038,283.2462 238.2733,281.1247 242.6133,279.1338 " fill="none" style="stroke:#000000;stroke-width:1.0;stroke-dasharray:3.0,3.0;"/><path d="M243.8219,281.8909 L244.6812,278.2274 L241.4048,276.3766 L249.5062,276.1124 L243.8219,281.8909 " fill="#000000" style="stroke:#000000;stroke-width:1.0;"/><ellipse cx="181" cy="315.5" fill="#000000" rx="3" ry="3" style="stroke:#000000;stroke-width:1.0;"/><path d="M320.5,303.5 L333.5,303.5 C368.8613,303.5 386.6954,311.1847 411,285.5 C474.8819,217.9906 384.323,148.1296 447,79.5 C448.0185,78.3848 449.0653,77.3 450.1385,76.2451 " fill="none" style="stroke:#000000;stroke-width:1.0;stroke-dasharray:3.0,3.0;"/><path d="M452.1508,78.4762 L451.8118,74.7358 L448.1261,74.0139 L455.7163,71.2141 L452.1508,78.4762 " fill="#000000" style="stroke:#000000;stroke-width:1.0;"/><ellipse cx="320.5" cy="303.5" fill="#000000" rx="3" ry="3" style="stroke:#000000;stroke-width:1.0;"/><path d="M320.5,324.5 L333.5,324.5 C372.0599,324.5 386.4435,315.2295 411,285.5 C448.3625,240.267 405.2546,199.7225 447,158.5 C457.6277,148.0054 470.7678,140.2574 484.7563,134.5517 " fill="none" style="stroke:#000000;stroke-width:1.0;stroke-dasharray:3.0,3.0;"/><path d="M485.8769,137.5051 L486.9714,133.7113 L483.6358,131.5982 L492.14,131.7504 L485.8769,137.5051 " fill="#000000" style="stroke:#000000;stroke-width:1.0;"/><ellipse cx="320.5" cy="324.5" fill="#000000" rx="3" ry="3" style="stroke:#000000;stroke-width:1.0;"/><path d="M320.5,344.5 L333.5,344.5 C376.79,344.5 380.4995,316.2205 411,285.5 C429.7883,266.5762 424.9228,252.457 447,237.5 C464.0519,225.9476 484.3976,217.8102 504.3627,212.0805 " fill="none" style="stroke:#000000;stroke-width:1.0;stroke-dasharray:3.0,3.0;"/><path d="M505.1642,215.0131 L506.5621,211.4793 L503.5611,209.1479 L511.6942,210.0766 L505.1642,215.0131 " fill="#000000" style="stroke:#000000;stroke-width:1.0;"/><ellipse cx="320.5" cy="344.5" fill="#000000" rx="3" ry="3" style="stroke:#000000;stroke-width:1.0;"/><path d="M320.5,365.5 L333.5,365.5 C388.27,365.5 395.276,335.5106 447,317.5 C465.3102,311.1243 485.1981,305.0725 504.1956,299.6958 " fill="none" style="stroke:#000000;stroke-width:1.0;stroke-dasharray:3.0,3.0;"/><path d="M505.0063,302.5887 L506.3652,299.0878 L503.3848,296.8029 L511.4278,297.669 L505.0063,302.5887 " fill="#000000" style="stroke:#000000;stroke-width:1.0;"/><ellipse cx="320.5" cy="365.5" fill="#000000" rx="3" ry="3" style="stroke:#000000;stroke-width:1.0;"/><path d="M320.5,385.5 L333.5,385.5 C393.3077,385.5 460.4286,377.7092 511.2144,370.2037 " fill="none" style="stroke:#000000;stroke-width:1.0;stroke-dasharray:3.0,3.0;"/><path d="M511.6754,373.2792 L513.5211,369.8579 L510.7534,367.1281 L518.9033,369.0512 L511.6754,373.2792 " fill="#000000" style="stroke:#000000;stroke-width:1.0;"/><ellipse cx="320.5" cy="385.5" fill="#000000" rx="3" ry="3" style="stroke:#000000;stroke-width:1.0;"/><path d="M320.5,406.5 L333.5,406.5 C392.1287,406.5 457.7851,413.9867 508.1921,421.3522 " fill="none" style="stroke:#000000;stroke-width:1.0;stroke-dasharray:3.0,3.0;"/><path d="M507.7391,424.4079 L510.4839,421.6919 L508.645,418.2965 L515.8314,422.4845 L507.7391,424.4079 " fill="#000000" style="stroke:#000000;stroke-width:1.0;"/><ellipse cx="320.5" cy="406.5" fill="#000000" rx="3" ry="3" style="stroke:#000000;stroke-width:1.0;"/><path d="M320.5,427.5 L333.5,427.5 C388.27,427.5 395.2183,457.656 447,475.5 C457.58,479.1459 468.6898,482.6688 479.8516,486.007 " fill="none" style="stroke:#000000;stroke-width:1.0;stroke-dasharray:3.0,3.0;"/><path d="M478.985,488.9419 L482.0528,486.6569 L480.7182,483.072 L487.189,488.1734 L478.985,488.9419 " fill="#000000" style="stroke:#000000;stroke-width:1.0;"/><ellipse cx="320.5" cy="427.5" fill="#000000" rx="3" ry="3" style="stroke:#000000;stroke-width:1.0;"/><path d="M320.5,447.5 L333.5,447.5 C402.8266,447.5 386.4879,520.6702 447,554.5 C457.9966,560.6477 470.011,565.8657 482.2632,570.2856 " fill="none" style="stroke:#000000;stroke-width:1.0;stroke-dasharray:3.0,3.0;"/><path d="M481.2587,573.1798 L484.4338,571.0389 L483.2676,567.3914 L489.4987,572.7967 L481.2587,573.1798 " fill="#000000" style="stroke:#000000;stroke-width:1.0;"/><ellipse cx="320.5" cy="447.5" fill="#000000" rx="3" ry="3" style="stroke:#000000;stroke-width:1.0;"/><path d="M320.5,468.5 L333.5,468.5 C422.508,468.5 374.3486,582.0783 447,633.5 C449.1209,635.0012 451.2967,636.4446 453.5197,637.8324 " fill="none" style="stroke:#000000;stroke-width:1.0;stroke-dasharray:3.0,3.0;"/><path d="M451.92,640.5538 L455.5607,639.0322 L455.1193,635.1111 L460.323,641.8316 L451.92,640.5538 " fill="#000000" style="stroke:#000000;stroke-width:1.0;"/><ellipse cx="320.5" cy="468.5" fill="#000000" rx="3" ry="3" style="stroke:#000000;stroke-width:1.0;"/><path d="M320.5,488.5 L333.5,488.5 C445.1062,488.5 360.4086,642.0878 447,712.5 C458.8679,722.1504 472.9185,729.4248 487.5204,734.9056 " fill="none" style="stroke:#000000;stroke-width:1.0;stroke-dasharray:3.0,3.0;"/><path d="M486.5007,737.7878 L489.682,735.6704 L488.54,732.0235 L494.7257,737.4547 L486.5007,737.7878 " fill="#000000" style="stroke:#000000;stroke-width:1.0;"/><ellipse cx="320.5" cy="488.5" fill="#000000" rx="3" ry="3" style="stroke:#000000;stroke-width:1.0;"/><path d="M181,336.5 L194,336.5 C236.1629,336.5 279.1866,364.4055 302.2874,382.1547 " fill="none" style="stroke:#000000;stroke-width:1.0;stroke-dasharray:3.0,3.0;"/><path d="M300.4053,384.5427 L304.0784,383.5663 L304.1695,379.7667 L308.2574,386.86 L300.4053,384.5427 " fill="#000000" style="stroke:#000000;stroke-width:1.0;"/><ellipse cx="181" cy="336.5" fill="#000000" rx="3" ry="3" style="stroke:#000000;stroke-width:1.0;"/><!--MD5=[71a08869947ae108bdf2897558f4f7b7]
@startjson
{
    "field1": "Name",
    "combination": "Name",
    "null_distribution": {
        "total_null_rows": 0,
        "total_not_null_rows": 10
    },
    "data_distribution": [
        {
            "field_value": "Television  Advertisement",
            "row_count": 1,
            "ratio_percent": 10.0
        },
        {
            "field_value": "Sponsorship",
            "row_count": 1,
            "ratio_percent": 10.0
        },
        {
            "field_value": "Review",
            "row_count": 1,
            "ratio_percent": 10.0
        },
        {
            "field_value": "Quality",
            "row_count": 1,
            "ratio_percent": 10.0
        },
        {
            "field_value": "Price",
            "row_count": 1,
            "ratio_percent": 10.0
        },
        {
            "field_value": "Other",
            "row_count": 1,
            "ratio_percent": 10.0
        },
        {
            "field_value": "On Promotion",
            "row_count": 1,
            "ratio_percent": 10.0
        },
        {
            "field_value": "Manufacturer",
            "row_count": 1,
            "ratio_percent": 10.0
        },
        {
            "field_value": "Magazine Advertisement",
            "row_count": 1,
            "ratio_percent": 10.0
        },
        {
            "field_value": "Demo Event",
            "row_count": 1,
            "ratio_percent": 10.0
        }
    ]
}
@endjson

PlantUML version 1.2022.5(Sat Apr 30 06:55:52 EDT 2022)
(GPL source distribution)
Java Runtime: OpenJDK Runtime Environment
JVM: OpenJDK 64-Bit Server VM
Default Encoding: UTF-8
Language: en
Country: CA
--></g></svg>