<?xml version="1.0" encoding="UTF-8" standalone="no"?><svg xmlns="http://www.w3.org/2000/svg" xmlns:xlink="http://www.w3.org/1999/xlink" contentStyleType="text/css" height="794px" preserveAspectRatio="none" style="width:712px;height:794px;background:#FFFFFF;" version="1.1" viewBox="0 0 712 794" width="712px" zoomAndPan="magnify"><defs/><g><rect fill="#F1F1F1" height="81.9531" rx="5" ry="5" style="stroke:#F1F1F1;stroke-width:1.5;" width="237" x="10" y="264.5"/><text fill="#000000" font-family="sans-serif" font-size="14" font-weight="bold" lengthAdjust="spacing" textLength="42" x="15" y="280.0352">field1</text><text fill="#000000" font-family="sans-serif" font-size="14" lengthAdjust="spacing" textLength="93" x="149" y="280.0352">SalesLastYear</text><line style="stroke:#000000;stroke-width:1.0;" x1="144" x2="144" y1="264.5" y2="284.9883"/><line style="stroke:#000000;stroke-width:1.0;" x1="10" x2="247" y1="284.9883" y2="284.9883"/><text fill="#000000" font-family="sans-serif" font-size="14" font-weight="bold" lengthAdjust="spacing" textLength="90" x="15" y="300.5234">combination</text><text fill="#000000" font-family="sans-serif" font-size="14" lengthAdjust="spacing" textLength="93" x="149" y="300.5234">SalesLastYear</text><line style="stroke:#000000;stroke-width:1.0;" x1="144" x2="144" y1="284.9883" y2="305.4766"/><line style="stroke:#000000;stroke-width:1.0;" x1="10" x2="247" y1="305.4766" y2="305.4766"/><text fill="#000000" font-family="sans-serif" font-size="14" font-weight="bold" lengthAdjust="spacing" textLength="121" x="15" y="321.0117">null_distribution</text><text fill="#000000" font-family="sans-serif" font-size="14" lengthAdjust="spacing" textLength="12" x="149" y="321.0117">   </text><line style="stroke:#000000;stroke-width:1.0;" x1="144" x2="144" y1="305.4766" y2="325.9648"/><line style="stroke:#000000;stroke-width:1.0;" x1="10" x2="247" y1="325.9648" y2="325.9648"/><text fill="#000000" font-family="sans-serif" font-size="14" font-weight="bold" lengthAdjust="spacing" textLength="124" x="15" y="341.5">data_distribution</text><text fill="#000000" font-family="sans-serif" font-size="14" lengthAdjust="spacing" textLength="12" x="149" y="341.5">   </text><line style="stroke:#000000;stroke-width:1.0;" x1="144" x2="144" y1="325.9648" y2="346.4531"/><rect fill="none" height="81.9531" rx="5" ry="5" style="stroke:#000000;stroke-width:1.5;" width="237" x="10" y="264.5"/><rect fill="#F1F1F1" height="40.9766" rx="5" ry="5" style="stroke:#F1F1F1;stroke-width:1.5;" width="180" x="284" y="235"/><text fill="#000000" font-family="sans-serif" font-size="14" font-weight="bold" lengthAdjust="spacing" textLength="111" x="289" y="250.5352">total_null_rows</text><text fill="#000000" font-family="sans-serif" font-size="14" lengthAdjust="spacing" textLength="9" x="441" y="250.5352">0</text><line style="stroke:#000000;stroke-width:1.0;" x1="436" x2="436" y1="235" y2="255.4883"/><line style="stroke:#000000;stroke-width:1.0;" x1="284" x2="464" y1="255.4883" y2="255.4883"/><text fill="#000000" font-family="sans-serif" font-size="14" font-weight="bold" lengthAdjust="spacing" textLength="142" x="289" y="271.0234">total_not_null_rows</text><text fill="#000000" font-family="sans-serif" font-size="14" lengthAdjust="spacing" textLength="18" x="441" y="271.0234">10</text><line style="stroke:#000000;stroke-width:1.0;" x1="436" x2="436" y1="255.4883" y2="275.9766"/><rect fill="none" height="40.9766" rx="5" ry="5" style="stroke:#000000;stroke-width:1.5;" width="180" x="284" y="235"/><rect fill="#F1F1F1" height="204.8828" rx="5" ry="5" style="stroke:#F1F1F1;stroke-width:1.5;" width="22" x="362" y="294"/><text fill="#000000" font-family="sans-serif" font-size="14" lengthAdjust="spacing" textLength="12" x="367" y="309.5352">   </text><line style="stroke:#000000;stroke-width:1.0;" x1="362" x2="384" y1="314.4883" y2="314.4883"/><text fill="#000000" font-family="sans-serif" font-size="14" lengthAdjust="spacing" textLength="12" x="367" y="330.0234">   </text><line style="stroke:#000000;stroke-width:1.0;" x1="362" x2="384" y1="334.9766" y2="334.9766"/><text fill="#000000" font-family="sans-serif" font-size="14" lengthAdjust="spacing" textLength="12" x="367" y="350.5117">   </text><line style="stroke:#000000;stroke-width:1.0;" x1="362" x2="384" y1="355.4648" y2="355.4648"/><text fill="#000000" font-family="sans-serif" font-size="14" lengthAdjust="spacing" textLength="12" x="367" y="371">   </text><line style="stroke:#000000;stroke-width:1.0;" x1="362" x2="384" y1="375.9531" y2="375.9531"/><text fill="#000000" font-family="sans-serif" font-size="14" lengthAdjust="spacing" textLength="12" x="367" y="391.4883">   </text><line style="stroke:#000000;stroke-width:1.0;" x1="362" x2="384" y1="396.4414" y2="396.4414"/><text fill="#000000" font-family="sans-serif" font-size="14" lengthAdjust="spacing" textLength="12" x="367" y="411.9766">   </text><line style="stroke:#000000;stroke-width:1.0;" x1="362" x2="384" y1="416.9297" y2="416.9297"/><text fill="#000000" font-family="sans-serif" font-size="14" lengthAdjust="spacing" textLength="12" x="367" y="432.4648">   </text><line style="stroke:#000000;stroke-width:1.0;" x1="362" x2="384" y1="437.418" y2="437.418"/><text fill="#000000" font-family="sans-serif" font-size="14" lengthAdjust="spacing" textLength="12" x="367" y="452.9531">   </text><line style="stroke:#000000;stroke-width:1.0;" x1="362" x2="384" y1="457.9063" y2="457.9063"/><text fill="#000000" font-family="sans-serif" font-size="14" lengthAdjust="spacing" textLength="12" x="367" y="473.4414">   </text><line style="stroke:#000000;stroke-width:1.0;" x1="362" x2="384" y1="478.3945" y2="478.3945"/><text fill="#000000" font-family="sans-serif" font-size="14" lengthAdjust="spacing" textLength="12" x="367" y="493.9297">   </text><rect fill="none" height="204.8828" rx="5" ry="5" style="stroke:#000000;stroke-width:1.5;" width="22" x="362" y="294"/><rect fill="#F1F1F1" height="61.4648" rx="5" ry="5" style="stroke:#F1F1F1;stroke-width:1.5;" width="199" x="501" y="10"/><text fill="#000000" font-family="sans-serif" font-size="14" font-weight="bold" lengthAdjust="spacing" textLength="78" x="506" y="25.5352">field_value</text><text fill="#000000" font-family="sans-serif" font-size="14" lengthAdjust="spacing" textLength="85" x="610" y="25.5352">5693988.86</text><line style="stroke:#000000;stroke-width:1.0;" x1="605" x2="605" y1="10" y2="30.4883"/><line style="stroke:#000000;stroke-width:1.0;" x1="501" x2="700" y1="30.4883" y2="30.4883"/><text fill="#000000" font-family="sans-serif" font-size="14" font-weight="bold" lengthAdjust="spacing" textLength="74" x="506" y="46.0234">row_count</text><text fill="#000000" font-family="sans-serif" font-size="14" lengthAdjust="spacing" textLength="9" x="610" y="46.0234">1</text><line style="stroke:#000000;stroke-width:1.0;" x1="605" x2="605" y1="30.4883" y2="50.9766"/><line style="stroke:#000000;stroke-width:1.0;" x1="501" x2="700" y1="50.9766" y2="50.9766"/><text fill="#000000" font-family="sans-serif" font-size="14" font-weight="bold" lengthAdjust="spacing" textLength="94" x="506" y="66.5117">ratio_percent</text><text fill="#000000" font-family="sans-serif" font-size="14" lengthAdjust="spacing" textLength="31" x="610" y="66.5117">10.0</text><line style="stroke:#000000;stroke-width:1.0;" x1="605" x2="605" y1="50.9766" y2="71.4648"/><rect fill="none" height="61.4648" rx="5" ry="5" style="stroke:#000000;stroke-width:1.5;" width="199" x="501" y="10"/><rect fill="#F1F1F1" height="61.4648" rx="5" ry="5" style="stroke:#F1F1F1;stroke-width:1.5;" width="199" x="501" y="89"/><text fill="#000000" font-family="sans-serif" font-size="14" font-weight="bold" lengthAdjust="spacing" textLength="78" x="506" y="104.5352">field_value</text><text fill="#000000" font-family="sans-serif" font-size="14" lengthAdjust="spacing" textLength="85" x="610" y="104.5352">5366575.71</text><line style="stroke:#000000;stroke-width:1.0;" x1="605" x2="605" y1="89" y2="109.4883"/><line style="stroke:#000000;stroke-width:1.0;" x1="501" x2="700" y1="109.4883" y2="109.4883"/><text fill="#000000" font-family="sans-serif" font-size="14" font-weight="bold" lengthAdjust="spacing" textLength="74" x="506" y="125.0234">row_count</text><text fill="#000000" font-family="sans-serif" font-size="14" lengthAdjust="spacing" textLength="9" x="610" y="125.0234">1</text><line style="stroke:#000000;stroke-width:1.0;" x1="605" x2="605" y1="109.4883" y2="129.9766"/><line style="stroke:#000000;stroke-width:1.0;" x1="501" x2="700" y1="129.9766" y2="129.9766"/><text fill="#000000" font-family="sans-serif" font-size="14" font-weight="bold" lengthAdjust="spacing" textLength="94" x="506" y="145.5117">ratio_percent</text><text fill="#000000" font-family="sans-serif" font-size="14" lengthAdjust="spacing" textLength="31" x="610" y="145.5117">10.0</text><line style="stroke:#000000;stroke-width:1.0;" x1="605" x2="605" y1="129.9766" y2="150.4648"/><rect fill="none" height="61.4648" rx="5" ry="5" style="stroke:#000000;stroke-width:1.5;" width="199" x="501" y="89"/><rect fill="#F1F1F1" height="61.4648" rx="5" ry="5" style="stroke:#F1F1F1;stroke-width:1.5;" width="199" x="501" y="168"/><text fill="#000000" font-family="sans-serif" font-size="14" font-weight="bold" lengthAdjust="spacing" textLength="78" x="506" y="183.5352">field_value</text><text fill="#000000" font-family="sans-serif" font-size="14" lengthAdjust="spacing" textLength="85" x="610" y="183.5352">3925071.43</text><line style="stroke:#000000;stroke-width:1.0;" x1="605" x2="605" y1="168" y2="188.4883"/><line style="stroke:#000000;stroke-width:1.0;" x1="501" x2="700" y1="188.4883" y2="188.4883"/><text fill="#000000" font-family="sans-serif" font-size="14" font-weight="bold" lengthAdjust="spacing" textLength="74" x="506" y="204.0234">row_count</text><text fill="#000000" font-family="sans-serif" font-size="14" lengthAdjust="spacing" textLength="9" x="610" y="204.0234">1</text><line style="stroke:#000000;stroke-width:1.0;" x1="605" x2="605" y1="188.4883" y2="208.9766"/><line style="stroke:#000000;stroke-width:1.0;" x1="501" x2="700" y1="208.9766" y2="208.9766"/><text fill="#000000" font-family="sans-serif" font-size="14" font-weight="bold" lengthAdjust="spacing" textLength="94" x="506" y="224.5117">ratio_percent</text><text fill="#000000" font-family="sans-serif" font-size="14" lengthAdjust="spacing" textLength="31" x="610" y="224.5117">10.0</text><line style="stroke:#000000;stroke-width:1.0;" x1="605" x2="605" y1="208.9766" y2="229.4648"/><rect fill="none" height="61.4648" rx="5" ry="5" style="stroke:#000000;stroke-width:1.5;" width="199" x="501" y="168"/><rect fill="#F1F1F1" height="61.4648" rx="5" ry="5" style="stroke:#F1F1F1;stroke-width:1.5;" width="199" x="501" y="247"/><text fill="#000000" font-family="sans-serif" font-size="14" font-weight="bold" lengthAdjust="spacing" textLength="78" x="506" y="262.5352">field_value</text><text fill="#000000" font-family="sans-serif" font-size="14" lengthAdjust="spacing" textLength="85" x="610" y="262.5352">3607148.94</text><line style="stroke:#000000;stroke-width:1.0;" x1="605" x2="605" y1="247" y2="267.4883"/><line style="stroke:#000000;stroke-width:1.0;" x1="501" x2="700" y1="267.4883" y2="267.4883"/><text fill="#000000" font-family="sans-serif" font-size="14" font-weight="bold" lengthAdjust="spacing" textLength="74" x="506" y="283.0234">row_count</text><text fill="#000000" font-family="sans-serif" font-size="14" lengthAdjust="spacing" textLength="9" x="610" y="283.0234">1</text><line style="stroke:#000000;stroke-width:1.0;" x1="605" x2="605" y1="267.4883" y2="287.9766"/><line style="stroke:#000000;stroke-width:1.0;" x1="501" x2="700" y1="287.9766" y2="287.9766"/><text fill="#000000" font-family="sans-serif" font-size="14" font-weight="bold" lengthAdjust="spacing" textLength="94" x="506" y="303.5117">ratio_percent</text><text fill="#000000" font-family="sans-serif" font-size="14" lengthAdjust="spacing" textLength="31" x="610" y="303.5117">10.0</text><line style="stroke:#000000;stroke-width:1.0;" x1="605" x2="605" y1="287.9766" y2="308.4648"/><rect fill="none" height="61.4648" rx="5" ry="5" style="stroke:#000000;stroke-width:1.5;" width="199" x="501" y="247"/><rect fill="#F1F1F1" height="61.4648" rx="5" ry="5" style="stroke:#F1F1F1;stroke-width:1.5;" width="199" x="501" y="326"/><text fill="#000000" font-family="sans-serif" font-size="14" font-weight="bold" lengthAdjust="spacing" textLength="78" x="506" y="341.5352">field_value</text><text fill="#000000" font-family="sans-serif" font-size="14" lengthAdjust="spacing" textLength="85" x="610" y="341.5352">3298694.49</text><line style="stroke:#000000;stroke-width:1.0;" x1="605" x2="605" y1="326" y2="346.4883"/><line style="stroke:#000000;stroke-width:1.0;" x1="501" x2="700" y1="346.4883" y2="346.4883"/><text fill="#000000" font-family="sans-serif" font-size="14" font-weight="bold" lengthAdjust="spacing" textLength="74" x="506" y="362.0234">row_count</text><text fill="#000000" font-family="sans-serif" font-size="14" lengthAdjust="spacing" textLength="9" x="610" y="362.0234">1</text><line style="stroke:#000000;stroke-width:1.0;" x1="605" x2="605" y1="346.4883" y2="366.9766"/><line style="stroke:#000000;stroke-width:1.0;" x1="501" x2="700" y1="366.9766" y2="366.9766"/><text fill="#000000" font-family="sans-serif" font-size="14" font-weight="bold" lengthAdjust="spacing" textLength="94" x="506" y="382.5117">ratio_percent</text><text fill="#000000" font-family="sans-serif" font-size="14" lengthAdjust="spacing" textLength="31" x="610" y="382.5117">10.0</text><line style="stroke:#000000;stroke-width:1.0;" x1="605" x2="605" y1="366.9766" y2="387.4648"/><rect fill="none" height="61.4648" rx="5" ry="5" style="stroke:#000000;stroke-width:1.5;" width="199" x="501" y="326"/><rect fill="#F1F1F1" height="61.4648" rx="5" ry="5" style="stroke:#F1F1F1;stroke-width:1.5;" width="199" x="501" y="405"/><text fill="#000000" font-family="sans-serif" font-size="14" font-weight="bold" lengthAdjust="spacing" textLength="78" x="506" y="420.5352">field_value</text><text fill="#000000" font-family="sans-serif" font-size="14" lengthAdjust="spacing" textLength="85" x="610" y="420.5352">3205014.08</text><line style="stroke:#000000;stroke-width:1.0;" x1="605" x2="605" y1="405" y2="425.4883"/><line style="stroke:#000000;stroke-width:1.0;" x1="501" x2="700" y1="425.4883" y2="425.4883"/><text fill="#000000" font-family="sans-serif" font-size="14" font-weight="bold" lengthAdjust="spacing" textLength="74" x="506" y="441.0234">row_count</text><text fill="#000000" font-family="sans-serif" font-size="14" lengthAdjust="spacing" textLength="9" x="610" y="441.0234">1</text><line style="stroke:#000000;stroke-width:1.0;" x1="605" x2="605" y1="425.4883" y2="445.9766"/><line style="stroke:#000000;stroke-width:1.0;" x1="501" x2="700" y1="445.9766" y2="445.9766"/><text fill="#000000" font-family="sans-serif" font-size="14" font-weight="bold" lengthAdjust="spacing" textLength="94" x="506" y="461.5117">ratio_percent</text><text fill="#000000" font-family="sans-serif" font-size="14" lengthAdjust="spacing" textLength="31" x="610" y="461.5117">10.0</text><line style="stroke:#000000;stroke-width:1.0;" x1="605" x2="605" y1="445.9766" y2="466.4648"/><rect fill="none" height="61.4648" rx="5" ry="5" style="stroke:#000000;stroke-width:1.5;" width="199" x="501" y="405"/><rect fill="#F1F1F1" height="61.4648" rx="5" ry="5" style="stroke:#F1F1F1;stroke-width:1.5;" width="199" x="501" y="484"/><text fill="#000000" font-family="sans-serif" font-size="14" font-weight="bold" lengthAdjust="spacing" textLength="78" x="506" y="499.5352">field_value</text><text fill="#000000" font-family="sans-serif" font-size="14" lengthAdjust="spacing" textLength="85" x="610" y="499.5352">2396539.76</text><line style="stroke:#000000;stroke-width:1.0;" x1="605" x2="605" y1="484" y2="504.4883"/><line style="stroke:#000000;stroke-width:1.0;" x1="501" x2="700" y1="504.4883" y2="504.4883"/><text fill="#000000" font-family="sans-serif" font-size="14" font-weight="bold" lengthAdjust="spacing" textLength="74" x="506" y="520.0234">row_count</text><text fill="#000000" font-family="sans-serif" font-size="14" lengthAdjust="spacing" textLength="9" x="610" y="520.0234">1</text><line style="stroke:#000000;stroke-width:1.0;" x1="605" x2="605" y1="504.4883" y2="524.9766"/><line style="stroke:#000000;stroke-width:1.0;" x1="501" x2="700" y1="524.9766" y2="524.9766"/><text fill="#000000" font-family="sans-serif" font-size="14" font-weight="bold" lengthAdjust="spacing" textLength="94" x="506" y="540.5117">ratio_percent</text><text fill="#000000" font-family="sans-serif" font-size="14" lengthAdjust="spacing" textLength="31" x="610" y="540.5117">10.0</text><line style="stroke:#000000;stroke-width:1.0;" x1="605" x2="605" y1="524.9766" y2="545.4648"/><rect fill="none" height="61.4648" rx="5" ry="5" style="stroke:#000000;stroke-width:1.5;" width="199" x="501" y="484"/><rect fill="#F1F1F1" height="61.4648" rx="5" ry="5" style="stroke:#F1F1F1;stroke-width:1.5;" width="199" x="501" y="563"/><text fill="#000000" font-family="sans-serif" font-size="14" font-weight="bold" lengthAdjust="spacing" textLength="78" x="506" y="578.5352">field_value</text><text fill="#000000" font-family="sans-serif" font-size="14" lengthAdjust="spacing" textLength="85" x="610" y="578.5352">2278548.98</text><line style="stroke:#000000;stroke-width:1.0;" x1="605" x2="605" y1="563" y2="583.4883"/><line style="stroke:#000000;stroke-width:1.0;" x1="501" x2="700" y1="583.4883" y2="583.4883"/><text fill="#000000" font-family="sans-serif" font-size="14" font-weight="bold" lengthAdjust="spacing" textLength="74" x="506" y="599.0234">row_count</text><text fill="#000000" font-family="sans-serif" font-size="14" lengthAdjust="spacing" textLength="9" x="610" y="599.0234">1</text><line style="stroke:#000000;stroke-width:1.0;" x1="605" x2="605" y1="583.4883" y2="603.9766"/><line style="stroke:#000000;stroke-width:1.0;" x1="501" x2="700" y1="603.9766" y2="603.9766"/><text fill="#000000" font-family="sans-serif" font-size="14" font-weight="bold" lengthAdjust="spacing" textLength="94" x="506" y="619.5117">ratio_percent</text><text fill="#000000" font-family="sans-serif" font-size="14" lengthAdjust="spacing" textLength="31" x="610" y="619.5117">10.0</text><line style="stroke:#000000;stroke-width:1.0;" x1="605" x2="605" y1="603.9766" y2="624.4648"/><rect fill="none" height="61.4648" rx="5" ry="5" style="stroke:#000000;stroke-width:1.5;" width="199" x="501" y="563"/><rect fill="#F1F1F1" height="61.4648" rx="5" ry="5" style="stroke:#F1F1F1;stroke-width:1.5;" width="199" x="501" y="642"/><text fill="#000000" font-family="sans-serif" font-size="14" font-weight="bold" lengthAdjust="spacing" textLength="78" x="506" y="657.5352">field_value</text><text fill="#000000" font-family="sans-serif" font-size="14" lengthAdjust="spacing" textLength="85" x="610" y="657.5352">1635823.40</text><line style="stroke:#000000;stroke-width:1.0;" x1="605" x2="605" y1="642" y2="662.4883"/><line style="stroke:#000000;stroke-width:1.0;" x1="501" x2="700" y1="662.4883" y2="662.4883"/><text fill="#000000" font-family="sans-serif" font-size="14" font-weight="bold" lengthAdjust="spacing" textLength="74" x="506" y="678.0234">row_count</text><text fill="#000000" font-family="sans-serif" font-size="14" lengthAdjust="spacing" textLength="9" x="610" y="678.0234">1</text><line style="stroke:#000000;stroke-width:1.0;" x1="605" x2="605" y1="662.4883" y2="682.9766"/><line style="stroke:#000000;stroke-width:1.0;" x1="501" x2="700" y1="682.9766" y2="682.9766"/><text fill="#000000" font-family="sans-serif" font-size="14" font-weight="bold" lengthAdjust="spacing" textLength="94" x="506" y="698.5117">ratio_percent</text><text fill="#000000" font-family="sans-serif" font-size="14" lengthAdjust="spacing" textLength="31" x="610" y="698.5117">10.0</text><line style="stroke:#000000;stroke-width:1.0;" x1="605" x2="605" y1="682.9766" y2="703.4648"/><rect fill="none" height="61.4648" rx="5" ry="5" style="stroke:#000000;stroke-width:1.5;" width="199" x="501" y="642"/><rect fill="#F1F1F1" height="61.4648" rx="5" ry="5" style="stroke:#F1F1F1;stroke-width:1.5;" width="199" x="501" y="721"/><text fill="#000000" font-family="sans-serif" font-size="14" font-weight="bold" lengthAdjust="spacing" textLength="78" x="506" y="736.5352">field_value</text><text fill="#000000" font-family="sans-serif" font-size="14" lengthAdjust="spacing" textLength="85" x="610" y="736.5352">1307949.79</text><line style="stroke:#000000;stroke-width:1.0;" x1="605" x2="605" y1="721" y2="741.4883"/><line style="stroke:#000000;stroke-width:1.0;" x1="501" x2="700" y1="741.4883" y2="741.4883"/><text fill="#000000" font-family="sans-serif" font-size="14" font-weight="bold" lengthAdjust="spacing" textLength="74" x="506" y="757.0234">row_count</text><text fill="#000000" font-family="sans-serif" font-size="14" lengthAdjust="spacing" textLength="9" x="610" y="757.0234">1</text><line style="stroke:#000000;stroke-width:1.0;" x1="605" x2="605" y1="741.4883" y2="761.9766"/><line style="stroke:#000000;stroke-width:1.0;" x1="501" x2="700" y1="761.9766" y2="761.9766"/><text fill="#000000" font-family="sans-serif" font-size="14" font-weight="bold" lengthAdjust="spacing" textLength="94" x="506" y="777.5117">ratio_percent</text><text fill="#000000" font-family="sans-serif" font-size="14" lengthAdjust="spacing" textLength="31" x="610" y="777.5117">10.0</text><line style="stroke:#000000;stroke-width:1.0;" x1="605" x2="605" y1="761.9766" y2="782.4648"/><rect fill="none" height="61.4648" rx="5" ry="5" style="stroke:#000000;stroke-width:1.5;" width="199" x="501" y="721"/><path d="M235,315.5 L248,315.5 C268.8273,315.5 265.8137,295.6507 284,285.5 C288.038,283.2462 292.2733,281.1247 296.6133,279.1338 " fill="none" style="stroke:#000000;stroke-width:1.0;stroke-dasharray:3.0,3.0;"/><path d="M297.8219,281.8909 L298.6812,278.2274 L295.4048,276.3766 L303.5062,276.1124 L297.8219,281.8909 " fill="#000000" style="stroke:#000000;stroke-width:1.0;"/><ellipse cx="235" cy="315.5" fill="#000000" rx="3" ry="3" style="stroke:#000000;stroke-width:1.0;"/><path d="M374.5,303.5 L387.5,303.5 C422.8613,303.5 440.6954,311.1847 465,285.5 C528.8819,217.9906 442.2501,151.5199 501,79.5 C501.8429,78.4667 502.717,77.4606 503.6199,76.4811 " fill="none" style="stroke:#000000;stroke-width:1.0;stroke-dasharray:3.0,3.0;"/><path d="M505.7497,78.6685 L505.2604,74.8837 L501.4901,74.2937 L509.0883,71.1565 L505.7497,78.6685 " fill="#000000" style="stroke:#000000;stroke-width:1.0;"/><ellipse cx="374.5" cy="303.5" fill="#000000" rx="3" ry="3" style="stroke:#000000;stroke-width:1.0;"/><path d="M374.5,324.5 L387.5,324.5 C426.0599,324.5 440.4435,315.2295 465,285.5 C502.3625,240.267 461.6198,201.9877 501,158.5 C502.023,157.3703 503.0828,156.2729 504.1761,155.207 " fill="none" style="stroke:#000000;stroke-width:1.0;stroke-dasharray:3.0,3.0;"/><path d="M506.2051,157.4987 L505.8949,153.6853 L502.1472,152.9153 L509.9054,150.1346 L506.2051,157.4987 " fill="#000000" style="stroke:#000000;stroke-width:1.0;"/><ellipse cx="374.5" cy="324.5" fill="#000000" rx="3" ry="3" style="stroke:#000000;stroke-width:1.0;"/><path d="M374.5,344.5 L387.5,344.5 C430.79,344.5 434.4995,316.2205 465,285.5 C483.7883,266.5762 479.7918,253.6655 501,237.5 C502.9834,235.9882 505.0329,234.5274 507.136,233.1164 " fill="none" style="stroke:#000000;stroke-width:1.0;stroke-dasharray:3.0,3.0;"/><path d="M508.7699,235.6995 L509.0734,231.891 L505.5022,230.5333 L513.5939,229.0317 L508.7699,235.6995 " fill="#000000" style="stroke:#000000;stroke-width:1.0;"/><ellipse cx="374.5" cy="344.5" fill="#000000" rx="3" ry="3" style="stroke:#000000;stroke-width:1.0;"/><path d="M374.5,365.5 L387.5,365.5 C442.27,365.5 450.3853,338.4263 501,317.5 C506.1232,315.3818 511.4005,313.2127 516.726,311.0333 " fill="none" style="stroke:#000000;stroke-width:1.0;stroke-dasharray:3.0,3.0;"/><path d="M517.9157,313.9461 L518.9106,310.1411 L515.5363,308.1206 L524.0079,308.0591 L517.9157,313.9461 " fill="#000000" style="stroke:#000000;stroke-width:1.0;"/><ellipse cx="374.5" cy="365.5" fill="#000000" rx="3" ry="3" style="stroke:#000000;stroke-width:1.0;"/><path d="M374.5,385.5 L387.5,385.5 C422.2894,385.5 459.9907,381.637 493.8442,376.7308 " fill="none" style="stroke:#000000;stroke-width:1.0;stroke-dasharray:3.0,3.0;"/><path d="M494.2961,379.7756 L496.1278,376.3919 L493.3922,373.686 L501.4562,375.601 L494.2961,379.7756 " fill="#000000" style="stroke:#000000;stroke-width:1.0;"/><ellipse cx="374.5" cy="385.5" fill="#000000" rx="3" ry="3" style="stroke:#000000;stroke-width:1.0;"/><path d="M374.5,406.5 L387.5,406.5 C422.2894,406.5 459.9907,410.363 493.8442,415.2692 " fill="none" style="stroke:#000000;stroke-width:1.0;stroke-dasharray:3.0,3.0;"/><path d="M493.3922,418.314 L496.1278,415.6081 L494.2961,412.2244 L501.4562,416.399 L493.3922,418.314 " fill="#000000" style="stroke:#000000;stroke-width:1.0;"/><ellipse cx="374.5" cy="406.5" fill="#000000" rx="3" ry="3" style="stroke:#000000;stroke-width:1.0;"/><path d="M374.5,427.5 L387.5,427.5 C442.27,427.5 450.2946,454.7945 501,475.5 C505.4332,477.3103 509.9837,479.1538 514.5822,481.0054 " fill="none" style="stroke:#000000;stroke-width:1.0;stroke-dasharray:3.0,3.0;"/><path d="M513.4172,483.9077 L516.7589,481.8791 L515.7471,478.103 L521.838,483.9178 L513.4172,483.9077 " fill="#000000" style="stroke:#000000;stroke-width:1.0;"/><ellipse cx="374.5" cy="427.5" fill="#000000" rx="3" ry="3" style="stroke:#000000;stroke-width:1.0;"/><path d="M374.5,447.5 L387.5,447.5 C456.8266,447.5 442.4698,517.3464 501,554.5 C503.4856,556.0778 506.0455,557.6104 508.6607,559.0971 " fill="none" style="stroke:#000000;stroke-width:1.0;stroke-dasharray:3.0,3.0;"/><path d="M507.1294,561.9127 L510.7724,560.2456 L510.192,556.2816 L515.6996,562.9254 L507.1294,561.9127 " fill="#000000" style="stroke:#000000;stroke-width:1.0;"/><ellipse cx="374.5" cy="447.5" fill="#000000" rx="3" ry="3" style="stroke:#000000;stroke-width:1.0;"/><path d="M374.5,468.5 L387.5,468.5 C476.508,468.5 431.3311,578.1045 501,633.5 C502.7622,634.9012 504.5811,636.2574 506.4471,637.5696 " fill="none" style="stroke:#000000;stroke-width:1.0;stroke-dasharray:3.0,3.0;"/><path d="M504.7294,640.1747 L508.4009,638.8579 L508.1647,634.9645 L512.9598,641.8637 L504.7294,640.1747 " fill="#000000" style="stroke:#000000;stroke-width:1.0;"/><ellipse cx="374.5" cy="468.5" fill="#000000" rx="3" ry="3" style="stroke:#000000;stroke-width:1.0;"/><path d="M374.5,488.5 L387.5,488.5 C499.1062,488.5 418.4724,637.3658 501,712.5 C502.4343,713.8058 503.9175,715.0701 505.4431,716.2941 " fill="none" style="stroke:#000000;stroke-width:1.0;stroke-dasharray:3.0,3.0;"/><path d="M503.6336,718.7267 L507.2676,717.6512 L507.2527,713.8615 L511.5247,720.8179 L503.6336,718.7267 " fill="#000000" style="stroke:#000000;stroke-width:1.0;"/><ellipse cx="374.5" cy="488.5" fill="#000000" rx="3" ry="3" style="stroke:#000000;stroke-width:1.0;"/><path d="M235,336.5 L248,336.5 C290.1629,336.5 333.1866,364.4055 356.2874,382.1547 " fill="none" style="stroke:#000000;stroke-width:1.0;stroke-dasharray:3.0,3.0;"/><path d="M354.4053,384.5427 L358.0784,383.5663 L358.1695,379.7667 L362.2574,386.86 L354.4053,384.5427 " fill="#000000" style="stroke:#000000;stroke-width:1.0;"/><ellipse cx="235" cy="336.5" fill="#000000" rx="3" ry="3" style="stroke:#000000;stroke-width:1.0;"/><!--MD5=[4ff732a257ef614699caad1d811ba9db]
@startjson
{
    "field1": "SalesLastYear",
    "combination": "SalesLastYear",
    "null_distribution": {
        "total_null_rows": 0,
        "total_not_null_rows": 10
    },
    "data_distribution": [
        {
            "field_value": "5693988.86",
            "row_count": 1,
            "ratio_percent": 10.0
        },
        {
            "field_value": "5366575.71",
            "row_count": 1,
            "ratio_percent": 10.0
        },
        {
            "field_value": "3925071.43",
            "row_count": 1,
            "ratio_percent": 10.0
        },
        {
            "field_value": "3607148.94",
            "row_count": 1,
            "ratio_percent": 10.0
        },
        {
            "field_value": "3298694.49",
            "row_count": 1,
            "ratio_percent": 10.0
        },
        {
            "field_value": "3205014.08",
            "row_count": 1,
            "ratio_percent": 10.0
        },
        {
            "field_value": "2396539.76",
            "row_count": 1,
            "ratio_percent": 10.0
        },
        {
            "field_value": "2278548.98",
            "row_count": 1,
            "ratio_percent": 10.0
        },
        {
            "field_value": "1635823.40",
            "row_count": 1,
            "ratio_percent": 10.0
        },
        {
            "field_value": "1307949.79",
            "row_count": 1,
            "ratio_percent": 10.0
        }
    ]
}
@endjson

PlantUML version 1.2022.5(Sat Apr 30 06:55:52 EDT 2022)
(GPL source distribution)
Java Runtime: OpenJDK Runtime Environment
JVM: OpenJDK 64-Bit Server VM
Default Encoding: UTF-8
Language: en
Country: CA
--></g></svg>