<?xml version="1.0" encoding="UTF-8" standalone="no"?><svg xmlns="http://www.w3.org/2000/svg" xmlns:xlink="http://www.w3.org/1999/xlink" contentStyleType="text/css" height="182px" preserveAspectRatio="none" style="width:839px;height:182px;background:#FFFFFF;" version="1.1" viewBox="0 0 839 182" width="839px" zoomAndPan="magnify"><defs/><g><rect fill="#F1F1F1" height="81.9531" rx="5" ry="5" style="stroke:#F1F1F1;stroke-width:1.5;" width="256" x="10" y="10"/><text fill="#000000" font-family="sans-serif" font-size="14" font-weight="bold" lengthAdjust="spacing" textLength="42" x="15" y="25.5352">field1</text><text fill="#000000" font-family="sans-serif" font-size="14" lengthAdjust="spacing" textLength="112" x="149" y="25.5352">RevisionNumber</text><line style="stroke:#000000;stroke-width:1.0;" x1="144" x2="144" y1="10" y2="30.4883"/><line style="stroke:#000000;stroke-width:1.0;" x1="10" x2="266" y1="30.4883" y2="30.4883"/><text fill="#000000" font-family="sans-serif" font-size="14" font-weight="bold" lengthAdjust="spacing" textLength="90" x="15" y="46.0234">combination</text><text fill="#000000" font-family="sans-serif" font-size="14" lengthAdjust="spacing" textLength="112" x="149" y="46.0234">RevisionNumber</text><line style="stroke:#000000;stroke-width:1.0;" x1="144" x2="144" y1="30.4883" y2="50.9766"/><line style="stroke:#000000;stroke-width:1.0;" x1="10" x2="266" y1="50.9766" y2="50.9766"/><text fill="#000000" font-family="sans-serif" font-size="14" font-weight="bold" lengthAdjust="spacing" textLength="121" x="15" y="66.5117">null_distribution</text><text fill="#000000" font-family="sans-serif" font-size="14" lengthAdjust="spacing" textLength="12" x="149" y="66.5117">   </text><line style="stroke:#000000;stroke-width:1.0;" x1="144" x2="144" y1="50.9766" y2="71.4648"/><line style="stroke:#000000;stroke-width:1.0;" x1="10" x2="266" y1="71.4648" y2="71.4648"/><text fill="#000000" font-family="sans-serif" font-size="14" font-weight="bold" lengthAdjust="spacing" textLength="124" x="15" y="87">data_distribution</text><text fill="#000000" font-family="sans-serif" font-size="14" lengthAdjust="spacing" textLength="12" x="149" y="87">   </text><line style="stroke:#000000;stroke-width:1.0;" x1="144" x2="144" y1="71.4648" y2="91.9531"/><rect fill="none" height="81.9531" rx="5" ry="5" style="stroke:#000000;stroke-width:1.5;" width="256" x="10" y="10"/><rect fill="#F1F1F1" height="40.9766" rx="5" ry="5" style="stroke:#F1F1F1;stroke-width:1.5;" width="207" x="303" y="21.5"/><text fill="#000000" font-family="sans-serif" font-size="14" font-weight="bold" lengthAdjust="spacing" textLength="111" x="308" y="37.0352">total_null_rows</text><text fill="#000000" font-family="sans-serif" font-size="14" lengthAdjust="spacing" textLength="9" x="460" y="37.0352">0</text><line style="stroke:#000000;stroke-width:1.0;" x1="455" x2="455" y1="21.5" y2="41.9883"/><line style="stroke:#000000;stroke-width:1.0;" x1="303" x2="510" y1="41.9883" y2="41.9883"/><text fill="#000000" font-family="sans-serif" font-size="14" font-weight="bold" lengthAdjust="spacing" textLength="142" x="308" y="57.5234">total_not_null_rows</text><text fill="#000000" font-family="sans-serif" font-size="14" lengthAdjust="spacing" textLength="45" x="460" y="57.5234">31465</text><line style="stroke:#000000;stroke-width:1.0;" x1="455" x2="455" y1="41.9883" y2="62.4766"/><rect fill="none" height="40.9766" rx="5" ry="5" style="stroke:#000000;stroke-width:1.5;" width="207" x="303" y="21.5"/><rect fill="#F1F1F1" height="40.9766" rx="5" ry="5" style="stroke:#F1F1F1;stroke-width:1.5;" width="22" x="394.5" y="80.5"/><text fill="#000000" font-family="sans-serif" font-size="14" lengthAdjust="spacing" textLength="12" x="399.5" y="96.0352">   </text><line style="stroke:#000000;stroke-width:1.0;" x1="394.5" x2="416.5" y1="100.9883" y2="100.9883"/><text fill="#000000" font-family="sans-serif" font-size="14" lengthAdjust="spacing" textLength="12" x="399.5" y="116.5234">   </text><rect fill="none" height="40.9766" rx="5" ry="5" style="stroke:#000000;stroke-width:1.5;" width="22" x="394.5" y="80.5"/><rect fill="#F1F1F1" height="61.4648" rx="5" ry="5" style="stroke:#F1F1F1;stroke-width:1.5;" width="253" x="560.5" y="30.5"/><text fill="#000000" font-family="sans-serif" font-size="14" font-weight="bold" lengthAdjust="spacing" textLength="78" x="565.5" y="46.0352">field_value</text><text fill="#000000" font-family="sans-serif" font-size="14" lengthAdjust="spacing" textLength="9" x="669.5" y="46.0352">8</text><line style="stroke:#000000;stroke-width:1.0;" x1="664.5" x2="664.5" y1="30.5" y2="50.9883"/><line style="stroke:#000000;stroke-width:1.0;" x1="560.5" x2="813.5" y1="50.9883" y2="50.9883"/><text fill="#000000" font-family="sans-serif" font-size="14" font-weight="bold" lengthAdjust="spacing" textLength="74" x="565.5" y="66.5234">row_count</text><text fill="#000000" font-family="sans-serif" font-size="14" lengthAdjust="spacing" textLength="45" x="669.5" y="66.5234">31435</text><line style="stroke:#000000;stroke-width:1.0;" x1="664.5" x2="664.5" y1="50.9883" y2="71.4766"/><line style="stroke:#000000;stroke-width:1.0;" x1="560.5" x2="813.5" y1="71.4766" y2="71.4766"/><text fill="#000000" font-family="sans-serif" font-size="14" font-weight="bold" lengthAdjust="spacing" textLength="94" x="565.5" y="87.0117">ratio_percent</text><text fill="#000000" font-family="sans-serif" font-size="14" lengthAdjust="spacing" textLength="139" x="669.5" y="87.0117">99.9046559669474</text><line style="stroke:#000000;stroke-width:1.0;" x1="664.5" x2="664.5" y1="71.4766" y2="91.9648"/><rect fill="none" height="61.4648" rx="5" ry="5" style="stroke:#000000;stroke-width:1.5;" width="253" x="560.5" y="30.5"/><rect fill="#F1F1F1" height="61.4648" rx="5" ry="5" style="stroke:#F1F1F1;stroke-width:1.5;" width="280" x="547" y="109.5"/><text fill="#000000" font-family="sans-serif" font-size="14" font-weight="bold" lengthAdjust="spacing" textLength="78" x="552" y="125.0352">field_value</text><text fill="#000000" font-family="sans-serif" font-size="14" lengthAdjust="spacing" textLength="9" x="656" y="125.0352">9</text><line style="stroke:#000000;stroke-width:1.0;" x1="651" x2="651" y1="109.5" y2="129.9883"/><line style="stroke:#000000;stroke-width:1.0;" x1="547" x2="827" y1="129.9883" y2="129.9883"/><text fill="#000000" font-family="sans-serif" font-size="14" font-weight="bold" lengthAdjust="spacing" textLength="74" x="552" y="145.5234">row_count</text><text fill="#000000" font-family="sans-serif" font-size="14" lengthAdjust="spacing" textLength="18" x="656" y="145.5234">30</text><line style="stroke:#000000;stroke-width:1.0;" x1="651" x2="651" y1="129.9883" y2="150.4766"/><line style="stroke:#000000;stroke-width:1.0;" x1="547" x2="827" y1="150.4766" y2="150.4766"/><text fill="#000000" font-family="sans-serif" font-size="14" font-weight="bold" lengthAdjust="spacing" textLength="94" x="552" y="166.0117">ratio_percent</text><text fill="#000000" font-family="sans-serif" font-size="14" lengthAdjust="spacing" textLength="166" x="656" y="166.0117">0.09534403305259813</text><line style="stroke:#000000;stroke-width:1.0;" x1="651" x2="651" y1="150.4766" y2="170.9648"/><rect fill="none" height="61.4648" rx="5" ry="5" style="stroke:#000000;stroke-width:1.5;" width="280" x="547" y="109.5"/><path d="M254,61 L267,61 C276.3211,61 285.9616,60.5754 295.6178,59.8531 " fill="none" style="stroke:#000000;stroke-width:1.0;stroke-dasharray:3.0,3.0;"/><path d="M295.874,62.9498 L297.9402,59.661 L295.3615,56.7565 L303.3594,59.2125 L295.874,62.9498 " fill="#000000" style="stroke:#000000;stroke-width:1.0;"/><ellipse cx="254" cy="61" fill="#000000" rx="3" ry="3" style="stroke:#000000;stroke-width:1.0;"/><path d="M407,90 L420,90 C463.4654,90 510.6855,86.1404 553.1361,81.2373 " fill="none" style="stroke:#000000;stroke-width:1.0;stroke-dasharray:3.0,3.0;"/><path d="M553.4937,84.2744 L555.414,80.9691 L552.7786,78.2001 L560.7291,80.3434 L553.4937,84.2744 " fill="#000000" style="stroke:#000000;stroke-width:1.0;"/><ellipse cx="407" cy="90" fill="#000000" rx="3" ry="3" style="stroke:#000000;stroke-width:1.0;"/><path d="M407,111 L420,111 C458.9413,111 500.8965,114.098 539.7354,118.2688 " fill="none" style="stroke:#000000;stroke-width:1.0;stroke-dasharray:3.0,3.0;"/><path d="M539.3963,121.3586 L542.0527,118.5232 L540.0746,115.179 L547.4598,119.1167 L539.3963,121.3586 " fill="#000000" style="stroke:#000000;stroke-width:1.0;"/><ellipse cx="407" cy="111" fill="#000000" rx="3" ry="3" style="stroke:#000000;stroke-width:1.0;"/><path d="M254,82 L267,82 C310.4837,82 360.92,91.2406 387.4633,96.8333 " fill="none" style="stroke:#000000;stroke-width:1.0;stroke-dasharray:3.0,3.0;"/><path d="M386.8216,99.8078 L389.6942,97.3146 L388.105,93.8588 L394.8997,98.4376 L386.8216,99.8078 " fill="#000000" style="stroke:#000000;stroke-width:1.0;"/><ellipse cx="254" cy="82" fill="#000000" rx="3" ry="3" style="stroke:#000000;stroke-width:1.0;"/><!--MD5=[967a6093322e5246a8fbecd6d3dc9249]
@startjson
{
    "field1": "RevisionNumber",
    "combination": "RevisionNumber",
    "null_distribution": {
        "total_null_rows": 0,
        "total_not_null_rows": 31465
    },
    "data_distribution": [
        {
            "field_value": "8",
            "row_count": 31435,
            "ratio_percent": 99.9046559669474
        },
        {
            "field_value": "9",
            "row_count": 30,
            "ratio_percent": 0.09534403305259813
        }
    ]
}
@endjson

PlantUML version 1.2022.5(Sat Apr 30 06:55:52 EDT 2022)
(GPL source distribution)
Java Runtime: OpenJDK Runtime Environment
JVM: OpenJDK 64-Bit Server VM
Default Encoding: UTF-8
Language: en
Country: CA
--></g></svg>