<?xml version="1.0" encoding="UTF-8" standalone="no"?><svg xmlns="http://www.w3.org/2000/svg" xmlns:xlink="http://www.w3.org/1999/xlink" contentStyleType="text/css" height="557px" preserveAspectRatio="none" style="width:817px;height:557px;background:#FFFFFF;" version="1.1" viewBox="0 0 817 557" width="817px" zoomAndPan="magnify"><defs/><g><rect fill="#F1F1F1" height="81.9531" rx="5" ry="5" style="stroke:#F1F1F1;stroke-width:1.5;" width="243" x="10" y="161.5"/><text fill="#000000" font-family="sans-serif" font-size="14" font-weight="bold" lengthAdjust="spacing" textLength="42" x="15" y="177.0352">field1</text><text fill="#000000" font-family="sans-serif" font-size="14" lengthAdjust="spacing" textLength="99" x="149" y="177.0352">SalesReasonID</text><line style="stroke:#000000;stroke-width:1.0;" x1="144" x2="144" y1="161.5" y2="181.9883"/><line style="stroke:#000000;stroke-width:1.0;" x1="10" x2="253" y1="181.9883" y2="181.9883"/><text fill="#000000" font-family="sans-serif" font-size="14" font-weight="bold" lengthAdjust="spacing" textLength="90" x="15" y="197.5234">combination</text><text fill="#000000" font-family="sans-serif" font-size="14" lengthAdjust="spacing" textLength="99" x="149" y="197.5234">SalesReasonID</text><line style="stroke:#000000;stroke-width:1.0;" x1="144" x2="144" y1="181.9883" y2="202.4766"/><line style="stroke:#000000;stroke-width:1.0;" x1="10" x2="253" y1="202.4766" y2="202.4766"/><text fill="#000000" font-family="sans-serif" font-size="14" font-weight="bold" lengthAdjust="spacing" textLength="121" x="15" y="218.0117">null_distribution</text><text fill="#000000" font-family="sans-serif" font-size="14" lengthAdjust="spacing" textLength="12" x="149" y="218.0117">   </text><line style="stroke:#000000;stroke-width:1.0;" x1="144" x2="144" y1="202.4766" y2="222.9648"/><line style="stroke:#000000;stroke-width:1.0;" x1="10" x2="253" y1="222.9648" y2="222.9648"/><text fill="#000000" font-family="sans-serif" font-size="14" font-weight="bold" lengthAdjust="spacing" textLength="124" x="15" y="238.5">data_distribution</text><text fill="#000000" font-family="sans-serif" font-size="14" lengthAdjust="spacing" textLength="12" x="149" y="238.5">   </text><line style="stroke:#000000;stroke-width:1.0;" x1="144" x2="144" y1="222.9648" y2="243.4531"/><rect fill="none" height="81.9531" rx="5" ry="5" style="stroke:#000000;stroke-width:1.5;" width="243" x="10" y="161.5"/><rect fill="#F1F1F1" height="40.9766" rx="5" ry="5" style="stroke:#F1F1F1;stroke-width:1.5;" width="207" x="290" y="148"/><text fill="#000000" font-family="sans-serif" font-size="14" font-weight="bold" lengthAdjust="spacing" textLength="111" x="295" y="163.5352">total_null_rows</text><text fill="#000000" font-family="sans-serif" font-size="14" lengthAdjust="spacing" textLength="9" x="447" y="163.5352">0</text><line style="stroke:#000000;stroke-width:1.0;" x1="442" x2="442" y1="148" y2="168.4883"/><line style="stroke:#000000;stroke-width:1.0;" x1="290" x2="497" y1="168.4883" y2="168.4883"/><text fill="#000000" font-family="sans-serif" font-size="14" font-weight="bold" lengthAdjust="spacing" textLength="142" x="295" y="184.0234">total_not_null_rows</text><text fill="#000000" font-family="sans-serif" font-size="14" lengthAdjust="spacing" textLength="45" x="447" y="184.0234">27647</text><line style="stroke:#000000;stroke-width:1.0;" x1="442" x2="442" y1="168.4883" y2="188.9766"/><rect fill="none" height="40.9766" rx="5" ry="5" style="stroke:#000000;stroke-width:1.5;" width="207" x="290" y="148"/><rect fill="#F1F1F1" height="143.418" rx="5" ry="5" style="stroke:#F1F1F1;stroke-width:1.5;" width="22" x="381.5" y="207"/><text fill="#000000" font-family="sans-serif" font-size="14" lengthAdjust="spacing" textLength="12" x="386.5" y="222.5352">   </text><line style="stroke:#000000;stroke-width:1.0;" x1="381.5" x2="403.5" y1="227.4883" y2="227.4883"/><text fill="#000000" font-family="sans-serif" font-size="14" lengthAdjust="spacing" textLength="12" x="386.5" y="243.0234">   </text><line style="stroke:#000000;stroke-width:1.0;" x1="381.5" x2="403.5" y1="247.9766" y2="247.9766"/><text fill="#000000" font-family="sans-serif" font-size="14" lengthAdjust="spacing" textLength="12" x="386.5" y="263.5117">   </text><line style="stroke:#000000;stroke-width:1.0;" x1="381.5" x2="403.5" y1="268.4648" y2="268.4648"/><text fill="#000000" font-family="sans-serif" font-size="14" lengthAdjust="spacing" textLength="12" x="386.5" y="284">   </text><line style="stroke:#000000;stroke-width:1.0;" x1="381.5" x2="403.5" y1="288.9531" y2="288.9531"/><text fill="#000000" font-family="sans-serif" font-size="14" lengthAdjust="spacing" textLength="12" x="386.5" y="304.4883">   </text><line style="stroke:#000000;stroke-width:1.0;" x1="381.5" x2="403.5" y1="309.4414" y2="309.4414"/><text fill="#000000" font-family="sans-serif" font-size="14" lengthAdjust="spacing" textLength="12" x="386.5" y="324.9766">   </text><line style="stroke:#000000;stroke-width:1.0;" x1="381.5" x2="403.5" y1="329.9297" y2="329.9297"/><text fill="#000000" font-family="sans-serif" font-size="14" lengthAdjust="spacing" textLength="12" x="386.5" y="345.4648">   </text><rect fill="none" height="143.418" rx="5" ry="5" style="stroke:#000000;stroke-width:1.5;" width="22" x="381.5" y="207"/><rect fill="#F1F1F1" height="61.4648" rx="5" ry="5" style="stroke:#F1F1F1;stroke-width:1.5;" width="262" x="538.5" y="10"/><text fill="#000000" font-family="sans-serif" font-size="14" font-weight="bold" lengthAdjust="spacing" textLength="78" x="543.5" y="25.5352">field_value</text><text fill="#000000" font-family="sans-serif" font-size="14" lengthAdjust="spacing" textLength="9" x="647.5" y="25.5352">1</text><line style="stroke:#000000;stroke-width:1.0;" x1="642.5" x2="642.5" y1="10" y2="30.4883"/><line style="stroke:#000000;stroke-width:1.0;" x1="538.5" x2="800.5" y1="30.4883" y2="30.4883"/><text fill="#000000" font-family="sans-serif" font-size="14" font-weight="bold" lengthAdjust="spacing" textLength="74" x="543.5" y="46.0234">row_count</text><text fill="#000000" font-family="sans-serif" font-size="14" lengthAdjust="spacing" textLength="45" x="647.5" y="46.0234">17473</text><line style="stroke:#000000;stroke-width:1.0;" x1="642.5" x2="642.5" y1="30.4883" y2="50.9766"/><line style="stroke:#000000;stroke-width:1.0;" x1="538.5" x2="800.5" y1="50.9766" y2="50.9766"/><text fill="#000000" font-family="sans-serif" font-size="14" font-weight="bold" lengthAdjust="spacing" textLength="94" x="543.5" y="66.5117">ratio_percent</text><text fill="#000000" font-family="sans-serif" font-size="14" lengthAdjust="spacing" textLength="148" x="647.5" y="66.5117">63.20034723478135</text><line style="stroke:#000000;stroke-width:1.0;" x1="642.5" x2="642.5" y1="50.9766" y2="71.4648"/><rect fill="none" height="61.4648" rx="5" ry="5" style="stroke:#000000;stroke-width:1.5;" width="262" x="538.5" y="10"/><rect fill="#F1F1F1" height="61.4648" rx="5" ry="5" style="stroke:#F1F1F1;stroke-width:1.5;" width="271" x="534" y="89"/><text fill="#000000" font-family="sans-serif" font-size="14" font-weight="bold" lengthAdjust="spacing" textLength="78" x="539" y="104.5352">field_value</text><text fill="#000000" font-family="sans-serif" font-size="14" lengthAdjust="spacing" textLength="9" x="643" y="104.5352">2</text><line style="stroke:#000000;stroke-width:1.0;" x1="638" x2="638" y1="89" y2="109.4883"/><line style="stroke:#000000;stroke-width:1.0;" x1="534" x2="805" y1="109.4883" y2="109.4883"/><text fill="#000000" font-family="sans-serif" font-size="14" font-weight="bold" lengthAdjust="spacing" textLength="74" x="539" y="125.0234">row_count</text><text fill="#000000" font-family="sans-serif" font-size="14" lengthAdjust="spacing" textLength="36" x="643" y="125.0234">3515</text><line style="stroke:#000000;stroke-width:1.0;" x1="638" x2="638" y1="109.4883" y2="129.9766"/><line style="stroke:#000000;stroke-width:1.0;" x1="534" x2="805" y1="129.9766" y2="129.9766"/><text fill="#000000" font-family="sans-serif" font-size="14" font-weight="bold" lengthAdjust="spacing" textLength="94" x="539" y="145.5117">ratio_percent</text><text fill="#000000" font-family="sans-serif" font-size="14" lengthAdjust="spacing" textLength="157" x="643" y="145.5117">12.713856837993273</text><line style="stroke:#000000;stroke-width:1.0;" x1="638" x2="638" y1="129.9766" y2="150.4648"/><rect fill="none" height="61.4648" rx="5" ry="5" style="stroke:#000000;stroke-width:1.5;" width="271" x="534" y="89"/><rect fill="#F1F1F1" height="61.4648" rx="5" ry="5" style="stroke:#F1F1F1;stroke-width:1.5;" width="262" x="538.5" y="168"/><text fill="#000000" font-family="sans-serif" font-size="14" font-weight="bold" lengthAdjust="spacing" textLength="78" x="543.5" y="183.5352">field_value</text><text fill="#000000" font-family="sans-serif" font-size="14" lengthAdjust="spacing" textLength="9" x="647.5" y="183.5352">5</text><line style="stroke:#000000;stroke-width:1.0;" x1="642.5" x2="642.5" y1="168" y2="188.4883"/><line style="stroke:#000000;stroke-width:1.0;" x1="538.5" x2="800.5" y1="188.4883" y2="188.4883"/><text fill="#000000" font-family="sans-serif" font-size="14" font-weight="bold" lengthAdjust="spacing" textLength="74" x="543.5" y="204.0234">row_count</text><text fill="#000000" font-family="sans-serif" font-size="14" lengthAdjust="spacing" textLength="36" x="647.5" y="204.0234">1746</text><line style="stroke:#000000;stroke-width:1.0;" x1="642.5" x2="642.5" y1="188.4883" y2="208.9766"/><line style="stroke:#000000;stroke-width:1.0;" x1="538.5" x2="800.5" y1="208.9766" y2="208.9766"/><text fill="#000000" font-family="sans-serif" font-size="14" font-weight="bold" lengthAdjust="spacing" textLength="94" x="543.5" y="224.5117">ratio_percent</text><text fill="#000000" font-family="sans-serif" font-size="14" lengthAdjust="spacing" textLength="148" x="647.5" y="224.5117">6.315332585814012</text><line style="stroke:#000000;stroke-width:1.0;" x1="642.5" x2="642.5" y1="208.9766" y2="229.4648"/><rect fill="none" height="61.4648" rx="5" ry="5" style="stroke:#000000;stroke-width:1.5;" width="262" x="538.5" y="168"/><rect fill="#F1F1F1" height="61.4648" rx="5" ry="5" style="stroke:#F1F1F1;stroke-width:1.5;" width="262" x="538.5" y="247"/><text fill="#000000" font-family="sans-serif" font-size="14" font-weight="bold" lengthAdjust="spacing" textLength="78" x="543.5" y="262.5352">field_value</text><text fill="#000000" font-family="sans-serif" font-size="14" lengthAdjust="spacing" textLength="9" x="647.5" y="262.5352">9</text><line style="stroke:#000000;stroke-width:1.0;" x1="642.5" x2="642.5" y1="247" y2="267.4883"/><line style="stroke:#000000;stroke-width:1.0;" x1="538.5" x2="800.5" y1="267.4883" y2="267.4883"/><text fill="#000000" font-family="sans-serif" font-size="14" font-weight="bold" lengthAdjust="spacing" textLength="74" x="543.5" y="283.0234">row_count</text><text fill="#000000" font-family="sans-serif" font-size="14" lengthAdjust="spacing" textLength="36" x="647.5" y="283.0234">1551</text><line style="stroke:#000000;stroke-width:1.0;" x1="642.5" x2="642.5" y1="267.4883" y2="287.9766"/><line style="stroke:#000000;stroke-width:1.0;" x1="538.5" x2="800.5" y1="287.9766" y2="287.9766"/><text fill="#000000" font-family="sans-serif" font-size="14" font-weight="bold" lengthAdjust="spacing" textLength="94" x="543.5" y="303.5117">ratio_percent</text><text fill="#000000" font-family="sans-serif" font-size="14" lengthAdjust="spacing" textLength="148" x="647.5" y="303.5117">5.610011936195609</text><line style="stroke:#000000;stroke-width:1.0;" x1="642.5" x2="642.5" y1="287.9766" y2="308.4648"/><rect fill="none" height="61.4648" rx="5" ry="5" style="stroke:#000000;stroke-width:1.5;" width="262" x="538.5" y="247"/><rect fill="#F1F1F1" height="61.4648" rx="5" ry="5" style="stroke:#F1F1F1;stroke-width:1.5;" width="262" x="538.5" y="326"/><text fill="#000000" font-family="sans-serif" font-size="14" font-weight="bold" lengthAdjust="spacing" textLength="78" x="543.5" y="341.5352">field_value</text><text fill="#000000" font-family="sans-serif" font-size="14" lengthAdjust="spacing" textLength="18" x="647.5" y="341.5352">10</text><line style="stroke:#000000;stroke-width:1.0;" x1="642.5" x2="642.5" y1="326" y2="346.4883"/><line style="stroke:#000000;stroke-width:1.0;" x1="538.5" x2="800.5" y1="346.4883" y2="346.4883"/><text fill="#000000" font-family="sans-serif" font-size="14" font-weight="bold" lengthAdjust="spacing" textLength="74" x="543.5" y="362.0234">row_count</text><text fill="#000000" font-family="sans-serif" font-size="14" lengthAdjust="spacing" textLength="36" x="647.5" y="362.0234">1395</text><line style="stroke:#000000;stroke-width:1.0;" x1="642.5" x2="642.5" y1="346.4883" y2="366.9766"/><line style="stroke:#000000;stroke-width:1.0;" x1="538.5" x2="800.5" y1="366.9766" y2="366.9766"/><text fill="#000000" font-family="sans-serif" font-size="14" font-weight="bold" lengthAdjust="spacing" textLength="94" x="543.5" y="382.5117">ratio_percent</text><text fill="#000000" font-family="sans-serif" font-size="14" lengthAdjust="spacing" textLength="148" x="647.5" y="382.5117">5.045755416500886</text><line style="stroke:#000000;stroke-width:1.0;" x1="642.5" x2="642.5" y1="366.9766" y2="387.4648"/><rect fill="none" height="61.4648" rx="5" ry="5" style="stroke:#000000;stroke-width:1.5;" width="262" x="538.5" y="326"/><rect fill="#F1F1F1" height="61.4648" rx="5" ry="5" style="stroke:#F1F1F1;stroke-width:1.5;" width="262" x="538.5" y="405"/><text fill="#000000" font-family="sans-serif" font-size="14" font-weight="bold" lengthAdjust="spacing" textLength="78" x="543.5" y="420.5352">field_value</text><text fill="#000000" font-family="sans-serif" font-size="14" lengthAdjust="spacing" textLength="9" x="647.5" y="420.5352">6</text><line style="stroke:#000000;stroke-width:1.0;" x1="642.5" x2="642.5" y1="405" y2="425.4883"/><line style="stroke:#000000;stroke-width:1.0;" x1="538.5" x2="800.5" y1="425.4883" y2="425.4883"/><text fill="#000000" font-family="sans-serif" font-size="14" font-weight="bold" lengthAdjust="spacing" textLength="74" x="543.5" y="441.0234">row_count</text><text fill="#000000" font-family="sans-serif" font-size="14" lengthAdjust="spacing" textLength="36" x="647.5" y="441.0234">1245</text><line style="stroke:#000000;stroke-width:1.0;" x1="642.5" x2="642.5" y1="425.4883" y2="445.9766"/><line style="stroke:#000000;stroke-width:1.0;" x1="538.5" x2="800.5" y1="445.9766" y2="445.9766"/><text fill="#000000" font-family="sans-serif" font-size="14" font-weight="bold" lengthAdjust="spacing" textLength="94" x="543.5" y="461.5117">ratio_percent</text><text fill="#000000" font-family="sans-serif" font-size="14" lengthAdjust="spacing" textLength="148" x="647.5" y="461.5117">4.503201070640576</text><line style="stroke:#000000;stroke-width:1.0;" x1="642.5" x2="642.5" y1="445.9766" y2="466.4648"/><rect fill="none" height="61.4648" rx="5" ry="5" style="stroke:#000000;stroke-width:1.5;" width="262" x="538.5" y="405"/><rect fill="#F1F1F1" height="61.4648" rx="5" ry="5" style="stroke:#F1F1F1;stroke-width:1.5;" width="262" x="538.5" y="484"/><text fill="#000000" font-family="sans-serif" font-size="14" font-weight="bold" lengthAdjust="spacing" textLength="78" x="543.5" y="499.5352">field_value</text><text fill="#000000" font-family="sans-serif" font-size="14" lengthAdjust="spacing" textLength="9" x="647.5" y="499.5352">4</text><line style="stroke:#000000;stroke-width:1.0;" x1="642.5" x2="642.5" y1="484" y2="504.4883"/><line style="stroke:#000000;stroke-width:1.0;" x1="538.5" x2="800.5" y1="504.4883" y2="504.4883"/><text fill="#000000" font-family="sans-serif" font-size="14" font-weight="bold" lengthAdjust="spacing" textLength="74" x="543.5" y="520.0234">row_count</text><text fill="#000000" font-family="sans-serif" font-size="14" lengthAdjust="spacing" textLength="27" x="647.5" y="520.0234">722</text><line style="stroke:#000000;stroke-width:1.0;" x1="642.5" x2="642.5" y1="504.4883" y2="524.9766"/><line style="stroke:#000000;stroke-width:1.0;" x1="538.5" x2="800.5" y1="524.9766" y2="524.9766"/><text fill="#000000" font-family="sans-serif" font-size="14" font-weight="bold" lengthAdjust="spacing" textLength="94" x="543.5" y="540.5117">ratio_percent</text><text fill="#000000" font-family="sans-serif" font-size="14" lengthAdjust="spacing" textLength="148" x="647.5" y="540.5117">2.611494918074294</text><line style="stroke:#000000;stroke-width:1.0;" x1="642.5" x2="642.5" y1="524.9766" y2="545.4648"/><rect fill="none" height="61.4648" rx="5" ry="5" style="stroke:#000000;stroke-width:1.5;" width="262" x="538.5" y="484"/><path d="M241,212.5 L254,212.5 C271.1673,212.5 273.7433,204.0167 290,198.5 C297.143,196.076 304.6039,193.6681 312.1032,191.3319 " fill="none" style="stroke:#000000;stroke-width:1.0;stroke-dasharray:3.0,3.0;"/><path d="M313.0273,194.3327 L314.3537,190.6389 L311.1791,188.3312 L319.605,189.0217 L313.0273,194.3327 " fill="#000000" style="stroke:#000000;stroke-width:1.0;"/><ellipse cx="241" cy="212.5" fill="#000000" rx="3" ry="3" style="stroke:#000000;stroke-width:1.0;"/><path d="M394,216.5 L407,216.5 C448.2281,216.5 467.4477,226.1823 498,198.5 C538.9478,161.3987 494.6839,118.3263 534,79.5 C535.2341,78.2813 536.5037,77.1002 537.806,75.9556 " fill="none" style="stroke:#000000;stroke-width:1.0;stroke-dasharray:3.0,3.0;"/><path d="M539.7215,78.3196 L539.579,74.519 L535.8905,73.5916 L543.7161,71.167 L539.7215,78.3196 " fill="#000000" style="stroke:#000000;stroke-width:1.0;"/><ellipse cx="394" cy="216.5" fill="#000000" rx="3" ry="3" style="stroke:#000000;stroke-width:1.0;"/><path d="M394,236.5 L407,236.5 C450.8291,236.5 462.0875,223.6253 498,198.5 C517.3283,184.9774 513.973,171.9645 534,159.5 C537.3513,157.4142 540.8171,155.4323 544.3694,153.5497 " fill="none" style="stroke:#000000;stroke-width:1.0;stroke-dasharray:3.0,3.0;"/><path d="M545.7692,156.322 L546.4486,152.4998 L542.9696,150.7773 L551.3002,150.0501 L545.7692,156.322 " fill="#000000" style="stroke:#000000;stroke-width:1.0;"/><ellipse cx="394" cy="236.5" fill="#000000" rx="3" ry="3" style="stroke:#000000;stroke-width:1.0;"/><path d="M394,257.5 L407,257.5 C434.8886,257.5 493.9253,244.6162 548.9091,230.8898 " fill="none" style="stroke:#000000;stroke-width:1.0;stroke-dasharray:3.0,3.0;"/><path d="M549.6503,233.8411 L551.1226,230.3339 L548.168,227.9385 L556.2874,229.0369 L549.6503,233.8411 " fill="#000000" style="stroke:#000000;stroke-width:1.0;"/><ellipse cx="394" cy="257.5" fill="#000000" rx="3" ry="3" style="stroke:#000000;stroke-width:1.0;"/><path d="M394,277.5 L407,277.5 C447.1912,277.5 490.8505,277.5 530.7958,277.5 " fill="none" style="stroke:#000000;stroke-width:1.0;stroke-dasharray:3.0,3.0;"/><path d="M530.7958,280.675 L533.177,277.5 L530.7958,274.325 L538.7332,277.5 L530.7958,280.675 " fill="#000000" style="stroke:#000000;stroke-width:1.0;"/><ellipse cx="394" cy="277.5" fill="#000000" rx="3" ry="3" style="stroke:#000000;stroke-width:1.0;"/><path d="M394,298.5 L407,298.5 C434.5316,298.5 492.4889,310.8633 546.9086,324.1738 " fill="none" style="stroke:#000000;stroke-width:1.0;stroke-dasharray:3.0,3.0;"/><path d="M546.1896,327.096 L549.1002,324.7131 L547.6276,321.2516 L554.2141,325.9713 L546.1896,327.096 " fill="#000000" style="stroke:#000000;stroke-width:1.0;"/><ellipse cx="394" cy="298.5" fill="#000000" rx="3" ry="3" style="stroke:#000000;stroke-width:1.0;"/><path d="M394,319.5 L407,319.5 C473.0086,319.5 473.5449,369.9987 534,396.5 C538.5787,398.5071 543.2893,400.4428 548.0815,402.3056 " fill="none" style="stroke:#000000;stroke-width:1.0;stroke-dasharray:3.0,3.0;"/><path d="M547.0107,405.1351 L550.2036,403.1087 L549.1523,399.4762 L555.1551,404.9826 L547.0107,405.1351 " fill="#000000" style="stroke:#000000;stroke-width:1.0;"/><ellipse cx="394" cy="319.5" fill="#000000" rx="3" ry="3" style="stroke:#000000;stroke-width:1.0;"/><path d="M394,339.5 L407,339.5 C489.7013,339.5 463.5132,432.2436 534,475.5 C536.7485,477.1867 539.5732,478.8033 542.4587,480.3523 " fill="none" style="stroke:#000000;stroke-width:1.0;stroke-dasharray:3.0,3.0;"/><path d="M541.0614,483.0869 L544.5096,481.4003 L543.8561,477.6178 L549.2951,483.8457 L541.0614,483.0869 " fill="#000000" style="stroke:#000000;stroke-width:1.0;"/><ellipse cx="394" cy="339.5" fill="#000000" rx="3" ry="3" style="stroke:#000000;stroke-width:1.0;"/><path d="M241,233.5 L254,233.5 C299.2489,233.5 348.9316,255.3513 374.8967,268.6002 " fill="none" style="stroke:#000000;stroke-width:1.0;stroke-dasharray:3.0,3.0;"/><path d="M373.4396,271.3877 L376.9873,269.693 L376.3538,265.8127 L381.8655,272.2429 L373.4396,271.3877 " fill="#000000" style="stroke:#000000;stroke-width:1.0;"/><ellipse cx="241" cy="233.5" fill="#000000" rx="3" ry="3" style="stroke:#000000;stroke-width:1.0;"/><!--MD5=[bb7541b8ee6581156f65b207d825dcd2]
@startjson
{
    "field1": "SalesReasonID",
    "combination": "SalesReasonID",
    "null_distribution": {
        "total_null_rows": 0,
        "total_not_null_rows": 27647
    },
    "data_distribution": [
        {
            "field_value": "1",
            "row_count": 17473,
            "ratio_percent": 63.20034723478135
        },
        {
            "field_value": "2",
            "row_count": 3515,
            "ratio_percent": 12.713856837993273
        },
        {
            "field_value": "5",
            "row_count": 1746,
            "ratio_percent": 6.315332585814012
        },
        {
            "field_value": "9",
            "row_count": 1551,
            "ratio_percent": 5.610011936195609
        },
        {
            "field_value": "10",
            "row_count": 1395,
            "ratio_percent": 5.045755416500886
        },
        {
            "field_value": "6",
            "row_count": 1245,
            "ratio_percent": 4.503201070640576
        },
        {
            "field_value": "4",
            "row_count": 722,
            "ratio_percent": 2.611494918074294
        }
    ]
}
@endjson

PlantUML version 1.2022.5(Sat Apr 30 06:55:52 EDT 2022)
(GPL source distribution)
Java Runtime: OpenJDK Runtime Environment
JVM: OpenJDK 64-Bit Server VM
Default Encoding: UTF-8
Language: en
Country: CA
--></g></svg>