<?xml version="1.0" encoding="UTF-8" standalone="no"?><svg xmlns="http://www.w3.org/2000/svg" xmlns:xlink="http://www.w3.org/1999/xlink" contentStyleType="text/css" height="794px" preserveAspectRatio="none" style="width:654px;height:794px;background:#FFFFFF;" version="1.1" viewBox="0 0 654 794" width="654px" zoomAndPan="magnify"><defs/><g><rect fill="#F1F1F1" height="81.9531" rx="5" ry="5" style="stroke:#F1F1F1;stroke-width:1.5;" width="224" x="10" y="264.5"/><text fill="#000000" font-family="sans-serif" font-size="14" font-weight="bold" lengthAdjust="spacing" textLength="42" x="15" y="280.0352">field1</text><text fill="#000000" font-family="sans-serif" font-size="14" lengthAdjust="spacing" textLength="80" x="149" y="280.0352">DiscountPct</text><line style="stroke:#000000;stroke-width:1.0;" x1="144" x2="144" y1="264.5" y2="284.9883"/><line style="stroke:#000000;stroke-width:1.0;" x1="10" x2="234" y1="284.9883" y2="284.9883"/><text fill="#000000" font-family="sans-serif" font-size="14" font-weight="bold" lengthAdjust="spacing" textLength="90" x="15" y="300.5234">combination</text><text fill="#000000" font-family="sans-serif" font-size="14" lengthAdjust="spacing" textLength="80" x="149" y="300.5234">DiscountPct</text><line style="stroke:#000000;stroke-width:1.0;" x1="144" x2="144" y1="284.9883" y2="305.4766"/><line style="stroke:#000000;stroke-width:1.0;" x1="10" x2="234" y1="305.4766" y2="305.4766"/><text fill="#000000" font-family="sans-serif" font-size="14" font-weight="bold" lengthAdjust="spacing" textLength="121" x="15" y="321.0117">null_distribution</text><text fill="#000000" font-family="sans-serif" font-size="14" lengthAdjust="spacing" textLength="12" x="149" y="321.0117">   </text><line style="stroke:#000000;stroke-width:1.0;" x1="144" x2="144" y1="305.4766" y2="325.9648"/><line style="stroke:#000000;stroke-width:1.0;" x1="10" x2="234" y1="325.9648" y2="325.9648"/><text fill="#000000" font-family="sans-serif" font-size="14" font-weight="bold" lengthAdjust="spacing" textLength="124" x="15" y="341.5">data_distribution</text><text fill="#000000" font-family="sans-serif" font-size="14" lengthAdjust="spacing" textLength="12" x="149" y="341.5">   </text><line style="stroke:#000000;stroke-width:1.0;" x1="144" x2="144" y1="325.9648" y2="346.4531"/><rect fill="none" height="81.9531" rx="5" ry="5" style="stroke:#000000;stroke-width:1.5;" width="224" x="10" y="264.5"/><rect fill="#F1F1F1" height="40.9766" rx="5" ry="5" style="stroke:#F1F1F1;stroke-width:1.5;" width="180" x="271" y="235"/><text fill="#000000" font-family="sans-serif" font-size="14" font-weight="bold" lengthAdjust="spacing" textLength="111" x="276" y="250.5352">total_null_rows</text><text fill="#000000" font-family="sans-serif" font-size="14" lengthAdjust="spacing" textLength="9" x="428" y="250.5352">0</text><line style="stroke:#000000;stroke-width:1.0;" x1="423" x2="423" y1="235" y2="255.4883"/><line style="stroke:#000000;stroke-width:1.0;" x1="271" x2="451" y1="255.4883" y2="255.4883"/><text fill="#000000" font-family="sans-serif" font-size="14" font-weight="bold" lengthAdjust="spacing" textLength="142" x="276" y="271.0234">total_not_null_rows</text><text fill="#000000" font-family="sans-serif" font-size="14" lengthAdjust="spacing" textLength="18" x="428" y="271.0234">16</text><line style="stroke:#000000;stroke-width:1.0;" x1="423" x2="423" y1="255.4883" y2="275.9766"/><rect fill="none" height="40.9766" rx="5" ry="5" style="stroke:#000000;stroke-width:1.5;" width="180" x="271" y="235"/><rect fill="#F1F1F1" height="204.8828" rx="5" ry="5" style="stroke:#F1F1F1;stroke-width:1.5;" width="22" x="349" y="294"/><text fill="#000000" font-family="sans-serif" font-size="14" lengthAdjust="spacing" textLength="12" x="354" y="309.5352">   </text><line style="stroke:#000000;stroke-width:1.0;" x1="349" x2="371" y1="314.4883" y2="314.4883"/><text fill="#000000" font-family="sans-serif" font-size="14" lengthAdjust="spacing" textLength="12" x="354" y="330.0234">   </text><line style="stroke:#000000;stroke-width:1.0;" x1="349" x2="371" y1="334.9766" y2="334.9766"/><text fill="#000000" font-family="sans-serif" font-size="14" lengthAdjust="spacing" textLength="12" x="354" y="350.5117">   </text><line style="stroke:#000000;stroke-width:1.0;" x1="349" x2="371" y1="355.4648" y2="355.4648"/><text fill="#000000" font-family="sans-serif" font-size="14" lengthAdjust="spacing" textLength="12" x="354" y="371">   </text><line style="stroke:#000000;stroke-width:1.0;" x1="349" x2="371" y1="375.9531" y2="375.9531"/><text fill="#000000" font-family="sans-serif" font-size="14" lengthAdjust="spacing" textLength="12" x="354" y="391.4883">   </text><line style="stroke:#000000;stroke-width:1.0;" x1="349" x2="371" y1="396.4414" y2="396.4414"/><text fill="#000000" font-family="sans-serif" font-size="14" lengthAdjust="spacing" textLength="12" x="354" y="411.9766">   </text><line style="stroke:#000000;stroke-width:1.0;" x1="349" x2="371" y1="416.9297" y2="416.9297"/><text fill="#000000" font-family="sans-serif" font-size="14" lengthAdjust="spacing" textLength="12" x="354" y="432.4648">   </text><line style="stroke:#000000;stroke-width:1.0;" x1="349" x2="371" y1="437.418" y2="437.418"/><text fill="#000000" font-family="sans-serif" font-size="14" lengthAdjust="spacing" textLength="12" x="354" y="452.9531">   </text><line style="stroke:#000000;stroke-width:1.0;" x1="349" x2="371" y1="457.9063" y2="457.9063"/><text fill="#000000" font-family="sans-serif" font-size="14" lengthAdjust="spacing" textLength="12" x="354" y="473.4414">   </text><line style="stroke:#000000;stroke-width:1.0;" x1="349" x2="371" y1="478.3945" y2="478.3945"/><text fill="#000000" font-family="sans-serif" font-size="14" lengthAdjust="spacing" textLength="12" x="354" y="493.9297">   </text><rect fill="none" height="204.8828" rx="5" ry="5" style="stroke:#000000;stroke-width:1.5;" width="22" x="349" y="294"/><rect fill="#F1F1F1" height="61.4648" rx="5" ry="5" style="stroke:#F1F1F1;stroke-width:1.5;" width="154" x="488" y="10"/><text fill="#000000" font-family="sans-serif" font-size="14" font-weight="bold" lengthAdjust="spacing" textLength="78" x="493" y="25.5352">field_value</text><text fill="#000000" font-family="sans-serif" font-size="14" lengthAdjust="spacing" textLength="31" x="597" y="25.5352">0.15</text><line style="stroke:#000000;stroke-width:1.0;" x1="592" x2="592" y1="10" y2="30.4883"/><line style="stroke:#000000;stroke-width:1.0;" x1="488" x2="642" y1="30.4883" y2="30.4883"/><text fill="#000000" font-family="sans-serif" font-size="14" font-weight="bold" lengthAdjust="spacing" textLength="74" x="493" y="46.0234">row_count</text><text fill="#000000" font-family="sans-serif" font-size="14" lengthAdjust="spacing" textLength="9" x="597" y="46.0234">3</text><line style="stroke:#000000;stroke-width:1.0;" x1="592" x2="592" y1="30.4883" y2="50.9766"/><line style="stroke:#000000;stroke-width:1.0;" x1="488" x2="642" y1="50.9766" y2="50.9766"/><text fill="#000000" font-family="sans-serif" font-size="14" font-weight="bold" lengthAdjust="spacing" textLength="94" x="493" y="66.5117">ratio_percent</text><text fill="#000000" font-family="sans-serif" font-size="14" lengthAdjust="spacing" textLength="40" x="597" y="66.5117">18.75</text><line style="stroke:#000000;stroke-width:1.0;" x1="592" x2="592" y1="50.9766" y2="71.4648"/><rect fill="none" height="61.4648" rx="5" ry="5" style="stroke:#000000;stroke-width:1.5;" width="154" x="488" y="10"/><rect fill="#F1F1F1" height="61.4648" rx="5" ry="5" style="stroke:#F1F1F1;stroke-width:1.5;" width="145" x="492.5" y="89"/><text fill="#000000" font-family="sans-serif" font-size="14" font-weight="bold" lengthAdjust="spacing" textLength="78" x="497.5" y="104.5352">field_value</text><text fill="#000000" font-family="sans-serif" font-size="14" lengthAdjust="spacing" textLength="31" x="601.5" y="104.5352">0.20</text><line style="stroke:#000000;stroke-width:1.0;" x1="596.5" x2="596.5" y1="89" y2="109.4883"/><line style="stroke:#000000;stroke-width:1.0;" x1="492.5" x2="637.5" y1="109.4883" y2="109.4883"/><text fill="#000000" font-family="sans-serif" font-size="14" font-weight="bold" lengthAdjust="spacing" textLength="74" x="497.5" y="125.0234">row_count</text><text fill="#000000" font-family="sans-serif" font-size="14" lengthAdjust="spacing" textLength="9" x="601.5" y="125.0234">2</text><line style="stroke:#000000;stroke-width:1.0;" x1="596.5" x2="596.5" y1="109.4883" y2="129.9766"/><line style="stroke:#000000;stroke-width:1.0;" x1="492.5" x2="637.5" y1="129.9766" y2="129.9766"/><text fill="#000000" font-family="sans-serif" font-size="14" font-weight="bold" lengthAdjust="spacing" textLength="94" x="497.5" y="145.5117">ratio_percent</text><text fill="#000000" font-family="sans-serif" font-size="14" lengthAdjust="spacing" textLength="31" x="601.5" y="145.5117">12.5</text><line style="stroke:#000000;stroke-width:1.0;" x1="596.5" x2="596.5" y1="129.9766" y2="150.4648"/><rect fill="none" height="61.4648" rx="5" ry="5" style="stroke:#000000;stroke-width:1.5;" width="145" x="492.5" y="89"/><rect fill="#F1F1F1" height="61.4648" rx="5" ry="5" style="stroke:#F1F1F1;stroke-width:1.5;" width="145" x="492.5" y="168"/><text fill="#000000" font-family="sans-serif" font-size="14" font-weight="bold" lengthAdjust="spacing" textLength="78" x="497.5" y="183.5352">field_value</text><text fill="#000000" font-family="sans-serif" font-size="14" lengthAdjust="spacing" textLength="31" x="601.5" y="183.5352">0.10</text><line style="stroke:#000000;stroke-width:1.0;" x1="596.5" x2="596.5" y1="168" y2="188.4883"/><line style="stroke:#000000;stroke-width:1.0;" x1="492.5" x2="637.5" y1="188.4883" y2="188.4883"/><text fill="#000000" font-family="sans-serif" font-size="14" font-weight="bold" lengthAdjust="spacing" textLength="74" x="497.5" y="204.0234">row_count</text><text fill="#000000" font-family="sans-serif" font-size="14" lengthAdjust="spacing" textLength="9" x="601.5" y="204.0234">2</text><line style="stroke:#000000;stroke-width:1.0;" x1="596.5" x2="596.5" y1="188.4883" y2="208.9766"/><line style="stroke:#000000;stroke-width:1.0;" x1="492.5" x2="637.5" y1="208.9766" y2="208.9766"/><text fill="#000000" font-family="sans-serif" font-size="14" font-weight="bold" lengthAdjust="spacing" textLength="94" x="497.5" y="224.5117">ratio_percent</text><text fill="#000000" font-family="sans-serif" font-size="14" lengthAdjust="spacing" textLength="31" x="601.5" y="224.5117">12.5</text><line style="stroke:#000000;stroke-width:1.0;" x1="596.5" x2="596.5" y1="208.9766" y2="229.4648"/><rect fill="none" height="61.4648" rx="5" ry="5" style="stroke:#000000;stroke-width:1.5;" width="145" x="492.5" y="168"/><rect fill="#F1F1F1" height="61.4648" rx="5" ry="5" style="stroke:#F1F1F1;stroke-width:1.5;" width="145" x="492.5" y="247"/><text fill="#000000" font-family="sans-serif" font-size="14" font-weight="bold" lengthAdjust="spacing" textLength="78" x="497.5" y="262.5352">field_value</text><text fill="#000000" font-family="sans-serif" font-size="14" lengthAdjust="spacing" textLength="31" x="601.5" y="262.5352">0.35</text><line style="stroke:#000000;stroke-width:1.0;" x1="596.5" x2="596.5" y1="247" y2="267.4883"/><line style="stroke:#000000;stroke-width:1.0;" x1="492.5" x2="637.5" y1="267.4883" y2="267.4883"/><text fill="#000000" font-family="sans-serif" font-size="14" font-weight="bold" lengthAdjust="spacing" textLength="74" x="497.5" y="283.0234">row_count</text><text fill="#000000" font-family="sans-serif" font-size="14" lengthAdjust="spacing" textLength="9" x="601.5" y="283.0234">2</text><line style="stroke:#000000;stroke-width:1.0;" x1="596.5" x2="596.5" y1="267.4883" y2="287.9766"/><line style="stroke:#000000;stroke-width:1.0;" x1="492.5" x2="637.5" y1="287.9766" y2="287.9766"/><text fill="#000000" font-family="sans-serif" font-size="14" font-weight="bold" lengthAdjust="spacing" textLength="94" x="497.5" y="303.5117">ratio_percent</text><text fill="#000000" font-family="sans-serif" font-size="14" lengthAdjust="spacing" textLength="31" x="601.5" y="303.5117">12.5</text><line style="stroke:#000000;stroke-width:1.0;" x1="596.5" x2="596.5" y1="287.9766" y2="308.4648"/><rect fill="none" height="61.4648" rx="5" ry="5" style="stroke:#000000;stroke-width:1.5;" width="145" x="492.5" y="247"/><rect fill="#F1F1F1" height="61.4648" rx="5" ry="5" style="stroke:#F1F1F1;stroke-width:1.5;" width="145" x="492.5" y="326"/><text fill="#000000" font-family="sans-serif" font-size="14" font-weight="bold" lengthAdjust="spacing" textLength="78" x="497.5" y="341.5352">field_value</text><text fill="#000000" font-family="sans-serif" font-size="14" lengthAdjust="spacing" textLength="31" x="601.5" y="341.5352">0.50</text><line style="stroke:#000000;stroke-width:1.0;" x1="596.5" x2="596.5" y1="326" y2="346.4883"/><line style="stroke:#000000;stroke-width:1.0;" x1="492.5" x2="637.5" y1="346.4883" y2="346.4883"/><text fill="#000000" font-family="sans-serif" font-size="14" font-weight="bold" lengthAdjust="spacing" textLength="74" x="497.5" y="362.0234">row_count</text><text fill="#000000" font-family="sans-serif" font-size="14" lengthAdjust="spacing" textLength="9" x="601.5" y="362.0234">2</text><line style="stroke:#000000;stroke-width:1.0;" x1="596.5" x2="596.5" y1="346.4883" y2="366.9766"/><line style="stroke:#000000;stroke-width:1.0;" x1="492.5" x2="637.5" y1="366.9766" y2="366.9766"/><text fill="#000000" font-family="sans-serif" font-size="14" font-weight="bold" lengthAdjust="spacing" textLength="94" x="497.5" y="382.5117">ratio_percent</text><text fill="#000000" font-family="sans-serif" font-size="14" lengthAdjust="spacing" textLength="31" x="601.5" y="382.5117">12.5</text><line style="stroke:#000000;stroke-width:1.0;" x1="596.5" x2="596.5" y1="366.9766" y2="387.4648"/><rect fill="none" height="61.4648" rx="5" ry="5" style="stroke:#000000;stroke-width:1.5;" width="145" x="492.5" y="326"/><rect fill="#F1F1F1" height="61.4648" rx="5" ry="5" style="stroke:#F1F1F1;stroke-width:1.5;" width="145" x="492.5" y="405"/><text fill="#000000" font-family="sans-serif" font-size="14" font-weight="bold" lengthAdjust="spacing" textLength="78" x="497.5" y="420.5352">field_value</text><text fill="#000000" font-family="sans-serif" font-size="14" lengthAdjust="spacing" textLength="31" x="601.5" y="420.5352">0.40</text><line style="stroke:#000000;stroke-width:1.0;" x1="596.5" x2="596.5" y1="405" y2="425.4883"/><line style="stroke:#000000;stroke-width:1.0;" x1="492.5" x2="637.5" y1="425.4883" y2="425.4883"/><text fill="#000000" font-family="sans-serif" font-size="14" font-weight="bold" lengthAdjust="spacing" textLength="74" x="497.5" y="441.0234">row_count</text><text fill="#000000" font-family="sans-serif" font-size="14" lengthAdjust="spacing" textLength="9" x="601.5" y="441.0234">1</text><line style="stroke:#000000;stroke-width:1.0;" x1="596.5" x2="596.5" y1="425.4883" y2="445.9766"/><line style="stroke:#000000;stroke-width:1.0;" x1="492.5" x2="637.5" y1="445.9766" y2="445.9766"/><text fill="#000000" font-family="sans-serif" font-size="14" font-weight="bold" lengthAdjust="spacing" textLength="94" x="497.5" y="461.5117">ratio_percent</text><text fill="#000000" font-family="sans-serif" font-size="14" lengthAdjust="spacing" textLength="31" x="601.5" y="461.5117">6.25</text><line style="stroke:#000000;stroke-width:1.0;" x1="596.5" x2="596.5" y1="445.9766" y2="466.4648"/><rect fill="none" height="61.4648" rx="5" ry="5" style="stroke:#000000;stroke-width:1.5;" width="145" x="492.5" y="405"/><rect fill="#F1F1F1" height="61.4648" rx="5" ry="5" style="stroke:#F1F1F1;stroke-width:1.5;" width="145" x="492.5" y="484"/><text fill="#000000" font-family="sans-serif" font-size="14" font-weight="bold" lengthAdjust="spacing" textLength="78" x="497.5" y="499.5352">field_value</text><text fill="#000000" font-family="sans-serif" font-size="14" lengthAdjust="spacing" textLength="31" x="601.5" y="499.5352">0.30</text><line style="stroke:#000000;stroke-width:1.0;" x1="596.5" x2="596.5" y1="484" y2="504.4883"/><line style="stroke:#000000;stroke-width:1.0;" x1="492.5" x2="637.5" y1="504.4883" y2="504.4883"/><text fill="#000000" font-family="sans-serif" font-size="14" font-weight="bold" lengthAdjust="spacing" textLength="74" x="497.5" y="520.0234">row_count</text><text fill="#000000" font-family="sans-serif" font-size="14" lengthAdjust="spacing" textLength="9" x="601.5" y="520.0234">1</text><line style="stroke:#000000;stroke-width:1.0;" x1="596.5" x2="596.5" y1="504.4883" y2="524.9766"/><line style="stroke:#000000;stroke-width:1.0;" x1="492.5" x2="637.5" y1="524.9766" y2="524.9766"/><text fill="#000000" font-family="sans-serif" font-size="14" font-weight="bold" lengthAdjust="spacing" textLength="94" x="497.5" y="540.5117">ratio_percent</text><text fill="#000000" font-family="sans-serif" font-size="14" lengthAdjust="spacing" textLength="31" x="601.5" y="540.5117">6.25</text><line style="stroke:#000000;stroke-width:1.0;" x1="596.5" x2="596.5" y1="524.9766" y2="545.4648"/><rect fill="none" height="61.4648" rx="5" ry="5" style="stroke:#000000;stroke-width:1.5;" width="145" x="492.5" y="484"/><rect fill="#F1F1F1" height="61.4648" rx="5" ry="5" style="stroke:#F1F1F1;stroke-width:1.5;" width="145" x="492.5" y="563"/><text fill="#000000" font-family="sans-serif" font-size="14" font-weight="bold" lengthAdjust="spacing" textLength="78" x="497.5" y="578.5352">field_value</text><text fill="#000000" font-family="sans-serif" font-size="14" lengthAdjust="spacing" textLength="31" x="601.5" y="578.5352">0.05</text><line style="stroke:#000000;stroke-width:1.0;" x1="596.5" x2="596.5" y1="563" y2="583.4883"/><line style="stroke:#000000;stroke-width:1.0;" x1="492.5" x2="637.5" y1="583.4883" y2="583.4883"/><text fill="#000000" font-family="sans-serif" font-size="14" font-weight="bold" lengthAdjust="spacing" textLength="74" x="497.5" y="599.0234">row_count</text><text fill="#000000" font-family="sans-serif" font-size="14" lengthAdjust="spacing" textLength="9" x="601.5" y="599.0234">1</text><line style="stroke:#000000;stroke-width:1.0;" x1="596.5" x2="596.5" y1="583.4883" y2="603.9766"/><line style="stroke:#000000;stroke-width:1.0;" x1="492.5" x2="637.5" y1="603.9766" y2="603.9766"/><text fill="#000000" font-family="sans-serif" font-size="14" font-weight="bold" lengthAdjust="spacing" textLength="94" x="497.5" y="619.5117">ratio_percent</text><text fill="#000000" font-family="sans-serif" font-size="14" lengthAdjust="spacing" textLength="31" x="601.5" y="619.5117">6.25</text><line style="stroke:#000000;stroke-width:1.0;" x1="596.5" x2="596.5" y1="603.9766" y2="624.4648"/><rect fill="none" height="61.4648" rx="5" ry="5" style="stroke:#000000;stroke-width:1.5;" width="145" x="492.5" y="563"/><rect fill="#F1F1F1" height="61.4648" rx="5" ry="5" style="stroke:#F1F1F1;stroke-width:1.5;" width="145" x="492.5" y="642"/><text fill="#000000" font-family="sans-serif" font-size="14" font-weight="bold" lengthAdjust="spacing" textLength="78" x="497.5" y="657.5352">field_value</text><text fill="#000000" font-family="sans-serif" font-size="14" lengthAdjust="spacing" textLength="31" x="601.5" y="657.5352">0.02</text><line style="stroke:#000000;stroke-width:1.0;" x1="596.5" x2="596.5" y1="642" y2="662.4883"/><line style="stroke:#000000;stroke-width:1.0;" x1="492.5" x2="637.5" y1="662.4883" y2="662.4883"/><text fill="#000000" font-family="sans-serif" font-size="14" font-weight="bold" lengthAdjust="spacing" textLength="74" x="497.5" y="678.0234">row_count</text><text fill="#000000" font-family="sans-serif" font-size="14" lengthAdjust="spacing" textLength="9" x="601.5" y="678.0234">1</text><line style="stroke:#000000;stroke-width:1.0;" x1="596.5" x2="596.5" y1="662.4883" y2="682.9766"/><line style="stroke:#000000;stroke-width:1.0;" x1="492.5" x2="637.5" y1="682.9766" y2="682.9766"/><text fill="#000000" font-family="sans-serif" font-size="14" font-weight="bold" lengthAdjust="spacing" textLength="94" x="497.5" y="698.5117">ratio_percent</text><text fill="#000000" font-family="sans-serif" font-size="14" lengthAdjust="spacing" textLength="31" x="601.5" y="698.5117">6.25</text><line style="stroke:#000000;stroke-width:1.0;" x1="596.5" x2="596.5" y1="682.9766" y2="703.4648"/><rect fill="none" height="61.4648" rx="5" ry="5" style="stroke:#000000;stroke-width:1.5;" width="145" x="492.5" y="642"/><rect fill="#F1F1F1" height="61.4648" rx="5" ry="5" style="stroke:#F1F1F1;stroke-width:1.5;" width="145" x="492.5" y="721"/><text fill="#000000" font-family="sans-serif" font-size="14" font-weight="bold" lengthAdjust="spacing" textLength="78" x="497.5" y="736.5352">field_value</text><text fill="#000000" font-family="sans-serif" font-size="14" lengthAdjust="spacing" textLength="31" x="601.5" y="736.5352">0.00</text><line style="stroke:#000000;stroke-width:1.0;" x1="596.5" x2="596.5" y1="721" y2="741.4883"/><line style="stroke:#000000;stroke-width:1.0;" x1="492.5" x2="637.5" y1="741.4883" y2="741.4883"/><text fill="#000000" font-family="sans-serif" font-size="14" font-weight="bold" lengthAdjust="spacing" textLength="74" x="497.5" y="757.0234">row_count</text><text fill="#000000" font-family="sans-serif" font-size="14" lengthAdjust="spacing" textLength="9" x="601.5" y="757.0234">1</text><line style="stroke:#000000;stroke-width:1.0;" x1="596.5" x2="596.5" y1="741.4883" y2="761.9766"/><line style="stroke:#000000;stroke-width:1.0;" x1="492.5" x2="637.5" y1="761.9766" y2="761.9766"/><text fill="#000000" font-family="sans-serif" font-size="14" font-weight="bold" lengthAdjust="spacing" textLength="94" x="497.5" y="777.5117">ratio_percent</text><text fill="#000000" font-family="sans-serif" font-size="14" lengthAdjust="spacing" textLength="31" x="601.5" y="777.5117">6.25</text><line style="stroke:#000000;stroke-width:1.0;" x1="596.5" x2="596.5" y1="761.9766" y2="782.4648"/><rect fill="none" height="61.4648" rx="5" ry="5" style="stroke:#000000;stroke-width:1.5;" width="145" x="492.5" y="721"/><path d="M222,315.5 L235,315.5 C255.8273,315.5 252.8137,295.6507 271,285.5 C275.038,283.2462 279.2733,281.1247 283.6133,279.1338 " fill="none" style="stroke:#000000;stroke-width:1.0;stroke-dasharray:3.0,3.0;"/><path d="M284.8219,281.8909 L285.6812,278.2274 L282.4048,276.3766 L290.5062,276.1124 L284.8219,281.8909 " fill="#000000" style="stroke:#000000;stroke-width:1.0;"/><ellipse cx="222" cy="315.5" fill="#000000" rx="3" ry="3" style="stroke:#000000;stroke-width:1.0;"/><path d="M361.5,305.5 L361.5,292.5 C361.5,282.4144 444.5351,292.2819 452,285.5 C520.7926,223.002 432.7805,154.2611 488,79.5 C488.6919,78.5632 489.4129,77.6472 490.1605,76.7517 " fill="none" style="stroke:#000000;stroke-width:1.0;stroke-dasharray:3.0,3.0;"/><path d="M492.4075,78.8695 L491.7488,75.0664 L487.9134,74.634 L495.4548,71.1341 L492.4075,78.8695 " fill="#000000" style="stroke:#000000;stroke-width:1.0;"/><ellipse cx="361.5" cy="305.5" fill="#000000" rx="3" ry="3" style="stroke:#000000;stroke-width:1.0;"/><path d="M361.5,324.5 L374.5,324.5 C413.0599,324.5 427.4435,315.2295 452,285.5 C489.3625,240.267 450.7561,203.8306 488,158.5 C488.8458,157.4705 489.7258,156.4654 490.6366,155.4842 " fill="none" style="stroke:#000000;stroke-width:1.0;stroke-dasharray:3.0,3.0;"/><path d="M492.7812,157.6957 L492.2952,153.8758 L488.492,153.2727 L496.1654,150.1227 L492.7812,157.6957 " fill="#000000" style="stroke:#000000;stroke-width:1.0;"/><ellipse cx="361.5" cy="324.5" fill="#000000" rx="3" ry="3" style="stroke:#000000;stroke-width:1.0;"/><path d="M361.5,344.5 L374.5,344.5 C417.79,344.5 421.4995,316.2205 452,285.5 C470.7883,266.5762 467.5935,254.6664 488,237.5 C489.6577,236.1055 491.3737,234.7436 493.1361,233.4152 " fill="none" style="stroke:#000000;stroke-width:1.0;stroke-dasharray:3.0,3.0;"/><path d="M494.8907,235.8764 L494.982,232.0992 L491.3814,230.954 L499.2891,229.0286 L494.8907,235.8764 " fill="#000000" style="stroke:#000000;stroke-width:1.0;"/><ellipse cx="361.5" cy="344.5" fill="#000000" rx="3" ry="3" style="stroke:#000000;stroke-width:1.0;"/><path d="M361.5,365.5 L374.5,365.5 C387.9103,365.5 448.9871,336.2627 498.3246,311.4931 " fill="none" style="stroke:#000000;stroke-width:1.0;stroke-dasharray:3.0,3.0;"/><path d="M499.7094,314.2441 L500.3879,310.4545 L496.9398,308.742 L505.2022,308.0312 L499.7094,314.2441 " fill="#000000" style="stroke:#000000;stroke-width:1.0;"/><ellipse cx="361.5" cy="365.5" fill="#000000" rx="3" ry="3" style="stroke:#000000;stroke-width:1.0;"/><path d="M361.5,385.5 L374.5,385.5 C411.1059,385.5 451.2293,380.1746 485.1335,374.0879 " fill="none" style="stroke:#000000;stroke-width:1.0;stroke-dasharray:3.0,3.0;"/><path d="M485.6903,377.1205 L487.4079,373.6702 L484.5766,371.0552 L492.7151,372.6958 L485.6903,377.1205 " fill="#000000" style="stroke:#000000;stroke-width:1.0;"/><ellipse cx="361.5" cy="385.5" fill="#000000" rx="3" ry="3" style="stroke:#000000;stroke-width:1.0;"/><path d="M361.5,406.5 L374.5,406.5 C411.1059,406.5 451.2293,411.8254 485.1335,417.9121 " fill="none" style="stroke:#000000;stroke-width:1.0;stroke-dasharray:3.0,3.0;"/><path d="M484.5766,420.9448 L487.4079,418.3298 L485.6903,414.8795 L492.7151,419.3042 L484.5766,420.9448 " fill="#000000" style="stroke:#000000;stroke-width:1.0;"/><ellipse cx="361.5" cy="406.5" fill="#000000" rx="3" ry="3" style="stroke:#000000;stroke-width:1.0;"/><path d="M361.5,427.5 L374.5,427.5 C387.7969,427.5 448.1758,456.0321 497.3505,480.4171 " fill="none" style="stroke:#000000;stroke-width:1.0;stroke-dasharray:3.0,3.0;"/><path d="M495.9866,483.1605 L499.408,481.4401 L498.7145,477.6738 L504.2089,483.8271 L495.9866,483.1605 " fill="#000000" style="stroke:#000000;stroke-width:1.0;"/><ellipse cx="361.5" cy="427.5" fill="#000000" rx="3" ry="3" style="stroke:#000000;stroke-width:1.0;"/><path d="M361.5,447.5 L374.5,447.5 C443.8266,447.5 431.3237,514.5754 488,554.5 C490.0718,555.9595 492.2059,557.3971 494.3847,558.8093 " fill="none" style="stroke:#000000;stroke-width:1.0;stroke-dasharray:3.0,3.0;"/><path d="M492.7219,561.4707 L496.3807,560.0564 L496.0475,556.148 L501.0381,562.9663 L492.7219,561.4707 " fill="#000000" style="stroke:#000000;stroke-width:1.0;"/><ellipse cx="361.5" cy="447.5" fill="#000000" rx="3" ry="3" style="stroke:#000000;stroke-width:1.0;"/><path d="M361.5,468.5 L374.5,468.5 C463.508,468.5 421.0748,574.8191 488,633.5 C489.4712,634.79 490.9926,636.0501 492.5552,637.2802 " fill="none" style="stroke:#000000;stroke-width:1.0;stroke-dasharray:3.0,3.0;"/><path d="M490.7173,639.7652 L494.419,638.6587 L494.3931,634.7952 L498.7677,641.8749 L490.7173,639.7652 " fill="#000000" style="stroke:#000000;stroke-width:1.0;"/><ellipse cx="361.5" cy="468.5" fill="#000000" rx="3" ry="3" style="stroke:#000000;stroke-width:1.0;"/><path d="M361.5,487.5 L361.5,500.5 C361.5,610.2213 407.8779,637.5385 488,712.5 C489.2825,713.6999 490.609,714.872 491.9727,716.0162 " fill="none" style="stroke:#000000;stroke-width:1.0;stroke-dasharray:3.0,3.0;"/><path d="M490.0372,718.4948 L493.8317,717.4678 L493.9082,713.5376 L498.1693,720.855 L490.0372,718.4948 " fill="#000000" style="stroke:#000000;stroke-width:1.0;"/><ellipse cx="361.5" cy="487.5" fill="#000000" rx="3" ry="3" style="stroke:#000000;stroke-width:1.0;"/><path d="M222,336.5 L235,336.5 C277.1629,336.5 320.1866,364.4055 343.2874,382.1547 " fill="none" style="stroke:#000000;stroke-width:1.0;stroke-dasharray:3.0,3.0;"/><path d="M341.4053,384.5427 L345.0784,383.5663 L345.1695,379.7667 L349.2574,386.86 L341.4053,384.5427 " fill="#000000" style="stroke:#000000;stroke-width:1.0;"/><ellipse cx="222" cy="336.5" fill="#000000" rx="3" ry="3" style="stroke:#000000;stroke-width:1.0;"/><!--MD5=[6e0c1614a75866edc5f5596c59fddd28]
@startjson
{
    "field1": "DiscountPct",
    "combination": "DiscountPct",
    "null_distribution": {
        "total_null_rows": 0,
        "total_not_null_rows": 16
    },
    "data_distribution": [
        {
            "field_value": "0.15",
            "row_count": 3,
            "ratio_percent": 18.75
        },
        {
            "field_value": "0.20",
            "row_count": 2,
            "ratio_percent": 12.5
        },
        {
            "field_value": "0.10",
            "row_count": 2,
            "ratio_percent": 12.5
        },
        {
            "field_value": "0.35",
            "row_count": 2,
            "ratio_percent": 12.5
        },
        {
            "field_value": "0.50",
            "row_count": 2,
            "ratio_percent": 12.5
        },
        {
            "field_value": "0.40",
            "row_count": 1,
            "ratio_percent": 6.25
        },
        {
            "field_value": "0.30",
            "row_count": 1,
            "ratio_percent": 6.25
        },
        {
            "field_value": "0.05",
            "row_count": 1,
            "ratio_percent": 6.25
        },
        {
            "field_value": "0.02",
            "row_count": 1,
            "ratio_percent": 6.25
        },
        {
            "field_value": "0.00",
            "row_count": 1,
            "ratio_percent": 6.25
        }
    ]
}
@endjson

PlantUML version 1.2022.5(Sat Apr 30 06:55:52 EDT 2022)
(GPL source distribution)
Java Runtime: OpenJDK Runtime Environment
JVM: OpenJDK 64-Bit Server VM
Default Encoding: UTF-8
Language: en
Country: CA
--></g></svg>