<?xml version="1.0" encoding="UTF-8" standalone="no"?><svg xmlns="http://www.w3.org/2000/svg" xmlns:xlink="http://www.w3.org/1999/xlink" contentStyleType="text/css" height="794px" preserveAspectRatio="none" style="width:662px;height:794px;background:#FFFFFF;" version="1.1" viewBox="0 0 662 794" width="662px" zoomAndPan="magnify"><defs/><g><rect fill="#F1F1F1" height="81.9531" rx="5" ry="5" style="stroke:#F1F1F1;stroke-width:1.5;" width="241" x="10" y="264.5"/><text fill="#000000" font-family="sans-serif" font-size="14" font-weight="bold" lengthAdjust="spacing" textLength="42" x="15" y="280.0352">field1</text><text fill="#000000" font-family="sans-serif" font-size="14" lengthAdjust="spacing" textLength="97" x="149" y="280.0352">SpecialOfferID</text><line style="stroke:#000000;stroke-width:1.0;" x1="144" x2="144" y1="264.5" y2="284.9883"/><line style="stroke:#000000;stroke-width:1.0;" x1="10" x2="251" y1="284.9883" y2="284.9883"/><text fill="#000000" font-family="sans-serif" font-size="14" font-weight="bold" lengthAdjust="spacing" textLength="90" x="15" y="300.5234">combination</text><text fill="#000000" font-family="sans-serif" font-size="14" lengthAdjust="spacing" textLength="97" x="149" y="300.5234">SpecialOfferID</text><line style="stroke:#000000;stroke-width:1.0;" x1="144" x2="144" y1="284.9883" y2="305.4766"/><line style="stroke:#000000;stroke-width:1.0;" x1="10" x2="251" y1="305.4766" y2="305.4766"/><text fill="#000000" font-family="sans-serif" font-size="14" font-weight="bold" lengthAdjust="spacing" textLength="121" x="15" y="321.0117">null_distribution</text><text fill="#000000" font-family="sans-serif" font-size="14" lengthAdjust="spacing" textLength="12" x="149" y="321.0117">   </text><line style="stroke:#000000;stroke-width:1.0;" x1="144" x2="144" y1="305.4766" y2="325.9648"/><line style="stroke:#000000;stroke-width:1.0;" x1="10" x2="251" y1="325.9648" y2="325.9648"/><text fill="#000000" font-family="sans-serif" font-size="14" font-weight="bold" lengthAdjust="spacing" textLength="124" x="15" y="341.5">data_distribution</text><text fill="#000000" font-family="sans-serif" font-size="14" lengthAdjust="spacing" textLength="12" x="149" y="341.5">   </text><line style="stroke:#000000;stroke-width:1.0;" x1="144" x2="144" y1="325.9648" y2="346.4531"/><rect fill="none" height="81.9531" rx="5" ry="5" style="stroke:#000000;stroke-width:1.5;" width="241" x="10" y="264.5"/><rect fill="#F1F1F1" height="40.9766" rx="5" ry="5" style="stroke:#F1F1F1;stroke-width:1.5;" width="180" x="288" y="235"/><text fill="#000000" font-family="sans-serif" font-size="14" font-weight="bold" lengthAdjust="spacing" textLength="111" x="293" y="250.5352">total_null_rows</text><text fill="#000000" font-family="sans-serif" font-size="14" lengthAdjust="spacing" textLength="9" x="445" y="250.5352">0</text><line style="stroke:#000000;stroke-width:1.0;" x1="440" x2="440" y1="235" y2="255.4883"/><line style="stroke:#000000;stroke-width:1.0;" x1="288" x2="468" y1="255.4883" y2="255.4883"/><text fill="#000000" font-family="sans-serif" font-size="14" font-weight="bold" lengthAdjust="spacing" textLength="142" x="293" y="271.0234">total_not_null_rows</text><text fill="#000000" font-family="sans-serif" font-size="14" lengthAdjust="spacing" textLength="18" x="445" y="271.0234">16</text><line style="stroke:#000000;stroke-width:1.0;" x1="440" x2="440" y1="255.4883" y2="275.9766"/><rect fill="none" height="40.9766" rx="5" ry="5" style="stroke:#000000;stroke-width:1.5;" width="180" x="288" y="235"/><rect fill="#F1F1F1" height="204.8828" rx="5" ry="5" style="stroke:#F1F1F1;stroke-width:1.5;" width="22" x="366" y="294"/><text fill="#000000" font-family="sans-serif" font-size="14" lengthAdjust="spacing" textLength="12" x="371" y="309.5352">   </text><line style="stroke:#000000;stroke-width:1.0;" x1="366" x2="388" y1="314.4883" y2="314.4883"/><text fill="#000000" font-family="sans-serif" font-size="14" lengthAdjust="spacing" textLength="12" x="371" y="330.0234">   </text><line style="stroke:#000000;stroke-width:1.0;" x1="366" x2="388" y1="334.9766" y2="334.9766"/><text fill="#000000" font-family="sans-serif" font-size="14" lengthAdjust="spacing" textLength="12" x="371" y="350.5117">   </text><line style="stroke:#000000;stroke-width:1.0;" x1="366" x2="388" y1="355.4648" y2="355.4648"/><text fill="#000000" font-family="sans-serif" font-size="14" lengthAdjust="spacing" textLength="12" x="371" y="371">   </text><line style="stroke:#000000;stroke-width:1.0;" x1="366" x2="388" y1="375.9531" y2="375.9531"/><text fill="#000000" font-family="sans-serif" font-size="14" lengthAdjust="spacing" textLength="12" x="371" y="391.4883">   </text><line style="stroke:#000000;stroke-width:1.0;" x1="366" x2="388" y1="396.4414" y2="396.4414"/><text fill="#000000" font-family="sans-serif" font-size="14" lengthAdjust="spacing" textLength="12" x="371" y="411.9766">   </text><line style="stroke:#000000;stroke-width:1.0;" x1="366" x2="388" y1="416.9297" y2="416.9297"/><text fill="#000000" font-family="sans-serif" font-size="14" lengthAdjust="spacing" textLength="12" x="371" y="432.4648">   </text><line style="stroke:#000000;stroke-width:1.0;" x1="366" x2="388" y1="437.418" y2="437.418"/><text fill="#000000" font-family="sans-serif" font-size="14" lengthAdjust="spacing" textLength="12" x="371" y="452.9531">   </text><line style="stroke:#000000;stroke-width:1.0;" x1="366" x2="388" y1="457.9063" y2="457.9063"/><text fill="#000000" font-family="sans-serif" font-size="14" lengthAdjust="spacing" textLength="12" x="371" y="473.4414">   </text><line style="stroke:#000000;stroke-width:1.0;" x1="366" x2="388" y1="478.3945" y2="478.3945"/><text fill="#000000" font-family="sans-serif" font-size="14" lengthAdjust="spacing" textLength="12" x="371" y="493.9297">   </text><rect fill="none" height="204.8828" rx="5" ry="5" style="stroke:#000000;stroke-width:1.5;" width="22" x="366" y="294"/><rect fill="#F1F1F1" height="61.4648" rx="5" ry="5" style="stroke:#F1F1F1;stroke-width:1.5;" width="145" x="505" y="10"/><text fill="#000000" font-family="sans-serif" font-size="14" font-weight="bold" lengthAdjust="spacing" textLength="78" x="510" y="25.5352">field_value</text><text fill="#000000" font-family="sans-serif" font-size="14" lengthAdjust="spacing" textLength="9" x="614" y="25.5352">4</text><line style="stroke:#000000;stroke-width:1.0;" x1="609" x2="609" y1="10" y2="30.4883"/><line style="stroke:#000000;stroke-width:1.0;" x1="505" x2="650" y1="30.4883" y2="30.4883"/><text fill="#000000" font-family="sans-serif" font-size="14" font-weight="bold" lengthAdjust="spacing" textLength="74" x="510" y="46.0234">row_count</text><text fill="#000000" font-family="sans-serif" font-size="14" lengthAdjust="spacing" textLength="9" x="614" y="46.0234">1</text><line style="stroke:#000000;stroke-width:1.0;" x1="609" x2="609" y1="30.4883" y2="50.9766"/><line style="stroke:#000000;stroke-width:1.0;" x1="505" x2="650" y1="50.9766" y2="50.9766"/><text fill="#000000" font-family="sans-serif" font-size="14" font-weight="bold" lengthAdjust="spacing" textLength="94" x="510" y="66.5117">ratio_percent</text><text fill="#000000" font-family="sans-serif" font-size="14" lengthAdjust="spacing" textLength="31" x="614" y="66.5117">6.25</text><line style="stroke:#000000;stroke-width:1.0;" x1="609" x2="609" y1="50.9766" y2="71.4648"/><rect fill="none" height="61.4648" rx="5" ry="5" style="stroke:#000000;stroke-width:1.5;" width="145" x="505" y="10"/><rect fill="#F1F1F1" height="61.4648" rx="5" ry="5" style="stroke:#F1F1F1;stroke-width:1.5;" width="145" x="505" y="89"/><text fill="#000000" font-family="sans-serif" font-size="14" font-weight="bold" lengthAdjust="spacing" textLength="78" x="510" y="104.5352">field_value</text><text fill="#000000" font-family="sans-serif" font-size="14" lengthAdjust="spacing" textLength="9" x="614" y="104.5352">3</text><line style="stroke:#000000;stroke-width:1.0;" x1="609" x2="609" y1="89" y2="109.4883"/><line style="stroke:#000000;stroke-width:1.0;" x1="505" x2="650" y1="109.4883" y2="109.4883"/><text fill="#000000" font-family="sans-serif" font-size="14" font-weight="bold" lengthAdjust="spacing" textLength="74" x="510" y="125.0234">row_count</text><text fill="#000000" font-family="sans-serif" font-size="14" lengthAdjust="spacing" textLength="9" x="614" y="125.0234">1</text><line style="stroke:#000000;stroke-width:1.0;" x1="609" x2="609" y1="109.4883" y2="129.9766"/><line style="stroke:#000000;stroke-width:1.0;" x1="505" x2="650" y1="129.9766" y2="129.9766"/><text fill="#000000" font-family="sans-serif" font-size="14" font-weight="bold" lengthAdjust="spacing" textLength="94" x="510" y="145.5117">ratio_percent</text><text fill="#000000" font-family="sans-serif" font-size="14" lengthAdjust="spacing" textLength="31" x="614" y="145.5117">6.25</text><line style="stroke:#000000;stroke-width:1.0;" x1="609" x2="609" y1="129.9766" y2="150.4648"/><rect fill="none" height="61.4648" rx="5" ry="5" style="stroke:#000000;stroke-width:1.5;" width="145" x="505" y="89"/><rect fill="#F1F1F1" height="61.4648" rx="5" ry="5" style="stroke:#F1F1F1;stroke-width:1.5;" width="145" x="505" y="168"/><text fill="#000000" font-family="sans-serif" font-size="14" font-weight="bold" lengthAdjust="spacing" textLength="78" x="510" y="183.5352">field_value</text><text fill="#000000" font-family="sans-serif" font-size="14" lengthAdjust="spacing" textLength="9" x="614" y="183.5352">2</text><line style="stroke:#000000;stroke-width:1.0;" x1="609" x2="609" y1="168" y2="188.4883"/><line style="stroke:#000000;stroke-width:1.0;" x1="505" x2="650" y1="188.4883" y2="188.4883"/><text fill="#000000" font-family="sans-serif" font-size="14" font-weight="bold" lengthAdjust="spacing" textLength="74" x="510" y="204.0234">row_count</text><text fill="#000000" font-family="sans-serif" font-size="14" lengthAdjust="spacing" textLength="9" x="614" y="204.0234">1</text><line style="stroke:#000000;stroke-width:1.0;" x1="609" x2="609" y1="188.4883" y2="208.9766"/><line style="stroke:#000000;stroke-width:1.0;" x1="505" x2="650" y1="208.9766" y2="208.9766"/><text fill="#000000" font-family="sans-serif" font-size="14" font-weight="bold" lengthAdjust="spacing" textLength="94" x="510" y="224.5117">ratio_percent</text><text fill="#000000" font-family="sans-serif" font-size="14" lengthAdjust="spacing" textLength="31" x="614" y="224.5117">6.25</text><line style="stroke:#000000;stroke-width:1.0;" x1="609" x2="609" y1="208.9766" y2="229.4648"/><rect fill="none" height="61.4648" rx="5" ry="5" style="stroke:#000000;stroke-width:1.5;" width="145" x="505" y="168"/><rect fill="#F1F1F1" height="61.4648" rx="5" ry="5" style="stroke:#F1F1F1;stroke-width:1.5;" width="145" x="505" y="247"/><text fill="#000000" font-family="sans-serif" font-size="14" font-weight="bold" lengthAdjust="spacing" textLength="78" x="510" y="262.5352">field_value</text><text fill="#000000" font-family="sans-serif" font-size="14" lengthAdjust="spacing" textLength="18" x="614" y="262.5352">16</text><line style="stroke:#000000;stroke-width:1.0;" x1="609" x2="609" y1="247" y2="267.4883"/><line style="stroke:#000000;stroke-width:1.0;" x1="505" x2="650" y1="267.4883" y2="267.4883"/><text fill="#000000" font-family="sans-serif" font-size="14" font-weight="bold" lengthAdjust="spacing" textLength="74" x="510" y="283.0234">row_count</text><text fill="#000000" font-family="sans-serif" font-size="14" lengthAdjust="spacing" textLength="9" x="614" y="283.0234">1</text><line style="stroke:#000000;stroke-width:1.0;" x1="609" x2="609" y1="267.4883" y2="287.9766"/><line style="stroke:#000000;stroke-width:1.0;" x1="505" x2="650" y1="287.9766" y2="287.9766"/><text fill="#000000" font-family="sans-serif" font-size="14" font-weight="bold" lengthAdjust="spacing" textLength="94" x="510" y="303.5117">ratio_percent</text><text fill="#000000" font-family="sans-serif" font-size="14" lengthAdjust="spacing" textLength="31" x="614" y="303.5117">6.25</text><line style="stroke:#000000;stroke-width:1.0;" x1="609" x2="609" y1="287.9766" y2="308.4648"/><rect fill="none" height="61.4648" rx="5" ry="5" style="stroke:#000000;stroke-width:1.5;" width="145" x="505" y="247"/><rect fill="#F1F1F1" height="61.4648" rx="5" ry="5" style="stroke:#F1F1F1;stroke-width:1.5;" width="145" x="505" y="326"/><text fill="#000000" font-family="sans-serif" font-size="14" font-weight="bold" lengthAdjust="spacing" textLength="78" x="510" y="341.5352">field_value</text><text fill="#000000" font-family="sans-serif" font-size="14" lengthAdjust="spacing" textLength="18" x="614" y="341.5352">15</text><line style="stroke:#000000;stroke-width:1.0;" x1="609" x2="609" y1="326" y2="346.4883"/><line style="stroke:#000000;stroke-width:1.0;" x1="505" x2="650" y1="346.4883" y2="346.4883"/><text fill="#000000" font-family="sans-serif" font-size="14" font-weight="bold" lengthAdjust="spacing" textLength="74" x="510" y="362.0234">row_count</text><text fill="#000000" font-family="sans-serif" font-size="14" lengthAdjust="spacing" textLength="9" x="614" y="362.0234">1</text><line style="stroke:#000000;stroke-width:1.0;" x1="609" x2="609" y1="346.4883" y2="366.9766"/><line style="stroke:#000000;stroke-width:1.0;" x1="505" x2="650" y1="366.9766" y2="366.9766"/><text fill="#000000" font-family="sans-serif" font-size="14" font-weight="bold" lengthAdjust="spacing" textLength="94" x="510" y="382.5117">ratio_percent</text><text fill="#000000" font-family="sans-serif" font-size="14" lengthAdjust="spacing" textLength="31" x="614" y="382.5117">6.25</text><line style="stroke:#000000;stroke-width:1.0;" x1="609" x2="609" y1="366.9766" y2="387.4648"/><rect fill="none" height="61.4648" rx="5" ry="5" style="stroke:#000000;stroke-width:1.5;" width="145" x="505" y="326"/><rect fill="#F1F1F1" height="61.4648" rx="5" ry="5" style="stroke:#F1F1F1;stroke-width:1.5;" width="145" x="505" y="405"/><text fill="#000000" font-family="sans-serif" font-size="14" font-weight="bold" lengthAdjust="spacing" textLength="78" x="510" y="420.5352">field_value</text><text fill="#000000" font-family="sans-serif" font-size="14" lengthAdjust="spacing" textLength="18" x="614" y="420.5352">14</text><line style="stroke:#000000;stroke-width:1.0;" x1="609" x2="609" y1="405" y2="425.4883"/><line style="stroke:#000000;stroke-width:1.0;" x1="505" x2="650" y1="425.4883" y2="425.4883"/><text fill="#000000" font-family="sans-serif" font-size="14" font-weight="bold" lengthAdjust="spacing" textLength="74" x="510" y="441.0234">row_count</text><text fill="#000000" font-family="sans-serif" font-size="14" lengthAdjust="spacing" textLength="9" x="614" y="441.0234">1</text><line style="stroke:#000000;stroke-width:1.0;" x1="609" x2="609" y1="425.4883" y2="445.9766"/><line style="stroke:#000000;stroke-width:1.0;" x1="505" x2="650" y1="445.9766" y2="445.9766"/><text fill="#000000" font-family="sans-serif" font-size="14" font-weight="bold" lengthAdjust="spacing" textLength="94" x="510" y="461.5117">ratio_percent</text><text fill="#000000" font-family="sans-serif" font-size="14" lengthAdjust="spacing" textLength="31" x="614" y="461.5117">6.25</text><line style="stroke:#000000;stroke-width:1.0;" x1="609" x2="609" y1="445.9766" y2="466.4648"/><rect fill="none" height="61.4648" rx="5" ry="5" style="stroke:#000000;stroke-width:1.5;" width="145" x="505" y="405"/><rect fill="#F1F1F1" height="61.4648" rx="5" ry="5" style="stroke:#F1F1F1;stroke-width:1.5;" width="145" x="505" y="484"/><text fill="#000000" font-family="sans-serif" font-size="14" font-weight="bold" lengthAdjust="spacing" textLength="78" x="510" y="499.5352">field_value</text><text fill="#000000" font-family="sans-serif" font-size="14" lengthAdjust="spacing" textLength="18" x="614" y="499.5352">13</text><line style="stroke:#000000;stroke-width:1.0;" x1="609" x2="609" y1="484" y2="504.4883"/><line style="stroke:#000000;stroke-width:1.0;" x1="505" x2="650" y1="504.4883" y2="504.4883"/><text fill="#000000" font-family="sans-serif" font-size="14" font-weight="bold" lengthAdjust="spacing" textLength="74" x="510" y="520.0234">row_count</text><text fill="#000000" font-family="sans-serif" font-size="14" lengthAdjust="spacing" textLength="9" x="614" y="520.0234">1</text><line style="stroke:#000000;stroke-width:1.0;" x1="609" x2="609" y1="504.4883" y2="524.9766"/><line style="stroke:#000000;stroke-width:1.0;" x1="505" x2="650" y1="524.9766" y2="524.9766"/><text fill="#000000" font-family="sans-serif" font-size="14" font-weight="bold" lengthAdjust="spacing" textLength="94" x="510" y="540.5117">ratio_percent</text><text fill="#000000" font-family="sans-serif" font-size="14" lengthAdjust="spacing" textLength="31" x="614" y="540.5117">6.25</text><line style="stroke:#000000;stroke-width:1.0;" x1="609" x2="609" y1="524.9766" y2="545.4648"/><rect fill="none" height="61.4648" rx="5" ry="5" style="stroke:#000000;stroke-width:1.5;" width="145" x="505" y="484"/><rect fill="#F1F1F1" height="61.4648" rx="5" ry="5" style="stroke:#F1F1F1;stroke-width:1.5;" width="145" x="505" y="563"/><text fill="#000000" font-family="sans-serif" font-size="14" font-weight="bold" lengthAdjust="spacing" textLength="78" x="510" y="578.5352">field_value</text><text fill="#000000" font-family="sans-serif" font-size="14" lengthAdjust="spacing" textLength="18" x="614" y="578.5352">12</text><line style="stroke:#000000;stroke-width:1.0;" x1="609" x2="609" y1="563" y2="583.4883"/><line style="stroke:#000000;stroke-width:1.0;" x1="505" x2="650" y1="583.4883" y2="583.4883"/><text fill="#000000" font-family="sans-serif" font-size="14" font-weight="bold" lengthAdjust="spacing" textLength="74" x="510" y="599.0234">row_count</text><text fill="#000000" font-family="sans-serif" font-size="14" lengthAdjust="spacing" textLength="9" x="614" y="599.0234">1</text><line style="stroke:#000000;stroke-width:1.0;" x1="609" x2="609" y1="583.4883" y2="603.9766"/><line style="stroke:#000000;stroke-width:1.0;" x1="505" x2="650" y1="603.9766" y2="603.9766"/><text fill="#000000" font-family="sans-serif" font-size="14" font-weight="bold" lengthAdjust="spacing" textLength="94" x="510" y="619.5117">ratio_percent</text><text fill="#000000" font-family="sans-serif" font-size="14" lengthAdjust="spacing" textLength="31" x="614" y="619.5117">6.25</text><line style="stroke:#000000;stroke-width:1.0;" x1="609" x2="609" y1="603.9766" y2="624.4648"/><rect fill="none" height="61.4648" rx="5" ry="5" style="stroke:#000000;stroke-width:1.5;" width="145" x="505" y="563"/><rect fill="#F1F1F1" height="61.4648" rx="5" ry="5" style="stroke:#F1F1F1;stroke-width:1.5;" width="145" x="505" y="642"/><text fill="#000000" font-family="sans-serif" font-size="14" font-weight="bold" lengthAdjust="spacing" textLength="78" x="510" y="657.5352">field_value</text><text fill="#000000" font-family="sans-serif" font-size="14" lengthAdjust="spacing" textLength="18" x="614" y="657.5352">11</text><line style="stroke:#000000;stroke-width:1.0;" x1="609" x2="609" y1="642" y2="662.4883"/><line style="stroke:#000000;stroke-width:1.0;" x1="505" x2="650" y1="662.4883" y2="662.4883"/><text fill="#000000" font-family="sans-serif" font-size="14" font-weight="bold" lengthAdjust="spacing" textLength="74" x="510" y="678.0234">row_count</text><text fill="#000000" font-family="sans-serif" font-size="14" lengthAdjust="spacing" textLength="9" x="614" y="678.0234">1</text><line style="stroke:#000000;stroke-width:1.0;" x1="609" x2="609" y1="662.4883" y2="682.9766"/><line style="stroke:#000000;stroke-width:1.0;" x1="505" x2="650" y1="682.9766" y2="682.9766"/><text fill="#000000" font-family="sans-serif" font-size="14" font-weight="bold" lengthAdjust="spacing" textLength="94" x="510" y="698.5117">ratio_percent</text><text fill="#000000" font-family="sans-serif" font-size="14" lengthAdjust="spacing" textLength="31" x="614" y="698.5117">6.25</text><line style="stroke:#000000;stroke-width:1.0;" x1="609" x2="609" y1="682.9766" y2="703.4648"/><rect fill="none" height="61.4648" rx="5" ry="5" style="stroke:#000000;stroke-width:1.5;" width="145" x="505" y="642"/><rect fill="#F1F1F1" height="61.4648" rx="5" ry="5" style="stroke:#F1F1F1;stroke-width:1.5;" width="145" x="505" y="721"/><text fill="#000000" font-family="sans-serif" font-size="14" font-weight="bold" lengthAdjust="spacing" textLength="78" x="510" y="736.5352">field_value</text><text fill="#000000" font-family="sans-serif" font-size="14" lengthAdjust="spacing" textLength="18" x="614" y="736.5352">10</text><line style="stroke:#000000;stroke-width:1.0;" x1="609" x2="609" y1="721" y2="741.4883"/><line style="stroke:#000000;stroke-width:1.0;" x1="505" x2="650" y1="741.4883" y2="741.4883"/><text fill="#000000" font-family="sans-serif" font-size="14" font-weight="bold" lengthAdjust="spacing" textLength="74" x="510" y="757.0234">row_count</text><text fill="#000000" font-family="sans-serif" font-size="14" lengthAdjust="spacing" textLength="9" x="614" y="757.0234">1</text><line style="stroke:#000000;stroke-width:1.0;" x1="609" x2="609" y1="741.4883" y2="761.9766"/><line style="stroke:#000000;stroke-width:1.0;" x1="505" x2="650" y1="761.9766" y2="761.9766"/><text fill="#000000" font-family="sans-serif" font-size="14" font-weight="bold" lengthAdjust="spacing" textLength="94" x="510" y="777.5117">ratio_percent</text><text fill="#000000" font-family="sans-serif" font-size="14" lengthAdjust="spacing" textLength="31" x="614" y="777.5117">6.25</text><line style="stroke:#000000;stroke-width:1.0;" x1="609" x2="609" y1="761.9766" y2="782.4648"/><rect fill="none" height="61.4648" rx="5" ry="5" style="stroke:#000000;stroke-width:1.5;" width="145" x="505" y="721"/><path d="M239,315.5 L252,315.5 C272.8273,315.5 269.8137,295.6507 288,285.5 C292.038,283.2462 296.2733,281.1247 300.6133,279.1338 " fill="none" style="stroke:#000000;stroke-width:1.0;stroke-dasharray:3.0,3.0;"/><path d="M301.8219,281.8909 L302.6812,278.2274 L299.4048,276.3766 L307.5062,276.1124 L301.8219,281.8909 " fill="#000000" style="stroke:#000000;stroke-width:1.0;"/><ellipse cx="239" cy="315.5" fill="#000000" rx="3" ry="3" style="stroke:#000000;stroke-width:1.0;"/><path d="M378.5,305.5 L378.5,292.5 C378.5,282.4144 461.5351,292.2819 469,285.5 C537.7926,223.002 450.7179,154.9445 505,79.5 C505.6746,78.5624 506.3789,77.6451 507.1103,76.7476 " fill="none" style="stroke:#000000;stroke-width:1.0;stroke-dasharray:3.0,3.0;"/><path d="M509.3656,78.8253 L508.6686,75.0562 L504.8551,74.6699 L512.3046,71.1095 L509.3656,78.8253 " fill="#000000" style="stroke:#000000;stroke-width:1.0;"/><ellipse cx="378.5" cy="305.5" fill="#000000" rx="3" ry="3" style="stroke:#000000;stroke-width:1.0;"/><path d="M378.5,324.5 L391.5,324.5 C430.0599,324.5 444.4435,315.2295 469,285.5 C506.3625,240.267 468.3247,204.2919 505,158.5 C505.8248,157.4702 506.6844,156.4637 507.5753,155.4804 " fill="none" style="stroke:#000000;stroke-width:1.0;stroke-dasharray:3.0,3.0;"/><path d="M509.7282,157.6478 L509.2008,153.8657 L505.4224,153.313 L512.9938,150.0982 L509.7282,157.6478 " fill="#000000" style="stroke:#000000;stroke-width:1.0;"/><ellipse cx="378.5" cy="324.5" fill="#000000" rx="3" ry="3" style="stroke:#000000;stroke-width:1.0;"/><path d="M378.5,344.5 L391.5,344.5 C434.79,344.5 438.4995,316.2205 469,285.5 C487.7883,266.5762 484.8094,254.9198 505,237.5 C506.4598,236.2405 507.967,235.005 509.5125,233.7945 " fill="none" style="stroke:#000000;stroke-width:1.0;stroke-dasharray:3.0,3.0;"/><path d="M511.3298,236.2472 L511.3521,232.4316 L507.6953,231.3418 L515.6443,229.2514 L511.3298,236.2472 " fill="#000000" style="stroke:#000000;stroke-width:1.0;"/><ellipse cx="378.5" cy="344.5" fill="#000000" rx="3" ry="3" style="stroke:#000000;stroke-width:1.0;"/><path d="M378.5,365.5 L391.5,365.5 C404.6494,365.5 464.271,336.2627 512.4224,311.4931 " fill="none" style="stroke:#000000;stroke-width:1.0;stroke-dasharray:3.0,3.0;"/><path d="M513.8072,314.178 L514.4361,310.4545 L511.0376,308.8082 L519.1346,308.0312 L513.8072,314.178 " fill="#000000" style="stroke:#000000;stroke-width:1.0;"/><ellipse cx="378.5" cy="365.5" fill="#000000" rx="3" ry="3" style="stroke:#000000;stroke-width:1.0;"/><path d="M378.5,385.5 L391.5,385.5 C426.5051,385.5 464.7848,380.3967 497.4317,374.4717 " fill="none" style="stroke:#000000;stroke-width:1.0;stroke-dasharray:3.0,3.0;"/><path d="M498.0071,377.5672 L499.7533,374.0401 L496.8562,371.3763 L505.1703,373.0331 L498.0071,377.5672 " fill="#000000" style="stroke:#000000;stroke-width:1.0;"/><ellipse cx="378.5" cy="385.5" fill="#000000" rx="3" ry="3" style="stroke:#000000;stroke-width:1.0;"/><path d="M378.5,406.5 L391.5,406.5 C426.5051,406.5 464.7848,411.6033 497.4317,417.5283 " fill="none" style="stroke:#000000;stroke-width:1.0;stroke-dasharray:3.0,3.0;"/><path d="M496.8562,420.6237 L499.7533,417.9599 L498.0071,414.4328 L505.1703,418.9669 L496.8562,420.6237 " fill="#000000" style="stroke:#000000;stroke-width:1.0;"/><ellipse cx="378.5" cy="406.5" fill="#000000" rx="3" ry="3" style="stroke:#000000;stroke-width:1.0;"/><path d="M378.5,427.5 L391.5,427.5 C404.5371,427.5 463.4779,456.0321 511.4711,480.4171 " fill="none" style="stroke:#000000;stroke-width:1.0;stroke-dasharray:3.0,3.0;"/><path d="M510.1072,483.0945 L513.4792,481.4401 L512.8351,477.7398 L518.1646,483.8271 L510.1072,483.0945 " fill="#000000" style="stroke:#000000;stroke-width:1.0;"/><ellipse cx="378.5" cy="427.5" fill="#000000" rx="3" ry="3" style="stroke:#000000;stroke-width:1.0;"/><path d="M378.5,447.5 L391.5,447.5 C460.8266,447.5 448.8264,513.8712 505,554.5 C506.8358,555.8278 508.7221,557.1414 510.6455,558.4375 " fill="none" style="stroke:#000000;stroke-width:1.0;stroke-dasharray:3.0,3.0;"/><path d="M508.9118,561.1026 L512.6443,559.7377 L512.3791,555.7724 L517.3083,562.7716 L508.9118,561.1026 " fill="#000000" style="stroke:#000000;stroke-width:1.0;"/><ellipse cx="378.5" cy="447.5" fill="#000000" rx="3" ry="3" style="stroke:#000000;stroke-width:1.0;"/><path d="M378.5,468.5 L391.5,468.5 C480.508,468.5 438.8124,573.9884 505,633.5 C506.4337,634.7891 507.9176,636.0511 509.4423,637.2852 " fill="none" style="stroke:#000000;stroke-width:1.0;stroke-dasharray:3.0,3.0;"/><path d="M507.5942,639.7107 L511.2614,638.6713 L511.2905,634.8597 L515.506,641.9055 L507.5942,639.7107 " fill="#000000" style="stroke:#000000;stroke-width:1.0;"/><ellipse cx="378.5" cy="468.5" fill="#000000" rx="3" ry="3" style="stroke:#000000;stroke-width:1.0;"/><path d="M378.5,487.5 L378.5,500.5 C378.5,610.2213 425.8198,636.5444 505,712.5 C506.2503,713.6994 507.5448,714.873 508.8763,716.0205 " fill="none" style="stroke:#000000;stroke-width:1.0;stroke-dasharray:3.0,3.0;"/><path d="M506.9309,718.4421 L510.6925,717.4795 L510.8217,713.5988 L514.9304,720.884 L506.9309,718.4421 " fill="#000000" style="stroke:#000000;stroke-width:1.0;"/><ellipse cx="378.5" cy="487.5" fill="#000000" rx="3" ry="3" style="stroke:#000000;stroke-width:1.0;"/><path d="M239,336.5 L252,336.5 C294.1629,336.5 337.1866,364.4055 360.2874,382.1547 " fill="none" style="stroke:#000000;stroke-width:1.0;stroke-dasharray:3.0,3.0;"/><path d="M358.4053,384.5427 L362.0784,383.5663 L362.1695,379.7667 L366.2574,386.86 L358.4053,384.5427 " fill="#000000" style="stroke:#000000;stroke-width:1.0;"/><ellipse cx="239" cy="336.5" fill="#000000" rx="3" ry="3" style="stroke:#000000;stroke-width:1.0;"/><!--MD5=[eaa2ab1d45ab43a96758ee33ed87a3f8]
@startjson
{
    "field1": "SpecialOfferID",
    "combination": "SpecialOfferID",
    "null_distribution": {
        "total_null_rows": 0,
        "total_not_null_rows": 16
    },
    "data_distribution": [
        {
            "field_value": "4",
            "row_count": 1,
            "ratio_percent": 6.25
        },
        {
            "field_value": "3",
            "row_count": 1,
            "ratio_percent": 6.25
        },
        {
            "field_value": "2",
            "row_count": 1,
            "ratio_percent": 6.25
        },
        {
            "field_value": "16",
            "row_count": 1,
            "ratio_percent": 6.25
        },
        {
            "field_value": "15",
            "row_count": 1,
            "ratio_percent": 6.25
        },
        {
            "field_value": "14",
            "row_count": 1,
            "ratio_percent": 6.25
        },
        {
            "field_value": "13",
            "row_count": 1,
            "ratio_percent": 6.25
        },
        {
            "field_value": "12",
            "row_count": 1,
            "ratio_percent": 6.25
        },
        {
            "field_value": "11",
            "row_count": 1,
            "ratio_percent": 6.25
        },
        {
            "field_value": "10",
            "row_count": 1,
            "ratio_percent": 6.25
        }
    ]
}
@endjson

PlantUML version 1.2022.5(Sat Apr 30 06:55:52 EDT 2022)
(GPL source distribution)
Java Runtime: OpenJDK Runtime Environment
JVM: OpenJDK 64-Bit Server VM
Default Encoding: UTF-8
Language: en
Country: CA
--></g></svg>