<?xml version="1.0" encoding="UTF-8" standalone="no"?><svg xmlns="http://www.w3.org/2000/svg" xmlns:xlink="http://www.w3.org/1999/xlink" contentStyleType="text/css" height="241px" preserveAspectRatio="none" style="width:796px;height:241px;background:#FFFFFF;" version="1.1" viewBox="0 0 796 241" width="796px" zoomAndPan="magnify"><defs/><g><rect fill="#F1F1F1" height="81.9531" rx="5" ry="5" style="stroke:#F1F1F1;stroke-width:1.5;" width="249" x="10" y="24.5"/><text fill="#000000" font-family="sans-serif" font-size="14" font-weight="bold" lengthAdjust="spacing" textLength="42" x="15" y="40.0352">field1</text><text fill="#000000" font-family="sans-serif" font-size="14" lengthAdjust="spacing" textLength="105" x="149" y="40.0352">CommissionPct</text><line style="stroke:#000000;stroke-width:1.0;" x1="144" x2="144" y1="24.5" y2="44.9883"/><line style="stroke:#000000;stroke-width:1.0;" x1="10" x2="259" y1="44.9883" y2="44.9883"/><text fill="#000000" font-family="sans-serif" font-size="14" font-weight="bold" lengthAdjust="spacing" textLength="90" x="15" y="60.5234">combination</text><text fill="#000000" font-family="sans-serif" font-size="14" lengthAdjust="spacing" textLength="105" x="149" y="60.5234">CommissionPct</text><line style="stroke:#000000;stroke-width:1.0;" x1="144" x2="144" y1="44.9883" y2="65.4766"/><line style="stroke:#000000;stroke-width:1.0;" x1="10" x2="259" y1="65.4766" y2="65.4766"/><text fill="#000000" font-family="sans-serif" font-size="14" font-weight="bold" lengthAdjust="spacing" textLength="121" x="15" y="81.0117">null_distribution</text><text fill="#000000" font-family="sans-serif" font-size="14" lengthAdjust="spacing" textLength="12" x="149" y="81.0117">   </text><line style="stroke:#000000;stroke-width:1.0;" x1="144" x2="144" y1="65.4766" y2="85.9648"/><line style="stroke:#000000;stroke-width:1.0;" x1="10" x2="259" y1="85.9648" y2="85.9648"/><text fill="#000000" font-family="sans-serif" font-size="14" font-weight="bold" lengthAdjust="spacing" textLength="124" x="15" y="101.5">data_distribution</text><text fill="#000000" font-family="sans-serif" font-size="14" lengthAdjust="spacing" textLength="12" x="149" y="101.5">   </text><line style="stroke:#000000;stroke-width:1.0;" x1="144" x2="144" y1="85.9648" y2="106.4531"/><rect fill="none" height="81.9531" rx="5" ry="5" style="stroke:#000000;stroke-width:1.5;" width="249" x="10" y="24.5"/><rect fill="#F1F1F1" height="40.9766" rx="5" ry="5" style="stroke:#F1F1F1;stroke-width:1.5;" width="180" x="296" y="31"/><text fill="#000000" font-family="sans-serif" font-size="14" font-weight="bold" lengthAdjust="spacing" textLength="111" x="301" y="46.5352">total_null_rows</text><text fill="#000000" font-family="sans-serif" font-size="14" lengthAdjust="spacing" textLength="9" x="453" y="46.5352">0</text><line style="stroke:#000000;stroke-width:1.0;" x1="448" x2="448" y1="31" y2="51.4883"/><line style="stroke:#000000;stroke-width:1.0;" x1="296" x2="476" y1="51.4883" y2="51.4883"/><text fill="#000000" font-family="sans-serif" font-size="14" font-weight="bold" lengthAdjust="spacing" textLength="142" x="301" y="67.0234">total_not_null_rows</text><text fill="#000000" font-family="sans-serif" font-size="14" lengthAdjust="spacing" textLength="18" x="453" y="67.0234">17</text><line style="stroke:#000000;stroke-width:1.0;" x1="448" x2="448" y1="51.4883" y2="71.9766"/><rect fill="none" height="40.9766" rx="5" ry="5" style="stroke:#000000;stroke-width:1.5;" width="180" x="296" y="31"/><rect fill="#F1F1F1" height="61.4648" rx="5" ry="5" style="stroke:#F1F1F1;stroke-width:1.5;" width="22" x="374" y="90"/><text fill="#000000" font-family="sans-serif" font-size="14" lengthAdjust="spacing" textLength="12" x="379" y="105.5352">   </text><line style="stroke:#000000;stroke-width:1.0;" x1="374" x2="396" y1="110.4883" y2="110.4883"/><text fill="#000000" font-family="sans-serif" font-size="14" lengthAdjust="spacing" textLength="12" x="379" y="126.0234">   </text><line style="stroke:#000000;stroke-width:1.0;" x1="374" x2="396" y1="130.9766" y2="130.9766"/><text fill="#000000" font-family="sans-serif" font-size="14" lengthAdjust="spacing" textLength="12" x="379" y="146.5117">   </text><rect fill="none" height="61.4648" rx="5" ry="5" style="stroke:#000000;stroke-width:1.5;" width="22" x="374" y="90"/><rect fill="#F1F1F1" height="61.4648" rx="5" ry="5" style="stroke:#F1F1F1;stroke-width:1.5;" width="262" x="517.5" y="10"/><text fill="#000000" font-family="sans-serif" font-size="14" font-weight="bold" lengthAdjust="spacing" textLength="78" x="522.5" y="25.5352">field_value</text><text fill="#000000" font-family="sans-serif" font-size="14" lengthAdjust="spacing" textLength="31" x="626.5" y="25.5352">0.02</text><line style="stroke:#000000;stroke-width:1.0;" x1="621.5" x2="621.5" y1="10" y2="30.4883"/><line style="stroke:#000000;stroke-width:1.0;" x1="517.5" x2="779.5" y1="30.4883" y2="30.4883"/><text fill="#000000" font-family="sans-serif" font-size="14" font-weight="bold" lengthAdjust="spacing" textLength="74" x="522.5" y="46.0234">row_count</text><text fill="#000000" font-family="sans-serif" font-size="14" lengthAdjust="spacing" textLength="9" x="626.5" y="46.0234">8</text><line style="stroke:#000000;stroke-width:1.0;" x1="621.5" x2="621.5" y1="30.4883" y2="50.9766"/><line style="stroke:#000000;stroke-width:1.0;" x1="517.5" x2="779.5" y1="50.9766" y2="50.9766"/><text fill="#000000" font-family="sans-serif" font-size="14" font-weight="bold" lengthAdjust="spacing" textLength="94" x="522.5" y="66.5117">ratio_percent</text><text fill="#000000" font-family="sans-serif" font-size="14" lengthAdjust="spacing" textLength="148" x="626.5" y="66.5117">47.05882352941177</text><line style="stroke:#000000;stroke-width:1.0;" x1="621.5" x2="621.5" y1="50.9766" y2="71.4648"/><rect fill="none" height="61.4648" rx="5" ry="5" style="stroke:#000000;stroke-width:1.5;" width="262" x="517.5" y="10"/><rect fill="#F1F1F1" height="61.4648" rx="5" ry="5" style="stroke:#F1F1F1;stroke-width:1.5;" width="271" x="513" y="89"/><text fill="#000000" font-family="sans-serif" font-size="14" font-weight="bold" lengthAdjust="spacing" textLength="78" x="518" y="104.5352">field_value</text><text fill="#000000" font-family="sans-serif" font-size="14" lengthAdjust="spacing" textLength="31" x="622" y="104.5352">0.01</text><line style="stroke:#000000;stroke-width:1.0;" x1="617" x2="617" y1="89" y2="109.4883"/><line style="stroke:#000000;stroke-width:1.0;" x1="513" x2="784" y1="109.4883" y2="109.4883"/><text fill="#000000" font-family="sans-serif" font-size="14" font-weight="bold" lengthAdjust="spacing" textLength="74" x="518" y="125.0234">row_count</text><text fill="#000000" font-family="sans-serif" font-size="14" lengthAdjust="spacing" textLength="9" x="622" y="125.0234">6</text><line style="stroke:#000000;stroke-width:1.0;" x1="617" x2="617" y1="109.4883" y2="129.9766"/><line style="stroke:#000000;stroke-width:1.0;" x1="513" x2="784" y1="129.9766" y2="129.9766"/><text fill="#000000" font-family="sans-serif" font-size="14" font-weight="bold" lengthAdjust="spacing" textLength="94" x="518" y="145.5117">ratio_percent</text><text fill="#000000" font-family="sans-serif" font-size="14" lengthAdjust="spacing" textLength="157" x="622" y="145.5117">35.294117647058826</text><line style="stroke:#000000;stroke-width:1.0;" x1="617" x2="617" y1="129.9766" y2="150.4648"/><rect fill="none" height="61.4648" rx="5" ry="5" style="stroke:#000000;stroke-width:1.5;" width="271" x="513" y="89"/><rect fill="#F1F1F1" height="61.4648" rx="5" ry="5" style="stroke:#F1F1F1;stroke-width:1.5;" width="271" x="513" y="168"/><text fill="#000000" font-family="sans-serif" font-size="14" font-weight="bold" lengthAdjust="spacing" textLength="78" x="518" y="183.5352">field_value</text><text fill="#000000" font-family="sans-serif" font-size="14" lengthAdjust="spacing" textLength="31" x="622" y="183.5352">0.00</text><line style="stroke:#000000;stroke-width:1.0;" x1="617" x2="617" y1="168" y2="188.4883"/><line style="stroke:#000000;stroke-width:1.0;" x1="513" x2="784" y1="188.4883" y2="188.4883"/><text fill="#000000" font-family="sans-serif" font-size="14" font-weight="bold" lengthAdjust="spacing" textLength="74" x="518" y="204.0234">row_count</text><text fill="#000000" font-family="sans-serif" font-size="14" lengthAdjust="spacing" textLength="9" x="622" y="204.0234">3</text><line style="stroke:#000000;stroke-width:1.0;" x1="617" x2="617" y1="188.4883" y2="208.9766"/><line style="stroke:#000000;stroke-width:1.0;" x1="513" x2="784" y1="208.9766" y2="208.9766"/><text fill="#000000" font-family="sans-serif" font-size="14" font-weight="bold" lengthAdjust="spacing" textLength="94" x="518" y="224.5117">ratio_percent</text><text fill="#000000" font-family="sans-serif" font-size="14" lengthAdjust="spacing" textLength="157" x="622" y="224.5117">17.647058823529413</text><line style="stroke:#000000;stroke-width:1.0;" x1="617" x2="617" y1="208.9766" y2="229.4648"/><rect fill="none" height="61.4648" rx="5" ry="5" style="stroke:#000000;stroke-width:1.5;" width="271" x="513" y="168"/><path d="M247,75.5 L260,75.5 C271.1912,75.5 282.8454,74.5679 294.3455,73.0712 " fill="none" style="stroke:#000000;stroke-width:1.0;stroke-dasharray:3.0,3.0;"/><path d="M294.7699,76.0826 L296.604,72.7529 L293.9211,70.0598 L301.874,72.0102 L294.7699,76.0826 " fill="#000000" style="stroke:#000000;stroke-width:1.0;"/><ellipse cx="247" cy="75.5" fill="#000000" rx="3" ry="3" style="stroke:#000000;stroke-width:1.0;"/><path d="M386.5,99.5 L399.5,99.5 C425.9686,99.5 481.7937,86.6687 533.8383,72.9738 " fill="none" style="stroke:#000000;stroke-width:1.0;stroke-dasharray:3.0,3.0;"/><path d="M534.6131,75.8999 L536.0329,72.3927 L533.0636,70.0477 L541.1535,71.0369 L534.6131,75.8999 " fill="#000000" style="stroke:#000000;stroke-width:1.0;"/><ellipse cx="386.5" cy="99.5" fill="#000000" rx="3" ry="3" style="stroke:#000000;stroke-width:1.0;"/><path d="M386.5,119.5 L399.5,119.5 C433.7931,119.5 470.7483,119.5 505.4061,119.5 " fill="none" style="stroke:#000000;stroke-width:1.0;stroke-dasharray:3.0,3.0;"/><path d="M505.4061,122.6288 L507.7526,119.5 L505.4061,116.3712 L513.228,119.5 L505.4061,122.6288 " fill="#000000" style="stroke:#000000;stroke-width:1.0;"/><ellipse cx="386.5" cy="119.5" fill="#000000" rx="3" ry="3" style="stroke:#000000;stroke-width:1.0;"/><path d="M386.5,140.5 L399.5,140.5 C425.5741,140.5 480.2088,152.7626 531.6266,166.0109 " fill="none" style="stroke:#000000;stroke-width:1.0;stroke-dasharray:3.0,3.0;"/><path d="M530.8424,169.0345 L533.8944,166.599 L532.4108,162.9872 L539.1857,167.9713 L530.8424,169.0345 " fill="#000000" style="stroke:#000000;stroke-width:1.0;"/><ellipse cx="386.5" cy="140.5" fill="#000000" rx="3" ry="3" style="stroke:#000000;stroke-width:1.0;"/><path d="M247,96.5 L260,96.5 C298.465,96.5 342.4001,107.5109 366.7479,114.6165 " fill="none" style="stroke:#000000;stroke-width:1.0;stroke-dasharray:3.0,3.0;"/><path d="M365.8525,117.6044 L368.9889,115.288 L367.6433,111.6285 L374.2178,116.8549 L365.8525,117.6044 " fill="#000000" style="stroke:#000000;stroke-width:1.0;"/><ellipse cx="247" cy="96.5" fill="#000000" rx="3" ry="3" style="stroke:#000000;stroke-width:1.0;"/><!--MD5=[a12c6cf840fee9b2bfbeb45d52b57fb6]
@startjson
{
    "field1": "CommissionPct",
    "combination": "CommissionPct",
    "null_distribution": {
        "total_null_rows": 0,
        "total_not_null_rows": 17
    },
    "data_distribution": [
        {
            "field_value": "0.02",
            "row_count": 8,
            "ratio_percent": 47.05882352941177
        },
        {
            "field_value": "0.01",
            "row_count": 6,
            "ratio_percent": 35.294117647058826
        },
        {
            "field_value": "0.00",
            "row_count": 3,
            "ratio_percent": 17.647058823529413
        }
    ]
}
@endjson

PlantUML version 1.2022.5(Sat Apr 30 06:55:52 EDT 2022)
(GPL source distribution)
Java Runtime: OpenJDK Runtime Environment
JVM: OpenJDK 64-Bit Server VM
Default Encoding: UTF-8
Language: en
Country: CA
--></g></svg>