<?xml version="1.0" encoding="UTF-8" standalone="no"?><svg xmlns="http://www.w3.org/2000/svg" xmlns:xlink="http://www.w3.org/1999/xlink" contentStyleType="text/css" height="182px" preserveAspectRatio="none" style="width:791px;height:182px;background:#FFFFFF;" version="1.1" viewBox="0 0 791 182" width="791px" zoomAndPan="magnify"><defs/><g><rect fill="#F1F1F1" height="81.9531" rx="5" ry="5" style="stroke:#F1F1F1;stroke-width:1.5;" width="253" x="10" y="10"/><text fill="#000000" font-family="sans-serif" font-size="14" font-weight="bold" lengthAdjust="spacing" textLength="42" x="15" y="25.5352">field1</text><text fill="#000000" font-family="sans-serif" font-size="14" lengthAdjust="spacing" textLength="109" x="149" y="25.5352">ShoppingCartID</text><line style="stroke:#000000;stroke-width:1.0;" x1="144" x2="144" y1="10" y2="30.4883"/><line style="stroke:#000000;stroke-width:1.0;" x1="10" x2="263" y1="30.4883" y2="30.4883"/><text fill="#000000" font-family="sans-serif" font-size="14" font-weight="bold" lengthAdjust="spacing" textLength="90" x="15" y="46.0234">combination</text><text fill="#000000" font-family="sans-serif" font-size="14" lengthAdjust="spacing" textLength="109" x="149" y="46.0234">ShoppingCartID</text><line style="stroke:#000000;stroke-width:1.0;" x1="144" x2="144" y1="30.4883" y2="50.9766"/><line style="stroke:#000000;stroke-width:1.0;" x1="10" x2="263" y1="50.9766" y2="50.9766"/><text fill="#000000" font-family="sans-serif" font-size="14" font-weight="bold" lengthAdjust="spacing" textLength="121" x="15" y="66.5117">null_distribution</text><text fill="#000000" font-family="sans-serif" font-size="14" lengthAdjust="spacing" textLength="12" x="149" y="66.5117">   </text><line style="stroke:#000000;stroke-width:1.0;" x1="144" x2="144" y1="50.9766" y2="71.4648"/><line style="stroke:#000000;stroke-width:1.0;" x1="10" x2="263" y1="71.4648" y2="71.4648"/><text fill="#000000" font-family="sans-serif" font-size="14" font-weight="bold" lengthAdjust="spacing" textLength="124" x="15" y="87">data_distribution</text><text fill="#000000" font-family="sans-serif" font-size="14" lengthAdjust="spacing" textLength="12" x="149" y="87">   </text><line style="stroke:#000000;stroke-width:1.0;" x1="144" x2="144" y1="71.4648" y2="91.9531"/><rect fill="none" height="81.9531" rx="5" ry="5" style="stroke:#000000;stroke-width:1.5;" width="253" x="10" y="10"/><rect fill="#F1F1F1" height="40.9766" rx="5" ry="5" style="stroke:#F1F1F1;stroke-width:1.5;" width="171" x="300" y="21.5"/><text fill="#000000" font-family="sans-serif" font-size="14" font-weight="bold" lengthAdjust="spacing" textLength="111" x="305" y="37.0352">total_null_rows</text><text fill="#000000" font-family="sans-serif" font-size="14" lengthAdjust="spacing" textLength="9" x="457" y="37.0352">0</text><line style="stroke:#000000;stroke-width:1.0;" x1="452" x2="452" y1="21.5" y2="41.9883"/><line style="stroke:#000000;stroke-width:1.0;" x1="300" x2="471" y1="41.9883" y2="41.9883"/><text fill="#000000" font-family="sans-serif" font-size="14" font-weight="bold" lengthAdjust="spacing" textLength="142" x="305" y="57.5234">total_not_null_rows</text><text fill="#000000" font-family="sans-serif" font-size="14" lengthAdjust="spacing" textLength="9" x="457" y="57.5234">3</text><line style="stroke:#000000;stroke-width:1.0;" x1="452" x2="452" y1="41.9883" y2="62.4766"/><rect fill="none" height="40.9766" rx="5" ry="5" style="stroke:#000000;stroke-width:1.5;" width="171" x="300" y="21.5"/><rect fill="#F1F1F1" height="40.9766" rx="5" ry="5" style="stroke:#F1F1F1;stroke-width:1.5;" width="22" x="373.5" y="80.5"/><text fill="#000000" font-family="sans-serif" font-size="14" lengthAdjust="spacing" textLength="12" x="378.5" y="96.0352">   </text><line style="stroke:#000000;stroke-width:1.0;" x1="373.5" x2="395.5" y1="100.9883" y2="100.9883"/><text fill="#000000" font-family="sans-serif" font-size="14" lengthAdjust="spacing" textLength="12" x="378.5" y="116.5234">   </text><rect fill="none" height="40.9766" rx="5" ry="5" style="stroke:#000000;stroke-width:1.5;" width="22" x="373.5" y="80.5"/><rect fill="#F1F1F1" height="61.4648" rx="5" ry="5" style="stroke:#F1F1F1;stroke-width:1.5;" width="262" x="512.5" y="30.5"/><text fill="#000000" font-family="sans-serif" font-size="14" font-weight="bold" lengthAdjust="spacing" textLength="78" x="517.5" y="46.0352">field_value</text><text fill="#000000" font-family="sans-serif" font-size="14" lengthAdjust="spacing" textLength="45" x="621.5" y="46.0352">20621</text><line style="stroke:#000000;stroke-width:1.0;" x1="616.5" x2="616.5" y1="30.5" y2="50.9883"/><line style="stroke:#000000;stroke-width:1.0;" x1="512.5" x2="774.5" y1="50.9883" y2="50.9883"/><text fill="#000000" font-family="sans-serif" font-size="14" font-weight="bold" lengthAdjust="spacing" textLength="74" x="517.5" y="66.5234">row_count</text><text fill="#000000" font-family="sans-serif" font-size="14" lengthAdjust="spacing" textLength="9" x="621.5" y="66.5234">2</text><line style="stroke:#000000;stroke-width:1.0;" x1="616.5" x2="616.5" y1="50.9883" y2="71.4766"/><line style="stroke:#000000;stroke-width:1.0;" x1="512.5" x2="774.5" y1="71.4766" y2="71.4766"/><text fill="#000000" font-family="sans-serif" font-size="14" font-weight="bold" lengthAdjust="spacing" textLength="94" x="517.5" y="87.0117">ratio_percent</text><text fill="#000000" font-family="sans-serif" font-size="14" lengthAdjust="spacing" textLength="148" x="621.5" y="87.0117">66.66666666666667</text><line style="stroke:#000000;stroke-width:1.0;" x1="616.5" x2="616.5" y1="71.4766" y2="91.9648"/><rect fill="none" height="61.4648" rx="5" ry="5" style="stroke:#000000;stroke-width:1.5;" width="262" x="512.5" y="30.5"/><rect fill="#F1F1F1" height="61.4648" rx="5" ry="5" style="stroke:#F1F1F1;stroke-width:1.5;" width="271" x="508" y="109.5"/><text fill="#000000" font-family="sans-serif" font-size="14" font-weight="bold" lengthAdjust="spacing" textLength="78" x="513" y="125.0352">field_value</text><text fill="#000000" font-family="sans-serif" font-size="14" lengthAdjust="spacing" textLength="45" x="617" y="125.0352">14951</text><line style="stroke:#000000;stroke-width:1.0;" x1="612" x2="612" y1="109.5" y2="129.9883"/><line style="stroke:#000000;stroke-width:1.0;" x1="508" x2="779" y1="129.9883" y2="129.9883"/><text fill="#000000" font-family="sans-serif" font-size="14" font-weight="bold" lengthAdjust="spacing" textLength="74" x="513" y="145.5234">row_count</text><text fill="#000000" font-family="sans-serif" font-size="14" lengthAdjust="spacing" textLength="9" x="617" y="145.5234">1</text><line style="stroke:#000000;stroke-width:1.0;" x1="612" x2="612" y1="129.9883" y2="150.4766"/><line style="stroke:#000000;stroke-width:1.0;" x1="508" x2="779" y1="150.4766" y2="150.4766"/><text fill="#000000" font-family="sans-serif" font-size="14" font-weight="bold" lengthAdjust="spacing" textLength="94" x="513" y="166.0117">ratio_percent</text><text fill="#000000" font-family="sans-serif" font-size="14" lengthAdjust="spacing" textLength="157" x="617" y="166.0117">33.333333333333336</text><line style="stroke:#000000;stroke-width:1.0;" x1="612" x2="612" y1="150.4766" y2="170.9648"/><rect fill="none" height="61.4648" rx="5" ry="5" style="stroke:#000000;stroke-width:1.5;" width="271" x="508" y="109.5"/><path d="M251,61 L264,61 C273.3123,61 282.9794,60.444 292.6075,59.5222 " fill="none" style="stroke:#000000;stroke-width:1.0;stroke-dasharray:3.0,3.0;"/><path d="M292.9332,62.6045 L294.9192,59.278 L292.2819,56.4399 L300.3132,58.7082 L292.9332,62.6045 " fill="#000000" style="stroke:#000000;stroke-width:1.0;"/><ellipse cx="251" cy="61" fill="#000000" rx="3" ry="3" style="stroke:#000000;stroke-width:1.0;"/><path d="M386,90 L399,90 C433.504,90 470.562,87.1051 505.1157,83.1446 " fill="none" style="stroke:#000000;stroke-width:1.0;stroke-dasharray:3.0,3.0;"/><path d="M505.4821,86.2625 L507.4541,82.8698 L504.7493,80.0267 L512.9105,82.2285 L505.4821,86.2625 " fill="#000000" style="stroke:#000000;stroke-width:1.0;"/><ellipse cx="386" cy="90" fill="#000000" rx="3" ry="3" style="stroke:#000000;stroke-width:1.0;"/><path d="M386,111 L399,111 C432.1159,111 467.5844,113.6666 500.9336,117.3827 " fill="none" style="stroke:#000000;stroke-width:1.0;stroke-dasharray:3.0,3.0;"/><path d="M500.5894,120.394 L503.1921,117.6408 L501.2778,114.3713 L508.4619,118.2431 L500.5894,120.394 " fill="#000000" style="stroke:#000000;stroke-width:1.0;"/><ellipse cx="386" cy="111" fill="#000000" rx="3" ry="3" style="stroke:#000000;stroke-width:1.0;"/><path d="M251,82 L264,82 C300.5215,82 342.5012,90.552 366.1769,96.1809 " fill="none" style="stroke:#000000;stroke-width:1.0;stroke-dasharray:3.0,3.0;"/><path d="M365.4367,99.2098 L368.4485,96.736 L366.917,93.1521 L373.7489,98.0313 L365.4367,99.2098 " fill="#000000" style="stroke:#000000;stroke-width:1.0;"/><ellipse cx="251" cy="82" fill="#000000" rx="3" ry="3" style="stroke:#000000;stroke-width:1.0;"/><!--MD5=[865f143f3b24a49d98142e139ad9c06f]
@startjson
{
    "field1": "ShoppingCartID",
    "combination": "ShoppingCartID",
    "null_distribution": {
        "total_null_rows": 0,
        "total_not_null_rows": 3
    },
    "data_distribution": [
        {
            "field_value": "20621",
            "row_count": 2,
            "ratio_percent": 66.66666666666667
        },
        {
            "field_value": "14951",
            "row_count": 1,
            "ratio_percent": 33.333333333333336
        }
    ]
}
@endjson

PlantUML version 1.2022.5(Sat Apr 30 06:55:52 EDT 2022)
(GPL source distribution)
Java Runtime: OpenJDK Runtime Environment
JVM: OpenJDK 64-Bit Server VM
Default Encoding: UTF-8
Language: en
Country: CA
--></g></svg>