<?xml version="1.0" encoding="UTF-8" standalone="no"?><svg xmlns="http://www.w3.org/2000/svg" xmlns:xlink="http://www.w3.org/1999/xlink" contentStyleType="text/css" height="794px" preserveAspectRatio="none" style="width:817px;height:794px;background:#FFFFFF;" version="1.1" viewBox="0 0 817 794" width="817px" zoomAndPan="magnify"><defs/><g><rect fill="#F1F1F1" height="81.9531" rx="5" ry="5" style="stroke:#F1F1F1;stroke-width:1.5;" width="225" x="10" y="264.5"/><text fill="#000000" font-family="sans-serif" font-size="14" font-weight="bold" lengthAdjust="spacing" textLength="42" x="15" y="280.0352">field1</text><text fill="#000000" font-family="sans-serif" font-size="14" lengthAdjust="spacing" textLength="81" x="149" y="280.0352">CustomerID</text><line style="stroke:#000000;stroke-width:1.0;" x1="144" x2="144" y1="264.5" y2="284.9883"/><line style="stroke:#000000;stroke-width:1.0;" x1="10" x2="235" y1="284.9883" y2="284.9883"/><text fill="#000000" font-family="sans-serif" font-size="14" font-weight="bold" lengthAdjust="spacing" textLength="90" x="15" y="300.5234">combination</text><text fill="#000000" font-family="sans-serif" font-size="14" lengthAdjust="spacing" textLength="81" x="149" y="300.5234">CustomerID</text><line style="stroke:#000000;stroke-width:1.0;" x1="144" x2="144" y1="284.9883" y2="305.4766"/><line style="stroke:#000000;stroke-width:1.0;" x1="10" x2="235" y1="305.4766" y2="305.4766"/><text fill="#000000" font-family="sans-serif" font-size="14" font-weight="bold" lengthAdjust="spacing" textLength="121" x="15" y="321.0117">null_distribution</text><text fill="#000000" font-family="sans-serif" font-size="14" lengthAdjust="spacing" textLength="12" x="149" y="321.0117">   </text><line style="stroke:#000000;stroke-width:1.0;" x1="144" x2="144" y1="305.4766" y2="325.9648"/><line style="stroke:#000000;stroke-width:1.0;" x1="10" x2="235" y1="325.9648" y2="325.9648"/><text fill="#000000" font-family="sans-serif" font-size="14" font-weight="bold" lengthAdjust="spacing" textLength="124" x="15" y="341.5">data_distribution</text><text fill="#000000" font-family="sans-serif" font-size="14" lengthAdjust="spacing" textLength="12" x="149" y="341.5">   </text><line style="stroke:#000000;stroke-width:1.0;" x1="144" x2="144" y1="325.9648" y2="346.4531"/><rect fill="none" height="81.9531" rx="5" ry="5" style="stroke:#000000;stroke-width:1.5;" width="225" x="10" y="264.5"/><rect fill="#F1F1F1" height="40.9766" rx="5" ry="5" style="stroke:#F1F1F1;stroke-width:1.5;" width="207" x="272" y="235"/><text fill="#000000" font-family="sans-serif" font-size="14" font-weight="bold" lengthAdjust="spacing" textLength="111" x="277" y="250.5352">total_null_rows</text><text fill="#000000" font-family="sans-serif" font-size="14" lengthAdjust="spacing" textLength="9" x="429" y="250.5352">0</text><line style="stroke:#000000;stroke-width:1.0;" x1="424" x2="424" y1="235" y2="255.4883"/><line style="stroke:#000000;stroke-width:1.0;" x1="272" x2="479" y1="255.4883" y2="255.4883"/><text fill="#000000" font-family="sans-serif" font-size="14" font-weight="bold" lengthAdjust="spacing" textLength="142" x="277" y="271.0234">total_not_null_rows</text><text fill="#000000" font-family="sans-serif" font-size="14" lengthAdjust="spacing" textLength="45" x="429" y="271.0234">19820</text><line style="stroke:#000000;stroke-width:1.0;" x1="424" x2="424" y1="255.4883" y2="275.9766"/><rect fill="none" height="40.9766" rx="5" ry="5" style="stroke:#000000;stroke-width:1.5;" width="207" x="272" y="235"/><rect fill="#F1F1F1" height="204.8828" rx="5" ry="5" style="stroke:#F1F1F1;stroke-width:1.5;" width="22" x="363.5" y="294"/><text fill="#000000" font-family="sans-serif" font-size="14" lengthAdjust="spacing" textLength="12" x="368.5" y="309.5352">   </text><line style="stroke:#000000;stroke-width:1.0;" x1="363.5" x2="385.5" y1="314.4883" y2="314.4883"/><text fill="#000000" font-family="sans-serif" font-size="14" lengthAdjust="spacing" textLength="12" x="368.5" y="330.0234">   </text><line style="stroke:#000000;stroke-width:1.0;" x1="363.5" x2="385.5" y1="334.9766" y2="334.9766"/><text fill="#000000" font-family="sans-serif" font-size="14" lengthAdjust="spacing" textLength="12" x="368.5" y="350.5117">   </text><line style="stroke:#000000;stroke-width:1.0;" x1="363.5" x2="385.5" y1="355.4648" y2="355.4648"/><text fill="#000000" font-family="sans-serif" font-size="14" lengthAdjust="spacing" textLength="12" x="368.5" y="371">   </text><line style="stroke:#000000;stroke-width:1.0;" x1="363.5" x2="385.5" y1="375.9531" y2="375.9531"/><text fill="#000000" font-family="sans-serif" font-size="14" lengthAdjust="spacing" textLength="12" x="368.5" y="391.4883">   </text><line style="stroke:#000000;stroke-width:1.0;" x1="363.5" x2="385.5" y1="396.4414" y2="396.4414"/><text fill="#000000" font-family="sans-serif" font-size="14" lengthAdjust="spacing" textLength="12" x="368.5" y="411.9766">   </text><line style="stroke:#000000;stroke-width:1.0;" x1="363.5" x2="385.5" y1="416.9297" y2="416.9297"/><text fill="#000000" font-family="sans-serif" font-size="14" lengthAdjust="spacing" textLength="12" x="368.5" y="432.4648">   </text><line style="stroke:#000000;stroke-width:1.0;" x1="363.5" x2="385.5" y1="437.418" y2="437.418"/><text fill="#000000" font-family="sans-serif" font-size="14" lengthAdjust="spacing" textLength="12" x="368.5" y="452.9531">   </text><line style="stroke:#000000;stroke-width:1.0;" x1="363.5" x2="385.5" y1="457.9063" y2="457.9063"/><text fill="#000000" font-family="sans-serif" font-size="14" lengthAdjust="spacing" textLength="12" x="368.5" y="473.4414">   </text><line style="stroke:#000000;stroke-width:1.0;" x1="363.5" x2="385.5" y1="478.3945" y2="478.3945"/><text fill="#000000" font-family="sans-serif" font-size="14" lengthAdjust="spacing" textLength="12" x="368.5" y="493.9297">   </text><rect fill="none" height="204.8828" rx="5" ry="5" style="stroke:#000000;stroke-width:1.5;" width="22" x="363.5" y="294"/><rect fill="#F1F1F1" height="61.4648" rx="5" ry="5" style="stroke:#F1F1F1;stroke-width:1.5;" width="289" x="516" y="10"/><text fill="#000000" font-family="sans-serif" font-size="14" font-weight="bold" lengthAdjust="spacing" textLength="78" x="521" y="25.5352">field_value</text><text fill="#000000" font-family="sans-serif" font-size="14" lengthAdjust="spacing" textLength="27" x="625" y="25.5352">108</text><line style="stroke:#000000;stroke-width:1.0;" x1="620" x2="620" y1="10" y2="30.4883"/><line style="stroke:#000000;stroke-width:1.0;" x1="516" x2="805" y1="30.4883" y2="30.4883"/><text fill="#000000" font-family="sans-serif" font-size="14" font-weight="bold" lengthAdjust="spacing" textLength="74" x="521" y="46.0234">row_count</text><text fill="#000000" font-family="sans-serif" font-size="14" lengthAdjust="spacing" textLength="9" x="625" y="46.0234">1</text><line style="stroke:#000000;stroke-width:1.0;" x1="620" x2="620" y1="30.4883" y2="50.9766"/><line style="stroke:#000000;stroke-width:1.0;" x1="516" x2="805" y1="50.9766" y2="50.9766"/><text fill="#000000" font-family="sans-serif" font-size="14" font-weight="bold" lengthAdjust="spacing" textLength="94" x="521" y="66.5117">ratio_percent</text><text fill="#000000" font-family="sans-serif" font-size="14" lengthAdjust="spacing" textLength="175" x="625" y="66.5117">0.005045408678102927</text><line style="stroke:#000000;stroke-width:1.0;" x1="620" x2="620" y1="50.9766" y2="71.4648"/><rect fill="none" height="61.4648" rx="5" ry="5" style="stroke:#000000;stroke-width:1.5;" width="289" x="516" y="10"/><rect fill="#F1F1F1" height="61.4648" rx="5" ry="5" style="stroke:#F1F1F1;stroke-width:1.5;" width="289" x="516" y="89"/><text fill="#000000" font-family="sans-serif" font-size="14" font-weight="bold" lengthAdjust="spacing" textLength="78" x="521" y="104.5352">field_value</text><text fill="#000000" font-family="sans-serif" font-size="14" lengthAdjust="spacing" textLength="27" x="625" y="104.5352">107</text><line style="stroke:#000000;stroke-width:1.0;" x1="620" x2="620" y1="89" y2="109.4883"/><line style="stroke:#000000;stroke-width:1.0;" x1="516" x2="805" y1="109.4883" y2="109.4883"/><text fill="#000000" font-family="sans-serif" font-size="14" font-weight="bold" lengthAdjust="spacing" textLength="74" x="521" y="125.0234">row_count</text><text fill="#000000" font-family="sans-serif" font-size="14" lengthAdjust="spacing" textLength="9" x="625" y="125.0234">1</text><line style="stroke:#000000;stroke-width:1.0;" x1="620" x2="620" y1="109.4883" y2="129.9766"/><line style="stroke:#000000;stroke-width:1.0;" x1="516" x2="805" y1="129.9766" y2="129.9766"/><text fill="#000000" font-family="sans-serif" font-size="14" font-weight="bold" lengthAdjust="spacing" textLength="94" x="521" y="145.5117">ratio_percent</text><text fill="#000000" font-family="sans-serif" font-size="14" lengthAdjust="spacing" textLength="175" x="625" y="145.5117">0.005045408678102927</text><line style="stroke:#000000;stroke-width:1.0;" x1="620" x2="620" y1="129.9766" y2="150.4648"/><rect fill="none" height="61.4648" rx="5" ry="5" style="stroke:#000000;stroke-width:1.5;" width="289" x="516" y="89"/><rect fill="#F1F1F1" height="61.4648" rx="5" ry="5" style="stroke:#F1F1F1;stroke-width:1.5;" width="289" x="516" y="168"/><text fill="#000000" font-family="sans-serif" font-size="14" font-weight="bold" lengthAdjust="spacing" textLength="78" x="521" y="183.5352">field_value</text><text fill="#000000" font-family="sans-serif" font-size="14" lengthAdjust="spacing" textLength="27" x="625" y="183.5352">106</text><line style="stroke:#000000;stroke-width:1.0;" x1="620" x2="620" y1="168" y2="188.4883"/><line style="stroke:#000000;stroke-width:1.0;" x1="516" x2="805" y1="188.4883" y2="188.4883"/><text fill="#000000" font-family="sans-serif" font-size="14" font-weight="bold" lengthAdjust="spacing" textLength="74" x="521" y="204.0234">row_count</text><text fill="#000000" font-family="sans-serif" font-size="14" lengthAdjust="spacing" textLength="9" x="625" y="204.0234">1</text><line style="stroke:#000000;stroke-width:1.0;" x1="620" x2="620" y1="188.4883" y2="208.9766"/><line style="stroke:#000000;stroke-width:1.0;" x1="516" x2="805" y1="208.9766" y2="208.9766"/><text fill="#000000" font-family="sans-serif" font-size="14" font-weight="bold" lengthAdjust="spacing" textLength="94" x="521" y="224.5117">ratio_percent</text><text fill="#000000" font-family="sans-serif" font-size="14" lengthAdjust="spacing" textLength="175" x="625" y="224.5117">0.005045408678102927</text><line style="stroke:#000000;stroke-width:1.0;" x1="620" x2="620" y1="208.9766" y2="229.4648"/><rect fill="none" height="61.4648" rx="5" ry="5" style="stroke:#000000;stroke-width:1.5;" width="289" x="516" y="168"/><rect fill="#F1F1F1" height="61.4648" rx="5" ry="5" style="stroke:#F1F1F1;stroke-width:1.5;" width="289" x="516" y="247"/><text fill="#000000" font-family="sans-serif" font-size="14" font-weight="bold" lengthAdjust="spacing" textLength="78" x="521" y="262.5352">field_value</text><text fill="#000000" font-family="sans-serif" font-size="14" lengthAdjust="spacing" textLength="27" x="625" y="262.5352">105</text><line style="stroke:#000000;stroke-width:1.0;" x1="620" x2="620" y1="247" y2="267.4883"/><line style="stroke:#000000;stroke-width:1.0;" x1="516" x2="805" y1="267.4883" y2="267.4883"/><text fill="#000000" font-family="sans-serif" font-size="14" font-weight="bold" lengthAdjust="spacing" textLength="74" x="521" y="283.0234">row_count</text><text fill="#000000" font-family="sans-serif" font-size="14" lengthAdjust="spacing" textLength="9" x="625" y="283.0234">1</text><line style="stroke:#000000;stroke-width:1.0;" x1="620" x2="620" y1="267.4883" y2="287.9766"/><line style="stroke:#000000;stroke-width:1.0;" x1="516" x2="805" y1="287.9766" y2="287.9766"/><text fill="#000000" font-family="sans-serif" font-size="14" font-weight="bold" lengthAdjust="spacing" textLength="94" x="521" y="303.5117">ratio_percent</text><text fill="#000000" font-family="sans-serif" font-size="14" lengthAdjust="spacing" textLength="175" x="625" y="303.5117">0.005045408678102927</text><line style="stroke:#000000;stroke-width:1.0;" x1="620" x2="620" y1="287.9766" y2="308.4648"/><rect fill="none" height="61.4648" rx="5" ry="5" style="stroke:#000000;stroke-width:1.5;" width="289" x="516" y="247"/><rect fill="#F1F1F1" height="61.4648" rx="5" ry="5" style="stroke:#F1F1F1;stroke-width:1.5;" width="289" x="516" y="326"/><text fill="#000000" font-family="sans-serif" font-size="14" font-weight="bold" lengthAdjust="spacing" textLength="78" x="521" y="341.5352">field_value</text><text fill="#000000" font-family="sans-serif" font-size="14" lengthAdjust="spacing" textLength="27" x="625" y="341.5352">104</text><line style="stroke:#000000;stroke-width:1.0;" x1="620" x2="620" y1="326" y2="346.4883"/><line style="stroke:#000000;stroke-width:1.0;" x1="516" x2="805" y1="346.4883" y2="346.4883"/><text fill="#000000" font-family="sans-serif" font-size="14" font-weight="bold" lengthAdjust="spacing" textLength="74" x="521" y="362.0234">row_count</text><text fill="#000000" font-family="sans-serif" font-size="14" lengthAdjust="spacing" textLength="9" x="625" y="362.0234">1</text><line style="stroke:#000000;stroke-width:1.0;" x1="620" x2="620" y1="346.4883" y2="366.9766"/><line style="stroke:#000000;stroke-width:1.0;" x1="516" x2="805" y1="366.9766" y2="366.9766"/><text fill="#000000" font-family="sans-serif" font-size="14" font-weight="bold" lengthAdjust="spacing" textLength="94" x="521" y="382.5117">ratio_percent</text><text fill="#000000" font-family="sans-serif" font-size="14" lengthAdjust="spacing" textLength="175" x="625" y="382.5117">0.005045408678102927</text><line style="stroke:#000000;stroke-width:1.0;" x1="620" x2="620" y1="366.9766" y2="387.4648"/><rect fill="none" height="61.4648" rx="5" ry="5" style="stroke:#000000;stroke-width:1.5;" width="289" x="516" y="326"/><rect fill="#F1F1F1" height="61.4648" rx="5" ry="5" style="stroke:#F1F1F1;stroke-width:1.5;" width="289" x="516" y="405"/><text fill="#000000" font-family="sans-serif" font-size="14" font-weight="bold" lengthAdjust="spacing" textLength="78" x="521" y="420.5352">field_value</text><text fill="#000000" font-family="sans-serif" font-size="14" lengthAdjust="spacing" textLength="27" x="625" y="420.5352">103</text><line style="stroke:#000000;stroke-width:1.0;" x1="620" x2="620" y1="405" y2="425.4883"/><line style="stroke:#000000;stroke-width:1.0;" x1="516" x2="805" y1="425.4883" y2="425.4883"/><text fill="#000000" font-family="sans-serif" font-size="14" font-weight="bold" lengthAdjust="spacing" textLength="74" x="521" y="441.0234">row_count</text><text fill="#000000" font-family="sans-serif" font-size="14" lengthAdjust="spacing" textLength="9" x="625" y="441.0234">1</text><line style="stroke:#000000;stroke-width:1.0;" x1="620" x2="620" y1="425.4883" y2="445.9766"/><line style="stroke:#000000;stroke-width:1.0;" x1="516" x2="805" y1="445.9766" y2="445.9766"/><text fill="#000000" font-family="sans-serif" font-size="14" font-weight="bold" lengthAdjust="spacing" textLength="94" x="521" y="461.5117">ratio_percent</text><text fill="#000000" font-family="sans-serif" font-size="14" lengthAdjust="spacing" textLength="175" x="625" y="461.5117">0.005045408678102927</text><line style="stroke:#000000;stroke-width:1.0;" x1="620" x2="620" y1="445.9766" y2="466.4648"/><rect fill="none" height="61.4648" rx="5" ry="5" style="stroke:#000000;stroke-width:1.5;" width="289" x="516" y="405"/><rect fill="#F1F1F1" height="61.4648" rx="5" ry="5" style="stroke:#F1F1F1;stroke-width:1.5;" width="289" x="516" y="484"/><text fill="#000000" font-family="sans-serif" font-size="14" font-weight="bold" lengthAdjust="spacing" textLength="78" x="521" y="499.5352">field_value</text><text fill="#000000" font-family="sans-serif" font-size="14" lengthAdjust="spacing" textLength="27" x="625" y="499.5352">102</text><line style="stroke:#000000;stroke-width:1.0;" x1="620" x2="620" y1="484" y2="504.4883"/><line style="stroke:#000000;stroke-width:1.0;" x1="516" x2="805" y1="504.4883" y2="504.4883"/><text fill="#000000" font-family="sans-serif" font-size="14" font-weight="bold" lengthAdjust="spacing" textLength="74" x="521" y="520.0234">row_count</text><text fill="#000000" font-family="sans-serif" font-size="14" lengthAdjust="spacing" textLength="9" x="625" y="520.0234">1</text><line style="stroke:#000000;stroke-width:1.0;" x1="620" x2="620" y1="504.4883" y2="524.9766"/><line style="stroke:#000000;stroke-width:1.0;" x1="516" x2="805" y1="524.9766" y2="524.9766"/><text fill="#000000" font-family="sans-serif" font-size="14" font-weight="bold" lengthAdjust="spacing" textLength="94" x="521" y="540.5117">ratio_percent</text><text fill="#000000" font-family="sans-serif" font-size="14" lengthAdjust="spacing" textLength="175" x="625" y="540.5117">0.005045408678102927</text><line style="stroke:#000000;stroke-width:1.0;" x1="620" x2="620" y1="524.9766" y2="545.4648"/><rect fill="none" height="61.4648" rx="5" ry="5" style="stroke:#000000;stroke-width:1.5;" width="289" x="516" y="484"/><rect fill="#F1F1F1" height="61.4648" rx="5" ry="5" style="stroke:#F1F1F1;stroke-width:1.5;" width="289" x="516" y="563"/><text fill="#000000" font-family="sans-serif" font-size="14" font-weight="bold" lengthAdjust="spacing" textLength="78" x="521" y="578.5352">field_value</text><text fill="#000000" font-family="sans-serif" font-size="14" lengthAdjust="spacing" textLength="27" x="625" y="578.5352">101</text><line style="stroke:#000000;stroke-width:1.0;" x1="620" x2="620" y1="563" y2="583.4883"/><line style="stroke:#000000;stroke-width:1.0;" x1="516" x2="805" y1="583.4883" y2="583.4883"/><text fill="#000000" font-family="sans-serif" font-size="14" font-weight="bold" lengthAdjust="spacing" textLength="74" x="521" y="599.0234">row_count</text><text fill="#000000" font-family="sans-serif" font-size="14" lengthAdjust="spacing" textLength="9" x="625" y="599.0234">1</text><line style="stroke:#000000;stroke-width:1.0;" x1="620" x2="620" y1="583.4883" y2="603.9766"/><line style="stroke:#000000;stroke-width:1.0;" x1="516" x2="805" y1="603.9766" y2="603.9766"/><text fill="#000000" font-family="sans-serif" font-size="14" font-weight="bold" lengthAdjust="spacing" textLength="94" x="521" y="619.5117">ratio_percent</text><text fill="#000000" font-family="sans-serif" font-size="14" lengthAdjust="spacing" textLength="175" x="625" y="619.5117">0.005045408678102927</text><line style="stroke:#000000;stroke-width:1.0;" x1="620" x2="620" y1="603.9766" y2="624.4648"/><rect fill="none" height="61.4648" rx="5" ry="5" style="stroke:#000000;stroke-width:1.5;" width="289" x="516" y="563"/><rect fill="#F1F1F1" height="61.4648" rx="5" ry="5" style="stroke:#F1F1F1;stroke-width:1.5;" width="289" x="516" y="642"/><text fill="#000000" font-family="sans-serif" font-size="14" font-weight="bold" lengthAdjust="spacing" textLength="78" x="521" y="657.5352">field_value</text><text fill="#000000" font-family="sans-serif" font-size="14" lengthAdjust="spacing" textLength="27" x="625" y="657.5352">100</text><line style="stroke:#000000;stroke-width:1.0;" x1="620" x2="620" y1="642" y2="662.4883"/><line style="stroke:#000000;stroke-width:1.0;" x1="516" x2="805" y1="662.4883" y2="662.4883"/><text fill="#000000" font-family="sans-serif" font-size="14" font-weight="bold" lengthAdjust="spacing" textLength="74" x="521" y="678.0234">row_count</text><text fill="#000000" font-family="sans-serif" font-size="14" lengthAdjust="spacing" textLength="9" x="625" y="678.0234">1</text><line style="stroke:#000000;stroke-width:1.0;" x1="620" x2="620" y1="662.4883" y2="682.9766"/><line style="stroke:#000000;stroke-width:1.0;" x1="516" x2="805" y1="682.9766" y2="682.9766"/><text fill="#000000" font-family="sans-serif" font-size="14" font-weight="bold" lengthAdjust="spacing" textLength="94" x="521" y="698.5117">ratio_percent</text><text fill="#000000" font-family="sans-serif" font-size="14" lengthAdjust="spacing" textLength="175" x="625" y="698.5117">0.005045408678102927</text><line style="stroke:#000000;stroke-width:1.0;" x1="620" x2="620" y1="682.9766" y2="703.4648"/><rect fill="none" height="61.4648" rx="5" ry="5" style="stroke:#000000;stroke-width:1.5;" width="289" x="516" y="642"/><rect fill="#F1F1F1" height="61.4648" rx="5" ry="5" style="stroke:#F1F1F1;stroke-width:1.5;" width="289" x="516" y="721"/><text fill="#000000" font-family="sans-serif" font-size="14" font-weight="bold" lengthAdjust="spacing" textLength="78" x="521" y="736.5352">field_value</text><text fill="#000000" font-family="sans-serif" font-size="14" lengthAdjust="spacing" textLength="18" x="625" y="736.5352">10</text><line style="stroke:#000000;stroke-width:1.0;" x1="620" x2="620" y1="721" y2="741.4883"/><line style="stroke:#000000;stroke-width:1.0;" x1="516" x2="805" y1="741.4883" y2="741.4883"/><text fill="#000000" font-family="sans-serif" font-size="14" font-weight="bold" lengthAdjust="spacing" textLength="74" x="521" y="757.0234">row_count</text><text fill="#000000" font-family="sans-serif" font-size="14" lengthAdjust="spacing" textLength="9" x="625" y="757.0234">1</text><line style="stroke:#000000;stroke-width:1.0;" x1="620" x2="620" y1="741.4883" y2="761.9766"/><line style="stroke:#000000;stroke-width:1.0;" x1="516" x2="805" y1="761.9766" y2="761.9766"/><text fill="#000000" font-family="sans-serif" font-size="14" font-weight="bold" lengthAdjust="spacing" textLength="94" x="521" y="777.5117">ratio_percent</text><text fill="#000000" font-family="sans-serif" font-size="14" lengthAdjust="spacing" textLength="175" x="625" y="777.5117">0.005045408678102927</text><line style="stroke:#000000;stroke-width:1.0;" x1="620" x2="620" y1="761.9766" y2="782.4648"/><rect fill="none" height="61.4648" rx="5" ry="5" style="stroke:#000000;stroke-width:1.5;" width="289" x="516" y="721"/><path d="M223,315.5 L236,315.5 C256.8273,315.5 253.6143,295.285 272,285.5 C276.4187,283.1484 281.0447,280.9598 285.7859,278.9261 " fill="none" style="stroke:#000000;stroke-width:1.0;stroke-dasharray:3.0,3.0;"/><path d="M286.9339,281.7334 L287.8914,278.0652 L284.638,276.1189 L292.804,276.0563 L286.9339,281.7334 " fill="#000000" style="stroke:#000000;stroke-width:1.0;"/><ellipse cx="223" cy="315.5" fill="#000000" rx="3" ry="3" style="stroke:#000000;stroke-width:1.0;"/><path d="M376,303.5 L389,303.5 C430.2281,303.5 451.1738,314.9755 480,285.5 C544.9848,219.0516 453.353,148.1569 516,79.5 C516.9302,78.4806 517.884,77.4867 518.8601,76.5177 " fill="none" style="stroke:#000000;stroke-width:1.0;stroke-dasharray:3.0,3.0;"/><path d="M520.9727,78.8475 L520.6074,74.9333 L516.7476,74.188 L524.6844,71.2364 L520.9727,78.8475 " fill="#000000" style="stroke:#000000;stroke-width:1.0;"/><ellipse cx="376" cy="303.5" fill="#000000" rx="3" ry="3" style="stroke:#000000;stroke-width:1.0;"/><path d="M376,324.5 L389,324.5 C433.0022,324.5 450.9505,318.5503 480,285.5 C518.7318,241.4339 474.2726,199.7408 516,158.5 C517.2348,157.2796 518.5037,156.0963 519.804,154.9491 " fill="none" style="stroke:#000000;stroke-width:1.0;stroke-dasharray:3.0,3.0;"/><path d="M521.725,157.307 L521.5724,153.5084 L517.8831,152.5913 L525.6986,150.1468 L521.725,157.307 " fill="#000000" style="stroke:#000000;stroke-width:1.0;"/><ellipse cx="376" cy="324.5" fill="#000000" rx="3" ry="3" style="stroke:#000000;stroke-width:1.0;"/><path d="M376,344.5 L389,344.5 C437.2012,344.5 444.773,318.4001 480,285.5 C499.4889,267.2985 493.9294,252.4666 516,237.5 C518.3915,235.8783 520.8481,234.3238 523.3595,232.8338 " fill="none" style="stroke:#000000;stroke-width:1.0;stroke-dasharray:3.0,3.0;"/><path d="M524.8776,235.5413 L525.3901,231.6952 L521.8413,230.1263 L530.1283,229.0385 L524.8776,235.5413 " fill="#000000" style="stroke:#000000;stroke-width:1.0;"/><ellipse cx="376" cy="344.5" fill="#000000" rx="3" ry="3" style="stroke:#000000;stroke-width:1.0;"/><path d="M376,365.5 L389,365.5 C449.3414,365.5 458.6492,336.2608 516,317.5 C523.3057,315.1101 530.849,312.7377 538.4769,310.4107 " fill="none" style="stroke:#000000;stroke-width:1.0;stroke-dasharray:3.0,3.0;"/><path d="M539.4013,313.4709 L540.7721,309.7175 L537.5526,307.3505 L546.1275,308.0999 L539.4013,313.4709 " fill="#000000" style="stroke:#000000;stroke-width:1.0;"/><ellipse cx="376" cy="365.5" fill="#000000" rx="3" ry="3" style="stroke:#000000;stroke-width:1.0;"/><path d="M376,385.5 L389,385.5 C427.9258,385.5 469.8191,382.5053 508.7528,378.4406 " fill="none" style="stroke:#000000;stroke-width:1.0;stroke-dasharray:3.0,3.0;"/><path d="M509.0835,381.5388 L511.0765,378.1926 L508.4222,375.3424 L516.4984,377.6139 L509.0835,381.5388 " fill="#000000" style="stroke:#000000;stroke-width:1.0;"/><ellipse cx="376" cy="385.5" fill="#000000" rx="3" ry="3" style="stroke:#000000;stroke-width:1.0;"/><path d="M376,406.5 L389,406.5 C427.9258,406.5 469.8191,409.4947 508.7528,413.5594 " fill="none" style="stroke:#000000;stroke-width:1.0;stroke-dasharray:3.0,3.0;"/><path d="M508.4222,416.6576 L511.0765,413.8074 L509.0835,410.4612 L516.4984,414.3861 L508.4222,416.6576 " fill="#000000" style="stroke:#000000;stroke-width:1.0;"/><ellipse cx="376" cy="406.5" fill="#000000" rx="3" ry="3" style="stroke:#000000;stroke-width:1.0;"/><path d="M376,427.5 L389,427.5 C449.3414,427.5 458.5889,456.9245 516,475.5 C522.515,477.6079 529.2201,479.6964 536.0065,481.747 " fill="none" style="stroke:#000000;stroke-width:1.0;stroke-dasharray:3.0,3.0;"/><path d="M535.1228,484.7033 L538.2238,482.4098 L536.8903,478.7907 L543.3974,483.9564 L535.1228,484.7033 " fill="#000000" style="stroke:#000000;stroke-width:1.0;"/><ellipse cx="376" cy="427.5" fill="#000000" rx="3" ry="3" style="stroke:#000000;stroke-width:1.0;"/><path d="M376,447.5 L389,447.5 C462.8072,447.5 450.6123,520.2661 516,554.5 C519.4957,556.3302 523.0853,558.0806 526.7452,559.7544 " fill="none" style="stroke:#000000;stroke-width:1.0;stroke-dasharray:3.0,3.0;"/><path d="M525.4952,562.6019 L528.8809,560.6919 L527.9952,556.9069 L533.8641,562.8794 L525.4952,562.6019 " fill="#000000" style="stroke:#000000;stroke-width:1.0;"/><ellipse cx="376" cy="447.5" fill="#000000" rx="3" ry="3" style="stroke:#000000;stroke-width:1.0;"/><path d="M376,468.5 L389,468.5 C481.5405,468.5 439.0862,582.0411 516,633.5 C518.4016,635.1068 520.8674,636.6476 523.3871,638.1251 " fill="none" style="stroke:#000000;stroke-width:1.0;stroke-dasharray:3.0,3.0;"/><path d="M521.8811,640.8408 L525.4239,639.2547 L524.8932,635.4095 L530.1763,641.8903 L521.8811,640.8408 " fill="#000000" style="stroke:#000000;stroke-width:1.0;"/><ellipse cx="376" cy="468.5" fill="#000000" rx="3" ry="3" style="stroke:#000000;stroke-width:1.0;"/><path d="M376,488.5 L389,488.5 C503.4434,488.5 425.5735,642.355 516,712.5 C517.8227,713.9139 519.6928,715.2766 521.6049,716.59 " fill="none" style="stroke:#000000;stroke-width:1.0;stroke-dasharray:3.0,3.0;"/><path d="M519.8937,719.2519 L523.6014,717.8734 L523.3162,713.928 L528.2598,720.8681 L519.8937,719.2519 " fill="#000000" style="stroke:#000000;stroke-width:1.0;"/><ellipse cx="376" cy="488.5" fill="#000000" rx="3" ry="3" style="stroke:#000000;stroke-width:1.0;"/><path d="M223,336.5 L236,336.5 C283.0497,336.5 332.2629,365.8357 357.6101,383.482 " fill="none" style="stroke:#000000;stroke-width:1.0;stroke-dasharray:3.0,3.0;"/><path d="M355.8416,385.964 L359.4716,384.8085 L359.3787,381.0001 L363.815,387.9035 L355.8416,385.964 " fill="#000000" style="stroke:#000000;stroke-width:1.0;"/><ellipse cx="223" cy="336.5" fill="#000000" rx="3" ry="3" style="stroke:#000000;stroke-width:1.0;"/><!--MD5=[9f62eaaae2566c11f93f65b9927cefa8]
@startjson
{
    "field1": "CustomerID",
    "combination": "CustomerID",
    "null_distribution": {
        "total_null_rows": 0,
        "total_not_null_rows": 19820
    },
    "data_distribution": [
        {
            "field_value": "108",
            "row_count": 1,
            "ratio_percent": 0.005045408678102927
        },
        {
            "field_value": "107",
            "row_count": 1,
            "ratio_percent": 0.005045408678102927
        },
        {
            "field_value": "106",
            "row_count": 1,
            "ratio_percent": 0.005045408678102927
        },
        {
            "field_value": "105",
            "row_count": 1,
            "ratio_percent": 0.005045408678102927
        },
        {
            "field_value": "104",
            "row_count": 1,
            "ratio_percent": 0.005045408678102927
        },
        {
            "field_value": "103",
            "row_count": 1,
            "ratio_percent": 0.005045408678102927
        },
        {
            "field_value": "102",
            "row_count": 1,
            "ratio_percent": 0.005045408678102927
        },
        {
            "field_value": "101",
            "row_count": 1,
            "ratio_percent": 0.005045408678102927
        },
        {
            "field_value": "100",
            "row_count": 1,
            "ratio_percent": 0.005045408678102927
        },
        {
            "field_value": "10",
            "row_count": 1,
            "ratio_percent": 0.005045408678102927
        }
    ]
}
@endjson

PlantUML version 1.2022.5(Sat Apr 30 06:55:52 EDT 2022)
(GPL source distribution)
Java Runtime: OpenJDK Runtime Environment
JVM: OpenJDK 64-Bit Server VM
Default Encoding: UTF-8
Language: en
Country: CA
--></g></svg>