<?xml version="1.0" encoding="UTF-8" standalone="no"?><svg xmlns="http://www.w3.org/2000/svg" xmlns:xlink="http://www.w3.org/1999/xlink" contentStyleType="text/css" height="794px" preserveAspectRatio="none" style="width:796px;height:794px;background:#FFFFFF;" version="1.1" viewBox="0 0 796 794" width="796px" zoomAndPan="magnify"><defs/><g><rect fill="#F1F1F1" height="81.9531" rx="5" ry="5" style="stroke:#F1F1F1;stroke-width:1.5;" width="240" x="10" y="264.5"/><text fill="#000000" font-family="sans-serif" font-size="14" font-weight="bold" lengthAdjust="spacing" textLength="42" x="15" y="280.0352">field1</text><text fill="#000000" font-family="sans-serif" font-size="14" lengthAdjust="spacing" textLength="96" x="149" y="280.0352">SalesPersonID</text><line style="stroke:#000000;stroke-width:1.0;" x1="144" x2="144" y1="264.5" y2="284.9883"/><line style="stroke:#000000;stroke-width:1.0;" x1="10" x2="250" y1="284.9883" y2="284.9883"/><text fill="#000000" font-family="sans-serif" font-size="14" font-weight="bold" lengthAdjust="spacing" textLength="90" x="15" y="300.5234">combination</text><text fill="#000000" font-family="sans-serif" font-size="14" lengthAdjust="spacing" textLength="96" x="149" y="300.5234">SalesPersonID</text><line style="stroke:#000000;stroke-width:1.0;" x1="144" x2="144" y1="284.9883" y2="305.4766"/><line style="stroke:#000000;stroke-width:1.0;" x1="10" x2="250" y1="305.4766" y2="305.4766"/><text fill="#000000" font-family="sans-serif" font-size="14" font-weight="bold" lengthAdjust="spacing" textLength="121" x="15" y="321.0117">null_distribution</text><text fill="#000000" font-family="sans-serif" font-size="14" lengthAdjust="spacing" textLength="12" x="149" y="321.0117">   </text><line style="stroke:#000000;stroke-width:1.0;" x1="144" x2="144" y1="305.4766" y2="325.9648"/><line style="stroke:#000000;stroke-width:1.0;" x1="10" x2="250" y1="325.9648" y2="325.9648"/><text fill="#000000" font-family="sans-serif" font-size="14" font-weight="bold" lengthAdjust="spacing" textLength="124" x="15" y="341.5">data_distribution</text><text fill="#000000" font-family="sans-serif" font-size="14" lengthAdjust="spacing" textLength="12" x="149" y="341.5">   </text><line style="stroke:#000000;stroke-width:1.0;" x1="144" x2="144" y1="325.9648" y2="346.4531"/><rect fill="none" height="81.9531" rx="5" ry="5" style="stroke:#000000;stroke-width:1.5;" width="240" x="10" y="264.5"/><rect fill="#F1F1F1" height="40.9766" rx="5" ry="5" style="stroke:#F1F1F1;stroke-width:1.5;" width="189" x="287" y="235"/><text fill="#000000" font-family="sans-serif" font-size="14" font-weight="bold" lengthAdjust="spacing" textLength="111" x="292" y="250.5352">total_null_rows</text><text fill="#000000" font-family="sans-serif" font-size="14" lengthAdjust="spacing" textLength="9" x="444" y="250.5352">0</text><line style="stroke:#000000;stroke-width:1.0;" x1="439" x2="439" y1="235" y2="255.4883"/><line style="stroke:#000000;stroke-width:1.0;" x1="287" x2="476" y1="255.4883" y2="255.4883"/><text fill="#000000" font-family="sans-serif" font-size="14" font-weight="bold" lengthAdjust="spacing" textLength="142" x="292" y="271.0234">total_not_null_rows</text><text fill="#000000" font-family="sans-serif" font-size="14" lengthAdjust="spacing" textLength="27" x="444" y="271.0234">701</text><line style="stroke:#000000;stroke-width:1.0;" x1="439" x2="439" y1="255.4883" y2="275.9766"/><rect fill="none" height="40.9766" rx="5" ry="5" style="stroke:#000000;stroke-width:1.5;" width="189" x="287" y="235"/><rect fill="#F1F1F1" height="204.8828" rx="5" ry="5" style="stroke:#F1F1F1;stroke-width:1.5;" width="22" x="369.5" y="294"/><text fill="#000000" font-family="sans-serif" font-size="14" lengthAdjust="spacing" textLength="12" x="374.5" y="309.5352">   </text><line style="stroke:#000000;stroke-width:1.0;" x1="369.5" x2="391.5" y1="314.4883" y2="314.4883"/><text fill="#000000" font-family="sans-serif" font-size="14" lengthAdjust="spacing" textLength="12" x="374.5" y="330.0234">   </text><line style="stroke:#000000;stroke-width:1.0;" x1="369.5" x2="391.5" y1="334.9766" y2="334.9766"/><text fill="#000000" font-family="sans-serif" font-size="14" lengthAdjust="spacing" textLength="12" x="374.5" y="350.5117">   </text><line style="stroke:#000000;stroke-width:1.0;" x1="369.5" x2="391.5" y1="355.4648" y2="355.4648"/><text fill="#000000" font-family="sans-serif" font-size="14" lengthAdjust="spacing" textLength="12" x="374.5" y="371">   </text><line style="stroke:#000000;stroke-width:1.0;" x1="369.5" x2="391.5" y1="375.9531" y2="375.9531"/><text fill="#000000" font-family="sans-serif" font-size="14" lengthAdjust="spacing" textLength="12" x="374.5" y="391.4883">   </text><line style="stroke:#000000;stroke-width:1.0;" x1="369.5" x2="391.5" y1="396.4414" y2="396.4414"/><text fill="#000000" font-family="sans-serif" font-size="14" lengthAdjust="spacing" textLength="12" x="374.5" y="411.9766">   </text><line style="stroke:#000000;stroke-width:1.0;" x1="369.5" x2="391.5" y1="416.9297" y2="416.9297"/><text fill="#000000" font-family="sans-serif" font-size="14" lengthAdjust="spacing" textLength="12" x="374.5" y="432.4648">   </text><line style="stroke:#000000;stroke-width:1.0;" x1="369.5" x2="391.5" y1="437.418" y2="437.418"/><text fill="#000000" font-family="sans-serif" font-size="14" lengthAdjust="spacing" textLength="12" x="374.5" y="452.9531">   </text><line style="stroke:#000000;stroke-width:1.0;" x1="369.5" x2="391.5" y1="457.9063" y2="457.9063"/><text fill="#000000" font-family="sans-serif" font-size="14" lengthAdjust="spacing" textLength="12" x="374.5" y="473.4414">   </text><line style="stroke:#000000;stroke-width:1.0;" x1="369.5" x2="391.5" y1="478.3945" y2="478.3945"/><text fill="#000000" font-family="sans-serif" font-size="14" lengthAdjust="spacing" textLength="12" x="374.5" y="493.9297">   </text><rect fill="none" height="204.8828" rx="5" ry="5" style="stroke:#000000;stroke-width:1.5;" width="22" x="369.5" y="294"/><rect fill="#F1F1F1" height="61.4648" rx="5" ry="5" style="stroke:#F1F1F1;stroke-width:1.5;" width="271" x="513" y="10"/><text fill="#000000" font-family="sans-serif" font-size="14" font-weight="bold" lengthAdjust="spacing" textLength="78" x="518" y="25.5352">field_value</text><text fill="#000000" font-family="sans-serif" font-size="14" lengthAdjust="spacing" textLength="27" x="622" y="25.5352">279</text><line style="stroke:#000000;stroke-width:1.0;" x1="617" x2="617" y1="10" y2="30.4883"/><line style="stroke:#000000;stroke-width:1.0;" x1="513" x2="784" y1="30.4883" y2="30.4883"/><text fill="#000000" font-family="sans-serif" font-size="14" font-weight="bold" lengthAdjust="spacing" textLength="74" x="518" y="46.0234">row_count</text><text fill="#000000" font-family="sans-serif" font-size="14" lengthAdjust="spacing" textLength="18" x="622" y="46.0234">80</text><line style="stroke:#000000;stroke-width:1.0;" x1="617" x2="617" y1="30.4883" y2="50.9766"/><line style="stroke:#000000;stroke-width:1.0;" x1="513" x2="784" y1="50.9766" y2="50.9766"/><text fill="#000000" font-family="sans-serif" font-size="14" font-weight="bold" lengthAdjust="spacing" textLength="94" x="518" y="66.5117">ratio_percent</text><text fill="#000000" font-family="sans-serif" font-size="14" lengthAdjust="spacing" textLength="157" x="622" y="66.5117">11.412268188302425</text><line style="stroke:#000000;stroke-width:1.0;" x1="617" x2="617" y1="50.9766" y2="71.4648"/><rect fill="none" height="61.4648" rx="5" ry="5" style="stroke:#000000;stroke-width:1.5;" width="271" x="513" y="10"/><rect fill="#F1F1F1" height="61.4648" rx="5" ry="5" style="stroke:#F1F1F1;stroke-width:1.5;" width="271" x="513" y="89"/><text fill="#000000" font-family="sans-serif" font-size="14" font-weight="bold" lengthAdjust="spacing" textLength="78" x="518" y="104.5352">field_value</text><text fill="#000000" font-family="sans-serif" font-size="14" lengthAdjust="spacing" textLength="27" x="622" y="104.5352">281</text><line style="stroke:#000000;stroke-width:1.0;" x1="617" x2="617" y1="89" y2="109.4883"/><line style="stroke:#000000;stroke-width:1.0;" x1="513" x2="784" y1="109.4883" y2="109.4883"/><text fill="#000000" font-family="sans-serif" font-size="14" font-weight="bold" lengthAdjust="spacing" textLength="74" x="518" y="125.0234">row_count</text><text fill="#000000" font-family="sans-serif" font-size="14" lengthAdjust="spacing" textLength="18" x="622" y="125.0234">79</text><line style="stroke:#000000;stroke-width:1.0;" x1="617" x2="617" y1="109.4883" y2="129.9766"/><line style="stroke:#000000;stroke-width:1.0;" x1="513" x2="784" y1="129.9766" y2="129.9766"/><text fill="#000000" font-family="sans-serif" font-size="14" font-weight="bold" lengthAdjust="spacing" textLength="94" x="518" y="145.5117">ratio_percent</text><text fill="#000000" font-family="sans-serif" font-size="14" lengthAdjust="spacing" textLength="157" x="622" y="145.5117">11.269614835948644</text><line style="stroke:#000000;stroke-width:1.0;" x1="617" x2="617" y1="129.9766" y2="150.4648"/><rect fill="none" height="61.4648" rx="5" ry="5" style="stroke:#000000;stroke-width:1.5;" width="271" x="513" y="89"/><rect fill="#F1F1F1" height="61.4648" rx="5" ry="5" style="stroke:#F1F1F1;stroke-width:1.5;" width="271" x="513" y="168"/><text fill="#000000" font-family="sans-serif" font-size="14" font-weight="bold" lengthAdjust="spacing" textLength="78" x="518" y="183.5352">field_value</text><text fill="#000000" font-family="sans-serif" font-size="14" lengthAdjust="spacing" textLength="27" x="622" y="183.5352">275</text><line style="stroke:#000000;stroke-width:1.0;" x1="617" x2="617" y1="168" y2="188.4883"/><line style="stroke:#000000;stroke-width:1.0;" x1="513" x2="784" y1="188.4883" y2="188.4883"/><text fill="#000000" font-family="sans-serif" font-size="14" font-weight="bold" lengthAdjust="spacing" textLength="74" x="518" y="204.0234">row_count</text><text fill="#000000" font-family="sans-serif" font-size="14" lengthAdjust="spacing" textLength="18" x="622" y="204.0234">77</text><line style="stroke:#000000;stroke-width:1.0;" x1="617" x2="617" y1="188.4883" y2="208.9766"/><line style="stroke:#000000;stroke-width:1.0;" x1="513" x2="784" y1="208.9766" y2="208.9766"/><text fill="#000000" font-family="sans-serif" font-size="14" font-weight="bold" lengthAdjust="spacing" textLength="94" x="518" y="224.5117">ratio_percent</text><text fill="#000000" font-family="sans-serif" font-size="14" lengthAdjust="spacing" textLength="157" x="622" y="224.5117">10.984308131241084</text><line style="stroke:#000000;stroke-width:1.0;" x1="617" x2="617" y1="208.9766" y2="229.4648"/><rect fill="none" height="61.4648" rx="5" ry="5" style="stroke:#000000;stroke-width:1.5;" width="271" x="513" y="168"/><rect fill="#F1F1F1" height="61.4648" rx="5" ry="5" style="stroke:#F1F1F1;stroke-width:1.5;" width="271" x="513" y="247"/><text fill="#000000" font-family="sans-serif" font-size="14" font-weight="bold" lengthAdjust="spacing" textLength="78" x="518" y="262.5352">field_value</text><text fill="#000000" font-family="sans-serif" font-size="14" lengthAdjust="spacing" textLength="27" x="622" y="262.5352">277</text><line style="stroke:#000000;stroke-width:1.0;" x1="617" x2="617" y1="247" y2="267.4883"/><line style="stroke:#000000;stroke-width:1.0;" x1="513" x2="784" y1="267.4883" y2="267.4883"/><text fill="#000000" font-family="sans-serif" font-size="14" font-weight="bold" lengthAdjust="spacing" textLength="74" x="518" y="283.0234">row_count</text><text fill="#000000" font-family="sans-serif" font-size="14" lengthAdjust="spacing" textLength="18" x="622" y="283.0234">76</text><line style="stroke:#000000;stroke-width:1.0;" x1="617" x2="617" y1="267.4883" y2="287.9766"/><line style="stroke:#000000;stroke-width:1.0;" x1="513" x2="784" y1="287.9766" y2="287.9766"/><text fill="#000000" font-family="sans-serif" font-size="14" font-weight="bold" lengthAdjust="spacing" textLength="94" x="518" y="303.5117">ratio_percent</text><text fill="#000000" font-family="sans-serif" font-size="14" lengthAdjust="spacing" textLength="157" x="622" y="303.5117">10.841654778887303</text><line style="stroke:#000000;stroke-width:1.0;" x1="617" x2="617" y1="287.9766" y2="308.4648"/><rect fill="none" height="61.4648" rx="5" ry="5" style="stroke:#000000;stroke-width:1.5;" width="271" x="513" y="247"/><rect fill="#F1F1F1" height="61.4648" rx="5" ry="5" style="stroke:#F1F1F1;stroke-width:1.5;" width="271" x="513" y="326"/><text fill="#000000" font-family="sans-serif" font-size="14" font-weight="bold" lengthAdjust="spacing" textLength="78" x="518" y="341.5352">field_value</text><text fill="#000000" font-family="sans-serif" font-size="14" lengthAdjust="spacing" textLength="27" x="622" y="341.5352">282</text><line style="stroke:#000000;stroke-width:1.0;" x1="617" x2="617" y1="326" y2="346.4883"/><line style="stroke:#000000;stroke-width:1.0;" x1="513" x2="784" y1="346.4883" y2="346.4883"/><text fill="#000000" font-family="sans-serif" font-size="14" font-weight="bold" lengthAdjust="spacing" textLength="74" x="518" y="362.0234">row_count</text><text fill="#000000" font-family="sans-serif" font-size="14" lengthAdjust="spacing" textLength="18" x="622" y="362.0234">74</text><line style="stroke:#000000;stroke-width:1.0;" x1="617" x2="617" y1="346.4883" y2="366.9766"/><line style="stroke:#000000;stroke-width:1.0;" x1="513" x2="784" y1="366.9766" y2="366.9766"/><text fill="#000000" font-family="sans-serif" font-size="14" font-weight="bold" lengthAdjust="spacing" textLength="94" x="518" y="382.5117">ratio_percent</text><text fill="#000000" font-family="sans-serif" font-size="14" lengthAdjust="spacing" textLength="157" x="622" y="382.5117">10.556348074179743</text><line style="stroke:#000000;stroke-width:1.0;" x1="617" x2="617" y1="366.9766" y2="387.4648"/><rect fill="none" height="61.4648" rx="5" ry="5" style="stroke:#000000;stroke-width:1.5;" width="271" x="513" y="326"/><rect fill="#F1F1F1" height="61.4648" rx="5" ry="5" style="stroke:#F1F1F1;stroke-width:1.5;" width="262" x="517.5" y="405"/><text fill="#000000" font-family="sans-serif" font-size="14" font-weight="bold" lengthAdjust="spacing" textLength="78" x="522.5" y="420.5352">field_value</text><text fill="#000000" font-family="sans-serif" font-size="14" lengthAdjust="spacing" textLength="27" x="626.5" y="420.5352">288</text><line style="stroke:#000000;stroke-width:1.0;" x1="621.5" x2="621.5" y1="405" y2="425.4883"/><line style="stroke:#000000;stroke-width:1.0;" x1="517.5" x2="779.5" y1="425.4883" y2="425.4883"/><text fill="#000000" font-family="sans-serif" font-size="14" font-weight="bold" lengthAdjust="spacing" textLength="74" x="522.5" y="441.0234">row_count</text><text fill="#000000" font-family="sans-serif" font-size="14" lengthAdjust="spacing" textLength="18" x="626.5" y="441.0234">40</text><line style="stroke:#000000;stroke-width:1.0;" x1="621.5" x2="621.5" y1="425.4883" y2="445.9766"/><line style="stroke:#000000;stroke-width:1.0;" x1="517.5" x2="779.5" y1="445.9766" y2="445.9766"/><text fill="#000000" font-family="sans-serif" font-size="14" font-weight="bold" lengthAdjust="spacing" textLength="94" x="522.5" y="461.5117">ratio_percent</text><text fill="#000000" font-family="sans-serif" font-size="14" lengthAdjust="spacing" textLength="148" x="626.5" y="461.5117">5.706134094151213</text><line style="stroke:#000000;stroke-width:1.0;" x1="621.5" x2="621.5" y1="445.9766" y2="466.4648"/><rect fill="none" height="61.4648" rx="5" ry="5" style="stroke:#000000;stroke-width:1.5;" width="262" x="517.5" y="405"/><rect fill="#F1F1F1" height="61.4648" rx="5" ry="5" style="stroke:#F1F1F1;stroke-width:1.5;" width="262" x="517.5" y="484"/><text fill="#000000" font-family="sans-serif" font-size="14" font-weight="bold" lengthAdjust="spacing" textLength="78" x="522.5" y="499.5352">field_value</text><text fill="#000000" font-family="sans-serif" font-size="14" lengthAdjust="spacing" textLength="27" x="626.5" y="499.5352">286</text><line style="stroke:#000000;stroke-width:1.0;" x1="621.5" x2="621.5" y1="484" y2="504.4883"/><line style="stroke:#000000;stroke-width:1.0;" x1="517.5" x2="779.5" y1="504.4883" y2="504.4883"/><text fill="#000000" font-family="sans-serif" font-size="14" font-weight="bold" lengthAdjust="spacing" textLength="74" x="522.5" y="520.0234">row_count</text><text fill="#000000" font-family="sans-serif" font-size="14" lengthAdjust="spacing" textLength="18" x="626.5" y="520.0234">40</text><line style="stroke:#000000;stroke-width:1.0;" x1="621.5" x2="621.5" y1="504.4883" y2="524.9766"/><line style="stroke:#000000;stroke-width:1.0;" x1="517.5" x2="779.5" y1="524.9766" y2="524.9766"/><text fill="#000000" font-family="sans-serif" font-size="14" font-weight="bold" lengthAdjust="spacing" textLength="94" x="522.5" y="540.5117">ratio_percent</text><text fill="#000000" font-family="sans-serif" font-size="14" lengthAdjust="spacing" textLength="148" x="626.5" y="540.5117">5.706134094151213</text><line style="stroke:#000000;stroke-width:1.0;" x1="621.5" x2="621.5" y1="524.9766" y2="545.4648"/><rect fill="none" height="61.4648" rx="5" ry="5" style="stroke:#000000;stroke-width:1.5;" width="262" x="517.5" y="484"/><rect fill="#F1F1F1" height="61.4648" rx="5" ry="5" style="stroke:#F1F1F1;stroke-width:1.5;" width="262" x="517.5" y="563"/><text fill="#000000" font-family="sans-serif" font-size="14" font-weight="bold" lengthAdjust="spacing" textLength="78" x="522.5" y="578.5352">field_value</text><text fill="#000000" font-family="sans-serif" font-size="14" lengthAdjust="spacing" textLength="27" x="626.5" y="578.5352">278</text><line style="stroke:#000000;stroke-width:1.0;" x1="621.5" x2="621.5" y1="563" y2="583.4883"/><line style="stroke:#000000;stroke-width:1.0;" x1="517.5" x2="779.5" y1="583.4883" y2="583.4883"/><text fill="#000000" font-family="sans-serif" font-size="14" font-weight="bold" lengthAdjust="spacing" textLength="74" x="522.5" y="599.0234">row_count</text><text fill="#000000" font-family="sans-serif" font-size="14" lengthAdjust="spacing" textLength="18" x="626.5" y="599.0234">40</text><line style="stroke:#000000;stroke-width:1.0;" x1="621.5" x2="621.5" y1="583.4883" y2="603.9766"/><line style="stroke:#000000;stroke-width:1.0;" x1="517.5" x2="779.5" y1="603.9766" y2="603.9766"/><text fill="#000000" font-family="sans-serif" font-size="14" font-weight="bold" lengthAdjust="spacing" textLength="94" x="522.5" y="619.5117">ratio_percent</text><text fill="#000000" font-family="sans-serif" font-size="14" lengthAdjust="spacing" textLength="148" x="626.5" y="619.5117">5.706134094151213</text><line style="stroke:#000000;stroke-width:1.0;" x1="621.5" x2="621.5" y1="603.9766" y2="624.4648"/><rect fill="none" height="61.4648" rx="5" ry="5" style="stroke:#000000;stroke-width:1.5;" width="262" x="517.5" y="563"/><rect fill="#F1F1F1" height="61.4648" rx="5" ry="5" style="stroke:#F1F1F1;stroke-width:1.5;" width="262" x="517.5" y="642"/><text fill="#000000" font-family="sans-serif" font-size="14" font-weight="bold" lengthAdjust="spacing" textLength="78" x="522.5" y="657.5352">field_value</text><text fill="#000000" font-family="sans-serif" font-size="14" lengthAdjust="spacing" textLength="27" x="626.5" y="657.5352">289</text><line style="stroke:#000000;stroke-width:1.0;" x1="621.5" x2="621.5" y1="642" y2="662.4883"/><line style="stroke:#000000;stroke-width:1.0;" x1="517.5" x2="779.5" y1="662.4883" y2="662.4883"/><text fill="#000000" font-family="sans-serif" font-size="14" font-weight="bold" lengthAdjust="spacing" textLength="74" x="522.5" y="678.0234">row_count</text><text fill="#000000" font-family="sans-serif" font-size="14" lengthAdjust="spacing" textLength="18" x="626.5" y="678.0234">40</text><line style="stroke:#000000;stroke-width:1.0;" x1="621.5" x2="621.5" y1="662.4883" y2="682.9766"/><line style="stroke:#000000;stroke-width:1.0;" x1="517.5" x2="779.5" y1="682.9766" y2="682.9766"/><text fill="#000000" font-family="sans-serif" font-size="14" font-weight="bold" lengthAdjust="spacing" textLength="94" x="522.5" y="698.5117">ratio_percent</text><text fill="#000000" font-family="sans-serif" font-size="14" lengthAdjust="spacing" textLength="148" x="626.5" y="698.5117">5.706134094151213</text><line style="stroke:#000000;stroke-width:1.0;" x1="621.5" x2="621.5" y1="682.9766" y2="703.4648"/><rect fill="none" height="61.4648" rx="5" ry="5" style="stroke:#000000;stroke-width:1.5;" width="262" x="517.5" y="642"/><rect fill="#F1F1F1" height="61.4648" rx="5" ry="5" style="stroke:#F1F1F1;stroke-width:1.5;" width="262" x="517.5" y="721"/><text fill="#000000" font-family="sans-serif" font-size="14" font-weight="bold" lengthAdjust="spacing" textLength="78" x="522.5" y="736.5352">field_value</text><text fill="#000000" font-family="sans-serif" font-size="14" lengthAdjust="spacing" textLength="27" x="626.5" y="736.5352">290</text><line style="stroke:#000000;stroke-width:1.0;" x1="621.5" x2="621.5" y1="721" y2="741.4883"/><line style="stroke:#000000;stroke-width:1.0;" x1="517.5" x2="779.5" y1="741.4883" y2="741.4883"/><text fill="#000000" font-family="sans-serif" font-size="14" font-weight="bold" lengthAdjust="spacing" textLength="74" x="522.5" y="757.0234">row_count</text><text fill="#000000" font-family="sans-serif" font-size="14" lengthAdjust="spacing" textLength="18" x="626.5" y="757.0234">40</text><line style="stroke:#000000;stroke-width:1.0;" x1="621.5" x2="621.5" y1="741.4883" y2="761.9766"/><line style="stroke:#000000;stroke-width:1.0;" x1="517.5" x2="779.5" y1="761.9766" y2="761.9766"/><text fill="#000000" font-family="sans-serif" font-size="14" font-weight="bold" lengthAdjust="spacing" textLength="94" x="522.5" y="777.5117">ratio_percent</text><text fill="#000000" font-family="sans-serif" font-size="14" lengthAdjust="spacing" textLength="148" x="626.5" y="777.5117">5.706134094151213</text><line style="stroke:#000000;stroke-width:1.0;" x1="621.5" x2="621.5" y1="761.9766" y2="782.4648"/><rect fill="none" height="61.4648" rx="5" ry="5" style="stroke:#000000;stroke-width:1.5;" width="262" x="517.5" y="721"/><path d="M238,315.5 L251,315.5 C271.8273,315.5 268.7406,295.5187 287,285.5 C291.1394,283.2288 295.4771,281.0988 299.9224,279.1061 " fill="none" style="stroke:#000000;stroke-width:1.0;stroke-dasharray:3.0,3.0;"/><path d="M301.1301,281.9305 L302.0407,278.2004 L298.7148,276.2817 L306.9835,276.0871 L301.1301,281.9305 " fill="#000000" style="stroke:#000000;stroke-width:1.0;"/><ellipse cx="238" cy="315.5" fill="#000000" rx="3" ry="3" style="stroke:#000000;stroke-width:1.0;"/><path d="M382,303.5 L395,303.5 C432.3122,303.5 451.1906,312.4458 477,285.5 C541.2901,218.3792 450.93,148.679 513,79.5 C514.0081,78.3765 515.0463,77.2844 516.1126,76.2231 " fill="none" style="stroke:#000000;stroke-width:1.0;stroke-dasharray:3.0,3.0;"/><path d="M518.1347,78.4455 L517.7795,74.7065 L514.0905,74.0006 L521.6688,71.1678 L518.1347,78.4455 " fill="#000000" style="stroke:#000000;stroke-width:1.0;"/><ellipse cx="382" cy="303.5" fill="#000000" rx="3" ry="3" style="stroke:#000000;stroke-width:1.0;"/><path d="M382,324.5 L395,324.5 C435.3564,324.5 450.9543,316.3264 477,285.5 C514.864,240.686 471.6193,200.0887 513,158.5 C514.2233,157.2705 515.4828,156.0793 516.7755,154.925 " fill="none" style="stroke:#000000;stroke-width:1.0;stroke-dasharray:3.0,3.0;"/><path d="M518.7064,157.2737 L518.537,153.4769 L514.8447,152.5764 L522.6472,150.0978 L518.7064,157.2737 " fill="#000000" style="stroke:#000000;stroke-width:1.0;"/><ellipse cx="382" cy="324.5" fill="#000000" rx="3" ry="3" style="stroke:#000000;stroke-width:1.0;"/><path d="M382,344.5 L395,344.5 C439.8977,344.5 444.9398,316.9316 477,285.5 C496.0419,266.8314 491.0554,252.6508 513,237.5 C515.3464,235.88 517.7599,234.3267 520.2295,232.8373 " fill="none" style="stroke:#000000;stroke-width:1.0;stroke-dasharray:3.0,3.0;"/><path d="M521.7476,235.5016 L522.2277,231.6987 L518.7115,230.173 L526.8903,229.0421 L521.7476,235.5016 " fill="#000000" style="stroke:#000000;stroke-width:1.0;"/><ellipse cx="382" cy="344.5" fill="#000000" rx="3" ry="3" style="stroke:#000000;stroke-width:1.0;"/><path d="M382,365.5 L395,365.5 C451.6174,365.5 459.5709,336.2315 513,317.5 C519.8339,315.1041 526.894,312.7271 534.0365,310.3966 " fill="none" style="stroke:#000000;stroke-width:1.0;stroke-dasharray:3.0,3.0;"/><path d="M534.9621,313.2625 L536.1859,309.7025 L533.1109,307.5308 L541.2011,308.0827 L534.9621,313.2625 " fill="#000000" style="stroke:#000000;stroke-width:1.0;"/><ellipse cx="382" cy="365.5" fill="#000000" rx="3" ry="3" style="stroke:#000000;stroke-width:1.0;"/><path d="M382,385.5 L395,385.5 C431.0127,385.5 469.7224,382.5639 505.7667,378.5603 " fill="none" style="stroke:#000000;stroke-width:1.0;stroke-dasharray:3.0,3.0;"/><path d="M506.1147,381.6199 L508.0615,378.2993 L505.4188,375.5006 L513.4158,377.6904 L506.1147,381.6199 " fill="#000000" style="stroke:#000000;stroke-width:1.0;"/><ellipse cx="382" cy="385.5" fill="#000000" rx="3" ry="3" style="stroke:#000000;stroke-width:1.0;"/><path d="M382,406.5 L395,406.5 C432.4574,406.5 472.8324,409.6763 510.0912,413.9266 " fill="none" style="stroke:#000000;stroke-width:1.0;stroke-dasharray:3.0,3.0;"/><path d="M509.7222,417.0871 L512.4616,414.2033 L510.4602,410.7661 L517.9924,414.8491 L509.7222,417.0871 " fill="#000000" style="stroke:#000000;stroke-width:1.0;"/><ellipse cx="382" cy="406.5" fill="#000000" rx="3" ry="3" style="stroke:#000000;stroke-width:1.0;"/><path d="M382,427.5 L395,427.5 C451.6174,427.5 459.5074,456.9509 513,475.5 C518.9641,477.5681 525.1016,479.6165 531.3168,481.6282 " fill="none" style="stroke:#000000;stroke-width:1.0;stroke-dasharray:3.0,3.0;"/><path d="M530.3793,484.5585 L533.5145,482.3313 L532.2542,478.6979 L538.6426,483.9718 L530.3793,484.5585 " fill="#000000" style="stroke:#000000;stroke-width:1.0;"/><ellipse cx="382" cy="427.5" fill="#000000" rx="3" ry="3" style="stroke:#000000;stroke-width:1.0;"/><path d="M382,447.5 L395,447.5 C465.7951,447.5 451.1756,520.008 513,554.5 C516.2257,556.2996 519.542,558.0227 522.9269,559.6722 " fill="none" style="stroke:#000000;stroke-width:1.0;stroke-dasharray:3.0,3.0;"/><path d="M521.6137,562.4872 L525.0382,560.6571 L524.2402,556.8572 L529.9644,562.9553 L521.6137,562.4872 " fill="#000000" style="stroke:#000000;stroke-width:1.0;"/><ellipse cx="382" cy="447.5" fill="#000000" rx="3" ry="3" style="stroke:#000000;stroke-width:1.0;"/><path d="M382,468.5 L395,468.5 C485.1565,468.5 439.3939,581.439 513,633.5 C515.1411,635.0144 517.3405,636.4704 519.5894,637.8702 " fill="none" style="stroke:#000000;stroke-width:1.0;stroke-dasharray:3.0,3.0;"/><path d="M517.9762,640.6249 L521.6554,639.0801 L521.2026,635.1155 L526.4762,641.9033 L517.9762,640.6249 " fill="#000000" style="stroke:#000000;stroke-width:1.0;"/><ellipse cx="382" cy="468.5" fill="#000000" rx="3" ry="3" style="stroke:#000000;stroke-width:1.0;"/><path d="M382,488.5 L395,488.5 C507.5243,488.5 425.7588,641.4317 513,712.5 C514.7289,713.9084 516.5064,715.2659 518.3269,716.5744 " fill="none" style="stroke:#000000;stroke-width:1.0;stroke-dasharray:3.0,3.0;"/><path d="M516.6218,719.1133 L520.2311,717.8533 L520.032,714.0356 L524.674,720.8372 L516.6218,719.1133 " fill="#000000" style="stroke:#000000;stroke-width:1.0;"/><ellipse cx="382" cy="488.5" fill="#000000" rx="3" ry="3" style="stroke:#000000;stroke-width:1.0;"/><path d="M238,336.5 L251,336.5 C294.8518,336.5 340.0003,364.993 363.8339,382.7089 " fill="none" style="stroke:#000000;stroke-width:1.0;stroke-dasharray:3.0,3.0;"/><path d="M361.9625,385.1642 L365.6753,384.1124 L365.7052,380.2536 L369.9721,387.3873 L361.9625,385.1642 " fill="#000000" style="stroke:#000000;stroke-width:1.0;"/><ellipse cx="238" cy="336.5" fill="#000000" rx="3" ry="3" style="stroke:#000000;stroke-width:1.0;"/><!--MD5=[14c519cfa3dd16735fca09dcdfa25b9a]
@startjson
{
    "field1": "SalesPersonID",
    "combination": "SalesPersonID",
    "null_distribution": {
        "total_null_rows": 0,
        "total_not_null_rows": 701
    },
    "data_distribution": [
        {
            "field_value": "279",
            "row_count": 80,
            "ratio_percent": 11.412268188302425
        },
        {
            "field_value": "281",
            "row_count": 79,
            "ratio_percent": 11.269614835948644
        },
        {
            "field_value": "275",
            "row_count": 77,
            "ratio_percent": 10.984308131241084
        },
        {
            "field_value": "277",
            "row_count": 76,
            "ratio_percent": 10.841654778887303
        },
        {
            "field_value": "282",
            "row_count": 74,
            "ratio_percent": 10.556348074179743
        },
        {
            "field_value": "288",
            "row_count": 40,
            "ratio_percent": 5.706134094151213
        },
        {
            "field_value": "286",
            "row_count": 40,
            "ratio_percent": 5.706134094151213
        },
        {
            "field_value": "278",
            "row_count": 40,
            "ratio_percent": 5.706134094151213
        },
        {
            "field_value": "289",
            "row_count": 40,
            "ratio_percent": 5.706134094151213
        },
        {
            "field_value": "290",
            "row_count": 40,
            "ratio_percent": 5.706134094151213
        }
    ]
}
@endjson

PlantUML version 1.2022.5(Sat Apr 30 06:55:52 EDT 2022)
(GPL source distribution)
Java Runtime: OpenJDK Runtime Environment
JVM: OpenJDK 64-Bit Server VM
Default Encoding: UTF-8
Language: en
Country: CA
--></g></svg>