<?xml version="1.0" encoding="UTF-8" standalone="no"?><svg xmlns="http://www.w3.org/2000/svg" xmlns:xlink="http://www.w3.org/1999/xlink" contentStyleType="text/css" height="794px" preserveAspectRatio="none" style="width:765px;height:794px;background:#FFFFFF;" version="1.1" viewBox="0 0 765 794" width="765px" zoomAndPan="magnify"><defs/><g><rect fill="#F1F1F1" height="81.9531" rx="5" ry="5" style="stroke:#F1F1F1;stroke-width:1.5;" width="218" x="10" y="264.5"/><text fill="#000000" font-family="sans-serif" font-size="14" font-weight="bold" lengthAdjust="spacing" textLength="42" x="15" y="280.0352">field1</text><text fill="#000000" font-family="sans-serif" font-size="14" lengthAdjust="spacing" textLength="74" x="149" y="280.0352">TerritoryID</text><line style="stroke:#000000;stroke-width:1.0;" x1="144" x2="144" y1="264.5" y2="284.9883"/><line style="stroke:#000000;stroke-width:1.0;" x1="10" x2="228" y1="284.9883" y2="284.9883"/><text fill="#000000" font-family="sans-serif" font-size="14" font-weight="bold" lengthAdjust="spacing" textLength="90" x="15" y="300.5234">combination</text><text fill="#000000" font-family="sans-serif" font-size="14" lengthAdjust="spacing" textLength="74" x="149" y="300.5234">TerritoryID</text><line style="stroke:#000000;stroke-width:1.0;" x1="144" x2="144" y1="284.9883" y2="305.4766"/><line style="stroke:#000000;stroke-width:1.0;" x1="10" x2="228" y1="305.4766" y2="305.4766"/><text fill="#000000" font-family="sans-serif" font-size="14" font-weight="bold" lengthAdjust="spacing" textLength="121" x="15" y="321.0117">null_distribution</text><text fill="#000000" font-family="sans-serif" font-size="14" lengthAdjust="spacing" textLength="12" x="149" y="321.0117">   </text><line style="stroke:#000000;stroke-width:1.0;" x1="144" x2="144" y1="305.4766" y2="325.9648"/><line style="stroke:#000000;stroke-width:1.0;" x1="10" x2="228" y1="325.9648" y2="325.9648"/><text fill="#000000" font-family="sans-serif" font-size="14" font-weight="bold" lengthAdjust="spacing" textLength="124" x="15" y="341.5">data_distribution</text><text fill="#000000" font-family="sans-serif" font-size="14" lengthAdjust="spacing" textLength="12" x="149" y="341.5">   </text><line style="stroke:#000000;stroke-width:1.0;" x1="144" x2="144" y1="325.9648" y2="346.4531"/><rect fill="none" height="81.9531" rx="5" ry="5" style="stroke:#000000;stroke-width:1.5;" width="218" x="10" y="264.5"/><rect fill="#F1F1F1" height="40.9766" rx="5" ry="5" style="stroke:#F1F1F1;stroke-width:1.5;" width="180" x="265" y="235"/><text fill="#000000" font-family="sans-serif" font-size="14" font-weight="bold" lengthAdjust="spacing" textLength="111" x="270" y="250.5352">total_null_rows</text><text fill="#000000" font-family="sans-serif" font-size="14" lengthAdjust="spacing" textLength="9" x="422" y="250.5352">0</text><line style="stroke:#000000;stroke-width:1.0;" x1="417" x2="417" y1="235" y2="255.4883"/><line style="stroke:#000000;stroke-width:1.0;" x1="265" x2="445" y1="255.4883" y2="255.4883"/><text fill="#000000" font-family="sans-serif" font-size="14" font-weight="bold" lengthAdjust="spacing" textLength="142" x="270" y="271.0234">total_not_null_rows</text><text fill="#000000" font-family="sans-serif" font-size="14" lengthAdjust="spacing" textLength="18" x="422" y="271.0234">17</text><line style="stroke:#000000;stroke-width:1.0;" x1="417" x2="417" y1="255.4883" y2="275.9766"/><rect fill="none" height="40.9766" rx="5" ry="5" style="stroke:#000000;stroke-width:1.5;" width="180" x="265" y="235"/><rect fill="#F1F1F1" height="204.8828" rx="5" ry="5" style="stroke:#F1F1F1;stroke-width:1.5;" width="22" x="343" y="294"/><text fill="#000000" font-family="sans-serif" font-size="14" lengthAdjust="spacing" textLength="12" x="348" y="309.5352">   </text><line style="stroke:#000000;stroke-width:1.0;" x1="343" x2="365" y1="314.4883" y2="314.4883"/><text fill="#000000" font-family="sans-serif" font-size="14" lengthAdjust="spacing" textLength="12" x="348" y="330.0234">   </text><line style="stroke:#000000;stroke-width:1.0;" x1="343" x2="365" y1="334.9766" y2="334.9766"/><text fill="#000000" font-family="sans-serif" font-size="14" lengthAdjust="spacing" textLength="12" x="348" y="350.5117">   </text><line style="stroke:#000000;stroke-width:1.0;" x1="343" x2="365" y1="355.4648" y2="355.4648"/><text fill="#000000" font-family="sans-serif" font-size="14" lengthAdjust="spacing" textLength="12" x="348" y="371">   </text><line style="stroke:#000000;stroke-width:1.0;" x1="343" x2="365" y1="375.9531" y2="375.9531"/><text fill="#000000" font-family="sans-serif" font-size="14" lengthAdjust="spacing" textLength="12" x="348" y="391.4883">   </text><line style="stroke:#000000;stroke-width:1.0;" x1="343" x2="365" y1="396.4414" y2="396.4414"/><text fill="#000000" font-family="sans-serif" font-size="14" lengthAdjust="spacing" textLength="12" x="348" y="411.9766">   </text><line style="stroke:#000000;stroke-width:1.0;" x1="343" x2="365" y1="416.9297" y2="416.9297"/><text fill="#000000" font-family="sans-serif" font-size="14" lengthAdjust="spacing" textLength="12" x="348" y="432.4648">   </text><line style="stroke:#000000;stroke-width:1.0;" x1="343" x2="365" y1="437.418" y2="437.418"/><text fill="#000000" font-family="sans-serif" font-size="14" lengthAdjust="spacing" textLength="12" x="348" y="452.9531">   </text><line style="stroke:#000000;stroke-width:1.0;" x1="343" x2="365" y1="457.9063" y2="457.9063"/><text fill="#000000" font-family="sans-serif" font-size="14" lengthAdjust="spacing" textLength="12" x="348" y="473.4414">   </text><line style="stroke:#000000;stroke-width:1.0;" x1="343" x2="365" y1="478.3945" y2="478.3945"/><text fill="#000000" font-family="sans-serif" font-size="14" lengthAdjust="spacing" textLength="12" x="348" y="493.9297">   </text><rect fill="none" height="204.8828" rx="5" ry="5" style="stroke:#000000;stroke-width:1.5;" width="22" x="343" y="294"/><rect fill="#F1F1F1" height="61.4648" rx="5" ry="5" style="stroke:#F1F1F1;stroke-width:1.5;" width="271" x="482" y="10"/><text fill="#000000" font-family="sans-serif" font-size="14" font-weight="bold" lengthAdjust="spacing" textLength="78" x="487" y="25.5352">field_value</text><text fill="#000000" font-family="sans-serif" font-size="14" lengthAdjust="spacing" textLength="9" x="591" y="25.5352">1</text><line style="stroke:#000000;stroke-width:1.0;" x1="586" x2="586" y1="10" y2="30.4883"/><line style="stroke:#000000;stroke-width:1.0;" x1="482" x2="753" y1="30.4883" y2="30.4883"/><text fill="#000000" font-family="sans-serif" font-size="14" font-weight="bold" lengthAdjust="spacing" textLength="74" x="487" y="46.0234">row_count</text><text fill="#000000" font-family="sans-serif" font-size="14" lengthAdjust="spacing" textLength="9" x="591" y="46.0234">3</text><line style="stroke:#000000;stroke-width:1.0;" x1="586" x2="586" y1="30.4883" y2="50.9766"/><line style="stroke:#000000;stroke-width:1.0;" x1="482" x2="753" y1="50.9766" y2="50.9766"/><text fill="#000000" font-family="sans-serif" font-size="14" font-weight="bold" lengthAdjust="spacing" textLength="94" x="487" y="66.5117">ratio_percent</text><text fill="#000000" font-family="sans-serif" font-size="14" lengthAdjust="spacing" textLength="157" x="591" y="66.5117">17.647058823529413</text><line style="stroke:#000000;stroke-width:1.0;" x1="586" x2="586" y1="50.9766" y2="71.4648"/><rect fill="none" height="61.4648" rx="5" ry="5" style="stroke:#000000;stroke-width:1.5;" width="271" x="482" y="10"/><rect fill="#F1F1F1" height="61.4648" rx="5" ry="5" style="stroke:#F1F1F1;stroke-width:1.5;" width="271" x="482" y="89"/><text fill="#000000" font-family="sans-serif" font-size="14" font-weight="bold" lengthAdjust="spacing" textLength="78" x="487" y="104.5352">field_value</text><text fill="#000000" font-family="sans-serif" font-size="14" lengthAdjust="spacing" textLength="9" x="591" y="104.5352">6</text><line style="stroke:#000000;stroke-width:1.0;" x1="586" x2="586" y1="89" y2="109.4883"/><line style="stroke:#000000;stroke-width:1.0;" x1="482" x2="753" y1="109.4883" y2="109.4883"/><text fill="#000000" font-family="sans-serif" font-size="14" font-weight="bold" lengthAdjust="spacing" textLength="74" x="487" y="125.0234">row_count</text><text fill="#000000" font-family="sans-serif" font-size="14" lengthAdjust="spacing" textLength="9" x="591" y="125.0234">3</text><line style="stroke:#000000;stroke-width:1.0;" x1="586" x2="586" y1="109.4883" y2="129.9766"/><line style="stroke:#000000;stroke-width:1.0;" x1="482" x2="753" y1="129.9766" y2="129.9766"/><text fill="#000000" font-family="sans-serif" font-size="14" font-weight="bold" lengthAdjust="spacing" textLength="94" x="487" y="145.5117">ratio_percent</text><text fill="#000000" font-family="sans-serif" font-size="14" lengthAdjust="spacing" textLength="157" x="591" y="145.5117">17.647058823529413</text><line style="stroke:#000000;stroke-width:1.0;" x1="586" x2="586" y1="129.9766" y2="150.4648"/><rect fill="none" height="61.4648" rx="5" ry="5" style="stroke:#000000;stroke-width:1.5;" width="271" x="482" y="89"/><rect fill="#F1F1F1" height="61.4648" rx="5" ry="5" style="stroke:#F1F1F1;stroke-width:1.5;" width="271" x="482" y="168"/><text fill="#000000" font-family="sans-serif" font-size="14" font-weight="bold" lengthAdjust="spacing" textLength="78" x="487" y="183.5352">field_value</text><text fill="#000000" font-family="sans-serif" font-size="14" lengthAdjust="spacing" textLength="9" x="591" y="183.5352">4</text><line style="stroke:#000000;stroke-width:1.0;" x1="586" x2="586" y1="168" y2="188.4883"/><line style="stroke:#000000;stroke-width:1.0;" x1="482" x2="753" y1="188.4883" y2="188.4883"/><text fill="#000000" font-family="sans-serif" font-size="14" font-weight="bold" lengthAdjust="spacing" textLength="74" x="487" y="204.0234">row_count</text><text fill="#000000" font-family="sans-serif" font-size="14" lengthAdjust="spacing" textLength="9" x="591" y="204.0234">2</text><line style="stroke:#000000;stroke-width:1.0;" x1="586" x2="586" y1="188.4883" y2="208.9766"/><line style="stroke:#000000;stroke-width:1.0;" x1="482" x2="753" y1="208.9766" y2="208.9766"/><text fill="#000000" font-family="sans-serif" font-size="14" font-weight="bold" lengthAdjust="spacing" textLength="94" x="487" y="224.5117">ratio_percent</text><text fill="#000000" font-family="sans-serif" font-size="14" lengthAdjust="spacing" textLength="157" x="591" y="224.5117">11.764705882352942</text><line style="stroke:#000000;stroke-width:1.0;" x1="586" x2="586" y1="208.9766" y2="229.4648"/><rect fill="none" height="61.4648" rx="5" ry="5" style="stroke:#000000;stroke-width:1.5;" width="271" x="482" y="168"/><rect fill="#F1F1F1" height="61.4648" rx="5" ry="5" style="stroke:#F1F1F1;stroke-width:1.5;" width="271" x="482" y="247"/><text fill="#000000" font-family="sans-serif" font-size="14" font-weight="bold" lengthAdjust="spacing" textLength="78" x="487" y="262.5352">field_value</text><text fill="#000000" font-family="sans-serif" font-size="14" lengthAdjust="spacing" textLength="9" x="591" y="262.5352">3</text><line style="stroke:#000000;stroke-width:1.0;" x1="586" x2="586" y1="247" y2="267.4883"/><line style="stroke:#000000;stroke-width:1.0;" x1="482" x2="753" y1="267.4883" y2="267.4883"/><text fill="#000000" font-family="sans-serif" font-size="14" font-weight="bold" lengthAdjust="spacing" textLength="74" x="487" y="283.0234">row_count</text><text fill="#000000" font-family="sans-serif" font-size="14" lengthAdjust="spacing" textLength="9" x="591" y="283.0234">2</text><line style="stroke:#000000;stroke-width:1.0;" x1="586" x2="586" y1="267.4883" y2="287.9766"/><line style="stroke:#000000;stroke-width:1.0;" x1="482" x2="753" y1="287.9766" y2="287.9766"/><text fill="#000000" font-family="sans-serif" font-size="14" font-weight="bold" lengthAdjust="spacing" textLength="94" x="487" y="303.5117">ratio_percent</text><text fill="#000000" font-family="sans-serif" font-size="14" lengthAdjust="spacing" textLength="157" x="591" y="303.5117">11.764705882352942</text><line style="stroke:#000000;stroke-width:1.0;" x1="586" x2="586" y1="287.9766" y2="308.4648"/><rect fill="none" height="61.4648" rx="5" ry="5" style="stroke:#000000;stroke-width:1.5;" width="271" x="482" y="247"/><rect fill="#F1F1F1" height="61.4648" rx="5" ry="5" style="stroke:#F1F1F1;stroke-width:1.5;" width="271" x="482" y="326"/><text fill="#000000" font-family="sans-serif" font-size="14" font-weight="bold" lengthAdjust="spacing" textLength="78" x="487" y="341.5352">field_value</text><text fill="#000000" font-family="sans-serif" font-size="14" lengthAdjust="spacing" textLength="9" x="591" y="341.5352">2</text><line style="stroke:#000000;stroke-width:1.0;" x1="586" x2="586" y1="326" y2="346.4883"/><line style="stroke:#000000;stroke-width:1.0;" x1="482" x2="753" y1="346.4883" y2="346.4883"/><text fill="#000000" font-family="sans-serif" font-size="14" font-weight="bold" lengthAdjust="spacing" textLength="74" x="487" y="362.0234">row_count</text><text fill="#000000" font-family="sans-serif" font-size="14" lengthAdjust="spacing" textLength="9" x="591" y="362.0234">2</text><line style="stroke:#000000;stroke-width:1.0;" x1="586" x2="586" y1="346.4883" y2="366.9766"/><line style="stroke:#000000;stroke-width:1.0;" x1="482" x2="753" y1="366.9766" y2="366.9766"/><text fill="#000000" font-family="sans-serif" font-size="14" font-weight="bold" lengthAdjust="spacing" textLength="94" x="487" y="382.5117">ratio_percent</text><text fill="#000000" font-family="sans-serif" font-size="14" lengthAdjust="spacing" textLength="157" x="591" y="382.5117">11.764705882352942</text><line style="stroke:#000000;stroke-width:1.0;" x1="586" x2="586" y1="366.9766" y2="387.4648"/><rect fill="none" height="61.4648" rx="5" ry="5" style="stroke:#000000;stroke-width:1.5;" width="271" x="482" y="326"/><rect fill="#F1F1F1" height="61.4648" rx="5" ry="5" style="stroke:#F1F1F1;stroke-width:1.5;" width="262" x="486.5" y="405"/><text fill="#000000" font-family="sans-serif" font-size="14" font-weight="bold" lengthAdjust="spacing" textLength="78" x="491.5" y="420.5352">field_value</text><text fill="#000000" font-family="sans-serif" font-size="14" lengthAdjust="spacing" textLength="9" x="595.5" y="420.5352">9</text><line style="stroke:#000000;stroke-width:1.0;" x1="590.5" x2="590.5" y1="405" y2="425.4883"/><line style="stroke:#000000;stroke-width:1.0;" x1="486.5" x2="748.5" y1="425.4883" y2="425.4883"/><text fill="#000000" font-family="sans-serif" font-size="14" font-weight="bold" lengthAdjust="spacing" textLength="74" x="491.5" y="441.0234">row_count</text><text fill="#000000" font-family="sans-serif" font-size="14" lengthAdjust="spacing" textLength="9" x="595.5" y="441.0234">1</text><line style="stroke:#000000;stroke-width:1.0;" x1="590.5" x2="590.5" y1="425.4883" y2="445.9766"/><line style="stroke:#000000;stroke-width:1.0;" x1="486.5" x2="748.5" y1="445.9766" y2="445.9766"/><text fill="#000000" font-family="sans-serif" font-size="14" font-weight="bold" lengthAdjust="spacing" textLength="94" x="491.5" y="461.5117">ratio_percent</text><text fill="#000000" font-family="sans-serif" font-size="14" lengthAdjust="spacing" textLength="148" x="595.5" y="461.5117">5.882352941176471</text><line style="stroke:#000000;stroke-width:1.0;" x1="590.5" x2="590.5" y1="445.9766" y2="466.4648"/><rect fill="none" height="61.4648" rx="5" ry="5" style="stroke:#000000;stroke-width:1.5;" width="262" x="486.5" y="405"/><rect fill="#F1F1F1" height="61.4648" rx="5" ry="5" style="stroke:#F1F1F1;stroke-width:1.5;" width="262" x="486.5" y="484"/><text fill="#000000" font-family="sans-serif" font-size="14" font-weight="bold" lengthAdjust="spacing" textLength="78" x="491.5" y="499.5352">field_value</text><text fill="#000000" font-family="sans-serif" font-size="14" lengthAdjust="spacing" textLength="9" x="595.5" y="499.5352">8</text><line style="stroke:#000000;stroke-width:1.0;" x1="590.5" x2="590.5" y1="484" y2="504.4883"/><line style="stroke:#000000;stroke-width:1.0;" x1="486.5" x2="748.5" y1="504.4883" y2="504.4883"/><text fill="#000000" font-family="sans-serif" font-size="14" font-weight="bold" lengthAdjust="spacing" textLength="74" x="491.5" y="520.0234">row_count</text><text fill="#000000" font-family="sans-serif" font-size="14" lengthAdjust="spacing" textLength="9" x="595.5" y="520.0234">1</text><line style="stroke:#000000;stroke-width:1.0;" x1="590.5" x2="590.5" y1="504.4883" y2="524.9766"/><line style="stroke:#000000;stroke-width:1.0;" x1="486.5" x2="748.5" y1="524.9766" y2="524.9766"/><text fill="#000000" font-family="sans-serif" font-size="14" font-weight="bold" lengthAdjust="spacing" textLength="94" x="491.5" y="540.5117">ratio_percent</text><text fill="#000000" font-family="sans-serif" font-size="14" lengthAdjust="spacing" textLength="148" x="595.5" y="540.5117">5.882352941176471</text><line style="stroke:#000000;stroke-width:1.0;" x1="590.5" x2="590.5" y1="524.9766" y2="545.4648"/><rect fill="none" height="61.4648" rx="5" ry="5" style="stroke:#000000;stroke-width:1.5;" width="262" x="486.5" y="484"/><rect fill="#F1F1F1" height="61.4648" rx="5" ry="5" style="stroke:#F1F1F1;stroke-width:1.5;" width="262" x="486.5" y="563"/><text fill="#000000" font-family="sans-serif" font-size="14" font-weight="bold" lengthAdjust="spacing" textLength="78" x="491.5" y="578.5352">field_value</text><text fill="#000000" font-family="sans-serif" font-size="14" lengthAdjust="spacing" textLength="9" x="595.5" y="578.5352">7</text><line style="stroke:#000000;stroke-width:1.0;" x1="590.5" x2="590.5" y1="563" y2="583.4883"/><line style="stroke:#000000;stroke-width:1.0;" x1="486.5" x2="748.5" y1="583.4883" y2="583.4883"/><text fill="#000000" font-family="sans-serif" font-size="14" font-weight="bold" lengthAdjust="spacing" textLength="74" x="491.5" y="599.0234">row_count</text><text fill="#000000" font-family="sans-serif" font-size="14" lengthAdjust="spacing" textLength="9" x="595.5" y="599.0234">1</text><line style="stroke:#000000;stroke-width:1.0;" x1="590.5" x2="590.5" y1="583.4883" y2="603.9766"/><line style="stroke:#000000;stroke-width:1.0;" x1="486.5" x2="748.5" y1="603.9766" y2="603.9766"/><text fill="#000000" font-family="sans-serif" font-size="14" font-weight="bold" lengthAdjust="spacing" textLength="94" x="491.5" y="619.5117">ratio_percent</text><text fill="#000000" font-family="sans-serif" font-size="14" lengthAdjust="spacing" textLength="148" x="595.5" y="619.5117">5.882352941176471</text><line style="stroke:#000000;stroke-width:1.0;" x1="590.5" x2="590.5" y1="603.9766" y2="624.4648"/><rect fill="none" height="61.4648" rx="5" ry="5" style="stroke:#000000;stroke-width:1.5;" width="262" x="486.5" y="563"/><rect fill="#F1F1F1" height="61.4648" rx="5" ry="5" style="stroke:#F1F1F1;stroke-width:1.5;" width="262" x="486.5" y="642"/><text fill="#000000" font-family="sans-serif" font-size="14" font-weight="bold" lengthAdjust="spacing" textLength="78" x="491.5" y="657.5352">field_value</text><text fill="#000000" font-family="sans-serif" font-size="14" lengthAdjust="spacing" textLength="9" x="595.5" y="657.5352">5</text><line style="stroke:#000000;stroke-width:1.0;" x1="590.5" x2="590.5" y1="642" y2="662.4883"/><line style="stroke:#000000;stroke-width:1.0;" x1="486.5" x2="748.5" y1="662.4883" y2="662.4883"/><text fill="#000000" font-family="sans-serif" font-size="14" font-weight="bold" lengthAdjust="spacing" textLength="74" x="491.5" y="678.0234">row_count</text><text fill="#000000" font-family="sans-serif" font-size="14" lengthAdjust="spacing" textLength="9" x="595.5" y="678.0234">1</text><line style="stroke:#000000;stroke-width:1.0;" x1="590.5" x2="590.5" y1="662.4883" y2="682.9766"/><line style="stroke:#000000;stroke-width:1.0;" x1="486.5" x2="748.5" y1="682.9766" y2="682.9766"/><text fill="#000000" font-family="sans-serif" font-size="14" font-weight="bold" lengthAdjust="spacing" textLength="94" x="491.5" y="698.5117">ratio_percent</text><text fill="#000000" font-family="sans-serif" font-size="14" lengthAdjust="spacing" textLength="148" x="595.5" y="698.5117">5.882352941176471</text><line style="stroke:#000000;stroke-width:1.0;" x1="590.5" x2="590.5" y1="682.9766" y2="703.4648"/><rect fill="none" height="61.4648" rx="5" ry="5" style="stroke:#000000;stroke-width:1.5;" width="262" x="486.5" y="642"/><rect fill="#F1F1F1" height="61.4648" rx="5" ry="5" style="stroke:#F1F1F1;stroke-width:1.5;" width="262" x="486.5" y="721"/><text fill="#000000" font-family="sans-serif" font-size="14" font-weight="bold" lengthAdjust="spacing" textLength="78" x="491.5" y="736.5352">field_value</text><text fill="#000000" font-family="sans-serif" font-size="14" lengthAdjust="spacing" textLength="18" x="595.5" y="736.5352">10</text><line style="stroke:#000000;stroke-width:1.0;" x1="590.5" x2="590.5" y1="721" y2="741.4883"/><line style="stroke:#000000;stroke-width:1.0;" x1="486.5" x2="748.5" y1="741.4883" y2="741.4883"/><text fill="#000000" font-family="sans-serif" font-size="14" font-weight="bold" lengthAdjust="spacing" textLength="74" x="491.5" y="757.0234">row_count</text><text fill="#000000" font-family="sans-serif" font-size="14" lengthAdjust="spacing" textLength="9" x="595.5" y="757.0234">1</text><line style="stroke:#000000;stroke-width:1.0;" x1="590.5" x2="590.5" y1="741.4883" y2="761.9766"/><line style="stroke:#000000;stroke-width:1.0;" x1="486.5" x2="748.5" y1="761.9766" y2="761.9766"/><text fill="#000000" font-family="sans-serif" font-size="14" font-weight="bold" lengthAdjust="spacing" textLength="94" x="491.5" y="777.5117">ratio_percent</text><text fill="#000000" font-family="sans-serif" font-size="14" lengthAdjust="spacing" textLength="148" x="595.5" y="777.5117">5.882352941176471</text><line style="stroke:#000000;stroke-width:1.0;" x1="590.5" x2="590.5" y1="761.9766" y2="782.4648"/><rect fill="none" height="61.4648" rx="5" ry="5" style="stroke:#000000;stroke-width:1.5;" width="262" x="486.5" y="721"/><path d="M216,315.5 L229,315.5 C249.8273,315.5 246.8137,295.6507 265,285.5 C269.038,283.2462 273.2733,281.1247 277.6133,279.1338 " fill="none" style="stroke:#000000;stroke-width:1.0;stroke-dasharray:3.0,3.0;"/><path d="M278.8219,281.8909 L279.6812,278.2274 L276.4048,276.3766 L284.5062,276.1124 L278.8219,281.8909 " fill="#000000" style="stroke:#000000;stroke-width:1.0;"/><ellipse cx="216" cy="315.5" fill="#000000" rx="3" ry="3" style="stroke:#000000;stroke-width:1.0;"/><path d="M355.5,303.5 L368.5,303.5 C403.8613,303.5 421.6954,311.1847 446,285.5 C509.8819,217.9906 419.93,148.679 482,79.5 C483.0081,78.3765 484.0463,77.2844 485.1126,76.2231 " fill="none" style="stroke:#000000;stroke-width:1.0;stroke-dasharray:3.0,3.0;"/><path d="M487.1347,78.4455 L486.7795,74.7065 L483.0905,74.0006 L490.6688,71.1678 L487.1347,78.4455 " fill="#000000" style="stroke:#000000;stroke-width:1.0;"/><ellipse cx="355.5" cy="303.5" fill="#000000" rx="3" ry="3" style="stroke:#000000;stroke-width:1.0;"/><path d="M355.5,324.5 L368.5,324.5 C407.0599,324.5 421.4435,315.2295 446,285.5 C483.3625,240.267 440.6193,200.0887 482,158.5 C483.2233,157.2705 484.4828,156.0793 485.7755,154.925 " fill="none" style="stroke:#000000;stroke-width:1.0;stroke-dasharray:3.0,3.0;"/><path d="M487.7064,157.2737 L487.537,153.4769 L483.8447,152.5764 L491.6472,150.0978 L487.7064,157.2737 " fill="#000000" style="stroke:#000000;stroke-width:1.0;"/><ellipse cx="355.5" cy="324.5" fill="#000000" rx="3" ry="3" style="stroke:#000000;stroke-width:1.0;"/><path d="M355.5,344.5 L368.5,344.5 C411.79,344.5 415.4995,316.2205 446,285.5 C464.7883,266.5762 460.0554,252.6508 482,237.5 C484.3464,235.88 486.7599,234.3267 489.2295,232.8373 " fill="none" style="stroke:#000000;stroke-width:1.0;stroke-dasharray:3.0,3.0;"/><path d="M490.7476,235.5016 L491.2277,231.6987 L487.7115,230.173 L495.8903,229.0421 L490.7476,235.5016 " fill="#000000" style="stroke:#000000;stroke-width:1.0;"/><ellipse cx="355.5" cy="344.5" fill="#000000" rx="3" ry="3" style="stroke:#000000;stroke-width:1.0;"/><path d="M355.5,365.5 L368.5,365.5 C423.27,365.5 430.4402,335.9754 482,317.5 C488.5908,315.1383 495.3965,312.8044 502.2867,310.5217 " fill="none" style="stroke:#000000;stroke-width:1.0;stroke-dasharray:3.0,3.0;"/><path d="M503.2691,313.5231 L504.5378,309.7849 L501.3044,307.5203 L509.7903,308.0658 L503.2691,313.5231 " fill="#000000" style="stroke:#000000;stroke-width:1.0;"/><ellipse cx="355.5" cy="365.5" fill="#000000" rx="3" ry="3" style="stroke:#000000;stroke-width:1.0;"/><path d="M355.5,385.5 L368.5,385.5 C402.9249,385.5 439.8526,382.7204 474.4338,378.8823 " fill="none" style="stroke:#000000;stroke-width:1.0;stroke-dasharray:3.0,3.0;"/><path d="M474.7891,382.0038 L476.7749,378.6158 L474.0785,375.7608 L482.2376,377.9941 L474.7891,382.0038 " fill="#000000" style="stroke:#000000;stroke-width:1.0;"/><ellipse cx="355.5" cy="385.5" fill="#000000" rx="3" ry="3" style="stroke:#000000;stroke-width:1.0;"/><path d="M355.5,406.5 L368.5,406.5 C404.4888,406.5 443.213,409.5379 479.1319,413.6472 " fill="none" style="stroke:#000000;stroke-width:1.0;stroke-dasharray:3.0,3.0;"/><path d="M478.7749,416.6952 L481.4179,413.9149 L479.4889,410.5991 L486.752,414.5396 L478.7749,416.6952 " fill="#000000" style="stroke:#000000;stroke-width:1.0;"/><ellipse cx="355.5" cy="406.5" fill="#000000" rx="3" ry="3" style="stroke:#000000;stroke-width:1.0;"/><path d="M355.5,427.5 L368.5,427.5 C423.27,427.5 430.3775,457.2006 482,475.5 C487.867,477.5798 493.9057,479.6324 500.0234,481.6426 " fill="none" style="stroke:#000000;stroke-width:1.0;stroke-dasharray:3.0,3.0;"/><path d="M499.0876,484.5276 L502.1871,482.3445 L500.9592,478.7577 L507.2358,483.9821 L499.0876,484.5276 " fill="#000000" style="stroke:#000000;stroke-width:1.0;"/><ellipse cx="355.5" cy="427.5" fill="#000000" rx="3" ry="3" style="stroke:#000000;stroke-width:1.0;"/><path d="M355.5,447.5 L368.5,447.5 C437.8266,447.5 421.7882,520.1385 482,554.5 C485.1452,556.2949 488.3795,558.0127 491.682,559.6564 " fill="none" style="stroke:#000000;stroke-width:1.0;stroke-dasharray:3.0,3.0;"/><path d="M490.3737,562.4037 L493.7424,560.6377 L492.9903,556.9092 L498.55,562.9272 L490.3737,562.4037 " fill="#000000" style="stroke:#000000;stroke-width:1.0;"/><ellipse cx="355.5" cy="447.5" fill="#000000" rx="3" ry="3" style="stroke:#000000;stroke-width:1.0;"/><path d="M355.5,468.5 L368.5,468.5 C457.508,468.5 409.8044,581.4403 482,633.5 C484.0777,634.9982 486.2121,636.4392 488.395,637.825 " fill="none" style="stroke:#000000;stroke-width:1.0;stroke-dasharray:3.0,3.0;"/><path d="M486.7973,640.4995 L490.4009,639.0233 L489.9928,635.1505 L495.0812,641.8193 L486.7973,640.4995 " fill="#000000" style="stroke:#000000;stroke-width:1.0;"/><ellipse cx="355.5" cy="468.5" fill="#000000" rx="3" ry="3" style="stroke:#000000;stroke-width:1.0;"/><path d="M355.5,488.5 L368.5,488.5 C480.1062,488.5 396.0322,641.3278 482,712.5 C483.7177,713.922 485.4848,715.2923 487.2956,716.6125 " fill="none" style="stroke:#000000;stroke-width:1.0;stroke-dasharray:3.0,3.0;"/><path d="M485.5759,719.1394 L489.1908,717.9023 L489.0153,714.0857 L493.6127,720.9118 L485.5759,719.1394 " fill="#000000" style="stroke:#000000;stroke-width:1.0;"/><ellipse cx="355.5" cy="488.5" fill="#000000" rx="3" ry="3" style="stroke:#000000;stroke-width:1.0;"/><path d="M216,336.5 L229,336.5 C271.1629,336.5 314.1866,364.4055 337.2874,382.1547 " fill="none" style="stroke:#000000;stroke-width:1.0;stroke-dasharray:3.0,3.0;"/><path d="M335.4053,384.5427 L339.0784,383.5663 L339.1695,379.7667 L343.2574,386.86 L335.4053,384.5427 " fill="#000000" style="stroke:#000000;stroke-width:1.0;"/><ellipse cx="216" cy="336.5" fill="#000000" rx="3" ry="3" style="stroke:#000000;stroke-width:1.0;"/><!--MD5=[60371263b509add0ebc086be42f38e5a]
@startjson
{
    "field1": "TerritoryID",
    "combination": "TerritoryID",
    "null_distribution": {
        "total_null_rows": 0,
        "total_not_null_rows": 17
    },
    "data_distribution": [
        {
            "field_value": "1",
            "row_count": 3,
            "ratio_percent": 17.647058823529413
        },
        {
            "field_value": "6",
            "row_count": 3,
            "ratio_percent": 17.647058823529413
        },
        {
            "field_value": "4",
            "row_count": 2,
            "ratio_percent": 11.764705882352942
        },
        {
            "field_value": "3",
            "row_count": 2,
            "ratio_percent": 11.764705882352942
        },
        {
            "field_value": "2",
            "row_count": 2,
            "ratio_percent": 11.764705882352942
        },
        {
            "field_value": "9",
            "row_count": 1,
            "ratio_percent": 5.882352941176471
        },
        {
            "field_value": "8",
            "row_count": 1,
            "ratio_percent": 5.882352941176471
        },
        {
            "field_value": "7",
            "row_count": 1,
            "ratio_percent": 5.882352941176471
        },
        {
            "field_value": "5",
            "row_count": 1,
            "ratio_percent": 5.882352941176471
        },
        {
            "field_value": "10",
            "row_count": 1,
            "ratio_percent": 5.882352941176471
        }
    ]
}
@endjson

PlantUML version 1.2022.5(Sat Apr 30 06:55:52 EDT 2022)
(GPL source distribution)
Java Runtime: OpenJDK Runtime Environment
JVM: OpenJDK 64-Bit Server VM
Default Encoding: UTF-8
Language: en
Country: CA
--></g></svg>