<?xml version="1.0" encoding="UTF-8" standalone="no"?><svg xmlns="http://www.w3.org/2000/svg" xmlns:xlink="http://www.w3.org/1999/xlink" contentStyleType="text/css" height="794px" preserveAspectRatio="none" style="width:875px;height:794px;background:#FFFFFF;" version="1.1" viewBox="0 0 875 794" width="875px" zoomAndPan="magnify"><defs/><g><rect fill="#F1F1F1" height="81.9531" rx="5" ry="5" style="stroke:#F1F1F1;stroke-width:1.5;" width="274" x="10" y="264.5"/><text fill="#000000" font-family="sans-serif" font-size="14" font-weight="bold" lengthAdjust="spacing" textLength="42" x="15" y="280.0352">field1</text><text fill="#000000" font-family="sans-serif" font-size="14" lengthAdjust="spacing" textLength="130" x="149" y="280.0352">SalesOrderNumber</text><line style="stroke:#000000;stroke-width:1.0;" x1="144" x2="144" y1="264.5" y2="284.9883"/><line style="stroke:#000000;stroke-width:1.0;" x1="10" x2="284" y1="284.9883" y2="284.9883"/><text fill="#000000" font-family="sans-serif" font-size="14" font-weight="bold" lengthAdjust="spacing" textLength="90" x="15" y="300.5234">combination</text><text fill="#000000" font-family="sans-serif" font-size="14" lengthAdjust="spacing" textLength="130" x="149" y="300.5234">SalesOrderNumber</text><line style="stroke:#000000;stroke-width:1.0;" x1="144" x2="144" y1="284.9883" y2="305.4766"/><line style="stroke:#000000;stroke-width:1.0;" x1="10" x2="284" y1="305.4766" y2="305.4766"/><text fill="#000000" font-family="sans-serif" font-size="14" font-weight="bold" lengthAdjust="spacing" textLength="121" x="15" y="321.0117">null_distribution</text><text fill="#000000" font-family="sans-serif" font-size="14" lengthAdjust="spacing" textLength="12" x="149" y="321.0117">   </text><line style="stroke:#000000;stroke-width:1.0;" x1="144" x2="144" y1="305.4766" y2="325.9648"/><line style="stroke:#000000;stroke-width:1.0;" x1="10" x2="284" y1="325.9648" y2="325.9648"/><text fill="#000000" font-family="sans-serif" font-size="14" font-weight="bold" lengthAdjust="spacing" textLength="124" x="15" y="341.5">data_distribution</text><text fill="#000000" font-family="sans-serif" font-size="14" lengthAdjust="spacing" textLength="12" x="149" y="341.5">   </text><line style="stroke:#000000;stroke-width:1.0;" x1="144" x2="144" y1="325.9648" y2="346.4531"/><rect fill="none" height="81.9531" rx="5" ry="5" style="stroke:#000000;stroke-width:1.5;" width="274" x="10" y="264.5"/><rect fill="#F1F1F1" height="40.9766" rx="5" ry="5" style="stroke:#F1F1F1;stroke-width:1.5;" width="207" x="321" y="235"/><text fill="#000000" font-family="sans-serif" font-size="14" font-weight="bold" lengthAdjust="spacing" textLength="111" x="326" y="250.5352">total_null_rows</text><text fill="#000000" font-family="sans-serif" font-size="14" lengthAdjust="spacing" textLength="9" x="478" y="250.5352">0</text><line style="stroke:#000000;stroke-width:1.0;" x1="473" x2="473" y1="235" y2="255.4883"/><line style="stroke:#000000;stroke-width:1.0;" x1="321" x2="528" y1="255.4883" y2="255.4883"/><text fill="#000000" font-family="sans-serif" font-size="14" font-weight="bold" lengthAdjust="spacing" textLength="142" x="326" y="271.0234">total_not_null_rows</text><text fill="#000000" font-family="sans-serif" font-size="14" lengthAdjust="spacing" textLength="45" x="478" y="271.0234">31465</text><line style="stroke:#000000;stroke-width:1.0;" x1="473" x2="473" y1="255.4883" y2="275.9766"/><rect fill="none" height="40.9766" rx="5" ry="5" style="stroke:#000000;stroke-width:1.5;" width="207" x="321" y="235"/><rect fill="#F1F1F1" height="204.8828" rx="5" ry="5" style="stroke:#F1F1F1;stroke-width:1.5;" width="22" x="412.5" y="294"/><text fill="#000000" font-family="sans-serif" font-size="14" lengthAdjust="spacing" textLength="12" x="417.5" y="309.5352">   </text><line style="stroke:#000000;stroke-width:1.0;" x1="412.5" x2="434.5" y1="314.4883" y2="314.4883"/><text fill="#000000" font-family="sans-serif" font-size="14" lengthAdjust="spacing" textLength="12" x="417.5" y="330.0234">   </text><line style="stroke:#000000;stroke-width:1.0;" x1="412.5" x2="434.5" y1="334.9766" y2="334.9766"/><text fill="#000000" font-family="sans-serif" font-size="14" lengthAdjust="spacing" textLength="12" x="417.5" y="350.5117">   </text><line style="stroke:#000000;stroke-width:1.0;" x1="412.5" x2="434.5" y1="355.4648" y2="355.4648"/><text fill="#000000" font-family="sans-serif" font-size="14" lengthAdjust="spacing" textLength="12" x="417.5" y="371">   </text><line style="stroke:#000000;stroke-width:1.0;" x1="412.5" x2="434.5" y1="375.9531" y2="375.9531"/><text fill="#000000" font-family="sans-serif" font-size="14" lengthAdjust="spacing" textLength="12" x="417.5" y="391.4883">   </text><line style="stroke:#000000;stroke-width:1.0;" x1="412.5" x2="434.5" y1="396.4414" y2="396.4414"/><text fill="#000000" font-family="sans-serif" font-size="14" lengthAdjust="spacing" textLength="12" x="417.5" y="411.9766">   </text><line style="stroke:#000000;stroke-width:1.0;" x1="412.5" x2="434.5" y1="416.9297" y2="416.9297"/><text fill="#000000" font-family="sans-serif" font-size="14" lengthAdjust="spacing" textLength="12" x="417.5" y="432.4648">   </text><line style="stroke:#000000;stroke-width:1.0;" x1="412.5" x2="434.5" y1="437.418" y2="437.418"/><text fill="#000000" font-family="sans-serif" font-size="14" lengthAdjust="spacing" textLength="12" x="417.5" y="452.9531">   </text><line style="stroke:#000000;stroke-width:1.0;" x1="412.5" x2="434.5" y1="457.9063" y2="457.9063"/><text fill="#000000" font-family="sans-serif" font-size="14" lengthAdjust="spacing" textLength="12" x="417.5" y="473.4414">   </text><line style="stroke:#000000;stroke-width:1.0;" x1="412.5" x2="434.5" y1="478.3945" y2="478.3945"/><text fill="#000000" font-family="sans-serif" font-size="14" lengthAdjust="spacing" textLength="12" x="417.5" y="493.9297">   </text><rect fill="none" height="204.8828" rx="5" ry="5" style="stroke:#000000;stroke-width:1.5;" width="22" x="412.5" y="294"/><rect fill="#F1F1F1" height="61.4648" rx="5" ry="5" style="stroke:#F1F1F1;stroke-width:1.5;" width="298" x="565" y="10"/><text fill="#000000" font-family="sans-serif" font-size="14" font-weight="bold" lengthAdjust="spacing" textLength="78" x="570" y="25.5352">field_value</text><text fill="#000000" font-family="sans-serif" font-size="14" lengthAdjust="spacing" textLength="64" x="674" y="25.5352">SO43669</text><line style="stroke:#000000;stroke-width:1.0;" x1="669" x2="669" y1="10" y2="30.4883"/><line style="stroke:#000000;stroke-width:1.0;" x1="565" x2="863" y1="30.4883" y2="30.4883"/><text fill="#000000" font-family="sans-serif" font-size="14" font-weight="bold" lengthAdjust="spacing" textLength="74" x="570" y="46.0234">row_count</text><text fill="#000000" font-family="sans-serif" font-size="14" lengthAdjust="spacing" textLength="9" x="674" y="46.0234">1</text><line style="stroke:#000000;stroke-width:1.0;" x1="669" x2="669" y1="30.4883" y2="50.9766"/><line style="stroke:#000000;stroke-width:1.0;" x1="565" x2="863" y1="50.9766" y2="50.9766"/><text fill="#000000" font-family="sans-serif" font-size="14" font-weight="bold" lengthAdjust="spacing" textLength="94" x="570" y="66.5117">ratio_percent</text><text fill="#000000" font-family="sans-serif" font-size="14" lengthAdjust="spacing" textLength="184" x="674" y="66.5117">0.0031781344350866043</text><line style="stroke:#000000;stroke-width:1.0;" x1="669" x2="669" y1="50.9766" y2="71.4648"/><rect fill="none" height="61.4648" rx="5" ry="5" style="stroke:#000000;stroke-width:1.5;" width="298" x="565" y="10"/><rect fill="#F1F1F1" height="61.4648" rx="5" ry="5" style="stroke:#F1F1F1;stroke-width:1.5;" width="298" x="565" y="89"/><text fill="#000000" font-family="sans-serif" font-size="14" font-weight="bold" lengthAdjust="spacing" textLength="78" x="570" y="104.5352">field_value</text><text fill="#000000" font-family="sans-serif" font-size="14" lengthAdjust="spacing" textLength="64" x="674" y="104.5352">SO43668</text><line style="stroke:#000000;stroke-width:1.0;" x1="669" x2="669" y1="89" y2="109.4883"/><line style="stroke:#000000;stroke-width:1.0;" x1="565" x2="863" y1="109.4883" y2="109.4883"/><text fill="#000000" font-family="sans-serif" font-size="14" font-weight="bold" lengthAdjust="spacing" textLength="74" x="570" y="125.0234">row_count</text><text fill="#000000" font-family="sans-serif" font-size="14" lengthAdjust="spacing" textLength="9" x="674" y="125.0234">1</text><line style="stroke:#000000;stroke-width:1.0;" x1="669" x2="669" y1="109.4883" y2="129.9766"/><line style="stroke:#000000;stroke-width:1.0;" x1="565" x2="863" y1="129.9766" y2="129.9766"/><text fill="#000000" font-family="sans-serif" font-size="14" font-weight="bold" lengthAdjust="spacing" textLength="94" x="570" y="145.5117">ratio_percent</text><text fill="#000000" font-family="sans-serif" font-size="14" lengthAdjust="spacing" textLength="184" x="674" y="145.5117">0.0031781344350866043</text><line style="stroke:#000000;stroke-width:1.0;" x1="669" x2="669" y1="129.9766" y2="150.4648"/><rect fill="none" height="61.4648" rx="5" ry="5" style="stroke:#000000;stroke-width:1.5;" width="298" x="565" y="89"/><rect fill="#F1F1F1" height="61.4648" rx="5" ry="5" style="stroke:#F1F1F1;stroke-width:1.5;" width="298" x="565" y="168"/><text fill="#000000" font-family="sans-serif" font-size="14" font-weight="bold" lengthAdjust="spacing" textLength="78" x="570" y="183.5352">field_value</text><text fill="#000000" font-family="sans-serif" font-size="14" lengthAdjust="spacing" textLength="64" x="674" y="183.5352">SO43667</text><line style="stroke:#000000;stroke-width:1.0;" x1="669" x2="669" y1="168" y2="188.4883"/><line style="stroke:#000000;stroke-width:1.0;" x1="565" x2="863" y1="188.4883" y2="188.4883"/><text fill="#000000" font-family="sans-serif" font-size="14" font-weight="bold" lengthAdjust="spacing" textLength="74" x="570" y="204.0234">row_count</text><text fill="#000000" font-family="sans-serif" font-size="14" lengthAdjust="spacing" textLength="9" x="674" y="204.0234">1</text><line style="stroke:#000000;stroke-width:1.0;" x1="669" x2="669" y1="188.4883" y2="208.9766"/><line style="stroke:#000000;stroke-width:1.0;" x1="565" x2="863" y1="208.9766" y2="208.9766"/><text fill="#000000" font-family="sans-serif" font-size="14" font-weight="bold" lengthAdjust="spacing" textLength="94" x="570" y="224.5117">ratio_percent</text><text fill="#000000" font-family="sans-serif" font-size="14" lengthAdjust="spacing" textLength="184" x="674" y="224.5117">0.0031781344350866043</text><line style="stroke:#000000;stroke-width:1.0;" x1="669" x2="669" y1="208.9766" y2="229.4648"/><rect fill="none" height="61.4648" rx="5" ry="5" style="stroke:#000000;stroke-width:1.5;" width="298" x="565" y="168"/><rect fill="#F1F1F1" height="61.4648" rx="5" ry="5" style="stroke:#F1F1F1;stroke-width:1.5;" width="298" x="565" y="247"/><text fill="#000000" font-family="sans-serif" font-size="14" font-weight="bold" lengthAdjust="spacing" textLength="78" x="570" y="262.5352">field_value</text><text fill="#000000" font-family="sans-serif" font-size="14" lengthAdjust="spacing" textLength="64" x="674" y="262.5352">SO43666</text><line style="stroke:#000000;stroke-width:1.0;" x1="669" x2="669" y1="247" y2="267.4883"/><line style="stroke:#000000;stroke-width:1.0;" x1="565" x2="863" y1="267.4883" y2="267.4883"/><text fill="#000000" font-family="sans-serif" font-size="14" font-weight="bold" lengthAdjust="spacing" textLength="74" x="570" y="283.0234">row_count</text><text fill="#000000" font-family="sans-serif" font-size="14" lengthAdjust="spacing" textLength="9" x="674" y="283.0234">1</text><line style="stroke:#000000;stroke-width:1.0;" x1="669" x2="669" y1="267.4883" y2="287.9766"/><line style="stroke:#000000;stroke-width:1.0;" x1="565" x2="863" y1="287.9766" y2="287.9766"/><text fill="#000000" font-family="sans-serif" font-size="14" font-weight="bold" lengthAdjust="spacing" textLength="94" x="570" y="303.5117">ratio_percent</text><text fill="#000000" font-family="sans-serif" font-size="14" lengthAdjust="spacing" textLength="184" x="674" y="303.5117">0.0031781344350866043</text><line style="stroke:#000000;stroke-width:1.0;" x1="669" x2="669" y1="287.9766" y2="308.4648"/><rect fill="none" height="61.4648" rx="5" ry="5" style="stroke:#000000;stroke-width:1.5;" width="298" x="565" y="247"/><rect fill="#F1F1F1" height="61.4648" rx="5" ry="5" style="stroke:#F1F1F1;stroke-width:1.5;" width="298" x="565" y="326"/><text fill="#000000" font-family="sans-serif" font-size="14" font-weight="bold" lengthAdjust="spacing" textLength="78" x="570" y="341.5352">field_value</text><text fill="#000000" font-family="sans-serif" font-size="14" lengthAdjust="spacing" textLength="64" x="674" y="341.5352">SO43665</text><line style="stroke:#000000;stroke-width:1.0;" x1="669" x2="669" y1="326" y2="346.4883"/><line style="stroke:#000000;stroke-width:1.0;" x1="565" x2="863" y1="346.4883" y2="346.4883"/><text fill="#000000" font-family="sans-serif" font-size="14" font-weight="bold" lengthAdjust="spacing" textLength="74" x="570" y="362.0234">row_count</text><text fill="#000000" font-family="sans-serif" font-size="14" lengthAdjust="spacing" textLength="9" x="674" y="362.0234">1</text><line style="stroke:#000000;stroke-width:1.0;" x1="669" x2="669" y1="346.4883" y2="366.9766"/><line style="stroke:#000000;stroke-width:1.0;" x1="565" x2="863" y1="366.9766" y2="366.9766"/><text fill="#000000" font-family="sans-serif" font-size="14" font-weight="bold" lengthAdjust="spacing" textLength="94" x="570" y="382.5117">ratio_percent</text><text fill="#000000" font-family="sans-serif" font-size="14" lengthAdjust="spacing" textLength="184" x="674" y="382.5117">0.0031781344350866043</text><line style="stroke:#000000;stroke-width:1.0;" x1="669" x2="669" y1="366.9766" y2="387.4648"/><rect fill="none" height="61.4648" rx="5" ry="5" style="stroke:#000000;stroke-width:1.5;" width="298" x="565" y="326"/><rect fill="#F1F1F1" height="61.4648" rx="5" ry="5" style="stroke:#F1F1F1;stroke-width:1.5;" width="298" x="565" y="405"/><text fill="#000000" font-family="sans-serif" font-size="14" font-weight="bold" lengthAdjust="spacing" textLength="78" x="570" y="420.5352">field_value</text><text fill="#000000" font-family="sans-serif" font-size="14" lengthAdjust="spacing" textLength="64" x="674" y="420.5352">SO43664</text><line style="stroke:#000000;stroke-width:1.0;" x1="669" x2="669" y1="405" y2="425.4883"/><line style="stroke:#000000;stroke-width:1.0;" x1="565" x2="863" y1="425.4883" y2="425.4883"/><text fill="#000000" font-family="sans-serif" font-size="14" font-weight="bold" lengthAdjust="spacing" textLength="74" x="570" y="441.0234">row_count</text><text fill="#000000" font-family="sans-serif" font-size="14" lengthAdjust="spacing" textLength="9" x="674" y="441.0234">1</text><line style="stroke:#000000;stroke-width:1.0;" x1="669" x2="669" y1="425.4883" y2="445.9766"/><line style="stroke:#000000;stroke-width:1.0;" x1="565" x2="863" y1="445.9766" y2="445.9766"/><text fill="#000000" font-family="sans-serif" font-size="14" font-weight="bold" lengthAdjust="spacing" textLength="94" x="570" y="461.5117">ratio_percent</text><text fill="#000000" font-family="sans-serif" font-size="14" lengthAdjust="spacing" textLength="184" x="674" y="461.5117">0.0031781344350866043</text><line style="stroke:#000000;stroke-width:1.0;" x1="669" x2="669" y1="445.9766" y2="466.4648"/><rect fill="none" height="61.4648" rx="5" ry="5" style="stroke:#000000;stroke-width:1.5;" width="298" x="565" y="405"/><rect fill="#F1F1F1" height="61.4648" rx="5" ry="5" style="stroke:#F1F1F1;stroke-width:1.5;" width="298" x="565" y="484"/><text fill="#000000" font-family="sans-serif" font-size="14" font-weight="bold" lengthAdjust="spacing" textLength="78" x="570" y="499.5352">field_value</text><text fill="#000000" font-family="sans-serif" font-size="14" lengthAdjust="spacing" textLength="64" x="674" y="499.5352">SO43663</text><line style="stroke:#000000;stroke-width:1.0;" x1="669" x2="669" y1="484" y2="504.4883"/><line style="stroke:#000000;stroke-width:1.0;" x1="565" x2="863" y1="504.4883" y2="504.4883"/><text fill="#000000" font-family="sans-serif" font-size="14" font-weight="bold" lengthAdjust="spacing" textLength="74" x="570" y="520.0234">row_count</text><text fill="#000000" font-family="sans-serif" font-size="14" lengthAdjust="spacing" textLength="9" x="674" y="520.0234">1</text><line style="stroke:#000000;stroke-width:1.0;" x1="669" x2="669" y1="504.4883" y2="524.9766"/><line style="stroke:#000000;stroke-width:1.0;" x1="565" x2="863" y1="524.9766" y2="524.9766"/><text fill="#000000" font-family="sans-serif" font-size="14" font-weight="bold" lengthAdjust="spacing" textLength="94" x="570" y="540.5117">ratio_percent</text><text fill="#000000" font-family="sans-serif" font-size="14" lengthAdjust="spacing" textLength="184" x="674" y="540.5117">0.0031781344350866043</text><line style="stroke:#000000;stroke-width:1.0;" x1="669" x2="669" y1="524.9766" y2="545.4648"/><rect fill="none" height="61.4648" rx="5" ry="5" style="stroke:#000000;stroke-width:1.5;" width="298" x="565" y="484"/><rect fill="#F1F1F1" height="61.4648" rx="5" ry="5" style="stroke:#F1F1F1;stroke-width:1.5;" width="298" x="565" y="563"/><text fill="#000000" font-family="sans-serif" font-size="14" font-weight="bold" lengthAdjust="spacing" textLength="78" x="570" y="578.5352">field_value</text><text fill="#000000" font-family="sans-serif" font-size="14" lengthAdjust="spacing" textLength="64" x="674" y="578.5352">SO43662</text><line style="stroke:#000000;stroke-width:1.0;" x1="669" x2="669" y1="563" y2="583.4883"/><line style="stroke:#000000;stroke-width:1.0;" x1="565" x2="863" y1="583.4883" y2="583.4883"/><text fill="#000000" font-family="sans-serif" font-size="14" font-weight="bold" lengthAdjust="spacing" textLength="74" x="570" y="599.0234">row_count</text><text fill="#000000" font-family="sans-serif" font-size="14" lengthAdjust="spacing" textLength="9" x="674" y="599.0234">1</text><line style="stroke:#000000;stroke-width:1.0;" x1="669" x2="669" y1="583.4883" y2="603.9766"/><line style="stroke:#000000;stroke-width:1.0;" x1="565" x2="863" y1="603.9766" y2="603.9766"/><text fill="#000000" font-family="sans-serif" font-size="14" font-weight="bold" lengthAdjust="spacing" textLength="94" x="570" y="619.5117">ratio_percent</text><text fill="#000000" font-family="sans-serif" font-size="14" lengthAdjust="spacing" textLength="184" x="674" y="619.5117">0.0031781344350866043</text><line style="stroke:#000000;stroke-width:1.0;" x1="669" x2="669" y1="603.9766" y2="624.4648"/><rect fill="none" height="61.4648" rx="5" ry="5" style="stroke:#000000;stroke-width:1.5;" width="298" x="565" y="563"/><rect fill="#F1F1F1" height="61.4648" rx="5" ry="5" style="stroke:#F1F1F1;stroke-width:1.5;" width="298" x="565" y="642"/><text fill="#000000" font-family="sans-serif" font-size="14" font-weight="bold" lengthAdjust="spacing" textLength="78" x="570" y="657.5352">field_value</text><text fill="#000000" font-family="sans-serif" font-size="14" lengthAdjust="spacing" textLength="64" x="674" y="657.5352">SO43661</text><line style="stroke:#000000;stroke-width:1.0;" x1="669" x2="669" y1="642" y2="662.4883"/><line style="stroke:#000000;stroke-width:1.0;" x1="565" x2="863" y1="662.4883" y2="662.4883"/><text fill="#000000" font-family="sans-serif" font-size="14" font-weight="bold" lengthAdjust="spacing" textLength="74" x="570" y="678.0234">row_count</text><text fill="#000000" font-family="sans-serif" font-size="14" lengthAdjust="spacing" textLength="9" x="674" y="678.0234">1</text><line style="stroke:#000000;stroke-width:1.0;" x1="669" x2="669" y1="662.4883" y2="682.9766"/><line style="stroke:#000000;stroke-width:1.0;" x1="565" x2="863" y1="682.9766" y2="682.9766"/><text fill="#000000" font-family="sans-serif" font-size="14" font-weight="bold" lengthAdjust="spacing" textLength="94" x="570" y="698.5117">ratio_percent</text><text fill="#000000" font-family="sans-serif" font-size="14" lengthAdjust="spacing" textLength="184" x="674" y="698.5117">0.0031781344350866043</text><line style="stroke:#000000;stroke-width:1.0;" x1="669" x2="669" y1="682.9766" y2="703.4648"/><rect fill="none" height="61.4648" rx="5" ry="5" style="stroke:#000000;stroke-width:1.5;" width="298" x="565" y="642"/><rect fill="#F1F1F1" height="61.4648" rx="5" ry="5" style="stroke:#F1F1F1;stroke-width:1.5;" width="298" x="565" y="721"/><text fill="#000000" font-family="sans-serif" font-size="14" font-weight="bold" lengthAdjust="spacing" textLength="78" x="570" y="736.5352">field_value</text><text fill="#000000" font-family="sans-serif" font-size="14" lengthAdjust="spacing" textLength="64" x="674" y="736.5352">SO43660</text><line style="stroke:#000000;stroke-width:1.0;" x1="669" x2="669" y1="721" y2="741.4883"/><line style="stroke:#000000;stroke-width:1.0;" x1="565" x2="863" y1="741.4883" y2="741.4883"/><text fill="#000000" font-family="sans-serif" font-size="14" font-weight="bold" lengthAdjust="spacing" textLength="74" x="570" y="757.0234">row_count</text><text fill="#000000" font-family="sans-serif" font-size="14" lengthAdjust="spacing" textLength="9" x="674" y="757.0234">1</text><line style="stroke:#000000;stroke-width:1.0;" x1="669" x2="669" y1="741.4883" y2="761.9766"/><line style="stroke:#000000;stroke-width:1.0;" x1="565" x2="863" y1="761.9766" y2="761.9766"/><text fill="#000000" font-family="sans-serif" font-size="14" font-weight="bold" lengthAdjust="spacing" textLength="94" x="570" y="777.5117">ratio_percent</text><text fill="#000000" font-family="sans-serif" font-size="14" lengthAdjust="spacing" textLength="184" x="674" y="777.5117">0.0031781344350866043</text><line style="stroke:#000000;stroke-width:1.0;" x1="669" x2="669" y1="761.9766" y2="782.4648"/><rect fill="none" height="61.4648" rx="5" ry="5" style="stroke:#000000;stroke-width:1.5;" width="298" x="565" y="721"/><path d="M272,315.5 L285,315.5 C305.8273,315.5 302.6143,295.285 321,285.5 C325.4187,283.1484 330.0447,280.9598 334.7859,278.9261 " fill="none" style="stroke:#000000;stroke-width:1.0;stroke-dasharray:3.0,3.0;"/><path d="M335.9339,281.7334 L336.8914,278.0652 L333.638,276.1189 L341.804,276.0563 L335.9339,281.7334 " fill="#000000" style="stroke:#000000;stroke-width:1.0;"/><ellipse cx="272" cy="315.5" fill="#000000" rx="3" ry="3" style="stroke:#000000;stroke-width:1.0;"/><path d="M425,303.5 L438,303.5 C479.2281,303.5 500.1738,314.9755 529,285.5 C593.9848,219.0516 502.0904,147.9164 565,79.5 C566.0487,78.3595 567.1263,77.2507 568.231,76.1727 " fill="none" style="stroke:#000000;stroke-width:1.0;stroke-dasharray:3.0,3.0;"/><path d="M570.2858,78.469 L569.9532,74.6317 L566.1763,73.8765 L573.9716,71.0358 L570.2858,78.469 " fill="#000000" style="stroke:#000000;stroke-width:1.0;"/><ellipse cx="425" cy="303.5" fill="#000000" rx="3" ry="3" style="stroke:#000000;stroke-width:1.0;"/><path d="M425,324.5 L438,324.5 C482.0022,324.5 499.9505,318.5503 529,285.5 C567.7318,241.4339 523.1149,199.5806 565,158.5 C566.237,157.2868 567.5068,156.1101 568.8072,154.9687 " fill="none" style="stroke:#000000;stroke-width:1.0;stroke-dasharray:3.0,3.0;"/><path d="M570.7195,157.3243 L570.5738,153.5345 L566.8948,152.6132 L574.6961,150.1879 L570.7195,157.3243 " fill="#000000" style="stroke:#000000;stroke-width:1.0;"/><ellipse cx="425" cy="324.5" fill="#000000" rx="3" ry="3" style="stroke:#000000;stroke-width:1.0;"/><path d="M425,344.5 L438,344.5 C486.2012,344.5 493.773,318.4001 529,285.5 C548.4889,267.2985 542.8722,252.3819 565,237.5 C567.4088,235.8799 569.8815,234.3271 572.4082,232.8388 " fill="none" style="stroke:#000000;stroke-width:1.0;stroke-dasharray:3.0,3.0;"/><path d="M573.9246,235.5619 L574.4505,231.7015 L570.8917,230.1158 L579.2158,229.0478 L573.9246,235.5619 " fill="#000000" style="stroke:#000000;stroke-width:1.0;"/><ellipse cx="425" cy="344.5" fill="#000000" rx="3" ry="3" style="stroke:#000000;stroke-width:1.0;"/><path d="M425,365.5 L438,365.5 C498.3414,365.5 507.5762,336.0361 565,317.5 C572.587,315.0509 580.4244,312.629 588.3506,310.2612 " fill="none" style="stroke:#000000;stroke-width:1.0;stroke-dasharray:3.0,3.0;"/><path d="M589.214,313.181 L590.5404,309.6137 L587.4872,307.3414 L595.6501,308.1027 L589.214,313.181 " fill="#000000" style="stroke:#000000;stroke-width:1.0;"/><ellipse cx="425" cy="365.5" fill="#000000" rx="3" ry="3" style="stroke:#000000;stroke-width:1.0;"/><path d="M425,385.5 L438,385.5 C476.8886,385.5 518.6962,382.6068 557.699,378.6481 " fill="none" style="stroke:#000000;stroke-width:1.0;stroke-dasharray:3.0,3.0;"/><path d="M558.0211,381.7527 L560.0274,378.4064 L557.3768,375.5435 L565.4605,377.8427 L558.0211,381.7527 " fill="#000000" style="stroke:#000000;stroke-width:1.0;"/><ellipse cx="425" cy="385.5" fill="#000000" rx="3" ry="3" style="stroke:#000000;stroke-width:1.0;"/><path d="M425,406.5 L438,406.5 C476.8886,406.5 518.6962,409.3932 557.699,413.3519 " fill="none" style="stroke:#000000;stroke-width:1.0;stroke-dasharray:3.0,3.0;"/><path d="M557.3768,416.4565 L560.0274,413.5936 L558.0211,410.2473 L565.4605,414.1573 L557.3768,416.4565 " fill="#000000" style="stroke:#000000;stroke-width:1.0;"/><ellipse cx="425" cy="406.5" fill="#000000" rx="3" ry="3" style="stroke:#000000;stroke-width:1.0;"/><path d="M425,427.5 L438,427.5 C498.3414,427.5 507.5181,457.1445 565,475.5 C571.6199,477.6139 578.4315,479.7017 585.3272,481.7468 " fill="none" style="stroke:#000000;stroke-width:1.0;stroke-dasharray:3.0,3.0;"/><path d="M584.4465,484.751 L587.5803,482.4073 L586.2078,478.7426 L592.8376,483.9484 L584.4465,484.751 " fill="#000000" style="stroke:#000000;stroke-width:1.0;"/><ellipse cx="425" cy="427.5" fill="#000000" rx="3" ry="3" style="stroke:#000000;stroke-width:1.0;"/><path d="M425,447.5 L438,447.5 C511.8072,447.5 499.4817,520.5169 565,554.5 C568.6232,556.3793 572.3443,558.1733 576.1386,559.8855 " fill="none" style="stroke:#000000;stroke-width:1.0;stroke-dasharray:3.0,3.0;"/><path d="M574.9409,562.6469 L578.2096,560.7839 L577.3364,557.1242 L583.042,562.8799 L574.9409,562.6469 " fill="#000000" style="stroke:#000000;stroke-width:1.0;"/><ellipse cx="425" cy="447.5" fill="#000000" rx="3" ry="3" style="stroke:#000000;stroke-width:1.0;"/><path d="M425,468.5 L438,468.5 C530.5405,468.5 487.8896,582.3361 565,633.5 C567.4189,635.105 569.9008,636.644 572.4358,638.1197 " fill="none" style="stroke:#000000;stroke-width:1.0;stroke-dasharray:3.0,3.0;"/><path d="M570.9317,640.851 L574.4843,639.2479 L573.94,635.3885 L579.2639,641.8802 L570.9317,640.851 " fill="#000000" style="stroke:#000000;stroke-width:1.0;"/><ellipse cx="425" cy="468.5" fill="#000000" rx="3" ry="3" style="stroke:#000000;stroke-width:1.0;"/><path d="M425,488.5 L438,488.5 C552.4434,488.5 474.3054,642.7019 565,712.5 C566.8319,713.9098 568.71,715.2688 570.6292,716.5789 " fill="none" style="stroke:#000000;stroke-width:1.0;stroke-dasharray:3.0,3.0;"/><path d="M568.9219,719.2493 L572.632,717.8594 L572.3366,713.9085 L577.3051,720.8473 L568.9219,719.2493 " fill="#000000" style="stroke:#000000;stroke-width:1.0;"/><ellipse cx="425" cy="488.5" fill="#000000" rx="3" ry="3" style="stroke:#000000;stroke-width:1.0;"/><path d="M272,336.5 L285,336.5 C332.0497,336.5 381.2629,365.8357 406.6101,383.482 " fill="none" style="stroke:#000000;stroke-width:1.0;stroke-dasharray:3.0,3.0;"/><path d="M404.8416,385.964 L408.4716,384.8085 L408.3787,381.0001 L412.815,387.9035 L404.8416,385.964 " fill="#000000" style="stroke:#000000;stroke-width:1.0;"/><ellipse cx="272" cy="336.5" fill="#000000" rx="3" ry="3" style="stroke:#000000;stroke-width:1.0;"/><!--MD5=[301f2609691aa8f7025439ed999d413c]
@startjson
{
    "field1": "SalesOrderNumber",
    "combination": "SalesOrderNumber",
    "null_distribution": {
        "total_null_rows": 0,
        "total_not_null_rows": 31465
    },
    "data_distribution": [
        {
            "field_value": "SO43669",
            "row_count": 1,
            "ratio_percent": 0.0031781344350866043
        },
        {
            "field_value": "SO43668",
            "row_count": 1,
            "ratio_percent": 0.0031781344350866043
        },
        {
            "field_value": "SO43667",
            "row_count": 1,
            "ratio_percent": 0.0031781344350866043
        },
        {
            "field_value": "SO43666",
            "row_count": 1,
            "ratio_percent": 0.0031781344350866043
        },
        {
            "field_value": "SO43665",
            "row_count": 1,
            "ratio_percent": 0.0031781344350866043
        },
        {
            "field_value": "SO43664",
            "row_count": 1,
            "ratio_percent": 0.0031781344350866043
        },
        {
            "field_value": "SO43663",
            "row_count": 1,
            "ratio_percent": 0.0031781344350866043
        },
        {
            "field_value": "SO43662",
            "row_count": 1,
            "ratio_percent": 0.0031781344350866043
        },
        {
            "field_value": "SO43661",
            "row_count": 1,
            "ratio_percent": 0.0031781344350866043
        },
        {
            "field_value": "SO43660",
            "row_count": 1,
            "ratio_percent": 0.0031781344350866043
        }
    ]
}
@endjson

PlantUML version 1.2022.5(Sat Apr 30 06:55:52 EDT 2022)
(GPL source distribution)
Java Runtime: OpenJDK Runtime Environment
JVM: OpenJDK 64-Bit Server VM
Default Encoding: UTF-8
Language: en
Country: CA
--></g></svg>