<?xml version="1.0" encoding="UTF-8" standalone="no"?><svg xmlns="http://www.w3.org/2000/svg" xmlns:xlink="http://www.w3.org/1999/xlink" contentStyleType="text/css" height="794px" preserveAspectRatio="none" style="width:786px;height:794px;background:#FFFFFF;" version="1.1" viewBox="0 0 786 794" width="786px" zoomAndPan="magnify"><defs/><g><rect fill="#F1F1F1" height="81.9531" rx="5" ry="5" style="stroke:#F1F1F1;stroke-width:1.5;" width="194" x="10" y="264.5"/><text fill="#000000" font-family="sans-serif" font-size="14" font-weight="bold" lengthAdjust="spacing" textLength="42" x="15" y="280.0352">field1</text><text fill="#000000" font-family="sans-serif" font-size="14" lengthAdjust="spacing" textLength="50" x="149" y="280.0352">StoreID</text><line style="stroke:#000000;stroke-width:1.0;" x1="144" x2="144" y1="264.5" y2="284.9883"/><line style="stroke:#000000;stroke-width:1.0;" x1="10" x2="204" y1="284.9883" y2="284.9883"/><text fill="#000000" font-family="sans-serif" font-size="14" font-weight="bold" lengthAdjust="spacing" textLength="90" x="15" y="300.5234">combination</text><text fill="#000000" font-family="sans-serif" font-size="14" lengthAdjust="spacing" textLength="50" x="149" y="300.5234">StoreID</text><line style="stroke:#000000;stroke-width:1.0;" x1="144" x2="144" y1="284.9883" y2="305.4766"/><line style="stroke:#000000;stroke-width:1.0;" x1="10" x2="204" y1="305.4766" y2="305.4766"/><text fill="#000000" font-family="sans-serif" font-size="14" font-weight="bold" lengthAdjust="spacing" textLength="121" x="15" y="321.0117">null_distribution</text><text fill="#000000" font-family="sans-serif" font-size="14" lengthAdjust="spacing" textLength="12" x="149" y="321.0117">   </text><line style="stroke:#000000;stroke-width:1.0;" x1="144" x2="144" y1="305.4766" y2="325.9648"/><line style="stroke:#000000;stroke-width:1.0;" x1="10" x2="204" y1="325.9648" y2="325.9648"/><text fill="#000000" font-family="sans-serif" font-size="14" font-weight="bold" lengthAdjust="spacing" textLength="124" x="15" y="341.5">data_distribution</text><text fill="#000000" font-family="sans-serif" font-size="14" lengthAdjust="spacing" textLength="12" x="149" y="341.5">   </text><line style="stroke:#000000;stroke-width:1.0;" x1="144" x2="144" y1="325.9648" y2="346.4531"/><rect fill="none" height="81.9531" rx="5" ry="5" style="stroke:#000000;stroke-width:1.5;" width="194" x="10" y="264.5"/><rect fill="#F1F1F1" height="40.9766" rx="5" ry="5" style="stroke:#F1F1F1;stroke-width:1.5;" width="207" x="241" y="235"/><text fill="#000000" font-family="sans-serif" font-size="14" font-weight="bold" lengthAdjust="spacing" textLength="111" x="246" y="250.5352">total_null_rows</text><text fill="#000000" font-family="sans-serif" font-size="14" lengthAdjust="spacing" textLength="45" x="398" y="250.5352">18484</text><line style="stroke:#000000;stroke-width:1.0;" x1="393" x2="393" y1="235" y2="255.4883"/><line style="stroke:#000000;stroke-width:1.0;" x1="241" x2="448" y1="255.4883" y2="255.4883"/><text fill="#000000" font-family="sans-serif" font-size="14" font-weight="bold" lengthAdjust="spacing" textLength="142" x="246" y="271.0234">total_not_null_rows</text><text fill="#000000" font-family="sans-serif" font-size="14" lengthAdjust="spacing" textLength="36" x="398" y="271.0234">1336</text><line style="stroke:#000000;stroke-width:1.0;" x1="393" x2="393" y1="255.4883" y2="275.9766"/><rect fill="none" height="40.9766" rx="5" ry="5" style="stroke:#000000;stroke-width:1.5;" width="207" x="241" y="235"/><rect fill="#F1F1F1" height="204.8828" rx="5" ry="5" style="stroke:#F1F1F1;stroke-width:1.5;" width="22" x="332.5" y="294"/><text fill="#000000" font-family="sans-serif" font-size="14" lengthAdjust="spacing" textLength="12" x="337.5" y="309.5352">   </text><line style="stroke:#000000;stroke-width:1.0;" x1="332.5" x2="354.5" y1="314.4883" y2="314.4883"/><text fill="#000000" font-family="sans-serif" font-size="14" lengthAdjust="spacing" textLength="12" x="337.5" y="330.0234">   </text><line style="stroke:#000000;stroke-width:1.0;" x1="332.5" x2="354.5" y1="334.9766" y2="334.9766"/><text fill="#000000" font-family="sans-serif" font-size="14" lengthAdjust="spacing" textLength="12" x="337.5" y="350.5117">   </text><line style="stroke:#000000;stroke-width:1.0;" x1="332.5" x2="354.5" y1="355.4648" y2="355.4648"/><text fill="#000000" font-family="sans-serif" font-size="14" lengthAdjust="spacing" textLength="12" x="337.5" y="371">   </text><line style="stroke:#000000;stroke-width:1.0;" x1="332.5" x2="354.5" y1="375.9531" y2="375.9531"/><text fill="#000000" font-family="sans-serif" font-size="14" lengthAdjust="spacing" textLength="12" x="337.5" y="391.4883">   </text><line style="stroke:#000000;stroke-width:1.0;" x1="332.5" x2="354.5" y1="396.4414" y2="396.4414"/><text fill="#000000" font-family="sans-serif" font-size="14" lengthAdjust="spacing" textLength="12" x="337.5" y="411.9766">   </text><line style="stroke:#000000;stroke-width:1.0;" x1="332.5" x2="354.5" y1="416.9297" y2="416.9297"/><text fill="#000000" font-family="sans-serif" font-size="14" lengthAdjust="spacing" textLength="12" x="337.5" y="432.4648">   </text><line style="stroke:#000000;stroke-width:1.0;" x1="332.5" x2="354.5" y1="437.418" y2="437.418"/><text fill="#000000" font-family="sans-serif" font-size="14" lengthAdjust="spacing" textLength="12" x="337.5" y="452.9531">   </text><line style="stroke:#000000;stroke-width:1.0;" x1="332.5" x2="354.5" y1="457.9063" y2="457.9063"/><text fill="#000000" font-family="sans-serif" font-size="14" lengthAdjust="spacing" textLength="12" x="337.5" y="473.4414">   </text><line style="stroke:#000000;stroke-width:1.0;" x1="332.5" x2="354.5" y1="478.3945" y2="478.3945"/><text fill="#000000" font-family="sans-serif" font-size="14" lengthAdjust="spacing" textLength="12" x="337.5" y="493.9297">   </text><rect fill="none" height="204.8828" rx="5" ry="5" style="stroke:#000000;stroke-width:1.5;" width="22" x="332.5" y="294"/><rect fill="#F1F1F1" height="61.4648" rx="5" ry="5" style="stroke:#F1F1F1;stroke-width:1.5;" width="262" x="498.5" y="10"/><text fill="#000000" font-family="sans-serif" font-size="14" font-weight="bold" lengthAdjust="spacing" textLength="78" x="503.5" y="25.5352">field_value</text><text fill="#000000" font-family="sans-serif" font-size="14" font-weight="bold" lengthAdjust="spacing" textLength="37" x="607.5" y="25.5352">NULL</text><line style="stroke:#000000;stroke-width:1.0;" x1="602.5" x2="602.5" y1="10" y2="30.4883"/><line style="stroke:#000000;stroke-width:1.0;" x1="498.5" x2="760.5" y1="30.4883" y2="30.4883"/><text fill="#000000" font-family="sans-serif" font-size="14" font-weight="bold" lengthAdjust="spacing" textLength="74" x="503.5" y="46.0234">row_count</text><text fill="#000000" font-family="sans-serif" font-size="14" lengthAdjust="spacing" textLength="45" x="607.5" y="46.0234">18484</text><line style="stroke:#000000;stroke-width:1.0;" x1="602.5" x2="602.5" y1="30.4883" y2="50.9766"/><line style="stroke:#000000;stroke-width:1.0;" x1="498.5" x2="760.5" y1="50.9766" y2="50.9766"/><text fill="#000000" font-family="sans-serif" font-size="14" font-weight="bold" lengthAdjust="spacing" textLength="94" x="503.5" y="66.5117">ratio_percent</text><text fill="#000000" font-family="sans-serif" font-size="14" lengthAdjust="spacing" textLength="148" x="607.5" y="66.5117">93.25933400605449</text><line style="stroke:#000000;stroke-width:1.0;" x1="602.5" x2="602.5" y1="50.9766" y2="71.4648"/><rect fill="none" height="61.4648" rx="5" ry="5" style="stroke:#000000;stroke-width:1.5;" width="262" x="498.5" y="10"/><rect fill="#F1F1F1" height="61.4648" rx="5" ry="5" style="stroke:#F1F1F1;stroke-width:1.5;" width="289" x="485" y="89"/><text fill="#000000" font-family="sans-serif" font-size="14" font-weight="bold" lengthAdjust="spacing" textLength="78" x="490" y="104.5352">field_value</text><text fill="#000000" font-family="sans-serif" font-size="14" lengthAdjust="spacing" textLength="36" x="594" y="104.5352">1004</text><line style="stroke:#000000;stroke-width:1.0;" x1="589" x2="589" y1="89" y2="109.4883"/><line style="stroke:#000000;stroke-width:1.0;" x1="485" x2="774" y1="109.4883" y2="109.4883"/><text fill="#000000" font-family="sans-serif" font-size="14" font-weight="bold" lengthAdjust="spacing" textLength="74" x="490" y="125.0234">row_count</text><text fill="#000000" font-family="sans-serif" font-size="14" lengthAdjust="spacing" textLength="9" x="594" y="125.0234">2</text><line style="stroke:#000000;stroke-width:1.0;" x1="589" x2="589" y1="109.4883" y2="129.9766"/><line style="stroke:#000000;stroke-width:1.0;" x1="485" x2="774" y1="129.9766" y2="129.9766"/><text fill="#000000" font-family="sans-serif" font-size="14" font-weight="bold" lengthAdjust="spacing" textLength="94" x="490" y="145.5117">ratio_percent</text><text fill="#000000" font-family="sans-serif" font-size="14" lengthAdjust="spacing" textLength="175" x="594" y="145.5117">0.010090817356205853</text><line style="stroke:#000000;stroke-width:1.0;" x1="589" x2="589" y1="129.9766" y2="150.4648"/><rect fill="none" height="61.4648" rx="5" ry="5" style="stroke:#000000;stroke-width:1.5;" width="289" x="485" y="89"/><rect fill="#F1F1F1" height="61.4648" rx="5" ry="5" style="stroke:#F1F1F1;stroke-width:1.5;" width="289" x="485" y="168"/><text fill="#000000" font-family="sans-serif" font-size="14" font-weight="bold" lengthAdjust="spacing" textLength="78" x="490" y="183.5352">field_value</text><text fill="#000000" font-family="sans-serif" font-size="14" lengthAdjust="spacing" textLength="36" x="594" y="183.5352">1002</text><line style="stroke:#000000;stroke-width:1.0;" x1="589" x2="589" y1="168" y2="188.4883"/><line style="stroke:#000000;stroke-width:1.0;" x1="485" x2="774" y1="188.4883" y2="188.4883"/><text fill="#000000" font-family="sans-serif" font-size="14" font-weight="bold" lengthAdjust="spacing" textLength="74" x="490" y="204.0234">row_count</text><text fill="#000000" font-family="sans-serif" font-size="14" lengthAdjust="spacing" textLength="9" x="594" y="204.0234">2</text><line style="stroke:#000000;stroke-width:1.0;" x1="589" x2="589" y1="188.4883" y2="208.9766"/><line style="stroke:#000000;stroke-width:1.0;" x1="485" x2="774" y1="208.9766" y2="208.9766"/><text fill="#000000" font-family="sans-serif" font-size="14" font-weight="bold" lengthAdjust="spacing" textLength="94" x="490" y="224.5117">ratio_percent</text><text fill="#000000" font-family="sans-serif" font-size="14" lengthAdjust="spacing" textLength="175" x="594" y="224.5117">0.010090817356205853</text><line style="stroke:#000000;stroke-width:1.0;" x1="589" x2="589" y1="208.9766" y2="229.4648"/><rect fill="none" height="61.4648" rx="5" ry="5" style="stroke:#000000;stroke-width:1.5;" width="289" x="485" y="168"/><rect fill="#F1F1F1" height="61.4648" rx="5" ry="5" style="stroke:#F1F1F1;stroke-width:1.5;" width="289" x="485" y="247"/><text fill="#000000" font-family="sans-serif" font-size="14" font-weight="bold" lengthAdjust="spacing" textLength="78" x="490" y="262.5352">field_value</text><text fill="#000000" font-family="sans-serif" font-size="14" lengthAdjust="spacing" textLength="36" x="594" y="262.5352">1000</text><line style="stroke:#000000;stroke-width:1.0;" x1="589" x2="589" y1="247" y2="267.4883"/><line style="stroke:#000000;stroke-width:1.0;" x1="485" x2="774" y1="267.4883" y2="267.4883"/><text fill="#000000" font-family="sans-serif" font-size="14" font-weight="bold" lengthAdjust="spacing" textLength="74" x="490" y="283.0234">row_count</text><text fill="#000000" font-family="sans-serif" font-size="14" lengthAdjust="spacing" textLength="9" x="594" y="283.0234">2</text><line style="stroke:#000000;stroke-width:1.0;" x1="589" x2="589" y1="267.4883" y2="287.9766"/><line style="stroke:#000000;stroke-width:1.0;" x1="485" x2="774" y1="287.9766" y2="287.9766"/><text fill="#000000" font-family="sans-serif" font-size="14" font-weight="bold" lengthAdjust="spacing" textLength="94" x="490" y="303.5117">ratio_percent</text><text fill="#000000" font-family="sans-serif" font-size="14" lengthAdjust="spacing" textLength="175" x="594" y="303.5117">0.010090817356205853</text><line style="stroke:#000000;stroke-width:1.0;" x1="589" x2="589" y1="287.9766" y2="308.4648"/><rect fill="none" height="61.4648" rx="5" ry="5" style="stroke:#000000;stroke-width:1.5;" width="289" x="485" y="247"/><rect fill="#F1F1F1" height="61.4648" rx="5" ry="5" style="stroke:#F1F1F1;stroke-width:1.5;" width="289" x="485" y="326"/><text fill="#000000" font-family="sans-serif" font-size="14" font-weight="bold" lengthAdjust="spacing" textLength="78" x="490" y="341.5352">field_value</text><text fill="#000000" font-family="sans-serif" font-size="14" lengthAdjust="spacing" textLength="36" x="594" y="341.5352">1018</text><line style="stroke:#000000;stroke-width:1.0;" x1="589" x2="589" y1="326" y2="346.4883"/><line style="stroke:#000000;stroke-width:1.0;" x1="485" x2="774" y1="346.4883" y2="346.4883"/><text fill="#000000" font-family="sans-serif" font-size="14" font-weight="bold" lengthAdjust="spacing" textLength="74" x="490" y="362.0234">row_count</text><text fill="#000000" font-family="sans-serif" font-size="14" lengthAdjust="spacing" textLength="9" x="594" y="362.0234">2</text><line style="stroke:#000000;stroke-width:1.0;" x1="589" x2="589" y1="346.4883" y2="366.9766"/><line style="stroke:#000000;stroke-width:1.0;" x1="485" x2="774" y1="366.9766" y2="366.9766"/><text fill="#000000" font-family="sans-serif" font-size="14" font-weight="bold" lengthAdjust="spacing" textLength="94" x="490" y="382.5117">ratio_percent</text><text fill="#000000" font-family="sans-serif" font-size="14" lengthAdjust="spacing" textLength="175" x="594" y="382.5117">0.010090817356205853</text><line style="stroke:#000000;stroke-width:1.0;" x1="589" x2="589" y1="366.9766" y2="387.4648"/><rect fill="none" height="61.4648" rx="5" ry="5" style="stroke:#000000;stroke-width:1.5;" width="289" x="485" y="326"/><rect fill="#F1F1F1" height="61.4648" rx="5" ry="5" style="stroke:#F1F1F1;stroke-width:1.5;" width="289" x="485" y="405"/><text fill="#000000" font-family="sans-serif" font-size="14" font-weight="bold" lengthAdjust="spacing" textLength="78" x="490" y="420.5352">field_value</text><text fill="#000000" font-family="sans-serif" font-size="14" lengthAdjust="spacing" textLength="36" x="594" y="420.5352">1016</text><line style="stroke:#000000;stroke-width:1.0;" x1="589" x2="589" y1="405" y2="425.4883"/><line style="stroke:#000000;stroke-width:1.0;" x1="485" x2="774" y1="425.4883" y2="425.4883"/><text fill="#000000" font-family="sans-serif" font-size="14" font-weight="bold" lengthAdjust="spacing" textLength="74" x="490" y="441.0234">row_count</text><text fill="#000000" font-family="sans-serif" font-size="14" lengthAdjust="spacing" textLength="9" x="594" y="441.0234">2</text><line style="stroke:#000000;stroke-width:1.0;" x1="589" x2="589" y1="425.4883" y2="445.9766"/><line style="stroke:#000000;stroke-width:1.0;" x1="485" x2="774" y1="445.9766" y2="445.9766"/><text fill="#000000" font-family="sans-serif" font-size="14" font-weight="bold" lengthAdjust="spacing" textLength="94" x="490" y="461.5117">ratio_percent</text><text fill="#000000" font-family="sans-serif" font-size="14" lengthAdjust="spacing" textLength="175" x="594" y="461.5117">0.010090817356205853</text><line style="stroke:#000000;stroke-width:1.0;" x1="589" x2="589" y1="445.9766" y2="466.4648"/><rect fill="none" height="61.4648" rx="5" ry="5" style="stroke:#000000;stroke-width:1.5;" width="289" x="485" y="405"/><rect fill="#F1F1F1" height="61.4648" rx="5" ry="5" style="stroke:#F1F1F1;stroke-width:1.5;" width="289" x="485" y="484"/><text fill="#000000" font-family="sans-serif" font-size="14" font-weight="bold" lengthAdjust="spacing" textLength="78" x="490" y="499.5352">field_value</text><text fill="#000000" font-family="sans-serif" font-size="14" lengthAdjust="spacing" textLength="36" x="594" y="499.5352">1014</text><line style="stroke:#000000;stroke-width:1.0;" x1="589" x2="589" y1="484" y2="504.4883"/><line style="stroke:#000000;stroke-width:1.0;" x1="485" x2="774" y1="504.4883" y2="504.4883"/><text fill="#000000" font-family="sans-serif" font-size="14" font-weight="bold" lengthAdjust="spacing" textLength="74" x="490" y="520.0234">row_count</text><text fill="#000000" font-family="sans-serif" font-size="14" lengthAdjust="spacing" textLength="9" x="594" y="520.0234">2</text><line style="stroke:#000000;stroke-width:1.0;" x1="589" x2="589" y1="504.4883" y2="524.9766"/><line style="stroke:#000000;stroke-width:1.0;" x1="485" x2="774" y1="524.9766" y2="524.9766"/><text fill="#000000" font-family="sans-serif" font-size="14" font-weight="bold" lengthAdjust="spacing" textLength="94" x="490" y="540.5117">ratio_percent</text><text fill="#000000" font-family="sans-serif" font-size="14" lengthAdjust="spacing" textLength="175" x="594" y="540.5117">0.010090817356205853</text><line style="stroke:#000000;stroke-width:1.0;" x1="589" x2="589" y1="524.9766" y2="545.4648"/><rect fill="none" height="61.4648" rx="5" ry="5" style="stroke:#000000;stroke-width:1.5;" width="289" x="485" y="484"/><rect fill="#F1F1F1" height="61.4648" rx="5" ry="5" style="stroke:#F1F1F1;stroke-width:1.5;" width="289" x="485" y="563"/><text fill="#000000" font-family="sans-serif" font-size="14" font-weight="bold" lengthAdjust="spacing" textLength="78" x="490" y="578.5352">field_value</text><text fill="#000000" font-family="sans-serif" font-size="14" lengthAdjust="spacing" textLength="36" x="594" y="578.5352">1012</text><line style="stroke:#000000;stroke-width:1.0;" x1="589" x2="589" y1="563" y2="583.4883"/><line style="stroke:#000000;stroke-width:1.0;" x1="485" x2="774" y1="583.4883" y2="583.4883"/><text fill="#000000" font-family="sans-serif" font-size="14" font-weight="bold" lengthAdjust="spacing" textLength="74" x="490" y="599.0234">row_count</text><text fill="#000000" font-family="sans-serif" font-size="14" lengthAdjust="spacing" textLength="9" x="594" y="599.0234">2</text><line style="stroke:#000000;stroke-width:1.0;" x1="589" x2="589" y1="583.4883" y2="603.9766"/><line style="stroke:#000000;stroke-width:1.0;" x1="485" x2="774" y1="603.9766" y2="603.9766"/><text fill="#000000" font-family="sans-serif" font-size="14" font-weight="bold" lengthAdjust="spacing" textLength="94" x="490" y="619.5117">ratio_percent</text><text fill="#000000" font-family="sans-serif" font-size="14" lengthAdjust="spacing" textLength="175" x="594" y="619.5117">0.010090817356205853</text><line style="stroke:#000000;stroke-width:1.0;" x1="589" x2="589" y1="603.9766" y2="624.4648"/><rect fill="none" height="61.4648" rx="5" ry="5" style="stroke:#000000;stroke-width:1.5;" width="289" x="485" y="563"/><rect fill="#F1F1F1" height="61.4648" rx="5" ry="5" style="stroke:#F1F1F1;stroke-width:1.5;" width="289" x="485" y="642"/><text fill="#000000" font-family="sans-serif" font-size="14" font-weight="bold" lengthAdjust="spacing" textLength="78" x="490" y="657.5352">field_value</text><text fill="#000000" font-family="sans-serif" font-size="14" lengthAdjust="spacing" textLength="36" x="594" y="657.5352">1010</text><line style="stroke:#000000;stroke-width:1.0;" x1="589" x2="589" y1="642" y2="662.4883"/><line style="stroke:#000000;stroke-width:1.0;" x1="485" x2="774" y1="662.4883" y2="662.4883"/><text fill="#000000" font-family="sans-serif" font-size="14" font-weight="bold" lengthAdjust="spacing" textLength="74" x="490" y="678.0234">row_count</text><text fill="#000000" font-family="sans-serif" font-size="14" lengthAdjust="spacing" textLength="9" x="594" y="678.0234">2</text><line style="stroke:#000000;stroke-width:1.0;" x1="589" x2="589" y1="662.4883" y2="682.9766"/><line style="stroke:#000000;stroke-width:1.0;" x1="485" x2="774" y1="682.9766" y2="682.9766"/><text fill="#000000" font-family="sans-serif" font-size="14" font-weight="bold" lengthAdjust="spacing" textLength="94" x="490" y="698.5117">ratio_percent</text><text fill="#000000" font-family="sans-serif" font-size="14" lengthAdjust="spacing" textLength="175" x="594" y="698.5117">0.010090817356205853</text><line style="stroke:#000000;stroke-width:1.0;" x1="589" x2="589" y1="682.9766" y2="703.4648"/><rect fill="none" height="61.4648" rx="5" ry="5" style="stroke:#000000;stroke-width:1.5;" width="289" x="485" y="642"/><rect fill="#F1F1F1" height="61.4648" rx="5" ry="5" style="stroke:#F1F1F1;stroke-width:1.5;" width="289" x="485" y="721"/><text fill="#000000" font-family="sans-serif" font-size="14" font-weight="bold" lengthAdjust="spacing" textLength="78" x="490" y="736.5352">field_value</text><text fill="#000000" font-family="sans-serif" font-size="14" lengthAdjust="spacing" textLength="36" x="594" y="736.5352">1020</text><line style="stroke:#000000;stroke-width:1.0;" x1="589" x2="589" y1="721" y2="741.4883"/><line style="stroke:#000000;stroke-width:1.0;" x1="485" x2="774" y1="741.4883" y2="741.4883"/><text fill="#000000" font-family="sans-serif" font-size="14" font-weight="bold" lengthAdjust="spacing" textLength="74" x="490" y="757.0234">row_count</text><text fill="#000000" font-family="sans-serif" font-size="14" lengthAdjust="spacing" textLength="9" x="594" y="757.0234">2</text><line style="stroke:#000000;stroke-width:1.0;" x1="589" x2="589" y1="741.4883" y2="761.9766"/><line style="stroke:#000000;stroke-width:1.0;" x1="485" x2="774" y1="761.9766" y2="761.9766"/><text fill="#000000" font-family="sans-serif" font-size="14" font-weight="bold" lengthAdjust="spacing" textLength="94" x="490" y="777.5117">ratio_percent</text><text fill="#000000" font-family="sans-serif" font-size="14" lengthAdjust="spacing" textLength="175" x="594" y="777.5117">0.010090817356205853</text><line style="stroke:#000000;stroke-width:1.0;" x1="589" x2="589" y1="761.9766" y2="782.4648"/><rect fill="none" height="61.4648" rx="5" ry="5" style="stroke:#000000;stroke-width:1.5;" width="289" x="485" y="721"/><path d="M192,315.5 L205,315.5 C225.8273,315.5 222.6143,295.285 241,285.5 C245.4187,283.1484 250.0447,280.9598 254.7859,278.9261 " fill="none" style="stroke:#000000;stroke-width:1.0;stroke-dasharray:3.0,3.0;"/><path d="M255.9339,281.7334 L256.8914,278.0652 L253.638,276.1189 L261.804,276.0563 L255.9339,281.7334 " fill="#000000" style="stroke:#000000;stroke-width:1.0;"/><ellipse cx="192" cy="315.5" fill="#000000" rx="3" ry="3" style="stroke:#000000;stroke-width:1.0;"/><path d="M345,303.5 L358,303.5 C399.2281,303.5 420.1738,314.9755 449,285.5 C513.9848,219.0516 422.353,148.1569 485,79.5 C487.4878,76.7736 490.1447,74.2298 492.9444,71.8569 " fill="none" style="stroke:#000000;stroke-width:1.0;stroke-dasharray:3.0,3.0;"/><path d="M494.7983,74.2323 L494.726,70.4665 L491.0905,69.4815 L498.883,67.2222 L494.7983,74.2323 " fill="#000000" style="stroke:#000000;stroke-width:1.0;"/><ellipse cx="345" cy="303.5" fill="#000000" rx="3" ry="3" style="stroke:#000000;stroke-width:1.0;"/><path d="M345,324.5 L358,324.5 C402.0022,324.5 419.9505,318.5503 449,285.5 C487.7318,241.4339 443.2726,199.7408 485,158.5 C486.2348,157.2796 487.5037,156.0963 488.804,154.9491 " fill="none" style="stroke:#000000;stroke-width:1.0;stroke-dasharray:3.0,3.0;"/><path d="M490.725,157.307 L490.5724,153.5084 L486.8831,152.5913 L494.6986,150.1468 L490.725,157.307 " fill="#000000" style="stroke:#000000;stroke-width:1.0;"/><ellipse cx="345" cy="324.5" fill="#000000" rx="3" ry="3" style="stroke:#000000;stroke-width:1.0;"/><path d="M345,344.5 L358,344.5 C406.2012,344.5 413.773,318.4001 449,285.5 C468.4889,267.2985 462.9294,252.4666 485,237.5 C487.3915,235.8783 489.8481,234.3238 492.3595,232.8338 " fill="none" style="stroke:#000000;stroke-width:1.0;stroke-dasharray:3.0,3.0;"/><path d="M493.8776,235.5413 L494.3901,231.6952 L490.8413,230.1263 L499.1283,229.0385 L493.8776,235.5413 " fill="#000000" style="stroke:#000000;stroke-width:1.0;"/><ellipse cx="345" cy="344.5" fill="#000000" rx="3" ry="3" style="stroke:#000000;stroke-width:1.0;"/><path d="M345,365.5 L358,365.5 C418.3414,365.5 427.6492,336.2608 485,317.5 C492.3057,315.1101 499.849,312.7377 507.4769,310.4107 " fill="none" style="stroke:#000000;stroke-width:1.0;stroke-dasharray:3.0,3.0;"/><path d="M508.4013,313.4709 L509.7721,309.7175 L506.5526,307.3505 L515.1275,308.0999 L508.4013,313.4709 " fill="#000000" style="stroke:#000000;stroke-width:1.0;"/><ellipse cx="345" cy="365.5" fill="#000000" rx="3" ry="3" style="stroke:#000000;stroke-width:1.0;"/><path d="M345,385.5 L358,385.5 C396.9258,385.5 438.8191,382.5053 477.7528,378.4406 " fill="none" style="stroke:#000000;stroke-width:1.0;stroke-dasharray:3.0,3.0;"/><path d="M478.0835,381.5388 L480.0765,378.1926 L477.4222,375.3424 L485.4984,377.6139 L478.0835,381.5388 " fill="#000000" style="stroke:#000000;stroke-width:1.0;"/><ellipse cx="345" cy="385.5" fill="#000000" rx="3" ry="3" style="stroke:#000000;stroke-width:1.0;"/><path d="M345,406.5 L358,406.5 C396.9258,406.5 438.8191,409.4947 477.7528,413.5594 " fill="none" style="stroke:#000000;stroke-width:1.0;stroke-dasharray:3.0,3.0;"/><path d="M477.4222,416.6576 L480.0765,413.8074 L478.0835,410.4612 L485.4984,414.3861 L477.4222,416.6576 " fill="#000000" style="stroke:#000000;stroke-width:1.0;"/><ellipse cx="345" cy="406.5" fill="#000000" rx="3" ry="3" style="stroke:#000000;stroke-width:1.0;"/><path d="M345,427.5 L358,427.5 C418.3414,427.5 427.5889,456.9245 485,475.5 C491.515,477.6079 498.2201,479.6964 505.0065,481.747 " fill="none" style="stroke:#000000;stroke-width:1.0;stroke-dasharray:3.0,3.0;"/><path d="M504.1228,484.7033 L507.2238,482.4098 L505.8903,478.7907 L512.3974,483.9564 L504.1228,484.7033 " fill="#000000" style="stroke:#000000;stroke-width:1.0;"/><ellipse cx="345" cy="427.5" fill="#000000" rx="3" ry="3" style="stroke:#000000;stroke-width:1.0;"/><path d="M345,447.5 L358,447.5 C431.8072,447.5 419.6123,520.2661 485,554.5 C488.4957,556.3302 492.0853,558.0806 495.7452,559.7544 " fill="none" style="stroke:#000000;stroke-width:1.0;stroke-dasharray:3.0,3.0;"/><path d="M494.4952,562.6019 L497.8809,560.6919 L496.9952,556.9069 L502.8641,562.8794 L494.4952,562.6019 " fill="#000000" style="stroke:#000000;stroke-width:1.0;"/><ellipse cx="345" cy="447.5" fill="#000000" rx="3" ry="3" style="stroke:#000000;stroke-width:1.0;"/><path d="M345,468.5 L358,468.5 C450.5405,468.5 408.0862,582.0411 485,633.5 C487.4016,635.1068 489.8674,636.6476 492.3871,638.1251 " fill="none" style="stroke:#000000;stroke-width:1.0;stroke-dasharray:3.0,3.0;"/><path d="M490.8811,640.8408 L494.4239,639.2547 L493.8932,635.4095 L499.1763,641.8903 L490.8811,640.8408 " fill="#000000" style="stroke:#000000;stroke-width:1.0;"/><ellipse cx="345" cy="468.5" fill="#000000" rx="3" ry="3" style="stroke:#000000;stroke-width:1.0;"/><path d="M345,488.5 L358,488.5 C472.4434,488.5 394.5735,642.355 485,712.5 C486.8227,713.9139 488.6928,715.2766 490.6049,716.59 " fill="none" style="stroke:#000000;stroke-width:1.0;stroke-dasharray:3.0,3.0;"/><path d="M488.8937,719.2519 L492.6014,717.8734 L492.3162,713.928 L497.2598,720.8681 L488.8937,719.2519 " fill="#000000" style="stroke:#000000;stroke-width:1.0;"/><ellipse cx="345" cy="488.5" fill="#000000" rx="3" ry="3" style="stroke:#000000;stroke-width:1.0;"/><path d="M192,336.5 L205,336.5 C252.0497,336.5 301.2629,365.8357 326.6101,383.482 " fill="none" style="stroke:#000000;stroke-width:1.0;stroke-dasharray:3.0,3.0;"/><path d="M324.8416,385.964 L328.4716,384.8085 L328.3787,381.0001 L332.815,387.9035 L324.8416,385.964 " fill="#000000" style="stroke:#000000;stroke-width:1.0;"/><ellipse cx="192" cy="336.5" fill="#000000" rx="3" ry="3" style="stroke:#000000;stroke-width:1.0;"/><!--MD5=[373ed4debb0d5867a0daeef6a5b87dd5]
@startjson
{
    "field1": "StoreID",
    "combination": "StoreID",
    "null_distribution": {
        "total_null_rows": 18484,
        "total_not_null_rows": 1336
    },
    "data_distribution": [
        {
            "field_value": "**NULL**",
            "row_count": 18484,
            "ratio_percent": 93.25933400605449
        },
        {
            "field_value": "1004",
            "row_count": 2,
            "ratio_percent": 0.010090817356205853
        },
        {
            "field_value": "1002",
            "row_count": 2,
            "ratio_percent": 0.010090817356205853
        },
        {
            "field_value": "1000",
            "row_count": 2,
            "ratio_percent": 0.010090817356205853
        },
        {
            "field_value": "1018",
            "row_count": 2,
            "ratio_percent": 0.010090817356205853
        },
        {
            "field_value": "1016",
            "row_count": 2,
            "ratio_percent": 0.010090817356205853
        },
        {
            "field_value": "1014",
            "row_count": 2,
            "ratio_percent": 0.010090817356205853
        },
        {
            "field_value": "1012",
            "row_count": 2,
            "ratio_percent": 0.010090817356205853
        },
        {
            "field_value": "1010",
            "row_count": 2,
            "ratio_percent": 0.010090817356205853
        },
        {
            "field_value": "1020",
            "row_count": 2,
            "ratio_percent": 0.010090817356205853
        }
    ]
}
@endjson

PlantUML version 1.2022.5(Sat Apr 30 06:55:52 EDT 2022)
(GPL source distribution)
Java Runtime: OpenJDK Runtime Environment
JVM: OpenJDK 64-Bit Server VM
Default Encoding: UTF-8
Language: en
Country: CA
--></g></svg>