<?xml version="1.0" encoding="UTF-8" standalone="no"?><svg xmlns="http://www.w3.org/2000/svg" xmlns:xlink="http://www.w3.org/1999/xlink" contentStyleType="text/css" height="320px" preserveAspectRatio="none" style="width:748px;height:320px;background:#FFFFFF;" version="1.1" viewBox="0 0 748 320" width="748px" zoomAndPan="magnify"><defs/><g><rect fill="#F1F1F1" height="81.9531" rx="5" ry="5" style="stroke:#F1F1F1;stroke-width:1.5;" width="201" x="10" y="57.5"/><text fill="#000000" font-family="sans-serif" font-size="14" font-weight="bold" lengthAdjust="spacing" textLength="42" x="15" y="73.0352">field1</text><text fill="#000000" font-family="sans-serif" font-size="14" lengthAdjust="spacing" textLength="57" x="149" y="73.0352">EndDate</text><line style="stroke:#000000;stroke-width:1.0;" x1="144" x2="144" y1="57.5" y2="77.9883"/><line style="stroke:#000000;stroke-width:1.0;" x1="10" x2="211" y1="77.9883" y2="77.9883"/><text fill="#000000" font-family="sans-serif" font-size="14" font-weight="bold" lengthAdjust="spacing" textLength="90" x="15" y="93.5234">combination</text><text fill="#000000" font-family="sans-serif" font-size="14" lengthAdjust="spacing" textLength="57" x="149" y="93.5234">EndDate</text><line style="stroke:#000000;stroke-width:1.0;" x1="144" x2="144" y1="77.9883" y2="98.4766"/><line style="stroke:#000000;stroke-width:1.0;" x1="10" x2="211" y1="98.4766" y2="98.4766"/><text fill="#000000" font-family="sans-serif" font-size="14" font-weight="bold" lengthAdjust="spacing" textLength="121" x="15" y="114.0117">null_distribution</text><text fill="#000000" font-family="sans-serif" font-size="14" lengthAdjust="spacing" textLength="12" x="149" y="114.0117">   </text><line style="stroke:#000000;stroke-width:1.0;" x1="144" x2="144" y1="98.4766" y2="118.9648"/><line style="stroke:#000000;stroke-width:1.0;" x1="10" x2="211" y1="118.9648" y2="118.9648"/><text fill="#000000" font-family="sans-serif" font-size="14" font-weight="bold" lengthAdjust="spacing" textLength="124" x="15" y="134.5">data_distribution</text><text fill="#000000" font-family="sans-serif" font-size="14" lengthAdjust="spacing" textLength="12" x="149" y="134.5">   </text><line style="stroke:#000000;stroke-width:1.0;" x1="144" x2="144" y1="118.9648" y2="139.4531"/><rect fill="none" height="81.9531" rx="5" ry="5" style="stroke:#000000;stroke-width:1.5;" width="201" x="10" y="57.5"/><rect fill="#F1F1F1" height="40.9766" rx="5" ry="5" style="stroke:#F1F1F1;stroke-width:1.5;" width="180" x="248" y="59"/><text fill="#000000" font-family="sans-serif" font-size="14" font-weight="bold" lengthAdjust="spacing" textLength="111" x="253" y="74.5352">total_null_rows</text><text fill="#000000" font-family="sans-serif" font-size="14" lengthAdjust="spacing" textLength="18" x="405" y="74.5352">13</text><line style="stroke:#000000;stroke-width:1.0;" x1="400" x2="400" y1="59" y2="79.4883"/><line style="stroke:#000000;stroke-width:1.0;" x1="248" x2="428" y1="79.4883" y2="79.4883"/><text fill="#000000" font-family="sans-serif" font-size="14" font-weight="bold" lengthAdjust="spacing" textLength="142" x="253" y="95.0234">total_not_null_rows</text><text fill="#000000" font-family="sans-serif" font-size="14" lengthAdjust="spacing" textLength="9" x="405" y="95.0234">4</text><line style="stroke:#000000;stroke-width:1.0;" x1="400" x2="400" y1="79.4883" y2="99.9766"/><rect fill="none" height="40.9766" rx="5" ry="5" style="stroke:#000000;stroke-width:1.5;" width="180" x="248" y="59"/><rect fill="#F1F1F1" height="81.9531" rx="5" ry="5" style="stroke:#F1F1F1;stroke-width:1.5;" width="22" x="326" y="118.5"/><text fill="#000000" font-family="sans-serif" font-size="14" lengthAdjust="spacing" textLength="12" x="331" y="134.0352">   </text><line style="stroke:#000000;stroke-width:1.0;" x1="326" x2="348" y1="138.9883" y2="138.9883"/><text fill="#000000" font-family="sans-serif" font-size="14" lengthAdjust="spacing" textLength="12" x="331" y="154.5234">   </text><line style="stroke:#000000;stroke-width:1.0;" x1="326" x2="348" y1="159.4766" y2="159.4766"/><text fill="#000000" font-family="sans-serif" font-size="14" lengthAdjust="spacing" textLength="12" x="331" y="175.0117">   </text><line style="stroke:#000000;stroke-width:1.0;" x1="326" x2="348" y1="179.9648" y2="179.9648"/><text fill="#000000" font-family="sans-serif" font-size="14" lengthAdjust="spacing" textLength="12" x="331" y="195.5">   </text><rect fill="none" height="81.9531" rx="5" ry="5" style="stroke:#000000;stroke-width:1.5;" width="22" x="326" y="118.5"/><rect fill="#F1F1F1" height="61.4648" rx="5" ry="5" style="stroke:#F1F1F1;stroke-width:1.5;" width="262" x="469.5" y="10"/><text fill="#000000" font-family="sans-serif" font-size="14" font-weight="bold" lengthAdjust="spacing" textLength="78" x="474.5" y="25.5352">field_value</text><text fill="#000000" font-family="sans-serif" font-size="14" font-weight="bold" lengthAdjust="spacing" textLength="37" x="578.5" y="25.5352">NULL</text><line style="stroke:#000000;stroke-width:1.0;" x1="573.5" x2="573.5" y1="10" y2="30.4883"/><line style="stroke:#000000;stroke-width:1.0;" x1="469.5" x2="731.5" y1="30.4883" y2="30.4883"/><text fill="#000000" font-family="sans-serif" font-size="14" font-weight="bold" lengthAdjust="spacing" textLength="74" x="474.5" y="46.0234">row_count</text><text fill="#000000" font-family="sans-serif" font-size="14" lengthAdjust="spacing" textLength="18" x="578.5" y="46.0234">13</text><line style="stroke:#000000;stroke-width:1.0;" x1="573.5" x2="573.5" y1="30.4883" y2="50.9766"/><line style="stroke:#000000;stroke-width:1.0;" x1="469.5" x2="731.5" y1="50.9766" y2="50.9766"/><text fill="#000000" font-family="sans-serif" font-size="14" font-weight="bold" lengthAdjust="spacing" textLength="94" x="474.5" y="66.5117">ratio_percent</text><text fill="#000000" font-family="sans-serif" font-size="14" lengthAdjust="spacing" textLength="148" x="578.5" y="66.5117">76.47058823529412</text><line style="stroke:#000000;stroke-width:1.0;" x1="573.5" x2="573.5" y1="50.9766" y2="71.4648"/><rect fill="none" height="61.4648" rx="5" ry="5" style="stroke:#000000;stroke-width:1.5;" width="262" x="469.5" y="10"/><rect fill="#F1F1F1" height="61.4648" rx="5" ry="5" style="stroke:#F1F1F1;stroke-width:1.5;" width="271" x="465" y="89"/><text fill="#000000" font-family="sans-serif" font-size="14" font-weight="bold" lengthAdjust="spacing" textLength="78" x="470" y="104.5352">field_value</text><text fill="#000000" font-family="sans-serif" font-size="14" lengthAdjust="spacing" textLength="154" x="574" y="104.5352">Nov 29 2012 12:00AM</text><line style="stroke:#000000;stroke-width:1.0;" x1="569" x2="569" y1="89" y2="109.4883"/><line style="stroke:#000000;stroke-width:1.0;" x1="465" x2="736" y1="109.4883" y2="109.4883"/><text fill="#000000" font-family="sans-serif" font-size="14" font-weight="bold" lengthAdjust="spacing" textLength="74" x="470" y="125.0234">row_count</text><text fill="#000000" font-family="sans-serif" font-size="14" lengthAdjust="spacing" textLength="9" x="574" y="125.0234">2</text><line style="stroke:#000000;stroke-width:1.0;" x1="569" x2="569" y1="109.4883" y2="129.9766"/><line style="stroke:#000000;stroke-width:1.0;" x1="465" x2="736" y1="129.9766" y2="129.9766"/><text fill="#000000" font-family="sans-serif" font-size="14" font-weight="bold" lengthAdjust="spacing" textLength="94" x="470" y="145.5117">ratio_percent</text><text fill="#000000" font-family="sans-serif" font-size="14" lengthAdjust="spacing" textLength="157" x="574" y="145.5117">11.764705882352942</text><line style="stroke:#000000;stroke-width:1.0;" x1="569" x2="569" y1="129.9766" y2="150.4648"/><rect fill="none" height="61.4648" rx="5" ry="5" style="stroke:#000000;stroke-width:1.5;" width="271" x="465" y="89"/><rect fill="#F1F1F1" height="61.4648" rx="5" ry="5" style="stroke:#F1F1F1;stroke-width:1.5;" width="267" x="467" y="168"/><text fill="#000000" font-family="sans-serif" font-size="14" font-weight="bold" lengthAdjust="spacing" textLength="78" x="472" y="183.5352">field_value</text><text fill="#000000" font-family="sans-serif" font-size="14" lengthAdjust="spacing" textLength="153" x="576" y="183.5352">Sep 29 2012 12:00AM</text><line style="stroke:#000000;stroke-width:1.0;" x1="571" x2="571" y1="168" y2="188.4883"/><line style="stroke:#000000;stroke-width:1.0;" x1="467" x2="734" y1="188.4883" y2="188.4883"/><text fill="#000000" font-family="sans-serif" font-size="14" font-weight="bold" lengthAdjust="spacing" textLength="74" x="472" y="204.0234">row_count</text><text fill="#000000" font-family="sans-serif" font-size="14" lengthAdjust="spacing" textLength="9" x="576" y="204.0234">1</text><line style="stroke:#000000;stroke-width:1.0;" x1="571" x2="571" y1="188.4883" y2="208.9766"/><line style="stroke:#000000;stroke-width:1.0;" x1="467" x2="734" y1="208.9766" y2="208.9766"/><text fill="#000000" font-family="sans-serif" font-size="14" font-weight="bold" lengthAdjust="spacing" textLength="94" x="472" y="224.5117">ratio_percent</text><text fill="#000000" font-family="sans-serif" font-size="14" lengthAdjust="spacing" textLength="148" x="576" y="224.5117">5.882352941176471</text><line style="stroke:#000000;stroke-width:1.0;" x1="571" x2="571" y1="208.9766" y2="229.4648"/><rect fill="none" height="61.4648" rx="5" ry="5" style="stroke:#000000;stroke-width:1.5;" width="267" x="467" y="168"/><rect fill="#F1F1F1" height="61.4648" rx="5" ry="5" style="stroke:#F1F1F1;stroke-width:1.5;" width="269" x="466" y="247"/><text fill="#000000" font-family="sans-serif" font-size="14" font-weight="bold" lengthAdjust="spacing" textLength="78" x="471" y="262.5352">field_value</text><text fill="#000000" font-family="sans-serif" font-size="14" lengthAdjust="spacing" textLength="155" x="575" y="262.5352">May 29 2012 12:00AM</text><line style="stroke:#000000;stroke-width:1.0;" x1="570" x2="570" y1="247" y2="267.4883"/><line style="stroke:#000000;stroke-width:1.0;" x1="466" x2="735" y1="267.4883" y2="267.4883"/><text fill="#000000" font-family="sans-serif" font-size="14" font-weight="bold" lengthAdjust="spacing" textLength="74" x="471" y="283.0234">row_count</text><text fill="#000000" font-family="sans-serif" font-size="14" lengthAdjust="spacing" textLength="9" x="575" y="283.0234">1</text><line style="stroke:#000000;stroke-width:1.0;" x1="570" x2="570" y1="267.4883" y2="287.9766"/><line style="stroke:#000000;stroke-width:1.0;" x1="466" x2="735" y1="287.9766" y2="287.9766"/><text fill="#000000" font-family="sans-serif" font-size="14" font-weight="bold" lengthAdjust="spacing" textLength="94" x="471" y="303.5117">ratio_percent</text><text fill="#000000" font-family="sans-serif" font-size="14" lengthAdjust="spacing" textLength="148" x="575" y="303.5117">5.882352941176471</text><line style="stroke:#000000;stroke-width:1.0;" x1="570" x2="570" y1="287.9766" y2="308.4648"/><rect fill="none" height="61.4648" rx="5" ry="5" style="stroke:#000000;stroke-width:1.5;" width="269" x="466" y="247"/><path d="M199,108.5 L212,108.5 C229.9038,108.5 248.8841,105.6635 266.5162,101.7648 " fill="none" style="stroke:#000000;stroke-width:1.0;stroke-dasharray:3.0,3.0;"/><path d="M267.2085,104.7516 L268.7563,101.2456 L265.8239,98.778 L273.9833,100.034 L267.2085,104.7516 " fill="#000000" style="stroke:#000000;stroke-width:1.0;"/><ellipse cx="199" cy="108.5" fill="#000000" rx="3" ry="3" style="stroke:#000000;stroke-width:1.0;"/><path d="M338.5,128.5 L351.5,128.5 C387.0729,128.5 397.2095,124.4624 429,108.5 C447.361,99.2807 446.773,88.9816 465,79.5 C468.495,77.6819 472.0862,75.938 475.7476,74.2662 " fill="none" style="stroke:#000000;stroke-width:1.0;stroke-dasharray:3.0,3.0;"/><path d="M476.9983,77.1145 L477.8838,73.3282 L474.4969,71.4179 L482.8684,71.1394 L476.9983,77.1145 " fill="#000000" style="stroke:#000000;stroke-width:1.0;"/><ellipse cx="338.5" cy="128.5" fill="#000000" rx="3" ry="3" style="stroke:#000000;stroke-width:1.0;"/><path d="M338.5,148.5 L351.5,148.5 C385.9249,148.5 422.8526,145.7204 457.4338,141.8823 " fill="none" style="stroke:#000000;stroke-width:1.0;stroke-dasharray:3.0,3.0;"/><path d="M457.7891,145.0038 L459.7749,141.6158 L457.0785,138.7608 L465.2376,140.9941 L457.7891,145.0038 " fill="#000000" style="stroke:#000000;stroke-width:1.0;"/><ellipse cx="338.5" cy="148.5" fill="#000000" rx="3" ry="3" style="stroke:#000000;stroke-width:1.0;"/><path d="M338.5,169.5 L351.5,169.5 C386.7792,169.5 424.6869,172.4193 460.0039,176.4054 " fill="none" style="stroke:#000000;stroke-width:1.0;stroke-dasharray:3.0,3.0;"/><path d="M459.6574,179.4034 L462.2524,176.6652 L460.3503,173.4073 L467.4989,177.2715 L459.6574,179.4034 " fill="#000000" style="stroke:#000000;stroke-width:1.0;"/><ellipse cx="338.5" cy="169.5" fill="#000000" rx="3" ry="3" style="stroke:#000000;stroke-width:1.0;"/><path d="M338.5,190.5 L351.5,190.5 C406.27,190.5 413.3775,220.2006 465,238.5 C470.867,240.5798 476.9057,242.6324 483.0234,244.6426 " fill="none" style="stroke:#000000;stroke-width:1.0;stroke-dasharray:3.0,3.0;"/><path d="M482.0876,247.5276 L485.1871,245.3445 L483.9592,241.7577 L490.2358,246.9821 L482.0876,247.5276 " fill="#000000" style="stroke:#000000;stroke-width:1.0;"/><ellipse cx="338.5" cy="190.5" fill="#000000" rx="3" ry="3" style="stroke:#000000;stroke-width:1.0;"/><path d="M199,129.5 L212,129.5 C251.0137,129.5 295.0262,143.3835 319.1813,152.2611 " fill="none" style="stroke:#000000;stroke-width:1.0;stroke-dasharray:3.0,3.0;"/><path d="M318.1083,155.1065 L321.3153,153.0659 L320.2543,149.4158 L326.2946,154.9436 L318.1083,155.1065 " fill="#000000" style="stroke:#000000;stroke-width:1.0;"/><ellipse cx="199" cy="129.5" fill="#000000" rx="3" ry="3" style="stroke:#000000;stroke-width:1.0;"/><!--MD5=[34f6c753dfa9fb97eafb51767ff85bb7]
@startjson
{
    "field1": "EndDate",
    "combination": "EndDate",
    "null_distribution": {
        "total_null_rows": 13,
        "total_not_null_rows": 4
    },
    "data_distribution": [
        {
            "field_value": "**NULL**",
            "row_count": 13,
            "ratio_percent": 76.47058823529412
        },
        {
            "field_value": "Nov 29 2012 12:00AM",
            "row_count": 2,
            "ratio_percent": 11.764705882352942
        },
        {
            "field_value": "Sep 29 2012 12:00AM",
            "row_count": 1,
            "ratio_percent": 5.882352941176471
        },
        {
            "field_value": "May 29 2012 12:00AM",
            "row_count": 1,
            "ratio_percent": 5.882352941176471
        }
    ]
}
@endjson

PlantUML version 1.2022.5(Sat Apr 30 06:55:52 EDT 2022)
(GPL source distribution)
Java Runtime: OpenJDK Runtime Environment
JVM: OpenJDK 64-Bit Server VM
Default Encoding: UTF-8
Language: en
Country: CA
--></g></svg>