<?xml version="1.0" encoding="UTF-8" standalone="no"?><svg xmlns="http://www.w3.org/2000/svg" xmlns:xlink="http://www.w3.org/1999/xlink" contentStyleType="text/css" height="794px" preserveAspectRatio="none" style="width:941px;height:794px;background:#FFFFFF;" version="1.1" viewBox="0 0 941 794" width="941px" zoomAndPan="magnify"><defs/><g><rect fill="#F1F1F1" height="81.9531" rx="5" ry="5" style="stroke:#F1F1F1;stroke-width:1.5;" width="201" x="10" y="264.5"/><text fill="#000000" font-family="sans-serif" font-size="14" font-weight="bold" lengthAdjust="spacing" textLength="42" x="15" y="280.0352">field1</text><text fill="#000000" font-family="sans-serif" font-size="14" lengthAdjust="spacing" textLength="57" x="149" y="280.0352">rowguid</text><line style="stroke:#000000;stroke-width:1.0;" x1="144" x2="144" y1="264.5" y2="284.9883"/><line style="stroke:#000000;stroke-width:1.0;" x1="10" x2="211" y1="284.9883" y2="284.9883"/><text fill="#000000" font-family="sans-serif" font-size="14" font-weight="bold" lengthAdjust="spacing" textLength="90" x="15" y="300.5234">combination</text><text fill="#000000" font-family="sans-serif" font-size="14" lengthAdjust="spacing" textLength="57" x="149" y="300.5234">rowguid</text><line style="stroke:#000000;stroke-width:1.0;" x1="144" x2="144" y1="284.9883" y2="305.4766"/><line style="stroke:#000000;stroke-width:1.0;" x1="10" x2="211" y1="305.4766" y2="305.4766"/><text fill="#000000" font-family="sans-serif" font-size="14" font-weight="bold" lengthAdjust="spacing" textLength="121" x="15" y="321.0117">null_distribution</text><text fill="#000000" font-family="sans-serif" font-size="14" lengthAdjust="spacing" textLength="12" x="149" y="321.0117">   </text><line style="stroke:#000000;stroke-width:1.0;" x1="144" x2="144" y1="305.4766" y2="325.9648"/><line style="stroke:#000000;stroke-width:1.0;" x1="10" x2="211" y1="325.9648" y2="325.9648"/><text fill="#000000" font-family="sans-serif" font-size="14" font-weight="bold" lengthAdjust="spacing" textLength="124" x="15" y="341.5">data_distribution</text><text fill="#000000" font-family="sans-serif" font-size="14" lengthAdjust="spacing" textLength="12" x="149" y="341.5">   </text><line style="stroke:#000000;stroke-width:1.0;" x1="144" x2="144" y1="325.9648" y2="346.4531"/><rect fill="none" height="81.9531" rx="5" ry="5" style="stroke:#000000;stroke-width:1.5;" width="201" x="10" y="264.5"/><rect fill="#F1F1F1" height="40.9766" rx="5" ry="5" style="stroke:#F1F1F1;stroke-width:1.5;" width="207" x="248" y="235"/><text fill="#000000" font-family="sans-serif" font-size="14" font-weight="bold" lengthAdjust="spacing" textLength="111" x="253" y="250.5352">total_null_rows</text><text fill="#000000" font-family="sans-serif" font-size="14" lengthAdjust="spacing" textLength="9" x="405" y="250.5352">0</text><line style="stroke:#000000;stroke-width:1.0;" x1="400" x2="400" y1="235" y2="255.4883"/><line style="stroke:#000000;stroke-width:1.0;" x1="248" x2="455" y1="255.4883" y2="255.4883"/><text fill="#000000" font-family="sans-serif" font-size="14" font-weight="bold" lengthAdjust="spacing" textLength="142" x="253" y="271.0234">total_not_null_rows</text><text fill="#000000" font-family="sans-serif" font-size="14" lengthAdjust="spacing" textLength="45" x="405" y="271.0234">31465</text><line style="stroke:#000000;stroke-width:1.0;" x1="400" x2="400" y1="255.4883" y2="275.9766"/><rect fill="none" height="40.9766" rx="5" ry="5" style="stroke:#000000;stroke-width:1.5;" width="207" x="248" y="235"/><rect fill="#F1F1F1" height="204.8828" rx="5" ry="5" style="stroke:#F1F1F1;stroke-width:1.5;" width="22" x="339.5" y="294"/><text fill="#000000" font-family="sans-serif" font-size="14" lengthAdjust="spacing" textLength="12" x="344.5" y="309.5352">   </text><line style="stroke:#000000;stroke-width:1.0;" x1="339.5" x2="361.5" y1="314.4883" y2="314.4883"/><text fill="#000000" font-family="sans-serif" font-size="14" lengthAdjust="spacing" textLength="12" x="344.5" y="330.0234">   </text><line style="stroke:#000000;stroke-width:1.0;" x1="339.5" x2="361.5" y1="334.9766" y2="334.9766"/><text fill="#000000" font-family="sans-serif" font-size="14" lengthAdjust="spacing" textLength="12" x="344.5" y="350.5117">   </text><line style="stroke:#000000;stroke-width:1.0;" x1="339.5" x2="361.5" y1="355.4648" y2="355.4648"/><text fill="#000000" font-family="sans-serif" font-size="14" lengthAdjust="spacing" textLength="12" x="344.5" y="371">   </text><line style="stroke:#000000;stroke-width:1.0;" x1="339.5" x2="361.5" y1="375.9531" y2="375.9531"/><text fill="#000000" font-family="sans-serif" font-size="14" lengthAdjust="spacing" textLength="12" x="344.5" y="391.4883">   </text><line style="stroke:#000000;stroke-width:1.0;" x1="339.5" x2="361.5" y1="396.4414" y2="396.4414"/><text fill="#000000" font-family="sans-serif" font-size="14" lengthAdjust="spacing" textLength="12" x="344.5" y="411.9766">   </text><line style="stroke:#000000;stroke-width:1.0;" x1="339.5" x2="361.5" y1="416.9297" y2="416.9297"/><text fill="#000000" font-family="sans-serif" font-size="14" lengthAdjust="spacing" textLength="12" x="344.5" y="432.4648">   </text><line style="stroke:#000000;stroke-width:1.0;" x1="339.5" x2="361.5" y1="437.418" y2="437.418"/><text fill="#000000" font-family="sans-serif" font-size="14" lengthAdjust="spacing" textLength="12" x="344.5" y="452.9531">   </text><line style="stroke:#000000;stroke-width:1.0;" x1="339.5" x2="361.5" y1="457.9063" y2="457.9063"/><text fill="#000000" font-family="sans-serif" font-size="14" lengthAdjust="spacing" textLength="12" x="344.5" y="473.4414">   </text><line style="stroke:#000000;stroke-width:1.0;" x1="339.5" x2="361.5" y1="478.3945" y2="478.3945"/><text fill="#000000" font-family="sans-serif" font-size="14" lengthAdjust="spacing" textLength="12" x="344.5" y="493.9297">   </text><rect fill="none" height="204.8828" rx="5" ry="5" style="stroke:#000000;stroke-width:1.5;" width="22" x="339.5" y="294"/><rect fill="#F1F1F1" height="61.4648" rx="5" ry="5" style="stroke:#F1F1F1;stroke-width:1.5;" width="432" x="494.5" y="10"/><text fill="#000000" font-family="sans-serif" font-size="14" font-weight="bold" lengthAdjust="spacing" textLength="78" x="499.5" y="25.5352">field_value</text><text fill="#000000" font-family="sans-serif" font-size="14" lengthAdjust="spacing" textLength="318" x="603.5" y="25.5352">001AEEB6-3BE4-4006-9C0B-C57A2DF76908</text><line style="stroke:#000000;stroke-width:1.0;" x1="598.5" x2="598.5" y1="10" y2="30.4883"/><line style="stroke:#000000;stroke-width:1.0;" x1="494.5" x2="926.5" y1="30.4883" y2="30.4883"/><text fill="#000000" font-family="sans-serif" font-size="14" font-weight="bold" lengthAdjust="spacing" textLength="74" x="499.5" y="46.0234">row_count</text><text fill="#000000" font-family="sans-serif" font-size="14" lengthAdjust="spacing" textLength="9" x="603.5" y="46.0234">1</text><line style="stroke:#000000;stroke-width:1.0;" x1="598.5" x2="598.5" y1="30.4883" y2="50.9766"/><line style="stroke:#000000;stroke-width:1.0;" x1="494.5" x2="926.5" y1="50.9766" y2="50.9766"/><text fill="#000000" font-family="sans-serif" font-size="14" font-weight="bold" lengthAdjust="spacing" textLength="94" x="499.5" y="66.5117">ratio_percent</text><text fill="#000000" font-family="sans-serif" font-size="14" lengthAdjust="spacing" textLength="184" x="603.5" y="66.5117">0.0031781344350866043</text><line style="stroke:#000000;stroke-width:1.0;" x1="598.5" x2="598.5" y1="50.9766" y2="71.4648"/><rect fill="none" height="61.4648" rx="5" ry="5" style="stroke:#000000;stroke-width:1.5;" width="432" x="494.5" y="10"/><rect fill="#F1F1F1" height="61.4648" rx="5" ry="5" style="stroke:#F1F1F1;stroke-width:1.5;" width="435" x="493" y="89"/><text fill="#000000" font-family="sans-serif" font-size="14" font-weight="bold" lengthAdjust="spacing" textLength="78" x="498" y="104.5352">field_value</text><text fill="#000000" font-family="sans-serif" font-size="14" lengthAdjust="spacing" textLength="321" x="602" y="104.5352">0019AEDF-6A3C-4D36-B32E-AA3BA0BC61BF</text><line style="stroke:#000000;stroke-width:1.0;" x1="597" x2="597" y1="89" y2="109.4883"/><line style="stroke:#000000;stroke-width:1.0;" x1="493" x2="928" y1="109.4883" y2="109.4883"/><text fill="#000000" font-family="sans-serif" font-size="14" font-weight="bold" lengthAdjust="spacing" textLength="74" x="498" y="125.0234">row_count</text><text fill="#000000" font-family="sans-serif" font-size="14" lengthAdjust="spacing" textLength="9" x="602" y="125.0234">1</text><line style="stroke:#000000;stroke-width:1.0;" x1="597" x2="597" y1="109.4883" y2="129.9766"/><line style="stroke:#000000;stroke-width:1.0;" x1="493" x2="928" y1="129.9766" y2="129.9766"/><text fill="#000000" font-family="sans-serif" font-size="14" font-weight="bold" lengthAdjust="spacing" textLength="94" x="498" y="145.5117">ratio_percent</text><text fill="#000000" font-family="sans-serif" font-size="14" lengthAdjust="spacing" textLength="184" x="602" y="145.5117">0.0031781344350866043</text><line style="stroke:#000000;stroke-width:1.0;" x1="597" x2="597" y1="129.9766" y2="150.4648"/><rect fill="none" height="61.4648" rx="5" ry="5" style="stroke:#000000;stroke-width:1.5;" width="435" x="493" y="89"/><rect fill="#F1F1F1" height="61.4648" rx="5" ry="5" style="stroke:#F1F1F1;stroke-width:1.5;" width="433" x="494" y="168"/><text fill="#000000" font-family="sans-serif" font-size="14" font-weight="bold" lengthAdjust="spacing" textLength="78" x="499" y="183.5352">field_value</text><text fill="#000000" font-family="sans-serif" font-size="14" lengthAdjust="spacing" textLength="319" x="603" y="183.5352">0010109F-8E73-4897-8BC7-D53C686F6B4C</text><line style="stroke:#000000;stroke-width:1.0;" x1="598" x2="598" y1="168" y2="188.4883"/><line style="stroke:#000000;stroke-width:1.0;" x1="494" x2="927" y1="188.4883" y2="188.4883"/><text fill="#000000" font-family="sans-serif" font-size="14" font-weight="bold" lengthAdjust="spacing" textLength="74" x="499" y="204.0234">row_count</text><text fill="#000000" font-family="sans-serif" font-size="14" lengthAdjust="spacing" textLength="9" x="603" y="204.0234">1</text><line style="stroke:#000000;stroke-width:1.0;" x1="598" x2="598" y1="188.4883" y2="208.9766"/><line style="stroke:#000000;stroke-width:1.0;" x1="494" x2="927" y1="208.9766" y2="208.9766"/><text fill="#000000" font-family="sans-serif" font-size="14" font-weight="bold" lengthAdjust="spacing" textLength="94" x="499" y="224.5117">ratio_percent</text><text fill="#000000" font-family="sans-serif" font-size="14" lengthAdjust="spacing" textLength="184" x="603" y="224.5117">0.0031781344350866043</text><line style="stroke:#000000;stroke-width:1.0;" x1="598" x2="598" y1="208.9766" y2="229.4648"/><rect fill="none" height="61.4648" rx="5" ry="5" style="stroke:#000000;stroke-width:1.5;" width="433" x="494" y="168"/><rect fill="#F1F1F1" height="61.4648" rx="5" ry="5" style="stroke:#F1F1F1;stroke-width:1.5;" width="436" x="492.5" y="247"/><text fill="#000000" font-family="sans-serif" font-size="14" font-weight="bold" lengthAdjust="spacing" textLength="78" x="497.5" y="262.5352">field_value</text><text fill="#000000" font-family="sans-serif" font-size="14" lengthAdjust="spacing" textLength="322" x="601.5" y="262.5352">000A5D2D-F3E3-4903-9536-11DD4FE1A823</text><line style="stroke:#000000;stroke-width:1.0;" x1="596.5" x2="596.5" y1="247" y2="267.4883"/><line style="stroke:#000000;stroke-width:1.0;" x1="492.5" x2="928.5" y1="267.4883" y2="267.4883"/><text fill="#000000" font-family="sans-serif" font-size="14" font-weight="bold" lengthAdjust="spacing" textLength="74" x="497.5" y="283.0234">row_count</text><text fill="#000000" font-family="sans-serif" font-size="14" lengthAdjust="spacing" textLength="9" x="601.5" y="283.0234">1</text><line style="stroke:#000000;stroke-width:1.0;" x1="596.5" x2="596.5" y1="267.4883" y2="287.9766"/><line style="stroke:#000000;stroke-width:1.0;" x1="492.5" x2="928.5" y1="287.9766" y2="287.9766"/><text fill="#000000" font-family="sans-serif" font-size="14" font-weight="bold" lengthAdjust="spacing" textLength="94" x="497.5" y="303.5117">ratio_percent</text><text fill="#000000" font-family="sans-serif" font-size="14" lengthAdjust="spacing" textLength="184" x="601.5" y="303.5117">0.0031781344350866043</text><line style="stroke:#000000;stroke-width:1.0;" x1="596.5" x2="596.5" y1="287.9766" y2="308.4648"/><rect fill="none" height="61.4648" rx="5" ry="5" style="stroke:#000000;stroke-width:1.5;" width="436" x="492.5" y="247"/><rect fill="#F1F1F1" height="61.4648" rx="5" ry="5" style="stroke:#F1F1F1;stroke-width:1.5;" width="435" x="493" y="326"/><text fill="#000000" font-family="sans-serif" font-size="14" font-weight="bold" lengthAdjust="spacing" textLength="78" x="498" y="341.5352">field_value</text><text fill="#000000" font-family="sans-serif" font-size="14" lengthAdjust="spacing" textLength="321" x="602" y="341.5352">00099B64-39E7-4DE9-94BA-2CA07A986853</text><line style="stroke:#000000;stroke-width:1.0;" x1="597" x2="597" y1="326" y2="346.4883"/><line style="stroke:#000000;stroke-width:1.0;" x1="493" x2="928" y1="346.4883" y2="346.4883"/><text fill="#000000" font-family="sans-serif" font-size="14" font-weight="bold" lengthAdjust="spacing" textLength="74" x="498" y="362.0234">row_count</text><text fill="#000000" font-family="sans-serif" font-size="14" lengthAdjust="spacing" textLength="9" x="602" y="362.0234">1</text><line style="stroke:#000000;stroke-width:1.0;" x1="597" x2="597" y1="346.4883" y2="366.9766"/><line style="stroke:#000000;stroke-width:1.0;" x1="493" x2="928" y1="366.9766" y2="366.9766"/><text fill="#000000" font-family="sans-serif" font-size="14" font-weight="bold" lengthAdjust="spacing" textLength="94" x="498" y="382.5117">ratio_percent</text><text fill="#000000" font-family="sans-serif" font-size="14" lengthAdjust="spacing" textLength="184" x="602" y="382.5117">0.0031781344350866043</text><line style="stroke:#000000;stroke-width:1.0;" x1="597" x2="597" y1="366.9766" y2="387.4648"/><rect fill="none" height="61.4648" rx="5" ry="5" style="stroke:#000000;stroke-width:1.5;" width="435" x="493" y="326"/><rect fill="#F1F1F1" height="61.4648" rx="5" ry="5" style="stroke:#F1F1F1;stroke-width:1.5;" width="436" x="492.5" y="405"/><text fill="#000000" font-family="sans-serif" font-size="14" font-weight="bold" lengthAdjust="spacing" textLength="78" x="497.5" y="420.5352">field_value</text><text fill="#000000" font-family="sans-serif" font-size="14" lengthAdjust="spacing" textLength="322" x="601.5" y="420.5352">00099952-5D8E-414C-88C2-2FFDD59D810B</text><line style="stroke:#000000;stroke-width:1.0;" x1="596.5" x2="596.5" y1="405" y2="425.4883"/><line style="stroke:#000000;stroke-width:1.0;" x1="492.5" x2="928.5" y1="425.4883" y2="425.4883"/><text fill="#000000" font-family="sans-serif" font-size="14" font-weight="bold" lengthAdjust="spacing" textLength="74" x="497.5" y="441.0234">row_count</text><text fill="#000000" font-family="sans-serif" font-size="14" lengthAdjust="spacing" textLength="9" x="601.5" y="441.0234">1</text><line style="stroke:#000000;stroke-width:1.0;" x1="596.5" x2="596.5" y1="425.4883" y2="445.9766"/><line style="stroke:#000000;stroke-width:1.0;" x1="492.5" x2="928.5" y1="445.9766" y2="445.9766"/><text fill="#000000" font-family="sans-serif" font-size="14" font-weight="bold" lengthAdjust="spacing" textLength="94" x="497.5" y="461.5117">ratio_percent</text><text fill="#000000" font-family="sans-serif" font-size="14" lengthAdjust="spacing" textLength="184" x="601.5" y="461.5117">0.0031781344350866043</text><line style="stroke:#000000;stroke-width:1.0;" x1="596.5" x2="596.5" y1="445.9766" y2="466.4648"/><rect fill="none" height="61.4648" rx="5" ry="5" style="stroke:#000000;stroke-width:1.5;" width="436" x="492.5" y="405"/><rect fill="#F1F1F1" height="61.4648" rx="5" ry="5" style="stroke:#F1F1F1;stroke-width:1.5;" width="433" x="494" y="484"/><text fill="#000000" font-family="sans-serif" font-size="14" font-weight="bold" lengthAdjust="spacing" textLength="78" x="499" y="499.5352">field_value</text><text fill="#000000" font-family="sans-serif" font-size="14" lengthAdjust="spacing" textLength="319" x="603" y="499.5352">0008C5D1-3847-4F47-BD7E-70A83FF81835</text><line style="stroke:#000000;stroke-width:1.0;" x1="598" x2="598" y1="484" y2="504.4883"/><line style="stroke:#000000;stroke-width:1.0;" x1="494" x2="927" y1="504.4883" y2="504.4883"/><text fill="#000000" font-family="sans-serif" font-size="14" font-weight="bold" lengthAdjust="spacing" textLength="74" x="499" y="520.0234">row_count</text><text fill="#000000" font-family="sans-serif" font-size="14" lengthAdjust="spacing" textLength="9" x="603" y="520.0234">1</text><line style="stroke:#000000;stroke-width:1.0;" x1="598" x2="598" y1="504.4883" y2="524.9766"/><line style="stroke:#000000;stroke-width:1.0;" x1="494" x2="927" y1="524.9766" y2="524.9766"/><text fill="#000000" font-family="sans-serif" font-size="14" font-weight="bold" lengthAdjust="spacing" textLength="94" x="499" y="540.5117">ratio_percent</text><text fill="#000000" font-family="sans-serif" font-size="14" lengthAdjust="spacing" textLength="184" x="603" y="540.5117">0.0031781344350866043</text><line style="stroke:#000000;stroke-width:1.0;" x1="598" x2="598" y1="524.9766" y2="545.4648"/><rect fill="none" height="61.4648" rx="5" ry="5" style="stroke:#000000;stroke-width:1.5;" width="433" x="494" y="484"/><rect fill="#F1F1F1" height="61.4648" rx="5" ry="5" style="stroke:#F1F1F1;stroke-width:1.5;" width="432" x="494.5" y="563"/><text fill="#000000" font-family="sans-serif" font-size="14" font-weight="bold" lengthAdjust="spacing" textLength="78" x="499.5" y="578.5352">field_value</text><text fill="#000000" font-family="sans-serif" font-size="14" lengthAdjust="spacing" textLength="318" x="603.5" y="578.5352">0007D2E3-1BC0-4DB4-BDFC-AF4B9FEB6A9A</text><line style="stroke:#000000;stroke-width:1.0;" x1="598.5" x2="598.5" y1="563" y2="583.4883"/><line style="stroke:#000000;stroke-width:1.0;" x1="494.5" x2="926.5" y1="583.4883" y2="583.4883"/><text fill="#000000" font-family="sans-serif" font-size="14" font-weight="bold" lengthAdjust="spacing" textLength="74" x="499.5" y="599.0234">row_count</text><text fill="#000000" font-family="sans-serif" font-size="14" lengthAdjust="spacing" textLength="9" x="603.5" y="599.0234">1</text><line style="stroke:#000000;stroke-width:1.0;" x1="598.5" x2="598.5" y1="583.4883" y2="603.9766"/><line style="stroke:#000000;stroke-width:1.0;" x1="494.5" x2="926.5" y1="603.9766" y2="603.9766"/><text fill="#000000" font-family="sans-serif" font-size="14" font-weight="bold" lengthAdjust="spacing" textLength="94" x="499.5" y="619.5117">ratio_percent</text><text fill="#000000" font-family="sans-serif" font-size="14" lengthAdjust="spacing" textLength="184" x="603.5" y="619.5117">0.0031781344350866043</text><line style="stroke:#000000;stroke-width:1.0;" x1="598.5" x2="598.5" y1="603.9766" y2="624.4648"/><rect fill="none" height="61.4648" rx="5" ry="5" style="stroke:#000000;stroke-width:1.5;" width="432" x="494.5" y="563"/><rect fill="#F1F1F1" height="61.4648" rx="5" ry="5" style="stroke:#F1F1F1;stroke-width:1.5;" width="432" x="494.5" y="642"/><text fill="#000000" font-family="sans-serif" font-size="14" font-weight="bold" lengthAdjust="spacing" textLength="78" x="499.5" y="657.5352">field_value</text><text fill="#000000" font-family="sans-serif" font-size="14" lengthAdjust="spacing" textLength="318" x="603.5" y="657.5352">0004E1D8-4756-4CBE-9F38-C1D8B3E47130</text><line style="stroke:#000000;stroke-width:1.0;" x1="598.5" x2="598.5" y1="642" y2="662.4883"/><line style="stroke:#000000;stroke-width:1.0;" x1="494.5" x2="926.5" y1="662.4883" y2="662.4883"/><text fill="#000000" font-family="sans-serif" font-size="14" font-weight="bold" lengthAdjust="spacing" textLength="74" x="499.5" y="678.0234">row_count</text><text fill="#000000" font-family="sans-serif" font-size="14" lengthAdjust="spacing" textLength="9" x="603.5" y="678.0234">1</text><line style="stroke:#000000;stroke-width:1.0;" x1="598.5" x2="598.5" y1="662.4883" y2="682.9766"/><line style="stroke:#000000;stroke-width:1.0;" x1="494.5" x2="926.5" y1="682.9766" y2="682.9766"/><text fill="#000000" font-family="sans-serif" font-size="14" font-weight="bold" lengthAdjust="spacing" textLength="94" x="499.5" y="698.5117">ratio_percent</text><text fill="#000000" font-family="sans-serif" font-size="14" lengthAdjust="spacing" textLength="184" x="603.5" y="698.5117">0.0031781344350866043</text><line style="stroke:#000000;stroke-width:1.0;" x1="598.5" x2="598.5" y1="682.9766" y2="703.4648"/><rect fill="none" height="61.4648" rx="5" ry="5" style="stroke:#000000;stroke-width:1.5;" width="432" x="494.5" y="642"/><rect fill="#F1F1F1" height="61.4648" rx="5" ry="5" style="stroke:#F1F1F1;stroke-width:1.5;" width="437" x="492" y="721"/><text fill="#000000" font-family="sans-serif" font-size="14" font-weight="bold" lengthAdjust="spacing" textLength="78" x="497" y="736.5352">field_value</text><text fill="#000000" font-family="sans-serif" font-size="14" lengthAdjust="spacing" textLength="323" x="601" y="736.5352">00032DF7-5D34-4ECC-9BC2-353D3C918E93</text><line style="stroke:#000000;stroke-width:1.0;" x1="596" x2="596" y1="721" y2="741.4883"/><line style="stroke:#000000;stroke-width:1.0;" x1="492" x2="929" y1="741.4883" y2="741.4883"/><text fill="#000000" font-family="sans-serif" font-size="14" font-weight="bold" lengthAdjust="spacing" textLength="74" x="497" y="757.0234">row_count</text><text fill="#000000" font-family="sans-serif" font-size="14" lengthAdjust="spacing" textLength="9" x="601" y="757.0234">1</text><line style="stroke:#000000;stroke-width:1.0;" x1="596" x2="596" y1="741.4883" y2="761.9766"/><line style="stroke:#000000;stroke-width:1.0;" x1="492" x2="929" y1="761.9766" y2="761.9766"/><text fill="#000000" font-family="sans-serif" font-size="14" font-weight="bold" lengthAdjust="spacing" textLength="94" x="497" y="777.5117">ratio_percent</text><text fill="#000000" font-family="sans-serif" font-size="14" lengthAdjust="spacing" textLength="184" x="601" y="777.5117">0.0031781344350866043</text><line style="stroke:#000000;stroke-width:1.0;" x1="596" x2="596" y1="761.9766" y2="782.4648"/><rect fill="none" height="61.4648" rx="5" ry="5" style="stroke:#000000;stroke-width:1.5;" width="437" x="492" y="721"/><path d="M199,315.5 L212,315.5 C232.8273,315.5 229.6143,295.285 248,285.5 C252.4187,283.1484 257.0447,280.9598 261.7859,278.9261 " fill="none" style="stroke:#000000;stroke-width:1.0;stroke-dasharray:3.0,3.0;"/><path d="M262.9339,281.7334 L263.8914,278.0652 L260.638,276.1189 L268.804,276.0563 L262.9339,281.7334 " fill="#000000" style="stroke:#000000;stroke-width:1.0;"/><ellipse cx="199" cy="315.5" fill="#000000" rx="3" ry="3" style="stroke:#000000;stroke-width:1.0;"/><path d="M352,303.5 L365,303.5 C406.2281,303.5 427.1738,314.9755 456,285.5 C520.9848,219.0516 426.4114,145.3525 492,79.5 C493.1192,78.3763 494.2589,77.2787 495.4183,76.2066 " fill="none" style="stroke:#000000;stroke-width:1.0;stroke-dasharray:3.0,3.0;"/><path d="M497.4783,78.5887 L497.2049,74.6615 L493.3582,73.8244 L501.3736,71.0564 L497.4783,78.5887 " fill="#000000" style="stroke:#000000;stroke-width:1.0;"/><ellipse cx="352" cy="303.5" fill="#000000" rx="3" ry="3" style="stroke:#000000;stroke-width:1.0;"/><path d="M352,324.5 L365,324.5 C409.0022,324.5 426.9505,318.5503 456,285.5 C494.7318,241.4339 448.5096,197.8771 492,158.5 C493.3315,157.2944 494.6871,156.1198 496.0653,154.9755 " fill="none" style="stroke:#000000;stroke-width:1.0;stroke-dasharray:3.0,3.0;"/><path d="M497.9956,157.4492 L497.9206,153.5278 L494.1351,152.5018 L502.2496,150.1499 L497.9956,157.4492 " fill="#000000" style="stroke:#000000;stroke-width:1.0;"/><ellipse cx="352" cy="324.5" fill="#000000" rx="3" ry="3" style="stroke:#000000;stroke-width:1.0;"/><path d="M352,344.5 L365,344.5 C413.2012,344.5 420.773,318.4001 456,285.5 C475.4889,267.2985 469.2962,251.4874 492,237.5 C494.762,235.7984 497.5787,234.1666 500.4435,232.6018 " fill="none" style="stroke:#000000;stroke-width:1.0;stroke-dasharray:3.0,3.0;"/><path d="M501.8558,235.3094 L502.4742,231.5426 L499.0313,229.8943 L507.2125,229.0711 L501.8558,235.3094 " fill="#000000" style="stroke:#000000;stroke-width:1.0;"/><ellipse cx="352" cy="344.5" fill="#000000" rx="3" ry="3" style="stroke:#000000;stroke-width:1.0;"/><path d="M352,365.5 L365,365.5 C425.3414,365.5 433.8675,333.6771 492,317.5 C501.6948,314.8021 511.6839,312.238 521.806,309.8085 " fill="none" style="stroke:#000000;stroke-width:1.0;stroke-dasharray:3.0,3.0;"/><path d="M522.5041,312.7652 L524.0234,309.285 L521.1079,306.8519 L529.1976,308.0633 L522.5041,312.7652 " fill="#000000" style="stroke:#000000;stroke-width:1.0;"/><ellipse cx="352" cy="365.5" fill="#000000" rx="3" ry="3" style="stroke:#000000;stroke-width:1.0;"/><path d="M352,385.5 L365,385.5 C403.8818,385.5 445.142,383.6484 485.0962,380.8808 " fill="none" style="stroke:#000000;stroke-width:1.0;stroke-dasharray:3.0,3.0;"/><path d="M485.3224,384.0698 L487.4879,380.7112 L484.87,377.6919 L493.0685,380.3154 L485.3224,384.0698 " fill="#000000" style="stroke:#000000;stroke-width:1.0;"/><ellipse cx="352" cy="385.5" fill="#000000" rx="3" ry="3" style="stroke:#000000;stroke-width:1.0;"/><path d="M352,406.5 L365,406.5 C403.7409,406.5 444.8431,408.3383 484.6619,411.0891 " fill="none" style="stroke:#000000;stroke-width:1.0;stroke-dasharray:3.0,3.0;"/><path d="M484.4371,414.2674 L487.0456,411.2578 L484.8867,407.9109 L492.6075,411.6512 L484.4371,414.2674 " fill="#000000" style="stroke:#000000;stroke-width:1.0;"/><ellipse cx="352" cy="406.5" fill="#000000" rx="3" ry="3" style="stroke:#000000;stroke-width:1.0;"/><path d="M352,427.5 L365,427.5 C425.3414,427.5 433.8317,459.4521 492,475.5 C500.4696,477.8367 509.1641,480.0669 517.976,482.1911 " fill="none" style="stroke:#000000;stroke-width:1.0;stroke-dasharray:3.0,3.0;"/><path d="M517.2722,485.162 L520.2042,482.719 L518.6798,479.2202 L525.4032,483.9505 L517.2722,485.162 " fill="#000000" style="stroke:#000000;stroke-width:1.0;"/><ellipse cx="352" cy="427.5" fill="#000000" rx="3" ry="3" style="stroke:#000000;stroke-width:1.0;"/><path d="M352,447.5 L365,447.5 C438.8072,447.5 425.1782,523.1574 492,554.5 C496.2832,556.509 500.6582,558.415 505.1064,560.2232 " fill="none" style="stroke:#000000;stroke-width:1.0;stroke-dasharray:3.0,3.0;"/><path d="M504.0017,563.0422 L507.2207,561.0517 L506.2111,557.4042 L512.154,562.985 L504.0017,563.0422 " fill="#000000" style="stroke:#000000;stroke-width:1.0;"/><ellipse cx="352" cy="447.5" fill="#000000" rx="3" ry="3" style="stroke:#000000;stroke-width:1.0;"/><path d="M352,468.5 L365,468.5 C457.5405,468.5 412.9101,585.4528 492,633.5 C494.8187,635.2124 497.6934,636.8538 500.6169,638.4271 " fill="none" style="stroke:#000000;stroke-width:1.0;stroke-dasharray:3.0,3.0;"/><path d="M499.1975,641.19 L502.6891,639.4917 L502.0364,635.6642 L507.5242,641.9758 L499.1975,641.19 " fill="#000000" style="stroke:#000000;stroke-width:1.0;"/><ellipse cx="352" cy="468.5" fill="#000000" rx="3" ry="3" style="stroke:#000000;stroke-width:1.0;"/><path d="M352,488.5 L365,488.5 C479.4434,488.5 398.5934,646.3752 492,712.5 C494.1182,713.9995 496.2762,715.4471 498.4706,716.8444 " fill="none" style="stroke:#000000;stroke-width:1.0;stroke-dasharray:3.0,3.0;"/><path d="M496.8535,719.5197 L500.4771,718.0572 L500.0877,714.1691 L505.1589,720.8872 L496.8535,719.5197 " fill="#000000" style="stroke:#000000;stroke-width:1.0;"/><ellipse cx="352" cy="488.5" fill="#000000" rx="3" ry="3" style="stroke:#000000;stroke-width:1.0;"/><path d="M199,336.5 L212,336.5 C259.0497,336.5 308.2629,365.8357 333.6101,383.482 " fill="none" style="stroke:#000000;stroke-width:1.0;stroke-dasharray:3.0,3.0;"/><path d="M331.8416,385.964 L335.4716,384.8085 L335.3787,381.0001 L339.815,387.9035 L331.8416,385.964 " fill="#000000" style="stroke:#000000;stroke-width:1.0;"/><ellipse cx="199" cy="336.5" fill="#000000" rx="3" ry="3" style="stroke:#000000;stroke-width:1.0;"/><!--MD5=[206997b292c384a77f5d96bbe9545485]
@startjson
{
    "field1": "rowguid",
    "combination": "rowguid",
    "null_distribution": {
        "total_null_rows": 0,
        "total_not_null_rows": 31465
    },
    "data_distribution": [
        {
            "field_value": "001AEEB6-3BE4-4006-9C0B-C57A2DF76908",
            "row_count": 1,
            "ratio_percent": 0.0031781344350866043
        },
        {
            "field_value": "0019AEDF-6A3C-4D36-B32E-AA3BA0BC61BF",
            "row_count": 1,
            "ratio_percent": 0.0031781344350866043
        },
        {
            "field_value": "0010109F-8E73-4897-8BC7-D53C686F6B4C",
            "row_count": 1,
            "ratio_percent": 0.0031781344350866043
        },
        {
            "field_value": "000A5D2D-F3E3-4903-9536-11DD4FE1A823",
            "row_count": 1,
            "ratio_percent": 0.0031781344350866043
        },
        {
            "field_value": "00099B64-39E7-4DE9-94BA-2CA07A986853",
            "row_count": 1,
            "ratio_percent": 0.0031781344350866043
        },
        {
            "field_value": "00099952-5D8E-414C-88C2-2FFDD59D810B",
            "row_count": 1,
            "ratio_percent": 0.0031781344350866043
        },
        {
            "field_value": "0008C5D1-3847-4F47-BD7E-70A83FF81835",
            "row_count": 1,
            "ratio_percent": 0.0031781344350866043
        },
        {
            "field_value": "0007D2E3-1BC0-4DB4-BDFC-AF4B9FEB6A9A",
            "row_count": 1,
            "ratio_percent": 0.0031781344350866043
        },
        {
            "field_value": "0004E1D8-4756-4CBE-9F38-C1D8B3E47130",
            "row_count": 1,
            "ratio_percent": 0.0031781344350866043
        },
        {
            "field_value": "00032DF7-5D34-4ECC-9BC2-353D3C918E93",
            "row_count": 1,
            "ratio_percent": 0.0031781344350866043
        }
    ]
}
@endjson

PlantUML version 1.2022.5(Sat Apr 30 06:55:52 EDT 2022)
(GPL source distribution)
Java Runtime: OpenJDK Runtime Environment
JVM: OpenJDK 64-Bit Server VM
Default Encoding: UTF-8
Language: en
Country: CA
--></g></svg>