<?xml version="1.0" encoding="UTF-8" standalone="no"?><svg xmlns="http://www.w3.org/2000/svg" xmlns:xlink="http://www.w3.org/1999/xlink" contentStyleType="text/css" height="478px" preserveAspectRatio="none" style="width:622px;height:478px;background:#FFFFFF;" version="1.1" viewBox="0 0 622 478" width="622px" zoomAndPan="magnify"><defs/><g><rect fill="#F1F1F1" height="81.9531" rx="5" ry="5" style="stroke:#F1F1F1;stroke-width:1.5;" width="192" x="10" y="126.5"/><text fill="#000000" font-family="sans-serif" font-size="14" font-weight="bold" lengthAdjust="spacing" textLength="42" x="15" y="142.0352">field1</text><text fill="#000000" font-family="sans-serif" font-size="14" lengthAdjust="spacing" textLength="48" x="149" y="142.0352">MinQty</text><line style="stroke:#000000;stroke-width:1.0;" x1="144" x2="144" y1="126.5" y2="146.9883"/><line style="stroke:#000000;stroke-width:1.0;" x1="10" x2="202" y1="146.9883" y2="146.9883"/><text fill="#000000" font-family="sans-serif" font-size="14" font-weight="bold" lengthAdjust="spacing" textLength="90" x="15" y="162.5234">combination</text><text fill="#000000" font-family="sans-serif" font-size="14" lengthAdjust="spacing" textLength="48" x="149" y="162.5234">MinQty</text><line style="stroke:#000000;stroke-width:1.0;" x1="144" x2="144" y1="146.9883" y2="167.4766"/><line style="stroke:#000000;stroke-width:1.0;" x1="10" x2="202" y1="167.4766" y2="167.4766"/><text fill="#000000" font-family="sans-serif" font-size="14" font-weight="bold" lengthAdjust="spacing" textLength="121" x="15" y="183.0117">null_distribution</text><text fill="#000000" font-family="sans-serif" font-size="14" lengthAdjust="spacing" textLength="12" x="149" y="183.0117">   </text><line style="stroke:#000000;stroke-width:1.0;" x1="144" x2="144" y1="167.4766" y2="187.9648"/><line style="stroke:#000000;stroke-width:1.0;" x1="10" x2="202" y1="187.9648" y2="187.9648"/><text fill="#000000" font-family="sans-serif" font-size="14" font-weight="bold" lengthAdjust="spacing" textLength="124" x="15" y="203.5">data_distribution</text><text fill="#000000" font-family="sans-serif" font-size="14" lengthAdjust="spacing" textLength="12" x="149" y="203.5">   </text><line style="stroke:#000000;stroke-width:1.0;" x1="144" x2="144" y1="187.9648" y2="208.4531"/><rect fill="none" height="81.9531" rx="5" ry="5" style="stroke:#000000;stroke-width:1.5;" width="192" x="10" y="126.5"/><rect fill="#F1F1F1" height="40.9766" rx="5" ry="5" style="stroke:#F1F1F1;stroke-width:1.5;" width="180" x="239" y="118"/><text fill="#000000" font-family="sans-serif" font-size="14" font-weight="bold" lengthAdjust="spacing" textLength="111" x="244" y="133.5352">total_null_rows</text><text fill="#000000" font-family="sans-serif" font-size="14" lengthAdjust="spacing" textLength="9" x="396" y="133.5352">0</text><line style="stroke:#000000;stroke-width:1.0;" x1="391" x2="391" y1="118" y2="138.4883"/><line style="stroke:#000000;stroke-width:1.0;" x1="239" x2="419" y1="138.4883" y2="138.4883"/><text fill="#000000" font-family="sans-serif" font-size="14" font-weight="bold" lengthAdjust="spacing" textLength="142" x="244" y="154.0234">total_not_null_rows</text><text fill="#000000" font-family="sans-serif" font-size="14" lengthAdjust="spacing" textLength="18" x="396" y="154.0234">16</text><line style="stroke:#000000;stroke-width:1.0;" x1="391" x2="391" y1="138.4883" y2="158.9766"/><rect fill="none" height="40.9766" rx="5" ry="5" style="stroke:#000000;stroke-width:1.5;" width="180" x="239" y="118"/><rect fill="#F1F1F1" height="122.9297" rx="5" ry="5" style="stroke:#F1F1F1;stroke-width:1.5;" width="22" x="317" y="177"/><text fill="#000000" font-family="sans-serif" font-size="14" lengthAdjust="spacing" textLength="12" x="322" y="192.5352">   </text><line style="stroke:#000000;stroke-width:1.0;" x1="317" x2="339" y1="197.4883" y2="197.4883"/><text fill="#000000" font-family="sans-serif" font-size="14" lengthAdjust="spacing" textLength="12" x="322" y="213.0234">   </text><line style="stroke:#000000;stroke-width:1.0;" x1="317" x2="339" y1="217.9766" y2="217.9766"/><text fill="#000000" font-family="sans-serif" font-size="14" lengthAdjust="spacing" textLength="12" x="322" y="233.5117">   </text><line style="stroke:#000000;stroke-width:1.0;" x1="317" x2="339" y1="238.4648" y2="238.4648"/><text fill="#000000" font-family="sans-serif" font-size="14" lengthAdjust="spacing" textLength="12" x="322" y="254">   </text><line style="stroke:#000000;stroke-width:1.0;" x1="317" x2="339" y1="258.9531" y2="258.9531"/><text fill="#000000" font-family="sans-serif" font-size="14" lengthAdjust="spacing" textLength="12" x="322" y="274.4883">   </text><line style="stroke:#000000;stroke-width:1.0;" x1="317" x2="339" y1="279.4414" y2="279.4414"/><text fill="#000000" font-family="sans-serif" font-size="14" lengthAdjust="spacing" textLength="12" x="322" y="294.9766">   </text><rect fill="none" height="122.9297" rx="5" ry="5" style="stroke:#000000;stroke-width:1.5;" width="22" x="317" y="177"/><rect fill="#F1F1F1" height="61.4648" rx="5" ry="5" style="stroke:#F1F1F1;stroke-width:1.5;" width="154" x="456" y="10"/><text fill="#000000" font-family="sans-serif" font-size="14" font-weight="bold" lengthAdjust="spacing" textLength="78" x="461" y="25.5352">field_value</text><text fill="#000000" font-family="sans-serif" font-size="14" lengthAdjust="spacing" textLength="9" x="565" y="25.5352">0</text><line style="stroke:#000000;stroke-width:1.0;" x1="560" x2="560" y1="10" y2="30.4883"/><line style="stroke:#000000;stroke-width:1.0;" x1="456" x2="610" y1="30.4883" y2="30.4883"/><text fill="#000000" font-family="sans-serif" font-size="14" font-weight="bold" lengthAdjust="spacing" textLength="74" x="461" y="46.0234">row_count</text><text fill="#000000" font-family="sans-serif" font-size="14" lengthAdjust="spacing" textLength="18" x="565" y="46.0234">11</text><line style="stroke:#000000;stroke-width:1.0;" x1="560" x2="560" y1="30.4883" y2="50.9766"/><line style="stroke:#000000;stroke-width:1.0;" x1="456" x2="610" y1="50.9766" y2="50.9766"/><text fill="#000000" font-family="sans-serif" font-size="14" font-weight="bold" lengthAdjust="spacing" textLength="94" x="461" y="66.5117">ratio_percent</text><text fill="#000000" font-family="sans-serif" font-size="14" lengthAdjust="spacing" textLength="40" x="565" y="66.5117">68.75</text><line style="stroke:#000000;stroke-width:1.0;" x1="560" x2="560" y1="50.9766" y2="71.4648"/><rect fill="none" height="61.4648" rx="5" ry="5" style="stroke:#000000;stroke-width:1.5;" width="154" x="456" y="10"/><rect fill="#F1F1F1" height="61.4648" rx="5" ry="5" style="stroke:#F1F1F1;stroke-width:1.5;" width="145" x="460.5" y="89"/><text fill="#000000" font-family="sans-serif" font-size="14" font-weight="bold" lengthAdjust="spacing" textLength="78" x="465.5" y="104.5352">field_value</text><text fill="#000000" font-family="sans-serif" font-size="14" lengthAdjust="spacing" textLength="18" x="569.5" y="104.5352">61</text><line style="stroke:#000000;stroke-width:1.0;" x1="564.5" x2="564.5" y1="89" y2="109.4883"/><line style="stroke:#000000;stroke-width:1.0;" x1="460.5" x2="605.5" y1="109.4883" y2="109.4883"/><text fill="#000000" font-family="sans-serif" font-size="14" font-weight="bold" lengthAdjust="spacing" textLength="74" x="465.5" y="125.0234">row_count</text><text fill="#000000" font-family="sans-serif" font-size="14" lengthAdjust="spacing" textLength="9" x="569.5" y="125.0234">1</text><line style="stroke:#000000;stroke-width:1.0;" x1="564.5" x2="564.5" y1="109.4883" y2="129.9766"/><line style="stroke:#000000;stroke-width:1.0;" x1="460.5" x2="605.5" y1="129.9766" y2="129.9766"/><text fill="#000000" font-family="sans-serif" font-size="14" font-weight="bold" lengthAdjust="spacing" textLength="94" x="465.5" y="145.5117">ratio_percent</text><text fill="#000000" font-family="sans-serif" font-size="14" lengthAdjust="spacing" textLength="31" x="569.5" y="145.5117">6.25</text><line style="stroke:#000000;stroke-width:1.0;" x1="564.5" x2="564.5" y1="129.9766" y2="150.4648"/><rect fill="none" height="61.4648" rx="5" ry="5" style="stroke:#000000;stroke-width:1.5;" width="145" x="460.5" y="89"/><rect fill="#F1F1F1" height="61.4648" rx="5" ry="5" style="stroke:#F1F1F1;stroke-width:1.5;" width="145" x="460.5" y="168"/><text fill="#000000" font-family="sans-serif" font-size="14" font-weight="bold" lengthAdjust="spacing" textLength="78" x="465.5" y="183.5352">field_value</text><text fill="#000000" font-family="sans-serif" font-size="14" lengthAdjust="spacing" textLength="18" x="569.5" y="183.5352">41</text><line style="stroke:#000000;stroke-width:1.0;" x1="564.5" x2="564.5" y1="168" y2="188.4883"/><line style="stroke:#000000;stroke-width:1.0;" x1="460.5" x2="605.5" y1="188.4883" y2="188.4883"/><text fill="#000000" font-family="sans-serif" font-size="14" font-weight="bold" lengthAdjust="spacing" textLength="74" x="465.5" y="204.0234">row_count</text><text fill="#000000" font-family="sans-serif" font-size="14" lengthAdjust="spacing" textLength="9" x="569.5" y="204.0234">1</text><line style="stroke:#000000;stroke-width:1.0;" x1="564.5" x2="564.5" y1="188.4883" y2="208.9766"/><line style="stroke:#000000;stroke-width:1.0;" x1="460.5" x2="605.5" y1="208.9766" y2="208.9766"/><text fill="#000000" font-family="sans-serif" font-size="14" font-weight="bold" lengthAdjust="spacing" textLength="94" x="465.5" y="224.5117">ratio_percent</text><text fill="#000000" font-family="sans-serif" font-size="14" lengthAdjust="spacing" textLength="31" x="569.5" y="224.5117">6.25</text><line style="stroke:#000000;stroke-width:1.0;" x1="564.5" x2="564.5" y1="208.9766" y2="229.4648"/><rect fill="none" height="61.4648" rx="5" ry="5" style="stroke:#000000;stroke-width:1.5;" width="145" x="460.5" y="168"/><rect fill="#F1F1F1" height="61.4648" rx="5" ry="5" style="stroke:#F1F1F1;stroke-width:1.5;" width="145" x="460.5" y="247"/><text fill="#000000" font-family="sans-serif" font-size="14" font-weight="bold" lengthAdjust="spacing" textLength="78" x="465.5" y="262.5352">field_value</text><text fill="#000000" font-family="sans-serif" font-size="14" lengthAdjust="spacing" textLength="18" x="569.5" y="262.5352">25</text><line style="stroke:#000000;stroke-width:1.0;" x1="564.5" x2="564.5" y1="247" y2="267.4883"/><line style="stroke:#000000;stroke-width:1.0;" x1="460.5" x2="605.5" y1="267.4883" y2="267.4883"/><text fill="#000000" font-family="sans-serif" font-size="14" font-weight="bold" lengthAdjust="spacing" textLength="74" x="465.5" y="283.0234">row_count</text><text fill="#000000" font-family="sans-serif" font-size="14" lengthAdjust="spacing" textLength="9" x="569.5" y="283.0234">1</text><line style="stroke:#000000;stroke-width:1.0;" x1="564.5" x2="564.5" y1="267.4883" y2="287.9766"/><line style="stroke:#000000;stroke-width:1.0;" x1="460.5" x2="605.5" y1="287.9766" y2="287.9766"/><text fill="#000000" font-family="sans-serif" font-size="14" font-weight="bold" lengthAdjust="spacing" textLength="94" x="465.5" y="303.5117">ratio_percent</text><text fill="#000000" font-family="sans-serif" font-size="14" lengthAdjust="spacing" textLength="31" x="569.5" y="303.5117">6.25</text><line style="stroke:#000000;stroke-width:1.0;" x1="564.5" x2="564.5" y1="287.9766" y2="308.4648"/><rect fill="none" height="61.4648" rx="5" ry="5" style="stroke:#000000;stroke-width:1.5;" width="145" x="460.5" y="247"/><rect fill="#F1F1F1" height="61.4648" rx="5" ry="5" style="stroke:#F1F1F1;stroke-width:1.5;" width="145" x="460.5" y="326"/><text fill="#000000" font-family="sans-serif" font-size="14" font-weight="bold" lengthAdjust="spacing" textLength="78" x="465.5" y="341.5352">field_value</text><text fill="#000000" font-family="sans-serif" font-size="14" lengthAdjust="spacing" textLength="18" x="569.5" y="341.5352">15</text><line style="stroke:#000000;stroke-width:1.0;" x1="564.5" x2="564.5" y1="326" y2="346.4883"/><line style="stroke:#000000;stroke-width:1.0;" x1="460.5" x2="605.5" y1="346.4883" y2="346.4883"/><text fill="#000000" font-family="sans-serif" font-size="14" font-weight="bold" lengthAdjust="spacing" textLength="74" x="465.5" y="362.0234">row_count</text><text fill="#000000" font-family="sans-serif" font-size="14" lengthAdjust="spacing" textLength="9" x="569.5" y="362.0234">1</text><line style="stroke:#000000;stroke-width:1.0;" x1="564.5" x2="564.5" y1="346.4883" y2="366.9766"/><line style="stroke:#000000;stroke-width:1.0;" x1="460.5" x2="605.5" y1="366.9766" y2="366.9766"/><text fill="#000000" font-family="sans-serif" font-size="14" font-weight="bold" lengthAdjust="spacing" textLength="94" x="465.5" y="382.5117">ratio_percent</text><text fill="#000000" font-family="sans-serif" font-size="14" lengthAdjust="spacing" textLength="31" x="569.5" y="382.5117">6.25</text><line style="stroke:#000000;stroke-width:1.0;" x1="564.5" x2="564.5" y1="366.9766" y2="387.4648"/><rect fill="none" height="61.4648" rx="5" ry="5" style="stroke:#000000;stroke-width:1.5;" width="145" x="460.5" y="326"/><rect fill="#F1F1F1" height="61.4648" rx="5" ry="5" style="stroke:#F1F1F1;stroke-width:1.5;" width="145" x="460.5" y="405"/><text fill="#000000" font-family="sans-serif" font-size="14" font-weight="bold" lengthAdjust="spacing" textLength="78" x="465.5" y="420.5352">field_value</text><text fill="#000000" font-family="sans-serif" font-size="14" lengthAdjust="spacing" textLength="18" x="569.5" y="420.5352">11</text><line style="stroke:#000000;stroke-width:1.0;" x1="564.5" x2="564.5" y1="405" y2="425.4883"/><line style="stroke:#000000;stroke-width:1.0;" x1="460.5" x2="605.5" y1="425.4883" y2="425.4883"/><text fill="#000000" font-family="sans-serif" font-size="14" font-weight="bold" lengthAdjust="spacing" textLength="74" x="465.5" y="441.0234">row_count</text><text fill="#000000" font-family="sans-serif" font-size="14" lengthAdjust="spacing" textLength="9" x="569.5" y="441.0234">1</text><line style="stroke:#000000;stroke-width:1.0;" x1="564.5" x2="564.5" y1="425.4883" y2="445.9766"/><line style="stroke:#000000;stroke-width:1.0;" x1="460.5" x2="605.5" y1="445.9766" y2="445.9766"/><text fill="#000000" font-family="sans-serif" font-size="14" font-weight="bold" lengthAdjust="spacing" textLength="94" x="465.5" y="461.5117">ratio_percent</text><text fill="#000000" font-family="sans-serif" font-size="14" lengthAdjust="spacing" textLength="31" x="569.5" y="461.5117">6.25</text><line style="stroke:#000000;stroke-width:1.0;" x1="564.5" x2="564.5" y1="445.9766" y2="466.4648"/><rect fill="none" height="61.4648" rx="5" ry="5" style="stroke:#000000;stroke-width:1.5;" width="145" x="460.5" y="405"/><path d="M190,177.5 L203,177.5 C209.4391,177.5 234.6027,169.9165 260.7251,161.4376 " fill="none" style="stroke:#000000;stroke-width:1.0;stroke-dasharray:3.0,3.0;"/><path d="M261.689,164.389 L262.9387,160.7147 L259.7612,158.4862 L268.1036,159.0279 L261.689,164.389 " fill="#000000" style="stroke:#000000;stroke-width:1.0;"/><ellipse cx="190" cy="177.5" fill="#000000" rx="3" ry="3" style="stroke:#000000;stroke-width:1.0;"/><path d="M329.5,186.5 L342.5,186.5 C377.8613,186.5 393.1216,191.4776 420,168.5 C452.433,140.7738 427.1704,110.9563 456,79.5 C457.0198,78.3873 458.0787,77.3015 459.1718,76.2424 " fill="none" style="stroke:#000000;stroke-width:1.0;stroke-dasharray:3.0,3.0;"/><path d="M461.202,78.5344 L460.8908,74.7197 L457.1416,73.9504 L464.9018,71.1668 L461.202,78.5344 " fill="#000000" style="stroke:#000000;stroke-width:1.0;"/><ellipse cx="329.5" cy="186.5" fill="#000000" rx="3" ry="3" style="stroke:#000000;stroke-width:1.0;"/><path d="M329.5,207.5 L342.5,207.5 C355.9103,207.5 416.9871,178.2627 466.3246,153.4931 " fill="none" style="stroke:#000000;stroke-width:1.0;stroke-dasharray:3.0,3.0;"/><path d="M467.7094,156.2441 L468.3879,152.4545 L464.9398,150.742 L473.2022,150.0312 L467.7094,156.2441 " fill="#000000" style="stroke:#000000;stroke-width:1.0;"/><ellipse cx="329.5" cy="207.5" fill="#000000" rx="3" ry="3" style="stroke:#000000;stroke-width:1.0;"/><path d="M329.5,227.5 L342.5,227.5 C379.1059,227.5 419.2293,222.1746 453.1335,216.0879 " fill="none" style="stroke:#000000;stroke-width:1.0;stroke-dasharray:3.0,3.0;"/><path d="M453.6903,219.1205 L455.4079,215.6702 L452.5766,213.0552 L460.7151,214.6958 L453.6903,219.1205 " fill="#000000" style="stroke:#000000;stroke-width:1.0;"/><ellipse cx="329.5" cy="227.5" fill="#000000" rx="3" ry="3" style="stroke:#000000;stroke-width:1.0;"/><path d="M329.5,248.5 L342.5,248.5 C379.1059,248.5 419.2293,253.8254 453.1335,259.9121 " fill="none" style="stroke:#000000;stroke-width:1.0;stroke-dasharray:3.0,3.0;"/><path d="M452.5766,262.9448 L455.4079,260.3298 L453.6903,256.8795 L460.7151,261.3042 L452.5766,262.9448 " fill="#000000" style="stroke:#000000;stroke-width:1.0;"/><ellipse cx="329.5" cy="248.5" fill="#000000" rx="3" ry="3" style="stroke:#000000;stroke-width:1.0;"/><path d="M329.5,269.5 L342.5,269.5 C355.7969,269.5 416.1758,298.0321 465.3505,322.4171 " fill="none" style="stroke:#000000;stroke-width:1.0;stroke-dasharray:3.0,3.0;"/><path d="M463.9866,325.1605 L467.408,323.4401 L466.7145,319.6738 L472.2089,325.8271 L463.9866,325.1605 " fill="#000000" style="stroke:#000000;stroke-width:1.0;"/><ellipse cx="329.5" cy="269.5" fill="#000000" rx="3" ry="3" style="stroke:#000000;stroke-width:1.0;"/><path d="M329.5,289.5 L342.5,289.5 C411.8266,289.5 399.3237,356.5754 456,396.5 C458.0718,397.9595 460.2059,399.3971 462.3847,400.8093 " fill="none" style="stroke:#000000;stroke-width:1.0;stroke-dasharray:3.0,3.0;"/><path d="M460.7219,403.4707 L464.3807,402.0564 L464.0475,398.148 L469.0381,404.9663 L460.7219,403.4707 " fill="#000000" style="stroke:#000000;stroke-width:1.0;"/><ellipse cx="329.5" cy="289.5" fill="#000000" rx="3" ry="3" style="stroke:#000000;stroke-width:1.0;"/><path d="M190,198.5 L203,198.5 C242.9978,198.5 286.9238,217.172 310.7393,229.0015 " fill="none" style="stroke:#000000;stroke-width:1.0;stroke-dasharray:3.0,3.0;"/><path d="M309.37,231.6891 L312.7549,230.0285 L312.1086,226.314 L317.4581,232.4249 L309.37,231.6891 " fill="#000000" style="stroke:#000000;stroke-width:1.0;"/><ellipse cx="190" cy="198.5" fill="#000000" rx="3" ry="3" style="stroke:#000000;stroke-width:1.0;"/><!--MD5=[c2466ea2831e8129ae45cafa2a7c11d7]
@startjson
{
    "field1": "MinQty",
    "combination": "MinQty",
    "null_distribution": {
        "total_null_rows": 0,
        "total_not_null_rows": 16
    },
    "data_distribution": [
        {
            "field_value": "0",
            "row_count": 11,
            "ratio_percent": 68.75
        },
        {
            "field_value": "61",
            "row_count": 1,
            "ratio_percent": 6.25
        },
        {
            "field_value": "41",
            "row_count": 1,
            "ratio_percent": 6.25
        },
        {
            "field_value": "25",
            "row_count": 1,
            "ratio_percent": 6.25
        },
        {
            "field_value": "15",
            "row_count": 1,
            "ratio_percent": 6.25
        },
        {
            "field_value": "11",
            "row_count": 1,
            "ratio_percent": 6.25
        }
    ]
}
@endjson

PlantUML version 1.2022.5(Sat Apr 30 06:55:52 EDT 2022)
(GPL source distribution)
Java Runtime: OpenJDK Runtime Environment
JVM: OpenJDK 64-Bit Server VM
Default Encoding: UTF-8
Language: en
Country: CA
--></g></svg>