<?xml version="1.0" encoding="UTF-8" standalone="no"?><svg xmlns="http://www.w3.org/2000/svg" xmlns:xlink="http://www.w3.org/1999/xlink" contentStyleType="text/css" height="794px" preserveAspectRatio="none" style="width:772px;height:794px;background:#FFFFFF;" version="1.1" viewBox="0 0 772 794" width="772px" zoomAndPan="magnify"><defs/><g><rect fill="#F1F1F1" height="81.9531" rx="5" ry="5" style="stroke:#F1F1F1;stroke-width:1.5;" width="198" x="10" y="264.5"/><text fill="#000000" font-family="sans-serif" font-size="14" font-weight="bold" lengthAdjust="spacing" textLength="42" x="15" y="280.0352">field1</text><text fill="#000000" font-family="sans-serif" font-size="14" lengthAdjust="spacing" textLength="54" x="149" y="280.0352">TaxAmt</text><line style="stroke:#000000;stroke-width:1.0;" x1="144" x2="144" y1="264.5" y2="284.9883"/><line style="stroke:#000000;stroke-width:1.0;" x1="10" x2="208" y1="284.9883" y2="284.9883"/><text fill="#000000" font-family="sans-serif" font-size="14" font-weight="bold" lengthAdjust="spacing" textLength="90" x="15" y="300.5234">combination</text><text fill="#000000" font-family="sans-serif" font-size="14" lengthAdjust="spacing" textLength="54" x="149" y="300.5234">TaxAmt</text><line style="stroke:#000000;stroke-width:1.0;" x1="144" x2="144" y1="284.9883" y2="305.4766"/><line style="stroke:#000000;stroke-width:1.0;" x1="10" x2="208" y1="305.4766" y2="305.4766"/><text fill="#000000" font-family="sans-serif" font-size="14" font-weight="bold" lengthAdjust="spacing" textLength="121" x="15" y="321.0117">null_distribution</text><text fill="#000000" font-family="sans-serif" font-size="14" lengthAdjust="spacing" textLength="12" x="149" y="321.0117">   </text><line style="stroke:#000000;stroke-width:1.0;" x1="144" x2="144" y1="305.4766" y2="325.9648"/><line style="stroke:#000000;stroke-width:1.0;" x1="10" x2="208" y1="325.9648" y2="325.9648"/><text fill="#000000" font-family="sans-serif" font-size="14" font-weight="bold" lengthAdjust="spacing" textLength="124" x="15" y="341.5">data_distribution</text><text fill="#000000" font-family="sans-serif" font-size="14" lengthAdjust="spacing" textLength="12" x="149" y="341.5">   </text><line style="stroke:#000000;stroke-width:1.0;" x1="144" x2="144" y1="325.9648" y2="346.4531"/><rect fill="none" height="81.9531" rx="5" ry="5" style="stroke:#000000;stroke-width:1.5;" width="198" x="10" y="264.5"/><rect fill="#F1F1F1" height="40.9766" rx="5" ry="5" style="stroke:#F1F1F1;stroke-width:1.5;" width="207" x="245" y="235"/><text fill="#000000" font-family="sans-serif" font-size="14" font-weight="bold" lengthAdjust="spacing" textLength="111" x="250" y="250.5352">total_null_rows</text><text fill="#000000" font-family="sans-serif" font-size="14" lengthAdjust="spacing" textLength="9" x="402" y="250.5352">0</text><line style="stroke:#000000;stroke-width:1.0;" x1="397" x2="397" y1="235" y2="255.4883"/><line style="stroke:#000000;stroke-width:1.0;" x1="245" x2="452" y1="255.4883" y2="255.4883"/><text fill="#000000" font-family="sans-serif" font-size="14" font-weight="bold" lengthAdjust="spacing" textLength="142" x="250" y="271.0234">total_not_null_rows</text><text fill="#000000" font-family="sans-serif" font-size="14" lengthAdjust="spacing" textLength="45" x="402" y="271.0234">31465</text><line style="stroke:#000000;stroke-width:1.0;" x1="397" x2="397" y1="255.4883" y2="275.9766"/><rect fill="none" height="40.9766" rx="5" ry="5" style="stroke:#000000;stroke-width:1.5;" width="207" x="245" y="235"/><rect fill="#F1F1F1" height="204.8828" rx="5" ry="5" style="stroke:#F1F1F1;stroke-width:1.5;" width="22" x="336.5" y="294"/><text fill="#000000" font-family="sans-serif" font-size="14" lengthAdjust="spacing" textLength="12" x="341.5" y="309.5352">   </text><line style="stroke:#000000;stroke-width:1.0;" x1="336.5" x2="358.5" y1="314.4883" y2="314.4883"/><text fill="#000000" font-family="sans-serif" font-size="14" lengthAdjust="spacing" textLength="12" x="341.5" y="330.0234">   </text><line style="stroke:#000000;stroke-width:1.0;" x1="336.5" x2="358.5" y1="334.9766" y2="334.9766"/><text fill="#000000" font-family="sans-serif" font-size="14" lengthAdjust="spacing" textLength="12" x="341.5" y="350.5117">   </text><line style="stroke:#000000;stroke-width:1.0;" x1="336.5" x2="358.5" y1="355.4648" y2="355.4648"/><text fill="#000000" font-family="sans-serif" font-size="14" lengthAdjust="spacing" textLength="12" x="341.5" y="371">   </text><line style="stroke:#000000;stroke-width:1.0;" x1="336.5" x2="358.5" y1="375.9531" y2="375.9531"/><text fill="#000000" font-family="sans-serif" font-size="14" lengthAdjust="spacing" textLength="12" x="341.5" y="391.4883">   </text><line style="stroke:#000000;stroke-width:1.0;" x1="336.5" x2="358.5" y1="396.4414" y2="396.4414"/><text fill="#000000" font-family="sans-serif" font-size="14" lengthAdjust="spacing" textLength="12" x="341.5" y="411.9766">   </text><line style="stroke:#000000;stroke-width:1.0;" x1="336.5" x2="358.5" y1="416.9297" y2="416.9297"/><text fill="#000000" font-family="sans-serif" font-size="14" lengthAdjust="spacing" textLength="12" x="341.5" y="432.4648">   </text><line style="stroke:#000000;stroke-width:1.0;" x1="336.5" x2="358.5" y1="437.418" y2="437.418"/><text fill="#000000" font-family="sans-serif" font-size="14" lengthAdjust="spacing" textLength="12" x="341.5" y="452.9531">   </text><line style="stroke:#000000;stroke-width:1.0;" x1="336.5" x2="358.5" y1="457.9063" y2="457.9063"/><text fill="#000000" font-family="sans-serif" font-size="14" lengthAdjust="spacing" textLength="12" x="341.5" y="473.4414">   </text><line style="stroke:#000000;stroke-width:1.0;" x1="336.5" x2="358.5" y1="478.3945" y2="478.3945"/><text fill="#000000" font-family="sans-serif" font-size="14" lengthAdjust="spacing" textLength="12" x="341.5" y="493.9297">   </text><rect fill="none" height="204.8828" rx="5" ry="5" style="stroke:#000000;stroke-width:1.5;" width="22" x="336.5" y="294"/><rect fill="#F1F1F1" height="61.4648" rx="5" ry="5" style="stroke:#F1F1F1;stroke-width:1.5;" width="262" x="493.5" y="10"/><text fill="#000000" font-family="sans-serif" font-size="14" font-weight="bold" lengthAdjust="spacing" textLength="78" x="498.5" y="25.5352">field_value</text><text fill="#000000" font-family="sans-serif" font-size="14" lengthAdjust="spacing" textLength="49" x="602.5" y="25.5352">286.26</text><line style="stroke:#000000;stroke-width:1.0;" x1="597.5" x2="597.5" y1="10" y2="30.4883"/><line style="stroke:#000000;stroke-width:1.0;" x1="493.5" x2="755.5" y1="30.4883" y2="30.4883"/><text fill="#000000" font-family="sans-serif" font-size="14" font-weight="bold" lengthAdjust="spacing" textLength="74" x="498.5" y="46.0234">row_count</text><text fill="#000000" font-family="sans-serif" font-size="14" lengthAdjust="spacing" textLength="36" x="602.5" y="46.0234">1551</text><line style="stroke:#000000;stroke-width:1.0;" x1="597.5" x2="597.5" y1="30.4883" y2="50.9766"/><line style="stroke:#000000;stroke-width:1.0;" x1="493.5" x2="755.5" y1="50.9766" y2="50.9766"/><text fill="#000000" font-family="sans-serif" font-size="14" font-weight="bold" lengthAdjust="spacing" textLength="94" x="498.5" y="66.5117">ratio_percent</text><text fill="#000000" font-family="sans-serif" font-size="14" lengthAdjust="spacing" textLength="148" x="602.5" y="66.5117">4.929286508819323</text><line style="stroke:#000000;stroke-width:1.0;" x1="597.5" x2="597.5" y1="50.9766" y2="71.4648"/><rect fill="none" height="61.4648" rx="5" ry="5" style="stroke:#000000;stroke-width:1.5;" width="262" x="493.5" y="10"/><rect fill="#F1F1F1" height="61.4648" rx="5" ry="5" style="stroke:#F1F1F1;stroke-width:1.5;" width="262" x="493.5" y="89"/><text fill="#000000" font-family="sans-serif" font-size="14" font-weight="bold" lengthAdjust="spacing" textLength="78" x="498.5" y="104.5352">field_value</text><text fill="#000000" font-family="sans-serif" font-size="14" lengthAdjust="spacing" textLength="49" x="602.5" y="104.5352">174.53</text><line style="stroke:#000000;stroke-width:1.0;" x1="597.5" x2="597.5" y1="89" y2="109.4883"/><line style="stroke:#000000;stroke-width:1.0;" x1="493.5" x2="755.5" y1="109.4883" y2="109.4883"/><text fill="#000000" font-family="sans-serif" font-size="14" font-weight="bold" lengthAdjust="spacing" textLength="74" x="498.5" y="125.0234">row_count</text><text fill="#000000" font-family="sans-serif" font-size="14" lengthAdjust="spacing" textLength="27" x="602.5" y="125.0234">758</text><line style="stroke:#000000;stroke-width:1.0;" x1="597.5" x2="597.5" y1="109.4883" y2="129.9766"/><line style="stroke:#000000;stroke-width:1.0;" x1="493.5" x2="755.5" y1="129.9766" y2="129.9766"/><text fill="#000000" font-family="sans-serif" font-size="14" font-weight="bold" lengthAdjust="spacing" textLength="94" x="498.5" y="145.5117">ratio_percent</text><text fill="#000000" font-family="sans-serif" font-size="14" lengthAdjust="spacing" textLength="148" x="602.5" y="145.5117">2.409025901795646</text><line style="stroke:#000000;stroke-width:1.0;" x1="597.5" x2="597.5" y1="129.9766" y2="150.4648"/><rect fill="none" height="61.4648" rx="5" ry="5" style="stroke:#000000;stroke-width:1.5;" width="262" x="493.5" y="89"/><rect fill="#F1F1F1" height="61.4648" rx="5" ry="5" style="stroke:#F1F1F1;stroke-width:1.5;" width="262" x="493.5" y="168"/><text fill="#000000" font-family="sans-serif" font-size="14" font-weight="bold" lengthAdjust="spacing" textLength="78" x="498.5" y="183.5352">field_value</text><text fill="#000000" font-family="sans-serif" font-size="14" lengthAdjust="spacing" textLength="31" x="602.5" y="183.5352">3.20</text><line style="stroke:#000000;stroke-width:1.0;" x1="597.5" x2="597.5" y1="168" y2="188.4883"/><line style="stroke:#000000;stroke-width:1.0;" x1="493.5" x2="755.5" y1="188.4883" y2="188.4883"/><text fill="#000000" font-family="sans-serif" font-size="14" font-weight="bold" lengthAdjust="spacing" textLength="74" x="498.5" y="204.0234">row_count</text><text fill="#000000" font-family="sans-serif" font-size="14" lengthAdjust="spacing" textLength="27" x="602.5" y="204.0234">683</text><line style="stroke:#000000;stroke-width:1.0;" x1="597.5" x2="597.5" y1="188.4883" y2="208.9766"/><line style="stroke:#000000;stroke-width:1.0;" x1="493.5" x2="755.5" y1="208.9766" y2="208.9766"/><text fill="#000000" font-family="sans-serif" font-size="14" font-weight="bold" lengthAdjust="spacing" textLength="94" x="498.5" y="224.5117">ratio_percent</text><text fill="#000000" font-family="sans-serif" font-size="14" lengthAdjust="spacing" textLength="148" x="602.5" y="224.5117">2.170665819164151</text><line style="stroke:#000000;stroke-width:1.0;" x1="597.5" x2="597.5" y1="208.9766" y2="229.4648"/><rect fill="none" height="61.4648" rx="5" ry="5" style="stroke:#000000;stroke-width:1.5;" width="262" x="493.5" y="168"/><rect fill="#F1F1F1" height="61.4648" rx="5" ry="5" style="stroke:#F1F1F1;stroke-width:1.5;" width="271" x="489" y="247"/><text fill="#000000" font-family="sans-serif" font-size="14" font-weight="bold" lengthAdjust="spacing" textLength="78" x="494" y="262.5352">field_value</text><text fill="#000000" font-family="sans-serif" font-size="14" lengthAdjust="spacing" textLength="40" x="598" y="262.5352">62.64</text><line style="stroke:#000000;stroke-width:1.0;" x1="593" x2="593" y1="247" y2="267.4883"/><line style="stroke:#000000;stroke-width:1.0;" x1="489" x2="760" y1="267.4883" y2="267.4883"/><text fill="#000000" font-family="sans-serif" font-size="14" font-weight="bold" lengthAdjust="spacing" textLength="74" x="494" y="283.0234">row_count</text><text fill="#000000" font-family="sans-serif" font-size="14" lengthAdjust="spacing" textLength="27" x="598" y="283.0234">593</text><line style="stroke:#000000;stroke-width:1.0;" x1="593" x2="593" y1="267.4883" y2="287.9766"/><line style="stroke:#000000;stroke-width:1.0;" x1="489" x2="760" y1="287.9766" y2="287.9766"/><text fill="#000000" font-family="sans-serif" font-size="14" font-weight="bold" lengthAdjust="spacing" textLength="94" x="494" y="303.5117">ratio_percent</text><text fill="#000000" font-family="sans-serif" font-size="14" lengthAdjust="spacing" textLength="157" x="598" y="303.5117">1.8846337200063563</text><line style="stroke:#000000;stroke-width:1.0;" x1="593" x2="593" y1="287.9766" y2="308.4648"/><rect fill="none" height="61.4648" rx="5" ry="5" style="stroke:#000000;stroke-width:1.5;" width="271" x="489" y="247"/><rect fill="#F1F1F1" height="61.4648" rx="5" ry="5" style="stroke:#F1F1F1;stroke-width:1.5;" width="262" x="493.5" y="326"/><text fill="#000000" font-family="sans-serif" font-size="14" font-weight="bold" lengthAdjust="spacing" textLength="78" x="498.5" y="341.5352">field_value</text><text fill="#000000" font-family="sans-serif" font-size="14" lengthAdjust="spacing" textLength="31" x="602.5" y="341.5352">0.40</text><line style="stroke:#000000;stroke-width:1.0;" x1="597.5" x2="597.5" y1="326" y2="346.4883"/><line style="stroke:#000000;stroke-width:1.0;" x1="493.5" x2="755.5" y1="346.4883" y2="346.4883"/><text fill="#000000" font-family="sans-serif" font-size="14" font-weight="bold" lengthAdjust="spacing" textLength="74" x="498.5" y="362.0234">row_count</text><text fill="#000000" font-family="sans-serif" font-size="14" lengthAdjust="spacing" textLength="27" x="602.5" y="362.0234">576</text><line style="stroke:#000000;stroke-width:1.0;" x1="597.5" x2="597.5" y1="346.4883" y2="366.9766"/><line style="stroke:#000000;stroke-width:1.0;" x1="493.5" x2="755.5" y1="366.9766" y2="366.9766"/><text fill="#000000" font-family="sans-serif" font-size="14" font-weight="bold" lengthAdjust="spacing" textLength="94" x="498.5" y="382.5117">ratio_percent</text><text fill="#000000" font-family="sans-serif" font-size="14" lengthAdjust="spacing" textLength="148" x="602.5" y="382.5117">1.830605434609884</text><line style="stroke:#000000;stroke-width:1.0;" x1="597.5" x2="597.5" y1="366.9766" y2="387.4648"/><rect fill="none" height="61.4648" rx="5" ry="5" style="stroke:#000000;stroke-width:1.5;" width="262" x="493.5" y="326"/><rect fill="#F1F1F1" height="61.4648" rx="5" ry="5" style="stroke:#F1F1F1;stroke-width:1.5;" width="271" x="489" y="405"/><text fill="#000000" font-family="sans-serif" font-size="14" font-weight="bold" lengthAdjust="spacing" textLength="78" x="494" y="420.5352">field_value</text><text fill="#000000" font-family="sans-serif" font-size="14" lengthAdjust="spacing" textLength="49" x="598" y="420.5352">163.93</text><line style="stroke:#000000;stroke-width:1.0;" x1="593" x2="593" y1="405" y2="425.4883"/><line style="stroke:#000000;stroke-width:1.0;" x1="489" x2="760" y1="425.4883" y2="425.4883"/><text fill="#000000" font-family="sans-serif" font-size="14" font-weight="bold" lengthAdjust="spacing" textLength="74" x="494" y="441.0234">row_count</text><text fill="#000000" font-family="sans-serif" font-size="14" lengthAdjust="spacing" textLength="27" x="598" y="441.0234">554</text><line style="stroke:#000000;stroke-width:1.0;" x1="593" x2="593" y1="425.4883" y2="445.9766"/><line style="stroke:#000000;stroke-width:1.0;" x1="489" x2="760" y1="445.9766" y2="445.9766"/><text fill="#000000" font-family="sans-serif" font-size="14" font-weight="bold" lengthAdjust="spacing" textLength="94" x="494" y="461.5117">ratio_percent</text><text fill="#000000" font-family="sans-serif" font-size="14" lengthAdjust="spacing" textLength="157" x="598" y="461.5117">1.7606864770379786</text><line style="stroke:#000000;stroke-width:1.0;" x1="593" x2="593" y1="445.9766" y2="466.4648"/><rect fill="none" height="61.4648" rx="5" ry="5" style="stroke:#000000;stroke-width:1.5;" width="271" x="489" y="405"/><rect fill="#F1F1F1" height="61.4648" rx="5" ry="5" style="stroke:#F1F1F1;stroke-width:1.5;" width="271" x="489" y="484"/><text fill="#000000" font-family="sans-serif" font-size="14" font-weight="bold" lengthAdjust="spacing" textLength="78" x="494" y="499.5352">field_value</text><text fill="#000000" font-family="sans-serif" font-size="14" lengthAdjust="spacing" textLength="31" x="598" y="499.5352">5.60</text><line style="stroke:#000000;stroke-width:1.0;" x1="593" x2="593" y1="484" y2="504.4883"/><line style="stroke:#000000;stroke-width:1.0;" x1="489" x2="760" y1="504.4883" y2="504.4883"/><text fill="#000000" font-family="sans-serif" font-size="14" font-weight="bold" lengthAdjust="spacing" textLength="74" x="494" y="520.0234">row_count</text><text fill="#000000" font-family="sans-serif" font-size="14" lengthAdjust="spacing" textLength="27" x="598" y="520.0234">553</text><line style="stroke:#000000;stroke-width:1.0;" x1="593" x2="593" y1="504.4883" y2="524.9766"/><line style="stroke:#000000;stroke-width:1.0;" x1="489" x2="760" y1="524.9766" y2="524.9766"/><text fill="#000000" font-family="sans-serif" font-size="14" font-weight="bold" lengthAdjust="spacing" textLength="94" x="494" y="540.5117">ratio_percent</text><text fill="#000000" font-family="sans-serif" font-size="14" lengthAdjust="spacing" textLength="157" x="598" y="540.5117">1.7575083426028921</text><line style="stroke:#000000;stroke-width:1.0;" x1="593" x2="593" y1="524.9766" y2="545.4648"/><rect fill="none" height="61.4648" rx="5" ry="5" style="stroke:#000000;stroke-width:1.5;" width="271" x="489" y="484"/><rect fill="#F1F1F1" height="61.4648" rx="5" ry="5" style="stroke:#F1F1F1;stroke-width:1.5;" width="262" x="493.5" y="563"/><text fill="#000000" font-family="sans-serif" font-size="14" font-weight="bold" lengthAdjust="spacing" textLength="78" x="498.5" y="578.5352">field_value</text><text fill="#000000" font-family="sans-serif" font-size="14" lengthAdjust="spacing" textLength="49" x="602.5" y="578.5352">195.47</text><line style="stroke:#000000;stroke-width:1.0;" x1="597.5" x2="597.5" y1="563" y2="583.4883"/><line style="stroke:#000000;stroke-width:1.0;" x1="493.5" x2="755.5" y1="583.4883" y2="583.4883"/><text fill="#000000" font-family="sans-serif" font-size="14" font-weight="bold" lengthAdjust="spacing" textLength="74" x="498.5" y="599.0234">row_count</text><text fill="#000000" font-family="sans-serif" font-size="14" lengthAdjust="spacing" textLength="27" x="602.5" y="599.0234">543</text><line style="stroke:#000000;stroke-width:1.0;" x1="597.5" x2="597.5" y1="583.4883" y2="603.9766"/><line style="stroke:#000000;stroke-width:1.0;" x1="493.5" x2="755.5" y1="603.9766" y2="603.9766"/><text fill="#000000" font-family="sans-serif" font-size="14" font-weight="bold" lengthAdjust="spacing" textLength="94" x="498.5" y="619.5117">ratio_percent</text><text fill="#000000" font-family="sans-serif" font-size="14" lengthAdjust="spacing" textLength="148" x="602.5" y="619.5117">1.725726998252026</text><line style="stroke:#000000;stroke-width:1.0;" x1="597.5" x2="597.5" y1="603.9766" y2="624.4648"/><rect fill="none" height="61.4648" rx="5" ry="5" style="stroke:#000000;stroke-width:1.5;" width="262" x="493.5" y="563"/><rect fill="#F1F1F1" height="61.4648" rx="5" ry="5" style="stroke:#F1F1F1;stroke-width:1.5;" width="271" x="489" y="642"/><text fill="#000000" font-family="sans-serif" font-size="14" font-weight="bold" lengthAdjust="spacing" textLength="78" x="494" y="657.5352">field_value</text><text fill="#000000" font-family="sans-serif" font-size="14" lengthAdjust="spacing" textLength="49" x="598" y="657.5352">165.71</text><line style="stroke:#000000;stroke-width:1.0;" x1="593" x2="593" y1="642" y2="662.4883"/><line style="stroke:#000000;stroke-width:1.0;" x1="489" x2="760" y1="662.4883" y2="662.4883"/><text fill="#000000" font-family="sans-serif" font-size="14" font-weight="bold" lengthAdjust="spacing" textLength="74" x="494" y="678.0234">row_count</text><text fill="#000000" font-family="sans-serif" font-size="14" lengthAdjust="spacing" textLength="27" x="598" y="678.0234">521</text><line style="stroke:#000000;stroke-width:1.0;" x1="593" x2="593" y1="662.4883" y2="682.9766"/><line style="stroke:#000000;stroke-width:1.0;" x1="489" x2="760" y1="682.9766" y2="682.9766"/><text fill="#000000" font-family="sans-serif" font-size="14" font-weight="bold" lengthAdjust="spacing" textLength="94" x="494" y="698.5117">ratio_percent</text><text fill="#000000" font-family="sans-serif" font-size="14" lengthAdjust="spacing" textLength="157" x="598" y="698.5117">1.6558080406801208</text><line style="stroke:#000000;stroke-width:1.0;" x1="593" x2="593" y1="682.9766" y2="703.4648"/><rect fill="none" height="61.4648" rx="5" ry="5" style="stroke:#000000;stroke-width:1.5;" width="271" x="489" y="642"/><rect fill="#F1F1F1" height="61.4648" rx="5" ry="5" style="stroke:#F1F1F1;stroke-width:1.5;" width="271" x="489" y="721"/><text fill="#000000" font-family="sans-serif" font-size="14" font-weight="bold" lengthAdjust="spacing" textLength="78" x="494" y="736.5352">field_value</text><text fill="#000000" font-family="sans-serif" font-size="14" lengthAdjust="spacing" textLength="31" x="598" y="736.5352">2.80</text><line style="stroke:#000000;stroke-width:1.0;" x1="593" x2="593" y1="721" y2="741.4883"/><line style="stroke:#000000;stroke-width:1.0;" x1="489" x2="760" y1="741.4883" y2="741.4883"/><text fill="#000000" font-family="sans-serif" font-size="14" font-weight="bold" lengthAdjust="spacing" textLength="74" x="494" y="757.0234">row_count</text><text fill="#000000" font-family="sans-serif" font-size="14" lengthAdjust="spacing" textLength="27" x="598" y="757.0234">417</text><line style="stroke:#000000;stroke-width:1.0;" x1="593" x2="593" y1="741.4883" y2="761.9766"/><line style="stroke:#000000;stroke-width:1.0;" x1="489" x2="760" y1="761.9766" y2="761.9766"/><text fill="#000000" font-family="sans-serif" font-size="14" font-weight="bold" lengthAdjust="spacing" textLength="94" x="494" y="777.5117">ratio_percent</text><text fill="#000000" font-family="sans-serif" font-size="14" lengthAdjust="spacing" textLength="157" x="598" y="777.5117">1.3252820594311139</text><line style="stroke:#000000;stroke-width:1.0;" x1="593" x2="593" y1="761.9766" y2="782.4648"/><rect fill="none" height="61.4648" rx="5" ry="5" style="stroke:#000000;stroke-width:1.5;" width="271" x="489" y="721"/><path d="M196,315.5 L209,315.5 C229.8273,315.5 226.6143,295.285 245,285.5 C249.4187,283.1484 254.0447,280.9598 258.7859,278.9261 " fill="none" style="stroke:#000000;stroke-width:1.0;stroke-dasharray:3.0,3.0;"/><path d="M259.9339,281.7334 L260.8914,278.0652 L257.638,276.1189 L265.804,276.0563 L259.9339,281.7334 " fill="#000000" style="stroke:#000000;stroke-width:1.0;"/><ellipse cx="196" cy="315.5" fill="#000000" rx="3" ry="3" style="stroke:#000000;stroke-width:1.0;"/><path d="M349,303.5 L362,303.5 C403.2281,303.5 424.1738,314.9755 453,285.5 C517.9848,219.0516 426.93,148.679 489,79.5 C490.0081,78.3765 491.0463,77.2844 492.1126,76.2231 " fill="none" style="stroke:#000000;stroke-width:1.0;stroke-dasharray:3.0,3.0;"/><path d="M494.1347,78.4455 L493.7795,74.7065 L490.0905,74.0006 L497.6688,71.1678 L494.1347,78.4455 " fill="#000000" style="stroke:#000000;stroke-width:1.0;"/><ellipse cx="349" cy="303.5" fill="#000000" rx="3" ry="3" style="stroke:#000000;stroke-width:1.0;"/><path d="M349,324.5 L362,324.5 C406.0022,324.5 423.9505,318.5503 453,285.5 C491.7318,241.4339 447.6193,200.0887 489,158.5 C490.2233,157.2705 491.4828,156.0793 492.7755,154.925 " fill="none" style="stroke:#000000;stroke-width:1.0;stroke-dasharray:3.0,3.0;"/><path d="M494.7064,157.2737 L494.537,153.4769 L490.8447,152.5764 L498.6472,150.0978 L494.7064,157.2737 " fill="#000000" style="stroke:#000000;stroke-width:1.0;"/><ellipse cx="349" cy="324.5" fill="#000000" rx="3" ry="3" style="stroke:#000000;stroke-width:1.0;"/><path d="M349,344.5 L362,344.5 C410.2012,344.5 417.773,318.4001 453,285.5 C472.4889,267.2985 467.0554,252.6508 489,237.5 C491.3464,235.88 493.7599,234.3267 496.2295,232.8373 " fill="none" style="stroke:#000000;stroke-width:1.0;stroke-dasharray:3.0,3.0;"/><path d="M497.7476,235.5016 L498.2277,231.6987 L494.7115,230.173 L502.8903,229.0421 L497.7476,235.5016 " fill="#000000" style="stroke:#000000;stroke-width:1.0;"/><ellipse cx="349" cy="344.5" fill="#000000" rx="3" ry="3" style="stroke:#000000;stroke-width:1.0;"/><path d="M349,365.5 L362,365.5 C422.3414,365.5 431.8118,336.7507 489,317.5 C496.0371,315.1312 503.3048,312.7614 510.6494,310.4241 " fill="none" style="stroke:#000000;stroke-width:1.0;stroke-dasharray:3.0,3.0;"/><path d="M511.5794,313.3699 L512.8587,309.7266 L509.7193,307.4783 L518.0138,308.099 L511.5794,313.3699 " fill="#000000" style="stroke:#000000;stroke-width:1.0;"/><ellipse cx="349" cy="365.5" fill="#000000" rx="3" ry="3" style="stroke:#000000;stroke-width:1.0;"/><path d="M349,385.5 L362,385.5 C402.3294,385.5 445.94,382.0635 485.7937,377.5565 " fill="none" style="stroke:#000000;stroke-width:1.0;stroke-dasharray:3.0,3.0;"/><path d="M486.1597,380.7239 L488.1692,377.282 L485.4277,374.389 L493.7122,376.6415 L486.1597,380.7239 " fill="#000000" style="stroke:#000000;stroke-width:1.0;"/><ellipse cx="349" cy="385.5" fill="#000000" rx="3" ry="3" style="stroke:#000000;stroke-width:1.0;"/><path d="M349,406.5 L362,406.5 C400.9351,406.5 442.9283,409.703 481.6467,413.98 " fill="none" style="stroke:#000000;stroke-width:1.0;stroke-dasharray:3.0,3.0;"/><path d="M481.2991,417.0593 L483.9562,414.2407 L481.9944,410.9007 L489.3449,414.8491 L481.2991,417.0593 " fill="#000000" style="stroke:#000000;stroke-width:1.0;"/><ellipse cx="349" cy="406.5" fill="#000000" rx="3" ry="3" style="stroke:#000000;stroke-width:1.0;"/><path d="M349,427.5 L362,427.5 C422.3414,427.5 431.7464,456.4445 489,475.5 C495.1558,477.5488 501.4895,479.5928 507.8977,481.6109 " fill="none" style="stroke:#000000;stroke-width:1.0;stroke-dasharray:3.0,3.0;"/><path d="M506.9553,484.6312 L510.1629,482.3177 L508.84,478.5906 L515.4484,483.9668 L506.9553,484.6312 " fill="#000000" style="stroke:#000000;stroke-width:1.0;"/><ellipse cx="349" cy="427.5" fill="#000000" rx="3" ry="3" style="stroke:#000000;stroke-width:1.0;"/><path d="M349,447.5 L362,447.5 C435.8072,447.5 423.9012,519.7199 489,554.5 C492.4092,556.3214 495.9135,558.0667 499.488,559.7385 " fill="none" style="stroke:#000000;stroke-width:1.0;stroke-dasharray:3.0,3.0;"/><path d="M498.2381,562.5202 L501.5743,560.6759 L500.7379,556.9568 L506.4423,562.8631 L498.2381,562.5202 " fill="#000000" style="stroke:#000000;stroke-width:1.0;"/><ellipse cx="349" cy="447.5" fill="#000000" rx="3" ry="3" style="stroke:#000000;stroke-width:1.0;"/><path d="M349,468.5 L362,468.5 C454.5405,468.5 412.5197,581.399 489,633.5 C491.3564,635.1053 493.7791,636.6453 496.257,638.1226 " fill="none" style="stroke:#000000;stroke-width:1.0;stroke-dasharray:3.0,3.0;"/><path d="M494.7506,640.7949 L498.2612,639.2524 L497.7634,635.4503 L502.9378,641.8886 L494.7506,640.7949 " fill="#000000" style="stroke:#000000;stroke-width:1.0;"/><ellipse cx="349" cy="468.5" fill="#000000" rx="3" ry="3" style="stroke:#000000;stroke-width:1.0;"/><path d="M349,488.5 L362,488.5 C476.4434,488.5 399.1639,641.6004 489,712.5 C490.7953,713.9169 492.6403,715.2823 494.5287,716.5982 " fill="none" style="stroke:#000000;stroke-width:1.0;stroke-dasharray:3.0,3.0;"/><path d="M492.8145,719.23 L496.5025,717.8838 L496.2428,713.9664 L501.1082,720.8836 L492.8145,719.23 " fill="#000000" style="stroke:#000000;stroke-width:1.0;"/><ellipse cx="349" cy="488.5" fill="#000000" rx="3" ry="3" style="stroke:#000000;stroke-width:1.0;"/><path d="M196,336.5 L209,336.5 C256.0497,336.5 305.2629,365.8357 330.6101,383.482 " fill="none" style="stroke:#000000;stroke-width:1.0;stroke-dasharray:3.0,3.0;"/><path d="M328.8416,385.964 L332.4716,384.8085 L332.3787,381.0001 L336.815,387.9035 L328.8416,385.964 " fill="#000000" style="stroke:#000000;stroke-width:1.0;"/><ellipse cx="196" cy="336.5" fill="#000000" rx="3" ry="3" style="stroke:#000000;stroke-width:1.0;"/><!--MD5=[087994b74eb097d41ead5a8fdee6fffe]
@startjson
{
    "field1": "TaxAmt",
    "combination": "TaxAmt",
    "null_distribution": {
        "total_null_rows": 0,
        "total_not_null_rows": 31465
    },
    "data_distribution": [
        {
            "field_value": "286.26",
            "row_count": 1551,
            "ratio_percent": 4.929286508819323
        },
        {
            "field_value": "174.53",
            "row_count": 758,
            "ratio_percent": 2.409025901795646
        },
        {
            "field_value": "3.20",
            "row_count": 683,
            "ratio_percent": 2.170665819164151
        },
        {
            "field_value": "62.64",
            "row_count": 593,
            "ratio_percent": 1.8846337200063563
        },
        {
            "field_value": "0.40",
            "row_count": 576,
            "ratio_percent": 1.830605434609884
        },
        {
            "field_value": "163.93",
            "row_count": 554,
            "ratio_percent": 1.7606864770379786
        },
        {
            "field_value": "5.60",
            "row_count": 553,
            "ratio_percent": 1.7575083426028921
        },
        {
            "field_value": "195.47",
            "row_count": 543,
            "ratio_percent": 1.725726998252026
        },
        {
            "field_value": "165.71",
            "row_count": 521,
            "ratio_percent": 1.6558080406801208
        },
        {
            "field_value": "2.80",
            "row_count": 417,
            "ratio_percent": 1.3252820594311139
        }
    ]
}
@endjson

PlantUML version 1.2022.5(Sat Apr 30 06:55:52 EDT 2022)
(GPL source distribution)
Java Runtime: OpenJDK Runtime Environment
JVM: OpenJDK 64-Bit Server VM
Default Encoding: UTF-8
Language: en
Country: CA
--></g></svg>