<?xml version="1.0" encoding="UTF-8" standalone="no"?><svg xmlns="http://www.w3.org/2000/svg" xmlns:xlink="http://www.w3.org/1999/xlink" contentStyleType="text/css" height="794px" preserveAspectRatio="none" style="width:788px;height:794px;background:#FFFFFF;" version="1.1" viewBox="0 0 788 794" width="788px" zoomAndPan="magnify"><defs/><g><rect fill="#F1F1F1" height="81.9531" rx="5" ry="5" style="stroke:#F1F1F1;stroke-width:1.5;" width="205" x="10" y="264.5"/><text fill="#000000" font-family="sans-serif" font-size="14" font-weight="bold" lengthAdjust="spacing" textLength="42" x="15" y="280.0352">field1</text><text fill="#000000" font-family="sans-serif" font-size="14" lengthAdjust="spacing" textLength="61" x="149" y="280.0352">UnitPrice</text><line style="stroke:#000000;stroke-width:1.0;" x1="144" x2="144" y1="264.5" y2="284.9883"/><line style="stroke:#000000;stroke-width:1.0;" x1="10" x2="215" y1="284.9883" y2="284.9883"/><text fill="#000000" font-family="sans-serif" font-size="14" font-weight="bold" lengthAdjust="spacing" textLength="90" x="15" y="300.5234">combination</text><text fill="#000000" font-family="sans-serif" font-size="14" lengthAdjust="spacing" textLength="61" x="149" y="300.5234">UnitPrice</text><line style="stroke:#000000;stroke-width:1.0;" x1="144" x2="144" y1="284.9883" y2="305.4766"/><line style="stroke:#000000;stroke-width:1.0;" x1="10" x2="215" y1="305.4766" y2="305.4766"/><text fill="#000000" font-family="sans-serif" font-size="14" font-weight="bold" lengthAdjust="spacing" textLength="121" x="15" y="321.0117">null_distribution</text><text fill="#000000" font-family="sans-serif" font-size="14" lengthAdjust="spacing" textLength="12" x="149" y="321.0117">   </text><line style="stroke:#000000;stroke-width:1.0;" x1="144" x2="144" y1="305.4766" y2="325.9648"/><line style="stroke:#000000;stroke-width:1.0;" x1="10" x2="215" y1="325.9648" y2="325.9648"/><text fill="#000000" font-family="sans-serif" font-size="14" font-weight="bold" lengthAdjust="spacing" textLength="124" x="15" y="341.5">data_distribution</text><text fill="#000000" font-family="sans-serif" font-size="14" lengthAdjust="spacing" textLength="12" x="149" y="341.5">   </text><line style="stroke:#000000;stroke-width:1.0;" x1="144" x2="144" y1="325.9648" y2="346.4531"/><rect fill="none" height="81.9531" rx="5" ry="5" style="stroke:#000000;stroke-width:1.5;" width="205" x="10" y="264.5"/><rect fill="#F1F1F1" height="40.9766" rx="5" ry="5" style="stroke:#F1F1F1;stroke-width:1.5;" width="216" x="252" y="235"/><text fill="#000000" font-family="sans-serif" font-size="14" font-weight="bold" lengthAdjust="spacing" textLength="111" x="257" y="250.5352">total_null_rows</text><text fill="#000000" font-family="sans-serif" font-size="14" lengthAdjust="spacing" textLength="9" x="409" y="250.5352">0</text><line style="stroke:#000000;stroke-width:1.0;" x1="404" x2="404" y1="235" y2="255.4883"/><line style="stroke:#000000;stroke-width:1.0;" x1="252" x2="468" y1="255.4883" y2="255.4883"/><text fill="#000000" font-family="sans-serif" font-size="14" font-weight="bold" lengthAdjust="spacing" textLength="142" x="257" y="271.0234">total_not_null_rows</text><text fill="#000000" font-family="sans-serif" font-size="14" lengthAdjust="spacing" textLength="54" x="409" y="271.0234">121317</text><line style="stroke:#000000;stroke-width:1.0;" x1="404" x2="404" y1="255.4883" y2="275.9766"/><rect fill="none" height="40.9766" rx="5" ry="5" style="stroke:#000000;stroke-width:1.5;" width="216" x="252" y="235"/><rect fill="#F1F1F1" height="204.8828" rx="5" ry="5" style="stroke:#F1F1F1;stroke-width:1.5;" width="22" x="348" y="294"/><text fill="#000000" font-family="sans-serif" font-size="14" lengthAdjust="spacing" textLength="12" x="353" y="309.5352">   </text><line style="stroke:#000000;stroke-width:1.0;" x1="348" x2="370" y1="314.4883" y2="314.4883"/><text fill="#000000" font-family="sans-serif" font-size="14" lengthAdjust="spacing" textLength="12" x="353" y="330.0234">   </text><line style="stroke:#000000;stroke-width:1.0;" x1="348" x2="370" y1="334.9766" y2="334.9766"/><text fill="#000000" font-family="sans-serif" font-size="14" lengthAdjust="spacing" textLength="12" x="353" y="350.5117">   </text><line style="stroke:#000000;stroke-width:1.0;" x1="348" x2="370" y1="355.4648" y2="355.4648"/><text fill="#000000" font-family="sans-serif" font-size="14" lengthAdjust="spacing" textLength="12" x="353" y="371">   </text><line style="stroke:#000000;stroke-width:1.0;" x1="348" x2="370" y1="375.9531" y2="375.9531"/><text fill="#000000" font-family="sans-serif" font-size="14" lengthAdjust="spacing" textLength="12" x="353" y="391.4883">   </text><line style="stroke:#000000;stroke-width:1.0;" x1="348" x2="370" y1="396.4414" y2="396.4414"/><text fill="#000000" font-family="sans-serif" font-size="14" lengthAdjust="spacing" textLength="12" x="353" y="411.9766">   </text><line style="stroke:#000000;stroke-width:1.0;" x1="348" x2="370" y1="416.9297" y2="416.9297"/><text fill="#000000" font-family="sans-serif" font-size="14" lengthAdjust="spacing" textLength="12" x="353" y="432.4648">   </text><line style="stroke:#000000;stroke-width:1.0;" x1="348" x2="370" y1="437.418" y2="437.418"/><text fill="#000000" font-family="sans-serif" font-size="14" lengthAdjust="spacing" textLength="12" x="353" y="452.9531">   </text><line style="stroke:#000000;stroke-width:1.0;" x1="348" x2="370" y1="457.9063" y2="457.9063"/><text fill="#000000" font-family="sans-serif" font-size="14" lengthAdjust="spacing" textLength="12" x="353" y="473.4414">   </text><line style="stroke:#000000;stroke-width:1.0;" x1="348" x2="370" y1="478.3945" y2="478.3945"/><text fill="#000000" font-family="sans-serif" font-size="14" lengthAdjust="spacing" textLength="12" x="353" y="493.9297">   </text><rect fill="none" height="204.8828" rx="5" ry="5" style="stroke:#000000;stroke-width:1.5;" width="22" x="348" y="294"/><rect fill="#F1F1F1" height="61.4648" rx="5" ry="5" style="stroke:#F1F1F1;stroke-width:1.5;" width="262" x="509.5" y="10"/><text fill="#000000" font-family="sans-serif" font-size="14" font-weight="bold" lengthAdjust="spacing" textLength="78" x="514.5" y="25.5352">field_value</text><text fill="#000000" font-family="sans-serif" font-size="14" lengthAdjust="spacing" textLength="31" x="618.5" y="25.5352">4.99</text><line style="stroke:#000000;stroke-width:1.0;" x1="613.5" x2="613.5" y1="10" y2="30.4883"/><line style="stroke:#000000;stroke-width:1.0;" x1="509.5" x2="771.5" y1="30.4883" y2="30.4883"/><text fill="#000000" font-family="sans-serif" font-size="14" font-weight="bold" lengthAdjust="spacing" textLength="74" x="514.5" y="46.0234">row_count</text><text fill="#000000" font-family="sans-serif" font-size="14" lengthAdjust="spacing" textLength="36" x="618.5" y="46.0234">8827</text><line style="stroke:#000000;stroke-width:1.0;" x1="613.5" x2="613.5" y1="30.4883" y2="50.9766"/><line style="stroke:#000000;stroke-width:1.0;" x1="509.5" x2="771.5" y1="50.9766" y2="50.9766"/><text fill="#000000" font-family="sans-serif" font-size="14" font-weight="bold" lengthAdjust="spacing" textLength="94" x="514.5" y="66.5117">ratio_percent</text><text fill="#000000" font-family="sans-serif" font-size="14" lengthAdjust="spacing" textLength="148" x="618.5" y="66.5117">7.275979458773296</text><line style="stroke:#000000;stroke-width:1.0;" x1="613.5" x2="613.5" y1="50.9766" y2="71.4648"/><rect fill="none" height="61.4648" rx="5" ry="5" style="stroke:#000000;stroke-width:1.5;" width="262" x="509.5" y="10"/><rect fill="#F1F1F1" height="61.4648" rx="5" ry="5" style="stroke:#F1F1F1;stroke-width:1.5;" width="262" x="509.5" y="89"/><text fill="#000000" font-family="sans-serif" font-size="14" font-weight="bold" lengthAdjust="spacing" textLength="78" x="514.5" y="104.5352">field_value</text><text fill="#000000" font-family="sans-serif" font-size="14" lengthAdjust="spacing" textLength="40" x="618.5" y="104.5352">34.99</text><line style="stroke:#000000;stroke-width:1.0;" x1="613.5" x2="613.5" y1="89" y2="109.4883"/><line style="stroke:#000000;stroke-width:1.0;" x1="509.5" x2="771.5" y1="109.4883" y2="109.4883"/><text fill="#000000" font-family="sans-serif" font-size="14" font-weight="bold" lengthAdjust="spacing" textLength="74" x="514.5" y="125.0234">row_count</text><text fill="#000000" font-family="sans-serif" font-size="14" lengthAdjust="spacing" textLength="36" x="618.5" y="125.0234">6440</text><line style="stroke:#000000;stroke-width:1.0;" x1="613.5" x2="613.5" y1="109.4883" y2="129.9766"/><line style="stroke:#000000;stroke-width:1.0;" x1="509.5" x2="771.5" y1="129.9766" y2="129.9766"/><text fill="#000000" font-family="sans-serif" font-size="14" font-weight="bold" lengthAdjust="spacing" textLength="94" x="514.5" y="145.5117">ratio_percent</text><text fill="#000000" font-family="sans-serif" font-size="14" lengthAdjust="spacing" textLength="148" x="618.5" y="145.5117">5.308406900928971</text><line style="stroke:#000000;stroke-width:1.0;" x1="613.5" x2="613.5" y1="129.9766" y2="150.4648"/><rect fill="none" height="61.4648" rx="5" ry="5" style="stroke:#000000;stroke-width:1.5;" width="262" x="509.5" y="89"/><rect fill="#F1F1F1" height="61.4648" rx="5" ry="5" style="stroke:#F1F1F1;stroke-width:1.5;" width="271" x="505" y="168"/><text fill="#000000" font-family="sans-serif" font-size="14" font-weight="bold" lengthAdjust="spacing" textLength="78" x="510" y="183.5352">field_value</text><text fill="#000000" font-family="sans-serif" font-size="14" lengthAdjust="spacing" textLength="31" x="614" y="183.5352">8.99</text><line style="stroke:#000000;stroke-width:1.0;" x1="609" x2="609" y1="168" y2="188.4883"/><line style="stroke:#000000;stroke-width:1.0;" x1="505" x2="776" y1="188.4883" y2="188.4883"/><text fill="#000000" font-family="sans-serif" font-size="14" font-weight="bold" lengthAdjust="spacing" textLength="74" x="510" y="204.0234">row_count</text><text fill="#000000" font-family="sans-serif" font-size="14" lengthAdjust="spacing" textLength="36" x="614" y="204.0234">4470</text><line style="stroke:#000000;stroke-width:1.0;" x1="609" x2="609" y1="188.4883" y2="208.9766"/><line style="stroke:#000000;stroke-width:1.0;" x1="505" x2="776" y1="208.9766" y2="208.9766"/><text fill="#000000" font-family="sans-serif" font-size="14" font-weight="bold" lengthAdjust="spacing" textLength="94" x="510" y="224.5117">ratio_percent</text><text fill="#000000" font-family="sans-serif" font-size="14" lengthAdjust="spacing" textLength="157" x="614" y="224.5117">3.6845619327876555</text><line style="stroke:#000000;stroke-width:1.0;" x1="609" x2="609" y1="208.9766" y2="229.4648"/><rect fill="none" height="61.4648" rx="5" ry="5" style="stroke:#000000;stroke-width:1.5;" width="271" x="505" y="168"/><rect fill="#F1F1F1" height="61.4648" rx="5" ry="5" style="stroke:#F1F1F1;stroke-width:1.5;" width="271" x="505" y="247"/><text fill="#000000" font-family="sans-serif" font-size="14" font-weight="bold" lengthAdjust="spacing" textLength="78" x="510" y="262.5352">field_value</text><text fill="#000000" font-family="sans-serif" font-size="14" lengthAdjust="spacing" textLength="31" x="614" y="262.5352">2.29</text><line style="stroke:#000000;stroke-width:1.0;" x1="609" x2="609" y1="247" y2="267.4883"/><line style="stroke:#000000;stroke-width:1.0;" x1="505" x2="776" y1="267.4883" y2="267.4883"/><text fill="#000000" font-family="sans-serif" font-size="14" font-weight="bold" lengthAdjust="spacing" textLength="74" x="510" y="283.0234">row_count</text><text fill="#000000" font-family="sans-serif" font-size="14" lengthAdjust="spacing" textLength="36" x="614" y="283.0234">3191</text><line style="stroke:#000000;stroke-width:1.0;" x1="609" x2="609" y1="267.4883" y2="287.9766"/><line style="stroke:#000000;stroke-width:1.0;" x1="505" x2="776" y1="287.9766" y2="287.9766"/><text fill="#000000" font-family="sans-serif" font-size="14" font-weight="bold" lengthAdjust="spacing" textLength="94" x="510" y="303.5117">ratio_percent</text><text fill="#000000" font-family="sans-serif" font-size="14" lengthAdjust="spacing" textLength="157" x="614" y="303.5117">2.6302991336745882</text><line style="stroke:#000000;stroke-width:1.0;" x1="609" x2="609" y1="287.9766" y2="308.4648"/><rect fill="none" height="61.4648" rx="5" ry="5" style="stroke:#000000;stroke-width:1.5;" width="271" x="505" y="247"/><rect fill="#F1F1F1" height="61.4648" rx="5" ry="5" style="stroke:#F1F1F1;stroke-width:1.5;" width="262" x="509.5" y="326"/><text fill="#000000" font-family="sans-serif" font-size="14" font-weight="bold" lengthAdjust="spacing" textLength="78" x="514.5" y="341.5352">field_value</text><text fill="#000000" font-family="sans-serif" font-size="14" lengthAdjust="spacing" textLength="49" x="618.5" y="341.5352">469.79</text><line style="stroke:#000000;stroke-width:1.0;" x1="613.5" x2="613.5" y1="326" y2="346.4883"/><line style="stroke:#000000;stroke-width:1.0;" x1="509.5" x2="771.5" y1="346.4883" y2="346.4883"/><text fill="#000000" font-family="sans-serif" font-size="14" font-weight="bold" lengthAdjust="spacing" textLength="74" x="514.5" y="362.0234">row_count</text><text fill="#000000" font-family="sans-serif" font-size="14" lengthAdjust="spacing" textLength="36" x="618.5" y="362.0234">2969</text><line style="stroke:#000000;stroke-width:1.0;" x1="613.5" x2="613.5" y1="346.4883" y2="366.9766"/><line style="stroke:#000000;stroke-width:1.0;" x1="509.5" x2="771.5" y1="366.9766" y2="366.9766"/><text fill="#000000" font-family="sans-serif" font-size="14" font-weight="bold" lengthAdjust="spacing" textLength="94" x="514.5" y="382.5117">ratio_percent</text><text fill="#000000" font-family="sans-serif" font-size="14" lengthAdjust="spacing" textLength="148" x="618.5" y="382.5117">2.447307467213993</text><line style="stroke:#000000;stroke-width:1.0;" x1="613.5" x2="613.5" y1="366.9766" y2="387.4648"/><rect fill="none" height="61.4648" rx="5" ry="5" style="stroke:#000000;stroke-width:1.5;" width="262" x="509.5" y="326"/><rect fill="#F1F1F1" height="61.4648" rx="5" ry="5" style="stroke:#F1F1F1;stroke-width:1.5;" width="271" x="505" y="405"/><text fill="#000000" font-family="sans-serif" font-size="14" font-weight="bold" lengthAdjust="spacing" textLength="78" x="510" y="420.5352">field_value</text><text fill="#000000" font-family="sans-serif" font-size="14" lengthAdjust="spacing" textLength="31" x="614" y="420.5352">3.99</text><line style="stroke:#000000;stroke-width:1.0;" x1="609" x2="609" y1="405" y2="425.4883"/><line style="stroke:#000000;stroke-width:1.0;" x1="505" x2="776" y1="425.4883" y2="425.4883"/><text fill="#000000" font-family="sans-serif" font-size="14" font-weight="bold" lengthAdjust="spacing" textLength="74" x="510" y="441.0234">row_count</text><text fill="#000000" font-family="sans-serif" font-size="14" lengthAdjust="spacing" textLength="36" x="614" y="441.0234">2376</text><line style="stroke:#000000;stroke-width:1.0;" x1="609" x2="609" y1="425.4883" y2="445.9766"/><line style="stroke:#000000;stroke-width:1.0;" x1="505" x2="776" y1="445.9766" y2="445.9766"/><text fill="#000000" font-family="sans-serif" font-size="14" font-weight="bold" lengthAdjust="spacing" textLength="94" x="510" y="461.5117">ratio_percent</text><text fill="#000000" font-family="sans-serif" font-size="14" lengthAdjust="spacing" textLength="157" x="614" y="461.5117">1.9585054031998812</text><line style="stroke:#000000;stroke-width:1.0;" x1="609" x2="609" y1="445.9766" y2="466.4648"/><rect fill="none" height="61.4648" rx="5" ry="5" style="stroke:#000000;stroke-width:1.5;" width="271" x="505" y="405"/><rect fill="#F1F1F1" height="61.4648" rx="5" ry="5" style="stroke:#F1F1F1;stroke-width:1.5;" width="271" x="505" y="484"/><text fill="#000000" font-family="sans-serif" font-size="14" font-weight="bold" lengthAdjust="spacing" textLength="78" x="510" y="499.5352">field_value</text><text fill="#000000" font-family="sans-serif" font-size="14" lengthAdjust="spacing" textLength="40" x="614" y="499.5352">53.99</text><line style="stroke:#000000;stroke-width:1.0;" x1="609" x2="609" y1="484" y2="504.4883"/><line style="stroke:#000000;stroke-width:1.0;" x1="505" x2="776" y1="504.4883" y2="504.4883"/><text fill="#000000" font-family="sans-serif" font-size="14" font-weight="bold" lengthAdjust="spacing" textLength="74" x="510" y="520.0234">row_count</text><text fill="#000000" font-family="sans-serif" font-size="14" lengthAdjust="spacing" textLength="36" x="614" y="520.0234">2331</text><line style="stroke:#000000;stroke-width:1.0;" x1="609" x2="609" y1="504.4883" y2="524.9766"/><line style="stroke:#000000;stroke-width:1.0;" x1="505" x2="776" y1="524.9766" y2="524.9766"/><text fill="#000000" font-family="sans-serif" font-size="14" font-weight="bold" lengthAdjust="spacing" textLength="94" x="510" y="540.5117">ratio_percent</text><text fill="#000000" font-family="sans-serif" font-size="14" lengthAdjust="spacing" textLength="157" x="614" y="540.5117">1.9214124978362472</text><line style="stroke:#000000;stroke-width:1.0;" x1="609" x2="609" y1="524.9766" y2="545.4648"/><rect fill="none" height="61.4648" rx="5" ry="5" style="stroke:#000000;stroke-width:1.5;" width="271" x="505" y="484"/><rect fill="#F1F1F1" height="61.4648" rx="5" ry="5" style="stroke:#F1F1F1;stroke-width:1.5;" width="262" x="509.5" y="563"/><text fill="#000000" font-family="sans-serif" font-size="14" font-weight="bold" lengthAdjust="spacing" textLength="78" x="514.5" y="578.5352">field_value</text><text fill="#000000" font-family="sans-serif" font-size="14" lengthAdjust="spacing" textLength="49" x="618.5" y="578.5352">419.46</text><line style="stroke:#000000;stroke-width:1.0;" x1="613.5" x2="613.5" y1="563" y2="583.4883"/><line style="stroke:#000000;stroke-width:1.0;" x1="509.5" x2="771.5" y1="583.4883" y2="583.4883"/><text fill="#000000" font-family="sans-serif" font-size="14" font-weight="bold" lengthAdjust="spacing" textLength="74" x="514.5" y="599.0234">row_count</text><text fill="#000000" font-family="sans-serif" font-size="14" lengthAdjust="spacing" textLength="36" x="618.5" y="599.0234">2198</text><line style="stroke:#000000;stroke-width:1.0;" x1="613.5" x2="613.5" y1="583.4883" y2="603.9766"/><line style="stroke:#000000;stroke-width:1.0;" x1="509.5" x2="771.5" y1="603.9766" y2="603.9766"/><text fill="#000000" font-family="sans-serif" font-size="14" font-weight="bold" lengthAdjust="spacing" textLength="94" x="514.5" y="619.5117">ratio_percent</text><text fill="#000000" font-family="sans-serif" font-size="14" lengthAdjust="spacing" textLength="148" x="618.5" y="619.5117">1.811782355317062</text><line style="stroke:#000000;stroke-width:1.0;" x1="613.5" x2="613.5" y1="603.9766" y2="624.4648"/><rect fill="none" height="61.4648" rx="5" ry="5" style="stroke:#000000;stroke-width:1.5;" width="262" x="509.5" y="563"/><rect fill="#F1F1F1" height="61.4648" rx="5" ry="5" style="stroke:#F1F1F1;stroke-width:1.5;" width="271" x="505" y="642"/><text fill="#000000" font-family="sans-serif" font-size="14" font-weight="bold" lengthAdjust="spacing" textLength="78" x="510" y="657.5352">field_value</text><text fill="#000000" font-family="sans-serif" font-size="14" lengthAdjust="spacing" textLength="40" x="614" y="657.5352">21.98</text><line style="stroke:#000000;stroke-width:1.0;" x1="609" x2="609" y1="642" y2="662.4883"/><line style="stroke:#000000;stroke-width:1.0;" x1="505" x2="776" y1="662.4883" y2="662.4883"/><text fill="#000000" font-family="sans-serif" font-size="14" font-weight="bold" lengthAdjust="spacing" textLength="74" x="510" y="678.0234">row_count</text><text fill="#000000" font-family="sans-serif" font-size="14" lengthAdjust="spacing" textLength="36" x="614" y="678.0234">2121</text><line style="stroke:#000000;stroke-width:1.0;" x1="609" x2="609" y1="662.4883" y2="682.9766"/><line style="stroke:#000000;stroke-width:1.0;" x1="505" x2="776" y1="682.9766" y2="682.9766"/><text fill="#000000" font-family="sans-serif" font-size="14" font-weight="bold" lengthAdjust="spacing" textLength="94" x="510" y="698.5117">ratio_percent</text><text fill="#000000" font-family="sans-serif" font-size="14" lengthAdjust="spacing" textLength="157" x="614" y="698.5117">1.7483122728059546</text><line style="stroke:#000000;stroke-width:1.0;" x1="609" x2="609" y1="682.9766" y2="703.4648"/><rect fill="none" height="61.4648" rx="5" ry="5" style="stroke:#000000;stroke-width:1.5;" width="271" x="505" y="642"/><rect fill="#F1F1F1" height="61.4648" rx="5" ry="5" style="stroke:#F1F1F1;stroke-width:1.5;" width="271" x="505" y="721"/><text fill="#000000" font-family="sans-serif" font-size="14" font-weight="bold" lengthAdjust="spacing" textLength="78" x="510" y="736.5352">field_value</text><text fill="#000000" font-family="sans-serif" font-size="14" lengthAdjust="spacing" textLength="40" x="614" y="736.5352">29.99</text><line style="stroke:#000000;stroke-width:1.0;" x1="609" x2="609" y1="721" y2="741.4883"/><line style="stroke:#000000;stroke-width:1.0;" x1="505" x2="776" y1="741.4883" y2="741.4883"/><text fill="#000000" font-family="sans-serif" font-size="14" font-weight="bold" lengthAdjust="spacing" textLength="74" x="510" y="757.0234">row_count</text><text fill="#000000" font-family="sans-serif" font-size="14" lengthAdjust="spacing" textLength="36" x="614" y="757.0234">2036</text><line style="stroke:#000000;stroke-width:1.0;" x1="609" x2="609" y1="741.4883" y2="761.9766"/><line style="stroke:#000000;stroke-width:1.0;" x1="505" x2="776" y1="761.9766" y2="761.9766"/><text fill="#000000" font-family="sans-serif" font-size="14" font-weight="bold" lengthAdjust="spacing" textLength="94" x="510" y="777.5117">ratio_percent</text><text fill="#000000" font-family="sans-serif" font-size="14" lengthAdjust="spacing" textLength="157" x="614" y="777.5117">1.6782478960079792</text><line style="stroke:#000000;stroke-width:1.0;" x1="609" x2="609" y1="761.9766" y2="782.4648"/><rect fill="none" height="61.4648" rx="5" ry="5" style="stroke:#000000;stroke-width:1.5;" width="271" x="505" y="721"/><path d="M203,315.5 L216,315.5 C236.8273,315.5 233.5595,295.1812 252,285.5 C256.4954,283.14 261.1967,280.9488 266.0148,278.9165 " fill="none" style="stroke:#000000;stroke-width:1.0;stroke-dasharray:3.0,3.0;"/><path d="M267.1607,281.7694 L268.1544,278.0571 L264.8689,276.0637 L273.147,276.0517 L267.1607,281.7694 " fill="#000000" style="stroke:#000000;stroke-width:1.0;"/><ellipse cx="203" cy="315.5" fill="#000000" rx="3" ry="3" style="stroke:#000000;stroke-width:1.0;"/><path d="M360.5,303.5 L373.5,303.5 C416.6918,303.5 438.6623,316.2434 469,285.5 C534.2827,219.3442 442.93,148.679 505,79.5 C506.0081,78.3765 507.0463,77.2844 508.1126,76.2231 " fill="none" style="stroke:#000000;stroke-width:1.0;stroke-dasharray:3.0,3.0;"/><path d="M510.1347,78.4455 L509.7795,74.7065 L506.0905,74.0006 L513.6688,71.1678 L510.1347,78.4455 " fill="#000000" style="stroke:#000000;stroke-width:1.0;"/><ellipse cx="360.5" cy="303.5" fill="#000000" rx="3" ry="3" style="stroke:#000000;stroke-width:1.0;"/><path d="M360.5,324.5 L373.5,324.5 C419.3473,324.5 438.4377,319.6748 469,285.5 C508.109,241.7683 463.6193,200.0887 505,158.5 C506.2233,157.2705 507.4828,156.0793 508.7755,154.925 " fill="none" style="stroke:#000000;stroke-width:1.0;stroke-dasharray:3.0,3.0;"/><path d="M510.7064,157.2737 L510.537,153.4769 L506.8447,152.5764 L514.6472,150.0978 L510.7064,157.2737 " fill="#000000" style="stroke:#000000;stroke-width:1.0;"/><ellipse cx="360.5" cy="324.5" fill="#000000" rx="3" ry="3" style="stroke:#000000;stroke-width:1.0;"/><path d="M360.5,344.5 L373.5,344.5 C423.3912,344.5 432.1687,319.154 469,285.5 C488.6862,267.5121 483.0554,252.6508 505,237.5 C507.3464,235.88 509.7599,234.3267 512.2295,232.8373 " fill="none" style="stroke:#000000;stroke-width:1.0;stroke-dasharray:3.0,3.0;"/><path d="M513.7476,235.5016 L514.2277,231.6987 L510.7115,230.173 L518.8903,229.0421 L513.7476,235.5016 " fill="#000000" style="stroke:#000000;stroke-width:1.0;"/><ellipse cx="360.5" cy="344.5" fill="#000000" rx="3" ry="3" style="stroke:#000000;stroke-width:1.0;"/><path d="M360.5,365.5 L373.5,365.5 C435.7163,365.5 445.923,337.0135 505,317.5 C512.1375,315.1425 519.508,312.7741 526.9528,310.4317 " fill="none" style="stroke:#000000;stroke-width:1.0;stroke-dasharray:3.0,3.0;"/><path d="M527.8858,313.4171 L529.1919,309.7319 L526.0198,307.4463 L534.4164,308.0992 L527.8858,313.4171 " fill="#000000" style="stroke:#000000;stroke-width:1.0;"/><ellipse cx="360.5" cy="365.5" fill="#000000" rx="3" ry="3" style="stroke:#000000;stroke-width:1.0;"/><path d="M360.5,385.5 L373.5,385.5 C415.4514,385.5 460.9007,381.9046 502.1834,377.2457 " fill="none" style="stroke:#000000;stroke-width:1.0;stroke-dasharray:3.0,3.0;"/><path d="M502.536,380.3089 L504.4808,376.9812 L501.8307,374.1824 L509.8415,376.364 L502.536,380.3089 " fill="#000000" style="stroke:#000000;stroke-width:1.0;"/><ellipse cx="360.5" cy="385.5" fill="#000000" rx="3" ry="3" style="stroke:#000000;stroke-width:1.0;"/><path d="M360.5,406.5 L373.5,406.5 C413.8593,406.5 457.456,409.8277 497.4656,414.2286 " fill="none" style="stroke:#000000;stroke-width:1.0;stroke-dasharray:3.0,3.0;"/><path d="M497.1081,417.4094 L499.8512,414.4968 L497.8232,411.0478 L505.4177,415.1224 L497.1081,417.4094 " fill="#000000" style="stroke:#000000;stroke-width:1.0;"/><ellipse cx="360.5" cy="406.5" fill="#000000" rx="3" ry="3" style="stroke:#000000;stroke-width:1.0;"/><path d="M360.5,427.5 L373.5,427.5 C435.7163,427.5 445.8568,456.1882 505,475.5 C511.3866,477.5854 517.9613,479.6734 524.6099,481.7394 " fill="none" style="stroke:#000000;stroke-width:1.0;stroke-dasharray:3.0,3.0;"/><path d="M523.7171,484.6346 L526.7812,482.409 L525.5027,478.8442 L531.8478,483.9714 L523.7171,484.6346 " fill="#000000" style="stroke:#000000;stroke-width:1.0;"/><ellipse cx="360.5" cy="427.5" fill="#000000" rx="3" ry="3" style="stroke:#000000;stroke-width:1.0;"/><path d="M360.5,447.5 L373.5,447.5 C448.8478,447.5 438.2413,519.5636 505,554.5 C508.4905,556.3267 512.0778,558.078 515.7358,559.7564 " fill="none" style="stroke:#000000;stroke-width:1.0;stroke-dasharray:3.0,3.0;"/><path d="M514.4805,562.6024 L517.8703,560.6978 L516.991,556.9104 L522.8507,562.8945 L514.4805,562.6024 " fill="#000000" style="stroke:#000000;stroke-width:1.0;"/><ellipse cx="360.5" cy="447.5" fill="#000000" rx="3" ry="3" style="stroke:#000000;stroke-width:1.0;"/><path d="M360.5,468.5 L373.5,468.5 C467.2738,468.5 427.057,581.3615 505,633.5 C507.4238,635.1213 509.9155,636.6763 512.4636,638.1676 " fill="none" style="stroke:#000000;stroke-width:1.0;stroke-dasharray:3.0,3.0;"/><path d="M510.9435,640.915 L514.5242,639.3077 L513.9838,635.4201 L519.3322,641.968 L510.9435,640.915 " fill="#000000" style="stroke:#000000;stroke-width:1.0;"/><ellipse cx="360.5" cy="468.5" fill="#000000" rx="3" ry="3" style="stroke:#000000;stroke-width:1.0;"/><path d="M360.5,488.5 L373.5,488.5 C488.9429,488.5 413.8429,641.6661 505,712.5 C506.806,713.9033 508.6607,715.2562 510.5583,716.5604 " fill="none" style="stroke:#000000;stroke-width:1.0;stroke-dasharray:3.0,3.0;"/><path d="M508.8585,719.2035 L512.5406,717.8352 L512.258,713.9173 L517.166,720.8098 L508.8585,719.2035 " fill="#000000" style="stroke:#000000;stroke-width:1.0;"/><ellipse cx="360.5" cy="488.5" fill="#000000" rx="3" ry="3" style="stroke:#000000;stroke-width:1.0;"/><path d="M203,336.5 L216,336.5 C264.5847,336.5 315.7595,366.1373 341.8849,383.7526 " fill="none" style="stroke:#000000;stroke-width:1.0;stroke-dasharray:3.0,3.0;"/><path d="M340.123,386.3062 L343.8001,385.074 L343.6468,381.199 L348.2689,388.1573 L340.123,386.3062 " fill="#000000" style="stroke:#000000;stroke-width:1.0;"/><ellipse cx="203" cy="336.5" fill="#000000" rx="3" ry="3" style="stroke:#000000;stroke-width:1.0;"/><!--MD5=[165e6e36cc388f569972cb0a04da6d33]
@startjson
{
    "field1": "UnitPrice",
    "combination": "UnitPrice",
    "null_distribution": {
        "total_null_rows": 0,
        "total_not_null_rows": 121317
    },
    "data_distribution": [
        {
            "field_value": "4.99",
            "row_count": 8827,
            "ratio_percent": 7.275979458773296
        },
        {
            "field_value": "34.99",
            "row_count": 6440,
            "ratio_percent": 5.308406900928971
        },
        {
            "field_value": "8.99",
            "row_count": 4470,
            "ratio_percent": 3.6845619327876555
        },
        {
            "field_value": "2.29",
            "row_count": 3191,
            "ratio_percent": 2.6302991336745882
        },
        {
            "field_value": "469.79",
            "row_count": 2969,
            "ratio_percent": 2.447307467213993
        },
        {
            "field_value": "3.99",
            "row_count": 2376,
            "ratio_percent": 1.9585054031998812
        },
        {
            "field_value": "53.99",
            "row_count": 2331,
            "ratio_percent": 1.9214124978362472
        },
        {
            "field_value": "419.46",
            "row_count": 2198,
            "ratio_percent": 1.811782355317062
        },
        {
            "field_value": "21.98",
            "row_count": 2121,
            "ratio_percent": 1.7483122728059546
        },
        {
            "field_value": "29.99",
            "row_count": 2036,
            "ratio_percent": 1.6782478960079792
        }
    ]
}
@endjson

PlantUML version 1.2022.5(Sat Apr 30 06:55:52 EDT 2022)
(GPL source distribution)
Java Runtime: OpenJDK Runtime Environment
JVM: OpenJDK 64-Bit Server VM
Default Encoding: UTF-8
Language: en
Country: CA
--></g></svg>