<?xml version="1.0" encoding="UTF-8" standalone="no"?><svg xmlns="http://www.w3.org/2000/svg" xmlns:xlink="http://www.w3.org/1999/xlink" contentStyleType="text/css" height="1564px" preserveAspectRatio="none" style="width:430px;height:1564px;background:#FFFFFF;" version="1.1" viewBox="0 0 430 1564" width="430px" zoomAndPan="magnify"><defs/><g><rect fill="#F1F1F1" height="143.418" rx="5" ry="5" style="stroke:#F1F1F1;stroke-width:1.5;" width="22" x="10" y="711"/><text fill="#000000" font-family="sans-serif" font-size="14" lengthAdjust="spacing" textLength="12" x="15" y="726.5352">   </text><line style="stroke:#000000;stroke-width:1.0;" x1="10" x2="32" y1="731.4883" y2="731.4883"/><text fill="#000000" font-family="sans-serif" font-size="14" lengthAdjust="spacing" textLength="12" x="15" y="747.0234">   </text><line style="stroke:#000000;stroke-width:1.0;" x1="10" x2="32" y1="751.9766" y2="751.9766"/><text fill="#000000" font-family="sans-serif" font-size="14" lengthAdjust="spacing" textLength="12" x="15" y="767.5117">   </text><line style="stroke:#000000;stroke-width:1.0;" x1="10" x2="32" y1="772.4648" y2="772.4648"/><text fill="#000000" font-family="sans-serif" font-size="14" lengthAdjust="spacing" textLength="12" x="15" y="788">   </text><line style="stroke:#000000;stroke-width:1.0;" x1="10" x2="32" y1="792.9531" y2="792.9531"/><text fill="#000000" font-family="sans-serif" font-size="14" lengthAdjust="spacing" textLength="12" x="15" y="808.4883">   </text><line style="stroke:#000000;stroke-width:1.0;" x1="10" x2="32" y1="813.4414" y2="813.4414"/><text fill="#000000" font-family="sans-serif" font-size="14" lengthAdjust="spacing" textLength="12" x="15" y="828.9766">   </text><line style="stroke:#000000;stroke-width:1.0;" x1="10" x2="32" y1="833.9297" y2="833.9297"/><text fill="#000000" font-family="sans-serif" font-size="14" lengthAdjust="spacing" textLength="12" x="15" y="849.4648">   </text><rect fill="none" height="143.418" rx="5" ry="5" style="stroke:#000000;stroke-width:1.5;" width="22" x="10" y="711"/><rect fill="#F1F1F1" height="204.8828" rx="5" ry="5" style="stroke:#F1F1F1;stroke-width:1.5;" width="342" x="73.5" y="10"/><text fill="#000000" font-family="sans-serif" font-size="14" font-weight="bold" lengthAdjust="spacing" textLength="77" x="78.5" y="25.5352">officeCode</text><text fill="#000000" font-family="sans-serif" font-size="14" lengthAdjust="spacing" textLength="9" x="242.5" y="25.5352">6</text><line style="stroke:#000000;stroke-width:1.0;" x1="237.5" x2="237.5" y1="10" y2="30.4883"/><line style="stroke:#000000;stroke-width:1.0;" x1="73.5" x2="415.5" y1="30.4883" y2="30.4883"/><text fill="#000000" font-family="sans-serif" font-size="14" font-weight="bold" lengthAdjust="spacing" textLength="26" x="78.5" y="46.0234">city</text><text fill="#000000" font-family="sans-serif" font-size="14" lengthAdjust="spacing" textLength="48" x="242.5" y="46.0234">Sydney</text><line style="stroke:#000000;stroke-width:1.0;" x1="237.5" x2="237.5" y1="30.4883" y2="50.9766"/><line style="stroke:#000000;stroke-width:1.0;" x1="73.5" x2="415.5" y1="50.9766" y2="50.9766"/><text fill="#000000" font-family="sans-serif" font-size="14" font-weight="bold" lengthAdjust="spacing" textLength="44" x="78.5" y="66.5117">phone</text><text fill="#000000" font-family="sans-serif" font-size="14" lengthAdjust="spacing" textLength="122" x="242.5" y="66.5117">+61 2 9264 2451</text><line style="stroke:#000000;stroke-width:1.0;" x1="237.5" x2="237.5" y1="50.9766" y2="71.4648"/><line style="stroke:#000000;stroke-width:1.0;" x1="73.5" x2="415.5" y1="71.4648" y2="71.4648"/><text fill="#000000" font-family="sans-serif" font-size="14" font-weight="bold" lengthAdjust="spacing" textLength="95" x="78.5" y="87">addressLine1</text><text fill="#000000" font-family="sans-serif" font-size="14" lengthAdjust="spacing" textLength="168" x="242.5" y="87">5-11 Wentworth Avenue</text><line style="stroke:#000000;stroke-width:1.0;" x1="237.5" x2="237.5" y1="71.4648" y2="91.9531"/><line style="stroke:#000000;stroke-width:1.0;" x1="73.5" x2="415.5" y1="91.9531" y2="91.9531"/><text fill="#000000" font-family="sans-serif" font-size="14" font-weight="bold" lengthAdjust="spacing" textLength="95" x="78.5" y="107.4883">addressLine2</text><text fill="#000000" font-family="sans-serif" font-size="14" lengthAdjust="spacing" textLength="58" x="242.5" y="107.4883">Floor #2</text><line style="stroke:#000000;stroke-width:1.0;" x1="237.5" x2="237.5" y1="91.9531" y2="112.4414"/><line style="stroke:#000000;stroke-width:1.0;" x1="73.5" x2="415.5" y1="112.4414" y2="112.4414"/><text fill="#000000" font-family="sans-serif" font-size="14" font-weight="bold" lengthAdjust="spacing" textLength="36" x="78.5" y="127.9766">state</text><text fill="#000000" font-family="sans-serif" font-size="14" lengthAdjust="spacing" textLength="14" x="242.5" y="127.9766">␀</text><line style="stroke:#000000;stroke-width:1.0;" x1="237.5" x2="237.5" y1="112.4414" y2="132.9297"/><line style="stroke:#000000;stroke-width:1.0;" x1="73.5" x2="415.5" y1="132.9297" y2="132.9297"/><text fill="#000000" font-family="sans-serif" font-size="14" font-weight="bold" lengthAdjust="spacing" textLength="54" x="78.5" y="148.4648">country</text><text fill="#000000" font-family="sans-serif" font-size="14" lengthAdjust="spacing" textLength="61" x="242.5" y="148.4648">Australia</text><line style="stroke:#000000;stroke-width:1.0;" x1="237.5" x2="237.5" y1="132.9297" y2="153.418"/><line style="stroke:#000000;stroke-width:1.0;" x1="73.5" x2="415.5" y1="153.418" y2="153.418"/><text fill="#000000" font-family="sans-serif" font-size="14" font-weight="bold" lengthAdjust="spacing" textLength="81" x="78.5" y="168.9531">postalCode</text><text fill="#000000" font-family="sans-serif" font-size="14" lengthAdjust="spacing" textLength="70" x="242.5" y="168.9531">NSW 2010</text><line style="stroke:#000000;stroke-width:1.0;" x1="237.5" x2="237.5" y1="153.418" y2="173.9063"/><line style="stroke:#000000;stroke-width:1.0;" x1="73.5" x2="415.5" y1="173.9063" y2="173.9063"/><text fill="#000000" font-family="sans-serif" font-size="14" font-weight="bold" lengthAdjust="spacing" textLength="60" x="78.5" y="189.4414">territory</text><text fill="#000000" font-family="sans-serif" font-size="14" lengthAdjust="spacing" textLength="38" x="242.5" y="189.4414">APAC</text><line style="stroke:#000000;stroke-width:1.0;" x1="237.5" x2="237.5" y1="173.9063" y2="194.3945"/><line style="stroke:#000000;stroke-width:1.0;" x1="73.5" x2="415.5" y1="194.3945" y2="194.3945"/><text fill="#000000" font-family="sans-serif" font-size="14" font-weight="bold" lengthAdjust="spacing" textLength="154" x="78.5" y="209.9297">SYS_EXEC_DURATION</text><text fill="#000000" font-family="sans-serif" font-size="14" lengthAdjust="spacing" textLength="67" x="242.5" y="209.9297">0.226115</text><line style="stroke:#000000;stroke-width:1.0;" x1="237.5" x2="237.5" y1="194.3945" y2="214.8828"/><rect fill="none" height="204.8828" rx="5" ry="5" style="stroke:#000000;stroke-width:1.5;" width="342" x="73.5" y="10"/><rect fill="#F1F1F1" height="204.8828" rx="5" ry="5" style="stroke:#F1F1F1;stroke-width:1.5;" width="308" x="90.5" y="233"/><text fill="#000000" font-family="sans-serif" font-size="14" font-weight="bold" lengthAdjust="spacing" textLength="77" x="95.5" y="248.5352">officeCode</text><text fill="#000000" font-family="sans-serif" font-size="14" lengthAdjust="spacing" textLength="9" x="259.5" y="248.5352">7</text><line style="stroke:#000000;stroke-width:1.0;" x1="254.5" x2="254.5" y1="233" y2="253.4883"/><line style="stroke:#000000;stroke-width:1.0;" x1="90.5" x2="398.5" y1="253.4883" y2="253.4883"/><text fill="#000000" font-family="sans-serif" font-size="14" font-weight="bold" lengthAdjust="spacing" textLength="26" x="95.5" y="269.0234">city</text><text fill="#000000" font-family="sans-serif" font-size="14" lengthAdjust="spacing" textLength="52" x="259.5" y="269.0234">London</text><line style="stroke:#000000;stroke-width:1.0;" x1="254.5" x2="254.5" y1="253.4883" y2="273.9766"/><line style="stroke:#000000;stroke-width:1.0;" x1="90.5" x2="398.5" y1="273.9766" y2="273.9766"/><text fill="#000000" font-family="sans-serif" font-size="14" font-weight="bold" lengthAdjust="spacing" textLength="44" x="95.5" y="289.5117">phone</text><text fill="#000000" font-family="sans-serif" font-size="14" lengthAdjust="spacing" textLength="131" x="259.5" y="289.5117">+44 20 7877 2041</text><line style="stroke:#000000;stroke-width:1.0;" x1="254.5" x2="254.5" y1="273.9766" y2="294.4648"/><line style="stroke:#000000;stroke-width:1.0;" x1="90.5" x2="398.5" y1="294.4648" y2="294.4648"/><text fill="#000000" font-family="sans-serif" font-size="14" font-weight="bold" lengthAdjust="spacing" textLength="95" x="95.5" y="310">addressLine1</text><text fill="#000000" font-family="sans-serif" font-size="14" lengthAdjust="spacing" textLength="134" x="259.5" y="310">25 Old Broad Street</text><line style="stroke:#000000;stroke-width:1.0;" x1="254.5" x2="254.5" y1="294.4648" y2="314.9531"/><line style="stroke:#000000;stroke-width:1.0;" x1="90.5" x2="398.5" y1="314.9531" y2="314.9531"/><text fill="#000000" font-family="sans-serif" font-size="14" font-weight="bold" lengthAdjust="spacing" textLength="95" x="95.5" y="330.4883">addressLine2</text><text fill="#000000" font-family="sans-serif" font-size="14" lengthAdjust="spacing" textLength="47" x="259.5" y="330.4883">Level 7</text><line style="stroke:#000000;stroke-width:1.0;" x1="254.5" x2="254.5" y1="314.9531" y2="335.4414"/><line style="stroke:#000000;stroke-width:1.0;" x1="90.5" x2="398.5" y1="335.4414" y2="335.4414"/><text fill="#000000" font-family="sans-serif" font-size="14" font-weight="bold" lengthAdjust="spacing" textLength="36" x="95.5" y="350.9766">state</text><text fill="#000000" font-family="sans-serif" font-size="14" lengthAdjust="spacing" textLength="14" x="259.5" y="350.9766">␀</text><line style="stroke:#000000;stroke-width:1.0;" x1="254.5" x2="254.5" y1="335.4414" y2="355.9297"/><line style="stroke:#000000;stroke-width:1.0;" x1="90.5" x2="398.5" y1="355.9297" y2="355.9297"/><text fill="#000000" font-family="sans-serif" font-size="14" font-weight="bold" lengthAdjust="spacing" textLength="54" x="95.5" y="371.4648">country</text><text fill="#000000" font-family="sans-serif" font-size="14" lengthAdjust="spacing" textLength="19" x="259.5" y="371.4648">UK</text><line style="stroke:#000000;stroke-width:1.0;" x1="254.5" x2="254.5" y1="355.9297" y2="376.418"/><line style="stroke:#000000;stroke-width:1.0;" x1="90.5" x2="398.5" y1="376.418" y2="376.418"/><text fill="#000000" font-family="sans-serif" font-size="14" font-weight="bold" lengthAdjust="spacing" textLength="81" x="95.5" y="391.9531">postalCode</text><text fill="#000000" font-family="sans-serif" font-size="14" lengthAdjust="spacing" textLength="70" x="259.5" y="391.9531">EC2N 1HN</text><line style="stroke:#000000;stroke-width:1.0;" x1="254.5" x2="254.5" y1="376.418" y2="396.9063"/><line style="stroke:#000000;stroke-width:1.0;" x1="90.5" x2="398.5" y1="396.9063" y2="396.9063"/><text fill="#000000" font-family="sans-serif" font-size="14" font-weight="bold" lengthAdjust="spacing" textLength="60" x="95.5" y="412.4414">territory</text><text fill="#000000" font-family="sans-serif" font-size="14" lengthAdjust="spacing" textLength="38" x="259.5" y="412.4414">EMEA</text><line style="stroke:#000000;stroke-width:1.0;" x1="254.5" x2="254.5" y1="396.9063" y2="417.3945"/><line style="stroke:#000000;stroke-width:1.0;" x1="90.5" x2="398.5" y1="417.3945" y2="417.3945"/><text fill="#000000" font-family="sans-serif" font-size="14" font-weight="bold" lengthAdjust="spacing" textLength="154" x="95.5" y="432.9297">SYS_EXEC_DURATION</text><text fill="#000000" font-family="sans-serif" font-size="14" lengthAdjust="spacing" textLength="67" x="259.5" y="432.9297">0.226378</text><line style="stroke:#000000;stroke-width:1.0;" x1="254.5" x2="254.5" y1="417.3945" y2="437.8828"/><rect fill="none" height="204.8828" rx="5" ry="5" style="stroke:#000000;stroke-width:1.5;" width="308" x="90.5" y="233"/><rect fill="#F1F1F1" height="204.8828" rx="5" ry="5" style="stroke:#F1F1F1;stroke-width:1.5;" width="347" x="71" y="456"/><text fill="#000000" font-family="sans-serif" font-size="14" font-weight="bold" lengthAdjust="spacing" textLength="77" x="76" y="471.5352">officeCode</text><text fill="#000000" font-family="sans-serif" font-size="14" lengthAdjust="spacing" textLength="9" x="240" y="471.5352">4</text><line style="stroke:#000000;stroke-width:1.0;" x1="235" x2="235" y1="456" y2="476.4883"/><line style="stroke:#000000;stroke-width:1.0;" x1="71" x2="418" y1="476.4883" y2="476.4883"/><text fill="#000000" font-family="sans-serif" font-size="14" font-weight="bold" lengthAdjust="spacing" textLength="26" x="76" y="492.0234">city</text><text fill="#000000" font-family="sans-serif" font-size="14" lengthAdjust="spacing" textLength="33" x="240" y="492.0234">Paris</text><line style="stroke:#000000;stroke-width:1.0;" x1="235" x2="235" y1="476.4883" y2="496.9766"/><line style="stroke:#000000;stroke-width:1.0;" x1="71" x2="418" y1="496.9766" y2="496.9766"/><text fill="#000000" font-family="sans-serif" font-size="14" font-weight="bold" lengthAdjust="spacing" textLength="44" x="76" y="512.5117">phone</text><text fill="#000000" font-family="sans-serif" font-size="14" lengthAdjust="spacing" textLength="122" x="240" y="512.5117">+33 14 723 4404</text><line style="stroke:#000000;stroke-width:1.0;" x1="235" x2="235" y1="496.9766" y2="517.4648"/><line style="stroke:#000000;stroke-width:1.0;" x1="71" x2="418" y1="517.4648" y2="517.4648"/><text fill="#000000" font-family="sans-serif" font-size="14" font-weight="bold" lengthAdjust="spacing" textLength="95" x="76" y="533">addressLine1</text><text fill="#000000" font-family="sans-serif" font-size="14" lengthAdjust="spacing" textLength="173" x="240" y="533">43 Rue Jouffroy D'abbans</text><line style="stroke:#000000;stroke-width:1.0;" x1="235" x2="235" y1="517.4648" y2="537.9531"/><line style="stroke:#000000;stroke-width:1.0;" x1="71" x2="418" y1="537.9531" y2="537.9531"/><text fill="#000000" font-family="sans-serif" font-size="14" font-weight="bold" lengthAdjust="spacing" textLength="95" x="76" y="553.4883">addressLine2</text><text fill="#000000" font-family="sans-serif" font-size="14" lengthAdjust="spacing" textLength="14" x="240" y="553.4883">␀</text><line style="stroke:#000000;stroke-width:1.0;" x1="235" x2="235" y1="537.9531" y2="558.4414"/><line style="stroke:#000000;stroke-width:1.0;" x1="71" x2="418" y1="558.4414" y2="558.4414"/><text fill="#000000" font-family="sans-serif" font-size="14" font-weight="bold" lengthAdjust="spacing" textLength="36" x="76" y="573.9766">state</text><text fill="#000000" font-family="sans-serif" font-size="14" lengthAdjust="spacing" textLength="14" x="240" y="573.9766">␀</text><line style="stroke:#000000;stroke-width:1.0;" x1="235" x2="235" y1="558.4414" y2="578.9297"/><line style="stroke:#000000;stroke-width:1.0;" x1="71" x2="418" y1="578.9297" y2="578.9297"/><text fill="#000000" font-family="sans-serif" font-size="14" font-weight="bold" lengthAdjust="spacing" textLength="54" x="76" y="594.4648">country</text><text fill="#000000" font-family="sans-serif" font-size="14" lengthAdjust="spacing" textLength="46" x="240" y="594.4648">France</text><line style="stroke:#000000;stroke-width:1.0;" x1="235" x2="235" y1="578.9297" y2="599.418"/><line style="stroke:#000000;stroke-width:1.0;" x1="71" x2="418" y1="599.418" y2="599.418"/><text fill="#000000" font-family="sans-serif" font-size="14" font-weight="bold" lengthAdjust="spacing" textLength="81" x="76" y="614.9531">postalCode</text><text fill="#000000" font-family="sans-serif" font-size="14" lengthAdjust="spacing" textLength="45" x="240" y="614.9531">75017</text><line style="stroke:#000000;stroke-width:1.0;" x1="235" x2="235" y1="599.418" y2="619.9063"/><line style="stroke:#000000;stroke-width:1.0;" x1="71" x2="418" y1="619.9063" y2="619.9063"/><text fill="#000000" font-family="sans-serif" font-size="14" font-weight="bold" lengthAdjust="spacing" textLength="60" x="76" y="635.4414">territory</text><text fill="#000000" font-family="sans-serif" font-size="14" lengthAdjust="spacing" textLength="38" x="240" y="635.4414">EMEA</text><line style="stroke:#000000;stroke-width:1.0;" x1="235" x2="235" y1="619.9063" y2="640.3945"/><line style="stroke:#000000;stroke-width:1.0;" x1="71" x2="418" y1="640.3945" y2="640.3945"/><text fill="#000000" font-family="sans-serif" font-size="14" font-weight="bold" lengthAdjust="spacing" textLength="154" x="76" y="655.9297">SYS_EXEC_DURATION</text><text fill="#000000" font-family="sans-serif" font-size="14" lengthAdjust="spacing" textLength="67" x="240" y="655.9297">0.226557</text><line style="stroke:#000000;stroke-width:1.0;" x1="235" x2="235" y1="640.3945" y2="660.8828"/><rect fill="none" height="204.8828" rx="5" ry="5" style="stroke:#000000;stroke-width:1.5;" width="347" x="71" y="456"/><rect fill="#F1F1F1" height="204.8828" rx="5" ry="5" style="stroke:#F1F1F1;stroke-width:1.5;" width="296" x="96.5" y="679"/><text fill="#000000" font-family="sans-serif" font-size="14" font-weight="bold" lengthAdjust="spacing" textLength="77" x="101.5" y="694.5352">officeCode</text><text fill="#000000" font-family="sans-serif" font-size="14" lengthAdjust="spacing" textLength="9" x="265.5" y="694.5352">1</text><line style="stroke:#000000;stroke-width:1.0;" x1="260.5" x2="260.5" y1="679" y2="699.4883"/><line style="stroke:#000000;stroke-width:1.0;" x1="96.5" x2="392.5" y1="699.4883" y2="699.4883"/><text fill="#000000" font-family="sans-serif" font-size="14" font-weight="bold" lengthAdjust="spacing" textLength="26" x="101.5" y="715.0234">city</text><text fill="#000000" font-family="sans-serif" font-size="14" lengthAdjust="spacing" textLength="94" x="265.5" y="715.0234">San Francisco</text><line style="stroke:#000000;stroke-width:1.0;" x1="260.5" x2="260.5" y1="699.4883" y2="719.9766"/><line style="stroke:#000000;stroke-width:1.0;" x1="96.5" x2="392.5" y1="719.9766" y2="719.9766"/><text fill="#000000" font-family="sans-serif" font-size="14" font-weight="bold" lengthAdjust="spacing" textLength="44" x="101.5" y="735.5117">phone</text><text fill="#000000" font-family="sans-serif" font-size="14" lengthAdjust="spacing" textLength="122" x="265.5" y="735.5117">+1 650 219 4782</text><line style="stroke:#000000;stroke-width:1.0;" x1="260.5" x2="260.5" y1="719.9766" y2="740.4648"/><line style="stroke:#000000;stroke-width:1.0;" x1="96.5" x2="392.5" y1="740.4648" y2="740.4648"/><text fill="#000000" font-family="sans-serif" font-size="14" font-weight="bold" lengthAdjust="spacing" textLength="95" x="101.5" y="756">addressLine1</text><text fill="#000000" font-family="sans-serif" font-size="14" lengthAdjust="spacing" textLength="122" x="265.5" y="756">100 Market Street</text><line style="stroke:#000000;stroke-width:1.0;" x1="260.5" x2="260.5" y1="740.4648" y2="760.9531"/><line style="stroke:#000000;stroke-width:1.0;" x1="96.5" x2="392.5" y1="760.9531" y2="760.9531"/><text fill="#000000" font-family="sans-serif" font-size="14" font-weight="bold" lengthAdjust="spacing" textLength="95" x="101.5" y="776.4883">addressLine2</text><text fill="#000000" font-family="sans-serif" font-size="14" lengthAdjust="spacing" textLength="65" x="265.5" y="776.4883">Suite 300</text><line style="stroke:#000000;stroke-width:1.0;" x1="260.5" x2="260.5" y1="760.9531" y2="781.4414"/><line style="stroke:#000000;stroke-width:1.0;" x1="96.5" x2="392.5" y1="781.4414" y2="781.4414"/><text fill="#000000" font-family="sans-serif" font-size="14" font-weight="bold" lengthAdjust="spacing" textLength="36" x="101.5" y="796.9766">state</text><text fill="#000000" font-family="sans-serif" font-size="14" lengthAdjust="spacing" textLength="20" x="265.5" y="796.9766">CA</text><line style="stroke:#000000;stroke-width:1.0;" x1="260.5" x2="260.5" y1="781.4414" y2="801.9297"/><line style="stroke:#000000;stroke-width:1.0;" x1="96.5" x2="392.5" y1="801.9297" y2="801.9297"/><text fill="#000000" font-family="sans-serif" font-size="14" font-weight="bold" lengthAdjust="spacing" textLength="54" x="101.5" y="817.4648">country</text><text fill="#000000" font-family="sans-serif" font-size="14" lengthAdjust="spacing" textLength="28" x="265.5" y="817.4648">USA</text><line style="stroke:#000000;stroke-width:1.0;" x1="260.5" x2="260.5" y1="801.9297" y2="822.418"/><line style="stroke:#000000;stroke-width:1.0;" x1="96.5" x2="392.5" y1="822.418" y2="822.418"/><text fill="#000000" font-family="sans-serif" font-size="14" font-weight="bold" lengthAdjust="spacing" textLength="81" x="101.5" y="837.9531">postalCode</text><text fill="#000000" font-family="sans-serif" font-size="14" lengthAdjust="spacing" textLength="45" x="265.5" y="837.9531">94080</text><line style="stroke:#000000;stroke-width:1.0;" x1="260.5" x2="260.5" y1="822.418" y2="842.9063"/><line style="stroke:#000000;stroke-width:1.0;" x1="96.5" x2="392.5" y1="842.9063" y2="842.9063"/><text fill="#000000" font-family="sans-serif" font-size="14" font-weight="bold" lengthAdjust="spacing" textLength="60" x="101.5" y="858.4414">territory</text><text fill="#000000" font-family="sans-serif" font-size="14" lengthAdjust="spacing" textLength="20" x="265.5" y="858.4414">NA</text><line style="stroke:#000000;stroke-width:1.0;" x1="260.5" x2="260.5" y1="842.9063" y2="863.3945"/><line style="stroke:#000000;stroke-width:1.0;" x1="96.5" x2="392.5" y1="863.3945" y2="863.3945"/><text fill="#000000" font-family="sans-serif" font-size="14" font-weight="bold" lengthAdjust="spacing" textLength="154" x="101.5" y="878.9297">SYS_EXEC_DURATION</text><text fill="#000000" font-family="sans-serif" font-size="14" lengthAdjust="spacing" textLength="67" x="265.5" y="878.9297">0.226793</text><line style="stroke:#000000;stroke-width:1.0;" x1="260.5" x2="260.5" y1="863.3945" y2="883.8828"/><rect fill="none" height="204.8828" rx="5" ry="5" style="stroke:#000000;stroke-width:1.5;" width="296" x="96.5" y="679"/><rect fill="#F1F1F1" height="204.8828" rx="5" ry="5" style="stroke:#F1F1F1;stroke-width:1.5;" width="296" x="96.5" y="902"/><text fill="#000000" font-family="sans-serif" font-size="14" font-weight="bold" lengthAdjust="spacing" textLength="77" x="101.5" y="917.5352">officeCode</text><text fill="#000000" font-family="sans-serif" font-size="14" lengthAdjust="spacing" textLength="9" x="265.5" y="917.5352">2</text><line style="stroke:#000000;stroke-width:1.0;" x1="260.5" x2="260.5" y1="902" y2="922.4883"/><line style="stroke:#000000;stroke-width:1.0;" x1="96.5" x2="392.5" y1="922.4883" y2="922.4883"/><text fill="#000000" font-family="sans-serif" font-size="14" font-weight="bold" lengthAdjust="spacing" textLength="26" x="101.5" y="938.0234">city</text><text fill="#000000" font-family="sans-serif" font-size="14" lengthAdjust="spacing" textLength="47" x="265.5" y="938.0234">Boston</text><line style="stroke:#000000;stroke-width:1.0;" x1="260.5" x2="260.5" y1="922.4883" y2="942.9766"/><line style="stroke:#000000;stroke-width:1.0;" x1="96.5" x2="392.5" y1="942.9766" y2="942.9766"/><text fill="#000000" font-family="sans-serif" font-size="14" font-weight="bold" lengthAdjust="spacing" textLength="44" x="101.5" y="958.5117">phone</text><text fill="#000000" font-family="sans-serif" font-size="14" lengthAdjust="spacing" textLength="122" x="265.5" y="958.5117">+1 215 837 0825</text><line style="stroke:#000000;stroke-width:1.0;" x1="260.5" x2="260.5" y1="942.9766" y2="963.4648"/><line style="stroke:#000000;stroke-width:1.0;" x1="96.5" x2="392.5" y1="963.4648" y2="963.4648"/><text fill="#000000" font-family="sans-serif" font-size="14" font-weight="bold" lengthAdjust="spacing" textLength="95" x="101.5" y="979">addressLine1</text><text fill="#000000" font-family="sans-serif" font-size="14" lengthAdjust="spacing" textLength="118" x="265.5" y="979">1550 Court Place</text><line style="stroke:#000000;stroke-width:1.0;" x1="260.5" x2="260.5" y1="963.4648" y2="983.9531"/><line style="stroke:#000000;stroke-width:1.0;" x1="96.5" x2="392.5" y1="983.9531" y2="983.9531"/><text fill="#000000" font-family="sans-serif" font-size="14" font-weight="bold" lengthAdjust="spacing" textLength="95" x="101.5" y="999.4883">addressLine2</text><text fill="#000000" font-family="sans-serif" font-size="14" lengthAdjust="spacing" textLength="65" x="265.5" y="999.4883">Suite 102</text><line style="stroke:#000000;stroke-width:1.0;" x1="260.5" x2="260.5" y1="983.9531" y2="1004.4414"/><line style="stroke:#000000;stroke-width:1.0;" x1="96.5" x2="392.5" y1="1004.4414" y2="1004.4414"/><text fill="#000000" font-family="sans-serif" font-size="14" font-weight="bold" lengthAdjust="spacing" textLength="36" x="101.5" y="1019.9766">state</text><text fill="#000000" font-family="sans-serif" font-size="14" lengthAdjust="spacing" textLength="22" x="265.5" y="1019.9766">MA</text><line style="stroke:#000000;stroke-width:1.0;" x1="260.5" x2="260.5" y1="1004.4414" y2="1024.9297"/><line style="stroke:#000000;stroke-width:1.0;" x1="96.5" x2="392.5" y1="1024.9297" y2="1024.9297"/><text fill="#000000" font-family="sans-serif" font-size="14" font-weight="bold" lengthAdjust="spacing" textLength="54" x="101.5" y="1040.4648">country</text><text fill="#000000" font-family="sans-serif" font-size="14" lengthAdjust="spacing" textLength="28" x="265.5" y="1040.4648">USA</text><line style="stroke:#000000;stroke-width:1.0;" x1="260.5" x2="260.5" y1="1024.9297" y2="1045.418"/><line style="stroke:#000000;stroke-width:1.0;" x1="96.5" x2="392.5" y1="1045.418" y2="1045.418"/><text fill="#000000" font-family="sans-serif" font-size="14" font-weight="bold" lengthAdjust="spacing" textLength="81" x="101.5" y="1060.9531">postalCode</text><text fill="#000000" font-family="sans-serif" font-size="14" lengthAdjust="spacing" textLength="45" x="265.5" y="1060.9531">02107</text><line style="stroke:#000000;stroke-width:1.0;" x1="260.5" x2="260.5" y1="1045.418" y2="1065.9063"/><line style="stroke:#000000;stroke-width:1.0;" x1="96.5" x2="392.5" y1="1065.9063" y2="1065.9063"/><text fill="#000000" font-family="sans-serif" font-size="14" font-weight="bold" lengthAdjust="spacing" textLength="60" x="101.5" y="1081.4414">territory</text><text fill="#000000" font-family="sans-serif" font-size="14" lengthAdjust="spacing" textLength="20" x="265.5" y="1081.4414">NA</text><line style="stroke:#000000;stroke-width:1.0;" x1="260.5" x2="260.5" y1="1065.9063" y2="1086.3945"/><line style="stroke:#000000;stroke-width:1.0;" x1="96.5" x2="392.5" y1="1086.3945" y2="1086.3945"/><text fill="#000000" font-family="sans-serif" font-size="14" font-weight="bold" lengthAdjust="spacing" textLength="154" x="101.5" y="1101.9297">SYS_EXEC_DURATION</text><text fill="#000000" font-family="sans-serif" font-size="14" lengthAdjust="spacing" textLength="67" x="265.5" y="1101.9297">0.227001</text><line style="stroke:#000000;stroke-width:1.0;" x1="260.5" x2="260.5" y1="1086.3945" y2="1106.8828"/><rect fill="none" height="204.8828" rx="5" ry="5" style="stroke:#000000;stroke-width:1.5;" width="296" x="96.5" y="902"/><rect fill="#F1F1F1" height="204.8828" rx="5" ry="5" style="stroke:#F1F1F1;stroke-width:1.5;" width="296" x="96.5" y="1125"/><text fill="#000000" font-family="sans-serif" font-size="14" font-weight="bold" lengthAdjust="spacing" textLength="77" x="101.5" y="1140.5352">officeCode</text><text fill="#000000" font-family="sans-serif" font-size="14" lengthAdjust="spacing" textLength="9" x="265.5" y="1140.5352">5</text><line style="stroke:#000000;stroke-width:1.0;" x1="260.5" x2="260.5" y1="1125" y2="1145.4883"/><line style="stroke:#000000;stroke-width:1.0;" x1="96.5" x2="392.5" y1="1145.4883" y2="1145.4883"/><text fill="#000000" font-family="sans-serif" font-size="14" font-weight="bold" lengthAdjust="spacing" textLength="26" x="101.5" y="1161.0234">city</text><text fill="#000000" font-family="sans-serif" font-size="14" lengthAdjust="spacing" textLength="42" x="265.5" y="1161.0234">Tokyo</text><line style="stroke:#000000;stroke-width:1.0;" x1="260.5" x2="260.5" y1="1145.4883" y2="1165.9766"/><line style="stroke:#000000;stroke-width:1.0;" x1="96.5" x2="392.5" y1="1165.9766" y2="1165.9766"/><text fill="#000000" font-family="sans-serif" font-size="14" font-weight="bold" lengthAdjust="spacing" textLength="44" x="101.5" y="1181.5117">phone</text><text fill="#000000" font-family="sans-serif" font-size="14" lengthAdjust="spacing" textLength="122" x="265.5" y="1181.5117">+81 33 224 5000</text><line style="stroke:#000000;stroke-width:1.0;" x1="260.5" x2="260.5" y1="1165.9766" y2="1186.4648"/><line style="stroke:#000000;stroke-width:1.0;" x1="96.5" x2="392.5" y1="1186.4648" y2="1186.4648"/><text fill="#000000" font-family="sans-serif" font-size="14" font-weight="bold" lengthAdjust="spacing" textLength="95" x="101.5" y="1202">addressLine1</text><text fill="#000000" font-family="sans-serif" font-size="14" lengthAdjust="spacing" textLength="81" x="265.5" y="1202">4-1 Kioicho</text><line style="stroke:#000000;stroke-width:1.0;" x1="260.5" x2="260.5" y1="1186.4648" y2="1206.9531"/><line style="stroke:#000000;stroke-width:1.0;" x1="96.5" x2="392.5" y1="1206.9531" y2="1206.9531"/><text fill="#000000" font-family="sans-serif" font-size="14" font-weight="bold" lengthAdjust="spacing" textLength="95" x="101.5" y="1222.4883">addressLine2</text><text fill="#000000" font-family="sans-serif" font-size="14" lengthAdjust="spacing" textLength="14" x="265.5" y="1222.4883">␀</text><line style="stroke:#000000;stroke-width:1.0;" x1="260.5" x2="260.5" y1="1206.9531" y2="1227.4414"/><line style="stroke:#000000;stroke-width:1.0;" x1="96.5" x2="392.5" y1="1227.4414" y2="1227.4414"/><text fill="#000000" font-family="sans-serif" font-size="14" font-weight="bold" lengthAdjust="spacing" textLength="36" x="101.5" y="1242.9766">state</text><text fill="#000000" font-family="sans-serif" font-size="14" lengthAdjust="spacing" textLength="82" x="265.5" y="1242.9766">Chiyoda-Ku</text><line style="stroke:#000000;stroke-width:1.0;" x1="260.5" x2="260.5" y1="1227.4414" y2="1247.9297"/><line style="stroke:#000000;stroke-width:1.0;" x1="96.5" x2="392.5" y1="1247.9297" y2="1247.9297"/><text fill="#000000" font-family="sans-serif" font-size="14" font-weight="bold" lengthAdjust="spacing" textLength="54" x="101.5" y="1263.4648">country</text><text fill="#000000" font-family="sans-serif" font-size="14" lengthAdjust="spacing" textLength="38" x="265.5" y="1263.4648">Japan</text><line style="stroke:#000000;stroke-width:1.0;" x1="260.5" x2="260.5" y1="1247.9297" y2="1268.418"/><line style="stroke:#000000;stroke-width:1.0;" x1="96.5" x2="392.5" y1="1268.418" y2="1268.418"/><text fill="#000000" font-family="sans-serif" font-size="14" font-weight="bold" lengthAdjust="spacing" textLength="81" x="101.5" y="1283.9531">postalCode</text><text fill="#000000" font-family="sans-serif" font-size="14" lengthAdjust="spacing" textLength="71" x="265.5" y="1283.9531">102-8578</text><line style="stroke:#000000;stroke-width:1.0;" x1="260.5" x2="260.5" y1="1268.418" y2="1288.9063"/><line style="stroke:#000000;stroke-width:1.0;" x1="96.5" x2="392.5" y1="1288.9063" y2="1288.9063"/><text fill="#000000" font-family="sans-serif" font-size="14" font-weight="bold" lengthAdjust="spacing" textLength="60" x="101.5" y="1304.4414">territory</text><text fill="#000000" font-family="sans-serif" font-size="14" lengthAdjust="spacing" textLength="38" x="265.5" y="1304.4414">Japan</text><line style="stroke:#000000;stroke-width:1.0;" x1="260.5" x2="260.5" y1="1288.9063" y2="1309.3945"/><line style="stroke:#000000;stroke-width:1.0;" x1="96.5" x2="392.5" y1="1309.3945" y2="1309.3945"/><text fill="#000000" font-family="sans-serif" font-size="14" font-weight="bold" lengthAdjust="spacing" textLength="154" x="101.5" y="1324.9297">SYS_EXEC_DURATION</text><text fill="#000000" font-family="sans-serif" font-size="14" lengthAdjust="spacing" textLength="67" x="265.5" y="1324.9297">0.227204</text><line style="stroke:#000000;stroke-width:1.0;" x1="260.5" x2="260.5" y1="1309.3945" y2="1329.8828"/><rect fill="none" height="204.8828" rx="5" ry="5" style="stroke:#000000;stroke-width:1.5;" width="296" x="96.5" y="1125"/><rect fill="#F1F1F1" height="204.8828" rx="5" ry="5" style="stroke:#F1F1F1;stroke-width:1.5;" width="314" x="87.5" y="1348"/><text fill="#000000" font-family="sans-serif" font-size="14" font-weight="bold" lengthAdjust="spacing" textLength="77" x="92.5" y="1363.5352">officeCode</text><text fill="#000000" font-family="sans-serif" font-size="14" lengthAdjust="spacing" textLength="9" x="256.5" y="1363.5352">3</text><line style="stroke:#000000;stroke-width:1.0;" x1="251.5" x2="251.5" y1="1348" y2="1368.4883"/><line style="stroke:#000000;stroke-width:1.0;" x1="87.5" x2="401.5" y1="1368.4883" y2="1368.4883"/><text fill="#000000" font-family="sans-serif" font-size="14" font-weight="bold" lengthAdjust="spacing" textLength="26" x="92.5" y="1384.0234">city</text><text fill="#000000" font-family="sans-serif" font-size="14" lengthAdjust="spacing" textLength="29" x="256.5" y="1384.0234">NYC</text><line style="stroke:#000000;stroke-width:1.0;" x1="251.5" x2="251.5" y1="1368.4883" y2="1388.9766"/><line style="stroke:#000000;stroke-width:1.0;" x1="87.5" x2="401.5" y1="1388.9766" y2="1388.9766"/><text fill="#000000" font-family="sans-serif" font-size="14" font-weight="bold" lengthAdjust="spacing" textLength="44" x="92.5" y="1404.5117">phone</text><text fill="#000000" font-family="sans-serif" font-size="14" lengthAdjust="spacing" textLength="122" x="256.5" y="1404.5117">+1 212 555 3000</text><line style="stroke:#000000;stroke-width:1.0;" x1="251.5" x2="251.5" y1="1388.9766" y2="1409.4648"/><line style="stroke:#000000;stroke-width:1.0;" x1="87.5" x2="401.5" y1="1409.4648" y2="1409.4648"/><text fill="#000000" font-family="sans-serif" font-size="14" font-weight="bold" lengthAdjust="spacing" textLength="95" x="92.5" y="1425">addressLine1</text><text fill="#000000" font-family="sans-serif" font-size="14" lengthAdjust="spacing" textLength="140" x="256.5" y="1425">523 East 53rd Street</text><line style="stroke:#000000;stroke-width:1.0;" x1="251.5" x2="251.5" y1="1409.4648" y2="1429.9531"/><line style="stroke:#000000;stroke-width:1.0;" x1="87.5" x2="401.5" y1="1429.9531" y2="1429.9531"/><text fill="#000000" font-family="sans-serif" font-size="14" font-weight="bold" lengthAdjust="spacing" textLength="95" x="92.5" y="1445.4883">addressLine2</text><text fill="#000000" font-family="sans-serif" font-size="14" lengthAdjust="spacing" textLength="49" x="256.5" y="1445.4883">apt. 5A</text><line style="stroke:#000000;stroke-width:1.0;" x1="251.5" x2="251.5" y1="1429.9531" y2="1450.4414"/><line style="stroke:#000000;stroke-width:1.0;" x1="87.5" x2="401.5" y1="1450.4414" y2="1450.4414"/><text fill="#000000" font-family="sans-serif" font-size="14" font-weight="bold" lengthAdjust="spacing" textLength="36" x="92.5" y="1465.9766">state</text><text fill="#000000" font-family="sans-serif" font-size="14" lengthAdjust="spacing" textLength="19" x="256.5" y="1465.9766">NY</text><line style="stroke:#000000;stroke-width:1.0;" x1="251.5" x2="251.5" y1="1450.4414" y2="1470.9297"/><line style="stroke:#000000;stroke-width:1.0;" x1="87.5" x2="401.5" y1="1470.9297" y2="1470.9297"/><text fill="#000000" font-family="sans-serif" font-size="14" font-weight="bold" lengthAdjust="spacing" textLength="54" x="92.5" y="1486.4648">country</text><text fill="#000000" font-family="sans-serif" font-size="14" lengthAdjust="spacing" textLength="28" x="256.5" y="1486.4648">USA</text><line style="stroke:#000000;stroke-width:1.0;" x1="251.5" x2="251.5" y1="1470.9297" y2="1491.418"/><line style="stroke:#000000;stroke-width:1.0;" x1="87.5" x2="401.5" y1="1491.418" y2="1491.418"/><text fill="#000000" font-family="sans-serif" font-size="14" font-weight="bold" lengthAdjust="spacing" textLength="81" x="92.5" y="1506.9531">postalCode</text><text fill="#000000" font-family="sans-serif" font-size="14" lengthAdjust="spacing" textLength="45" x="256.5" y="1506.9531">10022</text><line style="stroke:#000000;stroke-width:1.0;" x1="251.5" x2="251.5" y1="1491.418" y2="1511.9063"/><line style="stroke:#000000;stroke-width:1.0;" x1="87.5" x2="401.5" y1="1511.9063" y2="1511.9063"/><text fill="#000000" font-family="sans-serif" font-size="14" font-weight="bold" lengthAdjust="spacing" textLength="60" x="92.5" y="1527.4414">territory</text><text fill="#000000" font-family="sans-serif" font-size="14" lengthAdjust="spacing" textLength="20" x="256.5" y="1527.4414">NA</text><line style="stroke:#000000;stroke-width:1.0;" x1="251.5" x2="251.5" y1="1511.9063" y2="1532.3945"/><line style="stroke:#000000;stroke-width:1.0;" x1="87.5" x2="401.5" y1="1532.3945" y2="1532.3945"/><text fill="#000000" font-family="sans-serif" font-size="14" font-weight="bold" lengthAdjust="spacing" textLength="154" x="92.5" y="1547.9297">SYS_EXEC_DURATION</text><text fill="#000000" font-family="sans-serif" font-size="14" lengthAdjust="spacing" textLength="67" x="256.5" y="1547.9297">0.227414</text><line style="stroke:#000000;stroke-width:1.0;" x1="251.5" x2="251.5" y1="1532.3945" y2="1552.8828"/><rect fill="none" height="204.8828" rx="5" ry="5" style="stroke:#000000;stroke-width:1.5;" width="314" x="87.5" y="1348"/><path d="M22.5,722.5 L22.5,709.5 C22.5,655.2318 42.6393,269.7678 71,223.5 C71.4429,222.7774 71.8925,222.0587 72.3486,221.3438 " fill="none" style="stroke:#000000;stroke-width:1.0;stroke-dasharray:3.0,3.0;"/><path d="M74.8808,223.0543 L73.6315,219.4447 L69.8164,219.6333 L76.6249,215.0134 L74.8808,223.0543 " fill="#000000" style="stroke:#000000;stroke-width:1.0;"/><ellipse cx="22.5" cy="722.5" fill="#000000" rx="3" ry="3" style="stroke:#000000;stroke-width:1.0;"/><path d="M22,740.5 L35,740.5 C100.8213,740.5 35.9759,502.2293 71,446.5 C75.3614,439.5602 80.3329,432.9722 85.7698,426.7287 " fill="none" style="stroke:#000000;stroke-width:1.0;stroke-dasharray:3.0,3.0;"/><path d="M88.0246,428.7766 L87.3057,425.0375 L83.5149,424.6808 L90.8895,421.0914 L88.0246,428.7766 " fill="#000000" style="stroke:#000000;stroke-width:1.0;"/><ellipse cx="22" cy="740.5" fill="#000000" rx="3" ry="3" style="stroke:#000000;stroke-width:1.0;"/><path d="M22,761.5 L35,761.5 C78.9079,761.5 43.1642,703.4569 71,669.5 C71.6363,668.7238 72.2794,667.9513 72.9293,667.1824 " fill="none" style="stroke:#000000;stroke-width:1.0;stroke-dasharray:3.0,3.0;"/><path d="M75.2583,669.226 L74.462,665.4357 L70.6003,665.1388 L78.0384,661.3599 L75.2583,669.226 " fill="#000000" style="stroke:#000000;stroke-width:1.0;"/><ellipse cx="22" cy="761.5" fill="#000000" rx="3" ry="3" style="stroke:#000000;stroke-width:1.0;"/><path d="M22,781.5 L35,781.5 C52.5414,781.5 70.9109,781.5 89.1703,781.5 " fill="none" style="stroke:#000000;stroke-width:1.0;stroke-dasharray:3.0,3.0;"/><path d="M89.1703,784.6264 L91.5151,781.5 L89.1703,778.3736 L96.9862,781.5 L89.1703,784.6264 " fill="#000000" style="stroke:#000000;stroke-width:1.0;"/><ellipse cx="22" cy="781.5" fill="#000000" rx="3" ry="3" style="stroke:#000000;stroke-width:1.0;"/><path d="M22,802.5 L35,802.5 C78.4943,802.5 43.3638,859.9144 71,893.5 C77.1434,900.9659 83.9241,908.0948 91.1386,914.8744 " fill="none" style="stroke:#000000;stroke-width:1.0;stroke-dasharray:3.0,3.0;"/><path d="M89.0921,917.1136 L92.818,916.4092 L93.185,912.6352 L96.7367,919.9905 L89.0921,917.1136 " fill="#000000" style="stroke:#000000;stroke-width:1.0;"/><ellipse cx="22" cy="802.5" fill="#000000" rx="3" ry="3" style="stroke:#000000;stroke-width:1.0;"/><path d="M22,823.5 L35,823.5 C100.6007,823.5 36.0818,1060.9646 71,1116.5 C76.7875,1125.7046 83.6479,1134.2906 91.2439,1142.2747 " fill="none" style="stroke:#000000;stroke-width:1.0;stroke-dasharray:3.0,3.0;"/><path d="M89.0713,1144.4236 L92.8556,1143.9042 L93.4166,1140.1259 L96.6161,1147.7063 L89.0713,1144.4236 " fill="#000000" style="stroke:#000000;stroke-width:1.0;"/><ellipse cx="22" cy="823.5" fill="#000000" rx="3" ry="3" style="stroke:#000000;stroke-width:1.0;"/><path d="M22.5,842.5 L22.5,855.5 C22.5,909.5471 42.7455,1293.4265 71,1339.5 C74.4862,1345.1849 78.3854,1350.6313 82.6185,1355.8437 " fill="none" style="stroke:#000000;stroke-width:1.0;stroke-dasharray:3.0,3.0;"/><path d="M80.2138,1357.8909 L84.154,1357.6472 L85.0232,1353.7965 L87.7366,1361.8555 L80.2138,1357.8909 " fill="#000000" style="stroke:#000000;stroke-width:1.0;"/><ellipse cx="22.5" cy="842.5" fill="#000000" rx="3" ry="3" style="stroke:#000000;stroke-width:1.0;"/><!--MD5=[6de55cf6e56fddb983aaafe2f7bb54d2]
@startjson
[
    {
        "officeCode": "6",
        "city": "Sydney",
        "phone": "+61 2 9264 2451",
        "addressLine1": "5-11 Wentworth Avenue",
        "addressLine2": "Floor #2",
        "state": null,
        "country": "Australia",
        "postalCode": "NSW 2010",
        "territory": "APAC",
        "SYS_EXEC_DURATION": "0.226115"
    },
    {
        "officeCode": "7",
        "city": "London",
        "phone": "+44 20 7877 2041",
        "addressLine1": "25 Old Broad Street",
        "addressLine2": "Level 7",
        "state": null,
        "country": "UK",
        "postalCode": "EC2N 1HN",
        "territory": "EMEA",
        "SYS_EXEC_DURATION": "0.226378"
    },
    {
        "officeCode": "4",
        "city": "Paris",
        "phone": "+33 14 723 4404",
        "addressLine1": "43 Rue Jouffroy D'abbans",
        "addressLine2": null,
        "state": null,
        "country": "France",
        "postalCode": "75017",
        "territory": "EMEA",
        "SYS_EXEC_DURATION": "0.226557"
    },
    {
        "officeCode": "1",
        "city": "San Francisco",
        "phone": "+1 650 219 4782",
        "addressLine1": "100 Market Street",
        "addressLine2": "Suite 300",
        "state": "CA",
        "country": "USA",
        "postalCode": "94080",
        "territory": "NA",
        "SYS_EXEC_DURATION": "0.226793"
    },
    {
        "officeCode": "2",
        "city": "Boston",
        "phone": "+1 215 837 0825",
        "addressLine1": "1550 Court Place",
        "addressLine2": "Suite 102",
        "state": "MA",
        "country": "USA",
        "postalCode": "02107",
        "territory": "NA",
        "SYS_EXEC_DURATION": "0.227001"
    },
    {
        "officeCode": "5",
        "city": "Tokyo",
        "phone": "+81 33 224 5000",
        "addressLine1": "4-1 Kioicho",
        "addressLine2": null,
        "state": "Chiyoda-Ku",
        "country": "Japan",
        "postalCode": "102-8578",
        "territory": "Japan",
        "SYS_EXEC_DURATION": "0.227204"
    },
    {
        "officeCode": "3",
        "city": "NYC",
        "phone": "+1 212 555 3000",
        "addressLine1": "523 East 53rd Street",
        "addressLine2": "apt. 5A",
        "state": "NY",
        "country": "USA",
        "postalCode": "10022",
        "territory": "NA",
        "SYS_EXEC_DURATION": "0.227414"
    }
]
@endjson

PlantUML version 1.2022.5(Sat Apr 30 06:55:52 EDT 2022)
(GPL source distribution)
Java Runtime: OpenJDK Runtime Environment
JVM: OpenJDK 64-Bit Server VM
Default Encoding: UTF-8
Language: en
Country: CA
--></g></svg>