<?xml version="1.0" encoding="UTF-8" standalone="no"?><svg xmlns="http://www.w3.org/2000/svg" xmlns:xlink="http://www.w3.org/1999/xlink" contentStyleType="text/css" height="794px" preserveAspectRatio="none" style="width:808px;height:794px;background:#FFFFFF;" version="1.1" viewBox="0 0 808 794" width="808px" zoomAndPan="magnify"><defs/><g><rect fill="#F1F1F1" height="81.9531" rx="5" ry="5" style="stroke:#F1F1F1;stroke-width:1.5;" width="181" x="10" y="264.5"/><text fill="#000000" font-family="sans-serif" font-size="14" font-weight="bold" lengthAdjust="spacing" textLength="42" x="15" y="280.0352">field1</text><text fill="#000000" font-family="sans-serif" font-size="14" lengthAdjust="spacing" textLength="37" x="149" y="280.0352">email</text><line style="stroke:#000000;stroke-width:1.0;" x1="144" x2="144" y1="264.5" y2="284.9883"/><line style="stroke:#000000;stroke-width:1.0;" x1="10" x2="191" y1="284.9883" y2="284.9883"/><text fill="#000000" font-family="sans-serif" font-size="14" font-weight="bold" lengthAdjust="spacing" textLength="90" x="15" y="300.5234">combination</text><text fill="#000000" font-family="sans-serif" font-size="14" lengthAdjust="spacing" textLength="37" x="149" y="300.5234">email</text><line style="stroke:#000000;stroke-width:1.0;" x1="144" x2="144" y1="284.9883" y2="305.4766"/><line style="stroke:#000000;stroke-width:1.0;" x1="10" x2="191" y1="305.4766" y2="305.4766"/><text fill="#000000" font-family="sans-serif" font-size="14" font-weight="bold" lengthAdjust="spacing" textLength="121" x="15" y="321.0117">null_distribution</text><text fill="#000000" font-family="sans-serif" font-size="14" lengthAdjust="spacing" textLength="12" x="149" y="321.0117">   </text><line style="stroke:#000000;stroke-width:1.0;" x1="144" x2="144" y1="305.4766" y2="325.9648"/><line style="stroke:#000000;stroke-width:1.0;" x1="10" x2="191" y1="325.9648" y2="325.9648"/><text fill="#000000" font-family="sans-serif" font-size="14" font-weight="bold" lengthAdjust="spacing" textLength="124" x="15" y="341.5">data_distribution</text><text fill="#000000" font-family="sans-serif" font-size="14" lengthAdjust="spacing" textLength="12" x="149" y="341.5">   </text><line style="stroke:#000000;stroke-width:1.0;" x1="144" x2="144" y1="325.9648" y2="346.4531"/><rect fill="none" height="81.9531" rx="5" ry="5" style="stroke:#000000;stroke-width:1.5;" width="181" x="10" y="264.5"/><rect fill="#F1F1F1" height="40.9766" rx="5" ry="5" style="stroke:#F1F1F1;stroke-width:1.5;" width="180" x="228" y="235"/><text fill="#000000" font-family="sans-serif" font-size="14" font-weight="bold" lengthAdjust="spacing" textLength="111" x="233" y="250.5352">total_null_rows</text><text fill="#000000" font-family="sans-serif" font-size="14" lengthAdjust="spacing" textLength="9" x="385" y="250.5352">0</text><line style="stroke:#000000;stroke-width:1.0;" x1="380" x2="380" y1="235" y2="255.4883"/><line style="stroke:#000000;stroke-width:1.0;" x1="228" x2="408" y1="255.4883" y2="255.4883"/><text fill="#000000" font-family="sans-serif" font-size="14" font-weight="bold" lengthAdjust="spacing" textLength="142" x="233" y="271.0234">total_not_null_rows</text><text fill="#000000" font-family="sans-serif" font-size="14" lengthAdjust="spacing" textLength="18" x="385" y="271.0234">23</text><line style="stroke:#000000;stroke-width:1.0;" x1="380" x2="380" y1="255.4883" y2="275.9766"/><rect fill="none" height="40.9766" rx="5" ry="5" style="stroke:#000000;stroke-width:1.5;" width="180" x="228" y="235"/><rect fill="#F1F1F1" height="204.8828" rx="5" ry="5" style="stroke:#F1F1F1;stroke-width:1.5;" width="22" x="306" y="294"/><text fill="#000000" font-family="sans-serif" font-size="14" lengthAdjust="spacing" textLength="12" x="311" y="309.5352">   </text><line style="stroke:#000000;stroke-width:1.0;" x1="306" x2="328" y1="314.4883" y2="314.4883"/><text fill="#000000" font-family="sans-serif" font-size="14" lengthAdjust="spacing" textLength="12" x="311" y="330.0234">   </text><line style="stroke:#000000;stroke-width:1.0;" x1="306" x2="328" y1="334.9766" y2="334.9766"/><text fill="#000000" font-family="sans-serif" font-size="14" lengthAdjust="spacing" textLength="12" x="311" y="350.5117">   </text><line style="stroke:#000000;stroke-width:1.0;" x1="306" x2="328" y1="355.4648" y2="355.4648"/><text fill="#000000" font-family="sans-serif" font-size="14" lengthAdjust="spacing" textLength="12" x="311" y="371">   </text><line style="stroke:#000000;stroke-width:1.0;" x1="306" x2="328" y1="375.9531" y2="375.9531"/><text fill="#000000" font-family="sans-serif" font-size="14" lengthAdjust="spacing" textLength="12" x="311" y="391.4883">   </text><line style="stroke:#000000;stroke-width:1.0;" x1="306" x2="328" y1="396.4414" y2="396.4414"/><text fill="#000000" font-family="sans-serif" font-size="14" lengthAdjust="spacing" textLength="12" x="311" y="411.9766">   </text><line style="stroke:#000000;stroke-width:1.0;" x1="306" x2="328" y1="416.9297" y2="416.9297"/><text fill="#000000" font-family="sans-serif" font-size="14" lengthAdjust="spacing" textLength="12" x="311" y="432.4648">   </text><line style="stroke:#000000;stroke-width:1.0;" x1="306" x2="328" y1="437.418" y2="437.418"/><text fill="#000000" font-family="sans-serif" font-size="14" lengthAdjust="spacing" textLength="12" x="311" y="452.9531">   </text><line style="stroke:#000000;stroke-width:1.0;" x1="306" x2="328" y1="457.9063" y2="457.9063"/><text fill="#000000" font-family="sans-serif" font-size="14" lengthAdjust="spacing" textLength="12" x="311" y="473.4414">   </text><line style="stroke:#000000;stroke-width:1.0;" x1="306" x2="328" y1="478.3945" y2="478.3945"/><text fill="#000000" font-family="sans-serif" font-size="14" lengthAdjust="spacing" textLength="12" x="311" y="493.9297">   </text><rect fill="none" height="204.8828" rx="5" ry="5" style="stroke:#000000;stroke-width:1.5;" width="22" x="306" y="294"/><rect fill="#F1F1F1" height="61.4648" rx="5" ry="5" style="stroke:#F1F1F1;stroke-width:1.5;" width="319" x="461" y="10"/><text fill="#000000" font-family="sans-serif" font-size="14" font-weight="bold" lengthAdjust="spacing" textLength="78" x="466" y="25.5352">field_value</text><text fill="#000000" font-family="sans-serif" font-size="14" lengthAdjust="spacing" textLength="205" x="570" y="25.5352">jfirrelli@classicmodelcars.com</text><line style="stroke:#000000;stroke-width:1.0;" x1="565" x2="565" y1="10" y2="30.4883"/><line style="stroke:#000000;stroke-width:1.0;" x1="461" x2="780" y1="30.4883" y2="30.4883"/><text fill="#000000" font-family="sans-serif" font-size="14" font-weight="bold" lengthAdjust="spacing" textLength="74" x="466" y="46.0234">row_count</text><text fill="#000000" font-family="sans-serif" font-size="14" lengthAdjust="spacing" textLength="9" x="570" y="46.0234">2</text><line style="stroke:#000000;stroke-width:1.0;" x1="565" x2="565" y1="30.4883" y2="50.9766"/><line style="stroke:#000000;stroke-width:1.0;" x1="461" x2="780" y1="50.9766" y2="50.9766"/><text fill="#000000" font-family="sans-serif" font-size="14" font-weight="bold" lengthAdjust="spacing" textLength="94" x="466" y="66.5117">ratio_percent</text><text fill="#000000" font-family="sans-serif" font-size="14" lengthAdjust="spacing" textLength="148" x="570" y="66.5117">8.695652173913043</text><line style="stroke:#000000;stroke-width:1.0;" x1="565" x2="565" y1="50.9766" y2="71.4648"/><rect fill="none" height="61.4648" rx="5" ry="5" style="stroke:#000000;stroke-width:1.5;" width="319" x="461" y="10"/><rect fill="#F1F1F1" height="61.4648" rx="5" ry="5" style="stroke:#F1F1F1;stroke-width:1.5;" width="334" x="453.5" y="89"/><text fill="#000000" font-family="sans-serif" font-size="14" font-weight="bold" lengthAdjust="spacing" textLength="78" x="458.5" y="104.5352">field_value</text><text fill="#000000" font-family="sans-serif" font-size="14" lengthAdjust="spacing" textLength="220" x="562.5" y="104.5352">gbondur@classicmodelcars.com</text><line style="stroke:#000000;stroke-width:1.0;" x1="557.5" x2="557.5" y1="89" y2="109.4883"/><line style="stroke:#000000;stroke-width:1.0;" x1="453.5" x2="787.5" y1="109.4883" y2="109.4883"/><text fill="#000000" font-family="sans-serif" font-size="14" font-weight="bold" lengthAdjust="spacing" textLength="74" x="458.5" y="125.0234">row_count</text><text fill="#000000" font-family="sans-serif" font-size="14" lengthAdjust="spacing" textLength="9" x="562.5" y="125.0234">1</text><line style="stroke:#000000;stroke-width:1.0;" x1="557.5" x2="557.5" y1="109.4883" y2="129.9766"/><line style="stroke:#000000;stroke-width:1.0;" x1="453.5" x2="787.5" y1="129.9766" y2="129.9766"/><text fill="#000000" font-family="sans-serif" font-size="14" font-weight="bold" lengthAdjust="spacing" textLength="94" x="458.5" y="145.5117">ratio_percent</text><text fill="#000000" font-family="sans-serif" font-size="14" lengthAdjust="spacing" textLength="157" x="562.5" y="145.5117">4.3478260869565215</text><line style="stroke:#000000;stroke-width:1.0;" x1="557.5" x2="557.5" y1="129.9766" y2="150.4648"/><rect fill="none" height="61.4648" rx="5" ry="5" style="stroke:#000000;stroke-width:1.5;" width="334" x="453.5" y="89"/><rect fill="#F1F1F1" height="61.4648" rx="5" ry="5" style="stroke:#F1F1F1;stroke-width:1.5;" width="349" x="446" y="168"/><text fill="#000000" font-family="sans-serif" font-size="14" font-weight="bold" lengthAdjust="spacing" textLength="78" x="451" y="183.5352">field_value</text><text fill="#000000" font-family="sans-serif" font-size="14" lengthAdjust="spacing" textLength="235" x="555" y="183.5352">ghernande@classicmodelcars.com</text><line style="stroke:#000000;stroke-width:1.0;" x1="550" x2="550" y1="168" y2="188.4883"/><line style="stroke:#000000;stroke-width:1.0;" x1="446" x2="795" y1="188.4883" y2="188.4883"/><text fill="#000000" font-family="sans-serif" font-size="14" font-weight="bold" lengthAdjust="spacing" textLength="74" x="451" y="204.0234">row_count</text><text fill="#000000" font-family="sans-serif" font-size="14" lengthAdjust="spacing" textLength="9" x="555" y="204.0234">1</text><line style="stroke:#000000;stroke-width:1.0;" x1="550" x2="550" y1="188.4883" y2="208.9766"/><line style="stroke:#000000;stroke-width:1.0;" x1="446" x2="795" y1="208.9766" y2="208.9766"/><text fill="#000000" font-family="sans-serif" font-size="14" font-weight="bold" lengthAdjust="spacing" textLength="94" x="451" y="224.5117">ratio_percent</text><text fill="#000000" font-family="sans-serif" font-size="14" lengthAdjust="spacing" textLength="157" x="555" y="224.5117">4.3478260869565215</text><line style="stroke:#000000;stroke-width:1.0;" x1="550" x2="550" y1="208.9766" y2="229.4648"/><rect fill="none" height="61.4648" rx="5" ry="5" style="stroke:#000000;stroke-width:1.5;" width="349" x="446" y="168"/><rect fill="#F1F1F1" height="61.4648" rx="5" ry="5" style="stroke:#F1F1F1;stroke-width:1.5;" width="311" x="465" y="247"/><text fill="#000000" font-family="sans-serif" font-size="14" font-weight="bold" lengthAdjust="spacing" textLength="78" x="470" y="262.5352">field_value</text><text fill="#000000" font-family="sans-serif" font-size="14" lengthAdjust="spacing" textLength="197" x="574" y="262.5352">ykato@classicmodelcars.com</text><line style="stroke:#000000;stroke-width:1.0;" x1="569" x2="569" y1="247" y2="267.4883"/><line style="stroke:#000000;stroke-width:1.0;" x1="465" x2="776" y1="267.4883" y2="267.4883"/><text fill="#000000" font-family="sans-serif" font-size="14" font-weight="bold" lengthAdjust="spacing" textLength="74" x="470" y="283.0234">row_count</text><text fill="#000000" font-family="sans-serif" font-size="14" lengthAdjust="spacing" textLength="9" x="574" y="283.0234">1</text><line style="stroke:#000000;stroke-width:1.0;" x1="569" x2="569" y1="267.4883" y2="287.9766"/><line style="stroke:#000000;stroke-width:1.0;" x1="465" x2="776" y1="287.9766" y2="287.9766"/><text fill="#000000" font-family="sans-serif" font-size="14" font-weight="bold" lengthAdjust="spacing" textLength="94" x="470" y="303.5117">ratio_percent</text><text fill="#000000" font-family="sans-serif" font-size="14" lengthAdjust="spacing" textLength="157" x="574" y="303.5117">4.3478260869565215</text><line style="stroke:#000000;stroke-width:1.0;" x1="569" x2="569" y1="287.9766" y2="308.4648"/><rect fill="none" height="61.4648" rx="5" ry="5" style="stroke:#000000;stroke-width:1.5;" width="311" x="465" y="247"/><rect fill="#F1F1F1" height="61.4648" rx="5" ry="5" style="stroke:#F1F1F1;stroke-width:1.5;" width="344" x="448.5" y="326"/><text fill="#000000" font-family="sans-serif" font-size="14" font-weight="bold" lengthAdjust="spacing" textLength="78" x="453.5" y="341.5352">field_value</text><text fill="#000000" font-family="sans-serif" font-size="14" lengthAdjust="spacing" textLength="230" x="557.5" y="341.5352">mpatterso@classicmodelcars.com</text><line style="stroke:#000000;stroke-width:1.0;" x1="552.5" x2="552.5" y1="326" y2="346.4883"/><line style="stroke:#000000;stroke-width:1.0;" x1="448.5" x2="792.5" y1="346.4883" y2="346.4883"/><text fill="#000000" font-family="sans-serif" font-size="14" font-weight="bold" lengthAdjust="spacing" textLength="74" x="453.5" y="362.0234">row_count</text><text fill="#000000" font-family="sans-serif" font-size="14" lengthAdjust="spacing" textLength="9" x="557.5" y="362.0234">1</text><line style="stroke:#000000;stroke-width:1.0;" x1="552.5" x2="552.5" y1="346.4883" y2="366.9766"/><line style="stroke:#000000;stroke-width:1.0;" x1="448.5" x2="792.5" y1="366.9766" y2="366.9766"/><text fill="#000000" font-family="sans-serif" font-size="14" font-weight="bold" lengthAdjust="spacing" textLength="94" x="453.5" y="382.5117">ratio_percent</text><text fill="#000000" font-family="sans-serif" font-size="14" lengthAdjust="spacing" textLength="157" x="557.5" y="382.5117">4.3478260869565215</text><line style="stroke:#000000;stroke-width:1.0;" x1="552.5" x2="552.5" y1="366.9766" y2="387.4648"/><rect fill="none" height="61.4648" rx="5" ry="5" style="stroke:#000000;stroke-width:1.5;" width="344" x="448.5" y="326"/><rect fill="#F1F1F1" height="61.4648" rx="5" ry="5" style="stroke:#F1F1F1;stroke-width:1.5;" width="317" x="462" y="405"/><text fill="#000000" font-family="sans-serif" font-size="14" font-weight="bold" lengthAdjust="spacing" textLength="78" x="467" y="420.5352">field_value</text><text fill="#000000" font-family="sans-serif" font-size="14" lengthAdjust="spacing" textLength="203" x="571" y="420.5352">ftseng@classicmodelcars.com</text><line style="stroke:#000000;stroke-width:1.0;" x1="566" x2="566" y1="405" y2="425.4883"/><line style="stroke:#000000;stroke-width:1.0;" x1="462" x2="779" y1="425.4883" y2="425.4883"/><text fill="#000000" font-family="sans-serif" font-size="14" font-weight="bold" lengthAdjust="spacing" textLength="74" x="467" y="441.0234">row_count</text><text fill="#000000" font-family="sans-serif" font-size="14" lengthAdjust="spacing" textLength="9" x="571" y="441.0234">1</text><line style="stroke:#000000;stroke-width:1.0;" x1="566" x2="566" y1="425.4883" y2="445.9766"/><line style="stroke:#000000;stroke-width:1.0;" x1="462" x2="779" y1="445.9766" y2="445.9766"/><text fill="#000000" font-family="sans-serif" font-size="14" font-weight="bold" lengthAdjust="spacing" textLength="94" x="467" y="461.5117">ratio_percent</text><text fill="#000000" font-family="sans-serif" font-size="14" lengthAdjust="spacing" textLength="157" x="571" y="461.5117">4.3478260869565215</text><line style="stroke:#000000;stroke-width:1.0;" x1="566" x2="566" y1="445.9766" y2="466.4648"/><rect fill="none" height="61.4648" rx="5" ry="5" style="stroke:#000000;stroke-width:1.5;" width="317" x="462" y="405"/><rect fill="#F1F1F1" height="61.4648" rx="5" ry="5" style="stroke:#F1F1F1;stroke-width:1.5;" width="326" x="457.5" y="484"/><text fill="#000000" font-family="sans-serif" font-size="14" font-weight="bold" lengthAdjust="spacing" textLength="78" x="462.5" y="499.5352">field_value</text><text fill="#000000" font-family="sans-serif" font-size="14" lengthAdjust="spacing" textLength="212" x="566.5" y="499.5352">pmarsh@classicmodelcars.com</text><line style="stroke:#000000;stroke-width:1.0;" x1="561.5" x2="561.5" y1="484" y2="504.4883"/><line style="stroke:#000000;stroke-width:1.0;" x1="457.5" x2="783.5" y1="504.4883" y2="504.4883"/><text fill="#000000" font-family="sans-serif" font-size="14" font-weight="bold" lengthAdjust="spacing" textLength="74" x="462.5" y="520.0234">row_count</text><text fill="#000000" font-family="sans-serif" font-size="14" lengthAdjust="spacing" textLength="9" x="566.5" y="520.0234">1</text><line style="stroke:#000000;stroke-width:1.0;" x1="561.5" x2="561.5" y1="504.4883" y2="524.9766"/><line style="stroke:#000000;stroke-width:1.0;" x1="457.5" x2="783.5" y1="524.9766" y2="524.9766"/><text fill="#000000" font-family="sans-serif" font-size="14" font-weight="bold" lengthAdjust="spacing" textLength="94" x="462.5" y="540.5117">ratio_percent</text><text fill="#000000" font-family="sans-serif" font-size="14" lengthAdjust="spacing" textLength="157" x="566.5" y="540.5117">4.3478260869565215</text><line style="stroke:#000000;stroke-width:1.0;" x1="561.5" x2="561.5" y1="524.9766" y2="545.4648"/><rect fill="none" height="61.4648" rx="5" ry="5" style="stroke:#000000;stroke-width:1.5;" width="326" x="457.5" y="484"/><rect fill="#F1F1F1" height="61.4648" rx="5" ry="5" style="stroke:#F1F1F1;stroke-width:1.5;" width="337" x="452" y="563"/><text fill="#000000" font-family="sans-serif" font-size="14" font-weight="bold" lengthAdjust="spacing" textLength="78" x="457" y="578.5352">field_value</text><text fill="#000000" font-family="sans-serif" font-size="14" lengthAdjust="spacing" textLength="223" x="561" y="578.5352">ljennings@classicmodelcars.com</text><line style="stroke:#000000;stroke-width:1.0;" x1="556" x2="556" y1="563" y2="583.4883"/><line style="stroke:#000000;stroke-width:1.0;" x1="452" x2="789" y1="583.4883" y2="583.4883"/><text fill="#000000" font-family="sans-serif" font-size="14" font-weight="bold" lengthAdjust="spacing" textLength="74" x="457" y="599.0234">row_count</text><text fill="#000000" font-family="sans-serif" font-size="14" lengthAdjust="spacing" textLength="9" x="561" y="599.0234">1</text><line style="stroke:#000000;stroke-width:1.0;" x1="556" x2="556" y1="583.4883" y2="603.9766"/><line style="stroke:#000000;stroke-width:1.0;" x1="452" x2="789" y1="603.9766" y2="603.9766"/><text fill="#000000" font-family="sans-serif" font-size="14" font-weight="bold" lengthAdjust="spacing" textLength="94" x="457" y="619.5117">ratio_percent</text><text fill="#000000" font-family="sans-serif" font-size="14" lengthAdjust="spacing" textLength="157" x="561" y="619.5117">4.3478260869565215</text><line style="stroke:#000000;stroke-width:1.0;" x1="556" x2="556" y1="603.9766" y2="624.4648"/><rect fill="none" height="61.4648" rx="5" ry="5" style="stroke:#000000;stroke-width:1.5;" width="337" x="452" y="563"/><rect fill="#F1F1F1" height="61.4648" rx="5" ry="5" style="stroke:#F1F1F1;stroke-width:1.5;" width="306" x="467.5" y="642"/><text fill="#000000" font-family="sans-serif" font-size="14" font-weight="bold" lengthAdjust="spacing" textLength="78" x="472.5" y="657.5352">field_value</text><text fill="#000000" font-family="sans-serif" font-size="14" lengthAdjust="spacing" textLength="192" x="576.5" y="657.5352">lbott@classicmodelcars.com</text><line style="stroke:#000000;stroke-width:1.0;" x1="571.5" x2="571.5" y1="642" y2="662.4883"/><line style="stroke:#000000;stroke-width:1.0;" x1="467.5" x2="773.5" y1="662.4883" y2="662.4883"/><text fill="#000000" font-family="sans-serif" font-size="14" font-weight="bold" lengthAdjust="spacing" textLength="74" x="472.5" y="678.0234">row_count</text><text fill="#000000" font-family="sans-serif" font-size="14" lengthAdjust="spacing" textLength="9" x="576.5" y="678.0234">1</text><line style="stroke:#000000;stroke-width:1.0;" x1="571.5" x2="571.5" y1="662.4883" y2="682.9766"/><line style="stroke:#000000;stroke-width:1.0;" x1="467.5" x2="773.5" y1="682.9766" y2="682.9766"/><text fill="#000000" font-family="sans-serif" font-size="14" font-weight="bold" lengthAdjust="spacing" textLength="94" x="472.5" y="698.5117">ratio_percent</text><text fill="#000000" font-family="sans-serif" font-size="14" lengthAdjust="spacing" textLength="157" x="576.5" y="698.5117">4.3478260869565215</text><line style="stroke:#000000;stroke-width:1.0;" x1="571.5" x2="571.5" y1="682.9766" y2="703.4648"/><rect fill="none" height="61.4648" rx="5" ry="5" style="stroke:#000000;stroke-width:1.5;" width="306" x="467.5" y="642"/><rect fill="#F1F1F1" height="61.4648" rx="5" ry="5" style="stroke:#F1F1F1;stroke-width:1.5;" width="351" x="445" y="721"/><text fill="#000000" font-family="sans-serif" font-size="14" font-weight="bold" lengthAdjust="spacing" textLength="78" x="450" y="736.5352">field_value</text><text fill="#000000" font-family="sans-serif" font-size="14" lengthAdjust="spacing" textLength="237" x="554" y="736.5352">wpatterson@classicmodelcars.com</text><line style="stroke:#000000;stroke-width:1.0;" x1="549" x2="549" y1="721" y2="741.4883"/><line style="stroke:#000000;stroke-width:1.0;" x1="445" x2="796" y1="741.4883" y2="741.4883"/><text fill="#000000" font-family="sans-serif" font-size="14" font-weight="bold" lengthAdjust="spacing" textLength="74" x="450" y="757.0234">row_count</text><text fill="#000000" font-family="sans-serif" font-size="14" lengthAdjust="spacing" textLength="9" x="554" y="757.0234">1</text><line style="stroke:#000000;stroke-width:1.0;" x1="549" x2="549" y1="741.4883" y2="761.9766"/><line style="stroke:#000000;stroke-width:1.0;" x1="445" x2="796" y1="761.9766" y2="761.9766"/><text fill="#000000" font-family="sans-serif" font-size="14" font-weight="bold" lengthAdjust="spacing" textLength="94" x="450" y="777.5117">ratio_percent</text><text fill="#000000" font-family="sans-serif" font-size="14" lengthAdjust="spacing" textLength="157" x="554" y="777.5117">4.3478260869565215</text><line style="stroke:#000000;stroke-width:1.0;" x1="549" x2="549" y1="761.9766" y2="782.4648"/><rect fill="none" height="61.4648" rx="5" ry="5" style="stroke:#000000;stroke-width:1.5;" width="351" x="445" y="721"/><path d="M179,315.5 L192,315.5 C212.8273,315.5 209.8137,295.6507 228,285.5 C232.038,283.2462 236.2733,281.1247 240.6133,279.1338 " fill="none" style="stroke:#000000;stroke-width:1.0;stroke-dasharray:3.0,3.0;"/><path d="M241.8219,281.8909 L242.6812,278.2274 L239.4048,276.3766 L247.5062,276.1124 L241.8219,281.8909 " fill="#000000" style="stroke:#000000;stroke-width:1.0;"/><ellipse cx="179" cy="315.5" fill="#000000" rx="3" ry="3" style="stroke:#000000;stroke-width:1.0;"/><path d="M318.5,303.5 L331.5,303.5 C366.8613,303.5 384.6954,311.1847 409,285.5 C472.8819,217.9906 380.817,146.7232 445,79.5 C448.1672,76.1828 451.5495,73.1182 455.1118,70.2882 " fill="none" style="stroke:#000000;stroke-width:1.0;stroke-dasharray:3.0,3.0;"/><path d="M456.9295,72.7516 L456.9593,68.9249 L453.294,67.8248 L461.2703,65.7438 L456.9295,72.7516 " fill="#000000" style="stroke:#000000;stroke-width:1.0;"/><ellipse cx="318.5" cy="303.5" fill="#000000" rx="3" ry="3" style="stroke:#000000;stroke-width:1.0;"/><path d="M318.5,324.5 L331.5,324.5 C370.0599,324.5 384.4435,315.2295 409,285.5 C446.3625,240.267 402.351,198.787 445,158.5 C446.287,157.2843 447.6031,156.1034 448.9465,154.9563 " fill="none" style="stroke:#000000;stroke-width:1.0;stroke-dasharray:3.0,3.0;"/><path d="M450.8729,157.3799 L450.7643,153.5115 L447.0202,152.5327 L455.0056,150.1405 L450.8729,157.3799 " fill="#000000" style="stroke:#000000;stroke-width:1.0;"/><ellipse cx="318.5" cy="324.5" fill="#000000" rx="3" ry="3" style="stroke:#000000;stroke-width:1.0;"/><path d="M318.5,344.5 L331.5,344.5 C374.79,344.5 378.4995,316.2205 409,285.5 C427.7883,266.5762 422.5967,251.9639 445,237.5 C447.5007,235.8855 450.0587,234.3373 452.6663,232.8525 " fill="none" style="stroke:#000000;stroke-width:1.0;stroke-dasharray:3.0,3.0;"/><path d="M454.1798,235.6577 L454.7702,231.7174 L451.1528,230.0473 L459.6793,229.0687 L454.1798,235.6577 " fill="#000000" style="stroke:#000000;stroke-width:1.0;"/><ellipse cx="318.5" cy="344.5" fill="#000000" rx="3" ry="3" style="stroke:#000000;stroke-width:1.0;"/><path d="M318.5,365.5 L331.5,365.5 C386.27,365.5 392.881,334.3334 445,317.5 C452.9136,314.9441 461.0787,312.4864 469.357,310.1343 " fill="none" style="stroke:#000000;stroke-width:1.0;stroke-dasharray:3.0,3.0;"/><path d="M470.1729,313.0545 L471.5471,309.5223 L468.5411,307.214 L476.6575,308.0946 L470.1729,313.0545 " fill="#000000" style="stroke:#000000;stroke-width:1.0;"/><ellipse cx="318.5" cy="365.5" fill="#000000" rx="3" ry="3" style="stroke:#000000;stroke-width:1.0;"/><path d="M318.5,385.5 L331.5,385.5 C366.9823,385.5 404.7967,383.3015 440.9691,380.1151 " fill="none" style="stroke:#000000;stroke-width:1.0;stroke-dasharray:3.0,3.0;"/><path d="M441.2469,383.1921 L443.2769,379.9068 L440.6913,377.0382 L448.6616,379.4206 L441.2469,383.1921 " fill="#000000" style="stroke:#000000;stroke-width:1.0;"/><ellipse cx="318.5" cy="385.5" fill="#000000" rx="3" ry="3" style="stroke:#000000;stroke-width:1.0;"/><path d="M318.5,406.5 L331.5,406.5 C371.5443,406.5 414.5589,409.3002 454.8314,413.1603 " fill="none" style="stroke:#000000;stroke-width:1.0;stroke-dasharray:3.0,3.0;"/><path d="M454.5384,416.1549 L457.0774,413.3801 L455.1245,410.1657 L462.3179,413.893 L454.5384,416.1549 " fill="#000000" style="stroke:#000000;stroke-width:1.0;"/><ellipse cx="318.5" cy="406.5" fill="#000000" rx="3" ry="3" style="stroke:#000000;stroke-width:1.0;"/><path d="M318.5,427.5 L331.5,427.5 C386.27,427.5 392.8354,458.8083 445,475.5 C451.7492,477.6596 458.682,479.7436 465.7123,481.7482 " fill="none" style="stroke:#000000;stroke-width:1.0;stroke-dasharray:3.0,3.0;"/><path d="M464.8547,484.8133 L468.0111,482.3914 L466.5699,478.6831 L473.3751,483.8921 L464.8547,484.8133 " fill="#000000" style="stroke:#000000;stroke-width:1.0;"/><ellipse cx="318.5" cy="427.5" fill="#000000" rx="3" ry="3" style="stroke:#000000;stroke-width:1.0;"/><path d="M318.5,447.5 L331.5,447.5 C400.8266,447.5 383.7528,522.02 445,554.5 C448.5191,556.3662 452.1237,558.1433 455.7963,559.8355 " fill="none" style="stroke:#000000;stroke-width:1.0;stroke-dasharray:3.0,3.0;"/><path d="M454.536,562.6924 L457.939,560.7807 L457.0566,556.9786 L462.9386,562.9863 L454.536,562.6924 " fill="#000000" style="stroke:#000000;stroke-width:1.0;"/><ellipse cx="318.5" cy="447.5" fill="#000000" rx="3" ry="3" style="stroke:#000000;stroke-width:1.0;"/><path d="M318.5,468.5 L331.5,468.5 C420.508,468.5 371.2265,583.7015 445,633.5 C449.9886,636.8674 455.222,639.9486 460.6347,642.7676 " fill="none" style="stroke:#000000;stroke-width:1.0;stroke-dasharray:3.0,3.0;"/><path d="M459.2617,645.5465 L462.7188,643.7973 L462.0076,639.9888 L467.5817,646.2 L459.2617,645.5465 " fill="#000000" style="stroke:#000000;stroke-width:1.0;"/><ellipse cx="318.5" cy="468.5" fill="#000000" rx="3" ry="3" style="stroke:#000000;stroke-width:1.0;"/><path d="M318.5,488.5 L331.5,488.5 C443.1062,488.5 356.8689,644.0247 445,712.5 C446.9664,714.0278 448.9808,715.4983 451.0383,716.9134 " fill="none" style="stroke:#000000;stroke-width:1.0;stroke-dasharray:3.0,3.0;"/><path d="M449.4057,719.4321 L452.9273,718.1378 L452.6709,714.3947 L457.335,720.9949 L449.4057,719.4321 " fill="#000000" style="stroke:#000000;stroke-width:1.0;"/><ellipse cx="318.5" cy="488.5" fill="#000000" rx="3" ry="3" style="stroke:#000000;stroke-width:1.0;"/><path d="M179,336.5 L192,336.5 C234.1629,336.5 277.1866,364.4055 300.2874,382.1547 " fill="none" style="stroke:#000000;stroke-width:1.0;stroke-dasharray:3.0,3.0;"/><path d="M298.4053,384.5427 L302.0784,383.5663 L302.1695,379.7667 L306.2574,386.86 L298.4053,384.5427 " fill="#000000" style="stroke:#000000;stroke-width:1.0;"/><ellipse cx="179" cy="336.5" fill="#000000" rx="3" ry="3" style="stroke:#000000;stroke-width:1.0;"/><!--MD5=[bc56bd907a098622bdae51393bb9647e]
@startjson
{
    "field1": "email",
    "combination": "email",
    "null_distribution": {
        "total_null_rows": 0,
        "total_not_null_rows": 23
    },
    "data_distribution": [
        {
            "field_value": "jfirrelli@classicmodelcars.com",
            "row_count": 2,
            "ratio_percent": 8.695652173913043
        },
        {
            "field_value": "gbondur@classicmodelcars.com",
            "row_count": 1,
            "ratio_percent": 4.3478260869565215
        },
        {
            "field_value": "ghernande@classicmodelcars.com",
            "row_count": 1,
            "ratio_percent": 4.3478260869565215
        },
        {
            "field_value": "ykato@classicmodelcars.com",
            "row_count": 1,
            "ratio_percent": 4.3478260869565215
        },
        {
            "field_value": "mpatterso@classicmodelcars.com",
            "row_count": 1,
            "ratio_percent": 4.3478260869565215
        },
        {
            "field_value": "ftseng@classicmodelcars.com",
            "row_count": 1,
            "ratio_percent": 4.3478260869565215
        },
        {
            "field_value": "pmarsh@classicmodelcars.com",
            "row_count": 1,
            "ratio_percent": 4.3478260869565215
        },
        {
            "field_value": "ljennings@classicmodelcars.com",
            "row_count": 1,
            "ratio_percent": 4.3478260869565215
        },
        {
            "field_value": "lbott@classicmodelcars.com",
            "row_count": 1,
            "ratio_percent": 4.3478260869565215
        },
        {
            "field_value": "wpatterson@classicmodelcars.com",
            "row_count": 1,
            "ratio_percent": 4.3478260869565215
        }
    ]
}
@endjson

PlantUML version 1.2022.5(Sat Apr 30 06:55:52 EDT 2022)
(GPL source distribution)
Java Runtime: OpenJDK Runtime Environment
JVM: OpenJDK 64-Bit Server VM
Default Encoding: UTF-8
Language: en
Country: CA
--></g></svg>