<?xml version="1.0" encoding="UTF-8" standalone="no"?><svg xmlns="http://www.w3.org/2000/svg" xmlns:xlink="http://www.w3.org/1999/xlink" contentStyleType="text/css" height="794px" preserveAspectRatio="none" style="width:872px;height:794px;background:#FFFFFF;" version="1.1" viewBox="0 0 872 794" width="872px" zoomAndPan="magnify"><defs/><g><rect fill="#F1F1F1" height="81.9531" rx="5" ry="5" style="stroke:#F1F1F1;stroke-width:1.5;" width="325" x="10" y="264.5"/><text fill="#000000" font-family="sans-serif" font-size="14" font-weight="bold" lengthAdjust="spacing" textLength="42" x="15" y="280.0352">field1</text><text fill="#000000" font-family="sans-serif" font-size="14" lengthAdjust="spacing" textLength="181" x="149" y="280.0352">salesRepEmployeeNumber</text><line style="stroke:#000000;stroke-width:1.0;" x1="144" x2="144" y1="264.5" y2="284.9883"/><line style="stroke:#000000;stroke-width:1.0;" x1="10" x2="335" y1="284.9883" y2="284.9883"/><text fill="#000000" font-family="sans-serif" font-size="14" font-weight="bold" lengthAdjust="spacing" textLength="90" x="15" y="300.5234">combination</text><text fill="#000000" font-family="sans-serif" font-size="14" lengthAdjust="spacing" textLength="181" x="149" y="300.5234">salesRepEmployeeNumber</text><line style="stroke:#000000;stroke-width:1.0;" x1="144" x2="144" y1="284.9883" y2="305.4766"/><line style="stroke:#000000;stroke-width:1.0;" x1="10" x2="335" y1="305.4766" y2="305.4766"/><text fill="#000000" font-family="sans-serif" font-size="14" font-weight="bold" lengthAdjust="spacing" textLength="121" x="15" y="321.0117">null_distribution</text><text fill="#000000" font-family="sans-serif" font-size="14" lengthAdjust="spacing" textLength="12" x="149" y="321.0117">   </text><line style="stroke:#000000;stroke-width:1.0;" x1="144" x2="144" y1="305.4766" y2="325.9648"/><line style="stroke:#000000;stroke-width:1.0;" x1="10" x2="335" y1="325.9648" y2="325.9648"/><text fill="#000000" font-family="sans-serif" font-size="14" font-weight="bold" lengthAdjust="spacing" textLength="124" x="15" y="341.5">data_distribution</text><text fill="#000000" font-family="sans-serif" font-size="14" lengthAdjust="spacing" textLength="12" x="149" y="341.5">   </text><line style="stroke:#000000;stroke-width:1.0;" x1="144" x2="144" y1="325.9648" y2="346.4531"/><rect fill="none" height="81.9531" rx="5" ry="5" style="stroke:#000000;stroke-width:1.5;" width="325" x="10" y="264.5"/><rect fill="#F1F1F1" height="40.9766" rx="5" ry="5" style="stroke:#F1F1F1;stroke-width:1.5;" width="189" x="372" y="235"/><text fill="#000000" font-family="sans-serif" font-size="14" font-weight="bold" lengthAdjust="spacing" textLength="111" x="377" y="250.5352">total_null_rows</text><text fill="#000000" font-family="sans-serif" font-size="14" lengthAdjust="spacing" textLength="18" x="529" y="250.5352">22</text><line style="stroke:#000000;stroke-width:1.0;" x1="524" x2="524" y1="235" y2="255.4883"/><line style="stroke:#000000;stroke-width:1.0;" x1="372" x2="561" y1="255.4883" y2="255.4883"/><text fill="#000000" font-family="sans-serif" font-size="14" font-weight="bold" lengthAdjust="spacing" textLength="142" x="377" y="271.0234">total_not_null_rows</text><text fill="#000000" font-family="sans-serif" font-size="14" lengthAdjust="spacing" textLength="27" x="529" y="271.0234">100</text><line style="stroke:#000000;stroke-width:1.0;" x1="524" x2="524" y1="255.4883" y2="275.9766"/><rect fill="none" height="40.9766" rx="5" ry="5" style="stroke:#000000;stroke-width:1.5;" width="189" x="372" y="235"/><rect fill="#F1F1F1" height="204.8828" rx="5" ry="5" style="stroke:#F1F1F1;stroke-width:1.5;" width="22" x="454.5" y="294"/><text fill="#000000" font-family="sans-serif" font-size="14" lengthAdjust="spacing" textLength="12" x="459.5" y="309.5352">   </text><line style="stroke:#000000;stroke-width:1.0;" x1="454.5" x2="476.5" y1="314.4883" y2="314.4883"/><text fill="#000000" font-family="sans-serif" font-size="14" lengthAdjust="spacing" textLength="12" x="459.5" y="330.0234">   </text><line style="stroke:#000000;stroke-width:1.0;" x1="454.5" x2="476.5" y1="334.9766" y2="334.9766"/><text fill="#000000" font-family="sans-serif" font-size="14" lengthAdjust="spacing" textLength="12" x="459.5" y="350.5117">   </text><line style="stroke:#000000;stroke-width:1.0;" x1="454.5" x2="476.5" y1="355.4648" y2="355.4648"/><text fill="#000000" font-family="sans-serif" font-size="14" lengthAdjust="spacing" textLength="12" x="459.5" y="371">   </text><line style="stroke:#000000;stroke-width:1.0;" x1="454.5" x2="476.5" y1="375.9531" y2="375.9531"/><text fill="#000000" font-family="sans-serif" font-size="14" lengthAdjust="spacing" textLength="12" x="459.5" y="391.4883">   </text><line style="stroke:#000000;stroke-width:1.0;" x1="454.5" x2="476.5" y1="396.4414" y2="396.4414"/><text fill="#000000" font-family="sans-serif" font-size="14" lengthAdjust="spacing" textLength="12" x="459.5" y="411.9766">   </text><line style="stroke:#000000;stroke-width:1.0;" x1="454.5" x2="476.5" y1="416.9297" y2="416.9297"/><text fill="#000000" font-family="sans-serif" font-size="14" lengthAdjust="spacing" textLength="12" x="459.5" y="432.4648">   </text><line style="stroke:#000000;stroke-width:1.0;" x1="454.5" x2="476.5" y1="437.418" y2="437.418"/><text fill="#000000" font-family="sans-serif" font-size="14" lengthAdjust="spacing" textLength="12" x="459.5" y="452.9531">   </text><line style="stroke:#000000;stroke-width:1.0;" x1="454.5" x2="476.5" y1="457.9063" y2="457.9063"/><text fill="#000000" font-family="sans-serif" font-size="14" lengthAdjust="spacing" textLength="12" x="459.5" y="473.4414">   </text><line style="stroke:#000000;stroke-width:1.0;" x1="454.5" x2="476.5" y1="478.3945" y2="478.3945"/><text fill="#000000" font-family="sans-serif" font-size="14" lengthAdjust="spacing" textLength="12" x="459.5" y="493.9297">   </text><rect fill="none" height="204.8828" rx="5" ry="5" style="stroke:#000000;stroke-width:1.5;" width="22" x="454.5" y="294"/><rect fill="#F1F1F1" height="61.4648" rx="5" ry="5" style="stroke:#F1F1F1;stroke-width:1.5;" width="253" x="602.5" y="10"/><text fill="#000000" font-family="sans-serif" font-size="14" font-weight="bold" lengthAdjust="spacing" textLength="78" x="607.5" y="25.5352">field_value</text><text fill="#000000" font-family="sans-serif" font-size="14" font-weight="bold" lengthAdjust="spacing" textLength="37" x="711.5" y="25.5352">NULL</text><line style="stroke:#000000;stroke-width:1.0;" x1="706.5" x2="706.5" y1="10" y2="30.4883"/><line style="stroke:#000000;stroke-width:1.0;" x1="602.5" x2="855.5" y1="30.4883" y2="30.4883"/><text fill="#000000" font-family="sans-serif" font-size="14" font-weight="bold" lengthAdjust="spacing" textLength="74" x="607.5" y="46.0234">row_count</text><text fill="#000000" font-family="sans-serif" font-size="14" lengthAdjust="spacing" textLength="18" x="711.5" y="46.0234">22</text><line style="stroke:#000000;stroke-width:1.0;" x1="706.5" x2="706.5" y1="30.4883" y2="50.9766"/><line style="stroke:#000000;stroke-width:1.0;" x1="602.5" x2="855.5" y1="50.9766" y2="50.9766"/><text fill="#000000" font-family="sans-serif" font-size="14" font-weight="bold" lengthAdjust="spacing" textLength="94" x="607.5" y="66.5117">ratio_percent</text><text fill="#000000" font-family="sans-serif" font-size="14" lengthAdjust="spacing" textLength="139" x="711.5" y="66.5117">18.0327868852459</text><line style="stroke:#000000;stroke-width:1.0;" x1="706.5" x2="706.5" y1="50.9766" y2="71.4648"/><rect fill="none" height="61.4648" rx="5" ry="5" style="stroke:#000000;stroke-width:1.5;" width="253" x="602.5" y="10"/><rect fill="#F1F1F1" height="61.4648" rx="5" ry="5" style="stroke:#F1F1F1;stroke-width:1.5;" width="253" x="602.5" y="89"/><text fill="#000000" font-family="sans-serif" font-size="14" font-weight="bold" lengthAdjust="spacing" textLength="78" x="607.5" y="104.5352">field_value</text><text fill="#000000" font-family="sans-serif" font-size="14" lengthAdjust="spacing" textLength="36" x="711.5" y="104.5352">1401</text><line style="stroke:#000000;stroke-width:1.0;" x1="706.5" x2="706.5" y1="89" y2="109.4883"/><line style="stroke:#000000;stroke-width:1.0;" x1="602.5" x2="855.5" y1="109.4883" y2="109.4883"/><text fill="#000000" font-family="sans-serif" font-size="14" font-weight="bold" lengthAdjust="spacing" textLength="74" x="607.5" y="125.0234">row_count</text><text fill="#000000" font-family="sans-serif" font-size="14" lengthAdjust="spacing" textLength="18" x="711.5" y="125.0234">10</text><line style="stroke:#000000;stroke-width:1.0;" x1="706.5" x2="706.5" y1="109.4883" y2="129.9766"/><line style="stroke:#000000;stroke-width:1.0;" x1="602.5" x2="855.5" y1="129.9766" y2="129.9766"/><text fill="#000000" font-family="sans-serif" font-size="14" font-weight="bold" lengthAdjust="spacing" textLength="94" x="607.5" y="145.5117">ratio_percent</text><text fill="#000000" font-family="sans-serif" font-size="14" lengthAdjust="spacing" textLength="139" x="711.5" y="145.5117">8.19672131147541</text><line style="stroke:#000000;stroke-width:1.0;" x1="706.5" x2="706.5" y1="129.9766" y2="150.4648"/><rect fill="none" height="61.4648" rx="5" ry="5" style="stroke:#000000;stroke-width:1.5;" width="253" x="602.5" y="89"/><rect fill="#F1F1F1" height="61.4648" rx="5" ry="5" style="stroke:#F1F1F1;stroke-width:1.5;" width="262" x="598" y="168"/><text fill="#000000" font-family="sans-serif" font-size="14" font-weight="bold" lengthAdjust="spacing" textLength="78" x="603" y="183.5352">field_value</text><text fill="#000000" font-family="sans-serif" font-size="14" lengthAdjust="spacing" textLength="36" x="707" y="183.5352">1504</text><line style="stroke:#000000;stroke-width:1.0;" x1="702" x2="702" y1="168" y2="188.4883"/><line style="stroke:#000000;stroke-width:1.0;" x1="598" x2="860" y1="188.4883" y2="188.4883"/><text fill="#000000" font-family="sans-serif" font-size="14" font-weight="bold" lengthAdjust="spacing" textLength="74" x="603" y="204.0234">row_count</text><text fill="#000000" font-family="sans-serif" font-size="14" lengthAdjust="spacing" textLength="9" x="707" y="204.0234">9</text><line style="stroke:#000000;stroke-width:1.0;" x1="702" x2="702" y1="188.4883" y2="208.9766"/><line style="stroke:#000000;stroke-width:1.0;" x1="598" x2="860" y1="208.9766" y2="208.9766"/><text fill="#000000" font-family="sans-serif" font-size="14" font-weight="bold" lengthAdjust="spacing" textLength="94" x="603" y="224.5117">ratio_percent</text><text fill="#000000" font-family="sans-serif" font-size="14" lengthAdjust="spacing" textLength="148" x="707" y="224.5117">7.377049180327869</text><line style="stroke:#000000;stroke-width:1.0;" x1="702" x2="702" y1="208.9766" y2="229.4648"/><rect fill="none" height="61.4648" rx="5" ry="5" style="stroke:#000000;stroke-width:1.5;" width="262" x="598" y="168"/><rect fill="#F1F1F1" height="61.4648" rx="5" ry="5" style="stroke:#F1F1F1;stroke-width:1.5;" width="262" x="598" y="247"/><text fill="#000000" font-family="sans-serif" font-size="14" font-weight="bold" lengthAdjust="spacing" textLength="78" x="603" y="262.5352">field_value</text><text fill="#000000" font-family="sans-serif" font-size="14" lengthAdjust="spacing" textLength="36" x="707" y="262.5352">1501</text><line style="stroke:#000000;stroke-width:1.0;" x1="702" x2="702" y1="247" y2="267.4883"/><line style="stroke:#000000;stroke-width:1.0;" x1="598" x2="860" y1="267.4883" y2="267.4883"/><text fill="#000000" font-family="sans-serif" font-size="14" font-weight="bold" lengthAdjust="spacing" textLength="74" x="603" y="283.0234">row_count</text><text fill="#000000" font-family="sans-serif" font-size="14" lengthAdjust="spacing" textLength="9" x="707" y="283.0234">8</text><line style="stroke:#000000;stroke-width:1.0;" x1="702" x2="702" y1="267.4883" y2="287.9766"/><line style="stroke:#000000;stroke-width:1.0;" x1="598" x2="860" y1="287.9766" y2="287.9766"/><text fill="#000000" font-family="sans-serif" font-size="14" font-weight="bold" lengthAdjust="spacing" textLength="94" x="603" y="303.5117">ratio_percent</text><text fill="#000000" font-family="sans-serif" font-size="14" lengthAdjust="spacing" textLength="148" x="707" y="303.5117">6.557377049180328</text><line style="stroke:#000000;stroke-width:1.0;" x1="702" x2="702" y1="287.9766" y2="308.4648"/><rect fill="none" height="61.4648" rx="5" ry="5" style="stroke:#000000;stroke-width:1.5;" width="262" x="598" y="247"/><rect fill="#F1F1F1" height="61.4648" rx="5" ry="5" style="stroke:#F1F1F1;stroke-width:1.5;" width="262" x="598" y="326"/><text fill="#000000" font-family="sans-serif" font-size="14" font-weight="bold" lengthAdjust="spacing" textLength="78" x="603" y="341.5352">field_value</text><text fill="#000000" font-family="sans-serif" font-size="14" lengthAdjust="spacing" textLength="36" x="707" y="341.5352">1323</text><line style="stroke:#000000;stroke-width:1.0;" x1="702" x2="702" y1="326" y2="346.4883"/><line style="stroke:#000000;stroke-width:1.0;" x1="598" x2="860" y1="346.4883" y2="346.4883"/><text fill="#000000" font-family="sans-serif" font-size="14" font-weight="bold" lengthAdjust="spacing" textLength="74" x="603" y="362.0234">row_count</text><text fill="#000000" font-family="sans-serif" font-size="14" lengthAdjust="spacing" textLength="9" x="707" y="362.0234">8</text><line style="stroke:#000000;stroke-width:1.0;" x1="702" x2="702" y1="346.4883" y2="366.9766"/><line style="stroke:#000000;stroke-width:1.0;" x1="598" x2="860" y1="366.9766" y2="366.9766"/><text fill="#000000" font-family="sans-serif" font-size="14" font-weight="bold" lengthAdjust="spacing" textLength="94" x="603" y="382.5117">ratio_percent</text><text fill="#000000" font-family="sans-serif" font-size="14" lengthAdjust="spacing" textLength="148" x="707" y="382.5117">6.557377049180328</text><line style="stroke:#000000;stroke-width:1.0;" x1="702" x2="702" y1="366.9766" y2="387.4648"/><rect fill="none" height="61.4648" rx="5" ry="5" style="stroke:#000000;stroke-width:1.5;" width="262" x="598" y="326"/><rect fill="#F1F1F1" height="61.4648" rx="5" ry="5" style="stroke:#F1F1F1;stroke-width:1.5;" width="262" x="598" y="405"/><text fill="#000000" font-family="sans-serif" font-size="14" font-weight="bold" lengthAdjust="spacing" textLength="78" x="603" y="420.5352">field_value</text><text fill="#000000" font-family="sans-serif" font-size="14" lengthAdjust="spacing" textLength="36" x="707" y="420.5352">1370</text><line style="stroke:#000000;stroke-width:1.0;" x1="702" x2="702" y1="405" y2="425.4883"/><line style="stroke:#000000;stroke-width:1.0;" x1="598" x2="860" y1="425.4883" y2="425.4883"/><text fill="#000000" font-family="sans-serif" font-size="14" font-weight="bold" lengthAdjust="spacing" textLength="74" x="603" y="441.0234">row_count</text><text fill="#000000" font-family="sans-serif" font-size="14" lengthAdjust="spacing" textLength="9" x="707" y="441.0234">7</text><line style="stroke:#000000;stroke-width:1.0;" x1="702" x2="702" y1="425.4883" y2="445.9766"/><line style="stroke:#000000;stroke-width:1.0;" x1="598" x2="860" y1="445.9766" y2="445.9766"/><text fill="#000000" font-family="sans-serif" font-size="14" font-weight="bold" lengthAdjust="spacing" textLength="94" x="603" y="461.5117">ratio_percent</text><text fill="#000000" font-family="sans-serif" font-size="14" lengthAdjust="spacing" textLength="148" x="707" y="461.5117">5.737704918032787</text><line style="stroke:#000000;stroke-width:1.0;" x1="702" x2="702" y1="445.9766" y2="466.4648"/><rect fill="none" height="61.4648" rx="5" ry="5" style="stroke:#000000;stroke-width:1.5;" width="262" x="598" y="405"/><rect fill="#F1F1F1" height="61.4648" rx="5" ry="5" style="stroke:#F1F1F1;stroke-width:1.5;" width="262" x="598" y="484"/><text fill="#000000" font-family="sans-serif" font-size="14" font-weight="bold" lengthAdjust="spacing" textLength="78" x="603" y="499.5352">field_value</text><text fill="#000000" font-family="sans-serif" font-size="14" lengthAdjust="spacing" textLength="36" x="707" y="499.5352">1286</text><line style="stroke:#000000;stroke-width:1.0;" x1="702" x2="702" y1="484" y2="504.4883"/><line style="stroke:#000000;stroke-width:1.0;" x1="598" x2="860" y1="504.4883" y2="504.4883"/><text fill="#000000" font-family="sans-serif" font-size="14" font-weight="bold" lengthAdjust="spacing" textLength="74" x="603" y="520.0234">row_count</text><text fill="#000000" font-family="sans-serif" font-size="14" lengthAdjust="spacing" textLength="9" x="707" y="520.0234">7</text><line style="stroke:#000000;stroke-width:1.0;" x1="702" x2="702" y1="504.4883" y2="524.9766"/><line style="stroke:#000000;stroke-width:1.0;" x1="598" x2="860" y1="524.9766" y2="524.9766"/><text fill="#000000" font-family="sans-serif" font-size="14" font-weight="bold" lengthAdjust="spacing" textLength="94" x="603" y="540.5117">ratio_percent</text><text fill="#000000" font-family="sans-serif" font-size="14" lengthAdjust="spacing" textLength="148" x="707" y="540.5117">5.737704918032787</text><line style="stroke:#000000;stroke-width:1.0;" x1="702" x2="702" y1="524.9766" y2="545.4648"/><rect fill="none" height="61.4648" rx="5" ry="5" style="stroke:#000000;stroke-width:1.5;" width="262" x="598" y="484"/><rect fill="#F1F1F1" height="61.4648" rx="5" ry="5" style="stroke:#F1F1F1;stroke-width:1.5;" width="262" x="598" y="563"/><text fill="#000000" font-family="sans-serif" font-size="14" font-weight="bold" lengthAdjust="spacing" textLength="78" x="603" y="578.5352">field_value</text><text fill="#000000" font-family="sans-serif" font-size="14" lengthAdjust="spacing" textLength="36" x="707" y="578.5352">1188</text><line style="stroke:#000000;stroke-width:1.0;" x1="702" x2="702" y1="563" y2="583.4883"/><line style="stroke:#000000;stroke-width:1.0;" x1="598" x2="860" y1="583.4883" y2="583.4883"/><text fill="#000000" font-family="sans-serif" font-size="14" font-weight="bold" lengthAdjust="spacing" textLength="74" x="603" y="599.0234">row_count</text><text fill="#000000" font-family="sans-serif" font-size="14" lengthAdjust="spacing" textLength="9" x="707" y="599.0234">6</text><line style="stroke:#000000;stroke-width:1.0;" x1="702" x2="702" y1="583.4883" y2="603.9766"/><line style="stroke:#000000;stroke-width:1.0;" x1="598" x2="860" y1="603.9766" y2="603.9766"/><text fill="#000000" font-family="sans-serif" font-size="14" font-weight="bold" lengthAdjust="spacing" textLength="94" x="603" y="619.5117">ratio_percent</text><text fill="#000000" font-family="sans-serif" font-size="14" lengthAdjust="spacing" textLength="148" x="707" y="619.5117">4.918032786885246</text><line style="stroke:#000000;stroke-width:1.0;" x1="702" x2="702" y1="603.9766" y2="624.4648"/><rect fill="none" height="61.4648" rx="5" ry="5" style="stroke:#000000;stroke-width:1.5;" width="262" x="598" y="563"/><rect fill="#F1F1F1" height="61.4648" rx="5" ry="5" style="stroke:#F1F1F1;stroke-width:1.5;" width="262" x="598" y="642"/><text fill="#000000" font-family="sans-serif" font-size="14" font-weight="bold" lengthAdjust="spacing" textLength="78" x="603" y="657.5352">field_value</text><text fill="#000000" font-family="sans-serif" font-size="14" lengthAdjust="spacing" textLength="36" x="707" y="657.5352">1216</text><line style="stroke:#000000;stroke-width:1.0;" x1="702" x2="702" y1="642" y2="662.4883"/><line style="stroke:#000000;stroke-width:1.0;" x1="598" x2="860" y1="662.4883" y2="662.4883"/><text fill="#000000" font-family="sans-serif" font-size="14" font-weight="bold" lengthAdjust="spacing" textLength="74" x="603" y="678.0234">row_count</text><text fill="#000000" font-family="sans-serif" font-size="14" lengthAdjust="spacing" textLength="9" x="707" y="678.0234">6</text><line style="stroke:#000000;stroke-width:1.0;" x1="702" x2="702" y1="662.4883" y2="682.9766"/><line style="stroke:#000000;stroke-width:1.0;" x1="598" x2="860" y1="682.9766" y2="682.9766"/><text fill="#000000" font-family="sans-serif" font-size="14" font-weight="bold" lengthAdjust="spacing" textLength="94" x="603" y="698.5117">ratio_percent</text><text fill="#000000" font-family="sans-serif" font-size="14" lengthAdjust="spacing" textLength="148" x="707" y="698.5117">4.918032786885246</text><line style="stroke:#000000;stroke-width:1.0;" x1="702" x2="702" y1="682.9766" y2="703.4648"/><rect fill="none" height="61.4648" rx="5" ry="5" style="stroke:#000000;stroke-width:1.5;" width="262" x="598" y="642"/><rect fill="#F1F1F1" height="61.4648" rx="5" ry="5" style="stroke:#F1F1F1;stroke-width:1.5;" width="262" x="598" y="721"/><text fill="#000000" font-family="sans-serif" font-size="14" font-weight="bold" lengthAdjust="spacing" textLength="78" x="603" y="736.5352">field_value</text><text fill="#000000" font-family="sans-serif" font-size="14" lengthAdjust="spacing" textLength="36" x="707" y="736.5352">1165</text><line style="stroke:#000000;stroke-width:1.0;" x1="702" x2="702" y1="721" y2="741.4883"/><line style="stroke:#000000;stroke-width:1.0;" x1="598" x2="860" y1="741.4883" y2="741.4883"/><text fill="#000000" font-family="sans-serif" font-size="14" font-weight="bold" lengthAdjust="spacing" textLength="74" x="603" y="757.0234">row_count</text><text fill="#000000" font-family="sans-serif" font-size="14" lengthAdjust="spacing" textLength="9" x="707" y="757.0234">6</text><line style="stroke:#000000;stroke-width:1.0;" x1="702" x2="702" y1="741.4883" y2="761.9766"/><line style="stroke:#000000;stroke-width:1.0;" x1="598" x2="860" y1="761.9766" y2="761.9766"/><text fill="#000000" font-family="sans-serif" font-size="14" font-weight="bold" lengthAdjust="spacing" textLength="94" x="603" y="777.5117">ratio_percent</text><text fill="#000000" font-family="sans-serif" font-size="14" lengthAdjust="spacing" textLength="148" x="707" y="777.5117">4.918032786885246</text><line style="stroke:#000000;stroke-width:1.0;" x1="702" x2="702" y1="761.9766" y2="782.4648"/><rect fill="none" height="61.4648" rx="5" ry="5" style="stroke:#000000;stroke-width:1.5;" width="262" x="598" y="721"/><path d="M323,315.5 L336,315.5 C356.8273,315.5 353.7406,295.5187 372,285.5 C376.1394,283.2288 380.4771,281.0988 384.9224,279.1061 " fill="none" style="stroke:#000000;stroke-width:1.0;stroke-dasharray:3.0,3.0;"/><path d="M386.1301,281.9305 L387.0407,278.2004 L383.7148,276.2817 L391.9835,276.0871 L386.1301,281.9305 " fill="#000000" style="stroke:#000000;stroke-width:1.0;"/><ellipse cx="323" cy="315.5" fill="#000000" rx="3" ry="3" style="stroke:#000000;stroke-width:1.0;"/><path d="M467,303.5 L480,303.5 C517.3122,303.5 536.1906,312.4458 562,285.5 C626.2901,218.3792 536.2478,148.9628 598,79.5 C599.0016,78.3734 600.0342,77.2787 601.0957,76.215 " fill="none" style="stroke:#000000;stroke-width:1.0;stroke-dasharray:3.0,3.0;"/><path d="M603.1212,78.4302 L602.7571,74.6959 L599.0701,73.9998 L606.6337,71.1512 L603.1212,78.4302 " fill="#000000" style="stroke:#000000;stroke-width:1.0;"/><ellipse cx="467" cy="303.5" fill="#000000" rx="3" ry="3" style="stroke:#000000;stroke-width:1.0;"/><path d="M467,324.5 L480,324.5 C520.3564,324.5 535.9543,316.3264 562,285.5 C599.864,240.686 556.8105,200.2779 598,158.5 C599.214,157.2687 600.4651,156.0759 601.7502,154.9204 " fill="none" style="stroke:#000000;stroke-width:1.0;stroke-dasharray:3.0,3.0;"/><path d="M603.6826,157.2576 L603.5031,153.4711 L599.8179,152.5832 L607.5932,150.0895 L603.6826,157.2576 " fill="#000000" style="stroke:#000000;stroke-width:1.0;"/><ellipse cx="467" cy="324.5" fill="#000000" rx="3" ry="3" style="stroke:#000000;stroke-width:1.0;"/><path d="M467,344.5 L480,344.5 C524.8977,344.5 529.9398,316.9316 562,285.5 C581.0419,266.8314 576.1251,252.7513 598,237.5 C600.3186,235.8835 602.7051,234.3329 605.1483,232.8456 " fill="none" style="stroke:#000000;stroke-width:1.0;stroke-dasharray:3.0,3.0;"/><path d="M606.6647,235.4822 L607.1258,231.7083 L603.6319,230.209 L611.7398,229.0547 L606.6647,235.4822 " fill="#000000" style="stroke:#000000;stroke-width:1.0;"/><ellipse cx="467" cy="344.5" fill="#000000" rx="3" ry="3" style="stroke:#000000;stroke-width:1.0;"/><path d="M467,365.5 L480,365.5 C536.6174,365.5 544.6593,336.4815 598,317.5 C604.558,315.1663 611.3293,312.8415 618.1785,310.5543 " fill="none" style="stroke:#000000;stroke-width:1.0;stroke-dasharray:3.0,3.0;"/><path d="M619.1648,313.5368 L620.4154,309.8146 L617.1922,307.5718 L625.6348,308.0885 L619.1648,313.5368 " fill="#000000" style="stroke:#000000;stroke-width:1.0;"/><ellipse cx="467" cy="365.5" fill="#000000" rx="3" ry="3" style="stroke:#000000;stroke-width:1.0;"/><path d="M467,385.5 L480,385.5 C515.9888,385.5 554.713,382.4621 590.6319,378.3528 " fill="none" style="stroke:#000000;stroke-width:1.0;stroke-dasharray:3.0,3.0;"/><path d="M590.9889,381.4009 L592.9179,378.0851 L590.2749,375.3048 L598.252,377.4604 L590.9889,381.4009 " fill="#000000" style="stroke:#000000;stroke-width:1.0;"/><ellipse cx="467" cy="385.5" fill="#000000" rx="3" ry="3" style="stroke:#000000;stroke-width:1.0;"/><path d="M467,406.5 L480,406.5 C515.9888,406.5 554.713,409.5379 590.6319,413.6472 " fill="none" style="stroke:#000000;stroke-width:1.0;stroke-dasharray:3.0,3.0;"/><path d="M590.2749,416.6952 L592.9179,413.9149 L590.9889,410.5991 L598.252,414.5396 L590.2749,416.6952 " fill="#000000" style="stroke:#000000;stroke-width:1.0;"/><ellipse cx="467" cy="406.5" fill="#000000" rx="3" ry="3" style="stroke:#000000;stroke-width:1.0;"/><path d="M467,427.5 L480,427.5 C536.6174,427.5 544.593,456.7059 598,475.5 C603.8517,477.5592 609.8746,479.606 615.972,481.6212 " fill="none" style="stroke:#000000;stroke-width:1.0;stroke-dasharray:3.0,3.0;"/><path d="M615.032,484.4957 L618.1279,482.3262 L616.912,478.7466 L623.1584,483.9712 L615.032,484.4957 " fill="#000000" style="stroke:#000000;stroke-width:1.0;"/><ellipse cx="467" cy="427.5" fill="#000000" rx="3" ry="3" style="stroke:#000000;stroke-width:1.0;"/><path d="M467,447.5 L480,447.5 C550.7951,447.5 536.3344,519.7249 598,554.5 C601.1797,556.2931 604.4504,558.0118 607.7896,559.6585 " fill="none" style="stroke:#000000;stroke-width:1.0;stroke-dasharray:3.0,3.0;"/><path d="M606.4777,562.4358 L609.8726,560.6424 L609.1015,556.8812 L614.7329,562.9382 L606.4777,562.4358 " fill="#000000" style="stroke:#000000;stroke-width:1.0;"/><ellipse cx="467" cy="447.5" fill="#000000" rx="3" ry="3" style="stroke:#000000;stroke-width:1.0;"/><path d="M467,468.5 L480,468.5 C570.1565,468.5 524.6334,581.1021 598,633.5 C600.1167,635.0117 602.2924,636.4655 604.5182,637.8636 " fill="none" style="stroke:#000000;stroke-width:1.0;stroke-dasharray:3.0,3.0;"/><path d="M602.9065,640.5911 L606.5638,639.0724 L606.1299,635.1362 L611.3368,641.893 L602.9065,640.5911 " fill="#000000" style="stroke:#000000;stroke-width:1.0;"/><ellipse cx="467" cy="468.5" fill="#000000" rx="3" ry="3" style="stroke:#000000;stroke-width:1.0;"/><path d="M467,488.5 L480,488.5 C592.5243,488.5 511.0856,641.0325 598,712.5 C599.7123,713.908 601.4742,715.2651 603.2798,716.5733 " fill="none" style="stroke:#000000;stroke-width:1.0;stroke-dasharray:3.0,3.0;"/><path d="M601.5751,719.0928 L605.1694,717.8518 L604.9845,714.0539 L609.5784,720.835 L601.5751,719.0928 " fill="#000000" style="stroke:#000000;stroke-width:1.0;"/><ellipse cx="467" cy="488.5" fill="#000000" rx="3" ry="3" style="stroke:#000000;stroke-width:1.0;"/><path d="M323,336.5 L336,336.5 C379.8518,336.5 425.0003,364.993 448.8339,382.7089 " fill="none" style="stroke:#000000;stroke-width:1.0;stroke-dasharray:3.0,3.0;"/><path d="M446.9625,385.1642 L450.6753,384.1124 L450.7052,380.2536 L454.9721,387.3873 L446.9625,385.1642 " fill="#000000" style="stroke:#000000;stroke-width:1.0;"/><ellipse cx="323" cy="336.5" fill="#000000" rx="3" ry="3" style="stroke:#000000;stroke-width:1.0;"/><!--MD5=[fe4d0a7d11a8c62894929437f67bfee4]
@startjson
{
    "field1": "salesRepEmployeeNumber",
    "combination": "salesRepEmployeeNumber",
    "null_distribution": {
        "total_null_rows": 22,
        "total_not_null_rows": 100
    },
    "data_distribution": [
        {
            "field_value": "**NULL**",
            "row_count": 22,
            "ratio_percent": 18.0327868852459
        },
        {
            "field_value": "1401",
            "row_count": 10,
            "ratio_percent": 8.19672131147541
        },
        {
            "field_value": "1504",
            "row_count": 9,
            "ratio_percent": 7.377049180327869
        },
        {
            "field_value": "1501",
            "row_count": 8,
            "ratio_percent": 6.557377049180328
        },
        {
            "field_value": "1323",
            "row_count": 8,
            "ratio_percent": 6.557377049180328
        },
        {
            "field_value": "1370",
            "row_count": 7,
            "ratio_percent": 5.737704918032787
        },
        {
            "field_value": "1286",
            "row_count": 7,
            "ratio_percent": 5.737704918032787
        },
        {
            "field_value": "1188",
            "row_count": 6,
            "ratio_percent": 4.918032786885246
        },
        {
            "field_value": "1216",
            "row_count": 6,
            "ratio_percent": 4.918032786885246
        },
        {
            "field_value": "1165",
            "row_count": 6,
            "ratio_percent": 4.918032786885246
        }
    ]
}
@endjson

PlantUML version 1.2022.5(Sat Apr 30 06:55:52 EDT 2022)
(GPL source distribution)
Java Runtime: OpenJDK Runtime Environment
JVM: OpenJDK 64-Bit Server VM
Default Encoding: UTF-8
Language: en
Country: CA
--></g></svg>