<?xml version="1.0" encoding="UTF-8" standalone="no"?><svg xmlns="http://www.w3.org/2000/svg" xmlns:xlink="http://www.w3.org/1999/xlink" contentStyleType="text/css" height="557px" preserveAspectRatio="none" style="width:743px;height:557px;background:#FFFFFF;" version="1.1" viewBox="0 0 743 557" width="743px" zoomAndPan="magnify"><defs/><g><rect fill="#F1F1F1" height="81.9531" rx="5" ry="5" style="stroke:#F1F1F1;stroke-width:1.5;" width="196" x="10" y="161.5"/><text fill="#000000" font-family="sans-serif" font-size="14" font-weight="bold" lengthAdjust="spacing" textLength="42" x="15" y="177.0352">field1</text><text fill="#000000" font-family="sans-serif" font-size="14" lengthAdjust="spacing" textLength="52" x="149" y="177.0352">jobTitle</text><line style="stroke:#000000;stroke-width:1.0;" x1="144" x2="144" y1="161.5" y2="181.9883"/><line style="stroke:#000000;stroke-width:1.0;" x1="10" x2="206" y1="181.9883" y2="181.9883"/><text fill="#000000" font-family="sans-serif" font-size="14" font-weight="bold" lengthAdjust="spacing" textLength="90" x="15" y="197.5234">combination</text><text fill="#000000" font-family="sans-serif" font-size="14" lengthAdjust="spacing" textLength="52" x="149" y="197.5234">jobTitle</text><line style="stroke:#000000;stroke-width:1.0;" x1="144" x2="144" y1="181.9883" y2="202.4766"/><line style="stroke:#000000;stroke-width:1.0;" x1="10" x2="206" y1="202.4766" y2="202.4766"/><text fill="#000000" font-family="sans-serif" font-size="14" font-weight="bold" lengthAdjust="spacing" textLength="121" x="15" y="218.0117">null_distribution</text><text fill="#000000" font-family="sans-serif" font-size="14" lengthAdjust="spacing" textLength="12" x="149" y="218.0117">   </text><line style="stroke:#000000;stroke-width:1.0;" x1="144" x2="144" y1="202.4766" y2="222.9648"/><line style="stroke:#000000;stroke-width:1.0;" x1="10" x2="206" y1="222.9648" y2="222.9648"/><text fill="#000000" font-family="sans-serif" font-size="14" font-weight="bold" lengthAdjust="spacing" textLength="124" x="15" y="238.5">data_distribution</text><text fill="#000000" font-family="sans-serif" font-size="14" lengthAdjust="spacing" textLength="12" x="149" y="238.5">   </text><line style="stroke:#000000;stroke-width:1.0;" x1="144" x2="144" y1="222.9648" y2="243.4531"/><rect fill="none" height="81.9531" rx="5" ry="5" style="stroke:#000000;stroke-width:1.5;" width="196" x="10" y="161.5"/><rect fill="#F1F1F1" height="40.9766" rx="5" ry="5" style="stroke:#F1F1F1;stroke-width:1.5;" width="180" x="243" y="148"/><text fill="#000000" font-family="sans-serif" font-size="14" font-weight="bold" lengthAdjust="spacing" textLength="111" x="248" y="163.5352">total_null_rows</text><text fill="#000000" font-family="sans-serif" font-size="14" lengthAdjust="spacing" textLength="9" x="400" y="163.5352">0</text><line style="stroke:#000000;stroke-width:1.0;" x1="395" x2="395" y1="148" y2="168.4883"/><line style="stroke:#000000;stroke-width:1.0;" x1="243" x2="423" y1="168.4883" y2="168.4883"/><text fill="#000000" font-family="sans-serif" font-size="14" font-weight="bold" lengthAdjust="spacing" textLength="142" x="248" y="184.0234">total_not_null_rows</text><text fill="#000000" font-family="sans-serif" font-size="14" lengthAdjust="spacing" textLength="18" x="400" y="184.0234">23</text><line style="stroke:#000000;stroke-width:1.0;" x1="395" x2="395" y1="168.4883" y2="188.9766"/><rect fill="none" height="40.9766" rx="5" ry="5" style="stroke:#000000;stroke-width:1.5;" width="180" x="243" y="148"/><rect fill="#F1F1F1" height="143.418" rx="5" ry="5" style="stroke:#F1F1F1;stroke-width:1.5;" width="22" x="321" y="207"/><text fill="#000000" font-family="sans-serif" font-size="14" lengthAdjust="spacing" textLength="12" x="326" y="222.5352">   </text><line style="stroke:#000000;stroke-width:1.0;" x1="321" x2="343" y1="227.4883" y2="227.4883"/><text fill="#000000" font-family="sans-serif" font-size="14" lengthAdjust="spacing" textLength="12" x="326" y="243.0234">   </text><line style="stroke:#000000;stroke-width:1.0;" x1="321" x2="343" y1="247.9766" y2="247.9766"/><text fill="#000000" font-family="sans-serif" font-size="14" lengthAdjust="spacing" textLength="12" x="326" y="263.5117">   </text><line style="stroke:#000000;stroke-width:1.0;" x1="321" x2="343" y1="268.4648" y2="268.4648"/><text fill="#000000" font-family="sans-serif" font-size="14" lengthAdjust="spacing" textLength="12" x="326" y="284">   </text><line style="stroke:#000000;stroke-width:1.0;" x1="321" x2="343" y1="288.9531" y2="288.9531"/><text fill="#000000" font-family="sans-serif" font-size="14" lengthAdjust="spacing" textLength="12" x="326" y="304.4883">   </text><line style="stroke:#000000;stroke-width:1.0;" x1="321" x2="343" y1="309.4414" y2="309.4414"/><text fill="#000000" font-family="sans-serif" font-size="14" lengthAdjust="spacing" textLength="12" x="326" y="324.9766">   </text><line style="stroke:#000000;stroke-width:1.0;" x1="321" x2="343" y1="329.9297" y2="329.9297"/><text fill="#000000" font-family="sans-serif" font-size="14" lengthAdjust="spacing" textLength="12" x="326" y="345.4648">   </text><rect fill="none" height="143.418" rx="5" ry="5" style="stroke:#000000;stroke-width:1.5;" width="22" x="321" y="207"/><rect fill="#F1F1F1" height="61.4648" rx="5" ry="5" style="stroke:#F1F1F1;stroke-width:1.5;" width="262" x="464.5" y="10"/><text fill="#000000" font-family="sans-serif" font-size="14" font-weight="bold" lengthAdjust="spacing" textLength="78" x="469.5" y="25.5352">field_value</text><text fill="#000000" font-family="sans-serif" font-size="14" lengthAdjust="spacing" textLength="65" x="573.5" y="25.5352">Sales Rep</text><line style="stroke:#000000;stroke-width:1.0;" x1="568.5" x2="568.5" y1="10" y2="30.4883"/><line style="stroke:#000000;stroke-width:1.0;" x1="464.5" x2="726.5" y1="30.4883" y2="30.4883"/><text fill="#000000" font-family="sans-serif" font-size="14" font-weight="bold" lengthAdjust="spacing" textLength="74" x="469.5" y="46.0234">row_count</text><text fill="#000000" font-family="sans-serif" font-size="14" lengthAdjust="spacing" textLength="18" x="573.5" y="46.0234">17</text><line style="stroke:#000000;stroke-width:1.0;" x1="568.5" x2="568.5" y1="30.4883" y2="50.9766"/><line style="stroke:#000000;stroke-width:1.0;" x1="464.5" x2="726.5" y1="50.9766" y2="50.9766"/><text fill="#000000" font-family="sans-serif" font-size="14" font-weight="bold" lengthAdjust="spacing" textLength="94" x="469.5" y="66.5117">ratio_percent</text><text fill="#000000" font-family="sans-serif" font-size="14" lengthAdjust="spacing" textLength="148" x="573.5" y="66.5117">73.91304347826087</text><line style="stroke:#000000;stroke-width:1.0;" x1="568.5" x2="568.5" y1="50.9766" y2="71.4648"/><rect fill="none" height="61.4648" rx="5" ry="5" style="stroke:#000000;stroke-width:1.5;" width="262" x="464.5" y="10"/><rect fill="#F1F1F1" height="61.4648" rx="5" ry="5" style="stroke:#F1F1F1;stroke-width:1.5;" width="271" x="460" y="89"/><text fill="#000000" font-family="sans-serif" font-size="14" font-weight="bold" lengthAdjust="spacing" textLength="78" x="465" y="104.5352">field_value</text><text fill="#000000" font-family="sans-serif" font-size="14" lengthAdjust="spacing" textLength="90" x="569" y="104.5352">VP Marketing</text><line style="stroke:#000000;stroke-width:1.0;" x1="564" x2="564" y1="89" y2="109.4883"/><line style="stroke:#000000;stroke-width:1.0;" x1="460" x2="731" y1="109.4883" y2="109.4883"/><text fill="#000000" font-family="sans-serif" font-size="14" font-weight="bold" lengthAdjust="spacing" textLength="74" x="465" y="125.0234">row_count</text><text fill="#000000" font-family="sans-serif" font-size="14" lengthAdjust="spacing" textLength="9" x="569" y="125.0234">1</text><line style="stroke:#000000;stroke-width:1.0;" x1="564" x2="564" y1="109.4883" y2="129.9766"/><line style="stroke:#000000;stroke-width:1.0;" x1="460" x2="731" y1="129.9766" y2="129.9766"/><text fill="#000000" font-family="sans-serif" font-size="14" font-weight="bold" lengthAdjust="spacing" textLength="94" x="465" y="145.5117">ratio_percent</text><text fill="#000000" font-family="sans-serif" font-size="14" lengthAdjust="spacing" textLength="157" x="569" y="145.5117">4.3478260869565215</text><line style="stroke:#000000;stroke-width:1.0;" x1="564" x2="564" y1="129.9766" y2="150.4648"/><rect fill="none" height="61.4648" rx="5" ry="5" style="stroke:#000000;stroke-width:1.5;" width="271" x="460" y="89"/><rect fill="#F1F1F1" height="61.4648" rx="5" ry="5" style="stroke:#F1F1F1;stroke-width:1.5;" width="271" x="460" y="168"/><text fill="#000000" font-family="sans-serif" font-size="14" font-weight="bold" lengthAdjust="spacing" textLength="78" x="465" y="183.5352">field_value</text><text fill="#000000" font-family="sans-serif" font-size="14" lengthAdjust="spacing" textLength="56" x="569" y="183.5352">VP Sales</text><line style="stroke:#000000;stroke-width:1.0;" x1="564" x2="564" y1="168" y2="188.4883"/><line style="stroke:#000000;stroke-width:1.0;" x1="460" x2="731" y1="188.4883" y2="188.4883"/><text fill="#000000" font-family="sans-serif" font-size="14" font-weight="bold" lengthAdjust="spacing" textLength="74" x="465" y="204.0234">row_count</text><text fill="#000000" font-family="sans-serif" font-size="14" lengthAdjust="spacing" textLength="9" x="569" y="204.0234">1</text><line style="stroke:#000000;stroke-width:1.0;" x1="564" x2="564" y1="188.4883" y2="208.9766"/><line style="stroke:#000000;stroke-width:1.0;" x1="460" x2="731" y1="208.9766" y2="208.9766"/><text fill="#000000" font-family="sans-serif" font-size="14" font-weight="bold" lengthAdjust="spacing" textLength="94" x="465" y="224.5117">ratio_percent</text><text fill="#000000" font-family="sans-serif" font-size="14" lengthAdjust="spacing" textLength="157" x="569" y="224.5117">4.3478260869565215</text><line style="stroke:#000000;stroke-width:1.0;" x1="564" x2="564" y1="208.9766" y2="229.4648"/><rect fill="none" height="61.4648" rx="5" ry="5" style="stroke:#000000;stroke-width:1.5;" width="271" x="460" y="168"/><rect fill="#F1F1F1" height="61.4648" rx="5" ry="5" style="stroke:#F1F1F1;stroke-width:1.5;" width="271" x="460" y="247"/><text fill="#000000" font-family="sans-serif" font-size="14" font-weight="bold" lengthAdjust="spacing" textLength="78" x="465" y="262.5352">field_value</text><text fill="#000000" font-family="sans-serif" font-size="14" lengthAdjust="spacing" textLength="64" x="569" y="262.5352">President</text><line style="stroke:#000000;stroke-width:1.0;" x1="564" x2="564" y1="247" y2="267.4883"/><line style="stroke:#000000;stroke-width:1.0;" x1="460" x2="731" y1="267.4883" y2="267.4883"/><text fill="#000000" font-family="sans-serif" font-size="14" font-weight="bold" lengthAdjust="spacing" textLength="74" x="465" y="283.0234">row_count</text><text fill="#000000" font-family="sans-serif" font-size="14" lengthAdjust="spacing" textLength="9" x="569" y="283.0234">1</text><line style="stroke:#000000;stroke-width:1.0;" x1="564" x2="564" y1="267.4883" y2="287.9766"/><line style="stroke:#000000;stroke-width:1.0;" x1="460" x2="731" y1="287.9766" y2="287.9766"/><text fill="#000000" font-family="sans-serif" font-size="14" font-weight="bold" lengthAdjust="spacing" textLength="94" x="465" y="303.5117">ratio_percent</text><text fill="#000000" font-family="sans-serif" font-size="14" lengthAdjust="spacing" textLength="157" x="569" y="303.5117">4.3478260869565215</text><line style="stroke:#000000;stroke-width:1.0;" x1="564" x2="564" y1="287.9766" y2="308.4648"/><rect fill="none" height="61.4648" rx="5" ry="5" style="stroke:#000000;stroke-width:1.5;" width="271" x="460" y="247"/><rect fill="#F1F1F1" height="61.4648" rx="5" ry="5" style="stroke:#F1F1F1;stroke-width:1.5;" width="271" x="460" y="326"/><text fill="#000000" font-family="sans-serif" font-size="14" font-weight="bold" lengthAdjust="spacing" textLength="78" x="465" y="341.5352">field_value</text><text fill="#000000" font-family="sans-serif" font-size="14" lengthAdjust="spacing" textLength="133" x="569" y="341.5352">Sales Manager (NA)</text><line style="stroke:#000000;stroke-width:1.0;" x1="564" x2="564" y1="326" y2="346.4883"/><line style="stroke:#000000;stroke-width:1.0;" x1="460" x2="731" y1="346.4883" y2="346.4883"/><text fill="#000000" font-family="sans-serif" font-size="14" font-weight="bold" lengthAdjust="spacing" textLength="74" x="465" y="362.0234">row_count</text><text fill="#000000" font-family="sans-serif" font-size="14" lengthAdjust="spacing" textLength="9" x="569" y="362.0234">1</text><line style="stroke:#000000;stroke-width:1.0;" x1="564" x2="564" y1="346.4883" y2="366.9766"/><line style="stroke:#000000;stroke-width:1.0;" x1="460" x2="731" y1="366.9766" y2="366.9766"/><text fill="#000000" font-family="sans-serif" font-size="14" font-weight="bold" lengthAdjust="spacing" textLength="94" x="465" y="382.5117">ratio_percent</text><text fill="#000000" font-family="sans-serif" font-size="14" lengthAdjust="spacing" textLength="157" x="569" y="382.5117">4.3478260869565215</text><line style="stroke:#000000;stroke-width:1.0;" x1="564" x2="564" y1="366.9766" y2="387.4648"/><rect fill="none" height="61.4648" rx="5" ry="5" style="stroke:#000000;stroke-width:1.5;" width="271" x="460" y="326"/><rect fill="#F1F1F1" height="61.4648" rx="5" ry="5" style="stroke:#F1F1F1;stroke-width:1.5;" width="271" x="460" y="405"/><text fill="#000000" font-family="sans-serif" font-size="14" font-weight="bold" lengthAdjust="spacing" textLength="78" x="465" y="420.5352">field_value</text><text fill="#000000" font-family="sans-serif" font-size="14" lengthAdjust="spacing" textLength="144" x="569" y="420.5352">Sale Manager (EMEA)</text><line style="stroke:#000000;stroke-width:1.0;" x1="564" x2="564" y1="405" y2="425.4883"/><line style="stroke:#000000;stroke-width:1.0;" x1="460" x2="731" y1="425.4883" y2="425.4883"/><text fill="#000000" font-family="sans-serif" font-size="14" font-weight="bold" lengthAdjust="spacing" textLength="74" x="465" y="441.0234">row_count</text><text fill="#000000" font-family="sans-serif" font-size="14" lengthAdjust="spacing" textLength="9" x="569" y="441.0234">1</text><line style="stroke:#000000;stroke-width:1.0;" x1="564" x2="564" y1="425.4883" y2="445.9766"/><line style="stroke:#000000;stroke-width:1.0;" x1="460" x2="731" y1="445.9766" y2="445.9766"/><text fill="#000000" font-family="sans-serif" font-size="14" font-weight="bold" lengthAdjust="spacing" textLength="94" x="465" y="461.5117">ratio_percent</text><text fill="#000000" font-family="sans-serif" font-size="14" lengthAdjust="spacing" textLength="157" x="569" y="461.5117">4.3478260869565215</text><line style="stroke:#000000;stroke-width:1.0;" x1="564" x2="564" y1="445.9766" y2="466.4648"/><rect fill="none" height="61.4648" rx="5" ry="5" style="stroke:#000000;stroke-width:1.5;" width="271" x="460" y="405"/><rect fill="#F1F1F1" height="61.4648" rx="5" ry="5" style="stroke:#F1F1F1;stroke-width:1.5;" width="271" x="460" y="484"/><text fill="#000000" font-family="sans-serif" font-size="14" font-weight="bold" lengthAdjust="spacing" textLength="78" x="465" y="499.5352">field_value</text><text fill="#000000" font-family="sans-serif" font-size="14" lengthAdjust="spacing" textLength="151" x="569" y="499.5352">Sales Manager (APAC)</text><line style="stroke:#000000;stroke-width:1.0;" x1="564" x2="564" y1="484" y2="504.4883"/><line style="stroke:#000000;stroke-width:1.0;" x1="460" x2="731" y1="504.4883" y2="504.4883"/><text fill="#000000" font-family="sans-serif" font-size="14" font-weight="bold" lengthAdjust="spacing" textLength="74" x="465" y="520.0234">row_count</text><text fill="#000000" font-family="sans-serif" font-size="14" lengthAdjust="spacing" textLength="9" x="569" y="520.0234">1</text><line style="stroke:#000000;stroke-width:1.0;" x1="564" x2="564" y1="504.4883" y2="524.9766"/><line style="stroke:#000000;stroke-width:1.0;" x1="460" x2="731" y1="524.9766" y2="524.9766"/><text fill="#000000" font-family="sans-serif" font-size="14" font-weight="bold" lengthAdjust="spacing" textLength="94" x="465" y="540.5117">ratio_percent</text><text fill="#000000" font-family="sans-serif" font-size="14" lengthAdjust="spacing" textLength="157" x="569" y="540.5117">4.3478260869565215</text><line style="stroke:#000000;stroke-width:1.0;" x1="564" x2="564" y1="524.9766" y2="545.4648"/><rect fill="none" height="61.4648" rx="5" ry="5" style="stroke:#000000;stroke-width:1.5;" width="271" x="460" y="484"/><path d="M194,212.5 L207,212.5 C224.1673,212.5 226.8568,204.3408 243,198.5 C249.3375,196.207 255.9484,193.8766 262.5816,191.5798 " fill="none" style="stroke:#000000;stroke-width:1.0;stroke-dasharray:3.0,3.0;"/><path d="M263.5718,194.4576 L264.7399,190.8372 L261.5913,188.7021 L269.776,189.1042 L263.5718,194.4576 " fill="#000000" style="stroke:#000000;stroke-width:1.0;"/><ellipse cx="194" cy="212.5" fill="#000000" rx="3" ry="3" style="stroke:#000000;stroke-width:1.0;"/><path d="M333.5,216.5 L346.5,216.5 C381.8613,216.5 398.1898,222.6713 424,198.5 C464.3314,160.7295 420.6839,118.3263 460,79.5 C461.2341,78.2813 462.5037,77.1002 463.806,75.9556 " fill="none" style="stroke:#000000;stroke-width:1.0;stroke-dasharray:3.0,3.0;"/><path d="M465.7215,78.3196 L465.579,74.519 L461.8905,73.5916 L469.7161,71.167 L465.7215,78.3196 " fill="#000000" style="stroke:#000000;stroke-width:1.0;"/><ellipse cx="333.5" cy="216.5" fill="#000000" rx="3" ry="3" style="stroke:#000000;stroke-width:1.0;"/><path d="M333.5,236.5 L346.5,236.5 C384.8621,236.5 393.2442,221.429 424,198.5 C442.9119,184.4009 439.973,171.9645 460,159.5 C463.3513,157.4142 466.8171,155.4323 470.3694,153.5497 " fill="none" style="stroke:#000000;stroke-width:1.0;stroke-dasharray:3.0,3.0;"/><path d="M471.7692,156.322 L472.4486,152.4998 L468.9696,150.7773 L477.3002,150.0501 L471.7692,156.322 " fill="#000000" style="stroke:#000000;stroke-width:1.0;"/><ellipse cx="333.5" cy="236.5" fill="#000000" rx="3" ry="3" style="stroke:#000000;stroke-width:1.0;"/><path d="M333.5,257.5 L346.5,257.5 C372.9686,257.5 428.7937,244.6687 480.8383,230.9738 " fill="none" style="stroke:#000000;stroke-width:1.0;stroke-dasharray:3.0,3.0;"/><path d="M481.6131,233.8999 L483.0329,230.3927 L480.0636,228.0477 L488.1535,229.0369 L481.6131,233.8999 " fill="#000000" style="stroke:#000000;stroke-width:1.0;"/><ellipse cx="333.5" cy="257.5" fill="#000000" rx="3" ry="3" style="stroke:#000000;stroke-width:1.0;"/><path d="M333.5,277.5 L346.5,277.5 C380.7931,277.5 417.7483,277.5 452.4061,277.5 " fill="none" style="stroke:#000000;stroke-width:1.0;stroke-dasharray:3.0,3.0;"/><path d="M452.4061,280.6288 L454.7526,277.5 L452.4061,274.3712 L460.228,277.5 L452.4061,280.6288 " fill="#000000" style="stroke:#000000;stroke-width:1.0;"/><ellipse cx="333.5" cy="277.5" fill="#000000" rx="3" ry="3" style="stroke:#000000;stroke-width:1.0;"/><path d="M333.5,298.5 L346.5,298.5 C372.5741,298.5 427.2088,310.7626 478.6266,324.0109 " fill="none" style="stroke:#000000;stroke-width:1.0;stroke-dasharray:3.0,3.0;"/><path d="M477.8424,327.0345 L480.8944,324.599 L479.4108,320.9872 L486.1857,325.9713 L477.8424,327.0345 " fill="#000000" style="stroke:#000000;stroke-width:1.0;"/><ellipse cx="333.5" cy="298.5" fill="#000000" rx="3" ry="3" style="stroke:#000000;stroke-width:1.0;"/><path d="M333.5,319.5 L346.5,319.5 C407.4574,319.5 404.814,370.6097 460,396.5 C464.2033,398.4719 468.5277,400.3662 472.932,402.1835 " fill="none" style="stroke:#000000;stroke-width:1.0;stroke-dasharray:3.0,3.0;"/><path d="M471.815,404.9759 L475.0262,403.0213 L474.0489,399.3912 L479.9128,404.976 L471.815,404.9759 " fill="#000000" style="stroke:#000000;stroke-width:1.0;"/><ellipse cx="333.5" cy="319.5" fill="#000000" rx="3" ry="3" style="stroke:#000000;stroke-width:1.0;"/><path d="M333.5,339.5 L346.5,339.5 C425.2285,339.5 394.0726,432.468 460,475.5 C462.4419,477.0939 464.9501,478.624 467.5131,480.0927 " fill="none" style="stroke:#000000;stroke-width:1.0;stroke-dasharray:3.0,3.0;"/><path d="M466.0146,482.8544 L469.5844,481.2166 L469.0116,477.331 L474.4175,483.839 L466.0146,482.8544 " fill="#000000" style="stroke:#000000;stroke-width:1.0;"/><ellipse cx="333.5" cy="339.5" fill="#000000" rx="3" ry="3" style="stroke:#000000;stroke-width:1.0;"/><path d="M194,233.5 L207,233.5 C247.2749,233.5 290.779,254.2889 314.5166,267.6068 " fill="none" style="stroke:#000000;stroke-width:1.0;stroke-dasharray:3.0,3.0;"/><path d="M312.9718,270.2895 L316.5286,268.7654 L316.0614,264.924 L321.2234,271.4688 L312.9718,270.2895 " fill="#000000" style="stroke:#000000;stroke-width:1.0;"/><ellipse cx="194" cy="233.5" fill="#000000" rx="3" ry="3" style="stroke:#000000;stroke-width:1.0;"/><!--MD5=[b1d3ffb3a9e1d79818d8868a4fae32a1]
@startjson
{
    "field1": "jobTitle",
    "combination": "jobTitle",
    "null_distribution": {
        "total_null_rows": 0,
        "total_not_null_rows": 23
    },
    "data_distribution": [
        {
            "field_value": "Sales Rep",
            "row_count": 17,
            "ratio_percent": 73.91304347826087
        },
        {
            "field_value": "VP Marketing",
            "row_count": 1,
            "ratio_percent": 4.3478260869565215
        },
        {
            "field_value": "VP Sales",
            "row_count": 1,
            "ratio_percent": 4.3478260869565215
        },
        {
            "field_value": "President",
            "row_count": 1,
            "ratio_percent": 4.3478260869565215
        },
        {
            "field_value": "Sales Manager (NA)",
            "row_count": 1,
            "ratio_percent": 4.3478260869565215
        },
        {
            "field_value": "Sale Manager (EMEA)",
            "row_count": 1,
            "ratio_percent": 4.3478260869565215
        },
        {
            "field_value": "Sales Manager (APAC)",
            "row_count": 1,
            "ratio_percent": 4.3478260869565215
        }
    ]
}
@endjson

PlantUML version 1.2022.5(Sat Apr 30 06:55:52 EDT 2022)
(GPL source distribution)
Java Runtime: OpenJDK Runtime Environment
JVM: OpenJDK 64-Bit Server VM
Default Encoding: UTF-8
Language: en
Country: CA
--></g></svg>