<?xml version="1.0" encoding="UTF-8" standalone="no"?><svg xmlns="http://www.w3.org/2000/svg" xmlns:xlink="http://www.w3.org/1999/xlink" contentStyleType="text/css" height="794px" preserveAspectRatio="none" style="width:754px;height:794px;background:#FFFFFF;" version="1.1" viewBox="0 0 754 794" width="754px" zoomAndPan="magnify"><defs/><g><rect fill="#F1F1F1" height="81.9531" rx="5" ry="5" style="stroke:#F1F1F1;stroke-width:1.5;" width="207" x="10" y="264.5"/><text fill="#000000" font-family="sans-serif" font-size="14" font-weight="bold" lengthAdjust="spacing" textLength="42" x="15" y="280.0352">field1</text><text fill="#000000" font-family="sans-serif" font-size="14" lengthAdjust="spacing" textLength="63" x="149" y="280.0352">lastName</text><line style="stroke:#000000;stroke-width:1.0;" x1="144" x2="144" y1="264.5" y2="284.9883"/><line style="stroke:#000000;stroke-width:1.0;" x1="10" x2="217" y1="284.9883" y2="284.9883"/><text fill="#000000" font-family="sans-serif" font-size="14" font-weight="bold" lengthAdjust="spacing" textLength="90" x="15" y="300.5234">combination</text><text fill="#000000" font-family="sans-serif" font-size="14" lengthAdjust="spacing" textLength="63" x="149" y="300.5234">lastName</text><line style="stroke:#000000;stroke-width:1.0;" x1="144" x2="144" y1="284.9883" y2="305.4766"/><line style="stroke:#000000;stroke-width:1.0;" x1="10" x2="217" y1="305.4766" y2="305.4766"/><text fill="#000000" font-family="sans-serif" font-size="14" font-weight="bold" lengthAdjust="spacing" textLength="121" x="15" y="321.0117">null_distribution</text><text fill="#000000" font-family="sans-serif" font-size="14" lengthAdjust="spacing" textLength="12" x="149" y="321.0117">   </text><line style="stroke:#000000;stroke-width:1.0;" x1="144" x2="144" y1="305.4766" y2="325.9648"/><line style="stroke:#000000;stroke-width:1.0;" x1="10" x2="217" y1="325.9648" y2="325.9648"/><text fill="#000000" font-family="sans-serif" font-size="14" font-weight="bold" lengthAdjust="spacing" textLength="124" x="15" y="341.5">data_distribution</text><text fill="#000000" font-family="sans-serif" font-size="14" lengthAdjust="spacing" textLength="12" x="149" y="341.5">   </text><line style="stroke:#000000;stroke-width:1.0;" x1="144" x2="144" y1="325.9648" y2="346.4531"/><rect fill="none" height="81.9531" rx="5" ry="5" style="stroke:#000000;stroke-width:1.5;" width="207" x="10" y="264.5"/><rect fill="#F1F1F1" height="40.9766" rx="5" ry="5" style="stroke:#F1F1F1;stroke-width:1.5;" width="180" x="254" y="235"/><text fill="#000000" font-family="sans-serif" font-size="14" font-weight="bold" lengthAdjust="spacing" textLength="111" x="259" y="250.5352">total_null_rows</text><text fill="#000000" font-family="sans-serif" font-size="14" lengthAdjust="spacing" textLength="9" x="411" y="250.5352">0</text><line style="stroke:#000000;stroke-width:1.0;" x1="406" x2="406" y1="235" y2="255.4883"/><line style="stroke:#000000;stroke-width:1.0;" x1="254" x2="434" y1="255.4883" y2="255.4883"/><text fill="#000000" font-family="sans-serif" font-size="14" font-weight="bold" lengthAdjust="spacing" textLength="142" x="259" y="271.0234">total_not_null_rows</text><text fill="#000000" font-family="sans-serif" font-size="14" lengthAdjust="spacing" textLength="18" x="411" y="271.0234">23</text><line style="stroke:#000000;stroke-width:1.0;" x1="406" x2="406" y1="255.4883" y2="275.9766"/><rect fill="none" height="40.9766" rx="5" ry="5" style="stroke:#000000;stroke-width:1.5;" width="180" x="254" y="235"/><rect fill="#F1F1F1" height="204.8828" rx="5" ry="5" style="stroke:#F1F1F1;stroke-width:1.5;" width="22" x="332" y="294"/><text fill="#000000" font-family="sans-serif" font-size="14" lengthAdjust="spacing" textLength="12" x="337" y="309.5352">   </text><line style="stroke:#000000;stroke-width:1.0;" x1="332" x2="354" y1="314.4883" y2="314.4883"/><text fill="#000000" font-family="sans-serif" font-size="14" lengthAdjust="spacing" textLength="12" x="337" y="330.0234">   </text><line style="stroke:#000000;stroke-width:1.0;" x1="332" x2="354" y1="334.9766" y2="334.9766"/><text fill="#000000" font-family="sans-serif" font-size="14" lengthAdjust="spacing" textLength="12" x="337" y="350.5117">   </text><line style="stroke:#000000;stroke-width:1.0;" x1="332" x2="354" y1="355.4648" y2="355.4648"/><text fill="#000000" font-family="sans-serif" font-size="14" lengthAdjust="spacing" textLength="12" x="337" y="371">   </text><line style="stroke:#000000;stroke-width:1.0;" x1="332" x2="354" y1="375.9531" y2="375.9531"/><text fill="#000000" font-family="sans-serif" font-size="14" lengthAdjust="spacing" textLength="12" x="337" y="391.4883">   </text><line style="stroke:#000000;stroke-width:1.0;" x1="332" x2="354" y1="396.4414" y2="396.4414"/><text fill="#000000" font-family="sans-serif" font-size="14" lengthAdjust="spacing" textLength="12" x="337" y="411.9766">   </text><line style="stroke:#000000;stroke-width:1.0;" x1="332" x2="354" y1="416.9297" y2="416.9297"/><text fill="#000000" font-family="sans-serif" font-size="14" lengthAdjust="spacing" textLength="12" x="337" y="432.4648">   </text><line style="stroke:#000000;stroke-width:1.0;" x1="332" x2="354" y1="437.418" y2="437.418"/><text fill="#000000" font-family="sans-serif" font-size="14" lengthAdjust="spacing" textLength="12" x="337" y="452.9531">   </text><line style="stroke:#000000;stroke-width:1.0;" x1="332" x2="354" y1="457.9063" y2="457.9063"/><text fill="#000000" font-family="sans-serif" font-size="14" lengthAdjust="spacing" textLength="12" x="337" y="473.4414">   </text><line style="stroke:#000000;stroke-width:1.0;" x1="332" x2="354" y1="478.3945" y2="478.3945"/><text fill="#000000" font-family="sans-serif" font-size="14" lengthAdjust="spacing" textLength="12" x="337" y="493.9297">   </text><rect fill="none" height="204.8828" rx="5" ry="5" style="stroke:#000000;stroke-width:1.5;" width="22" x="332" y="294"/><rect fill="#F1F1F1" height="61.4648" rx="5" ry="5" style="stroke:#F1F1F1;stroke-width:1.5;" width="271" x="471" y="10"/><text fill="#000000" font-family="sans-serif" font-size="14" font-weight="bold" lengthAdjust="spacing" textLength="78" x="476" y="25.5352">field_value</text><text fill="#000000" font-family="sans-serif" font-size="14" lengthAdjust="spacing" textLength="65" x="580" y="25.5352">Patterson</text><line style="stroke:#000000;stroke-width:1.0;" x1="575" x2="575" y1="10" y2="30.4883"/><line style="stroke:#000000;stroke-width:1.0;" x1="471" x2="742" y1="30.4883" y2="30.4883"/><text fill="#000000" font-family="sans-serif" font-size="14" font-weight="bold" lengthAdjust="spacing" textLength="74" x="476" y="46.0234">row_count</text><text fill="#000000" font-family="sans-serif" font-size="14" lengthAdjust="spacing" textLength="9" x="580" y="46.0234">3</text><line style="stroke:#000000;stroke-width:1.0;" x1="575" x2="575" y1="30.4883" y2="50.9766"/><line style="stroke:#000000;stroke-width:1.0;" x1="471" x2="742" y1="50.9766" y2="50.9766"/><text fill="#000000" font-family="sans-serif" font-size="14" font-weight="bold" lengthAdjust="spacing" textLength="94" x="476" y="66.5117">ratio_percent</text><text fill="#000000" font-family="sans-serif" font-size="14" lengthAdjust="spacing" textLength="157" x="580" y="66.5117">13.043478260869565</text><line style="stroke:#000000;stroke-width:1.0;" x1="575" x2="575" y1="50.9766" y2="71.4648"/><rect fill="none" height="61.4648" rx="5" ry="5" style="stroke:#000000;stroke-width:1.5;" width="271" x="471" y="10"/><rect fill="#F1F1F1" height="61.4648" rx="5" ry="5" style="stroke:#F1F1F1;stroke-width:1.5;" width="262" x="475.5" y="89"/><text fill="#000000" font-family="sans-serif" font-size="14" font-weight="bold" lengthAdjust="spacing" textLength="78" x="480.5" y="104.5352">field_value</text><text fill="#000000" font-family="sans-serif" font-size="14" lengthAdjust="spacing" textLength="50" x="584.5" y="104.5352">Bondur</text><line style="stroke:#000000;stroke-width:1.0;" x1="579.5" x2="579.5" y1="89" y2="109.4883"/><line style="stroke:#000000;stroke-width:1.0;" x1="475.5" x2="737.5" y1="109.4883" y2="109.4883"/><text fill="#000000" font-family="sans-serif" font-size="14" font-weight="bold" lengthAdjust="spacing" textLength="74" x="480.5" y="125.0234">row_count</text><text fill="#000000" font-family="sans-serif" font-size="14" lengthAdjust="spacing" textLength="9" x="584.5" y="125.0234">2</text><line style="stroke:#000000;stroke-width:1.0;" x1="579.5" x2="579.5" y1="109.4883" y2="129.9766"/><line style="stroke:#000000;stroke-width:1.0;" x1="475.5" x2="737.5" y1="129.9766" y2="129.9766"/><text fill="#000000" font-family="sans-serif" font-size="14" font-weight="bold" lengthAdjust="spacing" textLength="94" x="480.5" y="145.5117">ratio_percent</text><text fill="#000000" font-family="sans-serif" font-size="14" lengthAdjust="spacing" textLength="148" x="584.5" y="145.5117">8.695652173913043</text><line style="stroke:#000000;stroke-width:1.0;" x1="579.5" x2="579.5" y1="129.9766" y2="150.4648"/><rect fill="none" height="61.4648" rx="5" ry="5" style="stroke:#000000;stroke-width:1.5;" width="262" x="475.5" y="89"/><rect fill="#F1F1F1" height="61.4648" rx="5" ry="5" style="stroke:#F1F1F1;stroke-width:1.5;" width="262" x="475.5" y="168"/><text fill="#000000" font-family="sans-serif" font-size="14" font-weight="bold" lengthAdjust="spacing" textLength="78" x="480.5" y="183.5352">field_value</text><text fill="#000000" font-family="sans-serif" font-size="14" lengthAdjust="spacing" textLength="44" x="584.5" y="183.5352">Firrelli</text><line style="stroke:#000000;stroke-width:1.0;" x1="579.5" x2="579.5" y1="168" y2="188.4883"/><line style="stroke:#000000;stroke-width:1.0;" x1="475.5" x2="737.5" y1="188.4883" y2="188.4883"/><text fill="#000000" font-family="sans-serif" font-size="14" font-weight="bold" lengthAdjust="spacing" textLength="74" x="480.5" y="204.0234">row_count</text><text fill="#000000" font-family="sans-serif" font-size="14" lengthAdjust="spacing" textLength="9" x="584.5" y="204.0234">2</text><line style="stroke:#000000;stroke-width:1.0;" x1="579.5" x2="579.5" y1="188.4883" y2="208.9766"/><line style="stroke:#000000;stroke-width:1.0;" x1="475.5" x2="737.5" y1="208.9766" y2="208.9766"/><text fill="#000000" font-family="sans-serif" font-size="14" font-weight="bold" lengthAdjust="spacing" textLength="94" x="480.5" y="224.5117">ratio_percent</text><text fill="#000000" font-family="sans-serif" font-size="14" lengthAdjust="spacing" textLength="148" x="584.5" y="224.5117">8.695652173913043</text><line style="stroke:#000000;stroke-width:1.0;" x1="579.5" x2="579.5" y1="208.9766" y2="229.4648"/><rect fill="none" height="61.4648" rx="5" ry="5" style="stroke:#000000;stroke-width:1.5;" width="262" x="475.5" y="168"/><rect fill="#F1F1F1" height="61.4648" rx="5" ry="5" style="stroke:#F1F1F1;stroke-width:1.5;" width="271" x="471" y="247"/><text fill="#000000" font-family="sans-serif" font-size="14" font-weight="bold" lengthAdjust="spacing" textLength="78" x="476" y="262.5352">field_value</text><text fill="#000000" font-family="sans-serif" font-size="14" lengthAdjust="spacing" textLength="51" x="580" y="262.5352">Castillo</text><line style="stroke:#000000;stroke-width:1.0;" x1="575" x2="575" y1="247" y2="267.4883"/><line style="stroke:#000000;stroke-width:1.0;" x1="471" x2="742" y1="267.4883" y2="267.4883"/><text fill="#000000" font-family="sans-serif" font-size="14" font-weight="bold" lengthAdjust="spacing" textLength="74" x="476" y="283.0234">row_count</text><text fill="#000000" font-family="sans-serif" font-size="14" lengthAdjust="spacing" textLength="9" x="580" y="283.0234">1</text><line style="stroke:#000000;stroke-width:1.0;" x1="575" x2="575" y1="267.4883" y2="287.9766"/><line style="stroke:#000000;stroke-width:1.0;" x1="471" x2="742" y1="287.9766" y2="287.9766"/><text fill="#000000" font-family="sans-serif" font-size="14" font-weight="bold" lengthAdjust="spacing" textLength="94" x="476" y="303.5117">ratio_percent</text><text fill="#000000" font-family="sans-serif" font-size="14" lengthAdjust="spacing" textLength="157" x="580" y="303.5117">4.3478260869565215</text><line style="stroke:#000000;stroke-width:1.0;" x1="575" x2="575" y1="287.9766" y2="308.4648"/><rect fill="none" height="61.4648" rx="5" ry="5" style="stroke:#000000;stroke-width:1.5;" width="271" x="471" y="247"/><rect fill="#F1F1F1" height="61.4648" rx="5" ry="5" style="stroke:#F1F1F1;stroke-width:1.5;" width="271" x="471" y="326"/><text fill="#000000" font-family="sans-serif" font-size="14" font-weight="bold" lengthAdjust="spacing" textLength="78" x="476" y="341.5352">field_value</text><text fill="#000000" font-family="sans-serif" font-size="14" lengthAdjust="spacing" textLength="34" x="580" y="341.5352">Nishi</text><line style="stroke:#000000;stroke-width:1.0;" x1="575" x2="575" y1="326" y2="346.4883"/><line style="stroke:#000000;stroke-width:1.0;" x1="471" x2="742" y1="346.4883" y2="346.4883"/><text fill="#000000" font-family="sans-serif" font-size="14" font-weight="bold" lengthAdjust="spacing" textLength="74" x="476" y="362.0234">row_count</text><text fill="#000000" font-family="sans-serif" font-size="14" lengthAdjust="spacing" textLength="9" x="580" y="362.0234">1</text><line style="stroke:#000000;stroke-width:1.0;" x1="575" x2="575" y1="346.4883" y2="366.9766"/><line style="stroke:#000000;stroke-width:1.0;" x1="471" x2="742" y1="366.9766" y2="366.9766"/><text fill="#000000" font-family="sans-serif" font-size="14" font-weight="bold" lengthAdjust="spacing" textLength="94" x="476" y="382.5117">ratio_percent</text><text fill="#000000" font-family="sans-serif" font-size="14" lengthAdjust="spacing" textLength="157" x="580" y="382.5117">4.3478260869565215</text><line style="stroke:#000000;stroke-width:1.0;" x1="575" x2="575" y1="366.9766" y2="387.4648"/><rect fill="none" height="61.4648" rx="5" ry="5" style="stroke:#000000;stroke-width:1.5;" width="271" x="471" y="326"/><rect fill="#F1F1F1" height="61.4648" rx="5" ry="5" style="stroke:#F1F1F1;stroke-width:1.5;" width="271" x="471" y="405"/><text fill="#000000" font-family="sans-serif" font-size="14" font-weight="bold" lengthAdjust="spacing" textLength="78" x="476" y="420.5352">field_value</text><text fill="#000000" font-family="sans-serif" font-size="14" lengthAdjust="spacing" textLength="75" x="580" y="420.5352">Hernandez</text><line style="stroke:#000000;stroke-width:1.0;" x1="575" x2="575" y1="405" y2="425.4883"/><line style="stroke:#000000;stroke-width:1.0;" x1="471" x2="742" y1="425.4883" y2="425.4883"/><text fill="#000000" font-family="sans-serif" font-size="14" font-weight="bold" lengthAdjust="spacing" textLength="74" x="476" y="441.0234">row_count</text><text fill="#000000" font-family="sans-serif" font-size="14" lengthAdjust="spacing" textLength="9" x="580" y="441.0234">1</text><line style="stroke:#000000;stroke-width:1.0;" x1="575" x2="575" y1="425.4883" y2="445.9766"/><line style="stroke:#000000;stroke-width:1.0;" x1="471" x2="742" y1="445.9766" y2="445.9766"/><text fill="#000000" font-family="sans-serif" font-size="14" font-weight="bold" lengthAdjust="spacing" textLength="94" x="476" y="461.5117">ratio_percent</text><text fill="#000000" font-family="sans-serif" font-size="14" lengthAdjust="spacing" textLength="157" x="580" y="461.5117">4.3478260869565215</text><line style="stroke:#000000;stroke-width:1.0;" x1="575" x2="575" y1="445.9766" y2="466.4648"/><rect fill="none" height="61.4648" rx="5" ry="5" style="stroke:#000000;stroke-width:1.5;" width="271" x="471" y="405"/><rect fill="#F1F1F1" height="61.4648" rx="5" ry="5" style="stroke:#F1F1F1;stroke-width:1.5;" width="271" x="471" y="484"/><text fill="#000000" font-family="sans-serif" font-size="14" font-weight="bold" lengthAdjust="spacing" textLength="78" x="476" y="499.5352">field_value</text><text fill="#000000" font-family="sans-serif" font-size="14" lengthAdjust="spacing" textLength="31" x="580" y="499.5352">King</text><line style="stroke:#000000;stroke-width:1.0;" x1="575" x2="575" y1="484" y2="504.4883"/><line style="stroke:#000000;stroke-width:1.0;" x1="471" x2="742" y1="504.4883" y2="504.4883"/><text fill="#000000" font-family="sans-serif" font-size="14" font-weight="bold" lengthAdjust="spacing" textLength="74" x="476" y="520.0234">row_count</text><text fill="#000000" font-family="sans-serif" font-size="14" lengthAdjust="spacing" textLength="9" x="580" y="520.0234">1</text><line style="stroke:#000000;stroke-width:1.0;" x1="575" x2="575" y1="504.4883" y2="524.9766"/><line style="stroke:#000000;stroke-width:1.0;" x1="471" x2="742" y1="524.9766" y2="524.9766"/><text fill="#000000" font-family="sans-serif" font-size="14" font-weight="bold" lengthAdjust="spacing" textLength="94" x="476" y="540.5117">ratio_percent</text><text fill="#000000" font-family="sans-serif" font-size="14" lengthAdjust="spacing" textLength="157" x="580" y="540.5117">4.3478260869565215</text><line style="stroke:#000000;stroke-width:1.0;" x1="575" x2="575" y1="524.9766" y2="545.4648"/><rect fill="none" height="61.4648" rx="5" ry="5" style="stroke:#000000;stroke-width:1.5;" width="271" x="471" y="484"/><rect fill="#F1F1F1" height="61.4648" rx="5" ry="5" style="stroke:#F1F1F1;stroke-width:1.5;" width="271" x="471" y="563"/><text fill="#000000" font-family="sans-serif" font-size="14" font-weight="bold" lengthAdjust="spacing" textLength="78" x="476" y="578.5352">field_value</text><text fill="#000000" font-family="sans-serif" font-size="14" lengthAdjust="spacing" textLength="48" x="580" y="578.5352">Vanauf</text><line style="stroke:#000000;stroke-width:1.0;" x1="575" x2="575" y1="563" y2="583.4883"/><line style="stroke:#000000;stroke-width:1.0;" x1="471" x2="742" y1="583.4883" y2="583.4883"/><text fill="#000000" font-family="sans-serif" font-size="14" font-weight="bold" lengthAdjust="spacing" textLength="74" x="476" y="599.0234">row_count</text><text fill="#000000" font-family="sans-serif" font-size="14" lengthAdjust="spacing" textLength="9" x="580" y="599.0234">1</text><line style="stroke:#000000;stroke-width:1.0;" x1="575" x2="575" y1="583.4883" y2="603.9766"/><line style="stroke:#000000;stroke-width:1.0;" x1="471" x2="742" y1="603.9766" y2="603.9766"/><text fill="#000000" font-family="sans-serif" font-size="14" font-weight="bold" lengthAdjust="spacing" textLength="94" x="476" y="619.5117">ratio_percent</text><text fill="#000000" font-family="sans-serif" font-size="14" lengthAdjust="spacing" textLength="157" x="580" y="619.5117">4.3478260869565215</text><line style="stroke:#000000;stroke-width:1.0;" x1="575" x2="575" y1="603.9766" y2="624.4648"/><rect fill="none" height="61.4648" rx="5" ry="5" style="stroke:#000000;stroke-width:1.5;" width="271" x="471" y="563"/><rect fill="#F1F1F1" height="61.4648" rx="5" ry="5" style="stroke:#F1F1F1;stroke-width:1.5;" width="271" x="471" y="642"/><text fill="#000000" font-family="sans-serif" font-size="14" font-weight="bold" lengthAdjust="spacing" textLength="78" x="476" y="657.5352">field_value</text><text fill="#000000" font-family="sans-serif" font-size="14" lengthAdjust="spacing" textLength="42" x="580" y="657.5352">Marsh</text><line style="stroke:#000000;stroke-width:1.0;" x1="575" x2="575" y1="642" y2="662.4883"/><line style="stroke:#000000;stroke-width:1.0;" x1="471" x2="742" y1="662.4883" y2="662.4883"/><text fill="#000000" font-family="sans-serif" font-size="14" font-weight="bold" lengthAdjust="spacing" textLength="74" x="476" y="678.0234">row_count</text><text fill="#000000" font-family="sans-serif" font-size="14" lengthAdjust="spacing" textLength="9" x="580" y="678.0234">1</text><line style="stroke:#000000;stroke-width:1.0;" x1="575" x2="575" y1="662.4883" y2="682.9766"/><line style="stroke:#000000;stroke-width:1.0;" x1="471" x2="742" y1="682.9766" y2="682.9766"/><text fill="#000000" font-family="sans-serif" font-size="14" font-weight="bold" lengthAdjust="spacing" textLength="94" x="476" y="698.5117">ratio_percent</text><text fill="#000000" font-family="sans-serif" font-size="14" lengthAdjust="spacing" textLength="157" x="580" y="698.5117">4.3478260869565215</text><line style="stroke:#000000;stroke-width:1.0;" x1="575" x2="575" y1="682.9766" y2="703.4648"/><rect fill="none" height="61.4648" rx="5" ry="5" style="stroke:#000000;stroke-width:1.5;" width="271" x="471" y="642"/><rect fill="#F1F1F1" height="61.4648" rx="5" ry="5" style="stroke:#F1F1F1;stroke-width:1.5;" width="271" x="471" y="721"/><text fill="#000000" font-family="sans-serif" font-size="14" font-weight="bold" lengthAdjust="spacing" textLength="78" x="476" y="736.5352">field_value</text><text fill="#000000" font-family="sans-serif" font-size="14" lengthAdjust="spacing" textLength="42" x="580" y="736.5352">Tseng</text><line style="stroke:#000000;stroke-width:1.0;" x1="575" x2="575" y1="721" y2="741.4883"/><line style="stroke:#000000;stroke-width:1.0;" x1="471" x2="742" y1="741.4883" y2="741.4883"/><text fill="#000000" font-family="sans-serif" font-size="14" font-weight="bold" lengthAdjust="spacing" textLength="74" x="476" y="757.0234">row_count</text><text fill="#000000" font-family="sans-serif" font-size="14" lengthAdjust="spacing" textLength="9" x="580" y="757.0234">1</text><line style="stroke:#000000;stroke-width:1.0;" x1="575" x2="575" y1="741.4883" y2="761.9766"/><line style="stroke:#000000;stroke-width:1.0;" x1="471" x2="742" y1="761.9766" y2="761.9766"/><text fill="#000000" font-family="sans-serif" font-size="14" font-weight="bold" lengthAdjust="spacing" textLength="94" x="476" y="777.5117">ratio_percent</text><text fill="#000000" font-family="sans-serif" font-size="14" lengthAdjust="spacing" textLength="157" x="580" y="777.5117">4.3478260869565215</text><line style="stroke:#000000;stroke-width:1.0;" x1="575" x2="575" y1="761.9766" y2="782.4648"/><rect fill="none" height="61.4648" rx="5" ry="5" style="stroke:#000000;stroke-width:1.5;" width="271" x="471" y="721"/><path d="M205,315.5 L218,315.5 C238.8273,315.5 235.8137,295.6507 254,285.5 C258.038,283.2462 262.2733,281.1247 266.6133,279.1338 " fill="none" style="stroke:#000000;stroke-width:1.0;stroke-dasharray:3.0,3.0;"/><path d="M267.8219,281.8909 L268.6812,278.2274 L265.4048,276.3766 L273.5062,276.1124 L267.8219,281.8909 " fill="#000000" style="stroke:#000000;stroke-width:1.0;"/><ellipse cx="205" cy="315.5" fill="#000000" rx="3" ry="3" style="stroke:#000000;stroke-width:1.0;"/><path d="M344.5,303.5 L357.5,303.5 C392.8613,303.5 410.6954,311.1847 435,285.5 C498.8819,217.9906 408.93,148.679 471,79.5 C472.0081,78.3765 473.0463,77.2844 474.1126,76.2231 " fill="none" style="stroke:#000000;stroke-width:1.0;stroke-dasharray:3.0,3.0;"/><path d="M476.1347,78.4455 L475.7795,74.7065 L472.0905,74.0006 L479.6688,71.1678 L476.1347,78.4455 " fill="#000000" style="stroke:#000000;stroke-width:1.0;"/><ellipse cx="344.5" cy="303.5" fill="#000000" rx="3" ry="3" style="stroke:#000000;stroke-width:1.0;"/><path d="M344.5,324.5 L357.5,324.5 C396.0599,324.5 410.4435,315.2295 435,285.5 C472.3625,240.267 429.6193,200.0887 471,158.5 C472.2233,157.2705 473.4828,156.0793 474.7755,154.925 " fill="none" style="stroke:#000000;stroke-width:1.0;stroke-dasharray:3.0,3.0;"/><path d="M476.7064,157.2737 L476.537,153.4769 L472.8447,152.5764 L480.6472,150.0978 L476.7064,157.2737 " fill="#000000" style="stroke:#000000;stroke-width:1.0;"/><ellipse cx="344.5" cy="324.5" fill="#000000" rx="3" ry="3" style="stroke:#000000;stroke-width:1.0;"/><path d="M344.5,344.5 L357.5,344.5 C400.79,344.5 404.4995,316.2205 435,285.5 C453.7883,266.5762 449.0554,252.6508 471,237.5 C473.3464,235.88 475.7599,234.3267 478.2295,232.8373 " fill="none" style="stroke:#000000;stroke-width:1.0;stroke-dasharray:3.0,3.0;"/><path d="M479.7476,235.5016 L480.2277,231.6987 L476.7115,230.173 L484.8903,229.0421 L479.7476,235.5016 " fill="#000000" style="stroke:#000000;stroke-width:1.0;"/><ellipse cx="344.5" cy="344.5" fill="#000000" rx="3" ry="3" style="stroke:#000000;stroke-width:1.0;"/><path d="M344.5,365.5 L357.5,365.5 C412.27,365.5 419.4402,335.9754 471,317.5 C477.5908,315.1383 484.3965,312.8044 491.2867,310.5217 " fill="none" style="stroke:#000000;stroke-width:1.0;stroke-dasharray:3.0,3.0;"/><path d="M492.2691,313.5231 L493.5378,309.7849 L490.3044,307.5203 L498.7903,308.0658 L492.2691,313.5231 " fill="#000000" style="stroke:#000000;stroke-width:1.0;"/><ellipse cx="344.5" cy="365.5" fill="#000000" rx="3" ry="3" style="stroke:#000000;stroke-width:1.0;"/><path d="M344.5,385.5 L357.5,385.5 C391.9249,385.5 428.8526,382.7204 463.4338,378.8823 " fill="none" style="stroke:#000000;stroke-width:1.0;stroke-dasharray:3.0,3.0;"/><path d="M463.7891,382.0038 L465.7749,378.6158 L463.0785,375.7608 L471.2376,377.9941 L463.7891,382.0038 " fill="#000000" style="stroke:#000000;stroke-width:1.0;"/><ellipse cx="344.5" cy="385.5" fill="#000000" rx="3" ry="3" style="stroke:#000000;stroke-width:1.0;"/><path d="M344.5,406.5 L357.5,406.5 C391.9249,406.5 428.8526,409.2796 463.4338,413.1177 " fill="none" style="stroke:#000000;stroke-width:1.0;stroke-dasharray:3.0,3.0;"/><path d="M463.0785,416.2392 L465.7749,413.3842 L463.7891,409.9962 L471.2376,414.0059 L463.0785,416.2392 " fill="#000000" style="stroke:#000000;stroke-width:1.0;"/><ellipse cx="344.5" cy="406.5" fill="#000000" rx="3" ry="3" style="stroke:#000000;stroke-width:1.0;"/><path d="M344.5,427.5 L357.5,427.5 C412.27,427.5 419.3775,457.2006 471,475.5 C476.867,477.5798 482.9057,479.6324 489.0234,481.6426 " fill="none" style="stroke:#000000;stroke-width:1.0;stroke-dasharray:3.0,3.0;"/><path d="M488.0876,484.5276 L491.1871,482.3445 L489.9592,478.7577 L496.2358,483.9821 L488.0876,484.5276 " fill="#000000" style="stroke:#000000;stroke-width:1.0;"/><ellipse cx="344.5" cy="427.5" fill="#000000" rx="3" ry="3" style="stroke:#000000;stroke-width:1.0;"/><path d="M344.5,447.5 L357.5,447.5 C426.8266,447.5 410.7882,520.1385 471,554.5 C474.1452,556.2949 477.3795,558.0127 480.682,559.6564 " fill="none" style="stroke:#000000;stroke-width:1.0;stroke-dasharray:3.0,3.0;"/><path d="M479.3737,562.4037 L482.7424,560.6377 L481.9903,556.9092 L487.55,562.9272 L479.3737,562.4037 " fill="#000000" style="stroke:#000000;stroke-width:1.0;"/><ellipse cx="344.5" cy="447.5" fill="#000000" rx="3" ry="3" style="stroke:#000000;stroke-width:1.0;"/><path d="M344.5,468.5 L357.5,468.5 C446.508,468.5 398.8044,581.4403 471,633.5 C473.0777,634.9982 475.2121,636.4392 477.395,637.825 " fill="none" style="stroke:#000000;stroke-width:1.0;stroke-dasharray:3.0,3.0;"/><path d="M475.7973,640.4995 L479.4009,639.0233 L478.9928,635.1505 L484.0812,641.8193 L475.7973,640.4995 " fill="#000000" style="stroke:#000000;stroke-width:1.0;"/><ellipse cx="344.5" cy="468.5" fill="#000000" rx="3" ry="3" style="stroke:#000000;stroke-width:1.0;"/><path d="M344.5,488.5 L357.5,488.5 C469.1062,488.5 385.0322,641.3278 471,712.5 C472.7177,713.922 474.4848,715.2923 476.2956,716.6125 " fill="none" style="stroke:#000000;stroke-width:1.0;stroke-dasharray:3.0,3.0;"/><path d="M474.5759,719.1394 L478.1908,717.9023 L478.0153,714.0857 L482.6127,720.9118 L474.5759,719.1394 " fill="#000000" style="stroke:#000000;stroke-width:1.0;"/><ellipse cx="344.5" cy="488.5" fill="#000000" rx="3" ry="3" style="stroke:#000000;stroke-width:1.0;"/><path d="M205,336.5 L218,336.5 C260.1629,336.5 303.1866,364.4055 326.2874,382.1547 " fill="none" style="stroke:#000000;stroke-width:1.0;stroke-dasharray:3.0,3.0;"/><path d="M324.4053,384.5427 L328.0784,383.5663 L328.1695,379.7667 L332.2574,386.86 L324.4053,384.5427 " fill="#000000" style="stroke:#000000;stroke-width:1.0;"/><ellipse cx="205" cy="336.5" fill="#000000" rx="3" ry="3" style="stroke:#000000;stroke-width:1.0;"/><!--MD5=[5efe86e0c6fb8cfec40360c08d16c90d]
@startjson
{
    "field1": "lastName",
    "combination": "lastName",
    "null_distribution": {
        "total_null_rows": 0,
        "total_not_null_rows": 23
    },
    "data_distribution": [
        {
            "field_value": "Patterson",
            "row_count": 3,
            "ratio_percent": 13.043478260869565
        },
        {
            "field_value": "Bondur",
            "row_count": 2,
            "ratio_percent": 8.695652173913043
        },
        {
            "field_value": "Firrelli",
            "row_count": 2,
            "ratio_percent": 8.695652173913043
        },
        {
            "field_value": "Castillo",
            "row_count": 1,
            "ratio_percent": 4.3478260869565215
        },
        {
            "field_value": "Nishi",
            "row_count": 1,
            "ratio_percent": 4.3478260869565215
        },
        {
            "field_value": "Hernandez",
            "row_count": 1,
            "ratio_percent": 4.3478260869565215
        },
        {
            "field_value": "King",
            "row_count": 1,
            "ratio_percent": 4.3478260869565215
        },
        {
            "field_value": "Vanauf",
            "row_count": 1,
            "ratio_percent": 4.3478260869565215
        },
        {
            "field_value": "Marsh",
            "row_count": 1,
            "ratio_percent": 4.3478260869565215
        },
        {
            "field_value": "Tseng",
            "row_count": 1,
            "ratio_percent": 4.3478260869565215
        }
    ]
}
@endjson

PlantUML version 1.2022.5(Sat Apr 30 06:55:52 EDT 2022)
(GPL source distribution)
Java Runtime: OpenJDK Runtime Environment
JVM: OpenJDK 64-Bit Server VM
Default Encoding: UTF-8
Language: en
Country: CA
--></g></svg>