<?xml version="1.0" encoding="UTF-8" standalone="no"?><svg xmlns="http://www.w3.org/2000/svg" xmlns:xlink="http://www.w3.org/1999/xlink" contentStyleType="text/css" height="557px" preserveAspectRatio="none" style="width:765px;height:557px;background:#FFFFFF;" version="1.1" viewBox="0 0 765 557" width="765px" zoomAndPan="magnify"><defs/><g><rect fill="#F1F1F1" height="81.9531" rx="5" ry="5" style="stroke:#F1F1F1;stroke-width:1.5;" width="218" x="10" y="161.5"/><text fill="#000000" font-family="sans-serif" font-size="14" font-weight="bold" lengthAdjust="spacing" textLength="42" x="15" y="177.0352">field1</text><text fill="#000000" font-family="sans-serif" font-size="14" lengthAdjust="spacing" textLength="74" x="149" y="177.0352">officeCode</text><line style="stroke:#000000;stroke-width:1.0;" x1="144" x2="144" y1="161.5" y2="181.9883"/><line style="stroke:#000000;stroke-width:1.0;" x1="10" x2="228" y1="181.9883" y2="181.9883"/><text fill="#000000" font-family="sans-serif" font-size="14" font-weight="bold" lengthAdjust="spacing" textLength="90" x="15" y="197.5234">combination</text><text fill="#000000" font-family="sans-serif" font-size="14" lengthAdjust="spacing" textLength="74" x="149" y="197.5234">officeCode</text><line style="stroke:#000000;stroke-width:1.0;" x1="144" x2="144" y1="181.9883" y2="202.4766"/><line style="stroke:#000000;stroke-width:1.0;" x1="10" x2="228" y1="202.4766" y2="202.4766"/><text fill="#000000" font-family="sans-serif" font-size="14" font-weight="bold" lengthAdjust="spacing" textLength="121" x="15" y="218.0117">null_distribution</text><text fill="#000000" font-family="sans-serif" font-size="14" lengthAdjust="spacing" textLength="12" x="149" y="218.0117">   </text><line style="stroke:#000000;stroke-width:1.0;" x1="144" x2="144" y1="202.4766" y2="222.9648"/><line style="stroke:#000000;stroke-width:1.0;" x1="10" x2="228" y1="222.9648" y2="222.9648"/><text fill="#000000" font-family="sans-serif" font-size="14" font-weight="bold" lengthAdjust="spacing" textLength="124" x="15" y="238.5">data_distribution</text><text fill="#000000" font-family="sans-serif" font-size="14" lengthAdjust="spacing" textLength="12" x="149" y="238.5">   </text><line style="stroke:#000000;stroke-width:1.0;" x1="144" x2="144" y1="222.9648" y2="243.4531"/><rect fill="none" height="81.9531" rx="5" ry="5" style="stroke:#000000;stroke-width:1.5;" width="218" x="10" y="161.5"/><rect fill="#F1F1F1" height="40.9766" rx="5" ry="5" style="stroke:#F1F1F1;stroke-width:1.5;" width="180" x="265" y="148"/><text fill="#000000" font-family="sans-serif" font-size="14" font-weight="bold" lengthAdjust="spacing" textLength="111" x="270" y="163.5352">total_null_rows</text><text fill="#000000" font-family="sans-serif" font-size="14" lengthAdjust="spacing" textLength="9" x="422" y="163.5352">0</text><line style="stroke:#000000;stroke-width:1.0;" x1="417" x2="417" y1="148" y2="168.4883"/><line style="stroke:#000000;stroke-width:1.0;" x1="265" x2="445" y1="168.4883" y2="168.4883"/><text fill="#000000" font-family="sans-serif" font-size="14" font-weight="bold" lengthAdjust="spacing" textLength="142" x="270" y="184.0234">total_not_null_rows</text><text fill="#000000" font-family="sans-serif" font-size="14" lengthAdjust="spacing" textLength="18" x="422" y="184.0234">23</text><line style="stroke:#000000;stroke-width:1.0;" x1="417" x2="417" y1="168.4883" y2="188.9766"/><rect fill="none" height="40.9766" rx="5" ry="5" style="stroke:#000000;stroke-width:1.5;" width="180" x="265" y="148"/><rect fill="#F1F1F1" height="143.418" rx="5" ry="5" style="stroke:#F1F1F1;stroke-width:1.5;" width="22" x="343" y="207"/><text fill="#000000" font-family="sans-serif" font-size="14" lengthAdjust="spacing" textLength="12" x="348" y="222.5352">   </text><line style="stroke:#000000;stroke-width:1.0;" x1="343" x2="365" y1="227.4883" y2="227.4883"/><text fill="#000000" font-family="sans-serif" font-size="14" lengthAdjust="spacing" textLength="12" x="348" y="243.0234">   </text><line style="stroke:#000000;stroke-width:1.0;" x1="343" x2="365" y1="247.9766" y2="247.9766"/><text fill="#000000" font-family="sans-serif" font-size="14" lengthAdjust="spacing" textLength="12" x="348" y="263.5117">   </text><line style="stroke:#000000;stroke-width:1.0;" x1="343" x2="365" y1="268.4648" y2="268.4648"/><text fill="#000000" font-family="sans-serif" font-size="14" lengthAdjust="spacing" textLength="12" x="348" y="284">   </text><line style="stroke:#000000;stroke-width:1.0;" x1="343" x2="365" y1="288.9531" y2="288.9531"/><text fill="#000000" font-family="sans-serif" font-size="14" lengthAdjust="spacing" textLength="12" x="348" y="304.4883">   </text><line style="stroke:#000000;stroke-width:1.0;" x1="343" x2="365" y1="309.4414" y2="309.4414"/><text fill="#000000" font-family="sans-serif" font-size="14" lengthAdjust="spacing" textLength="12" x="348" y="324.9766">   </text><line style="stroke:#000000;stroke-width:1.0;" x1="343" x2="365" y1="329.9297" y2="329.9297"/><text fill="#000000" font-family="sans-serif" font-size="14" lengthAdjust="spacing" textLength="12" x="348" y="345.4648">   </text><rect fill="none" height="143.418" rx="5" ry="5" style="stroke:#000000;stroke-width:1.5;" width="22" x="343" y="207"/><rect fill="#F1F1F1" height="61.4648" rx="5" ry="5" style="stroke:#F1F1F1;stroke-width:1.5;" width="262" x="486.5" y="10"/><text fill="#000000" font-family="sans-serif" font-size="14" font-weight="bold" lengthAdjust="spacing" textLength="78" x="491.5" y="25.5352">field_value</text><text fill="#000000" font-family="sans-serif" font-size="14" lengthAdjust="spacing" textLength="9" x="595.5" y="25.5352">1</text><line style="stroke:#000000;stroke-width:1.0;" x1="590.5" x2="590.5" y1="10" y2="30.4883"/><line style="stroke:#000000;stroke-width:1.0;" x1="486.5" x2="748.5" y1="30.4883" y2="30.4883"/><text fill="#000000" font-family="sans-serif" font-size="14" font-weight="bold" lengthAdjust="spacing" textLength="74" x="491.5" y="46.0234">row_count</text><text fill="#000000" font-family="sans-serif" font-size="14" lengthAdjust="spacing" textLength="9" x="595.5" y="46.0234">6</text><line style="stroke:#000000;stroke-width:1.0;" x1="590.5" x2="590.5" y1="30.4883" y2="50.9766"/><line style="stroke:#000000;stroke-width:1.0;" x1="486.5" x2="748.5" y1="50.9766" y2="50.9766"/><text fill="#000000" font-family="sans-serif" font-size="14" font-weight="bold" lengthAdjust="spacing" textLength="94" x="491.5" y="66.5117">ratio_percent</text><text fill="#000000" font-family="sans-serif" font-size="14" lengthAdjust="spacing" textLength="148" x="595.5" y="66.5117">26.08695652173913</text><line style="stroke:#000000;stroke-width:1.0;" x1="590.5" x2="590.5" y1="50.9766" y2="71.4648"/><rect fill="none" height="61.4648" rx="5" ry="5" style="stroke:#000000;stroke-width:1.5;" width="262" x="486.5" y="10"/><rect fill="#F1F1F1" height="61.4648" rx="5" ry="5" style="stroke:#F1F1F1;stroke-width:1.5;" width="262" x="486.5" y="89"/><text fill="#000000" font-family="sans-serif" font-size="14" font-weight="bold" lengthAdjust="spacing" textLength="78" x="491.5" y="104.5352">field_value</text><text fill="#000000" font-family="sans-serif" font-size="14" lengthAdjust="spacing" textLength="9" x="595.5" y="104.5352">4</text><line style="stroke:#000000;stroke-width:1.0;" x1="590.5" x2="590.5" y1="89" y2="109.4883"/><line style="stroke:#000000;stroke-width:1.0;" x1="486.5" x2="748.5" y1="109.4883" y2="109.4883"/><text fill="#000000" font-family="sans-serif" font-size="14" font-weight="bold" lengthAdjust="spacing" textLength="74" x="491.5" y="125.0234">row_count</text><text fill="#000000" font-family="sans-serif" font-size="14" lengthAdjust="spacing" textLength="9" x="595.5" y="125.0234">5</text><line style="stroke:#000000;stroke-width:1.0;" x1="590.5" x2="590.5" y1="109.4883" y2="129.9766"/><line style="stroke:#000000;stroke-width:1.0;" x1="486.5" x2="748.5" y1="129.9766" y2="129.9766"/><text fill="#000000" font-family="sans-serif" font-size="14" font-weight="bold" lengthAdjust="spacing" textLength="94" x="491.5" y="145.5117">ratio_percent</text><text fill="#000000" font-family="sans-serif" font-size="14" lengthAdjust="spacing" textLength="148" x="595.5" y="145.5117">21.73913043478261</text><line style="stroke:#000000;stroke-width:1.0;" x1="590.5" x2="590.5" y1="129.9766" y2="150.4648"/><rect fill="none" height="61.4648" rx="5" ry="5" style="stroke:#000000;stroke-width:1.5;" width="262" x="486.5" y="89"/><rect fill="#F1F1F1" height="61.4648" rx="5" ry="5" style="stroke:#F1F1F1;stroke-width:1.5;" width="271" x="482" y="168"/><text fill="#000000" font-family="sans-serif" font-size="14" font-weight="bold" lengthAdjust="spacing" textLength="78" x="487" y="183.5352">field_value</text><text fill="#000000" font-family="sans-serif" font-size="14" lengthAdjust="spacing" textLength="9" x="591" y="183.5352">6</text><line style="stroke:#000000;stroke-width:1.0;" x1="586" x2="586" y1="168" y2="188.4883"/><line style="stroke:#000000;stroke-width:1.0;" x1="482" x2="753" y1="188.4883" y2="188.4883"/><text fill="#000000" font-family="sans-serif" font-size="14" font-weight="bold" lengthAdjust="spacing" textLength="74" x="487" y="204.0234">row_count</text><text fill="#000000" font-family="sans-serif" font-size="14" lengthAdjust="spacing" textLength="9" x="591" y="204.0234">4</text><line style="stroke:#000000;stroke-width:1.0;" x1="586" x2="586" y1="188.4883" y2="208.9766"/><line style="stroke:#000000;stroke-width:1.0;" x1="482" x2="753" y1="208.9766" y2="208.9766"/><text fill="#000000" font-family="sans-serif" font-size="14" font-weight="bold" lengthAdjust="spacing" textLength="94" x="487" y="224.5117">ratio_percent</text><text fill="#000000" font-family="sans-serif" font-size="14" lengthAdjust="spacing" textLength="157" x="591" y="224.5117">17.391304347826086</text><line style="stroke:#000000;stroke-width:1.0;" x1="586" x2="586" y1="208.9766" y2="229.4648"/><rect fill="none" height="61.4648" rx="5" ry="5" style="stroke:#000000;stroke-width:1.5;" width="271" x="482" y="168"/><rect fill="#F1F1F1" height="61.4648" rx="5" ry="5" style="stroke:#F1F1F1;stroke-width:1.5;" width="262" x="486.5" y="247"/><text fill="#000000" font-family="sans-serif" font-size="14" font-weight="bold" lengthAdjust="spacing" textLength="78" x="491.5" y="262.5352">field_value</text><text fill="#000000" font-family="sans-serif" font-size="14" lengthAdjust="spacing" textLength="9" x="595.5" y="262.5352">5</text><line style="stroke:#000000;stroke-width:1.0;" x1="590.5" x2="590.5" y1="247" y2="267.4883"/><line style="stroke:#000000;stroke-width:1.0;" x1="486.5" x2="748.5" y1="267.4883" y2="267.4883"/><text fill="#000000" font-family="sans-serif" font-size="14" font-weight="bold" lengthAdjust="spacing" textLength="74" x="491.5" y="283.0234">row_count</text><text fill="#000000" font-family="sans-serif" font-size="14" lengthAdjust="spacing" textLength="9" x="595.5" y="283.0234">2</text><line style="stroke:#000000;stroke-width:1.0;" x1="590.5" x2="590.5" y1="267.4883" y2="287.9766"/><line style="stroke:#000000;stroke-width:1.0;" x1="486.5" x2="748.5" y1="287.9766" y2="287.9766"/><text fill="#000000" font-family="sans-serif" font-size="14" font-weight="bold" lengthAdjust="spacing" textLength="94" x="491.5" y="303.5117">ratio_percent</text><text fill="#000000" font-family="sans-serif" font-size="14" lengthAdjust="spacing" textLength="148" x="595.5" y="303.5117">8.695652173913043</text><line style="stroke:#000000;stroke-width:1.0;" x1="590.5" x2="590.5" y1="287.9766" y2="308.4648"/><rect fill="none" height="61.4648" rx="5" ry="5" style="stroke:#000000;stroke-width:1.5;" width="262" x="486.5" y="247"/><rect fill="#F1F1F1" height="61.4648" rx="5" ry="5" style="stroke:#F1F1F1;stroke-width:1.5;" width="262" x="486.5" y="326"/><text fill="#000000" font-family="sans-serif" font-size="14" font-weight="bold" lengthAdjust="spacing" textLength="78" x="491.5" y="341.5352">field_value</text><text fill="#000000" font-family="sans-serif" font-size="14" lengthAdjust="spacing" textLength="9" x="595.5" y="341.5352">2</text><line style="stroke:#000000;stroke-width:1.0;" x1="590.5" x2="590.5" y1="326" y2="346.4883"/><line style="stroke:#000000;stroke-width:1.0;" x1="486.5" x2="748.5" y1="346.4883" y2="346.4883"/><text fill="#000000" font-family="sans-serif" font-size="14" font-weight="bold" lengthAdjust="spacing" textLength="74" x="491.5" y="362.0234">row_count</text><text fill="#000000" font-family="sans-serif" font-size="14" lengthAdjust="spacing" textLength="9" x="595.5" y="362.0234">2</text><line style="stroke:#000000;stroke-width:1.0;" x1="590.5" x2="590.5" y1="346.4883" y2="366.9766"/><line style="stroke:#000000;stroke-width:1.0;" x1="486.5" x2="748.5" y1="366.9766" y2="366.9766"/><text fill="#000000" font-family="sans-serif" font-size="14" font-weight="bold" lengthAdjust="spacing" textLength="94" x="491.5" y="382.5117">ratio_percent</text><text fill="#000000" font-family="sans-serif" font-size="14" lengthAdjust="spacing" textLength="148" x="595.5" y="382.5117">8.695652173913043</text><line style="stroke:#000000;stroke-width:1.0;" x1="590.5" x2="590.5" y1="366.9766" y2="387.4648"/><rect fill="none" height="61.4648" rx="5" ry="5" style="stroke:#000000;stroke-width:1.5;" width="262" x="486.5" y="326"/><rect fill="#F1F1F1" height="61.4648" rx="5" ry="5" style="stroke:#F1F1F1;stroke-width:1.5;" width="262" x="486.5" y="405"/><text fill="#000000" font-family="sans-serif" font-size="14" font-weight="bold" lengthAdjust="spacing" textLength="78" x="491.5" y="420.5352">field_value</text><text fill="#000000" font-family="sans-serif" font-size="14" lengthAdjust="spacing" textLength="9" x="595.5" y="420.5352">7</text><line style="stroke:#000000;stroke-width:1.0;" x1="590.5" x2="590.5" y1="405" y2="425.4883"/><line style="stroke:#000000;stroke-width:1.0;" x1="486.5" x2="748.5" y1="425.4883" y2="425.4883"/><text fill="#000000" font-family="sans-serif" font-size="14" font-weight="bold" lengthAdjust="spacing" textLength="74" x="491.5" y="441.0234">row_count</text><text fill="#000000" font-family="sans-serif" font-size="14" lengthAdjust="spacing" textLength="9" x="595.5" y="441.0234">2</text><line style="stroke:#000000;stroke-width:1.0;" x1="590.5" x2="590.5" y1="425.4883" y2="445.9766"/><line style="stroke:#000000;stroke-width:1.0;" x1="486.5" x2="748.5" y1="445.9766" y2="445.9766"/><text fill="#000000" font-family="sans-serif" font-size="14" font-weight="bold" lengthAdjust="spacing" textLength="94" x="491.5" y="461.5117">ratio_percent</text><text fill="#000000" font-family="sans-serif" font-size="14" lengthAdjust="spacing" textLength="148" x="595.5" y="461.5117">8.695652173913043</text><line style="stroke:#000000;stroke-width:1.0;" x1="590.5" x2="590.5" y1="445.9766" y2="466.4648"/><rect fill="none" height="61.4648" rx="5" ry="5" style="stroke:#000000;stroke-width:1.5;" width="262" x="486.5" y="405"/><rect fill="#F1F1F1" height="61.4648" rx="5" ry="5" style="stroke:#F1F1F1;stroke-width:1.5;" width="262" x="486.5" y="484"/><text fill="#000000" font-family="sans-serif" font-size="14" font-weight="bold" lengthAdjust="spacing" textLength="78" x="491.5" y="499.5352">field_value</text><text fill="#000000" font-family="sans-serif" font-size="14" lengthAdjust="spacing" textLength="9" x="595.5" y="499.5352">3</text><line style="stroke:#000000;stroke-width:1.0;" x1="590.5" x2="590.5" y1="484" y2="504.4883"/><line style="stroke:#000000;stroke-width:1.0;" x1="486.5" x2="748.5" y1="504.4883" y2="504.4883"/><text fill="#000000" font-family="sans-serif" font-size="14" font-weight="bold" lengthAdjust="spacing" textLength="74" x="491.5" y="520.0234">row_count</text><text fill="#000000" font-family="sans-serif" font-size="14" lengthAdjust="spacing" textLength="9" x="595.5" y="520.0234">2</text><line style="stroke:#000000;stroke-width:1.0;" x1="590.5" x2="590.5" y1="504.4883" y2="524.9766"/><line style="stroke:#000000;stroke-width:1.0;" x1="486.5" x2="748.5" y1="524.9766" y2="524.9766"/><text fill="#000000" font-family="sans-serif" font-size="14" font-weight="bold" lengthAdjust="spacing" textLength="94" x="491.5" y="540.5117">ratio_percent</text><text fill="#000000" font-family="sans-serif" font-size="14" lengthAdjust="spacing" textLength="148" x="595.5" y="540.5117">8.695652173913043</text><line style="stroke:#000000;stroke-width:1.0;" x1="590.5" x2="590.5" y1="524.9766" y2="545.4648"/><rect fill="none" height="61.4648" rx="5" ry="5" style="stroke:#000000;stroke-width:1.5;" width="262" x="486.5" y="484"/><path d="M216,212.5 L229,212.5 C246.1673,212.5 248.8568,204.3408 265,198.5 C271.3375,196.207 277.9484,193.8766 284.5816,191.5798 " fill="none" style="stroke:#000000;stroke-width:1.0;stroke-dasharray:3.0,3.0;"/><path d="M285.5718,194.4576 L286.7399,190.8372 L283.5913,188.7021 L291.776,189.1042 L285.5718,194.4576 " fill="#000000" style="stroke:#000000;stroke-width:1.0;"/><ellipse cx="216" cy="212.5" fill="#000000" rx="3" ry="3" style="stroke:#000000;stroke-width:1.0;"/><path d="M355.5,216.5 L368.5,216.5 C403.8613,216.5 420.1898,222.6713 446,198.5 C486.3314,160.7295 442.6839,118.3263 482,79.5 C483.2341,78.2813 484.5037,77.1002 485.806,75.9556 " fill="none" style="stroke:#000000;stroke-width:1.0;stroke-dasharray:3.0,3.0;"/><path d="M487.7215,78.3196 L487.579,74.519 L483.8905,73.5916 L491.7161,71.167 L487.7215,78.3196 " fill="#000000" style="stroke:#000000;stroke-width:1.0;"/><ellipse cx="355.5" cy="216.5" fill="#000000" rx="3" ry="3" style="stroke:#000000;stroke-width:1.0;"/><path d="M355.5,236.5 L368.5,236.5 C406.8621,236.5 415.2442,221.429 446,198.5 C464.9119,184.4009 461.973,171.9645 482,159.5 C485.3513,157.4142 488.8171,155.4323 492.3694,153.5497 " fill="none" style="stroke:#000000;stroke-width:1.0;stroke-dasharray:3.0,3.0;"/><path d="M493.7692,156.322 L494.4486,152.4998 L490.9696,150.7773 L499.3002,150.0501 L493.7692,156.322 " fill="#000000" style="stroke:#000000;stroke-width:1.0;"/><ellipse cx="355.5" cy="236.5" fill="#000000" rx="3" ry="3" style="stroke:#000000;stroke-width:1.0;"/><path d="M355.5,257.5 L368.5,257.5 C394.9686,257.5 450.7937,244.6687 502.8383,230.9738 " fill="none" style="stroke:#000000;stroke-width:1.0;stroke-dasharray:3.0,3.0;"/><path d="M503.6131,233.8999 L505.0329,230.3927 L502.0636,228.0477 L510.1535,229.0369 L503.6131,233.8999 " fill="#000000" style="stroke:#000000;stroke-width:1.0;"/><ellipse cx="355.5" cy="257.5" fill="#000000" rx="3" ry="3" style="stroke:#000000;stroke-width:1.0;"/><path d="M355.5,277.5 L368.5,277.5 C404.3469,277.5 443.1025,277.5 479.1024,277.5 " fill="none" style="stroke:#000000;stroke-width:1.0;stroke-dasharray:3.0,3.0;"/><path d="M479.1024,280.5552 L481.3938,277.5 L479.1024,274.4448 L486.7405,277.5 L479.1024,280.5552 " fill="#000000" style="stroke:#000000;stroke-width:1.0;"/><ellipse cx="355.5" cy="277.5" fill="#000000" rx="3" ry="3" style="stroke:#000000;stroke-width:1.0;"/><path d="M355.5,298.5 L368.5,298.5 C394.5741,298.5 449.2088,310.7626 500.6266,324.0109 " fill="none" style="stroke:#000000;stroke-width:1.0;stroke-dasharray:3.0,3.0;"/><path d="M499.8424,327.0345 L502.8944,324.599 L501.4108,320.9872 L508.1857,325.9713 L499.8424,327.0345 " fill="#000000" style="stroke:#000000;stroke-width:1.0;"/><ellipse cx="355.5" cy="298.5" fill="#000000" rx="3" ry="3" style="stroke:#000000;stroke-width:1.0;"/><path d="M355.5,319.5 L368.5,319.5 C429.4574,319.5 426.814,370.6097 482,396.5 C486.2033,398.4719 490.5277,400.3662 494.932,402.1835 " fill="none" style="stroke:#000000;stroke-width:1.0;stroke-dasharray:3.0,3.0;"/><path d="M493.815,404.9759 L497.0262,403.0213 L496.0489,399.3912 L501.9128,404.976 L493.815,404.9759 " fill="#000000" style="stroke:#000000;stroke-width:1.0;"/><ellipse cx="355.5" cy="319.5" fill="#000000" rx="3" ry="3" style="stroke:#000000;stroke-width:1.0;"/><path d="M355.5,339.5 L368.5,339.5 C447.2285,339.5 416.0726,432.468 482,475.5 C484.4419,477.0939 486.9501,478.624 489.5131,480.0927 " fill="none" style="stroke:#000000;stroke-width:1.0;stroke-dasharray:3.0,3.0;"/><path d="M488.0146,482.8544 L491.5844,481.2166 L491.0116,477.331 L496.4175,483.839 L488.0146,482.8544 " fill="#000000" style="stroke:#000000;stroke-width:1.0;"/><ellipse cx="355.5" cy="339.5" fill="#000000" rx="3" ry="3" style="stroke:#000000;stroke-width:1.0;"/><path d="M216,233.5 L229,233.5 C269.2749,233.5 312.779,254.2889 336.5166,267.6068 " fill="none" style="stroke:#000000;stroke-width:1.0;stroke-dasharray:3.0,3.0;"/><path d="M334.9718,270.2895 L338.5286,268.7654 L338.0614,264.924 L343.2234,271.4688 L334.9718,270.2895 " fill="#000000" style="stroke:#000000;stroke-width:1.0;"/><ellipse cx="216" cy="233.5" fill="#000000" rx="3" ry="3" style="stroke:#000000;stroke-width:1.0;"/><!--MD5=[3dead1eaf4370087b447df12db09c8e0]
@startjson
{
    "field1": "officeCode",
    "combination": "officeCode",
    "null_distribution": {
        "total_null_rows": 0,
        "total_not_null_rows": 23
    },
    "data_distribution": [
        {
            "field_value": "1",
            "row_count": 6,
            "ratio_percent": 26.08695652173913
        },
        {
            "field_value": "4",
            "row_count": 5,
            "ratio_percent": 21.73913043478261
        },
        {
            "field_value": "6",
            "row_count": 4,
            "ratio_percent": 17.391304347826086
        },
        {
            "field_value": "5",
            "row_count": 2,
            "ratio_percent": 8.695652173913043
        },
        {
            "field_value": "2",
            "row_count": 2,
            "ratio_percent": 8.695652173913043
        },
        {
            "field_value": "7",
            "row_count": 2,
            "ratio_percent": 8.695652173913043
        },
        {
            "field_value": "3",
            "row_count": 2,
            "ratio_percent": 8.695652173913043
        }
    ]
}
@endjson

PlantUML version 1.2022.5(Sat Apr 30 06:55:52 EDT 2022)
(GPL source distribution)
Java Runtime: OpenJDK Runtime Environment
JVM: OpenJDK 64-Bit Server VM
Default Encoding: UTF-8
Language: en
Country: CA
--></g></svg>